# Blender 5.2.0 LTS
# www.blender.org
o Backdrop_Surfboard
v 7.872437 15.413340 -1.600000
v 7.860583 13.142858 -1.150000
v 7.422450 13.246236 -1.600000
v 7.280867 10.952381 -1.150000
v 6.849163 11.080050 -1.600000
v 6.563838 8.761905 -1.150000
v 6.140709 8.915770 -1.600000
v 5.685882 6.571429 -1.150000
v 5.274902 6.755608 -1.600000
v 4.596702 4.380952 -1.150000
v 4.205736 4.605382 -1.600000
v 3.159095 2.190476 -1.150000
v 2.830845 2.510466 -1.600000
v 0.369800 0.256414 -1.150000
v 0.000000 0.547594 -1.600000
v -0.369800 0.256414 -1.150000
v -0.700000 1.950000 6.050000
v -0.250000 1.950000 6.500000
v -0.250000 1.500000 6.050000
v -0.700000 8.050000 6.050000
v -0.250000 8.500000 6.050000
v -0.250000 8.050000 6.500000
v -0.250000 1.950000 1.500000
v -0.700000 1.950000 1.950000
v -0.250000 1.500000 1.950000
v -0.700000 8.050000 1.950000
v -0.250000 8.050000 1.500000
v -0.250000 8.500000 1.950000
v 0.250000 1.950000 6.500000
v 0.700000 1.950000 6.050000
v 0.250000 1.500000 6.050000
v 0.700000 8.050000 6.050000
v 0.250000 8.050000 6.500000
v 0.250000 8.500000 6.050000
v 0.700000 1.950000 1.950000
v 0.250000 1.950000 1.500000
v -4.596702 41.619049 1.150000
v -4.205737 41.394615 1.600000
v -4.596702 41.619049 -1.150000
v -4.205737 41.394615 -1.600000
v -3.159095 43.809525 1.150000
v -0.000000 45.452404 1.600000
v -2.830844 43.489536 1.600000
v -3.159095 43.809525 -1.150000
v -2.830844 43.489536 -1.600000
v 0.000000 45.452404 -1.600000
v 3.159095 43.809525 1.150000
v 2.830844 43.489536 1.600000
v 3.159095 43.809525 -1.150000
v 2.830844 43.489536 -1.600000
v 4.596702 41.619049 1.150000
v 4.205737 41.394615 1.600000
v 4.596702 41.619049 -1.150000
v 4.205737 41.394615 -1.600000
v 5.685882 39.428570 1.150000
v 5.274907 39.244381 1.600000
v 5.685882 39.428570 -1.150000
v 5.274907 39.244381 -1.600000
v 6.563838 37.238094 1.150000
v 6.140711 37.084225 1.600000
v 6.563838 37.238094 -1.150000
v 6.140711 37.084225 -1.600000
v 7.280867 35.047619 1.150000
v 6.849160 34.919956 1.600000
v 7.280867 35.047619 -1.150000
v 0.250000 1.500000 1.950000
v 6.849160 34.919956 -1.600000
v 7.860583 32.857143 1.150000
v 7.422451 32.753757 1.600000
v 7.860583 32.857143 -1.150000
v 7.422451 32.753757 -1.600000
v 8.315423 30.666666 1.150000
v 7.872437 30.586662 1.600000
v 8.315423 30.666666 -1.150000
v 7.872437 30.586662 -1.600000
v 8.652317 28.476191 1.150000
v 8.205794 28.419174 1.600000
v 8.652317 28.476191 -1.150000
v 8.205794 28.419174 -1.600000
v 8.875184 26.285715 1.150000
v 8.426339 26.251530 1.600000
v 8.875184 26.285715 -1.150000
v 8.426339 26.251530 -1.600000
v 8.986150 24.095238 1.150000
v 8.536150 24.083843 1.600000
v 8.986150 24.095238 -1.150000
v 8.536150 24.083843 -1.600000
v 0.250000 8.050000 1.500000
v 8.986150 21.904762 1.150000
v 8.536150 21.916157 1.600000
v 8.986150 21.904762 -1.150000
v 8.536150 21.916157 -1.600000
v 8.875184 19.714285 1.150000
v 8.426339 19.748470 1.600000
v 8.875184 19.714285 -1.150000
v 8.426339 19.748470 -1.600000
v 8.652317 17.523809 1.150000
v 8.205794 17.580826 1.600000
v 8.652317 17.523809 -1.150000
v 8.205794 17.580826 -1.600000
v 8.315423 15.333333 1.150000
v 7.872437 15.413340 1.600000
v 8.315423 15.333333 -1.150000
v 7.872437 15.413340 -1.600000
v 7.860583 13.142858 1.150000
v 7.422450 13.246236 1.600000
v 7.860583 13.142858 -1.150000
v 7.422450 13.246236 -1.600000
v 7.280867 10.952381 1.150000
v 0.700000 8.050000 1.950000
v 6.849163 11.080050 1.600000
v 7.280867 10.952381 -1.150000
v 6.849163 11.080050 -1.600000
v 6.563838 8.761905 1.150000
v 6.140709 8.915770 1.600000
v 6.563838 8.761905 -1.150000
v 6.140709 8.915770 -1.600000
v 5.685882 6.571429 1.150000
v 5.274902 6.755608 1.600000
v 5.685882 6.571429 -1.150000
v 5.274902 6.755608 -1.600000
v 4.596702 4.380952 1.150000
v 4.205736 4.605382 1.600000
v 4.596702 4.380952 -1.150000
v 4.205736 4.605382 -1.600000
v 3.159095 2.190476 1.150000
v 0.000000 0.547594 1.600000
v 2.830845 2.510466 1.600000
v 3.159095 2.190476 -1.150000
v 2.830845 2.510466 -1.600000
v 0.000000 0.547594 -1.600000
v 0.250000 8.500000 1.950000
v 8.315423 15.333333 -1.150000
v 8.205794 17.580826 -1.600000
v 8.652317 17.523809 -1.150000
v 8.426339 19.748470 -1.600000
v 8.875184 19.714285 -1.150000
v 8.536150 21.916157 -1.600000
v 8.986150 21.904762 -1.150000
v 8.536150 24.083843 -1.600000
v 8.986150 24.095238 -1.150000
v 8.426339 26.251530 -1.600000
v 8.875184 26.285715 -1.150000
v 8.205794 28.419174 -1.600000
v 8.652317 28.476191 -1.150000
v 7.872437 30.586662 -1.600000
v 8.315423 30.666666 -1.150000
v 7.422451 32.753757 -1.600000
v 7.860583 32.857143 -1.150000
v 6.849160 34.919956 -1.600000
v 7.280867 35.047619 -1.150000
v 6.140711 37.084225 -1.600000
v 6.563838 37.238094 -1.150000
v 5.274907 39.244381 -1.600000
v 5.685882 39.428570 -1.150000
v 4.205737 41.394615 -1.600000
v 4.596702 41.619049 -1.150000
v 2.830844 43.489536 -1.600000
v 3.159095 43.809525 -1.150000
v 0.369800 45.743587 -1.150000
v 0.000000 45.452404 -1.600000
v -0.369798 45.743587 -1.150000
v -2.830844 43.489536 -1.600000
v -3.159095 43.809525 -1.150000
v -4.205737 41.394615 -1.600000
v -4.596702 41.619049 -1.150000
v -5.274907 39.244381 -1.600000
v -5.685882 39.428570 -1.150000
v -6.140711 37.084225 -1.600000
v -6.563838 37.238094 -1.150000
v -6.849160 34.919956 -1.600000
v -7.280867 35.047619 -1.150000
v -7.422451 32.753757 -1.600000
v -7.860583 32.857143 -1.150000
v -7.872437 30.586662 -1.600000
v -8.315423 30.666666 -1.150000
v -8.205794 28.419174 -1.600000
v -8.652317 28.476191 -1.150000
v -8.426339 26.251530 -1.600000
v -8.875184 26.285715 -1.150000
v -8.536150 24.083843 -1.600000
v -8.986150 24.095238 -1.150000
v -8.536150 21.916157 -1.600000
v -8.986150 21.904762 -1.150000
v -8.426339 19.748470 -1.600000
v -8.875184 19.714285 -1.150000
v -8.205794 17.580826 -1.600000
v -8.652317 17.523809 -1.150000
v -7.872437 15.413340 -1.600000
v -8.315423 15.333333 -1.150000
v -7.422450 13.246236 -1.600000
v -7.860583 13.142858 -1.150000
v -6.849163 11.080050 -1.600000
v -7.280867 10.952381 -1.150000
v -6.140709 8.915770 -1.600000
v -6.563838 8.761905 -1.150000
v -5.274902 6.755608 -1.600000
v -5.685882 6.571429 -1.150000
v -4.205736 4.605382 -1.600000
v -4.596702 4.380952 -1.150000
v -2.830845 2.510466 -1.600000
v -3.159095 2.190476 -1.150000
v -0.369800 0.256414 1.150000
v 0.369800 0.256414 1.150000
v 0.000000 0.547594 1.600000
v 2.830845 2.510466 1.600000
v 3.159095 2.190476 1.150000
v 4.205736 4.605382 1.600000
v 4.596702 4.380952 1.150000
v 5.274902 6.755608 1.600000
v 5.685882 6.571429 1.150000
v 6.140709 8.915770 1.600000
v 6.563838 8.761905 1.150000
v 6.849163 11.080050 1.600000
v 7.280867 10.952381 1.150000
v 7.422450 13.246236 1.600000
v 7.860583 13.142858 1.150000
v 7.872437 15.413340 1.600000
v 8.315423 15.333333 1.150000
v 8.205794 17.580826 1.600000
v 8.652317 17.523809 1.150000
v 8.426339 19.748470 1.600000
v 8.875184 19.714285 1.150000
v 8.536150 21.916157 1.600000
v 8.986150 21.904762 1.150000
v 8.536150 24.083843 1.600000
v 8.986150 24.095238 1.150000
v 8.426339 26.251530 1.600000
v 8.875184 26.285715 1.150000
v 8.205794 28.419174 1.600000
v 8.652317 28.476191 1.150000
v 7.872437 30.586662 1.600000
v 8.315423 30.666666 1.150000
v 7.422451 32.753757 1.600000
v 7.860583 32.857143 1.150000
v 6.849160 34.919956 1.600000
v 7.280867 35.047619 1.150000
v 6.140711 37.084225 1.600000
v 6.563838 37.238094 1.150000
v 5.274907 39.244381 1.600000
v 5.685882 39.428570 1.150000
v 4.205737 41.394615 1.600000
v 4.596702 41.619049 1.150000
v 2.830844 43.489536 1.600000
v 3.159095 43.809525 1.150000
v 0.369798 45.743587 1.150000
v -0.369800 45.743587 1.150000
v -0.000000 45.452404 1.600000
v -2.830844 43.489536 1.600000
v -3.159095 43.809525 1.150000
v -4.205737 41.394615 1.600000
v -4.596702 41.619049 1.150000
v -5.274907 39.244381 1.600000
v -5.685882 39.428570 1.150000
v -6.140711 37.084225 1.600000
v -6.563838 37.238094 1.150000
v -6.849160 34.919956 1.600000
v -7.280867 35.047619 1.150000
v -7.422451 32.753757 1.600000
v -7.860583 32.857143 1.150000
v -7.872437 30.586662 1.600000
v -8.315423 30.666666 1.150000
v -8.205794 28.419174 1.600000
v -8.652317 28.476191 1.150000
v -8.426339 26.251530 1.600000
v -8.875184 26.285715 1.150000
v -8.536150 24.083843 1.600000
v -8.986150 24.095238 1.150000
v -8.536150 21.916157 1.600000
v -8.986150 21.904762 1.150000
v -8.426339 19.748470 1.600000
v -8.875184 19.714285 1.150000
v -8.205794 17.580826 1.600000
v -8.652317 17.523809 1.150000
v -7.872437 15.413340 1.600000
v -8.315423 15.333333 1.150000
v -7.422450 13.246236 1.600000
v -7.860583 13.142858 1.150000
v -6.849163 11.080050 1.600000
v -7.280867 10.952381 1.150000
v -6.140709 8.915770 1.600000
v -6.563838 8.761905 1.150000
v -5.274902 6.755608 1.600000
v -5.685882 6.571429 1.150000
v -4.205736 4.605382 1.600000
v -4.596702 4.380952 1.150000
v -2.830845 2.510466 1.600000
v -3.159095 2.190476 1.150000
v -5.274907 39.244381 -1.600000
v -5.685882 39.428570 -1.150000
v -5.274907 39.244381 1.600000
v -5.685882 39.428570 1.150000
v -6.140711 37.084225 -1.600000
v -6.563838 37.238094 -1.150000
v -6.140711 37.084225 1.600000
v -6.563838 37.238094 1.150000
v -6.849160 34.919956 -1.600000
v -7.280867 35.047619 -1.150000
v -6.849160 34.919956 1.600000
v -7.280867 35.047619 1.150000
v -7.422451 32.753757 -1.600000
v -7.860583 32.857143 -1.150000
v -7.422451 32.753757 1.600000
v -7.860583 32.857143 1.150000
v -7.872437 30.586662 -1.600000
v -8.315423 30.666666 -1.150000
v -7.872437 30.586662 1.600000
v -8.315423 30.666666 1.150000
v -8.205794 28.419174 -1.600000
v -8.652317 28.476191 -1.150000
v -8.205794 28.419174 1.600000
v -8.652317 28.476191 1.150000
v -8.426339 26.251530 -1.600000
v -8.875184 26.285715 -1.150000
v -8.426339 26.251530 1.600000
v -8.875184 26.285715 1.150000
v -8.536150 24.083843 -1.600000
v -8.986150 24.095238 -1.150000
v -8.536150 24.083843 1.600000
v -8.986150 24.095238 1.150000
v -8.536150 21.916157 -1.600000
v -8.986150 21.904762 -1.150000
v -8.536150 21.916157 1.600000
v -8.986150 21.904762 1.150000
v -8.426339 19.748470 -1.600000
v -8.875184 19.714285 -1.150000
v -8.426339 19.748470 1.600000
v -8.875184 19.714285 1.150000
v -8.205794 17.580826 -1.600000
v -8.652317 17.523809 -1.150000
v -8.205794 17.580826 1.600000
v -8.652317 17.523809 1.150000
v -7.872437 15.413340 -1.600000
v -8.315423 15.333333 -1.150000
v -7.872437 15.413340 1.600000
v -8.315423 15.333333 1.150000
v -7.422450 13.246236 -1.600000
v -7.860583 13.142858 -1.150000
v -7.422450 13.246236 1.600000
v -7.860583 13.142858 1.150000
v -6.849163 11.080050 -1.600000
v -7.280867 10.952381 -1.150000
v -6.849163 11.080050 1.600000
v -7.280867 10.952381 1.150000
v -6.140709 8.915770 -1.600000
v -6.563838 8.761905 -1.150000
v -6.140709 8.915770 1.600000
v -6.563838 8.761905 1.150000
v -5.274902 6.755608 -1.600000
v -5.685882 6.571429 -1.150000
v -5.274902 6.755608 1.600000
v -5.685882 6.571429 1.150000
v -4.205736 4.605382 -1.600000
v -4.596702 4.380952 -1.150000
v -4.205736 4.605382 1.600000
v -4.596702 4.380952 1.150000
v -2.830845 2.510466 -1.600000
v -3.159095 2.190476 -1.150000
v -2.830845 2.510466 1.600000
v -3.159095 2.190476 1.150000
v -0.250000 1.500000 1.950000
v -0.250000 1.500000 6.050000
v -0.700000 1.950000 6.050000
v -0.700000 1.950000 1.950000
v -0.250000 1.950000 6.500000
v -0.250000 8.050000 6.500000
v -0.700000 8.050000 6.050000
v -0.250000 8.500000 6.050000
v -0.250000 8.500000 1.950000
v -0.700000 8.050000 1.950000
v -0.250000 8.050000 1.500000
v -0.250000 1.950000 1.500000
v 0.250000 1.500000 1.950000
v 0.250000 1.950000 1.500000
v 0.250000 8.500000 1.950000
v 0.250000 8.050000 1.500000
v 0.700000 8.050000 1.950000
v 0.700000 1.950000 1.950000
v 0.250000 1.500000 6.050000
v 0.700000 1.950000 6.050000
v 0.250000 8.500000 6.050000
v 0.700000 8.050000 6.050000
v 0.250000 8.050000 6.500000
v 0.250000 1.950000 6.500000
vn -0.0000 -0.0000 -1.0000
vn 0.9733 -0.2297 -0.0000
vn 0.9589 -0.2836 -0.0000
vn 0.9398 -0.3417 -0.0000
vn 0.9126 -0.4090 -0.0000
vn 0.8673 -0.4978 -0.0000
vn 0.7161 -0.6980 -0.0000
vn 0.3051 -0.8904 -0.3378
vn -0.3051 -0.8904 -0.3378
vn -1.0000 -0.0000 -0.0000
vn -0.0000 -0.0000 1.0000
vn -0.0000 -1.0000 -0.0000
vn -0.0000 1.0000 -0.0000
vn 1.0000 -0.0000 -0.0000
vn -0.6127 0.3517 0.7077
vn -0.6127 0.3517 -0.7077
vn -0.5016 0.4890 0.7136
vn -0.0000 0.7093 0.7049
vn -0.5016 0.4890 -0.7136
vn -0.0000 0.7093 -0.7049
vn 0.5016 0.4890 0.7136
vn 0.5016 0.4890 -0.7136
vn 0.6127 0.3517 0.7077
vn 0.6127 0.3517 -0.7077
vn 0.6450 0.2891 0.7074
vn 0.6450 0.2891 -0.7074
vn 0.6644 0.2416 0.7073
vn 0.6644 0.2416 -0.7073
vn 0.6779 0.2005 0.7073
vn 0.6779 0.2005 -0.7073
vn 0.6881 0.1624 0.7072
vn 0.6881 0.1624 -0.7072
vn 0.6957 0.1256 0.7072
vn 0.6957 0.1256 -0.7072
vn 0.7013 0.0895 0.7072
vn 0.7013 0.0895 -0.7072
vn 0.7050 0.0537 0.7072
vn 0.7050 0.0537 -0.7072
vn 0.7068 0.0179 0.7072
vn 0.7068 0.0179 -0.7072
vn 0.7068 -0.0179 0.7072
vn 0.7068 -0.0179 -0.7072
vn 0.7050 -0.0537 0.7072
vn 0.7050 -0.0537 -0.7072
vn 0.7013 -0.0895 0.7072
vn 0.7013 -0.0895 -0.7072
vn 0.6957 -0.1256 0.7072
vn 0.6957 -0.1256 -0.7072
vn 0.6881 -0.1624 0.7072
vn 0.6881 -0.1624 -0.7072
vn 0.6779 -0.2005 0.7073
vn 0.6779 -0.2005 -0.7073
vn 0.6644 -0.2416 0.7073
vn 0.6644 -0.2416 -0.7073
vn 0.6450 -0.2891 0.7074
vn 0.6450 -0.2891 -0.7074
vn 0.6127 -0.3517 0.7077
vn 0.6127 -0.3517 -0.7077
vn 0.5016 -0.4890 0.7136
vn -0.0000 -0.7093 0.7049
vn 0.5016 -0.4890 -0.7136
vn -0.0000 -0.7093 -0.7049
vn 0.9841 -0.1777 -0.0000
vn 0.9919 -0.1267 -0.0000
vn 0.9971 -0.0759 -0.0000
vn 0.9997 -0.0253 -0.0000
vn 0.9997 0.0253 -0.0000
vn 0.9971 0.0759 -0.0000
vn 0.9919 0.1267 -0.0000
vn 0.9841 0.1777 -0.0000
vn 0.9733 0.2297 -0.0000
vn 0.9589 0.2836 -0.0000
vn 0.9398 0.3417 -0.0000
vn 0.9126 0.4090 -0.0000
vn 0.8673 0.4978 -0.0000
vn 0.7161 0.6980 -0.0000
vn 0.3051 0.8904 -0.3378
vn -0.3051 0.8904 -0.3378
vn -0.7161 0.6980 -0.0000
vn -0.8673 0.4978 -0.0000
vn -0.9126 0.4090 -0.0000
vn -0.9398 0.3417 -0.0000
vn -0.9589 0.2836 -0.0000
vn -0.9733 0.2297 -0.0000
vn -0.9841 0.1777 -0.0000
vn -0.9919 0.1267 -0.0000
vn -0.9971 0.0759 -0.0000
vn -0.9997 0.0253 -0.0000
vn -0.9997 -0.0253 -0.0000
vn -0.9971 -0.0759 -0.0000
vn -0.9919 -0.1267 -0.0000
vn -0.9841 -0.1777 -0.0000
vn -0.9733 -0.2297 -0.0000
vn -0.9589 -0.2836 -0.0000
vn -0.9398 -0.3417 -0.0000
vn -0.9126 -0.4090 -0.0000
vn -0.8673 -0.4978 -0.0000
vn -0.7161 -0.6980 -0.0000
vn -0.3051 -0.8904 0.3378
vn 0.3051 -0.8904 0.3378
vn 0.3051 0.8904 0.3378
vn -0.3051 0.8904 0.3378
vn -0.6450 0.2891 -0.7074
vn -0.6450 0.2891 0.7074
vn -0.6644 0.2416 -0.7073
vn -0.6644 0.2416 0.7073
vn -0.6779 0.2005 -0.7073
vn -0.6779 0.2005 0.7073
vn -0.6881 0.1624 -0.7072
vn -0.6881 0.1624 0.7072
vn -0.6957 0.1256 -0.7072
vn -0.6957 0.1256 0.7072
vn -0.7013 0.0895 -0.7072
vn -0.7013 0.0895 0.7072
vn -0.7050 0.0537 -0.7072
vn -0.7050 0.0537 0.7072
vn -0.7068 0.0179 -0.7072
vn -0.7068 0.0179 0.7072
vn -0.7068 -0.0179 -0.7072
vn -0.7068 -0.0179 0.7072
vn -0.7050 -0.0537 -0.7072
vn -0.7050 -0.0537 0.7072
vn -0.7013 -0.0895 -0.7072
vn -0.7013 -0.0895 0.7072
vn -0.6957 -0.1256 -0.7072
vn -0.6957 -0.1256 0.7072
vn -0.6881 -0.1624 -0.7072
vn -0.6881 -0.1624 0.7072
vn -0.6779 -0.2005 -0.7073
vn -0.6779 -0.2005 0.7073
vn -0.6644 -0.2416 -0.7073
vn -0.6644 -0.2416 0.7073
vn -0.6450 -0.2891 -0.7074
vn -0.6450 -0.2891 0.7074
vn -0.6127 -0.3517 -0.7077
vn -0.6127 -0.3517 0.7077
vn -0.5016 -0.4890 -0.7136
vn -0.5016 -0.4890 0.7136
vn -0.4606 -0.7588 -0.4606
vn -0.4606 -0.7588 0.4606
vn -0.7588 -0.4606 0.4606
vn -0.7588 -0.4606 -0.4606
vn -0.4606 -0.4606 0.7588
vn -0.4606 0.4606 0.7588
vn -0.7588 0.4606 0.4606
vn -0.4606 0.7588 0.4606
vn -0.4606 0.7588 -0.4606
vn -0.7588 0.4606 -0.4606
vn -0.4606 0.4606 -0.7588
vn -0.4606 -0.4606 -0.7588
vn 0.4606 -0.7588 -0.4606
vn 0.4606 -0.4606 -0.7588
vn 0.4606 0.7588 -0.4606
vn 0.4606 0.4606 -0.7588
vn 0.7588 0.4606 -0.4606
vn 0.7588 -0.4606 -0.4606
vn 0.4606 -0.7588 0.4606
vn 0.7588 -0.4606 0.4606
vn 0.4606 0.7588 0.4606
vn 0.7588 0.4606 0.4606
vn 0.4606 0.4606 0.7588
vn 0.4606 -0.4606 0.7588
vt -0.097500 0.075000
vt -0.075000 0.097500
vt -0.097500 0.097500
vt 0.012500 -0.097500
vt 0.035000 -0.097500
vt 0.012500 -0.075000
vt 0.012500 -0.302500
vt 0.012500 -0.325000
vt 0.035000 -0.302500
vt 0.012500 0.075000
vt 0.035000 0.097500
vt 0.012500 0.097500
vt -0.012500 -0.097500
vt -0.012500 -0.075000
vt -0.035000 -0.097500
vt -0.012500 -0.325000
vt -0.012500 -0.302500
vt -0.035000 -0.302500
vt -0.012500 0.075000
vt -0.012500 0.097500
vt -0.035000 0.097500
vt -0.018490 0.057500
vt 0.000000 0.080000
vt 0.018490 0.057500
vt 0.018490 0.057500
vt -0.018490 0.057500
vt -0.018490 -0.057500
vt 0.018490 -0.057500
vt 0.000000 -0.080000
vt 0.018490 -0.057500
vt -0.018490 -0.057500
vt -0.000000 -0.080000
vt 0.141542 0.125523
vt 0.018490 0.012821
vt 0.000000 0.027380
vt 0.018490 0.012821
vt 0.157955 0.109524
vt 0.229835 0.219048
vt 0.210287 0.230269
vt 0.284294 0.328571
vt 0.263745 0.337780
vt 0.328192 0.438095
vt 0.307035 0.445788
vt 0.364043 0.547619
vt 0.342458 0.554003
vt 0.393029 0.657143
vt 0.371123 0.662312
vt 0.415771 0.766667
vt 0.393622 0.770667
vt 0.432616 0.876190
vt 0.410290 0.879041
vt 0.443759 0.985714
vt 0.421317 0.987424
vt 0.449308 1.095238
vt 0.426807 1.095808
vt 0.080000 1.204192
vt 0.057500 1.095238
vt 0.080000 1.095808
vt -0.080000 1.095808
vt -0.057500 1.204762
vt -0.080000 1.204192
vt 0.421317 1.312577
vt 0.449308 1.204762
vt 0.426807 1.204192
vt 0.443759 1.314286
vt 0.410290 1.420959
vt 0.432616 1.423810
vt 0.393622 1.529333
vt 0.415771 1.533333
vt 0.371123 1.637688
vt 0.393029 1.642857
vt 0.342458 1.745998
vt 0.364043 1.752381
vt 0.307036 1.854211
vt 0.328192 1.861905
vt 0.263745 1.962219
vt 0.284294 1.971429
vt 0.210287 2.069731
vt 0.229835 2.080952
vt 0.141542 2.174477
vt 0.157955 2.190476
vt -0.141542 2.174477
vt -0.018490 2.287179
vt 0.000000 2.272620
vt -0.018490 2.287179
vt -0.157955 2.190476
vt -0.229835 2.080952
vt -0.210287 2.069731
vt -0.284294 1.971429
vt -0.263745 1.962219
vt -0.328192 1.861905
vt -0.307036 1.854211
vt -0.364043 1.752381
vt -0.342458 1.745998
vt -0.393029 1.642857
vt -0.371123 1.637688
vt -0.415771 1.533333
vt -0.393622 1.529333
vt -0.432616 1.423810
vt -0.410290 1.420959
vt -0.443759 1.314286
vt -0.421317 1.312577
vt -0.449308 1.204762
vt -0.426807 1.204192
vt 0.057500 1.204762
vt -0.057500 1.095238
vt -0.421317 0.987424
vt -0.449308 1.095238
vt -0.426807 1.095808
vt -0.443759 0.985714
vt -0.410290 0.879041
vt -0.432616 0.876190
vt -0.393622 0.770667
vt -0.415771 0.766667
vt -0.371123 0.662312
vt -0.393029 0.657143
vt -0.342458 0.554003
vt -0.364043 0.547619
vt -0.307035 0.445788
vt -0.328192 0.438095
vt -0.263745 0.337780
vt -0.284294 0.328571
vt -0.210287 0.230269
vt -0.229835 0.219048
vt -0.141542 0.125523
vt -0.157955 0.109524
vt -0.302500 0.075000
vt -0.012500 0.402500
vt -0.097500 0.402500
vt -0.075000 0.402500
vt -0.302500 0.097500
vt 0.035000 0.402500
vt 0.012500 0.402500
vt 0.018490 2.287179
vt 0.018490 2.287179
vt -0.000000 2.272620
vt -0.018490 0.012821
vt -0.018490 0.012821
vt -0.302500 0.402500
vt -0.157955 -0.057500
vt -0.157955 0.057500
vt 0.157955 0.057500
vt 0.057500 0.219048
vt -0.057500 0.109524
vt 0.057500 0.109524
vt 0.057500 0.328571
vt -0.057500 0.219048
vt 0.057500 0.438095
vt -0.057500 0.328571
vt 0.057500 0.547619
vt -0.057500 0.438095
vt 0.057500 0.657143
vt -0.057500 0.547619
vt 0.057500 0.766667
vt -0.057500 0.657143
vt 0.057500 0.876190
vt -0.057500 0.766667
vt 0.057500 0.985714
vt -0.057500 0.876190
vt -0.057500 0.985714
vt 0.057500 1.314286
vt 0.057500 1.423810
vt -0.057500 1.314286
vt 0.057500 1.533333
vt -0.057500 1.423810
vt 0.057500 1.642857
vt -0.057500 1.533333
vt 0.057500 1.752381
vt -0.057500 1.642857
vt 0.057500 1.861905
vt -0.057500 1.752381
vt 0.057500 1.971429
vt -0.057500 1.861905
vt 0.057500 2.080952
vt -0.057500 1.971429
vt 0.057500 2.190476
vt -0.057500 2.080952
vt 0.157955 -0.057500
vt -0.057500 2.190476
vt -0.035000 0.402500
s 1
f 373/1/151 374/2/152 378/3/156
f 375/4/153 377/5/155 376/6/154
f 381/7/159 383/8/161 382/9/160
f 379/10/157 380/11/158 384/12/162
f 369/13/147 371/14/149 370/15/148
f 361/1/139 364/3/142 372/2/150
f 366/16/144 368/17/146 367/18/145
f 362/19/140 365/20/143 363/21/141
f 16/22/9 131/23/62 14/24/8
f 160/25/77 46/23/20 162/26/78
f 203/27/99 204/28/100 127/29/60
f 246/30/101 247/31/102 42/32/18
f 16/22/9 204/28/100 203/27/99
f 130/33/61 14/34/8 131/35/62
f 128/33/59 204/36/100 126/37/59
f 130/33/61 124/38/58 129/37/61
f 128/33/59 122/38/57 123/39/57
f 125/39/58 120/40/56 124/38/58
f 123/39/57 118/40/55 119/41/55
f 121/41/56 116/42/54 120/40/56
f 119/41/55 114/42/53 115/43/53
f 117/43/54 112/44/52 116/42/54
f 115/43/53 109/44/51 111/45/51
f 113/45/52 107/46/50 112/44/52
f 111/45/51 105/46/49 106/47/49
f 108/47/50 103/48/48 107/46/50
f 106/47/49 101/48/47 102/49/47
f 104/49/48 99/50/46 103/48/48
f 102/49/47 97/50/45 98/51/45
f 100/51/46 95/52/44 99/50/46
f 98/51/45 93/52/43 94/53/43
f 96/53/44 91/54/42 95/52/44
f 94/53/43 89/54/41 90/55/41
f 87/56/40 91/57/42 92/58/42
f 90/59/41 84/60/39 85/61/39
f 83/62/38 86/63/40 87/64/40
f 81/62/37 84/63/39 80/65/37
f 79/66/36 82/65/38 83/62/38
f 77/66/35 80/65/37 76/67/35
f 75/68/34 78/67/36 79/66/36
f 73/68/33 76/67/35 72/69/33
f 71/70/32 74/69/34 75/68/34
f 69/70/31 72/69/33 68/71/31
f 67/72/30 70/71/32 71/70/32
f 64/72/29 68/71/31 63/73/29
f 62/74/28 65/73/30 67/72/30
f 60/74/27 63/73/29 59/75/27
f 58/76/26 61/75/28 62/74/28
f 56/76/25 59/75/27 55/77/25
f 54/78/24 57/77/26 58/76/26
f 52/78/23 55/77/25 51/79/23
f 50/80/22 53/79/24 54/78/24
f 48/80/21 51/79/23 47/81/21
f 162/26/78 246/30/101 160/25/77
f 45/82/19 162/83/78 46/84/20
f 43/82/17 247/85/102 41/86/17
f 45/82/19 39/87/16 44/86/19
f 43/82/17 37/87/15 38/88/15
f 40/88/16 290/89/103 39/87/16
f 38/88/15 292/89/104 291/90/104
f 289/90/103 294/91/105 290/89/103
f 291/90/104 296/91/106 295/92/106
f 293/92/105 298/93/107 294/91/105
f 295/92/106 300/93/108 299/94/108
f 297/94/107 302/95/109 298/93/107
f 299/94/108 304/95/110 303/96/110
f 301/96/109 306/97/111 302/95/109
f 303/96/110 308/97/112 307/98/112
f 305/98/111 310/99/113 306/97/111
f 307/98/112 312/99/114 311/100/114
f 309/100/113 314/101/115 310/99/113
f 311/100/114 316/101/116 315/102/116
f 313/102/115 318/103/117 314/101/115
f 315/102/116 320/103/118 319/104/118
f 321/58/119 318/105/117 317/56/117
f 319/61/118 324/106/120 323/59/120
f 325/107/121 322/108/119 321/109/119
f 327/107/122 324/108/120 328/110/122
f 329/111/123 326/110/121 325/107/121
f 331/111/124 328/110/122 332/112/124
f 333/113/125 330/112/123 329/111/123
f 335/113/126 332/112/124 336/114/126
f 337/115/127 334/114/125 333/113/125
f 339/115/128 336/114/126 340/116/128
f 341/117/129 338/116/127 337/115/127
f 343/117/130 340/116/128 344/118/130
f 345/119/131 342/118/129 341/117/129
f 347/119/132 344/118/130 348/120/132
f 349/121/133 346/120/131 345/119/131
f 351/121/134 348/120/132 352/122/134
f 353/123/135 350/122/133 349/121/133
f 355/123/136 352/122/134 356/124/136
f 357/125/137 354/124/135 353/123/135
f 359/125/138 356/124/136 360/126/138
f 362/127/140 364/3/142 361/1/139
f 366/128/144 363/21/141 365/20/143
f 369/13/147 367/18/145 368/17/146
f 372/2/150 370/129/148 371/130/149
f 361/13/139 374/6/152 373/4/151
f 375/4/153 371/14/149 369/13/147
f 378/3/156 376/130/154 377/129/155
f 373/1/151 380/131/158 379/127/157
f 381/7/159 377/5/155 375/4/153
f 384/12/162 382/132/160 383/133/161
f 379/10/157 365/20/143 362/19/140
f 368/17/146 383/8/161 381/7/159
f 50/80/22 160/134/77 49/81/22
f 48/80/21 246/135/101 42/136/18
f 357/125/137 16/137/9 358/126/137
f 359/125/138 203/138/99 127/35/60
f 28/13/13 34/7/13 132/4/13
f 27/128/1 36/12/1 23/20/1
f 110/129/14 30/131/14 35/3/14
f 66/4/12 19/17/12 25/13/12
f 33/133/11 18/20/11 29/12/11
f 20/139/10 24/3/10 17/131/10
f 16/22/9 288/140/98 202/141/98
f 12/142/7 204/28/100 14/24/8
f 197/121/1 165/88/1 1/49/1
f 10/143/6 207/144/7 12/145/7
f 8/146/5 209/147/6 10/143/6
f 6/148/4 211/149/5 8/146/5
f 4/150/3 213/151/4 6/148/4
f 2/152/2 215/153/3 4/150/3
f 133/154/63 217/155/2 2/152/2
f 135/156/64 219/157/63 133/154/63
f 137/158/65 221/159/64 135/156/64
f 139/57/66 223/160/65 137/158/65
f 141/105/67 225/106/66 139/57/66
f 143/161/68 227/60/67 141/105/67
f 145/162/69 229/163/68 143/161/68
f 147/164/70 231/165/69 145/162/69
f 149/166/71 233/167/70 147/164/70
f 151/168/72 235/169/71 149/166/71
f 153/170/73 237/171/72 151/168/72
f 155/172/74 239/173/73 153/170/73
f 157/174/75 241/175/74 155/172/74
f 159/176/76 243/177/75 157/174/75
f 160/25/77 245/178/76 159/142/76
f 164/141/79 247/31/102 162/26/78
f 166/174/80 250/179/79 164/176/79
f 168/172/81 252/177/80 166/174/80
f 170/170/82 254/175/81 168/172/81
f 172/168/83 256/173/82 170/170/82
f 174/166/84 258/171/83 172/168/83
f 176/164/85 260/169/84 174/166/84
f 178/162/86 262/167/85 176/164/85
f 180/161/87 264/165/86 178/162/86
f 182/105/88 266/163/87 180/161/87
f 184/57/89 268/60/88 182/105/88
f 186/158/90 270/106/89 184/57/89
f 188/156/91 272/160/90 186/158/90
f 190/154/92 274/159/91 188/156/91
f 192/152/93 276/157/92 190/154/92
f 194/150/94 278/155/93 192/152/93
f 196/148/95 280/153/94 194/150/94
f 198/146/96 282/151/95 196/148/95
f 200/143/97 284/149/96 198/146/96
f 202/145/98 286/147/97 200/143/97
f 210/41/11 242/78/11 275/113/11
f 16/22/9 14/24/8 204/28/100
f 130/33/61 129/37/61 14/34/8
f 128/33/59 127/35/60 204/36/100
f 130/33/61 125/39/58 124/38/58
f 128/33/59 126/37/59 122/38/57
f 125/39/58 121/41/56 120/40/56
f 123/39/57 122/38/57 118/40/55
f 121/41/56 117/43/54 116/42/54
f 119/41/55 118/40/55 114/42/53
f 117/43/54 113/45/52 112/44/52
f 115/43/53 114/42/53 109/44/51
f 113/45/52 108/47/50 107/46/50
f 111/45/51 109/44/51 105/46/49
f 108/47/50 104/49/48 103/48/48
f 106/47/49 105/46/49 101/48/47
f 104/49/48 100/51/46 99/50/46
f 102/49/47 101/48/47 97/50/45
f 100/51/46 96/53/44 95/52/44
f 98/51/45 97/50/45 93/52/43
f 96/53/44 92/55/42 91/54/42
f 94/53/43 93/52/43 89/54/41
f 87/56/40 86/105/40 91/57/42
f 90/59/41 89/106/41 84/60/39
f 83/62/38 82/65/38 86/63/40
f 81/62/37 85/64/39 84/63/39
f 79/66/36 78/67/36 82/65/38
f 77/66/35 81/62/37 80/65/37
f 75/68/34 74/69/34 78/67/36
f 73/68/33 77/66/35 76/67/35
f 71/70/32 70/71/32 74/69/34
f 69/70/31 73/68/33 72/69/33
f 67/72/30 65/73/30 70/71/32
f 64/72/29 69/70/31 68/71/31
f 62/74/28 61/75/28 65/73/30
f 60/74/27 64/72/29 63/73/29
f 58/76/26 57/77/26 61/75/28
f 56/76/25 60/74/27 59/75/27
f 54/78/24 53/79/24 57/77/26
f 52/78/23 56/76/25 55/77/25
f 50/80/22 49/81/22 53/79/24
f 48/80/21 52/78/23 51/79/23
f 162/26/78 247/31/102 246/30/101
f 45/82/19 44/86/19 162/83/78
f 43/82/17 42/136/18 247/85/102
f 45/82/19 40/88/16 39/87/16
f 43/82/17 41/86/17 37/87/15
f 40/88/16 289/90/103 290/89/103
f 38/88/15 37/87/15 292/89/104
f 289/90/103 293/92/105 294/91/105
f 291/90/104 292/89/104 296/91/106
f 293/92/105 297/94/107 298/93/107
f 295/92/106 296/91/106 300/93/108
f 297/94/107 301/96/109 302/95/109
f 299/94/108 300/93/108 304/95/110
f 301/96/109 305/98/111 306/97/111
f 303/96/110 304/95/110 308/97/112
f 305/98/111 309/100/113 310/99/113
f 307/98/112 308/97/112 312/99/114
f 309/100/113 313/102/115 314/101/115
f 311/100/114 312/99/114 316/101/116
f 313/102/115 317/104/117 318/103/117
f 315/102/116 316/101/116 320/103/118
f 321/58/119 322/57/119 318/105/117
f 319/61/118 320/60/118 324/106/120
f 325/107/121 326/110/121 322/108/119
f 327/107/122 323/109/120 324/108/120
f 329/111/123 330/112/123 326/110/121
f 331/111/124 327/107/122 328/110/122
f 333/113/125 334/114/125 330/112/123
f 335/113/126 331/111/124 332/112/124
f 337/115/127 338/116/127 334/114/125
f 339/115/128 335/113/126 336/114/126
f 341/117/129 342/118/129 338/116/127
f 343/117/130 339/115/128 340/116/128
f 345/119/131 346/120/131 342/118/129
f 347/119/132 343/117/130 344/118/130
f 349/121/133 350/122/133 346/120/131
f 351/121/134 347/119/132 348/120/132
f 353/123/135 354/124/135 350/122/133
f 355/123/136 351/121/134 352/122/134
f 357/125/137 358/126/137 354/124/135
f 359/125/138 355/123/136 356/124/136
f 362/127/140 363/131/141 364/3/142
f 366/128/144 367/180/145 363/21/141
f 369/13/147 370/15/148 367/18/145
f 372/2/150 364/3/142 370/129/148
f 361/13/139 372/14/150 374/6/152
f 375/4/153 376/6/154 371/14/149
f 378/3/156 374/2/152 376/130/154
f 373/1/151 378/3/156 380/131/158
f 381/7/159 382/9/160 377/5/155
f 384/12/162 380/11/158 382/132/160
f 379/10/157 384/12/162 365/20/143
f 368/17/146 366/16/144 383/8/161
f 50/80/22 46/84/20 160/134/77
f 48/80/21 47/81/21 246/135/101
f 357/125/137 131/35/62 16/137/9
f 359/125/138 360/126/138 203/138/99
f 28/13/13 21/17/13 34/7/13
f 27/128/1 88/133/1 36/12/1
f 110/129/14 32/139/14 30/131/14
f 66/4/12 31/7/12 19/17/12
f 33/133/11 22/128/11 18/20/11
f 20/139/10 26/129/10 24/3/10
f 16/22/9 203/27/99 288/140/98
f 12/142/7 207/178/7 204/28/100
f 13/33/1 15/35/1 201/125/1
f 201/125/1 199/123/1 197/121/1
f 197/121/1 195/119/1 193/117/1
f 193/117/1 191/115/1 189/113/1
f 189/113/1 187/111/1 185/107/1
f 185/107/1 183/109/1 181/104/1
f 181/104/1 179/102/1 177/100/1
f 177/100/1 175/98/1 173/96/1
f 173/96/1 171/94/1 169/92/1
f 169/92/1 167/90/1 165/88/1
f 165/88/1 163/82/1 161/84/1
f 161/84/1 158/80/1 156/78/1
f 156/78/1 154/76/1 152/74/1
f 152/74/1 150/72/1 148/70/1
f 148/70/1 146/68/1 144/66/1
f 144/66/1 142/62/1 140/64/1
f 140/64/1 138/55/1 136/53/1
f 136/53/1 134/51/1 1/49/1
f 1/49/1 3/47/1 5/45/1
f 5/45/1 7/43/1 9/41/1
f 9/41/1 11/39/1 13/33/1
f 13/33/1 201/125/1 197/121/1
f 197/121/1 193/117/1 189/113/1
f 189/113/1 185/107/1 181/104/1
f 181/104/1 177/100/1 173/96/1
f 173/96/1 169/92/1 165/88/1
f 165/88/1 161/84/1 156/78/1
f 156/78/1 152/74/1 148/70/1
f 148/70/1 144/66/1 140/64/1
f 140/64/1 136/53/1 1/49/1
f 1/49/1 5/45/1 9/41/1
f 9/41/1 13/33/1 197/121/1
f 197/121/1 189/113/1 181/104/1
f 181/104/1 173/96/1 165/88/1
f 165/88/1 156/78/1 148/70/1
f 148/70/1 140/64/1 1/49/1
f 1/49/1 9/41/1 197/121/1
f 197/121/1 181/104/1 165/88/1
f 165/88/1 148/70/1 1/49/1
f 10/143/6 209/147/6 207/144/7
f 8/146/5 211/149/5 209/147/6
f 6/148/4 213/151/4 211/149/5
f 4/150/3 215/153/3 213/151/4
f 2/152/2 217/155/2 215/153/3
f 133/154/63 219/157/63 217/155/2
f 135/156/64 221/159/64 219/157/63
f 137/158/65 223/160/65 221/159/64
f 139/57/66 225/106/66 223/160/65
f 141/105/67 227/60/67 225/106/66
f 143/161/68 229/163/68 227/60/67
f 145/162/69 231/165/69 229/163/68
f 147/164/70 233/167/70 231/165/69
f 149/166/71 235/169/71 233/167/70
f 151/168/72 237/171/72 235/169/71
f 153/170/73 239/173/73 237/171/72
f 155/172/74 241/175/74 239/173/73
f 157/174/75 243/177/75 241/175/74
f 159/176/76 245/179/76 243/177/75
f 160/25/77 246/30/101 245/178/76
f 164/141/79 250/140/79 247/31/102
f 166/174/80 252/177/80 250/179/79
f 168/172/81 254/175/81 252/177/80
f 170/170/82 256/173/82 254/175/81
f 172/168/83 258/171/83 256/173/82
f 174/166/84 260/169/84 258/171/83
f 176/164/85 262/167/85 260/169/84
f 178/162/86 264/165/86 262/167/85
f 180/161/87 266/163/87 264/165/86
f 182/105/88 268/60/88 266/163/87
f 184/57/89 270/106/89 268/60/88
f 186/158/90 272/160/90 270/106/89
f 188/156/91 274/159/91 272/160/90
f 190/154/92 276/157/92 274/159/91
f 192/152/93 278/155/93 276/157/92
f 194/150/94 280/153/94 278/155/93
f 196/148/95 282/151/95 280/153/94
f 198/146/96 284/149/96 282/151/95
f 200/143/97 286/147/97 284/149/96
f 202/145/98 288/144/98 286/147/97
f 287/125/11 205/35/11 206/33/11
f 206/33/11 208/39/11 210/41/11
f 210/41/11 212/43/11 214/45/11
f 214/45/11 216/47/11 218/49/11
f 218/49/11 220/51/11 222/53/11
f 222/53/11 224/55/11 226/64/11
f 226/64/11 228/62/11 230/66/11
f 230/66/11 232/68/11 234/70/11
f 234/70/11 236/72/11 238/74/11
f 238/74/11 240/76/11 242/78/11
f 242/78/11 244/80/11 248/136/11
f 248/136/11 249/82/11 251/88/11
f 251/88/11 253/90/11 255/92/11
f 255/92/11 257/94/11 259/96/11
f 259/96/11 261/98/11 263/100/11
f 263/100/11 265/102/11 267/104/11
f 267/104/11 269/109/11 271/107/11
f 271/107/11 273/111/11 275/113/11
f 275/113/11 277/115/11 279/117/11
f 279/117/11 281/119/11 283/121/11
f 283/121/11 285/123/11 287/125/11
f 287/125/11 206/33/11 210/41/11
f 210/41/11 214/45/11 218/49/11
f 218/49/11 222/53/11 226/64/11
f 226/64/11 230/66/11 234/70/11
f 234/70/11 238/74/11 242/78/11
f 242/78/11 248/136/11 251/88/11
f 251/88/11 255/92/11 259/96/11
f 259/96/11 263/100/11 267/104/11
f 267/104/11 271/107/11 275/113/11
f 275/113/11 279/117/11 283/121/11
f 283/121/11 287/125/11 210/41/11
f 210/41/11 218/49/11 226/64/11
f 226/64/11 234/70/11 242/78/11
f 242/78/11 251/88/11 259/96/11
f 259/96/11 267/104/11 275/113/11
f 275/113/11 283/121/11 210/41/11
f 210/41/11 226/64/11 242/78/11
f 242/78/11 259/96/11 275/113/11
