# Blender 5.2.0 LTS
# www.blender.org
o Backdrop_Tree
v -0.278174 41.000000 5.778174
v 0.000000 47.000000 0.000000
v 6.363960 48.000000 6.363960
v 18.500000 41.000000 -2.000000
v 1.332924 36.000000 0.000000
v 0.942519 36.000000 -0.942519
v 0.000000 0.449858 2.787754
v 0.000000 0.449858 2.787754
v 0.000000 35.550140 1.832246
v 0.000000 35.550140 1.832246
v 10.606601 34.000000 10.606601
v 14.999999 34.000000 0.000000
v 5.363960 39.000000 12.363960
v -3.499999 41.000000 -2.000000
v 0.424621 42.000000 -4.924621
v 0.000000 34.000000 -15.000000
v 10.606602 34.000000 -10.606602
v 0.424621 42.000000 9.924621
v 0.000000 43.192387 -10.606602
v 0.000000 38.974884 -13.858192
v 0.000000 34.000000 -15.000000
v -2.312923 0.000000 0.000000
v -1.295594 35.550140 1.295594
v 3.499999 42.000000 2.500000
v 18.500000 41.000000 -2.000000
v 4.058971 46.010433 -4.058971
v 2.700734 45.826836 2.500000
v 7.500000 43.192387 -7.500000
v 9.799222 38.974884 -9.799222
v 10.606602 34.000000 -10.606602
v 17.662674 44.826836 -2.000000
v 15.278173 48.071068 -2.000000
v 11.709517 50.238796 -2.000000
v 0.424621 49.071068 2.500000
v 5.740252 46.010433 0.000000
v -2.981824 51.238796 2.500000
v 10.606601 43.192387 0.000000
v 13.858191 38.974884 0.000000
v 14.999999 34.000000 0.000000
v 7.500000 51.000000 -2.000000
v -14.424621 42.000000 9.924621
v 10.476579 50.238796 -4.976579
v 7.500000 41.000000 8.999999
v 4.058971 46.010433 4.058971
v 7.500000 44.826836 8.162673
v 7.499999 43.192387 7.499999
v 9.799221 38.974884 9.799221
v 10.606601 34.000000 10.606601
v 13.000000 48.071068 -7.500000
v 14.686096 44.826836 -9.186096
v 15.278174 41.000000 -9.778174
v 7.500000 48.071068 5.778174
v 0.000000 46.010433 5.740252
v 7.500000 50.238796 2.209517
v 0.000000 43.192387 10.606601
v 0.000000 38.974884 13.858191
v 0.000000 34.000000 14.999998
v -7.000000 52.000000 2.500000
v -5.217514 40.000000 0.217514
v -4.158720 51.238796 -0.341280
v 10.999999 40.000000 -6.500000
v -4.058971 46.010433 4.058971
v -1.750000 49.071068 -2.750000
v -7.499999 43.192387 7.499999
v -9.799221 38.974884 9.799221
v -10.606601 34.000000 10.606601
v 10.276855 43.444153 -6.500000
v 8.217514 46.363960 -6.500000
v 5.135492 48.314915 -6.500000
v -0.140545 45.826836 -4.359455
v -5.740252 46.010433 0.000000
v 0.424621 42.000000 -4.924621
v -10.606601 43.192387 0.000000
v -13.858191 38.974884 0.000000
v -14.999998 34.000000 0.000000
v 1.500000 49.000000 -6.500000
v -7.363960 39.000000 12.363960
v 7.500000 41.000000 -13.000000
v -7.000000 42.000000 12.999999
v -4.058971 46.010433 -4.058971
v -7.000000 45.826836 12.200733
v -7.499999 43.192387 -7.499999
v -9.799221 38.974884 -9.799221
v -10.606601 34.000000 -10.606601
v 7.500000 44.826836 -12.162675
v 7.500000 48.071068 -9.778174
v -7.000000 49.071068 9.924621
v 10.476579 50.238796 0.976579
v 0.000000 46.010433 -5.740252
v 13.000000 48.071068 3.500000
v 14.686095 44.826836 5.186095
v 15.278173 41.000000 5.778174
v 4.070682 48.314915 -9.070682
v 6.250000 46.363960 -11.250000
v -7.000000 51.238796 6.518176
v 7.999999 39.000000 6.000000
v 7.314915 42.252808 6.000000
v 0.313905 44.826836 5.186095
v 2.000000 48.071068 3.500000
v 4.523421 50.238796 0.976579
v 5.363960 45.010406 6.000000
v 7.706174 43.444153 -12.706174
v 2.444151 46.852974 6.000000
v -3.499999 41.000000 -2.000000
v 8.217514 40.000000 -13.217514
v -1.000000 47.500000 6.000000
v -2.662673 44.826836 -2.000000
v -0.278174 48.071068 -2.000000
v 3.290483 50.238796 -2.000000
v -6.363960 48.000000 6.363960
v 1.500000 40.000000 2.999999
v -7.000000 42.000000 -8.000000
v -0.278174 41.000000 -9.778173
v -7.000000 45.826836 -7.200735
v -7.000000 49.071068 -4.924621
v 0.313905 44.826836 -9.186095
v 2.000000 48.071068 -7.500000
v 4.523421 50.238796 -4.976579
v 1.500000 43.444153 2.276855
v -4.158720 51.238796 5.341280
v 1.500000 46.363960 0.217514
v -1.750000 49.071068 7.750000
v -0.140545 45.826836 9.359455
v 0.424621 42.000000 9.924621
v 1.435382 46.852974 3.564618
v 3.500000 45.010406 1.500000
v 7.500000 50.238796 -6.209517
v 1.500000 48.314915 -2.864507
v 8.999999 48.000000 0.000000
v 8.314915 51.826836 0.000000
v -13.859455 45.826836 9.359455
v -12.250000 49.071068 7.750000
v -9.841280 51.238796 5.341280
v 6.363960 55.071068 0.000000
v 4.879533 42.252808 0.120467
v 3.444151 57.238796 0.000000
v -17.500000 42.000000 2.500000
v 5.363961 39.000000 -0.363961
v 0.000000 58.000000 0.000000
v -16.700733 45.826836 2.500000
v -14.424621 49.071068 2.500000
v -11.018176 51.238796 2.500000
v 2.787754 0.449858 0.000000
v -1.000000 39.000000 14.999999
v 1.500000 40.000000 -16.000000
v -14.424621 42.000000 -4.924621
v 1.500000 43.444153 -15.276855
v 1.500000 46.363960 -13.217514
v -13.859455 45.826836 -4.359455
v -12.250000 49.071068 -2.750000
v -9.841280 51.238796 -0.341280
v -1.000000 42.252808 14.314915
v 4.070682 48.314915 -3.929318
v -1.000000 45.010406 12.363960
v 6.250000 46.363960 -1.750000
v 7.706173 43.444153 -0.293827
v 8.217514 40.000000 0.217514
v 2.435382 57.238796 -2.435382
v 4.500000 55.071068 -4.500000
v -7.000000 51.238796 -1.518176
v -1.000000 46.852974 9.444151
v -0.942519 36.000000 0.942519
v -1.971240 0.449858 1.971240
v -4.706173 43.444153 -0.293827
v -3.250000 46.363960 -1.750000
v -1.070682 48.314915 -3.929318
v -1.635484 0.000000 1.635484
v 5.879533 51.826836 -5.879533
v 0.000000 35.550140 1.832246
v -7.999999 40.000000 -6.500000
v 6.363961 48.000000 -6.363961
v -0.000000 36.000000 1.332924
v -7.276855 43.444153 -6.500000
v -5.217514 46.363960 -6.500000
v -2.135493 48.314915 -6.500000
v 0.000000 0.449858 2.787754
v 0.000000 48.000000 8.999999
v -1.000000 39.000000 -3.000000
v -5.217514 40.000000 -13.217514
v -1.000000 42.252808 -2.314916
v -1.000000 45.010406 -0.363961
v -4.706173 43.444153 -12.706173
v -3.250000 46.363960 -11.250000
v -1.070682 48.314915 -9.070682
v 0.000000 51.826836 8.314915
v 1.435382 46.852974 8.435383
v 0.000000 55.071068 6.363960
v 3.500000 45.010406 10.500000
v 4.879532 42.252808 11.879532
v 5.363960 39.000000 12.363960
v 0.000000 0.000000 2.312923
v 1.295594 35.550140 1.295594
v 1.500000 48.314915 -10.135492
v 0.000000 57.238796 3.444151
v 1.971240 0.449858 -1.971240
v 1.971240 0.449858 -1.971240
v -6.879532 42.252808 11.879532
v -5.500000 45.010406 10.500000
v -3.435382 46.852974 8.435383
v 5.363961 39.000000 -0.363961
v 0.942519 36.000000 0.942519
v 7.500000 41.000000 -13.000000
v -9.999999 39.000000 6.000000
v 1.971240 0.449858 1.971240
v 1.635484 0.000000 1.635484
v -9.314915 42.252808 6.000000
v -7.363960 45.010406 6.000000
v -4.444151 46.852974 6.000000
v 1.832246 35.550140 0.000000
v -10.606601 34.000000 -10.606601
v 0.000000 48.000000 -9.000000
v -7.363960 39.000000 -0.363960
v 0.000000 51.826836 -8.314916
v 0.000000 55.071068 -6.363961
v -6.879532 42.252808 0.120468
v -5.500000 45.010406 1.500000
v -3.435382 46.852974 3.564618
v 15.278174 41.000000 -9.778174
v 2.435382 57.238796 2.435382
v -14.999998 34.000000 0.000000
v 4.500000 55.071068 4.500000
v 5.879532 51.826836 5.879532
v 6.363960 48.000000 6.363960
v 1.332924 36.000000 0.000000
v 2.787754 0.449858 0.000000
v -1.000000 46.852974 2.555849
v -1.635484 0.000000 -1.635484
v 2.312923 0.000000 0.000000
v 0.000000 0.000000 -2.312923
v -5.879532 51.826836 5.879532
v -4.500000 55.071068 4.500000
v -2.435382 57.238796 2.435382
v -0.278174 41.000000 5.778174
v -17.500000 42.000000 2.500000
v 1.295594 35.550140 -1.295594
v -8.999999 48.000000 0.000000
v 0.942519 36.000000 -0.942519
v 1.971240 0.449858 -1.971240
v -8.314915 51.826836 0.000000
v -6.363960 55.071068 0.000000
v -3.444151 57.238796 0.000000
v -10.606601 34.000000 10.606601
v 8.217514 40.000000 -13.217514
v 1.635484 0.000000 -1.635484
v -6.363960 48.000000 -6.363960
v 0.000000 35.550140 -1.832246
v 0.000000 36.000000 -1.332924
v -5.879532 51.826836 -5.879532
v -4.500000 55.071068 -4.500000
v -2.435382 57.238796 -2.435382
v -7.999999 40.000000 -6.500000
v 0.000000 34.000000 14.999998
v 0.000000 0.449858 -2.787754
v -1.295594 35.550140 -1.295594
v -0.942519 36.000000 -0.942519
v -1.971240 0.449858 -1.971240
v -1.635484 0.000000 -1.635484
v -1.832246 35.550140 0.000000
v 0.000000 57.238796 -3.444151
v -1.332924 36.000000 -0.000000
v -2.787754 0.449858 0.000000
v 0.000000 0.000000 -2.312923
v 2.787754 0.449858 0.000000
v -14.424621 42.000000 9.924621
v 8.999999 48.000000 0.000000
v 8.217514 40.000000 0.217514
v 7.500000 41.000000 8.999999
v 15.278173 41.000000 5.778174
v -7.000000 42.000000 -8.000000
v -0.278174 41.000000 -9.778173
v -9.999999 39.000000 6.000000
v -0.000000 36.000000 1.332924
v -0.942519 36.000000 0.942519
v -7.000000 42.000000 12.999999
v 3.499999 42.000000 2.500000
v -8.999999 48.000000 0.000000
v -5.217514 40.000000 0.217514
v -1.971240 0.449858 -1.971240
v -1.971240 0.449858 -1.971240
v -1.295594 35.550140 -1.295594
v -1.295594 35.550140 -1.295594
v 1.500000 40.000000 -16.000000
v -14.424621 42.000000 -4.924621
v -1.295594 35.550140 1.295594
v -1.295594 35.550140 1.295594
v -1.971240 0.449858 1.971240
v -1.971240 0.449858 1.971240
v -7.363960 39.000000 12.363960
v 1.500000 40.000000 2.999999
v 0.000000 35.550140 -1.832246
v 0.000000 35.550140 -1.832246
v -1.332924 36.000000 -0.000000
v -0.942519 36.000000 -0.942519
v -1.832246 35.550140 0.000000
v -1.832246 35.550140 0.000000
v 10.999999 40.000000 -6.500000
v 1.971240 0.449858 1.971240
v 1.971240 0.449858 1.971240
v 1.832246 35.550140 0.000000
v 1.832246 35.550140 0.000000
v 1.295594 35.550140 -1.295594
v 1.295594 35.550140 -1.295594
v -1.000000 39.000000 -3.000000
v -5.217514 40.000000 -13.217514
v -2.787754 0.449858 0.000000
v -2.787754 0.449858 0.000000
v -6.363960 48.000000 6.363960
v -1.000000 39.000000 14.999999
v 7.999999 39.000000 6.000000
v 1.295594 35.550140 1.295594
v 1.295594 35.550140 1.295594
v 0.000000 0.449858 -2.787754
v 0.000000 0.449858 -2.787754
v 0.000000 36.000000 -1.332924
v 6.363961 48.000000 -6.363961
v 0.000000 48.000000 -9.000000
v -7.363960 39.000000 -0.363960
v 0.942519 36.000000 0.942519
v 1.635484 0.000000 1.635484
v 2.312923 0.000000 0.000000
v -2.312923 0.000000 0.000000
v 0.000000 48.000000 8.999999
v -1.635484 0.000000 1.635484
v 1.635484 0.000000 -1.635484
v -6.363960 48.000000 -6.363960
v 0.000000 0.000000 2.312923
vn -0.9056 0.1981 0.3751
vn -0.0000 1.0000 -0.0000
vn 0.9115 0.1632 0.3776
vn 0.9056 0.1981 -0.3751
vn 0.6694 0.7429 -0.0000
vn 0.4733 0.7429 -0.4733
vn 0.3826 0.0251 0.9236
vn -0.0000 -0.7259 0.6878
vn -0.0000 0.7429 0.6694
vn 0.9038 0.2074 0.3744
vn 0.9038 0.2074 -0.3744
vn 0.9069 0.1910 0.3756
vn 0.3758 0.1895 -0.9071
vn 0.3744 0.2074 -0.9038
vn 0.9071 0.1895 0.3758
vn -0.0000 0.7291 -0.6844
vn -0.0000 0.4080 -0.9130
vn -0.3744 0.2074 -0.9038
vn -0.0000 -1.0000 -0.0000
vn -0.9236 0.0251 0.3826
vn 0.9056 0.1981 0.3751
vn 0.2676 0.9256 -0.2676
vn 0.9247 0.3806 -0.0000
vn 0.4839 0.7291 -0.4839
vn 0.6456 0.4080 -0.6456
vn 0.9191 0.3940 -0.0000
vn 0.6998 0.7143 -0.0000
vn 0.3929 0.9196 -0.0000
vn 0.7145 0.6996 -0.0000
vn 0.3785 0.9256 -0.0000
vn 0.4073 0.9133 -0.0000
vn 0.6844 0.7291 -0.0000
vn 0.9130 0.4080 -0.0000
vn -0.9071 0.1895 0.3758
vn 0.2779 0.9196 -0.2779
vn -0.3751 0.1981 0.9056
vn 0.2676 0.9256 0.2676
vn -0.0000 0.3940 0.9191
vn 0.4839 0.7291 0.4839
vn 0.6456 0.4080 0.6456
vn 0.3744 0.2074 0.9038
vn 0.4948 0.7143 -0.4949
vn 0.6499 0.3940 -0.6499
vn -0.0000 0.7143 0.6998
vn -0.0000 0.9256 0.3785
vn -0.0000 0.9196 0.3929
vn -0.0000 0.7291 0.6844
vn -0.0000 0.4080 0.9130
vn -0.3744 0.2074 0.9038
vn -0.9070 0.1904 0.3757
vn 0.2880 0.9133 -0.2880
vn 0.9070 0.1904 0.3757
vn -0.2676 0.9256 0.2676
vn 0.5053 0.6996 -0.5053
vn -0.4839 0.7291 0.4839
vn -0.6456 0.4080 0.6456
vn -0.9038 0.2074 0.3744
vn 0.9241 0.3821 -0.0000
vn 0.7129 0.7013 -0.0000
vn 0.4057 0.9140 -0.0000
vn 0.6539 0.3806 -0.6539
vn -0.3785 0.9256 -0.0000
vn 0.9071 0.1895 -0.3758
vn -0.6844 0.7291 -0.0000
vn -0.9130 0.4080 -0.0000
vn -0.9038 0.2074 -0.3744
vn -0.9069 0.1910 0.3756
vn -0.3751 0.1981 -0.9056
vn -0.3758 0.1895 0.9071
vn -0.2676 0.9256 -0.2676
vn -0.0000 0.3806 0.9247
vn -0.4839 0.7291 -0.4839
vn -0.6456 0.4080 -0.6456
vn -0.0000 0.3940 -0.9191
vn -0.0000 0.7143 -0.6998
vn -0.0000 0.6996 0.7145
vn 0.2779 0.9196 0.2779
vn -0.0000 0.9256 -0.3785
vn 0.4949 0.7143 0.4949
vn 0.6499 0.3940 0.6499
vn 0.3751 0.1981 0.9056
vn 0.2868 0.9140 -0.2868
vn 0.5041 0.7013 -0.5041
vn -0.0000 0.9133 0.4073
vn 0.9237 0.3830 -0.0000
vn -0.6499 0.3940 0.6499
vn -0.4948 0.7143 0.4949
vn -0.2779 0.9196 0.2779
vn 0.7119 0.7023 -0.0000
vn 0.6534 0.3821 -0.6534
vn 0.4047 0.9145 -0.0000
vn -0.9056 0.1981 -0.3751
vn 0.9070 0.1904 -0.3757
vn -0.9191 0.3940 -0.0000
vn -0.6998 0.7143 -0.0000
vn -0.3929 0.9196 -0.0000
vn -0.9115 0.1632 0.3776
vn -0.3757 0.1904 0.9070
vn -0.3758 0.1895 -0.9071
vn -0.0000 0.3806 -0.9247
vn -0.0000 0.6996 -0.7145
vn -0.6499 0.3940 -0.6499
vn -0.4949 0.7143 -0.4949
vn -0.2779 0.9196 -0.2779
vn -0.0000 0.3821 0.9241
vn 0.2880 0.9133 0.2880
vn -0.0000 0.7013 0.7129
vn 0.5053 0.6996 0.5053
vn 0.6539 0.3806 0.6539
vn 0.3758 0.1895 0.9071
vn 0.2862 0.9145 -0.2862
vn 0.5034 0.7023 -0.5034
vn -0.0000 0.9196 -0.3929
vn -0.0000 0.9140 0.4057
vn 0.9412 0.3378 -0.0000
vn -0.6539 0.3806 0.6539
vn -0.5053 0.6996 0.5053
vn -0.2880 0.9133 0.2880
vn 0.7608 0.6490 -0.0000
vn 0.6532 0.3830 -0.6532
vn 0.4563 0.8898 -0.0000
vn -0.9071 0.1895 -0.3758
vn 0.9069 0.1910 -0.3756
vn -0.9247 0.3806 -0.0000
vn -0.7145 0.6996 -0.0000
vn -0.4073 0.9133 -0.0000
vn 0.6878 -0.7259 -0.0000
vn -0.3756 0.1910 0.9069
vn -0.3757 0.1904 -0.9070
vn -0.0000 0.3821 -0.9241
vn -0.0000 0.7013 -0.7129
vn -0.6539 0.3806 -0.6539
vn -0.5053 0.6996 -0.5053
vn -0.2880 0.9133 -0.2880
vn -0.0000 0.3830 0.9237
vn 0.2868 0.9140 0.2868
vn -0.0000 0.7023 0.7119
vn 0.5041 0.7013 0.5041
vn 0.6534 0.3821 0.6534
vn 0.3757 0.1904 0.9070
vn 0.3227 0.8898 -0.3227
vn 0.5379 0.6490 -0.5380
vn -0.0000 0.9133 -0.4073
vn -0.0000 0.9145 0.4047
vn -0.6534 0.3821 0.6534
vn -0.5041 0.7013 0.5041
vn -0.2868 0.9140 0.2868
vn 0.6655 0.3378 -0.6655
vn -0.3826 0.0251 0.9236
vn -0.9070 0.1904 -0.3757
vn 0.9115 0.1632 -0.3776
vn -0.9241 0.3821 -0.0000
vn -0.7129 0.7013 -0.0000
vn -0.4057 0.9140 -0.0000
vn -0.3776 0.1632 0.9115
vn -0.3756 0.1910 -0.9069
vn -0.0000 0.3830 -0.9237
vn -0.0000 0.7023 -0.7119
vn -0.6534 0.3821 -0.6534
vn -0.5041 0.7013 -0.5041
vn -0.2868 0.9140 -0.2868
vn -0.0000 0.3378 0.9412
vn 0.2862 0.9145 0.2862
vn -0.0000 0.6490 0.7608
vn 0.5034 0.7023 0.5034
vn 0.6532 0.3830 0.6532
vn 0.3756 0.1910 0.9069
vn -0.0000 0.9140 -0.4057
vn -0.0000 0.8898 0.4563
vn 0.3826 0.0251 -0.9236
vn 0.4863 -0.7259 -0.4863
vn -0.6532 0.3830 0.6532
vn -0.5034 0.7023 0.5034
vn -0.2862 0.9145 0.2862
vn 0.3756 0.1910 -0.9069
vn 0.3751 0.1981 -0.9056
vn -0.9069 0.1910 -0.3756
vn -0.9237 0.3830 -0.0000
vn -0.7119 0.7023 -0.0000
vn -0.4047 0.9145 -0.0000
vn 0.9236 0.0251 0.3826
vn -0.3776 0.1632 -0.9115
vn -0.0000 0.3378 -0.9412
vn -0.0000 0.6490 -0.7608
vn -0.6532 0.3830 -0.6532
vn -0.5034 0.7023 -0.5034
vn -0.2862 0.9145 -0.2862
vn 0.3227 0.8898 0.3227
vn 0.5380 0.6490 0.5379
vn 0.6655 0.3378 0.6655
vn 0.3776 0.1632 0.9115
vn -0.0000 0.9145 -0.4047
vn -0.4863 -0.7259 -0.4863
vn -0.0000 -0.7259 -0.6878
vn -0.6655 0.3378 0.6655
vn -0.5379 0.6490 0.5380
vn -0.3227 0.8898 0.3227
vn 0.9236 0.0251 -0.3826
vn -0.9115 0.1632 -0.3776
vn -0.9412 0.3378 -0.0000
vn -0.7608 0.6490 -0.0000
vn -0.4563 0.8898 -0.0000
vn 0.3757 0.1904 -0.9070
vn -0.3826 0.0251 -0.9236
vn -0.6655 0.3378 -0.6655
vn -0.5380 0.6490 -0.5379
vn -0.3227 0.8898 -0.3227
vn -0.9236 0.0251 -0.3826
vn -0.0000 0.8898 -0.4563
vn -0.4733 0.7429 0.4733
vn -0.4733 0.7429 -0.4733
vn -0.4863 -0.7259 0.4863
vn -0.0000 0.7429 -0.6694
vn -0.6694 0.7429 -0.0000
vn -0.6693 0.7429 -0.0000
vn 0.4863 -0.7259 0.4863
vn 0.6693 0.7429 -0.0000
vn -0.6878 -0.7259 -0.0000
vn 0.4733 0.7429 0.4733
vn 0.3776 0.1632 -0.9115
vt 0.203534 0.453534
vt 0.075000 0.325000
vt 0.256775 0.325000
vt 0.000000 0.287013
vt 0.000000 0.000000
vt 0.202949 0.202949
vt 0.287013 0.000000
vt 0.243977 2.112640
vt -0.050000 1.950000
vt 0.268198 1.950000
vt 0.523829 0.248829
vt 0.375000 0.100000
vt 0.585476 0.100000
vt 0.523829 -0.048829
vt 0.375000 -0.110476
vt 0.375000 2.159619
vt 0.000000 1.948744
vt 0.489961 1.948744
vt 0.375000 0.375000
vt 0.000000 0.530330
vt 0.530330 0.000000
vt -0.149091 -0.125000
vt -0.087500 -0.387500
vt 0.021231 -0.125000
vt -0.007027 2.291342
vt -0.350000 2.100000
vt 0.021231 2.100000
vt 0.217973 2.291342
vt -0.125000 2.100000
vt 0.246231 2.100000
vt 0.000000 2.159619
vt 0.000000 1.700000
vt 0.530330 1.700000
vt -0.075000 2.250520
vt -0.300000 2.112640
vt -0.006023 2.112640
vt 0.100000 2.241342
vt -0.288909 2.050000
vt 0.100000 2.050000
vt 0.375000 2.403553
vt 0.459305 2.241342
vt -0.530330 1.700000
vt 0.375000 -0.375000
vt 0.488909 2.050000
vt 0.121769 0.121769
vt 0.318198 0.000000
vt 0.225000 0.225000
vt -0.489961 1.948744
vt 0.202949 -0.202949
vt 0.000000 -0.287013
vt 0.000000 -0.530330
vt 0.763909 0.100000
vt 0.650000 0.375000
vt 0.562500 2.318198
vt 0.325000 2.172208
vt 0.635309 2.172208
vt 0.375000 2.159619
vt 0.489961 1.948744
vt 0.312500 2.318198
vt 0.075000 2.172208
vt 0.385309 2.172208
vt 0.375000 0.310476
vt -0.207936 -0.267064
vt -0.350000 -0.125000
vt -0.350000 -0.325909
vt -0.202949 -0.202949
vt 0.100000 2.403553
vt -0.259305 2.241342
vt 0.375000 2.403553
vt 0.734305 2.241342
vt 0.375000 2.241342
vt -0.375000 -0.375000
vt -0.375000 2.159619
vt -0.287013 0.000000
vt 0.650000 -0.175000
vt 0.071769 -0.421769
vt -0.050000 -0.300000
vt -0.050000 -0.472208
vt -0.530330 0.000000
vt 0.225000 2.753553
vt 0.000000 2.591342
vt 0.293977 2.591342
vt 0.075000 2.000000
vt 0.410876 2.000000
vt 0.203534 0.196466
vt 0.375000 0.488909
vt -0.375000 0.375000
vt -0.087500 0.137500
vt 0.763909 2.050000
vt 0.375000 2.050000
vt -0.202949 0.202949
vt 0.375000 -0.288909
vt -0.125000 2.453553
vt -0.467973 2.291342
vt -0.125000 2.291342
vt 0.763909 2.050000
vt 0.650000 2.403553
vt 0.015695 2.241342
vt 0.226171 -0.048829
vt 0.100000 -0.175000
vt -0.013909 2.050000
vt -0.087500 2.453553
vt -0.350000 2.291342
vt -0.496231 2.100000
vt 0.122208 -0.300000
vt -0.350000 -0.496231
vt 0.075000 -0.010876
vt 0.312500 0.087500
vt -0.300000 1.950000
vt -0.593977 2.112640
vt -0.618198 1.950000
vt -0.013909 0.100000
vt 0.164524 0.100000
vt -0.175000 2.403553
vt 0.137500 2.453553
vt 0.226171 0.248829
vt 0.100000 0.375000
vt 0.021231 2.100000
vt 0.459305 2.241342
vt 0.488909 2.050000
vt -0.207936 0.017064
vt -0.007027 2.291342
vt 0.000000 2.753553
vt -0.293977 2.591342
vt 0.312500 0.562500
vt 0.410876 0.325000
vt -0.350000 0.075909
vt -0.350000 0.246231
vt -0.050000 -0.618198
vt 0.175000 -0.525000
vt 0.100000 2.403553
vt 0.172208 0.000000
vt 0.121769 -0.121769
vt 0.018198 1.950000
vt -0.350000 2.453553
vt -0.692973 2.291342
vt -0.492064 -0.267064
vt 0.268198 -0.300000
vt -0.612500 -0.387500
vt -0.721231 2.100000
vt 0.325000 2.318198
vt 0.014691 2.172208
vt 0.075000 0.143225
vt -0.010876 2.000000
vt 0.325000 2.000000
vt -0.721231 -0.125000
vt 0.660876 2.000000
vt -0.550909 -0.125000
vt 0.071769 -0.178231
vt 0.175000 -0.075000
vt -0.098562 0.098562
vt -0.115646 0.000000
vt -0.139388 0.000000
vt 0.217973 2.291342
vt -0.612500 0.137500
vt -0.492064 0.017064
vt 0.246231 2.100000
vt 0.000000 -0.318198
vt 0.225000 -0.225000
vt 0.075000 0.660876
vt 0.075000 2.318198
vt -0.081774 -0.081774
vt -0.098562 -0.098562
vt 0.075000 0.506775
vt 0.000000 1.777507
vt 0.098562 0.022493
vt 0.000000 0.022493
vt -0.053534 0.196466
vt -0.235309 2.172208
vt -0.162500 0.087500
vt -0.260876 2.000000
vt -0.318198 2.400000
vt 0.000000 2.400000
vt -0.064780 1.777507
vt -0.098562 0.022493
vt 0.175000 2.250520
vt -0.050000 2.112640
vt -0.300000 2.250520
vt 0.087500 2.318198
vt 0.000000 -0.172208
vt -0.260876 0.325000
vt -0.106775 0.325000
vt -0.053534 0.453534
vt 0.635309 2.172208
vt 0.293977 2.591342
vt 0.318198 2.400000
vt -0.162500 0.562500
vt -0.050000 2.250520
vt 0.243977 2.112640
vt -0.050000 -0.127792
vt -0.050000 0.018198
vt 0.268198 1.950000
vt -0.162500 2.318198
vt -0.368198 1.950000
vt -0.066646 0.000000
vt -0.000000 -0.066646
vt 0.066646 -0.000000
vt -0.275000 -0.525000
vt 0.000000 0.172208
vt 0.000000 0.318198
vt -0.343977 2.112640
vt -0.171769 -0.421769
vt -0.064780 -0.064780
vt -0.091612 0.000000
vt -0.525000 2.250520
vt -0.222208 -0.300000
vt -0.368198 -0.300000
vt -0.006023 2.112640
vt 0.018198 1.950000
vt -0.275000 -0.075000
vt -0.064780 0.064780
vt 0.000000 0.066646
vt 0.000000 0.091612
vt -0.171769 -0.178231
vt 0.000000 0.139388
vt -0.081774 0.081774
vt -0.275000 2.250520
vt 0.081774 -0.081774
vt -0.047126 0.047126
vt 0.064780 -0.064780
vt 0.000000 -0.091612
vt -0.225000 -0.225000
vt 0.064780 1.777507
vt -0.121769 -0.121769
vt -0.318198 0.000000
vt -0.225000 2.753553
vt -0.172208 0.000000
vt 0.000000 -0.115646
vt 0.000000 -0.139388
vt 0.047126 0.047126
vt 0.064780 0.064780
vt -0.047126 -0.047126
vt -0.225000 0.225000
vt 0.139388 0.000000
vt 0.081774 0.081774
vt 0.098562 0.098562
vt 0.000000 0.115646
vt -0.121769 0.121769
vt 0.091612 0.000000
vt 0.098562 -0.098562
vt 0.047126 -0.047126
vt 0.115646 0.000000
vt -0.387500 2.453553
vt -0.612500 2.453553
s 1
f 93/1/82 76/2/2 69/3/60
f 89/4/78 2/5/2 26/6/22
f 26/6/22 2/5/2 35/7/30
f 189/8/166 308/9/167 190/10/167
f 42/11/35 40/12/2 33/13/28
f 88/14/77 40/12/2 54/15/46
f 28/16/24 38/17/33 29/18/25
f 89/4/78 28/19/24 19/20/16
f 28/19/24 35/7/30 37/21/32
f 36/22/31 122/23/108 34/24/29
f 123/25/109 274/26/110 124/27/110
f 70/28/61 275/29/63 72/30/63
f 19/31/16 29/18/25 20/17/17
f 29/18/25 12/32/11 30/33/11
f 16/32/14 29/18/25 17/33/14
f 126/34/112 97/35/85 135/36/120
f 31/37/26 268/38/21 25/39/21
f 49/40/42 31/37/26 50/41/43
f 38/17/33 11/42/10 39/32/10
f 35/7/30 46/43/39 37/21/32
f 50/41/43 4/39/4 51/44/4
f 158/45/141 134/46/119 159/47/142
f 37/31/32 47/48/40 38/17/33
f 35/7/30 2/5/2 44/49/37
f 48/33/41 56/17/48 252/32/41
f 46/43/39 53/50/45 55/51/47
f 42/11/35 32/52/27 49/53/42
f 94/54/83 67/55/58 102/56/90
f 46/57/39 56/17/48 47/58/40
f 44/49/37 2/5/2 53/50/45
f 33/13/28 40/12/2 88/14/77
f 155/59/138 119/60/105 156/61/139
f 127/62/113 40/12/2 42/11/35
f 120/63/106 58/64/2 95/65/84
f 55/31/47 65/48/56 56/17/48
f 53/50/45 2/5/2 62/66/53
f 32/67/27 91/68/80 31/37/26
f 86/69/75 50/70/43 85/71/74
f 57/32/49 65/48/56 242/42/49
f 53/50/45 64/72/55 55/51/47
f 64/73/55 74/17/65 65/48/56
f 62/66/53 2/5/2 71/74/62
f 32/52/27 88/14/77 90/75/79
f 186/76/163 106/77/2 161/78/144
f 66/42/57 74/17/65 220/32/57
f 64/72/55 71/74/62 73/79/64
f 221/80/189 185/81/162 222/82/190
f 156/61/139 289/83/140 157/84/140
f 69/3/60 76/2/2 153/85/136
f 127/62/113 49/53/42 86/86/75
f 75/32/66 83/58/73 210/33/66
f 71/74/62 82/87/72 73/79/64
f 63/88/54 36/22/31 34/24/29
f 85/71/74 218/89/176 202/90/176
f 73/31/64 83/58/73 74/17/65
f 71/74/62 2/5/2 80/91/70
f 80/91/70 19/20/16 82/87/72
f 88/14/77 52/92/44 90/75/79
f 34/93/29 123/94/109 27/95/23
f 82/73/72 20/17/17 83/48/73
f 80/91/70 2/5/2 89/4/78
f 91/70/80 267/90/81 92/96/81
f 90/97/79 45/71/38 91/70/80
f 84/42/18 20/17/17 21/32/18
f 52/69/44 98/98/86 45/71/38
f 54/15/46 40/12/2 100/99/88
f 54/15/46 99/100/87 52/92/44
f 45/71/38 233/101/36 43/90/36
f 36/22/31 58/64/2 120/63/106
f 122/102/108 81/103/71 123/25/109
f 27/95/23 18/104/15 24/29/15
f 103/105/91 106/77/2 186/76/163
f 120/63/106 87/106/76 122/23/108
f 153/85/136 121/107/107 155/108/138
f 98/68/86 14/39/1 1/38/1
f 96/109/12 189/110/166 13/111/12
f 100/99/88 108/112/95 99/100/87
f 100/99/88 40/12/2 109/113/96
f 99/114/87 107/37/94 98/68/86
f 63/115/54 27/95/23 70/28/61
f 108/112/95 118/116/104 117/117/103
f 114/103/100 15/118/13 269/26/13
f 104/39/92 116/119/102 270/120/92
f 60/121/51 58/64/2 36/22/31
f 114/103/100 63/102/54 70/122/61
f 109/113/96 40/12/2 118/116/104
f 108/67/95 116/119/102 107/37/94
f 134/123/119 222/124/190 130/81/115
f 94/125/83 69/3/60 68/126/59
f 160/127/143 63/88/54 115/128/101
f 160/127/143 58/64/2 60/121/51
f 186/76/163 154/129/137 188/130/165
f 117/131/103 85/71/74 116/98/102
f 118/116/104 40/12/2 127/62/113
f 118/116/104 86/86/75 117/117/103
f 116/98/102 78/90/68 113/101/68
f 136/132/121 139/5/2 219/133/188
f 135/36/120 309/109/123 138/134/123
f 87/135/76 131/136/116 81/103/71
f 95/65/84 58/64/2 133/137/118
f 103/105/91 188/130/165 101/138/89
f 95/65/84 132/139/117 87/106/76
f 81/103/71 264/140/69 79/26/69
f 68/141/59 156/142/139 67/55/58
f 153/85/136 76/2/2 128/143/114
f 131/94/116 234/29/34 41/104/34
f 67/55/58 266/144/52 61/145/52
f 133/137/118 141/146/125 132/139/117
f 102/56/90 296/145/93 105/147/93
f 133/137/118 58/64/2 142/148/126
f 131/94/116 141/93/125 140/95/124
f 69/3/60 155/108/138 68/126/59
f 125/149/111 101/138/89 126/150/112
f 278/151/193 321/152/218 305/153/218
f 141/93/125 149/154/132 140/95/124
f 142/148/126 150/155/133 141/146/125
f 142/148/126 58/64/2 151/156/134
f 140/95/124 283/157/122 137/29/122
f 147/60/130 243/84/203 282/83/203
f 219/133/188 187/158/164 221/159/189
f 151/156/134 58/64/2 160/127/143
f 148/160/131 93/1/82 94/125/83
f 150/155/133 160/127/143 115/128/101
f 148/161/131 102/61/90 147/60/130
f 305/153/218 323/162/212 286/163/212
f 193/164/168 76/2/2 93/1/82
f 149/136/132 115/135/101 114/103/100
f 149/136/132 112/26/99 146/140/99
f 291/165/170 195/166/170 313/167/170
f 128/143/114 76/2/2 166/168/147
f 158/45/141 139/5/2 136/132/121
f 121/161/107 164/169/145 119/60/105
f 128/143/114 165/170/146 121/107/107
f 119/60/105 277/171/98 111/83/98
f 130/81/115 3/172/3 129/173/3
f 281/174/204 253/167/204 279/175/204
f 188/176/165 152/177/135 189/8/166
f 101/178/89 189/110/166 97/35/85
f 165/179/146 173/55/152 164/142/145
f 164/142/145 251/145/50 59/144/50
f 219/133/188 139/5/2 194/180/169
f 166/168/147 174/181/153 165/170/146
f 125/149/111 106/77/2 103/105/91
f 166/168/147 76/2/2 175/182/154
f 175/182/154 76/2/2 184/183/161
f 174/141/153 182/184/159 173/55/152
f 168/185/148 265/173/151 171/186/151
f 159/80/142 130/81/115 168/185/148
f 175/182/154 183/187/160 174/181/153
f 170/145/150 182/184/159 304/147/150
f 181/188/158 135/189/120 180/177/157
f 226/190/192 106/77/2 125/149/111
f 226/190/192 126/150/112 181/191/158
f 182/169/159 145/83/129 179/171/129
f 180/177/157 200/192/175 303/9/175
f 183/193/160 147/60/130 182/169/159
f 184/183/161 148/160/131 183/187/160
f 184/183/161 76/2/2 193/164/168
f 152/177/135 288/194/128 144/9/128
f 260/195/2 172/196/2 224/197/2
f 161/78/144 198/198/173 154/129/137
f 259/199/209 159/47/142 214/200/184
f 154/188/137 197/201/172 152/177/135
f 161/78/144 106/77/2 199/202/174
f 223/186/191 185/81/162 322/173/191
f 197/110/172 271/109/67 77/111/67
f 284/203/210 292/195/214 294/204/215
f 198/205/173 206/35/178 197/110/172
f 199/202/174 106/77/2 208/206/180
f 199/202/174 207/207/179 198/198/173
f 136/132/121 221/159/189 134/46/119
f 203/109/177 215/208/185 317/209/177
f 207/178/179 215/208/185 206/35/178
f 214/123/184 168/185/148 213/81/183
f 208/206/180 216/210/186 207/207/179
f 280/211/211 314/212/213 290/213/213
f 208/206/180 106/77/2 217/214/187
f 259/199/209 139/5/2 158/45/141
f 215/201/185 178/9/156 212/194/156
f 312/215/194 227/216/193 278/151/193
f 216/217/186 180/177/157 215/201/185
f 217/214/187 106/77/2 226/190/192
f 217/214/187 181/191/158 216/210/186
f 205/218/19 167/162/19 257/216/19
f 294/204/215 293/219/211 280/211/211
f 213/81/183 315/186/220 316/173/220
f 310/220/219 272/196/9 10/221/9
f 185/81/162 307/172/155 177/173/155
f 194/180/169 231/222/196 187/158/164
f 235/223/198 263/167/198 238/166/198
f 23/174/20 306/167/20 163/175/20
f 194/180/169 139/5/2 232/224/197
f 187/123/164 230/124/195 185/81/162
f 192/223/7 7/167/7 204/166/7
f 258/165/208 256/166/208 261/167/208
f 110/172/97 239/81/200 276/173/97
f 232/224/197 240/225/201 231/222/196
f 231/226/196 239/81/200 230/124/195
f 232/224/197 139/5/2 241/227/202
f 169/165/149 287/175/149 176/167/149
f 209/165/181 298/175/181 225/167/181
f 286/163/212 326/228/8 8/229/8
f 290/213/213 6/230/6 301/231/6
f 10/221/9 273/232/210 284/203/210
f 241/227/202 249/233/206 240/225/201
f 143/234/127 324/235/171 196/236/171
f 196/236/171 229/237/194 312/215/194
f 239/81/200 325/186/199 236/173/199
f 241/227/202 139/5/2 250/238/207
f 240/123/201 248/82/205 239/81/200
f 301/231/6 5/197/5 299/239/217
f 8/229/8 319/218/216 297/240/216
f 250/238/207 139/5/2 259/199/209
f 249/226/206 213/81/183 248/124/205
f 299/239/217 318/241/219 310/220/219
f 245/172/182 213/81/183 211/173/182
f 250/238/207 214/200/184 249/233/206
f 297/240/216 320/242/127 143/234/127
f 189/8/166 152/177/135 308/9/167
f 28/16/24 37/31/32 38/17/33
f 89/4/78 26/6/22 28/19/24
f 28/19/24 26/6/22 35/7/30
f 36/22/31 120/63/106 122/23/108
f 123/25/109 81/103/71 274/26/110
f 70/28/61 27/95/23 275/29/63
f 19/31/16 28/16/24 29/18/25
f 29/18/25 38/17/33 12/32/11
f 16/32/14 20/17/17 29/18/25
f 126/34/112 101/178/89 97/35/85
f 31/37/26 91/68/80 268/38/21
f 49/40/42 32/67/27 31/37/26
f 38/17/33 47/48/40 11/42/10
f 35/7/30 44/49/37 46/43/39
f 50/41/43 31/37/26 4/39/4
f 158/45/141 136/132/121 134/46/119
f 37/31/32 46/73/39 47/48/40
f 48/33/41 47/58/40 56/17/48
f 46/43/39 44/49/37 53/50/45
f 42/11/35 33/13/28 32/52/27
f 94/54/83 68/141/59 67/55/58
f 46/57/39 55/31/47 56/17/48
f 155/59/138 121/161/107 119/60/105
f 55/31/47 64/73/55 65/48/56
f 32/67/27 90/114/79 91/68/80
f 86/69/75 49/97/42 50/70/43
f 57/32/49 56/17/48 65/48/56
f 53/50/45 62/66/53 64/72/55
f 64/73/55 73/31/64 74/17/65
f 32/52/27 33/13/28 88/14/77
f 66/42/57 65/48/56 74/17/65
f 64/72/55 62/66/53 71/74/62
f 221/80/189 187/123/164 185/81/162
f 156/61/139 119/60/105 289/83/140
f 127/62/113 42/11/35 49/53/42
f 75/32/66 74/17/65 83/58/73
f 71/74/62 80/91/70 82/87/72
f 63/88/54 60/121/51 36/22/31
f 85/71/74 50/70/43 218/89/176
f 73/31/64 82/57/72 83/58/73
f 80/91/70 89/4/78 19/20/16
f 88/14/77 54/15/46 52/92/44
f 34/93/29 122/243/108 123/94/109
f 82/73/72 19/31/16 20/17/17
f 91/70/80 45/71/38 267/90/81
f 90/97/79 52/69/44 45/71/38
f 84/42/18 83/48/73 20/17/17
f 52/69/44 99/131/87 98/98/86
f 54/15/46 100/99/88 99/100/87
f 45/71/38 98/98/86 233/101/36
f 122/102/108 87/135/76 81/103/71
f 27/95/23 123/94/109 18/104/15
f 120/63/106 95/65/84 87/106/76
f 153/85/136 128/143/114 121/107/107
f 98/68/86 107/37/94 14/39/1
f 96/109/12 97/35/85 189/110/166
f 100/99/88 109/113/96 108/112/95
f 99/114/87 108/67/95 107/37/94
f 63/115/54 34/93/29 27/95/23
f 108/112/95 109/113/96 118/116/104
f 114/103/100 70/122/61 15/118/13
f 104/39/92 107/37/94 116/119/102
f 114/103/100 115/135/101 63/102/54
f 108/67/95 117/40/103 116/119/102
f 134/123/119 221/226/189 222/124/190
f 94/125/83 93/1/82 69/3/60
f 160/127/143 60/121/51 63/88/54
f 186/76/163 161/78/144 154/129/137
f 117/131/103 86/69/75 85/71/74
f 118/116/104 127/62/113 86/86/75
f 116/98/102 85/71/74 78/90/68
f 135/36/120 97/35/85 309/109/123
f 87/135/76 132/244/117 131/136/116
f 103/105/91 186/76/163 188/130/165
f 95/65/84 133/137/118 132/139/117
f 81/103/71 131/136/116 264/140/69
f 68/141/59 155/179/138 156/142/139
f 131/94/116 140/95/124 234/29/34
f 67/55/58 156/142/139 266/144/52
f 133/137/118 142/148/126 141/146/125
f 102/56/90 67/55/58 296/145/93
f 131/94/116 132/243/117 141/93/125
f 69/3/60 153/85/136 155/108/138
f 125/149/111 103/105/91 101/138/89
f 278/151/193 227/216/193 321/152/218
f 141/93/125 150/115/133 149/154/132
f 142/148/126 151/156/134 150/155/133
f 140/95/124 149/154/132 283/157/122
f 147/60/130 102/61/90 243/84/203
f 219/133/188 194/180/169 187/158/164
f 148/160/131 193/164/168 93/1/82
f 150/155/133 151/156/134 160/127/143
f 148/161/131 94/59/83 102/61/90
f 305/153/218 321/152/218 323/162/212
f 149/136/132 150/244/133 115/135/101
f 149/136/132 114/103/100 112/26/99
f 291/165/170 302/223/170 195/166/170
f 121/161/107 165/193/146 164/169/145
f 128/143/114 166/168/147 165/170/146
f 119/60/105 164/169/145 277/171/98
f 130/81/115 222/124/190 3/172/3
f 281/174/204 246/165/204 253/167/204
f 188/176/165 154/188/137 152/177/135
f 101/178/89 188/205/165 189/110/166
f 165/179/146 174/141/153 173/55/152
f 164/142/145 173/55/152 251/145/50
f 166/168/147 175/182/154 174/181/153
f 174/141/153 183/54/160 182/184/159
f 168/185/148 130/81/115 265/173/151
f 159/80/142 134/123/119 130/81/115
f 175/182/154 184/183/161 183/187/160
f 170/145/150 173/55/152 182/184/159
f 181/188/158 126/176/112 135/189/120
f 226/190/192 125/149/111 126/150/112
f 182/169/159 147/60/130 145/83/129
f 180/177/157 135/189/120 200/192/175
f 183/193/160 148/161/131 147/60/130
f 184/183/161 193/164/168 148/160/131
f 152/177/135 197/201/172 288/194/128
f 224/197/2 237/230/2 247/212/2
f 247/212/2 255/219/2 260/195/2
f 260/195/2 162/232/2 172/196/2
f 172/196/2 201/241/2 224/197/2
f 224/197/2 247/212/2 260/195/2
f 161/78/144 199/202/174 198/198/173
f 259/199/209 158/45/141 159/47/142
f 154/188/137 198/217/173 197/201/172
f 223/186/191 222/82/190 185/81/162
f 197/110/172 206/35/178 271/109/67
f 284/203/210 273/232/210 292/195/214
f 198/205/173 207/178/179 206/35/178
f 199/202/174 208/206/180 207/207/179
f 136/132/121 219/133/188 221/159/189
f 203/109/177 206/35/178 215/208/185
f 207/178/179 216/34/186 215/208/185
f 214/123/184 159/80/142 168/185/148
f 208/206/180 217/214/187 216/210/186
f 280/211/211 293/219/211 314/212/213
f 215/201/185 180/177/157 178/9/156
f 312/215/194 229/237/194 227/216/193
f 216/217/186 181/188/158 180/177/157
f 217/214/187 226/190/192 181/191/158
f 257/216/19 262/237/19 244/235/19
f 244/235/19 228/242/19 205/218/19
f 205/218/19 191/228/19 167/162/19
f 167/162/19 22/152/19 257/216/19
f 257/216/19 244/235/19 205/218/19
f 294/204/215 292/195/214 293/219/211
f 213/81/183 168/185/148 315/186/220
f 310/220/219 318/241/219 272/196/9
f 185/81/162 230/124/195 307/172/155
f 194/180/169 232/224/197 231/222/196
f 235/223/198 300/165/198 263/167/198
f 23/174/20 295/165/20 306/167/20
f 187/123/164 231/226/196 230/124/195
f 192/223/7 9/165/7 7/167/7
f 258/165/208 254/223/208 256/166/208
f 110/172/97 230/124/195 239/81/200
f 232/224/197 241/227/202 240/225/201
f 231/226/196 240/123/201 239/81/200
f 169/165/149 285/174/149 287/175/149
f 209/165/181 311/174/181 298/175/181
f 286/163/212 323/162/212 326/228/8
f 290/213/213 314/212/213 6/230/6
f 10/221/9 272/196/9 273/232/210
f 241/227/202 250/238/207 249/233/206
f 143/234/127 320/242/127 324/235/171
f 196/236/171 324/235/171 229/237/194
f 239/81/200 248/82/205 325/186/199
f 240/123/201 249/80/206 248/82/205
f 301/231/6 6/230/6 5/197/5
f 8/229/8 326/228/8 319/218/216
f 249/226/206 214/123/184 213/81/183
f 299/239/217 5/197/5 318/241/219
f 245/172/182 248/124/205 213/81/183
f 250/238/207 259/199/209 214/200/184
f 297/240/216 319/218/216 320/242/127
