# Blender 5.2.0 LTS
# www.blender.org
o Backdrop_BeachHut
v -1.414214 45.179764 11.000000
v -1.414214 45.179764 -11.000000
v 1.414214 62.820236 -11.000000
v 1.414214 62.820236 11.000000
v 13.550000 32.450001 11.000000
v 13.550000 51.549999 11.000000
v 14.000000 51.549999 10.550000
v 13.550000 52.000000 10.550000
v 14.000000 32.450001 10.550000
v 13.550000 32.000000 10.550000
v 14.000000 32.450001 -10.550000
v 14.000000 51.549999 -10.550000
v 13.550000 51.549999 -11.000000
v 13.550000 52.000000 -10.550000
v 13.550000 32.450001 -11.000000
v 13.550000 32.000000 -10.550000
v -13.550000 32.450001 -11.000000
v -13.550000 51.549999 -11.000000
v -14.000000 51.549999 -10.550000
v -13.550000 52.000000 -10.550000
v -13.550000 52.000000 10.550000
v -14.000000 51.549999 10.550000
v -13.550000 51.549999 11.000000
v -13.550000 32.450001 11.000000
v -14.000000 32.450001 -10.550000
v -14.000000 32.450001 10.550000
v -13.550000 32.000000 10.550000
v -13.550000 32.000000 -10.550000
v 11.544744 30.000000 -11.840193
v 11.544744 0.000000 -11.840193
v 11.544744 30.000000 -10.159807
v 16.000000 29.950001 -12.550000
v 11.544744 0.000000 -10.159807
v -16.000000 29.950001 12.550000
v 13.000000 30.000000 -9.319615
v 16.000000 32.049999 -12.550000
v 13.000000 0.000000 -9.319615
v -16.000000 32.049999 12.550000
v 11.544744 30.000000 10.159807
v 15.550000 32.049999 -13.000000
v 15.550000 32.500000 -12.550000
v -15.550000 32.500000 -12.550000
v 11.544744 0.000000 10.159807
v 11.544744 30.000000 11.840193
v 15.550000 29.950001 -13.000000
v -15.550000 29.500000 -12.550000
v 15.550000 29.500000 -12.550000
v 11.544744 0.000000 11.840193
v 13.000000 30.000000 12.680385
v 13.000000 0.000000 -12.680385
v 13.000000 0.000000 12.680385
v -16.000000 32.049999 -12.550000
v -16.000000 29.950001 -12.550000
v -15.550000 29.950001 -13.000000
v -15.550000 32.049999 -13.000000
v -14.455256 30.000000 -11.840193
v 14.455256 30.000000 -10.159807
v -14.455256 0.000000 -11.840193
v -14.455256 30.000000 -10.159807
v 16.000000 32.049999 12.550000
v 16.000000 29.950001 12.550000
v -14.455256 0.000000 -10.159807
v -13.000000 30.000000 -9.319615
v 13.000000 0.000000 9.319615
v -13.000000 0.000000 -9.319615
v 14.455256 0.000000 -11.840193
v 14.455256 0.000000 -10.159807
v -14.455256 30.000000 10.159807
v 14.455256 30.000000 11.840193
v -14.455256 0.000000 10.159807
v -14.455256 30.000000 11.840193
v 15.550000 32.049999 13.000000
v -15.550000 32.049999 13.000000
v -15.550000 32.500000 12.550000
v 15.550000 32.500000 12.550000
v -14.455256 0.000000 11.840193
v -13.000000 30.000000 12.680385
v -13.000000 0.000000 -12.680385
v -13.000000 0.000000 12.680385
v 14.455256 0.000000 10.159807
v 14.455256 0.000000 11.840193
v -11.544744 30.000000 11.840193
v 14.455256 30.000000 10.159807
v 13.000000 30.000000 9.319615
v -11.544744 0.000000 11.840193
v -11.544744 0.000000 -11.840193
v -11.544744 0.000000 -10.159807
v -11.544744 30.000000 10.159807
v -13.000000 30.000000 9.319615
v -15.550000 29.950001 13.000000
v 15.550000 29.950001 13.000000
v 15.550000 29.500000 12.550000
v -15.550000 29.500000 12.550000
v -13.000000 30.000000 -12.680385
v -13.000000 0.000000 9.319615
v -11.544744 0.000000 10.159807
v 14.455256 30.000000 -11.840193
v 13.000000 30.000000 -12.680385
v -11.544744 30.000000 -10.159807
v -11.544744 30.000000 -11.840193
v 16.576265 54.560955 -10.550000
v 16.576265 54.560955 -10.550000
v 16.576265 54.560955 -10.550000
v 16.576265 54.994678 -10.550000
v 16.576265 54.994678 -10.550000
v 16.576265 54.994678 -10.550000
v 16.036791 54.777817 -11.000000
v 16.036791 54.777817 -11.000000
v 16.036791 54.777817 -11.000000
v 16.036793 54.777817 11.000000
v 16.036793 54.777817 11.000000
v 16.036793 54.777817 11.000000
v 16.576265 54.994678 10.550000
v 16.576265 54.994678 10.550000
v 16.576265 54.994678 10.550000
v 16.576265 54.560955 10.550000
v 16.576265 54.560955 10.550000
v 16.576265 54.560955 10.550000
v -16.576265 53.439045 -10.550000
v -16.576265 53.439045 -10.550000
v -16.576265 53.439045 -10.550000
v -16.576265 53.005322 -10.550000
v -16.576265 53.005322 -10.550000
v -16.576265 53.005322 -10.550000
v -16.036793 53.222183 -11.000000
v -16.036793 53.222183 -11.000000
v -16.036793 53.222183 -11.000000
v -16.036793 53.222183 11.000000
v -16.036793 53.222183 11.000000
v -16.036793 53.222183 11.000000
v -16.576265 53.005322 10.550000
v -16.576265 53.005322 10.550000
v -16.576265 53.005322 10.550000
v -16.576265 53.439045 10.550000
v -16.576265 53.439045 10.550000
v -16.576265 53.439045 10.550000
v -15.550000 32.049999 13.000000
v -15.550000 32.500000 12.550000
v -16.000000 32.049999 12.550000
v -15.550000 29.500000 12.550000
v -15.550000 29.950001 13.000000
v -16.000000 29.950001 12.550000
v -13.000000 0.000000 9.319615
v -13.389711 0.450000 9.025000
v -12.610289 0.450000 9.025000
v -13.000000 30.000000 9.319615
v -12.610289 29.549999 9.025000
v -13.389711 29.549999 9.025000
v -11.544744 0.000000 10.159807
v -11.484455 0.450000 9.675000
v -11.094744 0.450000 10.349999
v -11.544744 30.000000 10.159807
v -11.094744 29.549999 10.349999
v -11.484455 29.549999 9.675000
v -11.544744 0.000000 11.840193
v -11.094744 0.450000 11.650001
v -11.484455 0.450000 12.325000
v -11.544744 30.000000 11.840193
v -11.484455 29.549999 12.325000
v -11.094744 29.549999 11.650001
v -13.000000 0.000000 12.680385
v -12.610289 0.450000 12.975000
v -13.389711 0.450000 12.975000
v -13.000000 30.000000 12.680385
v -13.389711 29.549999 12.975000
v -12.610289 29.549999 12.975000
v -14.455256 0.000000 11.840193
v -14.515545 0.450000 12.325000
v -14.905256 0.450000 11.650001
v -14.455256 30.000000 11.840193
v -14.905256 29.549999 11.650001
v -14.515545 29.549999 12.325000
v -14.455256 0.000000 10.159807
v -14.905256 0.450000 10.349999
v -14.515545 0.450000 9.675000
v -14.455256 30.000000 10.159807
v -14.515545 29.549999 9.675000
v -14.905256 29.549999 10.349999
v -13.000000 0.000000 -12.680385
v -13.389711 0.450000 -12.975000
v -12.610289 0.450000 -12.975000
v -13.000000 30.000000 -12.680385
v -12.610289 29.549999 -12.975000
v -13.389711 29.549999 -12.975000
v -11.544744 0.000000 -11.840193
v -11.484455 0.450000 -12.325000
v -11.094744 0.450000 -11.650001
v -11.544744 30.000000 -11.840193
v -11.094744 29.549999 -11.650001
v -11.484455 29.549999 -12.325000
v -11.544744 0.000000 -10.159807
v -11.094744 0.450000 -10.349999
v -11.484455 0.450000 -9.675000
v -11.544744 30.000000 -10.159807
v -11.484455 29.549999 -9.675000
v -11.094744 29.549999 -10.349999
v -13.000000 0.000000 -9.319615
v -12.610289 0.450000 -9.025000
v -13.389711 0.450000 -9.025000
v -13.000000 30.000000 -9.319615
v -13.389711 29.549999 -9.025000
v -12.610289 29.549999 -9.025000
v -14.455256 0.000000 -10.159807
v -14.515545 0.450000 -9.675000
v -14.905256 0.450000 -10.349999
v -14.455256 30.000000 -10.159807
v -14.905256 29.549999 -10.349999
v -14.515545 29.549999 -9.675000
v -14.455256 0.000000 -11.840193
v -14.905256 0.450000 -11.650001
v -14.515545 0.450000 -12.325000
v -14.455256 30.000000 -11.840193
v -14.515545 29.549999 -12.325000
v -14.905256 29.549999 -11.650001
v 13.000000 0.000000 9.319615
v 12.610289 0.450000 9.025000
v 13.389711 0.450000 9.025000
v 13.000000 30.000000 9.319615
v 13.389711 29.549999 9.025000
v 12.610289 29.549999 9.025000
v 14.455256 0.000000 10.159807
v 14.515545 0.450000 9.675000
v 14.905256 0.450000 10.349999
v 14.455256 30.000000 10.159807
v 14.905256 29.549999 10.349999
v 14.515545 29.549999 9.675000
v 14.455256 0.000000 11.840193
v 14.905256 0.450000 11.650001
v 14.515545 0.450000 12.325000
v 14.455256 30.000000 11.840193
v 14.515545 29.549999 12.325000
v 14.905256 29.549999 11.650001
v 13.000000 0.000000 12.680385
v 13.389711 0.450000 12.975000
v 12.610289 0.450000 12.975000
v 13.000000 30.000000 12.680385
v 12.610289 29.549999 12.975000
v 13.389711 29.549999 12.975000
v 11.544744 0.000000 11.840193
v 11.484455 0.450000 12.325000
v 11.094744 0.450000 11.650001
v 11.544744 30.000000 11.840193
v 11.094744 29.549999 11.650001
v 11.484455 29.549999 12.325000
v 11.544744 0.000000 10.159807
v 11.094744 0.450000 10.349999
v 11.484455 0.450000 9.675000
v 11.544744 30.000000 10.159807
v 11.484455 29.549999 9.675000
v 11.094744 29.549999 10.349999
v 13.000000 0.000000 -12.680385
v 12.610289 0.450000 -12.975000
v 13.389711 0.450000 -12.975000
v 13.000000 30.000000 -12.680385
v 13.389711 29.549999 -12.975000
v 12.610289 29.549999 -12.975000
v 14.455256 0.000000 -11.840193
v 14.515545 0.450000 -12.325000
v 14.905256 0.450000 -11.650001
v 14.455256 30.000000 -11.840193
v 14.905256 29.549999 -11.650001
v 14.515545 29.549999 -12.325000
v 14.455256 0.000000 -10.159807
v 14.905256 0.450000 -10.349999
v 14.515545 0.450000 -9.675000
v 14.455256 30.000000 -10.159807
v 14.515545 29.549999 -9.675000
v 14.905256 29.549999 -10.349999
v 13.000000 0.000000 -9.319615
v 13.389711 0.450000 -9.025000
v 12.610289 0.450000 -9.025000
v 13.000000 30.000000 -9.319615
v 12.610289 29.549999 -9.025000
v 13.389711 29.549999 -9.025000
v 11.544744 0.000000 -10.159807
v 11.484455 0.450000 -9.675000
v 11.094744 0.450000 -10.349999
v 11.544744 30.000000 -10.159807
v 11.094744 29.549999 -10.349999
v 11.484455 29.549999 -9.675000
v 11.544744 0.000000 -11.840193
v 11.094744 0.450000 -11.650001
v 11.484455 0.450000 -12.325000
v 11.544744 30.000000 -11.840193
v 11.484455 29.549999 -12.325000
v 11.094744 29.549999 -11.650001
v -15.550000 29.500000 -12.550000
v -16.000000 29.950001 -12.550000
v -15.550000 29.950001 -13.000000
v -15.550000 32.500000 -12.550000
v -15.550000 32.049999 -13.000000
v -16.000000 32.049999 -12.550000
v 15.550000 29.500000 12.550000
v 16.000000 29.950001 12.550000
v 15.550000 29.950001 13.000000
v 15.550000 32.500000 12.550000
v 15.550000 32.049999 13.000000
v 16.000000 32.049999 12.550000
v 15.550000 29.500000 -12.550000
v 15.550000 29.950001 -13.000000
v 16.000000 29.950001 -12.550000
v 15.550000 32.500000 -12.550000
v 16.000000 32.049999 -12.550000
v 15.550000 32.049999 -13.000000
v -13.550000 32.000000 10.550000
v -13.550000 32.450001 11.000000
v -14.000000 32.450001 10.550000
v -13.550000 51.549999 11.000000
v -13.550000 52.000000 10.550000
v -14.000000 51.549999 10.550000
v -13.550000 32.000000 -10.550000
v -14.000000 32.450001 -10.550000
v -13.550000 32.450001 -11.000000
v -13.550000 52.000000 -10.550000
v -13.550000 51.549999 -11.000000
v -14.000000 51.549999 -10.550000
v 13.550000 32.000000 10.550000
v 14.000000 32.450001 10.550000
v 13.550000 32.450001 11.000000
v 13.550000 52.000000 10.550000
v 13.550000 51.549999 11.000000
v 14.000000 51.549999 10.550000
v 13.550000 32.000000 -10.550000
v 13.550000 32.450001 -11.000000
v 14.000000 32.450001 -10.550000
v 13.550000 52.000000 -10.550000
v 14.000000 51.549999 -10.550000
v 13.550000 51.549999 -11.000000
v -16.576265 53.005322 10.550000
v -16.036793 53.222183 11.000000
v -16.576265 53.439045 10.550000
v 1.414214 62.820236 11.000000
v 1.808510 63.116947 10.550000
v 1.019917 63.116947 10.550000
v -16.576265 53.005322 -10.550000
v -16.576265 53.439045 -10.550000
v -16.036793 53.222183 -11.000000
v 1.808512 63.116947 -10.550000
v 1.414214 62.820236 -11.000000
v 1.019919 63.116947 -10.550000
v -1.808510 44.883053 10.550000
v -1.019917 44.883053 10.550000
v -1.414214 45.179764 11.000000
v 16.576265 54.994678 10.550000
v 16.036793 54.777817 11.000000
v 16.576265 54.560955 10.550000
v -1.808512 44.883053 -10.550000
v -1.414214 45.179764 -11.000000
v -1.019919 44.883053 -10.550000
v 16.576265 54.994678 -10.550000
v 16.576265 54.560955 -10.550000
v 16.036791 54.777817 -11.000000
v 13.450000 3.300000 0.250000
v 13.450000 3.750000 0.700000
v 13.000000 3.750000 0.250000
v 13.450000 4.250000 0.700000
v 13.450000 4.700000 0.250000
v 13.000000 4.250000 0.250000
v 13.450000 3.300000 -0.250000
v 13.000000 3.750000 -0.250000
v 13.450000 3.750000 -0.700000
v 13.450000 4.700000 -0.250000
v 13.450000 4.250000 -0.700000
v 13.000000 4.250000 -0.250000
v 22.549999 3.300000 0.250000
v 23.000000 3.750000 0.250000
v 22.549999 3.750000 0.700000
v 22.549999 4.700000 0.250000
v 22.549999 4.250000 0.700000
v 23.000000 4.250000 0.250000
v 22.549999 3.300000 -0.250000
v 22.549999 3.750000 -0.700000
v 23.000000 3.750000 -0.250000
v 22.549999 4.700000 -0.250000
v 23.000000 4.250000 -0.250000
v 22.549999 4.250000 -0.700000
v 13.450000 8.300000 0.250000
v 13.450000 8.750000 0.700000
v 13.000000 8.750000 0.250000
v 13.450000 9.250000 0.700000
v 13.450000 9.700000 0.250000
v 13.000000 9.250000 0.250000
v 13.450000 8.300000 -0.250000
v 13.000000 8.750000 -0.250000
v 13.450000 8.750000 -0.700000
v 13.450000 9.700000 -0.250000
v 13.450000 9.250000 -0.700000
v 13.000000 9.250000 -0.250000
v 22.549999 8.300000 0.250000
v 23.000000 8.750000 0.250000
v 22.549999 8.750000 0.700000
v 22.549999 9.700000 0.250000
v 22.549999 9.250000 0.700000
v 23.000000 9.250000 0.250000
v 22.549999 8.300000 -0.250000
v 22.549999 8.750000 -0.700000
v 23.000000 8.750000 -0.250000
v 22.549999 9.700000 -0.250000
v 23.000000 9.250000 -0.250000
v 22.549999 9.250000 -0.700000
v 13.450000 13.300000 0.250000
v 13.450000 13.750000 0.700000
v 13.000000 13.750000 0.250000
v 13.450000 14.250000 0.700000
v 13.450000 14.700000 0.250000
v 13.000000 14.250000 0.250000
v 13.450000 13.300000 -0.250000
v 13.000000 13.750000 -0.250000
v 13.450000 13.750000 -0.700000
v 13.450000 14.700000 -0.250000
v 13.450000 14.250000 -0.700000
v 13.000000 14.250000 -0.250000
v 22.549999 13.300000 0.250000
v 23.000000 13.750000 0.250000
v 22.549999 13.750000 0.700000
v 22.549999 14.700000 0.250000
v 22.549999 14.250000 0.700000
v 23.000000 14.250000 0.250000
v 22.549999 13.300000 -0.250000
v 22.549999 13.750000 -0.700000
v 23.000000 13.750000 -0.250000
v 22.549999 14.700000 -0.250000
v 23.000000 14.250000 -0.250000
v 22.549999 14.250000 -0.700000
v 13.450000 18.299999 0.250000
v 13.450000 18.750000 0.700000
v 13.000000 18.750000 0.250000
v 13.450000 19.250000 0.700000
v 13.450000 19.700001 0.250000
v 13.000000 19.250000 0.250000
v 13.450000 18.299999 -0.250000
v 13.000000 18.750000 -0.250000
v 13.450000 18.750000 -0.700000
v 13.450000 19.700001 -0.250000
v 13.450000 19.250000 -0.700000
v 13.000000 19.250000 -0.250000
v 22.549999 18.299999 0.250000
v 23.000000 18.750000 0.250000
v 22.549999 18.750000 0.700000
v 22.549999 19.700001 0.250000
v 22.549999 19.250000 0.700000
v 23.000000 19.250000 0.250000
v 22.549999 18.299999 -0.250000
v 22.549999 18.750000 -0.700000
v 23.000000 18.750000 -0.250000
v 22.549999 19.700001 -0.250000
v 23.000000 19.250000 -0.250000
v 22.549999 19.250000 -0.700000
v 13.450000 23.299999 0.250000
v 13.450000 23.750000 0.700000
v 13.000000 23.750000 0.250000
v 13.450000 24.250000 0.700000
v 13.450000 24.700001 0.250000
v 13.000000 24.250000 0.250000
v 13.450000 23.299999 -0.250000
v 13.000000 23.750000 -0.250000
v 13.450000 23.750000 -0.700000
v 13.450000 24.700001 -0.250000
v 13.450000 24.250000 -0.700000
v 13.000000 24.250000 -0.250000
v 22.549999 23.299999 0.250000
v 23.000000 23.750000 0.250000
v 22.549999 23.750000 0.700000
v 22.549999 24.700001 0.250000
v 22.549999 24.250000 0.700000
v 23.000000 24.250000 0.250000
v 22.549999 23.299999 -0.250000
v 22.549999 23.750000 -0.700000
v 23.000000 23.750000 -0.250000
v 22.549999 24.700001 -0.250000
v 23.000000 24.250000 -0.250000
v 22.549999 24.250000 -0.700000
v 13.450000 28.299999 0.250000
v 13.450000 28.750000 0.700000
v 13.000000 28.750000 0.250000
v 13.450000 29.250000 0.700000
v 13.450000 29.700001 0.250000
v 13.000000 29.250000 0.250000
v 13.450000 28.299999 -0.250000
v 13.000000 28.750000 -0.250000
v 13.450000 28.750000 -0.700000
v 13.450000 29.700001 -0.250000
v 13.450000 29.250000 -0.700000
v 13.000000 29.250000 -0.250000
v 22.549999 28.299999 0.250000
v 23.000000 28.750000 0.250000
v 22.549999 28.750000 0.700000
v 22.549999 29.700001 0.250000
v 22.549999 29.250000 0.700000
v 23.000000 29.250000 0.250000
v 22.549999 28.299999 -0.250000
v 22.549999 28.750000 -0.700000
v 23.000000 28.750000 -0.250000
v 22.549999 29.700001 -0.250000
v 23.000000 29.250000 -0.250000
v 22.549999 29.250000 -0.700000
v 17.650002 0.000000 4.850000
v 17.650002 0.450000 5.300000
v 17.200001 0.450000 4.850000
v 17.650002 31.549999 5.300000
v 17.650002 32.000000 4.850000
v 17.200001 31.549999 4.850000
v 17.650002 0.000000 4.150000
v 17.200001 0.450000 4.150000
v 17.650002 0.450000 3.700000
v 17.650002 32.000000 4.150000
v 17.650002 31.549999 3.700000
v 17.200001 31.549999 4.150000
v 18.349998 0.000000 4.850000
v 18.799999 0.450000 4.850000
v 18.349998 0.450000 5.300000
v 18.349998 32.000000 4.850000
v 18.349998 31.549999 5.300000
v 18.799999 31.549999 4.850000
v 18.349998 0.000000 4.150000
v 18.349998 0.450000 3.700000
v 18.799999 0.450000 4.150000
v 18.349998 32.000000 4.150000
v 18.799999 31.549999 4.150000
v 18.349998 31.549999 3.700000
v 17.650002 0.000000 -4.150000
v 17.650002 0.450000 -3.700000
v 17.200001 0.450000 -4.150000
v 17.650002 31.549999 -3.700000
v 17.650002 32.000000 -4.150000
v 17.200001 31.549999 -4.150000
v 17.650002 0.000000 -4.850000
v 17.200001 0.450000 -4.850000
v 17.650002 0.450000 -5.300000
v 17.650002 32.000000 -4.850000
v 17.650002 31.549999 -5.300000
v 17.200001 31.549999 -4.850000
v 18.349998 0.000000 -4.150000
v 18.799999 0.450000 -4.150000
v 18.349998 0.450000 -3.700000
v 18.349998 32.000000 -4.150000
v 18.349998 31.549999 -3.700000
v 18.799999 31.549999 -4.150000
v 18.349998 0.000000 -4.850000
v 18.349998 0.450000 -5.300000
v 18.799999 0.450000 -4.850000
v 18.349998 32.000000 -4.850000
v 18.799999 31.549999 -4.850000
v 18.349998 31.549999 -5.300000
v 13.450000 3.300000 -0.250000
v 13.450000 3.300000 0.250000
v 13.000000 3.750000 0.250000
v 13.000000 3.750000 -0.250000
v 13.450000 3.750000 0.700000
v 13.450000 4.250000 0.700000
v 13.000000 4.250000 0.250000
v 13.450000 4.700000 0.250000
v 13.450000 4.700000 -0.250000
v 13.000000 4.250000 -0.250000
v 13.450000 4.250000 -0.700000
v 13.450000 3.750000 -0.700000
v 22.549999 3.300000 -0.250000
v 22.549999 3.750000 -0.700000
v 22.549999 4.700000 -0.250000
v 22.549999 4.250000 -0.700000
v 23.000000 4.250000 -0.250000
v 23.000000 3.750000 -0.250000
v 22.549999 3.300000 0.250000
v 23.000000 3.750000 0.250000
v 22.549999 4.700000 0.250000
v 23.000000 4.250000 0.250000
v 22.549999 4.250000 0.700000
v 22.549999 3.750000 0.700000
v 13.450000 8.300000 -0.250000
v 13.450000 8.300000 0.250000
v 13.000000 8.750000 0.250000
v 13.000000 8.750000 -0.250000
v 13.450000 8.750000 0.700000
v 13.450000 9.250000 0.700000
v 13.000000 9.250000 0.250000
v 13.450000 9.700000 0.250000
v 13.450000 9.700000 -0.250000
v 13.000000 9.250000 -0.250000
v 13.450000 9.250000 -0.700000
v 13.450000 8.750000 -0.700000
v 22.549999 8.300000 -0.250000
v 22.549999 8.750000 -0.700000
v 22.549999 9.700000 -0.250000
v 22.549999 9.250000 -0.700000
v 23.000000 9.250000 -0.250000
v 23.000000 8.750000 -0.250000
v 22.549999 8.300000 0.250000
v 23.000000 8.750000 0.250000
v 22.549999 9.700000 0.250000
v 23.000000 9.250000 0.250000
v 22.549999 9.250000 0.700000
v 22.549999 8.750000 0.700000
v 13.450000 13.300000 -0.250000
v 13.450000 13.300000 0.250000
v 13.000000 13.750000 0.250000
v 13.000000 13.750000 -0.250000
v 13.450000 13.750000 0.700000
v 13.450000 14.250000 0.700000
v 13.000000 14.250000 0.250000
v 13.450000 14.700000 0.250000
v 13.450000 14.700000 -0.250000
v 13.000000 14.250000 -0.250000
v 13.450000 14.250000 -0.700000
v 13.450000 13.750000 -0.700000
v 22.549999 13.300000 -0.250000
v 22.549999 13.750000 -0.700000
v 22.549999 14.700000 -0.250000
v 22.549999 14.250000 -0.700000
v 23.000000 14.250000 -0.250000
v 23.000000 13.750000 -0.250000
v 22.549999 13.300000 0.250000
v 23.000000 13.750000 0.250000
v 22.549999 14.700000 0.250000
v 23.000000 14.250000 0.250000
v 22.549999 14.250000 0.700000
v 22.549999 13.750000 0.700000
v 13.450000 18.299999 -0.250000
v 13.450000 18.299999 0.250000
v 13.000000 18.750000 0.250000
v 13.000000 18.750000 -0.250000
v 13.450000 18.750000 0.700000
v 13.450000 19.250000 0.700000
v 13.000000 19.250000 0.250000
v 13.450000 19.700001 0.250000
v 13.450000 19.700001 -0.250000
v 13.000000 19.250000 -0.250000
v 13.450000 19.250000 -0.700000
v 13.450000 18.750000 -0.700000
v 22.549999 18.299999 -0.250000
v 22.549999 18.750000 -0.700000
v 22.549999 19.700001 -0.250000
v 22.549999 19.250000 -0.700000
v 23.000000 19.250000 -0.250000
v 23.000000 18.750000 -0.250000
v 22.549999 18.299999 0.250000
v 23.000000 18.750000 0.250000
v 22.549999 19.700001 0.250000
v 23.000000 19.250000 0.250000
v 22.549999 19.250000 0.700000
v 22.549999 18.750000 0.700000
v 13.450000 23.299999 -0.250000
v 13.450000 23.299999 0.250000
v 13.000000 23.750000 0.250000
v 13.000000 23.750000 -0.250000
v 13.450000 23.750000 0.700000
v 13.450000 24.250000 0.700000
v 13.000000 24.250000 0.250000
v 13.450000 24.700001 0.250000
v 13.450000 24.700001 -0.250000
v 13.000000 24.250000 -0.250000
v 13.450000 24.250000 -0.700000
v 13.450000 23.750000 -0.700000
v 22.549999 23.299999 -0.250000
v 22.549999 23.750000 -0.700000
v 22.549999 24.700001 -0.250000
v 22.549999 24.250000 -0.700000
v 23.000000 24.250000 -0.250000
v 23.000000 23.750000 -0.250000
v 22.549999 23.299999 0.250000
v 23.000000 23.750000 0.250000
v 22.549999 24.700001 0.250000
v 23.000000 24.250000 0.250000
v 22.549999 24.250000 0.700000
v 22.549999 23.750000 0.700000
v 13.450000 28.299999 -0.250000
v 13.450000 28.299999 0.250000
v 13.000000 28.750000 0.250000
v 13.000000 28.750000 -0.250000
v 13.450000 28.750000 0.700000
v 13.450000 29.250000 0.700000
v 13.000000 29.250000 0.250000
v 13.450000 29.700001 0.250000
v 13.450000 29.700001 -0.250000
v 13.000000 29.250000 -0.250000
v 13.450000 29.250000 -0.700000
v 13.450000 28.750000 -0.700000
v 22.549999 28.299999 -0.250000
v 22.549999 28.750000 -0.700000
v 22.549999 29.700001 -0.250000
v 22.549999 29.250000 -0.700000
v 23.000000 29.250000 -0.250000
v 23.000000 28.750000 -0.250000
v 22.549999 28.299999 0.250000
v 23.000000 28.750000 0.250000
v 22.549999 29.700001 0.250000
v 23.000000 29.250000 0.250000
v 22.549999 29.250000 0.700000
v 22.549999 28.750000 0.700000
v 17.650002 0.000000 4.150000
v 17.650002 0.000000 4.850000
v 17.200001 0.450000 4.850000
v 17.200001 0.450000 4.150000
v 17.650002 0.450000 5.300000
v 17.650002 31.549999 5.300000
v 17.200001 31.549999 4.850000
v 17.650002 32.000000 4.850000
v 17.650002 32.000000 4.150000
v 17.200001 31.549999 4.150000
v 17.650002 31.549999 3.700000
v 17.650002 0.450000 3.700000
v 18.349998 0.000000 4.150000
v 18.349998 0.450000 3.700000
v 18.349998 32.000000 4.150000
v 18.349998 31.549999 3.700000
v 18.799999 31.549999 4.150000
v 18.799999 0.450000 4.150000
v 18.349998 0.000000 4.850000
v 18.799999 0.450000 4.850000
v 18.349998 32.000000 4.850000
v 18.799999 31.549999 4.850000
v 18.349998 31.549999 5.300000
v 18.349998 0.450000 5.300000
v 17.650002 0.000000 -4.850000
v 17.650002 0.000000 -4.150000
v 17.200001 0.450000 -4.150000
v 17.200001 0.450000 -4.850000
v 17.650002 0.450000 -3.700000
v 17.650002 31.549999 -3.700000
v 17.200001 31.549999 -4.150000
v 17.650002 32.000000 -4.150000
v 17.650002 32.000000 -4.850000
v 17.200001 31.549999 -4.850000
v 17.650002 31.549999 -5.300000
v 17.650002 0.450000 -5.300000
v 18.349998 0.000000 -4.850000
v 18.349998 0.450000 -5.300000
v 18.349998 32.000000 -4.850000
v 18.349998 31.549999 -5.300000
v 18.799999 31.549999 -4.850000
v 18.799999 0.450000 -4.850000
v 18.349998 0.000000 -4.150000
v 18.799999 0.450000 -4.150000
v 18.349998 32.000000 -4.150000
v 18.799999 31.549999 -4.150000
v 18.349998 31.549999 -3.700000
v 18.349998 0.450000 -3.700000
vn -0.0000 -0.7260 0.6877
vn -0.0000 -0.7260 -0.6877
vn -0.0000 0.7260 -0.6877
vn -0.0000 0.7260 0.6877
vn 0.4606 -0.4606 0.7588
vn 0.4606 0.4606 0.7588
vn 0.7588 0.4606 0.4606
vn 0.4606 0.7588 0.4606
vn 0.7588 -0.4606 0.4606
vn 0.4606 -0.7588 0.4606
vn 0.7588 -0.4606 -0.4606
vn 0.7588 0.4606 -0.4606
vn 0.4606 0.4606 -0.7588
vn 0.4606 0.7588 -0.4606
vn 0.4606 -0.4606 -0.7588
vn 0.4606 -0.7588 -0.4606
vn -0.4606 -0.4606 -0.7588
vn -0.4606 0.4606 -0.7588
vn -0.7588 0.4606 -0.4606
vn -0.4606 0.7588 -0.4606
vn -0.4606 0.7588 0.4606
vn -0.7588 0.4606 0.4606
vn -0.4606 0.4606 0.7588
vn -0.4606 -0.4606 0.7588
vn -0.7588 -0.4606 -0.4606
vn -0.7588 -0.4606 0.4606
vn -0.4606 -0.7588 0.4606
vn -0.4606 -0.7588 -0.4606
vn -0.6265 0.6904 -0.3617
vn -0.6265 -0.6904 -0.3617
vn -0.6265 0.6904 0.3617
vn -0.6265 -0.6904 0.3617
vn -0.0000 0.6904 0.7235
vn -0.0000 -0.6904 0.7235
vn -0.0000 -0.6904 -0.7235
vn 0.6265 0.6904 0.3617
vn 0.6265 -0.6904 -0.3617
vn 0.6265 -0.6904 0.3617
vn 0.6265 0.6904 -0.3617
vn -0.0000 0.6904 -0.7235
vn 1.0000 -0.0000 -0.0000
vn 0.3408 -0.6196 -0.7071
vn 0.6406 -0.0000 -0.7679
vn 0.3408 0.6196 -0.7071
vn 0.3408 0.6196 0.7071
vn 0.3408 -0.6196 0.7071
vn 0.6406 -0.0000 0.7679
vn -0.3408 0.6196 -0.7071
vn -1.0000 -0.0000 -0.0000
vn -0.6406 -0.0000 -0.7679
vn -0.3408 -0.6196 -0.7071
vn -0.3408 -0.6196 0.7071
vn -0.3408 0.6196 0.7071
vn -0.6406 -0.0000 0.7679
vn -0.0000 -0.0000 1.0000
vn -0.0000 1.0000 -0.0000
vn -0.0000 -1.0000 -0.0000
vn -0.2677 -0.3400 -0.9015
vn 0.2677 -0.3400 -0.9015
vn 0.2677 0.3400 -0.9015
vn -0.2677 0.3400 -0.9015
vn 0.6469 -0.3400 -0.6826
vn 0.9146 -0.3400 -0.2189
vn 0.9146 0.3400 -0.2189
vn 0.6469 0.3400 -0.6826
vn 0.9146 -0.3400 0.2189
vn 0.6469 -0.3400 0.6826
vn 0.6469 0.3400 0.6826
vn 0.9146 0.3400 0.2189
vn 0.2677 -0.3400 0.9015
vn -0.2677 -0.3400 0.9015
vn -0.2677 0.3400 0.9015
vn 0.2677 0.3400 0.9015
vn -0.6469 -0.3400 0.6826
vn -0.9146 -0.3400 0.2189
vn -0.9146 0.3400 0.2189
vn -0.6469 0.3400 0.6826
vn -0.9146 -0.3400 -0.2189
vn -0.6469 -0.3400 -0.6826
vn -0.6469 0.3400 -0.6826
vn -0.9146 0.3400 -0.2189
vn -0.0000 -0.0000 -1.0000
vn -0.4819 -0.8762 -0.0000
vn -0.4819 0.8762 -0.0000
vn 0.2580 0.9040 0.3408
vn -0.2580 0.9040 0.3408
vn 0.2580 0.9040 -0.3408
vn -0.2580 0.9040 -0.3408
vn -0.2580 -0.9040 0.3408
vn 0.2580 -0.9040 0.3408
vn 0.4819 0.8762 -0.0000
vn 0.4819 -0.8762 -0.0000
vn -0.2580 -0.9040 -0.3408
vn 0.2580 -0.9040 -0.3408
vt -0.650000 1.602500
vt -0.627500 1.625000
vt -0.627500 1.602500
vt -0.627500 1.475000
vt -0.650000 1.497500
vt -0.627500 1.497500
vt -0.650000 0.000000
vt -0.669486 0.022500
vt -0.630514 0.022500
vt -0.650000 1.500000
vt -0.630514 1.477500
vt -0.669486 1.477500
vt -0.507990 0.000000
vt -0.483750 0.022500
vt -0.517500 0.022500
vt -0.507990 1.500000
vt -0.517500 1.477500
vt -0.483750 1.477500
vt -0.592010 0.000000
vt -0.582500 0.022500
vt -0.616250 0.022500
vt -0.592010 1.500000
vt -0.616250 1.477500
vt -0.582500 1.477500
vt -0.630514 0.022500
vt -0.669486 0.022500
vt -0.616250 0.022500
vt -0.483750 0.022500
vt 0.592010 0.000000
vt 0.616250 0.022500
vt 0.582500 0.022500
vt 0.592010 1.500000
vt 0.582500 1.477500
vt 0.616250 1.477500
vt 0.507990 0.000000
vt 0.517500 0.022500
vt 0.483750 0.022500
vt 0.507990 1.500000
vt 0.483750 1.477500
vt 0.517500 1.477500
vt 0.483750 0.022500
vt 0.616250 0.022500
vt 0.650000 0.000000
vt 0.630514 0.022500
vt 0.669486 0.022500
vt 0.650000 1.500000
vt 0.669486 1.477500
vt 0.630514 1.477500
vt 0.669486 0.022500
vt 0.630514 0.022500
vt 0.627500 1.475000
vt 0.627500 1.497500
vt 0.650000 1.497500
vt 0.627500 1.625000
vt 0.650000 1.602500
vt 0.627500 1.602500
vt -0.527500 1.600000
vt -0.550000 1.622500
vt -0.527500 1.622500
vt -0.550000 2.577500
vt -0.527500 2.600000
vt -0.527500 2.577500
vt 0.527500 1.600000
vt 0.527500 1.622500
vt 0.550000 1.622500
vt 0.527500 2.600000
vt 0.550000 2.577500
vt 0.527500 2.577500
vt -0.828813 2.650266
vt -0.801840 2.661109
vt -0.828813 2.671952
vt 0.070711 -0.550000
vt 0.090426 -0.527500
vt 0.050996 -0.527500
vt 0.090426 0.527500
vt 0.070711 0.550000
vt 0.050996 0.527500
vt -0.090426 -0.527500
vt -0.050996 -0.527500
vt -0.070711 -0.550000
vt 0.828813 2.749734
vt 0.801840 2.738891
vt 0.828813 2.728048
vt -0.090426 0.527500
vt -0.070711 0.550000
vt -0.050996 0.527500
vt 0.801840 2.738891
vt -0.012500 0.165000
vt -0.035000 0.187500
vt -0.012500 0.187500
vt -0.035000 0.212500
vt -0.012500 0.235000
vt -0.012500 0.212500
vt 0.012500 0.165000
vt 0.012500 0.187500
vt 0.035000 0.187500
vt 0.672500 0.012500
vt 0.672500 0.035000
vt 0.650000 0.012500
vt 1.127500 0.165000
vt 1.150000 0.187500
vt 1.127500 0.187500
vt 1.127500 -0.012500
vt 1.127500 -0.035000
vt 1.150000 -0.012500
vt 1.127500 0.012500
vt 1.150000 0.012500
vt 1.127500 0.035000
vt 0.672500 -0.012500
vt 0.672500 -0.035000
vt 0.650000 -0.012500
vt 1.150000 0.012500
vt -0.012500 0.915000
vt -0.035000 0.937500
vt -0.012500 0.937500
vt -0.035000 0.962500
vt -0.012500 0.985000
vt -0.012500 0.962500
vt 0.012500 0.915000
vt 0.012500 0.937500
vt 0.035000 0.937500
vt 0.012500 0.985000
vt 0.035000 0.962500
vt 0.012500 0.962500
vt 1.127500 0.915000
vt 1.150000 0.937500
vt 1.127500 0.937500
vt 1.127500 0.985000
vt 1.127500 0.962500
vt 1.150000 0.962500
vt -0.012500 1.165000
vt -0.035000 1.187500
vt -0.012500 1.187500
vt -0.035000 1.212500
vt -0.012500 1.235000
vt -0.012500 1.212500
vt 0.012500 1.165000
vt 0.012500 1.187500
vt 0.035000 1.187500
vt 0.012500 1.235000
vt 0.035000 1.212500
vt 0.012500 1.212500
vt 1.127500 1.165000
vt 1.150000 1.187500
vt 1.127500 1.187500
vt 1.127500 1.235000
vt 1.127500 1.212500
vt 1.150000 1.212500
vt -0.012500 1.415000
vt -0.035000 1.437500
vt -0.012500 1.437500
vt -0.035000 1.462500
vt -0.012500 1.485000
vt -0.012500 1.462500
vt 0.012500 1.415000
vt 0.012500 1.437500
vt 0.035000 1.437500
vt 0.012500 1.485000
vt 0.035000 1.462500
vt 0.012500 1.462500
vt 1.127500 1.415000
vt 1.150000 1.437500
vt 1.127500 1.437500
vt 1.127500 1.485000
vt 1.127500 1.462500
vt 1.150000 1.462500
vt 0.882500 0.000000
vt 0.882500 0.022500
vt 0.860000 0.022500
vt 0.882500 1.577500
vt 0.882500 1.600000
vt 0.860000 1.577500
vt 0.882500 -0.207500
vt 0.860000 -0.207500
vt 0.882500 -0.185000
vt 0.917500 0.000000
vt 0.940000 0.022500
vt 0.917500 0.022500
vt 0.917500 1.600000
vt 0.917500 1.577500
vt 0.940000 1.577500
vt 0.917500 -0.207500
vt 0.917500 -0.185000
vt 0.940000 -0.207500
vt 0.882500 0.207500
vt 0.882500 0.185000
vt 0.860000 0.207500
vt 0.917500 0.207500
vt 0.940000 0.207500
vt 0.917500 0.185000
vt 0.725777 0.616250
vt 0.650000 0.634019
vt 0.722763 0.592010
vt -0.574223 -0.483750
vt -0.650000 -0.465981
vt -0.630514 -0.451250
vt -0.574223 0.616250
vt -0.650000 0.634019
vt -0.577237 0.592010
vt 0.777500 1.475000
vt -0.777500 1.497500
vt -0.777500 1.475000
vt -0.577237 -0.507990
vt 0.725777 -0.483750
vt 0.650000 -0.465981
vt 0.722763 -0.507990
vt -0.630514 -0.648750
vt -0.577237 -0.592010
vt -0.574223 -0.616250
vt -0.630514 0.648750
vt -0.650000 -0.634019
vt -0.669486 -0.648750
vt -0.722763 -0.592010
vt -0.777500 1.625000
vt 0.777500 1.602500
vt 0.777500 1.625000
vt -0.725777 -0.616250
vt -0.725777 -0.483750
vt -0.722763 -0.507990
vt -0.669486 -0.451250
vt -0.630514 0.451250
vt -0.577237 0.507990
vt -0.574223 0.483750
vt 0.669486 -0.451250
vt -0.650000 0.465981
vt -0.669486 0.451250
vt -0.722763 0.507990
vt -0.725777 0.483750
vt -0.725777 0.616250
vt -0.722763 0.592010
vt -0.669486 0.648750
vt 0.725777 -0.616250
vt 0.650000 -0.634019
vt 0.722763 -0.592010
vt 0.669486 0.648750
vt 0.669486 -0.648750
vt 0.574223 -0.616250
vt 0.630514 -0.648750
vt 0.777500 1.497500
vt 0.577237 -0.592010
vt -0.777500 1.602500
vt 0.630514 -0.451250
vt 0.577237 -0.507990
vt 0.574223 -0.483750
vt 0.725777 0.483750
vt 0.650000 0.465981
vt 0.722763 0.507990
vt 0.669486 0.451250
vt 0.574223 0.483750
vt 0.630514 0.451250
vt 0.577237 0.507990
vt 0.630514 0.648750
vt 0.577237 0.592010
vt 0.574223 0.616250
vt -0.677500 1.600000
vt 0.677500 1.622500
vt 0.677500 1.600000
vt 0.677500 2.600000
vt -0.677500 2.577500
vt -0.677500 2.600000
vt -0.677500 1.622500
vt 0.677500 2.577500
vt -0.527500 2.650266
vt 0.527500 2.671952
vt 0.527500 2.650266
vt 0.050996 3.155847
vt 0.050996 3.155847
vt 0.070711 3.141012
vt -0.090426 2.244153
vt -0.070711 2.258988
vt 0.090426 3.155847
vt -0.050996 2.244153
vt -0.527500 2.749734
vt 0.527500 2.728048
vt 0.527500 2.749734
vt -0.050996 2.244153
vt -0.090426 2.244153
vt 0.090426 3.155847
vt 0.650000 -0.012500
vt 0.012500 0.212500
vt 0.035000 0.212500
vt 0.672500 0.165000
vt 1.127500 0.212500
vt 1.150000 0.212500
vt 1.150000 -0.012500
vt 0.672500 0.187500
vt -0.035000 0.462500
vt -0.012500 0.437500
vt -0.035000 0.437500
vt 0.035000 0.437500
vt 0.012500 0.462500
vt 0.035000 0.462500
vt 1.150000 0.437500
vt 1.127500 0.462500
vt 1.150000 0.462500
vt 1.127500 0.437500
vt -0.035000 0.712500
vt -0.012500 0.687500
vt -0.035000 0.687500
vt 0.035000 0.687500
vt 0.012500 0.712500
vt 0.035000 0.712500
vt 1.150000 0.687500
vt 1.127500 0.712500
vt 1.150000 0.712500
vt 1.127500 0.687500
vt 0.672500 0.915000
vt 0.672500 0.962500
vt 0.672500 0.985000
vt 0.672500 0.937500
vt 0.672500 1.165000
vt 0.672500 1.212500
vt 0.672500 1.235000
vt 0.672500 1.187500
vt 0.672500 1.415000
vt 0.672500 1.462500
vt 0.672500 1.485000
vt 0.672500 1.437500
vt 0.882500 -0.242500
vt 0.860000 -0.242500
vt 0.940000 -0.242500
vt 0.917500 -0.242500
vt 0.860000 0.242500
vt 0.882500 0.242500
vt 0.917500 0.242500
vt 0.940000 0.242500
vt -0.777500 0.627500
vt 0.777500 -0.627500
vt 0.777500 0.627500
vt -0.777500 -0.627500
vt -0.574223 0.022500
vt -0.725777 1.477500
vt -0.725777 0.022500
vt -0.574223 1.477500
vt -0.574223 0.022500
vt -0.725777 0.022500
vt 0.725777 0.022500
vt 0.574223 1.477500
vt 0.574223 0.022500
vt 0.725777 1.477500
vt 0.725777 0.022500
vt 0.574223 0.022500
vt 0.677500 0.527500
vt -0.677500 -0.527500
vt -0.677500 0.527500
vt 0.677500 -0.527500
vt -0.828813 -0.527500
vt -0.828813 0.527500
vt 0.828813 -0.527500
vt 0.828813 0.527500
vt 0.672500 0.212500
vt 0.012500 0.212500
vt -0.012500 0.187500
vt 0.012500 0.187500
vt -0.012500 0.462500
vt 0.012500 0.437500
vt 0.672500 0.437500
vt 0.672500 0.462500
vt -0.012500 0.712500
vt 0.012500 0.687500
vt 0.672500 0.687500
vt 0.672500 0.712500
vt -0.242500 1.577500
vt -0.207500 0.022500
vt -0.242500 0.022500
vt -0.207500 1.577500
vt 0.207500 1.577500
vt 0.242500 0.022500
vt 0.207500 0.022500
vt 0.242500 1.577500
vt -0.527500 2.671952
vt -0.527500 2.728048
vt -0.012500 0.212500
s 1
f 73/1/23 74/2/21 38/3/22
f 93/4/27 90/5/24 34/6/26
f 95/7/35 144/8/58 145/9/59
f 89/10/40 147/11/60 148/12/61
f 96/13/37 150/14/62 151/15/63
f 88/16/39 153/17/64 154/18/65
f 85/19/38 156/20/66 157/21/67
f 82/22/36 159/23/68 160/24/69
f 79/7/34 162/25/70 163/26/71
f 77/10/33 165/12/72 166/11/73
f 76/19/32 168/27/74 169/20/75
f 71/22/31 171/24/76 172/23/77
f 70/13/30 174/15/78 175/28/79
f 68/16/29 177/18/80 178/17/81
f 78/7/35 180/8/58 181/9/59
f 94/10/40 183/11/60 184/12/61
f 86/29/37 186/30/62 187/31/63
f 100/32/39 189/33/64 190/34/65
f 87/35/38 192/36/66 193/37/67
f 99/38/36 195/39/68 196/40/69
f 65/7/34 198/25/70 199/26/71
f 63/10/33 201/12/72 202/11/73
f 62/35/32 204/41/74 205/36/75
f 59/38/31 207/40/76 208/39/77
f 58/29/30 210/31/78 211/42/79
f 56/32/29 213/34/80 214/33/81
f 64/43/35 216/44/58 217/45/59
f 84/46/40 219/47/60 220/48/61
f 80/13/37 222/14/62 223/15/63
f 83/16/39 225/17/64 226/18/65
f 81/19/38 228/20/66 229/21/67
f 69/22/36 231/23/68 232/24/69
f 51/43/34 234/49/70 235/50/71
f 49/46/33 237/48/72 238/47/73
f 48/19/32 240/27/74 241/20/75
f 44/22/31 243/24/76 244/23/77
f 43/13/30 246/15/78 247/28/79
f 39/16/29 249/18/80 250/17/81
f 50/43/35 252/44/58 253/45/59
f 98/46/40 255/47/60 256/48/61
f 66/29/37 258/30/62 259/31/63
f 97/32/39 261/33/64 262/34/65
f 67/35/38 264/36/66 265/37/67
f 57/38/36 267/39/68 268/40/69
f 37/43/34 270/49/70 271/50/71
f 35/46/33 273/48/72 274/47/73
f 33/35/32 276/41/74 277/36/75
f 31/38/31 279/40/76 280/39/77
f 30/29/30 282/31/78 283/42/79
f 29/32/29 285/34/80 286/33/81
f 46/51/28 53/52/25 54/53/17
f 42/54/20 55/55/18 52/56/19
f 92/4/10 61/6/9 91/5/5
f 75/2/8 72/1/6 60/3/7
f 47/51/16 45/53/15 32/52/11
f 41/54/14 36/56/12 40/55/13
f 27/57/27 24/58/24 26/59/26
f 23/60/23 21/61/21 22/62/22
f 28/63/28 25/64/25 17/65/17
f 20/66/20 18/67/18 19/68/19
f 10/57/10 9/59/9 5/58/5
f 8/61/8 6/60/6 7/62/7
f 16/63/16 15/65/15 11/64/11
f 14/66/14 12/68/12 13/67/13
f 133/69/54 130/70/54 136/71/54
f 4/72/4 333/73/85 334/74/86
f 124/69/50 121/71/50 127/70/50
f 338/75/87 3/76/3 340/77/88
f 341/78/89 342/79/90 1/80/1
f 115/81/47 112/82/47 118/83/47
f 347/84/93 2/85/2 349/86/94
f 106/81/43 103/83/43 109/87/43
f 546/88/27 549/89/24 547/90/26
f 550/91/23 552/92/21 551/93/22
f 545/94/28 548/95/25 556/96/17
f 553/97/20 555/98/18 554/99/19
f 563/100/10 564/101/9 568/102/5
f 565/103/8 567/104/6 566/105/7
f 557/100/16 558/102/15 562/101/11
f 559/106/14 561/107/12 560/108/13
f 570/109/27 573/110/24 571/111/26
f 574/110/23 576/109/21 575/111/22
f 569/97/28 572/99/25 580/98/17
f 577/97/20 579/98/18 578/99/19
f 587/103/10 588/105/9 592/104/5
f 589/103/8 591/104/6 590/105/7
f 581/106/16 582/108/15 586/112/11
f 583/106/14 585/112/12 584/108/13
f 594/109/27 597/110/24 595/111/26
f 598/110/23 600/109/21 599/111/22
f 593/97/28 596/99/25 604/98/17
f 601/97/20 603/98/18 602/99/19
f 611/103/10 612/105/9 616/104/5
f 613/103/8 615/104/6 614/105/7
f 605/106/16 606/108/15 610/112/11
f 607/106/14 609/112/12 608/108/13
f 618/113/27 621/114/24 619/115/26
f 622/116/23 624/117/21 623/118/22
f 617/119/28 620/120/25 628/121/17
f 625/122/20 627/123/18 626/124/19
f 635/125/10 636/126/9 640/127/5
f 637/128/8 639/129/6 638/130/7
f 629/125/16 630/127/15 634/126/11
f 631/128/14 633/130/12 632/129/13
f 642/131/27 645/132/24 643/133/26
f 646/134/23 648/135/21 647/136/22
f 641/137/28 644/138/25 652/139/17
f 649/140/20 651/141/18 650/142/19
f 659/143/10 660/144/9 664/145/5
f 661/146/8 663/147/6 662/148/7
f 653/143/16 654/145/15 658/144/11
f 655/146/14 657/148/12 656/147/13
f 666/149/27 669/150/24 667/151/26
f 670/152/23 672/153/21 671/154/22
f 665/155/28 668/156/25 676/157/17
f 673/158/20 675/159/18 674/160/19
f 683/161/10 684/162/9 688/163/5
f 685/164/8 687/165/6 686/166/7
f 677/161/16 678/163/15 682/162/11
f 679/164/14 681/166/12 680/165/13
f 690/167/27 693/168/24 691/169/26
f 694/170/23 696/171/21 695/172/22
f 689/173/28 692/174/25 700/175/17
f 697/171/20 699/170/18 698/172/19
f 707/176/10 708/177/9 712/178/5
f 709/179/8 711/180/6 710/181/7
f 701/182/16 702/183/15 706/184/11
f 703/179/14 705/181/12 704/180/13
f 714/185/27 717/186/24 715/187/26
f 718/170/23 720/171/21 719/172/22
f 713/167/28 716/169/25 724/168/17
f 721/171/20 723/170/18 722/172/19
f 731/188/10 732/189/9 736/190/5
f 733/179/8 735/180/6 734/181/7
f 725/176/16 726/178/15 730/177/11
f 727/179/14 729/181/12 728/180/13
f 189/33/64 99/38/36 196/40/69
f 262/191/65 98/192/40 97/193/39
f 150/194/62 95/195/35 145/196/59
f 190/197/65 94/198/40 100/199/39
f 92/200/10 90/201/24 93/202/27
f 147/196/60 88/203/39 154/194/65
f 148/12/61 145/9/59 144/8/58
f 151/15/63 154/18/65 153/17/64
f 192/36/66 86/29/37 187/31/63
f 156/20/66 96/13/37 151/15/63
f 226/204/65 84/205/40 83/206/39
f 153/17/64 82/22/36 160/24/69
f 157/21/67 160/24/69 159/23/68
f 228/20/66 80/13/37 223/15/63
f 162/207/70 85/208/38 157/209/67
f 186/197/62 78/198/35 181/210/59
f 166/207/73 82/208/36 77/211/33
f 163/26/71 166/11/73 165/12/72
f 187/31/63 190/34/65 189/33/64
f 163/212/71 76/213/32 79/211/34
f 74/214/21 72/215/6 75/216/8
f 172/217/77 77/211/33 71/213/31
f 169/20/75 172/23/77 171/24/76
f 184/12/61 181/9/59 180/8/58
f 174/15/78 76/19/32 169/20/75
f 225/17/64 69/22/36 232/24/69
f 171/24/76 68/16/29 178/17/81
f 175/28/79 178/17/81 177/18/80
f 175/218/79 95/195/35 70/219/30
f 177/218/80 89/195/40 148/220/61
f 193/37/67 196/40/69 195/39/68
f 264/36/66 66/29/37 259/31/63
f 198/221/70 87/222/38 193/223/67
f 217/224/59 80/206/37 64/205/35
f 202/221/73 99/222/36 63/225/33
f 199/26/71 202/11/73 201/12/72
f 223/15/63 226/18/65 225/17/64
f 199/226/71 62/227/32 65/225/34
f 91/5/5 60/3/7 72/1/6
f 208/228/77 63/225/33 59/227/31
f 205/36/75 208/39/77 207/40/76
f 220/48/61 217/45/59 216/44/58
f 210/31/78 62/35/32 205/36/75
f 261/33/64 57/38/36 268/40/69
f 207/40/76 56/32/29 214/33/81
f 211/42/79 214/33/81 213/34/80
f 211/229/79 78/198/35 58/230/30
f 213/229/80 94/198/40 184/231/61
f 229/21/67 232/24/69 231/23/68
f 54/53/17 52/56/19 55/55/18
f 229/232/67 51/233/34 81/234/38
f 253/235/59 66/193/37 50/192/35
f 231/232/68 49/233/33 238/236/73
f 235/50/71 238/47/73 237/48/72
f 259/31/63 262/34/65 261/33/64
f 240/237/74 51/233/34 235/238/71
f 46/202/28 45/239/15 47/200/16
f 244/237/77 49/233/33 44/240/31
f 241/20/75 244/23/77 243/24/76
f 256/48/61 253/45/59 252/44/58
f 246/15/78 48/19/32 241/20/75
f 41/216/14 55/241/18 42/214/20
f 243/24/76 39/16/29 250/17/81
f 247/28/79 250/17/81 249/18/80
f 216/242/58 43/243/30 247/244/79
f 220/242/61 39/243/29 84/205/40
f 265/37/67 268/40/69 267/39/68
f 42/54/20 38/3/22 74/2/21
f 265/245/67 37/246/34 67/247/38
f 75/2/8 36/56/12 41/54/14
f 267/245/68 35/246/33 274/248/73
f 271/50/71 274/47/73 273/48/72
f 73/1/23 34/6/26 90/5/24
f 276/249/74 37/246/34 271/250/71
f 47/51/16 61/6/9 92/4/10
f 273/250/72 31/251/31 280/249/77
f 277/36/75 280/39/77 279/40/76
f 93/4/27 53/52/25 46/51/28
f 282/31/78 33/35/32 277/36/75
f 32/52/11 40/55/13 36/56/12
f 279/40/76 29/32/29 286/33/81
f 283/42/79 286/33/81 285/34/80
f 252/252/58 30/253/30 283/254/79
f 256/252/61 29/253/29 98/192/40
f 27/57/27 25/64/25 28/63/28
f 23/60/23 26/59/26 24/58/24
f 20/66/20 22/62/22 21/61/21
f 17/65/17 19/68/19 18/67/18
f 28/255/28 15/256/15 16/257/16
f 14/258/14 18/259/18 20/260/20
f 11/64/11 13/67/13 12/68/12
f 16/63/16 9/59/9 10/57/10
f 8/61/8 12/68/12 14/66/14
f 5/58/5 7/62/7 6/60/6
f 10/257/10 24/261/24 27/255/27
f 21/260/21 6/262/6 8/258/8
f 132/263/49 120/264/49 123/265/49
f 129/70/53 334/266/86 134/71/53
f 338/75/87 334/74/86 333/73/85
f 126/70/48 340/267/88 3/268/3
f 347/269/93 125/70/51 2/270/2
f 338/271/87 108/87/44 3/268/3
f 349/272/94 107/87/42 102/83/42
f 347/84/93 342/79/90 341/78/89
f 114/273/41 101/274/41 104/275/41
f 111/82/46 342/276/90 116/83/46
f 341/277/89 128/70/52 131/69/52
f 333/278/85 110/82/45 113/81/45
f 546/88/27 548/95/25 545/94/28
f 550/91/23 547/90/26 549/89/24
f 553/97/20 551/279/22 552/109/21
f 556/96/17 554/280/19 555/281/18
f 545/282/28 558/102/15 557/100/16
f 559/106/14 555/98/18 553/97/20
f 562/101/11 560/283/13 561/284/12
f 557/106/16 564/285/9 563/103/10
f 565/103/8 561/107/12 559/106/14
f 568/102/5 566/284/7 567/283/6
f 563/100/10 549/286/24 546/282/27
f 552/109/21 567/104/6 565/103/8
f 570/109/27 572/99/25 569/97/28
f 574/287/23 571/288/26 573/289/24
f 577/97/20 575/111/22 576/109/21
f 580/290/17 578/291/19 579/292/18
f 569/97/28 582/108/15 581/106/16
f 583/106/14 579/98/18 577/97/20
f 586/293/11 584/294/13 585/295/12
f 581/106/16 588/105/9 587/103/10
f 589/103/8 585/112/12 583/106/14
f 592/296/5 590/295/7 591/294/6
f 587/103/10 573/110/24 570/109/27
f 576/109/21 591/104/6 589/103/8
f 594/109/27 596/99/25 593/97/28
f 598/297/23 595/298/26 597/299/24
f 601/97/20 599/111/22 600/109/21
f 604/300/17 602/301/19 603/302/18
f 593/97/28 606/108/15 605/106/16
f 607/106/14 603/98/18 601/97/20
f 610/303/11 608/304/13 609/305/12
f 605/106/16 612/105/9 611/103/10
f 613/103/8 609/112/12 607/106/14
f 616/306/5 614/305/7 615/304/6
f 611/103/10 597/110/24 594/109/27
f 600/109/21 615/104/6 613/103/8
f 618/113/27 620/120/25 617/119/28
f 622/116/23 619/115/26 621/114/24
f 625/122/20 623/118/22 624/117/21
f 628/121/17 626/124/19 627/123/18
f 617/307/28 630/127/15 629/125/16
f 631/128/14 627/308/18 625/309/20
f 634/126/11 632/129/13 633/130/12
f 629/106/16 636/105/9 635/103/10
f 637/103/8 633/112/12 631/106/14
f 640/127/5 638/130/7 639/129/6
f 635/125/10 621/310/24 618/307/27
f 624/309/21 639/129/6 637/128/8
f 642/131/27 644/138/25 641/137/28
f 646/134/23 643/133/26 645/132/24
f 649/140/20 647/136/22 648/135/21
f 652/139/17 650/142/19 651/141/18
f 641/311/28 654/145/15 653/143/16
f 655/146/14 651/312/18 649/313/20
f 658/144/11 656/147/13 657/148/12
f 653/106/16 660/105/9 659/103/10
f 661/103/8 657/112/12 655/106/14
f 664/145/5 662/148/7 663/147/6
f 659/143/10 645/314/24 642/311/27
f 648/313/21 663/147/6 661/146/8
f 666/149/27 668/156/25 665/155/28
f 670/152/23 667/151/26 669/150/24
f 673/158/20 671/154/22 672/153/21
f 676/157/17 674/160/19 675/159/18
f 665/315/28 678/163/15 677/161/16
f 679/164/14 675/316/18 673/317/20
f 682/162/11 680/165/13 681/166/12
f 677/106/16 684/105/9 683/103/10
f 685/103/8 681/112/12 679/106/14
f 688/163/5 686/166/7 687/165/6
f 683/161/10 669/318/24 666/315/27
f 672/317/21 687/165/6 685/164/8
f 690/319/27 692/174/25 689/173/28
f 694/170/23 691/169/26 693/168/24
f 697/173/20 695/320/22 696/319/21
f 700/168/17 698/172/19 699/170/18
f 689/173/28 702/183/15 701/182/16
f 703/179/14 699/170/18 697/171/20
f 706/177/11 704/180/13 705/181/12
f 701/182/16 708/321/9 707/322/10
f 709/322/8 705/184/12 703/182/14
f 712/178/5 710/181/7 711/180/6
f 707/176/10 693/168/24 690/167/27
f 696/171/21 711/180/6 709/179/8
f 714/185/27 716/323/25 713/324/28
f 718/170/23 715/169/26 717/168/24
f 721/324/20 719/187/22 720/185/21
f 724/168/17 722/172/19 723/170/18
f 713/167/28 726/178/15 725/176/16
f 727/179/14 723/170/18 721/171/20
f 730/177/11 728/180/13 729/181/12
f 725/325/16 732/189/9 731/188/10
f 733/188/8 729/326/12 727/325/14
f 736/178/5 734/181/7 735/180/6
f 731/188/10 717/186/24 714/185/27
f 720/171/21 735/180/6 733/179/8
f 297/215/55 141/201/55 295/239/55
f 139/3/49 288/52/49 142/6/49
f 290/327/56 296/328/56 302/329/56
f 299/329/57 140/330/57 287/327/57
f 149/203/57 161/211/57 173/219/57
f 147/11/60 150/331/62 145/9/59
f 177/332/80 144/8/58 175/333/79
f 146/195/56 170/213/56 158/208/56
f 153/17/64 156/20/66 151/15/63
f 159/334/68 162/25/70 157/335/67
f 165/12/72 168/336/74 163/26/71
f 171/24/76 174/15/78 169/20/75
f 203/227/57 179/198/57 191/222/57
f 183/11/60 186/331/62 181/9/59
f 213/332/80 180/8/58 211/333/79
f 188/199/56 212/230/56 200/225/56
f 189/33/64 192/36/66 187/31/63
f 195/334/68 198/25/70 193/335/67
f 201/12/72 204/336/74 199/26/71
f 207/40/76 210/31/78 205/36/75
f 233/233/57 245/243/57 221/206/57
f 219/47/60 222/337/62 217/45/59
f 249/338/80 216/44/58 247/339/79
f 218/205/56 242/240/56 230/234/56
f 225/17/64 228/20/66 223/15/63
f 231/340/68 234/49/70 229/341/67
f 237/48/72 240/342/74 235/50/71
f 243/24/76 246/15/78 241/20/75
f 263/247/57 275/251/57 251/192/57
f 255/47/60 258/337/62 253/45/59
f 285/338/80 252/44/58 283/339/79
f 266/247/56 254/192/56 278/251/56
f 261/33/64 264/36/66 259/31/63
f 267/340/68 270/49/70 265/341/67
f 273/48/72 276/342/74 271/50/71
f 279/40/76 282/31/78 277/36/75
f 291/241/82 300/239/82 289/201/82
f 303/56/41 294/6/41 301/52/41
f 323/343/57 305/344/57 311/345/57
f 310/62/49 312/64/49 307/59/49
f 321/262/55 306/261/55 319/256/55
f 314/345/56 320/346/56 326/343/56
f 315/259/82 324/256/82 313/261/82
f 327/68/41 318/59/41 325/64/41
f 347/84/93 329/347/83 335/348/83
f 334/74/86 336/348/84 331/347/84
f 343/270/55 332/268/55 330/70/55
f 338/75/87 344/349/91 350/350/91
f 339/268/82 348/270/82 337/70/82
f 351/350/92 342/79/90 349/86/94
f 371/106/57 353/109/57 359/97/57
f 358/93/49 360/95/49 355/90/49
f 369/283/55 354/286/55 367/102/55
f 362/97/56 368/103/56 374/106/56
f 363/351/82 372/102/82 361/286/82
f 375/352/41 366/353/41 373/354/41
f 395/106/57 377/109/57 383/97/57
f 382/355/49 384/356/49 379/288/49
f 393/294/55 378/357/55 391/296/55
f 386/97/56 392/103/56 398/106/56
f 387/358/82 396/296/82 385/357/82
f 399/291/41 390/288/41 397/356/41
f 419/106/57 401/109/57 407/97/57
f 406/359/49 408/360/49 403/298/49
f 417/304/55 402/361/55 415/306/55
f 410/97/56 416/103/56 422/106/56
f 411/362/82 420/306/82 409/361/82
f 423/301/41 414/298/41 421/360/41
f 443/106/57 425/109/57 431/97/57
f 430/118/49 432/120/49 427/115/49
f 441/129/55 426/310/55 439/127/55
f 434/97/56 440/103/56 446/106/56
f 435/308/82 444/127/82 433/310/82
f 447/124/41 438/115/41 445/120/41
f 467/106/57 449/109/57 455/97/57
f 454/136/49 456/138/49 451/133/49
f 465/147/55 450/314/55 463/145/55
f 458/97/56 464/103/56 470/106/56
f 459/312/82 468/145/82 457/314/82
f 471/142/41 462/133/41 469/138/41
f 491/106/57 473/109/57 479/97/57
f 478/154/49 480/156/49 475/151/49
f 489/165/55 474/318/55 487/163/55
f 482/97/56 488/103/56 494/106/56
f 483/316/82 492/163/82 481/318/82
f 495/160/41 486/151/41 493/156/41
f 515/182/57 497/319/57 503/173/57
f 502/363/49 504/364/49 499/365/49
f 513/180/55 498/168/55 511/178/55
f 506/173/56 512/322/56 518/182/56
f 507/170/82 516/178/82 505/168/82
f 519/366/41 510/365/41 517/364/41
f 539/325/57 521/185/57 527/324/57
f 526/367/49 528/368/49 523/369/49
f 537/180/55 522/168/55 535/178/55
f 530/324/56 536/188/56 542/325/56
f 531/170/82 540/178/82 529/168/82
f 543/370/41 534/369/41 541/368/41
f 189/33/64 100/32/39 99/38/36
f 262/191/65 255/235/60 98/192/40
f 150/194/62 96/203/37 95/195/35
f 190/197/65 183/210/60 94/198/40
f 92/200/10 91/239/5 90/201/24
f 147/196/60 89/195/40 88/203/39
f 148/12/61 147/11/60 145/9/59
f 151/15/63 150/14/62 154/18/65
f 192/36/66 87/35/38 86/29/37
f 156/20/66 85/19/38 96/13/37
f 226/204/65 219/224/60 84/205/40
f 153/17/64 88/16/39 82/22/36
f 157/21/67 156/20/66 160/24/69
f 228/20/66 81/19/38 80/13/37
f 162/207/70 79/211/34 85/208/38
f 186/197/62 86/199/37 78/198/35
f 166/207/73 159/209/68 82/208/36
f 163/26/71 162/25/70 166/11/73
f 187/31/63 186/30/62 190/34/65
f 163/212/71 168/217/74 76/213/32
f 74/214/21 73/241/23 72/215/6
f 172/217/77 165/212/72 77/211/33
f 169/20/75 168/27/74 172/23/77
f 184/12/61 183/11/60 181/9/59
f 174/15/78 70/13/30 76/19/32
f 225/17/64 83/16/39 69/22/36
f 171/24/76 71/22/31 68/16/29
f 175/28/79 174/15/78 178/17/81
f 175/218/79 144/220/58 95/195/35
f 177/218/80 68/219/29 89/195/40
f 193/37/67 192/36/66 196/40/69
f 264/36/66 67/35/38 66/29/37
f 198/221/70 65/225/34 87/222/38
f 217/224/59 222/204/62 80/206/37
f 202/221/73 195/223/68 99/222/36
f 199/26/71 198/25/70 202/11/73
f 223/15/63 222/14/62 226/18/65
f 199/226/71 204/228/74 62/227/32
f 91/5/5 61/6/9 60/3/7
f 208/228/77 201/226/72 63/225/33
f 205/36/75 204/41/74 208/39/77
f 220/48/61 219/47/60 217/45/59
f 210/31/78 58/29/30 62/35/32
f 261/33/64 97/32/39 57/38/36
f 207/40/76 59/38/31 56/32/29
f 211/42/79 210/31/78 214/33/81
f 211/229/79 180/231/58 78/198/35
f 213/229/80 56/230/29 94/198/40
f 229/21/67 228/20/66 232/24/69
f 54/53/17 53/52/25 52/56/19
f 229/232/67 234/236/70 51/233/34
f 253/235/59 258/191/62 66/193/37
f 231/232/68 69/234/36 49/233/33
f 235/50/71 234/49/70 238/47/73
f 259/31/63 258/30/62 262/34/65
f 240/237/74 48/240/32 51/233/34
f 46/202/28 54/201/17 45/239/15
f 244/237/77 237/238/72 49/233/33
f 241/20/75 240/27/74 244/23/77
f 256/48/61 255/47/60 253/45/59
f 246/15/78 43/13/30 48/19/32
f 41/216/14 40/215/13 55/241/18
f 243/24/76 44/22/31 39/16/29
f 247/28/79 246/15/78 250/17/81
f 216/242/58 64/205/35 43/243/30
f 220/242/61 249/244/80 39/243/29
f 265/37/67 264/36/66 268/40/69
f 42/54/20 52/56/19 38/3/22
f 265/245/67 270/248/70 37/246/34
f 75/2/8 60/3/7 36/56/12
f 267/245/68 57/247/36 35/246/33
f 271/50/71 270/49/70 274/47/73
f 73/1/23 38/3/22 34/6/26
f 276/249/74 33/251/32 37/246/34
f 47/51/16 32/52/11 61/6/9
f 273/250/72 35/246/33 31/251/31
f 277/36/75 276/41/74 280/39/77
f 93/4/27 34/6/26 53/52/25
f 282/31/78 30/29/30 33/35/32
f 32/52/11 45/53/15 40/55/13
f 279/40/76 31/38/31 29/32/29
f 283/42/79 282/31/78 286/33/81
f 252/252/58 50/192/35 30/253/30
f 256/252/61 285/254/80 29/253/29
f 27/57/27 26/59/26 25/64/25
f 23/60/23 22/62/22 26/59/26
f 20/66/20 19/68/19 22/62/22
f 17/65/17 25/64/25 19/68/19
f 28/255/28 17/261/17 15/256/15
f 14/258/14 13/262/13 18/259/18
f 11/64/11 15/65/15 13/67/13
f 16/63/16 11/64/11 9/59/9
f 8/61/8 7/62/7 12/68/12
f 5/58/5 9/59/9 7/62/7
f 10/257/10 5/256/5 24/261/24
f 21/260/21 23/259/23 6/262/6
f 132/263/49 135/371/49 120/264/49
f 129/70/53 4/268/4 334/266/86
f 338/75/87 340/77/88 334/74/86
f 126/70/48 119/71/48 340/267/88
f 347/269/93 122/69/51 125/70/51
f 338/271/87 105/81/44 108/87/44
f 349/272/94 2/270/2 107/87/42
f 347/84/93 349/86/94 342/79/90
f 114/273/41 117/372/41 101/274/41
f 111/82/46 1/270/1 342/276/90
f 341/277/89 1/270/1 128/70/52
f 333/278/85 4/268/4 110/82/45
f 546/88/27 547/90/26 548/95/25
f 550/91/23 551/93/22 547/90/26
f 553/97/20 554/99/19 551/279/22
f 556/96/17 548/95/25 554/280/19
f 545/282/28 556/286/17 558/102/15
f 559/106/14 560/108/13 555/98/18
f 562/101/11 558/102/15 560/283/13
f 557/106/16 562/112/11 564/285/9
f 565/103/8 566/105/7 561/107/12
f 568/102/5 564/101/9 566/284/7
f 563/100/10 568/102/5 549/286/24
f 552/109/21 550/110/23 567/104/6
f 570/109/27 571/111/26 572/99/25
f 574/287/23 575/355/22 571/288/26
f 577/97/20 578/99/19 575/111/22
f 580/290/17 572/356/25 578/291/19
f 569/97/28 580/98/17 582/108/15
f 583/106/14 584/108/13 579/98/18
f 586/293/11 582/296/15 584/294/13
f 581/106/16 586/112/11 588/105/9
f 589/103/8 590/105/7 585/112/12
f 592/296/5 588/293/9 590/295/7
f 587/103/10 592/104/5 573/110/24
f 576/109/21 574/110/23 591/104/6
f 594/109/27 595/111/26 596/99/25
f 598/297/23 599/359/22 595/298/26
f 601/97/20 602/99/19 599/111/22
f 604/300/17 596/360/25 602/301/19
f 593/97/28 604/98/17 606/108/15
f 607/106/14 608/108/13 603/98/18
f 610/303/11 606/306/15 608/304/13
f 605/106/16 610/112/11 612/105/9
f 613/103/8 614/105/7 609/112/12
f 616/306/5 612/303/9 614/305/7
f 611/103/10 616/104/5 597/110/24
f 600/109/21 598/110/23 615/104/6
f 618/113/27 619/115/26 620/120/25
f 622/116/23 623/118/22 619/115/26
f 625/122/20 626/124/19 623/118/22
f 628/121/17 620/120/25 626/124/19
f 617/307/28 628/310/17 630/127/15
f 631/128/14 632/129/13 627/308/18
f 634/126/11 630/127/15 632/129/13
f 629/106/16 634/112/11 636/105/9
f 637/103/8 638/105/7 633/112/12
f 640/127/5 636/126/9 638/130/7
f 635/125/10 640/127/5 621/310/24
f 624/309/21 622/308/23 639/129/6
f 642/131/27 643/133/26 644/138/25
f 646/134/23 647/136/22 643/133/26
f 649/140/20 650/142/19 647/136/22
f 652/139/17 644/138/25 650/142/19
f 641/311/28 652/314/17 654/145/15
f 655/146/14 656/147/13 651/312/18
f 658/144/11 654/145/15 656/147/13
f 653/106/16 658/112/11 660/105/9
f 661/103/8 662/105/7 657/112/12
f 664/145/5 660/144/9 662/148/7
f 659/143/10 664/145/5 645/314/24
f 648/313/21 646/312/23 663/147/6
f 666/149/27 667/151/26 668/156/25
f 670/152/23 671/154/22 667/151/26
f 673/158/20 674/160/19 671/154/22
f 676/157/17 668/156/25 674/160/19
f 665/315/28 676/318/17 678/163/15
f 679/164/14 680/165/13 675/316/18
f 682/162/11 678/163/15 680/165/13
f 677/106/16 682/112/11 684/105/9
f 685/103/8 686/105/7 681/112/12
f 688/163/5 684/162/9 686/166/7
f 683/161/10 688/163/5 669/318/24
f 672/317/21 670/316/23 687/165/6
f 690/319/27 691/320/26 692/174/25
f 694/170/23 695/172/22 691/169/26
f 697/173/20 698/174/19 695/320/22
f 700/168/17 692/169/25 698/172/19
f 689/173/28 700/175/17 702/183/15
f 703/179/14 704/180/13 699/170/18
f 706/177/11 702/178/15 704/180/13
f 701/182/16 706/184/11 708/321/9
f 709/322/8 710/321/7 705/184/12
f 712/178/5 708/177/9 710/181/7
f 707/176/10 712/178/5 693/168/24
f 696/171/21 694/170/23 711/180/6
f 714/185/27 715/187/26 716/323/25
f 718/170/23 719/172/22 715/169/26
f 721/324/20 722/323/19 719/187/22
f 724/168/17 716/169/25 722/172/19
f 713/167/28 724/168/17 726/178/15
f 727/179/14 728/180/13 723/170/18
f 730/177/11 726/178/15 728/180/13
f 725/325/16 730/326/11 732/189/9
f 733/188/8 734/189/7 729/326/12
f 736/178/5 732/177/9 734/181/7
f 731/188/10 736/190/5 717/186/24
f 720/171/21 718/170/23 735/180/6
f 297/215/55 137/241/55 141/201/55
f 139/3/49 292/56/49 288/52/49
f 290/327/56 138/330/56 296/328/56
f 299/329/57 293/328/57 140/330/57
f 173/219/57 143/195/57 149/203/57
f 149/203/57 155/208/57 161/211/57
f 161/211/57 167/213/57 173/219/57
f 147/11/60 154/334/65 150/331/62
f 177/332/80 148/12/61 144/8/58
f 158/208/56 152/203/56 146/195/56
f 146/195/56 176/219/56 170/213/56
f 170/213/56 164/211/56 158/208/56
f 153/17/64 160/24/69 156/20/66
f 159/334/68 166/11/73 162/25/70
f 165/12/72 172/332/77 168/336/74
f 171/24/76 178/17/81 174/15/78
f 191/222/57 197/225/57 203/227/57
f 203/227/57 209/230/57 179/198/57
f 179/198/57 185/199/57 191/222/57
f 183/11/60 190/334/65 186/331/62
f 213/332/80 184/12/61 180/8/58
f 200/225/56 194/222/56 188/199/56
f 188/199/56 182/198/56 212/230/56
f 212/230/56 206/227/56 200/225/56
f 189/33/64 196/40/69 192/36/66
f 195/334/68 202/11/73 198/25/70
f 201/12/72 208/332/77 204/336/74
f 207/40/76 214/33/81 210/31/78
f 221/206/57 227/234/57 233/233/57
f 233/233/57 239/240/57 245/243/57
f 245/243/57 215/205/57 221/206/57
f 219/47/60 226/340/65 222/337/62
f 249/338/80 220/48/61 216/44/58
f 230/234/56 224/206/56 218/205/56
f 218/205/56 248/243/56 242/240/56
f 242/240/56 236/233/56 230/234/56
f 225/17/64 232/24/69 228/20/66
f 231/340/68 238/47/73 234/49/70
f 237/48/72 244/338/77 240/342/74
f 243/24/76 250/17/81 246/15/78
f 251/192/57 257/193/57 263/247/57
f 263/247/57 269/246/57 275/251/57
f 275/251/57 281/253/57 251/192/57
f 255/47/60 262/340/65 258/337/62
f 285/338/80 256/48/61 252/44/58
f 278/251/56 272/246/56 266/247/56
f 266/247/56 260/193/56 254/192/56
f 254/192/56 284/253/56 278/251/56
f 261/33/64 268/40/69 264/36/66
f 267/340/68 274/47/73 270/49/70
f 273/48/72 280/338/77 276/342/74
f 279/40/76 286/33/81 282/31/78
f 291/241/82 304/215/82 300/239/82
f 303/56/41 298/3/41 294/6/41
f 323/343/57 317/346/57 305/344/57
f 310/62/49 316/68/49 312/64/49
f 321/262/55 308/259/55 306/261/55
f 314/345/56 309/344/56 320/346/56
f 315/259/82 328/262/82 324/256/82
f 327/68/41 322/62/41 318/59/41
f 347/84/93 341/78/89 329/347/83
f 334/74/86 340/77/88 336/348/84
f 343/270/55 345/82/55 332/268/55
f 338/75/87 333/73/85 344/349/91
f 339/268/82 352/87/82 348/270/82
f 351/350/92 346/349/92 342/79/90
f 371/106/57 365/103/57 353/109/57
f 358/93/49 364/280/49 360/95/49
f 369/283/55 356/351/55 354/286/55
f 362/97/56 357/109/56 368/103/56
f 363/351/82 376/283/82 372/102/82
f 375/352/41 370/373/41 366/353/41
f 395/106/57 389/103/57 377/109/57
f 382/355/49 388/291/49 384/356/49
f 393/294/55 380/358/55 378/357/55
f 386/97/56 381/109/56 392/103/56
f 387/358/82 400/294/82 396/296/82
f 399/291/41 394/355/41 390/288/41
f 419/106/57 413/103/57 401/109/57
f 406/359/49 412/301/49 408/360/49
f 417/304/55 404/362/55 402/361/55
f 410/97/56 405/109/56 416/103/56
f 411/362/82 424/304/82 420/306/82
f 423/301/41 418/359/41 414/298/41
f 443/106/57 437/103/57 425/109/57
f 430/118/49 436/124/49 432/120/49
f 441/129/55 428/308/55 426/310/55
f 434/97/56 429/109/56 440/103/56
f 435/308/82 448/129/82 444/127/82
f 447/124/41 442/118/41 438/115/41
f 467/106/57 461/103/57 449/109/57
f 454/136/49 460/142/49 456/138/49
f 465/147/55 452/312/55 450/314/55
f 458/97/56 453/109/56 464/103/56
f 459/312/82 472/147/82 468/145/82
f 471/142/41 466/136/41 462/133/41
f 491/106/57 485/103/57 473/109/57
f 478/154/49 484/160/49 480/156/49
f 489/165/55 476/316/55 474/318/55
f 482/97/56 477/109/56 488/103/56
f 483/316/82 496/165/82 492/163/82
f 495/160/41 490/154/41 486/151/41
f 515/182/57 509/322/57 497/319/57
f 502/363/49 508/366/49 504/364/49
f 513/180/55 500/170/55 498/168/55
f 506/173/56 501/319/56 512/322/56
f 507/170/82 520/180/82 516/178/82
f 519/366/41 514/363/41 510/365/41
f 539/325/57 533/188/57 521/185/57
f 526/367/49 532/370/49 528/368/49
f 537/180/55 524/170/55 522/168/55
f 530/324/56 525/185/56 536/188/56
f 531/170/82 544/180/82 540/178/82
f 543/370/41 538/367/41 534/369/41
