# Blender 5.2.0 LTS
# www.blender.org
o Backdrop_Palm
v 0.000000 -1.014286 -3.007586
v -0.318540 -0.660732 -3.246599
v 15.691593 47.799068 -1.999804
v 15.841796 47.849766 1.542273
v 12.598848 45.129257 0.401156
v 15.691593 47.799068 1.999803
v 12.749482 50.930134 2.199680
v 12.749484 64.228256 -28.474243
v 13.250518 64.228256 -28.474243
v -15.729378 63.761238 0.281651
v -15.489167 64.200935 0.281651
v 13.729378 48.238766 3.317317
v 12.999999 50.570274 2.405123
v 13.250516 50.930134 2.199680
v -7.148154 63.733913 20.502434
v 12.483379 45.107700 0.870910
v 12.129096 45.107700 0.516625
v -7.502437 63.733913 20.148149
v 16.317312 48.238766 0.729377
v 13.281650 64.200935 -28.489168
v 13.281653 63.761238 -28.729378
v 16.100000 47.849766 0.918903
v 16.317314 47.799068 0.489170
v 13.918903 47.849766 3.100003
v 12.432683 45.129257 0.000001
v 13.489170 47.799068 3.317316
v 11.267450 50.930134 1.378266
v 32.957184 64.228256 -20.311472
v 33.311470 64.228256 -19.957188
v -7.513898 63.761238 -20.115578
v -7.344044 64.200935 -19.945723
v 11.170054 48.238766 2.861441
v 11.299321 50.570274 1.700679
v 11.621735 50.930134 1.732552
v -15.744306 63.733913 0.250515
v 12.018868 45.107700 0.250518
v 12.018869 45.107700 -0.250516
v -15.744306 63.733913 -0.250518
v 14.829949 48.238766 2.861444
v 33.344040 64.200935 -19.945726
v 33.513893 63.761238 -20.115582
v 14.542270 47.849766 2.841795
v 14.999802 47.799068 2.691592
v 11.457734 47.849766 2.841792
v 12.598848 45.129257 -0.401156
v 11.000204 47.799068 2.691588
v 10.800321 50.930134 -0.250517
v 41.474243 64.228256 -0.250517
v 41.474243 64.228256 0.250517
v -7.502438 63.733913 -20.148149
v 12.129094 45.107700 -0.516625
v 12.483379 45.107700 -0.870909
v -7.148154 63.733913 -20.502432
v 10.594876 50.570274 0.000000
v 10.800321 50.930134 0.250518
v 14.260505 60.959766 -0.815267
v 13.870906 45.107700 -0.516621
v 33.502434 63.733913 -20.148153
v 9.828023 51.963577 -0.877616
v 14.033152 61.069592 0.290968
v 32.945724 64.200935 -20.344044
v 10.138556 48.238766 -1.829948
v 9.583280 52.081802 0.313215
v 33.115578 63.761238 -20.513897
v 33.148151 63.733913 -20.502436
v 14.670181 60.761871 1.178094
v 12.081097 47.849766 -3.100001
v 13.981132 45.107700 -0.250517
v 10.269030 51.750546 1.268191
v 13.567317 45.129257 0.000000
v 12.081097 47.849766 3.100001
v 13.981131 45.107700 0.250517
v 15.691902 60.268326 1.178094
v 12.749484 63.733913 -28.744305
v 13.250516 45.107700 -0.981131
v 13.250517 63.733913 -28.744305
v 11.368887 51.219257 1.268191
v 9.706980 52.454742 -0.991922
v 5.973166 43.146946 -1.043880
v 12.718349 63.761238 -28.729378
v 12.718349 64.200935 -28.489172
v 9.682683 48.238766 0.729378
v 9.421126 52.567261 0.354013
v 41.744305 63.733913 0.250516
v 5.672338 43.265358 0.372556
v 41.729378 63.761238 0.281652
v 12.510830 47.799068 3.317315
v 12.270622 48.238766 3.317314
v 41.489170 64.200935 0.281653
v 10.222068 52.251991 1.433368
v 12.054637 50.887997 0.313217
v 6.515234 42.933571 1.508449
v 10.818957 51.484901 -1.407586
v 11.809895 51.006226 -0.877617
v 11.506678 51.746334 1.433368
v 10.158206 47.849766 -1.542269
v 13.401154 45.129257 -0.401152
v 13.516623 45.107700 -0.870906
v 10.308409 47.799068 -1.999800
v 7.867131 42.401428 1.508449
v 5.859698 43.890038 -1.168577
v 2.846260 34.324780 -1.210144
v 5.513952 43.996990 0.417061
v 15.181043 60.515099 -1.307586
v 2.488214 34.435535 0.431896
v 41.744305 63.733913 -0.250516
v 6.482713 43.697319 1.688643
v 7.191183 42.667503 -1.674252
v 3.491434 34.125206 1.748707
v 8.409201 42.188057 -1.043880
v 8.710028 42.069645 0.372557
v 8.036487 43.216679 1.688643
v 9.899998 47.849766 0.918904
v 12.999999 45.129257 -0.567316
v 12.749482 45.107700 -0.981131
v 9.682684 47.799068 0.489171
v 5.100475 33.627472 1.748707
v 2.724370 35.264248 -1.345233
v 12.510830 47.799068 -3.317314
v 41.729378 63.761238 -0.281652
v 41.489170 64.200935 -0.281652
v 12.270622 48.238766 -3.317315
v 0.448826 25.497175 -1.376407
v 2.318249 35.357197 0.480108
v 0.033294 25.592281 0.491234
v 12.307619 51.431065 0.354013
v 3.456174 35.096756 1.943917
v 4.295955 33.876339 -1.940919
v 1.197589 25.325802 1.988966
v 5.745651 33.427895 -1.210143
v 6.103696 33.317139 0.431895
v 5.281263 34.679039 1.943917
v 3.064974 24.898405 1.988966
v 0.306812 26.576500 -1.521888
v -1.217608 16.664433 -1.542671
v 16.328934 59.960606 0.290965
v 16.101578 60.070427 -0.815266
v -0.159228 26.646936 0.543156
v 9.005248 42.917007 0.417061
v -1.690012 16.735832 0.550573
v 1.146588 26.449581 2.199192
v 4.229270 24.631926 0.491234
v -0.366365 16.535780 2.229224
v 2.131281 25.112104 -2.207586
v 3.813737 24.727032 -1.376407
v 3.240953 26.133049 2.199192
v 12.021767 51.543583 -0.991922
v 10.864372 51.999161 -1.590919
v 1.756602 16.214926 2.229224
v -1.387088 17.826448 -1.698544
v -2.151520 7.827048 -1.708935
v -1.911653 17.865866 0.606203
v 4.368718 34.887897 -2.157585
v -2.679294 7.866705 0.609912
v 8.659501 43.023960 -1.168578
v 7.259600 43.456997 -1.874252
v -0.441855 17.755423 2.454466
v 0.695119 16.375353 -2.474252
v -1.200505 7.755587 2.469483
v 2.607845 16.086273 -1.542671
v 3.080249 16.014875 0.550573
v 1.915516 17.578289 2.454466
v 1.171289 7.577368 2.469483
v -2.351425 9.014286 -1.875199
v 0.318540 -0.660732 -3.246599
v 0.000000 9.014286 -3.007586
v 0.318540 8.660733 -3.246599
v -0.318540 8.660733 -3.246599
v 2.351425 -1.014286 -1.875199
v 2.339687 -0.660732 -2.273267
v 2.736900 -0.660732 -1.775177
v 2.351425 9.014286 -1.875199
v 2.736900 8.660733 -1.775177
v 2.339687 8.660733 -2.273267
v 2.932179 -1.014286 0.669251
v 3.236082 -0.660732 0.411882
v 3.094318 -0.660732 1.032990
v 2.932179 9.014286 0.669251
v 3.094318 8.660733 1.032990
v 3.236082 8.660733 0.411882
v 1.304943 -1.014286 2.709741
v 1.695642 -0.660732 2.786875
v 1.121652 -0.660732 3.063294
v 1.304943 9.014286 2.709741
v 1.121652 8.660733 3.063294
v 1.695642 8.660733 2.786875
v -1.304943 -1.014286 2.709741
v -1.121652 -0.660732 3.063294
v -1.695642 -0.660732 2.786875
v -1.304943 9.014286 2.709741
v -1.695642 8.660733 2.786875
v -1.121652 8.660733 3.063294
v -2.932179 -1.014286 0.669251
v -3.094318 -0.660732 1.032990
v -3.236082 -0.660732 0.411882
v -2.932179 9.014286 0.669251
v -3.236082 8.660733 0.411882
v -3.094318 8.660733 1.032990
v -2.351425 -1.014286 -1.875199
v -2.736900 -0.660732 -1.775177
v -2.339687 -0.660732 -2.273267
v -2.351425 9.014286 -1.875199
v -2.339687 8.660733 -2.273267
v -2.736900 8.660733 -1.775177
v -0.014608 7.666478 -2.740919
v -0.305761 8.042905 -2.979345
v 0.329529 7.995168 -2.979345
v 0.736830 17.666857 -2.724252
v 1.027984 17.290430 -2.963853
v 0.392694 17.338167 -2.963853
v 2.122304 7.505908 -1.708935
v 2.136632 7.859381 -2.106636
v 2.532729 7.829618 -1.608546
v 2.860749 17.507261 -1.698544
v 3.219106 17.125786 -1.598887
v 2.823010 17.155550 -2.096977
v 2.650079 7.466250 0.609912
v 2.979047 7.796081 0.352413
v 2.837682 7.806704 0.973521
v 3.385313 17.467846 0.606203
v 3.521076 17.103096 0.970073
v 3.662441 17.092472 0.348965
v 1.171289 7.577368 2.469483
v 1.587127 7.900671 2.546087
v 1.014751 7.943680 2.822506
v 1.915516 17.578289 2.454466
v 1.706503 17.239445 2.808549
v 2.278879 17.196434 2.532130
v -1.200505 7.755587 2.469483
v -0.990983 8.094393 2.822506
v -1.563360 8.137402 2.546087
v -0.441855 17.755423 2.454466
v -0.858202 17.432159 2.532130
v -0.285826 17.389151 2.808549
v -2.679294 7.866705 0.609912
v -2.813915 8.231370 0.973521
v -2.955280 8.241992 0.352413
v -1.911653 17.865866 0.606203
v -2.241764 17.536121 0.348965
v -2.100399 17.525497 0.970073
v -2.151520 7.827048 -1.708935
v -2.508962 8.208456 -1.608546
v -2.112865 8.178692 -2.106636
v -1.387088 17.826448 -1.698544
v -1.402332 17.473045 -2.096977
v -1.798429 17.502808 -1.598887
v 0.695119 16.375353 -2.474252
v 0.432989 16.772535 -2.712090
v 1.062916 16.677332 -2.712090
v 2.193770 26.291315 -2.440919
v 2.455900 25.894133 -2.681107
v 1.825973 25.989336 -2.681107
v 2.607845 16.086273 -1.542671
v 2.648163 16.437744 -1.940006
v 3.040917 16.378386 -1.441916
v 4.080729 26.006130 -1.521888
v 4.409949 25.598806 -1.422598
v 4.017196 25.658165 -1.920688
v 3.080249 16.014875 0.550573
v 3.432441 16.319214 0.292943
v 3.292268 16.340399 0.914051
v 4.546769 25.935692 0.543156
v 4.655386 25.561710 0.907157
v 4.795558 25.540525 0.286048
v 1.756602 16.214926 2.229224
v 2.195244 16.506197 2.305299
v 1.627698 16.591972 2.581718
v 3.240953 26.133049 2.199192
v 3.007390 25.810783 2.553804
v 3.574935 25.725006 2.277385
v -0.366365 16.535780 2.229224
v -0.131793 16.857895 2.581718
v -0.699338 16.943672 2.305299
v 1.146588 26.449581 2.199192
v 0.706937 26.158461 2.277385
v 1.274483 26.072685 2.553804
v -1.690012 16.735832 0.550573
v -1.796363 17.109472 0.914051
v -1.936535 17.130657 0.292943
v -0.159228 26.646936 0.543156
v -0.513685 26.342939 0.286048
v -0.373513 26.321754 0.907157
v -1.217608 16.664433 -1.542671
v -1.545012 17.071484 -1.441916
v -1.152259 17.012123 -1.940006
v 0.306812 26.576500 -1.521888
v 0.264677 26.225304 -1.920688
v -0.128077 26.284660 -1.422598
v 2.131281 25.112104 -2.207586
v 1.899648 25.527811 -2.444836
v 2.520672 25.385674 -2.444836
v 4.368718 34.887897 -2.157585
v 4.600352 34.472191 -2.398361
v 3.979327 34.614326 -2.398361
v 3.813737 24.727032 -1.376407
v 3.879829 25.074596 -1.773376
v 4.267031 24.985975 -1.275285
v 6.013067 34.511547 -1.345233
v 6.311291 34.080601 -1.246308
v 5.924088 34.169220 -1.744399
v 4.229270 24.631926 0.491234
v 4.602715 24.909145 0.233473
v 4.464525 24.940775 0.854582
v 6.419189 34.418594 0.480107
v 6.500037 34.037403 0.844240
v 6.638227 34.005772 0.223131
v 3.064974 24.898405 1.988966
v 3.523959 25.156046 2.064511
v 2.964436 25.284107 2.340930
v 5.281263 34.679039 1.943917
v 5.024458 34.375122 2.299059
v 5.583982 34.247063 2.022639
v 1.197589 25.325802 1.988966
v 1.455886 25.629377 2.340931
v 0.896362 25.757437 2.064511
v 3.456174 35.096756 1.943917
v 2.995697 34.839458 2.022639
v 3.555220 34.711395 2.299059
v 0.033294 25.592281 0.491234
v -0.044204 25.972710 0.854582
v -0.182394 26.004341 0.233473
v 2.318249 35.357197 0.480108
v 1.941452 35.080750 0.223131
v 2.079643 35.049118 0.844240
v 0.448826 25.497175 -1.376407
v 0.153290 25.927507 -1.275285
v 0.540492 25.838888 -1.773376
v 2.724370 35.264248 -1.345233
v 2.655590 34.917294 -1.744399
v 2.268388 35.005917 -1.246308
v 4.295955 33.876339 -1.940919
v 4.096121 34.308231 -2.177582
v 4.704750 34.119961 -2.177582
v 7.259600 43.456997 -1.874252
v 7.459434 43.025105 -2.115615
v 6.850804 43.213375 -2.115615
v 5.745651 33.427895 -1.210143
v 5.837161 33.769661 -1.606746
v 6.216635 33.652279 -1.108654
v 8.659501 43.023960 -1.168578
v 8.925035 42.571743 -1.070019
v 8.545561 42.689129 -1.568111
v 6.103696 33.317139 0.431895
v 6.496317 33.565762 0.174002
v 6.360884 33.607655 0.795113
v 9.005248 42.917007 0.417061
v 9.057854 42.530659 0.781324
v 9.193286 42.488762 0.160214
v 5.100475 33.627472 1.748707
v 5.577232 33.850071 1.823723
v 5.028876 34.019695 2.100143
v 8.036487 43.216679 1.688643
v 7.757874 42.932789 2.044313
v 8.306231 42.763161 1.767893
v 3.491434 34.125206 1.748707
v 3.771996 34.408493 2.100143
v 3.223639 34.578121 1.823723
v 6.482713 43.697319 1.688643
v 6.004008 43.475323 1.767893
v 6.552365 43.305695 2.044314
v 2.488214 34.435535 0.431896
v 2.439987 34.820534 0.795113
v 2.304555 34.862427 0.174002
v 5.513952 43.996990 0.417061
v 5.116953 43.749722 0.160213
v 5.252385 43.707825 0.781324
v 2.846260 34.324780 -1.210144
v 2.584236 34.775909 -1.108654
v 2.963711 34.658527 -1.606746
v 5.859698 43.890038 -1.168577
v 5.764678 43.549355 -1.568110
v 5.385204 43.666740 -1.070019
v 7.191183 42.667503 -1.674252
v 7.024269 43.113148 -1.910327
v 7.617082 42.879803 -1.910327
v 10.864372 51.999161 -1.590919
v 11.031285 51.553513 -1.832869
v 10.438474 51.786861 -1.832869
v 8.409201 42.188057 -1.043880
v 8.525632 42.522175 -1.440116
v 8.895247 42.376686 -0.942023
v 12.021767 51.543583 -0.991922
v 12.253098 51.072575 -0.893729
v 11.883485 51.218067 -1.391822
v 8.710028 42.069645 0.372557
v 9.119639 42.288357 0.114532
v 8.987724 42.340279 0.735644
v 12.307619 51.431065 0.354013
v 12.331661 51.041653 0.718408
v 12.463573 50.989727 0.097296
v 7.867131 42.401428 1.508449
v 8.358988 42.587765 1.582935
v 7.824883 42.798004 1.859355
v 11.506678 51.746334 1.433368
v 11.207814 51.484028 1.789568
v 11.741920 51.273792 1.513148
v 6.515234 42.933571 1.508449
v 6.816469 43.194942 1.859355
v 6.282363 43.405182 1.582935
v 10.222068 52.251991 1.433368
v 9.727839 52.066586 1.513148
v 10.261945 51.856346 1.789568
v 5.672338 43.265358 0.372556
v 5.653626 43.652672 0.735644
v 5.521714 43.704597 0.114532
v 9.421126 52.567261 0.354013
v 9.006186 52.350647 0.097296
v 9.138099 52.298725 0.718408
v 5.973166 43.146946 -1.043880
v 5.746107 43.616268 -0.942023
v 6.115719 43.470783 -1.440116
v 9.706980 52.454742 -0.991922
v 9.586273 52.122311 -1.391822
v 9.216660 52.267799 -0.893729
v 10.818957 51.484901 -1.407586
v 10.685905 51.941799 -1.643073
v 11.259566 51.664688 -1.643072
v 15.181043 60.515099 -1.307586
v 15.314095 60.058201 -1.550123
v 14.740433 60.335308 -1.550123
v 11.809895 51.006226 -0.877617
v 11.950618 51.330875 -1.273486
v 12.308291 51.158096 -0.775392
v 16.101578 60.070427 -0.815266
v 16.297384 59.583218 -0.717439
v 15.939712 59.755993 -1.215533
v 12.054637 50.887997 0.313217
v 12.478967 51.075653 0.055061
v 12.351315 51.137314 0.676175
v 16.328934 59.960606 0.290965
v 16.324247 59.570240 0.655491
v 16.451899 59.508579 0.034378
v 11.368887 51.219257 1.268191
v 11.873093 51.368324 1.342146
v 11.356240 51.617992 1.618568
v 15.691902 60.268326 1.178094
v 15.374454 60.029041 1.534823
v 15.891308 59.779373 1.258402
v 10.269030 51.750546 1.268191
v 10.589231 51.988499 1.618568
v 10.072379 52.238167 1.342146
v 14.670181 60.761871 1.178094
v 14.163221 60.614132 1.258402
v 14.680074 60.364468 1.534823
v 9.583280 52.081802 0.313215
v 9.594156 52.469177 0.676176
v 9.466504 52.530838 0.055061
v 14.033152 61.069592 0.290968
v 13.602630 60.884930 0.034378
v 13.730282 60.823265 0.655492
v 9.828023 51.963577 -0.877616
v 9.637179 52.448395 -0.775392
v 9.994853 52.275616 -1.273486
v 14.260505 60.959766 -0.815267
v 14.114818 60.637516 -1.215533
v 13.757144 60.810291 -0.717439
v 12.081097 47.849766 -3.100001
v 12.270622 48.238766 -3.317315
v 12.510830 47.799068 -3.317314
v -2.351425 -1.014286 -1.875199
v 41.729378 63.761238 -0.281652
v 41.489170 64.200935 -0.281652
v 13.567317 45.129257 0.000000
v 13.981132 45.107700 -0.250517
v 13.981131 45.107700 0.250517
v -2.932179 9.014286 0.669251
v 41.744305 63.733913 0.250516
v 41.744305 63.733913 -0.250516
v 12.081097 47.849766 3.100001
v 12.510830 47.799068 3.317315
v 12.270622 48.238766 3.317314
v 41.918903 64.150238 -0.000000
v 41.489170 64.200935 0.281653
v 41.729378 63.761238 0.281652
v 10.594876 50.570274 0.000000
v 10.800321 50.930134 0.250518
v 10.800321 50.930134 -0.250517
v -2.932179 -1.014286 0.669251
v 41.474243 64.228256 -0.250517
v 41.474243 64.228256 0.250517
v 10.158206 47.849766 -1.542269
v 10.138556 48.238766 -1.829948
v 10.308409 47.799068 -1.999800
v 4.546769 25.935692 0.543156
v 33.115578 63.761238 -20.513897
v 32.945724 64.200935 -20.344044
v 13.401154 45.129257 -0.401152
v 13.516623 45.107700 -0.870906
v 13.870906 45.107700 -0.516621
v -1.304943 9.014286 2.709741
v 33.502434 63.733913 -20.148153
v 33.148151 63.733913 -20.502436
v 14.542270 47.849766 2.841795
v 14.999802 47.799068 2.691592
v 14.829949 48.238766 2.861444
v 33.448753 64.150238 -20.448753
v 33.344040 64.200935 -19.945726
v 33.513893 63.761238 -20.115582
v 11.299321 50.570274 1.700679
v 11.621735 50.930134 1.732552
v 11.267450 50.930134 1.378266
v -0.014608 7.666478 -2.740919
v 32.957184 64.228256 -20.311472
v 33.311470 64.228256 -19.957188
v 9.899998 47.849766 0.918904
v 9.682683 48.238766 0.729378
v 9.682684 47.799068 0.489171
v -1.304943 -1.014286 2.709741
v 12.718349 63.761238 -28.729378
v 12.718349 64.200935 -28.489172
v 12.999999 45.129257 -0.567316
v 12.749482 45.107700 -0.981131
v 13.250516 45.107700 -0.981131
v 2.122304 7.505908 -1.708935
v 13.250517 63.733913 -28.744305
v 12.749484 63.733913 -28.744305
v 16.100000 47.849766 0.918903
v 16.317314 47.799068 0.489170
v 16.317312 48.238766 0.729377
v 13.000001 64.150238 -28.918901
v 13.281650 64.200935 -28.489168
v 13.281653 63.761238 -28.729378
v 12.999999 50.570274 2.405123
v 13.250516 50.930134 2.199680
v 12.749482 50.930134 2.199680
v 2.650079 7.466250 0.609912
v 12.749484 64.228256 -28.474243
v 13.250518 64.228256 -28.474243
v 11.457734 47.849766 2.841792
v 11.170054 48.238766 2.861441
v 11.000204 47.799068 2.691588
v 1.304943 9.014286 2.709741
v -7.513898 63.761238 -20.115578
v -7.344044 64.200935 -19.945723
v 12.598848 45.129257 -0.401156
v 12.129094 45.107700 -0.516625
v 12.483379 45.107700 -0.870909
v 1.304943 -1.014286 2.709741
v -7.148154 63.733913 -20.502432
v -7.502438 63.733913 -20.148149
v 15.841796 47.849766 -1.542273
v 15.691593 47.799068 -1.999804
v 15.861444 48.238766 -1.829951
v -7.448755 64.150238 -20.448748
v -6.945731 64.200935 -20.344038
v -7.115582 63.761238 -20.513893
v 14.700682 50.570274 1.700676
v 14.732553 50.930134 1.378262
v 14.378268 50.930134 1.732547
v 2.932179 9.014286 0.669251
v -7.311475 64.228256 -19.957184
v -6.957191 64.228256 -20.311470
v 13.918903 47.849766 3.100003
v 13.729378 48.238766 3.317317
v 13.489170 47.799068 3.317316
v 4.080729 26.006130 -1.521888
v -15.729378 63.761238 0.281651
v -15.489167 64.200935 0.281651
v 12.432683 45.129257 0.000001
v 12.018868 45.107700 0.250518
v 12.018869 45.107700 -0.250516
v 2.193770 26.291315 -2.440919
v -15.744306 63.733913 -0.250518
v -15.744306 63.733913 0.250515
v 13.918903 47.849766 -3.100000
v 13.489170 47.799068 -3.317314
v 13.729378 48.238766 -3.317313
v -15.918901 64.150238 -0.000001
v -15.489168 64.200935 -0.281650
v -15.729378 63.761238 -0.281654
v 15.405124 50.570274 0.000001
v 15.199679 50.930134 -0.250516
v 15.199679 50.930134 0.250518
v 2.932179 -1.014286 0.669251
v -15.474242 64.228256 0.250516
v -15.474242 64.228256 -0.250518
v 15.841796 47.849766 1.542273
v 15.861445 48.238766 1.829952
v 15.691593 47.799068 1.999803
v 3.385313 17.467846 0.606203
v -7.115583 63.761238 20.513893
v -6.945728 64.200935 20.344038
v 12.598848 45.129257 0.401156
v 12.483379 45.107700 0.870910
v 12.129096 45.107700 0.516625
v 2.351425 9.014286 -1.875199
v -7.502437 63.733913 20.148149
v -7.148154 63.733913 20.502434
v 11.457734 47.849766 -2.841791
v 11.000202 47.799068 -2.691589
v 11.170054 48.238766 -2.861440
v -7.448755 64.150238 20.448750
v -7.344042 64.200935 19.945724
v -7.513899 63.761238 20.115578
v 14.700682 50.570274 -1.700675
v 14.378268 50.930134 -1.732548
v 14.732553 50.930134 -1.378263
v 0.000000 9.014286 -3.007586
v -6.957191 64.228256 20.311470
v -7.311475 64.228256 19.957184
v 16.100000 47.849766 -0.918904
v 16.317314 48.238766 -0.729378
v 16.317312 47.799068 -0.489171
v 2.860749 17.507261 -1.698544
v 13.281652 63.761238 28.729378
v 13.281652 64.200935 28.489168
v 12.999999 45.129257 0.567316
v 13.250516 45.107700 0.981131
v 12.749482 45.107700 0.981131
v 0.736830 17.666857 -2.724252
v 12.749485 63.733913 28.744305
v 13.250518 63.733913 28.744305
v 9.899998 47.849766 -0.918903
v 9.682683 47.799068 -0.489171
v 9.682684 48.238766 -0.729377
v 13.000000 64.150238 28.918901
v 12.718348 64.200935 28.489170
v 12.718349 63.761238 28.729378
v 12.999999 50.570274 -2.405124
v 12.749482 50.930134 -2.199680
v 13.250516 50.930134 -2.199680
v 0.000000 -1.014286 -3.007586
v 13.250518 64.228256 28.474243
v 12.749484 64.228256 28.474243
v 14.542274 47.849766 -2.841800
v 14.829954 48.238766 -2.861449
v 14.999804 47.799068 -2.691596
v 2.351425 -1.014286 -1.875199
v 33.513889 63.761238 20.115587
v 33.344032 64.200935 19.945732
v 13.401157 45.129257 0.401148
v 13.870912 45.107700 0.516617
v 13.516625 45.107700 0.870901
v 6.419189 34.418594 0.480107
v 33.148144 63.733913 20.502441
v 33.502426 63.733913 20.148159
v 10.158209 47.849766 1.542262
v 10.308411 47.799068 1.999793
v 10.138560 48.238766 1.829940
v 33.448746 64.150238 20.448761
v 32.945721 64.200935 20.344049
v 33.115574 63.761238 20.513903
v 11.299326 50.570274 -1.700686
v 11.267454 50.930134 -1.378273
v 11.621739 50.930134 -1.732557
v 6.013067 34.511547 -1.345233
v 33.311466 64.228256 19.957193
v 32.957184 64.228256 20.311476
v 15.841796 47.849766 -1.542273
v -7.115582 63.761238 -20.513893
v -6.945731 64.200935 -20.344038
v 15.861444 48.238766 -1.829951
v 12.749485 63.733913 28.744305
v 12.749482 45.107700 0.981131
v 13.250516 45.107700 0.981131
v 13.250518 63.733913 28.744305
v 14.732553 50.930134 1.378262
v 14.700682 50.570274 1.700676
v 15.861445 48.238766 1.829952
v -6.945728 64.200935 20.344038
v -7.115583 63.761238 20.513893
v -6.957191 64.228256 -20.311470
v -7.311475 64.228256 -19.957184
v 14.378268 50.930134 1.732547
v 16.317312 47.799068 -0.489171
v 12.999999 45.129257 0.567316
v 16.100000 47.849766 -0.918904
v 13.489170 47.799068 -3.317314
v 13.918903 47.849766 -3.100000
v -15.729378 63.761238 -0.281654
v -15.489168 64.200935 -0.281650
v 13.729378 48.238766 -3.317313
v 33.148144 63.733913 20.502441
v 13.516625 45.107700 0.870901
v 13.870912 45.107700 0.516617
v 33.502426 63.733913 20.148159
v 15.199679 50.930134 -0.250516
v 15.405124 50.570274 0.000001
v 16.317314 48.238766 -0.729378
v 13.281652 64.200935 28.489168
v 13.281652 63.761238 28.729378
v -15.474242 64.228256 -0.250518
v -15.474242 64.228256 0.250516
v 15.199679 50.930134 0.250518
v 14.999804 47.799068 -2.691596
v 13.401157 45.129257 0.401148
v 14.542274 47.849766 -2.841800
v 11.000202 47.799068 -2.691589
v 11.457734 47.849766 -2.841791
v -7.513899 63.761238 20.115578
v -7.344042 64.200935 19.945724
v 11.170054 48.238766 -2.861440
v 14.378268 50.930134 -1.732548
v 14.700682 50.570274 -1.700675
v 14.829954 48.238766 -2.861449
v 33.344032 64.200935 19.945732
v 33.513889 63.761238 20.115587
v -7.311475 64.228256 19.957184
v -6.957191 64.228256 20.311470
v 14.732553 50.930134 -1.378263
v 9.682683 47.799068 -0.489171
v 9.899998 47.849766 -0.918903
v 12.718349 63.761238 28.729378
v 12.718348 64.200935 28.489170
v 9.682684 48.238766 -0.729377
v 12.749482 50.930134 -2.199680
v 12.999999 50.570274 -2.405124
v 12.749484 64.228256 28.474243
v 13.250518 64.228256 28.474243
v 13.250516 50.930134 -2.199680
v 10.308411 47.799068 1.999793
v 10.158209 47.849766 1.542262
v 33.115574 63.761238 20.513903
v 32.945721 64.200935 20.344049
v 10.138560 48.238766 1.829940
v 11.267454 50.930134 -1.378273
v 11.299326 50.570274 -1.700686
v 32.957184 64.228256 20.311476
v 33.311466 64.228256 19.957193
v 11.621739 50.930134 -1.732557
vn -0.0000 -1.0000 -0.0000
vn -0.2323 -0.3434 -0.9100
vn 0.8017 -0.3931 -0.4503
vn 0.9365 -0.3491 0.0327
vn 0.2196 -0.9506 -0.2196
vn 0.8017 -0.3931 0.4503
vn -0.2259 0.5820 0.7812
vn -0.1971 0.9792 -0.0488
vn 0.1971 0.9792 -0.0488
vn -0.5441 0.0727 0.8359
vn -0.3551 0.4185 0.8359
vn 0.4651 0.0033 0.8853
vn -0.0000 0.2523 0.9677
vn 0.2259 0.5820 0.7812
vn -0.4619 -0.4880 0.7406
vn 0.1119 -0.9718 0.2075
vn -0.2075 -0.9718 -0.1119
vn -0.7406 -0.4880 0.4619
vn 0.8853 0.0033 0.4651
vn 0.8359 0.4185 -0.3551
vn 0.8359 0.0727 -0.5441
vn 0.6853 -0.3491 0.6391
vn 0.8853 -0.3931 0.2485
vn 0.6391 -0.3491 0.6853
vn 0.3105 -0.9506 -0.0000
vn 0.2485 -0.3931 0.8853
vn -0.7121 0.5820 0.3927
vn -0.1048 0.9792 -0.1738
vn 0.1739 0.9792 0.1048
vn -0.9758 0.0727 0.2064
vn -0.8422 0.4185 0.3400
vn -0.2971 0.0033 0.9548
vn -0.6842 0.2523 0.6842
vn -0.3927 0.5820 0.7121
vn -0.8503 -0.4880 0.1971
vn -0.0676 -0.9718 0.2259
vn -0.0677 -0.9718 -0.2259
vn -0.8503 -0.4880 -0.1971
vn 0.2971 0.0033 0.9548
vn 0.8422 0.4185 0.3400
vn 0.9758 0.0727 0.2064
vn 0.0327 -0.3491 0.9365
vn 0.4503 -0.3931 0.8017
vn -0.0327 -0.3491 0.9365
vn 0.2196 -0.9506 0.2196
vn -0.4503 -0.3931 0.8017
vn -0.7812 0.5820 -0.2259
vn 0.0488 0.9792 -0.1971
vn 0.0488 0.9792 0.1971
vn -0.7406 -0.4880 -0.4619
vn -0.2075 -0.9718 0.1119
vn 0.1119 -0.9718 -0.2075
vn -0.4619 -0.4880 -0.7406
vn -0.9676 0.2523 -0.0000
vn -0.7812 0.5820 0.2259
vn -0.2132 0.8655 -0.4533
vn 0.2076 -0.9718 0.1119
vn 0.7406 -0.4880 -0.4619
vn -0.8123 -0.3609 -0.4581
vn -0.3396 0.9266 0.1618
vn -0.3400 0.4186 -0.8421
vn -0.9548 0.0033 -0.2971
vn -0.9401 -0.2991 0.1635
vn -0.2064 0.0727 -0.9758
vn 0.4619 -0.4880 -0.7406
vn 0.0146 0.7555 0.6550
vn -0.6391 -0.3491 -0.6853
vn 0.0677 -0.9718 -0.2259
vn -0.5821 -0.4721 0.6620
vn -0.3105 -0.9506 -0.0000
vn -0.6391 -0.3491 0.6853
vn 0.0677 -0.9718 0.2259
vn 0.5827 0.4811 0.6550
vn -0.1971 -0.4880 -0.8503
vn 0.2259 -0.9718 -0.0676
vn 0.1970 -0.4880 -0.8503
vn -0.0079 -0.7494 0.6620
vn -0.2781 0.8466 -0.4537
vn -0.7828 -0.4216 -0.4578
vn -0.8359 0.0727 -0.5441
vn -0.8359 0.4185 -0.3551
vn -0.8853 0.0033 0.4651
vn -0.4089 0.8981 0.1619
vn 0.8503 -0.4880 0.1970
vn -0.9147 -0.3696 0.1634
vn 0.5441 0.0727 0.8359
vn -0.2485 -0.3931 0.8853
vn -0.4651 0.0033 0.8853
vn 0.3550 0.4186 0.8359
vn -0.0425 0.7539 0.6556
vn 0.3500 -0.9224 0.1635
vn -0.5451 -0.5151 0.6615
vn -0.2950 -0.6107 -0.7348
vn 0.2223 -0.8606 -0.4582
vn 0.5450 0.5226 0.6556
vn -0.9365 -0.3491 -0.0327
vn -0.2196 -0.9506 0.2196
vn -0.1119 -0.9718 -0.2075
vn -0.8017 -0.3931 -0.4503
vn 0.0477 -0.7485 0.6615
vn -0.3415 0.8229 -0.4541
vn -0.7487 -0.4798 -0.4573
vn -0.4758 0.8645 0.1621
vn 0.2987 0.6183 -0.7270
vn -0.8840 -0.4380 0.1632
vn 0.8503 -0.4880 -0.1970
vn -0.0994 0.7480 0.6562
vn -0.2487 -0.6318 -0.7342
vn -0.5049 -0.5553 0.6609
vn 0.2854 -0.8420 -0.4577
vn 0.4173 -0.8940 0.1634
vn 0.5044 0.5613 0.6562
vn -0.6853 -0.3491 0.6391
vn -0.0000 -0.9506 0.3105
vn -0.2259 -0.9718 -0.0676
vn -0.8853 -0.3931 0.2485
vn 0.1032 -0.7434 0.6609
vn -0.4028 0.7944 -0.4545
vn -0.2485 -0.3931 -0.8853
vn 0.5441 0.0727 -0.8359
vn 0.3550 0.4186 -0.8359
vn -0.4651 0.0033 -0.8853
vn -0.7103 -0.5354 -0.4569
vn -0.5400 0.8259 0.1622
vn -0.8483 -0.5038 0.1631
vn 0.9114 0.3784 0.1619
vn -0.1556 0.7379 0.6568
vn -0.2009 -0.6493 -0.7335
vn -0.4618 -0.5923 0.6603
vn 0.3470 -0.8188 -0.4573
vn 0.4823 -0.8607 0.1632
vn 0.4610 0.5967 0.6568
vn 0.1582 -0.7342 0.6603
vn -0.4618 0.7614 -0.4549
vn -0.6678 -0.5879 -0.4565
vn 0.9369 0.3100 0.1618
vn 0.8105 0.3710 -0.4533
vn -0.6011 0.7825 0.1624
vn 0.8808 0.4448 0.1621
vn -0.8076 -0.5667 0.1629
vn -0.2108 0.7235 0.6574
vn 0.5447 -0.8226 0.1631
vn -0.4159 -0.6259 0.6597
vn -0.1518 -0.6632 -0.7329
vn 0.4067 -0.7911 -0.4569
vn 0.4152 0.6289 0.6574
vn 0.7806 0.4299 -0.4537
vn 0.2512 0.6383 -0.7277
vn 0.2123 -0.7209 0.6597
vn -0.5181 0.7240 -0.4553
vn -0.6214 -0.6370 -0.4561
vn -0.6588 0.7346 0.1625
vn 0.1527 0.6673 -0.7290
vn -0.7623 -0.6264 0.1628
vn 0.7465 0.4864 -0.4541
vn 0.2025 0.6546 -0.7283
vn -0.2648 0.7050 0.6579
vn -0.1018 -0.6734 -0.7322
vn -0.3676 -0.6561 0.6591
vn 0.4643 -0.7590 -0.4565
vn 0.6041 -0.7801 0.1629
vn 0.3672 0.6575 0.6579
vn 0.2654 -0.7036 0.6591
vn -0.5715 0.6825 -0.4557
vn 0.2323 -0.3435 -0.9100
vn -0.0000 1.0000 -0.0000
vn 0.2323 0.3434 -0.9100
vn -0.2323 0.3435 -0.9100
vn 0.5667 -0.3434 -0.7490
vn 0.8563 -0.3434 -0.3858
vn 0.8563 0.3434 -0.3858
vn 0.5667 0.3435 -0.7490
vn 0.9389 -0.3435 -0.0239
vn 0.8355 -0.3435 0.4289
vn 0.8355 0.3434 0.4289
vn 0.9389 0.3435 -0.0239
vn 0.6041 -0.3434 0.7191
vn 0.1856 -0.3434 0.9207
vn 0.1856 0.3434 0.9207
vn 0.6041 0.3435 0.7191
vn -0.1856 -0.3434 0.9207
vn -0.6041 -0.3434 0.7191
vn -0.6041 0.3434 0.7191
vn -0.1856 0.3435 0.9207
vn -0.8355 -0.3434 0.4289
vn -0.9389 -0.3435 -0.0239
vn -0.9389 0.3435 -0.0239
vn -0.8355 0.3435 0.4289
vn -0.8563 -0.3434 -0.3858
vn -0.5667 -0.3435 -0.7490
vn -0.5667 0.3434 -0.7490
vn -0.8563 0.3434 -0.3858
vn -0.0749 -0.9972 -0.0000
vn -0.2574 -0.3240 -0.9104
vn 0.2061 -0.3588 -0.9104
vn 0.0749 0.9972 -0.0000
vn 0.2573 0.3262 -0.9096
vn -0.2057 0.3610 -0.9096
vn 0.5396 -0.3838 -0.7493
vn 0.8286 -0.4056 -0.3859
vn 0.8793 0.2795 -0.3856
vn 0.5906 0.3012 -0.7486
vn 0.9110 -0.4117 -0.0240
vn 0.8079 -0.4040 0.4291
vn 0.8586 0.2810 0.4287
vn 0.9616 0.2733 -0.0239
vn 0.5770 -0.3866 0.7194
vn 0.1595 -0.3553 0.9211
vn 0.2108 0.3297 0.9202
vn 0.6279 0.2984 0.7188
vn -0.2108 -0.3274 0.9211
vn -0.6283 -0.2961 0.7194
vn -0.5763 0.3888 0.7188
vn -0.1592 0.3575 0.9202
vn -0.8592 -0.2787 0.4291
vn -0.9623 -0.2710 -0.0240
vn -0.9100 0.4139 -0.0239
vn -0.8070 0.4062 0.4287
vn -0.8799 -0.2772 -0.3859
vn -0.5909 -0.2989 -0.7493
vn -0.5390 0.3860 -0.7486
vn -0.8277 0.4077 -0.3856
vn -0.1494 -0.9888 -0.0000
vn -0.2809 -0.3026 -0.9108
vn 0.1789 -0.3721 -0.9108
vn 0.1494 0.9888 -0.0000
vn 0.2811 0.3071 -0.9092
vn -0.1778 0.3765 -0.9092
vn 0.5098 -0.4221 -0.7496
vn 0.7964 -0.4654 -0.3861
vn 0.8976 0.2140 -0.3855
vn 0.6115 0.2572 -0.7483
vn 0.8781 -0.4778 -0.0240
vn 0.7758 -0.4623 0.4293
vn 0.8771 0.2171 0.4285
vn 0.9792 0.2016 -0.0239
vn 0.5469 -0.4277 0.7197
vn 0.1326 -0.3651 0.9215
vn 0.2350 0.3141 0.9198
vn 0.6484 0.2516 0.7185
vn -0.2346 -0.3096 0.9215
vn -0.6488 -0.2470 0.7197
vn -0.5451 0.4320 0.7185
vn -0.1317 0.3695 0.9198
vn -0.8778 -0.2124 0.4293
vn -0.9801 -0.1969 -0.0240
vn -0.8759 0.4820 -0.0239
vn -0.7737 0.4666 0.4285
vn -0.8984 -0.2093 -0.3861
vn -0.6117 -0.2526 -0.7496
vn -0.5082 0.4264 -0.7483
vn -0.7943 0.4697 -0.3855
vn -0.2231 -0.9748 -0.0000
vn -0.3026 -0.2796 -0.9112
vn 0.1509 -0.3834 -0.9112
vn 0.2231 0.9748 -0.0000
vn 0.3034 0.2863 -0.9088
vn -0.1487 0.3898 -0.9088
vn 0.4772 -0.4581 -0.7500
vn 0.7599 -0.5228 -0.3862
vn 0.9110 0.1473 -0.3853
vn 0.6291 0.2118 -0.7480
vn 0.8405 -0.5412 -0.0240
vn 0.7396 -0.5181 0.4295
vn 0.8908 0.1519 0.4283
vn 0.9914 0.1289 -0.0239
vn 0.5138 -0.4665 0.7200
vn 0.1052 -0.3729 0.9219
vn 0.2581 0.2967 0.9194
vn 0.6654 0.2035 0.7182
vn -0.2570 -0.2901 0.9219
vn -0.6655 -0.1965 0.7200
vn -0.5107 0.4727 0.7182
vn -0.1033 0.3794 0.9194
vn -0.8914 -0.1449 0.4295
vn -0.9923 -0.1218 -0.0240
vn -0.8366 0.5473 -0.0239
vn -0.7360 0.5242 0.4283
vn -0.9117 -0.1402 -0.3862
vn -0.6289 -0.2049 -0.7500
vn -0.4743 0.4643 -0.7480
vn -0.7562 0.5289 -0.3853
vn -0.2955 -0.9553 -0.0000
vn -0.3225 -0.2550 -0.9116
vn 0.1222 -0.3926 -0.9116
vn 0.2955 0.9553 -0.0000
vn 0.3243 0.2639 -0.9084
vn -0.1186 0.4009 -0.9084
vn 0.4421 -0.4915 -0.7503
vn 0.7193 -0.5773 -0.3864
vn 0.9194 0.0798 -0.3852
vn 0.6433 0.1652 -0.7476
vn 0.7983 -0.6017 -0.0240
vn 0.6994 -0.5711 0.4297
vn 0.8996 0.0859 0.4281
vn 0.9982 0.0554 -0.0238
vn 0.4780 -0.5027 0.7203
vn 0.0774 -0.3787 0.9223
vn 0.2798 0.2776 0.9190
vn 0.6789 0.1542 0.7179
vn -0.2777 -0.2689 0.9223
vn -0.6783 -0.1450 0.7203
vn -0.4732 0.5106 0.7179
vn -0.0742 0.3872 0.9190
vn -0.8997 -0.0765 0.4297
vn -0.9987 -0.0459 -0.0241
vn -0.7925 0.6094 -0.0238
vn -0.6940 0.5789 0.4281
vn -0.9196 -0.0703 -0.3864
vn -0.6424 -0.1561 -0.7503
vn -0.4376 0.4996 -0.7476
vn -0.7138 0.5850 -0.3852
vn -0.3663 -0.9305 -0.0000
vn -0.3404 -0.2291 -0.9119
vn 0.0929 -0.3996 -0.9119
vn 0.3663 0.9305 -0.0000
vn 0.3434 0.2399 -0.9080
vn -0.0877 0.4097 -0.9080
vn 0.4046 -0.5223 -0.7506
vn 0.6748 -0.6287 -0.3865
vn 0.9228 0.0119 -0.3850
vn 0.6540 0.1177 -0.7473
vn 0.7518 -0.6590 -0.0241
vn 0.6554 -0.6210 0.4299
vn 0.9036 0.0194 0.4279
vn 0.9995 -0.0183 -0.0238
vn 0.4397 -0.5361 0.7206
vn 0.0492 -0.3824 0.9227
vn 0.3002 0.2569 0.9186
vn 0.6887 0.1040 0.7176
vn -0.2967 -0.2463 0.9227
vn -0.6871 -0.0926 0.7206
vn -0.4330 0.5455 0.7176
vn -0.0445 0.3926 0.9186
vn -0.9028 -0.0077 0.4299
vn -0.9993 0.0303 -0.0241
vn -0.7439 0.6679 -0.0238
vn -0.6479 0.6302 0.4279
vn -0.9223 -0.0000 -0.3865
vn -0.6521 -0.1064 -0.7506
vn -0.3983 0.5319 -0.7473
vn -0.6671 0.6377 -0.3850
vn -0.4350 -0.9004 -0.0000
vn -0.3562 -0.2019 -0.9123
vn 0.0633 -0.4045 -0.9123
vn 0.4350 0.9004 -0.0000
vn 0.3608 0.2146 -0.9076
vn -0.0562 0.4160 -0.9076
vn 0.3650 -0.5503 -0.7510
vn 0.6266 -0.6766 -0.3867
vn 0.9213 -0.0561 -0.3848
vn 0.6613 0.0695 -0.7469
vn 0.7011 -0.7126 -0.0241
vn 0.6078 -0.6675 0.4301
vn 0.9027 -0.0472 0.4277
vn 0.9955 -0.0920 -0.0238
vn 0.3990 -0.5667 0.7209
vn 0.0210 -0.3841 0.9231
vn 0.3190 0.2348 0.9182
vn 0.6948 0.0533 0.7173
vn -0.3139 -0.2223 0.9231
vn -0.6919 -0.0397 0.7209
vn -0.3902 0.5773 0.7173
vn -0.0144 0.3959 0.9182
vn -0.9007 0.0611 0.4301
vn -0.9940 0.1062 -0.0241
vn -0.6908 0.7226 -0.0238
vn -0.5981 0.6778 0.4277
vn -0.9195 0.0702 -0.3867
vn -0.6580 -0.0561 -0.7510
vn 0.4349 0.9005 -0.0000
vn -0.3566 0.5612 -0.7469
vn -0.6167 0.6868 -0.3848
vn -0.8776 -0.4794 -0.0000
vn -0.2818 0.6501 -0.7056
vn 0.3948 -0.5884 -0.7056
vn -0.5715 -0.6825 -0.4557
vn 0.3948 -0.5884 -0.7057
vn 0.3948 -0.5884 0.7056
vn -0.7126 0.6825 0.1626
vn -0.2818 0.6501 0.7056
vn 0.8776 0.4794 -0.0000
vn -0.2819 0.6501 0.7056
vn -0.7126 -0.6825 0.1626
vn -0.2819 0.6502 0.7056
vn -0.6205 -0.4794 0.6205
vn -0.6983 0.6501 -0.2997
vn -0.2198 -0.5884 -0.7781
vn 0.8055 0.5699 0.1624
vn -0.2199 -0.5884 -0.7781
vn 0.7781 -0.5884 0.2198
vn -0.3171 0.6825 0.6585
vn 0.2997 0.6501 0.6983
vn 0.6206 0.4794 -0.6205
vn 0.2996 0.6502 0.6982
vn -0.0511 -0.6799 -0.7316
vn -0.0000 -0.4794 0.8776
vn -0.7056 0.6501 0.2818
vn -0.7056 -0.5884 -0.3948
vn -0.3171 -0.6825 0.6585
vn -0.7056 0.6501 0.2819
vn 0.7056 -0.5884 -0.3948
vn 0.5193 -0.7227 -0.4561
vn 0.7057 -0.5884 -0.3947
vn 0.7056 0.6501 0.2818
vn -0.0000 0.4794 -0.8776
vn 0.6601 -0.7333 0.1628
vn -0.7056 0.6502 0.2819
vn 0.6205 -0.4794 0.6205
vn -0.2997 0.6501 0.6983
vn -0.7781 -0.5884 0.2198
vn 0.3171 0.6825 0.6585
vn -0.7782 -0.5884 0.2198
vn -0.2998 0.6501 0.6982
vn 0.2198 -0.5884 -0.7781
vn 0.3171 -0.6825 0.6585
vn 0.2200 -0.5884 -0.7781
vn 0.6983 0.6501 -0.2997
vn -0.6206 0.4794 -0.6205
vn 0.6983 0.6501 -0.2996
vn 0.7126 0.6825 0.1626
vn 0.8776 -0.4794 -0.0000
vn 0.2818 0.6501 0.7056
vn -0.3948 -0.5884 0.7056
vn 0.6662 0.5909 -0.4549
vn -0.3948 -0.5884 0.7057
vn 0.2819 0.6501 0.7056
vn -0.3948 -0.5884 -0.7056
vn 0.1022 0.6762 -0.7296
vn 0.2818 0.6501 -0.7056
vn -0.8776 0.4794 -0.0000
vn 0.7126 -0.6825 0.1626
vn 0.6205 -0.4794 -0.6205
vn 0.6983 0.6501 0.2997
vn 0.2198 -0.5884 0.7781
vn 0.7611 0.6279 0.1625
vn 0.2200 -0.5884 0.7781
vn 0.6982 0.6502 0.2997
vn -0.7781 -0.5884 -0.2198
vn 0.5715 0.6825 -0.4557
vn -0.2997 0.6501 -0.6983
vn -0.6205 0.4794 0.6205
vn -0.2998 0.6501 -0.6982
vn -0.0000 0.6825 -0.7309
vn -0.0000 -0.4794 -0.8776
vn 0.7056 0.6501 -0.2818
vn 0.7056 -0.5884 0.3948
vn 0.6205 0.6385 -0.4553
vn 0.7057 -0.5884 0.3948
vn 0.7056 0.6502 -0.2819
vn -0.7056 -0.5884 0.3948
vn 0.0512 0.6812 -0.7303
vn -0.7056 0.6501 -0.2818
vn -0.0000 0.4794 0.8776
vn -0.0000 -0.6825 -0.7309
vn -0.6205 -0.4794 -0.6205
vn 0.2997 0.6501 -0.6983
vn 0.7781 -0.5884 -0.2198
vn 0.5715 -0.6825 -0.4557
vn 0.7782 -0.5884 -0.2198
vn 0.2995 0.6502 -0.6983
vn -0.2198 -0.5884 0.7781
vn 0.8455 0.5087 0.1622
vn -0.6983 0.6501 0.2997
vn 0.6205 0.4794 0.6205
vn -0.6983 0.6501 0.2996
vn 0.7083 0.5401 -0.4545
vn 0.9365 -0.3491 -0.0327
vn 0.2064 0.0727 -0.9758
vn 0.3400 0.4185 -0.8422
vn 0.9548 0.0033 -0.2971
vn -0.1971 -0.4880 0.8503
vn -0.2259 -0.9718 0.0676
vn 0.2259 -0.9718 0.0676
vn 0.1971 -0.4880 0.8503
vn 0.7121 0.5820 0.3927
vn 0.6842 0.2523 0.6842
vn 0.9548 0.0033 0.2971
vn 0.3400 0.4185 0.8422
vn 0.2064 0.0727 0.9758
vn 0.1048 0.9792 -0.1739
vn -0.1740 0.9792 0.1048
vn 0.3927 0.5820 0.7121
vn 0.8853 -0.3931 -0.2485
vn -0.0000 -0.9506 -0.3105
vn 0.6853 -0.3491 -0.6391
vn 0.2485 -0.3931 -0.8853
vn 0.6391 -0.3491 -0.6853
vn -0.5440 0.0727 -0.8359
vn -0.3551 0.4185 -0.8359
vn 0.4651 0.0033 -0.8853
vn 0.4619 -0.4880 0.7406
vn -0.1119 -0.9718 0.2075
vn 0.2075 -0.9718 -0.1119
vn 0.7406 -0.4880 0.4619
vn 0.7812 0.5820 -0.2259
vn 0.9676 0.2523 -0.0000
vn 0.8853 0.0033 -0.4651
vn 0.8359 0.4185 0.3551
vn 0.8359 0.0727 0.5441
vn -0.0488 0.9792 -0.1971
vn -0.0488 0.9792 0.1971
vn 0.7812 0.5820 0.2259
vn 0.4503 -0.3931 -0.8017
vn -0.2196 -0.9506 -0.2196
vn 0.0327 -0.3491 -0.9365
vn -0.4503 -0.3931 -0.8017
vn -0.0327 -0.3491 -0.9365
vn -0.9758 0.0727 -0.2064
vn -0.8422 0.4185 -0.3400
vn -0.2971 0.0033 -0.9548
vn 0.3927 0.5820 -0.7121
vn 0.6842 0.2523 -0.6842
vn 0.2971 0.0033 -0.9548
vn 0.8422 0.4185 -0.3400
vn 0.9758 0.0727 -0.2064
vn -0.1739 0.9792 -0.1048
vn 0.1049 0.9792 0.1739
vn 0.7121 0.5820 -0.3927
vn -0.8853 -0.3931 -0.2485
vn -0.6853 -0.3491 -0.6391
vn -0.8359 0.0727 0.5441
vn -0.8359 0.4185 0.3550
vn -0.8853 0.0033 -0.4651
vn -0.2259 0.5820 -0.7812
vn -0.0000 0.2523 -0.9677
vn -0.1971 0.9792 0.0488
vn 0.1971 0.9792 0.0488
vn 0.2259 0.5820 -0.7812
vn -0.8017 -0.3931 0.4503
vn -0.9365 -0.3491 0.0327
vn -0.2064 0.0727 0.9758
vn -0.3400 0.4185 0.8422
vn -0.9548 0.0033 0.2971
vn -0.7121 0.5820 -0.3927
vn -0.6842 0.2523 -0.6842
vn -0.1048 0.9792 0.1739
vn 0.1740 0.9792 -0.1048
vn -0.3927 0.5820 -0.7121
vt -0.033463 -0.050714
vt -0.020594 -0.033037
vt -0.051650 -0.033037
vt 0.093760 0.450714
vt 0.088759 0.433037
vt 0.113663 0.433037
vt 0.093760 -0.050714
vt 0.113663 -0.033037
vt 0.088759 -0.033037
vt -0.033463 0.450714
vt -0.051650 0.433037
vt -0.020594 0.433037
vt 0.000000 -0.050714
vt -0.015927 -0.033037
vt 0.015927 -0.033037
vt 0.000000 0.450714
vt 0.015927 0.433037
vt -0.015927 0.433037
vt 0.065247 -0.050714
vt 0.084782 -0.033037
vt 0.056083 -0.033037
vt 0.065247 0.450714
vt 0.056083 0.433037
vt 0.084782 0.433037
vt -0.065247 -0.050714
vt -0.056083 -0.033037
vt -0.084782 -0.033037
vt -0.065247 0.450714
vt -0.084782 0.433037
vt -0.056083 0.433037
vt -0.020594 -0.033037
vt -0.020594 0.433037
vt -0.000730 0.383324
vt -0.015288 0.402145
vt 0.016476 0.399758
vt 0.036842 0.883343
vt 0.051399 0.864522
vt 0.019635 0.866908
vt 0.106115 0.085447
vt 0.106832 0.105332
vt 0.126636 0.080427
vt 0.084927 0.875363
vt 0.079944 0.856289
vt 0.104849 0.857777
vt -0.030496 0.373313
vt -0.017621 0.389804
vt -0.048676 0.390335
vt -0.030310 0.873392
vt -0.048504 0.855155
vt -0.017448 0.854624
vt 0.058564 0.378868
vt 0.079356 0.395034
vt 0.050738 0.397184
vt 0.095776 0.878914
vt 0.085325 0.861972
vt 0.113944 0.859822
vt -0.060025 0.387779
vt -0.049549 0.404720
vt -0.078168 0.406870
vt -0.022093 0.887771
vt -0.042910 0.871608
vt -0.014291 0.869458
vt -0.030496 0.393335
vt -0.048676 0.411568
vt -0.017621 0.412100
vt -0.030310 0.893293
vt -0.017448 0.876806
vt -0.048504 0.876275
vt 0.085447 0.391352
vt 0.080427 0.410423
vt 0.105332 0.408935
vt -0.069354 0.084927
vt -0.070117 0.104849
vt -0.089921 0.079944
vt 0.034756 0.818768
vt 0.021649 0.838627
vt 0.053146 0.833867
vt 0.109689 1.314566
vt 0.122795 1.294707
vt 0.091299 1.299467
vt 0.130392 0.077134
vt 0.132408 0.097000
vt 0.152046 0.072096
vt 0.076094 1.300307
vt 0.071130 1.279940
vt 0.096034 1.282908
vt -0.027529 0.800744
vt -0.014647 0.815961
vt -0.045703 0.817020
vt -0.027158 1.296785
vt -0.045358 1.278085
vt -0.014302 1.277026
vt 0.087830 0.810746
vt 0.109762 0.825310
vt 0.081385 0.829599
vt 0.162048 1.306652
vt 0.150370 1.290539
vt 0.178747 1.286250
vt -0.018318 0.826789
vt -0.006590 0.842895
vt -0.034967 0.847184
vt 0.057329 1.322479
vt 0.035347 1.307923
vt 0.063724 1.303634
vt -0.027529 0.836792
vt -0.045703 0.855474
vt -0.014647 0.856533
vt -0.027158 1.332347
vt -0.014302 1.317147
vt -0.045358 1.316088
vt 0.077134 0.833222
vt 0.072096 0.853574
vt 0.097000 0.850606
vt 0.015341 0.076094
vt 0.013234 0.096034
vt -0.006404 0.071130
vt 0.106564 1.255605
vt 0.094982 1.276391
vt 0.126034 1.269284
vt 0.218436 1.744395
vt 0.230018 1.723610
vt 0.198966 1.730716
vt 0.190687 0.068820
vt 0.193991 0.088669
vt 0.213352 0.063764
vt 0.067262 1.725577
vt 0.062315 1.704030
vt 0.087220 1.708461
vt 0.211463 -0.024562
vt 0.230136 -0.011674
vt 0.223226 -0.042729
vt -0.024005 1.720930
vt -0.042212 1.701870
vt -0.011157 1.700289
vt 0.153249 1.244920
vt 0.176198 1.257802
vt 0.148222 1.264205
vt 0.264063 1.733952
vt 0.251223 1.718756
vt 0.279199 1.712353
vt 0.059879 1.266290
vt 0.072794 1.281469
vt 0.044818 1.287872
vt 0.172809 1.754838
vt 0.149785 1.741973
vt 0.177761 1.735570
vt -0.024562 1.279614
vt -0.042729 1.298635
vt -0.011674 1.300217
vt 0.115912 -0.024005
vt 0.097073 -0.011157
vt 0.103982 -0.042212
vt 0.068820 1.274859
vt 0.063764 1.296375
vt 0.088669 1.291944
vt 0.136218 0.067262
vt 0.132779 0.087220
vt 0.113419 0.062315
vt 0.214798 1.693817
vt 0.204806 1.715412
vt 0.235237 1.705998
vt 0.362980 2.172850
vt 0.372972 2.151255
vt 0.342540 2.160669
vt 0.287283 0.060507
vt 0.291858 0.080337
vt 0.310832 0.055433
vt 0.058429 2.151198
vt 0.053501 2.128587
vt 0.078406 2.134456
vt 0.305185 -0.021595
vt 0.324816 -0.008700
vt 0.318044 -0.039756
vt -0.020853 2.145850
vt -0.039066 2.126533
vt -0.008011 2.124438
vt 0.255024 1.681374
vt 0.278862 1.692504
vt 0.251444 1.700985
vt 0.401824 2.160834
vt 0.387894 2.146639
vt 0.415312 2.138158
vt 0.174572 1.706260
vt 0.188600 1.720425
vt 0.161182 1.728906
vt 0.324136 2.184866
vt 0.300200 2.173766
vt 0.327618 2.165285
vt -0.021595 1.721777
vt -0.039756 1.741027
vt -0.008700 1.743121
vt 0.275698 -0.020853
vt 0.255848 -0.008011
vt 0.262619 -0.039066
vt 0.060507 1.716239
vt 0.055433 1.738796
vt 0.080337 1.732926
vt 0.292985 0.058429
vt 0.288234 0.078406
vt 0.269260 0.053501
vt 0.359559 2.133375
vt 0.351213 2.155657
vt 0.380854 2.143990
vt 0.543219 2.599958
vt 0.551564 2.577676
vt 0.521924 2.589343
vt 0.420460 0.052194
vt 0.426282 0.072006
vt 0.444762 0.047101
vt 0.049596 2.577179
vt 0.044686 2.553629
vt 0.069591 2.560903
vt 0.435501 -0.018628
vt 0.455982 -0.005727
vt 0.449386 -0.036782
vt -0.017701 2.571553
vt -0.035920 2.552083
vt -0.004865 2.549486
vt 0.393357 2.120071
vt 0.417949 2.129388
vt 0.391244 2.139900
vt 0.575334 2.587317
vt 0.560391 2.574201
vt 0.587096 2.563690
vt 0.325762 2.146678
vt 0.340823 2.159747
vt 0.314118 2.170259
vt 0.511103 2.612600
vt 0.486392 2.603329
vt 0.513097 2.592817
vt -0.018628 2.163268
vt -0.036782 2.182634
vt -0.005727 2.185230
vt 0.471056 -0.017701
vt 0.450309 -0.004865
vt 0.456905 -0.035920
vt 0.052194 2.157347
vt 0.047101 2.180813
vt 0.072006 2.173539
vt 0.485349 0.049596
vt 0.479314 0.069591
vt 0.460833 0.044686
vt 0.540948 2.574245
vt 0.534295 2.597090
vt 0.562978 2.583234
vt 0.759052 3.025755
vt 0.765705 3.002910
vt 0.737022 3.016765
vt 0.590495 0.043881
vt 0.597531 0.063674
vt 0.615415 0.038770
vt 0.040763 3.003521
vt 0.035872 2.979161
vt 0.060777 2.987800
vt 0.602732 -0.015661
vt 0.623948 -0.002753
vt 0.617566 -0.033809
vt -0.014548 2.998030
vt -0.032775 2.978512
vt -0.001719 2.975429
vt 0.568444 2.560963
vt 0.593655 2.568416
vt 0.567812 2.580900
vt 0.784595 3.013416
vt 0.768723 3.001452
vt 0.794565 2.988969
vt 0.513451 2.587527
vt 0.529462 2.599425
vt 0.503619 2.611908
vt 0.733509 3.038094
vt 0.708161 3.030707
vt 0.734004 3.018223
vt -0.015661 2.604090
vt -0.033809 2.623459
vt -0.002753 2.626542
vt 0.701658 -0.014548
vt 0.680131 -0.001719
vt 0.686514 -0.032775
vt 0.043881 2.598179
vt 0.038770 2.622420
vt 0.063674 2.613781
vt 0.713025 0.040763
vt 0.705741 0.060777
vt 0.687857 0.035872
vt 0.604055 2.392488
vt 0.613531 2.411938
vt 0.625542 2.389953
vt 2.095945 3.207512
vt 2.086469 3.188062
vt 2.074459 3.210047
vt 0.678366 -0.000000
vt 0.699057 0.012526
vt 0.699057 -0.012526
vt 0.000000 3.207512
vt -0.012526 3.186696
vt 0.012526 3.186696
vt -0.000000 2.528514
vt -0.012526 2.546507
vt 0.012526 2.546507
vt 2.095945 0.000000
vt 2.073712 0.012526
vt 2.073712 -0.012526
vt 0.077113 2.392488
vt 0.091497 2.411938
vt 0.099990 2.389953
vt 1.672438 3.207512
vt 1.655779 3.188062
vt 1.647286 3.210047
vt 0.670058 0.020058
vt 0.675831 0.043545
vt 0.693545 0.025831
vt 1.022438 3.207512
vt 1.007408 3.186696
vt 1.025122 3.186696
vt 0.727113 2.392488
vt 0.749990 2.389953
vt 0.741497 2.411938
vt 0.997286 3.210047
vt 1.005779 3.188062
vt -0.085034 2.528514
vt -0.086628 2.546507
vt -0.068913 2.546507
vt 1.672438 1.022438
vt 1.647859 1.015574
vt 1.665573 0.997859
vt -0.045945 2.392488
vt -0.036469 2.411938
vt -0.024459 2.389953
vt 1.445945 3.207512
vt 1.436469 3.188062
vt 1.424459 3.210047
vt 0.650000 0.028366
vt 0.637474 0.049057
vt 0.662526 0.049057
vt 0.650000 3.207512
vt 0.662526 3.186696
vt 0.637474 3.186696
vt -0.045945 2.392488
vt -0.024459 2.389953
vt -0.036469 2.411938
vt 1.424458 3.210047
vt 0.650000 2.528514
vt 0.662526 2.546507
vt 0.637474 2.546507
vt 0.650000 1.445945
vt 0.637474 1.423712
vt 0.662526 1.423712
vt 0.572887 2.392488
vt 0.558503 2.411938
vt 0.550010 2.389953
vt 1.022437 3.207512
vt 1.005779 3.188062
vt 0.997286 3.210047
vt 0.629942 0.020058
vt 0.606455 0.025831
vt 0.624169 0.043545
vt -0.372438 3.207512
vt -0.357408 3.186696
vt -0.375122 3.186696
vt 0.077114 2.392488
vt 0.099990 2.389953
vt 0.091498 2.411938
vt -0.347287 3.210047
vt -0.355779 3.188062
vt 0.735034 2.528514
vt 0.736628 2.546507
vt 0.718913 2.546507
vt -0.372438 1.022437
vt -0.365574 0.997859
vt -0.347860 1.015574
vt 0.695945 2.392488
vt 0.686469 2.411938
vt 0.674459 2.389953
vt -0.795945 3.207512
vt -0.786469 3.188062
vt -0.774458 3.210047
vt 0.621634 -0.000000
vt 0.600943 -0.012526
vt 0.600943 0.012526
vt 0.000000 3.207512
vt 0.012526 3.186696
vt -0.012526 3.186696
vt -0.774458 3.210047
vt -0.000000 2.528514
vt 0.012526 2.546507
vt -0.012526 2.546507
vt -0.795945 0.000000
vt -0.773712 -0.012526
vt -0.773712 0.012526
vt -0.077114 2.392488
vt -0.091498 2.411938
vt -0.099990 2.389953
vt -0.355779 3.188062
vt -0.347286 3.210047
vt 0.629942 -0.020058
vt 0.624169 -0.043545
vt 0.606455 -0.025831
vt -1.022437 3.207512
vt -1.007407 3.186696
vt -1.025122 3.186696
vt 0.550010 2.389953
vt -0.997286 3.210047
vt -1.005779 3.188062
vt 0.085034 2.528514
vt 0.086627 2.546507
vt 0.068913 2.546507
vt -0.372438 -1.022437
vt -0.347860 -1.015574
vt -0.365574 -0.997859
vt 0.045945 2.392488
vt 0.036469 2.411938
vt 0.024459 2.389953
vt -1.445945 3.207512
vt -1.436469 3.188062
vt -1.424458 3.210047
vt 0.650000 -0.028366
vt 0.662526 -0.049057
vt 0.637474 -0.049057
vt 0.650000 3.207512
vt 0.637474 3.186696
vt 0.662526 3.186696
vt 0.045945 2.392488
vt 0.024459 2.389953
vt 0.036469 2.411938
vt -1.424459 3.210047
vt 0.650000 -1.445945
vt 0.662526 -1.423712
vt 0.637474 -1.423712
vt 0.727114 2.392488
vt 0.741498 2.411938
vt 0.749990 2.389953
vt -1.022438 3.207512
vt -1.005779 3.188062
vt -0.997287 3.210047
vt 0.670058 -0.020057
vt 0.693546 -0.025831
vt 0.675831 -0.043545
vt -1.025122 3.186696
vt -1.007408 3.186696
vt -0.077113 2.392488
vt -0.099990 2.389953
vt -0.091497 2.411938
vt 1.672437 3.207512
vt 1.647286 3.210047
vt 1.655779 3.188062
vt 0.564966 2.528514
vt 0.563373 2.546507
vt 0.581087 2.546507
vt 1.672437 -1.022438
vt 1.665573 -0.997860
vt 1.647859 -1.015574
vt 0.116984 0.113663
vt 0.000000 0.150379
vt 0.015927 0.162330
vt 0.141151 0.104849
vt 0.036842 0.136213
vt 0.143037 0.084927
vt 0.015927 0.162330
vt 0.117571 0.093760
vt 0.136845 0.088759
vt 0.146609 -0.033463
vt 0.122795 0.134055
vt 0.204036 0.076094
vt 0.200860 0.096034
vt 0.161804 -0.020594
vt -0.011674 1.245457
vt 0.084782 -0.139344
vt 0.154716 -0.051650
vt 0.065247 -0.135487
vt 0.148952 -0.017621
vt 0.016476 0.148967
vt -0.000730 0.137046
vt 0.056083 -0.153165
vt -0.065247 -0.135487
vt -0.056083 -0.153165
vt -0.154716 -0.051650
vt -0.084782 -0.139344
vt -0.146609 -0.033463
vt 0.105332 0.392969
vt -0.136845 0.088759
vt -0.161804 -0.020594
vt -0.117571 0.093760
vt -0.015927 0.162330
vt -0.116984 0.113663
vt -0.015927 0.162330
vt 0.079356 -0.127304
vt 0.132504 -0.030496
vt 0.141884 -0.048676
vt -0.002753 2.553783
vt 0.176054 -0.048504
vt 0.095776 -0.122723
vt 0.113944 -0.126606
vt 0.154012 -0.027529
vt 0.034756 0.123713
vt 0.053146 0.135605
vt 0.427278 2.134456
vt 0.432975 2.151198
vt -0.140696 -0.048676
vt -0.060025 -0.123474
vt -0.078168 -0.127304
vt 0.300653 1.725577
vt 0.296204 1.708461
vt -0.042910 -0.126606
vt -0.095583 -0.030310
vt -0.105020 -0.048504
vt 0.072096 0.818919
vt -0.112088 -0.017448
vt 0.079944 0.875140
vt 0.104849 0.873652
vt -0.105643 0.105332
vt -0.107576 0.085447
vt 0.019635 0.148193
vt 0.109762 -0.115265
vt 0.164613 -0.045703
vt 0.594174 2.560903
vt 0.601088 2.577179
vt -0.113869 1.286250
vt -0.109960 1.306652
vt 0.106564 0.110379
vt 0.126034 0.122242
vt -0.008700 1.678288
vt -0.115265 0.847184
vt -0.111461 0.826789
vt 0.035347 -0.113869
vt -0.007961 -0.027158
vt -0.018676 -0.045358
vt 0.088669 1.253730
vt -0.025684 -0.014302
vt 0.071130 1.314233
vt 0.096034 1.311265
vt 0.021649 0.135605
vt -0.060880 0.077134
vt -0.057613 0.097000
vt 0.109689 0.122046
vt 0.091299 0.134055
vt 0.153249 -0.099448
vt -0.097196 1.733952
vt -0.101132 1.712353
vt 0.214798 0.097046
vt 0.235237 0.108879
vt -0.103226 1.287872
vt -0.099448 1.266290
vt -0.036782 2.117014
vt 0.149785 -0.101132
vt -0.042212 1.752456
vt -0.011157 1.754037
vt 0.055433 1.682614
vt 0.087220 1.745865
vt 0.062315 1.750296
vt 0.022441 1.274859
vt 0.027025 1.291944
vt 0.218436 0.107879
vt 0.198966 0.119918
vt 0.278862 -0.091186
vt 0.495000 -0.045945
vt 0.484134 -0.024459
vt -0.084432 2.160834
vt -0.088395 2.138158
vt 0.359559 0.083713
vt 0.380854 0.095516
vt 0.014083 3.188062
vt -0.091186 1.728906
vt -0.087435 1.706260
vt 0.805079 3.003521
vt 0.796986 2.987800
vt 0.300200 -0.088395
vt -0.039066 2.185391
vt -0.008011 2.187486
vt 0.047101 2.118834
vt 0.078406 2.177468
vt 0.053501 2.183337
vt 0.142313 1.716239
vt 0.148186 1.732926
vt 0.362980 0.093713
vt 0.342540 0.105781
vt 0.393357 -0.075422
vt 0.507910 0.077113
vt 0.515420 0.099990
vt -0.075657 2.563690
vt -0.071668 2.587317
vt 0.562978 0.082154
vt 0.540948 0.070379
vt -0.079147 2.170259
vt -0.075422 2.146678
vt -0.014083 3.188062
vt 0.486392 -0.075657
vt -0.035920 2.614936
vt -0.004865 2.617532
vt 0.063674 2.566544
vt 0.044686 2.613390
vt 0.069591 2.606116
vt 0.298658 2.157347
vt 0.305786 2.173539
vt 0.521924 0.091643
vt 0.543219 0.079546
vt 0.568444 -0.063410
vt 0.637474 1.437215
vt 0.662526 1.437215
vt -0.062920 2.988969
vt -0.058905 3.013416
vt 0.604055 -0.155000
vt 0.604055 0.155000
vt 0.625542 0.165866
vt 1.657408 3.186696
vt -0.067107 2.611908
vt -0.063410 2.587527
vt 0.506928 2.411938
vt 0.515420 2.389953
vt 0.708161 -0.062920
vt -0.001719 3.044246
vt -0.032775 3.041163
vt 2.087215 -0.012526
vt 2.087215 0.012526
vt 1.657408 1.025122
vt 1.675122 1.007408
vt 0.035872 3.040514
vt 0.060777 3.031876
vt 0.499743 2.613781
vt 0.491401 2.598179
vt 0.759052 0.065379
vt 0.737022 0.077506
vt -0.155000 2.392488
vt -0.165866 2.411938
vt -0.357408 1.025122
vt -0.375122 1.007407
vt 2.074459 -0.014083
vt 0.540016 0.012526
vt 0.155000 2.392488
vt 2.074459 0.014083
vt 0.572887 -0.142090
vt 0.550010 -0.134579
vt 0.727113 -0.142090
vt 0.635917 3.188062
vt -0.134580 2.389953
vt -0.787215 -0.012526
vt -0.787215 0.012526
vt 0.581087 2.546507
vt -0.143072 2.411938
vt -0.134579 2.389953
vt 1.667202 0.997286
vt 0.563372 -0.068913
vt 1.647286 1.017202
vt 0.695945 -0.155000
vt 0.674459 -0.165866
vt 0.805000 -0.045945
vt 1.007407 3.186696
vt 0.664083 3.188062
vt -0.375122 -1.007407
vt -0.357408 -1.025122
vt 0.805000 2.392488
vt 0.815866 2.411938
vt 0.664082 1.424458
vt 0.637474 -0.109984
vt 0.495000 2.392488
vt 0.635917 1.424459
vt 0.792090 -0.077114
vt 0.784580 -0.099990
vt 0.792090 0.077114
vt -0.014083 3.188062
vt 0.793072 2.411938
vt 0.662526 -1.437215
vt 0.637474 -1.437215
vt -0.085034 2.528514
vt 0.784580 2.389953
vt 0.793072 2.411938
vt -0.347287 1.017202
vt 0.718913 -0.086627
vt -0.367202 0.997286
vt 0.805000 0.045945
vt 0.815866 0.024459
vt 0.695945 0.155000
vt -0.357408 3.186696
vt 0.014083 3.188062
vt 1.675121 -1.007408
vt 1.657407 -1.025122
vt 0.155000 2.392488
vt 0.165866 2.411938
vt -0.774458 0.014083
vt 0.759984 -0.012526
vt -0.155000 2.392488
vt -0.774458 -0.014083
vt 0.727114 0.142090
vt 0.749990 0.134580
vt 0.572887 0.142090
vt 0.143072 2.411938
vt 0.143072 2.411938
vt 0.134580 2.389953
vt -0.367202 -0.997286
vt 0.718913 0.086627
vt -0.347286 -1.017202
vt 0.495000 0.045945
vt 0.484134 2.411938
vt 0.635917 -1.424459
vt 0.637474 0.109984
vt 0.664083 -1.424458
vt 0.507910 -0.077113
vt 1.657407 3.186696
vt 0.515421 2.389953
vt 0.068914 2.546507
vt 1.647286 -1.017202
vt 0.581087 0.086628
vt 1.667202 -0.997287
vt 0.116984 -0.033037
vt -0.116984 0.433037
vt -0.116984 -0.033037
vt -0.139344 -0.033037
vt -0.139344 0.433037
vt -0.133965 -0.030496
vt 0.141151 0.857777
vt 0.106832 0.392969
vt -0.070117 0.873652
vt -0.105643 0.408935
vt -0.022093 -0.122723
vt 0.080427 0.391481
vt -0.127304 0.395034
vt -0.126606 0.871608
vt -0.127304 0.406870
vt -0.084501 -0.027529
vt 0.132408 0.821887
vt -0.057613 0.850606
vt 0.227338 -0.027158
vt -0.115265 0.825310
vt -0.113869 1.307923
vt 0.059879 -0.099448
vt 0.022441 0.068820
vt 0.193991 1.253730
vt 0.264063 -0.097196
vt 0.300653 0.067262
vt 0.063764 1.249299
vt -0.042729 1.247039
vt -0.103226 1.257802
vt 0.174572 -0.087435
vt 0.142313 0.060507
vt 0.291858 1.688483
vt 0.288234 2.177468
vt 0.432975 0.058429
vt 0.324136 -0.084432
vt -0.091186 1.692504
vt -0.039756 1.680383
vt -0.088395 2.173766
vt 0.283617 -0.018628
vt 0.426282 2.126109
vt 0.615381 -0.017701
vt -0.005727 2.114418
vt -0.079147 2.129388
vt -0.075657 2.603329
vt 0.513451 -0.063410
vt 0.491401 0.043881
vt 0.597531 2.566544
vt 0.784595 -0.058905
vt 0.038770 2.557905
vt -0.067107 2.568416
vt -0.033809 2.556866
vt -0.062920 3.030707
vt 2.087215 3.186696
vt 0.699057 2.255385
vt 0.540016 2.546507
vt 0.699057 2.255385
vt -0.142090 2.392488
vt 0.020058 2.256463
vt 0.675831 2.255385
vt 1.015574 3.211413
vt 0.025831 2.255385
vt 1.665573 3.211413
vt 1.437215 3.186696
vt 0.049057 2.255385
vt -0.109984 2.546507
vt 0.049057 2.255385
vt -0.109984 2.546507
vt -0.142090 2.392488
vt 0.020058 2.256463
vt 0.025831 2.255385
vt -0.365574 3.211413
vt 0.624169 2.255385
vt 1.015574 3.211413
vt -0.068913 2.546507
vt -0.000000 2.256463
vt -0.787215 3.186696
vt 0.600943 2.255385
vt -0.773712 3.211413
vt 0.759984 2.546507
vt 0.142090 2.392488
vt -0.020058 2.256463
vt -1.017202 3.210047
vt -0.025831 2.255385
vt 0.134579 2.389953
vt 0.650000 2.256463
vt -1.437215 3.186696
vt -0.049057 2.255385
vt 0.109984 2.546507
vt -0.049057 2.255385
vt -1.423712 3.211413
vt 0.109984 2.546507
vt 0.507910 2.392488
vt 0.670058 2.256463
vt -0.025831 2.255385
vt 1.667202 3.210047
vt 0.675831 2.255385
vt -1.015574 3.211413
vt 0.051399 0.148193
vt 0.161804 -0.020594
vt -0.161804 -0.020594
vt 0.058564 -0.123474
vt 0.169266 -0.030310
vt 0.171622 -0.014647
vt 0.097000 0.821887
vt -0.015288 0.148967
vt 0.087830 -0.111461
vt 0.057329 -0.109960
vt 0.176198 -0.103226
vt 0.172809 -0.097196
vt 0.080337 1.688483
vt 0.255024 -0.087435
vt 0.072006 2.126109
vt 0.417949 -0.079147
vt 0.511103 -0.071668
vt 0.593655 -0.067107
vt 0.625542 -0.165866
vt 0.733509 -0.058905
vt 0.540016 -0.012526
vt 0.165866 2.411938
vt 0.749990 -0.134580
vt -0.143072 2.411938
vt 0.564966 2.528514
vt 0.581087 -0.086628
vt 0.815866 -0.024459
vt 0.662526 -0.109984
vt 0.484134 2.411938
vt 0.784580 0.099990
vt 0.736628 -0.068913
vt 0.674459 0.165866
vt 0.759984 0.012526
vt -0.165866 2.411938
vt 0.550010 0.134579
vt 0.736628 0.068913
vt 0.484134 0.024459
vt 0.662526 0.109984
vt 0.815866 2.411938
vt 0.515421 -0.099990
vt 0.506928 2.411938
vt 0.085034 2.528514
vt 0.563373 0.068914
vt 0.116984 0.433037
vt -0.126606 0.859822
vt -0.018318 -0.111461
vt 0.200860 1.282908
vt 0.013234 1.311265
vt 0.162048 -0.109960
vt 0.001665 -0.024562
vt 0.132779 1.745865
vt 0.320959 -0.024005
vt -0.101132 1.741973
vt 0.124411 -0.021595
vt 0.401824 -0.084432
vt 0.450262 -0.020853
vt 0.325762 -0.075422
vt 0.298658 0.052194
vt 0.479314 2.606116
vt 0.575334 -0.071668
vt 0.601088 0.049596
vt 0.479164 -0.015661
vt 0.705741 3.031876
vt 0.816447 -0.014548
vt 0.805079 0.040763
vt -0.000000 2.256463
vt 2.073712 3.211413
vt 1.017202 3.210047
vt 1.667202 3.210047
vt 1.423712 3.211413
vt -0.367202 3.210047
vt 1.017202 3.210047
vt -1.015574 3.211413
vt -0.367202 3.210047
vt 1.665573 3.211413
vt -1.017202 3.210047
s 1
f 574/1/432 176/2/173 177/3/174
f 586/4/440 173/5/171 174/6/172
f 628/7/459 170/8/169 171/9/170
f 550/10/421 179/11/175 180/12/176
f 622/13/455 2/14/2 165/15/165
f 598/16/444 167/17/167 168/18/168
f 538/19/416 182/20/177 183/21/178
f 532/22/412 185/23/179 186/24/180
f 508/25/400 188/26/181 189/27/182
f 490/28/392 191/29/183 192/30/184
f 478/1/384 194/3/185 195/31/186
f 466/10/380 197/32/187 198/11/188
f 460/7/377 200/9/189 201/8/190
f 164/4/164 203/6/191 204/5/192
f 502/33/396 206/34/194 207/35/195
f 610/36/452 209/37/197 210/38/198
f 514/39/403 212/40/199 213/41/200
f 604/42/448 215/43/201 216/44/202
f 526/45/407 218/46/203 219/47/204
f 580/48/436 221/49/205 222/50/206
f 163/51/163 224/52/207 225/53/208
f 162/54/162 227/55/209 228/56/210
f 159/57/159 230/58/211 231/59/212
f 157/60/157 233/61/213 234/62/214
f 154/63/154 236/64/215 237/65/216
f 152/66/152 239/67/217 240/68/218
f 151/69/151 242/70/219 243/71/220
f 150/72/150 245/73/221 246/74/222
f 158/75/158 248/76/224 249/77/225
f 562/78/429 251/79/227 252/80/228
f 160/81/160 254/82/229 255/83/230
f 556/84/425 257/85/231 258/86/232
f 161/87/161 260/88/233 261/89/234
f 484/90/389 263/91/235 264/92/236
f 149/93/149 266/94/237 267/95/238
f 146/96/146 269/97/239 270/98/240
f 143/99/143 272/100/241 273/101/242
f 141/102/141 275/103/243 276/104/244
f 140/105/140 278/106/245 279/107/246
f 138/108/138 281/109/247 282/110/248
f 135/111/135 284/112/249 285/113/250
f 134/114/134 287/115/251 288/116/252
f 144/117/144 290/118/254 291/119/255
f 153/120/153 293/121/257 294/122/258
f 145/123/145 296/124/259 297/125/260
f 646/126/467 299/127/261 300/128/262
f 142/129/142 302/130/263 303/131/264
f 634/132/463 305/133/265 306/134/266
f 133/135/133 308/136/267 309/137/268
f 132/138/132 311/139/269 312/140/270
f 129/141/129 314/142/271 315/143/272
f 127/144/127 317/145/273 318/146/274
f 125/147/125 320/148/275 321/149/276
f 124/150/124 323/151/277 324/152/278
f 123/153/123 326/154/279 327/155/280
f 118/156/118 329/157/281 330/158/282
f 128/159/128 332/160/284 333/161/285
f 156/162/156 335/163/287 336/164/288
f 130/165/130 338/166/289 339/167/290
f 155/168/155 341/169/291 342/170/292
f 131/171/131 344/172/293 345/173/294
f 139/174/139 347/175/295 348/176/296
f 117/177/117 350/178/297 351/179/298
f 112/180/112 353/181/299 354/182/300
f 109/183/109 356/184/301 357/185/302
f 107/186/107 359/187/303 360/188/304
f 105/189/105 362/190/305 363/191/306
f 103/192/103 365/193/307 366/194/308
f 102/195/102 368/196/309 369/197/310
f 101/198/101 371/199/311 372/200/312
f 108/201/108 374/202/314 375/203/315
f 148/204/148 377/205/317 378/206/318
f 110/207/110 380/208/319 381/209/320
f 147/210/147 383/211/321 384/212/322
f 111/213/111 386/214/323 387/215/324
f 126/216/126 389/217/325 390/218/326
f 100/219/100 392/220/327 393/221/328
f 95/222/95 395/223/329 396/224/330
f 92/225/92 398/226/331 399/227/332
f 90/228/90 401/229/333 402/230/334
f 85/231/85 404/232/335 405/233/336
f 83/234/83 407/235/337 408/236/338
f 79/237/79 410/238/339 411/239/340
f 78/240/78 413/241/341 414/242/342
f 93/243/93 416/244/344 417/245/345
f 104/246/104 419/247/347 420/248/348
f 94/249/94 422/250/349 423/251/350
f 137/252/137 425/253/351 426/254/352
f 91/255/91 428/256/353 429/257/354
f 136/258/136 431/259/355 432/260/356
f 77/261/77 434/262/357 435/263/358
f 73/264/73 437/265/359 438/266/360
f 69/267/69 440/268/361 441/269/362
f 66/270/66 443/271/363 444/272/364
f 63/273/63 446/274/365 447/275/366
f 60/276/60 449/277/367 450/278/368
f 59/279/59 452/280/369 453/281/370
f 56/282/56 455/283/372 456/284/373
f 67/285/67 122/286/122 119/287/119
f 472/288/382 120/289/120 121/290/121
f 70/291/70 68/292/68 72/293/72
f 472/294/382 84/295/84 106/296/106
f 71/285/71 87/287/87 88/286/88
f 472/288/382 89/290/89 86/289/86
f 54/297/54 55/298/55 47/299/47
f 472/300/382 48/301/48 49/302/49
f 96/303/96 62/304/62 99/305/99
f 496/306/394 64/307/64 61/308/61
f 97/309/97 98/310/98 57/311/57
f 496/312/394 58/313/58 65/314/65
f 42/315/42 43/316/43 39/317/39
f 496/312/394 40/318/40 41/319/41
f 33/320/33 34/321/34 27/322/27
f 496/323/394 28/324/28 29/325/29
f 113/326/113 82/327/82 116/328/116
f 520/329/406 80/330/80 81/331/81
f 114/332/114 115/333/115 75/334/75
f 520/335/406 76/336/76 74/337/74
f 22/338/22 23/339/23 19/340/19
f 520/329/406 20/341/20 21/330/21
f 13/342/13 14/343/14 7/344/7
f 520/345/406 8/346/8 9/347/9
f 44/348/44 32/349/32 46/350/46
f 544/351/419 30/352/30 31/353/31
f 45/354/45 51/355/51 52/356/52
f 544/357/419 53/358/53 50/359/50
f 649/360/468 3/361/3 652/362/471
f 544/357/419 651/363/470 650/364/469
f 658/365/477 657/366/476 664/367/483
f 544/368/419 663/369/482 662/370/481
f 24/371/24 12/372/12 26/373/26
f 568/374/431 10/375/10 11/376/11
f 25/377/25 36/378/36 37/379/37
f 568/380/431 38/381/38 35/382/35
f 669/371/488 668/373/487 672/372/491
f 568/374/431 671/383/490 670/375/489
f 678/384/497 677/385/496 684/386/503
f 568/387/431 683/388/502 682/389/501
f 4/390/4 659/391/478 6/392/6
f 592/357/442 661/393/480 660/394/479
f 5/395/5 16/396/16 17/397/17
f 592/398/442 18/399/18 15/400/15
f 689/348/508 688/401/507 692/349/511
f 592/398/442 691/402/510 690/403/509
f 694/404/513 693/405/512 700/406/519
f 592/407/442 699/408/518 698/409/517
f 667/410/486 679/411/498 665/412/484
f 616/413/454 681/414/500 680/415/499
f 666/416/485 655/417/474 654/418/473
f 616/419/454 653/420/472 656/421/475
f 702/422/521 701/423/520 705/424/524
f 616/413/454 704/425/523 703/414/522
f 707/342/526 706/344/525 710/343/529
f 616/426/454 709/427/528 708/428/527
f 687/429/506 695/430/514 685/431/504
f 640/432/465 697/433/516 696/434/515
f 686/435/505 675/436/494 674/437/493
f 640/432/465 673/438/492 676/439/495
f 712/440/531 711/441/530 715/442/534
f 640/443/465 714/444/533 713/445/532
f 717/446/536 716/447/535 720/448/539
f 640/449/465 719/450/538 718/451/537
f 299/127/261 634/132/463 306/134/266
f 219/47/204 222/50/206 221/49/205
f 170/452/169 622/453/455 165/454/165
f 206/34/194 209/37/197 207/35/195
f 216/455/202 610/456/452 604/457/448
f 167/458/167 586/459/440 174/452/172
f 2/14/2 167/17/167 165/15/165
f 171/9/170 174/6/172 173/5/171
f 215/43/201 580/48/436 222/50/206
f 171/460/170 574/461/432 628/459/459
f 251/462/227 556/463/425 258/464/232
f 173/460/171 550/461/421 180/465/176
f 177/3/174 180/12/176 179/11/175
f 305/133/265 302/466/263 306/134/266
f 182/467/177 574/461/432 177/468/174
f 252/80/228 249/77/225 248/76/224
f 179/468/175 532/469/412 186/467/180
f 183/21/178 186/24/180 185/23/179
f 218/470/203 514/39/403 213/41/200
f 188/26/181 538/19/416 183/21/178
f 207/471/195 514/39/403 502/472/396
f 185/473/179 490/474/392 192/475/184
f 189/27/182 192/30/184 191/29/183
f 257/85/231 484/90/389 264/92/236
f 194/476/185 508/474/400 189/477/182
f 261/89/234 264/92/236 263/91/235
f 191/477/183 466/478/380 198/476/188
f 195/31/186 198/11/188 197/32/187
f 215/43/201 212/479/199 216/44/202
f 200/480/189 478/478/384 195/481/186
f 336/164/288 333/161/285 332/160/284
f 204/480/192 466/478/380 164/482/164
f 201/8/190 204/5/192 203/6/191
f 2/483/2 460/482/377 201/484/190
f 203/484/191 598/453/444 168/485/168
f 224/486/207 526/487/407 219/488/204
f 431/259/355 428/489/353 432/260/356
f 221/490/205 162/491/162 228/492/210
f 225/53/208 228/56/210 227/55/209
f 255/83/230 161/493/161 160/81/160
f 230/58/211 163/51/163 225/53/208
f 254/82/229 158/494/158 249/495/225
f 234/62/214 162/54/162 157/60/157
f 233/61/213 230/58/211 234/62/214
f 342/496/292 156/162/156 155/497/155
f 236/498/215 159/499/159 231/500/212
f 293/121/257 646/501/467 300/502/262
f 233/503/213 152/504/152 240/505/218
f 237/65/216 240/68/218 239/67/217
f 255/506/230 258/86/232 257/85/231
f 242/70/219 154/63/154 237/65/216
f 294/122/258 291/119/255 290/118/254
f 239/507/217 150/72/150 246/74/222
f 243/71/220 246/508/222 245/509/221
f 243/510/220 502/472/396 151/511/151
f 210/512/198 150/72/150 610/456/452
f 266/513/237 161/493/161 261/514/234
f 384/515/322 148/204/148 147/516/147
f 270/517/240 484/90/389 146/518/146
f 267/95/238 270/98/240 269/97/239
f 296/124/259 144/519/144 291/520/255
f 267/95/238 143/99/143 149/93/149
f 302/130/263 145/123/145 297/125/260
f 269/97/239 141/102/141 276/104/244
f 273/101/242 276/104/244 275/103/243
f 347/175/295 344/521/293 348/176/296
f 273/522/242 140/105/140 143/523/143
f 348/176/296 155/168/155 139/174/139
f 275/524/243 138/525/138 282/526/248
f 279/107/246 282/110/248 281/109/247
f 432/260/356 137/252/137 136/258/136
f 284/112/249 140/105/140 279/107/246
f 299/127/261 296/527/259 300/128/262
f 281/528/247 134/114/134 288/116/252
f 285/113/250 288/529/252 287/530/251
f 248/531/224 135/532/135 285/533/250
f 287/115/251 562/534/429 252/535/228
f 303/131/264 133/536/133 142/129/142
f 374/202/314 377/205/317 375/203/315
f 305/133/265 132/537/132 312/538/270
f 309/137/268 312/140/270 311/139/269
f 344/172/293 130/165/130 339/167/290
f 309/137/268 129/141/129 133/135/133
f 338/166/289 128/539/128 333/540/285
f 311/139/269 127/144/127 318/146/274
f 315/143/272 318/146/274 317/145/273
f 390/218/326 147/210/147 126/216/126
f 315/541/272 125/147/125 129/542/129
f 387/543/324 390/218/326 389/217/325
f 317/544/273 124/150/124 324/152/278
f 321/149/276 324/545/278 323/546/277
f 339/547/290 342/170/292 341/169/291
f 326/154/279 125/147/125 321/149/276
f 121/290/121 119/287/119 122/286/122
f 323/151/277 118/156/118 330/158/282
f 329/548/281 326/154/279 330/549/282
f 290/118/254 123/550/123 327/551/280
f 329/157/281 153/552/153 294/553/258
f 350/554/297 131/171/131 345/173/294
f 115/333/115 113/555/113 116/556/116
f 347/175/295 112/557/112 354/558/300
f 353/181/299 350/178/297 354/182/300
f 386/214/323 110/207/110 381/209/320
f 356/184/301 117/177/117 351/179/298
f 380/208/319 108/559/108 375/560/315
f 353/181/299 107/186/107 360/188/304
f 357/185/302 360/188/304 359/187/303
f 106/296/106 120/561/120 472/294/382
f 357/562/302 105/189/105 109/563/109
f 419/247/347 137/564/137 426/565/352
f 359/566/303 103/192/103 366/194/308
f 363/191/306 366/567/308 365/568/307
f 381/569/320 384/212/322 383/211/321
f 368/196/309 105/189/105 363/191/306
f 420/248/348 417/245/345 416/244/344
f 365/193/307 101/198/101 372/200/312
f 371/570/311 368/196/309 372/571/312
f 332/160/284 102/572/102 369/573/310
f 371/199/311 156/574/156 336/575/288
f 387/215/324 100/576/100 111/213/111
f 98/310/98 96/577/96 99/578/99
f 396/579/330 126/216/126 95/580/95
f 393/221/328 396/224/330 395/223/329
f 417/581/345 94/249/94 93/582/93
f 398/226/331 100/219/100 393/221/328
f 423/251/350 91/255/91 94/249/94
f 395/223/329 90/228/90 402/230/334
f 399/227/332 402/230/334 401/229/333
f 88/286/88 86/289/86 89/290/89
f 399/583/332 85/231/85 92/584/92
f 86/585/86 84/295/84 472/294/382
f 401/586/333 83/234/83 408/236/338
f 405/233/336 408/587/338 407/588/337
f 81/331/81 116/328/116 82/327/82
f 410/238/339 85/231/85 405/233/336
f 425/253/351 422/589/349 426/254/352
f 407/235/337 78/240/78 414/242/342
f 411/239/340 414/590/342 413/591/341
f 374/202/314 79/592/79 411/593/340
f 378/594/318 78/240/78 148/595/148
f 429/257/354 77/596/77 91/255/91
f 75/334/75 74/597/74 76/598/76
f 438/599/360 136/258/136 73/600/73
f 435/263/358 438/266/360 437/265/359
f 72/293/72 71/601/71 70/291/70
f 440/268/361 77/261/77 435/263/358
f 68/292/68 67/602/67 119/603/119
f 444/272/364 73/264/73 66/270/66
f 441/269/362 444/272/364 443/271/363
f 65/604/65 64/307/64 496/306/394
f 441/605/362 63/273/63 69/606/69
f 62/607/62 64/307/64 99/608/99
f 443/609/363 60/276/60 450/278/368
f 449/610/367 446/274/365 450/611/368
f 84/612/84 68/292/68 106/613/106
f 447/275/366 59/279/59 63/273/63
f 57/311/57 65/614/65 58/615/58
f 449/277/367 56/282/56 456/284/373
f 453/281/370 456/616/373 455/617/372
f 453/618/370 93/243/93 59/619/59
f 455/283/372 104/620/104 420/621/348
f 55/298/55 71/622/71 88/623/88
f 53/624/53 51/355/51 50/625/50
f 49/302/49 89/626/89 472/300/382
f 47/627/47 49/302/49 48/301/48
f 47/299/47 67/628/67 54/297/54
f 121/629/121 48/301/48 472/300/382
f 51/355/51 44/630/44 46/631/46
f 57/311/57 42/632/42 97/309/97
f 74/337/74 80/633/80 520/335/406
f 41/319/41 58/313/58 496/312/394
f 40/318/40 43/634/43 41/319/41
f 37/379/37 35/635/35 38/636/38
f 34/637/34 42/315/42 39/317/39
f 32/638/32 30/352/30 46/639/46
f 29/325/29 40/640/40 496/323/394
f 27/641/27 29/325/29 28/324/28
f 27/322/27 96/303/96 33/320/33
f 61/642/61 28/324/28 496/323/394
f 36/378/36 24/643/24 26/644/26
f 75/334/75 22/645/22 114/332/114
f 50/646/50 30/352/30 544/351/419
f 21/647/21 76/336/76 520/335/406
f 19/340/19 21/330/21 20/341/20
f 18/648/18 16/396/16 15/649/15
f 14/343/14 22/650/22 19/651/19
f 11/376/11 26/373/26 12/372/12
f 9/347/9 20/652/20 520/345/406
f 7/653/7 9/347/9 8/346/8
f 7/344/7 113/654/113 13/342/13
f 81/655/81 8/346/8 520/345/406
f 16/396/16 4/656/4 6/657/6
f 52/356/52 649/658/468 45/354/45
f 35/382/35 10/659/10 568/380/431
f 650/364/469 53/358/53 544/357/419
f 652/660/471 650/364/469 651/363/470
f 654/418/473 656/661/475 653/662/472
f 652/362/471 658/663/477 649/360/468
f 660/394/479 6/664/6 659/665/478
f 662/370/481 651/666/470 544/368/419
f 664/667/483 662/370/481 663/369/482
f 664/367/483 44/348/44 658/365/477
f 31/668/31 663/369/482 544/368/419
f 655/417/474 667/669/486 665/670/484
f 37/379/37 669/671/488 25/377/25
f 15/672/15 661/393/480 592/357/442
f 670/673/489 38/381/38 568/380/431
f 671/383/490 668/373/487 670/375/489
f 674/437/493 676/674/495 673/675/492
f 677/385/496 669/676/488 672/677/491
f 680/415/499 665/412/484 679/411/498
f 682/389/501 671/678/490 568/387/431
f 684/679/503 682/389/501 683/388/502
f 684/386/503 24/680/24 678/384/497
f 11/681/11 683/388/502 568/387/431
f 675/436/494 687/682/506 685/683/504
f 17/397/17 689/684/508 5/395/5
f 656/421/475 681/647/500 616/419/454
f 690/403/509 18/399/18 592/398/442
f 692/685/511 690/403/509 691/402/510
f 693/367/512 689/348/508 692/349/511
f 695/686/514 697/433/516 685/687/504
f 698/409/517 691/688/510 592/407/442
f 699/408/518 693/689/512 698/409/517
f 700/406/519 4/390/4 694/404/513
f 660/690/479 699/408/518 592/407/442
f 654/418/473 702/691/521 666/416/485
f 676/439/495 697/433/516 640/432/465
f 703/633/522 653/420/472 616/419/454
f 704/425/523 701/423/520 703/414/522
f 706/344/525 702/654/521 705/692/524
f 708/428/527 704/693/523 616/426/454
f 709/427/528 706/694/525 708/428/527
f 710/343/529 667/650/486 707/342/526
f 680/695/499 709/427/528 616/426/454
f 674/437/493 712/696/531 686/435/505
f 713/445/532 673/697/492 640/443/465
f 714/444/533 711/698/530 713/445/532
f 716/699/535 712/440/531 715/442/534
f 718/451/537 714/700/533 640/449/465
f 720/701/539 718/451/537 719/450/538
f 720/448/539 687/429/506 717/446/536
f 696/702/515 719/450/538 640/449/465
f 169/459/1 181/469/1 193/478/1
f 167/17/167 170/703/169 165/15/165
f 203/704/191 2/14/2 201/705/190
f 166/453/166 196/478/166 184/469/166
f 173/5/171 176/2/173 171/9/170
f 179/11/175 182/706/177 177/3/174
f 185/23/179 188/26/181 183/21/178
f 191/707/183 194/3/185 189/706/182
f 197/32/187 200/9/189 195/31/186
f 235/708/193 205/472/193 217/487/193
f 207/35/195 216/709/202 212/710/199
f 245/711/221 206/34/194 243/712/220
f 214/457/196 244/72/196 232/713/196
f 215/43/201 218/46/203 213/714/200
f 221/49/205 224/715/207 219/47/204
f 225/53/208 234/62/214 230/58/211
f 233/716/213 236/64/215 231/717/212
f 239/67/217 242/70/219 237/65/216
f 277/718/223 247/494/223 259/493/223
f 251/79/227 254/719/229 249/77/225
f 285/720/250 252/80/228 248/76/224
f 262/721/226 250/534/226 280/525/226
f 255/506/230 264/92/236 260/88/233
f 263/91/235 266/722/237 261/89/234
f 269/97/239 272/100/241 267/95/238
f 275/723/243 278/106/245 273/522/242
f 281/109/247 284/112/249 279/107/246
f 313/724/253 325/725/253 295/123/253
f 293/121/257 296/726/259 291/119/255
f 327/551/280 294/122/258 290/118/254
f 310/727/256 298/728/256 328/156/256
f 299/127/261 302/466/263 297/729/260
f 303/730/264 312/538/270 308/731/267
f 311/139/269 314/142/271 309/137/268
f 315/541/272 324/545/278 320/148/275
f 321/149/276 330/549/282 326/154/279
f 355/732/283 367/733/283 337/165/283
f 333/161/285 342/496/292 338/734/289
f 371/735/311 332/160/284 369/573/310
f 340/736/286 370/198/286 358/737/286
f 339/547/290 348/176/296 344/521/293
f 347/175/295 350/738/297 345/739/294
f 351/179/298 360/188/304 356/184/301
f 359/740/303 362/190/305 357/562/302
f 363/191/306 372/571/312 368/196/309
f 403/741/313 373/559/313 385/213/313
f 377/205/317 380/742/319 375/203/315
f 411/593/340 378/206/318 374/202/314
f 388/743/316 376/595/316 406/234/316
f 383/211/321 386/744/323 381/569/320
f 389/217/325 392/745/327 387/543/324
f 395/223/329 398/226/331 393/221/328
f 401/746/333 404/232/335 399/583/332
f 407/588/337 410/238/339 405/233/336
f 439/747/343 451/748/343 421/249/343
f 419/247/347 422/749/349 417/245/345
f 453/618/370 420/248/348 416/244/344
f 418/620/346 448/276/346 436/750/346
f 425/253/351 428/489/353 423/751/350
f 431/259/355 434/752/357 429/753/354
f 435/263/358 444/272/364 440/268/361
f 443/754/363 446/274/365 441/605/362
f 449/610/367 452/280/369 447/275/366
f 457/628/374 469/622/374 475/297/374
f 459/287/376 468/755/378 464/756/376
f 477/757/375 462/290/375 458/286/375
f 467/755/379 470/287/379 465/758/379
f 473/290/383 476/757/381 471/286/381
f 493/759/386 481/303/386 487/760/386
f 485/307/390 488/761/388 483/608/388
f 503/762/387 482/304/387 501/322/387
f 491/313/391 494/634/391 489/763/391
f 495/317/393 504/764/395 500/637/393
f 505/654/397 517/650/397 523/342/397
f 507/328/399 516/765/399 512/766/399
f 525/767/398 510/331/401 506/327/398
f 513/768/402 522/330/404 518/339/402
f 521/341/405 524/769/405 519/340/405
f 541/360/409 529/770/409 535/771/409
f 533/352/413 536/772/411 531/639/411
f 551/773/414 530/349/410 549/367/410
f 537/774/415 546/364/417 542/664/415
f 543/362/418 552/775/418 548/776/418
f 565/676/422 553/680/422 559/777/422
f 555/373/424 564/778/426 560/779/424
f 575/780/427 554/372/423 573/781/423
f 561/779/428 570/375/428 566/373/428
f 569/383/430 572/781/430 567/372/430
f 589/782/433 577/390/433 583/783/433
f 581/393/437 584/774/435 579/664/435
f 597/406/434 582/784/438 578/391/434
f 585/785/439 594/403/439 590/786/439
f 591/349/441 600/773/443 596/367/441
f 613/654/445 601/650/445 607/787/445
f 603/412/447 612/788/449 608/789/447
f 621/790/446 606/415/450 602/411/446
f 611/788/451 614/423/451 609/791/451
f 615/424/453 624/792/453 620/793/453
f 637/794/456 625/429/456 631/795/456
f 629/433/460 632/796/458 627/687/458
f 645/448/457 630/797/461 626/430/457
f 633/798/462 642/445/462 638/698/462
f 639/442/464 648/799/466 644/699/464
f 299/127/261 646/126/467 634/132/463
f 219/47/204 218/46/203 222/50/206
f 170/452/169 628/459/459 622/453/455
f 206/34/194 210/38/198 209/37/197
f 216/455/202 209/800/197 610/456/452
f 167/458/167 598/453/444 586/459/440
f 2/14/2 168/18/168 167/17/167
f 171/9/170 170/8/169 174/6/172
f 215/43/201 604/42/448 580/48/436
f 171/460/170 176/801/173 574/461/432
f 251/462/227 562/534/429 556/463/425
f 173/460/171 586/459/440 550/461/421
f 177/3/174 176/2/173 180/12/176
f 305/133/265 303/730/264 302/466/263
f 182/467/177 538/469/416 574/461/432
f 252/80/228 251/79/227 249/77/225
f 179/468/175 550/461/421 532/469/412
f 183/21/178 182/20/177 186/24/180
f 218/470/203 526/487/407 514/39/403
f 188/26/181 508/25/400 538/19/416
f 207/471/195 212/40/199 514/39/403
f 185/473/179 532/469/412 490/474/392
f 189/27/182 188/26/181 192/30/184
f 257/85/231 556/84/425 484/90/389
f 194/476/185 478/478/384 508/474/400
f 261/89/234 260/88/233 264/92/236
f 191/477/183 490/474/392 466/478/380
f 195/31/186 194/3/185 198/11/188
f 215/43/201 213/714/200 212/479/199
f 200/480/189 460/482/377 478/478/384
f 336/164/288 335/163/287 333/161/285
f 204/480/192 197/802/187 466/478/380
f 201/8/190 200/9/189 204/5/192
f 2/483/2 622/453/455 460/482/377
f 203/484/191 164/482/164 598/453/444
f 224/486/207 163/803/163 526/487/407
f 431/259/355 429/753/354 428/489/353
f 221/490/205 580/804/436 162/491/162
f 225/53/208 224/52/207 228/56/210
f 255/83/230 260/805/233 161/493/161
f 230/58/211 159/57/159 163/51/163
f 254/82/229 160/81/160 158/494/158
f 234/62/214 227/55/209 162/54/162
f 233/61/213 231/59/212 230/58/211
f 342/496/292 335/163/287 156/162/156
f 236/498/215 154/708/154 159/499/159
f 293/121/257 153/120/153 646/501/467
f 233/503/213 157/713/157 152/504/152
f 237/65/216 236/64/215 240/68/218
f 255/506/230 254/806/229 258/86/232
f 242/70/219 151/69/151 154/63/154
f 294/122/258 293/121/257 291/119/255
f 239/507/217 152/504/152 150/72/150
f 243/71/220 242/70/219 246/508/222
f 243/510/220 206/807/194 502/472/396
f 210/512/198 245/73/221 150/72/150
f 266/513/237 149/808/149 161/493/161
f 384/515/322 377/205/317 148/204/148
f 270/517/240 263/91/235 484/90/389
f 267/95/238 266/94/237 270/98/240
f 296/124/259 145/123/145 144/519/144
f 267/95/238 272/100/241 143/99/143
f 302/130/263 142/129/142 145/123/145
f 269/97/239 146/96/146 141/102/141
f 273/101/242 272/100/241 276/104/244
f 347/175/295 345/739/294 344/521/293
f 273/522/242 278/106/245 140/105/140
f 348/176/296 341/169/291 155/168/155
f 275/524/243 141/809/141 138/525/138
f 279/107/246 278/106/245 282/110/248
f 432/260/356 425/253/351 137/252/137
f 284/112/249 135/111/135 140/105/140
f 299/127/261 297/729/260 296/527/259
f 281/528/247 138/525/138 134/114/134
f 285/113/250 284/112/249 288/529/252
f 248/531/224 158/494/158 135/532/135
f 287/115/251 134/114/134 562/534/429
f 303/131/264 308/810/267 133/536/133
f 374/202/314 378/206/318 377/205/317
f 305/133/265 634/132/463 132/537/132
f 309/137/268 308/136/267 312/140/270
f 344/172/293 131/171/131 130/165/130
f 309/137/268 314/142/271 129/141/129
f 338/166/289 130/165/130 128/539/128
f 311/139/269 132/138/132 127/144/127
f 315/143/272 314/142/271 318/146/274
f 390/218/326 383/211/321 147/210/147
f 315/541/272 320/148/275 125/147/125
f 387/543/324 386/744/323 390/218/326
f 317/544/273 127/811/127 124/150/124
f 321/149/276 320/148/275 324/545/278
f 339/547/290 338/812/289 342/170/292
f 326/154/279 123/153/123 125/147/125
f 121/290/121 120/289/120 119/287/119
f 323/151/277 124/150/124 118/156/118
f 329/548/281 327/155/280 326/154/279
f 290/118/254 144/117/144 123/550/123
f 329/157/281 118/156/118 153/552/153
f 350/554/297 117/813/117 131/171/131
f 115/333/115 114/332/114 113/555/113
f 347/175/295 139/174/139 112/557/112
f 353/181/299 351/179/298 350/178/297
f 386/214/323 111/213/111 110/207/110
f 356/184/301 109/183/109 117/177/117
f 380/208/319 110/207/110 108/559/108
f 353/181/299 112/180/112 107/186/107
f 357/185/302 356/184/301 360/188/304
f 357/562/302 362/190/305 105/189/105
f 419/247/347 104/246/104 137/564/137
f 359/566/303 107/737/107 103/192/103
f 363/191/306 362/190/305 366/567/308
f 381/569/320 380/814/319 384/212/322
f 368/196/309 102/195/102 105/189/105
f 420/248/348 419/247/347 417/245/345
f 365/193/307 103/192/103 101/198/101
f 371/570/311 369/197/310 368/196/309
f 332/160/284 128/159/128 102/572/102
f 371/199/311 101/198/101 156/574/156
f 387/215/324 392/815/327 100/576/100
f 98/310/98 97/309/97 96/577/96
f 396/579/330 389/217/325 126/216/126
f 393/221/328 392/220/327 396/224/330
f 417/581/345 422/250/349 94/249/94
f 398/226/331 92/225/92 100/219/100
f 423/251/350 428/256/353 91/255/91
f 395/223/329 95/222/95 90/228/90
f 399/227/332 398/226/331 402/230/334
f 88/286/88 87/287/87 86/289/86
f 399/583/332 404/232/335 85/231/85
f 401/586/333 90/816/90 83/234/83
f 405/233/336 404/232/335 408/587/338
f 81/331/81 80/330/80 116/328/116
f 410/238/339 79/237/79 85/231/85
f 425/253/351 423/751/350 422/589/349
f 407/235/337 83/234/83 78/240/78
f 411/239/340 410/238/339 414/590/342
f 374/202/314 108/201/108 79/592/79
f 378/594/318 413/241/341 78/240/78
f 429/257/354 434/817/357 77/596/77
f 75/334/75 115/333/115 74/597/74
f 438/599/360 431/259/355 136/258/136
f 435/263/358 434/262/357 438/266/360
f 72/293/72 87/818/87 71/601/71
f 440/268/361 69/267/69 77/261/77
f 68/292/68 70/291/70 67/602/67
f 444/272/364 437/265/359 73/264/73
f 441/269/362 440/268/361 444/272/364
f 441/605/362 446/274/365 63/273/63
f 62/607/62 61/308/61 64/307/64
f 443/609/363 66/819/66 60/276/60
f 449/610/367 447/275/366 446/274/365
f 84/612/84 72/293/72 68/292/68
f 447/275/366 452/280/369 59/279/59
f 57/311/57 98/310/98 65/614/65
f 449/277/367 60/276/60 56/282/56
f 453/281/370 452/280/369 456/616/373
f 453/618/370 416/244/344 93/243/93
f 455/283/372 56/282/56 104/620/104
f 55/298/55 54/297/54 71/622/71
f 53/624/53 52/356/52 51/355/51
f 47/627/47 55/820/55 49/302/49
f 47/299/47 122/821/122 67/628/67
f 51/355/51 45/354/45 44/630/44
f 57/311/57 43/822/43 42/632/42
f 40/318/40 39/823/39 43/634/43
f 37/379/37 36/378/36 35/635/35
f 34/637/34 33/824/33 42/315/42
f 32/638/32 31/353/31 30/352/30
f 27/641/27 34/825/34 29/325/29
f 27/322/27 62/304/62 96/303/96
f 36/378/36 25/377/25 24/643/24
f 75/334/75 23/826/23 22/645/22
f 19/340/19 23/339/23 21/330/21
f 18/648/18 17/397/17 16/396/16
f 14/343/14 13/342/13 22/650/22
f 11/376/11 10/375/10 26/373/26
f 7/653/7 14/827/14 9/347/9
f 7/344/7 82/828/82 113/654/113
f 16/396/16 5/395/5 4/656/4
f 52/356/52 3/829/3 649/658/468
f 652/660/471 3/664/3 650/364/469
f 654/418/473 655/417/474 656/661/475
f 652/362/471 657/776/476 658/663/477
f 660/394/479 661/393/480 6/664/6
f 664/667/483 657/830/476 662/370/481
f 664/367/483 32/349/32 44/348/44
f 655/417/474 666/416/485 667/669/486
f 37/379/37 668/831/487 669/671/488
f 671/383/490 672/372/491 668/373/487
f 674/437/493 675/436/494 676/674/495
f 677/385/496 678/384/497 669/676/488
f 680/415/499 681/414/500 665/412/484
f 684/679/503 677/832/496 682/389/501
f 684/386/503 12/833/12 24/680/24
f 675/436/494 686/435/505 687/682/506
f 17/397/17 688/834/507 689/684/508
f 692/685/511 688/786/507 690/403/509
f 693/367/512 694/365/513 689/348/508
f 695/686/514 696/434/515 697/433/516
f 699/408/518 700/835/519 693/689/512
f 700/406/519 659/391/478 4/390/4
f 654/418/473 701/836/520 702/691/521
f 704/425/523 705/424/524 701/423/520
f 706/344/525 707/342/526 702/654/521
f 709/427/528 710/837/529 706/694/525
f 710/343/529 679/838/498 667/650/486
f 674/437/493 711/839/530 712/696/531
f 714/444/533 715/840/534 711/698/530
f 716/699/535 717/841/536 712/440/531
f 720/701/539 716/842/535 718/451/537
f 720/448/539 695/430/514 687/429/506
f 199/482/1 1/453/1 169/459/1
f 169/459/1 175/461/1 181/469/1
f 181/469/1 187/474/1 193/478/1
f 193/478/1 199/482/1 169/459/1
f 167/17/167 174/843/172 170/703/169
f 203/704/191 168/18/168 2/14/2
f 178/461/166 172/459/166 166/453/166
f 166/453/166 202/482/166 196/478/166
f 196/478/166 190/474/166 184/469/166
f 184/469/166 178/461/166 166/453/166
f 173/5/171 180/12/176 176/2/173
f 179/11/175 186/707/180 182/706/177
f 185/23/179 192/30/184 188/26/181
f 191/707/183 198/11/188 194/3/185
f 197/32/187 204/5/192 200/9/189
f 223/803/193 229/499/193 235/708/193
f 235/708/193 241/511/193 205/472/193
f 205/472/193 211/39/193 217/487/193
f 217/487/193 223/803/193 235/708/193
f 207/35/195 209/37/197 216/709/202
f 245/711/221 210/38/198 206/34/194
f 226/491/196 220/804/196 214/457/196
f 214/457/196 208/456/196 244/72/196
f 244/72/196 238/504/196 232/713/196
f 232/713/196 226/491/196 214/457/196
f 215/43/201 222/50/206 218/46/203
f 221/49/205 228/844/210 224/715/207
f 225/53/208 227/55/209 234/62/214
f 233/716/213 240/68/218 236/64/215
f 239/67/217 246/508/222 242/70/219
f 265/808/223 271/845/223 277/718/223
f 277/718/223 283/532/223 247/494/223
f 247/494/223 253/81/223 259/493/223
f 259/493/223 265/808/223 277/718/223
f 251/79/227 258/846/232 254/719/229
f 285/720/250 287/847/251 252/80/228
f 274/809/226 268/848/226 262/721/226
f 262/721/226 256/463/226 250/534/226
f 250/534/226 286/114/226 280/525/226
f 280/525/226 274/809/226 262/721/226
f 255/506/230 257/85/231 264/92/236
f 263/91/235 270/517/240 266/722/237
f 269/97/239 276/104/244 272/100/241
f 275/723/243 282/110/248 278/106/245
f 281/109/247 288/529/252 284/112/249
f 301/129/253 307/536/253 313/724/253
f 313/724/253 319/849/253 325/725/253
f 325/725/253 289/519/253 295/123/253
f 295/123/253 301/129/253 313/724/253
f 293/121/257 300/502/262 296/726/259
f 327/551/280 329/850/281 294/122/258
f 322/150/256 316/811/256 310/727/256
f 310/727/256 304/851/256 298/728/256
f 298/728/256 292/552/256 328/156/256
f 328/156/256 322/150/256 310/727/256
f 299/127/261 306/134/266 302/466/263
f 303/730/264 305/133/265 312/538/270
f 311/139/269 318/146/274 314/142/271
f 315/541/272 317/852/273 324/545/278
f 321/149/276 323/546/277 330/549/282
f 343/171/283 349/813/283 355/732/283
f 355/732/283 361/853/283 367/733/283
f 367/733/283 331/539/283 337/165/283
f 337/165/283 343/171/283 355/732/283
f 333/161/285 335/163/287 342/496/292
f 371/735/311 336/164/288 332/160/284
f 352/854/286 346/855/286 340/736/286
f 340/736/286 334/574/286 370/198/286
f 370/198/286 364/192/286 358/737/286
f 358/737/286 352/854/286 340/736/286
f 339/547/290 341/169/291 348/176/296
f 347/175/295 354/558/300 350/738/297
f 351/179/298 353/181/299 360/188/304
f 359/740/303 366/567/308 362/190/305
f 363/191/306 365/568/307 372/571/312
f 391/576/313 397/856/313 403/741/313
f 403/741/313 409/857/313 373/559/313
f 373/559/313 379/207/313 385/213/313
f 385/213/313 391/576/313 403/741/313
f 377/205/317 384/515/322 380/742/319
f 411/593/340 413/858/341 378/206/318
f 400/816/316 394/859/316 388/743/316
f 388/743/316 382/860/316 376/595/316
f 376/595/316 412/240/316 406/234/316
f 406/234/316 400/816/316 388/743/316
f 383/211/321 390/218/326 386/744/323
f 389/217/325 396/579/330 392/745/327
f 395/223/329 402/230/334 398/226/331
f 401/746/333 408/587/338 404/232/335
f 407/588/337 414/590/342 410/238/339
f 427/255/343 433/596/343 439/747/343
f 439/747/343 445/861/343 451/748/343
f 451/748/343 415/582/343 421/249/343
f 421/249/343 427/255/343 439/747/343
f 419/247/347 426/565/352 422/749/349
f 453/618/370 455/862/372 420/248/348
f 430/863/346 424/864/346 418/620/346
f 418/620/346 454/282/371 448/276/346
f 448/276/346 442/819/346 436/750/346
f 436/750/346 430/863/346 418/620/346
f 425/253/351 432/260/356 428/489/353
f 431/259/355 438/599/360 434/752/357
f 435/263/358 437/265/359 444/272/364
f 443/754/363 450/611/368 446/274/365
f 449/610/367 456/616/373 452/280/369
f 457/628/374 463/865/374 469/622/374
f 459/287/376 461/289/378 468/755/378
f 477/757/375 479/866/375 462/290/375
f 467/755/379 474/289/379 470/287/379
f 473/290/383 480/866/385 476/757/381
f 493/759/386 499/320/386 481/303/386
f 485/307/390 492/604/390 488/761/388
f 503/762/387 486/867/387 482/304/387
f 491/313/391 498/319/391 494/634/391
f 495/317/393 497/868/395 504/764/395
f 505/654/397 511/787/397 517/650/397
f 507/328/399 509/330/399 516/765/399
f 525/767/398 527/869/408 510/331/401
f 513/768/402 515/765/404 522/330/404
f 521/341/405 528/869/405 524/769/405
f 541/360/409 547/663/409 529/770/409
f 533/352/413 540/646/413 536/772/411
f 551/773/414 534/870/414 530/349/410
f 537/774/415 539/358/417 546/364/417
f 543/362/418 545/871/420 552/775/418
f 565/676/422 571/384/422 553/680/422
f 555/373/424 557/375/426 564/778/426
f 575/780/427 558/376/427 554/372/423
f 561/779/428 563/778/428 570/375/428
f 569/383/430 576/780/430 572/781/430
f 589/782/433 595/404/433 577/390/433
f 581/393/437 588/672/437 584/774/435
f 597/406/434 599/872/438 582/784/438
f 585/785/439 587/399/439 594/403/439
f 591/349/441 593/873/443 600/773/443
f 613/654/445 619/342/445 601/650/445
f 603/412/447 605/414/449 612/788/449
f 621/790/446 623/792/450 606/415/450
f 611/788/451 618/414/451 614/423/451
f 615/424/453 617/425/453 624/792/453
f 637/794/456 643/446/456 625/429/456
f 629/433/460 636/439/460 632/796/458
f 645/448/457 647/874/461 630/797/461
f 633/798/462 635/697/462 642/445/462
f 639/442/464 641/875/466 648/799/466
