# Blender 5.2.0 LTS
# www.blender.org
o Backdrop_SplashBucket_Detail
v -18.722672 62.000000 9.322790
v -19.693592 63.080002 9.806244
v -9.496369 -0.958070 20.423405
v -10.659934 0.001837 20.799238
v -16.690832 66.000000 12.604324
v -17.556379 64.919998 13.257963
v -19.035231 54.744690 7.066405
v -18.272760 53.623798 6.305624
v -16.690832 62.000000 12.604324
v -17.556379 63.080002 13.257963
v -6.980806 -0.458299 -20.322094
v -6.246370 0.878676 -20.621496
v -14.090596 66.000000 15.456647
v -14.821303 64.919998 16.258196
v -14.090596 62.000000 15.456647
v -14.821303 63.080002 16.258196
v -21.019190 54.752701 9.130270
v -21.753632 53.637867 9.926679
v -11.010525 66.000000 17.782610
v -11.581508 64.919998 18.704777
v 21.019192 54.752697 9.130269
v 21.213776 54.566849 8.411922
v 22.095024 53.311771 8.666340
v 21.753630 53.637867 9.926677
v -11.010525 62.000000 17.782610
v -11.581508 63.080002 18.704777
v -7.555510 66.000000 19.503002
v -7.947317 64.919998 20.514389
v -6.980807 -0.752704 18.869732
v -6.246371 0.362135 18.073324
v -7.555510 62.000000 19.503002
v -7.947317 63.080002 20.514389
v -3.843189 66.000000 20.559248
v -4.042489 64.919998 21.625408
v -3.843189 62.000000 20.559248
v -4.042489 63.080002 21.625408
v -9.690951 -1.143923 19.705057
v -11.001323 -0.324258 19.538902
v -0.000000 66.000000 20.915373
v 0.000000 64.919998 22.000000
v -18.503628 54.958069 7.576599
v -17.340065 53.998165 7.200761
v 0.000000 62.000000 20.915373
v 0.000000 63.080002 22.000000
v 3.843189 66.000000 20.559248
v 4.042489 64.919998 21.625408
v 3.843189 62.000000 20.559248
v 4.042489 63.080002 21.625408
v -21.213776 54.566853 8.411921
v -22.095022 53.311771 8.666339
v 7.555510 66.000000 19.503002
v 7.947317 64.919998 20.514389
v 7.555510 62.000000 19.503002
v 7.947317 63.080002 20.514389
v 11.010525 66.000000 17.782610
v 11.581508 64.919998 18.704777
v -6.786226 -0.566850 19.588078
v -5.904978 0.688231 19.333662
v 11.010525 62.000000 17.782610
v 11.581508 63.080002 18.704777
v 1.959493 65.362335 -19.576275
v 1.389069 64.464310 -20.403671
v -19.761415 54.560986 -6.901068
v -19.546848 53.301472 -6.015546
v -1.268116 66.803688 -18.570532
v -1.974947 65.966583 -19.355419
v 20.487589 54.456150 7.124895
v 19.761415 54.560986 6.901068
v 19.546848 53.301472 6.015546
v 20.820934 53.117558 6.408246
v -4.272022 68.145164 -16.932388
v -5.105825 67.364746 -17.648039
v -0.000000 62.000000 -20.915373
v 0.000000 63.080002 -22.000000
v -6.949935 69.341026 -14.717643
v -7.896912 68.611176 -15.339684
v 8.964772 -0.744688 -20.933592
v 9.496369 -0.958070 -20.423405
v 10.659934 0.001837 -20.799238
v 9.727239 0.376200 -21.694374
v -9.210658 70.350624 -12.001694
v -10.253200 69.663429 -12.508936
v -19.761415 54.560982 6.901069
v -19.546848 53.301472 6.015548
v -10.977217 71.139511 -8.877047
v -12.094408 70.485657 -9.252240
v 0.000000 66.000000 -20.915373
v 0.000000 64.919998 -22.000000
v 20.116941 62.000000 -5.723762
v 21.160164 63.080002 -6.020586
v -12.189445 71.680855 -5.450099
v -13.357868 71.049896 -5.680443
v 9.690951 -1.143923 19.705057
v 9.496369 -0.958070 20.423405
v 10.659934 0.001837 20.799238
v 11.001324 -0.324258 19.538902
v -12.806045 71.956223 -1.837566
v -14.000532 71.336884 -1.915237
v 20.116941 66.000000 -5.723762
v 21.160164 64.919998 -6.020586
v -12.806045 71.956223 1.837566
v -14.000538 71.336884 1.915238
v -8.238591 -1.149793 -18.194204
v -8.453150 -0.334555 -16.888105
v -12.189445 71.680855 5.450099
v -13.357866 71.049896 5.680442
v 3.843189 62.000000 -20.559248
v 4.042489 63.080002 -21.625408
v -8.238591 -1.149793 18.194204
v -8.453151 -0.334554 16.888107
v -10.977217 71.139511 8.877047
v -12.094407 70.485672 9.252240
v -19.761412 55.149796 9.805794
v -19.035231 55.254620 9.581972
v -18.272762 54.518475 10.719190
v -19.546848 54.334553 11.111892
v 20.826151 62.000000 -1.929826
v 21.906151 63.080002 -2.029904
v -9.210659 70.350624 12.001694
v -10.253199 69.663429 12.508936
v 3.843189 66.000000 -20.559248
v 4.042489 64.919998 -21.625408
v -6.980806 -0.458299 20.322094
v -6.246369 0.878676 20.621496
v -6.949934 69.341026 14.717643
v -7.896912 68.611176 15.339684
v 20.826151 66.000000 -1.929826
v 21.906151 64.919998 -2.029904
v -4.272024 68.145157 16.932388
v -5.105822 67.364746 17.648035
v -1.268113 66.803688 18.570532
v -1.974946 65.966583 19.355419
v 7.555510 62.000000 -19.503002
v 7.947317 63.080002 -20.514389
v 1.959491 65.362328 19.576275
v 1.389069 64.464310 20.403669
v 20.826151 62.000000 1.929826
v 21.906151 63.080002 2.029904
v 5.300888 63.870155 19.915373
v 4.871691 62.909065 20.757099
v 7.555510 66.000000 -19.503002
v 7.947317 64.919998 -20.514389
v 8.642280 62.377979 19.576275
v 8.354311 61.353821 20.403669
v 20.826151 66.000000 1.929826
v 21.906151 64.919998 2.029904
v 11.869891 60.936615 18.570530
v 11.718335 59.851543 19.355415
v 14.873795 59.595161 16.932392
v 14.849197 58.453384 17.648043
v 11.010525 62.000000 -17.782610
v 11.581508 63.080002 -18.704777
v -20.487589 54.456146 7.124895
v -21.019194 54.458302 7.677905
v -21.753630 53.121326 7.378503
v -20.820934 53.117558 6.408244
v 17.551708 58.399281 14.717641
v 17.640293 57.206955 15.339681
v -7.512408 -0.456151 20.875105
v -8.238585 -0.560981 21.098930
v -8.453149 0.698527 21.984453
v -7.179065 0.882445 21.591755
v 20.116941 62.000000 5.723762
v 21.160164 63.080002 6.020586
v 19.812435 57.389694 12.001694
v 19.996576 56.154705 12.508942
v 11.010525 66.000000 -17.782610
v 11.581508 64.919998 -18.704777
v 21.578989 56.600800 8.877049
v 21.837790 55.332470 9.252239
v 20.116941 66.000000 5.723762
v 21.160164 64.919998 6.020586
v 22.791214 56.059452 5.450093
v 23.101244 54.768242 5.680449
v -19.035231 54.744690 -7.066405
v -18.503628 54.958069 -7.576599
v -17.340065 53.998165 -7.200761
v -18.272762 53.623798 -6.305624
v 23.407824 55.784096 1.837559
v 23.743919 54.481247 1.915227
v 14.090596 62.000000 -15.456647
v 14.821303 63.080002 -16.258196
v 23.407824 55.784096 -1.837559
v 23.743919 54.481247 -1.915227
v -19.035231 55.254616 -9.581972
v -19.761412 55.149796 -9.805794
v -19.546848 54.334553 -11.111890
v -18.272762 54.518475 -10.719190
v 18.722672 62.000000 9.322790
v 19.693592 63.080002 9.806244
v 22.791214 56.059452 -5.450093
v 23.101248 54.768250 -5.680450
v 14.090596 66.000000 -15.456647
v 14.821303 64.919998 -16.258196
v -18.503628 55.252476 9.028958
v -18.309048 55.143925 8.294944
v -16.998674 54.324261 8.461098
v -17.340065 54.514706 9.748933
v 21.578989 56.600800 -8.877049
v 21.837791 55.332474 -9.252240
v 18.722672 66.000000 9.322790
v 19.693592 64.919998 9.806244
v 19.812435 57.389694 -12.001694
v 19.996574 56.154705 -12.508941
v 17.551706 58.399277 -14.717641
v 17.640293 57.206955 -15.339683
v 16.690832 62.000000 -12.604324
v 18.722672 62.000000 -9.322790
v 19.693592 63.080002 -9.806244
v 17.556379 63.080002 -13.257963
v -9.496370 -1.252475 18.971041
v -8.964768 -1.254622 18.418030
v -9.727238 -0.518473 17.280809
v -10.659934 -0.514703 18.251070
v 14.873794 59.595158 -16.932392
v 14.849198 58.453384 -17.648045
v 16.690832 62.000000 12.604324
v 14.090596 62.000000 15.456647
v 14.821303 63.080002 16.258196
v 17.556379 63.080002 13.257963
v 11.869891 60.936615 -18.570530
v 11.718334 59.851543 -19.355415
v 18.722672 66.000000 -9.322790
v 16.690832 66.000000 -12.604324
v 17.556379 64.919998 -13.257963
v 19.693592 64.919998 -9.806244
v -6.786226 -0.566850 -19.588078
v -5.904978 0.688231 -19.333662
v 8.642281 62.377983 -19.576275
v 5.300887 63.870155 -19.915373
v 4.871691 62.909069 -20.757099
v 8.354313 61.353828 -20.403671
v -6.980807 -0.752704 -18.869732
v -7.512407 -0.966086 -18.359541
v -7.179066 -0.012228 -17.178188
v -6.246369 0.362135 -18.073322
v 14.090596 66.000000 15.456647
v 16.690832 66.000000 12.604324
v 17.556379 64.919998 13.257963
v 14.821303 64.919998 16.258196
v -20.920000 46.419998 3.000000
v -20.920000 47.500000 1.920000
v -22.000000 46.419998 1.920000
v -20.920000 44.500000 1.920000
v -20.920000 45.580002 3.000000
v -22.000000 45.580002 1.920000
v -5.300887 40.129845 -13.915373
v -4.871691 41.090935 -15.242901
v 5.300887 63.870155 -19.915373
v 4.871691 62.909069 -20.757099
v -2.966174 39.087219 -13.678438
v -2.314243 39.948853 -14.983363
v 8.642281 62.377983 -19.576275
v 8.354313 61.353828 -20.403671
v -0.710957 38.080112 -12.975698
v 0.156118 38.845654 -14.213582
v 11.869891 60.936615 -18.570530
v 11.718334 59.851543 -19.355415
v 1.387949 37.142792 -11.831086
v 2.455256 37.818920 -12.959776
v 14.873794 59.595158 -16.932392
v 14.849198 58.453384 -17.648045
v 3.259066 36.307201 -10.283588
v 4.504891 36.903610 -11.264640
v 17.551706 58.399277 -14.717641
v 17.640293 57.206955 -15.339683
v 4.838697 35.601788 -8.385890
v 6.235209 36.130894 -9.185903
v 19.812435 57.389694 -12.001694
v 19.996574 56.154705 -12.508941
v 6.073033 35.050564 -6.202617
v 7.587304 35.527088 -6.794343
v 21.578989 56.600800 -8.877049
v 21.837791 55.332474 -9.252240
v 6.920044 34.672310 -3.808122
v 8.515114 35.112751 -4.171430
v 22.791214 56.059452 -5.450093
v 23.101248 54.768250 -5.680450
v 7.350883 34.479908 -1.283948
v 8.987060 34.901993 -1.406434
v 23.407824 55.784096 -1.837559
v 23.743919 54.481247 -1.915227
v 7.350884 34.479912 1.283948
v 8.987059 34.901993 1.406434
v 23.407824 55.784096 1.837559
v 23.743919 54.481247 1.915227
v 6.920044 34.672310 3.808122
v 8.515117 35.112751 4.171430
v 22.791214 56.059452 5.450093
v 23.101244 54.768242 5.680449
v 6.073033 35.050564 6.202617
v 7.587303 35.527084 6.794343
v 21.578989 56.600800 8.877049
v 21.837790 55.332470 9.252239
v 4.838696 35.601784 8.385890
v 6.235210 36.130894 9.185904
v 19.812435 57.389694 12.001694
v 19.996576 56.154705 12.508942
v 3.259065 36.307198 10.283588
v 4.504890 36.903610 11.264639
v 17.551708 58.399281 14.717641
v 17.640293 57.206955 15.339681
v 1.387949 37.142796 11.831086
v 2.455257 37.818920 12.959776
v 14.873795 59.595161 16.932392
v 14.849197 58.453384 17.648043
v -0.710957 38.080112 12.975698
v 0.156117 38.845650 14.213580
v 11.869891 60.936615 18.570530
v 11.718335 59.851543 19.355415
v -2.966175 39.087219 13.678438
v -2.314244 39.948845 14.983360
v 8.642280 62.377979 19.576275
v 8.354311 61.353821 20.403669
v -5.300888 40.129845 13.915373
v -4.871692 41.090931 15.242900
v 5.300888 63.870155 19.915373
v 4.871691 62.909065 20.757099
v -7.635602 41.172462 13.678438
v -7.429144 42.233021 14.983360
v 1.959491 65.362328 19.576275
v 1.389069 64.464310 20.403669
v -9.890816 42.179581 12.975698
v -9.899495 43.336212 14.213580
v -1.268113 66.803688 18.570532
v -1.974946 65.966583 19.355419
v -11.989719 43.116898 11.831088
v -12.198635 44.362946 12.959775
v -4.272024 68.145157 16.932388
v -5.105822 67.364746 17.648035
v -13.860853 43.952480 10.283581
v -14.248270 45.278259 11.264636
v -6.949934 69.341026 14.717643
v -7.896912 68.611176 15.339684
v -15.440472 44.657909 8.385884
v -15.978593 46.050972 9.185900
v -9.210659 70.350624 12.001694
v -10.253199 69.663429 12.508936
v -16.674807 45.209129 6.202614
v -17.330681 46.654778 6.794354
v -10.977217 71.139511 8.877047
v -12.094407 70.485672 9.252240
v -17.521820 45.587376 3.808121
v -18.258505 47.069118 4.171412
v -12.189445 71.680855 5.450099
v -13.357866 71.049896 5.680442
v -17.952658 45.779781 1.283943
v -18.730438 47.279873 1.406443
v -12.806045 71.956223 1.837566
v -14.000538 71.336884 1.915238
v -17.952658 45.779781 -1.283943
v -18.730440 47.279873 -1.406443
v -12.806045 71.956223 -1.837566
v -14.000532 71.336884 -1.915237
v -17.521820 45.587376 -3.808121
v -18.258501 47.069118 -4.171411
v -12.189445 71.680855 -5.450099
v -13.357868 71.049896 -5.680443
v -16.674807 45.209133 -6.202614
v -17.330681 46.654774 -6.794354
v -10.977217 71.139511 -8.877047
v -12.094408 70.485657 -9.252240
v -15.440472 44.657906 -8.385884
v -15.978593 46.050972 -9.185900
v -9.210658 70.350624 -12.001694
v -10.253200 69.663429 -12.508936
v -13.860854 43.952480 -10.283581
v -14.248272 45.278259 -11.264639
v -6.949935 69.341026 -14.717643
v -7.896912 68.611176 -15.339684
v -11.989718 43.116898 -11.831088
v -12.198635 44.362946 -12.959775
v -4.272022 68.145164 -16.932388
v -5.105825 67.364746 -17.648039
v -9.890816 42.179581 -12.975698
v -9.899497 43.336212 -14.213584
v -1.268116 66.803688 -18.570532
v -1.974947 65.966583 -19.355419
v -7.635602 41.172462 -13.678438
v -7.429144 42.233021 -14.983361
v 1.959493 65.362335 -19.576275
v 1.389069 64.464310 -20.403671
v -0.000000 62.000000 -20.915373
v 0.000000 63.080002 -22.000000
v 0.000000 66.000000 -20.915373
v 0.000000 64.919998 -22.000000
v 3.843189 62.000000 -20.559248
v 4.042489 63.080002 -21.625408
v 3.843189 66.000000 -20.559248
v 4.042489 64.919998 -21.625408
v 7.555510 62.000000 -19.503002
v 7.947317 63.080002 -20.514389
v 7.555510 66.000000 -19.503002
v 7.947317 64.919998 -20.514389
v 11.010525 62.000000 -17.782610
v 11.581508 63.080002 -18.704777
v 11.010525 66.000000 -17.782610
v 11.581508 64.919998 -18.704777
v 14.090596 62.000000 -15.456647
v 14.821303 63.080002 -16.258196
v 14.090596 66.000000 -15.456647
v 14.821303 64.919998 -16.258196
v 16.690832 62.000000 -12.604324
v 17.556379 63.080002 -13.257963
v 16.690832 66.000000 -12.604324
v 17.556379 64.919998 -13.257963
v 18.722672 62.000000 -9.322790
v 19.693592 63.080002 -9.806244
v 18.722672 66.000000 -9.322790
v 19.693592 64.919998 -9.806244
v 20.116941 62.000000 -5.723762
v 21.160164 63.080002 -6.020586
v 20.116941 66.000000 -5.723762
v 21.160164 64.919998 -6.020586
v 20.826151 62.000000 -1.929826
v 21.906151 63.080002 -2.029904
v 20.826151 66.000000 -1.929826
v 21.906151 64.919998 -2.029904
v 20.826151 62.000000 1.929826
v 21.906151 63.080002 2.029904
v 20.826151 66.000000 1.929826
v 21.906151 64.919998 2.029904
v 20.116941 62.000000 5.723762
v 21.160164 63.080002 6.020586
v 20.116941 66.000000 5.723762
v 21.160164 64.919998 6.020586
v 18.722672 62.000000 9.322790
v 19.693592 63.080002 9.806244
v 18.722672 66.000000 9.322790
v 19.693592 64.919998 9.806244
v 16.690832 62.000000 12.604324
v 17.556379 63.080002 13.257963
v 16.690832 66.000000 12.604324
v 17.556379 64.919998 13.257963
v 14.090596 62.000000 15.456647
v 14.821303 63.080002 16.258196
v 14.090596 66.000000 15.456647
v 14.821303 64.919998 16.258196
v 11.010525 62.000000 17.782610
v 11.581508 63.080002 18.704777
v 11.010525 66.000000 17.782610
v 11.581508 64.919998 18.704777
v 7.555510 62.000000 19.503002
v 7.947317 63.080002 20.514389
v 7.555510 66.000000 19.503002
v 7.947317 64.919998 20.514389
v 3.843189 62.000000 20.559248
v 4.042489 63.080002 21.625408
v 3.843189 66.000000 20.559248
v 4.042489 64.919998 21.625408
v 0.000000 62.000000 20.915373
v 0.000000 63.080002 22.000000
v -0.000000 66.000000 20.915373
v 0.000000 64.919998 22.000000
v -3.843189 62.000000 20.559248
v -4.042489 63.080002 21.625408
v -3.843189 66.000000 20.559248
v -4.042489 64.919998 21.625408
v -7.555510 62.000000 19.503002
v -7.947317 63.080002 20.514389
v -7.555510 66.000000 19.503002
v -7.947317 64.919998 20.514389
v -11.010525 62.000000 17.782610
v -11.581508 63.080002 18.704777
v -11.010525 66.000000 17.782610
v -11.581508 64.919998 18.704777
v -14.090596 62.000000 15.456647
v -14.821303 63.080002 16.258196
v -14.090596 66.000000 15.456647
v -14.821303 64.919998 16.258196
v -16.690832 62.000000 12.604324
v -17.556379 63.080002 13.257963
v -16.690832 66.000000 12.604324
v -17.556379 64.919998 13.257963
v -18.722672 62.000000 9.322790
v -19.693592 63.080002 9.806244
v -18.722672 66.000000 9.322790
v -19.693592 64.919998 9.806244
v -20.116941 62.000000 5.723762
v -21.160164 63.080002 6.020586
v -20.116941 66.000000 5.723762
v -21.160164 64.919998 6.020586
v -20.826151 62.000000 1.929826
v -21.906151 63.080002 2.029904
v -20.826151 66.000000 1.929826
v -21.906151 64.919998 2.029904
v -20.826151 62.000000 -1.929826
v -21.906151 63.080002 -2.029904
v -20.826151 66.000000 -1.929826
v -21.906151 64.919998 -2.029904
v -20.116941 62.000000 -5.723762
v -21.160164 63.080002 -6.020586
v -20.116941 66.000000 -5.723762
v -21.160164 64.919998 -6.020586
v -18.722672 62.000000 -9.322790
v -19.693592 63.080002 -9.806244
v -18.722672 66.000000 -9.322790
v -19.693592 64.919998 -9.806244
v -16.690832 62.000000 -12.604324
v -17.556379 63.080002 -13.257963
v -16.690832 66.000000 -12.604324
v -17.556379 64.919998 -13.257963
v -14.090596 62.000000 -15.456647
v -14.821303 63.080002 -16.258196
v -14.090596 66.000000 -15.456647
v -14.821303 64.919998 -16.258196
v -11.010525 62.000000 -17.782610
v -11.581508 63.080002 -18.704777
v -11.010525 66.000000 -17.782610
v -11.581508 64.919998 -18.704777
v -7.555510 62.000000 -19.503002
v -7.947317 63.080002 -20.514389
v -7.555510 66.000000 -19.503002
v -7.947317 64.919998 -20.514389
v -3.843189 62.000000 -20.559248
v -4.042489 63.080002 -21.625408
v -3.843189 66.000000 -20.559248
v -4.042489 64.919998 -21.625408
v -8.238591 -1.149793 18.194204
v -8.453151 -0.334554 16.888107
v -19.761415 54.560982 6.901069
v -19.546848 53.301472 6.015548
v -7.512407 -0.966086 18.359541
v -7.179066 -0.012228 17.178188
v -19.035231 54.744690 7.066405
v -18.272760 53.623798 6.305624
v -6.980807 -0.752704 18.869732
v -6.246371 0.362135 18.073324
v -18.503628 54.958069 7.576599
v -17.340065 53.998165 7.200761
v -6.786226 -0.566850 19.588078
v -5.904978 0.688231 19.333662
v -18.309048 55.143925 8.294944
v -16.998674 54.324261 8.461098
v -6.980806 -0.458299 20.322094
v -6.246369 0.878676 20.621496
v -18.503628 55.252476 9.028958
v -17.340065 54.514706 9.748933
v -7.512408 -0.456151 20.875105
v -7.179065 0.882445 21.591755
v -19.035231 55.254620 9.581972
v -18.272762 54.518475 10.719190
v -8.238585 -0.560981 21.098930
v -8.453149 0.698527 21.984453
v -19.761412 55.149796 9.805794
v -19.546848 54.334553 11.111892
v -8.964772 -0.744688 20.933592
v -9.727239 0.376200 21.694374
v -20.487595 54.966087 9.640457
v -20.820934 54.012226 10.821810
v -9.496369 -0.958070 20.423405
v -10.659934 0.001837 20.799238
v -21.019190 54.752701 9.130270
v -21.753632 53.637867 9.926679
v -9.690951 -1.143923 19.705057
v -11.001323 -0.324258 19.538902
v -21.213776 54.566853 8.411921
v -22.095022 53.311771 8.666339
v -9.496370 -1.252475 18.971041
v -10.659934 -0.514703 18.251070
v -21.019194 54.458302 7.677905
v -21.753630 53.121326 7.378503
v -8.964768 -1.254622 18.418030
v -9.727238 -0.518473 17.280809
v -20.487589 54.456146 7.124895
v -20.820934 53.117558 6.408244
v -8.238585 -0.560981 -21.098930
v -8.453148 0.698528 -21.984455
v -19.761412 55.149796 -9.805794
v -19.546848 54.334553 -11.111890
v -7.512408 -0.456151 -20.875105
v -7.179065 0.882444 -21.591753
v -19.035231 55.254616 -9.581972
v -18.272762 54.518475 -10.719190
v -6.980806 -0.458299 -20.322094
v -6.246370 0.878676 -20.621496
v -18.503628 55.252476 -9.028958
v -17.340065 54.514706 -9.748933
v -6.786226 -0.566850 -19.588078
v -5.904978 0.688231 -19.333662
v -18.309048 55.143925 -8.294944
v -16.998672 54.324261 -8.461097
v -6.980807 -0.752704 -18.869732
v -6.246369 0.362135 -18.073322
v -18.503628 54.958069 -7.576599
v -17.340065 53.998165 -7.200761
v -7.512407 -0.966086 -18.359541
v -7.179066 -0.012228 -17.178188
v -19.035231 54.744690 -7.066405
v -18.272762 53.623798 -6.305624
v -8.238591 -1.149793 -18.194204
v -8.453150 -0.334555 -16.888105
v -19.761415 54.560986 -6.901068
v -19.546848 53.301472 -6.015546
v -8.964768 -1.254622 -18.418030
v -9.727237 -0.518472 -17.280809
v -20.487589 54.456150 -7.124895
v -20.820934 53.117558 -6.408246
v -9.496370 -1.252475 -18.971041
v -10.659935 -0.514704 -18.251070
v -21.019194 54.458302 -7.677905
v -21.753630 53.121326 -7.378504
v -9.690951 -1.143923 -19.705057
v -11.001324 -0.324258 -19.538902
v -21.213776 54.566849 -8.411922
v -22.095024 53.311771 -8.666340
v -9.496369 -0.958070 -20.423405
v -10.659934 0.001837 -20.799238
v -21.019192 54.752697 -9.130269
v -21.753630 53.637867 -9.926677
v -8.964772 -0.744688 -20.933592
v -9.727238 0.376200 -21.694372
v -20.487595 54.966091 -9.640458
v -20.820936 54.012226 -10.821812
v 8.238591 -1.149793 18.194204
v 8.453150 -0.334555 16.888105
v 19.761415 54.560986 6.901068
v 19.546848 53.301472 6.015546
v 8.964768 -1.254622 18.418030
v 9.727237 -0.518472 17.280809
v 20.487589 54.456150 7.124895
v 20.820934 53.117558 6.408246
v 9.496370 -1.252475 18.971041
v 10.659935 -0.514704 18.251070
v 21.019194 54.458302 7.677905
v 21.753630 53.121326 7.378504
v 9.690951 -1.143923 19.705057
v 11.001324 -0.324258 19.538902
v 21.213776 54.566849 8.411922
v 22.095024 53.311771 8.666340
v 9.496369 -0.958070 20.423405
v 10.659934 0.001837 20.799238
v 21.019192 54.752697 9.130269
v 21.753630 53.637867 9.926677
v 8.964772 -0.744688 20.933592
v 9.727238 0.376200 21.694372
v 20.487595 54.966091 9.640458
v 20.820936 54.012226 10.821812
v 8.238585 -0.560981 21.098930
v 8.453148 0.698528 21.984455
v 19.761412 55.149796 9.805794
v 19.546848 54.334553 11.111890
v 7.512408 -0.456151 20.875105
v 7.179065 0.882444 21.591753
v 19.035231 55.254616 9.581972
v 18.272762 54.518475 10.719190
v 6.980806 -0.458299 20.322094
v 6.246370 0.878676 20.621496
v 18.503628 55.252476 9.028958
v 17.340065 54.514706 9.748933
v 6.786226 -0.566850 19.588078
v 5.904978 0.688231 19.333662
v 18.309048 55.143925 8.294944
v 16.998672 54.324261 8.461097
v 6.980807 -0.752704 18.869732
v 6.246369 0.362135 18.073322
v 18.503628 54.958069 7.576599
v 17.340065 53.998165 7.200761
v 7.512407 -0.966086 18.359541
v 7.179066 -0.012228 17.178188
v 19.035231 54.744690 7.066405
v 18.272762 53.623798 6.305624
v 8.238585 -0.560981 -21.098930
v 8.453149 0.698527 -21.984453
v 19.761412 55.149796 -9.805794
v 19.546848 54.334553 -11.111892
v 8.964772 -0.744688 -20.933592
v 9.727239 0.376200 -21.694374
v 20.487595 54.966087 -9.640457
v 20.820934 54.012226 -10.821810
v 9.496369 -0.958070 -20.423405
v 10.659934 0.001837 -20.799238
v 21.019190 54.752701 -9.130270
v 21.753632 53.637867 -9.926679
v 9.690951 -1.143923 -19.705057
v 11.001323 -0.324258 -19.538902
v 21.213776 54.566853 -8.411921
v 22.095022 53.311771 -8.666339
v 9.496370 -1.252475 -18.971041
v 10.659934 -0.514703 -18.251070
v 21.019194 54.458302 -7.677905
v 21.753630 53.121326 -7.378503
v 8.964768 -1.254622 -18.418030
v 9.727238 -0.518473 -17.280809
v 20.487589 54.456146 -7.124895
v 20.820934 53.117558 -6.408244
v 8.238591 -1.149793 -18.194204
v 8.453151 -0.334554 -16.888107
v 19.761415 54.560982 -6.901069
v 19.546848 53.301472 -6.015548
v 7.512407 -0.966086 -18.359541
v 7.179066 -0.012228 -17.178188
v 19.035231 54.744690 -7.066405
v 18.272760 53.623798 -6.305624
v 6.980807 -0.752704 -18.869732
v 6.246371 0.362135 -18.073324
v 18.503628 54.958069 -7.576599
v 17.340065 53.998165 -7.200761
v 6.786226 -0.566850 -19.588078
v 5.904978 0.688231 -19.333662
v 18.309048 55.143925 -8.294944
v 16.998674 54.324261 -8.461098
v 6.980806 -0.458299 -20.322094
v 6.246369 0.878676 -20.621496
v 18.503628 55.252476 -9.028958
v 17.340065 54.514706 -9.748933
v 7.512408 -0.456151 -20.875105
v 7.179065 0.882445 -21.591755
v 19.035231 55.254620 -9.581972
v 18.272762 54.518475 -10.719190
v -20.920000 44.500000 -1.920000
v -22.000000 45.580002 -1.920000
v -20.920000 45.580002 -3.000000
v -20.920000 47.500000 -1.920000
v -20.920000 46.419998 -3.000000
v -22.000000 46.419998 -1.920000
v 20.920000 44.500000 1.920000
v 22.000000 45.580002 1.920000
v 20.920000 45.580002 3.000000
v 20.920000 47.500000 1.920000
v 20.920000 46.419998 3.000000
v 22.000000 46.419998 1.920000
v 20.920000 44.500000 -1.920000
v 20.920000 45.580002 -3.000000
v 22.000000 45.580002 -1.920000
v 20.920000 47.500000 -1.920000
v 22.000000 46.419998 -1.920000
v 20.920000 46.419998 -3.000000
v -16.998672 54.324261 -8.461097
v -18.309048 55.143925 -8.294944
v -19.693592 64.919998 9.806244
v -18.722672 66.000000 9.322790
v -8.453148 0.698528 -21.984455
v -7.179065 0.882444 -21.591753
v -7.512408 -0.456151 -20.875105
v -8.238585 -0.560981 -21.098930
v -21.160164 63.080002 6.020586
v -20.116941 62.000000 5.723762
v -7.179066 -0.012228 17.178188
v -7.512407 -0.966086 18.359541
v -21.160164 64.919998 6.020586
v -20.116941 66.000000 5.723762
v -21.906151 63.080002 2.029904
v -20.826151 62.000000 1.929826
v -21.906151 64.919998 2.029904
v -20.826151 66.000000 1.929826
v -20.820934 54.012226 10.821810
v -20.487595 54.966087 9.640457
v -21.906151 63.080002 -2.029904
v -20.826151 62.000000 -1.929826
v -21.906151 64.919998 -2.029904
v -20.826151 66.000000 -1.929826
v 21.753630 53.121326 -7.378503
v 22.095022 53.311771 -8.666339
v 21.213776 54.566853 -8.411921
v 21.019194 54.458302 -7.677905
v -21.160164 63.080002 -6.020586
v -20.116941 62.000000 -5.723762
v -21.160164 64.919998 -6.020586
v -20.116941 66.000000 -5.723762
v -9.727239 0.376200 21.694374
v -8.964772 -0.744688 20.933592
v -19.693592 63.080002 -9.806244
v -18.722672 62.000000 -9.322790
v -19.693592 64.919998 -9.806244
v -18.722672 66.000000 -9.322790
v 21.753630 53.121326 7.378504
v 21.019194 54.458302 7.677905
v -17.556379 63.080002 -13.257963
v -16.690832 62.000000 -12.604324
v -17.556379 64.919998 -13.257963
v -16.690832 66.000000 -12.604324
v -14.821303 63.080002 -16.258196
v -14.090596 62.000000 -15.456647
v 11.001323 -0.324258 -19.538902
v 10.659934 -0.514703 -18.251070
v 9.496370 -1.252475 -18.971041
v 9.690951 -1.143923 -19.705057
v -14.821303 64.919998 -16.258196
v -14.090596 66.000000 -15.456647
v -11.581508 63.080002 -18.704777
v -11.010525 62.000000 -17.782610
v -11.581508 64.919998 -18.704777
v -11.010525 66.000000 -17.782610
v -17.340065 54.514706 -9.748933
v -18.503628 55.252476 -9.028958
v -7.947317 63.080002 -20.514389
v -7.555510 62.000000 -19.503002
v 9.727237 -0.518472 17.280809
v 10.659935 -0.514704 18.251070
v 9.496370 -1.252475 18.971041
v 8.964768 -1.254622 18.418030
v -7.947317 64.919998 -20.514389
v -7.555510 66.000000 -19.503002
v -4.042489 63.080002 -21.625408
v -3.843189 62.000000 -20.559248
v -4.042489 64.919998 -21.625408
v -3.843189 66.000000 -20.559248
v -9.727237 -0.518472 -17.280809
v -8.964768 -1.254622 -18.418030
v 20.920000 46.419998 3.000000
v 20.920000 45.580002 3.000000
v 22.000000 45.580002 1.920000
v 22.000000 46.419998 1.920000
v -20.820934 53.117558 -6.408246
v -20.487589 54.456150 -7.124895
v -10.659935 -0.514704 -18.251070
v -9.496370 -1.252475 -18.971041
v 21.753632 53.637867 -9.926679
v 20.820934 54.012226 -10.821810
v 20.487595 54.966087 -9.640457
v 21.019190 54.752701 -9.130270
v -21.753630 53.121326 -7.378504
v -21.019194 54.458302 -7.677905
v -11.001324 -0.324258 -19.538902
v -9.690951 -1.143923 -19.705057
v 8.453150 -0.334555 16.888105
v 8.238591 -1.149793 18.194204
v -22.095024 53.311771 -8.666340
v -21.213776 54.566849 -8.411922
v 20.920000 44.500000 1.920000
v 20.920000 44.500000 -1.920000
v 22.000000 45.580002 -1.920000
v -10.659934 0.001837 -20.799238
v -9.496369 -0.958070 -20.423405
v -21.753630 53.637867 -9.926677
v -21.019192 54.752697 -9.130269
v -9.727238 0.376200 -21.694372
v -8.964772 -0.744688 -20.933592
v -20.820936 54.012226 -10.821812
v -20.487595 54.966091 -9.640458
v 9.727238 0.376200 21.694372
v 8.964772 -0.744688 20.933592
v 20.820936 54.012226 10.821812
v 20.487595 54.966091 9.640458
v 8.453148 0.698528 21.984455
v 8.238585 -0.560981 21.098930
v 19.546848 54.334553 -11.111892
v 19.761412 55.149796 -9.805794
v 19.546848 54.334553 11.111890
v 19.761412 55.149796 9.805794
v 7.179065 0.882444 21.591753
v 7.512408 -0.456151 20.875105
v -20.920000 44.500000 1.920000
v -20.920000 45.580002 3.000000
v 18.272762 54.518475 10.719190
v 19.035231 55.254616 9.581972
v 20.920000 47.500000 -1.920000
v 20.920000 47.500000 1.920000
v 22.000000 46.419998 -1.920000
v 6.246370 0.878676 20.621496
v 6.980806 -0.458299 20.322094
v -20.920000 47.500000 1.920000
v -20.920000 46.419998 3.000000
v 17.340065 54.514706 9.748933
v 18.503628 55.252476 9.028958
v 5.904978 0.688231 19.333662
v 6.786226 -0.566850 19.588078
v 8.453149 0.698527 -21.984453
v 8.238585 -0.560981 -21.098930
v 16.998672 54.324261 8.461097
v 18.309048 55.143925 8.294944
v 6.246369 0.362135 18.073322
v 6.980807 -0.752704 18.869732
v 17.340065 53.998165 7.200761
v 18.503628 54.958069 7.576599
v 7.179066 -0.012228 17.178188
v 7.512407 -0.966086 18.359541
v 18.272762 53.623798 6.305624
v 19.035231 54.744690 7.066405
v 9.727238 -0.518473 -17.280809
v 8.964768 -1.254622 -18.418030
v 20.920000 45.580002 -3.000000
v 20.920000 46.419998 -3.000000
v 20.820934 53.117558 -6.408244
v 20.487589 54.456146 -7.124895
v 8.453151 -0.334554 -16.888107
v 8.238591 -1.149793 -18.194204
v -20.920000 47.500000 -1.920000
v -20.920000 46.419998 -3.000000
v 19.546848 53.301472 -6.015548
v 19.761415 54.560982 -6.901069
v 7.179066 -0.012228 -17.178188
v 7.512407 -0.966086 -18.359541
v -20.920000 44.500000 -1.920000
v -20.920000 45.580002 -3.000000
v 18.272760 53.623798 -6.305624
v 19.035231 54.744690 -7.066405
v 6.246371 0.362135 -18.073324
v 6.980807 -0.752704 -18.869732
v -22.000000 45.580002 -1.920000
v -22.000000 46.419998 -1.920000
v 17.340065 53.998165 -7.200761
v 18.503628 54.958069 -7.576599
v 5.904978 0.688231 -19.333662
v 6.786226 -0.566850 -19.588078
v -22.000000 46.419998 1.920000
v 16.998674 54.324261 -8.461098
v 18.309048 55.143925 -8.294944
v 6.246369 0.878676 -20.621496
v 6.980806 -0.458299 -20.322094
v -22.000000 45.580002 1.920000
v 17.340065 54.514706 -9.748933
v 18.503628 55.252476 -9.028958
v 7.179065 0.882445 -21.591755
v 7.512408 -0.456151 -20.875105
v 18.272762 54.518475 -10.719190
v 19.035231 55.254620 -9.581972
vn -0.6316 -0.7086 0.3145
vn -0.4468 -0.7390 0.5042
vn -0.5631 0.7086 0.4252
vn 0.1976 0.6390 -0.7434
vn -0.5631 -0.7086 0.4252
vn 0.7326 -0.5047 -0.4567
vn -0.4754 0.7086 0.5214
vn -0.4754 -0.7086 0.5214
vn -0.7326 0.6427 0.2242
vn -0.7326 0.6427 0.2241
vn -0.3714 0.7086 0.5999
vn 0.7326 0.6427 0.2242
vn 0.8238 0.5556 -0.1126
vn -0.3714 -0.7086 0.5999
vn -0.2549 0.7086 0.6579
vn 0.7326 -0.6427 -0.2242
vn -0.2549 -0.7086 0.6579
vn -0.1297 0.7086 0.6936
vn -0.1297 -0.7086 0.6936
vn -0.5380 -0.8261 0.1675
vn -0.0000 0.7086 0.7056
vn 0.4468 0.7390 -0.5042
vn -0.0000 -0.7086 0.7056
vn 0.1297 0.7086 0.6936
vn 0.1297 -0.7086 0.6936
vn -0.8238 0.5556 -0.1126
vn 0.2549 0.7086 0.6579
vn 0.2549 -0.7086 0.6579
vn 0.3714 0.7086 0.5999
vn 0.8238 -0.5556 0.1126
vn 0.3714 -0.7086 0.5999
vn 0.1236 0.6288 -0.7677
vn -0.1429 0.5528 0.8209
vn -0.0029 0.6853 -0.7283
vn 0.4833 0.5037 -0.7160
vn 0.1429 0.5528 -0.8209
vn -0.1207 0.7379 -0.6640
vn -0.0000 -0.7086 -0.7056
vn -0.2258 0.7848 -0.5772
vn 0.1976 -0.6390 -0.7434
vn 0.4468 -0.7390 -0.5042
vn -0.3144 0.8244 -0.4707
vn -0.1429 0.5528 -0.8209
vn -0.3837 0.8553 -0.3481
vn -0.0000 0.7086 -0.7056
vn 0.6787 -0.7086 -0.1931
vn -0.4312 0.8766 -0.2137
vn 0.5380 -0.8261 0.1675
vn 0.4468 -0.7390 0.5042
vn -0.4554 0.8874 -0.0721
vn 0.6787 0.7086 -0.1931
vn -0.4554 0.8874 0.0721
vn 0.1429 -0.8289 0.5409
vn 0.1429 -0.8289 0.5408
vn -0.4312 0.8766 0.2137
vn 0.1297 -0.7086 -0.6936
vn 0.1429 -0.8289 -0.5409
vn -0.3837 0.8553 0.3481
vn -0.1429 0.8289 0.5409
vn 0.1976 0.8780 0.4359
vn 0.7026 -0.7086 -0.0651
vn -0.3144 0.8244 0.4707
vn 0.1297 0.7086 -0.6936
vn 0.7326 -0.5047 0.4567
vn -0.2258 0.7848 0.5772
vn 0.7026 0.7086 -0.0651
vn -0.1207 0.7379 0.6640
vn -0.0029 0.6853 0.7282
vn 0.2549 -0.7086 -0.6579
vn 0.1236 0.6288 0.7677
vn 0.7026 -0.7086 0.0651
vn 0.2547 0.5703 0.7810
vn 0.2549 0.7086 -0.6579
vn 0.3857 0.5117 0.7677
vn 0.3857 0.5118 0.7677
vn 0.7026 0.7086 0.0651
vn 0.5123 0.4552 0.7282
vn 0.6301 0.4026 0.6640
vn 0.3714 -0.7086 -0.5999
vn -0.4833 0.5037 -0.7160
vn -0.7326 0.5047 -0.4568
vn -0.7326 0.5047 -0.4567
vn 0.7351 0.3557 0.5772
vn 0.4833 -0.5037 0.7160
vn 0.1429 -0.5528 0.8209
vn 0.6787 -0.7086 0.1931
vn 0.8237 0.3161 0.4707
vn 0.3714 0.7086 -0.5999
vn 0.8930 0.2852 0.3481
vn 0.6787 0.7086 0.1931
vn 0.9406 0.2640 0.2137
vn 0.1976 0.6390 0.7434
vn 0.4468 0.7390 0.5042
vn 0.9647 0.2532 0.0721
vn 0.4754 -0.7086 -0.5214
vn 0.9647 0.2532 -0.0721
vn 0.1976 0.8780 -0.4359
vn -0.1429 0.8289 -0.5409
vn 0.6316 -0.7086 0.3145
vn 0.9406 0.2640 -0.2137
vn 0.4754 0.7086 -0.5214
vn 0.4468 0.8770 0.1767
vn 0.5380 0.8261 -0.1675
vn 0.8930 0.2852 -0.3481
vn 0.6316 0.7086 0.3145
vn 0.8237 0.3161 -0.4707
vn 0.7351 0.3557 -0.5772
vn 0.5631 -0.7086 -0.4252
vn 0.6316 -0.7086 -0.3145
vn -0.4468 -0.8770 -0.1767
vn -0.1976 -0.8780 -0.4359
vn 0.6301 0.4026 -0.6640
vn 0.5631 -0.7086 0.4252
vn 0.4754 -0.7086 0.5214
vn 0.5123 0.4552 -0.7282
vn 0.5123 0.4552 -0.7283
vn 0.6316 0.7086 -0.3145
vn 0.5631 0.7086 -0.4252
vn 0.8238 -0.5556 -0.1126
vn 0.3857 0.5118 -0.7677
vn 0.2547 0.5703 -0.7810
vn 0.7326 -0.6427 0.2242
vn 0.4833 -0.7428 0.4633
vn 0.4754 0.7086 0.5214
vn 0.5631 0.7086 0.4252
vn -0.0000 -0.0000 1.0000
vn -0.0000 1.0000 -0.0000
vn -1.0000 -0.0000 -0.0000
vn -0.0000 -1.0000 -0.0000
vn -0.3826 -0.8567 -0.3460
vn -0.2143 -0.4800 -0.8507
vn 0.4078 0.9131 -0.0000
vn -0.0917 -0.2053 -0.9744
vn -0.3245 -0.8826 -0.3401
vn -0.0716 -0.5437 -0.8362
vn 0.0718 -0.2783 -0.9578
vn -0.2685 -0.9077 -0.3226
vn 0.0663 -0.6053 -0.7933
vn 0.2297 -0.3488 -0.9086
vn -0.2163 -0.9310 -0.2942
vn 0.1946 -0.6626 -0.7233
vn 0.3767 -0.4145 -0.8284
vn -0.1698 -0.9517 -0.2557
vn 0.3090 -0.7137 -0.6287
vn 0.5077 -0.4730 -0.7201
vn -0.1305 -0.9693 -0.2085
vn 0.4055 -0.7568 -0.5127
vn 0.6183 -0.5224 -0.5872
vn -0.0998 -0.9830 -0.1542
vn 0.4810 -0.7905 -0.3792
vn 0.7047 -0.5610 -0.4343
vn -0.0787 -0.9924 -0.0947
vn 0.5328 -0.8136 -0.2328
vn 0.7641 -0.5875 -0.2667
vn -0.0680 -0.9972 -0.0319
vn 0.5591 -0.8254 -0.0785
vn 0.7942 -0.6009 -0.0899
vn -0.0680 -0.9972 0.0319
vn 0.5591 -0.8254 0.0785
vn 0.7942 -0.6009 0.0899
vn -0.0787 -0.9924 0.0947
vn 0.5328 -0.8136 0.2328
vn 0.7641 -0.5875 0.2667
vn -0.0998 -0.9830 0.1542
vn 0.4810 -0.7905 0.3792
vn 0.7047 -0.5610 0.4343
vn -0.1305 -0.9693 0.2085
vn 0.4055 -0.7568 0.5127
vn 0.6183 -0.5224 0.5872
vn -0.1698 -0.9517 0.2557
vn 0.3090 -0.7137 0.6287
vn 0.5077 -0.4730 0.7201
vn -0.2163 -0.9310 0.2942
vn 0.1946 -0.6626 0.7233
vn 0.3767 -0.4145 0.8284
vn -0.2685 -0.9077 0.3226
vn 0.0663 -0.6053 0.7933
vn 0.2297 -0.3488 0.9086
vn -0.3245 -0.8826 0.3401
vn -0.0716 -0.5437 0.8362
vn 0.0718 -0.2783 0.9578
vn -0.3826 -0.8567 0.3460
vn -0.2143 -0.4800 0.8507
vn -0.0917 -0.2053 0.9744
vn -0.4406 -0.8308 0.3401
vn -0.3571 -0.4162 0.8362
vn -0.2552 -0.1323 0.9578
vn -0.4967 -0.8057 0.3226
vn -0.4949 -0.3547 0.7933
vn -0.4131 -0.0618 0.9086
vn -0.5489 -0.7824 0.2942
vn -0.6233 -0.2974 0.7233
vn -0.5601 0.0038 0.8284
vn -0.5954 -0.7617 0.2557
vn -0.7376 -0.2463 0.6287
vn 0.4077 0.9131 -0.0000
vn -0.6911 0.0624 0.7201
vn -0.6347 -0.7441 0.2085
vn -0.8342 -0.2032 0.5127
vn -0.8017 0.1118 0.5872
vn -0.6654 -0.7304 0.1542
vn -0.9097 -0.1695 0.3792
vn -0.8881 0.1503 0.4343
vn -0.6864 -0.7210 0.0947
vn -0.9615 -0.1463 0.2328
vn -0.9474 0.1768 0.2667
vn -0.6971 -0.7162 0.0319
vn -0.9878 -0.1346 0.0785
vn -0.9776 0.1903 0.0899
vn -0.6971 -0.7162 -0.0319
vn -0.9878 -0.1346 -0.0785
vn -0.9776 0.1903 -0.0899
vn -0.6864 -0.7210 -0.0947
vn -0.9615 -0.1463 -0.2328
vn -0.9474 0.1768 -0.2667
vn -0.6654 -0.7304 -0.1542
vn -0.9097 -0.1695 -0.3792
vn -0.8881 0.1503 -0.4343
vn -0.6347 -0.7441 -0.2085
vn -0.8342 -0.2031 -0.5127
vn -0.8017 0.1118 -0.5872
vn -0.5954 -0.7617 -0.2557
vn -0.7376 -0.2463 -0.6287
vn -0.6911 0.0624 -0.7201
vn -0.5489 -0.7824 -0.2942
vn -0.6233 -0.2974 -0.7233
vn -0.5601 0.0038 -0.8284
vn -0.4967 -0.8057 -0.3226
vn -0.4949 -0.3547 -0.7933
vn -0.4131 -0.0618 -0.9086
vn -0.4406 -0.8308 -0.3401
vn -0.3571 -0.4162 -0.8362
vn -0.2552 -0.1323 -0.9578
vn -0.0000 -0.0000 -1.0000
vn 0.1838 -0.0000 -0.9830
vn 0.1837 -0.0000 -0.9830
vn 0.3612 -0.0000 -0.9325
vn 0.5264 -0.0000 -0.8502
vn 0.6737 -0.0000 -0.7390
vn 0.7980 -0.0000 -0.6026
vn 0.8952 -0.0000 -0.4457
vn 0.9618 -0.0000 -0.2737
vn 0.9957 -0.0000 -0.0923
vn 0.9957 -0.0000 0.0923
vn 0.9618 -0.0000 0.2737
vn 0.8952 -0.0000 0.4457
vn 0.7980 -0.0000 0.6026
vn 0.6737 -0.0000 0.7390
vn 0.5264 -0.0000 0.8502
vn 0.3612 -0.0000 0.9325
vn 0.1837 -0.0000 0.9830
vn 0.1838 -0.0000 0.9830
vn -0.1838 -0.0000 0.9830
vn -0.1837 -0.0000 0.9830
vn -0.3612 -0.0000 0.9325
vn -0.5264 -0.0000 0.8502
vn -0.6737 -0.0000 0.7390
vn -0.7980 -0.0000 0.6026
vn -0.8952 -0.0000 0.4457
vn -0.9618 -0.0000 0.2737
vn -0.9957 -0.0000 0.0923
vn -0.9957 -0.0000 -0.0923
vn -0.9618 -0.0000 -0.2737
vn -0.8952 -0.0000 -0.4457
vn -0.7980 -0.0000 -0.6026
vn -0.6737 -0.0000 -0.7390
vn -0.5264 -0.0000 -0.8502
vn -0.3612 -0.0000 -0.9325
vn -0.1837 -0.0000 -0.9830
vn -0.1838 -0.0000 -0.9830
vn 0.1987 -0.9605 0.1947
vn -0.0000 -0.1987 -0.9801
vn -0.1987 0.9605 -0.1947
vn 0.4900 -0.0747 -0.8685
vn 0.8488 0.0693 -0.5242
vn 0.9801 0.1947 -0.0395
vn 0.8488 0.2680 0.4559
vn 0.4900 0.2694 0.8290
vn -0.0000 0.1987 0.9801
vn -0.4900 0.0747 0.8685
vn -0.8488 -0.0693 0.5242
vn -0.1988 0.9605 -0.1947
vn -0.9801 -0.1947 0.0395
vn -0.8488 -0.2680 -0.4558
vn -0.8488 -0.2680 -0.4559
vn -0.4900 -0.2694 -0.8290
vn 0.1987 -0.9605 -0.1947
vn -0.0000 0.1987 -0.9801
vn -0.1987 0.9605 0.1947
vn 0.4900 0.2694 -0.8290
vn 0.8488 0.2680 -0.4559
vn 0.9801 0.1947 0.0395
vn 0.8488 0.0693 0.5242
vn 0.4900 -0.0747 0.8685
vn -0.1986 0.9605 0.1947
vn -0.0000 -0.1987 0.9801
vn -0.4900 -0.2694 0.8290
vn -0.8488 -0.2680 0.4558
vn -0.8488 -0.2680 0.4559
vn -0.9801 -0.1947 -0.0395
vn -0.8488 -0.0693 -0.5242
vn -0.4900 0.0747 -0.8685
vn -0.1986 0.9605 0.1948
vn -0.1987 -0.9605 0.1947
vn 0.1987 0.9605 -0.1947
vn 0.4900 -0.2694 -0.8290
vn 0.8488 -0.2680 -0.4558
vn 0.8488 -0.2680 -0.4559
vn -0.1986 -0.9605 0.1947
vn 0.9801 -0.1947 0.0395
vn 0.1986 0.9605 -0.1947
vn 0.8488 -0.0693 0.5242
vn 0.4900 0.0747 0.8685
vn 0.1986 0.9605 -0.1948
vn -0.4900 0.2694 0.8290
vn -0.8488 0.2680 0.4559
vn -0.9801 0.1947 -0.0395
vn -0.8488 0.0693 -0.5242
vn -0.4900 -0.0747 -0.8685
vn -0.1987 -0.9605 -0.1947
vn 0.1987 0.9605 0.1947
vn 0.4900 0.0747 -0.8685
vn 0.8488 -0.0693 -0.5242
vn 0.1988 0.9605 0.1947
vn 0.9801 -0.1947 -0.0395
vn 0.8488 -0.2680 0.4558
vn 0.8488 -0.2680 0.4559
vn 0.4900 -0.2694 0.8290
vn -0.4900 -0.0747 0.8685
vn -0.8488 0.0693 0.5242
vn -0.9801 0.1947 0.0395
vn -0.8488 0.2680 -0.4559
vn -0.4900 0.2694 -0.8290
vn 1.0000 -0.0000 -0.0000
vn 0.5380 0.8261 0.1675
vn -0.6316 0.7086 0.3145
vn 0.1429 -0.5528 -0.8209
vn 0.4833 -0.5037 -0.7160
vn -0.6787 -0.7086 0.1931
vn 0.4833 -0.7428 -0.4633
vn -0.6787 0.7086 0.1931
vn -0.7026 -0.7086 0.0651
vn -0.7026 0.7086 0.0651
vn -0.4833 0.7428 0.4633
vn -0.7026 -0.7086 -0.0651
vn -0.7026 0.7086 -0.0651
vn 0.7326 0.5047 0.4567
vn 0.8238 0.5556 0.1126
vn 0.7326 0.5047 0.4568
vn -0.6787 -0.7086 -0.1931
vn -0.6787 0.7086 -0.1931
vn -0.1976 -0.6390 0.7434
vn -0.6316 -0.7086 -0.3145
vn -0.6316 0.7086 -0.3145
vn 0.7326 0.5047 -0.4568
vn -0.5631 -0.7086 -0.4252
vn -0.5631 0.7086 -0.4252
vn -0.4754 -0.7086 -0.5214
vn 0.5380 -0.8261 -0.1675
vn 0.4468 -0.8770 0.1767
vn -0.4754 0.7086 -0.5214
vn -0.3714 -0.7086 -0.5999
vn -0.3714 0.7086 -0.5999
vn 0.4468 0.8770 -0.1767
vn -0.2549 -0.7086 -0.6579
vn 0.1976 -0.8780 -0.4359
vn 0.4468 -0.8770 -0.1767
vn -0.2549 0.7086 -0.6579
vn -0.1297 -0.7086 -0.6936
vn -0.1297 0.7086 -0.6936
vn -0.1976 -0.8780 0.4359
vn 0.4606 0.4606 0.7588
vn 0.4606 -0.4606 0.7588
vn 0.7588 -0.4606 0.4606
vn 0.7588 0.4606 0.4606
vn -0.4833 0.5037 0.7160
vn -0.4468 -0.8770 0.1767
vn 0.7326 0.6427 -0.2241
vn 0.4833 0.7428 -0.4633
vn 0.7326 0.6427 -0.2242
vn -0.7326 0.5047 0.4568
vn -0.5380 -0.8261 -0.1675
vn -0.1429 -0.8289 -0.5408
vn -0.1429 -0.8289 -0.5409
vn -0.8238 0.5556 0.1126
vn 0.4606 -0.7588 0.4606
vn 0.4606 -0.7588 -0.4606
vn 0.7588 -0.4606 -0.4606
vn -0.4468 -0.7390 -0.5042
vn -0.7326 0.6427 -0.2242
vn -0.1976 -0.6390 -0.7434
vn -0.4833 0.7428 -0.4633
vn 0.1976 -0.6390 0.7434
vn 0.4833 0.7428 0.4633
vn -0.1429 -0.5528 0.8209
vn 0.1429 0.8289 -0.5409
vn 0.1429 0.8289 0.5409
vn -0.4833 -0.5037 0.7160
vn -0.4606 -0.7588 0.4606
vn -0.4606 -0.4606 0.7588
vn -0.1976 0.8780 0.4359
vn 0.4606 0.7588 -0.4606
vn 0.4606 0.7588 0.4606
vn 0.7588 0.4606 -0.4606
vn -0.7326 -0.5047 0.4567
vn -0.4606 0.7588 0.4606
vn -0.4606 0.4606 0.7588
vn -0.4468 0.8770 0.1767
vn -0.8238 -0.5556 0.1126
vn -0.1429 -0.5528 -0.8209
vn -0.5380 0.8261 -0.1675
vn -0.7326 -0.6427 -0.2242
vn -0.4468 0.7390 -0.5042
vn -0.4833 -0.7428 -0.4633
vn -0.1976 0.6390 -0.7434
vn 0.1976 -0.8780 0.4359
vn 0.4606 -0.4606 -0.7588
vn 0.4606 0.4606 -0.7588
vn 0.4833 0.5037 0.7160
vn -0.1429 -0.8289 0.5409
vn -0.4606 0.7588 -0.4606
vn -0.4606 0.4606 -0.7588
vn 0.1429 0.5528 0.8209
vn -0.4833 -0.7428 0.4633
vn -0.4606 -0.7588 -0.4606
vn -0.4606 -0.4606 -0.7588
vn -0.1976 0.6390 0.7434
vn -0.7326 -0.6427 0.2242
vn -0.7588 -0.4606 -0.4606
vn -0.7588 0.4606 -0.4606
vn -0.4468 0.7390 0.5042
vn -0.8238 -0.5556 -0.1126
vn -0.7588 0.4606 0.4606
vn -0.5380 0.8261 0.1675
vn -0.7326 -0.5047 -0.4567
vn -0.7588 -0.4606 0.4606
vn -0.4468 0.8770 -0.1767
vn -0.4833 -0.5037 -0.7160
vn -0.1976 0.8780 -0.4359
vt 0.243585 3.145453
vt 0.432114 3.118899
vt 0.417716 3.067691
vt 0.096000 2.375000
vt 0.150000 2.321000
vt 0.096000 2.321000
vt 0.877819 -0.662898
vt 0.704530 -0.772832
vt 0.741065 -0.812910
vt -0.096000 2.225000
vt -0.096000 2.279000
vt -0.150000 2.279000
vt 0.593495 3.046831
vt 0.585917 2.992577
vt 0.096000 2.225000
vt 0.096000 2.279000
vt 0.150000 2.279000
vt -0.115712 0.749168
vt -0.265044 0.695769
vt -0.243585 0.762145
vt -0.150000 2.321000
vt -0.096000 2.375000
vt -0.096000 2.321000
vt 0.834542 -0.630216
vt 0.966683 0.034412
vt 0.943487 -0.037635
vt 0.979404 -0.028343
vt -0.035548 0.648785
vt -0.148309 0.683922
vt -0.358953 0.858909
vt -0.349040 0.943487
vt -0.312318 0.903666
vt 0.877819 0.662898
vt 0.936134 0.466139
vt 0.984680 0.490312
vt 0.122763 0.647989
vt 0.007806 0.710679
vt 0.743690 2.979758
vt 0.742460 2.922669
vt -0.486362 -0.864040
vt -0.474819 -0.948552
vt -0.532997 -0.912553
vt 0.162953 0.514179
vt 0.069397 0.591554
vt 0.834542 0.630216
vt 0.766984 2.860348
vt 0.846620 2.979758
vt 0.735882 2.919964
vt 0.225245 0.563232
vt 0.241935 0.419295
vt 0.600085 2.869485
vt 0.625447 2.807735
vt 0.984680 -0.490312
vt 0.311760 0.459295
vt 0.303652 0.310131
vt 0.443852 2.830040
vt 0.462612 2.766624
vt -0.849934 -0.423055
vt -0.925181 -0.451448
vt -0.867003 -0.487447
vt 0.425756 0.208571
vt 0.379365 0.339717
vt 0.704530 0.772832
vt 0.284023 2.738412
vt 0.272505 2.802973
vt 0.936134 -0.466139
vt 0.449353 0.070322
vt 0.346002 0.190406
vt -0.977342 0.555595
vt -0.951762 0.479099
vt -0.913638 0.535959
vt 0.095761 2.724062
vt 0.091878 2.789205
vt 0.449353 -0.070322
vt 0.367544 0.064197
vt 0.741065 0.812910
vt -0.091878 2.789205
vt -0.095761 2.724062
vt 0.346002 -0.190406
vt 0.367544 -0.064197
vt -0.867003 0.360038
vt -0.951762 0.353320
vt -0.913638 0.315281
vt -0.272505 2.802973
vt -0.284022 2.738412
vt 1.005847 -0.286188
vt 0.425756 -0.208571
vt 0.303652 -0.310131
vt -0.443852 2.830040
vt -0.462612 2.766623
vt 0.311761 -0.459295
vt 0.379365 -0.339717
vt 0.579075 0.935239
vt -0.625447 2.807735
vt -0.600085 2.869485
vt 1.058008 -0.301029
vt 0.225244 -0.563232
vt 0.241935 -0.419295
vt -0.422657 0.034926
vt -0.375620 -0.022808
vt -0.358953 0.044122
vt -0.766984 2.860348
vt -0.735882 2.919964
vt -0.368925 2.656066
vt -0.356245 2.722807
vt -0.320412 2.655878
vt 0.069397 -0.591554
vt 0.162953 -0.514179
vt 0.550526 0.889130
vt -0.846620 2.979758
vt -0.882402 2.922669
vt 0.122763 -0.647989
vt -0.035548 -0.648785
vt 0.585917 2.992577
vt 1.095308 -0.101495
vt -0.115712 -0.749168
vt 0.007806 -0.710679
vt 0.417716 3.067691
vt 0.432114 3.118899
vt -0.243585 -0.762145
vt -0.148309 -0.683922
vt 0.377775 0.975150
vt 0.243585 3.145453
vt 0.265044 3.193508
vt 1.041308 -0.096491
vt -0.381780 -0.683922
vt -0.265044 -0.695769
vt 0.097975 3.268116
vt 0.069453 3.223216
vt -0.371457 -0.749168
vt -0.494541 -0.648785
vt 0.397366 1.025719
vt -0.098747 3.298329
vt -0.063406 3.340184
vt -0.609932 -0.647989
vt -0.494975 -0.710679
vt -0.255291 -0.882402
vt -0.063406 -0.928527
vt -0.213601 -0.846619
vt 0.101495 3.246000
vt -0.096491 3.300000
vt -0.101495 3.246000
vt -0.563232 2.263913
vt -0.591554 2.155845
vt -0.647989 2.218147
vt -0.347497 -0.735882
vt -0.394846 -0.766984
vt -1.031075 0.043934
vt -1.043755 -0.022808
vt -1.016105 -0.022915
vt -0.419294 2.232895
vt -0.514179 2.197624
vt 0.192159 1.027962
vt -0.460533 -0.600085
vt -0.512660 -0.625447
vt -0.101495 3.154000
vt 0.096491 3.100000
vt 0.101495 3.154000
vt -0.339718 2.332739
vt -0.459295 2.302549
vt -0.977342 -0.555595
vt -0.951762 -0.479099
vt -0.988071 -0.490290
vt -0.548861 -0.443852
vt -0.604720 -0.462612
vt -0.411930 -0.909710
vt -0.448238 -0.920901
vt -0.208571 2.353456
vt -0.310131 2.260457
vt 0.202124 1.081270
vt -0.609472 -0.272505
vt -0.667893 -0.284022
vt -0.070322 2.363994
vt -0.190406 2.279369
vt -0.411930 0.909710
vt -0.375620 0.917977
vt -0.700027 -0.095762
vt -0.640302 -0.091878
vt 1.095308 0.101495
vt 1.005847 0.286188
vt 1.041308 0.096491
vt 0.064197 2.288989
vt -0.064197 2.288989
vt -0.700027 0.095762
vt -0.640302 0.091878
vt 0.532997 -1.039962
vt 0.484548 -0.985253
vt 0.550066 -0.976945
vt 0.070322 2.363994
vt 0.190406 2.279369
vt -0.609472 0.272505
vt -0.667893 0.284022
vt 1.058008 0.301029
vt 0.208571 2.353456
vt 0.310131 2.260457
vt 0.000000 1.100000
vt -0.604720 0.462612
vt -0.548861 0.443852
vt -0.977342 2.665074
vt -1.024379 2.722807
vt -0.988071 2.728049
vt 0.339718 2.332739
vt 0.419294 2.232895
vt -0.512660 0.625447
vt -0.460533 0.600085
vt 0.459295 2.302549
vt 0.514179 2.197624
vt 0.532997 1.039962
vt 0.448239 1.046680
vt 0.486362 1.084719
vt -0.394846 0.766984
vt -0.347497 0.735882
vt 0.563232 2.263913
vt 0.591554 2.155845
vt -0.000000 1.045769
vt -0.255291 0.882402
vt -0.213601 0.846619
vt -0.913638 -0.535959
vt -0.609932 0.647989
vt -0.494541 0.648785
vt -0.599486 0.591554
vt 0.977342 2.665074
vt 1.024379 2.722807
vt 1.041047 2.655878
vt -0.063406 0.928527
vt -0.098747 0.967771
vt -0.371457 0.749168
vt -0.494975 0.710679
vt -0.951762 2.737235
vt -0.988071 2.728049
vt -0.063406 3.340184
vt 0.097975 3.268117
vt -0.381780 0.683922
vt 0.265044 3.193508
vt 0.550526 -0.889130
vt -0.966683 0.034412
vt -0.979404 -0.028343
vt 0.579075 -0.935239
vt 0.377775 -0.975150
vt 0.397366 -1.025719
vt -0.420596 2.728343
vt -0.383895 2.722915
vt 0.192159 -1.027962
vt 0.202124 -1.081270
vt 0.000000 -1.100000
vt -0.867003 -0.360038
vt -0.915452 -0.414747
vt -0.000000 -1.045769
vt -0.484548 -0.985253
vt -0.550066 -0.976945
vt -0.192159 -1.027962
vt 0.000000 -1.045769
vt -0.202124 -1.081270
vt -0.397366 -1.025719
vt -0.943487 -0.037635
vt -0.903666 0.018107
vt -0.377775 -0.975150
vt -0.579075 -0.935239
vt -0.433317 2.665589
vt -0.456513 2.737635
vt -0.496334 2.681893
vt -0.550526 -0.889130
vt -0.433317 2.665589
vt -0.456513 2.737635
vt -0.704530 -0.772832
vt -0.741065 -0.812910
vt 1.016105 -0.022915
vt 1.031075 0.043934
vt -0.877819 -0.662898
vt -0.913638 -0.315281
vt -0.925181 -0.378830
vt -0.834542 -0.630216
vt -0.532997 -1.039962
vt -0.474818 -1.021170
vt -0.984680 -0.490312
vt -0.915452 0.414747
vt -0.925181 0.378830
vt -0.936134 -0.466139
vt -0.422657 0.034926
vt -0.375620 -0.022808
vt -0.411929 -0.028049
vt -1.005847 -0.286188
vt -0.358953 -0.858909
vt -0.349040 -0.943487
vt -0.375620 -0.917977
vt -1.058008 -0.301029
vt -1.095308 -0.101495
vt 1.079588 0.044122
vt 1.043755 -0.022808
vt -1.041308 -0.096491
vt -1.041047 -0.541090
vt -1.050959 -0.456513
vt -1.087682 -0.496334
vt -0.096491 3.100000
vt 0.096491 3.300000
vt 0.368925 2.656066
vt 0.420596 2.728343
vt 0.383895 2.722915
vt -1.095308 0.101495
vt -1.005847 0.286188
vt -1.041308 0.096491
vt -1.058008 0.301029
vt -0.448239 -1.046680
vt -0.486362 -1.084719
vt -0.984680 0.490312
vt -0.913638 2.681190
vt -0.936134 0.466139
vt -0.320412 2.655878
vt -0.368925 2.656066
vt -0.834542 0.630216
vt -0.877819 0.662898
vt -0.704530 0.772832
vt 0.532997 0.912553
vt 0.484548 0.985253
vt 0.550066 0.976945
vt -0.741065 0.812910
vt -1.024380 -0.482023
vt -0.550526 0.889130
vt -0.422658 -0.844405
vt -0.579075 0.935239
vt -0.867003 0.487447
vt -0.849934 0.423055
vt -0.377775 0.975150
vt 0.486362 -0.864040
vt 0.474819 -0.948552
vt 0.448238 -0.920901
vt -0.397366 1.025719
vt -0.448239 -0.037234
vt -0.411929 -0.028049
vt -0.192159 1.027962
vt -0.925181 0.451448
vt -0.202124 1.081270
vt 0.000000 1.045769
vt -0.420596 2.728343
vt -0.486362 0.864040
vt -0.422657 0.844405
vt -1.041047 2.655878
vt -0.474819 0.948552
vt -0.448238 0.920901
vt 1.041047 0.541090
vt 1.050959 0.456513
vt 1.087682 0.496334
vt 0.320412 2.655878
vt 0.368925 2.656066
vt 0.532997 -0.912553
vt -0.532997 0.912553
vt -0.484548 0.985253
vt 0.411930 -0.909710
vt 0.422657 -0.844405
vt 0.420596 2.728343
vt 0.433317 2.665589
vt -0.532997 1.039962
vt -0.550066 0.976945
vt 0.456513 2.737635
vt 0.496334 2.681893
vt -0.448239 1.046680
vt -0.474818 1.021170
vt -1.041047 0.541091
vt -1.050960 0.456513
vt -1.024380 0.482023
vt -0.448239 -0.037234
vt -0.486362 0.018810
vt -0.988071 0.490290
vt 0.448239 -1.046680
vt 0.474818 -1.021170
vt 1.041047 -0.541091
vt 1.050960 -0.456513
vt 1.024380 -0.482023
vt 0.422657 0.034926
vt 0.448239 -0.037234
vt 0.486362 0.018810
vt 0.988071 0.490290
vt 1.024380 0.482023
vt 0.988071 -0.490290
vt 0.977342 -0.555595
vt 0.433317 2.665589
vt 0.456513 2.737635
vt 0.375620 -0.022808
vt 0.411929 -0.028049
vt 1.046000 2.225000
vt -1.046000 2.279000
vt -1.046000 2.225000
vt 0.951762 -0.479099
vt 0.913638 -0.535959
vt -1.079588 0.044122
vt -1.016105 -0.022915
vt -1.043755 -0.022808
vt -1.046000 2.375000
vt 1.046000 2.321000
vt 1.046000 2.375000
vt 0.867003 -0.487447
vt 0.925181 -0.451448
vt 0.474818 1.021170
vt -0.966683 0.034412
vt -1.031075 0.043934
vt 0.422657 0.034926
vt 0.448239 -0.037234
vt 0.411929 -0.028049
vt 0.915452 -0.414747
vt 0.849934 -0.423055
vt -0.943487 -0.037635
vt -0.979404 -0.028343
vt 0.867003 -0.360038
vt 0.925181 -0.378830
vt 0.358953 -0.858909
vt 0.349040 -0.943487
vt 0.312318 -0.903666
vt 0.951762 -0.353320
vt 0.913638 -0.315281
vt 0.375620 -0.917977
vt 0.951762 2.737235
vt 0.988071 2.728049
vt 0.486362 0.864040
vt 0.474819 0.948552
vt 0.356245 2.722807
vt 0.320412 2.655878
vt 0.411930 0.909710
vt 0.448238 0.920901
vt -1.046000 2.321000
vt 0.988071 2.728049
vt 0.358953 0.858909
vt 0.422658 0.844405
vt 1.046000 2.279000
vt 0.913638 2.681190
vt 0.349040 0.943487
vt 0.375620 0.917977
vt 0.913638 0.315281
vt 0.925181 0.378830
vt 0.867003 0.360038
vt 0.966683 0.034412
vt 0.943487 -0.037635
vt 0.903666 0.018107
vt 0.915452 0.414747
vt 0.849934 0.423055
vt 1.016105 -0.022915
vt 0.979404 -0.028343
vt 0.925181 0.451448
vt 0.867003 0.487447
vt 1.031075 0.043934
vt 1.043755 -0.022808
vt 0.951762 0.479099
vt 0.913638 0.535959
vt 0.375620 -0.022808
vt 0.358953 0.044122
vt 0.977342 0.555595
vt -1.046000 0.096000
vt 1.046000 -0.096000
vt 1.046000 0.096000
vt -1.046000 -0.096000
vt -0.876091 0.190406
vt -0.115712 1.997443
vt -0.243585 2.054547
vt -0.371457 2.111651
vt 0.432114 -0.978814
vt 1.170391 0.091878
vt 0.007806 1.942283
vt 0.122763 1.890946
vt 0.225245 1.845181
vt 0.882015 2.860348
vt 0.311760 1.806545
vt 0.339717 1.776354
vt 0.459295 1.806545
vt 0.208571 1.755638
vt 0.070322 1.745100
vt -0.070322 1.745100
vt -0.208571 1.755638
vt -0.339717 1.776354
vt -0.459295 1.806545
vt 0.311761 1.806545
vt 0.225244 1.845181
vt 0.122763 1.890946
vt 0.007806 1.942282
vt -0.115712 1.997442
vt -0.243585 2.054547
vt -0.371457 2.111651
vt -0.494975 2.166811
vt -0.609932 2.218147
vt -0.255291 3.368237
vt -0.712413 2.263913
vt -0.625447 3.483171
vt -0.462612 3.524284
vt -0.095762 3.566844
vt 0.095762 3.566844
vt 0.462612 3.524283
vt 0.625447 3.483171
vt -0.712414 2.263913
vt -0.255291 3.368237
vt -0.494975 2.166811
vt -0.098747 3.298329
vt 0.000000 3.246000
vt 0.202124 3.154000
vt 0.000000 3.154000
vt -0.202124 3.246000
vt -0.202124 3.154000
vt 0.202124 3.246000
vt 0.397366 3.154000
vt 0.397366 3.246000
vt 0.579075 3.154000
vt 0.579075 3.246000
vt 0.741065 3.154000
vt 0.812910 3.246000
vt 0.662898 3.154000
vt 0.812910 3.154000
vt 0.662898 3.246000
vt 0.490312 3.154000
vt 0.490312 3.246000
vt 0.301029 3.154000
vt 0.301029 3.246000
vt -0.301029 3.154000
vt -0.301029 3.246000
vt -0.490312 3.154000
vt -0.490312 3.246000
vt -0.662898 3.154000
vt -0.662898 3.246000
vt -0.812910 3.154000
vt 0.741065 3.246000
vt -0.397366 3.154000
vt -0.397366 3.246000
vt -0.579075 3.154000
vt -0.579075 3.246000
vt -0.741065 3.154000
vt -0.812910 3.246000
vt -0.741065 3.246000
vt -0.339311 -0.979404
vt -0.358953 -0.000611
vt -0.422658 -0.016728
vt -0.486362 -0.025924
vt -0.951762 -0.353320
vt -1.060689 -0.420596
vt -0.312319 0.018107
vt -0.423055 2.716213
vt -0.487447 2.725735
vt -1.079588 0.044122
vt -0.913638 2.725924
vt -0.977342 2.716728
vt -0.486362 0.018810
vt -1.087682 2.681893
vt -0.532997 0.000092
vt -0.496334 2.681893
vt -0.976945 -0.016213
vt -1.039962 0.000092
vt -0.912553 -0.025735
vt -0.864040 -0.025924
vt -0.375620 1.043755
vt -0.358953 0.044122
vt -1.041047 2.700611
vt -1.050960 0.383895
vt 0.535959 2.725924
vt 0.423055 2.716213
vt 0.360038 2.699908
vt 0.903666 0.018107
vt -0.312318 0.018107
vt -0.913638 2.681190
vt -0.358953 -0.000611
vt -0.422657 -0.016728
vt -0.486362 -0.025924
vt 0.864040 -0.025924
vt 0.912553 -0.025735
vt 0.976945 -0.016213
vt 1.039962 0.000092
vt -0.532997 0.000092
vt 0.349040 -1.016105
vt 0.486362 -0.025924
vt 0.422657 -0.016728
vt 0.913638 2.681190
vt 0.358953 -0.000611
vt 0.988071 -0.345053
vt -0.864040 -0.025924
vt -0.912553 -0.025735
vt -1.039962 0.000092
vt 0.532997 0.000092
vt 1.041047 2.700611
vt 0.977342 2.716728
vt 0.358953 0.044122
vt -0.535959 2.725924
vt -0.423055 2.716213
vt -0.360038 2.699908
vt -0.903666 0.018107
vt 0.312318 0.018107
vt 0.375620 1.043755
vt 0.486362 0.018810
vt 0.913638 2.725924
vt 0.951762 0.353320
vt 1.060689 0.420596
vt 1.087682 2.681893
vt 0.532997 0.000092
vt 0.496334 2.681893
vt 1.039962 0.000092
vt 0.912553 -0.025735
vt 0.864040 -0.025924
vt 0.422658 -0.016728
vt 0.486362 -0.025924
vt 0.358953 -0.000611
vt 0.312319 0.018107
vt 0.423055 2.716213
vt 0.487447 2.725735
vt 1.079588 0.044122
vt 0.882402 2.922669
vt 0.743690 2.979758
vt -0.599486 -0.591554
vt -0.098747 -0.967771
vt 0.647989 2.218147
vt -0.312319 -0.903666
vt -0.486362 1.084719
vt -1.087682 0.496334
vt 0.486362 -1.084719
vt 1.087682 -0.496334
vt 0.312319 0.903666
vt -0.693043 -0.514179
vt -0.772024 -0.419294
vt -0.833740 -0.310131
vt -0.876091 -0.190406
vt -0.897633 -0.064197
vt -0.897633 0.064197
vt -0.833740 0.310131
vt -0.772024 0.419294
vt -0.693043 0.514179
vt 0.593495 0.928527
vt 0.432114 0.978814
vt 0.265044 0.995769
vt 0.097975 0.978814
vt 0.097975 -0.978814
vt 0.265044 -0.995769
vt 0.593495 -0.928527
vt 0.743690 -0.846620
vt 0.877585 -0.735882
vt 0.990622 -0.600085
vt 1.078949 -0.443852
vt 1.139561 -0.272505
vt 1.170391 -0.091878
vt 1.139561 0.272505
vt 1.078949 0.443852
vt 0.990622 0.600085
vt 0.877585 0.735882
vt 0.743690 0.846620
vt 0.999829 2.807735
vt 0.999829 2.807735
vt -0.394846 3.430559
vt -0.766984 3.430559
vt -0.284022 3.552495
vt 0.284022 3.552495
vt 0.766984 3.430559
vt -0.349040 -1.016105
vt -0.375620 -1.043755
vt -0.411929 -1.054947
vt -0.988071 -0.345053
vt -1.024379 -0.356245
vt -1.050960 -0.383895
vt -0.867003 2.699908
vt -0.360038 2.699908
vt -1.041047 2.700611
vt -0.411929 1.054947
vt -0.349040 1.016105
vt -0.339311 0.979404
vt -1.060689 0.420596
vt -1.024379 0.356245
vt -0.988071 0.345053
vt 0.339311 -0.979404
vt 0.411929 -1.054947
vt 0.375620 -1.043755
vt 1.060689 -0.420596
vt 1.050960 -0.383895
vt 1.024379 -0.356245
vt 0.867003 2.699908
vt 0.339311 0.979404
vt 0.349040 1.016105
vt 0.411929 1.054947
vt 1.041047 2.700611
vt 0.988071 0.345053
vt 1.024379 0.356245
vt 1.050960 0.383895
vt 0.360038 2.699908
s 1
f 231/1/121 229/2/120 232/3/120
f 879/4/421 880/5/422 892/6/430
f 239/7/125 237/8/124 240/9/124
f 821/10/386 803/11/374 802/12/373
f 232/3/120 221/13/115 222/14/116
f 885/15/425 891/16/429 886/17/426
f 252/18/135 247/19/130 248/20/131
f 854/21/407 853/22/406 897/23/433
f 848/4/402 850/6/404 874/5/418
f 220/7/113 218/8/114 217/24/113
f 844/10/399 845/12/400 902/11/436
f 228/25/119 233/26/122 227/27/119
f 252/18/135 255/28/137 251/29/134
f 235/30/123 233/31/122 236/32/122
f 822/15/387 873/17/417 823/16/388
f 225/33/118 223/34/117 226/35/117
f 849/22/403 801/21/372 804/23/375
f 260/36/141 255/28/137 256/37/138
f 222/14/116 215/38/112 216/39/112
f 213/40/111 211/41/110 214/42/110
f 260/36/141 263/43/143 259/44/140
f 209/35/109 207/45/108 210/33/108
f 206/46/107 215/47/112 205/48/107
f 264/49/144 267/50/146 263/43/143
f 206/46/107 203/51/106 204/52/106
f 202/53/105 238/24/125 239/7/125
f 268/54/147 271/55/149 267/50/146
f 204/52/106 199/56/104 200/57/104
f 197/58/103 195/59/102 198/60/102
f 276/61/153 271/55/149 272/62/150
f 225/33/118 193/63/101 224/45/118
f 192/64/100 199/56/104 191/65/100
f 190/53/99 217/24/113 189/66/99
f 280/67/156 275/68/152 276/61/153
f 187/69/98 185/70/97 188/71/97
f 184/72/96 191/65/100 183/73/96
f 284/74/159 279/75/155 280/67/156
f 210/33/108 181/63/95 182/76/95
f 184/72/96 179/77/94 180/78/94
f 284/74/159 287/79/161 283/80/158
f 177/81/93 175/82/92 178/83/92
f 180/78/94 173/84/91 174/85/91
f 202/53/105 171/86/90 201/66/105
f 288/87/162 291/88/164 287/79/161
f 174/85/91 169/89/89 170/90/89
f 296/91/168 291/88/164 292/92/165
f 168/93/88 193/63/101 194/76/101
f 166/94/87 169/89/89 165/95/87
f 190/53/99 163/86/86 164/96/86
f 300/97/171 295/98/167 296/91/168
f 161/99/85 159/100/84 162/101/84
f 158/102/83 165/95/87 157/103/83
f 155/104/82 153/105/80 156/106/80
f 300/97/171 303/107/173 299/108/170
f 152/93/79 181/63/95 151/109/79
f 158/102/83 149/110/78 150/111/78
f 304/112/174 307/113/176 303/107/173
f 150/39/78 147/13/77 148/114/77
f 146/115/76 171/86/90 172/96/90
f 312/116/180 307/113/176 308/117/177
f 144/118/75 147/13/77 143/119/74
f 316/120/183 311/121/179 312/116/180
f 168/93/88 141/122/73 167/109/88
f 140/123/72 143/119/74 139/124/72
f 138/115/71 163/86/86 137/125/71
f 316/120/183 319/126/185 315/127/182
f 140/123/72 135/128/70 136/129/70
f 320/130/186 323/131/188 319/126/185
f 152/93/79 133/122/69 134/132/69
f 132/133/68 135/128/70 131/134/68
f 328/135/192 323/131/188 324/136/189
f 130/137/67 131/138/68 129/139/67
f 128/140/66 145/141/76 146/142/76
f 332/143/195 327/144/191 328/145/192
f 130/137/67 125/146/65 126/147/65
f 124/148/64 159/149/84 123/150/64
f 332/143/195 335/151/198 331/152/194
f 142/132/73 121/153/63 141/122/73
f 126/147/65 119/154/62 120/155/62
f 138/156/71 117/157/61 118/158/61
f 340/159/202 335/151/198 336/160/199
f 116/161/59 114/162/60 113/163/59
f 120/155/62 111/164/58 112/165/58
f 213/40/111 109/166/57 212/167/111
f 344/168/205 339/169/201 340/159/202
f 134/132/69 107/153/56 108/170/56
f 112/165/58 105/171/55 106/172/55
f 348/173/208 343/174/204 344/168/205
f 235/30/123 103/175/53 234/176/123
f 102/177/52 105/171/55 101/178/52
f 128/179/66 99/180/51 127/181/66
f 348/173/208 351/182/210 347/183/207
f 98/184/50 101/178/52 97/185/50
f 95/186/49 93/187/48 96/188/48
f 352/189/211 355/190/213 351/182/210
f 98/184/50 91/191/47 92/192/47
f 118/179/61 89/180/46 90/193/46
f 356/194/214 359/195/216 355/190/213
f 88/196/45 121/153/63 122/170/63
f 86/197/44 91/191/47 85/198/44
f 84/199/43 153/200/80 83/201/43
f 360/202/217 363/203/219 359/195/216
f 82/204/42 85/198/44 81/205/42
f 364/206/220 367/207/222 363/203/219
f 79/208/41 77/209/40 80/210/40
f 76/211/39 81/205/42 75/212/39
f 226/35/117 99/180/51 100/193/51
f 368/213/223 371/214/225 367/207/222
f 74/196/38 107/153/56 73/215/38
f 72/216/37 75/212/39 71/217/37
f 198/60/102 114/162/60 115/218/60
f 372/219/226 375/220/228 371/221/225
f 69/222/36 67/223/35 70/224/35
f 72/216/37 65/225/34 66/226/34
f 209/35/109 89/180/46 208/34/109
f 380/227/232 375/220/228 376/228/229
f 64/199/33 175/229/92 63/230/33
f 62/129/32 65/231/34 61/232/32
f 248/20/131 379/233/231 380/227/232
f 62/129/32 230/234/121 231/1/121
f 219/9/114 59/235/31 218/8/114
f 58/236/30 123/150/64 57/237/30
f 56/238/29 237/8/124 55/235/29
f 60/238/31 53/239/28 59/235/31
f 56/238/29 51/239/27 52/240/27
f 155/104/82 49/241/26 154/242/81
f 54/240/28 47/243/25 53/239/28
f 52/240/27 45/243/24 46/244/24
f 44/245/23 47/243/25 48/244/25
f 42/246/22 196/247/103 197/58/103
f 46/244/24 39/248/21 40/245/21
f 214/42/110 37/249/20 38/250/20
f 44/245/23 35/251/19 43/252/23
f 40/245/21 33/251/18 34/253/18
f 32/254/17 35/251/19 36/253/19
f 58/236/30 29/255/16 30/256/16
f 28/254/15 33/251/18 27/257/15
f 26/258/14 31/257/17 32/254/17
f 23/259/13 21/260/12 24/261/12
f 20/258/11 27/257/15 19/262/11
f 50/263/26 17/264/9 49/241/26
f 26/258/14 15/265/8 25/262/14
f 20/258/11 13/265/7 14/266/7
f 228/25/119 11/267/6 12/268/6
f 10/269/5 15/265/8 16/266/8
f 8/270/4 41/271/22 42/246/22
f 6/269/3 13/265/7 5/272/3
f 4/273/2 37/249/20 3/274/2
f 2/275/1 9/272/5 10/269/5
f 177/81/93 730/276/335 176/277/93
f 6/269/3 732/278/336 731/275/336
f 733/279/337 735/280/338 736/281/337
f 2/275/1 738/282/339 1/278/1
f 739/283/340 29/284/16 740/285/340
f 731/275/336 742/282/341 741/286/341
f 743/287/342 738/282/339 737/286/339
f 734/288/338 11/267/6 735/289/338
f 745/287/343 742/282/341 746/290/343
f 747/291/344 17/292/9 18/293/10
f 749/158/345 744/294/342 743/156/342
f 745/142/343 752/295/346 751/140/346
f 753/296/347 755/297/348 756/298/349
f 749/299/345 758/300/350 750/301/345
f 751/299/346 760/300/351 759/302/351
f 4/273/2 762/303/352 761/304/352
f 763/305/353 758/300/350 757/302/350
f 84/199/43 7/229/4 8/306/4
f 765/305/354 760/300/351 766/307/354
f 70/308/35 768/242/355 767/309/355
f 763/305/353 770/310/356 764/307/353
f 765/305/354 772/310/357 771/311/357
f 769/311/356 774/312/358 770/310/356
f 776/313/360 778/314/359 775/315/359
f 771/311/357 780/312/361 779/316/361
f 747/291/344 113/163/59 748/317/344
f 773/316/358 782/318/362 774/312/358
f 739/283/340 109/166/57 110/319/57
f 783/320/363 780/312/361 784/318/363
f 785/321/364 730/276/335 729/322/335
f 781/320/362 788/323/365 782/318/362
f 789/324/366 791/325/367 792/326/366
f 783/320/363 794/323/368 793/327/368
f 161/99/85 762/328/352 160/329/85
f 787/327/365 796/330/369 788/323/365
f 785/321/364 185/70/97 786/331/364
f 793/327/368 798/330/370 797/332/370
f 74/196/38 796/330/369 795/332/369
f 797/332/370 87/333/45 88/196/45
f 767/309/355 22/334/13 23/259/13
f 799/335/371 103/175/53 104/336/54
f 802/12/373 804/23/375 801/21/372
f 64/199/33 806/200/376 805/337/376
f 799/335/371 808/338/377 800/339/371
f 810/340/379 812/341/380 809/342/378
f 805/343/376 814/298/381 813/344/381
f 790/345/367 93/187/48 791/325/367
f 807/346/377 816/347/382 808/338/377
f 789/324/366 818/348/384 817/349/383
f 813/344/381 820/350/385 819/351/385
f 822/15/387 803/11/374 821/10/386
f 824/352/389 816/347/382 815/353/382
f 819/351/385 827/354/390 826/355/390
f 824/352/389 829/356/391 825/357/389
f 830/358/392 827/359/390 831/360/392
f 733/279/337 829/361/391 828/362/391
f 830/358/392 186/363/98 187/69/98
f 95/186/49 833/364/393 94/365/49
f 834/366/394 21/367/12 835/368/394
f 836/369/395 833/370/393 832/371/393
f 810/340/379 839/372/396 811/373/379
f 834/366/394 841/374/397 840/375/397
f 754/376/348 812/377/380 755/297/348
f 836/369/395 843/378/398 837/379/395
f 821/380/386 845/381/400 844/382/399
f 840/375/397 847/383/401 846/384/401
f 849/22/403 850/6/404 848/4/402
f 842/385/398 852/386/405 843/387/398
f 853/388/406 801/389/372 849/390/403
f 855/391/408 847/383/401 856/392/408
f 79/208/41 778/314/359 78/393/41
f 857/394/409 852/386/405 851/395/405
f 859/396/410 77/397/40 860/398/410
f 855/391/408 862/399/411 861/400/411
f 857/394/409 864/401/412 858/402/409
f 865/403/413 862/399/411 866/404/413
f 867/405/414 864/406/412 863/407/412
f 865/403/413 870/408/415 869/409/415
f 867/405/414 818/348/384 868/410/414
f 69/222/36 870/411/415 68/412/36
f 871/413/416 777/414/360 776/313/360
f 823/16/388 874/5/418 850/6/404
f 753/296/347 876/415/419 875/416/419
f 871/413/416 878/417/420 872/418/416
f 848/390/402 880/419/422 879/388/421
f 881/222/423 876/223/419 882/420/423
f 883/421/424 878/417/420 877/422/420
f 885/382/425 873/423/417 822/380/387
f 881/222/423 888/411/427 887/424/427
f 883/421/424 890/425/428 884/426/424
f 886/17/426 892/6/430 880/5/422
f 887/427/427 894/428/431 893/429/431
f 895/430/432 890/431/428 889/432/428
f 879/4/421 897/23/433 853/22/406
f 893/429/431 899/433/434 898/434/434
f 895/430/432 901/435/435 896/436/432
f 854/21/407 902/11/436 845/12/400
f 898/434/434 904/437/437 903/438/437
f 900/439/435 906/440/438 901/435/435
f 844/10/399 891/16/429 885/15/425
f 903/438/437 908/441/439 907/442/439
f 859/396/410 906/443/438 905/444/438
f 838/445/396 908/441/439 839/372/396
f 721/389/126 245/381/126 719/423/126
f 243/23/128 712/16/128 246/11/128
f 714/446/127 720/447/127 726/448/127
f 723/448/129 244/449/129 711/446/129
f 259/44/140 323/131/188 355/450/213
f 250/1/133 252/451/135 248/452/131
f 382/129/233 248/452/131 380/453/232
f 377/225/132 313/454/132 281/455/132
f 252/451/135 258/14/139 256/456/138
f 258/14/139 260/457/141 256/456/138
f 262/39/142 264/458/144 260/457/141
f 266/459/145 268/460/147 264/458/144
f 270/52/148 272/461/150 268/462/147
f 274/57/151 276/463/153 272/461/150
f 278/64/154 280/464/156 276/463/153
f 280/464/156 286/78/160 284/465/159
f 284/465/159 290/85/163 288/466/162
f 288/466/162 294/90/166 292/467/165
f 292/467/165 298/94/169 296/468/168
f 296/469/168 302/459/172 300/470/171
f 302/459/172 304/471/174 300/470/171
f 304/471/174 310/114/178 308/472/177
f 310/114/178 312/473/180 308/472/177
f 312/473/180 318/123/184 316/474/183
f 318/123/184 320/475/186 316/474/183
f 320/475/186 326/133/190 324/476/189
f 326/133/190 328/477/192 324/476/189
f 330/478/193 332/479/195 328/477/192
f 332/143/195 338/480/200 336/160/199
f 338/480/200 340/159/202 336/160/199
f 342/481/203 344/168/205 340/159/202
f 344/168/205 350/482/209 348/173/208
f 350/482/209 352/189/211 348/173/208
f 354/483/212 356/194/214 352/189/211
f 356/194/214 362/484/218 360/202/217
f 362/484/218 364/206/220 360/202/217
f 366/485/221 368/213/223 364/206/220
f 368/486/223 374/487/227 372/477/226
f 374/487/227 376/488/229 372/477/226
f 378/489/230 380/453/232 376/488/229
f 483/290/129 411/180/129 443/239/129
f 386/490/234 388/491/235 384/492/234
f 518/493/270 384/492/234 516/494/269
f 417/181/127 489/301/127 457/251/127
f 390/495/236 392/496/237 388/491/235
f 394/497/237 396/498/238 392/496/237
f 398/499/238 400/500/239 396/498/238
f 402/501/239 404/502/240 400/503/239
f 406/504/240 408/505/241 404/502/240
f 410/506/241 412/507/242 408/505/241
f 414/508/242 416/158/243 412/507/242
f 418/140/243 420/156/244 416/158/243
f 422/142/244 424/509/245 420/156/244
f 426/510/245 428/511/246 424/509/245
f 430/512/246 432/513/247 428/511/246
f 434/514/247 436/515/248 432/513/247
f 438/516/248 440/498/249 436/500/248
f 442/499/249 444/496/250 440/498/249
f 446/497/250 448/491/251 444/496/250
f 450/495/252 452/492/126 448/491/251
f 454/490/126 456/494/253 452/492/126
f 458/493/254 460/517/255 456/494/253
f 462/518/255 464/519/256 460/517/255
f 466/520/256 468/521/257 464/519/256
f 470/522/257 472/513/258 468/515/257
f 474/514/258 476/511/259 472/513/258
f 478/512/259 480/509/260 476/511/259
f 482/510/260 484/156/261 480/509/260
f 486/142/261 488/158/262 484/156/261
f 490/140/262 492/507/263 488/158/262
f 494/508/263 496/505/264 492/507/263
f 498/506/264 500/502/265 496/505/264
f 502/504/265 504/503/266 500/502/265
f 506/523/266 508/519/267 504/521/266
f 510/520/267 512/517/268 508/519/267
f 514/518/268 516/494/269 512/517/268
f 547/303/271 563/167/271 531/524/271
f 522/199/272 524/525/274 520/526/272
f 566/337/286 520/526/272 564/527/286
f 541/162/273 525/528/273 557/529/273
f 526/306/274 528/530/275 524/525/274
f 528/256/275 534/531/276 532/236/276
f 534/531/276 536/148/277 532/236/276
f 538/532/277 540/533/278 536/148/277
f 542/534/278 544/99/279 540/101/278
f 546/535/279 548/536/280 544/99/279
f 548/536/280 554/537/281 552/538/281
f 554/539/281 556/540/283 552/541/281
f 558/263/283 560/542/284 556/540/283
f 562/104/285 564/543/286 560/542/284
f 571/544/287 587/176/287 603/347/287
f 570/535/288 572/545/290 568/279/288
f 614/546/302 568/279/288 612/362/302
f 601/547/289 585/277/289 569/363/289
f 574/548/290 576/268/291 572/288/290
f 576/268/291 582/549/292 580/25/292
f 580/25/292 586/550/293 584/551/293
f 584/552/293 590/553/294 588/554/294
f 590/553/294 592/555/296 588/554/294
f 594/199/296 596/556/297 592/555/296
f 596/557/297 602/344/299 600/558/298
f 600/558/298 606/351/300 604/559/300
f 606/351/300 608/560/301 604/559/300
f 608/561/301 614/546/302 612/362/302
f 615/348/304 631/365/304 647/562/304
f 618/222/272 620/563/306 616/564/272
f 662/565/319 616/564/272 660/566/319
f 633/367/305 617/567/305 649/392/305
f 620/568/306 626/309/308 624/569/307
f 624/569/307 630/259/310 628/540/310
f 630/259/310 632/570/312 628/540/310
f 632/571/312 638/572/313 636/371/313
f 638/572/313 640/369/279 636/371/313
f 642/573/279 644/574/315 640/369/279
f 646/575/315 648/395/316 644/385/315
f 648/395/316 654/576/317 652/394/317
f 652/394/317 658/577/318 656/578/318
f 656/579/318 662/565/319 660/566/319
f 691/426/320 707/580/320 675/314/320
f 666/573/288 668/581/322 664/396/288
f 710/582/333 664/396/288 708/444/333
f 709/441/321 693/583/321 677/584/321
f 668/581/322 674/585/323 672/586/323
f 674/587/323 676/559/325 672/588/323
f 678/376/325 680/589/326 676/559/325
f 682/296/327 684/590/328 680/589/326
f 686/224/328 688/591/296 684/592/328
f 690/222/296 692/593/329 688/591/296
f 694/424/329 696/594/330 692/593/329
f 696/432/330 702/595/331 700/430/331
f 702/595/331 704/439/332 700/430/331
f 706/596/332 708/597/333 704/439/332
f 715/419/234 724/423/234 713/381/234
f 727/6/334 718/11/334 725/16/334
f 231/1/121 230/234/121 229/2/120
f 239/7/125 238/24/125 237/8/124
f 232/3/120 229/2/120 221/13/115
f 252/18/135 251/29/134 247/19/130
f 220/7/113 219/9/114 218/8/114
f 228/25/119 236/551/122 233/26/122
f 252/18/135 256/37/138 255/28/137
f 235/30/123 234/176/123 233/31/122
f 225/33/118 224/45/118 223/34/117
f 260/36/141 259/44/140 255/28/137
f 222/14/116 221/13/115 215/38/112
f 213/40/111 212/167/111 211/41/110
f 260/36/141 264/49/144 263/43/143
f 209/35/109 208/34/109 207/45/108
f 206/46/107 216/598/112 215/47/112
f 264/49/144 268/54/147 267/50/146
f 206/46/107 205/48/107 203/51/106
f 202/53/105 201/66/105 238/24/125
f 268/54/147 272/62/150 271/55/149
f 204/52/106 203/51/106 199/56/104
f 197/58/103 196/247/103 195/59/102
f 276/61/153 275/68/152 271/55/149
f 225/33/118 194/76/101 193/63/101
f 192/64/100 200/57/104 199/56/104
f 190/53/99 220/7/113 217/24/113
f 280/67/156 279/75/155 275/68/152
f 187/69/98 186/363/98 185/70/97
f 184/72/96 192/64/100 191/65/100
f 284/74/159 283/80/158 279/75/155
f 210/33/108 207/45/108 181/63/95
f 184/72/96 183/73/96 179/77/94
f 284/74/159 288/87/162 287/79/161
f 177/81/93 176/277/93 175/82/92
f 180/78/94 179/77/94 173/84/91
f 202/53/105 172/96/90 171/86/90
f 288/87/162 292/92/165 291/88/164
f 174/85/91 173/84/91 169/89/89
f 296/91/168 295/98/167 291/88/164
f 168/93/88 167/109/88 193/63/101
f 166/94/87 170/90/89 169/89/89
f 190/53/99 189/66/99 163/86/86
f 300/97/171 299/108/170 295/98/167
f 161/99/85 160/329/85 159/100/84
f 158/102/83 166/94/87 165/95/87
f 155/104/82 154/242/81 153/105/80
f 300/97/171 304/112/174 303/107/173
f 152/93/79 182/76/95 181/63/95
f 158/102/83 157/103/83 149/110/78
f 304/112/174 308/117/177 307/113/176
f 150/39/78 149/599/78 147/13/77
f 146/115/76 145/125/76 171/86/90
f 312/116/180 311/121/179 307/113/176
f 144/118/75 148/114/77 147/13/77
f 316/120/183 315/127/182 311/121/179
f 168/93/88 142/132/73 141/122/73
f 140/123/72 144/118/75 143/119/74
f 138/115/71 164/96/86 163/86/86
f 316/120/183 320/130/186 319/126/185
f 140/123/72 139/124/72 135/128/70
f 320/130/186 324/136/189 323/131/188
f 152/93/79 151/109/79 133/122/69
f 132/133/68 136/129/70 135/128/70
f 328/135/192 327/600/191 323/131/188
f 130/137/67 132/601/68 131/138/68
f 128/140/66 127/295/66 145/141/76
f 332/143/195 331/152/194 327/144/191
f 130/137/67 129/139/67 125/146/65
f 124/148/64 162/533/84 159/149/84
f 332/143/195 336/160/199 335/151/198
f 142/132/73 122/170/63 121/153/63
f 126/147/65 125/146/65 119/154/62
f 138/156/71 137/294/71 117/157/61
f 340/159/202 339/169/201 335/151/198
f 116/161/59 115/218/60 114/162/60
f 120/155/62 119/154/62 111/164/58
f 213/40/111 110/319/57 109/166/57
f 344/168/205 343/174/204 339/169/201
f 134/132/69 133/122/69 107/153/56
f 112/165/58 111/164/58 105/171/55
f 348/173/208 347/183/207 343/174/204
f 235/30/123 104/336/54 103/175/53
f 102/177/52 106/172/55 105/171/55
f 128/179/66 100/193/51 99/180/51
f 348/173/208 352/189/211 351/182/210
f 98/184/50 102/177/52 101/178/52
f 95/186/49 94/365/49 93/187/48
f 352/189/211 356/194/214 355/190/213
f 98/184/50 97/185/50 91/191/47
f 118/179/61 117/181/61 89/180/46
f 356/194/214 360/202/217 359/195/216
f 88/196/45 87/333/45 121/153/63
f 86/197/44 92/192/47 91/191/47
f 84/199/43 156/337/80 153/200/80
f 360/202/217 364/206/220 363/203/219
f 82/204/42 86/197/44 85/198/44
f 364/206/220 368/213/223 367/207/222
f 79/208/41 78/393/41 77/209/40
f 76/211/39 82/204/42 81/205/42
f 226/35/117 223/34/117 99/180/51
f 368/213/223 372/602/226 371/214/225
f 74/196/38 108/170/56 107/153/56
f 72/216/37 76/211/39 75/212/39
f 198/60/102 195/59/102 114/162/60
f 372/219/226 376/228/229 375/220/228
f 69/222/36 68/412/36 67/223/35
f 72/216/37 71/217/37 65/225/34
f 209/35/109 90/193/46 89/180/46
f 380/227/232 379/233/231 375/220/228
f 64/199/33 178/553/92 175/229/92
f 62/129/32 66/489/34 65/231/34
f 248/20/131 247/19/130 379/233/231
f 62/129/32 61/232/32 230/234/121
f 219/9/114 60/238/31 59/235/31
f 58/236/30 124/148/64 123/150/64
f 56/238/29 240/9/124 237/8/124
f 60/238/31 54/240/28 53/239/28
f 56/238/29 55/235/29 51/239/27
f 155/104/82 50/263/26 49/241/26
f 54/240/28 48/244/25 47/243/25
f 52/240/27 51/239/27 45/243/24
f 44/245/23 43/252/23 47/243/25
f 42/246/22 41/271/22 196/247/103
f 46/244/24 45/243/24 39/248/21
f 214/42/110 211/41/110 37/249/20
f 44/245/23 36/253/19 35/251/19
f 40/245/21 39/248/21 33/251/18
f 32/254/17 31/257/17 35/251/19
f 58/236/30 57/237/30 29/255/16
f 28/254/15 34/253/18 33/251/18
f 26/258/14 25/262/14 31/257/17
f 23/259/13 22/334/13 21/260/12
f 20/258/11 28/254/15 27/257/15
f 50/263/26 18/539/10 17/264/9
f 26/258/14 16/266/8 15/265/8
f 20/258/11 19/262/11 13/265/7
f 228/25/119 227/27/119 11/267/6
f 10/269/5 9/272/5 15/265/8
f 8/270/4 7/528/4 41/271/22
f 6/269/3 14/266/7 13/265/7
f 4/273/2 38/250/20 37/249/20
f 2/275/1 1/278/1 9/272/5
f 177/81/93 729/322/335 730/276/335
f 6/269/3 5/272/3 732/278/336
f 733/279/337 734/545/338 735/280/338
f 2/275/1 737/286/339 738/282/339
f 739/283/340 30/603/16 29/284/16
f 731/275/336 732/278/336 742/282/341
f 743/287/342 744/290/342 738/282/339
f 734/288/338 12/268/6 11/267/6
f 745/287/343 741/286/341 742/282/341
f 747/291/344 748/317/344 17/292/9
f 749/158/345 750/157/345 744/294/342
f 745/142/343 746/141/343 752/295/346
f 753/296/347 754/376/348 755/297/348
f 749/299/345 757/302/350 758/300/350
f 751/299/346 752/301/346 760/300/351
f 4/273/2 3/274/2 762/303/352
f 763/305/353 764/307/353 758/300/350
f 84/199/43 83/201/43 7/229/4
f 765/305/354 759/302/351 760/300/351
f 70/308/35 67/105/35 768/242/355
f 763/305/353 769/311/356 770/310/356
f 765/305/354 766/307/354 772/310/357
f 769/311/356 773/316/358 774/312/358
f 776/313/360 777/414/360 778/314/359
f 771/311/357 772/310/357 780/312/361
f 747/291/344 116/161/59 113/163/59
f 773/316/358 781/320/362 782/318/362
f 739/283/340 740/285/340 109/166/57
f 783/320/363 779/316/361 780/312/361
f 785/321/364 786/331/364 730/276/335
f 781/320/362 787/327/365 788/323/365
f 789/324/366 790/345/367 791/325/367
f 783/320/363 784/318/363 794/323/368
f 161/99/85 761/536/352 762/328/352
f 787/327/365 795/332/369 796/330/369
f 785/321/364 188/71/97 185/70/97
f 793/327/368 794/323/368 798/330/370
f 74/196/38 73/215/38 796/330/369
f 797/332/370 798/330/370 87/333/45
f 767/309/355 768/242/355 22/334/13
f 799/335/371 800/339/371 103/175/53
f 802/12/373 803/11/374 804/23/375
f 64/199/33 63/230/33 806/200/376
f 799/335/371 807/346/377 808/338/377
f 810/340/379 811/373/379 812/341/380
f 805/343/376 806/415/376 814/298/381
f 790/345/367 96/188/48 93/187/48
f 807/346/377 815/353/382 816/347/382
f 789/324/366 792/326/366 818/348/384
f 813/344/381 814/298/381 820/350/385
f 822/15/387 823/16/388 803/11/374
f 824/352/389 825/357/389 816/347/382
f 819/351/385 820/350/385 827/354/390
f 824/352/389 828/604/391 829/356/391
f 830/358/392 826/605/390 827/359/390
f 733/279/337 736/281/337 829/361/391
f 830/358/392 831/360/392 186/363/98
f 95/186/49 832/606/393 833/364/393
f 834/366/394 24/607/12 21/367/12
f 836/369/395 837/379/395 833/370/393
f 810/340/379 838/445/396 839/372/396
f 834/366/394 835/368/394 841/374/397
f 754/376/348 809/587/378 812/377/380
f 836/369/395 842/574/398 843/378/398
f 821/380/386 802/423/373 845/381/400
f 840/375/397 841/374/397 847/383/401
f 849/22/403 804/23/375 850/6/404
f 842/385/398 851/395/405 852/386/405
f 853/388/406 854/419/407 801/389/372
f 855/391/408 846/384/401 847/383/401
f 79/208/41 775/315/359 778/314/359
f 857/394/409 858/402/409 852/386/405
f 859/396/410 80/581/40 77/397/40
f 855/391/408 856/392/408 862/399/411
f 857/394/409 863/578/412 864/401/412
f 865/403/413 861/400/411 862/399/411
f 867/405/414 868/410/414 864/406/412
f 865/403/413 866/404/413 870/408/415
f 867/405/414 817/349/383 818/348/384
f 69/222/36 869/565/415 870/411/415
f 871/413/416 872/418/416 777/414/360
f 823/16/388 873/17/417 874/5/418
f 753/296/347 756/298/349 876/415/419
f 871/413/416 877/422/420 878/417/420
f 848/390/402 874/389/418 880/419/422
f 881/222/423 875/224/419 876/223/419
f 883/421/424 884/426/424 878/417/420
f 885/382/425 886/381/426 873/423/417
f 881/222/423 882/420/423 888/411/427
f 883/421/424 889/608/428 890/425/428
f 886/17/426 891/16/429 892/6/430
f 887/427/427 888/583/427 894/428/431
f 895/430/432 896/436/432 890/431/428
f 879/4/421 892/6/430 897/23/433
f 893/429/431 894/428/431 899/433/434
f 895/430/432 900/439/435 901/435/435
f 854/21/407 897/23/433 902/11/436
f 898/434/434 899/433/434 904/437/437
f 900/439/435 905/597/438 906/440/438
f 844/10/399 902/11/436 891/16/429
f 903/438/437 904/437/437 908/441/439
f 859/396/410 860/398/410 906/443/438
f 838/445/396 907/442/439 908/441/439
f 721/389/126 241/419/126 245/381/126
f 243/23/128 716/6/128 712/16/128
f 714/446/127 242/449/127 720/447/127
f 723/448/129 717/447/129 244/449/129
f 379/233/231 247/19/130 251/29/134
f 251/29/134 255/28/137 259/44/140
f 259/44/140 263/43/143 267/50/146
f 267/50/146 271/55/149 275/68/152
f 275/68/152 279/75/155 283/80/158
f 283/80/158 287/79/161 291/88/164
f 291/88/164 295/98/167 299/108/170
f 299/108/170 303/107/173 307/113/176
f 307/113/176 311/121/179 315/127/182
f 315/127/182 319/126/185 323/131/188
f 323/131/188 327/600/191 331/609/194
f 331/609/194 335/610/198 339/611/201
f 339/611/201 343/612/204 347/613/207
f 347/613/207 351/614/210 355/450/213
f 355/450/213 359/615/216 363/616/219
f 363/616/219 367/617/222 371/221/225
f 371/221/225 375/220/228 379/233/231
f 379/233/231 251/29/134 259/44/140
f 259/44/140 267/50/146 275/68/152
f 275/68/152 283/80/158 291/88/164
f 291/88/164 299/108/170 307/113/176
f 307/113/176 315/127/182 323/131/188
f 323/131/188 331/609/194 339/611/201
f 339/611/201 347/613/207 355/450/213
f 355/450/213 363/616/219 371/221/225
f 371/221/225 379/233/231 259/44/140
f 259/44/140 275/68/152 291/88/164
f 291/88/164 307/113/176 323/131/188
f 323/131/188 339/611/201 355/450/213
f 355/450/213 371/221/225 259/44/140
f 259/44/140 291/88/164 323/131/188
f 250/1/133 254/3/136 252/451/135
f 382/129/233 250/1/133 248/452/131
f 257/618/132 253/619/132 249/620/132
f 249/620/132 381/621/132 377/225/132
f 377/225/132 373/217/132 369/212/132
f 369/212/132 365/205/132 361/198/132
f 361/198/132 357/191/132 353/185/132
f 353/185/132 349/178/196 345/171/132
f 345/171/132 341/164/132 337/154/132
f 337/154/132 333/146/196 329/139/132
f 329/139/132 325/138/132 321/622/132
f 321/622/132 317/623/132 313/454/132
f 313/454/132 309/624/132 305/625/132
f 305/625/132 301/626/132 297/627/132
f 297/627/132 293/628/132 289/629/132
f 289/629/132 285/630/132 281/455/132
f 281/455/132 277/631/132 273/632/132
f 273/632/132 269/633/132 265/634/132
f 265/634/132 261/635/132 257/618/132
f 257/618/132 249/620/132 377/225/132
f 377/225/132 369/212/132 361/198/132
f 361/198/132 353/185/132 345/171/132
f 345/171/132 337/154/132 329/139/132
f 329/139/132 321/622/132 313/454/132
f 313/454/132 305/625/132 297/627/132
f 297/627/132 289/629/132 281/455/132
f 281/455/132 273/632/132 265/634/132
f 265/634/132 257/618/132 377/225/132
f 377/225/132 361/198/132 345/171/132
f 345/171/132 329/139/132 313/454/132
f 313/454/132 297/627/132 281/455/132
f 281/455/132 265/634/132 377/225/132
f 377/225/132 345/171/132 313/454/132
f 252/451/135 254/3/136 258/14/139
f 258/14/139 262/39/142 260/457/141
f 262/39/142 266/459/145 264/458/144
f 266/459/145 270/636/148 268/460/147
f 270/52/148 274/57/151 272/461/150
f 274/57/151 278/64/154 276/463/153
f 278/64/154 282/72/157 280/464/156
f 280/464/156 282/72/157 286/78/160
f 284/465/159 286/78/160 290/85/163
f 288/466/162 290/85/163 294/90/166
f 292/467/165 294/90/166 298/94/169
f 296/469/168 298/637/169 302/459/172
f 302/459/172 306/39/175 304/471/174
f 304/471/174 306/39/175 310/114/178
f 310/114/178 314/118/181 312/473/180
f 312/473/180 314/118/181 318/123/184
f 318/123/184 322/129/187 320/475/186
f 320/475/186 322/129/187 326/133/190
f 326/133/190 330/478/193 328/477/192
f 330/478/193 334/638/197 332/479/195
f 332/143/195 334/639/197 338/480/200
f 338/480/200 342/481/203 340/159/202
f 342/481/203 346/640/206 344/168/205
f 344/168/205 346/640/206 350/482/209
f 350/482/209 354/483/212 352/189/211
f 354/483/212 358/641/215 356/194/214
f 356/194/214 358/641/215 362/484/218
f 362/484/218 366/485/221 364/206/220
f 366/485/221 370/642/224 368/213/223
f 368/486/223 370/638/224 374/487/227
f 374/487/227 378/489/230 376/488/229
f 378/489/230 382/129/233 380/453/232
f 467/265/129 471/272/129 475/278/129
f 475/278/129 479/282/129 483/290/129
f 483/290/129 487/301/129 491/300/129
f 491/300/129 495/307/129 499/310/129
f 499/310/129 503/312/129 507/318/129
f 507/318/129 511/323/129 515/330/129
f 515/330/129 383/215/129 387/153/129
f 387/153/129 391/122/129 395/109/129
f 395/109/129 399/63/129 403/45/129
f 403/45/129 407/34/129 411/180/129
f 411/180/129 415/181/129 419/125/129
f 419/125/129 423/86/129 427/66/129
f 427/66/129 431/24/129 435/8/129
f 435/8/129 439/235/129 443/239/129
f 443/239/129 447/243/129 451/252/129
f 451/252/129 455/251/129 459/257/129
f 459/257/129 463/262/129 467/265/129
f 467/265/129 475/278/129 483/290/129
f 483/290/129 491/300/129 499/310/129
f 499/310/129 507/318/129 515/330/129
f 515/330/129 387/153/129 395/109/129
f 395/109/129 403/45/129 411/180/129
f 411/180/129 419/125/129 427/66/129
f 427/66/129 435/8/129 443/239/129
f 443/239/129 451/252/129 459/257/129
f 459/257/129 467/265/129 483/290/129
f 483/290/129 499/310/129 515/330/129
f 515/330/129 395/109/129 411/180/129
f 411/180/129 427/66/129 443/239/129
f 443/239/129 459/257/129 483/290/129
f 483/290/129 515/330/129 411/180/129
f 386/490/234 390/495/236 388/491/235
f 518/493/270 386/490/234 384/492/234
f 433/24/127 429/66/127 425/86/127
f 425/86/127 421/125/127 417/181/127
f 417/181/127 413/180/127 409/34/127
f 409/34/127 405/45/127 401/63/127
f 401/63/127 397/109/127 393/122/127
f 393/122/127 389/153/127 385/333/127
f 385/333/127 517/330/127 513/323/127
f 513/323/127 509/318/127 505/312/127
f 505/312/127 501/310/127 497/307/127
f 497/307/127 493/300/127 489/301/127
f 489/301/127 485/290/127 481/282/127
f 481/282/127 477/278/127 473/272/127
f 473/272/127 469/265/127 465/262/127
f 465/262/127 461/257/127 457/251/127
f 457/251/127 453/248/127 449/243/127
f 449/243/127 445/239/127 441/235/127
f 441/235/127 437/8/127 433/24/127
f 433/24/127 425/86/127 417/181/127
f 417/181/127 409/34/127 401/63/127
f 401/63/127 393/122/127 385/333/127
f 385/333/127 513/323/127 505/312/127
f 505/312/127 497/307/127 489/301/127
f 489/301/127 481/282/127 473/272/127
f 473/272/127 465/262/127 457/251/127
f 457/251/127 449/243/127 441/235/127
f 441/235/127 433/24/127 417/181/127
f 417/181/127 401/63/127 385/333/127
f 385/333/127 505/312/127 489/301/127
f 489/301/127 473/272/127 457/251/127
f 457/251/127 441/235/127 417/181/127
f 417/181/127 385/333/127 489/301/127
f 390/495/236 394/497/237 392/496/237
f 394/497/237 398/499/238 396/498/238
f 398/499/238 402/516/239 400/500/239
f 402/501/239 406/504/240 404/502/240
f 406/504/240 410/506/241 408/505/241
f 410/506/241 414/508/242 412/507/242
f 414/508/242 418/140/243 416/158/243
f 418/140/243 422/142/244 420/156/244
f 422/142/244 426/510/245 424/509/245
f 426/510/245 430/512/246 428/511/246
f 430/512/246 434/514/247 432/513/247
f 434/514/247 438/522/248 436/515/248
f 438/516/248 442/499/249 440/498/249
f 442/499/249 446/497/250 444/496/250
f 446/497/250 450/495/252 448/491/251
f 450/495/252 454/490/126 452/492/126
f 454/490/126 458/493/254 456/494/253
f 458/493/254 462/518/255 460/517/255
f 462/518/255 466/520/256 464/519/256
f 466/520/256 470/523/257 468/521/257
f 470/522/257 474/514/258 472/513/258
f 474/514/258 478/512/259 476/511/259
f 478/512/259 482/510/260 480/509/260
f 482/510/260 486/142/261 484/156/261
f 486/142/261 490/140/262 488/158/262
f 490/140/262 494/508/263 492/507/263
f 494/508/263 498/506/264 496/505/264
f 498/506/264 502/504/265 500/502/265
f 502/504/265 506/501/266 504/503/266
f 506/523/266 510/520/267 508/519/267
f 510/520/267 514/518/268 512/517/268
f 514/518/268 518/493/270 516/494/269
f 531/524/271 535/643/271 539/644/271
f 539/644/271 543/645/271 547/303/271
f 547/303/271 551/274/271 555/249/271
f 555/249/271 559/41/271 563/167/271
f 563/167/271 519/166/271 523/285/271
f 523/285/271 527/284/271 531/524/271
f 531/524/271 539/644/271 547/303/271
f 547/303/271 555/249/271 563/167/271
f 563/167/271 523/285/271 531/524/271
f 522/199/272 526/306/274 524/525/274
f 566/337/286 522/199/272 520/526/272
f 557/529/273 553/292/282 549/317/273
f 549/317/273 545/163/273 541/162/273
f 541/162/273 537/59/273 533/247/273
f 533/247/273 529/271/273 525/528/273
f 525/528/273 521/646/273 565/647/273
f 565/647/273 561/648/273 557/529/273
f 557/529/273 549/317/273 541/162/273
f 541/162/273 533/247/273 525/528/273
f 525/528/273 565/647/273 557/529/273
f 526/306/274 530/649/275 528/530/275
f 528/256/275 530/650/275 534/531/276
f 534/531/276 538/532/277 536/148/277
f 538/532/277 542/575/278 540/533/278
f 542/534/278 546/535/279 544/99/279
f 546/535/279 550/651/280 548/536/280
f 548/536/280 550/651/280 554/537/281
f 554/539/281 558/263/283 556/540/283
f 558/263/283 562/104/285 560/542/284
f 562/104/285 566/106/286 564/543/286
f 603/347/287 607/357/287 611/356/287
f 611/356/287 567/652/287 571/544/287
f 571/544/287 575/653/287 579/654/287
f 579/654/287 583/31/287 587/176/287
f 587/176/287 591/175/287 595/339/287
f 595/339/287 599/338/287 603/347/287
f 603/347/287 611/356/287 571/544/287
f 571/544/287 579/654/287 587/176/287
f 587/176/287 595/339/287 603/347/287
f 570/535/288 574/534/290 572/545/290
f 614/546/302 570/535/288 568/279/288
f 569/363/289 613/360/303 609/359/289
f 609/359/289 605/655/295 601/547/289
f 601/547/289 597/656/289 593/657/289
f 593/657/289 589/82/295 585/277/289
f 585/277/289 581/276/289 577/331/289
f 577/331/289 573/70/289 569/363/289
f 569/363/289 609/359/289 601/547/289
f 601/547/289 593/657/289 585/277/289
f 585/277/289 577/331/289 569/363/289
f 574/548/290 578/596/291 576/268/291
f 576/268/291 578/596/291 582/549/292
f 580/25/292 582/549/292 586/550/293
f 584/552/293 586/649/293 590/553/294
f 590/553/294 594/199/296 592/555/296
f 594/199/296 598/337/297 596/556/297
f 596/557/297 598/343/297 602/344/299
f 600/558/298 602/344/299 606/351/300
f 606/351/300 610/355/301 608/560/301
f 608/561/301 610/537/301 614/546/302
f 647/562/304 651/658/309 655/406/304
f 655/406/304 659/410/304 615/348/304
f 615/348/304 619/326/304 623/325/304
f 623/325/304 627/187/309 631/365/304
f 631/365/304 635/364/309 639/659/304
f 639/659/304 643/660/304 647/562/304
f 647/562/304 655/406/304 615/348/304
f 615/348/304 623/325/304 631/365/304
f 631/365/304 639/659/304 647/562/304
f 618/222/272 622/224/306 620/563/306
f 662/565/319 618/222/272 616/564/272
f 649/392/305 645/383/305 641/374/305
f 641/374/305 637/368/314 633/367/305
f 633/367/305 629/661/311 625/662/305
f 625/662/305 621/663/305 617/567/305
f 617/567/305 661/408/311 657/404/305
f 657/404/305 653/399/305 649/392/305
f 649/392/305 641/374/305 633/367/305
f 633/367/305 625/662/305 617/567/305
f 617/567/305 657/404/305 649/392/305
f 620/568/306 622/308/306 626/309/308
f 624/569/307 626/309/308 630/259/310
f 630/259/310 634/261/312 632/570/312
f 632/571/312 634/585/312 638/572/313
f 638/572/313 642/573/279 640/369/279
f 642/573/279 646/582/315 644/574/315
f 646/575/315 650/532/316 648/395/316
f 648/395/316 650/532/316 654/576/317
f 652/394/317 654/576/317 658/577/318
f 656/579/318 658/664/318 662/565/319
f 675/314/320 679/414/320 683/418/320
f 683/418/320 687/417/320 691/426/320
f 691/426/320 695/425/320 699/665/320
f 699/665/320 703/666/320 707/580/320
f 707/580/320 663/667/320 667/209/320
f 667/209/320 671/393/320 675/314/320
f 675/314/320 683/418/320 691/426/320
f 691/426/320 699/665/320 707/580/320
f 707/580/320 667/209/320 675/314/320
f 666/573/288 670/668/322 668/581/322
f 710/582/333 666/573/288 664/396/288
f 677/584/321 673/341/324 669/373/321
f 669/373/321 665/372/321 709/441/321
f 709/441/321 705/437/321 701/433/321
f 701/433/321 697/428/321 693/583/321
f 693/583/321 689/669/321 685/670/321
f 685/670/321 681/671/321 677/584/321
f 677/584/321 669/373/321 709/441/321
f 709/441/321 701/433/321 693/583/321
f 693/583/321 685/670/321 677/584/321
f 668/581/322 670/668/322 674/585/323
f 674/587/323 678/376/325 676/559/325
f 678/376/325 682/296/327 680/589/326
f 682/296/327 686/416/328 684/590/328
f 686/224/328 690/222/296 688/591/296
f 690/222/296 694/424/329 692/593/329
f 694/424/329 698/664/330 696/594/330
f 696/432/330 698/672/330 702/595/331
f 702/595/331 706/596/332 704/439/332
f 706/596/332 710/548/333 708/597/333
f 715/419/234 728/389/234 724/423/234
f 727/6/334 722/23/334 718/11/334
