# Blender 5.2.0 LTS
# www.blender.org
o Backdrop_Soap
v -24.549999 6.000000 14.550000
v -25.000000 5.550000 14.550000
v -24.549999 5.550000 15.000000
v -24.549999 1.450000 15.000000
v -25.000000 1.450000 -14.550000
v -25.000000 1.450000 14.550000
v -24.549999 1.000000 14.550000
v -24.549999 1.000000 -14.550000
v 24.549999 16.950001 15.000000
v 24.549999 21.049999 15.000000
v 25.000000 21.049999 14.550000
v 24.549999 21.500000 14.550000
v 25.000000 16.950001 14.550000
v 24.549999 16.500000 14.550000
v 25.000000 16.950001 -14.550000
v 25.000000 21.049999 -14.550000
v 24.549999 21.049999 -15.000000
v 24.549999 21.500000 -14.550000
v 24.549999 16.950001 -15.000000
v 24.549999 16.500000 -14.550000
v -24.549999 16.950001 -15.000000
v -24.549999 21.049999 -15.000000
v -25.000000 21.049999 -14.550000
v -24.549999 21.500000 -14.550000
v -24.549999 21.500000 14.550000
v -25.000000 21.049999 14.550000
v -24.549999 21.049999 15.000000
v -24.549999 16.950001 15.000000
v -25.000000 16.950001 -14.550000
v -25.000000 16.950001 14.550000
v -24.549999 16.500000 14.550000
v -24.549999 16.500000 -14.550000
v 27.549999 4.450000 18.000000
v 27.549999 16.549999 18.000000
v 28.000000 16.549999 17.549999
v 27.549999 17.000000 17.549999
v 28.000000 4.450000 17.549999
v 27.549999 4.000000 17.549999
v 28.000000 4.450000 -17.549999
v 28.000000 16.549999 -17.549999
v 27.549999 16.549999 -18.000000
v 27.549999 17.000000 -17.549999
v 27.549999 4.450000 -18.000000
v 27.549999 4.000000 -17.549999
v -27.549999 4.450000 -18.000000
v -27.549999 16.549999 -18.000000
v -28.000000 16.549999 -17.549999
v -27.549999 17.000000 -17.549999
v -27.549999 17.000000 17.549999
v -28.000000 16.549999 17.549999
v -27.549999 16.549999 18.000000
v -27.549999 4.450000 18.000000
v -28.000000 4.450000 -17.549999
v -28.000000 4.450000 17.549999
v -27.549999 4.000000 17.549999
v -27.549999 4.000000 -17.549999
v -27.549999 4.000000 17.549999
v -27.549999 4.450000 18.000000
v -28.000000 4.450000 17.549999
v -27.549999 16.549999 18.000000
v -27.549999 17.000000 17.549999
v -28.000000 16.549999 17.549999
v -27.549999 4.000000 -17.549999
v -28.000000 4.450000 -17.549999
v -27.549999 4.450000 -18.000000
v -27.549999 17.000000 -17.549999
v -27.549999 16.549999 -18.000000
v -28.000000 16.549999 -17.549999
v 27.549999 4.000000 17.549999
v 28.000000 4.450000 17.549999
v 27.549999 4.450000 18.000000
v 27.549999 17.000000 17.549999
v 27.549999 16.549999 18.000000
v 28.000000 16.549999 17.549999
v 27.549999 4.000000 -17.549999
v 27.549999 4.450000 -18.000000
v 28.000000 4.450000 -17.549999
v 27.549999 17.000000 -17.549999
v 28.000000 16.549999 -17.549999
v 27.549999 16.549999 -18.000000
v -24.549999 16.500000 14.550000
v -24.549999 16.950001 15.000000
v -25.000000 16.950001 14.550000
v -24.549999 21.049999 15.000000
v -24.549999 21.500000 14.550000
v -25.000000 21.049999 14.550000
v -24.549999 16.500000 -14.550000
v -25.000000 16.950001 -14.550000
v -24.549999 16.950001 -15.000000
v -24.549999 21.500000 -14.550000
v -24.549999 21.049999 -15.000000
v -25.000000 21.049999 -14.550000
v 24.549999 16.500000 14.550000
v 25.000000 16.950001 14.550000
v 24.549999 16.950001 15.000000
v 24.549999 21.500000 14.550000
v 24.549999 21.049999 15.000000
v 25.000000 21.049999 14.550000
v 24.549999 16.500000 -14.550000
v 24.549999 16.950001 -15.000000
v 25.000000 16.950001 -14.550000
v 24.549999 21.500000 -14.550000
v 25.000000 21.049999 -14.550000
v 24.549999 21.049999 -15.000000
v -24.549999 1.000000 14.550000
v -24.549999 1.450000 15.000000
v -25.000000 1.450000 14.550000
v -24.549999 5.550000 15.000000
v -24.549999 6.000000 14.550000
v -25.000000 5.550000 14.550000
v -24.549999 1.000000 -14.550000
v -25.000000 1.450000 -14.550000
v -24.549999 1.450000 -15.000000
v -24.549999 6.000000 -14.550000
v -24.549999 5.550000 -15.000000
v -25.000000 5.550000 -14.550000
v 24.549999 1.000000 14.550000
v 25.000000 1.450000 14.550000
v 24.549999 1.450000 15.000000
v 24.549999 6.000000 14.550000
v 24.549999 5.550000 15.000000
v 25.000000 5.550000 14.550000
v 24.549999 1.000000 -14.550000
v 24.549999 1.450000 -15.000000
v 25.000000 1.450000 -14.550000
v 24.549999 6.000000 -14.550000
v 25.000000 5.550000 -14.550000
v 24.549999 5.550000 -15.000000
v 29.719204 0.250000 -5.663077
v 29.934946 0.700000 -5.268164
v 29.324291 0.700000 -5.447335
v 29.934946 3.300000 -5.268164
v 29.719204 3.750000 -5.663077
v 29.324291 3.300000 -5.447335
v 27.274134 0.250000 -10.138747
v 26.879223 0.700000 -9.923006
v 27.058393 0.700000 -10.533659
v 27.274136 3.750000 -10.138747
v 27.058393 3.300000 -10.533660
v 26.879223 3.300000 -9.923006
v 44.725864 0.250000 -13.861252
v 45.120777 0.700000 -14.076994
v 44.941605 0.700000 -13.466341
v 44.725864 3.750000 -13.861252
v 44.941605 3.300000 -13.466340
v 45.120777 3.300000 -14.076994
v 42.280792 0.250000 -18.336924
v 42.065052 0.700000 -18.731836
v 42.675705 0.700000 -18.552666
v 42.280792 3.750000 -18.336924
v 42.675705 3.300000 -18.552666
v 42.065052 3.300000 -18.731836
v 36.213902 0.250000 4.643207
v 35.891090 0.700000 4.956726
v 35.900383 0.700000 4.320397
v 35.891090 3.300000 4.956726
v 36.213902 3.750000 4.643207
v 35.900383 3.300000 4.320396
v 39.872414 0.250000 1.090003
v 39.558895 0.700000 0.767193
v 40.195225 0.700000 0.776485
v 39.872414 3.750000 1.090003
v 40.195225 3.300000 0.776485
v 39.558895 3.300000 0.767192
v 48.127586 0.250000 16.909996
v 48.441105 0.700000 17.232807
v 47.804775 0.700000 17.223515
v 48.127586 3.750000 16.909996
v 47.804775 3.300000 17.223515
v 48.441105 3.300000 17.232807
v 51.786098 0.250000 13.356792
v 52.108910 0.700000 13.043275
v 52.099617 0.700000 13.679604
v 51.786098 3.750000 13.356792
v 52.099617 3.300000 13.679604
v 52.108910 3.300000 13.043275
v 22.346678 0.250000 25.586031
v 22.458010 0.700000 26.022041
v 21.910667 0.700000 25.697363
v 22.458010 3.300000 26.022041
v 22.346678 3.750000 25.586031
v 21.910667 3.300000 25.697363
v 21.084917 0.250000 20.644577
v 20.648907 0.700000 20.755909
v 20.973585 0.700000 20.208567
v 21.084917 3.750000 20.644577
v 20.973585 3.300000 20.208567
v 20.648907 3.300000 20.755909
v 38.915081 0.250000 21.355423
v 39.351093 0.700000 21.244091
v 39.026413 0.700000 21.791433
v 38.915081 3.750000 21.355423
v 39.026413 3.300000 21.791433
v 39.351093 3.300000 21.244091
v 37.653320 0.250000 16.413969
v 37.541988 0.700000 15.977959
v 38.089333 0.700000 16.302637
v 37.653320 3.750000 16.413969
v 38.089333 3.300000 16.302637
v 37.541988 3.300000 15.977959
v 46.394333 0.250000 -11.223506
v 46.795376 0.700000 -11.019388
v 46.190216 0.700000 -10.822463
v 46.795376 3.300000 -11.019388
v 46.394333 3.750000 -11.223506
v 46.190216 3.300000 -10.822463
v 41.849174 0.250000 -13.536846
v 41.645058 0.700000 -13.135804
v 41.448132 0.700000 -13.740965
v 41.849174 3.750000 -13.536846
v 41.448132 3.300000 -13.740965
v 41.645058 3.300000 -13.135804
v 54.150826 0.250000 -26.463154
v 54.354942 0.700000 -26.864197
v 54.551868 0.700000 -26.259035
v 54.150826 3.750000 -26.463154
v 54.551868 3.300000 -26.259035
v 54.354942 3.300000 -26.864197
v 49.605667 0.250000 -28.776495
v 49.204624 0.700000 -28.980612
v 49.809784 0.700000 -29.177536
v 49.605667 3.750000 -28.776493
v 49.809784 3.300000 -29.177536
v 49.204624 3.300000 -28.980612
v -24.549999 6.000000 -14.550000
v -25.000000 5.550000 -14.550000
v -24.549999 5.550000 -15.000000
v -24.549999 1.450000 -15.000000
v 24.549999 1.000000 -14.550000
v 24.549999 1.450000 -15.000000
v 24.549999 6.000000 -14.550000
v 24.549999 5.550000 -15.000000
v 25.000000 5.550000 -14.550000
v 25.000000 1.450000 -14.550000
v 24.549999 1.000000 14.550000
v 25.000000 1.450000 14.550000
v 24.549999 6.000000 14.550000
v 25.000000 5.550000 14.550000
v 24.549999 5.550000 15.000000
v 24.549999 1.450000 15.000000
v 27.274134 0.250000 -10.138747
v 29.719204 0.250000 -5.663077
v 29.324291 0.700000 -5.447335
v 26.879223 0.700000 -9.923006
v 29.934946 0.700000 -5.268164
v 29.934946 3.300000 -5.268164
v 29.324291 3.300000 -5.447335
v 29.719204 3.750000 -5.663077
v 27.274136 3.750000 -10.138747
v 26.879223 3.300000 -9.923006
v 27.058393 3.300000 -10.533660
v 27.058393 0.700000 -10.533659
v 42.280792 0.250000 -18.336924
v 42.065052 0.700000 -18.731836
v 42.280792 3.750000 -18.336924
v 42.065052 3.300000 -18.731836
v 42.675705 3.300000 -18.552666
v 42.675705 0.700000 -18.552666
v 44.725864 0.250000 -13.861252
v 45.120777 0.700000 -14.076994
v 44.725864 3.750000 -13.861252
v 45.120777 3.300000 -14.076994
v 44.941605 3.300000 -13.466340
v 44.941605 0.700000 -13.466341
v 39.872414 0.250000 1.090003
v 36.213902 0.250000 4.643207
v 35.900383 0.700000 4.320397
v 39.558895 0.700000 0.767193
v 35.891090 0.700000 4.956726
v 35.891090 3.300000 4.956726
v 35.900383 3.300000 4.320396
v 36.213902 3.750000 4.643207
v 39.872414 3.750000 1.090003
v 39.558895 3.300000 0.767192
v 40.195225 3.300000 0.776485
v 40.195225 0.700000 0.776485
v 51.786098 0.250000 13.356792
v 52.108910 0.700000 13.043275
v 51.786098 3.750000 13.356792
v 52.108910 3.300000 13.043275
v 52.099617 3.300000 13.679604
v 52.099617 0.700000 13.679604
v 48.127586 0.250000 16.909996
v 48.441105 0.700000 17.232807
v 48.127586 3.750000 16.909996
v 48.441105 3.300000 17.232807
v 47.804775 3.300000 17.223515
v 47.804775 0.700000 17.223515
v 21.084917 0.250000 20.644577
v 22.346678 0.250000 25.586031
v 21.910667 0.700000 25.697363
v 20.648907 0.700000 20.755909
v 22.458010 0.700000 26.022041
v 22.458010 3.300000 26.022041
v 21.910667 3.300000 25.697363
v 22.346678 3.750000 25.586031
v 21.084917 3.750000 20.644577
v 20.648907 3.300000 20.755909
v 20.973585 3.300000 20.208567
v 20.973585 0.700000 20.208567
v 37.653320 0.250000 16.413969
v 37.541988 0.700000 15.977959
v 37.653320 3.750000 16.413969
v 37.541988 3.300000 15.977959
v 38.089333 3.300000 16.302637
v 38.089333 0.700000 16.302637
v 38.915081 0.250000 21.355423
v 39.351093 0.700000 21.244091
v 38.915081 3.750000 21.355423
v 39.351093 3.300000 21.244091
v 39.026413 3.300000 21.791433
v 39.026413 0.700000 21.791433
v 41.849174 0.250000 -13.536846
v 46.394333 0.250000 -11.223506
v 46.190216 0.700000 -10.822463
v 41.645058 0.700000 -13.135804
v 46.795376 0.700000 -11.019388
v 46.795376 3.300000 -11.019388
v 46.190216 3.300000 -10.822463
v 46.394333 3.750000 -11.223506
v 41.849174 3.750000 -13.536846
v 41.645058 3.300000 -13.135804
v 41.448132 3.300000 -13.740965
v 41.448132 0.700000 -13.740965
v 49.605667 0.250000 -28.776495
v 49.204624 0.700000 -28.980612
v 49.605667 3.750000 -28.776493
v 49.204624 3.300000 -28.980612
v 49.809784 3.300000 -29.177536
v 49.809784 0.700000 -29.177536
v 54.150826 0.250000 -26.463154
v 54.354942 0.700000 -26.864197
v 54.150826 3.750000 -26.463154
v 54.354942 3.300000 -26.864197
v 54.551868 3.300000 -26.259035
v 54.551868 0.700000 -26.259035
vn -0.4606 0.7588 0.4606
vn -0.7588 0.4606 0.4606
vn -0.4606 0.4606 0.7588
vn -0.4606 -0.4606 0.7588
vn -0.7588 -0.4606 -0.4606
vn -0.7588 -0.4606 0.4606
vn -0.4606 -0.7588 0.4606
vn -0.4606 -0.7588 -0.4606
vn 0.4606 -0.4606 0.7588
vn 0.4606 0.4606 0.7588
vn 0.7588 0.4606 0.4606
vn 0.4606 0.7588 0.4606
vn 0.7588 -0.4606 0.4606
vn 0.4606 -0.7588 0.4606
vn 0.7588 -0.4606 -0.4606
vn 0.7588 0.4606 -0.4606
vn 0.4606 0.4606 -0.7588
vn 0.4606 0.7588 -0.4606
vn 0.4606 -0.4606 -0.7588
vn 0.4606 -0.7588 -0.4606
vn -0.4606 -0.4606 -0.7588
vn -0.4606 0.4606 -0.7588
vn -0.7588 0.4606 -0.4606
vn -0.4606 0.7588 -0.4606
vn -0.0000 -1.0000 -0.0000
vn -0.0000 -0.0000 1.0000
vn -1.0000 -0.0000 -0.0000
vn -0.0000 1.0000 -0.0000
vn -0.0000 -0.0000 -1.0000
vn 1.0000 -0.0000 -0.0000
vn 0.4794 -0.0000 0.8776
vn -0.8776 -0.0000 0.4794
vn -0.4794 -0.0000 -0.8776
vn 0.8776 -0.0000 -0.4794
vn -0.7174 -0.0000 0.6967
vn -0.6967 -0.0000 -0.7174
vn 0.7174 -0.0000 -0.6967
vn 0.6967 -0.0000 0.7174
vn 0.2474 -0.0000 0.9689
vn -0.9689 -0.0000 0.2474
vn -0.2474 -0.0000 -0.9689
vn 0.9689 -0.0000 -0.2474
vn 0.8912 -0.0000 0.4536
vn -0.4536 -0.0000 0.8912
vn -0.8912 -0.0000 -0.4536
vn 0.4536 -0.0000 -0.8912
vn -0.6250 -0.7588 -0.1834
vn -0.1834 -0.7588 0.6250
vn -0.4451 -0.4606 0.7680
vn -0.8867 -0.4606 -0.0404
vn -0.0404 -0.4606 0.8867
vn -0.0404 0.4606 0.8867
vn -0.4451 0.4606 0.7680
vn -0.1834 0.7588 0.6250
vn -0.6250 0.7588 -0.1834
vn -0.8867 0.4606 -0.0404
vn -0.7680 0.4606 -0.4451
vn -0.7680 -0.4606 -0.4451
vn 0.1834 -0.7588 -0.6250
vn 0.0404 -0.4606 -0.8867
vn 0.1834 0.7588 -0.6250
vn 0.0404 0.4606 -0.8867
vn 0.4451 0.4606 -0.7680
vn 0.4451 -0.4606 -0.7680
vn 0.6250 -0.7588 0.1834
vn 0.8867 -0.4606 0.0404
vn 0.6250 0.7588 0.1834
vn 0.8867 0.4606 0.0404
vn 0.7680 0.4606 0.4451
vn 0.7680 -0.4606 0.4451
vn 0.0095 -0.7588 -0.6513
vn -0.6513 -0.7588 -0.0095
vn -0.8590 -0.4606 -0.2234
vn -0.1983 -0.4606 -0.8652
vn -0.8652 -0.4606 0.1983
vn -0.8652 0.4606 0.1983
vn -0.8590 0.4606 -0.2235
vn -0.6513 0.7588 -0.0095
vn 0.0095 0.7588 -0.6513
vn -0.1983 0.4606 -0.8652
vn 0.2234 0.4606 -0.8590
vn 0.2234 -0.4606 -0.8590
vn 0.6513 -0.7588 0.0095
vn 0.8652 -0.4606 -0.1983
vn 0.6513 0.7588 0.0095
vn 0.8652 0.4606 -0.1983
vn 0.8590 0.4606 0.2235
vn 0.8590 -0.4606 0.2234
vn -0.0095 -0.7588 0.6513
vn 0.1983 -0.4606 0.8652
vn -0.0095 0.7588 0.6513
vn 0.1983 0.4606 0.8652
vn -0.2234 0.4606 0.8590
vn -0.2235 -0.4606 0.8590
vn -0.5602 -0.7588 -0.3323
vn -0.3323 -0.7588 0.5602
vn -0.6213 -0.4606 0.6340
vn -0.8491 -0.4606 -0.2585
vn -0.2585 -0.4606 0.8491
vn -0.2585 0.4606 0.8491
vn -0.6213 0.4606 0.6340
vn -0.3323 0.7588 0.5602
vn -0.5602 0.7588 -0.3323
vn -0.8491 0.4606 -0.2585
vn -0.6340 0.4606 -0.6213
vn -0.6340 -0.4606 -0.6213
vn 0.3323 -0.7588 -0.5602
vn 0.2585 -0.4606 -0.8491
vn 0.3323 0.7588 -0.5602
vn 0.2585 0.4606 -0.8491
vn 0.6213 0.4606 -0.6340
vn 0.6213 -0.4606 -0.6340
vn 0.5602 -0.7588 0.3323
vn 0.8491 -0.4606 0.2585
vn 0.5602 0.7588 0.3323
vn 0.8491 0.4606 0.2585
vn 0.6340 0.4606 0.6213
vn 0.6340 -0.4606 0.6213
vn -0.6194 -0.7588 0.2015
vn 0.2015 -0.7588 0.6194
vn 0.0663 -0.4606 0.8851
vn -0.7546 -0.4606 0.4673
vn 0.4673 -0.4606 0.7546
vn 0.4673 0.4606 0.7546
vn 0.0663 0.4606 0.8852
vn 0.2015 0.7588 0.6194
vn -0.6194 0.7588 0.2015
vn -0.7546 0.4606 0.4673
vn -0.8851 0.4606 0.0663
vn -0.8851 -0.4606 0.0663
vn -0.2015 -0.7588 -0.6194
vn -0.4673 -0.4606 -0.7546
vn -0.2015 0.7588 -0.6194
vn -0.4673 0.4606 -0.7546
vn -0.0663 0.4606 -0.8852
vn -0.0663 -0.4606 -0.8851
vn 0.6194 -0.7588 -0.2015
vn 0.7546 -0.4606 -0.4673
vn 0.6194 0.7588 -0.2015
vn 0.7546 0.4606 -0.4673
vn 0.8851 0.4606 -0.0663
vn 0.8851 -0.4606 -0.0663
vt -1.377500 -0.877500
vt -1.377500 -0.900000
vt -1.400000 -0.877500
vt -1.377500 0.877500
vt -1.400000 0.877500
vt -1.377500 0.900000
vt 1.377500 -0.877500
vt 1.400000 -0.877500
vt 1.377500 -0.900000
vt 1.377500 0.877500
vt 1.377500 0.900000
vt 1.400000 0.877500
vt -1.227500 0.825000
vt -1.227500 0.847500
vt -1.250000 0.847500
vt -1.227500 1.052500
vt -1.227500 1.075000
vt -1.250000 1.052500
vt 1.227500 0.825000
vt 1.250000 0.847500
vt 1.227500 0.847500
vt 1.227500 1.075000
vt 1.227500 1.052500
vt 1.250000 1.052500
vt -1.227500 0.050000
vt -1.227500 0.072500
vt -1.250000 0.072500
vt -1.227500 -0.750000
vt -1.227500 -0.727500
vt -1.250000 -0.727500
vt -1.227500 0.727500
vt -1.227500 0.750000
vt -1.250000 0.727500
vt 1.227500 0.050000
vt 1.250000 0.072500
vt 1.227500 0.072500
vt 1.227500 -0.727500
vt 1.227500 -0.750000
vt 1.250000 -0.727500
vt 1.227500 0.727500
vt 1.250000 0.727500
vt 1.227500 0.750000
vt 1.485960 0.012500
vt 1.496747 0.035000
vt 1.466215 0.035000
vt 1.496747 0.165000
vt 1.485960 0.187500
vt 1.466215 0.165000
vt 0.506937 0.012500
vt 0.496150 0.035000
vt 0.526683 0.035000
vt 0.506937 0.187500
vt 0.526683 0.165000
vt 0.496150 0.165000
vt 0.693063 0.012500
vt 0.703850 0.035000
vt 0.673317 0.035000
vt 0.693063 0.187500
vt 0.673317 0.165000
vt 0.703850 0.165000
vt 2.114040 0.012500
vt 2.103253 0.035000
vt 2.133785 0.035000
vt 2.114040 0.187500
vt 2.133785 0.165000
vt 2.103253 0.165000
vt -0.232160 0.012500
vt -0.247836 0.035000
vt -0.216020 0.035000
vt -0.247836 0.165000
vt -0.232160 0.187500
vt -0.216020 0.165000
vt 1.993621 0.012500
vt 1.977945 0.035000
vt 2.009761 0.035000
vt 1.993621 0.187500
vt 2.009761 0.165000
vt 1.977945 0.165000
vt 2.406379 0.012500
vt 2.422055 0.035000
vt 2.390239 0.035000
vt 2.406379 0.187500
vt 2.390239 0.165000
vt 2.422055 0.165000
vt -0.667840 0.012500
vt -0.652164 0.035000
vt -0.683980 0.035000
vt -0.667840 0.187500
vt -0.683980 0.165000
vt -0.652164 0.165000
vt 1.117334 0.012500
vt 1.122900 0.035000
vt 1.095533 0.035000
vt 1.122900 0.165000
vt 1.117334 0.187500
vt 1.095533 0.165000
vt -1.032229 0.012500
vt -1.037795 0.035000
vt -1.010428 0.035000
vt -1.032229 0.187500
vt -1.010428 0.165000
vt -1.037795 0.165000
vt -1.067771 0.012500
vt -1.062205 0.035000
vt -1.089572 0.035000
vt -1.067771 0.187500
vt -1.089572 0.165000
vt -1.062205 0.165000
vt 1.882666 0.012500
vt 1.877099 0.035000
vt 1.904467 0.035000
vt 1.882666 0.187500
vt 1.904467 0.165000
vt 1.877099 0.165000
vt 2.319717 0.012500
vt 2.339769 0.035000
vt 2.309511 0.035000
vt 2.339769 0.165000
vt 2.319717 0.187500
vt 2.309511 0.165000
vt 0.676842 0.012500
vt 0.656790 0.035000
vt 0.687048 0.035000
vt 0.676842 0.187500
vt 0.687048 0.165000
vt 0.656790 0.165000
vt 1.323158 0.012500
vt 1.343210 0.035000
vt 1.312952 0.035000
vt 1.323158 0.187500
vt 1.312952 0.165000
vt 1.343210 0.165000
vt 2.480283 0.012500
vt 2.460231 0.035000
vt 2.490489 0.035000
vt 2.480283 0.187500
vt 2.490489 0.165000
vt 2.460231 0.165000
vt -0.900000 0.827500
vt -0.877500 0.222500
vt -0.900000 0.222500
vt 0.900000 0.222500
vt 0.877500 0.827500
vt 0.900000 0.827500
vt 0.877500 0.222500
vt -0.877500 0.827500
vt -1.227500 0.277500
vt -1.250000 0.277500
vt 1.227500 0.277500
vt 1.250000 0.277500
vt 1.485960 0.283154
vt 1.343961 0.496150
vt 1.363707 0.506937
vt 1.363707 0.506937
vt 1.466215 0.272367
vt 2.103253 0.936592
vt 2.114040 0.916846
vt 1.352920 0.526683
vt 2.236293 0.693063
vt 2.133785 0.927633
vt 2.256039 0.703850
vt 1.496747 0.263408
vt 2.247080 0.673317
vt 1.810695 -0.232160
vt 1.977945 -0.038360
vt 1.993621 -0.054500
vt 1.977945 -0.038360
vt 1.795019 -0.216020
vt 2.605445 -0.652164
vt 2.589305 -0.667840
vt 2.009761 -0.038824
vt 2.422055 -0.861640
vt 2.406379 -0.845500
vt 2.604981 -0.683980
vt 1.794554 -0.247836
vt 2.390239 -0.861176
vt 1.054246 -1.032229
vt 1.095533 -1.284868
vt 1.032445 -1.037795
vt 1.117334 -1.279302
vt 1.877099 -0.798898
vt 1.882666 -0.820698
vt 1.048679 -1.010428
vt 1.967555 -1.062205
vt 1.945754 -1.067771
vt 1.904467 -0.815132
vt 1.122900 -1.301102
vt 1.951321 -1.089572
vt 2.319717 0.561175
vt 2.082253 0.656790
vt 2.092459 0.676842
vt 2.309511 0.541123
vt 2.460231 1.449031
vt 2.480283 1.438825
vt 2.480283 1.438825
vt 2.072407 0.687048
vt 2.717747 1.343210
vt 2.707541 1.323158
vt 2.490489 1.458877
vt 2.339769 0.550969
vt 2.727593 1.312952
vt 1.377500 0.827500
vt -1.377500 0.222500
vt 1.377500 0.222500
vt -1.377500 0.827500
vt -0.727500 1.052500
vt 0.727500 0.847500
vt -0.727500 0.847500
vt 0.727500 1.052500
vt -0.727500 0.277500
vt 0.727500 0.072500
vt -0.727500 0.072500
vt 0.727500 0.277500
vt 0.272367 0.165000
vt 0.272367 0.035000
vt 2.247080 0.165000
vt 2.247080 0.035000
vt 1.352920 0.165000
vt 1.352920 0.035000
vt 0.927633 0.165000
vt 0.927633 0.035000
vt 1.795019 0.165000
vt 1.795019 0.035000
vt -0.861176 0.165000
vt -0.861176 0.035000
vt -0.038824 0.165000
vt -0.038824 0.035000
vt 2.604981 0.165000
vt 2.604981 0.035000
vt -1.284868 0.165000
vt -1.284868 0.035000
vt 1.951321 0.165000
vt 1.951321 0.035000
vt 1.048679 0.165000
vt 1.048679 0.035000
vt -0.815132 0.165000
vt -0.815132 0.035000
vt 2.082253 0.035000
vt 0.550969 0.035000
vt 1.449031 0.035000
vt 2.717747 0.035000
vt 2.247080 0.673317
vt 1.795019 -0.216020
vt 2.009761 -0.038824
vt 1.794554 -0.247836
vt 2.082253 0.165000
vt 0.550969 0.165000
vt 1.449031 0.165000
vt 2.717747 0.165000
s 1
f 55/1/7 52/2/4 54/3/6
f 51/2/3 49/1/1 50/3/2
f 56/4/8 53/5/5 45/6/21
f 48/4/24 46/6/22 47/5/23
f 38/7/14 37/8/13 33/9/9
f 36/7/12 34/9/10 35/8/11
f 44/10/20 43/11/19 39/12/15
f 42/10/18 40/12/16 41/11/17
f 31/13/7 28/14/4 30/15/6
f 27/16/3 25/17/1 26/18/2
f 32/13/8 29/15/5 21/14/21
f 24/17/24 22/16/22 23/18/23
f 14/19/14 13/20/13 9/21/9
f 12/22/12 10/23/10 11/24/11
f 20/19/20 19/21/19 15/20/15
f 18/22/18 16/24/16 17/23/17
f 7/25/7 4/26/4 6/27/6
f 3/28/3 1/29/1 2/30/2
f 8/25/8 5/27/5 228/26/21
f 225/31/24 227/32/22 226/33/23
f 235/34/14 236/35/13 240/36/9
f 237/37/12 239/38/10 238/39/11
f 229/34/20 230/36/19 234/35/15
f 231/40/18 233/41/16 232/42/17
f 242/43/48 245/44/51 243/45/49
f 246/46/52 248/47/54 247/48/53
f 241/49/47 244/50/50 252/51/58
f 249/52/55 251/53/57 250/54/56
f 259/55/65 260/56/66 264/57/70
f 261/58/67 263/59/69 262/60/68
f 253/61/59 254/62/60 258/63/64
f 255/64/61 257/65/63 256/66/62
f 266/67/72 269/68/75 267/69/73
f 270/70/76 272/71/78 271/72/77
f 265/73/71 268/74/74 276/75/82
f 273/76/79 275/77/81 274/78/80
f 283/79/89 284/80/90 288/81/94
f 285/82/91 287/83/93 286/84/92
f 277/85/83 278/86/84 282/87/88
f 279/88/85 281/89/87 280/90/86
f 290/91/96 293/92/99 291/93/97
f 294/94/100 296/95/102 295/96/101
f 289/97/95 292/98/98 300/99/106
f 297/100/103 299/101/105 298/102/104
f 307/103/113 308/104/114 312/105/118
f 309/106/115 311/107/117 310/108/116
f 301/109/107 302/110/108 306/111/112
f 303/112/109 305/113/111 304/114/110
f 314/115/120 317/116/123 315/117/121
f 318/118/124 320/119/126 319/120/125
f 313/121/119 316/122/122 324/123/130
f 321/124/127 323/125/129 322/126/128
f 331/127/137 332/128/138 336/129/142
f 333/130/139 335/131/141 334/132/140
f 325/133/131 326/134/132 330/135/136
f 327/136/133 329/137/135 328/138/134
f 55/1/7 53/5/5 56/4/8
f 51/139/3 54/140/6 52/141/4
f 48/4/24 50/3/2 49/1/1
f 45/142/21 47/143/23 46/144/22
f 56/4/8 43/11/19 44/10/20
f 42/10/18 46/6/22 48/4/24
f 39/145/15 41/144/17 40/143/16
f 44/10/20 37/8/13 38/7/14
f 36/7/12 40/12/16 42/10/18
f 33/141/9 35/146/11 34/139/10
f 38/7/14 52/2/4 55/1/7
f 49/1/1 34/9/10 36/7/12
f 31/29/7 29/33/5 32/31/8
f 27/16/3 30/15/6 28/14/4
f 24/31/24 26/30/2 25/29/1
f 21/14/21 23/18/23 22/16/22
f 32/13/8 19/21/19 20/19/20
f 18/22/18 22/16/22 24/17/24
f 15/20/15 17/23/17 16/24/16
f 20/40/20 13/39/13 14/37/14
f 12/37/12 16/41/16 18/40/18
f 9/21/9 11/24/11 10/23/10
f 14/19/14 28/14/4 31/13/7
f 25/17/1 10/23/10 12/22/12
f 7/29/7 5/33/5 8/31/8
f 3/147/3 6/27/6 4/26/4
f 225/31/24 2/30/2 1/29/1
f 228/26/21 226/148/23 227/147/22
f 8/25/8 230/36/19 229/34/20
f 231/40/18 227/32/22 225/31/24
f 234/35/15 232/149/17 233/150/16
f 229/40/20 236/39/13 235/37/14
f 237/37/12 233/41/16 231/40/18
f 240/36/9 238/150/11 239/149/10
f 235/34/14 4/26/4 7/25/7
f 1/29/1 239/38/10 237/37/12
f 242/151/48 244/152/50 241/153/47
f 246/46/52 243/45/49 245/44/51
f 249/154/55 247/155/53 248/151/54
f 252/51/58 250/54/56 251/53/57
f 241/153/47 254/156/60 253/157/59
f 255/157/61 251/158/57 249/154/55
f 258/63/64 256/66/62 257/65/63
f 259/159/65 258/160/64 260/161/66
f 261/159/67 257/160/63 255/157/61
f 264/57/70 262/60/68 263/59/69
f 259/159/65 245/162/51 242/151/48
f 248/151/54 263/163/69 261/159/67
f 266/164/72 268/165/74 265/166/71
f 270/70/76 267/69/73 269/68/75
f 272/164/78 274/167/80 271/168/77
f 276/75/82 274/78/80 275/77/81
f 265/166/71 278/169/84 277/170/83
f 273/166/79 280/169/86 275/171/81
f 282/87/88 280/90/86 281/89/87
f 277/170/83 284/172/90 283/173/89
f 285/173/91 281/174/87 279/170/85
f 288/81/94 286/84/92 287/83/93
f 283/173/89 269/175/75 266/164/72
f 272/164/78 287/176/93 285/173/91
f 289/177/95 291/178/97 292/179/98
f 294/94/100 291/93/97 293/92/99
f 297/177/103 295/178/101 296/180/102
f 300/99/106 298/102/104 299/101/105
f 289/177/95 302/181/108 301/182/107
f 297/177/103 304/181/110 299/183/105
f 306/111/112 304/114/110 305/113/111
f 301/182/107 308/184/114 307/185/113
f 303/182/109 310/184/116 305/186/111
f 312/105/118 310/108/116 311/107/117
f 307/185/113 293/187/99 290/180/96
f 309/185/115 294/187/100 311/188/117
f 314/189/120 316/190/122 313/191/119
f 318/118/124 315/117/121 317/116/123
f 321/191/127 319/192/125 320/189/126
f 324/123/130 322/126/128 323/125/129
f 313/191/119 326/193/132 325/194/131
f 327/195/133 323/196/129 321/191/127
f 330/135/136 328/138/134 329/137/135
f 325/194/131 332/197/138 331/198/137
f 327/195/133 334/197/140 329/199/135
f 336/129/142 334/132/140 335/131/141
f 331/198/137 317/200/123 314/189/120
f 320/189/126 335/201/141 333/198/139
f 75/10/25 57/1/25 63/4/25
f 62/146/27 64/145/27 59/140/27
f 73/202/26 58/203/26 71/204/26
f 66/4/28 72/7/28 78/10/28
f 67/205/29 76/204/29 65/203/29
f 79/143/30 70/140/30 77/145/30
f 99/40/25 81/29/25 87/31/25
f 86/206/27 88/207/27 83/208/27
f 97/23/26 82/14/26 95/21/26
f 90/31/28 96/37/28 102/40/28
f 91/16/29 100/21/29 89/14/29
f 103/209/30 94/208/30 101/207/30
f 123/40/25 105/29/25 111/31/25
f 110/210/27 112/211/27 107/212/27
f 121/149/26 106/26/26 119/36/26
f 114/31/28 120/37/28 126/40/28
f 115/147/29 124/36/29 113/26/29
f 127/213/30 118/212/30 125/211/30
f 135/153/25 141/159/25 129/151/25
f 134/214/32 136/50/32 131/215/32
f 145/216/31 130/44/31 143/217/31
f 138/154/28 144/159/28 150/157/28
f 139/218/33 148/62/33 137/219/33
f 151/220/34 142/56/34 149/221/34
f 171/170/25 153/164/25 159/166/25
f 158/222/36 160/74/36 155/223/36
f 169/224/35 154/68/35 167/225/35
f 174/170/28 157/164/28 168/173/28
f 163/226/37 172/86/37 161/227/37
f 175/228/38 166/80/38 173/229/38
f 195/182/25 177/180/25 183/177/25
f 182/230/40 184/98/40 179/231/40
f 193/232/39 178/92/39 191/233/39
f 186/177/28 192/185/28 198/182/28
f 187/234/41 196/110/41 185/235/41
f 199/236/42 190/104/42 197/237/42
f 219/194/25 201/189/25 207/191/25
f 206/120/44 208/238/44 203/117/44
f 217/131/43 202/239/43 215/129/43
f 210/191/28 216/198/28 222/195/28
f 211/125/45 220/240/45 209/123/45
f 223/137/46 214/241/46 221/135/46
f 55/1/7 54/3/6 53/5/5
f 51/139/3 50/146/2 54/140/6
f 48/4/24 47/5/23 50/3/2
f 45/142/21 53/145/5 47/143/23
f 56/4/8 45/6/21 43/11/19
f 42/10/18 41/11/17 46/6/22
f 39/145/15 43/142/19 41/144/17
f 44/10/20 39/12/15 37/8/13
f 36/7/12 35/8/11 40/12/16
f 33/141/9 37/140/13 35/146/11
f 38/7/14 33/9/9 52/2/4
f 49/1/1 51/2/3 34/9/10
f 31/29/7 30/30/6 29/33/5
f 27/16/3 26/18/2 30/15/6
f 24/31/24 23/33/23 26/30/2
f 21/14/21 29/15/5 23/18/23
f 32/13/8 21/14/21 19/21/19
f 18/22/18 17/23/17 22/16/22
f 15/20/15 19/21/19 17/23/17
f 20/40/20 15/41/15 13/39/13
f 12/37/12 11/39/11 16/41/16
f 9/21/9 13/20/13 11/24/11
f 14/19/14 9/21/9 28/14/4
f 25/17/1 27/16/3 10/23/10
f 7/29/7 6/30/6 5/33/5
f 3/147/3 2/148/2 6/27/6
f 225/31/24 226/33/23 2/30/2
f 228/26/21 5/27/5 226/148/23
f 8/25/8 228/26/21 230/36/19
f 231/40/18 232/42/17 227/32/22
f 234/35/15 230/36/19 232/149/17
f 229/40/20 234/41/15 236/39/13
f 237/37/12 238/39/11 233/41/16
f 240/36/9 236/35/13 238/150/11
f 235/34/14 240/36/9 4/26/4
f 1/29/1 3/28/3 239/38/10
f 242/151/48 243/155/49 244/152/50
f 246/46/52 247/48/53 243/45/49
f 249/154/55 250/152/56 247/155/53
f 252/51/58 244/50/50 250/54/56
f 241/153/47 252/158/58 254/156/60
f 255/157/61 256/156/62 251/158/57
f 258/63/64 254/62/60 256/66/62
f 259/159/65 253/157/59 258/160/64
f 261/159/67 262/161/68 257/160/63
f 264/57/70 260/56/66 262/60/68
f 259/159/65 264/242/70 245/162/51
f 248/151/54 246/162/52 263/163/69
f 266/164/72 267/243/73 268/165/74
f 270/70/76 271/72/77 267/69/73
f 272/164/78 273/166/79 274/167/80
f 276/75/82 268/74/74 274/78/80
f 265/166/71 276/244/82 278/169/84
f 273/166/79 279/170/85 280/169/86
f 282/87/88 278/86/84 280/90/86
f 277/170/83 282/174/88 284/172/90
f 285/173/91 286/172/92 281/174/87
f 288/81/94 284/80/90 286/84/92
f 283/173/89 288/176/94 269/175/75
f 272/164/78 270/245/76 287/176/93
f 289/177/95 290/180/96 291/178/97
f 294/94/100 295/96/101 291/93/97
f 297/177/103 298/179/104 295/178/101
f 300/99/106 292/98/98 298/102/104
f 289/177/95 300/183/106 302/181/108
f 297/177/103 303/182/109 304/181/110
f 306/111/112 302/110/108 304/114/110
f 301/182/107 306/186/112 308/184/114
f 303/182/109 309/185/115 310/184/116
f 312/105/118 308/104/114 310/108/116
f 307/185/113 312/188/118 293/187/99
f 309/185/115 296/180/102 294/187/100
f 314/189/120 315/192/121 316/190/122
f 318/118/124 319/120/125 315/117/121
f 321/191/127 322/190/128 319/192/125
f 324/123/130 316/122/122 322/126/128
f 313/191/119 324/196/130 326/193/132
f 327/195/133 328/193/134 323/196/129
f 330/135/136 326/134/132 328/138/134
f 325/194/131 330/199/136 332/197/138
f 327/195/133 333/198/139 334/197/140
f 336/129/142 332/128/138 334/132/140
f 331/198/137 336/201/142 317/200/123
f 320/189/126 318/200/124 335/201/141
f 75/10/25 69/7/25 57/1/25
f 62/146/27 68/143/27 64/145/27
f 73/202/26 60/205/26 58/203/26
f 66/4/28 61/1/28 72/7/28
f 67/205/29 80/202/29 76/204/29
f 79/143/30 74/146/30 70/140/30
f 99/40/25 93/37/25 81/29/25
f 86/206/27 92/209/27 88/207/27
f 97/23/26 84/16/26 82/14/26
f 90/31/28 85/29/28 96/37/28
f 91/16/29 104/23/29 100/21/29
f 103/209/30 98/206/30 94/208/30
f 123/40/25 117/37/25 105/29/25
f 110/210/27 116/213/27 112/211/27
f 121/149/26 108/147/26 106/26/26
f 114/31/28 109/29/28 120/37/28
f 115/147/29 128/149/29 124/36/29
f 127/213/30 122/210/30 118/212/30
f 135/153/25 147/157/25 141/159/25
f 134/214/32 140/54/32 136/50/32
f 145/216/31 132/46/31 130/44/31
f 138/154/28 133/151/28 144/159/28
f 139/218/33 152/66/33 148/62/33
f 151/220/34 146/60/34 142/56/34
f 171/170/25 165/173/25 153/164/25
f 158/222/36 164/78/36 160/74/36
f 169/224/35 156/70/35 154/68/35
f 174/170/28 162/166/28 157/164/28
f 163/226/37 176/90/37 172/86/37
f 175/228/38 170/84/38 166/80/38
f 195/182/25 189/185/25 177/180/25
f 182/230/40 188/102/40 184/98/40
f 193/232/39 180/94/39 178/92/39
f 186/177/28 181/180/28 192/185/28
f 187/234/41 200/114/41 196/110/41
f 199/236/42 194/108/42 190/104/42
f 219/194/25 213/198/25 201/189/25
f 206/120/44 212/246/44 208/238/44
f 217/131/43 204/247/43 202/239/43
f 210/191/28 205/189/28 216/198/28
f 211/125/45 224/248/45 220/240/45
f 223/137/46 218/249/46 214/241/46
