# Blender 5.2.0 LTS
# www.blender.org
o Backdrop_DivingPlatform_Detail
v 19.600000 50.299999 -7.200000
v 19.600000 57.700001 -7.200000
v 19.600000 57.700001 -8.800000
v 19.600000 50.299999 -8.800000
v -1.200000 50.299999 -8.800000
v -1.200000 57.700001 -8.800000
v -1.200000 57.700001 -7.200000
v -1.200000 50.299999 -7.200000
v 20.614111 36.500000 -0.668380
v 20.200001 35.700001 -1.385641
v 20.614111 27.500000 -0.668380
v 20.200001 28.299999 -1.385641
v 20.331619 36.500000 -0.385889
v 19.614359 35.700001 -0.800000
v -4.000000 47.000000 8.200000
v 20.331619 27.500000 -0.385889
v 19.614359 28.299999 -0.800000
v 20.228222 36.500000 0.000000
v 19.400000 35.700001 0.000000
v -4.000000 49.000000 8.200000
v 20.228222 27.500000 -0.000000
v 19.400000 28.299999 0.000000
v 20.331619 36.500000 0.385889
v 19.614359 35.700001 0.800000
v -4.000000 49.000000 -8.200000
v -4.000000 47.000000 -8.200000
v 20.331619 27.500000 0.385889
v 19.614359 28.299999 0.800000
v 20.614111 36.500000 0.668380
v 20.200001 35.700001 1.385641
v -3.200000 47.000000 -9.000000
v -3.200000 46.200001 -8.200000
v 20.614111 27.500000 0.668380
v 20.200001 28.299999 1.385641
v -1.200000 50.299999 7.200000
v 21.000000 36.500000 0.771779
v 21.000000 35.700001 1.600000
v -3.200000 49.000000 -9.000000
v -3.200000 49.799999 -8.200000
v 21.000000 27.500000 0.771779
v 21.000000 28.299999 1.600000
v -1.200000 57.700001 7.200000
v 21.385889 36.500000 0.668380
v 21.799999 35.700001 1.385641
v 27.200001 49.000000 -9.000000
v 27.200001 47.000000 -9.000000
v 21.385889 27.500000 0.668380
v 21.799999 28.299999 1.385641
v 19.600000 57.700001 7.200000
v 19.600000 50.299999 7.200000
v 21.668381 36.500000 0.385889
v 22.385641 35.700001 0.800000
v 28.000000 47.000000 -8.200000
v 27.200001 46.200001 -8.200000
v 21.668381 27.500000 0.385889
v 22.385641 28.299999 0.800000
v 21.771778 36.500000 -0.000000
v 22.600000 35.700001 0.000000
v 28.000000 49.000000 -8.200000
v 27.200001 49.799999 -8.200000
v 21.771778 27.500000 0.000000
v 22.600000 28.299999 0.000000
v 21.668381 36.500000 -0.385889
v 22.385641 35.700001 -0.800000
v 28.000000 49.000000 8.200000
v 28.000000 47.000000 8.200000
v 21.668381 27.500000 -0.385889
v 22.385641 28.299999 -0.800000
v 21.385889 36.500000 -0.668380
v 21.000000 36.500000 -0.771779
v 21.000000 35.700001 -1.600000
v 21.799999 35.700001 -1.385641
v -3.200000 47.000000 9.000000
v 27.200001 47.000000 9.000000
v 27.200001 46.200001 8.200000
v -3.200000 46.200001 8.200000
v 27.200001 49.000000 9.000000
v -3.200000 49.000000 9.000000
v -3.200000 49.799999 8.200000
v 27.200001 49.799999 8.200000
v 21.000000 27.500000 -0.771779
v 21.385889 27.500000 -0.668380
v 21.799999 28.299999 -1.385641
v 21.000000 28.299999 -1.600000
v -1.200000 50.299999 8.800000
v 19.600000 50.299999 8.800000
v 19.600000 57.700001 8.800000
v -1.200000 57.700001 8.800000
v 15.400001 28.299999 -7.200000
v 15.400001 35.700001 -7.200000
v 15.400001 35.700001 -8.800000
v 15.400001 28.299999 -8.800000
v -1.200000 28.299999 -8.800000
v -1.200000 35.700001 -8.800000
v -1.200000 35.700001 -7.200000
v -1.200000 28.299999 -7.200000
v 15.400001 28.299999 8.800000
v 15.400001 35.700001 8.800000
v 15.400001 35.700001 7.200000
v 15.400001 28.299999 7.200000
v -1.200000 28.299999 7.200000
v -1.200000 35.700001 7.200000
v -1.200000 35.700001 8.800000
v -1.200000 28.299999 8.800000
v 21.200001 25.000000 9.000000
v 21.200001 27.000000 9.000000
v 22.000000 27.000000 8.200000
v 21.200001 27.799999 8.200000
v 22.000000 25.000000 8.200000
v 21.200001 24.200001 8.200000
v 22.000000 25.000000 -8.200000
v 22.000000 27.000000 -8.200000
v 21.200001 27.000000 -9.000000
v 21.200001 27.799999 -8.200000
v 21.200001 25.000000 -9.000000
v 21.200001 24.200001 -8.200000
v -3.200000 25.000000 -9.000000
v -3.200000 27.000000 -9.000000
v -4.000000 27.000000 -8.200000
v -3.200000 27.799999 -8.200000
v -3.200000 27.799999 8.200000
v -4.000000 27.000000 8.200000
v -3.200000 27.000000 9.000000
v -3.200000 25.000000 9.000000
v -4.000000 25.000000 -8.200000
v -4.000000 25.000000 8.200000
v -3.200000 24.200001 8.200000
v -3.200000 24.200001 -8.200000
v -8.200000 0.000000 7.200000
v -8.200000 0.800000 8.000000
v 8.200000 0.800000 8.000000
v 8.200000 81.199997 8.000000
v 9.000000 81.199997 7.200000
v 8.200000 82.000000 7.200000
v 9.000000 0.800000 7.200000
v 8.200000 0.000000 7.200000
v 9.000000 0.800000 -7.200000
v 9.000000 81.199997 -7.200000
v 8.200000 81.199997 -8.000000
v 8.200000 82.000000 -7.200000
v 8.200000 0.800000 -8.000000
v 8.200000 0.000000 -7.200000
v -8.200000 0.800000 -8.000000
v -8.200000 81.199997 -8.000000
v -9.000000 81.199997 -7.200000
v -8.200000 82.000000 -7.200000
v -8.200000 82.000000 7.200000
v -9.000000 81.199997 7.200000
v -8.200000 81.199997 8.000000
v -8.200000 0.800000 8.000000
v -9.000000 0.800000 -7.200000
v -9.000000 0.800000 7.200000
v -8.200000 0.000000 7.200000
v -8.200000 0.000000 -7.200000
v -9.000000 0.800000 7.200000
v -8.200000 81.199997 8.000000
v -8.200000 82.000000 7.200000
v -9.000000 81.199997 7.200000
v -8.200000 0.000000 -7.200000
v -9.000000 0.800000 -7.200000
v -8.200000 0.800000 -8.000000
v -8.200000 82.000000 -7.200000
v -8.200000 81.199997 -8.000000
v -9.000000 81.199997 -7.200000
v 8.200000 0.000000 7.200000
v 9.000000 0.800000 7.200000
v 8.200000 0.800000 8.000000
v 8.200000 82.000000 7.200000
v 8.200000 81.199997 8.000000
v 9.000000 81.199997 7.200000
v 8.200000 0.000000 -7.200000
v 8.200000 0.800000 -8.000000
v 9.000000 0.800000 -7.200000
v 8.200000 82.000000 -7.200000
v 9.000000 81.199997 -7.200000
v 8.200000 81.199997 -8.000000
v -3.200000 24.200001 8.200000
v -3.200000 25.000000 9.000000
v -4.000000 25.000000 8.200000
v -3.200000 27.000000 9.000000
v -3.200000 27.799999 8.200000
v -4.000000 27.000000 8.200000
v -3.200000 24.200001 -8.200000
v -4.000000 25.000000 -8.200000
v -3.200000 25.000000 -9.000000
v -3.200000 27.799999 -8.200000
v -3.200000 27.000000 -9.000000
v -4.000000 27.000000 -8.200000
v 21.200001 24.200001 8.200000
v 22.000000 25.000000 8.200000
v 21.200001 25.000000 9.000000
v 21.200001 27.799999 8.200000
v 21.200001 27.000000 9.000000
v 22.000000 27.000000 8.200000
v 21.200001 24.200001 -8.200000
v 21.200001 25.000000 -9.000000
v 22.000000 25.000000 -8.200000
v 21.200001 27.799999 -8.200000
v 22.000000 27.000000 -8.200000
v 21.200001 27.000000 -9.000000
v -2.000000 28.299999 8.000000
v -1.200000 28.299999 8.800000
v -2.000000 28.299999 8.000000
v -1.200000 35.700001 8.800000
v -1.200000 36.500000 8.000000
v -2.000000 35.700001 8.000000
v -1.200000 27.500000 8.000000
v -1.200000 27.500000 8.000000
v -1.200000 28.299999 7.200000
v 15.400001 27.500000 8.000000
v -1.200000 35.700001 7.200000
v -2.000000 35.700001 8.000000
v 15.400001 27.500000 8.000000
v 15.400001 36.500000 8.000000
v 15.400001 28.299999 8.800000
v -1.200000 36.500000 8.000000
v 15.400001 35.700001 8.800000
v 16.200001 35.700001 8.000000
v 16.200001 28.299999 8.000000
v 15.400001 28.299999 7.200000
v 16.200001 28.299999 8.000000
v 15.400001 36.500000 8.000000
v 16.200001 35.700001 8.000000
v 15.400001 35.700001 7.200000
v -2.000000 28.299999 -8.000000
v -1.200000 28.299999 -7.200000
v -2.000000 28.299999 -8.000000
v -1.200000 35.700001 -7.200000
v -1.200000 36.500000 -8.000000
v -2.000000 35.700001 -8.000000
v -1.200000 27.500000 -8.000000
v -1.200000 27.500000 -8.000000
v -1.200000 28.299999 -8.800000
v 15.400001 27.500000 -8.000000
v -1.200000 35.700001 -8.800000
v -2.000000 35.700001 -8.000000
v 15.400001 27.500000 -8.000000
v 15.400001 36.500000 -8.000000
v 15.400001 28.299999 -7.200000
v -1.200000 36.500000 -8.000000
v 15.400001 35.700001 -7.200000
v 16.200001 35.700001 -8.000000
v 16.200001 28.299999 -8.000000
v 15.400001 28.299999 -8.800000
v 16.200001 28.299999 -8.000000
v 15.400001 36.500000 -8.000000
v 16.200001 35.700001 -8.000000
v 15.400001 35.700001 -8.800000
v -3.200000 49.000000 9.000000
v -3.200000 49.799999 8.200000
v -4.000000 49.000000 8.200000
v -3.200000 46.200001 8.200000
v -3.200000 47.000000 9.000000
v -4.000000 47.000000 8.200000
v 21.000000 27.500000 -0.771779
v 21.000000 28.299999 -1.600000
v 21.000000 36.500000 -0.771779
v 21.000000 35.700001 -1.600000
v 21.385889 27.500000 -0.668380
v 21.799999 28.299999 -1.385641
v 21.385889 36.500000 -0.668380
v 21.799999 35.700001 -1.385641
v 21.668381 27.500000 -0.385889
v 22.385641 28.299999 -0.800000
v 21.668381 36.500000 -0.385889
v 22.385641 35.700001 -0.800000
v 21.771778 27.500000 0.000000
v 22.600000 28.299999 0.000000
v 21.771778 36.500000 -0.000000
v 22.600000 35.700001 0.000000
v 21.668381 27.500000 0.385889
v 22.385641 28.299999 0.800000
v 21.668381 36.500000 0.385889
v 22.385641 35.700001 0.800000
v 21.385889 27.500000 0.668380
v 21.799999 28.299999 1.385641
v 21.385889 36.500000 0.668380
v 21.799999 35.700001 1.385641
v 21.000000 27.500000 0.771779
v 21.000000 28.299999 1.600000
v 21.000000 36.500000 0.771779
v 21.000000 35.700001 1.600000
v 20.614111 27.500000 0.668380
v 20.200001 28.299999 1.385641
v 20.614111 36.500000 0.668380
v 20.200001 35.700001 1.385641
v 20.331619 27.500000 0.385889
v 19.614359 28.299999 0.800000
v 20.331619 36.500000 0.385889
v 19.614359 35.700001 0.800000
v 20.228222 27.500000 -0.000000
v 19.400000 28.299999 0.000000
v 20.228222 36.500000 0.000000
v 19.400000 35.700001 0.000000
v 20.331619 27.500000 -0.385889
v 19.614359 28.299999 -0.800000
v 20.331619 36.500000 -0.385889
v 19.614359 35.700001 -0.800000
v 20.614111 27.500000 -0.668380
v 20.200001 28.299999 -1.385641
v 20.614111 36.500000 -0.668380
v 20.200001 35.700001 -1.385641
v -3.200000 46.200001 -8.200000
v -4.000000 47.000000 -8.200000
v -3.200000 47.000000 -9.000000
v -3.200000 49.799999 -8.200000
v -3.200000 49.000000 -9.000000
v -4.000000 49.000000 -8.200000
v 27.200001 46.200001 8.200000
v 28.000000 47.000000 8.200000
v 27.200001 47.000000 9.000000
v 27.200001 49.799999 8.200000
v 27.200001 49.000000 9.000000
v 28.000000 49.000000 8.200000
v 27.200001 46.200001 -8.200000
v 27.200001 47.000000 -9.000000
v 28.000000 47.000000 -8.200000
v 27.200001 49.799999 -8.200000
v 28.000000 49.000000 -8.200000
v 27.200001 49.000000 -9.000000
v -1.200000 58.500000 8.000000
v -1.200000 50.299999 8.800000
v -2.000000 50.299999 8.000000
v -1.200000 57.700001 8.800000
v -1.200000 58.500000 8.000000
v 19.600000 58.500000 8.000000
v -1.200000 49.500000 8.000000
v 19.600000 49.500000 8.000000
v -1.200000 50.299999 7.200000
v -1.200000 49.500000 8.000000
v -1.200000 57.700001 7.200000
v -2.000000 57.700001 8.000000
v 19.600000 49.500000 8.000000
v 20.400000 57.700001 8.000000
v 19.600000 50.299999 8.800000
v 20.400000 50.299999 8.000000
v 19.600000 57.700001 8.800000
v 20.400000 57.700001 8.000000
v -2.000000 57.700001 8.000000
v 19.600000 50.299999 7.200000
v 20.400000 50.299999 8.000000
v 19.600000 58.500000 8.000000
v -2.000000 50.299999 8.000000
v 19.600000 57.700001 7.200000
v -2.000000 50.299999 -8.000000
v -1.200000 50.299999 -7.200000
v -2.000000 50.299999 -8.000000
v -1.200000 57.700001 -7.200000
v -1.200000 58.500000 -8.000000
v -2.000000 57.700001 -8.000000
v -1.200000 49.500000 -8.000000
v -1.200000 49.500000 -8.000000
v -1.200000 50.299999 -8.800000
v 19.600000 49.500000 -8.000000
v -1.200000 57.700001 -8.800000
v -2.000000 57.700001 -8.000000
v 19.600000 49.500000 -8.000000
v 19.600000 58.500000 -8.000000
v 19.600000 50.299999 -7.200000
v -1.200000 58.500000 -8.000000
v 19.600000 57.700001 -7.200000
v 20.400000 57.700001 -8.000000
v 20.400000 50.299999 -8.000000
v 19.600000 50.299999 -8.800000
v 20.400000 50.299999 -8.000000
v 19.600000 58.500000 -8.000000
v 20.400000 57.700001 -8.000000
v 19.600000 57.700001 -8.800000
v -3.200000 73.000000 9.000000
v -3.200000 73.800003 8.200000
v -4.000000 73.000000 8.200000
v -3.200000 70.199997 8.200000
v -3.200000 71.000000 9.000000
v -4.000000 71.000000 8.200000
v 27.000000 49.500000 -0.771779
v 27.000000 50.299999 -1.600000
v 27.000000 58.500000 -0.771779
v 27.000000 57.700001 -1.600000
v 27.385889 49.500000 -0.668380
v 27.799999 50.299999 -1.385641
v 27.385889 58.500000 -0.668380
v 27.799999 57.700001 -1.385641
v 27.668381 49.500000 -0.385889
v 28.385641 50.299999 -0.800000
v 27.668381 58.500000 -0.385889
v 28.385641 57.700001 -0.800000
v 27.771778 49.500000 0.000000
v 28.600000 50.299999 0.000000
v 27.771778 58.500000 -0.000000
v 28.600000 57.700001 0.000000
v 27.668381 49.500000 0.385889
v 28.385641 50.299999 0.800000
v 27.668381 58.500000 0.385889
v 28.385641 57.700001 0.800000
v 27.385889 49.500000 0.668380
v 27.799999 50.299999 1.385641
v 27.385889 58.500000 0.668380
v 27.799999 57.700001 1.385641
v 27.000000 49.500000 0.771779
v 27.000000 50.299999 1.600000
v 27.000000 58.500000 0.771779
v 27.000000 57.700001 1.600000
v 26.614111 49.500000 0.668380
v 26.200001 50.299999 1.385641
v 26.614111 58.500000 0.668380
v 26.200001 57.700001 1.385641
v 26.331619 49.500000 0.385889
v 25.614359 50.299999 0.800000
v 26.331619 58.500000 0.385889
v 25.614359 57.700001 0.800000
v 26.228222 49.500000 -0.000000
v 25.400000 50.299999 0.000000
v 26.228222 58.500000 0.000000
v 25.400000 57.700001 0.000000
v 26.331619 49.500000 -0.385889
v 25.614359 50.299999 -0.800000
v 26.331619 58.500000 -0.385889
v 25.614359 57.700001 -0.800000
v 26.614111 49.500000 -0.668380
v 26.200001 50.299999 -1.385641
v 26.614111 58.500000 -0.668380
v 26.200001 57.700001 -1.385641
v -3.200000 70.199997 -8.200000
v -4.000000 71.000000 -8.200000
v -3.200000 71.000000 -9.000000
v -3.200000 73.800003 -8.200000
v -3.200000 73.000000 -9.000000
v -4.000000 73.000000 -8.200000
v 33.200001 70.199997 8.200000
v 34.000000 71.000000 8.200000
v 33.200001 71.000000 9.000000
v 33.200001 73.800003 8.200000
v 33.200001 73.000000 9.000000
v 34.000000 73.000000 8.200000
v 33.200001 70.199997 -8.200000
v 33.200001 71.000000 -9.000000
v 34.000000 71.000000 -8.200000
v 33.200001 73.800003 -8.200000
v 34.000000 73.000000 -8.200000
v 33.200001 73.000000 -9.000000
v 23.800001 82.500000 8.000000
v -1.200000 74.300003 8.800000
v -2.000000 74.300003 8.000000
v -1.200000 81.699997 8.800000
v -1.200000 82.500000 8.000000
v 23.800001 73.500000 8.000000
v -1.200000 73.500000 8.000000
v -1.200000 73.500000 8.000000
v -1.200000 74.300003 7.200000
v 24.600000 81.699997 8.000000
v -1.200000 81.699997 7.200000
v -2.000000 81.699997 8.000000
v 23.800001 73.500000 8.000000
v 24.600000 74.300003 8.000000
v 23.800001 74.300003 8.800000
v -1.200000 82.500000 8.000000
v 23.800001 81.699997 8.800000
v 24.600000 81.699997 8.000000
v -2.000000 81.699997 8.000000
v 23.800001 74.300003 7.200000
v 24.600000 74.300003 8.000000
v 23.800001 82.500000 8.000000
v -2.000000 74.300003 8.000000
v 23.800001 81.699997 7.200000
v -2.000000 74.300003 -8.000000
v -1.200000 74.300003 -7.200000
v -2.000000 74.300003 -8.000000
v -1.200000 81.699997 -7.200000
v -1.200000 82.500000 -8.000000
v -2.000000 81.699997 -8.000000
v -1.200000 73.500000 -8.000000
v -1.200000 73.500000 -8.000000
v -1.200000 74.300003 -8.800000
v 23.800001 73.500000 -8.000000
v -1.200000 81.699997 -8.800000
v -2.000000 81.699997 -8.000000
v 23.800001 73.500000 -8.000000
v 23.800001 82.500000 -8.000000
v 23.800001 74.300003 -7.200000
v -1.200000 82.500000 -8.000000
v 23.800001 81.699997 -7.200000
v 24.600000 81.699997 -8.000000
v 24.600000 74.300003 -8.000000
v 23.800001 74.300003 -8.800000
v 24.600000 74.300003 -8.000000
v 23.800001 82.500000 -8.000000
v 24.600000 81.699997 -8.000000
v 23.800001 81.699997 -8.800000
v 33.000000 73.500000 -0.771779
v 33.000000 74.300003 -1.600000
v 33.000000 82.500000 -0.771779
v 33.000000 81.699997 -1.600000
v 33.385887 73.500000 -0.668380
v 33.799999 74.300003 -1.385641
v 33.385887 82.500000 -0.668380
v 33.799999 81.699997 -1.385641
v 33.668381 73.500000 -0.385889
v 34.385639 74.300003 -0.800000
v 33.668381 82.500000 -0.385889
v 34.385639 81.699997 -0.800000
v 33.771778 73.500000 0.000000
v 34.599998 74.300003 0.000000
v 33.771778 82.500000 -0.000000
v 34.599998 81.699997 0.000000
v 33.668381 73.500000 0.385889
v 34.385639 74.300003 0.800000
v 33.668381 82.500000 0.385889
v 34.385639 81.699997 0.800000
v 33.385887 73.500000 0.668380
v 33.799999 74.300003 1.385641
v 33.385887 82.500000 0.668380
v 33.799999 81.699997 1.385641
v 33.000000 73.500000 0.771779
v 33.000000 74.300003 1.600000
v 33.000000 82.500000 0.771779
v 33.000000 81.699997 1.600000
v 32.614113 73.500000 0.668381
v 32.200001 74.300003 1.385641
v 32.614113 82.500000 0.668381
v 32.200001 81.699997 1.385641
v 32.331619 73.500000 0.385891
v 31.614359 74.300003 0.800000
v 32.331619 82.500000 0.385892
v 31.614359 81.699997 0.800000
v 32.228222 73.500000 -0.000000
v 31.400000 74.300003 0.000000
v 32.228222 82.500000 0.000000
v 31.400000 81.699997 0.000000
v 32.331619 73.500000 -0.385892
v 31.614359 74.300003 -0.800000
v 32.331619 82.500000 -0.385891
v 31.614359 81.699997 -0.800000
v 32.614113 73.500000 -0.668381
v 32.200001 74.300003 -1.385641
v 32.614113 82.500000 -0.668381
v 32.200001 81.699997 -1.385641
v -1.200000 81.699997 8.800000
v 23.800001 81.699997 8.800000
v 23.800001 74.300003 8.800000
v -1.200000 74.300003 8.800000
v 27.000000 50.299999 -1.600000
v 27.799999 50.299999 -1.385641
v 27.385889 49.500000 -0.668380
v 27.000000 49.500000 -0.771779
v 33.200001 73.800003 8.200000
v -3.200000 73.800003 8.200000
v -3.200000 73.000000 9.000000
v 33.200001 73.000000 9.000000
v -3.200000 70.199997 8.200000
v 33.200001 70.199997 8.200000
v 33.200001 71.000000 9.000000
v -3.200000 71.000000 9.000000
v 27.799999 57.700001 -1.385641
v 27.000000 57.700001 -1.600000
v 27.000000 58.500000 -0.771779
v 27.385889 58.500000 -0.668380
v 28.385641 50.299999 -0.800000
v 27.668381 49.500000 -0.385889
v 34.000000 71.000000 8.200000
v 34.000000 73.000000 8.200000
v 28.385641 57.700001 -0.800000
v 27.668381 58.500000 -0.385889
v 28.600000 50.299999 0.000000
v 27.771778 49.500000 0.000000
v 33.200001 73.800003 -8.200000
v 34.000000 73.000000 -8.200000
v 28.600000 57.700001 0.000000
v 27.771778 58.500000 -0.000000
v 28.385641 50.299999 0.800000
v 27.668381 49.500000 0.385889
v 33.200001 70.199997 -8.200000
v 34.000000 71.000000 -8.200000
v 28.385641 57.700001 0.800000
v 27.668381 58.500000 0.385889
v 23.800001 74.300003 7.200000
v 23.800001 81.699997 7.200000
v 27.799999 50.299999 1.385641
v 27.385889 49.500000 0.668380
v 33.200001 71.000000 -9.000000
v 33.200001 73.000000 -9.000000
v 27.799999 57.700001 1.385641
v 27.385889 58.500000 0.668380
v -1.200000 81.699997 7.200000
v 27.000000 50.299999 1.600000
v 27.000000 49.500000 0.771779
v -3.200000 73.800003 -8.200000
v -3.200000 73.000000 -9.000000
v 27.000000 57.700001 1.600000
v 27.000000 58.500000 0.771779
v -1.200000 74.300003 7.200000
v 26.200001 50.299999 1.385641
v 26.614111 49.500000 0.668380
v -3.200000 70.199997 -8.200000
v -3.200000 71.000000 -9.000000
v 26.200001 57.700001 1.385641
v 26.614111 58.500000 0.668380
v 25.614359 50.299999 0.800000
v 26.331619 49.500000 0.385889
v -4.000000 71.000000 -8.200000
v -4.000000 73.000000 -8.200000
v 25.614359 57.700001 0.800000
v 26.331619 58.500000 0.385889
v 25.400000 50.299999 0.000000
v 26.228222 49.500000 -0.000000
v -4.000000 73.000000 8.200000
v 25.400000 57.700001 0.000000
v 26.228222 58.500000 0.000000
v 25.614359 50.299999 -0.800000
v 26.331619 49.500000 -0.385889
v -4.000000 71.000000 8.200000
v 25.614359 57.700001 -0.800000
v 26.331619 58.500000 -0.385889
v 26.200001 50.299999 -1.385641
v 26.614111 49.500000 -0.668380
v 26.200001 57.700001 -1.385641
v 26.614111 58.500000 -0.668380
v -1.200000 74.300003 -7.200000
v -1.200000 81.699997 -7.200000
v -1.200000 81.699997 -8.800000
v -1.200000 74.300003 -8.800000
v 23.800001 74.300003 -8.800000
v 23.800001 81.699997 -8.800000
v 23.800001 81.699997 -7.200000
v 23.800001 74.300003 -7.200000
v 33.000000 74.300003 -1.600000
v 33.799999 74.300003 -1.385641
v 33.385887 73.500000 -0.668380
v 33.000000 73.500000 -0.771779
v 33.799999 81.699997 -1.385641
v 33.000000 81.699997 -1.600000
v 33.000000 82.500000 -0.771779
v 33.385887 82.500000 -0.668380
v 34.385639 74.300003 -0.800000
v 33.668381 73.500000 -0.385889
v 34.385639 81.699997 -0.800000
v 33.668381 82.500000 -0.385889
v 34.599998 74.300003 0.000000
v 33.771778 73.500000 0.000000
v 34.599998 81.699997 0.000000
v 33.771778 82.500000 -0.000000
v 34.385639 74.300003 0.800000
v 33.668381 73.500000 0.385889
v 34.385639 81.699997 0.800000
v 33.668381 82.500000 0.385889
v 33.799999 74.300003 1.385641
v 33.385887 73.500000 0.668380
v 33.799999 81.699997 1.385641
v 33.385887 82.500000 0.668380
v 33.000000 74.300003 1.600000
v 33.000000 73.500000 0.771779
v 33.000000 81.699997 1.600000
v 33.000000 82.500000 0.771779
v 32.200001 74.300003 1.385641
v 32.614113 73.500000 0.668381
v 32.200001 81.699997 1.385641
v 32.614113 82.500000 0.668381
v 31.614359 74.300003 0.800000
v 32.331619 73.500000 0.385891
v 31.614359 81.699997 0.800000
v 32.331619 82.500000 0.385892
v 31.400000 74.300003 0.000000
v 32.228222 73.500000 -0.000000
v 31.400000 81.699997 0.000000
v 32.228222 82.500000 0.000000
v 31.614359 74.300003 -0.800000
v 32.331619 73.500000 -0.385892
v 31.614359 81.699997 -0.800000
v 32.331619 82.500000 -0.385891
v 32.200001 74.300003 -1.385641
v 32.614113 73.500000 -0.668381
v 32.200001 81.699997 -1.385641
v 32.614113 82.500000 -0.668381
vn 0.4606 -0.4606 0.7588
vn 0.4606 0.4606 0.7588
vn 0.4606 0.4606 -0.7588
vn 0.4606 -0.4606 -0.7588
vn -0.4606 -0.4606 -0.7588
vn -0.4606 0.4606 -0.7588
vn -0.4606 0.4606 0.7588
vn -0.4606 -0.4606 0.7588
vn -0.3474 0.7193 -0.6017
vn -0.3474 -0.7193 -0.6017
vn -0.6017 0.7193 -0.3474
vn -0.7588 -0.4606 0.4606
vn -0.6017 -0.7193 -0.3474
vn -0.6947 0.7193 -0.0000
vn -0.7588 0.4606 0.4606
vn -0.6947 -0.7193 -0.0000
vn -0.6017 0.7193 0.3474
vn -0.7588 0.4606 -0.4606
vn -0.7588 -0.4606 -0.4606
vn -0.6017 -0.7193 0.3474
vn -0.3474 0.7193 0.6017
vn -0.4606 -0.7588 -0.4606
vn -0.3474 -0.7193 0.6017
vn -0.0000 0.7193 0.6947
vn -0.4606 0.7588 -0.4606
vn -0.0000 -0.7193 0.6947
vn 0.3474 0.7193 0.6017
vn 0.3474 -0.7193 0.6017
vn 0.6017 0.7193 0.3474
vn 0.7588 -0.4606 -0.4606
vn 0.4606 -0.7588 -0.4606
vn 0.6017 -0.7193 0.3474
vn 0.6947 0.7193 -0.0000
vn 0.7588 0.4606 -0.4606
vn 0.4606 0.7588 -0.4606
vn 0.6947 -0.7193 -0.0000
vn 0.6017 0.7193 -0.3474
vn 0.7588 0.4606 0.4606
vn 0.7588 -0.4606 0.4606
vn 0.6017 -0.7193 -0.3474
vn 0.3474 0.7193 -0.6017
vn -0.0000 0.7193 -0.6947
vn 0.4606 -0.7588 0.4606
vn -0.4606 -0.7588 0.4606
vn -0.4606 0.7588 0.4606
vn 0.4606 0.7588 0.4606
vn -0.0000 -0.7193 -0.6947
vn 0.3474 -0.7193 -0.6017
vn -0.0000 -1.0000 -0.0000
vn -0.0000 -0.0000 1.0000
vn -1.0000 -0.0000 -0.0000
vn -0.0000 1.0000 -0.0000
vn -0.0000 -0.0000 -1.0000
vn 1.0000 -0.0000 -0.0000
vn -0.6861 -0.2418 0.6861
vn -0.6861 -0.2418 -0.6861
vn -0.2418 0.6861 -0.6861
vn -0.6861 0.2418 -0.6861
vn -0.2418 -0.6861 0.6861
vn -0.2418 -0.6861 -0.6861
vn 0.2418 -0.6861 0.6861
vn -0.6861 0.2418 0.6861
vn 0.2418 -0.6861 -0.6861
vn 0.2418 0.6861 -0.6861
vn -0.2418 0.6861 0.6861
vn 0.6861 0.2418 -0.6861
vn 0.6861 -0.2418 -0.6861
vn 0.6861 -0.2418 0.6861
vn 0.2418 0.6861 0.6861
vn 0.6861 0.2418 0.6861
vn 0.5000 -0.0000 -0.8660
vn 0.8660 -0.0000 -0.5000
vn 0.8660 -0.0000 0.5000
vn 0.5000 -0.0000 0.8660
vn -0.5000 -0.0000 0.8660
vn -0.8660 -0.0000 0.5000
vn -0.8660 -0.0000 -0.5000
vn -0.5000 -0.0000 -0.8660
vn -0.0001 1.0000 -0.0000
vn 0.0001 1.0000 -0.0000
vn -0.3474 -0.7192 0.6017
vt 0.770000 -0.400000
vt 0.810000 -0.400000
vt 0.770000 -0.440000
vt -0.160000 0.410000
vt -0.160000 0.450000
vt -0.200000 0.410000
vt -0.160000 -0.410000
vt -0.160000 -0.450000
vt -0.200000 -0.410000
vt -0.060000 -0.400000
vt -0.060000 -0.360000
vt -0.100000 -0.400000
vt 0.360000 4.100000
vt 0.360000 4.060000
vt 0.400000 4.060000
vt 0.410000 0.360000
vt 0.410000 0.400000
vt 0.450000 0.360000
vt -0.060000 -0.440000
vt -0.360000 4.100000
vt -0.400000 4.060000
vt -0.360000 4.060000
vt 0.410000 -0.360000
vt 0.450000 -0.360000
vt 0.410000 -0.400000
vt 1.060000 0.410000
vt 1.100000 0.410000
vt 1.060000 0.450000
vt -0.410000 0.360000
vt -0.450000 0.360000
vt -0.410000 0.400000
vt 1.060000 -0.410000
vt 1.060000 -0.450000
vt 1.100000 -0.410000
vt -0.410000 -0.360000
vt -0.410000 -0.400000
vt -0.450000 -0.360000
vt 0.770000 -0.360000
vt -0.060000 0.400000
vt -0.060000 0.360000
vt -0.100000 0.400000
vt -0.060000 0.440000
vt 0.770000 0.400000
vt 0.810000 0.400000
vt 0.770000 0.360000
vt 0.770000 0.440000
vt 1.360000 -0.410000
vt 1.400000 -0.410000
vt 1.360000 -0.450000
vt 1.360000 0.410000
vt 1.360000 0.450000
vt 1.400000 0.410000
vt -0.060000 -0.400000
vt -0.060000 -0.440000
vt -0.100000 -0.400000
vt -0.060000 -0.360000
vt 0.980000 -0.400000
vt 1.020000 -0.400000
vt 0.980000 -0.440000
vt 0.980000 -0.360000
vt -0.060000 0.400000
vt -0.060000 0.360000
vt -0.100000 0.400000
vt -0.060000 0.440000
vt 0.980000 0.400000
vt 1.020000 0.400000
vt 0.980000 0.360000
vt 0.980000 0.440000
vt -0.450000 3.650000
vt -0.410000 3.690000
vt -0.410000 3.650000
vt -0.410000 3.510000
vt -0.450000 3.550000
vt -0.410000 3.550000
vt 0.410000 3.510000
vt 0.410000 3.550000
vt 0.450000 3.550000
vt 0.410000 3.690000
vt 0.450000 3.650000
vt 0.410000 3.650000
vt -0.400000 3.675000
vt -0.440000 3.715000
vt -0.400000 3.715000
vt -0.440000 4.085000
vt -0.400000 4.125000
vt -0.400000 4.085000
vt -0.360000 3.715000
vt -0.360000 4.085000
vt 0.400000 3.675000
vt 0.360000 3.715000
vt 0.400000 3.715000
vt 0.360000 4.085000
vt 0.400000 4.125000
vt 0.400000 4.085000
vt 0.440000 3.715000
vt 0.440000 4.085000
vt -0.360000 0.040000
vt -0.400000 0.040000
vt 0.400000 0.040000
vt 0.410000 4.100000
vt -0.410000 4.060000
vt -0.410000 4.100000
vt 0.360000 0.040000
vt 0.410000 4.060000
vt -0.450000 1.350000
vt -0.410000 1.250000
vt -0.450000 1.250000
vt 0.450000 1.250000
vt 0.410000 1.350000
vt 0.450000 1.350000
vt 0.410000 1.250000
vt -0.410000 1.350000
vt -0.440000 1.785000
vt -0.400000 1.415000
vt -0.440000 1.415000
vt -0.360000 1.415000
vt -0.400000 1.785000
vt -0.360000 1.785000
vt 0.360000 1.785000
vt 0.400000 1.415000
vt 0.360000 1.415000
vt 0.440000 1.415000
vt 0.400000 1.785000
vt 0.440000 1.785000
vt 1.090000 0.069282
vt 1.050000 0.038589
vt 1.050000 0.080000
vt 1.069294 0.033419
vt -0.440000 2.515000
vt -0.400000 2.885000
vt -0.440000 2.885000
vt 1.083419 0.019294
vt 1.069294 0.033419
vt -0.450000 2.350000
vt -0.410000 2.450000
vt -0.450000 2.450000
vt 1.119282 0.040000
vt 1.130000 0.000000
vt 1.088589 0.000000
vt 1.083419 -0.019294
vt 1.088589 -0.000000
vt 1.119282 -0.040000
vt -0.400000 2.515000
vt -0.360000 2.885000
vt 1.090000 -0.069282
vt 0.410000 2.350000
vt 0.450000 2.450000
vt 0.410000 2.450000
vt 1.069294 -0.033419
vt 1.050000 -0.038589
vt 1.069294 -0.033419
vt 1.050000 -0.080000
vt 1.030706 -0.033419
vt 1.010000 -0.069282
vt 1.030706 -0.033419
vt -0.360000 2.515000
vt 1.016581 -0.019294
vt 0.450000 2.350000
vt 0.980718 -0.040000
vt 0.970000 0.000000
vt 1.011411 -0.000000
vt 1.016581 0.019294
vt 1.011411 0.000000
vt -0.410000 2.350000
vt 0.980718 0.040000
vt 1.010000 0.069282
vt 1.030706 0.033419
vt 1.030706 0.033419
vt 0.360000 2.885000
vt 0.400000 2.515000
vt 0.360000 2.515000
vt 0.440000 2.515000
vt 0.400000 2.885000
vt 0.440000 2.885000
vt -0.060000 4.125000
vt 1.190000 4.085000
vt 1.190000 4.125000
vt 1.190000 3.675000
vt -0.060000 3.715000
vt -0.060000 3.675000
vt 1.390000 0.069282
vt 1.350000 0.038589
vt 1.350000 0.080000
vt -0.160000 3.690000
vt 1.660000 3.650000
vt 1.660000 3.690000
vt 1.660000 3.510000
vt -0.160000 3.550000
vt -0.160000 3.510000
vt 1.369294 0.033419
vt 1.383419 0.019294
vt 1.369294 0.033419
vt 1.419282 0.040000
vt 1.388589 -0.000000
vt 1.388589 0.000000
vt 1.430000 0.000000
vt 1.419282 -0.040000
vt 1.383419 -0.019294
vt 1.369294 -0.033419
vt 1.390000 -0.069282
vt 1.369294 -0.033419
vt -0.060000 4.085000
vt 1.350000 -0.038589
vt -0.160000 3.650000
vt 1.350000 -0.080000
vt 1.190000 3.715000
vt 1.310000 -0.069282
vt 1.660000 3.550000
vt 1.330706 -0.033419
vt 1.280718 -0.040000
vt 1.330706 -0.033419
vt 1.316581 -0.019294
vt 1.270000 0.000000
vt 1.311411 -0.000000
vt 1.316581 0.019294
vt 1.311411 0.000000
vt 1.280718 0.040000
vt 1.310000 0.069282
vt 1.330706 0.033419
vt 1.330706 0.033419
vt 1.690000 0.069282
vt 1.650000 0.038589
vt 1.650000 0.080000
vt 1.669294 0.033419
vt 1.719282 0.040000
vt 1.683419 0.019294
vt 1.730000 0.000000
vt 1.688589 0.000000
vt 1.683419 -0.019294
vt 1.688589 -0.000000
vt 1.719282 -0.040000
vt 1.690000 -0.069282
vt 1.669294 -0.033419
vt 1.650000 -0.038589
vt 1.650000 -0.080000
vt 1.630706 -0.033419
vt 1.610000 -0.069282
vt 1.630706 -0.033419
vt 1.616581 -0.019295
vt 1.616581 -0.019295
vt 1.580718 -0.040000
vt 1.570000 0.000000
vt 1.611411 -0.000000
vt 1.616581 0.019295
vt 1.611411 0.000000
vt 1.616581 0.019295
vt 1.580718 0.040000
vt 1.610000 0.069282
vt 1.630706 0.033419
vt 1.630706 0.033419
vt -0.410000 0.040000
vt 0.410000 0.040000
vt 1.060000 1.350000
vt -0.160000 1.250000
vt 1.060000 1.250000
vt -0.160000 1.350000
vt 0.770000 1.785000
vt -0.060000 1.415000
vt 0.770000 1.415000
vt -0.060000 1.785000
vt 1.360000 2.450000
vt -0.160000 2.350000
vt 1.360000 2.350000
vt 1.050000 1.785000
vt 1.090000 1.415000
vt 1.050000 1.415000
vt 1.010000 1.785000
vt 1.010000 1.415000
vt 1.090000 1.785000
vt 1.119282 1.415000
vt 0.040000 1.785000
vt 0.000000 1.415000
vt 0.040000 1.415000
vt 0.000000 1.785000
vt -0.040000 1.415000
vt 1.119282 1.785000
vt 0.980718 1.415000
vt -0.040000 1.785000
vt 0.980718 1.785000
vt -0.160000 2.450000
vt 0.980000 2.885000
vt -0.060000 2.515000
vt 0.980000 2.515000
vt -0.060000 2.885000
vt 1.660000 -0.410000
vt 1.660000 0.410000
vt 1.350000 2.885000
vt 1.390000 2.515000
vt 1.350000 2.515000
vt 1.310000 2.885000
vt 1.310000 2.515000
vt 1.390000 2.885000
vt 1.419282 2.515000
vt 0.040000 2.885000
vt 0.000000 2.515000
vt 0.040000 2.515000
vt 0.000000 2.885000
vt -0.040000 2.515000
vt 1.419282 2.885000
vt 1.280718 2.515000
vt -0.040000 2.885000
vt 1.280718 2.885000
vt 1.650000 4.085000
vt 1.690000 3.715000
vt 1.650000 3.715000
vt 1.610000 4.085000
vt 1.610000 3.715000
vt 0.069282 4.085000
vt 0.040000 3.715000
vt 0.069282 3.715000
vt 0.040000 4.085000
vt 0.000000 3.715000
vt 0.000000 4.085000
vt -0.040000 3.715000
vt -0.040000 4.085000
vt -0.069282 3.715000
vt 1.690000 4.085000
vt 1.580718 3.715000
vt 1.580718 4.085000
vt -0.069282 4.085000
s 1
f 210/1/61 221/2/68 97/3/1
f 120/4/25 118/5/6 119/6/18
f 222/1/69 98/3/2 223/2/70
f 128/4/22 125/6/19 117/5/5
f 127/7/44 124/8/8 126/9/12
f 205/10/57 102/11/6 206/12/58
f 140/13/35 138/14/34 139/15/3
f 208/10/60 203/12/56 101/11/5
f 142/16/31 141/17/4 137/18/30
f 103/19/7 216/10/65 212/12/62
f 134/20/46 132/21/2 133/22/38
f 207/10/59 104/19/8 201/12/55
f 136/23/43 135/24/39 131/25/1
f 114/26/35 112/27/34 113/28/3
f 146/13/25 144/15/6 145/14/18
f 116/26/31 115/28/4 111/27/30
f 154/29/22 151/30/19 143/31/5
f 108/32/46 106/33/2 107/34/38
f 149/21/7 147/20/45 148/22/15
f 110/32/43 109/34/39 105/33/1
f 153/35/44 150/36/8 152/37/12
f 123/8/7 121/7/45 122/9/15
f 213/1/63 100/38/4 219/2/67
f 214/1/64 218/2/66 99/38/3
f 231/39/59 96/40/8 225/41/55
f 95/40/7 240/39/65 236/41/62
f 232/39/60 227/41/56 93/42/5
f 229/39/57 94/42/6 230/41/58
f 234/43/61 245/44/68 89/45/1
f 246/43/69 90/45/2 247/44/70
f 237/43/63 92/46/4 243/44/67
f 238/43/64 242/44/66 91/46/3
f 78/8/7 79/7/45 20/9/15
f 76/7/44 73/8/8 15/9/12
f 32/4/22 26/6/19 31/5/5
f 39/4/25 38/5/6 25/6/18
f 75/47/43 66/48/39 74/49/1
f 80/47/46 77/49/2 65/48/38
f 54/50/31 46/51/4 53/52/30
f 60/50/35 59/52/34 45/51/3
f 327/53/59 85/54/8 343/55/55
f 88/54/7 321/53/65 332/55/62
f 330/53/60 323/55/56 35/56/5
f 325/53/57 42/56/6 339/55/58
f 328/57/61 341/58/68 86/59/1
f 342/57/69 87/59/2 334/58/70
f 333/57/63 50/60/4 336/58/67
f 326/57/64 338/58/66 49/60/3
f 351/61/59 8/62/8 345/63/55
f 7/62/7 360/61/65 356/63/62
f 352/61/60 347/63/56 5/64/5
f 349/61/57 6/64/6 350/63/58
f 354/65/61 365/66/68 1/67/1
f 366/65/69 2/67/2 367/66/70
f 357/65/63 4/68/4 363/66/67
f 358/65/64 362/66/66 3/68/3
f 547/69/7 546/70/45 605/71/15
f 549/72/44 552/73/8 610/74/12
f 593/75/22 599/76/19 594/77/5
f 586/78/25 587/79/6 600/80/18
f 550/72/43 559/74/39 551/73/1
f 545/70/46 548/69/2 560/71/38
f 571/75/31 579/77/4 572/76/30
f 565/78/35 566/80/34 580/79/3
f 447/81/59 540/82/8 463/83/55
f 537/84/7 456/85/65 452/86/62
f 448/81/60 443/83/56 590/87/5
f 445/85/57 583/88/6 459/86/58
f 446/81/61 461/83/68 539/82/1
f 462/85/69 538/84/2 450/86/70
f 453/81/63 575/87/4 454/83/67
f 441/85/64 458/86/66 576/88/3
f 471/89/59 617/90/8 465/91/55
f 618/92/7 480/93/65 476/94/62
f 472/89/60 467/91/56 620/95/5
f 469/93/57 619/96/6 470/94/58
f 474/89/61 485/91/68 624/90/1
f 486/93/69 623/92/2 487/94/70
f 477/89/63 621/95/4 483/91/67
f 478/93/64 482/94/66 622/96/3
f 153/35/44 151/30/19 154/29/22
f 149/21/7 152/97/12 150/98/8
f 146/13/25 148/22/15 147/20/45
f 143/99/5 145/14/18 144/15/6
f 154/29/22 141/17/4 142/16/31
f 140/100/35 144/101/6 146/102/25
f 137/103/30 139/15/3 138/14/34
f 142/16/31 135/24/39 136/23/43
f 134/20/46 138/14/34 140/13/35
f 131/98/1 133/22/38 132/21/2
f 136/23/43 150/36/8 153/35/44
f 147/102/45 132/104/2 134/100/46
f 127/7/44 125/6/19 128/4/22
f 123/105/7 126/106/12 124/107/8
f 120/4/25 122/9/15 121/7/45
f 117/108/5 119/109/18 118/110/6
f 128/4/22 115/28/4 116/26/31
f 114/26/35 118/5/6 120/4/25
f 111/111/30 113/110/3 112/109/34
f 116/26/31 109/34/39 110/32/43
f 108/32/46 112/27/34 114/26/35
f 105/107/1 107/112/38 106/105/2
f 110/32/43 124/8/8 127/7/44
f 121/7/45 106/33/2 108/32/46
f 103/113/7 201/114/55 104/115/8
f 101/116/5 206/117/58 102/118/6
f 208/10/60 100/38/4 213/1/63
f 214/1/64 102/11/6 205/10/57
f 219/114/67 99/118/3 218/117/66
f 97/115/1 223/117/70 98/113/2
f 210/1/61 104/19/8 207/10/59
f 216/10/65 98/3/2 222/1/69
f 95/119/7 225/120/55 96/121/8
f 93/122/5 230/123/58 94/124/6
f 232/39/60 92/46/4 237/43/63
f 238/43/64 94/42/6 229/39/57
f 243/120/67 91/124/3 242/123/66
f 89/121/1 247/123/70 90/119/2
f 234/43/61 96/40/8 231/39/59
f 240/39/65 90/45/2 246/43/69
f 321/53/65 87/59/2 342/57/69
f 328/57/61 85/54/8 327/53/59
f 83/125/48 81/126/47 84/127/47
f 79/7/45 77/49/2 80/47/46
f 75/47/43 73/8/8 76/7/44
f 72/125/41 70/126/42 69/128/41
f 86/129/1 334/130/70 87/131/2
f 83/125/48 67/132/40 82/133/48
f 74/134/1 65/135/38 77/136/2
f 72/125/41 63/132/37 64/137/37
f 62/138/36 67/132/40 68/137/40
f 80/47/46 59/52/34 60/50/35
f 58/138/33 63/132/37 57/139/33
f 62/138/36 55/140/32 61/141/36
f 54/50/31 66/48/39 75/47/43
f 58/138/33 51/140/29 52/142/29
f 336/143/67 49/144/3 338/130/66
f 48/145/28 55/140/32 56/142/32
f 53/146/30 45/147/3 59/148/34
f 44/145/27 51/140/29 43/149/27
f 326/57/64 42/56/6 325/53/57
f 48/145/28 40/150/26 47/151/28
f 60/50/35 38/5/6 39/4/25
f 44/145/27 36/150/24 37/152/24
f 330/53/60 50/60/4 333/57/63
f 41/152/26 33/153/23 40/150/26
f 32/4/22 46/51/4 54/50/31
f 30/154/21 36/150/24 29/155/21
f 35/156/5 339/130/58 42/144/6
f 34/154/23 27/157/20 33/153/23
f 31/158/5 25/148/18 38/147/6
f 30/154/21 23/157/17 24/159/17
f 22/160/16 27/157/20 28/159/20
f 39/4/25 20/9/15 79/7/45
f 19/160/14 23/157/17 18/161/14
f 88/131/7 343/143/55 85/129/8
f 22/160/16 16/162/13 21/163/16
f 78/136/7 15/164/12 73/134/8
f 19/160/14 13/162/11 14/165/11
f 12/166/10 16/162/13 17/165/13
f 76/7/44 26/6/19 32/4/22
f 10/166/9 13/162/11 9/167/9
f 12/166/10 81/126/47 11/168/10
f 71/127/42 9/167/9 70/126/42
f 7/169/7 345/170/55 8/171/8
f 5/172/5 350/173/58 6/174/6
f 352/61/60 4/68/4 357/65/63
f 358/65/64 6/64/6 349/61/57
f 363/170/67 3/174/3 362/173/66
f 1/171/1 367/173/70 2/169/2
f 354/65/61 8/62/8 351/61/59
f 360/61/65 2/67/2 366/65/69
f 456/175/65 538/176/2 462/177/69
f 446/178/61 540/179/8 447/180/59
f 542/181/48 544/182/47 541/183/47
f 546/184/45 548/185/2 545/186/46
f 550/187/43 552/188/8 549/189/44
f 553/181/41 555/182/42 556/190/41
f 539/82/1 450/86/70 538/84/2
f 542/181/48 558/191/40 543/192/48
f 551/73/1 560/71/38 548/69/2
f 561/193/37 556/190/41 562/191/37
f 557/193/40 564/194/36 558/191/40
f 545/70/46 566/80/34 565/78/35
f 561/193/37 568/195/33 567/196/33
f 569/197/32 564/194/36 563/196/36
f 571/75/31 559/74/39 550/72/43
f 573/197/29 568/195/33 574/198/29
f 454/83/67 576/88/3 458/86/66
f 569/197/32 578/199/28 570/198/32
f 572/76/30 580/79/3 566/80/34
f 581/200/27 574/198/29 582/201/27
f 441/177/64 583/202/6 445/175/57
f 577/200/28 585/203/26 578/199/28
f 565/186/35 587/204/6 586/184/25
f 581/200/27 589/203/24 588/205/24
f 448/180/60 575/206/4 453/178/63
f 591/207/23 585/203/26 584/205/26
f 593/189/22 579/208/4 571/187/31
f 595/207/21 589/203/24 596/209/21
f 590/87/5 459/86/58 583/88/6
f 597/210/20 592/211/23 591/207/23
f 594/77/5 600/80/18 587/79/6
f 595/207/21 602/212/17 601/210/17
f 603/213/16 598/212/20 597/210/20
f 586/78/25 605/71/15 546/70/45
f 606/213/14 602/212/17 607/214/14
f 537/84/7 463/83/55 540/82/8
f 603/213/16 609/215/13 604/216/16
f 547/69/7 610/74/12 552/73/8
f 606/213/14 612/215/11 611/217/11
f 613/218/10 609/215/13 608/217/13
f 549/72/44 599/76/19 593/75/22
f 611/217/11 616/219/9 615/218/9
f 613/218/10 544/182/47 614/220/10
f 615/218/9 555/182/42 554/183/42
f 618/92/7 465/91/55 617/90/8
f 620/95/5 470/94/58 619/96/6
f 472/180/60 621/206/4 477/178/63
f 478/177/64 619/202/6 469/175/57
f 483/91/67 622/96/3 482/94/66
f 624/90/1 487/94/70 623/92/2
f 474/178/61 617/179/8 471/180/59
f 480/175/65 623/176/2 486/177/69
f 626/221/48 628/222/47 625/223/47
f 629/221/41 631/222/42 632/224/41
f 633/225/40 627/224/48 626/221/48
f 635/225/37 632/224/41 636/226/37
f 637/227/36 634/226/40 633/225/40
f 639/227/33 636/226/37 640/228/33
f 637/227/36 642/229/32 638/230/36
f 639/227/33 644/229/29 643/231/29
f 645/232/28 642/229/32 641/231/32
f 643/231/29 648/233/27 647/232/27
f 645/232/28 650/234/26 646/233/28
f 647/232/27 652/234/24 651/235/24
f 649/235/26 654/236/81 650/234/26
f 655/237/21 652/234/24 656/238/21
f 653/237/23 658/239/20 654/236/81
f 655/237/21 660/240/17 659/241/17
f 661/242/16 658/239/20 657/241/20
f 663/242/14 660/240/17 664/243/14
f 661/242/16 666/244/13 662/245/16
f 663/242/14 668/246/11 667/247/11
f 669/248/10 666/244/13 665/247/13
f 671/248/9 668/246/11 672/249/9
f 669/248/10 628/222/47 670/250/10
f 630/223/42 672/249/9 631/222/42
f 171/16/49 129/35/49 159/29/49
f 158/22/51 160/103/51 155/97/51
f 169/104/50 130/251/50 167/252/50
f 162/29/52 168/23/52 174/16/52
f 163/101/53 172/252/53 161/251/53
f 175/14/54 166/97/54 173/103/54
f 195/26/49 177/7/49 183/4/49
f 182/112/51 184/111/51 179/106/51
f 193/253/50 178/254/50 191/255/50
f 186/4/52 192/32/52 198/26/52
f 187/256/53 196/255/53 185/254/53
f 199/109/54 190/106/54 197/111/54
f 217/257/50 202/258/50 215/259/50
f 211/260/53 220/259/53 209/258/53
f 241/257/50 226/258/50 239/259/50
f 235/260/53 244/259/53 233/258/53
f 313/261/50 253/262/50 311/263/50
f 251/135/51 304/146/51 254/164/51
f 306/4/52 312/47/52 318/50/52
f 315/50/49 252/7/49 303/4/49
f 267/141/49 283/153/49 299/168/49
f 258/264/53 260/265/71 256/266/53
f 302/267/78 256/266/53 300/268/78
f 297/162/52 281/150/52 265/132/52
f 262/269/71 264/270/72 260/265/71
f 266/271/72 268/272/54 264/273/72
f 270/274/54 272/275/73 268/272/54
f 274/276/73 276/265/74 272/270/73
f 278/269/74 280/266/50 276/265/74
f 282/264/50 284/268/75 280/266/50
f 286/267/75 288/277/76 284/268/75
f 290/278/76 292/272/51 288/275/76
f 294/274/51 296/273/77 292/272/51
f 298/279/77 300/268/78 296/277/77
f 307/280/53 316/263/53 305/262/53
f 319/148/54 310/164/54 317/146/54
f 337/281/50 322/282/50 335/283/50
f 331/284/53 340/283/53 329/282/53
f 361/281/50 346/282/50 359/283/50
f 355/284/53 364/283/53 353/282/53
f 433/185/50 373/188/50 431/208/50
f 371/71/51 424/76/51 374/74/51
f 426/4/52 432/285/52 438/286/52
f 435/286/49 372/7/49 423/4/49
f 391/198/49 407/212/49 375/182/49
f 378/287/53 380/288/71 376/289/53
f 422/290/78 376/289/53 420/291/78
f 421/219/52 405/209/52 389/195/52
f 382/292/71 384/293/72 380/288/71
f 386/294/72 388/295/54 384/296/72
f 390/297/54 392/298/73 388/295/54
f 394/299/73 396/288/74 392/293/73
f 398/292/74 400/289/50 396/288/74
f 402/287/50 404/291/75 400/289/50
f 406/290/75 408/300/76 404/291/75
f 410/301/76 412/295/51 408/298/76
f 414/297/51 416/296/77 412/295/51
f 418/302/77 420/291/78 416/300/77
f 427/204/53 436/208/53 425/188/53
f 439/80/54 430/74/54 437/76/54
f 457/176/50 442/179/50 455/206/50
f 451/202/53 460/206/53 449/179/53
f 481/176/50 466/179/50 479/206/50
f 475/202/53 484/206/53 473/179/53
f 505/229/49 521/239/49 489/222/49
f 492/303/53 494/304/71 490/305/53
f 536/306/78 490/305/53 534/307/78
f 535/249/52 519/238/52 503/228/52
f 496/308/71 498/309/72 494/310/71
f 500/311/72 502/312/54 498/309/72
f 504/313/54 506/314/73 502/312/54
f 508/315/73 510/316/74 506/314/73
f 512/317/74 514/305/50 510/304/74
f 516/303/50 518/307/75 514/305/50
f 520/306/75 522/318/76 518/307/75
f 524/315/76 526/312/51 522/314/76
f 528/313/51 530/309/77 526/312/51
f 532/319/77 534/307/78 530/318/77
f 153/35/44 152/37/12 151/30/19
f 149/21/7 148/22/15 152/97/12
f 146/13/25 145/14/18 148/22/15
f 143/99/5 151/103/19 145/14/18
f 154/29/22 143/31/5 141/17/4
f 140/100/35 139/104/3 144/101/6
f 137/103/30 141/99/4 139/15/3
f 142/16/31 137/18/30 135/24/39
f 134/20/46 133/22/38 138/14/34
f 131/98/1 135/97/39 133/22/38
f 136/23/43 131/25/1 150/36/8
f 147/102/45 149/101/7 132/104/2
f 127/7/44 126/9/12 125/6/19
f 123/105/7 122/112/15 126/106/12
f 120/4/25 119/6/18 122/9/15
f 117/108/5 125/111/19 119/109/18
f 128/4/22 117/5/5 115/28/4
f 114/26/35 113/28/3 118/5/6
f 111/111/30 115/108/4 113/110/3
f 116/26/31 111/27/30 109/34/39
f 108/32/46 107/34/38 112/27/34
f 105/107/1 109/106/39 107/112/38
f 110/32/43 105/33/1 124/8/8
f 121/7/45 123/8/7 106/33/2
f 103/113/7 212/117/62 201/114/55
f 101/116/5 203/114/56 206/117/58
f 208/10/60 101/11/5 100/38/4
f 214/1/64 99/38/3 102/11/6
f 219/114/67 100/116/4 99/118/3
f 97/115/1 221/114/68 223/117/70
f 210/1/61 97/3/1 104/19/8
f 216/10/65 103/19/7 98/3/2
f 95/119/7 236/123/62 225/120/55
f 93/122/5 227/120/56 230/123/58
f 232/39/60 93/42/5 92/46/4
f 238/43/64 91/46/3 94/42/6
f 243/120/67 92/122/4 91/124/3
f 89/121/1 245/120/68 247/123/70
f 234/43/61 89/45/1 96/40/8
f 240/39/65 95/40/7 90/45/2
f 321/53/65 88/54/7 87/59/2
f 328/57/61 86/59/1 85/54/8
f 83/125/48 82/133/48 81/126/47
f 79/7/45 78/8/7 77/49/2
f 75/47/43 74/49/1 73/8/8
f 72/125/41 71/127/42 70/126/42
f 86/129/1 341/143/68 334/130/70
f 83/125/48 68/137/40 67/132/40
f 74/134/1 66/164/39 65/135/38
f 72/125/41 69/128/41 63/132/37
f 62/138/36 61/141/36 67/132/40
f 80/47/46 65/48/38 59/52/34
f 58/138/33 64/137/37 63/132/37
f 62/138/36 56/142/32 55/140/32
f 54/50/31 53/52/30 66/48/39
f 58/138/33 57/139/33 51/140/29
f 336/143/67 50/156/4 49/144/3
f 48/145/28 47/151/28 55/140/32
f 53/146/30 46/158/4 45/147/3
f 44/145/27 52/142/29 51/140/29
f 326/57/64 49/60/3 42/56/6
f 48/145/28 41/152/26 40/150/26
f 60/50/35 45/51/3 38/5/6
f 44/145/27 43/149/27 36/150/24
f 330/53/60 35/56/5 50/60/4
f 41/152/26 34/154/23 33/153/23
f 32/4/22 31/5/5 46/51/4
f 30/154/21 37/152/24 36/150/24
f 35/156/5 323/143/56 339/130/58
f 34/154/23 28/159/20 27/157/20
f 31/158/5 26/146/19 25/148/18
f 30/154/21 29/155/21 23/157/17
f 22/160/16 21/163/16 27/157/20
f 39/4/25 25/6/18 20/9/15
f 19/160/14 24/159/17 23/157/17
f 88/131/7 332/130/62 343/143/55
f 22/160/16 17/165/13 16/162/13
f 78/136/7 20/135/15 15/164/12
f 19/160/14 18/161/14 13/162/11
f 12/166/10 11/168/10 16/162/13
f 76/7/44 15/9/12 26/6/19
f 10/166/9 14/165/11 13/162/11
f 12/166/10 84/127/47 81/126/47
f 71/127/42 10/166/9 9/167/9
f 7/169/7 356/173/62 345/170/55
f 5/172/5 347/170/56 350/173/58
f 352/61/60 5/64/5 4/68/4
f 358/65/64 3/68/3 6/64/6
f 363/170/67 4/172/4 3/174/3
f 1/171/1 365/170/68 367/173/70
f 354/65/61 1/67/1 8/62/8
f 360/61/65 7/62/7 2/67/2
f 456/175/65 537/202/7 538/176/2
f 446/178/61 539/206/1 540/179/8
f 542/181/48 543/192/48 544/182/47
f 546/184/45 547/204/7 548/185/2
f 550/187/43 551/208/1 552/188/8
f 553/181/41 554/183/42 555/182/42
f 539/82/1 461/83/68 450/86/70
f 542/181/48 557/193/40 558/191/40
f 551/73/1 559/74/39 560/71/38
f 561/193/37 553/181/41 556/190/41
f 557/193/40 563/196/36 564/194/36
f 545/70/46 560/71/38 566/80/34
f 561/193/37 562/191/37 568/195/33
f 569/197/32 570/198/32 564/194/36
f 571/75/31 572/76/30 559/74/39
f 573/197/29 567/196/33 568/195/33
f 454/83/67 575/87/4 576/88/3
f 569/197/32 577/200/28 578/199/28
f 572/76/30 579/77/4 580/79/3
f 581/200/27 573/197/29 574/198/29
f 441/177/64 576/176/3 583/202/6
f 577/200/28 584/205/26 585/203/26
f 565/186/35 580/185/3 587/204/6
f 581/200/27 582/201/27 589/203/24
f 448/180/60 590/179/5 575/206/4
f 591/207/23 592/211/23 585/203/26
f 593/189/22 594/188/5 579/208/4
f 595/207/21 588/205/24 589/203/24
f 590/87/5 443/83/56 459/86/58
f 597/210/20 598/212/20 592/211/23
f 594/77/5 599/76/19 600/80/18
f 595/207/21 596/209/21 602/212/17
f 603/213/16 604/216/16 598/212/20
f 586/78/25 600/80/18 605/71/15
f 606/213/14 601/210/17 602/212/17
f 537/84/7 452/86/62 463/83/55
f 603/213/16 608/217/13 609/215/13
f 547/69/7 605/71/15 610/74/12
f 606/213/14 607/214/14 612/215/11
f 613/218/10 614/220/10 609/215/13
f 549/72/44 610/74/12 599/76/19
f 611/217/11 612/215/11 616/219/9
f 613/218/10 541/183/47 544/182/47
f 615/218/9 616/219/9 555/182/42
f 618/92/7 476/94/62 465/91/55
f 620/95/5 467/91/56 470/94/58
f 472/180/60 620/179/5 621/206/4
f 478/177/64 622/176/3 619/202/6
f 483/91/67 621/95/4 622/96/3
f 624/90/1 485/91/68 487/94/70
f 474/178/61 624/206/1 617/179/8
f 480/175/65 618/202/7 623/176/2
f 626/221/48 627/224/48 628/222/47
f 629/221/41 630/223/42 631/222/42
f 633/225/40 634/226/40 627/224/48
f 635/225/37 629/221/41 632/224/41
f 637/227/36 638/230/36 634/226/40
f 639/227/33 635/225/37 636/226/37
f 637/227/36 641/231/32 642/229/32
f 639/227/33 640/228/33 644/229/29
f 645/232/28 646/233/28 642/229/32
f 643/231/29 644/229/29 648/233/27
f 645/232/28 649/235/26 650/234/26
f 647/232/27 648/233/27 652/234/24
f 649/235/26 653/237/23 654/236/81
f 655/237/21 651/235/24 652/234/24
f 653/237/23 657/241/20 658/239/20
f 655/237/21 656/238/21 660/240/17
f 661/242/16 662/245/16 658/239/20
f 663/242/14 659/241/17 660/240/17
f 661/242/16 665/247/13 666/244/13
f 663/242/14 664/243/14 668/246/11
f 669/248/10 670/250/10 666/244/13
f 671/248/9 667/247/11 668/246/11
f 669/248/10 625/223/47 628/222/47
f 630/223/42 671/248/9 672/249/9
f 171/16/49 165/23/49 129/35/49
f 158/22/51 164/14/51 160/103/51
f 169/104/50 156/101/50 130/251/50
f 162/29/52 157/35/52 168/23/52
f 163/101/53 176/104/53 172/252/53
f 175/14/54 170/22/54 166/97/54
f 195/26/49 189/32/49 177/7/49
f 182/112/51 188/109/51 184/111/51
f 193/253/50 180/256/50 178/254/50
f 186/4/52 181/7/52 192/32/52
f 187/256/53 200/253/53 196/255/53
f 199/109/54 194/112/54 190/106/54
f 217/257/50 204/260/50 202/258/50
f 211/260/53 224/257/53 220/259/53
f 241/257/50 228/260/50 226/258/50
f 235/260/53 248/257/53 244/259/53
f 313/261/50 249/280/50 253/262/50
f 251/135/51 308/148/51 304/146/51
f 306/4/52 250/7/52 312/47/52
f 315/50/49 309/47/49 252/7/49
f 299/168/49 255/126/49 259/133/49
f 259/133/49 263/132/49 267/141/49
f 267/141/49 271/140/49 275/151/49
f 275/151/49 279/150/49 283/153/49
f 283/153/49 287/157/49 291/163/49
f 291/163/49 295/162/49 299/168/49
f 299/168/49 259/133/49 267/141/49
f 267/141/49 275/151/49 283/153/49
f 283/153/49 291/163/49 299/168/49
f 258/264/53 262/269/71 260/265/71
f 302/267/78 258/264/53 256/266/53
f 265/132/52 261/128/52 257/126/52
f 257/126/52 301/167/52 297/162/52
f 297/162/52 293/161/52 289/157/52
f 289/157/52 285/155/52 281/150/52
f 281/150/52 277/149/52 273/140/52
f 273/140/52 269/139/52 265/132/52
f 265/132/52 257/126/52 297/162/52
f 297/162/52 289/157/52 281/150/52
f 281/150/52 273/140/52 265/132/52
f 262/269/71 266/276/72 264/270/72
f 266/271/72 270/274/54 268/272/54
f 270/274/54 274/278/73 272/275/73
f 274/276/73 278/269/74 276/265/74
f 278/269/74 282/264/50 280/266/50
f 282/264/50 286/267/75 284/268/75
f 286/267/75 290/279/76 288/277/76
f 290/278/76 294/274/51 292/272/51
f 294/274/51 298/271/77 296/273/77
f 298/279/77 302/267/78 300/268/78
f 307/280/53 320/261/53 316/263/53
f 319/148/54 314/135/54 310/164/54
f 337/281/50 324/284/50 322/282/50
f 331/284/53 344/281/53 340/283/53
f 361/281/50 348/284/50 346/282/50
f 355/284/53 368/281/53 364/283/53
f 433/185/50 369/204/50 373/188/50
f 371/71/51 428/80/51 424/76/51
f 426/4/52 370/7/52 432/285/52
f 435/286/49 429/285/49 372/7/49
f 375/182/49 379/192/49 383/191/49
f 383/191/49 387/194/49 391/198/49
f 391/198/49 395/199/49 399/203/49
f 399/203/49 403/211/49 407/212/49
f 407/212/49 411/216/49 415/215/49
f 415/215/49 419/220/49 375/182/49
f 375/182/49 383/191/49 391/198/49
f 391/198/49 399/203/49 407/212/49
f 407/212/49 415/215/49 375/182/49
f 378/287/53 382/292/71 380/288/71
f 422/290/78 378/287/53 376/289/53
f 389/195/52 385/191/52 381/190/52
f 381/190/52 377/182/52 421/219/52
f 421/219/52 417/215/80 413/214/52
f 413/214/52 409/212/52 405/209/52
f 405/209/52 401/203/52 397/201/52
f 397/201/52 393/198/79 389/195/52
f 389/195/52 381/190/52 421/219/52
f 421/219/52 413/214/52 405/209/52
f 405/209/52 397/201/52 389/195/52
f 382/292/71 386/299/72 384/293/72
f 386/294/72 390/297/54 388/295/54
f 390/297/54 394/301/73 392/298/73
f 394/299/73 398/292/74 396/288/74
f 398/292/74 402/287/50 400/289/50
f 402/287/50 406/290/75 404/291/75
f 406/290/75 410/302/76 408/300/76
f 410/301/76 414/297/51 412/295/51
f 414/297/51 418/294/77 416/296/77
f 418/302/77 422/290/78 420/291/78
f 427/204/53 440/185/53 436/208/53
f 439/80/54 434/71/54 430/74/54
f 457/176/50 444/202/50 442/179/50
f 451/202/53 464/176/53 460/206/53
f 481/176/50 468/202/50 466/179/50
f 475/202/53 488/176/53 484/206/53
f 489/222/49 493/224/49 497/226/49
f 497/226/49 501/230/49 505/229/49
f 505/229/49 509/233/49 513/234/49
f 513/234/49 517/236/49 521/239/49
f 521/239/49 525/245/49 529/244/49
f 529/244/49 533/250/49 489/222/49
f 489/222/49 497/226/49 505/229/49
f 505/229/49 513/234/49 521/239/49
f 521/239/49 529/244/49 489/222/49
f 492/303/53 496/317/71 494/304/71
f 536/306/78 492/303/53 490/305/53
f 503/228/52 499/226/52 495/224/52
f 495/224/52 491/222/52 535/249/52
f 535/249/52 531/246/79 527/243/52
f 527/243/52 523/240/79 519/238/52
f 519/238/52 515/234/52 511/233/52
f 511/233/52 507/229/52 503/228/52
f 503/228/52 495/224/52 535/249/52
f 535/249/52 527/243/52 519/238/52
f 519/238/52 511/233/52 503/228/52
f 496/308/71 500/311/72 498/309/72
f 500/311/72 504/313/54 502/312/54
f 504/313/54 508/315/73 506/314/73
f 508/315/73 512/320/74 510/316/74
f 512/317/74 516/303/50 514/305/50
f 516/303/50 520/306/75 518/307/75
f 520/306/75 524/319/76 522/318/76
f 524/315/76 528/313/51 526/312/51
f 528/313/51 532/311/77 530/309/77
f 532/319/77 536/306/78 534/307/78
