# Blender 5.2.0 LTS
# www.blender.org
o Backdrop_WaterCannon
v -1.000000 38.049999 4.450000
v -1.000000 27.950001 4.450000
v 3.191119 29.500000 3.191119
v -2.059748 26.000000 -2.059748
v -2.404163 25.549999 -2.404163
v -2.404163 25.549999 -2.404163
v 1.000000 27.950001 5.550000
v 0.550000 27.500000 5.550000
v -2.059748 0.000000 -2.059748
v -2.404163 0.450000 -2.404163
v -2.404163 0.450000 -2.404163
v -0.550000 38.049999 4.000000
v 0.550000 38.500000 4.450000
v -0.550000 38.500000 4.450000
v -2.912924 26.000000 -0.000000
v 0.550000 38.049999 4.000000
v 1.000000 27.950001 4.450000
v 1.000000 38.049999 4.450000
v -2.912924 0.000000 0.000000
v -2.059748 26.000000 2.059748
v -2.404163 25.549999 2.404163
v -2.404163 25.549999 2.404163
v 0.000000 24.500000 -4.512924
v 3.191119 24.500000 -3.191119
v -2.059748 0.000000 2.059748
v -2.404163 0.450000 2.404163
v -2.404163 0.450000 2.404163
v -0.550000 38.049999 -4.000000
v -0.550000 27.950001 -4.000000
v -0.000000 26.000000 2.912924
v -0.550000 27.950001 -6.000000
v -0.550000 38.049999 -6.000000
v 0.000000 0.000000 2.912924
v 4.512924 29.500000 -0.000000
v 2.059748 26.000000 2.059748
v 2.404163 25.549999 2.404163
v 2.404163 25.549999 2.404163
v -1.000000 38.049999 -4.450000
v -1.000000 38.049999 -5.550000
v -0.550000 38.500000 -5.550000
v -0.550000 38.500000 -4.450000
v 2.059748 0.000000 2.059748
v 2.404163 0.450000 2.404163
v 2.404163 0.450000 2.404163
v 2.912924 26.000000 0.000000
v 3.191119 29.500000 -3.191119
v -0.000000 29.500000 -4.512924
v 2.912924 0.000000 -0.000000
v -0.550000 38.500000 5.550000
v -0.550000 38.049999 6.000000
v 0.550000 27.950001 4.000000
v -0.550000 27.950001 4.000000
v -0.550000 27.500000 4.450000
v 0.550000 27.500000 4.450000
v 2.059748 26.000000 -2.059748
v 0.000000 26.000000 -2.912924
v 2.404163 25.549999 -2.404163
v 2.404163 25.549999 -2.404163
v -0.000000 0.000000 -2.912924
v 2.059748 0.000000 -2.059748
v 2.404163 0.450000 -2.404163
v 2.404163 0.450000 -2.404163
v 4.512924 24.500000 0.000000
v 3.191119 24.500000 3.191119
v -1.000000 27.950001 -5.550000
v -1.000000 27.950001 -4.450000
v -0.550000 27.500000 -4.450000
v -0.550000 27.500000 -5.550000
v -1.000000 38.049999 5.550000
v -0.550000 27.500000 5.550000
v -0.550000 27.950001 6.000000
v -1.000000 27.950001 5.550000
v -0.000000 0.000000 -2.912924
v -0.415746 0.450000 -3.227793
v 0.415746 0.450000 -3.227793
v 0.000000 26.000000 -2.912924
v 0.415746 25.549999 -3.227793
v -0.415746 25.549999 -3.227793
v 2.059748 0.000000 -2.059748
v 2.404163 0.450000 -2.404163
v 2.059748 26.000000 -2.059748
v 2.404163 25.549999 -2.404163
v 2.912924 0.000000 -0.000000
v 3.227793 0.450000 -0.415746
v 3.227793 0.450000 0.415746
v 2.912924 26.000000 0.000000
v 3.227793 25.549999 0.415746
v 3.227793 25.549999 -0.415746
v 2.059748 0.000000 2.059748
v 2.404163 0.450000 2.404163
v 2.059748 26.000000 2.059748
v 2.404163 25.549999 2.404163
v 0.000000 0.000000 2.912924
v 0.415746 0.450000 3.227793
v -0.415746 0.450000 3.227793
v -0.000000 26.000000 2.912924
v -0.415746 25.549999 3.227793
v 0.415746 25.549999 3.227793
v -2.059748 0.000000 2.059748
v -2.404163 0.450000 2.404163
v -2.059748 26.000000 2.059748
v -2.404163 25.549999 2.404163
v -2.912924 0.000000 0.000000
v -3.227793 0.450000 0.415746
v -3.227793 0.450000 -0.415746
v -2.912924 26.000000 -0.000000
v -3.227793 25.549999 -0.415746
v -3.227793 25.549999 0.415746
v -2.059748 0.000000 -2.059748
v -2.404163 0.450000 -2.404163
v -2.059748 26.000000 -2.059748
v -2.404163 25.549999 -2.404163
v 0.000000 24.500000 -4.512924
v -0.415746 24.950001 -4.827793
v 0.415746 24.950001 -4.827793
v -0.000000 29.500000 -4.512924
v 0.415746 29.049999 -4.827793
v -0.415746 29.049999 -4.827793
v 3.191119 24.500000 -3.191119
v 3.119788 24.950001 -3.707741
v 3.707741 24.950001 -3.119788
v 3.191119 29.500000 -3.191119
v 3.707741 29.049999 -3.119788
v 3.119788 29.049999 -3.707741
v 4.512924 24.500000 0.000000
v 4.827793 24.950001 -0.415746
v 4.827793 24.950001 0.415746
v 4.512924 29.500000 -0.000000
v 4.827793 29.049999 0.415746
v 4.827793 29.049999 -0.415746
v 3.191119 24.500000 3.191119
v 3.707741 24.950001 3.119788
v 3.119788 24.950001 3.707741
v 3.191119 29.500000 3.191119
v 3.119788 29.049999 3.707741
v 3.707741 29.049999 3.119788
v -0.000000 24.500000 4.512924
v 0.415746 24.950001 4.827793
v -0.415746 24.950001 4.827793
v 0.000000 29.500000 4.512924
v -0.415746 29.049999 4.827793
v 0.415746 29.049999 4.827793
v -3.191119 24.500000 3.191119
v -3.119788 24.950001 3.707741
v -3.707741 24.950001 3.119788
v -3.191119 29.500000 3.191119
v -3.707741 29.049999 3.119788
v -3.119788 29.049999 3.707741
v -4.512924 24.500000 -0.000000
v -4.827793 24.950001 0.415746
v -4.827793 24.950001 -0.415746
v -4.512924 29.500000 0.000000
v -4.827793 29.049999 -0.415746
v -4.827793 29.049999 0.415746
v -3.191119 24.500000 -3.191119
v -3.707741 24.950001 -3.119788
v -3.119788 24.950001 -3.707741
v -3.191119 29.500000 -3.191119
v -3.119788 29.049999 -3.707741
v -3.707741 29.049999 -3.119788
v -0.550000 27.500000 4.450000
v -1.000000 27.950001 4.450000
v -0.550000 27.950001 4.000000
v -0.550000 38.500000 4.450000
v -0.550000 38.049999 4.000000
v -1.000000 38.049999 4.450000
v 0.550000 27.500000 5.550000
v 1.000000 27.950001 5.550000
v 0.550000 27.950001 6.000000
v 0.550000 38.500000 5.550000
v 0.550000 38.049999 6.000000
v 1.000000 38.049999 5.550000
v 0.550000 27.500000 4.450000
v 0.550000 27.950001 4.000000
v 1.000000 27.950001 4.450000
v 0.550000 38.500000 4.450000
v 1.000000 38.049999 4.450000
v 0.550000 38.049999 4.000000
v -0.550000 27.500000 -4.450000
v -0.550000 27.950001 -4.000000
v -1.000000 27.950001 -4.450000
v -0.550000 38.049999 -4.000000
v -0.550000 38.500000 -4.450000
v -1.000000 38.049999 -4.450000
v -0.550000 27.500000 -5.550000
v -1.000000 27.950001 -5.550000
v -0.550000 27.950001 -6.000000
v -0.550000 38.500000 -5.550000
v -0.550000 38.049999 -6.000000
v -1.000000 38.049999 -5.550000
v 0.550000 27.500000 -4.450000
v 1.000000 27.950001 -4.450000
v 0.550000 27.950001 -4.000000
v 0.550000 38.500000 -4.450000
v 0.550000 38.049999 -4.000000
v 1.000000 38.049999 -4.450000
v 0.550000 27.500000 -5.550000
v 0.550000 27.950001 -6.000000
v 1.000000 27.950001 -5.550000
v 0.550000 38.500000 -5.550000
v 1.000000 38.049999 -5.550000
v 0.550000 38.049999 -6.000000
v -2.276502 34.531578 -3.121120
v -1.886528 34.755272 -3.579251
v 20.276503 47.468422 -1.921121
v 19.886526 47.244724 -2.420749
v -1.278266 32.791336 -2.390917
v -0.741767 32.759594 -2.741863
v 20.890940 46.397263 -1.471663
v 20.660765 45.894989 -1.854404
v -0.747116 31.865376 -0.541977
v -0.132651 31.697716 -0.621531
v 21.217873 45.827316 -0.333603
v 21.072725 45.176811 -0.420357
v -0.931581 32.186958 1.560559
v -0.344195 32.066505 1.789628
v 21.104328 46.025261 0.960563
v 20.929651 45.426235 1.210375
v -1.745351 33.605614 2.932893
v -1.277414 33.693398 3.363395
v 20.603437 46.898476 1.805262
v 20.298489 46.526546 2.274761
v -2.807651 35.457539 2.932893
v -2.495642 35.817150 3.363394
v 19.949570 48.038372 1.805262
v 19.474567 47.962906 2.274761
v -3.621422 36.876194 1.560558
v -3.428859 37.444042 1.789627
v 19.448675 48.911587 0.960563
v 18.843403 49.063221 1.210373
v -3.805886 37.197777 -0.541980
v -3.640405 37.812832 -0.621531
v 19.335129 49.109531 -0.333602
v 18.700331 49.312641 -0.420358
v -3.274738 36.271820 -2.390917
v -3.031289 36.750954 -2.741864
v 19.662064 48.539581 -1.471663
v 19.112293 48.594460 -1.854403
v -0.000000 24.500000 4.512924
v 0.550000 38.500000 5.550000
v -0.550000 38.500000 5.550000
v -0.550000 38.049999 6.000000
v 0.550000 38.049999 6.000000
v 0.000000 29.500000 4.512924
v -1.000000 38.049999 5.550000
v -3.191119 24.500000 3.191119
v -0.550000 27.500000 5.550000
v 0.550000 27.950001 6.000000
v -0.550000 27.950001 6.000000
v -3.191119 29.500000 3.191119
v -1.000000 27.950001 5.550000
v -4.512924 24.500000 -0.000000
v 1.000000 38.049999 5.550000
v -4.512924 29.500000 0.000000
v -3.191119 24.500000 -3.191119
v -3.191119 29.500000 -3.191119
v 0.550000 27.500000 -5.550000
v 0.550000 27.950001 -6.000000
v 0.550000 38.500000 -5.550000
v 0.550000 38.049999 -6.000000
v 1.000000 38.049999 -5.550000
v 1.000000 27.950001 -5.550000
v 0.550000 27.500000 -4.450000
v 1.000000 27.950001 -4.450000
v 0.550000 38.500000 -4.450000
v 1.000000 38.049999 -4.450000
v 0.550000 38.049999 -4.000000
v 0.550000 27.950001 -4.000000
v -1.886528 34.755272 -3.579251
v -0.741767 32.759594 -2.741863
v -1.278266 32.791336 -2.390917
v -2.276502 34.531578 -3.121120
v 20.660765 45.894989 -1.854404
v 19.886526 47.244724 -2.420749
v 20.276503 47.468422 -1.921121
v 20.890940 46.397263 -1.471663
v -0.132651 31.697716 -0.621531
v -0.747116 31.865376 -0.541977
v 21.072725 45.176811 -0.420357
v 21.217873 45.827316 -0.333603
v -0.344195 32.066505 1.789628
v -0.931581 32.186958 1.560559
v 20.929651 45.426235 1.210375
v 21.104328 46.025261 0.960563
v -1.277414 33.693398 3.363395
v -1.745351 33.605614 2.932893
v 20.298489 46.526546 2.274761
v 20.603437 46.898476 1.805262
v -2.495642 35.817150 3.363394
v -2.807651 35.457539 2.932893
v 19.474567 47.962906 2.274761
v 19.949570 48.038372 1.805262
v -3.428859 37.444042 1.789627
v -3.621422 36.876194 1.560558
v 18.843403 49.063221 1.210373
v 19.448675 48.911587 0.960563
v -3.640405 37.812832 -0.621531
v -3.805886 37.197777 -0.541980
v 18.700331 49.312641 -0.420358
v 19.335129 49.109531 -0.333602
v -3.031289 36.750954 -2.741864
v -3.274738 36.271820 -2.390917
v 19.112293 48.594460 -1.854403
v 19.662064 48.539581 -1.471663
vn -0.7588 0.4606 -0.4606
vn -0.7588 -0.4606 -0.4606
vn 0.5188 0.6795 0.5188
vn -0.4798 0.7345 -0.4798
vn -0.3827 -0.0000 -0.9239
vn 0.7588 -0.4606 0.4606
vn 0.4606 -0.7588 0.4606
vn -0.4798 -0.7345 -0.4798
vn -0.4606 0.4606 -0.7588
vn 0.4606 0.7588 -0.4606
vn -0.4606 0.7588 -0.4606
vn -0.7337 0.6795 -0.0000
vn 0.4606 0.4606 -0.7588
vn 0.7588 -0.4606 -0.4606
vn 0.7588 0.4606 -0.4606
vn -0.7337 -0.6795 -0.0000
vn -0.4798 0.7345 0.4798
vn -0.3827 -0.0000 0.9239
vn -0.0000 -0.6795 -0.7337
vn 0.5188 -0.6795 -0.5188
vn -0.4798 -0.7345 0.4798
vn -0.4606 0.4606 0.7588
vn -0.4606 -0.4606 0.7588
vn -0.0000 0.6795 0.7337
vn -0.4606 -0.4606 -0.7588
vn -0.0000 -0.6795 0.7337
vn 0.7337 0.6795 -0.0000
vn 0.4798 0.7345 0.4798
vn 0.9239 -0.0000 0.3827
vn -0.7588 0.4606 0.4606
vn -0.4606 0.7588 0.4606
vn 0.4798 -0.7345 0.4798
vn 0.5188 0.6795 -0.5188
vn -0.0000 0.6795 -0.7337
vn 0.7337 -0.6795 -0.0000
vn -0.0000 1.0000 -0.0000
vn -0.0000 -0.0000 1.0000
vn 0.4606 -0.4606 -0.7588
vn -0.4606 -0.7588 -0.4606
vn 0.4606 -0.7588 -0.4606
vn 0.4798 0.7345 -0.4798
vn 0.3827 -0.0000 -0.9239
vn 0.4798 -0.7345 -0.4798
vn 0.5188 -0.6795 0.5188
vn -0.7588 -0.4606 0.4606
vn -0.4606 -0.7588 0.4606
vn -1.0000 -0.0000 -0.0000
vn -0.0000 -1.0000 -0.0000
vn -0.2048 -0.3468 -0.9153
vn 0.2048 -0.3468 -0.9153
vn 0.2048 0.3468 -0.9153
vn -0.2048 0.3468 -0.9153
vn 0.9239 -0.0000 -0.3827
vn 0.9153 -0.3468 -0.2048
vn 0.9153 -0.3468 0.2048
vn 0.9153 0.3468 0.2048
vn 0.9153 0.3468 -0.2048
vn 0.3827 -0.0000 0.9239
vn 0.2048 -0.3468 0.9153
vn -0.2048 -0.3468 0.9153
vn -0.2048 0.3468 0.9153
vn 0.2048 0.3468 0.9153
vn -0.9239 -0.0000 0.3827
vn -0.9153 -0.3468 0.2048
vn -0.9153 -0.3468 -0.2048
vn -0.9153 0.3468 -0.2048
vn -0.9153 0.3468 0.2048
vn -0.9239 -0.0000 -0.3827
vn 0.5024 -0.3468 -0.7920
vn 0.7920 -0.3468 -0.5024
vn 0.7920 0.3468 -0.5024
vn 0.5024 0.3468 -0.7920
vn 0.7920 -0.3468 0.5024
vn 0.5024 -0.3468 0.7920
vn 0.5024 0.3468 0.7920
vn 0.7920 0.3468 0.5024
vn -0.5024 -0.3468 0.7920
vn -0.7920 -0.3468 0.5024
vn -0.7920 0.3468 0.5024
vn -0.5024 0.3468 0.7920
vn -0.7920 -0.3468 -0.5024
vn -0.5024 -0.3468 -0.7920
vn -0.5024 0.3468 -0.7920
vn -0.7920 0.3468 -0.5024
vn -0.0000 -0.0000 -1.0000
vn 1.0000 -0.0000 -0.0000
vn -0.8674 -0.4976 -0.0000
vn 0.0400 0.0229 -0.9989
vn 0.8674 0.4976 -0.0000
vn 0.3595 -0.5340 -0.7652
vn 0.5295 -0.8304 -0.1735
vn 0.4704 -0.7275 0.4995
vn 0.2100 -0.2734 0.9387
vn -0.1300 0.3193 0.9387
vn -0.3905 0.7734 0.4995
vn -0.4495 0.8763 -0.1735
vn -0.2795 0.5799 -0.7652
vn 0.4606 0.7588 0.4606
vn 0.4606 0.4606 0.7588
vn -0.5188 -0.6795 0.5188
vn 0.4606 -0.4606 0.7588
vn -0.5188 0.6795 0.5188
vn 0.7588 0.4606 0.4606
vn -0.5188 -0.6795 -0.5188
vn -0.5188 0.6795 -0.5188
vn -0.6191 -0.3551 -0.7004
vn -0.3951 -0.7457 -0.5365
vn 0.8587 -0.0031 -0.5124
vn 0.6448 0.3699 -0.6689
vn -0.2759 -0.9535 -0.1216
vn 0.9726 -0.2015 -0.1162
vn -0.3173 -0.8813 0.3502
vn 0.9330 -0.1326 0.3344
vn -0.4999 -0.5629 0.6582
vn 0.7586 0.1714 0.6286
vn -0.7383 -0.1473 0.6582
vn 0.5310 0.5683 0.6286
vn -0.9209 0.1710 0.3502
vn 0.3566 0.8724 0.3344
vn -0.9623 0.2432 -0.1216
vn 0.3170 0.9413 -0.1162
vn -0.8431 0.0354 -0.5365
vn 0.4309 0.7428 -0.5124
vt 0.000000 1.475000
vt -0.020787 1.452500
vt 0.020787 1.452500
vt -0.000000 1.300000
vt -0.020787 1.277500
vt 0.020787 1.277500
vt -0.159556 1.225000
vt -0.155989 1.247500
vt -0.185387 1.247500
vt 0.000000 0.000000
vt 0.020787 0.022500
vt -0.020787 0.022500
vt 0.159556 1.475000
vt 0.155989 1.452500
vt 0.185387 1.452500
vt 0.159556 1.225000
vt 0.185387 1.247500
vt 0.155989 1.247500
vt -0.000000 1.475000
vt 0.020787 1.452500
vt -0.020787 1.452500
vt 0.000000 1.300000
vt 0.020787 1.277500
vt -0.020787 1.277500
vt 0.000000 1.225000
vt -0.020787 1.247500
vt 0.020787 1.247500
vt -0.000000 0.000000
vt -0.020787 0.022500
vt 0.020787 0.022500
vt -0.027500 1.375000
vt -0.027500 1.397500
vt -0.050000 1.397500
vt -0.027500 1.902500
vt -0.027500 1.925000
vt -0.050000 1.902500
vt -0.000000 1.225000
vt 0.020787 1.247500
vt -0.020787 1.247500
vt -0.159556 1.475000
vt -0.185387 1.452500
vt -0.155989 1.452500
vt 0.027500 1.375000
vt 0.050000 1.397500
vt 0.027500 1.397500
vt 0.027500 1.925000
vt 0.027500 1.902500
vt 0.050000 1.902500
vt 0.222500 1.375000
vt 0.277500 1.397500
vt 0.277500 1.375000
vt 0.185387 -0.155989
vt 0.225646 -0.000000
vt 0.241390 -0.020787
vt 0.020787 0.161390
vt 0.102987 0.102987
vt -0.000000 0.145646
vt 0.020787 0.161390
vt 0.102987 0.102987
vt 0.120208 0.120208
vt 0.161390 0.020787
vt 0.020787 0.241390
vt 0.159556 0.159556
vt 0.155989 0.185387
vt 0.161390 0.020787
vt 0.145646 -0.000000
vt 0.161390 -0.020787
vt 0.102987 -0.102987
vt 0.145646 0.000000
vt 0.277500 1.925000
vt 0.222500 1.902500
vt 0.222500 1.925000
vt 0.161390 -0.020787
vt 0.102987 -0.102987
vt 0.120208 -0.120208
vt 0.185387 0.155989
vt 0.225646 0.000000
vt 0.241390 0.020787
vt 0.020787 -0.161390
vt 0.020787 -0.161390
vt -0.000000 -0.145646
vt -0.020787 -0.161390
vt -0.102987 -0.102987
vt 0.000000 -0.145646
vt 0.000000 0.225646
vt 0.020787 0.241390
vt -0.020787 -0.161390
vt -0.102987 -0.102987
vt -0.120208 -0.120208
vt 0.241390 0.020787
vt -0.161390 -0.020787
vt -0.161390 -0.020787
vt -0.145646 0.000000
vt -0.161390 0.020787
vt -0.102987 0.102987
vt -0.145646 -0.000000
vt -0.222500 1.375000
vt -0.277500 1.397500
vt -0.277500 1.375000
vt -0.161390 0.020787
vt -0.102987 0.102987
vt -0.120208 0.120208
vt -0.020787 0.161390
vt -0.020787 0.161390
vt 0.000000 0.145646
vt 0.241390 -0.020787
vt 0.159556 -0.159556
vt 0.020787 -0.241390
vt 0.155989 -0.185387
vt 0.000000 -0.225646
vt 0.020787 -0.241390
vt -0.222500 1.925000
vt -0.277500 1.902500
vt -0.277500 1.925000
vt -0.155989 -0.185387
vt -0.000000 -0.225646
vt -0.020787 -0.241390
vt -0.020787 -0.241390
vt -0.159556 -0.159556
vt -0.241390 -0.020787
vt -0.185387 -0.155989
vt -0.225646 -0.000000
vt -0.241390 -0.020787
vt -0.222500 1.397500
vt -0.185387 0.155989
vt -0.225646 0.000000
vt -0.241390 0.020787
vt -0.222500 1.902500
vt -0.241390 0.020787
vt -0.159556 0.159556
vt -0.020787 0.241390
vt -0.155989 0.185387
vt -0.000000 0.225646
vt -0.020787 0.241390
vt 0.222500 1.397500
vt 0.277500 1.902500
vt -0.037088 1.637980
vt -0.113825 1.726579
vt -0.094326 1.737764
vt 0.092720 2.294749
vt 0.096056 2.373421
vt 0.073583 2.319863
vt -0.037088 0.137093
vt -0.037356 0.027099
vt -0.063913 0.119546
vt 0.016680 2.291366
vt 0.021018 2.258841
vt -0.006633 0.031077
vt -0.046579 -0.078028
vt -0.060519 2.271312
vt -0.048028 2.301263
vt -0.017210 -0.089481
vt -0.087268 -0.146645
vt -0.113738 2.326327
vt -0.090263 2.344924
vt -0.063871 1.684670
vt -0.140383 1.772877
vt -0.087268 1.680281
vt 1.014924 2.326327
vt 0.997478 2.401919
vt 0.973728 2.398145
vt -0.089481 1.872202
vt -0.146645 1.772877
vt -0.168170 1.790858
vt 0.973728 -0.113738
vt 0.972434 -0.048028
vt 0.942170 -0.060519
vt 0.031077 1.890642
vt -0.078028 1.843810
vt 0.966756 0.016680
vt 0.935017 0.021018
vt 0.137093 1.837548
vt 0.027099 1.859889
vt 0.955615 0.092720
vt 0.983103 0.073583
vt 0.156056 1.726579
vt 0.119546 1.813591
vt 0.955615 2.429723
vt 1.013825 2.373421
vt 0.994326 2.362236
vt -0.027500 -0.222500
vt 0.027500 -0.277500
vt 0.027500 -0.222500
vt -0.027500 -0.277500
vt 0.120208 0.022500
vt -0.120208 1.277500
vt -0.120208 0.022500
vt 0.120208 1.277500
vt 0.027500 0.277500
vt -0.027500 0.222500
vt -0.027500 0.277500
vt 0.027500 0.222500
vt 0.119546 1.639567
vt -0.151564 1.837548
vt -0.090263 2.401919
vt 1.033038 0.092720
vt 1.053636 0.021018
vt -0.017210 1.603325
vt -0.124782 1.790858
vt 0.942170 2.453161
vt -0.171443 1.872202
vt -0.171443 -0.089481
vt -0.182020 0.031077
vt -0.151564 0.137093
vt -0.063913 1.639567
vt 0.121037 2.362236
vt -0.063871 -0.168170
vt 1.030172 2.344924
vt 0.997478 -0.090263
vt 0.178963 1.737764
vt 0.983103 2.426979
vt 0.027099 1.593269
vt -0.078028 1.609348
vt -0.146645 1.680281
vt 1.033038 2.294749
vt 0.073583 2.426979
vt 0.016680 2.455477
vt -0.048028 2.445579
vt 1.046483 -0.060519
vt 1.046483 2.271312
s 1
f 34/1/27 129/2/56 130/3/57
f 30/4/24 97/5/61 98/6/62
f 64/7/44 132/8/73 133/9/74
f 33/10/26 94/11/59 95/12/60
f 46/13/33 123/14/71 124/15/72
f 45/4/27 87/5/56 88/6/57
f 24/16/20 120/17/69 121/18/70
f 48/10/35 84/11/54 85/12/55
f 47/19/34 117/20/51 118/21/52
f 56/22/34 77/23/51 78/24/52
f 23/25/19 114/26/49 115/27/50
f 59/28/19 74/29/49 75/30/50
f 15/22/12 107/23/66 108/24/67
f 247/31/46 249/32/23 251/33/45
f 242/34/22 241/35/31 245/36/30
f 63/37/35 126/38/54 127/39/55
f 19/28/16 104/29/64 105/30/65
f 3/40/3 135/41/75 136/42/76
f 239/37/26 138/38/59 139/39/60
f 244/1/24 141/2/61 142/3/62
f 246/7/100 144/9/77 145/8/78
f 250/40/102 147/42/79 148/41/80
f 252/25/16 150/26/64 151/27/65
f 254/19/12 153/20/66 154/21/67
f 255/16/104 156/18/81 157/17/82
f 256/13/105 159/15/83 160/14/84
f 53/31/39 2/33/2 52/32/25
f 14/35/11 12/34/9 1/36/1
f 8/43/7 7/44/6 248/45/101
f 240/46/98 243/47/99 253/48/103
f 54/43/40 51/45/38 17/44/14
f 13/46/10 18/48/15 16/47/13
f 67/31/46 29/32/23 66/33/45
f 28/34/22 41/35/31 38/36/30
f 68/31/39 65/33/2 31/32/25
f 40/35/11 32/34/9 39/36/1
f 263/43/7 264/44/6 268/45/101
f 265/46/98 267/47/99 266/48/103
f 257/43/40 258/45/38 262/44/14
f 259/46/10 261/48/15 260/47/13
f 67/49/46 65/50/2 68/51/39
f 132/52/73 63/53/35 127/54/55
f 75/55/50 60/56/43 59/57/19
f 121/18/70 124/15/72 123/14/71
f 118/21/52 115/27/50 114/26/49
f 77/58/51 55/59/41 58/60/41
f 74/29/49 77/23/51 75/30/50
f 53/31/39 51/45/38 54/43/40
f 84/61/54 60/56/43 62/60/43
f 117/62/51 46/63/33 124/64/72
f 88/65/57 55/59/41 45/66/27
f 87/5/56 84/11/54 88/6/57
f 127/39/55 130/3/57 129/2/56
f 85/67/55 42/68/32 48/69/35
f 40/70/11 38/71/30 41/72/31
f 87/73/56 35/74/28 37/75/28
f 123/76/71 34/77/27 130/78/57
f 94/79/59 42/68/32 44/75/32
f 31/32/25 39/36/1 32/34/9
f 98/80/62 35/74/28 30/81/24
f 97/5/61 94/11/59 98/6/62
f 28/34/22 66/33/45 29/32/23
f 95/82/60 25/83/21 33/84/26
f 120/64/69 23/85/19 115/86/50
f 97/87/61 20/88/17 22/89/17
f 126/90/54 24/63/20 121/76/70
f 104/91/64 25/83/21 27/89/21
f 17/44/14 16/47/13 18/48/15
f 108/92/67 20/88/17 15/93/12
f 107/23/66 104/29/64 108/24/67
f 13/46/10 12/34/9 14/35/11
f 105/94/65 9/95/8 19/96/16
f 54/97/40 7/98/6 8/99/7
f 107/100/66 4/101/4 6/102/4
f 74/103/49 9/95/8 11/102/8
f 78/104/52 4/101/4 56/105/34
f 129/106/56 3/107/3 136/52/76
f 133/9/74 136/42/76 135/41/75
f 52/32/25 1/36/1 12/34/9
f 138/108/59 64/107/44 133/109/74
f 241/35/31 243/47/99 240/46/98
f 135/109/75 244/110/24 142/111/62
f 139/39/60 142/3/62 141/2/61
f 14/112/11 245/113/30 241/114/31
f 144/115/77 239/116/26 139/117/60
f 8/43/7 249/32/23 247/31/46
f 141/118/61 250/119/102 148/115/80
f 145/8/78 148/41/80 147/42/79
f 242/34/22 251/33/45 249/32/23
f 150/120/64 246/119/100 145/121/78
f 248/45/101 253/48/103 243/47/99
f 147/121/79 254/122/12 154/123/67
f 151/27/65 154/21/67 153/20/66
f 247/99/46 2/124/2 53/97/39
f 156/125/81 252/126/16 151/127/65
f 240/114/98 18/128/15 13/112/10
f 153/129/66 256/130/105 160/125/84
f 157/17/82 160/14/84 159/15/83
f 114/131/49 255/130/104 157/132/82
f 159/132/83 47/133/34 118/134/52
f 68/31/39 258/45/38 257/43/40
f 259/46/10 32/34/9 40/35/11
f 262/44/14 260/47/13 261/48/15
f 257/51/40 264/135/6 263/49/7
f 265/72/98 261/136/15 259/70/10
f 268/45/101 266/48/103 267/47/99
f 263/43/7 29/32/23 67/31/46
f 41/35/31 267/47/99 265/46/98
f 270/137/107 272/138/106 269/139/106
f 273/140/108 275/141/109 276/142/108
f 270/143/107 278/144/110 271/145/107
f 273/140/108 280/146/111 279/147/111
f 277/148/110 282/149/112 278/144/110
f 283/150/113 280/146/111 284/151/113
f 281/152/112 286/153/114 282/149/112
f 287/154/115 284/151/113 288/155/115
f 285/156/114 290/157/116 286/158/114
f 287/159/115 292/160/117 291/161/117
f 293/162/118 290/163/116 289/164/116
f 291/165/117 296/166/119 295/167/119
f 297/168/120 294/169/118 293/162/118
f 295/167/119 300/170/121 299/171/121
f 301/172/122 298/173/120 297/168/120
f 303/174/123 300/170/121 304/175/123
f 301/172/122 272/176/106 302/177/122
f 303/178/123 275/179/109 274/180/109
f 171/47/37 71/32/37 169/45/37
f 69/113/47 162/124/47 72/98/47
f 164/181/36 170/182/36 176/183/36
f 173/183/48 70/184/48 161/181/48
f 89/68/48 99/83/48 109/95/48
f 77/23/51 61/185/42 75/30/50
f 5/186/5 74/29/49 10/187/5
f 106/93/36 96/81/36 86/66/36
f 82/188/53 84/11/54 80/185/53
f 87/5/56 43/187/29 85/12/55
f 92/188/58 94/11/59 90/185/58
f 97/5/61 26/187/18 95/12/60
f 102/186/63 104/29/64 100/187/63
f 107/23/66 110/185/68 105/30/65
f 143/119/48 155/130/48 119/63/48
f 117/20/51 120/18/69 115/27/50
f 159/42/83 114/26/49 157/8/82
f 128/77/36 116/133/36 152/122/36
f 123/14/71 126/38/54 121/18/70
f 129/2/56 132/8/73 127/39/55
f 135/14/75 138/38/59 133/18/74
f 141/2/61 144/8/77 139/39/60
f 147/42/79 150/26/64 145/8/78
f 153/20/66 156/18/81 151/27/65
f 165/34/85 174/45/85 163/32/85
f 177/128/86 168/98/86 175/124/86
f 197/189/48 179/190/48 185/191/48
f 184/71/47 186/50/47 181/135/47
f 195/47/37 180/32/37 193/45/37
f 188/191/36 194/192/36 200/189/36
f 189/34/85 198/45/85 187/32/85
f 201/136/86 192/135/86 199/50/86
f 207/193/87 223/163/87 231/173/87
f 206/180/88 208/137/90 204/139/88
f 236/194/97 206/180/88 204/139/88
f 205/141/89 225/195/89 217/151/89
f 210/196/90 212/148/91 208/143/90
f 214/197/91 216/152/92 212/148/91
f 216/198/92 222/159/93 220/156/93
f 222/159/93 224/199/94 220/156/93
f 224/199/94 230/200/95 228/201/95
f 228/202/95 234/171/96 232/203/96
f 232/203/96 238/174/97 236/204/97
f 67/49/46 66/135/45 65/50/2
f 132/52/73 64/107/44 63/53/35
f 75/55/50 62/60/43 60/56/43
f 121/18/70 120/17/69 124/15/72
f 118/21/52 117/20/51 115/27/50
f 77/58/51 56/105/34 55/59/41
f 74/29/49 78/24/52 77/23/51
f 53/31/39 52/32/25 51/45/38
f 84/61/54 48/69/35 60/56/43
f 117/62/51 47/133/34 46/63/33
f 88/65/57 58/60/41 55/59/41
f 87/5/56 85/12/55 84/11/54
f 127/39/55 126/38/54 130/3/57
f 85/67/55 44/75/32 42/68/32
f 40/70/11 39/136/1 38/71/30
f 87/73/56 45/66/27 35/74/28
f 123/76/71 46/63/33 34/77/27
f 94/79/59 33/84/26 42/68/32
f 31/32/25 65/33/2 39/36/1
f 98/80/62 37/75/28 35/74/28
f 97/5/61 95/12/60 94/11/59
f 28/34/22 38/36/30 66/33/45
f 95/82/60 27/89/21 25/83/21
f 120/64/69 24/63/20 23/85/19
f 97/87/61 30/81/24 20/88/17
f 126/90/54 63/53/35 24/63/20
f 104/91/64 19/96/16 25/83/21
f 17/44/14 51/45/38 16/47/13
f 108/92/67 22/89/17 20/88/17
f 107/23/66 105/30/65 104/29/64
f 13/46/10 16/47/13 12/34/9
f 105/94/65 11/102/8 9/95/8
f 54/97/40 17/124/14 7/98/6
f 107/100/66 15/93/12 4/101/4
f 74/103/49 59/57/19 9/95/8
f 78/104/52 6/102/4 4/101/4
f 129/106/56 34/77/27 3/107/3
f 133/9/74 132/8/73 136/42/76
f 52/32/25 2/33/2 1/36/1
f 138/108/59 239/116/26 64/107/44
f 241/35/31 242/34/22 243/47/99
f 135/109/75 3/107/3 244/110/24
f 139/39/60 138/38/59 142/3/62
f 14/112/11 1/128/1 245/113/30
f 144/115/77 246/119/100 239/116/26
f 8/43/7 248/45/101 249/32/23
f 141/118/61 244/110/24 250/119/102
f 145/8/78 144/9/77 148/41/80
f 242/34/22 245/36/30 251/33/45
f 150/120/64 252/126/16 246/119/100
f 248/45/101 7/44/6 253/48/103
f 147/121/79 250/119/102 254/122/12
f 151/27/65 150/26/64 154/21/67
f 247/99/46 251/98/45 2/124/2
f 156/125/81 255/130/104 252/126/16
f 240/114/98 253/113/103 18/128/15
f 153/129/66 254/122/12 256/130/105
f 157/17/82 156/18/81 160/14/84
f 114/131/49 23/85/19 255/130/104
f 159/132/83 256/130/105 47/133/34
f 68/31/39 31/32/25 258/45/38
f 259/46/10 260/47/13 32/34/9
f 262/44/14 258/45/38 260/47/13
f 257/51/40 262/50/14 264/135/6
f 265/72/98 266/71/103 261/136/15
f 268/45/101 264/44/6 266/48/103
f 263/43/7 268/45/101 29/32/23
f 41/35/31 28/34/22 267/47/99
f 270/137/107 271/205/107 272/138/106
f 273/140/108 274/206/109 275/141/109
f 270/143/107 277/148/110 278/144/110
f 273/140/108 276/142/108 280/146/111
f 277/148/110 281/152/112 282/149/112
f 283/150/113 279/147/111 280/146/111
f 281/152/112 285/207/114 286/153/114
f 287/154/115 283/150/113 284/151/113
f 285/156/114 289/199/116 290/157/116
f 287/159/115 288/208/115 292/160/117
f 293/162/118 294/169/118 290/163/116
f 291/165/117 292/209/117 296/166/119
f 297/168/120 298/173/120 294/169/118
f 295/167/119 296/166/119 300/170/121
f 301/172/122 302/177/122 298/173/120
f 303/174/123 299/171/121 300/170/121
f 301/172/122 269/210/106 272/176/106
f 303/178/123 304/211/123 275/179/109
f 171/47/37 50/34/37 71/32/37
f 69/113/47 166/128/47 162/124/47
f 164/181/36 49/184/36 170/182/36
f 173/183/48 167/182/48 70/184/48
f 109/95/48 73/57/48 79/56/48
f 79/56/48 83/69/48 89/68/48
f 89/68/48 93/84/48 99/83/48
f 99/83/48 103/96/48 109/95/48
f 109/95/48 79/56/48 89/68/48
f 77/23/51 57/188/42 61/185/42
f 5/186/5 78/24/52 74/29/49
f 86/66/36 81/59/36 76/105/36
f 76/105/36 111/101/36 106/93/36
f 106/93/36 101/88/36 96/81/36
f 96/81/36 91/74/36 86/66/36
f 86/66/36 76/105/36 106/93/36
f 82/188/53 88/6/57 84/11/54
f 87/5/56 36/186/29 43/187/29
f 92/188/58 98/6/62 94/11/59
f 97/5/61 21/186/18 26/187/18
f 102/186/63 108/24/67 104/29/64
f 107/23/66 112/188/68 110/185/68
f 119/63/48 125/53/48 131/107/48
f 131/107/48 137/116/48 143/119/48
f 143/119/48 149/126/48 155/130/48
f 155/130/48 113/85/48 119/63/48
f 119/63/48 131/107/48 143/119/48
f 117/20/51 124/14/72 120/18/69
f 159/42/83 118/21/52 114/26/49
f 152/122/36 146/119/36 140/110/36
f 140/110/36 134/107/36 128/77/36
f 128/77/36 122/63/36 116/133/36
f 116/133/36 158/130/36 152/122/36
f 152/122/36 140/110/36 128/77/36
f 123/14/71 130/3/57 126/38/54
f 129/2/56 136/42/76 132/8/73
f 135/14/75 142/3/62 138/38/59
f 141/2/61 148/42/80 144/8/77
f 147/42/79 154/21/67 150/26/64
f 153/20/66 160/14/84 156/18/81
f 165/34/85 178/47/85 174/45/85
f 177/128/86 172/113/86 168/98/86
f 197/189/48 191/192/48 179/190/48
f 184/71/47 190/136/47 186/50/47
f 195/47/37 182/34/37 180/32/37
f 188/191/36 183/190/36 194/192/36
f 189/34/85 202/47/85 198/45/85
f 201/136/86 196/71/86 192/135/86
f 235/177/87 203/176/87 207/193/87
f 207/193/87 211/212/87 215/213/87
f 215/213/87 219/214/87 223/163/87
f 223/163/87 227/169/87 231/173/87
f 231/173/87 235/177/87 207/193/87
f 207/193/87 215/213/87 223/163/87
f 206/180/88 210/215/90 208/137/90
f 236/194/97 238/178/97 206/180/88
f 213/146/89 209/142/89 205/141/89
f 205/141/89 237/216/89 233/217/89
f 233/217/89 229/218/89 225/195/89
f 225/195/89 221/155/89 217/151/89
f 217/151/89 213/146/89 205/141/89
f 205/141/89 233/217/89 225/195/89
f 210/196/90 214/197/91 212/148/91
f 214/197/91 218/219/92 216/152/92
f 216/198/92 218/220/92 222/159/93
f 222/159/93 226/161/94 224/199/94
f 224/199/94 226/161/94 230/200/95
f 228/202/95 230/167/95 234/171/96
f 232/203/96 234/171/96 238/174/97
