# Blender 5.2.0 LTS
# www.blender.org
o Backdrop_BeachHut_Detail
v -13.643015 30.000000 -12.335235
v -13.954544 29.300001 -12.982132
v -13.643015 0.000000 -12.335235
v -13.954544 0.700000 -12.982132
v -14.158672 30.000000 -11.924011
v -14.720029 29.300001 -12.371677
v 14.444841 0.000000 -10.670225
v 14.158672 0.000000 -10.075989
v 14.720029 0.700000 -9.628323
v 15.144841 0.700000 -10.510454
v -14.158672 0.000000 -11.924011
v -14.720029 0.700000 -12.371677
v -14.444841 30.000000 -11.329775
v -15.144841 29.300001 -11.489546
v -14.444841 0.000000 -11.329775
v -15.144841 0.700000 -11.489546
v 13.000000 0.000000 9.518002
v 13.000000 0.700000 8.800000
v -14.444841 30.000000 -10.670225
v -15.144841 29.300001 -10.510454
v -14.444841 0.000000 -10.670225
v -15.144841 0.700000 -10.510454
v -14.158672 30.000000 -10.075989
v -14.720029 29.300001 -9.628323
v 13.643015 0.000000 -12.335235
v 14.158672 0.000000 -11.924011
v 14.720029 0.700000 -12.371677
v 13.954544 0.700000 -12.982132
v -14.158672 0.000000 -10.075989
v -14.720029 0.700000 -9.628323
v 14.158672 30.000000 -10.075989
v 14.444841 30.000000 -10.670225
v 15.144841 29.300001 -10.510454
v 14.720029 29.300001 -9.628323
v -13.643015 30.000000 -9.664765
v -13.954544 29.300001 -9.017868
v 14.444841 0.000000 10.670225
v 15.144841 0.700000 10.510454
v -13.643015 0.000000 -9.664765
v -13.954544 0.700000 -9.017868
v 13.000000 30.000000 9.518002
v 13.000000 29.300001 8.800000
v -13.000000 30.000000 -9.518002
v -13.000000 29.300001 -8.800000
v -13.300000 32.700001 11.000000
v 13.300000 32.700001 11.000000
v 13.300000 32.000000 10.300000
v -13.300000 32.000000 10.300000
v -13.000000 0.000000 -9.518002
v -13.000000 0.700000 -8.800000
v -12.356985 30.000000 -9.664765
v -12.045456 29.300001 -9.017868
v 14.444841 30.000000 10.670225
v 15.144841 29.300001 10.510454
v -12.356985 0.000000 -9.664765
v -12.045456 0.700000 -9.017868
v -13.643015 30.000000 9.664765
v -13.954544 29.300001 9.017868
v 15.300000 31.800001 13.000000
v -15.300000 31.800001 13.000000
v -15.300000 32.500000 12.300000
v -13.643015 0.000000 9.664765
v -13.954544 0.700000 9.017868
v -14.158672 30.000000 10.075989
v -14.720029 29.300001 9.628323
v -14.158672 0.000000 10.075989
v -14.720029 0.700000 9.628323
v 14.444841 0.000000 11.329775
v 14.158672 0.000000 11.924011
v 14.720029 0.700000 12.371677
v 15.144841 0.700000 11.489546
v -14.444841 30.000000 10.670225
v -15.144841 29.300001 10.510454
v -13.000000 0.000000 -12.481998
v -13.000000 0.700000 -13.200000
v -14.444841 0.000000 10.670225
v -15.144841 0.700000 10.510454
v -14.444841 30.000000 11.329775
v -15.144841 29.300001 11.489546
v -14.444841 0.000000 11.329775
v -15.144841 0.700000 11.489546
v -14.158672 30.000000 11.924011
v -14.720029 29.300001 12.371677
v 14.158672 30.000000 11.924011
v 14.444841 30.000000 11.329775
v 15.144841 29.300001 11.489546
v 14.720029 29.300001 12.371677
v -14.158672 0.000000 11.924011
v -14.720029 0.700000 12.371677
v 13.643015 0.000000 9.664765
v 14.158672 0.000000 10.075989
v 14.720029 0.700000 9.628323
v 13.954544 0.700000 9.017868
v -13.643015 30.000000 12.335235
v -13.954544 29.300001 12.982132
v -13.000000 30.000000 -12.481998
v -13.000000 29.300001 -13.200000
v -13.643015 0.000000 12.335235
v -13.954544 0.700000 12.982132
v -11.555159 0.000000 -11.329775
v -10.855159 0.700000 -11.489546
v -13.000000 30.000000 12.481998
v -13.000000 29.300001 13.200000
v -13.000000 0.000000 12.481998
v -13.000000 0.700000 13.200000
v 1.414214 62.534920 11.000000
v -12.356985 30.000000 12.335235
v -12.045456 29.300001 12.982132
v -12.356985 0.000000 12.335235
v -12.045456 0.700000 12.982132
v -11.555159 30.000000 -11.329775
v -10.855159 29.300001 -11.489546
v -11.841328 30.000000 11.924011
v -11.279971 29.300001 12.371677
v 14.158672 30.000000 10.075989
v 13.643015 30.000000 9.664765
v 13.954544 29.300001 9.017868
v 14.720029 29.300001 9.628323
v -11.841328 0.000000 11.924011
v -11.279971 0.700000 12.371677
v -11.555159 30.000000 11.329775
v -10.855159 29.300001 11.489546
v -12.356985 0.000000 -12.335235
v -11.841328 0.000000 -11.924011
v -11.279971 0.700000 -12.371677
v -12.045456 0.700000 -12.982132
v -11.555159 0.000000 11.329775
v -10.855159 0.700000 11.489546
v 14.158672 30.000000 -11.924011
v 13.643015 30.000000 -12.335235
v 13.954544 29.300001 -12.982132
v 14.720029 29.300001 -12.371677
v -11.555159 30.000000 10.670225
v -10.855159 29.300001 10.510454
v -11.555159 0.000000 10.670225
v -10.855159 0.700000 10.510454
v -11.555159 0.000000 -10.670225
v -11.841328 0.000000 -10.075989
v -11.279971 0.700000 -9.628323
v -10.855159 0.700000 -10.510454
v -11.841328 30.000000 10.075989
v -11.279971 29.300001 9.628323
v -11.841328 30.000000 -11.924011
v -12.356985 30.000000 -12.335235
v -12.045456 29.300001 -12.982132
v -11.279971 29.300001 -12.371677
v -11.841328 0.000000 10.075989
v -11.279971 0.700000 9.628323
v -12.356985 30.000000 9.664765
v -13.000000 30.000000 9.518002
v -13.000000 29.300001 8.800000
v -12.045456 29.300001 9.017868
v 16.000000 31.800001 -12.300000
v 16.000000 31.800001 12.300000
v 15.300000 32.500000 12.300000
v 15.300000 32.500000 -12.300000
v -13.000000 0.000000 9.518002
v -12.356985 0.000000 9.664765
v -12.045456 0.700000 9.017868
v -13.000000 0.700000 8.800000
v -11.841328 30.000000 -10.075989
v -11.555159 30.000000 -10.670225
v -10.855159 29.300001 -10.510454
v -11.279971 29.300001 -9.628323
v 16.357210 54.440475 -10.300000
v 16.357210 54.440475 -10.300000
v 16.357210 54.440475 -10.300000
v 16.357212 55.115158 -10.300000
v 16.357212 55.115158 -10.300000
v 16.357212 55.115158 -10.300000
v 15.518037 54.777817 -11.000000
v 15.518037 54.777817 -11.000000
v 15.518037 54.777817 -11.000000
v 15.518037 54.777817 11.000000
v 15.518037 54.777817 11.000000
v 15.518037 54.777817 11.000000
v 16.357212 55.115158 10.300000
v 16.357212 55.115158 10.300000
v 16.357212 55.115158 10.300000
v 16.357210 54.440475 10.300000
v 16.357210 54.440475 10.300000
v 16.357210 54.440475 10.300000
v -16.357210 53.559525 -10.300000
v -16.357210 53.559525 -10.300000
v -16.357210 53.559525 -10.300000
v -16.357212 52.884842 -10.300000
v -16.357212 52.884842 -10.300000
v -16.357212 52.884842 -10.300000
v -15.518037 53.222183 -11.000000
v -15.518037 53.222183 -11.000000
v -15.518037 53.222183 -11.000000
v -15.518037 53.222183 11.000000
v -15.518037 53.222183 11.000000
v -15.518037 53.222183 11.000000
v -16.357212 52.884842 10.300000
v -16.357212 52.884842 10.300000
v -16.357212 52.884842 10.300000
v -16.357210 53.559525 10.300000
v -16.357210 53.559525 10.300000
v -16.357210 53.559525 10.300000
v -15.300000 29.500000 12.300000
v -15.300000 30.199999 13.000000
v -16.000000 30.199999 12.300000
v -15.300000 31.800001 13.000000
v -15.300000 32.500000 12.300000
v -16.000000 31.800001 12.300000
v -13.000000 0.000000 9.518002
v -13.000000 0.700000 8.800000
v -13.000000 30.000000 9.518002
v -13.000000 29.300001 8.800000
v -12.356985 0.000000 9.664765
v -12.045456 0.700000 9.017868
v -12.356985 30.000000 9.664765
v -12.045456 29.300001 9.017868
v -11.841328 0.000000 10.075989
v -11.279971 0.700000 9.628323
v -11.841328 30.000000 10.075989
v -11.279971 29.300001 9.628323
v -11.555159 0.000000 10.670225
v -10.855159 0.700000 10.510454
v -11.555159 30.000000 10.670225
v -10.855159 29.300001 10.510454
v -11.555159 0.000000 11.329775
v -10.855159 0.700000 11.489546
v -11.555159 30.000000 11.329775
v -10.855159 29.300001 11.489546
v -11.841328 0.000000 11.924011
v -11.279971 0.700000 12.371677
v -11.841328 30.000000 11.924011
v -11.279971 29.300001 12.371677
v -12.356985 0.000000 12.335235
v -12.045456 0.700000 12.982132
v -12.356985 30.000000 12.335235
v -12.045456 29.300001 12.982132
v -13.000000 0.000000 12.481998
v -13.000000 0.700000 13.200000
v -13.000000 30.000000 12.481998
v -13.000000 29.300001 13.200000
v -13.643015 0.000000 12.335235
v -13.954544 0.700000 12.982132
v -13.643015 30.000000 12.335235
v -13.954544 29.300001 12.982132
v -14.158672 0.000000 11.924011
v -14.720029 0.700000 12.371677
v -14.158672 30.000000 11.924011
v -14.720029 29.300001 12.371677
v -14.444841 0.000000 11.329775
v -15.144841 0.700000 11.489546
v -14.444841 30.000000 11.329775
v -15.144841 29.300001 11.489546
v -14.444841 0.000000 10.670225
v -15.144841 0.700000 10.510454
v -14.444841 30.000000 10.670225
v -15.144841 29.300001 10.510454
v -14.158672 0.000000 10.075989
v -14.720029 0.700000 9.628323
v -14.158672 30.000000 10.075989
v -14.720029 29.300001 9.628323
v -13.643015 0.000000 9.664765
v -13.954544 0.700000 9.017868
v -13.643015 30.000000 9.664765
v -13.954544 29.300001 9.017868
v -13.000000 0.000000 -12.481998
v -13.000000 0.700000 -13.200000
v -13.000000 30.000000 -12.481998
v -13.000000 29.300001 -13.200000
v -12.356985 0.000000 -12.335235
v -12.045456 0.700000 -12.982132
v -12.356985 30.000000 -12.335235
v -12.045456 29.300001 -12.982132
v -11.841328 0.000000 -11.924011
v -11.279971 0.700000 -12.371677
v -11.841328 30.000000 -11.924011
v -11.279971 29.300001 -12.371677
v -11.555159 0.000000 -11.329775
v -10.855159 0.700000 -11.489546
v -11.555159 30.000000 -11.329775
v -10.855159 29.300001 -11.489546
v -11.555159 0.000000 -10.670225
v -10.855159 0.700000 -10.510454
v -11.555159 30.000000 -10.670225
v -10.855159 29.300001 -10.510454
v -11.841328 0.000000 -10.075989
v -11.279971 0.700000 -9.628323
v -11.841328 30.000000 -10.075989
v -11.279971 29.300001 -9.628323
v -12.356985 0.000000 -9.664765
v -12.045456 0.700000 -9.017868
v -12.356985 30.000000 -9.664765
v -12.045456 29.300001 -9.017868
v -13.000000 0.000000 -9.518002
v -13.000000 0.700000 -8.800000
v -13.000000 30.000000 -9.518002
v -13.000000 29.300001 -8.800000
v -13.643015 0.000000 -9.664765
v -13.954544 0.700000 -9.017868
v -13.643015 30.000000 -9.664765
v -13.954544 29.300001 -9.017868
v -14.158672 0.000000 -10.075989
v -14.720029 0.700000 -9.628323
v -14.158672 30.000000 -10.075989
v -14.720029 29.300001 -9.628323
v -14.444841 0.000000 -10.670225
v -15.144841 0.700000 -10.510454
v -14.444841 30.000000 -10.670225
v -15.144841 29.300001 -10.510454
v -14.444841 0.000000 -11.329775
v -15.144841 0.700000 -11.489546
v -14.444841 30.000000 -11.329775
v -15.144841 29.300001 -11.489546
v -14.158672 0.000000 -11.924011
v -14.720029 0.700000 -12.371677
v -14.158672 30.000000 -11.924011
v -14.720029 29.300001 -12.371677
v -13.643015 0.000000 -12.335235
v -13.954544 0.700000 -12.982132
v -13.643015 30.000000 -12.335235
v -13.954544 29.300001 -12.982132
v 13.000000 0.000000 9.518002
v 13.000000 0.700000 8.800000
v 13.000000 30.000000 9.518002
v 13.000000 29.300001 8.800000
v 13.643015 0.000000 9.664765
v 13.954544 0.700000 9.017868
v 13.643015 30.000000 9.664765
v 13.954544 29.300001 9.017868
v 14.158672 0.000000 10.075989
v 14.720029 0.700000 9.628323
v 14.158672 30.000000 10.075989
v 14.720029 29.300001 9.628323
v 14.444841 0.000000 10.670225
v 15.144841 0.700000 10.510454
v 14.444841 30.000000 10.670225
v 15.144841 29.300001 10.510454
v 14.444841 0.000000 11.329775
v 15.144841 0.700000 11.489546
v 14.444841 30.000000 11.329775
v 15.144841 29.300001 11.489546
v 14.158672 0.000000 11.924011
v 14.720029 0.700000 12.371677
v 14.158672 30.000000 11.924011
v 14.720029 29.300001 12.371677
v 13.643015 0.000000 12.335235
v 13.954544 0.700000 12.982132
v 13.643015 30.000000 12.335235
v 13.954544 29.300001 12.982132
v 13.000000 0.000000 12.481998
v 13.000000 0.700000 13.200000
v 13.000000 30.000000 12.481998
v 13.000000 29.300001 13.200000
v 12.356985 0.000000 12.335235
v 12.045456 0.700000 12.982132
v 12.356985 30.000000 12.335235
v 12.045456 29.300001 12.982132
v 11.841328 0.000000 11.924011
v 11.279971 0.700000 12.371677
v 11.841328 30.000000 11.924011
v 11.279971 29.300001 12.371677
v 11.555159 0.000000 11.329775
v 10.855159 0.700000 11.489546
v 11.555159 30.000000 11.329775
v 10.855159 29.300001 11.489546
v 11.555159 0.000000 10.670225
v 10.855159 0.700000 10.510454
v 11.555159 30.000000 10.670225
v 10.855159 29.300001 10.510454
v 11.841328 0.000000 10.075989
v 11.279971 0.700000 9.628323
v 11.841328 30.000000 10.075989
v 11.279971 29.300001 9.628323
v 12.356985 0.000000 9.664765
v 12.045456 0.700000 9.017868
v 12.356985 30.000000 9.664765
v 12.045456 29.300001 9.017868
v 13.000000 0.000000 -12.481998
v 13.000000 0.700000 -13.200000
v 13.000000 30.000000 -12.481998
v 13.000000 29.300001 -13.200000
v 13.643015 0.000000 -12.335235
v 13.954544 0.700000 -12.982132
v 13.643015 30.000000 -12.335235
v 13.954544 29.300001 -12.982132
v 14.158672 0.000000 -11.924011
v 14.720029 0.700000 -12.371677
v 14.158672 30.000000 -11.924011
v 14.720029 29.300001 -12.371677
v 14.444841 0.000000 -11.329775
v 15.144841 0.700000 -11.489546
v 14.444841 30.000000 -11.329775
v 15.144841 29.300001 -11.489546
v 14.444841 0.000000 -10.670225
v 15.144841 0.700000 -10.510454
v 14.444841 30.000000 -10.670225
v 15.144841 29.300001 -10.510454
v 14.158672 0.000000 -10.075989
v 14.720029 0.700000 -9.628323
v 14.158672 30.000000 -10.075989
v 14.720029 29.300001 -9.628323
v 13.643015 0.000000 -9.664765
v 13.954544 0.700000 -9.017868
v 13.643015 30.000000 -9.664765
v 13.954544 29.300001 -9.017868
v 13.000000 0.000000 -9.518002
v 13.000000 0.700000 -8.800000
v 13.000000 30.000000 -9.518002
v 13.000000 29.300001 -8.800000
v 12.356985 0.000000 -9.664765
v 12.045456 0.700000 -9.017868
v 12.356985 30.000000 -9.664765
v 12.045456 29.300001 -9.017868
v 11.841328 0.000000 -10.075989
v 11.279971 0.700000 -9.628323
v 11.841328 30.000000 -10.075989
v 11.279971 29.300001 -9.628323
v 11.555159 0.000000 -10.670225
v 10.855159 0.700000 -10.510454
v 11.555159 30.000000 -10.670225
v 10.855159 29.300001 -10.510454
v 11.555159 0.000000 -11.329775
v 10.855159 0.700000 -11.489546
v 11.555159 30.000000 -11.329775
v 10.855159 29.300001 -11.489546
v 11.841328 0.000000 -11.924011
v 11.279971 0.700000 -12.371677
v 11.841328 30.000000 -11.924011
v 11.279971 29.300001 -12.371677
v 12.356985 0.000000 -12.335235
v 12.045456 0.700000 -12.982132
v 12.356985 30.000000 -12.335235
v 12.045456 29.300001 -12.982132
v -15.300000 29.500000 -12.300000
v -16.000000 30.199999 -12.300000
v -15.300000 30.199999 -13.000000
v -15.300000 32.500000 -12.300000
v -15.300000 31.800001 -13.000000
v -16.000000 31.800001 -12.300000
v 15.300000 29.500000 12.300000
v 16.000000 30.199999 12.300000
v 15.300000 30.199999 13.000000
v 15.300000 32.500000 12.300000
v 15.300000 31.800001 13.000000
v 16.000000 31.800001 12.300000
v 15.300000 29.500000 -12.300000
v 15.300000 30.199999 -13.000000
v 16.000000 30.199999 -12.300000
v 15.300000 32.500000 -12.300000
v 16.000000 31.800001 -12.300000
v 15.300000 31.800001 -13.000000
v -13.300000 32.000000 10.300000
v -13.300000 32.700001 11.000000
v -14.000000 32.700001 10.300000
v -13.300000 51.299999 11.000000
v -13.300000 52.000000 10.300000
v -14.000000 51.299999 10.300000
v -13.300000 32.000000 -10.300000
v -14.000000 32.700001 -10.300000
v -13.300000 32.700001 -11.000000
v -13.300000 52.000000 -10.300000
v -13.300000 51.299999 -11.000000
v -14.000000 51.299999 -10.300000
v 13.300000 32.000000 10.300000
v 14.000000 32.700001 10.300000
v 13.300000 32.700001 11.000000
v 13.300000 52.000000 10.300000
v 13.300000 51.299999 11.000000
v 14.000000 51.299999 10.300000
v 13.300000 32.000000 -10.300000
v 13.300000 32.700001 -11.000000
v 14.000000 32.700001 -10.300000
v 13.300000 52.000000 -10.300000
v 14.000000 51.299999 -10.300000
v 13.300000 51.299999 -11.000000
v -16.357212 52.884842 10.300000
v -15.518037 53.222183 11.000000
v -16.357210 53.559525 10.300000
v 1.414214 62.534920 11.000000
v 2.027564 62.996468 10.300000
v 0.800864 62.996468 10.300000
v -16.357212 52.884842 -10.300000
v -16.357210 53.559525 -10.300000
v -15.518037 53.222183 -11.000000
v 2.027565 62.996468 -10.300000
v 1.414214 62.534920 -11.000000
v 0.800865 62.996468 -10.300000
v -2.027564 45.003532 10.300000
v -0.800864 45.003532 10.300000
v -1.414214 45.465080 11.000000
v 16.357212 55.115158 10.300000
v 15.518037 54.777817 11.000000
v 16.357210 54.440475 10.300000
v -2.027565 45.003532 -10.300000
v -1.414214 45.465080 -11.000000
v -0.800865 45.003532 -10.300000
v 16.357212 55.115158 -10.300000
v 16.357210 54.440475 -10.300000
v 15.518037 54.777817 -11.000000
v 13.000000 4.000000 0.000000
v 13.700000 4.000000 0.700000
v 13.000000 4.000000 0.000000
v 13.000000 4.000000 0.000000
v 13.700000 4.700000 0.000000
v 23.000000 4.000000 0.000000
v 13.700000 3.300000 0.000000
v 23.000000 4.000000 0.000000
v 23.000000 4.000000 0.000000
v 13.000000 9.000000 0.000000
v 13.700000 4.000000 -0.700000
v 13.000000 4.000000 0.000000
v 22.300001 3.300000 0.000000
v 23.000000 4.000000 0.000000
v 13.000000 9.000000 0.000000
v 13.000000 9.000000 0.000000
v 22.300001 4.000000 0.700000
v 23.000000 9.000000 0.000000
v 23.000000 9.000000 0.000000
v 22.300001 4.000000 -0.700000
v 23.000000 9.000000 0.000000
v 22.300001 4.700000 0.000000
v 13.000000 14.000000 0.000000
v 13.000000 14.000000 0.000000
v 13.000000 14.000000 0.000000
v 13.700000 9.000000 0.700000
v 23.000000 14.000000 0.000000
v 23.000000 14.000000 0.000000
v 13.700000 9.700000 0.000000
v 23.000000 14.000000 0.000000
v 13.700000 8.300000 0.000000
v 13.000000 19.000000 0.000000
v 13.000000 19.000000 0.000000
v 13.000000 19.000000 0.000000
v 13.700000 9.000000 -0.700000
v 13.000000 9.000000 0.000000
v 22.300001 8.300000 0.000000
v 23.000000 9.000000 0.000000
v 23.000000 19.000000 0.000000
v 23.000000 19.000000 0.000000
v 22.300001 9.000000 0.700000
v 23.000000 19.000000 0.000000
v 13.000000 24.000000 0.000000
v 22.300001 9.000000 -0.700000
v 13.000000 24.000000 0.000000
v 22.300001 9.700000 0.000000
v 13.000000 24.000000 0.000000
v 23.000000 24.000000 0.000000
v 23.000000 24.000000 0.000000
v 13.700000 14.000000 0.700000
v 23.000000 24.000000 0.000000
v 13.000000 29.000000 0.000000
v 13.700000 14.700000 0.000000
v 13.000000 29.000000 0.000000
v 13.700000 13.300000 0.000000
v 13.000000 29.000000 0.000000
v 23.000000 29.000000 0.000000
v 23.000000 29.000000 0.000000
v 13.700000 14.000000 -0.700000
v 13.000000 14.000000 0.000000
v 22.300001 13.300000 0.000000
v 23.000000 14.000000 0.000000
v 23.000000 29.000000 0.000000
v 13.700000 9.000000 0.700000
v 22.300001 14.000000 0.700000
v 22.300001 9.000000 0.700000
v 22.300001 14.000000 -0.700000
v 22.300001 14.000000 -0.700000
v 13.700000 14.000000 -0.700000
v 22.300001 14.700000 0.000000
v 22.300001 4.700000 0.000000
v 13.700000 4.700000 0.000000
v 22.300001 4.000000 -0.700000
v 13.700000 19.000000 0.700000
v 13.700000 4.000000 -0.700000
v 13.700000 4.000000 0.700000
v 13.700000 19.700001 0.000000
v 22.300001 4.000000 0.700000
v 13.700000 18.299999 0.000000
v 13.700000 3.300000 0.000000
v 22.300001 3.300000 0.000000
v 13.700000 8.300000 0.000000
v 13.700000 19.000000 -0.700000
v 13.000000 19.000000 0.000000
v 22.300001 18.299999 0.000000
v 23.000000 19.000000 0.000000
v 22.300001 8.300000 0.000000
v 22.300001 9.000000 -0.700000
v 22.300001 19.000000 0.700000
v 13.700000 9.000000 -0.700000
v 13.700000 28.299999 0.000000
v 22.300001 19.000000 -0.700000
v 22.300001 28.299999 0.000000
v 22.300001 19.700001 0.000000
v 22.300001 24.700001 0.000000
v 13.700000 24.700001 0.000000
v 22.300001 24.000000 -0.700000
v 13.700000 24.000000 0.700000
v 13.700000 24.000000 -0.700000
v 13.700000 23.299999 0.000000
v 13.700000 24.700001 0.000000
v 22.300001 23.299999 0.000000
v 13.700000 23.299999 0.000000
v 13.700000 18.299999 0.000000
v 22.300001 18.299999 0.000000
v 13.700000 19.000000 0.700000
v 13.700000 24.000000 -0.700000
v 13.000000 24.000000 0.000000
v 22.300001 23.299999 0.000000
v 23.000000 24.000000 0.000000
v 22.300001 19.000000 0.700000
v 22.300001 19.000000 -0.700000
v 22.300001 24.000000 0.700000
v 13.700000 19.000000 -0.700000
v 22.300001 19.700001 0.000000
v 22.300001 24.000000 -0.700000
v 13.700000 19.700001 0.000000
v 22.300001 24.700001 0.000000
v 22.300001 9.700000 0.000000
v 13.700000 9.700000 0.000000
v 13.700000 13.300000 0.000000
v 13.700000 29.000000 0.700000
v 22.300001 13.300000 0.000000
v 22.300001 29.700001 0.000000
v 13.700000 29.700001 0.000000
v 13.700000 29.700001 0.000000
v 13.700000 28.299999 0.000000
v 13.700000 24.000000 0.700000
v 22.300001 24.000000 0.700000
v 13.700000 29.000000 0.700000
v 13.700000 29.000000 -0.700000
v 13.000000 29.000000 0.000000
v 22.300001 28.299999 0.000000
v 23.000000 29.000000 0.000000
v 22.300001 29.000000 0.700000
v 13.700000 14.000000 0.700000
v 22.300001 29.000000 0.700000
v 22.300001 14.000000 0.700000
v 22.300001 29.000000 -0.700000
v 22.300001 29.000000 -0.700000
v 13.700000 29.000000 -0.700000
v 22.300001 29.700001 0.000000
v 22.300001 14.700000 0.000000
v 13.700000 14.700000 0.000000
v 17.900000 0.000000 4.600000
v 17.900000 0.700000 5.300000
v 17.200001 0.700000 4.600000
v 17.900000 31.300001 5.300000
v 17.900000 32.000000 4.600000
v 17.200001 31.300001 4.600000
v 17.900000 0.000000 4.400000
v 17.200001 0.700000 4.400000
v 17.900000 0.700000 3.700000
v 17.900000 32.000000 4.400000
v 17.900000 31.300001 3.700000
v 17.200001 31.300001 4.400000
v 18.100000 0.000000 4.600000
v 18.799999 0.700000 4.600000
v 18.100000 0.700000 5.300000
v 18.100000 32.000000 4.600000
v 18.100000 31.300001 5.300000
v 18.799999 31.300001 4.600000
v 18.100000 0.000000 4.400000
v 18.100000 0.700000 3.700000
v 18.799999 0.700000 4.400000
v 18.100000 32.000000 4.400000
v 18.799999 31.300001 4.400000
v 18.100000 31.300001 3.700000
v 17.900000 0.000000 -4.400000
v 17.900000 0.700000 -3.700000
v 17.200001 0.700000 -4.400000
v 17.900000 31.300001 -3.700000
v 17.900000 32.000000 -4.400000
v 17.200001 31.300001 -4.400000
v 17.900000 0.000000 -4.600000
v 17.200001 0.700000 -4.600000
v 17.900000 0.700000 -5.300000
v 17.900000 32.000000 -4.600000
v 17.900000 31.300001 -5.300000
v 17.200001 31.300001 -4.600000
v 18.100000 0.000000 -4.400000
v 18.799999 0.700000 -4.400000
v 18.100000 0.700000 -3.700000
v 18.100000 32.000000 -4.400000
v 18.100000 31.300001 -3.700000
v 18.799999 31.300001 -4.400000
v 18.100000 0.000000 -4.600000
v 18.100000 0.700000 -5.300000
v 18.799999 0.700000 -4.600000
v 18.100000 32.000000 -4.600000
v 18.799999 31.300001 -4.600000
v 18.100000 31.300001 -5.300000
v 13.954544 0.700000 12.982132
v 13.643015 0.000000 12.335235
v 15.144841 29.300001 -11.489546
v 14.444841 30.000000 -11.329775
v 13.954544 29.300001 12.982132
v 13.643015 30.000000 12.335235
v 13.000000 0.700000 13.200000
v 13.000000 0.000000 12.481998
v 15.300000 30.199999 13.000000
v 16.000000 30.199999 12.300000
v 13.000000 29.300001 13.200000
v 13.000000 30.000000 12.481998
v 13.000000 29.300001 -13.200000
v 13.000000 30.000000 -12.481998
v 12.045456 0.700000 12.982132
v 12.356985 0.000000 12.335235
v 15.144841 0.700000 -11.489546
v 14.444841 0.000000 -11.329775
v 12.045456 29.300001 12.982132
v 12.356985 30.000000 12.335235
v -13.300000 32.000000 -10.300000
v -14.000000 32.700001 10.300000
v -14.000000 32.700001 -10.300000
v 11.279971 0.700000 12.371677
v 11.841328 0.000000 11.924011
v 13.300000 52.000000 10.300000
v -13.300000 52.000000 10.300000
v -13.300000 51.299999 11.000000
v 13.300000 51.299999 11.000000
v 11.279971 29.300001 12.371677
v 11.841328 30.000000 11.924011
v -14.000000 51.299999 10.300000
v 10.855159 0.700000 11.489546
v 11.555159 0.000000 11.329775
v 10.855159 29.300001 11.489546
v 11.555159 30.000000 11.329775
v 13.000000 0.700000 -13.200000
v 13.000000 0.000000 -12.481998
v 10.855159 0.700000 10.510454
v 11.555159 0.000000 10.670225
v 10.855159 29.300001 10.510454
v 11.555159 30.000000 10.670225
v 11.279971 0.700000 9.628323
v 11.841328 0.000000 10.075989
v -15.300000 29.500000 12.300000
v 15.300000 29.500000 12.300000
v -15.300000 30.199999 13.000000
v 11.279971 29.300001 9.628323
v 11.841328 30.000000 10.075989
v 1.414214 62.534920 -11.000000
v 12.045456 0.700000 9.017868
v 12.356985 0.000000 9.664765
v 12.045456 29.300001 9.017868
v 12.356985 30.000000 9.664765
v 14.000000 32.700001 10.300000
v 14.000000 51.299999 10.300000
v 13.954544 0.700000 -9.017868
v 13.643015 0.000000 -9.664765
v 15.300000 29.500000 -12.300000
v 16.000000 30.199999 -12.300000
v 13.954544 29.300001 -9.017868
v 13.643015 30.000000 -9.664765
v 13.300000 52.000000 -10.300000
v 14.000000 51.299999 -10.300000
v 13.000000 0.700000 -8.800000
v 13.000000 0.000000 -9.518002
v 15.300000 30.199999 -13.000000
v 15.300000 31.800001 -13.000000
v 13.000000 29.300001 -8.800000
v 13.000000 30.000000 -9.518002
v 13.300000 32.000000 -10.300000
v 14.000000 32.700001 -10.300000
v 12.045456 0.700000 -9.017868
v 12.356985 0.000000 -9.664765
v -15.300000 32.500000 -12.300000
v -15.300000 31.800001 -13.000000
v 12.045456 29.300001 -9.017868
v 12.356985 30.000000 -9.664765
v 13.300000 32.700001 -11.000000
v 13.300000 51.299999 -11.000000
v 11.279971 0.700000 -9.628323
v 11.841328 0.000000 -10.075989
v -15.300000 29.500000 -12.300000
v -15.300000 30.199999 -13.000000
v 11.279971 29.300001 -9.628323
v 11.841328 30.000000 -10.075989
v -13.300000 52.000000 -10.300000
v -13.300000 51.299999 -11.000000
v 10.855159 0.700000 -10.510454
v 11.555159 0.000000 -10.670225
v -16.000000 30.199999 -12.300000
v -16.000000 31.800001 -12.300000
v 10.855159 29.300001 -10.510454
v 11.555159 30.000000 -10.670225
v -13.300000 32.700001 -11.000000
v 10.855159 0.700000 -11.489546
v 11.555159 0.000000 -11.329775
v -16.000000 31.800001 12.300000
v 10.855159 29.300001 -11.489546
v 11.555159 30.000000 -11.329775
v -14.000000 51.299999 -10.300000
v 11.279971 0.700000 -12.371677
v 11.841328 0.000000 -11.924011
v -16.000000 30.199999 12.300000
v 11.279971 29.300001 -12.371677
v 11.841328 30.000000 -11.924011
v 12.045456 0.700000 -12.982132
v 12.356985 0.000000 -12.335235
v 12.045456 29.300001 -12.982132
v 12.356985 30.000000 -12.335235
v -1.414214 45.465080 -11.000000
v -1.414214 45.465080 11.000000
v 17.900000 0.000000 4.400000
v 17.900000 0.000000 4.600000
v 17.200001 0.700000 4.600000
v 17.200001 0.700000 4.400000
v 17.900000 0.700000 5.300000
v 17.900000 31.300001 5.300000
v 17.200001 31.300001 4.600000
v 17.900000 32.000000 4.600000
v 17.900000 32.000000 4.400000
v 17.200001 31.300001 4.400000
v 17.900000 31.300001 3.700000
v 17.900000 0.700000 3.700000
v 18.100000 0.000000 4.400000
v 18.100000 0.700000 3.700000
v 18.100000 32.000000 4.400000
v 18.100000 31.300001 3.700000
v 18.799999 31.300001 4.400000
v 18.799999 0.700000 4.400000
v 18.100000 0.000000 4.600000
v 18.799999 0.700000 4.600000
v 18.100000 32.000000 4.600000
v 18.799999 31.300001 4.600000
v 18.100000 31.300001 5.300000
v 18.100000 0.700000 5.300000
v 17.900000 0.000000 -4.600000
v 17.900000 0.000000 -4.400000
v 17.200001 0.700000 -4.400000
v 17.200001 0.700000 -4.600000
v 17.900000 0.700000 -3.700000
v 17.900000 31.300001 -3.700000
v 17.200001 31.300001 -4.400000
v 17.900000 32.000000 -4.400000
v 17.900000 32.000000 -4.600000
v 17.200001 31.300001 -4.600000
v 17.900000 31.300001 -5.300000
v 17.900000 0.700000 -5.300000
v 18.100000 0.000000 -4.600000
v 18.100000 0.700000 -5.300000
v 18.100000 32.000000 -4.600000
v 18.100000 31.300001 -5.300000
v 18.799999 31.300001 -4.600000
v 18.799999 0.700000 -4.600000
v 18.100000 0.000000 -4.400000
v 18.799999 0.700000 -4.400000
v 18.100000 32.000000 -4.400000
v 18.799999 31.300001 -4.400000
v 18.100000 31.300001 -3.700000
v 18.100000 0.700000 -3.700000
vn -0.3029 0.7160 -0.6289
vn -0.3029 -0.7160 -0.6289
vn -0.5458 0.7160 -0.4352
vn 0.6806 -0.7160 0.1553
vn 0.5458 -0.7160 0.4352
vn -0.5458 -0.7160 -0.4352
vn -0.6806 0.7160 -0.1553
vn -0.6806 -0.7160 -0.1553
vn -0.0000 -0.7160 -0.6981
vn -0.6806 0.7160 0.1553
vn -0.6806 -0.7160 0.1553
vn -0.5458 0.7160 0.4352
vn 0.3029 -0.7160 -0.6289
vn 0.5458 -0.7160 -0.4352
vn -0.5458 -0.7160 0.4352
vn 0.5458 0.7160 0.4352
vn 0.6806 0.7160 0.1553
vn -0.3029 0.7160 0.6289
vn 0.6806 -0.7160 -0.1553
vn -0.3029 -0.7160 0.6289
vn -0.0000 0.7160 -0.6981
vn -0.0000 0.7160 0.6981
vn -0.4606 -0.4606 0.7588
vn 0.4606 -0.4606 0.7588
vn 0.4606 -0.7588 0.4606
vn -0.4606 -0.7588 0.4606
vn -0.0000 -0.7160 0.6981
vn 0.3029 0.7160 0.6289
vn 0.6806 0.7160 -0.1553
vn 0.3029 -0.7160 0.6289
vn 0.4606 0.4606 0.7588
vn -0.4606 0.4606 0.7588
vn -0.4606 0.7588 0.4606
vn -0.0000 0.7260 0.6877
vn 0.5458 0.7160 -0.4352
vn 0.3029 0.7160 -0.6289
vn 0.7588 0.4606 -0.4606
vn 0.7588 0.4606 0.4606
vn 0.4606 0.7588 0.4606
vn 0.4606 0.7588 -0.4606
vn 1.0000 -0.0000 -0.0000
vn 0.3408 -0.6196 -0.7071
vn 0.6406 -0.0000 -0.7679
vn 0.3408 0.6196 -0.7071
vn 0.3408 0.6196 0.7071
vn 0.3408 -0.6196 0.7071
vn 0.6406 -0.0000 0.7679
vn -0.3408 0.6196 -0.7071
vn -1.0000 -0.0000 -0.0000
vn -0.6406 -0.0000 -0.7679
vn -0.3408 -0.6196 -0.7071
vn -0.3408 -0.6196 0.7071
vn -0.3408 0.6196 0.7071
vn -0.6406 -0.0000 0.7679
vn -0.0000 -1.0000 -0.0000
vn -0.0000 -0.0000 1.0000
vn -0.0000 1.0000 -0.0000
vn -0.0000 -0.0000 -1.0000
vn 0.4339 -0.0000 -0.9010
vn 0.7818 -0.0000 -0.6235
vn 0.9749 -0.0000 -0.2225
vn 0.9749 -0.0000 0.2225
vn 0.7818 -0.0000 0.6235
vn 0.4339 -0.0000 0.9010
vn -0.4339 -0.0000 0.9010
vn -0.7818 -0.0000 0.6235
vn -0.9749 -0.0000 0.2225
vn -0.9749 -0.0000 -0.2225
vn -0.7818 -0.0000 -0.6235
vn -0.4339 -0.0000 -0.9010
vn -0.4819 -0.8762 -0.0000
vn -0.4819 0.8762 -0.0000
vn 0.2580 0.9040 0.3408
vn -0.2580 0.9040 0.3408
vn 0.2580 0.9040 -0.3408
vn -0.2580 0.9040 -0.3408
vn -0.2580 -0.9040 0.3408
vn 0.2580 -0.9040 0.3408
vn 0.4819 0.8762 -0.0000
vn 0.4819 -0.8762 -0.0000
vn -0.2580 -0.9040 -0.3408
vn 0.2580 -0.9040 -0.3408
vn -0.5774 0.5774 0.5774
vn -0.2418 0.6861 0.6861
vn -0.5774 -0.5774 0.5773
vn -0.5774 -0.5774 -0.5773
vn -0.2418 0.6861 -0.6861
vn 0.5773 -0.5773 -0.5774
vn -0.2418 -0.6861 -0.6861
vn 0.5774 0.5773 0.5774
vn 0.5773 -0.5773 0.5774
vn -0.5774 0.5773 0.5773
vn -0.5774 0.5774 -0.5774
vn 0.2418 -0.6861 -0.6861
vn 0.5774 0.5773 -0.5774
vn -0.5774 -0.5774 0.5774
vn -0.5774 -0.5774 -0.5774
vn 0.2418 0.6861 0.6861
vn 0.5774 -0.5773 -0.5774
vn 0.2418 0.6861 -0.6861
vn 0.5774 -0.5773 0.5774
vn -0.5774 -0.5773 0.5773
vn -0.5774 -0.5773 -0.5773
vn 0.5774 -0.5773 -0.5773
vn 0.5774 -0.5773 0.5773
vn -0.5774 0.5773 -0.5773
vn 0.5773 0.5773 0.5774
vn -0.5773 -0.5774 0.5774
vn -0.5773 -0.5774 -0.5774
vn -0.2418 -0.6861 0.6861
vn 0.2418 -0.6861 0.6861
vn 0.5773 0.5773 -0.5774
vn 0.7588 -0.4606 0.4606
vn -0.4606 -0.7588 -0.4606
vn -0.7588 -0.4606 0.4606
vn -0.7588 -0.4606 -0.4606
vn -0.7588 0.4606 0.4606
vn -0.0000 0.7260 -0.6877
vn 0.4606 -0.7588 -0.4606
vn 0.7588 -0.4606 -0.4606
vn 0.4606 -0.4606 -0.7588
vn 0.4606 0.4606 -0.7588
vn -0.4606 0.7588 -0.4606
vn -0.4606 0.4606 -0.7588
vn -0.4606 -0.4606 -0.7588
vn -0.7588 0.4606 -0.4606
vn -0.0000 -0.7260 -0.6877
vn -0.0000 -0.7260 0.6877
vt -0.765000 -0.615000
vt -0.765000 -0.650000
vt -0.800000 -0.615000
vt -0.765000 0.615000
vt -0.800000 0.615000
vt -0.765000 0.650000
vt 0.765000 -0.615000
vt 0.800000 -0.615000
vt 0.765000 -0.650000
vt 0.765000 0.615000
vt 0.765000 0.650000
vt 0.800000 0.615000
vt -0.515000 1.600000
vt -0.550000 1.635000
vt -0.515000 1.635000
vt -0.550000 2.565000
vt -0.515000 2.600000
vt -0.515000 2.565000
vt 0.515000 1.600000
vt 0.515000 1.635000
vt 0.550000 1.635000
vt 0.515000 2.600000
vt 0.550000 2.565000
vt 0.515000 2.565000
vt -0.817861 2.644242
vt -0.775902 2.661109
vt -0.817860 2.677976
vt 0.070711 -0.550000
vt 0.101378 -0.515000
vt 0.040043 -0.515000
vt 0.101378 0.515000
vt 0.070711 0.550000
vt 0.040043 0.515000
vt -0.101378 -0.515000
vt -0.040043 -0.515000
vt -0.070711 -0.550000
vt 0.817861 2.755758
vt 0.775902 2.738891
vt 0.817860 2.722024
vt -0.101378 0.515000
vt -0.070711 0.550000
vt -0.040043 0.515000
vt 0.000000 0.165000
vt -0.035000 0.200000
vt 0.000000 0.200000
vt 0.685000 -0.035000
vt 0.685000 0.000000
vt 0.650000 0.000000
vt 0.035000 0.200000
vt 0.685000 0.035000
vt 0.000000 0.235000
vt 0.000000 0.415000
vt 0.000000 0.450000
vt -0.035000 0.450000
vt 0.000000 0.485000
vt 0.035000 0.450000
vt 0.000000 0.665000
vt 0.000000 0.700000
vt -0.035000 0.700000
vt 0.000000 0.735000
vt 0.035000 0.700000
vt 0.000000 0.915000
vt -0.035000 0.950000
vt 0.000000 0.950000
vt 0.000000 0.985000
vt 0.035000 0.950000
vt 0.000000 1.165000
vt -0.035000 1.200000
vt 0.000000 1.200000
vt 0.000000 1.235000
vt 0.035000 1.200000
vt 0.000000 1.415000
vt -0.035000 1.450000
vt 0.000000 1.450000
vt 0.000000 1.485000
vt 0.035000 1.450000
vt -0.230000 0.000000
vt -0.265000 0.035000
vt -0.230000 0.035000
vt 0.895000 -0.265000
vt 0.895000 -0.230000
vt 0.860000 -0.230000
vt -0.220000 0.000000
vt -0.220000 0.035000
vt -0.185000 0.035000
vt 0.895000 -0.220000
vt 0.895000 -0.185000
vt 0.860000 -0.220000
vt 0.905000 -0.230000
vt 0.905000 -0.265000
vt 0.940000 -0.230000
vt 0.905000 -0.220000
vt 0.940000 -0.220000
vt 0.905000 -0.185000
vt 0.220000 0.000000
vt 0.185000 0.035000
vt 0.220000 0.035000
vt 0.895000 0.185000
vt 0.895000 0.220000
vt 0.860000 0.220000
vt 0.230000 0.000000
vt 0.230000 0.035000
vt 0.265000 0.035000
vt 0.895000 0.230000
vt 0.895000 0.265000
vt 0.860000 0.230000
vt 0.905000 0.220000
vt 0.905000 0.185000
vt 0.940000 0.220000
vt 0.905000 0.230000
vt 0.940000 0.230000
vt 0.905000 0.265000
vt -0.563999 0.481416
vt -0.577758 0.533511
vt -0.592066 0.503799
vt -0.650000 -0.440000
vt -0.617849 -0.483238
vt -0.650000 -0.475900
vt -0.602273 -0.450893
vt -0.563999 -0.481416
vt -0.602273 0.649107
vt -0.592066 0.596201
vt -0.563999 0.618584
vt -0.592066 -0.503799
vt -0.542758 0.525523
vt -0.577758 -0.533511
vt -0.542758 -0.525523
vt 0.736001 0.618584
vt 0.682151 0.616762
vt 0.707934 0.596201
vt -0.542758 -0.574477
vt -0.617849 0.616762
vt -0.577758 -0.566489
vt -0.563999 -0.618584
vt 0.697727 -0.450893
vt 0.707934 -0.503799
vt 0.736001 -0.481416
vt -0.592066 -0.596201
vt -0.542758 0.574477
vt -0.617849 -0.616762
vt -0.602273 -0.649107
vt 0.040043 3.149823
vt -0.650000 -0.660000
vt -0.650000 -0.624100
vt -0.577758 0.566489
vt -0.682151 -0.616762
vt -0.650000 0.660000
vt -0.697727 -0.649107
vt 0.682151 -0.483238
vt -0.736001 -0.618584
vt 0.757242 -0.574477
vt 0.707934 -0.596201
vt 0.736001 -0.618584
vt -0.707934 -0.596201
vt -0.722242 -0.566489
vt -0.757242 -0.574477
vt -0.757242 -0.525523
vt -0.650000 0.624100
vt -0.722242 -0.533511
vt 0.722242 -0.566489
vt -0.736001 -0.481416
vt -0.707934 -0.503799
vt -0.682151 -0.483238
vt -0.697727 -0.450893
vt -0.617849 0.483238
vt 0.757242 -0.525523
vt -0.602273 0.450893
vt -0.650000 0.440000
vt 0.665000 1.600000
vt -0.665000 1.635000
vt -0.665000 1.600000
vt -0.650000 0.475900
vt 0.650000 -0.440000
vt -0.682151 0.483238
vt 0.722242 -0.533511
vt -0.697727 0.450893
vt 0.736001 0.481416
vt 0.722242 0.533511
vt 0.707934 0.503799
vt -0.736001 0.481416
vt 0.697727 0.649107
vt -0.707934 0.503799
vt -0.722242 0.533511
vt -0.757242 0.525523
vt 0.650000 -0.475900
vt -0.757242 0.574477
vt -0.722242 0.566489
vt -0.736001 0.618584
vt 0.757242 0.525523
vt -0.707934 0.596201
vt -0.515000 2.644242
vt 0.515000 2.677976
vt 0.515000 2.644242
vt -0.682151 0.616762
vt -0.697727 0.649107
vt 0.682151 -0.616762
vt 0.757242 0.574477
vt 0.697727 -0.649107
vt 0.650000 -0.660000
vt -0.650000 1.510000
vt -0.615000 1.590000
vt -0.650000 1.590000
vt 0.650000 -0.624100
vt 0.650000 0.660000
vt 0.617849 -0.616762
vt 0.722242 0.566489
vt 0.602273 -0.649107
vt 0.563999 -0.618584
vt -0.665000 2.600000
vt 0.665000 2.565000
vt 0.665000 2.600000
vt 0.592066 -0.596201
vt 0.577758 -0.566489
vt 0.542758 -0.574477
vt 0.650000 0.624100
vt 0.542758 -0.525523
vt 0.577758 -0.533511
vt 0.563999 -0.481416
vt 0.592066 -0.503799
vt 0.040043 3.149823
vt 0.070711 3.126746
vt 0.617849 -0.483238
vt 0.602273 -0.450893
vt 0.682151 0.483238
vt 0.697727 0.450893
vt 0.650000 0.440000
vt 0.615000 1.510000
vt 0.650000 1.590000
vt 0.615000 1.590000
vt 0.650000 0.475900
vt 0.617849 0.483238
vt 0.602273 0.450893
vt 0.563999 0.481416
vt 0.592066 0.503799
vt -0.665000 2.565000
vt 0.577758 0.533511
vt 0.650000 1.510000
vt 0.542758 0.525523
vt 0.665000 1.635000
vt 0.542758 0.574477
vt 0.577758 0.566489
vt 0.563999 0.618584
vt -0.615000 1.510000
vt 0.592066 0.596201
vt 0.617849 0.616762
vt 0.602273 0.649107
vt -0.101378 2.250177
vt -0.070711 2.273254
vt 0.101378 3.149823
vt -0.040043 2.250177
vt -0.515000 2.755758
vt 0.515000 2.722024
vt 0.515000 2.755758
vt -0.040043 2.250177
vt -0.101378 2.250177
vt 0.101378 3.149823
vt 0.685000 0.165000
vt 1.115000 0.200000
vt 1.115000 0.165000
vt 1.115000 0.000000
vt 0.685000 0.200000
vt 1.115000 -0.035000
vt 1.115000 0.035000
vt 0.685000 0.915000
vt 1.115000 0.950000
vt 1.115000 0.915000
vt 1.115000 0.985000
vt 0.685000 0.950000
vt 0.685000 0.985000
vt 0.685000 1.165000
vt 1.115000 1.200000
vt 1.115000 1.165000
vt 1.115000 1.235000
vt 0.685000 1.200000
vt 0.685000 1.235000
vt 0.685000 1.415000
vt 1.115000 1.450000
vt 1.115000 1.415000
vt 1.115000 1.485000
vt 0.685000 1.450000
vt 0.685000 1.485000
vt -0.265000 1.565000
vt -0.220000 1.565000
vt -0.185000 1.565000
vt 0.895000 0.000000
vt 0.905000 0.035000
vt 0.905000 0.000000
vt -0.230000 1.565000
vt 0.185000 1.565000
vt 0.230000 1.565000
vt 0.265000 1.565000
vt 0.220000 1.565000
vt 0.895000 0.035000
vt 0.765000 1.590000
vt -0.765000 1.510000
vt 0.765000 1.510000
vt -0.650000 1.465000
vt -0.602273 0.035000
vt -0.650000 0.035000
vt -0.697727 1.465000
vt -0.697727 0.035000
vt -0.602273 1.465000
vt -0.563999 0.035000
vt -0.481416 1.465000
vt -0.525523 0.035000
vt -0.481416 0.035000
vt -0.525523 1.465000
vt -0.574477 0.035000
vt -0.574477 1.465000
vt -0.618584 0.035000
vt -0.563999 1.465000
vt -0.736001 0.035000
vt -0.618584 1.465000
vt -0.574477 0.035000
vt -0.525523 0.035000
vt -0.736001 1.465000
vt 0.618584 1.465000
vt 0.574477 0.035000
vt 0.618584 0.035000
vt 0.574477 1.465000
vt 0.525523 0.035000
vt 0.525523 1.465000
vt 0.481416 0.035000
vt 0.481416 1.465000
vt 0.525523 0.035000
vt 0.574477 0.035000
vt 0.650000 1.465000
vt 0.697727 0.035000
vt 0.650000 0.035000
vt 0.602273 1.465000
vt 0.602273 0.035000
vt 0.697727 1.465000
vt 0.736001 0.035000
vt 0.736001 1.465000
vt 0.563999 0.035000
vt 0.563999 1.465000
vt -0.765000 1.590000
vt 0.665000 0.515000
vt -0.665000 -0.515000
vt -0.665000 0.515000
vt 0.665000 -0.515000
vt -0.817861 -0.515000
vt -0.817861 0.515000
vt -0.817860 0.515000
vt -0.817860 -0.515000
vt 0.817861 -0.515000
vt 0.817861 0.515000
vt 0.817860 0.515000
vt 0.905000 1.565000
vt 0.895000 1.565000
vt -0.515000 2.677976
vt -0.515000 2.722024
vt 0.817860 -0.515000
s 1
f 733/1/26 735/2/23 792/3/115
f 60/2/32 61/1/33 786/3/117
f 771/4/114 779/5/116 772/6/125
f 763/4/123 764/6/124 780/5/126
f 734/7/25 698/8/113 697/9/24
f 155/7/39 59/9/31 154/8/38
f 747/10/119 755/11/121 748/12/120
f 156/10/40 153/12/37 756/11/122
f 48/13/26 45/14/23 710/15/115
f 716/16/32 715/17/33 720/18/117
f 709/19/114 711/20/116 783/21/125
f 775/22/123 776/23/124 789/24/126
f 47/13/25 743/15/113 46/14/24
f 714/17/39 717/16/31 744/18/38
f 759/19/119 767/21/121 760/20/120
f 751/22/40 752/24/37 768/23/122
f 197/25/54 194/26/54 200/27/54
f 106/28/34 477/29/73 478/30/74
f 188/25/50 185/27/50 191/26/50
f 482/31/75 738/32/118 484/33/76
f 485/34/77 486/35/78 800/36/128
f 179/37/47 176/38/47 182/39/47
f 491/40/81 799/41/127 493/42/82
f 170/37/43 167/39/43 173/38/43
f 576/43/110 572/44/110 499/45/85
f 498/46/84 568/47/84 497/48/83
f 503/43/89 500/45/86 571/49/89
f 501/47/87 507/50/87 508/48/93
f 577/43/111 505/45/91 574/44/111
f 567/51/98 513/44/98 504/45/90
f 509/43/94 569/49/94 502/45/88
f 518/51/100 510/45/95 516/49/100
f 578/47/110 560/46/110 511/48/96
f 522/46/84 616/47/84 506/48/92
f 527/47/89 512/48/97 586/50/89
f 525/47/87 531/50/87 532/48/106
f 583/52/111 517/53/101 562/54/111
f 615/55/98 537/54/98 515/53/90
f 533/52/94 584/56/94 514/53/99
f 542/55/100 534/53/95 540/56/100
f 617/47/110 632/46/110 520/48/102
f 546/46/84 640/47/84 519/48/83
f 551/47/89 521/48/103 565/50/89
f 549/47/87 555/50/87 556/48/93
f 619/57/111 526/58/105 634/59/111
f 639/60/98 561/59/98 524/58/90
f 557/57/94 563/61/94 523/58/104
f 566/60/100 558/58/95 564/61/100
f 600/62/110 602/63/110 529/64/102
f 570/63/84 613/65/84 528/64/83
f 575/62/89 530/64/103 610/66/89
f 573/65/87 579/66/87 580/64/93
f 601/62/111 538/64/101 607/63/111
f 611/65/98 585/63/98 536/64/107
f 581/62/94 608/66/94 535/64/99
f 590/65/100 582/64/112 588/66/100
f 596/67/110 624/68/110 541/69/108
f 594/68/84 592/70/84 539/69/92
f 599/67/89 543/69/109 595/71/89
f 597/70/87 603/71/87 604/69/106
f 598/67/111 547/69/91 625/68/111
f 591/70/98 609/68/98 545/69/90
f 605/67/94 593/71/94 544/69/88
f 614/70/100 606/69/95 612/71/100
f 587/72/110 626/73/110 550/74/108
f 618/73/84 622/75/84 548/74/92
f 623/72/89 552/74/109 637/76/89
f 621/75/87 627/76/87 628/74/106
f 589/72/111 559/74/91 631/73/111
f 620/75/98 633/73/98 554/74/90
f 629/72/94 635/76/94 553/74/88
f 638/75/100 630/74/95 636/76/100
f 802/77/26 805/78/23 803/79/115
f 806/80/32 808/81/33 807/82/117
f 801/83/114 804/84/116 812/85/125
f 809/86/123 811/87/124 810/88/126
f 819/77/25 820/79/113 824/78/24
f 821/89/39 823/90/31 822/91/38
f 813/83/119 814/85/121 818/84/120
f 815/92/40 817/93/37 816/94/122
f 826/95/26 829/96/23 827/97/115
f 830/98/32 832/99/33 831/100/117
f 825/101/114 828/102/116 836/103/125
f 833/104/123 835/105/124 834/106/126
f 843/95/25 844/97/113 848/96/24
f 845/107/39 847/108/31 846/109/38
f 837/101/119 838/103/121 842/102/120
f 839/110/40 841/111/37 840/112/122
f 164/113/16 162/114/17 161/115/16
f 160/116/9 158/117/13 157/118/9
f 155/7/39 153/12/37 156/10/40
f 151/116/21 149/117/36 152/119/36
f 148/120/14 158/117/13 159/119/13
f 145/121/36 143/122/35 146/123/35
f 142/120/35 149/117/36 141/124/35
f 139/113/5 137/114/4 140/125/4
f 148/120/14 135/126/19 147/124/14
f 142/120/35 133/126/29 134/127/29
f 132/128/35 130/129/36 129/130/35
f 128/131/4 135/126/19 136/127/19
f 125/123/14 123/132/13 126/121/13
f 134/127/29 121/133/17 122/131/17
f 120/134/5 127/133/4 128/131/4
f 117/135/36 115/136/35 118/137/35
f 114/134/16 121/133/17 113/138/16
f 112/139/29 162/114/17 163/125/17
f 120/134/5 109/140/30 119/138/5
f 114/134/16 107/140/28 108/141/28
f 193/26/53 478/142/74 199/27/53
f 105/143/27 109/140/30 110/141/30
f 108/141/28 102/144/22 103/143/22
f 140/125/4 100/145/19 101/139/19
f 105/143/27 98/146/20 104/144/27
f 97/147/21 144/132/36 145/121/36
f 103/143/22 94/146/18 95/148/18
f 92/137/14 90/149/13 93/135/13
f 89/150/15 98/146/20 99/148/20
f 86/151/17 84/152/16 87/153/16
f 83/150/12 94/146/18 82/154/12
f 89/150/15 80/155/11 88/154/15
f 79/156/10 82/154/12 78/155/10
f 146/123/35 111/145/29 112/139/29
f 77/157/8 80/155/11 81/156/11
f 75/147/9 123/132/13 74/158/9
f 79/156/10 72/159/7 73/157/7
f 70/153/5 68/160/4 71/151/4
f 67/161/6 76/159/8 77/157/8
f 65/161/3 72/159/7 64/162/3
f 125/123/14 100/145/19 124/122/14
f 67/161/6 62/163/2 66/162/6
f 61/1/33 59/9/31 155/7/39
f 65/161/3 57/163/1 58/164/1
f 160/116/9 62/163/2 63/164/2
f 151/116/21 57/163/1 150/118/21
f 139/113/5 55/165/30 138/115/5
f 54/166/29 85/160/17 86/151/17
f 164/113/16 51/165/28 52/167/28
f 50/168/27 55/165/30 56/167/30
f 47/169/25 45/170/23 48/171/26
f 52/167/28 43/172/22 44/168/22
f 42/173/21 116/149/36 117/135/36
f 50/168/27 39/174/20 49/172/27
f 71/151/4 37/175/19 38/166/19
f 44/168/22 35/174/18 36/176/18
f 34/177/16 32/178/17 31/179/16
f 30/180/15 39/174/20 40/176/20
f 27/128/14 25/129/13 28/181/13
f 36/176/18 23/182/12 24/180/12
f 30/180/15 21/183/11 29/182/15
f 24/180/12 19/183/10 20/184/10
f 18/173/9 90/149/13 17/185/9
f 16/186/8 21/183/11 22/184/11
f 118/137/35 53/175/29 54/166/29
f 20/184/10 13/187/7 14/186/7
f 12/188/6 15/187/8 16/186/8
f 9/177/5 7/178/4 10/189/4
f 14/186/7 5/190/3 6/188/3
f 196/191/49 184/192/49 187/193/49
f 12/188/6 3/194/2 11/190/6
f 92/137/14 37/175/19 91/136/14
f 6/188/3 1/194/1 2/195/1
f 75/147/9 3/194/2 4/195/2
f 2/195/1 96/158/21 97/147/21
f 70/153/5 690/196/30 69/152/5
f 691/197/29 32/178/17 33/189/17
f 87/153/16 694/196/28 693/198/28
f 695/199/27 690/196/30 689/198/30
f 697/200/24 154/201/38 59/202/31
f 693/198/28 700/203/22 699/199/22
f 701/204/21 130/129/36 131/181/36
f 695/199/27 704/205/20 696/203/27
f 10/189/4 706/206/19 705/197/19
f 699/199/22 708/205/18 707/207/18
f 48/13/26 711/20/116 709/19/114
f 712/208/15 704/205/20 703/207/20
f 715/209/33 717/210/31 714/211/39
f 707/207/18 719/212/12 718/208/12
f 716/16/32 710/15/115 45/14/23
f 712/208/15 722/213/11 713/212/15
f 718/208/12 724/213/10 723/214/10
f 725/204/9 25/129/13 726/215/9
f 727/216/8 722/213/11 721/214/11
f 691/197/29 129/130/35 692/206/29
f 723/214/10 730/217/7 729/216/7
f 482/31/75 478/30/74 477/29/73
f 731/218/6 728/217/8 727/216/8
f 734/7/25 735/2/23 733/1/26
f 736/218/3 730/217/7 737/219/3
f 190/26/48 484/220/76 738/221/118
f 731/218/6 740/222/2 732/219/6
f 27/128/14 706/206/19 26/130/14
f 736/218/3 742/222/1 741/223/1
f 18/173/9 740/222/2 739/223/2
f 741/223/1 41/185/21 42/173/21
f 46/14/24 744/18/38 717/16/31
f 9/177/5 746/224/30 8/179/5
f 747/10/119 698/8/113 734/7/25
f 34/177/16 750/224/28 749/225/28
f 714/17/39 752/24/37 751/22/40
f 753/226/27 746/224/30 745/225/30
f 748/227/120 756/228/122 153/229/37
f 757/226/22 750/224/28 758/230/22
f 759/19/119 743/15/113 47/13/25
f 753/226/27 762/231/20 754/230/27
f 156/10/40 764/6/124 763/4/123
f 757/226/22 766/231/18 765/232/18
f 760/20/120 768/23/122 752/24/37
f 769/233/15 762/231/20 761/232/20
f 771/4/114 755/11/121 747/10/119
f 773/233/12 766/231/18 774/234/12
f 751/211/40 776/235/124 775/209/123
f 769/233/15 778/236/11 770/234/15
f 772/237/125 780/229/126 764/228/124
f 773/233/12 782/236/10 781/238/10
f 709/171/114 767/239/121 759/169/119
f 784/240/8 778/236/11 777/238/11
f 763/4/123 786/3/117 61/1/33
f 781/238/10 788/241/7 787/240/7
f 783/21/125 789/24/126 776/23/124
f 790/242/6 785/241/8 784/240/8
f 60/202/32 792/243/115 735/200/23
f 793/242/3 788/241/7 794/244/3
f 775/22/123 720/18/117 715/17/33
f 790/242/6 796/245/2 791/244/6
f 733/1/26 779/5/116 771/4/114
f 793/242/3 798/245/1 797/246/1
f 725/204/9 796/245/2 795/246/2
f 797/246/1 702/215/21 701/204/21
f 491/247/81 189/26/51 799/248/127
f 482/249/75 172/38/44 738/221/118
f 493/250/82 171/38/42 166/39/42
f 491/40/81 486/35/78 485/34/77
f 178/251/41 165/252/41 168/253/41
f 175/38/46 486/254/78 180/39/46
f 485/255/77 192/26/52 195/25/52
f 477/256/73 174/38/45 177/37/45
f 503/257/89 569/258/94 509/259/94
f 518/260/100 507/50/87 501/47/87
f 577/259/111 572/261/110 576/257/110
f 568/47/84 513/262/98 567/260/98
f 527/47/89 584/263/94 533/260/94
f 542/260/100 531/50/87 525/47/87
f 583/260/111 560/46/110 578/47/110
f 616/47/84 537/262/98 615/260/98
f 551/47/89 563/263/94 557/260/94
f 566/260/100 555/50/87 549/47/87
f 619/260/111 632/46/110 617/47/110
f 640/47/84 561/262/98 639/260/98
f 575/264/89 608/265/94 581/266/94
f 590/267/100 579/268/87 573/269/87
f 601/266/111 602/268/110 600/264/110
f 613/269/84 585/265/98 611/267/98
f 599/270/89 593/271/94 605/272/94
f 614/273/100 603/274/87 597/275/87
f 598/272/111 624/274/110 596/270/110
f 592/275/84 609/271/98 591/273/98
f 623/276/89 635/277/94 629/278/94
f 638/279/100 627/280/87 621/281/87
f 589/278/111 626/280/110 587/276/110
f 622/281/84 633/277/98 620/279/98
f 802/77/26 804/84/116 801/83/114
f 806/282/32 803/79/115 805/78/23
f 809/86/123 807/82/117 808/81/33
f 812/85/125 810/283/126 811/284/124
f 801/285/114 814/286/121 813/287/119
f 815/92/40 811/87/124 809/86/123
f 818/84/120 816/284/122 817/283/37
f 813/83/119 820/79/113 819/77/25
f 821/89/39 817/93/37 815/92/40
f 824/78/24 822/288/38 823/282/31
f 819/89/25 805/80/23 802/81/26
f 808/81/33 823/90/31 821/89/39
f 826/95/26 828/102/116 825/101/114
f 830/289/32 827/97/115 829/96/23
f 833/104/123 831/100/117 832/99/33
f 836/103/125 834/290/126 835/291/124
f 825/104/114 838/112/121 837/110/119
f 839/110/40 835/105/124 833/104/123
f 842/102/120 840/291/122 841/290/37
f 837/101/119 844/97/113 843/95/25
f 845/107/39 841/111/37 839/110/40
f 848/96/24 846/292/38 847/289/31
f 843/287/25 829/293/23 826/285/26
f 832/99/33 847/108/31 845/107/39
f 443/10/55 201/1/55 431/4/55
f 206/201/49 432/227/49 203/243/49
f 441/294/56 202/295/56 439/296/56
f 434/4/57 440/7/57 446/10/57
f 219/126/55 235/144/55 251/159/55
f 210/297/58 212/298/59 208/299/58
f 262/300/70 208/299/58 260/301/70
f 257/162/57 241/146/57 225/133/57
f 214/302/59 216/303/60 212/298/59
f 218/304/60 220/305/61 216/306/60
f 222/307/61 224/308/62 220/305/61
f 226/309/62 228/310/63 224/308/62
f 230/311/63 232/298/64 228/303/63
f 234/302/64 236/299/56 232/298/64
f 238/297/56 240/301/65 236/299/56
f 242/300/65 244/312/66 240/301/65
f 246/313/66 248/314/67 244/310/66
f 250/309/67 252/315/68 248/314/67
f 254/307/68 256/306/69 252/315/68
f 258/316/69 260/301/70 256/312/69
f 291/172/55 307/187/55 267/132/55
f 266/297/58 268/298/59 264/299/58
f 318/300/70 264/299/58 316/301/70
f 289/165/57 273/122/57 313/190/57
f 270/302/59 272/303/60 268/298/59
f 274/317/60 276/318/61 272/319/60
f 278/320/61 280/321/62 276/318/61
f 282/322/62 284/323/63 280/321/62
f 286/311/63 288/298/64 284/303/63
f 290/302/64 292/299/56 288/298/64
f 294/297/56 296/301/65 292/299/56
f 298/300/65 300/312/66 296/301/65
f 302/324/66 304/325/67 300/323/66
f 306/322/67 308/326/68 304/325/67
f 310/320/68 312/319/69 308/326/68
f 314/316/69 316/301/70 312/312/69
f 355/212/55 371/222/55 331/175/55
f 322/327/58 324/328/59 320/329/58
f 374/330/70 320/329/58 372/331/70
f 341/152/57 325/149/57 365/217/57
f 326/332/59 328/333/60 324/328/59
f 330/304/60 332/305/61 328/306/60
f 334/307/61 336/308/62 332/305/61
f 338/309/62 340/310/63 336/308/62
f 342/334/63 344/328/64 340/333/63
f 346/332/64 348/329/56 344/328/64
f 350/327/56 352/331/65 348/329/56
f 354/330/65 356/335/66 352/331/65
f 358/313/66 360/314/67 356/310/66
f 362/309/67 364/315/68 360/314/67
f 366/307/68 368/306/69 364/315/68
f 370/336/69 372/331/70 368/335/69
f 411/234/55 427/245/55 387/206/55
f 378/327/58 380/328/59 376/329/58
f 430/330/70 376/329/58 428/331/70
f 393/178/57 377/215/57 417/236/57
f 382/332/59 384/333/60 380/328/59
f 386/317/60 388/318/61 384/319/60
f 390/320/61 392/321/62 388/318/61
f 394/322/62 396/323/63 392/321/62
f 398/334/63 400/328/64 396/333/63
f 402/332/64 404/329/56 400/328/64
f 406/327/56 408/331/65 404/329/56
f 410/330/65 412/335/66 408/331/65
f 414/324/66 416/325/67 412/323/66
f 418/322/67 420/326/68 416/325/67
f 422/320/68 424/319/69 420/326/68
f 426/336/69 428/331/70 424/335/69
f 435/337/58 444/296/58 433/295/58
f 447/229/41 438/243/41 445/227/41
f 467/338/55 449/339/55 455/340/55
f 454/18/49 456/20/49 451/15/49
f 465/210/56 450/170/56 463/239/56
f 458/340/57 464/341/57 470/338/57
f 459/235/58 468/239/58 457/170/58
f 471/24/41 462/15/41 469/20/41
f 491/40/81 473/342/71 479/343/71
f 478/30/74 480/344/72 475/345/72
f 487/248/56 476/221/56 474/26/56
f 482/31/75 488/346/79 494/347/79
f 483/221/58 492/248/58 481/26/58
f 495/348/80 486/35/78 493/42/82
f 659/92/55 641/81/55 647/86/55
f 646/288/49 648/84/49 643/79/49
f 657/349/56 642/293/56 655/286/56
f 650/86/57 656/89/57 662/92/57
f 651/350/58 660/286/58 649/293/58
f 663/283/41 654/79/41 661/84/41
f 683/110/55 665/99/55 671/104/55
f 670/292/49 672/102/49 667/97/49
f 681/349/56 666/293/56 679/286/56
f 674/104/57 680/107/57 686/110/57
f 675/350/58 684/286/58 673/293/58
f 687/290/41 678/97/41 685/102/41
f 164/113/16 163/125/17 162/114/17
f 160/116/9 159/119/13 158/117/13
f 155/7/39 154/8/38 153/12/37
f 151/116/21 150/118/21 149/117/36
f 148/120/14 147/124/14 158/117/13
f 145/121/36 144/132/36 143/122/35
f 142/120/35 152/119/36 149/117/36
f 139/113/5 138/115/5 137/114/4
f 148/120/14 136/127/19 135/126/19
f 142/120/35 141/124/35 133/126/29
f 132/128/35 131/181/36 130/129/36
f 128/131/4 127/133/4 135/126/19
f 125/123/14 124/122/14 123/132/13
f 134/127/29 133/126/29 121/133/17
f 120/134/5 119/138/5 127/133/4
f 117/135/36 116/149/36 115/136/35
f 114/134/16 122/131/17 121/133/17
f 112/139/29 111/145/29 162/114/17
f 120/134/5 110/141/30 109/140/30
f 114/134/16 113/138/16 107/140/28
f 193/26/53 106/221/34 478/142/74
f 105/143/27 104/144/27 109/140/30
f 108/141/28 107/140/28 102/144/22
f 140/125/4 137/114/4 100/145/19
f 105/143/27 99/148/20 98/146/20
f 97/147/21 96/158/21 144/132/36
f 103/143/22 102/144/22 94/146/18
f 92/137/14 91/136/14 90/149/13
f 89/150/15 88/154/15 98/146/20
f 86/151/17 85/160/17 84/152/16
f 83/150/12 95/148/18 94/146/18
f 89/150/15 81/156/11 80/155/11
f 79/156/10 83/150/12 82/154/12
f 146/123/35 143/122/35 111/145/29
f 77/157/8 76/159/8 80/155/11
f 75/147/9 126/121/13 123/132/13
f 79/156/10 78/155/10 72/159/7
f 70/153/5 69/152/5 68/160/4
f 67/161/6 66/162/6 76/159/8
f 65/161/3 73/157/7 72/159/7
f 125/123/14 101/139/19 100/145/19
f 67/161/6 63/164/2 62/163/2
f 61/1/33 60/2/32 59/9/31
f 65/161/3 64/162/3 57/163/1
f 160/116/9 157/118/9 62/163/2
f 151/116/21 58/164/1 57/163/1
f 139/113/5 56/167/30 55/165/30
f 54/166/29 53/175/29 85/160/17
f 164/113/16 161/115/16 51/165/28
f 50/168/27 49/172/27 55/165/30
f 47/169/25 46/239/24 45/170/23
f 52/167/28 51/165/28 43/172/22
f 42/173/21 41/185/21 116/149/36
f 50/168/27 40/176/20 39/174/20
f 71/151/4 68/160/4 37/175/19
f 44/168/22 43/172/22 35/174/18
f 34/177/16 33/189/17 32/178/17
f 30/180/15 29/182/15 39/174/20
f 27/128/14 26/130/14 25/129/13
f 36/176/18 35/174/18 23/182/12
f 30/180/15 22/184/11 21/183/11
f 24/180/12 23/182/12 19/183/10
f 18/173/9 93/135/13 90/149/13
f 16/186/8 15/187/8 21/183/11
f 118/137/35 115/136/35 53/175/29
f 20/184/10 19/183/10 13/187/7
f 12/188/6 11/190/6 15/187/8
f 9/177/5 8/179/5 7/178/4
f 14/186/7 13/187/7 5/190/3
f 196/191/49 198/351/49 184/192/49
f 12/188/6 4/195/2 3/194/2
f 92/137/14 38/166/19 37/175/19
f 6/188/3 5/190/3 1/194/1
f 75/147/9 74/158/9 3/194/2
f 2/195/1 1/194/1 96/158/21
f 70/153/5 689/198/30 690/196/30
f 691/197/29 692/206/29 32/178/17
f 87/153/16 84/152/16 694/196/28
f 695/199/27 696/203/27 690/196/30
f 697/200/24 698/243/113 154/201/38
f 693/198/28 694/196/28 700/203/22
f 701/204/21 702/215/21 130/129/36
f 695/199/27 703/207/20 704/205/20
f 10/189/4 7/178/4 706/206/19
f 699/199/22 700/203/22 708/205/18
f 48/13/26 710/15/115 711/20/116
f 712/208/15 713/212/15 704/205/20
f 715/209/33 716/235/32 717/210/31
f 707/207/18 708/205/18 719/212/12
f 716/16/32 720/18/117 710/15/115
f 712/208/15 721/214/11 722/213/11
f 718/208/12 719/212/12 724/213/10
f 725/204/9 28/181/13 25/129/13
f 727/216/8 728/217/8 722/213/11
f 691/197/29 132/128/35 129/130/35
f 723/214/10 724/213/10 730/217/7
f 482/31/75 484/33/76 478/30/74
f 731/218/6 732/219/6 728/217/8
f 734/7/25 697/9/24 735/2/23
f 736/218/3 729/216/7 730/217/7
f 190/26/48 183/27/48 484/220/76
f 731/218/6 739/223/2 740/222/2
f 27/128/14 705/197/19 706/206/19
f 736/218/3 737/219/3 742/222/1
f 18/173/9 17/185/9 740/222/2
f 741/223/1 742/222/1 41/185/21
f 46/14/24 743/15/113 744/18/38
f 9/177/5 745/225/30 746/224/30
f 747/10/119 748/12/120 698/8/113
f 34/177/16 31/179/16 750/224/28
f 714/17/39 744/18/38 752/24/37
f 753/226/27 754/230/27 746/224/30
f 748/227/120 755/237/121 756/228/122
f 757/226/22 749/225/28 750/224/28
f 759/19/119 760/20/120 743/15/113
f 753/226/27 761/232/20 762/231/20
f 156/10/40 756/11/122 764/6/124
f 757/226/22 758/230/22 766/231/18
f 760/20/120 767/21/121 768/23/122
f 769/233/15 770/234/15 762/231/20
f 771/4/114 772/6/125 755/11/121
f 773/233/12 765/232/18 766/231/18
f 751/211/40 768/210/122 776/235/124
f 769/233/15 777/238/11 778/236/11
f 772/237/125 779/227/116 780/229/126
f 773/233/12 774/234/12 782/236/10
f 709/171/114 783/170/125 767/239/121
f 784/240/8 785/241/8 778/236/11
f 763/4/123 780/5/126 786/3/117
f 781/238/10 782/236/10 788/241/7
f 783/21/125 711/20/116 789/24/126
f 790/242/6 791/244/6 785/241/8
f 60/202/32 786/201/117 792/243/115
f 793/242/3 787/240/7 788/241/7
f 775/22/123 789/24/126 720/18/117
f 790/242/6 795/246/2 796/245/2
f 733/1/26 792/3/115 779/5/116
f 793/242/3 794/244/3 798/245/1
f 725/204/9 726/215/9 796/245/2
f 797/246/1 798/245/1 702/215/21
f 491/247/81 186/25/51 189/26/51
f 482/249/75 169/37/44 172/38/44
f 493/250/82 799/248/127 171/38/42
f 491/40/81 493/42/82 486/35/78
f 178/251/41 181/352/41 165/252/41
f 175/38/46 800/248/128 486/254/78
f 485/255/77 800/248/128 192/26/52
f 477/256/73 106/221/34 174/38/45
f 503/257/89 571/261/89 569/258/94
f 518/260/100 516/263/100 507/50/87
f 577/259/111 574/258/111 572/261/110
f 568/47/84 498/46/84 513/262/98
f 527/47/89 586/50/89 584/263/94
f 542/260/100 540/263/100 531/50/87
f 583/260/111 562/262/111 560/46/110
f 616/47/84 522/46/84 537/262/98
f 551/47/89 565/50/89 563/263/94
f 566/260/100 564/263/100 555/50/87
f 619/260/111 634/262/111 632/46/110
f 640/47/84 546/46/84 561/262/98
f 575/264/89 610/268/89 608/265/94
f 590/267/100 588/265/100 579/268/87
f 601/266/111 607/265/111 602/268/110
f 613/269/84 570/268/84 585/265/98
f 599/270/89 595/274/89 593/271/94
f 614/273/100 612/271/100 603/274/87
f 598/272/111 625/271/111 624/274/110
f 592/275/84 594/274/84 609/271/98
f 623/276/89 637/280/89 635/277/94
f 638/279/100 636/277/100 627/280/87
f 589/278/111 631/277/111 626/280/110
f 622/281/84 618/280/84 633/277/98
f 802/77/26 803/79/115 804/84/116
f 806/282/32 807/288/117 803/79/115
f 809/86/123 810/88/126 807/82/117
f 812/85/125 804/84/116 810/283/126
f 801/285/114 812/293/125 814/286/121
f 815/92/40 816/94/122 811/87/124
f 818/84/120 814/85/121 816/284/122
f 813/83/119 818/84/120 820/79/113
f 821/89/39 822/91/38 817/93/37
f 824/78/24 820/79/113 822/288/38
f 819/89/25 824/90/24 805/80/23
f 808/81/33 806/80/32 823/90/31
f 826/95/26 827/97/115 828/102/116
f 830/289/32 831/292/117 827/97/115
f 833/104/123 834/106/126 831/100/117
f 836/103/125 828/102/116 834/290/126
f 825/104/114 836/105/125 838/112/121
f 839/110/40 840/112/122 835/105/124
f 842/102/120 838/103/121 840/291/122
f 837/101/119 842/102/120 844/97/113
f 845/107/39 846/109/38 841/111/37
f 848/96/24 844/97/113 846/292/38
f 843/287/25 848/286/24 829/293/23
f 832/99/33 830/98/32 847/108/31
f 443/10/55 437/7/55 201/1/55
f 206/201/49 436/229/49 432/227/49
f 441/294/56 204/337/56 202/295/56
f 434/4/57 205/1/57 440/7/57
f 259/163/55 207/118/55 211/117/55
f 211/117/55 215/124/55 219/126/55
f 219/126/55 223/133/55 227/138/55
f 227/138/55 231/140/55 235/144/55
f 235/144/55 239/146/55 243/154/55
f 243/154/55 247/155/55 251/159/55
f 251/159/55 255/162/55 259/163/55
f 259/163/55 211/117/55 219/126/55
f 219/126/55 227/138/55 235/144/55
f 235/144/55 243/154/55 251/159/55
f 251/159/55 259/163/55 219/126/55
f 210/297/58 214/302/59 212/298/59
f 262/300/70 210/297/58 208/299/58
f 217/124/57 213/117/57 209/118/57
f 209/118/57 261/163/57 257/162/57
f 257/162/57 253/159/57 249/155/57
f 249/155/57 245/154/57 241/146/57
f 241/146/57 237/144/57 233/140/57
f 233/140/57 229/138/57 225/133/57
f 225/133/57 221/126/57 217/124/57
f 217/124/57 209/118/57 257/162/57
f 257/162/57 249/155/57 241/146/57
f 241/146/57 233/140/57 225/133/57
f 225/133/57 217/124/57 257/162/57
f 214/302/59 218/311/60 216/303/60
f 218/304/60 222/307/61 220/305/61
f 222/307/61 226/309/62 224/308/62
f 226/309/62 230/313/63 228/310/63
f 230/311/63 234/302/64 232/298/64
f 234/302/64 238/297/56 236/299/56
f 238/297/56 242/300/65 240/301/65
f 242/300/65 246/316/66 244/312/66
f 246/313/66 250/309/67 248/314/67
f 250/309/67 254/307/68 252/315/68
f 254/307/68 258/304/69 256/306/69
f 258/316/69 262/300/70 260/301/70
f 275/145/55 279/114/55 283/115/55
f 283/115/55 287/165/55 291/172/55
f 291/172/55 295/174/55 299/182/55
f 299/182/55 303/183/55 307/187/55
f 307/187/55 311/190/55 315/194/55
f 315/194/55 263/158/55 267/132/55
f 267/132/55 271/122/55 275/145/55
f 275/145/55 283/115/55 291/172/55
f 291/172/55 299/182/55 307/187/55
f 307/187/55 315/194/55 267/132/55
f 267/132/55 275/145/55 291/172/55
f 266/297/58 270/302/59 268/298/59
f 318/300/70 266/297/58 264/299/58
f 305/183/57 301/182/57 297/174/57
f 297/174/57 293/172/57 289/165/57
f 289/165/57 285/115/57 281/114/57
f 281/114/57 277/145/57 273/122/57
f 273/122/57 269/132/57 265/158/57
f 265/158/57 317/194/57 313/190/57
f 313/190/57 309/187/57 305/183/57
f 305/183/57 297/174/57 289/165/57
f 289/165/57 281/114/57 273/122/57
f 273/122/57 265/158/57 313/190/57
f 313/190/57 305/183/57 289/165/57
f 270/302/59 274/311/60 272/303/60
f 274/317/60 278/320/61 276/318/61
f 278/320/61 282/322/62 280/321/62
f 282/322/62 286/324/63 284/323/63
f 286/311/63 290/302/64 288/298/64
f 290/302/64 294/297/56 292/299/56
f 294/297/56 298/300/65 296/301/65
f 298/300/65 302/316/66 300/312/66
f 302/324/66 306/322/67 304/325/67
f 306/322/67 310/320/68 308/326/68
f 310/320/68 314/317/69 312/319/69
f 314/316/69 318/300/70 316/301/70
f 339/152/55 343/196/55 347/203/55
f 347/203/55 351/205/55 355/212/55
f 355/212/55 359/213/55 363/217/55
f 363/217/55 367/219/55 371/222/55
f 371/222/55 319/185/55 323/149/55
f 323/149/55 327/136/55 331/175/55
f 331/175/55 335/160/55 339/152/55
f 339/152/55 347/203/55 355/212/55
f 355/212/55 363/217/55 371/222/55
f 371/222/55 323/149/55 331/175/55
f 331/175/55 339/152/55 355/212/55
f 322/327/58 326/332/59 324/328/59
f 374/330/70 322/327/58 320/329/58
f 357/212/57 353/205/57 349/203/57
f 349/203/57 345/196/57 341/152/57
f 341/152/57 337/160/57 333/175/57
f 333/175/57 329/136/57 325/149/57
f 325/149/57 321/185/57 373/222/57
f 373/222/57 369/219/57 365/217/57
f 365/217/57 361/213/57 357/212/57
f 357/212/57 349/203/57 341/152/57
f 341/152/57 333/175/57 325/149/57
f 325/149/57 373/222/57 365/217/57
f 365/217/57 357/212/57 341/152/57
f 326/332/59 330/334/60 328/333/60
f 330/304/60 334/307/61 332/305/61
f 334/307/61 338/309/62 336/308/62
f 338/309/62 342/313/63 340/310/63
f 342/334/63 346/332/64 344/328/64
f 346/332/64 350/327/56 348/329/56
f 350/327/56 354/330/65 352/331/65
f 354/330/65 358/336/66 356/335/66
f 358/313/66 362/309/67 360/314/67
f 362/309/67 366/307/68 364/315/68
f 366/307/68 370/304/69 368/306/69
f 370/336/69 374/330/70 372/331/70
f 395/179/55 399/224/55 403/230/55
f 403/230/55 407/231/55 411/234/55
f 411/234/55 415/236/55 419/241/55
f 419/241/55 423/244/55 427/245/55
f 427/245/55 375/215/55 379/129/55
f 379/129/55 383/130/55 387/206/55
f 387/206/55 391/178/55 395/179/55
f 395/179/55 403/230/55 411/234/55
f 411/234/55 419/241/55 427/245/55
f 427/245/55 379/129/55 387/206/55
f 387/206/55 395/179/55 411/234/55
f 378/327/58 382/332/59 380/328/59
f 430/330/70 378/327/58 376/329/58
f 409/231/57 405/230/57 401/224/57
f 401/224/57 397/179/57 393/178/57
f 393/178/57 389/206/57 385/130/57
f 385/130/57 381/129/57 377/215/57
f 377/215/57 429/245/57 425/244/57
f 425/244/57 421/241/57 417/236/57
f 417/236/57 413/234/57 409/231/57
f 409/231/57 401/224/57 393/178/57
f 393/178/57 385/130/57 377/215/57
f 377/215/57 425/244/57 417/236/57
f 417/236/57 409/231/57 393/178/57
f 382/332/59 386/334/60 384/333/60
f 386/317/60 390/320/61 388/318/61
f 390/320/61 394/322/62 392/321/62
f 394/322/62 398/324/63 396/323/63
f 398/334/63 402/332/64 400/328/64
f 402/332/64 406/327/56 404/329/56
f 406/327/56 410/330/65 408/331/65
f 410/330/65 414/336/66 412/335/66
f 414/324/66 418/322/67 416/325/67
f 418/322/67 422/320/68 420/326/68
f 422/320/68 426/317/69 424/319/69
f 426/336/69 430/330/70 428/331/70
f 435/337/58 448/294/58 444/296/58
f 447/229/41 442/201/41 438/243/41
f 467/338/55 461/341/55 449/339/55
f 454/18/49 460/24/49 456/20/49
f 465/210/56 452/235/56 450/170/56
f 458/340/57 453/339/57 464/341/57
f 459/235/58 472/210/58 468/239/58
f 471/24/41 466/18/41 462/15/41
f 491/40/81 485/34/77 473/342/71
f 478/30/74 484/33/76 480/344/72
f 487/248/56 489/38/56 476/221/56
f 482/31/75 477/29/73 488/346/79
f 483/221/58 496/38/58 492/248/58
f 495/348/80 490/353/80 486/35/78
f 659/92/55 653/89/55 641/81/55
f 646/288/49 652/283/49 648/84/49
f 657/349/56 644/350/56 642/293/56
f 650/86/57 645/81/57 656/89/57
f 651/350/58 664/349/58 660/286/58
f 663/283/41 658/288/41 654/79/41
f 683/110/55 677/107/55 665/99/55
f 670/292/49 676/290/49 672/102/49
f 681/349/56 668/350/56 666/293/56
f 674/104/57 669/99/57 680/107/57
f 675/350/58 688/349/58 684/286/58
f 687/290/41 682/292/41 678/97/41
