# Blender 5.2.0 LTS
# www.blender.org
o Backdrop_Lounger_Detail
v -16.034075 5.800000 7.034074
v -16.034075 6.765926 8.000000
v 13.500000 6.034074 -7.366025
v 13.500000 0.965926 -7.366025
v 13.133975 6.034074 -7.000000
v 13.133975 0.965926 -7.000000
v 13.000000 6.034074 -6.500000
v 13.000000 0.965926 -6.500000
v 13.133975 6.034074 -6.000000
v 13.133975 0.965926 -6.000000
v 13.500000 6.034074 -5.633975
v 13.500000 0.965926 -5.633975
v 14.000000 6.034074 -5.500000
v 14.000000 0.965926 -5.500000
v 13.500000 6.034074 5.633975
v 13.500000 0.965926 5.633975
v 13.133975 6.034074 6.000000
v 13.133975 0.965926 6.000000
v 13.000000 6.034074 6.500000
v 13.000000 0.965926 6.500000
v 13.133975 6.034074 7.000000
v 13.133975 0.965926 7.000000
v 13.500000 6.034074 7.366025
v 13.500000 0.965926 7.366025
v 14.000000 6.034074 7.500000
v 14.000000 0.965926 7.500000
v 14.000000 6.034074 -7.500000
v 14.500000 6.034074 -7.366025
v 14.500000 6.034074 7.366025
v -14.866025 6.034074 -7.000000
v -14.866025 0.965926 -7.000000
v -15.000000 6.034074 -6.500000
v 14.500000 0.965926 7.366025
v 14.000000 0.965926 5.500000
v -15.000000 0.965926 -6.500000
v -14.500000 6.034074 -7.366025
v -14.866025 6.034074 -6.000000
v -14.866025 0.965926 -6.000000
v 14.500000 6.034074 -5.633975
v -14.500000 6.034074 -5.633975
v 14.866025 6.034074 -7.000000
v -14.500000 0.965926 -5.633975
v 14.000000 0.965926 -7.500000
v -14.000000 6.034074 -5.500000
v 14.000000 6.034074 5.500000
v -14.000000 0.965926 -5.500000
v -13.500000 6.034074 -5.633975
v -14.500000 0.965926 -7.366025
v -13.500000 0.965926 -5.633975
v 14.500000 0.965926 -5.633975
v -14.500000 6.034074 5.633975
v -14.500000 0.965926 5.633975
v -14.866025 6.034074 6.000000
v -14.866025 0.965926 6.000000
v 14.866025 0.965926 -6.000000
v 15.000000 0.965926 -6.500000
v -15.000000 6.034074 6.500000
v -14.000000 0.965926 -7.500000
v -17.000000 6.765926 7.034074
v -16.034075 7.234074 8.000000
v -16.034075 8.200000 7.034074
v -17.000000 7.234074 7.034074
v -16.034075 5.800000 -7.034074
v -17.000000 6.765926 -7.034074
v -16.034075 6.765926 -8.000000
v -16.034075 8.200000 -7.034074
v -16.034075 7.234074 -8.000000
v -17.000000 7.234074 -7.034074
v 16.034075 5.800000 7.034074
v 17.000000 6.765926 7.034074
v 16.034075 6.765926 8.000000
v 16.034075 8.200000 7.034074
v 16.034075 7.234074 8.000000
v 17.000000 7.234074 7.034074
v 16.034075 5.800000 -7.034074
v 16.034075 6.765926 -8.000000
v 17.000000 6.765926 -7.034074
v 16.034075 8.200000 -7.034074
v 17.000000 7.234074 -7.034074
v 16.034075 7.234074 -8.000000
v -27.841516 6.355266 7.034075
v -28.402754 7.141411 8.000000
v -29.188900 6.580174 7.034074
v -28.674765 7.522428 8.000000
v -29.236002 8.308574 7.034075
v -29.460911 6.961191 7.034074
v -27.841516 6.355266 -7.034075
v -29.188900 6.580174 -7.034074
v -28.402754 7.141412 -8.000000
v -29.236002 8.308574 -7.034075
v -28.674765 7.522428 -8.000000
v -29.460911 6.961191 -7.034074
v -14.763998 15.691426 7.034075
v -14.539089 17.038809 7.034074
v -15.325235 16.477571 8.000000
v -16.158484 17.644733 7.034075
v -15.597247 16.858587 8.000000
v -14.811100 17.419825 7.034074
v -14.763998 15.691426 -7.034075
v -15.325235 16.477571 -8.000000
v -14.539089 17.038809 -7.034074
v -16.158484 17.644733 -7.034075
v -14.811100 17.419825 -7.034074
v -15.597246 16.858587 -8.000000
v -15.000000 0.965926 6.500000
v -14.000000 0.965926 5.500000
v -14.866025 6.034074 7.000000
v -14.000000 6.034074 5.500000
v 14.500000 6.034074 5.633975
v -13.500000 0.965926 5.633975
v 14.866025 6.034074 6.000000
v -13.500000 6.034074 5.633975
v -14.866025 0.965926 7.000000
v -13.133975 0.965926 6.000000
v 14.866025 0.965926 -7.000000
v -13.133975 6.034074 6.000000
v 14.500000 0.965926 -7.366025
v -13.000000 0.965926 6.500000
v -14.500000 6.034074 7.366025
v -13.000000 6.034074 6.500000
v 15.000000 6.034074 -6.500000
v -13.133975 0.965926 7.000000
v 14.866025 6.034074 -6.000000
v -13.133975 6.034074 7.000000
v -14.500000 0.965926 7.366025
v -13.500000 0.965926 7.366025
v -14.000000 6.034074 7.500000
v -13.500000 6.034074 7.366025
v -14.000000 6.034074 -7.500000
v -14.000000 0.965926 7.500000
v -14.000000 7.000000 6.500000
v -14.000000 6.034074 7.500000
v -14.000000 0.000000 6.500000
v -14.500000 0.965926 7.366025
v -14.000000 0.965926 7.500000
v -14.500000 6.034074 7.366025
v -13.500000 6.034074 7.366025
v -14.866025 0.965926 7.000000
v -13.500000 0.965926 7.366025
v -14.866025 6.034074 7.000000
v 14.866025 0.965926 7.000000
v -15.000000 0.965926 6.500000
v 15.000000 0.965926 6.500000
v -15.000000 6.034074 6.500000
v -13.133975 6.034074 7.000000
v -14.866025 0.965926 6.000000
v -13.133975 0.965926 7.000000
v -14.866025 6.034074 6.000000
v -13.133975 0.965926 -6.000000
v -14.500000 0.965926 5.633975
v -13.000000 0.965926 -6.500000
v -14.500000 6.034074 5.633975
v -13.000000 6.034074 6.500000
v -14.000000 0.965926 -7.500000
v 15.000000 6.034074 6.500000
v -14.000000 6.034074 -7.500000
v 14.866025 6.034074 7.000000
v -13.500000 0.965926 -7.366025
v -13.000000 0.965926 6.500000
v -13.500000 6.034074 -7.366025
v -13.133975 6.034074 6.000000
v -13.133975 0.965926 -7.000000
v -13.133975 0.965926 -7.000000
v -13.133975 6.034074 -7.000000
v -13.500000 0.965926 -7.366025
v -13.000000 0.965926 -6.500000
v -13.133975 0.965926 6.000000
v -13.000000 6.034074 -6.500000
v -13.000000 6.034074 -6.500000
v -13.133975 0.965926 -6.000000
v -13.133975 6.034074 -6.000000
v -13.133975 6.034074 -6.000000
v -14.000000 6.034074 5.500000
v -13.500000 0.965926 -5.633975
v -13.500000 6.034074 5.633975
v -13.500000 6.034074 -5.633975
v 14.866025 0.965926 6.000000
v -14.000000 0.965926 -5.500000
v 14.500000 0.965926 5.633975
v -14.000000 6.034074 -5.500000
v -13.500000 6.034074 -7.366025
v -14.500000 0.965926 -5.633975
v -14.000000 7.000000 -6.500000
v -14.500000 6.034074 -5.633975
v -14.000000 0.000000 -6.500000
v -14.866025 0.965926 -6.000000
v -13.133975 6.034074 -7.000000
v -14.866025 6.034074 -6.000000
v -13.500000 0.965926 5.633975
v -15.000000 0.965926 -6.500000
v -14.000000 0.965926 5.500000
v -15.000000 6.034074 -6.500000
v -15.325235 16.477571 8.000000
v -14.866025 0.965926 -7.000000
v -15.597247 16.858587 8.000000
v -14.866025 6.034074 -7.000000
v -14.811100 17.419825 7.034074
v -14.500000 0.965926 -7.366025
v -16.158484 17.644733 7.034075
v -14.500000 6.034074 -7.366025
v -14.539089 17.038809 7.034074
v 14.000000 0.965926 5.500000
v -14.763998 15.691426 7.034075
v 14.000000 6.034074 5.500000
v -14.539089 17.038809 -7.034074
v 14.500000 0.965926 5.633975
v -14.811100 17.419825 -7.034074
v 14.500000 6.034074 5.633975
v -15.597246 16.858587 -8.000000
v 14.866025 0.965926 6.000000
v -16.158484 17.644733 -7.034075
v 14.866025 6.034074 6.000000
v -15.325235 16.477571 -8.000000
v 15.000000 0.965926 6.500000
v -14.763998 15.691426 -7.034075
v 15.000000 6.034074 6.500000
v -28.402754 7.141412 -8.000000
v 14.866025 0.965926 7.000000
v -28.674765 7.522428 -8.000000
v 14.866025 6.034074 7.000000
v -29.460911 6.961191 -7.034074
v 14.500000 0.965926 7.366025
v -29.236002 8.308574 -7.034075
v 14.500000 6.034074 7.366025
v -29.236002 8.308574 7.034075
v 14.000000 0.965926 7.500000
v -29.460911 6.961191 7.034074
v 14.000000 6.034074 7.500000
v -28.674765 7.522428 8.000000
v 13.500000 0.965926 7.366025
v -28.402754 7.141411 8.000000
v 13.500000 6.034074 7.366025
v 14.000000 0.000000 6.500000
v 13.133975 0.965926 7.000000
v -29.188900 6.580174 -7.034074
v 13.133975 6.034074 7.000000
v -29.188900 6.580174 7.034074
v 13.000000 0.965926 6.500000
v 14.000000 7.000000 6.500000
v 13.000000 6.034074 6.500000
v -27.841516 6.355266 7.034075
v 13.133975 0.965926 6.000000
v -27.841516 6.355266 -7.034075
v 13.133975 6.034074 6.000000
v 16.034075 6.765926 8.000000
v 13.500000 0.965926 5.633975
v 16.034075 7.234074 8.000000
v 13.500000 6.034074 5.633975
v 17.000000 7.234074 7.034074
v 14.000000 0.965926 -7.500000
v 16.034075 8.200000 7.034074
v 14.000000 6.034074 -7.500000
v 17.000000 6.765926 7.034074
v 14.500000 0.965926 -7.366025
v 16.034075 5.800000 7.034074
v 14.500000 6.034074 -7.366025
v 17.000000 6.765926 -7.034074
v 14.866025 0.965926 -7.000000
v 17.000000 7.234074 -7.034074
v 14.866025 6.034074 -7.000000
v 16.034075 7.234074 -8.000000
v 15.000000 0.965926 -6.500000
v 16.034075 8.200000 -7.034074
v 15.000000 6.034074 -6.500000
v 16.034075 6.765926 -8.000000
v 14.866025 0.965926 -6.000000
v 16.034075 5.800000 -7.034074
v 14.866025 6.034074 -6.000000
v -16.034075 6.765926 -8.000000
v 14.500000 0.965926 -5.633975
v -16.034075 7.234074 -8.000000
v 14.500000 6.034074 -5.633975
v -17.000000 7.234074 -7.034074
v 14.000000 0.965926 -5.500000
v -16.034075 8.200000 -7.034074
v 14.000000 6.034074 -5.500000
v -16.034075 8.200000 7.034074
v 13.500000 0.965926 -5.633975
v -17.000000 7.234074 7.034074
v 13.500000 6.034074 -5.633975
v 14.000000 0.000000 -6.500000
v 13.133975 0.965926 -6.000000
v -16.034075 7.234074 8.000000
v 13.133975 6.034074 -6.000000
v -16.034075 6.765926 8.000000
v 13.000000 0.965926 -6.500000
v 14.000000 7.000000 -6.500000
v 13.000000 6.034074 -6.500000
v -17.000000 6.765926 -7.034074
v 13.133975 0.965926 -7.000000
v -17.000000 6.765926 7.034074
v 13.133975 6.034074 -7.000000
v -16.034075 5.800000 7.034074
v 13.500000 0.965926 -7.366025
v -16.034075 5.800000 -7.034074
v 13.500000 6.034074 -7.366025
vn -0.0000 -1.0000 -0.0000
vn -0.0000 -0.0000 1.0000
vn -0.5000 -0.0000 -0.8660
vn -0.8660 -0.0000 -0.5000
vn -0.6947 0.7193 -0.0000
vn -1.0000 -0.0000 -0.0000
vn -0.8660 -0.0000 0.5000
vn -0.5000 -0.0000 0.8660
vn -0.0000 -0.0000 -1.0000
vn 0.5000 -0.0000 -0.8660
vn 0.5000 -0.0000 0.8660
vn -0.3474 0.7193 0.6017
vn 0.8660 -0.0000 -0.5000
vn 0.8660 -0.0000 0.5000
vn 1.0000 -0.0000 -0.0000
vn -0.0000 1.0000 -0.0000
vn 0.5810 -0.8139 -0.0000
vn -0.8139 -0.5810 -0.0000
vn -0.5810 0.8139 -0.0000
vn 0.8139 0.5810 -0.0000
vn -0.0000 -0.7193 -0.6947
vn -0.0000 0.7193 -0.6947
vn 0.3474 -0.7193 -0.6017
vn 0.3474 0.7193 -0.6017
vn 0.6017 -0.7193 -0.3474
vn 0.6017 0.7193 -0.3474
vn 0.6947 -0.7193 -0.0000
vn 0.6947 0.7193 -0.0000
vn 0.6017 -0.7193 0.3474
vn 0.6017 0.7193 0.3474
vn 0.3474 -0.7193 0.6017
vn -0.0000 0.7193 0.6947
vn 0.3474 0.7193 0.6017
vn -0.0000 -0.7193 0.6947
vn -0.3474 -0.7193 0.6017
vn -0.6017 -0.7193 0.3474
vn -0.6017 0.7193 0.3474
vn -0.6947 -0.7193 -0.0000
vn -0.6017 -0.7193 -0.3474
vn -0.6017 0.7193 -0.3474
vn -0.3474 -0.7193 -0.6017
vn -0.3474 0.7193 -0.6017
vn 0.6424 -0.1072 0.7588
vn 0.1072 0.6424 0.7588
vn 0.3500 0.8157 0.4606
vn -0.0660 0.8852 0.4606
vn 0.8852 0.0660 0.4606
vn 0.8157 -0.3500 0.4606
vn 0.8852 0.0660 -0.4606
vn 0.3500 0.8157 -0.4606
vn 0.1072 0.6424 -0.7588
vn -0.0660 0.8852 -0.4606
vn 0.6424 -0.1072 -0.7588
vn 0.8157 -0.3500 -0.4606
vn -0.1072 -0.6424 -0.7588
vn -0.6424 0.1072 -0.7588
vn -0.8852 -0.0660 -0.4606
vn -0.8157 0.3500 -0.4606
vn -0.8157 0.3500 0.4606
vn -0.8852 -0.0660 0.4606
vn -0.6424 0.1072 0.7588
vn -0.1072 -0.6424 0.7588
vn -0.3500 -0.8157 -0.4606
vn -0.3500 -0.8157 0.4606
vn 0.0660 -0.8852 0.4606
vn 0.0660 -0.8852 -0.4606
vn 0.4606 -0.4606 0.7588
vn 0.4606 0.4606 0.7588
vn 0.7588 0.4606 0.4606
vn 0.4606 0.7588 0.4606
vn 0.7588 -0.4606 0.4606
vn 0.4606 -0.7588 0.4606
vn 0.7588 -0.4606 -0.4606
vn 0.7588 0.4606 -0.4606
vn 0.4606 0.4606 -0.7588
vn 0.4606 0.7588 -0.4606
vn 0.4606 -0.4606 -0.7588
vn 0.4606 -0.7588 -0.4606
vn -0.4606 -0.4606 -0.7588
vn -0.4606 0.4606 -0.7588
vn -0.7588 0.4606 -0.4606
vn -0.4606 0.7588 -0.4606
vn -0.4606 0.7588 0.4606
vn -0.7588 0.4606 0.4606
vn -0.4606 0.4606 0.7588
vn -0.4606 -0.4606 0.7588
vn -0.7588 -0.4606 -0.4606
vn -0.7588 -0.4606 0.4606
vn -0.4606 -0.7588 0.4606
vn -0.4606 -0.7588 -0.4606
vt -0.807924 0.351704
vt -0.740555 0.351704
vt -0.779862 0.400000
vt -0.801704 0.351704
vt 0.801704 0.400000
vt 0.801704 0.351704
vt -0.351704 0.410000
vt -0.400000 0.361704
vt -0.351704 0.361704
vt -0.351704 0.290000
vt 0.351704 0.338296
vt 0.351704 0.290000
vt 0.400000 0.338296
vt 0.351704 0.361704
vt 0.400000 0.361704
vt -0.351704 0.338296
vt -0.400000 0.338296
vt 0.351704 0.415429
vt 0.400000 0.376121
vt 0.351704 0.348060
vt -1.392076 -0.351704
vt -1.420138 -0.400000
vt -1.459445 -0.351704
vt 0.351704 0.410000
vt -0.801704 0.400000
vt -1.392076 0.351704
vt -1.459445 0.351704
vt -1.420138 0.400000
vt 0.351704 0.784571
vt 0.400000 0.823879
vt 0.351704 0.851940
vt -0.807924 -0.351704
vt -0.779862 -0.400000
vt -0.740555 -0.351704
vt -0.351704 0.784571
vt -0.351704 0.851940
vt -0.400000 0.823879
vt -0.400000 0.376121
vt -0.351704 0.415429
vt -0.351704 0.348060
vt 0.801704 -0.351704
vt -0.801704 -0.400000
vt -0.801704 -0.351704
vt 0.801704 -0.400000
vt -1.433738 0.376121
vt -1.459445 0.329009
vt -1.420138 0.357071
vt -1.420138 0.357071
vt -1.473046 0.348060
vt -0.738200 0.784571
vt -0.766262 0.823879
vt -0.807924 0.882237
vt -1.461800 0.415429
vt -0.726954 0.851940
vt -0.779862 0.842929
vt -0.740555 0.870991
vt -0.779862 0.842929
vt -1.392076 0.317763
vt -0.700000 -0.275000
vt -0.675000 -0.281699
vt -0.700000 -0.325000
vt -0.656699 0.350000
vt -0.675000 0.368301
vt -0.700000 0.325000
vt 0.725000 -0.281699
vt 0.743301 -0.300000
vt 0.700000 -0.325000
vt -0.656699 0.300000
vt -0.650000 0.325000
vt -0.656699 -0.300000
vt -0.650000 -0.325000
vt 0.743301 -0.350000
vt 0.750000 -0.325000
vt -0.656699 -0.350000
vt -0.675000 -0.368301
vt -0.700000 -0.375000
vt -0.700000 0.375000
vt -0.725000 -0.368301
vt 0.743301 0.300000
vt 0.750000 0.325000
vt 0.700000 0.325000
vt 0.725000 0.368301
vt 0.743301 0.350000
vt -0.743301 -0.350000
vt -0.750000 -0.325000
vt -0.743301 -0.300000
vt -0.725000 -0.281699
vt -0.675000 0.281699
vt -0.700000 0.275000
vt 0.700000 -0.275000
vt -0.725000 0.281699
vt -0.743301 0.300000
vt -0.750000 0.325000
vt -0.743301 0.350000
vt -0.725000 0.368301
vt 0.725000 -0.368301
vt 0.700000 0.375000
vt 0.700000 -0.375000
vt 0.675000 -0.368301
vt 0.656699 -0.350000
vt 0.650000 -0.325000
vt 0.656699 -0.300000
vt 0.675000 -0.281699
vt 0.725000 0.281699
vt 0.700000 0.275000
vt 0.675000 0.281699
vt 0.656699 0.300000
vt 0.650000 0.325000
vt 0.656699 0.350000
vt 0.675000 0.368301
vt 0.801704 0.361704
vt -0.801704 0.338296
vt 0.801704 0.338296
vt -0.801704 0.361704
vt -0.738200 0.351704
vt 0.351704 0.329009
vt -0.351704 0.329009
vt -1.461800 0.351704
vt 0.351704 0.870991
vt -0.700000 0.301704
vt -0.675000 0.048296
vt -0.700000 0.048296
vt -0.725000 0.301704
vt -0.725000 0.048296
vt -0.281699 0.301704
vt -0.300000 0.048296
vt -0.281699 0.048296
vt -0.300000 0.301704
vt -0.325000 0.048296
vt -0.325000 0.301704
vt -0.350000 0.048296
vt -0.350000 0.301704
vt -0.368301 0.048296
vt -0.675000 0.301704
vt -0.368301 0.301704
vt 0.368301 0.301704
vt 0.350000 0.048296
vt 0.368301 0.048296
vt 0.350000 0.301704
vt 0.325000 0.048296
vt 0.325000 0.301704
vt 0.300000 0.048296
vt 0.300000 0.301704
vt 0.281699 0.048296
vt 0.281699 0.301704
vt 0.700000 0.301704
vt 0.725000 0.048296
vt 0.700000 0.048296
vt 0.675000 0.301704
vt 0.675000 0.048296
vt 0.725000 0.301704
vt -1.473046 0.348060
vt -0.738200 -0.351704
vt -1.461800 -0.351704
vt -0.351704 0.870991
s 1
f 211/1/52 207/2/50 209/3/51
f 295/4/90 265/5/77 267/6/78
f 251/7/70 247/8/68 249/9/69
f 293/10/89 289/11/87 295/12/90
f 269/13/79 273/14/81 271/15/80
f 255/10/72 253/16/71 245/17/67
f 223/18/58 219/19/56 221/20/57
f 241/21/65 231/22/62 237/23/64
f 275/24/82 271/15/80 273/14/81
f 275/24/82 279/9/84 277/7/83
f 283/8/85 291/16/88 285/17/86
f 263/6/76 271/25/80 275/4/82
f 267/12/78 265/13/77 257/11/73
f 243/26/66 235/27/63 217/28/55
f 263/24/76 259/14/74 261/15/75
f 215/29/54 213/30/53 205/31/49
f 295/12/90 289/11/87 269/13/79
f 199/32/46 195/33/44 197/34/45
f 283/8/85 277/7/83 279/9/84
f 203/35/48 201/36/47 193/37/43
f 293/10/89 285/17/86 291/16/88
f 229/38/61 225/39/59 227/40/60
f 257/11/73 261/15/75 259/14/74
f 267/12/78 253/16/71 255/10/72
f 251/7/70 259/14/74 263/24/76
f 245/17/67 249/9/69 247/8/68
f 255/41/72 285/42/86 293/43/89
f 277/43/83 247/44/68 251/41/70
f 241/21/65 235/27/63 243/26/66
f 229/45/61 237/46/64 231/47/62
f 223/18/58 227/40/60 225/39/59
f 217/48/55 221/49/57 219/45/56
f 215/50/54 217/48/55 213/51/53
f 211/52/52 219/45/56 223/53/58
f 205/54/49 209/55/51 207/56/50
f 215/29/54 201/36/47 203/35/48
f 199/32/46 207/2/50 211/1/52
f 193/51/43 197/56/45 195/57/44
f 203/50/48 231/47/62 241/58/65
f 225/53/59 195/57/44 199/52/46
f 106/59/21 110/60/23 133/61/1
f 164/62/26 160/63/24 183/64/16
f 206/65/23 210/66/25 233/67/1
f 112/60/24 108/59/22 131/61/16
f 172/68/30 168/69/28 183/64/16
f 110/60/23 114/70/25 133/61/1
f 158/63/23 162/62/25 185/64/1
f 116/70/26 112/60/24 131/61/16
f 114/70/25 118/71/27 133/61/1
f 220/72/30 216/73/28 239/67/16
f 120/71/28 116/70/26 131/61/16
f 166/69/27 170/68/29 185/64/1
f 118/71/27 122/74/29 133/61/1
f 124/74/30 120/71/28 131/61/16
f 214/73/27 218/72/29 233/67/1
f 122/74/29 126/75/31 133/61/1
f 128/75/33 124/74/30 131/61/16
f 126/75/31 130/76/34 133/61/1
f 160/63/24 156/77/22 183/64/16
f 127/76/32 128/75/33 131/61/16
f 168/69/28 164/62/26 183/64/16
f 130/76/34 134/78/35 133/61/1
f 268/79/30 264/80/28 287/81/16
f 136/78/12 127/76/32 131/61/16
f 254/82/23 258/83/25 281/81/1
f 134/78/35 138/84/36 133/61/1
f 212/66/26 208/65/24 239/67/16
f 140/84/37 136/78/12 131/61/16
f 162/62/25 166/69/27 185/64/1
f 138/84/36 142/85/38 133/61/1
f 154/77/21 158/63/23 185/64/1
f 144/85/5 140/84/37 131/61/16
f 262/80/27 266/79/29 281/81/1
f 142/85/38 146/86/39 133/61/1
f 148/86/40 144/85/5 131/61/16
f 146/86/39 150/87/41 133/61/1
f 152/87/42 148/86/40 131/61/16
f 150/87/41 106/59/21 133/61/1
f 108/59/22 152/87/42 131/61/16
f 170/68/29 174/88/31 185/64/1
f 176/88/33 172/68/30 183/64/16
f 174/88/31 178/89/34 185/64/1
f 208/65/24 204/90/22 239/67/16
f 180/89/32 176/88/33 183/64/16
f 216/73/28 212/66/26 239/67/16
f 178/89/34 182/91/35 185/64/1
f 40/91/12 180/89/32 183/64/16
f 182/91/35 186/92/36 185/64/1
f 188/92/37 40/91/12 183/64/16
f 210/66/25 214/73/27 233/67/1
f 186/92/36 190/93/38 185/64/1
f 202/90/21 206/65/23 233/67/1
f 192/93/5 188/92/37 183/64/16
f 190/93/38 194/94/39 185/64/1
f 196/94/40 192/93/5 183/64/16
f 194/94/39 198/95/41 185/64/1
f 260/83/26 256/82/24 287/81/16
f 200/95/42 196/94/40 183/64/16
f 198/95/41 154/77/21 185/64/1
f 156/77/22 200/95/42 183/64/16
f 218/72/29 222/96/31 233/67/1
f 224/96/33 220/72/30 239/67/16
f 256/82/24 252/97/22 287/81/16
f 222/96/31 226/98/34 233/67/1
f 228/98/32 224/96/33 239/67/16
f 226/98/34 230/99/35 233/67/1
f 264/80/28 260/83/26 287/81/16
f 232/99/12 228/98/32 239/67/16
f 230/99/35 234/100/36 233/67/1
f 236/100/37 232/99/12 239/67/16
f 250/97/21 254/82/23 281/81/1
f 234/100/36 238/101/38 233/67/1
f 258/83/25 262/80/27 281/81/1
f 19/101/5 236/100/37 239/67/16
f 238/101/38 242/102/39 233/67/1
f 244/102/40 19/101/5 239/67/16
f 242/102/39 246/103/41 233/67/1
f 248/103/42 244/102/40 239/67/16
f 246/103/41 202/90/21 233/67/1
f 204/90/22 248/103/42 239/67/16
f 266/79/29 270/104/31 281/81/1
f 272/104/33 268/79/30 287/81/16
f 270/104/31 274/105/34 281/81/1
f 276/105/32 272/104/33 287/81/16
f 274/105/34 278/106/35 281/81/1
f 280/106/12 276/105/32 287/81/16
f 278/106/35 282/107/36 281/81/1
f 284/107/37 280/106/12 287/81/16
f 282/107/36 286/108/38 281/81/1
f 7/108/5 284/107/37 287/81/16
f 286/108/38 290/109/39 281/81/1
f 292/109/40 7/108/5 287/81/16
f 290/109/39 294/110/41 281/81/1
f 296/110/42 292/109/40 287/81/16
f 294/110/41 250/97/21 281/81/1
f 252/97/22 296/110/42 287/81/16
f 75/6/1 1/43/1 63/4/1
f 62/9/6 64/11/6 59/16/6
f 73/111/2 2/112/2 71/113/2
f 66/4/16 72/41/16 78/6/16
f 67/114/9 76/113/9 65/112/9
f 79/14/15 70/16/15 77/11/15
f 99/115/17 81/21/17 87/26/17
f 86/40/18 88/116/18 83/117/18
f 95/51/2 84/45/2 82/47/2
f 90/118/19 96/32/19 102/1/19
f 91/45/9 100/51/9 89/48/9
f 103/119/20 94/36/20 101/31/20
f 173/120/9 189/121/10 191/122/9
f 51/123/3 191/122/9 52/124/3
f 175/125/10 167/126/13 189/127/10
f 161/128/13 159/129/15 167/126/13
f 153/130/15 147/131/14 159/129/15
f 145/132/14 139/133/11 147/131/14
f 137/134/11 135/122/2 139/121/11
f 132/120/2 125/124/8 135/122/2
f 119/135/8 113/131/7 125/133/8
f 107/132/7 105/129/6 113/131/7
f 57/130/6 54/126/4 105/129/6
f 53/128/4 52/127/3 54/126/4
f 129/120/9 165/121/10 58/122/9
f 36/123/3 58/122/9 48/124/3
f 181/136/10 163/137/13 165/138/10
f 187/139/13 151/140/15 163/137/13
f 169/141/15 149/142/14 151/140/15
f 171/143/14 49/144/11 149/142/14
f 47/134/11 46/122/2 49/121/11
f 44/120/2 42/124/8 46/122/2
f 184/145/8 38/142/7 42/144/8
f 37/143/7 35/140/6 38/142/7
f 32/141/6 31/137/4 35/140/6
f 30/139/4 48/138/3 31/137/4
f 45/146/9 179/147/10 34/148/9
f 15/149/3 34/148/9 16/150/3
f 109/125/10 177/126/13 179/127/10
f 111/128/13 143/129/15 177/126/13
f 155/130/15 141/131/14 143/129/15
f 157/132/14 33/133/11 141/131/14
f 29/151/11 26/148/2 33/147/11
f 25/146/2 24/150/8 26/148/2
f 23/135/8 22/131/7 24/133/8
f 21/132/7 20/129/6 22/131/7
f 240/130/6 18/126/4 20/129/6
f 17/128/4 16/127/3 18/126/4
f 27/146/9 117/147/10 43/148/9
f 3/149/3 43/148/9 4/150/3
f 28/136/10 115/137/13 117/138/10
f 41/139/13 56/140/15 115/137/13
f 121/141/15 55/142/14 56/140/15
f 123/143/14 50/144/11 55/142/14
f 39/151/11 14/148/2 50/147/11
f 13/146/2 12/150/8 14/148/2
f 11/145/8 10/142/7 12/144/8
f 9/143/7 8/140/6 10/142/7
f 288/141/6 6/137/4 8/140/6
f 5/139/4 4/138/3 6/137/4
f 295/4/90 269/25/79 265/5/77
f 293/10/89 291/16/88 289/11/87
f 269/13/79 289/11/87 273/14/81
f 275/24/82 273/14/81 279/9/84
f 283/8/85 279/9/84 291/16/88
f 263/6/76 261/5/75 271/25/80
f 257/11/73 265/13/77 261/15/75
f 267/12/78 257/11/73 253/16/71
f 251/7/70 249/9/69 259/14/74
f 245/17/67 253/16/71 249/9/69
f 255/41/72 245/44/67 285/42/86
f 277/43/83 283/42/85 247/44/68
f 241/21/65 237/23/64 235/27/63
f 229/45/61 227/152/60 237/46/64
f 223/18/58 221/20/57 227/40/60
f 217/48/55 235/46/63 221/49/57
f 215/50/54 243/58/66 217/48/55
f 211/52/52 209/55/51 219/45/56
f 205/54/49 213/51/53 209/55/51
f 215/29/54 205/31/49 201/36/47
f 199/32/46 197/34/45 207/2/50
f 193/51/43 201/54/47 197/56/45
f 203/50/48 193/51/43 231/47/62
f 225/53/59 229/45/61 195/57/44
f 75/6/1 69/41/1 1/43/1
f 62/9/6 68/14/6 64/11/6
f 73/111/2 60/114/2 2/112/2
f 66/4/16 61/43/16 72/41/16
f 67/114/9 80/111/9 76/113/9
f 79/14/15 74/9/15 70/16/15
f 99/115/17 93/153/17 81/21/17
f 86/40/18 92/20/18 88/116/18
f 95/51/2 97/57/2 84/45/2
f 90/118/19 85/154/19 96/32/19
f 91/45/9 104/55/9 100/51/9
f 103/119/20 98/155/20 94/36/20
f 173/120/9 175/134/10 189/121/10
f 51/123/3 173/120/9 191/122/9
f 175/125/10 161/128/13 167/126/13
f 161/128/13 153/130/15 159/129/15
f 153/130/15 145/132/14 147/131/14
f 145/132/14 137/135/11 139/133/11
f 137/134/11 132/120/2 135/122/2
f 132/120/2 119/123/8 125/124/8
f 119/135/8 107/132/7 113/131/7
f 107/132/7 57/130/6 105/129/6
f 57/130/6 53/128/4 54/126/4
f 53/128/4 51/125/3 52/127/3
f 129/120/9 181/134/10 165/121/10
f 36/123/3 129/120/9 58/122/9
f 181/136/10 187/139/13 163/137/13
f 187/139/13 169/141/15 151/140/15
f 169/141/15 171/143/14 149/142/14
f 171/143/14 47/145/11 49/144/11
f 47/134/11 44/120/2 46/122/2
f 44/120/2 184/123/8 42/124/8
f 184/145/8 37/143/7 38/142/7
f 37/143/7 32/141/6 35/140/6
f 32/141/6 30/139/4 31/137/4
f 30/139/4 36/136/3 48/138/3
f 45/146/9 109/151/10 179/147/10
f 15/149/3 45/146/9 34/148/9
f 109/125/10 111/128/13 177/126/13
f 111/128/13 155/130/15 143/129/15
f 155/130/15 157/132/14 141/131/14
f 157/132/14 29/135/11 33/133/11
f 29/151/11 25/146/2 26/148/2
f 25/146/2 23/149/8 24/150/8
f 23/135/8 21/132/7 22/131/7
f 21/132/7 240/130/6 20/129/6
f 240/130/6 17/128/4 18/126/4
f 17/128/4 15/125/3 16/127/3
f 27/146/9 28/151/10 117/147/10
f 3/149/3 27/146/9 43/148/9
f 28/136/10 41/139/13 115/137/13
f 41/139/13 121/141/15 56/140/15
f 121/141/15 123/143/14 55/142/14
f 123/143/14 39/145/11 50/144/11
f 39/151/11 13/146/2 14/148/2
f 13/146/2 11/149/8 12/150/8
f 11/145/8 9/143/7 10/142/7
f 9/143/7 288/141/6 8/140/6
f 288/141/6 5/139/4 6/137/4
f 5/139/4 3/136/3 4/138/3
