# Blender 5.2.0 LTS
# www.blender.org
o Backdrop_BeachFlags
v -5.311111 26.741230 3.117692
v -5.311111 26.741230 3.117692
v -5.333260 26.937346 3.290554
v -5.333260 26.937346 3.290554
v -5.333260 26.937346 3.290554
v -5.333259 26.937346 -3.290553
v -5.333259 26.937346 -3.290553
v -5.333259 26.937346 -3.290553
v -5.311110 26.741230 -3.117692
v -5.311110 26.741230 -3.117692
v -5.311110 26.741230 -3.117692
v -5.150334 26.937346 -3.184941
v -5.150334 26.937346 -3.184941
v -5.150334 26.937346 -3.184941
v -10.849739 26.937346 0.105612
v -10.849739 26.937346 0.105612
v -10.849739 26.937346 0.105612
v -10.711110 26.741230 -0.000000
v -10.711110 26.741230 -0.000000
v -10.711110 26.741230 -0.000000
v -10.849739 26.937346 -0.105612
v -10.849739 26.937346 -0.105612
v -10.849739 26.937346 -0.105612
v -12.261446 27.631937 3.184942
v -12.261446 27.631937 3.184942
v -12.261446 27.631937 3.184942
v -12.422222 27.435822 3.117692
v -12.422222 27.435822 3.117692
v -12.422222 27.435822 3.117692
v -12.444370 27.631937 3.290554
v -12.444370 27.631937 3.290554
v -12.444370 27.631937 3.290554
v -31.799999 39.799999 0.400000
v -31.799999 39.599998 0.200000
v -12.444370 27.631937 -3.290553
v -12.444370 27.631937 -3.290553
v -12.444370 27.631937 -3.290553
v -12.422222 27.435822 -3.117691
v -12.422222 27.435822 -3.117691
v -12.422222 27.435822 -3.117691
v -12.261446 27.631937 -3.184941
v -12.261446 27.631937 -3.184941
v -12.261446 27.631937 -3.184941
v -17.960850 27.631937 0.105612
v -17.960850 27.631937 0.105612
v -17.960850 27.631937 0.105612
v -17.822222 27.435822 -0.000000
v -17.822222 27.435822 -0.000000
v -17.822222 27.435822 -0.000000
v -17.960850 27.631937 -0.105612
v -17.960850 27.631937 -0.105612
v -17.960850 27.631937 -0.105612
v -19.372557 28.696115 3.184942
v -19.372557 28.696115 3.184942
v -19.372557 28.696115 3.184942
v -19.533335 28.500000 3.117691
v -19.533335 28.500000 3.117691
v -19.533335 28.500000 3.117691
v -19.555481 28.696115 3.290554
v -19.555481 28.696115 3.290554
v -19.555481 28.696115 3.290554
v -19.555481 28.696115 -3.290553
v -19.555481 28.696115 -3.290553
v -19.555481 28.696115 -3.290553
v -19.533335 28.500000 -3.117691
v -19.533335 28.500000 -3.117691
v -19.533335 28.500000 -3.117691
v -19.372557 28.696115 -3.184941
v -19.372557 28.696115 -3.184941
v -19.372557 28.696115 -3.184941
v -25.071962 28.696115 0.105612
v -25.071962 28.696115 0.105612
v -25.071962 28.696115 0.105612
v -24.933334 28.500000 -0.000000
v -24.933334 28.500000 -0.000000
v -24.933334 28.500000 -0.000000
v -25.071962 28.696115 -0.105612
v -25.071962 28.696115 -0.105612
v -25.071962 28.696115 -0.105612
v -26.483667 30.001524 3.184942
v -26.483667 30.001524 3.184942
v -26.483667 30.001524 3.184942
v -26.644445 29.805408 3.117691
v -26.644445 29.805408 3.117691
v -26.644445 29.805408 3.117691
v -26.666592 30.001524 3.290554
v -26.666592 30.001524 3.290554
v -26.666592 30.001524 3.290554
v -32.000000 39.799999 0.200000
v -31.799999 40.200001 0.400000
v -31.799999 40.400002 0.200000
v -32.000000 40.200001 0.200000
v -32.000000 0.000000 -1.169060
v -32.173206 0.200000 -1.299999
v -31.826796 0.200000 -1.300000
v -32.000000 42.000000 -1.169060
v -31.826796 41.799999 -1.300000
v -32.173206 41.799999 -1.300000
v -30.987566 0.000000 -0.584530
v -30.960770 0.200000 -0.800000
v -30.787565 0.200000 -0.500000
v -30.987566 42.000000 -0.584530
v -30.787565 41.799999 -0.500000
v -30.960770 41.799999 -0.800000
v -30.987566 0.000000 0.584530
v -30.787565 0.200000 0.500000
v -30.960770 0.200000 0.800000
v -30.987566 42.000000 0.584530
v -30.960770 41.799999 0.800000
v -30.787565 41.799999 0.500000
v -32.000000 0.000000 1.169060
v -31.826796 0.200000 1.300000
v -32.173206 0.200000 1.300000
v -32.000000 42.000000 1.169060
v -32.173206 41.799999 1.299999
v -31.826796 41.799999 1.300000
v -33.012436 0.000000 0.584531
v -33.039230 0.200000 0.800001
v -33.212437 0.200000 0.500000
v -33.012436 42.000000 0.584531
v -33.212437 41.799999 0.500000
v -33.039230 41.799999 0.800000
v -33.012436 0.000000 -0.584531
v -33.212437 0.200000 -0.500000
v -33.039230 0.200000 -0.800000
v -33.012436 42.000000 -0.584531
v -33.039230 41.799999 -0.800001
v -33.212437 41.799999 -0.500000
v 32.000000 0.000000 -1.169060
v 31.826796 0.200000 -1.300000
v 32.173206 0.200000 -1.300000
v 32.000000 42.000000 -1.169060
v 32.173206 41.799999 -1.299999
v 31.826796 41.799999 -1.300000
v 33.012436 0.000000 -0.584531
v 33.039230 0.200000 -0.800001
v 33.212437 0.200000 -0.500000
v 33.012436 42.000000 -0.584531
v 33.212437 41.799999 -0.500000
v 33.039230 41.799999 -0.800000
v 33.012436 0.000000 0.584531
v 33.212437 0.200000 0.500000
v 33.039230 0.200000 0.800000
v 33.012436 42.000000 0.584531
v 33.039230 41.799999 0.800001
v 33.212437 41.799999 0.500000
v 32.000000 0.000000 1.169060
v 32.173206 0.200000 1.299999
v 31.826796 0.200000 1.300000
v 32.000000 42.000000 1.169060
v 31.826796 41.799999 1.300000
v 32.173206 41.799999 1.300000
v 30.987566 0.000000 0.584530
v 30.960770 0.200000 0.800000
v 30.787565 0.200000 0.500000
v 30.987566 42.000000 0.584530
v 30.787565 41.799999 0.500000
v 30.960770 41.799999 0.800000
v 30.987566 0.000000 -0.584530
v 30.787565 0.200000 -0.500000
v 30.960770 0.200000 -0.800000
v 30.987566 42.000000 -0.584530
v 30.960770 41.799999 -0.800000
v 30.787565 41.799999 -0.500000
v -31.799999 39.599998 -0.200000
v -32.000000 39.799999 -0.200000
v -31.799999 39.799999 -0.400000
v -31.799999 40.400002 -0.200000
v -31.799999 40.200001 -0.400000
v -32.000000 40.200001 -0.200000
v 31.799999 39.599998 0.200000
v 32.000000 39.799999 0.200000
v 31.799999 39.799999 0.400000
v 31.799999 40.400002 0.200000
v 31.799999 40.200001 0.400000
v 32.000000 40.200001 0.200000
v 31.799999 39.599998 -0.200000
v 31.799999 39.799999 -0.400000
v 32.000000 39.799999 -0.200000
v 31.799999 40.400002 -0.200000
v 32.000000 40.200001 -0.200000
v 31.799999 40.200001 -0.400000
v -32.044445 29.805408 -0.000000
v -32.183075 30.001524 0.105611
v -32.183075 30.001524 -0.105612
v -26.666592 30.001524 -3.290553
v -28.739967 38.609291 -0.105611
v -28.739967 38.609291 0.105612
v -26.644445 29.805408 -3.117691
v -26.666592 30.001524 -3.290553
v -26.483667 30.001524 -3.184941
v -28.444447 38.805408 -0.000000
v -28.205221 38.609291 -0.203124
v -28.388145 38.609291 -0.308736
v -26.644445 29.805408 3.117691
v -26.483667 30.001524 3.184942
v -26.666592 30.001524 3.290554
v -26.666592 30.001524 -3.290553
v -28.388145 38.609291 0.308735
v -28.205221 38.609291 0.203124
v -24.933334 28.500000 -0.000000
v -25.071962 28.696115 0.105612
v -25.071962 28.696115 -0.105612
v -26.666592 30.001524 -3.290553
v -21.628857 37.303883 -0.105611
v -21.628857 37.303883 0.105612
v -19.533335 28.500000 -3.117691
v -19.555481 28.696115 -3.290553
v -19.372557 28.696115 -3.184941
v -21.333334 37.500000 -0.000000
v -21.094110 37.303883 -0.203124
v -21.277035 37.303883 -0.308736
v -19.533335 28.500000 3.117691
v -19.372557 28.696115 3.184942
v -19.555481 28.696115 3.290554
v -26.644445 29.805408 -3.117691
v -21.277035 37.303883 0.308735
v -21.094110 37.303883 0.203124
v -17.822222 27.435822 -0.000000
v -17.960850 27.631937 0.105612
v -17.960850 27.631937 -0.105612
v -26.644445 29.805408 -3.117691
v -14.517744 36.239704 -0.105611
v -14.517745 36.239704 0.105612
v -12.422222 27.435822 -3.117691
v -12.444370 27.631937 -3.290553
v -12.261446 27.631937 -3.184941
v -14.222223 36.435822 0.000000
v -13.982999 36.239704 -0.203124
v -14.165923 36.239704 -0.308736
v -12.422222 27.435822 3.117692
v -12.261446 27.631937 3.184942
v -12.444370 27.631937 3.290554
v -26.644445 29.805408 -3.117691
v -14.165923 36.239704 0.308735
v -13.982999 36.239704 0.203124
v -10.711110 26.741230 -0.000000
v -10.849739 26.937346 0.105612
v -10.849739 26.937346 -0.105612
v -26.483667 30.001524 -3.184941
v -7.406634 35.545113 -0.105611
v -7.406634 35.545113 0.105612
v -5.311110 26.741230 -3.117692
v -5.333259 26.937346 -3.290553
v -5.150334 26.937346 -3.184941
v -7.111112 35.741230 0.000000
v -6.871888 35.545113 -0.203124
v -7.054812 35.545113 -0.308736
v -5.311111 26.741230 3.117692
v -5.150335 26.937346 3.184942
v -5.333260 26.937346 3.290554
v -26.483667 30.001524 -3.184941
v -7.054812 35.545113 0.308736
v -6.871887 35.545113 0.203124
v -3.600000 26.500000 -0.000000
v -3.738629 26.696115 0.105611
v -3.738629 26.696115 -0.105612
v -26.483667 30.001524 -3.184941
v -0.295522 35.303883 -0.105611
v -0.295523 35.303883 0.105612
v 1.800000 26.500000 -3.117692
v 1.777852 26.696115 -3.290553
v 1.960777 26.696115 -3.184941
v -0.000000 35.500000 0.000000
v 0.239223 35.303883 -0.203124
v 0.056299 35.303883 -0.308736
v 1.800000 26.500000 3.117692
v 1.960777 26.696115 3.184942
v 1.777852 26.696115 3.290554
v -32.183075 30.001524 0.105611
v 0.056299 35.303883 0.308736
v 0.239224 35.303883 0.203124
v 3.511111 26.741230 -0.000000
v 3.372482 26.937346 0.105611
v 3.372482 26.937346 -0.105612
v -32.183075 30.001524 0.105611
v 6.815588 35.545113 -0.105611
v 6.815588 35.545113 0.105612
v 8.911112 26.741230 -3.117691
v 8.888964 26.937346 -3.290553
v 9.071888 26.937346 -3.184941
v 7.111111 35.741230 0.000000
v 7.350334 35.545113 -0.203124
v 7.167410 35.545113 -0.308736
v 8.911111 26.741230 3.117692
v 9.071887 26.937346 3.184942
v 8.888963 26.937346 3.290554
v -32.183075 30.001524 0.105611
v 7.167410 35.545113 0.308736
v 7.350335 35.545113 0.203124
v 10.622223 27.435822 -0.000000
v 10.483594 27.631937 0.105612
v 10.483594 27.631937 -0.105612
v -32.044445 29.805408 -0.000000
v 13.926701 36.239704 -0.105611
v 13.926700 36.239704 0.105612
v 16.022223 27.435822 -3.117691
v 16.000076 27.631937 -3.290553
v 16.183001 27.631937 -3.184941
v 14.222223 36.435822 0.000000
v 14.461446 36.239704 -0.203124
v 14.278522 36.239704 -0.308736
v 16.022221 27.435822 3.117691
v 16.182999 27.631937 3.184942
v 16.000074 27.631937 3.290554
v -32.044445 29.805408 -0.000000
v 14.278522 36.239704 0.308735
v 14.461446 36.239704 0.203124
v 17.733334 28.500000 -0.000000
v 17.594706 28.696115 0.105612
v 17.594706 28.696115 -0.105612
v -32.044445 29.805408 -0.000000
v 21.037811 37.303883 -0.105611
v 21.037811 37.303883 0.105612
v 23.133333 28.500000 -3.117691
v 23.111187 28.696115 -3.290553
v 23.294111 28.696115 -3.184941
v 21.333334 37.500000 -0.000000
v 21.572557 37.303883 -0.203124
v 21.389633 37.303883 -0.308736
v 23.133333 28.500000 3.117691
v 23.294111 28.696115 3.184942
v 23.111187 28.696115 3.290554
v -32.183075 30.001524 -0.105612
v 21.389633 37.303883 0.308735
v 21.572557 37.303883 0.203124
v 24.844444 29.805408 -0.000000
v 24.705816 30.001524 0.105612
v 24.705816 30.001524 -0.105612
v -32.183075 30.001524 -0.105612
v 28.148922 38.609291 -0.105611
v 28.148922 38.609291 0.105612
v 30.244444 29.805408 -3.117691
v 30.222298 30.001524 -3.290554
v 30.405222 30.001524 -3.184941
v 28.444447 38.805408 -0.000000
v 28.683668 38.609291 -0.203124
v 28.500744 38.609291 -0.308736
v 30.244444 29.805408 3.117691
v 30.405222 30.001524 3.184942
v 30.222298 30.001524 3.290554
v -32.183075 30.001524 -0.105612
v 28.500744 38.609291 0.308735
v 28.683668 38.609291 0.203124
v -5.311111 26.741230 3.117692
v -5.150335 26.937346 3.184942
v -5.150335 26.937346 3.184942
v -5.150335 26.937346 3.184942
v -3.738629 26.696115 -0.105612
v -3.738629 26.696115 -0.105612
v -3.738629 26.696115 -0.105612
v -3.600000 26.500000 -0.000000
v -3.600000 26.500000 -0.000000
v -3.600000 26.500000 -0.000000
v -3.738629 26.696115 0.105611
v -3.738629 26.696115 0.105611
v -3.738629 26.696115 0.105611
v 1.960777 26.696115 -3.184941
v 1.960777 26.696115 -3.184941
v 1.960777 26.696115 -3.184941
v 1.800000 26.500000 -3.117692
v 1.800000 26.500000 -3.117692
v 1.800000 26.500000 -3.117692
v 1.777852 26.696115 -3.290553
v 1.777852 26.696115 -3.290553
v 1.777852 26.696115 -3.290553
v 1.777852 26.696115 3.290554
v 1.777852 26.696115 3.290554
v 1.777852 26.696115 3.290554
v 1.800000 26.500000 3.117692
v 1.800000 26.500000 3.117692
v 1.800000 26.500000 3.117692
v 1.960777 26.696115 3.184942
v 1.960777 26.696115 3.184942
v 1.960777 26.696115 3.184942
v 3.372482 26.937346 -0.105612
v 3.372482 26.937346 -0.105612
v 3.372482 26.937346 -0.105612
v 3.511111 26.741230 -0.000000
v 3.511111 26.741230 -0.000000
v 3.511111 26.741230 -0.000000
v 3.372482 26.937346 0.105611
v 3.372482 26.937346 0.105611
v 3.372482 26.937346 0.105611
v 9.071888 26.937346 -3.184941
v 9.071888 26.937346 -3.184941
v 9.071888 26.937346 -3.184941
v 8.911112 26.741230 -3.117691
v 8.911112 26.741230 -3.117691
v 8.911112 26.741230 -3.117691
v 8.888964 26.937346 -3.290553
v 8.888964 26.937346 -3.290553
v 8.888964 26.937346 -3.290553
v 8.888963 26.937346 3.290554
v 8.888963 26.937346 3.290554
v 8.888963 26.937346 3.290554
v 8.911111 26.741230 3.117692
v 8.911111 26.741230 3.117692
v 8.911111 26.741230 3.117692
v 9.071887 26.937346 3.184942
v 9.071887 26.937346 3.184942
v 9.071887 26.937346 3.184942
v 10.483594 27.631937 -0.105612
v 10.483594 27.631937 -0.105612
v 10.483594 27.631937 -0.105612
v 10.622223 27.435822 -0.000000
v 10.622223 27.435822 -0.000000
v 10.622223 27.435822 -0.000000
v 10.483594 27.631937 0.105612
v 10.483594 27.631937 0.105612
v 10.483594 27.631937 0.105612
v 16.183001 27.631937 -3.184941
v 16.183001 27.631937 -3.184941
v 16.183001 27.631937 -3.184941
v 16.022223 27.435822 -3.117691
v 16.022223 27.435822 -3.117691
v 16.022223 27.435822 -3.117691
v 16.000076 27.631937 -3.290553
v 16.000076 27.631937 -3.290553
v 16.000076 27.631937 -3.290553
v 16.000074 27.631937 3.290554
v 16.000074 27.631937 3.290554
v 16.000074 27.631937 3.290554
v 16.022221 27.435822 3.117691
v 16.022221 27.435822 3.117691
v 16.022221 27.435822 3.117691
v 16.182999 27.631937 3.184942
v 16.182999 27.631937 3.184942
v 16.182999 27.631937 3.184942
v 17.594706 28.696115 -0.105612
v 17.594706 28.696115 -0.105612
v 17.594706 28.696115 -0.105612
v 17.733334 28.500000 -0.000000
v 17.733334 28.500000 -0.000000
v 17.733334 28.500000 -0.000000
v 17.594706 28.696115 0.105612
v 17.594706 28.696115 0.105612
v 17.594706 28.696115 0.105612
v 23.294111 28.696115 -3.184941
v 23.294111 28.696115 -3.184941
v 23.294111 28.696115 -3.184941
v 23.133333 28.500000 -3.117691
v 23.133333 28.500000 -3.117691
v 23.133333 28.500000 -3.117691
v 23.111187 28.696115 -3.290553
v 23.111187 28.696115 -3.290553
v 23.111187 28.696115 -3.290553
v 23.111187 28.696115 3.290554
v 23.111187 28.696115 3.290554
v 23.111187 28.696115 3.290554
v 23.133333 28.500000 3.117691
v 23.133333 28.500000 3.117691
v 23.133333 28.500000 3.117691
v 23.294111 28.696115 3.184942
v 23.294111 28.696115 3.184942
v 23.294111 28.696115 3.184942
v 24.705816 30.001524 -0.105612
v 24.705816 30.001524 -0.105612
v 24.705816 30.001524 -0.105612
v 24.844444 29.805408 -0.000000
v 24.844444 29.805408 -0.000000
v 24.844444 29.805408 -0.000000
v 24.705816 30.001524 0.105612
v 24.705816 30.001524 0.105612
v 24.705816 30.001524 0.105612
v 30.405222 30.001524 -3.184941
v 30.405222 30.001524 -3.184941
v 30.405222 30.001524 -3.184941
v 30.244444 29.805408 -3.117691
v 30.244444 29.805408 -3.117691
v 30.244444 29.805408 -3.117691
v 30.222298 30.001524 -3.290554
v 30.222298 30.001524 -3.290554
v 30.222298 30.001524 -3.290554
v 30.222298 30.001524 3.290554
v 30.222298 30.001524 3.290554
v 30.222298 30.001524 3.290554
v 30.244444 29.805408 3.117691
v 30.244444 29.805408 3.117691
v 30.244444 29.805408 3.117691
v 30.405222 30.001524 3.184942
v 30.405222 30.001524 3.184942
v 30.405222 30.001524 3.184942
v 33.012436 42.000000 -0.584531
v 33.012436 42.000000 0.584531
v -31.799999 40.200001 -0.400000
v -31.799999 39.799999 -0.400000
v -32.000000 39.799999 -0.200000
v -32.000000 40.200001 -0.200000
v -30.987566 0.000000 -0.584530
v -32.000000 0.000000 -1.169060
v 32.000000 42.000000 -1.169060
v 31.799999 39.599998 -0.200000
v -31.799999 39.599998 -0.200000
v 31.799999 39.799999 -0.400000
v -32.000000 42.000000 -1.169060
v -30.987566 42.000000 -0.584530
v 33.012436 0.000000 0.584531
v 33.012436 0.000000 -0.584531
v -30.987566 0.000000 0.584530
v -31.799999 40.400002 -0.200000
v 31.799999 40.400002 -0.200000
v 31.799999 40.200001 -0.400000
v -30.987566 42.000000 0.584530
v 31.799999 40.200001 0.400000
v 31.799999 39.799999 0.400000
v 32.000000 39.799999 0.200000
v 32.000000 40.200001 0.200000
v -32.000000 0.000000 1.169060
v 32.000000 0.000000 -1.169060
v -32.000000 42.000000 1.169060
v -33.012436 0.000000 0.584531
v -31.799999 39.599998 0.200000
v 31.799999 39.599998 0.200000
v -31.799999 39.799999 0.400000
v -33.012436 42.000000 0.584531
v -33.012436 0.000000 -0.584531
v 31.799999 40.400002 0.200000
v -31.799999 40.400002 0.200000
v -31.799999 40.200001 0.400000
v -33.012436 42.000000 -0.584531
v 32.000000 40.200001 -0.200000
v 32.000000 0.000000 1.169060
v -32.000000 40.200001 0.200000
v 32.000000 42.000000 1.169060
v 32.000000 39.799999 -0.200000
v 30.987566 0.000000 0.584530
v -32.000000 39.799999 0.200000
v 30.987566 42.000000 0.584530
v 30.987566 0.000000 -0.584530
v 30.987566 42.000000 -0.584530
vn 0.7733 -0.6340 -0.0000
vn 0.4083 -0.5772 0.7072
vn -0.3867 -0.6340 0.6697
vn 0.4642 0.3714 0.8041
vn 0.4642 0.3714 -0.8041
vn -0.3867 -0.6340 -0.6697
vn 0.4083 -0.5772 -0.7072
vn -0.9285 0.3714 -0.0000
vn -0.8166 -0.5772 -0.0000
vn -0.0000 -0.0000 1.0000
vn -0.0000 -1.0000 -0.0000
vn -1.0000 -0.0000 -0.0000
vn -0.0000 1.0000 -0.0000
vn -0.2677 -0.3400 -0.9015
vn 0.2677 -0.3400 -0.9015
vn 0.2677 0.3400 -0.9015
vn -0.2677 0.3400 -0.9015
vn 0.6469 -0.3400 -0.6826
vn 0.9146 -0.3400 -0.2189
vn 0.9146 0.3400 -0.2189
vn 0.6469 0.3400 -0.6826
vn 0.9146 -0.3400 0.2189
vn 0.6469 -0.3400 0.6826
vn 0.6469 0.3400 0.6826
vn 0.9146 0.3400 0.2189
vn 0.2677 -0.3400 0.9015
vn -0.2677 -0.3400 0.9015
vn -0.2677 0.3400 0.9015
vn 0.2677 0.3400 0.9015
vn -0.6469 -0.3400 0.6826
vn -0.9146 -0.3400 0.2189
vn -0.9146 0.3400 0.2189
vn -0.6469 0.3400 0.6826
vn -0.9146 -0.3400 -0.2189
vn -0.6469 -0.3400 -0.6826
vn -0.6469 0.3400 -0.6826
vn -0.9146 0.3400 -0.2189
vn -0.0000 -0.0000 -1.0000
vn 1.0000 -0.0000 -0.0000
vn -0.4903 0.1961 0.8492
vn -0.4903 0.1961 -0.8492
vn -0.6955 0.5685 -0.4394
vn -0.6955 0.5685 0.4394
vn 0.9806 0.1961 -0.0000
vn 0.7283 0.5685 -0.3826
vn -0.0328 0.5685 -0.8220
vn -0.0328 0.5685 0.8220
vn 0.7283 0.5685 0.3826
vn 0.6265 0.6904 -0.3617
vn 0.6265 0.6904 0.3617
vn -0.4606 0.4606 -0.7588
vn -0.4606 -0.4606 -0.7588
vn -0.7588 -0.4606 -0.4606
vn -0.7588 0.4606 -0.4606
vn 0.6265 -0.6904 -0.3617
vn -0.0000 -0.6904 -0.7235
vn -0.0000 0.6904 -0.7235
vn 0.4606 -0.7588 -0.4606
vn -0.4606 -0.7588 -0.4606
vn 0.4606 -0.4606 -0.7588
vn 0.6265 -0.6904 0.3617
vn -0.4606 0.7588 -0.4606
vn 0.4606 0.7588 -0.4606
vn 0.4606 0.4606 -0.7588
vn 0.4606 0.4606 0.7588
vn 0.4606 -0.4606 0.7588
vn 0.7588 -0.4606 0.4606
vn 0.7588 0.4606 0.4606
vn -0.0000 -0.6904 0.7235
vn -0.0000 0.6904 0.7235
vn -0.6265 -0.6904 0.3617
vn -0.4606 -0.7588 0.4606
vn 0.4606 -0.7588 0.4606
vn -0.4606 -0.4606 0.7588
vn -0.6265 0.6904 0.3617
vn -0.6265 -0.6904 -0.3617
vn 0.4606 0.7588 0.4606
vn -0.4606 0.7588 0.4606
vn -0.4606 0.4606 0.7588
vn -0.6265 0.6904 -0.3617
vn 0.7588 0.4606 -0.4606
vn -0.7588 0.4606 0.4606
vn 0.7588 -0.4605 -0.4606
vn -0.7588 -0.4605 0.4606
vt -1.600000 2.100000
vt -1.591340 2.090000
vt -1.608660 2.090000
vt -1.600000 0.000000
vt -1.608660 0.010000
vt -1.591340 0.010000
vt -1.590000 2.010000
vt -1.590000 2.020000
vt -1.600000 2.010000
vt -1.590000 1.980000
vt -1.590000 1.990000
vt -1.600000 1.990000
vt 0.029227 0.000000
vt 0.040000 0.010000
vt 0.025000 0.010000
vt 0.029227 2.100000
vt 0.025000 2.090000
vt 0.040000 2.090000
vt -0.029227 0.000000
vt -0.025000 0.010000
vt -0.040000 0.010000
vt -0.029227 2.100000
vt -0.040000 2.090000
vt -0.025000 2.090000
vt -1.591340 0.010000
vt -1.608660 0.010000
vt -0.029227 0.000000
vt -0.040000 0.010000
vt -0.025000 0.010000
vt -0.029227 2.100000
vt -0.040000 2.090000
vt 0.029227 0.000000
vt 0.025000 0.010000
vt 0.040000 0.010000
vt 0.029227 2.100000
vt 0.040000 2.090000
vt 1.600000 0.000000
vt 1.591340 0.010000
vt 1.608660 0.010000
vt 1.600000 2.100000
vt 1.608660 2.090000
vt 1.591340 2.090000
vt 0.040000 0.010000
vt 0.040000 2.090000
vt -0.040000 0.010000
vt -0.040000 2.090000
vt 1.608660 0.010000
vt 1.591340 0.010000
vt -0.029227 0.000000
vt -0.040000 0.010000
vt -0.029227 2.100000
vt -0.040000 2.090000
vt 0.029227 0.000000
vt 0.040000 0.010000
vt 0.029227 2.100000
vt 0.040000 2.090000
vt 1.590000 1.980000
vt 1.600000 1.990000
vt 1.590000 1.990000
vt 1.590000 2.020000
vt 1.590000 2.010000
vt 1.600000 2.010000
vt 0.000000 1.490270
vt -0.005281 1.500076
vt 0.005281 1.500076
vt -1.422222 0.000000
vt -1.436998 0.005281
vt -1.436998 -0.005281
vt -1.332222 1.490270
vt -1.333330 1.500076
vt -1.324183 1.500076
vt -1.410261 0.010156
vt -1.419407 0.015437
vt -1.419407 -0.015437
vt -1.410261 -0.010156
vt 0.000000 1.425000
vt -0.005281 1.434806
vt 0.005281 1.434806
vt -1.066667 0.000000
vt -1.081443 0.005281
vt -1.081443 -0.005281
vt -0.976667 1.425000
vt -0.977774 1.434806
vt -0.968628 1.434806
vt -1.054706 0.010156
vt -1.063852 0.015437
vt -1.063852 -0.015437
vt -1.054706 -0.010156
vt 0.000000 1.371791
vt -0.005281 1.381597
vt 0.005281 1.381597
vt -0.711111 -0.000000
vt -0.725887 0.005281
vt -0.725887 -0.005281
vt -0.621111 1.371791
vt -0.622218 1.381597
vt -0.613072 1.381597
vt -0.699150 0.010156
vt -0.708296 0.015437
vt -0.708296 -0.015437
vt -0.699150 -0.010156
vt 0.000000 1.337062
vt -0.005281 1.346867
vt 0.005281 1.346867
vt -0.355556 -0.000000
vt -0.370332 0.005281
vt -0.370332 -0.005281
vt -0.265556 1.337062
vt -0.266663 1.346867
vt -0.257517 1.346867
vt -0.343594 0.010156
vt -0.352741 0.015437
vt -0.265556 1.337062
vt -0.257517 1.346867
vt -0.266663 1.346867
vt -0.352741 -0.015437
vt -0.343594 -0.010156
vt 0.000000 1.325000
vt -0.005281 1.334806
vt 0.005281 1.334806
vt -0.000000 0.000000
vt -0.014776 0.005281
vt -0.014776 -0.005281
vt 0.090000 1.325000
vt 0.088893 1.334806
vt 0.098039 1.334806
vt 0.011961 0.010156
vt 0.002815 0.015437
vt 0.090000 1.325000
vt 0.098039 1.334806
vt 0.088893 1.334806
vt 0.002815 -0.015437
vt 0.011961 -0.010156
vt 0.000000 1.337062
vt -0.005281 1.346867
vt 0.005281 1.346867
vt 0.355556 -0.000000
vt 0.340779 0.005281
vt 0.340779 -0.005281
vt 0.445556 1.337062
vt 0.444448 1.346867
vt 0.453594 1.346867
vt 0.367517 0.010156
vt 0.358370 0.015437
vt 0.445556 1.337062
vt 0.453594 1.346867
vt 0.444448 1.346867
vt 0.358371 -0.015437
vt 0.367517 -0.010156
vt 0.000000 1.371791
vt 0.005281 1.381597
vt 0.711111 -0.000000
vt 0.696335 0.005281
vt 0.696335 -0.005281
vt 0.801111 1.371791
vt 0.800004 1.381597
vt 0.809150 1.381597
vt 0.723072 0.010156
vt 0.713926 0.015437
vt 0.801111 1.371791
vt 0.809150 1.381597
vt 0.800004 1.381597
vt 0.713926 -0.015437
vt 0.723072 -0.010156
vt 1.066667 0.000000
vt 1.051891 0.005281
vt 1.051891 -0.005281
vt 1.156667 1.425000
vt 1.155559 1.434806
vt 1.164706 1.434806
vt 1.078628 0.010156
vt 1.069482 0.015437
vt 1.069482 -0.015437
vt 1.078628 -0.010156
vt 0.000000 1.490270
vt -0.005281 1.500076
vt 0.005281 1.500076
vt 1.422222 0.000000
vt 1.407446 0.005281
vt 1.407446 -0.005281
vt 1.512222 1.490270
vt 1.511115 1.500076
vt 1.520261 1.500076
vt 1.434183 0.010156
vt 1.425037 0.015437
vt 1.425037 -0.015437
vt 1.434183 -0.010156
vt 1.660622 0.025000
vt 1.650622 -0.029227
vt 1.660622 -0.025000
vt -1.591340 0.065000
vt -1.549378 0.029227
vt -1.600000 0.058453
vt 1.608660 0.065000
vt 1.650622 0.029227
vt 1.651962 0.040000
vt -1.591340 0.065000
vt -1.549378 0.029227
vt -1.548038 0.040000
vt -1.539378 -0.025000
vt -1.539378 0.025000
vt -1.549378 -0.029227
vt -1.591340 -0.065000
vt -1.549378 -0.029227
vt -1.548038 -0.040000
vt 1.608660 0.065000
vt 1.600000 0.058453
vt -1.591340 -0.065000
vt -1.600000 -0.058453
vt -1.608660 -0.065000
vt -1.650622 -0.029227
vt -1.608660 -0.065000
vt -1.651962 -0.040000
vt -1.660622 0.025000
vt -1.660622 -0.025000
vt -1.650622 0.029227
vt -1.608660 0.065000
vt -1.651962 0.040000
vt -1.608660 0.065000
vt 1.590000 -0.010000
vt 1.600000 0.010000
vt 1.590000 0.010000
vt 1.608660 -0.065000
vt 1.651962 -0.040000
vt -1.590000 0.010000
vt -1.600000 -0.010000
vt -1.590000 -0.010000
vt 1.608660 -0.065000
vt 1.600000 -0.058453
vt 1.590000 0.010000
vt 1.600000 -0.010000
vt 1.590000 -0.010000
vt 1.591340 -0.065000
vt 1.549378 -0.029227
vt 1.591340 -0.065000
vt 1.549378 -0.029227
vt 1.548038 -0.040000
vt 1.539378 0.025000
vt 1.539378 -0.025000
vt -1.590000 -0.010000
vt -1.600000 0.010000
vt -1.590000 0.010000
vt 1.549378 0.029227
vt 1.591340 0.065000
vt 1.549378 0.029227
vt 1.548038 0.040000
vt 1.591340 0.065000
vt -1.602222 1.490270
vt -1.609154 1.500076
vt -1.253598 1.434806
vt -1.246667 1.425000
vt -0.005281 1.930465
vt -1.419407 1.930465
vt -1.410261 1.930465
vt -0.898043 1.381597
vt -0.891111 1.371791
vt 0.159247 1.500076
vt -0.155885 1.490270
vt 0.155885 1.490270
vt -0.005281 1.865194
vt -1.063852 1.865194
vt -1.054706 1.865194
vt 0.159247 1.434806
vt -0.155885 1.425000
vt 0.155885 1.425000
vt -0.542487 1.346867
vt -0.535555 1.337062
vt -0.005281 1.811985
vt -0.699150 1.811985
vt -0.708296 1.811985
vt 0.159247 1.381597
vt -0.155885 1.371791
vt 0.155885 1.371791
vt -0.180000 1.325000
vt -0.186931 1.334806
vt -0.005281 1.777256
vt -0.352741 1.777256
vt -0.343594 1.777256
vt -0.159247 1.346867
vt 0.155885 1.337062
vt 0.159247 1.346867
vt 0.175556 1.337062
vt 0.168624 1.346867
vt -0.343594 1.777256
vt -0.352741 1.777256
vt -0.005281 1.765194
vt 0.011961 1.765194
vt 0.002815 1.765194
vt -0.159247 1.334806
vt 0.155885 1.325000
vt 0.159247 1.334806
vt 0.524180 1.381597
vt 0.531111 1.371791
vt 0.011961 1.765194
vt 0.002815 1.765194
vt -0.186931 1.334806
vt 0.358370 1.777256
vt 0.367517 1.777256
vt 0.155885 1.337062
vt 0.879735 1.434806
vt 0.886667 1.425000
vt 0.367517 1.777256
vt 0.358371 1.777256
vt -0.005281 1.811985
vt 0.713926 1.811985
vt 0.723072 1.811985
vt -0.159247 1.381597
vt 0.155885 1.371791
vt 1.235291 1.500076
vt 1.242222 1.490270
vt 1.069482 1.865194
vt 1.078628 1.865194
vt -0.159247 1.434806
vt -0.005281 1.930465
vt 1.425037 1.930465
vt 1.434183 1.930465
vt -0.010000 2.010000
vt 0.010000 1.990000
vt -0.010000 1.990000
vt -1.548038 0.010000
vt -1.651962 2.090000
vt -1.651962 0.010000
vt -1.548038 2.090000
vt -1.548038 0.010000
vt -1.651962 0.010000
vt 1.651962 0.010000
vt 1.548038 2.090000
vt 1.548038 0.010000
vt 1.651962 2.090000
vt 1.651962 0.010000
vt 1.548038 0.010000
vt 0.010000 2.010000
vt -0.010000 1.990000
vt 0.010000 1.990000
vt -1.602222 0.000000
vt -1.332222 0.155885
vt -1.332222 -0.155885
vt -1.436998 1.930465
vt 0.010156 1.930465
vt -0.159247 1.500076
vt -0.976667 0.155885
vt -0.976667 -0.155885
vt -1.246667 0.000000
vt -1.081443 1.865194
vt 0.010156 1.865194
vt -0.621111 0.155885
vt -0.621111 -0.155885
vt -0.891111 0.000000
vt -0.725887 1.811985
vt 0.010156 1.811985
vt -0.265556 0.155885
vt -0.265556 -0.155885
vt -0.535555 0.000000
vt -0.370332 1.777256
vt 0.010156 1.777256
vt 0.090000 0.155885
vt 0.090000 -0.155885
vt -0.180000 0.000000
vt -0.014776 1.765194
vt 0.010156 1.765194
vt 0.445556 0.155885
vt 0.445556 -0.155885
vt 0.175556 0.000000
vt 0.340779 1.777256
vt 0.801111 0.155885
vt 0.801111 -0.155885
vt 0.531111 0.000000
vt 0.696335 1.811985
vt 1.156667 0.155885
vt 1.156667 -0.155885
vt 0.886667 0.000000
vt 1.051891 1.865194
vt 1.512222 0.155885
vt 1.512222 -0.155885
vt 1.242222 0.000000
vt 1.407446 1.930465
vt -1.548038 0.040000
vt 1.651962 0.040000
vt -1.548038 -0.040000
vt -1.651962 -0.040000
vt -1.651962 0.040000
vt 1.600000 -0.010000
vt -1.600000 0.010000
vt 1.651962 -0.040000
vt 1.600000 0.010000
vt 1.548038 -0.040000
vt -1.600000 -0.010000
vt 1.548038 0.040000
vt 0.005281 1.930465
vt 0.005281 1.865194
vt 0.005281 1.811985
vt 0.005281 1.777256
vt -0.155885 1.337062
vt 0.005281 1.765194
vt -0.155885 1.325000
vt 0.005281 1.777256
vt 0.005281 1.811985
vt -0.155885 1.371791
vt 0.005281 1.930465
vt 0.010000 2.010000
vt -0.010000 2.010000
vt -0.010156 1.930465
vt -0.010156 1.865194
vt -0.725887 1.811985
vt -0.010156 1.811985
vt -0.010156 1.777256
vt -0.014776 1.765194
vt -0.010156 1.765194
vt 0.696335 1.811985
vt -0.010156 1.811985
s 1
f 496/1/57 97/2/16 98/3/17
f 491/4/56 94/5/14 95/6/15
f 520/7/79 519/8/78 524/9/82
f 513/10/72 515/11/74 528/12/84
f 490/13/55 100/14/18 101/15/19
f 497/16/49 103/17/20 104/18/21
f 500/19/61 106/20/22 107/21/23
f 504/22/50 109/23/24 110/24/25
f 509/4/69 112/25/26 113/26/27
f 511/1/70 115/3/28 116/2/29
f 512/27/71 118/28/30 119/29/31
f 516/30/75 121/24/32 122/31/33
f 517/32/76 124/33/34 125/34/35
f 521/35/80 127/36/36 128/17/37
f 510/37/56 130/38/14 131/39/15
f 492/40/57 133/41/16 134/42/17
f 499/32/55 136/43/18 137/15/19
f 484/35/49 139/17/20 140/44/21
f 498/27/61 142/20/22 143/45/23
f 485/30/50 145/46/24 146/24/25
f 523/37/69 148/47/26 149/48/27
f 525/40/70 151/42/28 152/41/29
f 527/49/71 154/50/30 155/29/31
f 529/51/75 157/24/32 158/52/33
f 530/53/76 160/33/34 161/54/35
f 531/55/80 163/56/36 164/17/37
f 494/10/59 488/12/53 487/11/52
f 501/8/62 486/7/51 489/9/54
f 514/57/73 507/58/67 506/59/66
f 518/60/77 505/61/65 508/62/68
f 493/57/58 495/59/60 526/58/83
f 502/60/63 522/62/81 503/61/64
f 312/63/9 288/64/9 342/65/9
f 192/66/13 187/67/42 188/68/43
f 234/69/7 204/70/7 258/71/7
f 192/66/13 193/72/45 194/73/46
f 85/69/2 82/71/2 88/70/2
f 192/66/13 199/74/47 200/75/48
f 76/76/9 73/77/9 79/78/9
f 210/79/13 205/80/42 206/81/43
f 67/82/7 64/83/7 70/84/7
f 210/79/13 211/85/45 212/86/46
f 58/82/2 55/84/2 61/83/2
f 210/79/13 217/87/47 218/88/48
f 49/89/9 46/90/9 52/91/9
f 228/92/13 223/93/42 224/94/43
f 40/95/7 37/96/7 43/97/7
f 228/92/13 229/98/45 230/99/46
f 29/95/2 26/97/2 32/96/2
f 228/92/13 235/100/47 236/101/48
f 20/102/9 17/103/9 23/104/9
f 246/105/13 241/106/42 242/107/43
f 11/108/7 8/109/7 14/110/7
f 246/105/13 247/111/45 248/112/46
f 2/113/2 346/114/2 5/115/2
f 246/105/13 253/116/47 254/117/48
f 352/118/9 355/119/9 349/120/9
f 264/121/13 259/122/42 260/123/43
f 361/124/7 364/125/7 358/126/7
f 264/121/13 265/127/45 266/128/46
f 370/129/2 373/130/2 367/131/2
f 264/121/13 271/132/47 272/133/48
f 379/134/9 382/135/9 376/136/9
f 282/137/13 277/138/42 278/139/43
f 388/140/7 391/141/7 385/142/7
f 282/137/13 283/143/45 284/144/46
f 397/145/2 400/146/2 394/147/2
f 282/137/13 289/148/47 290/149/48
f 406/150/9 409/90/9 403/151/9
f 300/152/13 295/153/42 296/154/43
f 415/155/7 418/156/7 412/157/7
f 300/152/13 301/158/45 302/159/46
f 424/160/2 427/161/2 421/162/2
f 300/152/13 307/163/47 308/164/48
f 433/76/9 436/77/9 430/78/9
f 318/165/13 313/166/42 314/167/43
f 442/168/7 445/169/7 439/170/7
f 318/165/13 319/171/45 320/172/46
f 451/168/2 454/170/2 448/169/2
f 318/165/13 325/173/47 326/174/48
f 460/175/9 463/176/9 457/177/9
f 336/178/13 331/179/42 332/180/43
f 469/181/7 472/182/7 466/183/7
f 336/178/13 337/184/45 338/185/46
f 478/181/2 481/183/2 475/182/2
f 336/178/13 343/186/47 344/187/48
f 139/188/20 485/189/50 146/190/25
f 487/11/52 489/9/54 486/7/51
f 95/191/15 490/192/55 491/193/56
f 133/194/16 484/195/49 140/196/21
f 494/10/59 495/59/60 493/57/58
f 97/197/16 497/198/49 104/199/21
f 98/3/17 95/6/15 94/5/14
f 101/15/19 104/18/21 103/17/20
f 142/190/22 499/195/55 137/188/19
f 106/200/22 490/192/55 101/201/19
f 502/60/63 486/7/51 501/8/62
f 103/201/20 504/202/50 110/200/25
f 107/21/23 110/24/25 109/23/24
f 506/59/66 508/62/68 505/61/65
f 112/203/26 500/204/61 107/205/23
f 131/206/15 499/195/55 510/207/56
f 116/208/29 504/202/50 511/209/70
f 113/26/27 116/2/29 115/3/28
f 137/15/19 140/44/21 139/17/20
f 113/210/27 512/211/71 509/209/69
f 514/57/73 515/11/74 513/10/72
f 115/212/28 516/211/75 122/213/33
f 119/29/31 122/31/33 121/24/32
f 134/42/17 131/39/15 130/38/14
f 124/214/34 512/211/71 119/215/31
f 519/8/78 505/61/65 518/60/77
f 121/215/32 521/216/80 128/214/37
f 125/34/35 128/17/37 127/36/36
f 94/217/14 517/216/76 125/218/35
f 98/219/17 521/216/80 496/193/57
f 143/45/23 146/24/25 145/46/24
f 518/220/77 522/221/81 502/222/63
f 148/223/26 498/189/61 143/224/23
f 501/225/62 524/226/82 519/227/78
f 152/228/29 485/189/50 525/229/70
f 149/48/27 152/41/29 151/42/28
f 493/230/58 507/231/67 514/232/73
f 149/233/27 527/234/71 523/229/69
f 520/7/79 528/12/84 515/11/74
f 151/235/28 529/236/75 158/237/33
f 155/29/31 158/52/33 157/24/32
f 526/58/83 503/61/64 522/62/81
f 160/238/34 527/234/71 155/239/31
f 513/240/72 488/241/53 494/242/59
f 157/239/32 531/243/80 164/238/37
f 161/54/35 164/17/37 163/56/36
f 130/244/14 530/245/76 161/246/35
f 134/247/17 531/243/80 492/207/57
f 212/86/46 205/80/42 210/79/13
f 198/70/6 306/248/6 330/249/6
f 78/250/6 66/82/6 75/251/6
f 194/73/46 187/67/42 192/66/13
f 188/252/43 324/65/8 276/64/8
f 252/71/5 194/253/46 193/254/45
f 51/255/6 39/95/6 48/256/6
f 240/257/1 84/258/1 216/259/1
f 230/99/46 223/93/42 228/92/13
f 200/75/48 193/72/45 192/66/13
f 87/70/4 200/254/48 199/253/47
f 270/249/3 83/69/3 86/70/3
f 188/68/43 199/74/47 192/66/13
f 206/260/43 77/78/8 72/77/8
f 69/84/5 212/261/46 211/262/45
f 248/112/46 241/106/42 246/105/13
f 68/263/1 57/264/1 65/265/1
f 22/266/6 10/108/6 19/267/6
f 218/88/48 211/85/45 210/79/13
f 60/83/4 218/262/48 217/261/47
f 71/250/3 56/82/3 59/83/3
f 206/81/43 217/87/47 210/79/13
f 224/268/43 50/91/8 45/90/8
f 229/269/45 35/96/5 230/270/46
f 266/128/46 259/122/42 264/121/13
f 41/271/1 28/272/1 38/273/1
f 365/125/6 353/274/6 350/275/6
f 236/101/48 229/98/45 228/92/13
f 31/96/4 236/269/48 235/270/47
f 44/255/3 27/95/3 30/96/3
f 224/94/43 235/100/47 228/92/13
f 242/276/43 21/104/8 16/103/8
f 13/110/5 248/277/46 247/278/45
f 284/144/46 277/138/42 282/137/13
f 347/279/1 9/280/1 12/281/1
f 392/141/6 380/282/6 377/283/6
f 254/117/48 247/111/45 246/105/13
f 4/115/4 254/284/48 253/285/47
f 3/115/3 18/267/3 345/113/3
f 242/107/43 253/116/47 246/105/13
f 260/286/43 351/120/8 356/119/8
f 265/287/45 366/125/5 266/288/46
f 302/159/46 295/153/42 300/152/13
f 374/289/1 363/290/1 360/291/1
f 404/292/6 416/155/6 407/293/6
f 272/133/48 265/127/45 264/121/13
f 368/131/4 272/294/48 271/295/47
f 357/296/3 372/129/3 369/131/3
f 260/123/43 271/132/47 264/121/13
f 278/276/43 378/136/8 383/135/8
f 386/142/5 284/297/46 283/298/45
f 320/172/46 313/166/42 318/165/13
f 401/279/1 390/299/1 387/281/1
f 431/300/6 443/168/6 434/301/6
f 290/149/48 283/143/45 282/137/13
f 395/147/4 290/302/48 289/303/47
f 396/147/3 381/282/3 399/145/3
f 278/139/43 289/148/47 282/137/13
f 296/304/43 405/151/8 410/90/8
f 413/157/5 302/305/46 301/306/45
f 338/185/46 331/179/42 336/178/13
f 428/307/1 417/308/1 414/271/1
f 458/309/6 470/181/6 461/310/6
f 308/164/48 301/158/45 300/152/13
f 307/305/47 429/161/4 308/306/48
f 411/292/3 426/160/3 423/162/3
f 296/154/43 307/163/47 300/152/13
f 314/260/43 432/78/8 437/77/8
f 440/170/5 320/311/46 319/312/45
f 455/313/1 444/265/1 441/263/1
f 326/174/48 319/171/45 318/165/13
f 449/169/4 326/312/48 325/311/47
f 438/300/3 453/168/3 450/169/3
f 314/167/43 325/173/47 318/165/13
f 332/314/43 459/177/8 464/176/8
f 467/183/5 338/315/46 337/316/45
f 468/257/1 479/258/1 471/259/1
f 344/187/48 337/184/45 336/178/13
f 476/182/4 344/316/48 343/315/47
f 465/309/3 480/181/3 477/182/3
f 332/180/43 343/186/47 336/178/13
f 177/230/11 34/240/11 165/242/11
f 92/317/12 166/318/12 89/319/12
f 175/61/10 33/11/10 173/59/10
f 168/225/13 174/220/13 180/222/13
f 99/192/11 111/209/11 123/216/11
f 97/2/16 100/320/18 95/6/15
f 127/321/36 94/5/14 125/322/35
f 96/193/13 120/211/13 108/202/13
f 103/17/20 106/20/22 101/15/19
f 109/323/24 112/25/26 107/324/23
f 115/3/28 118/325/30 113/26/27
f 121/24/32 124/33/34 119/29/31
f 153/234/11 129/207/11 141/189/11
f 133/41/16 136/326/18 131/39/15
f 163/327/36 130/38/14 161/328/35
f 138/195/13 162/243/13 150/229/13
f 139/17/20 142/20/22 137/15/19
f 145/329/24 148/47/26 143/330/23
f 151/42/28 154/331/30 149/48/27
f 157/24/32 160/33/34 155/29/31
f 169/7/38 178/59/38 167/11/38
f 181/332/39 172/333/39 179/334/39
f 183/335/11 189/336/11 195/337/11
f 187/338/42 190/70/41 185/249/41
f 199/253/47 184/249/40 197/70/40
f 193/339/45 196/340/44 191/257/44
f 207/341/11 213/342/11 201/343/11
f 205/344/42 208/83/41 203/250/41
f 217/261/47 202/250/40 215/83/40
f 211/345/45 214/313/44 209/263/44
f 225/346/11 231/347/11 219/348/11
f 223/349/42 226/96/41 221/255/41
f 235/270/47 220/255/40 233/96/40
f 229/350/45 232/307/44 227/271/44
f 243/351/11 249/352/11 237/353/11
f 241/354/42 244/109/41 239/266/41
f 253/285/47 238/266/40 251/115/40
f 247/355/45 250/279/44 245/281/44
f 261/356/11 267/357/11 255/358/11
f 259/359/42 262/125/41 257/275/41
f 271/295/47 256/296/40 269/131/40
f 265/360/45 268/289/44 263/291/44
f 279/361/11 285/362/11 273/363/11
f 277/364/42 280/141/41 275/283/41
f 289/303/47 274/283/40 287/147/40
f 283/355/45 286/279/44 281/281/44
f 297/365/11 303/366/11 291/367/11
f 295/368/42 298/156/41 293/292/41
f 307/305/47 292/292/40 305/162/40
f 301/350/45 304/307/44 299/271/44
f 315/369/11 321/370/11 309/371/11
f 313/372/42 316/169/41 311/300/41
f 325/311/47 310/300/40 323/169/40
f 319/345/45 322/313/44 317/263/44
f 333/373/11 339/374/11 327/375/11
f 331/376/42 334/182/41 329/309/41
f 341/182/40 332/376/43 328/309/40
f 337/339/45 340/340/44 335/257/44
f 139/188/20 484/195/49 485/189/50
f 487/11/52 488/12/53 489/9/54
f 95/191/15 100/377/18 490/192/55
f 133/194/16 492/207/57 484/195/49
f 494/10/59 487/11/52 495/59/60
f 97/197/16 496/193/57 497/198/49
f 98/3/17 97/2/16 95/6/15
f 101/15/19 100/14/18 104/18/21
f 142/190/22 498/189/61 499/195/55
f 106/200/22 500/204/61 490/192/55
f 502/60/63 503/61/64 486/7/51
f 103/201/20 497/198/49 504/202/50
f 107/21/23 106/20/22 110/24/25
f 506/59/66 507/58/67 508/62/68
f 112/203/26 509/209/69 500/204/61
f 131/206/15 136/378/18 499/195/55
f 116/208/29 109/379/24 504/202/50
f 113/26/27 112/25/26 116/2/29
f 137/15/19 136/43/18 140/44/21
f 113/210/27 118/380/30 512/211/71
f 514/57/73 506/59/66 515/11/74
f 115/212/28 511/209/70 516/211/75
f 119/29/31 118/28/30 122/31/33
f 134/42/17 133/41/16 131/39/15
f 124/214/34 517/216/76 512/211/71
f 519/8/78 520/7/79 505/61/65
f 121/215/32 516/211/75 521/216/80
f 125/34/35 124/33/34 128/17/37
f 94/217/14 491/193/56 517/216/76
f 98/219/17 127/381/36 521/216/80
f 143/45/23 142/20/22 146/24/25
f 518/220/77 508/382/68 522/221/81
f 148/223/26 523/229/69 498/189/61
f 501/225/62 489/383/54 524/226/82
f 152/228/29 145/384/24 485/189/50
f 149/48/27 148/47/26 152/41/29
f 493/230/58 526/385/83 507/231/67
f 149/233/27 154/386/30 527/234/71
f 520/7/79 524/9/82 528/12/84
f 151/235/28 525/229/70 529/236/75
f 155/29/31 154/50/30 158/52/33
f 526/58/83 495/59/60 503/61/64
f 160/238/34 530/245/76 527/234/71
f 513/240/72 528/387/84 488/241/53
f 157/239/32 529/236/75 531/243/80
f 161/54/35 160/33/34 164/17/37
f 130/244/14 510/207/56 530/245/76
f 134/247/17 163/388/36 531/243/80
f 198/70/6 222/69/6 306/248/6
f 78/250/6 63/83/6 66/82/6
f 188/252/43 187/389/42 324/65/8
f 252/71/5 186/70/5 194/253/46
f 51/255/6 36/96/6 39/95/6
f 240/257/1 81/340/1 84/258/1
f 87/70/4 80/71/4 200/254/48
f 270/249/3 294/248/3 83/69/3
f 206/260/43 205/390/42 77/78/8
f 69/84/5 62/83/5 212/261/46
f 68/263/1 54/313/1 57/264/1
f 22/266/6 7/109/6 10/108/6
f 60/83/4 53/84/4 218/262/48
f 71/250/3 74/251/3 56/82/3
f 224/268/43 223/391/42 50/91/8
f 229/269/45 42/97/5 35/96/5
f 41/271/1 25/307/1 28/272/1
f 365/125/6 362/124/6 353/274/6
f 31/96/4 24/97/4 236/269/48
f 44/255/3 47/256/3 27/95/3
f 242/276/43 241/392/42 21/104/8
f 13/110/5 6/109/5 248/277/46
f 347/279/1 1/393/1 9/280/1
f 392/141/6 389/140/6 380/282/6
f 4/115/4 348/114/4 254/284/48
f 3/115/3 15/266/3 18/267/3
f 260/286/43 259/394/42 351/120/8
f 265/287/45 359/126/5 366/125/5
f 374/289/1 371/395/1 363/290/1
f 404/292/6 419/156/6 416/155/6
f 368/131/4 375/130/4 272/294/48
f 357/296/3 354/274/3 372/129/3
f 278/276/43 277/396/42 378/136/8
f 386/142/5 393/141/5 284/297/46
f 401/279/1 398/393/1 390/299/1
f 431/300/6 446/169/6 443/168/6
f 395/147/4 402/146/4 290/302/48
f 396/147/3 384/283/3 381/282/3
f 296/304/43 295/397/42 405/151/8
f 413/157/5 420/156/5 302/305/46
f 428/307/1 425/398/1 417/308/1
f 458/309/6 473/182/6 470/181/6
f 307/305/47 422/162/4 429/161/4
f 411/292/3 408/293/3 426/160/3
f 314/260/43 313/390/42 432/78/8
f 440/170/5 447/169/5 320/311/46
f 455/313/1 452/264/1 444/265/1
f 449/169/4 456/170/4 326/312/48
f 438/300/3 435/301/3 453/168/3
f 332/314/43 331/399/42 459/177/8
f 467/183/5 474/182/5 338/315/46
f 468/257/1 482/340/1 479/258/1
f 476/182/4 483/183/4 344/316/48
f 465/309/3 462/310/3 480/181/3
f 177/230/11 171/232/11 34/240/11
f 92/317/12 170/400/12 166/318/12
f 175/61/10 90/7/10 33/11/10
f 168/225/13 91/227/13 174/220/13
f 123/216/11 93/193/11 99/192/11
f 99/192/11 105/204/11 111/209/11
f 111/209/11 117/211/11 123/216/11
f 97/2/16 104/323/21 100/320/18
f 127/321/36 98/3/17 94/5/14
f 108/202/13 102/198/13 96/193/13
f 96/193/13 126/216/13 120/211/13
f 120/211/13 114/209/13 108/202/13
f 103/17/20 110/24/25 106/20/22
f 109/323/24 116/2/29 112/25/26
f 115/3/28 122/321/33 118/325/30
f 121/24/32 128/17/37 124/33/34
f 141/189/11 147/229/11 153/234/11
f 153/234/11 159/245/11 129/207/11
f 129/207/11 135/195/11 141/189/11
f 133/41/16 140/329/21 136/326/18
f 163/327/36 134/42/17 130/38/14
f 150/229/13 144/189/13 138/195/13
f 138/195/13 132/207/13 162/243/13
f 162/243/13 156/236/13 150/229/13
f 139/17/20 146/24/25 142/20/22
f 145/329/24 152/41/29 148/47/26
f 151/42/28 158/327/33 154/331/30
f 157/24/32 164/17/37 160/33/34
f 169/7/38 182/61/38 178/59/38
f 181/332/39 176/401/39 172/333/39
f 187/338/42 194/253/46 190/70/41
f 199/253/47 188/338/43 184/249/40
f 193/339/45 200/402/48 196/340/44
f 205/344/42 212/261/46 208/83/41
f 217/261/47 206/344/43 202/250/40
f 211/345/45 218/403/48 214/313/44
f 223/349/42 230/270/46 226/96/41
f 235/270/47 224/404/43 220/255/40
f 229/350/45 236/405/48 232/307/44
f 241/354/42 248/277/46 244/109/41
f 253/285/47 242/354/43 238/266/40
f 247/355/45 254/406/48 250/279/44
f 259/359/42 266/288/46 262/125/41
f 271/295/47 260/407/43 256/296/40
f 265/360/45 272/408/48 268/289/44
f 277/364/42 284/297/46 280/141/41
f 289/303/47 278/364/43 274/283/40
f 283/355/45 290/406/48 286/279/44
f 295/368/42 302/305/46 298/156/41
f 307/305/47 296/409/43 292/292/40
f 301/350/45 308/410/48 304/307/44
f 313/372/42 320/311/46 316/169/41
f 325/311/47 314/372/43 310/300/40
f 319/345/45 326/403/48 322/313/44
f 331/376/42 338/315/46 334/182/41
f 341/182/40 343/315/47 332/376/43
f 337/339/45 344/402/48 340/340/44
