# Blender 5.2.0 LTS
# www.blender.org
o Backdrop_LifeguardChair
v 9.419766 39.865772 -5.790421
v -9.550000 38.700001 8.550000
v 4.234406 0.537974 -10.932028
v 9.867780 39.627426 -4.419171
v -10.000000 39.150002 8.550000
v -9.550000 40.849998 9.000000
v -9.550000 39.150002 9.000000
v 4.682419 0.299630 -9.560777
v 9.550000 40.849998 -9.000000
v 11.317581 39.439487 -4.443742
v -10.000000 40.849998 8.550000
v -9.550000 41.299999 -8.550000
v -9.550000 41.299999 8.550000
v 9.419766 39.766121 5.028216
v 11.765594 39.561676 -5.830177
v 10.592680 39.825134 -6.662471
v 4.234406 0.438325 10.169822
v 9.550000 39.150002 9.000000
v 9.550000 40.849998 9.000000
v 9.867780 39.888313 6.414651
v 4.682419 0.560514 11.556256
v 10.000000 40.849998 -8.550000
v 10.000000 40.849998 8.550000
v 9.550000 41.299999 8.550000
v 9.550000 41.299999 -8.550000
v 11.317581 39.700371 6.439222
v -11.765594 39.561676 -5.830178
v 11.765594 39.462025 5.067972
v 10.592681 39.502663 4.195922
v -6.580234 0.233876 -10.971785
v -10.000000 40.849998 -8.550000
v -10.000000 39.150002 -8.550000
v -9.550000 40.849998 -9.000000
v -11.317581 39.439487 -4.443743
v -6.132220 0.111687 -9.585349
v 9.550000 39.150002 -9.000000
v -9.550000 39.150002 -9.000000
v -9.550000 38.700001 -8.550000
v -9.867780 39.627430 -4.419171
v -11.765594 39.462025 5.067972
v 10.000000 39.150002 8.550000
v 10.000000 39.150002 -8.550000
v 9.550000 38.700001 -8.550000
v 9.550000 38.700001 8.550000
v -6.580234 0.134226 10.209579
v -9.419766 39.865772 -5.790421
v -10.592680 39.825134 -6.662471
v -11.317581 39.700371 6.439222
v 6.132220 0.111687 -9.585349
v -6.132220 0.372571 11.580829
v -9.867780 39.888313 6.414651
v -5.407320 0.497335 -11.804077
v -4.682419 0.560514 11.556256
v -9.419766 39.766125 5.028216
v -10.592681 39.502663 4.195922
v 6.132220 0.372571 11.580829
v 5.407320 0.497335 -11.804077
v 6.580234 0.233876 -10.971785
v -5.407320 0.174865 9.337529
v -4.234406 0.438325 10.169822
v 5.407320 0.174865 9.337529
v 6.580234 0.134226 10.209579
v -4.234406 0.537974 -10.932028
v -4.682419 0.299630 -9.560777
v -9.550000 38.700001 8.550000
v -9.550000 39.150002 9.000000
v -10.000000 39.150002 8.550000
v -9.550000 40.849998 9.000000
v -9.550000 41.299999 8.550000
v -10.000000 40.849998 8.550000
v -5.407320 0.174865 9.337529
v -5.826641 0.532689 8.996538
v -5.104669 0.626281 8.984302
v -10.592681 39.502663 4.195922
v -10.173359 39.069206 3.958382
v -10.895330 38.975613 3.970617
v -4.234406 0.438325 10.169822
v -4.129183 0.845394 9.676501
v -3.906082 0.964085 10.359355
v -9.419766 39.766125 5.028216
v -8.974772 39.407009 5.333435
v -9.197874 39.288319 4.650580
v -4.682419 0.560514 11.556256
v -4.278685 1.065707 11.512422
v -4.862772 1.045470 11.946685
v -9.867780 39.888313 6.414651
v -9.931462 39.488396 6.920765
v -9.347375 39.508633 6.486502
v -6.132220 0.372571 11.580829
v -6.068538 0.889162 11.967120
v -6.652625 0.757964 11.552655
v -11.317581 39.700371 6.439222
v -11.721315 39.200890 6.526735
v -11.137228 39.332088 6.941200
v -6.580234 0.134226 10.209579
v -7.025227 0.559738 10.412219
v -6.802126 0.498890 9.721802
v -11.765594 39.462025 5.067972
v -11.870816 38.941814 4.695882
v -12.093919 39.002663 5.386298
v -5.407320 0.497335 -11.804077
v -5.826641 0.930794 -12.041617
v -5.104669 1.024386 -12.029382
v -10.592680 39.825134 -6.662471
v -10.173359 39.467312 -7.003462
v -10.895330 39.373718 -7.015697
v -4.234406 0.537974 -10.932028
v -4.129184 1.058186 -11.304118
v -3.906082 0.997338 -10.613701
v -9.419766 39.865772 -5.790421
v -8.974772 39.440262 -5.587781
v -9.197874 39.501110 -6.278197
v -4.682419 0.299630 -9.560777
v -4.278684 0.799112 -9.473265
v -4.862772 0.667914 -9.058800
v -9.867780 39.627430 -4.419171
v -9.931462 39.110840 -4.032880
v -9.347375 39.242039 -4.447344
v -6.132220 0.111687 -9.585349
v -6.068538 0.511607 -9.079234
v -6.652625 0.491370 -9.513497
v -11.317581 39.439487 -4.443743
v -11.721315 38.934296 -4.487578
v -11.137228 38.954533 -4.053315
v -6.580234 0.233876 -10.971785
v -7.025228 0.592992 -10.666565
v -6.802126 0.711682 -11.349419
v -11.765594 39.561676 -5.830178
v -11.870816 39.154610 -6.323499
v -12.093918 39.035919 -5.640645
v 5.407320 0.174865 9.337529
v 5.104669 0.626281 8.984302
v 5.826641 0.532689 8.996538
v 10.592681 39.502663 4.195922
v 10.895330 38.975613 3.970618
v 10.173359 39.069206 3.958382
v 6.580234 0.134226 10.209579
v 6.802126 0.498890 9.721802
v 7.025228 0.559738 10.412219
v 11.765594 39.462025 5.067972
v 12.093918 39.002663 5.386298
v 11.870816 38.941814 4.695882
v 6.132220 0.372571 11.580829
v 6.652625 0.757964 11.552655
v 6.068538 0.889162 11.967120
v 11.317581 39.700371 6.439222
v 11.137228 39.332088 6.941200
v 11.721315 39.200890 6.526735
v 4.682419 0.560514 11.556256
v 4.862772 1.045470 11.946685
v 4.278685 1.065707 11.512422
v 9.867780 39.888313 6.414651
v 9.347375 39.508633 6.486502
v 9.931462 39.488396 6.920764
v 4.234406 0.438325 10.169822
v 3.906082 0.964085 10.359355
v 4.129184 0.845394 9.676501
v 9.419766 39.766121 5.028216
v 9.197874 39.288319 4.650580
v 8.974772 39.407009 5.333435
v 5.407320 0.497335 -11.804077
v 5.104669 1.024386 -12.029382
v 5.826641 0.930794 -12.041618
v 10.592680 39.825134 -6.662471
v 10.895331 39.373718 -7.015698
v 10.173359 39.467312 -7.003462
v 6.580234 0.233876 -10.971785
v 6.802126 0.711682 -11.349419
v 7.025228 0.592992 -10.666565
v 11.765594 39.561676 -5.830177
v 12.093918 39.035919 -5.640645
v 11.870816 39.154610 -6.323499
v 6.132220 0.111687 -9.585349
v 6.652625 0.491370 -9.513497
v 6.068538 0.511606 -9.079234
v 11.317581 39.439487 -4.443742
v 11.137228 38.954533 -4.053315
v 11.721315 38.934296 -4.487578
v 4.682419 0.299630 -9.560777
v 4.862772 0.667914 -9.058800
v 4.278685 0.799112 -9.473265
v 9.867780 39.627426 -4.419171
v 9.347375 39.242039 -4.447344
v 9.931462 39.110840 -4.032880
v 4.234406 0.537974 -10.932028
v 3.906083 0.997338 -10.613701
v 4.129184 1.058186 -11.304118
v 9.419766 39.865772 -5.790421
v 9.197874 39.501110 -6.278198
v 8.974772 39.440262 -5.587781
v -9.550000 38.700001 -8.550000
v -10.000000 39.150002 -8.550000
v -9.550000 39.150002 -9.000000
v -9.550000 41.299999 -8.550000
v -9.550000 40.849998 -9.000000
v -10.000000 40.849998 -8.550000
v 9.550000 38.700001 8.550000
v 10.000000 39.150002 8.550000
v 9.550000 39.150002 9.000000
v 9.550000 41.299999 8.550000
v 9.550000 40.849998 9.000000
v 10.000000 40.849998 8.550000
v 9.550000 38.700001 -8.550000
v 9.550000 39.150002 -9.000000
v 10.000000 39.150002 -8.550000
v 9.550000 41.299999 -8.550000
v 10.000000 40.849998 -8.550000
v 9.550000 40.849998 -9.000000
v -9.850000 40.000000 8.550000
v -9.850000 40.450001 9.000000
v -10.300000 40.450001 8.550000
v -9.850000 55.549999 9.000000
v -9.850000 56.000000 8.550000
v -10.300000 55.549999 8.550000
v -9.850000 40.000000 -8.550000
v -10.300000 40.450001 -8.550000
v -9.850000 40.450001 -9.000000
v -9.850000 56.000000 -8.550000
v -9.850000 55.549999 -9.000000
v -10.300000 55.549999 -8.550000
v -8.150000 40.000000 8.550000
v -7.700000 40.450001 8.550000
v -8.150000 40.450001 9.000000
v -8.150000 56.000000 8.550000
v -8.150000 55.549999 9.000000
v -7.700000 55.549999 8.550000
v -8.150000 40.000000 -8.550000
v -8.150000 40.450001 -9.000000
v -7.700000 40.450001 -8.550000
v -8.150000 56.000000 -8.550000
v -7.700000 55.549999 -8.550000
v -8.150000 55.549999 -9.000000
v -8.550000 59.000000 9.550000
v -8.550000 59.450001 10.000000
v -9.000000 59.450001 9.550000
v -8.550000 60.549999 10.000000
v -8.550000 61.000000 9.550000
v -9.000000 60.549999 9.550000
v -8.550000 59.000000 -9.550000
v -9.000000 59.450001 -9.550000
v -8.550000 59.450001 -10.000000
v -8.550000 61.000000 -9.550000
v -8.550000 60.549999 -10.000000
v -9.000000 60.549999 -9.550000
v 12.550000 59.000000 9.550000
v 13.000000 59.450001 9.550000
v 12.550000 59.450001 10.000000
v 12.550000 61.000000 9.550000
v 12.550000 60.549999 10.000000
v 13.000000 60.549999 9.550000
v 12.550000 59.000000 -9.550000
v 12.550000 59.450001 -10.000000
v 13.000000 59.450001 -9.550000
v 12.550000 61.000000 -9.550000
v 13.000000 60.549999 -9.550000
v 12.550000 60.549999 -10.000000
v -9.850000 40.000000 -8.550000
v -9.850000 40.000000 8.550000
v -10.300000 40.450001 8.550000
v -10.300000 40.450001 -8.550000
v -9.850000 40.450001 9.000000
v -9.850000 55.549999 9.000000
v -10.300000 55.549999 8.550000
v -9.850000 56.000000 8.550000
v -9.850000 56.000000 -8.550000
v -10.300000 55.549999 -8.550000
v -9.850000 55.549999 -9.000000
v -9.850000 40.450001 -9.000000
v -8.150000 40.000000 -8.550000
v -8.150000 40.450001 -9.000000
v -8.150000 56.000000 -8.550000
v -8.150000 55.549999 -9.000000
v -7.700000 55.549999 -8.550000
v -7.700000 40.450001 -8.550000
v -8.150000 40.000000 8.550000
v -7.700000 40.450001 8.550000
v -8.150000 56.000000 8.550000
v -7.700000 55.549999 8.550000
v -8.150000 55.549999 9.000000
v -8.150000 40.450001 9.000000
v -8.550000 59.000000 -9.550000
v -8.550000 59.000000 9.550000
v -9.000000 59.450001 9.550000
v -9.000000 59.450001 -9.550000
v -8.550000 59.450001 10.000000
v -8.550000 60.549999 10.000000
v -9.000000 60.549999 9.550000
v -8.550000 61.000000 9.550000
v -8.550000 61.000000 -9.550000
v -9.000000 60.549999 -9.550000
v -8.550000 60.549999 -10.000000
v -8.550000 59.450001 -10.000000
v 12.550000 59.000000 -9.550000
v 12.550000 59.450001 -10.000000
v 12.550000 61.000000 -9.550000
v 12.550000 60.549999 -10.000000
v 13.000000 60.549999 -9.550000
v 13.000000 59.450001 -9.550000
v 12.550000 59.000000 9.550000
v 13.000000 59.450001 9.550000
v 12.550000 61.000000 9.550000
v 13.000000 60.549999 9.550000
v 12.550000 60.549999 10.000000
v 12.550000 59.450001 10.000000
vn -0.5721 0.8123 -0.1133
vn -0.4606 -0.7588 0.4606
vn -0.7562 -0.5837 -0.2958
vn -0.3184 0.6773 0.6632
vn -0.7588 -0.4606 0.4606
vn -0.4606 0.4606 0.7588
vn -0.4606 -0.4606 0.7588
vn -0.5025 -0.7186 0.4807
vn 0.4606 0.4606 -0.7588
vn 0.5025 0.5709 0.6493
vn -0.7588 0.4606 0.4606
vn -0.4606 0.7588 -0.4606
vn -0.4606 0.7588 0.4606
vn -0.5721 0.7559 -0.3183
vn 0.7562 0.6401 -0.1358
vn 0.0920 0.7893 -0.6071
vn -0.7562 -0.6401 -0.1358
vn 0.4606 -0.4606 0.7588
vn 0.4606 0.4606 0.7588
vn -0.3184 0.8251 0.4668
vn -0.5025 -0.5709 0.6493
vn 0.7588 0.4606 -0.4606
vn 0.7588 0.4606 0.4606
vn 0.4606 0.7588 0.4606
vn 0.4606 0.7588 -0.4606
vn 0.5025 0.7186 0.4807
vn -0.7562 0.6401 -0.1358
vn 0.7562 0.5837 -0.2958
vn 0.0920 0.6067 -0.7896
vn -0.5721 -0.7559 -0.3183
vn -0.7588 0.4606 -0.4606
vn -0.7588 -0.4606 -0.4606
vn -0.4606 0.4606 -0.7588
vn -0.5025 0.5709 0.6493
vn -0.3184 -0.8251 0.4668
vn 0.4606 -0.4606 -0.7588
vn -0.4606 -0.4606 -0.7588
vn -0.4606 -0.7588 -0.4606
vn 0.3184 0.6773 0.6632
vn -0.7562 0.5837 -0.2958
vn 0.7588 -0.4606 0.4606
vn 0.7588 -0.4606 -0.4606
vn 0.4606 -0.7588 -0.4606
vn 0.4606 -0.7588 0.4606
vn -0.5721 -0.8123 -0.1133
vn 0.5721 0.8123 -0.1133
vn -0.0920 0.7893 -0.6071
vn -0.5025 0.7186 0.4807
vn 0.3184 -0.8251 0.4668
vn -0.3184 -0.6773 0.6632
vn 0.3184 0.8251 0.4668
vn 0.0920 -0.6067 -0.7896
vn 0.5025 -0.5709 0.6493
vn 0.5721 0.7559 -0.3183
vn -0.0920 0.6067 -0.7896
vn 0.3184 -0.6773 0.6632
vn -0.0920 -0.6067 -0.7896
vn 0.5721 -0.7559 -0.3183
vn 0.0920 -0.7893 -0.6071
vn 0.7562 -0.6401 -0.1358
vn -0.0920 -0.7893 -0.6071
vn 0.5721 -0.8123 -0.1133
vn 0.7562 -0.5837 -0.2958
vn 0.5025 -0.7186 0.4807
vn -0.0000 -1.0000 -0.0000
vn -0.0000 -0.0000 1.0000
vn -1.0000 -0.0000 -0.0000
vn -0.0000 1.0000 -0.0000
vn 0.1296 -0.9832 0.1285
vn -0.2683 -0.4873 -0.8310
vn 0.3558 -0.4064 -0.8416
vn -0.1296 0.9832 -0.1285
vn 0.2683 0.2573 -0.9283
vn -0.3558 0.1764 -0.9178
vn 0.7839 -0.3103 -0.5378
vn 0.9768 -0.2077 0.0525
vn 0.8893 0.4561 -0.0343
vn 0.6964 0.3535 -0.6245
vn 0.8133 -0.1631 0.5586
vn 0.3084 -0.1806 0.9340
vn 0.2208 0.4832 0.8472
vn 0.7257 0.5007 0.4718
vn -0.2208 -0.2492 0.9429
vn -0.7257 -0.3626 0.5847
vn -0.8133 0.3012 0.4979
vn -0.3084 0.4146 0.8562
vn -0.8893 -0.4496 0.0841
vn -0.6964 -0.5022 -0.5127
vn -0.7839 0.1616 -0.5994
vn -0.9768 0.2142 -0.0026
vn 0.1296 -0.9832 -0.1285
vn -0.2683 -0.2573 -0.9283
vn 0.3558 -0.1764 -0.9178
vn -0.1296 0.9832 0.1285
vn 0.2683 0.4873 -0.8310
vn -0.3558 0.4064 -0.8416
vn 0.7839 -0.1616 -0.5994
vn 0.9768 -0.2142 -0.0026
vn 0.8893 0.4496 0.0841
vn 0.6964 0.5022 -0.5127
vn 0.8133 -0.3012 0.4979
vn 0.3084 -0.4146 0.8562
vn 0.2208 0.2492 0.9429
vn 0.7257 0.3626 0.5847
vn -0.2208 -0.4832 0.8472
vn -0.7257 -0.5007 0.4718
vn -0.8133 0.1631 0.5586
vn -0.3084 0.1806 0.9340
vn -0.8893 -0.4561 -0.0343
vn -0.6964 -0.3535 -0.6245
vn -0.7839 0.3103 -0.5377
vn -0.9768 0.2077 0.0525
vn -0.1296 -0.9832 0.1285
vn -0.3558 -0.4064 -0.8416
vn 0.2683 -0.4873 -0.8310
vn 0.1296 0.9832 -0.1285
vn 0.3558 0.1764 -0.9178
vn -0.2683 0.2573 -0.9283
vn 0.6964 -0.5022 -0.5127
vn 0.8893 -0.4496 0.0841
vn 0.9768 0.2142 -0.0026
vn 0.7839 0.1616 -0.5994
vn 0.7257 -0.3626 0.5847
vn 0.2208 -0.2492 0.9429
vn 0.3084 0.4146 0.8562
vn 0.8133 0.3012 0.4979
vn -0.3084 -0.1806 0.9340
vn -0.8133 -0.1631 0.5586
vn -0.7257 0.5007 0.4718
vn -0.2208 0.4832 0.8472
vn -0.9768 -0.2077 0.0525
vn -0.7839 -0.3103 -0.5378
vn -0.6964 0.3535 -0.6245
vn -0.8893 0.4561 -0.0343
vn -0.1296 -0.9832 -0.1285
vn -0.3558 -0.1764 -0.9178
vn 0.2683 -0.2573 -0.9283
vn 0.1296 0.9832 0.1285
vn 0.3558 0.4064 -0.8416
vn -0.2683 0.4873 -0.8310
vn 0.6964 -0.3535 -0.6245
vn 0.8893 -0.4561 -0.0343
vn 0.9768 0.2077 0.0525
vn 0.7839 0.3103 -0.5377
vn 0.7257 -0.5007 0.4718
vn 0.2208 -0.4832 0.8472
vn 0.3084 0.1806 0.9340
vn 0.8133 0.1631 0.5586
vn -0.3084 -0.4146 0.8562
vn -0.8133 -0.3012 0.4979
vn -0.7257 0.3626 0.5847
vn -0.2208 0.2492 0.9429
vn -0.9768 -0.2142 -0.0026
vn -0.7839 -0.1616 -0.5994
vn -0.6964 0.5022 -0.5127
vn -0.8893 0.4496 0.0841
vn -0.0000 -0.0000 -1.0000
vn 1.0000 -0.0000 -0.0000
vt -0.427500 1.935000
vt -0.450000 1.957500
vt -0.427500 1.957500
vt -0.450000 2.042500
vt -0.427500 2.065000
vt -0.427500 2.042500
vt -0.270366 0.008743
vt -0.291332 0.026634
vt -0.255233 0.031314
vt -0.529634 1.975133
vt -0.508668 1.953460
vt -0.544767 1.948781
vt -0.508491 0.021916
vt -0.483825 0.042270
vt -0.517968 0.048204
vt -0.251411 1.988306
vt -0.266672 1.970351
vt -0.232529 1.964416
vt -0.234121 0.028026
vt -0.213934 0.053285
vt -0.243139 0.052274
vt -0.493389 -0.320733
vt -0.496573 -0.346038
vt -0.467369 -0.324325
vt -0.306611 0.018629
vt -0.303427 0.044458
vt -0.332631 0.037898
vt -0.565879 1.985018
vt -0.586066 1.960045
vt -0.556861 1.966604
vt -0.510479 0.006711
vt -0.520611 0.027987
vt -0.486090 0.024945
vt -0.253399 1.973101
vt -0.234794 1.947091
vt -0.269315 1.950133
vt -0.270366 0.024867
vt -0.291332 0.046540
vt -0.255233 0.051219
vt -0.529634 1.991257
vt -0.508668 1.973366
vt -0.544767 1.968686
vt 0.546601 0.026899
vt 0.565206 0.052909
vt 0.530685 0.049867
vt 0.289521 1.993289
vt 0.279389 1.972013
vt 0.313910 1.975055
vt -0.234121 0.014981
vt -0.213934 0.039956
vt -0.243139 0.033396
vt -0.493389 1.981372
vt -0.496573 1.955542
vt -0.467369 1.962102
vt -0.306611 0.479267
vt -0.303427 0.453962
vt -0.332631 0.475675
vt -0.565879 1.971974
vt -0.586066 1.946715
vt -0.556861 1.947727
vt 0.548589 0.011694
vt 0.533328 0.029650
vt 0.567471 0.035584
vt 0.291509 1.978084
vt 0.316175 1.957731
vt 0.282032 1.951796
vt 0.270366 0.008743
vt 0.255233 0.031314
vt 0.291332 0.026634
vt 0.529634 1.975133
vt 0.544767 1.948781
vt 0.508668 1.953460
vt -0.510479 0.006711
vt 0.306611 0.018629
vt 0.332631 0.037898
vt 0.303427 0.044458
vt 0.565879 1.985018
vt 0.556861 1.966604
vt 0.586066 1.960045
vt 0.234121 0.028026
vt 0.243139 0.052274
vt 0.213934 0.053285
vt 0.493389 -0.320733
vt 0.467369 -0.324325
vt 0.496573 -0.346038
vt -0.508491 0.021916
vt -0.517968 0.048204
vt -0.483825 0.042270
vt -0.251411 1.988306
vt 0.270366 0.024867
vt 0.255233 0.051219
vt 0.291332 0.046540
vt 0.529634 1.991257
vt 0.544767 1.968686
vt 0.508668 1.973366
vt 0.548589 0.011694
vt 0.291509 1.978084
vt 0.316175 1.957731
vt 0.306611 0.479267
vt 0.332631 0.475675
vt 0.303427 0.453962
vt 0.565879 1.971974
vt 0.556861 1.947727
vt 0.586066 1.946715
vt 0.234121 0.014981
vt 0.243139 0.033396
vt 0.213934 0.039956
vt 0.493389 1.981371
vt 0.467369 1.962102
vt 0.496573 1.955542
vt 0.546601 0.026899
vt 0.530685 0.049867
vt 0.565206 0.052909
vt 0.313910 1.975055
vt 0.427500 1.935000
vt 0.427500 1.957500
vt 0.450000 1.957500
vt 0.427500 2.065000
vt 0.450000 2.042500
vt 0.427500 2.042500
vt -0.427500 2.000000
vt -0.450000 2.022500
vt -0.427500 2.022500
vt -0.450000 2.777500
vt -0.427500 2.800000
vt -0.427500 2.777500
vt 0.427500 2.000000
vt 0.427500 2.022500
vt 0.450000 2.022500
vt 0.427500 2.800000
vt 0.450000 2.777500
vt 0.427500 2.777500
vt -0.477500 2.950000
vt -0.500000 2.972500
vt -0.477500 2.972500
vt -0.500000 3.027500
vt -0.477500 3.050000
vt -0.477500 3.027500
vt 0.477500 2.950000
vt 0.477500 2.972500
vt 0.500000 2.972500
vt 0.477500 3.050000
vt 0.500000 3.027500
vt 0.477500 3.027500
vt 0.473663 0.039956
vt 0.291332 -0.449827
vt 0.329012 -0.510479
vt 0.270366 -0.466876
vt -0.255233 -0.449215
vt -0.211720 -0.508491
vt -0.270366 -0.466876
vt 0.291332 0.602081
vt 0.329012 0.548589
vt 0.270366 0.590204
vt 0.332631 -0.577633
vt 0.351261 -0.520611
vt -0.508668 -0.197919
vt -0.470988 -0.251411
vt -0.459894 -0.232529
vt -0.577813 0.028026
vt -0.211720 0.026899
vt -0.496573 1.974420
vt -0.467369 1.975432
vt 0.351261 0.533328
vt -0.556861 -0.347060
vt -0.565879 -0.321961
vt -0.459894 0.313910
vt -0.529634 0.333124
vt -0.470988 0.289521
vt -0.351261 -0.520611
vt -0.306611 -0.579041
vt -0.332631 -0.577633
vt -0.326337 1.960045
vt -0.291332 -0.449827
vt -0.329012 -0.510479
vt -0.340106 -0.486090
vt -0.593541 1.947091
vt -0.467369 0.222367
vt -0.493389 0.220959
vt -0.477500 1.935000
vt 0.477500 1.957500
vt 0.477500 1.935000
vt -0.234121 0.478039
vt -0.243139 0.452940
vt -0.303427 0.025580
vt -0.351261 0.533328
vt 0.593541 1.947091
vt 0.588280 1.973101
vt 0.222187 1.971974
vt -0.291332 0.602081
vt -0.329012 0.548589
vt -0.340106 0.567471
vt -0.593541 0.316175
vt -0.544767 0.350785
vt -0.321961 1.985018
vt 0.556861 -0.347060
vt 0.496573 1.974420
vt 0.467369 1.975432
vt -0.577813 0.028026
vt -0.575621 0.053285
vt 0.593541 0.316175
vt 0.529634 0.333124
vt 0.588280 0.291509
vt 0.470988 -0.251411
vt 0.448739 -0.266672
vt 0.206459 -0.483825
vt 0.211720 -0.508491
vt 0.508668 -0.197919
vt 0.529634 -0.209796
vt 0.222187 1.971974
vt 0.224379 1.946715
vt 0.303427 0.025580
vt 0.243139 0.452940
vt 0.477500 2.065000
vt -0.477500 2.042500
vt -0.477500 2.065000
vt 0.478039 0.014981
vt 0.467369 0.222367
vt 0.470988 0.289521
vt 0.448739 0.279389
vt 0.211720 0.026899
vt 0.206459 0.052909
vt 0.508668 0.350173
vt -0.477500 1.957500
vt 0.477500 2.042500
vt -0.492500 2.000000
vt -0.407500 2.022500
vt -0.407500 2.000000
vt -0.407500 2.800000
vt -0.492500 2.777500
vt -0.492500 2.800000
vt -0.492500 2.022500
vt -0.407500 2.777500
vt -0.427500 2.950000
vt 0.627500 2.972500
vt 0.627500 2.950000
vt 0.627500 3.050000
vt -0.427500 3.027500
vt -0.427500 3.050000
vt -0.427500 2.972500
vt 0.627500 3.027500
vt 0.477500 0.427500
vt -0.477500 -0.427500
vt -0.477500 0.427500
vt 0.477500 -0.427500
vt -0.206459 0.042270
vt -0.340106 0.024945
vt -0.529634 -0.209796
vt -0.577633 0.037898
vt -0.270366 0.590204
vt -0.206459 0.052909
vt -0.340106 0.035584
vt -0.588280 0.291509
vt 0.222367 1.962102
vt 0.475675 0.024568
vt 0.306611 -0.579041
vt 0.340106 0.024945
vt 0.206459 0.042270
vt 0.588280 -0.253399
vt -0.577633 0.037898
vt 0.234121 0.478039
vt 0.340106 0.035584
vt 0.459894 1.975055
vt 0.493389 0.220959
vt -0.407500 0.427500
vt -0.492500 -0.427500
vt -0.492500 0.427500
vt -0.407500 -0.427500
vt 0.627500 0.477500
vt -0.427500 -0.477500
vt -0.427500 0.477500
vt 0.627500 -0.477500
vt 0.478039 0.014981
vt 0.340106 -0.486090
vt -0.206459 -0.483825
vt 0.340106 0.567471
vt -0.448739 -0.266672
vt -0.508668 0.350173
vt -0.588280 1.973101
vt -0.448739 0.279389
vt -0.332631 0.024568
vt 0.565879 -0.321961
vt 0.544767 0.350785
vt 0.255233 -0.449215
vt 0.459894 -0.232529
vt 0.332631 0.024568
vt 0.459894 0.313910
vt -0.234121 -0.577813
vt -0.459894 1.964416
vt -0.588280 -0.253399
vt -0.324325 1.975432
vt -0.211720 0.546601
vt -0.459894 1.975055
vt -0.593541 1.957731
vt -0.565879 0.222187
vt 0.234121 -0.577813
vt 0.459894 1.964416
vt 0.211720 0.546601
vt 0.593541 1.957731
vt 0.565879 0.222187
s 1
f 2/1/2 7/2/7 5/3/5
f 6/4/6 13/5/13 11/6/11
f 59/7/59 72/8/70 73/9/71
f 55/10/55 75/11/73 76/12/74
f 60/13/60 78/14/75 79/15/76
f 54/16/54 81/17/77 82/18/78
f 53/19/53 84/20/79 85/21/80
f 51/22/51 87/23/81 88/24/82
f 50/25/50 90/26/83 91/27/84
f 48/28/48 93/29/85 94/30/86
f 45/31/45 96/32/87 97/33/88
f 40/34/40 99/35/89 100/36/90
f 52/37/52 102/38/92 103/39/93
f 47/40/47 105/41/95 106/42/96
f 63/43/63 108/44/97 109/45/98
f 46/46/46 111/47/99 112/48/100
f 64/49/64 114/50/101 115/51/102
f 39/52/39 117/53/103 118/54/104
f 35/55/35 120/56/105 121/57/106
f 34/58/34 123/59/107 124/60/108
f 30/61/30 126/62/109 127/63/110
f 27/64/27 129/65/111 130/66/112
f 61/67/61 132/68/114 133/69/115
f 29/70/29 135/71/117 136/72/118
f 62/73/62 138/33/119 139/32/120
f 28/34/28 141/36/121 142/35/122
f 56/74/56 144/75/123 145/76/124
f 26/77/26 147/78/125 148/79/126
f 21/80/21 150/81/127 151/82/128
f 20/83/20 153/84/129 154/85/130
f 17/86/17 156/87/131 157/88/132
f 14/89/14 159/18/133 160/17/134
f 57/90/57 162/91/136 163/92/137
f 16/93/16 165/94/139 166/95/140
f 58/96/58 168/63/141 169/62/142
f 15/97/15 171/66/143 172/98/144
f 49/99/49 174/100/145 175/101/146
f 10/102/10 177/103/147 178/104/148
f 8/105/8 180/106/149 181/107/150
f 4/108/4 183/109/151 184/110/152
f 3/111/3 186/112/153 187/113/154
f 1/46/1 189/114/155 190/47/156
f 38/115/38 32/116/32 37/117/37
f 12/118/12 33/119/33 31/120/31
f 44/1/44 41/3/41 18/2/18
f 24/5/24 19/4/19 23/6/23
f 43/115/43 36/117/36 42/116/42
f 25/118/25 22/120/22 9/119/9
f 258/121/2 261/122/7 259/123/5
f 262/124/6 264/125/13 263/126/11
f 257/127/38 260/128/32 268/129/37
f 265/130/12 267/131/33 266/132/31
f 275/121/44 276/123/41 280/122/18
f 277/125/24 279/124/19 278/126/23
f 269/127/43 270/129/36 274/128/42
f 271/130/25 273/132/22 272/131/9
f 282/133/2 285/134/7 283/135/5
f 286/136/6 288/137/13 287/138/11
f 281/139/38 284/140/32 292/141/37
f 289/142/12 291/143/33 290/144/31
f 299/133/44 300/135/41 304/134/18
f 301/137/24 303/136/19 302/138/23
f 293/139/43 294/141/36 298/140/42
f 295/142/25 297/144/22 296/143/9
f 114/145/101 63/43/63 109/45/98
f 133/146/115 62/147/62 61/148/61
f 73/149/71 60/150/60 59/151/59
f 163/152/137 58/153/58 57/154/57
f 144/155/123 62/147/62 139/156/120
f 75/157/73 54/158/54 82/159/78
f 76/12/74 73/9/71 72/8/70
f 79/15/76 82/18/78 81/17/77
f 109/45/98 112/48/100 111/47/99
f 79/15/76 53/160/53 60/13/60
f 103/39/93 63/161/63 52/37/52
f 88/24/82 54/158/54 51/22/51
f 87/162/81 84/20/79 88/163/82
f 102/38/92 105/41/95 103/39/93
f 90/26/83 53/19/53 85/21/80
f 169/164/142 49/99/49 58/153/58
f 94/165/86 51/22/51 48/166/48
f 93/29/85 90/26/83 94/30/86
f 112/167/100 47/168/47 46/169/46
f 96/170/87 50/171/50 91/172/84
f 43/115/43 41/3/41 44/1/44
f 93/173/85 40/34/40 100/36/90
f 97/33/88 100/36/90 99/35/89
f 72/174/70 45/175/45 97/176/88
f 99/177/89 55/10/55 76/12/74
f 139/32/120 142/35/122 141/36/121
f 118/178/104 46/169/46 39/179/39
f 117/53/103 114/50/101 118/54/104
f 38/180/38 36/181/36 43/182/43
f 120/56/105 64/183/64 115/184/102
f 136/72/118 133/69/115 132/68/114
f 117/53/103 34/58/34 124/60/108
f 123/59/107 120/185/105 124/60/108
f 37/117/37 31/120/31 33/119/33
f 126/186/109 35/55/35 121/57/106
f 142/187/122 29/70/29 28/188/28
f 130/66/112 34/189/34 27/64/27
f 129/65/111 126/62/109 130/66/112
f 102/190/92 30/191/30 127/192/110
f 129/193/111 47/168/47 106/194/96
f 169/62/142 172/98/144 171/66/143
f 148/173/126 28/34/28 26/195/26
f 145/76/124 148/79/126 147/78/125
f 24/5/24 22/120/22 25/118/25
f 145/76/124 21/80/21 56/74/56
f 166/95/140 163/92/137 162/91/136
f 147/196/125 20/83/20 154/85/130
f 151/82/128 154/197/130 153/198/129
f 18/2/18 23/6/23 19/4/19
f 156/87/131 21/199/21 151/200/128
f 172/201/144 16/202/16 15/203/15
f 153/84/129 14/204/14 160/205/134
f 157/88/132 160/17/134 159/18/133
f 157/206/132 61/148/61 17/207/17
f 136/208/118 14/204/14 29/209/29
f 12/118/12 11/6/11 13/5/13
f 171/66/143 10/210/10 178/211/148
f 175/212/146 178/104/148 177/103/147
f 42/116/42 9/119/9 22/120/22
f 180/213/149 49/99/49 175/101/146
f 6/4/6 5/3/5 7/2/7
f 177/103/147 4/108/4 184/110/152
f 183/109/151 180/106/149 184/110/152
f 25/214/25 33/215/33 12/216/12
f 181/145/150 3/111/3 8/217/8
f 2/1/2 32/116/32 38/115/38
f 183/218/151 1/219/1 190/220/156
f 187/113/154 190/47/156 189/114/155
f 162/91/136 3/221/3 187/222/154
f 166/223/140 1/219/1 16/202/16
f 44/182/44 7/224/7 2/180/2
f 13/216/13 19/225/19 24/214/24
f 258/121/2 260/128/32 257/127/38
f 262/124/6 259/123/5 261/122/7
f 265/130/12 263/126/11 264/125/13
f 268/129/37 266/132/31 267/131/33
f 257/226/38 270/227/36 269/228/43
f 271/229/25 267/230/33 265/231/12
f 274/128/42 272/131/9 273/132/22
f 269/127/43 276/123/41 275/121/44
f 277/125/24 273/132/22 271/130/25
f 280/122/18 278/126/23 279/124/19
f 275/228/44 261/232/7 258/226/2
f 264/231/13 279/233/19 277/229/24
f 282/133/2 284/140/32 281/139/38
f 286/136/6 283/135/5 285/134/7
f 289/142/12 287/138/11 288/137/13
f 292/141/37 290/144/31 291/143/33
f 281/234/38 294/235/36 293/236/43
f 295/237/25 291/238/33 289/239/12
f 298/140/42 296/143/9 297/144/22
f 293/139/43 300/135/41 299/133/44
f 301/137/24 297/144/22 295/142/25
f 304/134/18 302/138/23 303/136/19
f 299/236/44 285/240/7 282/234/2
f 288/239/13 303/241/19 301/237/24
f 203/242/65 65/243/65 191/244/65
f 70/6/67 192/116/67 67/3/67
f 201/225/66 66/224/66 199/181/66
f 194/244/68 200/245/68 206/242/68
f 77/150/69 89/171/69 95/175/69
f 75/11/73 78/246/75 73/9/71
f 99/177/89 72/8/70 97/247/88
f 74/248/72 92/166/72 86/22/72
f 81/17/77 84/200/79 79/15/76
f 87/162/81 90/26/83 85/21/80
f 91/249/84 100/36/90 96/32/87
f 113/183/91 125/191/91 101/250/91
f 105/41/95 108/251/97 103/39/93
f 127/252/110 106/42/96 102/38/92
f 116/179/94 104/168/94 128/253/94
f 109/45/98 118/254/104 114/145/101
f 117/53/103 120/185/105 115/51/102
f 123/211/107 126/62/109 121/255/106
f 143/256/113 155/207/113 131/148/113
f 135/71/117 138/257/119 133/69/115
f 157/258/132 136/72/118 132/68/114
f 140/259/116 158/204/116 152/83/116
f 139/32/120 148/173/126 144/260/123
f 147/78/125 150/81/127 145/76/124
f 151/200/128 160/17/134 156/87/131
f 179/261/135 161/154/135 167/153/135
f 165/94/139 168/262/141 163/92/137
f 189/263/155 162/91/136 187/222/154
f 170/203/138 188/219/138 182/264/138
f 171/66/143 174/255/145 169/62/142
f 177/103/147 180/106/149 175/212/146
f 183/254/151 186/112/153 181/145/150
f 195/215/157 204/181/157 193/224/157
f 207/120/158 198/3/158 205/116/158
f 227/265/65 209/266/65 215/267/65
f 214/126/67 216/128/67 211/123/67
f 225/233/66 210/232/66 223/227/66
f 218/267/68 224/268/68 230/265/68
f 219/230/157 228/227/157 217/232/157
f 231/132/158 222/123/158 229/128/158
f 251/269/65 233/270/65 239/271/65
f 238/138/67 240/140/67 235/135/67
f 249/241/66 234/240/66 247/235/66
f 242/271/68 248/272/68 254/269/68
f 243/238/157 252/235/157 241/240/157
f 255/144/158 246/135/158 253/140/158
f 114/145/101 64/273/64 63/43/63
f 133/146/115 138/274/119 62/147/62
f 73/149/71 78/275/75 60/150/60
f 163/152/137 168/276/141 58/153/58
f 144/155/123 56/256/56 62/147/62
f 75/157/73 55/248/55 54/158/54
f 76/12/74 75/11/73 73/9/71
f 79/15/76 78/14/75 82/18/78
f 109/45/98 108/44/97 112/48/100
f 79/15/76 84/200/79 53/160/53
f 103/39/93 108/251/97 63/161/63
f 88/24/82 81/277/77 54/158/54
f 87/162/81 85/21/80 84/20/79
f 102/38/92 106/42/96 105/41/95
f 90/26/83 50/25/50 53/19/53
f 169/164/142 174/100/145 49/99/49
f 94/165/86 87/23/81 51/22/51
f 93/29/85 91/27/84 90/26/83
f 112/167/100 105/278/95 47/168/47
f 96/170/87 45/175/45 50/171/50
f 43/115/43 42/116/42 41/3/41
f 93/173/85 48/195/48 40/34/40
f 97/33/88 96/32/87 100/36/90
f 72/174/70 59/151/59 45/175/45
f 99/177/89 40/279/40 55/10/55
f 139/32/120 138/33/119 142/35/122
f 118/178/104 111/280/99 46/169/46
f 117/53/103 115/51/102 114/50/101
f 38/180/38 37/224/37 36/181/36
f 120/56/105 35/55/35 64/183/64
f 136/72/118 135/71/117 133/69/115
f 117/53/103 39/52/39 34/58/34
f 123/59/107 121/281/106 120/185/105
f 37/117/37 32/116/32 31/120/31
f 126/186/109 30/191/30 35/55/35
f 142/187/122 135/71/117 29/70/29
f 130/66/112 123/211/107 34/189/34
f 129/65/111 127/63/110 126/62/109
f 102/190/92 52/250/52 30/191/30
f 129/193/111 27/253/27 47/168/47
f 169/62/142 168/63/141 172/98/144
f 148/173/126 141/36/121 28/34/28
f 145/76/124 144/75/123 148/79/126
f 24/5/24 23/6/23 22/120/22
f 145/76/124 150/81/127 21/80/21
f 166/95/140 165/94/139 163/92/137
f 147/196/125 26/282/26 20/83/20
f 151/82/128 150/81/127 154/197/130
f 18/2/18 41/3/41 23/6/23
f 156/87/131 17/86/17 21/199/21
f 172/201/144 165/283/139 16/202/16
f 153/84/129 20/83/20 14/204/14
f 157/88/132 156/87/131 160/17/134
f 157/206/132 132/284/114 61/148/61
f 136/208/118 159/285/133 14/204/14
f 12/118/12 31/120/31 11/6/11
f 171/66/143 15/97/15 10/210/10
f 175/212/146 174/286/145 178/104/148
f 42/116/42 36/117/36 9/119/9
f 180/213/149 8/261/8 49/99/49
f 6/4/6 11/6/11 5/3/5
f 177/103/147 10/102/10 4/108/4
f 183/109/151 181/107/150 180/106/149
f 25/214/25 9/225/9 33/215/33
f 181/145/150 186/112/153 3/111/3
f 2/1/2 5/3/5 32/116/32
f 183/218/151 4/264/4 1/219/1
f 187/113/154 186/112/153 190/47/156
f 162/91/136 57/90/57 3/221/3
f 166/223/140 189/287/155 1/219/1
f 44/182/44 18/181/18 7/224/7
f 13/216/13 6/215/6 19/225/19
f 258/121/2 259/123/5 260/128/32
f 262/124/6 263/126/11 259/123/5
f 265/130/12 266/132/31 263/126/11
f 268/129/37 260/128/32 266/132/31
f 257/226/38 268/232/37 270/227/36
f 271/229/25 272/233/9 267/230/33
f 274/128/42 270/129/36 272/131/9
f 269/127/43 274/128/42 276/123/41
f 277/125/24 278/126/23 273/132/22
f 280/122/18 276/123/41 278/126/23
f 275/228/44 280/227/18 261/232/7
f 264/231/13 262/230/6 279/233/19
f 282/133/2 283/135/5 284/140/32
f 286/136/6 287/138/11 283/135/5
f 289/142/12 290/144/31 287/138/11
f 292/141/37 284/140/32 290/144/31
f 281/234/38 292/240/37 294/235/36
f 295/237/25 296/241/9 291/238/33
f 298/140/42 294/141/36 296/143/9
f 293/139/43 298/140/42 300/135/41
f 301/137/24 302/138/23 297/144/22
f 304/134/18 300/135/41 302/138/23
f 299/236/44 304/235/18 285/240/7
f 288/239/13 286/238/6 303/241/19
f 203/242/65 197/245/65 65/243/65
f 70/6/67 196/120/67 192/116/67
f 201/225/66 68/215/66 66/224/66
f 194/244/68 69/243/68 200/245/68
f 95/175/69 71/151/69 77/150/69
f 77/150/69 83/288/69 89/171/69
f 75/11/73 82/289/78 78/246/75
f 99/177/89 76/12/74 72/8/70
f 86/22/72 80/158/72 74/248/72
f 74/248/72 98/290/72 92/166/72
f 81/17/77 88/291/82 84/200/79
f 87/162/81 94/30/86 90/26/83
f 91/249/84 93/173/85 100/36/90
f 101/250/91 107/292/91 113/183/91
f 113/183/91 119/55/91 125/191/91
f 105/41/95 112/293/100 108/251/97
f 127/252/110 129/294/111 106/42/96
f 128/253/94 122/295/94 116/179/94
f 116/179/94 110/169/94 104/168/94
f 109/45/98 111/47/99 118/254/104
f 117/53/103 124/60/108 120/185/105
f 123/211/107 130/66/112 126/62/109
f 131/148/113 137/147/113 143/256/113
f 143/256/113 149/296/113 155/207/113
f 135/71/117 142/187/122 138/257/119
f 157/258/132 159/297/133 136/72/118
f 152/83/116 146/282/116 140/259/116
f 140/259/116 134/209/116 158/204/116
f 139/32/120 141/36/121 148/173/126
f 147/78/125 154/197/130 150/81/127
f 151/200/128 153/291/129 160/17/134
f 167/153/135 173/99/135 179/261/135
f 179/261/135 185/298/135 161/154/135
f 165/94/139 172/299/144 168/262/141
f 189/263/155 166/95/140 162/91/136
f 182/264/138 176/300/138 170/203/138
f 170/203/138 164/202/138 188/219/138
f 171/66/143 178/211/148 174/255/145
f 177/103/147 184/110/152 180/106/149
f 183/254/151 190/47/156 186/112/153
f 195/215/157 208/225/157 204/181/157
f 207/120/158 202/6/158 198/3/158
f 227/265/65 221/268/65 209/266/65
f 214/126/67 220/132/67 216/128/67
f 225/233/66 212/230/66 210/232/66
f 218/267/68 213/266/68 224/268/68
f 219/230/157 232/233/157 228/227/157
f 231/132/158 226/126/158 222/123/158
f 251/269/65 245/272/65 233/270/65
f 238/138/67 244/144/67 240/140/67
f 249/241/66 236/238/66 234/240/66
f 242/271/68 237/270/68 248/272/68
f 243/238/157 256/241/157 252/235/157
f 255/144/158 250/138/158 246/135/158
