# Blender 5.2.0 LTS
# www.blender.org
o Backdrop_Arch
v 27.175762 -0.000001 -6.512924
v 27.625763 -0.000001 -7.000000
v 20.187119 34.965118 7.000000
v 20.187119 34.965118 7.000000
v 13.503032 39.073067 0.000000
v 13.904567 38.545322 -0.000000
v 13.904567 38.545322 -0.000000
v 13.587881 23.534903 6.512924
v 13.812881 23.924614 7.000000
v 13.812881 23.924614 7.000000
v 24.400454 33.052162 4.605333
v 28.312931 29.769201 -4.605333
v 27.746824 29.743784 -4.949748
v 27.746824 29.743784 -4.949748
v 17.857592 20.996132 -4.605333
v 17.980927 21.549225 -4.949748
v 17.980927 21.549225 -4.949748
v 11.624421 39.404316 -4.605332
v 7.089054 40.204025 -6.512924
v 7.010912 39.760860 -7.000000
v 7.010912 39.760860 -7.000000
v 27.086754 31.230503 0.000000
v 16.631416 22.457434 -0.000000
v 28.312931 29.769201 4.605333
v 27.746824 29.743784 4.949748
v 27.746824 29.743784 4.949748
v 13.587880 23.534903 -6.512924
v 17.576214 21.232235 -4.605333
v 13.812881 23.924614 -7.000000
v 13.812881 23.924614 -7.000000
v 17.857592 20.996132 4.605333
v 17.980927 21.549225 4.949748
v 17.980927 21.549225 4.949748
v -7.947524 26.791365 0.000000
v -9.599545 25.837570 4.605333
v -7.750703 27.424614 -0.000000
v -7.750703 27.424614 -0.000000
v 31.273180 26.241314 6.512924
v 30.928459 25.952059 7.000000
v 30.928459 25.952059 7.000000
v 20.817842 17.468243 6.512924
v 21.162563 17.757498 7.000000
v 21.162563 17.757498 7.000000
v 26.052477 32.098362 0.000000
v 26.249296 31.465115 0.000000
v 26.249296 31.465115 0.000000
v 34.233433 22.713423 4.605332
v 34.110100 22.160332 4.949747
v 34.110100 22.160332 4.949747
v 36.787117 18.290310 -4.605332
v 1.694956 27.893860 0.000000
v -0.183654 27.562611 4.605332
v 2.096491 28.421602 -0.000000
v 2.096491 28.421602 -0.000000
v 23.961748 13.622255 -4.605333
v 36.134682 20.082859 -0.000000
v 35.545231 20.386650 -0.000000
v 35.545231 20.386650 -0.000000
v 23.309313 15.414804 -0.000000
v 23.565584 16.026417 -0.000000
v 23.565584 16.026417 -0.000000
v 19.228237 20.278439 0.000000
v 17.576216 21.232235 4.605333
v 19.875059 20.424612 0.000000
v 19.875059 20.424612 0.000000
v 36.787117 18.290310 4.605332
v 24.400455 33.052162 -4.605333
v 20.412119 35.354828 -6.512924
v 20.187119 34.965118 -7.000000
v 20.187119 34.965118 -7.000000
v 23.961746 13.622255 4.605333
v 20.817842 17.468243 -6.512924
v 23.778091 13.940353 -4.605332
v 24.344198 13.965771 -4.949749
v 24.344198 13.965771 -4.949749
v 21.162563 17.757498 -7.000000
v 21.162563 17.757498 -7.000000
v 38.362236 13.962711 6.512923
v 37.939373 13.808802 7.000000
v 37.939373 13.808802 7.000000
v 35.459610 21.252123 0.000000
v 25.536863 9.294659 6.512923
v 25.959724 9.448567 7.000000
v 25.959724 9.448567 7.000000
v 39.937347 9.635115 4.605332
v 40.824238 4.605333 -4.605332
v 40.374237 4.949748 -4.949748
v 40.374237 4.949748 -4.949748
v 27.175762 4.605332 -4.605332
v 27.625763 4.949747 -4.949748
v 27.625763 4.949747 -4.949748
v 34.233433 22.713423 -4.605332
v 31.273180 26.241314 -6.512924
v 30.928459 25.952059 -7.000000
v 30.928459 25.952059 -7.000000
v 34.110100 22.160332 -4.949748
v 34.110100 22.160332 -4.949748
v 40.824238 6.512924 -0.000000
v 40.374237 7.000000 0.000000
v 40.374237 7.000000 0.000000
v 27.175762 6.512923 0.000000
v 27.625763 7.000000 0.000000
v 27.625763 7.000000 0.000000
v 40.824238 4.605333 4.605332
v 40.374237 4.949748 4.949748
v 40.374237 4.949748 4.949748
v 25.536863 9.294659 -6.512923
v 27.111980 4.967061 -4.605332
v 25.959724 9.448567 -7.000000
v 25.959724 9.448567 -7.000000
v 27.175762 4.605332 4.605332
v 27.625763 4.949747 4.949748
v 27.625763 4.949747 4.949748
v 40.824238 0.000001 6.512924
v 40.374237 0.000001 7.000000
v 40.374237 0.000001 7.000000
v 11.132999 25.631945 -0.000000
v 9.254389 25.963194 4.605333
v 11.690817 25.990528 -0.000000
v 11.690817 25.990528 -0.000000
v 27.175762 -0.000001 6.512924
v 27.625763 -0.000001 7.000000
v 27.625763 -0.000001 7.000000
v 40.589787 7.842566 0.000000
v 40.333511 7.230954 0.000000
v 40.333511 7.230954 0.000000
v 40.824238 -4.605332 4.605332
v 40.374237 -4.949747 4.949748
v 40.374237 -4.949747 4.949748
v 25.004269 12.479054 0.000000
v 23.778091 13.940354 4.605332
v 24.344198 13.965770 4.949748
v 24.344198 13.965770 4.949748
v 27.175762 -4.605333 4.605332
v 27.625763 -4.949748 4.949748
v 27.625763 -4.949748 4.949748
v 40.824238 -6.512923 0.000000
v 40.374237 -7.000000 0.000000
v 40.374237 -7.000000 0.000000
v 39.937347 9.635115 -4.605332
v 38.362236 13.962711 -6.512923
v 37.939373 13.808803 -7.000000
v 37.939373 13.808803 -7.000000
v 27.175762 -6.512924 -0.000000
v 27.625763 -7.000000 0.000000
v 27.625763 -7.000000 0.000000
v 40.824238 -4.605332 -4.605332
v 40.824238 0.000001 -6.512924
v 40.374237 0.000001 -7.000000
v 40.374237 0.000001 -7.000000
v 40.374237 -4.949747 -4.949748
v 40.374237 -4.949747 -4.949748
v 27.175762 -0.000001 -6.512924
v 27.175762 -4.605333 -4.605332
v 27.625763 -4.949748 -4.949748
v 27.625763 -4.949748 -4.949748
v 27.625763 -0.000001 -7.000000
v 27.625763 -0.000001 -7.000000
v 27.764414 3.174512 0.000000
v 27.111979 4.967060 4.605332
v 28.353865 2.870720 0.000000
v 28.353865 2.870720 0.000000
v 40.824238 0.000001 -6.512924
v 40.374237 0.000001 -7.000000
v 27.175762 -4.605333 -4.605332
v 27.625763 -4.949748 -4.949748
v 40.824238 -4.605332 -4.605332
v 40.374237 -4.949747 -4.949748
v 27.175762 -6.512924 -0.000000
v 27.625763 -7.000000 0.000000
v 40.824238 -6.512923 0.000000
v 40.374237 -7.000000 0.000000
v 27.175762 -4.605333 4.605332
v 27.625763 -4.949748 4.949748
v 40.824238 -4.605332 4.605332
v 40.374237 -4.949747 4.949748
v 27.175762 -0.000001 6.512924
v 27.625763 -0.000001 7.000000
v 40.824238 0.000001 6.512924
v 40.374237 0.000001 7.000000
v 27.175762 4.605332 4.605332
v 27.625763 4.949747 4.949748
v 40.824238 4.605333 4.605332
v 40.374237 4.949748 4.949748
v 27.175762 6.512923 0.000000
v 27.625763 7.000000 0.000000
v 40.824238 6.512924 -0.000000
v 40.374237 7.000000 0.000000
v 27.175762 4.605332 -4.605332
v 27.625763 4.949747 -4.949748
v 40.824238 4.605333 -4.605332
v 40.374237 4.949748 -4.949748
v 25.536863 9.294659 -6.512923
v 25.959724 9.448567 -7.000000
v 38.362236 13.962711 -6.512923
v 37.939373 13.808803 -7.000000
v 27.111980 4.967061 -4.605332
v 27.510445 5.187999 -5.121955
v 27.711536 4.635503 -4.534002
v 39.937347 9.635115 -4.605332
v 39.691181 8.995739 -4.534001
v 39.490089 9.548234 -5.121955
v 27.764414 3.174512 0.000000
v 28.353865 2.870720 0.000000
v 40.589787 7.842566 0.000000
v 40.333511 7.230954 0.000000
v 27.111979 4.967060 4.605332
v 27.711536 4.635504 4.534001
v 27.510445 5.187999 5.121955
v 39.937347 9.635115 4.605332
v 39.490089 9.548234 5.121955
v 39.691181 8.995738 4.534002
v 25.536863 9.294659 6.512923
v 25.959724 9.448567 7.000000
v 38.362236 13.962711 6.512923
v 37.939373 13.808802 7.000000
v 23.961746 13.622255 4.605333
v 24.409004 13.709135 5.121955
v 24.207912 14.261631 4.534002
v 36.787117 18.290310 4.605332
v 36.187557 18.621864 4.534002
v 36.388649 18.069370 5.121955
v 23.309313 15.414804 -0.000000
v 23.565584 16.026417 -0.000000
v 36.134682 20.082859 -0.000000
v 35.545231 20.386650 -0.000000
v 23.961748 13.622255 -4.605333
v 24.207912 14.261631 -4.534002
v 24.409004 13.709135 -5.121955
v 36.787117 18.290310 -4.605332
v 36.388649 18.069370 -5.121955
v 36.187557 18.621864 -4.534002
v 20.817842 17.468243 -6.512924
v 21.162563 17.757498 -7.000000
v 31.273180 26.241314 -6.512924
v 30.928459 25.952059 -7.000000
v 23.778091 13.940353 -4.605332
v 24.344198 13.965771 -4.949749
v 34.233433 22.713423 -4.605332
v 34.110100 22.160332 -4.949748
v 25.004269 12.479054 0.000000
v 25.551384 12.527105 -0.415746
v 25.551384 12.527106 0.415746
v 35.459610 21.252123 0.000000
v 35.317284 20.721664 0.415746
v 35.317284 20.721664 -0.415746
v 23.778091 13.940354 4.605332
v 24.344198 13.965770 4.949748
v 34.233433 22.713423 4.605332
v 34.110100 22.160332 4.949747
v 20.817842 17.468243 6.512924
v 21.162563 17.757498 7.000000
v 31.273180 26.241314 6.512924
v 30.928459 25.952059 7.000000
v 17.857592 20.996132 4.605333
v 17.980927 21.549225 4.949748
v 28.312931 29.769201 4.605333
v 27.746824 29.743784 4.949748
v 16.631416 22.457434 -0.000000
v 16.773743 22.987892 0.415745
v 16.773743 22.987892 -0.415746
v 27.086754 31.230503 0.000000
v 26.539639 31.182451 -0.415745
v 26.539639 31.182451 0.415746
v 17.857592 20.996132 -4.605333
v 17.980927 21.549225 -4.949748
v 28.312931 29.769201 -4.605333
v 27.746824 29.743784 -4.949748
v 13.587880 23.534903 -6.512924
v 13.812881 23.924614 -7.000000
v 20.412119 35.354828 -6.512924
v 20.187119 34.965118 -7.000000
v 17.576214 21.232235 -4.605333
v 17.739441 21.657612 -5.121955
v 18.248623 21.363636 -4.534002
v 24.400455 33.052162 -4.605333
v 24.622862 32.404137 -4.534001
v 24.113680 32.698116 -5.121955
v 19.228237 20.278439 0.000000
v 19.875059 20.424612 0.000000
v 26.052477 32.098362 0.000000
v 26.249296 31.465115 0.000000
v 17.576216 21.232235 4.605333
v 18.248623 21.363636 4.534002
v 17.739441 21.657612 5.121955
v 24.400454 33.052162 4.605333
v 24.113680 32.698116 5.121955
v 24.622864 32.404137 4.534002
v 13.587881 23.534903 6.512924
v 13.812881 23.924614 7.000000
v 20.412119 35.354828 6.512924
v 20.187119 34.965118 7.000000
v 9.599545 25.837570 4.605333
v 9.886320 26.191616 5.121955
v 9.377138 26.485592 4.534002
v 16.423784 37.657490 4.605333
v 15.751377 37.526096 4.534002
v 16.260559 37.232113 5.121955
v 7.947524 26.791365 0.000000
v 7.750703 27.424614 0.000000
v 14.771763 38.611290 0.000000
v 14.124944 38.465118 0.000001
v 9.599545 25.837570 -4.605333
v 9.377138 26.485592 -4.534002
v 9.886320 26.191616 -5.121955
v 16.423786 37.657490 -4.605333
v 16.260559 37.232113 -5.121955
v 15.751376 37.526096 -4.534002
v 4.719022 26.762901 -6.512924
v 4.797163 27.206064 -7.000000
v 7.089054 40.204025 -6.512924
v 7.010912 39.760860 -7.000000
v 9.254389 25.963194 -4.605332
v 9.262283 26.418743 -5.121955
v 9.841304 26.316647 -4.534002
v 11.624421 39.404316 -4.605332
v 12.055054 38.871441 -4.534002
v 11.476032 38.973537 -5.121955
v 11.132999 25.631945 -0.000000
v 11.690817 25.990528 -0.000000
v 13.503032 39.073067 0.000000
v 13.904567 38.545322 -0.000000
v 9.254389 25.963194 4.605333
v 9.841304 26.316647 4.534002
v 9.262283 26.418743 5.121955
v 11.624421 39.404316 4.605332
v 11.476032 38.973537 5.121955
v 12.055053 38.871441 4.534002
v 4.719022 26.762901 6.512924
v 4.797163 27.206064 7.000000
v 7.089054 40.204025 6.512924
v 7.010912 39.760860 7.000000
v 0.183654 27.562611 4.605332
v 0.332043 27.993387 5.121955
v -0.246978 28.095484 4.534002
v 2.553687 41.003731 4.605332
v 1.966771 40.650276 4.534002
v 2.545792 40.548180 5.121955
v -1.694956 27.893860 0.000000
v -2.096491 28.421602 0.000000
v 0.675077 41.334984 0.000000
v 0.117258 40.976398 -0.000000
v 0.183654 27.562611 -4.605332
v -0.246978 28.095484 -4.534002
v 0.332043 27.993387 -5.121955
v 2.553687 41.003731 -4.605332
v 2.545792 40.548180 -5.121955
v 1.966771 40.650276 -4.534002
v -4.719022 26.762901 -6.512924
v -4.797163 27.206064 -7.000000
v -7.089054 40.204025 -6.512924
v -7.010912 39.760860 -7.000000
v -0.183654 27.562611 -4.605332
v -0.332043 27.993387 -5.121955
v 0.246978 28.095484 -4.534002
v -2.553687 41.003731 -4.605332
v -1.966771 40.650276 -4.534002
v -2.545792 40.548180 -5.121955
v 1.694956 27.893860 0.000000
v 2.096491 28.421602 -0.000000
v -0.675077 41.334984 0.000000
v -0.117258 40.976398 0.000000
v -0.183654 27.562611 4.605332
v 0.246978 28.095484 4.534002
v -0.332043 27.993387 5.121955
v -2.553687 41.003731 4.605332
v -2.545792 40.548180 5.121955
v -1.966771 40.650276 4.534002
v -4.719022 26.762901 6.512924
v -4.797163 27.206064 7.000000
v -7.089054 40.204025 6.512924
v -7.010912 39.760860 7.000000
v -9.254389 25.963194 4.605332
v -9.262283 26.418743 5.121955
v -9.841304 26.316647 4.534002
v -11.624421 39.404316 4.605332
v -12.055054 38.871441 4.534002
v -11.476032 38.973537 5.121955
v -11.132999 25.631945 0.000000
v -11.690817 25.990528 0.000000
v -13.503032 39.073067 -0.000000
v -13.904567 38.545322 0.000000
v -9.254389 25.963194 -4.605333
v -9.841304 26.316647 -4.534002
v -9.262283 26.418743 -5.121955
v -11.624421 39.404316 -4.605332
v -11.476032 38.973537 -5.121955
v -12.055053 38.871441 -4.534002
v -13.587881 23.534903 -6.512924
v -13.812881 23.924614 -7.000000
v -20.412119 35.354828 -6.512924
v -20.187119 34.965118 -7.000000
v -9.599545 25.837570 -4.605333
v -9.886320 26.191616 -5.121955
v -9.377138 26.485592 -4.534002
v -16.423784 37.657490 -4.605333
v -15.751377 37.526096 -4.534002
v -16.260559 37.232113 -5.121955
v -7.947524 26.791365 0.000000
v -7.750703 27.424614 -0.000000
v -14.771763 38.611290 -0.000000
v -14.124944 38.465118 -0.000001
v -9.599545 25.837570 4.605333
v -9.377138 26.485592 4.534002
v -9.886320 26.191616 5.121955
v -16.423786 37.657490 4.605333
v -16.260559 37.232113 5.121955
v -15.751376 37.526096 4.534002
v -13.587880 23.534903 6.512924
v -13.812881 23.924614 7.000000
v -20.412119 35.354828 6.512924
v -20.187119 34.965118 7.000000
v -17.576214 21.232235 4.605333
v -17.739441 21.657612 5.121955
v -18.248623 21.363636 4.534002
v -24.400455 33.052162 4.605333
v -24.622862 32.404137 4.534001
v -24.113680 32.698116 5.121955
v -19.228237 20.278439 0.000000
v -19.875059 20.424612 0.000000
v -26.052477 32.098362 -0.000000
v -26.249296 31.465115 -0.000000
v -17.576216 21.232235 -4.605333
v -18.248623 21.363636 -4.534002
v -17.739441 21.657612 -5.121955
v -24.400454 33.052162 -4.605333
v -24.113680 32.698116 -5.121955
v -24.622864 32.404137 -4.534002
v -20.817842 17.468243 -6.512924
v -21.162563 17.757498 -7.000000
v -31.273180 26.241314 -6.512924
v -30.928459 25.952059 -7.000000
v -17.857592 20.996132 -4.605333
v -17.980927 21.549225 -4.949748
v -28.312931 29.769201 -4.605333
v -27.746824 29.743784 -4.949748
v -16.631416 22.457434 0.000000
v -16.773743 22.987892 -0.415745
v -16.773743 22.987892 0.415746
v -27.086754 31.230503 -0.000000
v -26.539639 31.182451 0.415745
v -26.539639 31.182451 -0.415746
v -17.857592 20.996132 4.605333
v -17.980927 21.549225 4.949748
v -28.312931 29.769201 4.605333
v -27.746824 29.743784 4.949748
v -20.817842 17.468243 6.512924
v -21.162563 17.757498 7.000000
v -31.273180 26.241314 6.512924
v -30.928459 25.952059 7.000000
v -23.778091 13.940353 4.605332
v -24.344198 13.965771 4.949749
v -34.233433 22.713423 4.605332
v -34.110100 22.160332 4.949748
v -25.004269 12.479054 0.000000
v -25.551384 12.527105 0.415746
v -25.551384 12.527106 -0.415746
v -35.459610 21.252123 0.000000
v -35.317284 20.721664 -0.415746
v -35.317284 20.721664 0.415746
v -23.778091 13.940354 -4.605332
v -24.344198 13.965770 -4.949748
v -34.233433 22.713423 -4.605332
v -34.110100 22.160332 -4.949747
v -25.536863 9.294659 -6.512923
v -25.959724 9.448567 -7.000000
v -38.362236 13.962711 -6.512923
v -37.939373 13.808802 -7.000000
v -23.961746 13.622255 -4.605333
v -24.409004 13.709135 -5.121955
v -24.207912 14.261631 -4.534002
v -36.787117 18.290310 -4.605332
v -36.187557 18.621864 -4.534002
v -36.388649 18.069370 -5.121955
v -23.309313 15.414804 0.000000
v -23.565584 16.026417 0.000000
v -36.134682 20.082859 0.000000
v -35.545231 20.386650 0.000000
v -23.961748 13.622255 4.605333
v -24.207912 14.261631 4.534002
v -24.409004 13.709135 5.121955
v -36.787117 18.290310 4.605332
v -36.388649 18.069370 5.121955
v -36.187557 18.621864 4.534002
v -25.536863 9.294659 6.512923
v -25.959724 9.448567 7.000000
v -38.362236 13.962711 6.512923
v -37.939373 13.808803 7.000000
v -27.111980 4.967061 4.605332
v -27.510445 5.187999 5.121955
v -27.711536 4.635503 4.534002
v -39.937347 9.635115 4.605332
v -39.691181 8.995739 4.534001
v -39.490089 9.548234 5.121955
v -27.764414 3.174512 0.000000
v -28.353865 2.870720 -0.000000
v -40.589787 7.842566 0.000000
v -40.333511 7.230954 0.000000
v -27.111979 4.967060 -4.605332
v -27.711536 4.635504 -4.534001
v -27.510445 5.187999 -5.121955
v -39.937347 9.635115 -4.605332
v -39.490089 9.548234 -5.121955
v -39.691181 8.995738 -4.534002
v -27.175762 0.000000 -6.512924
v -27.625763 0.000000 -7.000000
v -40.824238 -0.000000 -6.512924
v -40.374237 -0.000000 -7.000000
v -27.175762 4.605333 -4.605332
v -27.625763 4.949748 -4.949748
v -40.824238 4.605332 -4.605332
v -40.374237 4.949747 -4.949748
v -27.175762 6.512924 -0.000000
v -27.625763 7.000000 0.000000
v -40.824238 6.512923 0.000000
v -40.374237 7.000000 0.000000
v -27.175762 4.605333 4.605332
v -27.625763 4.949748 4.949748
v -40.824238 4.605332 4.605332
v -40.374237 4.949747 4.949748
v -27.175762 0.000000 6.512924
v -27.625763 0.000000 7.000000
v -40.824238 -0.000000 6.512924
v -40.374237 -0.000000 7.000000
v -27.175762 -4.605332 4.605332
v -27.625763 -4.949747 4.949748
v -40.824238 -4.605333 4.605332
v -40.374237 -4.949748 4.949748
v -27.175762 -6.512923 0.000000
v -27.625763 -7.000000 0.000000
v -40.824238 -6.512924 -0.000000
v -40.374237 -7.000000 0.000000
v -27.175762 -4.605332 -4.605332
v -27.625763 -4.949747 -4.949748
v -40.824238 -4.605333 -4.605332
v -40.374237 -4.949748 -4.949748
v 20.412119 35.354828 6.512924
v 4.797163 27.206064 -7.000000
v 4.797163 27.206064 -7.000000
v 9.254389 25.963194 -4.605332
v 4.719022 26.762901 -6.512924
v 9.599545 25.837570 4.605333
v -17.980927 21.549225 4.949748
v -17.980927 21.549225 4.949748
v -17.857592 20.996132 4.605333
v -16.631416 22.457434 0.000000
v 16.423784 37.657490 4.605333
v 7.750703 27.424614 0.000000
v 7.750703 27.424614 0.000000
v 7.947524 26.791365 0.000000
v 14.124944 38.465118 0.000001
v 14.124944 38.465118 0.000001
v 14.771763 38.611290 0.000000
v 9.599545 25.837570 -4.605333
v -7.010912 39.760860 -7.000000
v -7.010912 39.760860 -7.000000
v -7.089054 40.204025 -6.512924
v -2.553687 41.003731 -4.605332
v 16.423786 37.657490 -4.605333
v 11.624421 39.404316 4.605332
v 4.797163 27.206064 7.000000
v 4.797163 27.206064 7.000000
v 4.719022 26.762901 6.512924
v -0.117258 40.976398 0.000000
v -0.117258 40.976398 0.000000
v -0.675077 41.334984 0.000000
v 7.010912 39.760860 7.000000
v 7.010912 39.760860 7.000000
v 7.089054 40.204025 6.512924
v -4.797163 27.206064 -7.000000
v -4.797163 27.206064 -7.000000
v -0.183654 27.562611 -4.605332
v -4.719022 26.762901 -6.512924
v 0.183654 27.562611 4.605332
v -23.565584 16.026417 0.000000
v -23.565584 16.026417 0.000000
v -23.961748 13.622255 4.605333
v -23.309313 15.414804 0.000000
v 2.553687 41.003731 4.605332
v -2.096491 28.421602 0.000000
v -2.096491 28.421602 0.000000
v -1.694956 27.893860 0.000000
v 0.117258 40.976398 -0.000000
v 0.117258 40.976398 -0.000000
v 0.675077 41.334984 0.000000
v 0.183654 27.562611 -4.605332
v -20.187119 34.965118 -7.000000
v -20.187119 34.965118 -7.000000
v -20.412119 35.354828 -6.512924
v -16.423784 37.657490 -4.605333
v 2.553687 41.003731 -4.605332
v -2.553687 41.003731 4.605332
v -4.797163 27.206064 7.000000
v -4.797163 27.206064 7.000000
v -4.719022 26.762901 6.512924
v -14.124944 38.465118 -0.000001
v -14.124944 38.465118 -0.000001
v -14.771763 38.611290 -0.000000
v -7.010912 39.760860 7.000000
v -7.010912 39.760860 7.000000
v -7.089054 40.204025 6.512924
v -13.812881 23.924614 -7.000000
v -13.812881 23.924614 -7.000000
v -9.599545 25.837570 -4.605333
v -13.587881 23.534903 -6.512924
v -9.254389 25.963194 4.605332
v -27.625763 7.000000 0.000000
v -27.625763 7.000000 0.000000
v -27.625763 4.949748 4.949748
v -27.625763 4.949748 4.949748
v -27.175762 4.605333 4.605332
v -27.175762 6.512924 -0.000000
v -11.624421 39.404316 4.605332
v -11.690817 25.990528 0.000000
v -11.690817 25.990528 0.000000
v -11.132999 25.631945 0.000000
v -13.904567 38.545322 0.000000
v -13.904567 38.545322 0.000000
v -13.503032 39.073067 -0.000000
v -9.254389 25.963194 -4.605333
v -27.746824 29.743784 -4.949748
v -27.746824 29.743784 -4.949748
v -30.928459 25.952059 -7.000000
v -30.928459 25.952059 -7.000000
v -31.273180 26.241314 -6.512924
v -28.312931 29.769201 -4.605333
v -11.624421 39.404316 -4.605332
v -16.423786 37.657490 4.605333
v -13.812881 23.924614 7.000000
v -13.812881 23.924614 7.000000
v -13.587880 23.534903 6.512924
v -27.086754 31.230503 -0.000000
v -20.187119 34.965118 7.000000
v -20.187119 34.965118 7.000000
v -20.412119 35.354828 6.512924
v -21.162563 17.757498 -7.000000
v -21.162563 17.757498 -7.000000
v -17.980927 21.549225 -4.949748
v -17.980927 21.549225 -4.949748
v -17.857592 20.996132 -4.605333
v -20.817842 17.468243 -6.512924
v -17.576214 21.232235 4.605333
v -24.400455 33.052162 4.605333
v -19.875059 20.424612 0.000000
v -19.875059 20.424612 0.000000
v -19.228237 20.278439 0.000000
v -26.249296 31.465115 -0.000000
v -26.249296 31.465115 -0.000000
v -26.052477 32.098362 -0.000000
v -17.576216 21.232235 -4.605333
v -37.939373 13.808802 -7.000000
v -37.939373 13.808802 -7.000000
v -38.362236 13.962711 -6.512923
v -36.787117 18.290310 -4.605332
v -24.400454 33.052162 -4.605333
v -27.746824 29.743784 4.949748
v -27.746824 29.743784 4.949748
v -28.312931 29.769201 4.605333
v -21.162563 17.757498 7.000000
v -21.162563 17.757498 7.000000
v -20.817842 17.468243 6.512924
v -35.545231 20.386650 0.000000
v -35.545231 20.386650 0.000000
v -36.134682 20.082859 0.000000
v -30.928459 25.952059 7.000000
v -30.928459 25.952059 7.000000
v -31.273180 26.241314 6.512924
v -25.959724 9.448567 -7.000000
v -25.959724 9.448567 -7.000000
v -23.961746 13.622255 -4.605333
v -25.536863 9.294659 -6.512923
v -24.344198 13.965771 4.949749
v -24.344198 13.965771 4.949749
v -23.778091 13.940353 4.605332
v -34.110100 22.160332 4.949748
v -34.110100 22.160332 4.949748
v -34.233433 22.713423 4.605332
v -25.004269 12.479054 0.000000
v -35.459610 21.252123 0.000000
v -24.344198 13.965770 -4.949748
v -24.344198 13.965770 -4.949748
v -23.778091 13.940354 -4.605332
v -40.374237 4.949747 -4.949748
v -40.374237 4.949747 -4.949748
v -40.374237 -0.000000 -7.000000
v -40.374237 -0.000000 -7.000000
v -40.824238 -0.000000 -6.512924
v -40.824238 4.605332 -4.605332
v -34.110100 22.160332 -4.949747
v -34.110100 22.160332 -4.949747
v -34.233433 22.713423 -4.605332
v -36.787117 18.290310 4.605332
v -25.959724 9.448567 7.000000
v -25.959724 9.448567 7.000000
v -25.536863 9.294659 6.512923
v -40.374237 7.000000 0.000000
v -40.374237 7.000000 0.000000
v -40.824238 6.512923 0.000000
v -37.939373 13.808803 7.000000
v -37.939373 13.808803 7.000000
v -38.362236 13.962711 6.512923
v -27.625763 0.000000 -7.000000
v -27.625763 0.000000 -7.000000
v -27.625763 4.949748 -4.949748
v -27.625763 4.949748 -4.949748
v -27.175762 4.605333 -4.605332
v -27.175762 0.000000 -6.512924
v -27.111980 4.967061 4.605332
v -39.937347 9.635115 4.605332
v -28.353865 2.870720 -0.000000
v -28.353865 2.870720 -0.000000
v -27.764414 3.174512 0.000000
v -40.333511 7.230954 0.000000
v -40.333511 7.230954 0.000000
v -40.589787 7.842566 0.000000
v -27.111979 4.967060 -4.605332
v -39.937347 9.635115 -4.605332
v -40.374237 4.949747 4.949748
v -40.374237 4.949747 4.949748
v -40.824238 4.605332 4.605332
v -27.625763 0.000000 7.000000
v -27.625763 0.000000 7.000000
v -27.175762 0.000000 6.512924
v -40.374237 -0.000000 7.000000
v -40.374237 -0.000000 7.000000
v -40.824238 -0.000000 6.512924
v -27.625763 -4.949747 4.949748
v -27.625763 -4.949747 4.949748
v -27.175762 -4.605332 4.605332
v -40.374237 -4.949748 4.949748
v -40.374237 -4.949748 4.949748
v -40.824238 -4.605333 4.605332
v -27.625763 -7.000000 0.000000
v -27.625763 -7.000000 0.000000
v -27.175762 -6.512923 0.000000
v -40.374237 -7.000000 0.000000
v -40.374237 -7.000000 0.000000
v -40.824238 -6.512924 -0.000000
v -27.625763 -4.949747 -4.949748
v -27.625763 -4.949747 -4.949748
v -27.175762 -4.605332 -4.605332
v -40.374237 -4.949748 -4.949748
v -40.374237 -4.949748 -4.949748
v -40.824238 -4.605333 -4.605332
vn -1.0000 -0.0000 -0.0000
vn -0.0000 0.3827 -0.9239
vn 0.3314 -0.1913 0.9239
vn 0.3673 0.6361 0.6786
vn 0.7958 0.6055 -0.0000
vn 0.9098 -0.1604 -0.3827
vn -0.3673 -0.6361 0.6786
vn 0.7890 0.3291 0.5188
vn 0.2542 0.8397 -0.4798
vn -0.2460 0.2932 -0.9239
vn -0.8711 -0.1046 -0.4798
vn -0.8711 -0.1045 -0.4798
vn 0.6289 0.5791 -0.5188
vn 0.1275 0.7234 -0.6786
vn 0.3769 -0.0665 -0.9239
vn 0.0489 0.9988 -0.0000
vn -0.9921 0.1252 -0.0000
vn 0.2542 0.8397 0.4798
vn -0.2460 0.2932 0.9239
vn -0.3673 -0.6361 -0.6786
vn 0.1095 -0.8479 -0.5188
vn 0.3314 -0.1913 -0.9239
vn -0.8711 -0.1046 0.4798
vn 0.9549 -0.2968 -0.0000
vn 0.7890 -0.3291 0.5188
vn 0.8001 0.4619 -0.3827
vn 0.5627 0.4721 0.6786
vn 0.2460 -0.2932 0.9239
vn -0.5627 -0.4721 0.6786
vn 0.9549 0.2968 -0.0000
vn 0.8001 -0.4619 -0.3827
vn 0.8711 0.1046 0.4798
vn 0.5939 -0.7077 0.3827
vn 0.4611 0.7199 -0.5188
vn 0.7958 -0.6055 -0.0000
vn 0.6289 -0.5791 0.5188
vn 0.9098 0.1604 -0.3827
vn -0.8160 0.2551 -0.5188
vn 0.4581 0.8889 -0.0000
vn -0.3160 0.8682 0.3827
vn -0.9223 0.3865 -0.0000
vn 0.2204 -0.9754 -0.0000
vn 0.1095 -0.8479 0.5188
vn 0.4611 0.7199 0.5188
vn 0.7890 0.3291 -0.5188
vn 0.3673 0.6361 -0.6786
vn -0.8160 0.2551 0.5188
vn -0.5627 -0.4721 -0.6786
vn -0.2542 -0.8397 -0.4798
vn 0.2460 -0.2932 -0.9239
vn 0.6902 0.2512 0.6786
vn 0.1309 -0.3596 0.9239
vn 0.9921 -0.1252 -0.0000
vn -0.6902 -0.2512 0.6786
vn 0.8160 -0.2551 0.5188
vn 0.7345 0.4798 -0.4798
vn -0.7345 0.4798 -0.4798
vn 0.8711 0.1046 -0.4798
vn 0.5627 0.4721 -0.6786
vn 0.7345 0.6786 -0.0000
vn -0.0000 0.9239 0.3827
vn -0.7345 0.6786 -0.0000
vn 0.7345 0.4798 0.4798
vn -0.0000 0.3827 0.9239
vn -0.6902 -0.2512 -0.6786
vn -0.4611 -0.7199 -0.5188
vn 0.1309 -0.3596 -0.9239
vn -0.7345 0.4798 0.4798
vn 0.7345 -0.0000 0.6786
vn -0.0000 -0.3827 0.9239
vn 0.5407 -0.8412 -0.0000
vn 0.3929 -0.7593 0.5188
vn -0.7345 -0.0000 0.6786
vn 0.9223 -0.3865 -0.0000
vn 0.3160 -0.8682 -0.3827
vn 0.7345 -0.4798 0.4798
vn -0.0000 -0.9239 0.3827
vn -0.0489 -0.9988 -0.0000
vn -0.2542 -0.8397 0.4798
vn -0.7345 -0.4798 0.4798
vn 0.7345 -0.6786 -0.0000
vn -0.0000 -0.9239 -0.3827
vn 0.8160 -0.2551 -0.5188
vn 0.6902 0.2512 -0.6786
vn -0.7345 -0.6786 -0.0000
vn 0.7345 -0.4798 -0.4798
vn 0.7345 -0.0000 -0.6786
vn -0.0000 -0.3827 -0.9239
vn -0.7345 -0.0000 -0.6786
vn -0.7345 -0.4798 -0.4798
vn -0.4581 -0.8889 -0.0000
vn -0.4611 -0.7199 0.5188
vn 1.0000 -0.0000 -0.0000
vn -0.0000 0.9239 -0.3827
vn -0.9397 -0.3420 -0.0000
vn -0.1309 0.3596 -0.9239
vn 0.9397 0.3420 -0.0000
vn -0.1540 -0.5907 -0.7920
vn -0.0550 -0.8629 -0.5024
vn 0.5968 -0.6257 -0.5024
vn 0.4977 -0.3535 -0.7920
vn 0.3160 -0.8682 0.3827
vn -0.0550 -0.8629 0.5024
vn -0.1540 -0.5907 0.7920
vn 0.4977 -0.3535 0.7920
vn 0.5968 -0.6257 0.5024
vn -0.1309 0.3596 0.9239
vn -0.4977 0.3535 0.7920
vn -0.5968 0.6257 0.5024
vn 0.0550 0.8629 0.5024
vn 0.1540 0.5907 0.7920
vn -0.3160 0.8682 -0.3827
vn -0.5968 0.6257 -0.5024
vn -0.4977 0.3535 -0.7920
vn 0.1540 0.5907 -0.7920
vn 0.0550 0.8629 -0.5024
vn -0.7660 -0.6428 -0.0000
vn 0.7660 0.6428 -0.0000
vn 0.5939 -0.7077 -0.3827
vn 0.3227 -0.9241 -0.2048
vn 0.3227 -0.9241 0.2048
vn 0.8540 -0.4783 0.2048
vn 0.8540 -0.4783 -0.2048
vn -0.5939 0.7077 0.3827
vn -0.8540 0.4783 0.2048
vn -0.8540 0.4782 -0.2048
vn -0.3227 0.9241 -0.2048
vn -0.3227 0.9241 0.2048
vn -0.5939 0.7077 -0.3827
vn -0.5000 -0.8660 -0.0000
vn -0.3314 0.1913 -0.9239
vn 0.5000 0.8660 -0.0000
vn 0.2617 -0.5515 -0.7920
vn 0.5125 -0.6964 -0.5024
vn 0.8593 -0.0957 -0.5024
vn 0.6085 0.0491 -0.7920
vn 0.8001 -0.4619 0.3827
vn 0.5125 -0.6964 0.5024
vn 0.2617 -0.5515 0.7920
vn 0.6085 0.0491 0.7920
vn 0.8593 -0.0957 0.5024
vn -0.3314 0.1913 0.9239
vn -0.6085 -0.0491 0.7920
vn -0.8593 0.0957 0.5024
vn -0.5125 0.6964 0.5024
vn -0.2617 0.5515 0.7920
vn -0.8001 0.4619 -0.3827
vn -0.8593 0.0957 -0.5024
vn -0.6085 -0.0491 -0.7920
vn -0.2617 0.5515 -0.7920
vn -0.5125 0.6964 -0.5024
vn -0.1736 -0.9848 -0.0000
vn -0.3769 0.0665 -0.9239
vn 0.1736 0.9848 -0.0000
vn 0.4345 -0.4288 -0.7920
vn 0.7198 -0.4791 -0.5024
vn 0.8402 0.2040 -0.5024
vn 0.5550 0.2543 -0.7920
vn 0.9098 -0.1604 0.3827
vn 0.7198 -0.4791 0.5024
vn 0.4345 -0.4288 0.7920
vn 0.5550 0.2543 0.7920
vn 0.8402 0.2040 0.5024
vn -0.3769 0.0665 0.9239
vn -0.5550 -0.2543 0.7920
vn -0.8402 -0.2040 0.5024
vn -0.7198 0.4791 0.5024
vn -0.4345 0.4288 0.7920
vn -0.9098 0.1604 -0.3827
vn -0.8402 -0.2040 -0.5024
vn -0.5550 -0.2543 -0.7920
vn -0.4345 0.4288 -0.7920
vn -0.7198 0.4791 -0.5024
vn 0.1736 -0.9848 -0.0000
vn -0.3769 -0.0665 -0.9239
vn -0.1736 0.9848 -0.0000
vn 0.5550 -0.2543 -0.7920
vn 0.8402 -0.2040 -0.5024
vn 0.7198 0.4791 -0.5024
vn 0.4345 0.4288 -0.7920
vn 0.9098 0.1604 0.3827
vn 0.8402 -0.2040 0.5024
vn 0.5550 -0.2543 0.7920
vn 0.4345 0.4288 0.7920
vn 0.7198 0.4791 0.5024
vn -0.3769 -0.0665 0.9239
vn -0.4345 -0.4288 0.7920
vn -0.7198 -0.4791 0.5024
vn -0.8402 0.2040 0.5024
vn -0.5550 0.2543 0.7920
vn -0.9098 -0.1604 -0.3827
vn -0.7198 -0.4791 -0.5024
vn -0.4345 -0.4288 -0.7920
vn -0.5550 0.2543 -0.7920
vn -0.8402 0.2040 -0.5024
vn 0.5000 -0.8660 -0.0000
vn -0.3314 -0.1913 -0.9239
vn -0.5000 0.8660 -0.0000
vn 0.6085 -0.0491 -0.7920
vn 0.8593 0.0957 -0.5024
vn 0.5125 0.6964 -0.5024
vn 0.2617 0.5515 -0.7920
vn 0.8001 0.4619 0.3827
vn 0.8593 0.0957 0.5024
vn 0.6085 -0.0491 0.7920
vn 0.2617 0.5515 0.7920
vn 0.5125 0.6964 0.5024
vn -0.3314 -0.1913 0.9239
vn -0.2617 -0.5515 0.7920
vn -0.5125 -0.6964 0.5024
vn -0.8593 -0.0957 0.5024
vn -0.6085 0.0491 0.7920
vn -0.8001 -0.4619 -0.3827
vn -0.5125 -0.6964 -0.5024
vn -0.2617 -0.5515 -0.7920
vn -0.6085 0.0491 -0.7920
vn -0.8593 -0.0957 -0.5024
vn 0.7660 -0.6428 -0.0000
vn -0.2460 -0.2932 -0.9239
vn -0.7660 0.6428 -0.0000
vn 0.5939 0.7077 -0.3827
vn 0.8540 0.4783 -0.2048
vn 0.8540 0.4782 0.2048
vn 0.3227 0.9241 0.2048
vn 0.3227 0.9241 -0.2048
vn 0.2460 0.2932 0.9239
vn -0.2460 -0.2932 0.9239
vn -0.5939 -0.7077 0.3827
vn -0.3227 -0.9241 0.2048
vn -0.3227 -0.9241 -0.2048
vn -0.8540 -0.4783 -0.2048
vn -0.8540 -0.4783 0.2048
vn -0.5939 -0.7077 -0.3827
vn 0.9397 -0.3420 -0.0000
vn -0.1309 -0.3596 -0.9239
vn -0.9397 0.3420 -0.0000
vn 0.4977 0.3535 -0.7920
vn 0.5968 0.6257 -0.5024
vn -0.0550 0.8629 -0.5024
vn -0.1540 0.5907 -0.7920
vn 0.3160 0.8682 0.3827
vn 0.5968 0.6257 0.5024
vn 0.4977 0.3535 0.7920
vn -0.1540 0.5907 0.7920
vn -0.0550 0.8629 0.5024
vn -0.1309 -0.3596 0.9239
vn 0.1540 -0.5907 0.7920
vn 0.0550 -0.8629 0.5024
vn -0.5968 -0.6257 0.5024
vn -0.4977 -0.3535 0.7920
vn -0.3160 -0.8682 -0.3827
vn 0.0550 -0.8629 -0.5024
vn 0.1540 -0.5907 -0.7920
vn -0.4977 -0.3535 -0.7920
vn -0.5968 -0.6257 -0.5024
vn -0.1275 -0.7234 -0.6786
vn 0.3929 -0.7593 -0.5188
vn -0.7890 -0.3291 0.5188
vn 0.8711 -0.1045 0.4798
vn 0.5939 0.7077 0.3827
vn 0.8711 -0.1046 0.4798
vn 0.9921 0.1252 -0.0000
vn -0.1095 0.8479 0.5188
vn -0.9549 -0.2968 -0.0000
vn -0.8001 0.4619 0.3827
vn -0.2204 0.9754 -0.0000
vn -0.7890 -0.3291 -0.5188
vn -0.1275 0.7233 -0.6786
vn 0.3769 0.0665 -0.9239
vn 0.3929 0.7593 -0.5188
vn -0.1095 0.8479 -0.5188
vn 0.6289 0.5791 0.5188
vn -0.1275 -0.7234 0.6786
vn 0.3769 -0.0665 0.9239
vn 0.5407 0.8412 -0.0000
vn 0.1275 0.7233 0.6786
vn 0.1275 -0.7234 -0.6786
vn 0.6289 -0.5791 -0.5188
vn -0.6289 -0.5791 0.5188
vn 0.9223 0.3865 -0.0000
vn 0.3160 0.8682 -0.3827
vn 0.8160 0.2551 0.5188
vn -0.3929 0.7593 0.5188
vn -0.7958 -0.6055 -0.0000
vn -0.9098 0.1604 0.3827
vn -0.5407 0.8412 -0.0000
vn -0.6289 -0.5791 -0.5188
vn -0.3673 0.6361 -0.6786
vn 0.3314 0.1913 -0.9239
vn 0.1095 0.8479 -0.5188
vn -0.3929 0.7593 -0.5188
vn 0.3929 0.7593 0.5188
vn 0.1275 -0.7234 0.6786
vn 0.3769 0.0665 0.9239
vn 0.2204 0.9754 -0.0000
vn -0.1275 0.7234 0.6786
vn 0.3673 -0.6361 -0.6786
vn 0.7890 -0.3291 -0.5188
vn -0.3929 -0.7593 0.5188
vn -0.6289 0.5791 0.5188
vn -0.5407 -0.8412 -0.0000
vn -0.9098 -0.1604 0.3827
vn -0.7958 0.6055 -0.0000
vn -0.3929 -0.7593 -0.5188
vn -0.2542 0.8397 -0.4798
vn 0.2460 0.2932 -0.9239
vn -0.5627 0.4721 -0.6786
vn -0.6289 0.5791 -0.5188
vn 0.1095 0.8479 0.5188
vn 0.3673 -0.6361 0.6786
vn 0.3314 0.1913 0.9239
vn -0.0489 0.9988 -0.0000
vn -0.3673 0.6361 0.6786
vn 0.5627 -0.4721 -0.6786
vn 0.8711 -0.1046 -0.4798
vn -0.1095 -0.8479 0.5188
vn -0.7890 0.3291 0.5188
vn -0.2204 -0.9754 -0.0000
vn -0.8001 -0.4619 0.3827
vn -0.9549 0.2968 -0.0000
vn -0.1095 -0.8479 -0.5188
vn -0.6902 0.2512 -0.6786
vn 0.1309 0.3596 -0.9239
vn -0.4611 0.7199 -0.5188
vn -0.7890 0.3291 -0.5188
vn -0.2542 0.8397 0.4798
vn 0.5627 -0.4721 0.6786
vn -0.4581 0.8889 -0.0000
vn -0.5627 0.4721 0.6786
vn 0.6902 -0.2512 -0.6786
vn 0.8160 0.2551 -0.5188
vn 0.2542 -0.8397 0.4798
vn -0.8711 0.1046 0.4798
vn 0.0489 -0.9988 -0.0000
vn -0.9921 -0.1252 -0.0000
vn 0.2542 -0.8397 -0.4798
vn -0.8711 0.1046 -0.4798
vn -0.4611 0.7199 0.5188
vn 0.6902 -0.2512 0.6786
vn 0.1309 0.3596 0.9239
vn -0.6902 0.2512 0.6786
vn 0.4611 -0.7199 0.5188
vn -0.8160 -0.2551 0.5188
vn 0.4581 -0.8889 -0.0000
vn -0.3160 -0.8682 0.3827
vn -0.9223 -0.3865 -0.0000
vn 0.4611 -0.7199 -0.5188
vn -0.8160 -0.2551 -0.5188
vt 0.000000 1.122872
vt -0.020787 1.149395
vt 0.020787 1.149395
vt 1.354338 -0.000000
vt 1.326982 0.020787
vt 1.326982 -0.020787
vt 1.839356 0.230267
vt 1.819432 0.256098
vt 1.809378 0.226700
vt 1.355599 -0.230267
vt 1.385577 -0.226700
vt 1.375522 -0.256098
vt -0.230267 0.481756
vt -0.256098 0.477412
vt -0.226700 0.449787
vt 0.878811 0.230267
vt 0.886972 0.256098
vt 0.912431 0.226700
vt 0.000000 1.062606
vt -0.020787 1.036083
vt 0.020787 1.036083
vt -0.230267 0.681113
vt -0.256098 0.685457
vt -0.226700 0.713082
vt 0.230267 1.652608
vt 0.226700 1.620207
vt 0.256098 1.634906
vt 0.230267 0.681113
vt 0.226700 0.713082
vt 0.256098 0.685457
vt 0.230267 0.481756
vt 0.226700 0.449787
vt 0.256098 0.477412
vt 1.250213 0.000000
vt 1.277569 0.020787
vt 1.277569 -0.020787
vt 1.355599 0.230267
vt 1.375522 0.256098
vt 1.385577 0.226700
vt 1.839356 -0.230267
vt 1.809378 -0.226700
vt 1.819432 -0.256098
vt 0.878811 -0.230267
vt 0.912431 -0.226700
vt 0.886972 -0.256098
vt -0.230267 1.652608
vt -0.256098 1.634906
vt -0.226700 1.620207
vt -0.230267 1.291878
vt -0.256098 1.309581
vt -0.226700 1.324280
vt 0.821189 -0.230267
vt 0.787569 -0.226700
vt 0.813028 -0.256098
vt 0.230267 1.291878
vt 0.226700 1.324280
vt 0.256098 1.309581
vt 0.821189 0.230267
vt 0.813028 0.256098
vt 0.787569 0.226700
vt 0.462719 0.230267
vt 0.463114 0.256098
vt 0.492065 0.226700
vt 0.230267 1.970216
vt 0.226700 1.943572
vt 0.256098 1.948677
vt 0.462719 -0.230267
vt 0.492065 -0.226700
vt 0.463114 -0.256098
vt -0.230267 1.970216
vt -0.256098 1.948677
vt -0.226700 1.943572
vt -0.230267 1.378131
vt -0.256098 1.399669
vt -0.226700 1.404774
vt 0.127684 -0.230267
vt 0.098339 -0.226700
vt 0.127290 -0.256098
vt 0.230267 1.378131
vt 0.226700 1.404774
vt 0.256098 1.399669
vt 0.127684 0.230267
vt 0.127290 0.256098
vt 0.098339 0.226700
vt -0.127684 0.230267
vt -0.098339 0.226700
vt -0.127290 0.256098
vt -0.127684 -0.230267
vt -0.127290 -0.256098
vt -0.098339 -0.226700
vt -0.462719 -0.230267
vt -0.463114 -0.256098
vt -0.492065 -0.226700
vt -0.226700 1.943572
vt -0.462719 0.230267
vt -0.492065 0.226700
vt -0.463114 0.256098
vt 0.226700 1.943572
vt -0.821189 0.230267
vt -0.787569 0.226700
vt -0.813028 0.256098
vt -0.821189 -0.230267
vt -0.813028 -0.256098
vt -0.787569 -0.226700
vt -0.878811 -0.230267
vt -0.886972 -0.256098
vt -0.912431 -0.226700
vt -0.226700 1.620207
vt -0.878811 0.230267
vt -0.912431 0.226700
vt -0.886972 0.256098
vt 0.226700 1.620207
vt -0.000000 1.122872
vt 0.020787 1.149395
vt -0.020787 1.149395
vt -1.354338 0.000000
vt -1.326982 -0.020787
vt -1.326982 0.020787
vt -1.250213 0.000000
vt -1.277569 -0.020787
vt -1.277569 0.020787
vt 0.020787 1.036083
vt -0.020787 1.036083
vt -1.839356 0.230267
vt -1.809378 0.226700
vt -1.819432 0.256098
vt -1.839356 -0.230267
vt -1.819432 -0.256098
vt -1.809378 -0.226700
vt -1.355599 -0.230267
vt -1.375522 -0.256098
vt -1.385577 -0.226700
vt -0.226700 0.449787
vt -1.355599 0.230267
vt -1.385577 0.226700
vt -1.375522 0.256098
vt 0.226700 0.449787
vt 1.765864 -0.020787
vt 1.765864 0.020787
vt 1.388221 0.000000
vt 1.417693 -0.000000
vt 0.247487 -0.247487
vt 0.325646 -0.000000
vt 0.350000 -0.000000
vt 1.385577 0.231775
vt 1.974504 0.477412
vt 1.984559 0.449787
vt 0.247487 -0.247487
vt 0.325646 0.000000
vt 0.230267 -0.230267
vt 0.000000 -0.350000
vt 0.230267 -0.230267
vt 0.325646 0.698136
vt -0.000000 -0.325646
vt 0.000000 -0.350000
vt -0.230267 -0.230267
vt 0.000000 -0.325646
vt 1.188905 -0.230267
vt -0.247487 -0.247487
vt -0.230267 -0.230267
vt 0.000000 0.392128
vt 0.000000 0.361548
vt -0.247487 -0.247487
vt -0.325646 -0.000000
vt 0.556650 0.000000
vt 0.584541 0.000000
vt -0.325646 0.000000
vt -0.350000 0.000000
vt -0.247487 0.247487
vt -0.350000 -0.000000
vt 1.375522 0.259400
vt 1.276843 0.464733
vt 1.297986 0.472428
vt -0.247487 0.247487
vt -0.230267 0.230267
vt 0.000000 0.350000
vt -0.230267 0.230267
vt 0.000000 0.325646
vt 0.000000 0.350000
vt 0.350000 1.297603
vt 0.230267 1.135671
vt 0.247487 1.108017
vt 0.230267 0.230267
vt -0.000000 0.325646
vt 0.247487 0.247487
vt 0.230267 0.230267
vt 0.247487 0.247487
vt 0.350000 0.000000
vt 1.984559 0.449787
vt 0.912431 1.068182
vt 1.205684 1.634906
vt 1.231143 1.620207
vt 1.355599 0.248353
vt -0.325646 0.698136
vt -0.350000 0.690440
vt 1.217210 0.247487
vt 1.040892 0.325646
vt 1.058128 0.350000
vt -0.325646 0.464733
vt -0.350000 0.472428
vt 1.020606 1.767741
vt 1.220023 1.652608
vt 1.819432 0.903468
vt 1.918112 0.698136
vt 1.839356 0.914515
vt 1.210396 0.713082
vt 1.809378 0.931093
vt 0.961412 0.000000
vt 0.993753 0.000000
vt 0.000000 0.770740
vt 1.188905 0.230267
vt 1.806734 0.000000
vt 1.777261 0.000000
vt 0.000000 0.801321
vt 0.000000 1.394693
vt 0.000000 1.421080
vt 0.325646 0.464733
vt 1.896969 0.690440
vt -0.230267 1.135671
vt -0.247487 1.108017
vt -0.000000 1.604918
vt -0.000000 1.573256
vt 1.058128 -0.350000
vt 1.217210 -0.247487
vt -0.350000 1.297603
vt -0.325646 1.312066
vt 0.000000 1.339568
vt 0.000000 1.371231
vt -0.350000 0.887875
vt -0.230267 1.049807
vt -0.325646 0.873412
vt 0.679394 0.325646
vt 0.690644 0.350000
vt 1.546423 -0.350000
vt 1.415647 -0.230267
vt 1.387341 -0.247487
vt -0.247487 1.077461
vt 0.838687 0.020787
vt 0.573802 1.948677
vt 0.354453 2.010201
vt 0.581221 1.970216
vt 0.230267 1.049807
vt 0.602753 1.943572
vt 0.463114 1.320937
vt 1.415647 0.230267
vt 1.387341 0.247487
vt 0.247487 1.077461
vt 0.325646 0.873412
vt 1.563659 0.325646
vt 1.546423 0.350000
vt 0.886972 1.082881
vt 1.231143 1.620207
vt 0.679394 -0.325646
vt -0.000000 1.953653
vt 0.000000 1.927266
vt 1.009356 1.748256
vt 0.235951 0.325646
vt 0.239858 0.350000
vt 0.494316 1.309581
vt 0.679394 1.176745
vt 0.690644 1.196231
vt 1.020606 -0.325646
vt 0.468857 1.324280
vt 0.813028 1.861606
vt 0.787569 1.876305
vt 0.738588 -0.000000
vt 0.706247 -0.000000
vt 0.012349 1.404774
vt -0.127290 2.027409
vt -0.098339 2.032514
vt -0.000000 1.371231
vt -0.354453 0.325646
vt 0.787569 1.876305
vt 0.679394 1.176745
vt 0.479977 1.291878
vt 1.020606 0.325646
vt 1.009356 0.350000
vt 0.492065 1.315832
vt 0.602753 1.943572
vt -0.838687 -0.020787
vt 0.235951 -0.325646
vt -0.033754 0.000000
vt -0.005863 -0.000000
vt 0.350546 1.988043
vt -0.016602 1.399669
vt -0.235951 1.338145
vt -0.239858 1.360303
vt 0.016602 1.399669
vt 0.235951 1.338145
vt 0.239858 1.360303
vt -0.000000 0.770740
vt -0.000000 0.801321
vt 0.354453 -0.325646
vt -0.012349 1.404774
vt 0.127290 2.027409
vt 0.098339 2.032514
vt 0.033754 0.000000
vt 0.005863 0.000000
vt -0.468857 1.324280
vt -0.813028 1.861606
vt -0.787569 1.876305
vt -0.000000 1.421080
vt -1.020606 0.325646
vt -0.012349 1.404774
vt 0.098339 2.032514
vt 0.016602 1.399669
vt 0.009183 1.378131
vt 0.354453 0.325646
vt 0.350546 0.350000
vt 0.012349 1.404774
vt -0.098339 2.032514
vt -0.016602 1.399669
vt -0.009183 1.378131
vt -0.738588 0.000000
vt -0.706247 0.000000
vt -0.354453 -0.325646
vt -0.350546 -0.350000
vt -0.494316 1.309581
vt -0.679394 1.176745
vt -0.690644 1.196231
vt -0.235951 -0.325646
vt -0.239858 -0.350000
vt -0.573802 1.948677
vt -0.354453 2.010201
vt -0.581221 1.970216
vt -0.602753 1.943572
vt -0.463114 1.320937
vt -0.556650 -0.000000
vt 0.000000 1.953653
vt -0.000000 1.927266
vt -0.584541 -0.000000
vt -1.546423 0.350000
vt -1.415647 0.230267
vt -1.387341 0.247487
vt -0.492065 1.315832
vt -0.602753 1.943572
vt -0.235951 0.325646
vt -0.350546 1.988043
vt -0.787569 1.876305
vt -0.679394 1.176745
vt -0.479977 1.291878
vt -1.020606 -0.325646
vt -1.009356 -0.350000
vt 0.350000 0.887875
vt -0.679394 -0.325646
vt -0.690644 -0.350000
vt -1.205684 1.634906
vt -1.020606 1.767741
vt -1.220023 1.652608
vt -0.912431 1.068182
vt -1.231143 1.620207
vt -0.961412 0.000000
vt 0.247487 1.077461
vt 0.000000 1.604918
vt 0.000000 1.573256
vt -1.210396 0.713082
vt -1.819432 0.903468
vt -1.809378 0.931093
vt -0.993753 0.000000
vt -1.918112 0.698136
vt -1.839356 0.914515
vt -0.886972 1.082881
vt -1.231143 1.620207
vt -0.679394 0.325646
vt -1.009356 1.748256
vt -1.415647 -0.230267
vt -1.387341 -0.247487
vt -0.247487 1.077461
vt -1.806734 -0.000000
vt -1.777261 -0.000000
vt -1.563659 -0.325646
vt -1.546423 -0.350000
vt 0.350000 0.472428
vt -1.217210 -0.247487
vt -1.040892 -0.325646
vt -1.058128 -0.350000
vt -0.350000 1.297603
vt -0.247487 1.108017
vt -1.188905 -0.230267
vt -1.765864 0.020787
vt -1.765864 -0.020787
vt -1.188905 0.230267
vt 0.325646 -0.000000
vt 0.247487 1.108017
vt -1.058128 0.350000
vt -1.217210 0.247487
vt 0.350000 1.297603
vt 0.325646 1.312066
vt -1.896969 0.690440
vt 0.325646 0.000000
vt 0.350000 0.000000
vt -1.375522 0.259400
vt -1.276843 0.464733
vt -1.297986 0.472428
vt -1.385577 0.231775
vt -1.974504 0.477412
vt -1.984559 0.449787
vt -1.388221 0.000000
vt -1.417693 0.000000
vt -1.984559 0.449787
vt -1.355599 0.248353
vt 0.350000 0.690440
vt -0.325646 0.000000
vt -0.325646 -0.000000
vt -0.350000 -0.000000
vt -0.350000 0.000000
vt 0.350000 -0.000000
vt 2.018712 0.000000
vt 1.381288 -0.247487
vt 1.381288 -0.000000
vt 2.018712 0.247487
vt 1.381288 0.247487
vt 1.381288 0.247487
vt 2.018712 0.000000
vt 1.381288 0.000000
vt 1.381288 -0.247487
vt 2.018712 -0.247487
vt 2.018712 -0.247487
vt 0.230267 0.248353
vt 1.220450 0.685457
vt 0.000000 1.004143
vt 2.016675 0.000000
vt 1.984559 -0.226700
vt 1.178279 0.000000
vt 1.210396 -0.226700
vt 1.210396 0.226700
vt 0.000000 0.623953
vt 1.546423 1.297603
vt 1.217210 0.698289
vt 1.058128 0.887875
vt 1.387341 1.487189
vt 0.899046 1.077461
vt 0.230267 1.488460
vt -0.230267 1.488460
vt 1.705505 0.247487
vt 1.705505 -0.247487
vt 1.217210 0.698289
vt 0.899046 -0.247487
vt 0.838687 -0.020787
vt 0.899046 0.247487
vt 0.397376 0.000000
vt 1.220023 0.230267
vt 0.000000 1.021231
vt 0.226700 1.068182
vt -0.226700 1.068182
vt -0.226700 1.876305
vt 0.226700 1.876305
vt -0.084748 0.000000
vt 0.581221 0.230267
vt 0.000000 1.299526
vt 0.226700 1.315832
vt -0.226700 1.315832
vt -0.226700 2.032514
vt 0.226700 2.032514
vt -0.009183 0.230267
vt -0.009183 -0.230267
vt -0.581221 0.230267
vt -0.581221 -0.230267
vt -0.000000 1.299526
vt -1.220023 0.230267
vt -1.220023 -0.230267
vt -0.226700 1.068182
vt 0.226700 1.068182
vt -1.058128 0.887875
vt -1.387341 1.487189
vt -0.899046 1.077461
vt -1.217210 0.698289
vt -1.546423 1.297603
vt -0.899046 0.247487
vt -0.838687 0.020787
vt -0.899046 -0.247487
vt -1.217210 0.698289
vt -1.705505 -0.247487
vt -1.705505 0.247487
vt 0.000000 0.158726
vt -1.220450 0.685457
vt 0.230267 0.914515
vt -1.178279 -0.000000
vt -1.210396 0.226700
vt -1.210396 -0.226700
vt -2.016675 0.000000
vt -1.984559 0.226700
vt -2.018712 -0.000000
vt -1.381288 0.247487
vt -1.381288 0.000000
vt -2.018712 -0.247487
vt -1.381288 -0.247487
vt -1.381288 0.247487
vt -2.018712 0.000000
vt -1.381288 0.000000
vt -1.381288 -0.247487
vt -2.018712 0.247487
vt -2.018712 -0.247487
vt 0.350000 0.690440
vt 1.355599 0.248353
vt 1.385577 0.231775
vt 1.896969 0.690440
vt 1.040892 -0.325646
vt 1.563659 -0.325646
vt 0.690644 -0.350000
vt 1.220023 1.652608
vt 1.009356 -0.350000
vt -0.350546 0.350000
vt 0.239858 -0.350000
vt -0.009183 1.378131
vt 0.009183 1.378131
vt 0.350546 -0.350000
vt -1.009356 0.350000
vt -1.563659 0.325646
vt -0.239858 0.350000
vt -1.896969 0.690440
vt -0.690644 0.350000
vt -1.220023 1.652608
vt -1.040892 0.325646
vt -1.355599 0.248353
vt -0.350000 0.690440
vt -1.385577 0.231775
vt 2.018712 0.247487
vt -0.230267 0.248353
vt -0.230267 0.914515
vt 1.984559 0.226700
vt -0.230267 0.697018
vt 0.230267 0.697018
vt 1.705505 1.108017
vt -0.000000 1.561525
vt 0.479977 -0.230267
vt 0.479977 0.230267
vt 1.220023 -0.230267
vt 1.302624 -0.000000
vt -0.000000 1.923256
vt 0.009183 -0.230267
vt 0.009183 0.230267
vt 0.581221 -0.230267
vt 0.675152 -0.000000
vt 0.000000 2.048820
vt 0.084748 0.000000
vt -0.675152 0.000000
vt -0.000000 2.048820
vt -0.479977 0.230267
vt -0.397376 0.000000
vt -0.479977 -0.230267
vt -1.302624 0.000000
vt 0.000000 1.923256
vt -0.230267 0.697018
vt 0.230267 0.697018
vt -1.705505 1.108017
vt 0.000000 1.561525
vt -0.230267 0.248353
vt 0.230267 0.248353
vt -0.000000 1.004143
vt -1.984559 -0.226700
vt -2.018712 0.247487
s 1
f 23/1/17 260/2/125 261/3/126
f 22/4/16 263/5/127 264/6/128
f 50/7/34 231/8/115 232/9/116
f 160/10/92 208/11/103 209/12/104
f 85/13/55 211/14/105 212/15/106
f 28/16/21 274/17/133 275/18/134
f 81/19/53 245/20/122 246/21/123
f 71/22/47 218/23/108 219/24/109
f 67/25/45 277/26/135 278/27/136
f 55/28/38 228/29/113 229/30/114
f 140/31/83 201/32/100 202/33/101
f 130/34/78 242/35/120 243/36/121
f 108/37/66 198/38/98 199/39/99
f 66/40/44 221/41/110 222/42/111
f 63/43/43 284/44/138 285/45/139
f 11/46/8 287/47/140 288/48/141
f 542/49/258 294/50/143 295/51/144
f 547/52/263 297/53/145 298/54/146
f 554/55/267 304/56/148 305/57/149
f 559/58/271 307/59/150 308/60/151
f 540/61/257 314/62/155 315/63/156
f 18/64/13 317/65/157 318/66/158
f 118/67/72 324/68/160 325/69/161
f 560/70/272 327/71/162 328/72/163
f 574/73/279 334/74/165 335/75/166
f 579/76/283 337/77/167 338/78/168
f 586/79/287 344/80/170 345/81/171
f 591/82/291 347/83/172 348/84/173
f 572/79/278 354/81/177 355/80/178
f 558/85/270 357/86/179 358/87/180
f 52/73/36 364/75/182 365/74/183
f 592/88/292 367/89/184 368/90/185
f 606/91/299 374/92/187 375/93/188
f 613/70/300 377/94/189 378/71/190
f 620/95/304 384/96/192 385/97/193
f 627/64/308 387/66/194 388/98/195
f 604/55/298 394/57/199 395/56/200
f 590/99/290 397/100/201 398/101/202
f 35/49/25 404/51/204 405/50/205
f 628/102/309 407/103/206 408/104/207
f 642/105/316 414/106/209 415/107/210
f 643/46/317 417/108/211 418/47/212
f 650/109/321 424/110/214 425/111/215
f 655/25/325 427/27/216 428/112/217
f 546/113/262 438/114/222 439/115/223
f 632/116/312 441/117/224 442/118/225
f 678/119/334 456/120/229 457/121/230
f 679/19/335 459/122/231 460/123/232
f 670/28/331 470/30/237 471/29/238
f 654/124/324 473/125/239 474/126/240
f 577/22/282 480/24/242 481/23/243
f 692/127/338 483/128/244 484/129/245
f 708/130/342 490/131/247 491/132/248
f 709/13/343 493/133/249 494/14/250
f 716/134/347 500/135/252 501/136/253
f 717/31/348 503/33/254 504/137/255
f 245/138/122 242/35/120 246/139/123
f 208/11/103 159/140/91 162/141/91
f 156/142/90 153/143/89 158/144/89
f 199/145/99 202/146/101 201/147/100
f 152/148/86 148/149/87 147/150/86
f 146/151/85 154/152/90 156/142/90
f 202/33/101 141/153/84 140/31/83
f 152/148/86 137/154/81 139/155/81
f 146/151/85 134/156/80 144/157/85
f 243/36/121 131/158/79 130/34/78
f 129/159/76 137/154/81 127/160/76
f 201/32/100 124/161/74 126/162/74
f 136/163/80 121/164/73 134/156/80
f 324/68/160 117/165/71 120/166/71
f 129/159/76 114/167/69 116/168/69
f 113/169/68 121/164/73 123/170/73
f 198/171/98 107/172/65 110/173/65
f 106/174/63 114/167/69 104/175/63
f 199/39/99 159/140/91 108/37/66
f 103/176/62 111/177/68 113/169/68
f 106/174/63 98/178/60 100/179/60
f 95/180/59 92/181/58 97/182/58
f 103/176/62 89/183/57 101/184/62
f 88/185/56 98/178/60 86/186/56
f 158/144/89 89/183/57 91/187/57
f 88/185/56 148/149/87 150/188/87
f 212/15/106 124/161/74 85/13/55
f 209/171/104 212/189/106 211/146/105
f 275/190/134 278/191/136 277/192/135
f 209/171/104 82/172/54 160/193/92
f 246/21/123 92/181/58 81/19/53
f 211/14/105 78/194/51 80/195/51
f 75/196/49 72/197/48 77/198/48
f 218/23/108 82/199/54 84/200/54
f 278/191/136 68/201/46 67/202/45
f 222/203/111 78/204/51 66/205/44
f 219/206/109 222/203/111 221/207/110
f 284/44/138 62/208/42 65/209/42
f 219/24/109 59/210/41 71/22/47
f 242/35/120 73/211/49 75/196/49
f 221/41/110 56/212/39 58/213/39
f 228/29/113 59/210/41 61/214/41
f 364/75/182 51/215/35 54/216/35
f 232/9/116 56/212/39 50/7/34
f 231/203/115 228/206/113 232/207/116
f 229/30/114 107/217/65 55/28/38
f 231/203/115 141/204/84 143/218/84
f 245/20/122 47/219/32 49/220/32
f 277/26/135 44/221/30 46/222/30
f 43/223/29 131/158/79 133/224/79
f 40/225/27 47/219/32 38/226/27
f 404/51/204 34/227/24 37/228/24
f 43/229/29 31/230/23 41/231/29
f 274/17/133 27/232/20 30/233/20
f 40/234/27 24/235/18 26/236/18
f 275/18/134 62/208/42 28/16/21
f 260/2/125 31/230/23 33/237/23
f 264/6/128 24/235/18 22/4/16
f 261/238/126 264/6/128 263/5/127
f 318/239/158 19/240/14 18/241/13
f 261/3/126 15/242/11 23/1/17
f 317/243/157 314/244/155 318/239/158
f 263/5/127 12/245/9 14/246/9
f 17/247/12 72/248/48 15/242/11
f 14/246/9 93/249/59 95/250/59
f 288/48/141 44/221/30 11/46/8
f 285/251/139 288/252/141 287/191/140
f 285/45/139 8/253/7 63/43/43
f 317/65/157 5/254/5 7/255/5
f 287/191/140 537/201/4 4/256/4
f 314/62/155 541/257/256 538/258/256
f 294/259/143 8/260/7 10/261/7
f 439/115/223 545/230/261 546/113/262
f 298/54/146 537/262/4 547/52/263
f 295/263/144 298/264/146 297/265/145
f 295/51/144 550/227/264 542/49/258
f 315/63/156 117/165/71 540/61/257
f 297/53/145 553/266/266 551/267/266
f 355/268/178 358/269/180 357/270/179
f 304/56/148 550/227/264 548/271/264
f 358/87/180 557/272/268 558/85/270
f 308/60/151 553/266/266 559/58/271
f 307/264/150 304/263/148 308/273/151
f 305/259/149 27/274/20 554/275/267
f 307/59/150 68/276/46 70/277/46
f 328/72/163 5/254/5 560/70/272
f 327/239/162 324/278/160 328/279/163
f 439/280/223 442/118/225 441/117/224
f 325/69/161 563/281/273 118/67/72
f 357/86/179 566/282/275 564/283/275
f 327/239/162 569/240/276 567/284/276
f 354/285/177 573/286/277 570/287/277
f 334/288/165 563/289/273 561/290/273
f 480/24/242 578/291/280 575/292/280
f 338/78/168 569/293/276 579/76/283
f 335/294/166 338/295/168 337/296/167
f 335/75/166 582/215/284 574/73/279
f 355/80/178 51/215/35 572/79/278
f 337/77/167 585/297/286 583/298/286
f 395/299/200 398/300/202 397/301/201
f 344/80/170 582/215/284 580/302/284
f 398/101/202 589/303/288 590/99/290
f 348/84/173 585/297/286 591/82/291
f 347/295/172 344/304/170 348/305/173
f 345/306/171 541/289/256 586/307/287
f 347/83/172 19/308/14 21/309/14
f 368/90/185 566/282/275 592/88/292
f 367/269/184 364/310/182 368/311/185
f 365/312/183 595/286/293 52/313/36
f 397/100/201 598/314/295 596/315/295
f 367/89/184 601/316/296 599/317/296
f 394/318/199 605/319/297 602/320/297
f 374/92/187 595/321/293 593/322/293
f 607/179/60 611/175/63 612/178/60
f 378/323/190 601/324/296 613/325/300
f 377/326/189 374/327/187 378/323/190
f 375/93/188 616/328/301 606/91/299
f 395/56/200 34/227/24 604/55/298
f 377/94/189 619/329/303 617/330/303
f 384/96/192 616/328/301 614/331/301
f 623/332/307 626/333/305 621/334/305
f 388/98/195 619/329/303 627/64/308
f 387/323/194 384/335/192 388/336/195
f 385/97/193 573/337/277 620/95/304
f 387/323/194 557/324/268 555/338/268
f 408/104/207 598/314/295 628/102/309
f 407/300/206 404/299/204 408/339/207
f 405/318/205 631/340/310 35/341/25
f 442/118/225 626/333/305 632/116/312
f 407/103/206 635/342/313 633/343/313
f 636/344/314 640/242/315 641/248/314
f 414/106/209 631/345/310 629/346/310
f 418/347/212 635/348/313 643/349/317
f 415/350/210 418/347/212 417/351/211
f 415/107/210 646/352/318 642/105/316
f 438/114/222 640/242/315 638/353/315
f 417/108/211 649/354/320 647/355/320
f 471/356/238 474/357/240 473/358/239
f 424/110/214 646/352/318 644/359/318
f 474/357/240 653/360/322 654/361/324
f 428/112/217 649/354/320 655/25/325
f 425/362/215 428/363/217 427/347/216
f 425/111/215 605/364/297 650/109/321
f 427/347/216 589/348/288 587/365/288
f 441/117/224 658/366/326 656/367/326
f 543/368/259 661/231/327 545/230/261
f 473/125/239 664/369/328 662/370/328
f 656/367/326 667/371/329 665/372/329
f 470/30/237 671/217/330 668/373/330
f 672/374/332 661/375/327 659/376/327
f 665/377/329 677/219/333 675/378/333
f 456/120/229 674/379/332 672/374/332
f 471/29/238 578/291/280 670/28/331
f 460/123/232 677/219/333 679/19/335
f 459/380/231 456/120/229 460/381/232
f 457/121/230 682/382/336 678/119/334
f 683/187/57 687/383/89 688/183/57
f 459/122/231 691/181/337 689/384/337
f 636/385/314 682/382/336 680/386/336
f 623/387/307 691/181/337 625/388/307
f 484/129/245 664/369/328 692/127/338
f 483/357/244 480/356/242 484/358/245
f 481/23/243 695/199/339 577/22/282
f 683/187/57 698/184/62 696/176/62
f 483/357/244 701/360/341 699/389/341
f 704/185/56 707/390/87 702/391/87
f 490/392/247 695/393/339 693/394/339
f 494/14/250 701/194/341 709/13/343
f 491/395/248 494/396/250 493/397/249
f 491/132/248 712/398/344 708/130/342
f 607/179/60 706/186/56 704/185/56
f 493/133/249 715/161/346 713/162/346
f 500/135/252 712/398/344 710/399/344
f 504/137/255 715/161/346 717/31/348
f 501/392/253 504/400/255 503/396/254
f 501/392/253 671/393/330 716/401/347
f 503/33/254 653/153/322 651/402/322
f 718/169/68 698/184/62 720/177/68
f 609/174/63 723/403/69 611/175/63
f 718/169/68 726/404/73 724/405/73
f 727/159/76 723/403/69 721/406/69
f 730/163/80 726/404/73 732/156/80
f 733/155/81 729/160/76 727/159/76
f 730/163/80 738/157/85 736/151/85
f 733/155/81 741/150/86 735/154/81
f 742/142/90 738/157/85 744/152/90
f 702/391/87 741/150/86 739/148/86
f 742/142/90 687/383/89 685/407/89
f 173/156/1 181/177/1 189/183/1
f 149/408/88 155/409/88 157/410/88
f 87/411/2 2/410/2 90/412/2
f 187/178/93 179/167/93 171/154/93
f 166/413/82 138/414/82 145/415/82
f 172/414/77 135/416/77 170/415/77
f 176/417/70 122/410/70 174/409/70
f 180/408/64 112/412/64 178/410/64
f 184/418/61 102/415/61 182/416/61
f 188/414/94 190/413/94 186/415/94
f 217/22/95 227/28/95 197/419/95
f 109/173/67 202/146/101 198/171/98
f 231/203/115 194/173/96 229/420/114
f 205/161/97 195/153/97 225/421/97
f 199/39/99 125/422/75 161/141/75
f 204/141/102 212/423/106 208/11/103
f 211/146/105 83/173/52 209/171/104
f 214/173/107 222/203/111 218/420/108
f 221/41/110 60/424/40 219/425/109
f 224/424/112 232/9/116 228/426/113
f 259/1/117 233/248/117 241/427/117
f 94/428/50 74/429/50 76/430/50
f 13/431/10 234/430/10 16/432/10
f 267/433/118 257/434/118 249/219/118
f 240/435/119 242/35/120 238/196/119
f 243/36/121 48/436/33 132/224/33
f 248/437/28 39/428/28 42/430/28
f 252/430/19 25/431/19 32/432/19
f 256/438/124 264/6/128 260/439/125
f 261/238/126 268/246/129 266/440/129
f 299/441/130 269/232/130 279/208/130
f 29/261/22 278/191/136 274/251/133
f 307/264/150 270/261/131 305/259/149
f 276/442/132 306/58/132 296/52/132
f 277/26/135 64/443/31 275/444/134
f 282/222/137 284/445/138 280/443/137
f 287/191/140 9/261/3 285/251/139
f 290/261/142 298/264/146 294/259/143
f 297/446/145 549/271/265 295/51/144
f 300/271/147 308/447/151 304/56/148
f 329/281/152 339/448/152 309/257/152
f 539/290/15 318/239/158 314/244/155
f 345/306/171 312/284/153 310/290/153
f 316/449/154 346/82/154 336/76/154
f 317/65/157 119/450/6 315/451/156
f 322/255/159 324/452/160 320/450/159
f 327/239/162 562/290/274 325/244/161
f 332/284/164 334/288/165 330/290/164
f 337/453/167 581/302/285 335/75/166
f 340/302/169 348/454/173 344/80/170
f 383/95/174 353/455/174 363/456/174
f 556/338/269 354/285/177 571/287/269
f 387/323/194 350/287/175 385/327/193
f 356/85/176 386/457/176 376/458/176
f 357/454/179 53/216/37 355/80/178
f 360/216/181 368/453/185 364/75/182
f 365/312/183 600/338/294 594/287/294
f 370/287/186 378/323/190 374/327/187
f 377/94/189 615/459/302 375/452/188
f 382/330/191 384/451/192 380/459/191
f 409/345/196 419/352/196 389/364/196
f 603/320/289 398/300/202 394/318/199
f 427/347/216 390/320/197 425/362/215
f 396/99/198 426/460/198 416/461/198
f 397/447/201 36/228/26 395/56/200
f 400/228/203 408/446/207 404/51/204
f 407/300/206 630/320/311 405/318/205
f 410/320/208 418/347/212 414/362/209
f 417/108/211 645/443/319 415/462/210
f 422/355/213 424/463/214 420/443/213
f 447/231/218 455/427/218 429/248/218
f 637/464/306 622/465/306 639/466/306
f 681/467/219 432/468/219 430/464/219
f 435/433/220 463/181/220 453/219/220
f 434/469/221 442/118/225 438/470/222
f 439/280/223 657/367/260 544/471/260
f 446/465/226 660/464/226 444/466/226
f 450/468/227 673/472/227 448/464/227
f 454/473/228 456/120/229 452/374/228
f 457/121/230 464/474/233 462/386/233
f 485/199/234 495/475/234 465/217/234
f 669/394/323 474/357/240 470/476/237
f 503/396/254 466/394/235 501/392/253
f 472/477/236 502/31/236 492/13/236
f 473/125/239 576/478/281 471/479/238
f 476/478/241 484/129/245 480/480/242
f 483/357/244 694/394/340 481/476/243
f 486/394/246 494/396/250 490/392/247
f 491/132/248 714/481/345 711/399/345
f 496/399/251 504/482/255 500/135/252
f 521/403/93 529/154/93 505/390/93
f 686/483/2 705/484/2 703/485/2
f 743/486/88 506/485/88 740/487/88
f 511/183/1 535/152/1 527/156/1
f 510/488/94 697/489/94 608/490/94
f 516/489/61 610/491/61 514/490/61
f 520/492/64 722/485/64 518/484/64
f 524/483/70 728/487/70 522/485/70
f 528/493/77 734/490/77 526/491/77
f 532/489/82 534/488/82 530/490/82
f 245/138/122 243/36/121 242/35/120
f 208/11/103 160/10/92 159/140/91
f 156/142/90 154/152/90 153/143/89
f 199/145/99 198/171/98 202/146/101
f 152/148/86 150/188/87 148/149/87
f 146/151/85 144/157/85 154/152/90
f 202/33/101 143/494/84 141/153/84
f 152/148/86 147/150/86 137/154/81
f 146/151/85 136/163/80 134/156/80
f 243/36/121 133/224/79 131/158/79
f 129/159/76 139/155/81 137/154/81
f 201/32/100 140/31/83 124/161/74
f 136/163/80 123/170/73 121/164/73
f 324/68/160 118/67/72 117/165/71
f 129/159/76 127/160/76 114/167/69
f 113/169/68 111/177/68 121/164/73
f 198/171/98 108/495/66 107/172/65
f 106/174/63 116/168/69 114/167/69
f 199/39/99 162/141/91 159/140/91
f 103/176/62 101/184/62 111/177/68
f 106/174/63 104/175/63 98/178/60
f 95/180/59 93/388/59 92/181/58
f 103/176/62 91/187/57 89/183/57
f 88/185/56 100/179/60 98/178/60
f 158/144/89 153/143/89 89/183/57
f 88/185/56 86/186/56 148/149/87
f 212/15/106 126/162/74 124/161/74
f 209/171/104 208/496/103 212/189/106
f 275/190/134 274/251/133 278/191/136
f 209/171/104 84/173/54 82/172/54
f 246/21/123 97/182/58 92/181/58
f 211/14/105 85/13/55 78/194/51
f 75/196/49 73/211/49 72/197/48
f 218/23/108 71/22/47 82/199/54
f 278/191/136 70/256/46 68/201/46
f 222/203/111 80/497/51 78/204/51
f 219/206/109 218/420/108 222/203/111
f 284/44/138 63/43/43 62/208/42
f 219/24/109 61/214/41 59/210/41
f 242/35/120 130/34/78 73/211/49
f 221/41/110 66/40/44 56/212/39
f 228/29/113 55/28/38 59/210/41
f 364/75/182 52/73/36 51/215/35
f 232/9/116 58/213/39 56/212/39
f 231/203/115 229/420/114 228/206/113
f 229/30/114 110/373/65 107/217/65
f 231/203/115 50/205/34 141/204/84
f 245/20/122 81/19/53 47/219/32
f 277/26/135 67/25/45 44/221/30
f 43/223/29 41/498/29 131/158/79
f 40/225/27 49/220/32 47/219/32
f 404/51/204 35/49/25 34/227/24
f 43/229/29 33/237/23 31/230/23
f 274/17/133 28/16/21 27/232/20
f 40/234/27 38/499/27 24/235/18
f 275/18/134 65/209/42 62/208/42
f 260/2/125 23/1/17 31/230/23
f 264/6/128 26/236/18 24/235/18
f 261/238/126 260/439/125 264/6/128
f 318/239/158 21/284/14 19/240/14
f 261/3/126 17/247/12 15/242/11
f 317/243/157 315/278/156 314/244/155
f 263/5/127 22/4/16 12/245/9
f 17/247/12 77/344/48 72/248/48
f 14/246/9 12/245/9 93/249/59
f 288/48/141 46/222/30 44/221/30
f 285/251/139 284/190/138 288/252/141
f 285/45/139 10/500/7 8/253/7
f 317/65/157 18/64/13 5/254/5
f 287/191/140 11/501/8 537/201/4
f 314/62/155 540/61/257 541/257/256
f 294/259/143 542/275/258 8/260/7
f 439/115/223 543/368/259 545/230/261
f 298/54/146 4/502/4 537/262/4
f 295/263/144 294/259/143 298/264/146
f 295/51/144 548/271/264 550/227/264
f 315/63/156 120/166/71 117/165/71
f 297/53/145 547/52/263 553/266/266
f 355/268/178 354/285/177 358/269/180
f 304/56/148 554/55/267 550/227/264
f 358/87/180 555/503/268 557/272/268
f 308/60/151 551/267/266 553/266/266
f 307/264/150 305/259/149 304/263/148
f 305/259/149 30/261/20 27/274/20
f 307/59/150 559/58/271 68/276/46
f 328/72/163 7/255/5 5/254/5
f 327/239/162 325/244/161 324/278/160
f 439/280/223 438/470/222 442/118/225
f 325/69/161 561/504/273 563/281/273
f 357/86/179 558/85/270 566/282/275
f 327/239/162 560/241/272 569/240/276
f 354/285/177 572/505/278 573/286/277
f 334/288/165 574/506/279 563/289/273
f 480/24/242 577/22/282 578/291/280
f 338/78/168 567/507/276 569/293/276
f 335/294/166 334/288/165 338/295/168
f 335/75/166 580/302/284 582/215/284
f 355/80/178 54/216/35 51/215/35
f 337/77/167 579/76/283 585/297/286
f 395/299/200 394/318/199 398/300/202
f 344/80/170 586/79/287 582/215/284
f 398/101/202 587/508/288 589/303/288
f 348/84/173 583/298/286 585/297/286
f 347/295/172 345/306/171 344/304/170
f 345/306/171 538/290/256 541/289/256
f 347/83/172 591/82/291 19/308/14
f 368/90/185 564/283/275 566/282/275
f 367/269/184 365/312/183 364/310/182
f 365/312/183 593/287/293 595/286/293
f 397/100/201 590/99/290 598/314/295
f 367/89/184 592/88/292 601/316/296
f 394/318/199 604/341/298 605/319/297
f 374/92/187 606/91/299 595/321/293
f 607/179/60 609/174/63 611/175/63
f 378/323/190 599/338/296 601/324/296
f 377/326/189 375/335/188 374/327/187
f 375/93/188 614/331/301 616/328/301
f 395/56/200 37/228/24 34/227/24
f 377/94/189 613/70/300 619/329/303
f 384/96/192 620/95/304 616/328/301
f 623/332/307 625/509/307 626/333/305
f 388/98/195 617/330/303 619/329/303
f 387/323/194 385/327/193 384/335/192
f 385/97/193 570/510/277 573/337/277
f 387/323/194 627/325/308 557/324/268
f 408/104/207 596/315/295 598/314/295
f 407/300/206 405/318/205 404/299/204
f 405/318/205 629/320/310 631/340/310
f 442/118/225 621/334/305 626/333/305
f 407/103/206 628/102/309 635/342/313
f 636/344/314 638/353/315 640/242/315
f 414/106/209 642/105/316 631/345/310
f 418/347/212 633/365/313 635/348/313
f 415/350/210 414/362/209 418/347/212
f 415/107/210 644/359/318 646/352/318
f 438/114/222 546/113/262 640/242/315
f 417/108/211 643/46/317 649/354/320
f 471/356/238 470/476/237 474/357/240
f 424/110/214 650/109/321 646/352/318
f 474/357/240 651/511/322 653/360/322
f 428/112/217 647/355/320 649/354/320
f 425/362/215 424/350/214 428/363/217
f 425/111/215 602/512/297 605/364/297
f 427/347/216 655/513/325 589/348/288
f 441/117/224 632/116/312 658/366/326
f 543/368/259 659/229/327 661/231/327
f 473/125/239 654/124/324 664/369/328
f 656/367/326 658/366/326 667/371/329
f 470/30/237 670/28/331 671/217/330
f 672/374/332 674/379/332 661/375/327
f 665/377/329 667/226/329 677/219/333
f 456/120/229 678/119/334 674/379/332
f 471/29/238 575/292/280 578/291/280
f 460/123/232 675/378/333 677/219/333
f 459/380/231 457/121/230 456/120/229
f 457/121/230 680/386/336 682/382/336
f 683/187/57 685/407/89 687/383/89
f 459/122/231 679/19/335 691/181/337
f 636/385/314 641/514/314 682/382/336
f 623/387/307 689/384/337 691/181/337
f 484/129/245 662/370/328 664/369/328
f 483/357/244 481/476/243 480/356/242
f 481/23/243 693/200/339 695/199/339
f 683/187/57 688/183/57 698/184/62
f 483/357/244 692/361/338 701/360/341
f 704/185/56 706/186/56 707/390/87
f 490/392/247 708/515/342 695/393/339
f 494/14/250 699/516/341 701/194/341
f 491/395/248 490/392/247 494/396/250
f 491/132/248 710/399/344 712/398/344
f 607/179/60 612/178/60 706/186/56
f 493/133/249 709/13/343 715/161/346
f 500/135/252 716/134/347 712/398/344
f 504/137/255 713/162/346 715/161/346
f 501/392/253 500/517/252 504/400/255
f 501/392/253 668/394/330 671/393/330
f 503/33/254 717/31/348 653/153/322
f 718/169/68 696/176/62 698/184/62
f 609/174/63 721/406/69 723/403/69
f 718/169/68 720/177/68 726/404/73
f 727/159/76 729/160/76 723/403/69
f 730/163/80 724/405/73 726/404/73
f 733/155/81 735/154/81 729/160/76
f 730/163/80 732/156/80 738/157/85
f 733/155/81 739/148/86 741/150/86
f 742/142/90 736/151/85 738/157/85
f 702/391/87 707/390/87 741/150/86
f 742/142/90 744/152/90 687/383/89
f 189/183/1 1/143/1 165/152/1
f 165/152/1 169/157/1 173/156/1
f 173/156/1 177/164/1 181/177/1
f 181/177/1 185/184/1 189/183/1
f 189/183/1 165/152/1 173/156/1
f 149/408/88 151/417/88 155/409/88
f 87/411/2 164/408/2 2/410/2
f 171/154/93 167/150/93 163/149/93
f 163/149/93 191/186/93 187/178/93
f 187/178/93 183/175/93 179/167/93
f 179/167/93 175/160/93 171/154/93
f 171/154/93 163/149/93 187/178/93
f 166/413/82 168/518/82 138/414/82
f 172/414/77 128/418/77 135/416/77
f 176/417/70 115/408/70 122/410/70
f 180/408/64 105/411/64 112/412/64
f 184/418/61 99/414/61 102/415/61
f 188/414/94 192/518/94 190/413/94
f 197/419/95 203/475/95 207/519/95
f 207/519/95 213/199/95 217/22/95
f 217/22/95 223/210/95 227/28/95
f 227/28/95 193/217/95 197/419/95
f 197/419/95 207/519/95 217/22/95
f 109/173/67 142/218/67 202/146/101
f 231/203/115 196/218/96 194/173/96
f 225/421/97 220/520/97 215/194/97
f 215/194/97 210/13/97 205/161/97
f 205/161/97 200/31/97 195/153/97
f 195/153/97 230/477/97 225/421/97
f 225/421/97 215/194/97 205/161/97
f 199/39/99 201/521/100 125/422/75
f 204/141/102 206/422/102 212/423/106
f 211/146/105 79/497/52 83/173/52
f 214/173/107 216/497/107 222/203/111
f 221/41/110 57/213/40 60/424/40
f 224/424/112 226/213/112 232/9/116
f 241/427/117 247/522/117 251/231/117
f 251/231/117 255/230/117 259/1/117
f 259/1/117 265/242/117 233/248/117
f 233/248/117 237/523/117 241/427/117
f 241/427/117 251/231/117 259/1/117
f 94/428/50 96/524/50 74/429/50
f 13/431/10 236/428/10 234/430/10
f 249/219/118 244/19/118 239/181/118
f 239/181/118 235/388/118 267/433/118
f 267/433/118 262/525/118 257/434/118
f 257/434/118 253/226/118 249/219/118
f 249/219/118 239/181/118 267/433/118
f 240/435/119 246/139/123 242/35/120
f 243/36/121 245/138/122 48/436/33
f 248/437/28 250/524/28 39/428/28
f 252/430/19 254/428/19 25/431/19
f 256/438/124 258/236/124 264/6/128
f 261/238/126 263/5/127 268/246/129
f 279/208/130 283/43/130 289/253/130
f 289/253/130 293/526/130 299/441/130
f 299/441/130 303/527/130 269/232/130
f 269/232/130 273/16/130 279/208/130
f 279/208/130 289/253/130 299/441/130
f 29/261/22 69/256/22 278/191/136
f 307/264/150 272/256/131 270/261/131
f 296/52/132 291/262/132 286/528/132
f 286/528/132 281/529/132 276/442/132
f 276/442/132 271/276/132 306/58/132
f 306/58/132 301/266/132 296/52/132
f 296/52/132 286/528/132 276/442/132
f 277/26/135 45/222/31 64/443/31
f 282/222/137 288/48/141 284/445/138
f 287/191/140 3/256/3 9/261/3
f 290/261/142 292/256/142 298/264/146
f 297/446/145 552/530/265 549/271/265
f 300/271/147 302/530/147 308/447/151
f 309/257/152 313/61/152 319/165/152
f 319/165/152 323/67/152 329/281/152
f 329/281/152 333/531/152 339/448/152
f 339/448/152 343/532/152 309/257/152
f 309/257/152 319/165/152 329/281/152
f 539/290/15 20/284/15 318/239/158
f 345/306/171 347/295/172 312/284/153
f 336/76/154 331/293/154 326/533/154
f 326/533/154 321/534/154 316/449/154
f 316/449/154 311/308/154 346/82/154
f 346/82/154 341/297/154 336/76/154
f 336/76/154 326/533/154 316/449/154
f 317/65/157 6/255/6 119/450/6
f 322/255/159 328/72/163 324/452/160
f 327/239/162 568/284/274 562/290/274
f 332/284/164 338/295/168 334/288/165
f 337/453/167 584/535/285 581/302/285
f 340/302/169 342/535/169 348/454/173
f 363/456/174 369/321/174 373/91/174
f 373/91/174 379/328/174 383/95/174
f 383/95/174 349/337/174 353/455/174
f 353/455/174 359/536/174 363/456/174
f 363/456/174 373/91/174 383/95/174
f 556/338/269 358/269/180 354/285/177
f 387/323/194 352/338/175 350/287/175
f 376/458/176 371/316/176 366/88/176
f 366/88/176 361/282/176 356/85/176
f 356/85/176 351/272/176 386/457/176
f 386/457/176 381/537/176 376/458/176
f 376/458/176 366/88/176 356/85/176
f 357/454/179 565/538/37 53/216/37
f 360/216/181 362/538/181 368/453/185
f 365/312/183 367/269/184 600/338/294
f 370/287/186 372/338/186 378/323/190
f 377/94/189 618/330/302 615/459/302
f 382/330/191 388/98/195 384/451/192
f 389/364/196 393/539/196 399/540/196
f 399/540/196 403/541/196 409/345/196
f 409/345/196 413/105/196 419/352/196
f 419/352/196 423/109/196 389/364/196
f 389/364/196 399/540/196 409/345/196
f 603/320/289 588/365/289 398/300/202
f 427/347/216 392/365/197 390/320/197
f 416/461/198 411/342/198 406/102/198
f 406/102/198 401/314/198 396/99/198
f 396/99/198 391/303/198 426/460/198
f 426/460/198 421/542/198 416/461/198
f 416/461/198 406/102/198 396/99/198
f 397/447/201 597/543/26 36/228/26
f 400/228/203 402/543/203 408/446/207
f 407/300/206 634/365/311 630/320/311
f 410/320/208 412/365/208 418/347/212
f 417/108/211 648/355/319 645/443/319
f 422/355/213 428/112/217 424/463/214
f 429/248/218 433/242/218 437/113/218
f 437/113/218 443/230/218 447/231/218
f 447/231/218 451/544/218 455/427/218
f 455/427/218 461/545/218 429/248/218
f 429/248/218 437/113/218 447/231/218
f 637/464/306 624/468/306 622/465/306
f 681/467/219 690/546/219 432/468/219
f 453/219/220 449/226/220 445/434/220
f 445/434/220 440/547/220 435/433/220
f 435/433/220 431/388/220 463/181/220
f 463/181/220 458/19/220 453/219/220
f 453/219/220 445/434/220 435/433/220
f 434/469/221 436/334/221 442/118/225
f 439/280/223 441/117/224 657/367/260
f 446/465/226 666/468/226 660/464/226
f 450/468/227 676/546/227 673/472/227
f 454/473/228 460/381/232 456/120/229
f 457/121/230 459/380/231 464/474/233
f 465/217/234 469/28/234 475/291/234
f 475/291/234 479/22/234 485/199/234
f 485/199/234 489/548/234 495/475/234
f 495/475/234 499/549/234 465/217/234
f 465/217/234 475/291/234 485/199/234
f 669/394/323 652/511/323 474/357/240
f 503/396/254 468/511/235 466/394/235
f 492/13/236 487/194/236 482/520/236
f 482/520/236 477/550/236 472/477/236
f 472/477/236 467/153/236 502/31/236
f 502/31/236 497/161/236 492/13/236
f 492/13/236 482/520/236 472/477/236
f 473/125/239 663/370/281 576/478/281
f 476/478/241 478/370/241 484/129/245
f 483/357/244 700/389/340 694/394/340
f 486/394/246 488/389/246 494/396/250
f 491/132/248 493/551/249 714/481/345
f 496/399/251 498/481/251 504/482/255
f 505/390/93 509/186/93 513/178/93
f 513/178/93 517/175/93 521/403/93
f 521/403/93 525/160/93 529/154/93
f 529/154/93 533/150/93 505/390/93
f 505/390/93 513/178/93 521/403/93
f 686/483/2 684/492/2 705/484/2
f 743/486/88 508/483/88 506/485/88
f 527/156/1 523/404/1 519/177/1
f 519/177/1 515/184/1 511/183/1
f 511/183/1 507/383/1 535/152/1
f 535/152/1 531/157/1 527/156/1
f 527/156/1 519/177/1 511/183/1
f 510/488/94 512/552/94 697/489/94
f 516/489/61 719/493/61 610/491/61
f 520/492/64 725/483/64 722/485/64
f 524/483/70 731/486/70 728/487/70
f 528/493/77 737/489/77 734/490/77
f 532/489/82 536/552/82 534/488/82
