# Blender 5.2.0 LTS
# www.blender.org
o Backdrop_SlimeJar
v 0.000000 60.216904 -7.416408
v 0.000000 61.000000 0.000000
v 10.847094 40.450001 22.524221
v -9.345174 42.000000 -19.405453
v -16.839422 42.000000 -13.428990
v -17.200293 41.549999 -13.716777
v 0.000000 42.000000 -21.538427
v 9.345174 42.000000 -19.405453
v 19.545786 40.450001 15.587246
v 19.184916 40.000000 15.299459
v 16.839422 0.000000 -13.428990
v 16.839422 42.000000 -13.428990
v 20.998413 0.000000 -4.792754
v -9.545443 41.549999 -19.821314
v -17.200293 0.450000 -13.716777
v 19.184916 40.000000 -15.299459
v 17.200293 41.549999 -13.716777
v 21.448414 41.549999 -4.895461
v 19.545786 40.450001 -15.587246
v -16.839422 0.000000 -13.428990
v -10.847094 40.450001 -22.524221
v 20.998413 42.000000 -4.792754
v -10.646825 40.000000 -22.108360
v 21.448414 0.450000 4.895461
v 20.998413 0.000000 4.792754
v 21.448414 41.549999 4.895461
v 20.998413 42.000000 4.792754
v 21.448414 0.450000 -4.895461
v 17.200293 0.450000 13.716777
v 16.839422 0.000000 13.428990
v -21.448414 41.549999 -4.895461
v 17.200293 41.549999 13.716777
v 16.839422 42.000000 13.428990
v -20.998413 42.000000 -4.792754
v 9.545443 0.450000 19.821314
v 9.345174 0.000000 19.405453
v -9.345174 0.000000 -19.405453
v 9.345174 42.000000 19.405453
v 10.646825 46.000000 22.108360
v 10.847094 45.549999 22.524221
v 24.373198 40.450001 5.563024
v 24.373198 40.450001 -5.563024
v 23.923197 40.000000 -5.460317
v 23.923197 40.000000 5.460317
v -9.545443 0.450000 -19.821314
v -10.646825 46.000000 -22.108360
v 0.000000 45.549999 -25.000000
v 0.000000 0.450000 22.000000
v 10.646825 46.000000 -22.108360
v -0.000000 46.000000 -24.538427
v 9.545443 41.549999 19.821314
v 0.000000 41.549999 22.000000
v 0.000000 42.000000 21.538427
v 0.000000 0.000000 21.538427
v -9.545443 0.450000 19.821314
v -9.345174 0.000000 19.405453
v -9.545443 41.549999 19.821314
v 24.373198 45.549999 5.563024
v 10.646825 46.000000 -22.108360
v 0.000000 54.404564 -19.416409
v 0.000000 49.944271 -22.825357
v 0.000000 45.000000 -24.000000
v 10.847094 40.450001 -22.524221
v 10.646825 40.000000 -22.108360
v 0.000000 0.450000 22.000000
v 20.998413 0.000000 -4.792754
v 0.000000 0.000000 21.538427
v 3.217859 60.216904 -6.681952
v 0.000000 45.549999 -25.000000
v 6.120731 57.944271 -12.709828
v 8.424463 54.404564 -17.493580
v 9.903552 49.944271 -20.564936
v 10.413210 45.000000 -21.623253
v 17.200293 41.549999 -13.716777
v 9.545443 41.549999 19.821314
v 16.839422 42.000000 -13.428990
v 19.545786 45.549999 15.587246
v -0.000000 46.000000 -24.538427
v 5.798382 60.216904 -4.624054
v 0.000000 40.450001 -25.000000
v 11.029177 57.944271 -8.795473
v 15.180359 54.404564 -12.105932
v 17.845583 49.944271 -14.231377
v 18.763956 45.000000 -14.963754
v 19.184916 46.000000 15.299459
v 23.923197 46.000000 5.460317
v 24.000000 16.000000 0.000000
v 9.345174 42.000000 19.405453
v 0.000000 40.000000 -24.538427
v 7.230463 60.216904 -1.650306
v -9.545443 41.549999 -19.821314
v 13.753158 57.944271 -3.139068
v 18.929598 54.404564 -4.320557
v 22.253078 49.944271 -5.079118
v 23.398270 45.000000 -5.340500
v -9.345174 42.000000 19.405453
v -17.200293 0.450000 13.716777
v 0.000000 0.450000 -22.000000
v 17.200293 0.450000 -13.716777
v -9.345174 42.000000 -19.405453
v 7.230463 60.216904 1.650306
v -9.545443 0.450000 -19.821314
v 13.753157 57.944271 3.139070
v 18.929598 54.404564 4.320558
v 22.253077 49.944271 5.079123
v 23.398266 45.000000 5.340505
v 9.545443 0.450000 19.821314
v 16.839422 0.000000 -13.428990
v 9.545443 41.549999 -19.821314
v 9.345174 0.000000 19.405453
v -9.345174 0.000000 -19.405453
v 5.798381 60.216904 4.624055
v -17.200293 41.549999 -13.716777
v 11.029173 57.944271 8.795475
v 15.180359 54.404564 12.105934
v 17.845581 49.944271 14.231380
v 18.763952 45.000000 14.963757
v 9.345174 42.000000 -19.405453
v 0.000000 0.000000 -21.538427
v 9.345174 0.000000 -19.405453
v -16.839422 0.000000 13.428990
v -16.839422 42.000000 -13.428990
v 3.217858 60.216904 6.681952
v -17.200293 0.450000 -13.716777
v 6.120728 57.944271 12.709828
v 8.424462 54.404564 17.493580
v 9.903547 49.944271 20.564938
v 10.413205 45.000000 21.623253
v 17.200293 41.549999 13.716777
v 16.839422 42.000000 13.428990
v -17.200293 41.549999 13.716777
v -21.448414 41.549999 4.895461
v -16.839422 0.000000 -13.428990
v -0.000001 60.216904 7.416408
v -21.448414 41.549999 -4.895461
v -0.000003 57.944271 14.106843
v -0.000002 54.404564 19.416409
v -0.000004 49.944271 22.825359
v -0.000004 45.000000 23.999996
v -20.998413 42.000000 4.792754
v 9.545443 0.450000 -19.821314
v 17.200293 0.450000 13.716777
v 9.345174 0.000000 -19.405453
v -20.998413 42.000000 -4.792754
v -3.217859 60.216904 6.681952
v -21.448414 0.450000 -4.895461
v -6.120733 57.944271 12.709824
v -8.424466 54.404564 17.493578
v -9.903556 49.944271 20.564936
v -10.413212 45.000000 21.623249
v 0.000000 41.549999 -22.000000
v 16.839422 0.000000 13.428990
v 0.000000 42.000000 -21.538427
v -16.839422 42.000000 13.428990
v -20.998413 0.000000 -4.792754
v -5.798382 60.216904 4.624053
v -21.448414 41.549999 4.895461
v -11.029177 57.944271 8.795469
v -15.180362 54.404564 12.105929
v -17.845589 49.944271 14.231375
v -18.763956 45.000000 14.963749
v 24.373198 45.549999 -5.563024
v 23.923197 46.000000 -5.460317
v 21.448414 41.549999 4.895461
v 20.998413 42.000000 4.792754
v -20.998413 42.000000 4.792754
v -7.230463 60.216904 1.650304
v -21.448414 0.450000 4.895461
v -13.753155 57.944271 3.139063
v -18.929600 54.404564 4.320552
v -22.253078 49.944271 5.079114
v -23.398268 45.000000 5.340497
v 19.184916 46.000000 -15.299459
v -21.448414 0.450000 -4.895461
v -21.448414 0.450000 4.895461
v 0.000000 0.450000 -22.000000
v -20.998413 0.000000 4.792754
v -7.230462 60.216904 -1.650307
v -17.200293 41.549999 13.716777
v -13.753152 57.944271 -3.139072
v -18.929598 54.404564 -4.320563
v -22.253077 49.944271 -5.079126
v -23.398266 45.000000 -5.340507
v 17.200293 0.450000 -13.716777
v 9.545443 0.450000 -19.821314
v 10.847094 45.549999 -22.524221
v 19.545786 45.549999 -15.587246
v -16.839422 42.000000 13.428990
v -5.798380 60.216904 -4.624055
v -17.200293 0.450000 13.716777
v -11.029170 57.944271 -8.795475
v -15.180356 54.404564 -12.105938
v -17.845579 49.944271 -14.231383
v -18.763950 45.000000 -14.963758
v -20.998413 0.000000 4.792754
v -20.998413 0.000000 -4.792754
v 10.847094 40.450001 -22.524221
v 0.000000 40.450001 -25.000000
v -16.839422 0.000000 13.428990
v -3.217857 60.216904 -6.681952
v -9.545443 41.549999 19.821314
v -6.120725 57.944271 -12.709827
v -8.424458 54.404564 -17.493582
v -9.903544 49.944271 -20.564939
v -10.413203 45.000000 -21.623253
v 0.000000 40.000000 -24.538427
v 10.646825 40.000000 -22.108360
v 0.000000 41.549999 -22.000000
v 9.545443 41.549999 -19.821314
v -9.345174 42.000000 19.405453
v -9.545443 0.450000 19.821314
v -9.345174 0.000000 19.405453
v 0.000005 57.944271 -14.106840
v 0.000000 41.549999 22.000000
v 0.000000 42.000000 21.538427
v 21.448414 0.450000 4.895461
v 20.998413 0.000000 4.792754
v 0.000000 0.000000 -21.538427
v 21.448414 41.549999 -4.895461
v 20.998413 42.000000 -4.792754
v 21.448414 0.450000 -4.895461
v 10.847094 45.549999 -22.524221
v 19.184916 40.000000 -15.299459
v 19.545786 40.450001 -15.587246
v 19.184916 46.000000 -15.299459
v 19.545786 45.549999 -15.587246
v 23.923197 40.000000 -5.460317
v 24.373198 40.450001 -5.563024
v 23.923197 46.000000 -5.460317
v 24.373198 45.549999 -5.563024
v 23.923197 40.000000 5.460317
v 24.373198 40.450001 5.563024
v 23.923197 46.000000 5.460317
v 24.373198 45.549999 5.563024
v 19.184916 40.000000 15.299459
v 19.545786 40.450001 15.587246
v 19.184916 46.000000 15.299459
v 19.545786 45.549999 15.587246
v 10.646825 40.000000 22.108360
v 10.847094 40.450001 22.524221
v 10.646825 46.000000 22.108360
v 10.847094 45.549999 22.524221
v -0.000000 40.000000 24.538427
v 0.000000 40.450001 25.000000
v 0.000000 46.000000 24.538427
v 0.000000 45.549999 25.000000
v -10.646825 40.000000 22.108360
v -10.847094 40.450001 22.524221
v -10.646825 46.000000 22.108360
v -10.847094 45.549999 22.524221
v -19.184916 40.000000 15.299459
v -19.545786 40.450001 15.587246
v -19.184916 46.000000 15.299459
v -19.545786 45.549999 15.587246
v -23.923197 40.000000 5.460317
v -24.373198 40.450001 5.563024
v -23.923197 46.000000 5.460317
v -24.373198 45.549999 5.563024
v -23.923197 40.000000 -5.460317
v -24.373198 40.450001 -5.563024
v -23.923197 46.000000 -5.460317
v -24.373198 45.549999 -5.563024
v -19.184916 40.000000 -15.299459
v -19.545786 40.450001 -15.587246
v -19.184916 46.000000 -15.299459
v -19.545786 45.549999 -15.587246
v -10.646825 40.000000 -22.108360
v -10.847094 40.450001 -22.524221
v -10.646825 46.000000 -22.108360
v -10.847094 45.549999 -22.524221
v 21.793541 20.000000 -1.726101
v 21.401924 20.000000 -1.047801
v 21.746780 18.018497 -0.841303
v 22.144802 18.018497 -1.530694
v 22.700962 16.535898 -0.278272
v 23.109491 16.535898 -0.985864
v 23.067955 16.384501 -0.538117
v 23.109491 16.535898 0.985864
v 22.700962 16.535898 0.278272
v 23.067955 16.384501 0.538116
v 21.746780 18.018497 0.841302
v 22.144802 18.018497 1.530694
v 21.401924 20.000000 1.047800
v 21.793541 20.000000 1.726099
v 23.608383 20.000000 2.773900
v 24.391617 20.000000 2.773900
v 23.601978 18.018499 2.371995
v 24.398022 18.018499 2.371995
v 24.408529 16.535898 1.264136
v 23.591471 16.535898 1.264136
v 24.000000 16.384501 1.076233
v 25.299038 16.535898 0.278272
v 24.890509 16.535898 0.985864
v 24.932045 16.384501 0.538116
v 25.855198 18.018497 1.530694
v 26.253220 18.018497 0.841303
v 26.206459 20.000000 1.726100
v 26.598076 20.000000 1.047801
v 26.598076 20.000000 -1.047800
v 26.206459 20.000000 -1.726100
v 26.253220 18.018497 -0.841302
v 25.855198 18.018497 -1.530694
v 24.890509 16.535898 -0.985864
v 25.299038 16.535898 -0.278272
v 24.932045 16.384501 -0.538116
v 23.591471 16.535898 -1.264136
v 24.408529 16.535898 -1.264136
v 24.000000 16.384501 -1.076233
v 24.398022 18.018499 -2.371995
v 23.601978 18.018499 -2.371995
v 24.391617 20.000000 -2.773900
v 23.608383 20.000000 -2.773900
v 22.501444 46.000000 -0.865193
v 22.400646 45.551876 -1.374010
v 22.010395 45.551876 -0.698075
v 20.119873 20.000000 -2.240193
v 19.710920 20.448124 -2.025677
v 20.101171 20.448124 -2.701613
v 22.501444 46.000000 0.865193
v 22.010395 45.551876 0.698075
v 22.400646 45.551876 1.374011
v 20.119873 20.000000 2.240193
v 20.101171 20.448124 2.701613
v 19.710920 20.448124 2.025677
v 24.000000 46.000000 1.730385
v 23.609749 45.551876 2.072086
v 24.390251 45.551876 2.072086
v 24.000000 20.000000 4.480385
v 24.390251 20.448124 4.727291
v 23.609749 20.448124 4.727291
v 25.498556 46.000000 0.865193
v 25.599354 45.551876 1.374010
v 25.989605 45.551876 0.698075
v 27.880127 20.000000 2.240193
v 28.289080 20.448124 2.025677
v 27.898829 20.448124 2.701613
v 25.498556 46.000000 -0.865193
v 25.989605 45.551876 -0.698075
v 25.599354 45.551876 -1.374011
v 27.880127 20.000000 -2.240193
v 27.898829 20.448124 -2.701613
v 28.289080 20.448124 -2.025677
v 24.000000 46.000000 -1.730385
v 24.390251 45.551876 -2.072086
v 23.609749 45.551876 -2.072086
v 24.000000 20.000000 -4.480385
v 23.609749 20.448124 -4.727291
v 24.390251 20.448124 -4.727291
v 10.646825 40.000000 22.108360
v 0.000000 40.450001 25.000000
v -0.000000 40.000000 24.538427
v 0.000000 45.549999 25.000000
v 0.000000 46.000000 24.538427
v -10.847094 40.450001 22.524221
v -10.646825 40.000000 22.108360
v -10.847094 45.549999 22.524221
v -10.646825 46.000000 22.108360
v -19.545786 40.450001 15.587246
v -19.184916 40.000000 15.299459
v -19.545786 45.549999 15.587246
v -19.184916 46.000000 15.299459
v -24.373198 40.450001 5.563024
v -23.923197 40.000000 5.460317
v -24.373198 45.549999 5.563024
v -23.923197 46.000000 5.460317
v -24.373198 40.450001 -5.563024
v -23.923197 40.000000 -5.460317
v -24.373198 45.549999 -5.563024
v -23.923197 46.000000 -5.460317
v -19.545786 40.450001 -15.587246
v -19.184916 40.000000 -15.299459
v -19.545786 45.549999 -15.587246
v -19.184916 46.000000 -15.299459
v -10.847094 45.549999 -22.524221
v 22.501444 46.000000 0.865193
v 22.501444 46.000000 -0.865193
v 24.000000 20.000000 -4.480385
v 20.119873 20.000000 -2.240193
v 20.119873 20.000000 2.240193
v 24.000000 46.000000 -1.730385
v 24.000000 20.000000 4.480385
v 27.880127 20.000000 2.240193
v 24.000000 46.000000 1.730385
v 25.498556 46.000000 0.865193
v 27.880127 20.000000 -2.240193
v 25.498556 46.000000 -0.865193
vn -0.0000 0.9733 -0.2296
vn -0.0000 1.0000 -0.0000
vn 0.3029 -0.7160 0.6289
vn -0.3029 0.7160 -0.6289
vn -0.5458 0.7160 -0.4352
vn -0.0000 0.7160 -0.6981
vn 0.3029 0.7160 -0.6289
vn 0.5458 -0.7160 0.4352
vn 0.5458 -0.7160 -0.4352
vn 0.5458 0.7160 -0.4352
vn 0.6806 -0.7160 -0.1553
vn -0.5458 -0.7160 -0.4352
vn 0.6806 0.7160 -0.1553
vn -0.3029 -0.7160 -0.6289
vn 0.6806 -0.7160 0.1553
vn 0.6806 0.7160 0.1553
vn -0.6806 0.7160 -0.1553
vn 0.5458 0.7160 0.4352
vn 0.3029 0.7160 0.6289
vn -0.0000 -0.7160 0.6981
vn -0.0000 0.7160 0.6981
vn -0.3029 -0.7160 0.6289
vn -0.3029 0.7160 0.6289
vn -0.0000 0.7181 -0.6960
vn -0.0000 0.4175 -0.9087
vn -0.0000 0.2311 -0.9729
vn 0.4339 -0.0000 -0.9010
vn -0.0000 -1.0000 -0.0000
vn -0.0000 -0.0000 1.0000
vn 0.0996 0.9733 -0.2069
vn -0.0000 -0.0000 -1.0000
vn 0.1981 0.8897 -0.4114
vn 0.3020 0.7181 -0.6270
vn 0.3943 0.4175 -0.8187
vn 0.4221 0.2311 -0.8766
vn 0.7818 -0.0000 -0.6235
vn 0.4339 -0.0000 0.9010
vn 0.1795 0.9733 -0.1432
vn 0.3570 0.8897 -0.2847
vn 0.5441 0.7181 -0.4339
vn 0.7104 0.4175 -0.5665
vn 0.7607 0.2311 -0.6066
vn 0.2239 0.9733 -0.0511
vn -0.4339 -0.0000 -0.9010
vn 0.4451 0.8897 -0.1016
vn 0.6785 0.7181 -0.1549
vn 0.8859 0.4175 -0.2022
vn 0.9485 0.2311 -0.2165
vn -0.5458 -0.7160 0.4352
vn -0.0000 -0.7160 -0.6981
vn 0.2239 0.9733 0.0511
vn 0.4451 0.8897 0.1016
vn 0.6785 0.7181 0.1549
vn 0.8859 0.4175 0.2022
vn 0.9485 0.2311 0.2165
vn 0.1795 0.9733 0.1432
vn -0.7818 -0.0000 -0.6235
vn 0.3570 0.8897 0.2847
vn 0.5441 0.7181 0.4339
vn 0.7104 0.4175 0.5665
vn 0.7607 0.2311 0.6066
vn 0.3029 -0.7160 -0.6289
vn 0.0996 0.9733 0.2069
vn 0.1981 0.8897 0.4114
vn 0.3020 0.7181 0.6270
vn 0.3943 0.4175 0.8187
vn 0.4221 0.2311 0.8766
vn 0.7818 -0.0000 0.6235
vn -0.5458 0.7160 0.4352
vn -0.6806 0.7160 0.1553
vn -0.0000 0.9733 0.2296
vn -0.9749 -0.0000 -0.2225
vn -0.0000 0.8897 0.4566
vn -0.0000 0.7181 0.6960
vn -0.0000 0.4175 0.9087
vn -0.0000 0.2311 0.9729
vn -0.0996 0.9733 0.2069
vn -0.1981 0.8897 0.4114
vn -0.3020 0.7181 0.6270
vn -0.3943 0.4175 0.8187
vn -0.4221 0.2311 0.8766
vn -0.1795 0.9733 0.1432
vn -0.9749 -0.0000 0.2225
vn -0.3570 0.8897 0.2847
vn -0.5441 0.7181 0.4339
vn -0.7104 0.4175 0.5665
vn -0.7607 0.2311 0.6066
vn 0.9749 -0.0000 0.2225
vn -0.2239 0.9733 0.0511
vn -0.4451 0.8897 0.1016
vn -0.6785 0.7181 0.1549
vn -0.8859 0.4175 0.2022
vn -0.9485 0.2311 0.2165
vn -0.6806 -0.7160 -0.1553
vn -0.6806 -0.7160 0.1553
vn -0.2239 0.9733 -0.0511
vn -0.7818 -0.0000 0.6235
vn -0.4451 0.8897 -0.1016
vn -0.6785 0.7181 -0.1549
vn -0.8859 0.4175 -0.2022
vn -0.9485 0.2311 -0.2165
vn -0.1795 0.9733 -0.1432
vn -0.3570 0.8897 -0.2847
vn -0.5441 0.7181 -0.4339
vn -0.7104 0.4175 -0.5665
vn -0.7607 0.2311 -0.6066
vn -0.0996 0.9733 -0.2069
vn -0.4339 -0.0000 0.9010
vn -0.1981 0.8897 -0.4114
vn -0.3020 0.7181 -0.6270
vn -0.3943 0.4175 -0.8187
vn -0.4221 0.2311 -0.8766
vn -0.0000 0.8897 -0.4566
vn 0.9749 -0.0000 -0.2225
vn -0.6999 -0.1919 -0.6880
vn -0.9458 -0.1919 -0.2621
vn -0.8901 -0.3858 -0.2427
vn -0.6552 -0.3858 -0.6495
vn -0.6488 -0.7486 -0.1364
vn -0.4426 -0.7486 -0.4937
vn -0.3812 -0.8979 -0.2201
vn -0.4426 -0.7486 0.4937
vn -0.6488 -0.7486 0.1364
vn -0.3812 -0.8979 0.2201
vn -0.8901 -0.3858 0.2427
vn -0.6552 -0.3858 0.6495
vn -0.9458 -0.1919 0.2621
vn -0.6999 -0.1919 0.6880
vn -0.2459 -0.1919 0.9501
vn 0.2459 -0.1919 0.9501
vn -0.2349 -0.3858 0.8922
vn 0.2349 -0.3858 0.8922
vn 0.2062 -0.7486 0.6301
vn -0.2062 -0.7486 0.6301
vn -0.0000 -0.8979 0.4402
vn 0.6488 -0.7486 0.1364
vn 0.4426 -0.7486 0.4937
vn 0.3812 -0.8979 0.2201
vn 0.6552 -0.3858 0.6495
vn 0.8901 -0.3858 0.2427
vn 0.6999 -0.1919 0.6880
vn 0.9458 -0.1919 0.2621
vn 0.9458 -0.1919 -0.2621
vn 0.6999 -0.1919 -0.6880
vn 0.8901 -0.3858 -0.2427
vn 0.6552 -0.3858 -0.6495
vn 0.4426 -0.7486 -0.4937
vn 0.6488 -0.7486 -0.1364
vn 0.3813 -0.8979 -0.2201
vn -0.2062 -0.7486 -0.6301
vn 0.2062 -0.7486 -0.6301
vn -0.0000 -0.8979 -0.4402
vn 0.2349 -0.3858 -0.8922
vn -0.2349 -0.3858 -0.8922
vn 0.2459 -0.1919 -0.9501
vn -0.2459 -0.1919 -0.9501
vn -0.6279 0.4092 -0.6621
vn -0.8873 0.4092 -0.2127
vn -0.9370 -0.2690 -0.2230
vn -0.6616 -0.2690 -0.6999
vn -0.8873 0.4092 0.2127
vn -0.6279 0.4092 0.6621
vn -0.6616 -0.2690 0.6999
vn -0.9370 -0.2690 0.2230
vn -0.2594 0.4092 0.8748
vn 0.2594 0.4092 0.8748
vn 0.2754 -0.2690 0.9229
vn -0.2754 -0.2690 0.9229
vn 0.6279 0.4092 0.6621
vn 0.8873 0.4092 0.2127
vn 0.9370 -0.2690 0.2230
vn 0.6616 -0.2690 0.6999
vn 0.8873 0.4092 -0.2127
vn 0.6279 0.4092 -0.6621
vn 0.6616 -0.2690 -0.6999
vn 0.9370 -0.2690 -0.2230
vn 0.2594 0.4092 -0.8748
vn -0.2594 0.4092 -0.8748
vn -0.2754 -0.2690 -0.9229
vn 0.2754 -0.2690 -0.9229
vn -0.5906 0.7313 0.3410
vn -0.5906 0.7313 -0.3410
vn -0.0000 -0.6443 -0.7648
vn -0.6623 -0.6443 -0.3824
vn -0.6623 -0.6443 0.3824
vn -0.0000 0.7313 -0.6820
vn -0.0000 -0.6443 0.7648
vn 0.6623 -0.6443 0.3824
vn -0.0000 0.7313 0.6820
vn 0.5906 0.7313 0.3410
vn 0.6623 -0.6443 -0.3824
vn 0.5906 0.7313 -0.3410
vt 0.306037 0.635491
vt 0.759018 0.605297
vt 0.421223 0.874679
vt 0.000000 2.497214
vt 0.520661 2.250000
vt 0.000000 2.250000
vt 1.218660 -0.278151
vt 0.959246 -0.764973
vt 0.977289 -0.779362
vt 1.196160 -0.273016
vt 0.860015 0.685839
vt 1.049921 0.239638
vt 0.841971 0.671450
vt -0.477272 -0.991066
vt 0.000000 -1.076921
vt 0.000000 -1.100000
vt 0.551459 0.439774
vt 0.946480 0.216028
vt 0.160893 0.334098
vt 0.000000 0.000000
vt 0.289919 0.231203
vt 1.196160 0.273016
vt 1.218660 0.278151
vt 0.000000 0.370820
vt 0.477272 0.991066
vt 0.000000 1.076921
vt 0.000000 1.100000
vt 0.687658 0.156953
vt 0.000000 0.705342
vt 0.000000 0.970820
vt 0.495178 2.497214
vt 0.759018 2.720228
vt 0.892279 2.497214
vt -0.860015 -0.685839
vt -0.467259 -0.970273
vt 1.200000 1.000000
vt 1.219513 1.022406
vt 1.180487 1.022406
vt 0.938198 2.250000
vt 0.000000 2.720228
vt 0.467259 0.970273
vt -0.841971 -0.671450
vt 0.977289 0.779362
vt 0.532341 1.105418
vt 0.959246 0.764973
vt 0.711569 2.497214
vt 0.216028 2.720228
vt 0.253956 2.497214
vt 0.361523 0.082515
vt 0.467259 -0.970273
vt 0.267025 2.250000
vt 0.748188 2.250000
vt 0.477272 -0.991066
vt -0.267025 2.250000
vt 0.361523 -0.082515
vt 0.687658 -0.156953
vt 1.200000 2.300000
vt 1.219513 2.277594
vt 1.180487 2.277594
vt 0.946480 -0.216028
vt -0.112010 1.000000
vt -0.135081 1.022406
vt -0.101284 1.022406
vt -0.216028 2.720228
vt -0.253956 2.497214
vt 0.289919 -0.231203
vt 0.860015 -0.685839
vt -0.748188 2.250000
vt 0.551459 -0.439774
vt -0.043260 2.300000
vt -0.034904 2.277594
vt -0.068701 2.277594
vt 0.759018 -0.605297
vt -0.605297 2.720228
vt -0.711569 2.497214
vt 0.892279 2.497214
vt 0.421223 2.720228
vt 0.495177 2.497214
vt 0.160893 -0.334098
vt 0.841971 -0.671450
vt 0.938198 2.250000
vt 0.520660 2.250000
vt 0.306036 -0.635491
vt 0.421223 -0.874679
vt 0.112010 1.000000
vt 0.135081 1.022406
vt 0.101284 1.022406
vt -0.000000 -0.970820
vt 0.043260 2.300000
vt 0.068700 2.277594
vt 0.034904 2.277594
vt -0.000000 2.720228
vt -0.000000 2.497214
vt -0.000000 -0.370820
vt -0.000000 2.250000
vt -0.000000 -0.705342
vt 0.068701 2.277594
vt -0.421223 -0.874679
vt 1.244525 0.049293
vt 1.264952 0.013914
vt 1.246602 0.026906
vt -0.421223 2.720228
vt -0.495178 2.497214
vt -0.160893 -0.334098
vt 1.072421 -0.244773
vt -0.520661 2.250000
vt -0.306037 -0.635491
vt -0.289919 -0.231203
vt -0.551459 -0.439773
vt 1.220426 -0.063207
vt 1.179574 -0.063207
vt 1.200000 -0.053812
vt 1.179574 0.063207
vt 1.220426 0.063207
vt 1.200000 0.053812
vt -0.759018 -0.605296
vt -0.759018 2.720228
vt -0.892279 2.497214
vt 1.049921 -0.239638
vt -0.938198 2.250000
vt 1.072421 0.244773
vt -0.748187 2.250000
vt -0.253956 2.497214
vt -0.267025 2.250000
vt -0.687658 -0.156953
vt -0.068700 2.277594
vt -0.946480 -0.216028
vt -0.605296 2.720228
vt -0.711569 2.497214
vt -0.361523 -0.082515
vt 0.216028 2.720228
vt 0.253956 2.497214
vt -0.361523 0.082515
vt 0.542355 1.126211
vt 0.267025 2.250000
vt -0.687658 0.156954
vt -0.946480 0.216028
vt 1.155475 -0.049293
vt 1.135048 -0.013914
vt 1.153398 -0.026906
vt 1.135048 0.013914
vt 1.155475 0.049293
vt 1.153398 0.026906
vt 0.711569 2.497214
vt -0.289919 0.231203
vt 0.748188 2.250000
vt -0.551458 0.439774
vt -0.759018 0.605297
vt -0.421223 0.874679
vt -0.759018 2.720228
vt -0.495177 2.497214
vt -0.892279 2.497214
vt -0.160893 0.334098
vt -0.520660 2.250000
vt -0.938197 2.250000
vt -0.306036 0.635491
vt 1.264952 -0.013914
vt 1.244525 -0.049293
vt 1.246602 -0.026906
vt -1.049921 -0.239638
vt 0.000000 1.250000
vt -1.072421 -0.244773
vt -1.072421 0.244773
vt 0.000000 1.226921
vt -1.049921 0.239638
vt -0.860015 0.685839
vt -0.841971 0.671450
vt -0.477272 0.991066
vt -0.467259 0.970273
vt 0.542355 -1.126211
vt 0.532341 -1.105418
vt 0.000000 -1.250000
vt 0.000000 -1.226921
vt -0.542355 -1.126211
vt -0.000000 -1.226921
vt -0.532341 -1.105418
vt -0.977289 -0.779362
vt -0.959246 -0.764973
vt -1.196160 -0.273016
vt -1.218660 -0.278151
vt -1.218660 0.278151
vt -1.196160 0.273016
vt -0.977289 0.779362
vt -0.959246 0.764973
vt -0.542355 1.126211
vt -0.532341 1.105418
vt -0.000000 1.226921
vt 0.076535 0.900925
vt 0.052390 1.000000
vt 0.086305 1.000000
vt -0.013914 0.826795
vt -0.076535 0.900925
vt -0.042065 0.900925
vt 0.013914 0.826795
vt 0.042065 0.900925
vt -0.086305 1.000000
vt -0.052390 1.000000
vt 1.180099 0.900925
vt 1.219581 1.000000
vt 1.180419 1.000000
vt 1.179574 0.826795
vt 1.219901 0.900925
vt -0.076535 0.900925
vt -0.052390 1.000000
vt -0.086305 1.000000
vt -0.013914 0.826795
vt -0.042065 0.900925
vt 1.100520 -0.034904
vt 1.125072 0.043260
vt 1.100520 0.034904
vt 1.005059 0.135081
vt 1.200000 0.224019
vt 1.005994 0.112010
vt 1.180487 0.103604
vt 1.200000 0.086519
vt 1.219513 -0.236365
vt 1.394006 -0.112010
vt 1.394941 -0.135081
vt 1.005059 -0.135081
vt 1.200000 -0.224019
vt 1.180487 -0.236365
vt 1.180487 -0.103604
vt 1.125072 -0.043260
vt 1.120032 -0.068701
vt 1.219513 -0.103604
vt 1.274928 -0.043260
vt 1.200000 -0.086519
vt 1.219513 0.236365
vt 1.394006 0.112010
vt 1.220426 0.826795
vt 1.299480 0.034904
vt 1.299480 -0.034904
vt 0.042065 0.900925
vt 0.086305 1.000000
vt 0.052390 1.000000
vt 0.013914 0.826795
vt 0.076535 0.900925
vt 1.219513 0.103604
vt 1.274928 0.043260
vt 1.279968 0.068701
vt 0.000000 2.077500
vt 0.477272 0.022500
vt 0.000000 0.022500
vt -0.477272 2.077500
vt -0.477272 0.022500
vt 0.477272 2.077500
vt 0.860015 0.022500
vt 0.685839 2.077500
vt 0.244773 0.022500
vt 0.685839 0.022500
vt 0.244773 2.077500
vt -0.244773 0.022500
vt -0.244773 2.077500
vt -0.685839 0.022500
vt 0.860015 2.077500
vt -0.860015 0.022500
vt -0.685839 2.077500
vt -0.860015 2.077500
vt 0.000000 2.277500
vt 0.542355 2.022500
vt 0.000000 2.022500
vt -0.542355 2.277500
vt -0.542355 2.022500
vt 0.542355 2.277500
vt 0.977289 2.022500
vt 0.779362 2.277500
vt 0.278151 2.022500
vt 0.779362 2.022500
vt 0.278151 2.277500
vt -0.278151 2.022500
vt -0.278151 2.277500
vt -0.779362 2.022500
vt 0.977289 2.277500
vt -0.977289 2.022500
vt -0.779362 2.277500
vt -0.977289 2.277500
vt 1.089677 1.000000
vt 1.107240 0.900925
vt 1.155475 0.826795
vt 1.310323 1.000000
vt 1.292760 0.900925
vt 1.244525 0.826795
vt 1.120032 2.277594
vt 1.005059 1.022406
vt 1.005994 -0.112010
vt 1.279968 2.277594
vt 1.394941 1.022406
vt 0.421223 2.720228
vt 0.605297 2.720228
vt -0.216028 2.720228
vt 0.605297 2.720228
vt -0.421223 2.720228
vt -0.049293 0.826795
vt 0.049293 0.826795
vt -0.049293 0.826795
vt 1.180487 0.236365
vt 1.120032 0.068700
vt 1.279968 -0.068700
vt 1.394941 0.135081
vt 0.049293 0.826795
vt 1.200000 0.000000
s 1
f 70/1/32 82/2/40 71/3/33
f 61/4/25 73/5/35 62/6/26
f 58/7/16 85/8/18 77/9/18
f 9/9/8 44/10/15 41/7/15
f 184/11/9 13/12/11 11/13/9
f 55/14/22 54/15/20 48/16/20
f 81/17/39 93/18/46 82/2/40
f 68/19/30 2/20/2 79/21/38
f 41/7/15 43/22/11 42/23/11
f 1/24/1 2/20/2 68/19/30
f 185/25/62 119/26/50 98/27/50
f 79/21/38 92/28/45 81/17/39
f 68/19/30 81/17/39 70/1/32
f 213/29/113 71/3/33 60/30/24
f 72/31/34 82/32/40 83/33/41
f 97/34/49 56/35/22 55/14/22
f 381/36/187 329/37/167 330/38/168
f 209/25/7 12/13/10 17/11/10
f 73/5/35 83/33/41 84/39/42
f 60/40/24 72/31/34 61/4/25
f 208/27/6 8/41/7 209/25/7
f 213/29/113 68/19/30 70/1/32
f 184/11/9 120/41/62 185/25/62
f 57/14/23 154/42/69 131/34/69
f 187/43/10 49/44/7 173/45/10
f 83/46/41 93/47/46 94/48/47
f 79/21/38 2/20/2 90/49/43
f 52/16/21 38/50/19 53/15/21
f 83/46/41 95/51/48 84/52/42
f 35/53/3 54/15/20 36/50/3
f 94/48/47 106/54/55 95/51/48
f 92/28/45 101/55/51 103/56/52
f 380/57/186 344/58/177 345/59/178
f 92/28/45 104/60/53 93/18/46
f 379/61/185 323/62/163 324/63/164
f 94/48/47 104/64/53 105/65/54
f 90/49/43 2/20/2 101/55/51
f 101/55/51 2/20/2 112/66/56
f 32/67/18 38/50/19 51/53/19
f 105/65/54 117/68/61 106/54/55
f 103/56/52 112/66/56 114/69/58
f 375/70/181 320/71/161 321/72/162
f 103/56/52 115/73/59 104/60/53
f 383/57/189 326/59/165 327/58/166
f 105/65/54 115/74/59 116/75/60
f 116/76/60 126/77/65 127/78/66
f 112/66/56 2/20/2 123/79/63
f 35/53/3 30/80/8 29/67/8
f 117/81/61 127/78/66 128/82/67
f 114/69/58 123/79/63 125/83/64
f 114/69/58 126/84/65 115/73/59
f 385/85/191 341/86/175 342/87/176
f 125/83/64 137/88/74 126/84/65
f 378/85/184 317/87/159 318/86/160
f 376/89/182 314/90/157 315/91/158
f 127/78/66 137/92/74 138/93/75
f 123/79/63 2/20/2 134/94/71
f 162/23/13 86/10/16 58/7/16
f 127/78/66 139/95/76 128/82/67
f 125/83/64 134/94/71 136/96/73
f 386/89/192 338/91/173 339/97/174
f 382/61/188 335/63/171 336/62/172
f 136/96/73 148/98/79 137/88/74
f 303/99/147 304/100/148 305/101/149
f 138/93/75 148/102/79 149/103/80
f 134/94/71 2/20/2 145/104/77
f 26/105/16 33/80/18 32/67/18
f 138/93/75 150/106/81 139/95/76
f 134/94/71 147/107/78 136/96/73
f 147/107/78 156/108/82 158/109/84
f 289/110/133 290/111/134 291/112/135
f 306/113/150 307/114/151 308/115/152
f 147/107/78 159/116/85 148/98/79
f 149/103/80 159/117/85 160/118/86
f 145/104/77 2/20/2 156/108/82
f 29/67/8 25/119/15 24/105/15
f 149/103/80 161/120/87 150/106/81
f 18/121/13 27/119/16 26/105/16
f 161/122/87 171/123/92 172/124/93
f 156/108/82 169/125/90 158/109/84
f 384/70/190 332/126/169 333/71/170
f 158/109/84 170/127/91 159/116/85
f 159/128/85 171/123/92 160/129/86
f 156/108/82 2/20/2 167/130/89
f 171/123/92 181/131/99 182/132/100
f 167/130/89 2/20/2 178/133/96
f 19/43/9 207/44/62 197/134/62
f 171/123/92 183/135/101 172/124/93
f 167/130/89 180/136/98 169/125/90
f 169/125/90 181/137/99 170/127/91
f 278/138/122 279/139/123 280/140/124
f 275/141/119 276/142/120 277/143/121
f 181/131/99 193/144/105 182/132/100
f 178/133/96 2/20/2 189/145/102
f 24/105/15 13/12/11 28/121/11
f 182/132/100 194/146/106 183/135/101
f 180/136/98 189/145/102 191/147/103
f 180/136/98 192/148/104 181/137/99
f 191/147/103 203/149/110 192/148/104
f 192/150/104 204/151/111 193/152/105
f 189/145/102 2/20/2 200/153/107
f 17/11/10 22/12/13 18/121/13
f 193/152/105 205/154/112 194/155/106
f 189/145/102 202/156/109 191/147/103
f 292/157/136 293/158/137 294/159/138
f 377/36/183 347/38/179 348/37/180
f 52/16/21 96/35/23 57/14/23
f 202/156/109 60/30/24 203/149/110
f 97/34/49 195/160/95 121/42/49
f 204/151/111 60/40/24 61/4/25
f 200/153/107 2/20/2 1/24/1
f 47/161/6 49/44/7 186/134/7
f 205/154/112 61/4/25 62/6/26
f 202/156/109 1/24/1 213/29/113
f 131/34/69 140/160/70 132/162/70
f 187/43/10 163/22/13 162/23/13
f 174/163/94 195/160/95 175/162/95
f 197/134/62 206/164/50 198/161/50
f 132/162/70 34/165/17 31/163/17
f 15/166/12 196/165/94 174/163/94
f 31/163/17 5/167/5 6/166/5
f 19/43/9 43/22/11 16/45/9
f 45/168/14 20/167/12 15/166/12
f 6/166/5 4/169/4 14/168/4
f 45/168/14 119/26/50 37/169/14
f 208/27/6 4/169/4 7/26/6
f 3/170/3 10/8/8 9/9/8
f 77/9/18 39/171/19 40/170/19
f 350/172/20 349/171/3 3/170/3
f 40/170/19 353/173/21 352/172/21
f 354/174/22 351/175/20 350/172/20
f 352/172/21 357/176/23 356/174/23
f 358/177/49 355/176/22 354/174/22
f 360/177/69 357/176/23 361/178/69
f 358/177/49 363/179/95 359/178/49
f 360/177/69 365/179/70 364/180/70
f 366/181/94 363/179/95 362/180/95
f 364/180/70 369/182/17 368/181/17
f 370/183/12 367/182/94 366/181/94
f 368/181/17 373/184/5 372/183/5
f 21/185/14 371/184/12 370/183/12
f 372/183/5 46/186/4 374/185/4
f 198/161/50 23/186/14 21/185/14
f 374/185/4 50/187/6 47/161/6
f 274/188/118 272/189/116 271/190/115
f 279/191/123 282/192/126 281/193/125
f 274/188/118 275/194/119 273/195/117
f 281/193/125 284/196/128 283/197/127
f 287/198/131 286/199/130 285/200/129
f 290/201/134 288/202/132 287/198/131
f 295/203/139 298/204/142 297/205/141
f 295/203/139 292/206/136 296/207/140
f 320/208/161 376/209/182 315/210/158
f 318/211/160 377/212/183 378/213/184
f 324/63/164 321/72/162 320/71/161
f 317/87/159 379/61/185 324/63/164
f 318/86/160 315/91/158 314/90/157
f 345/214/178 376/209/182 380/215/186
f 309/202/153 312/200/156 311/199/155
f 336/62/172 333/71/170 332/126/169
f 329/216/167 382/217/188 336/218/172
f 323/219/163 381/220/187 330/221/168
f 326/222/165 375/223/181 321/224/162
f 327/225/166 384/226/190 383/227/189
f 330/38/168 327/58/166 326/59/165
f 348/228/180 385/229/191 377/212/183
f 307/230/151 310/198/154 309/202/153
f 342/87/176 339/97/174 338/91/173
f 345/59/178 348/37/180 347/38/179
f 338/231/173 384/226/190 333/232/170
f 301/233/145 300/234/144 299/235/143
f 335/63/171 385/85/191 342/87/176
f 304/236/148 302/237/146 301/233/145
f 344/238/177 386/239/192 339/240/174
f 66/12/28 67/15/28 155/165/28
f 151/241/31 141/242/27 176/243/31
f 91/244/44 176/243/31 102/245/44
f 122/167/2 210/35/2 165/119/2
f 109/246/27 99/247/36 141/242/27
f 74/248/36 221/249/114 99/250/36
f 219/251/114 216/252/88 221/249/114
f 164/253/88 142/254/68 216/252/88
f 129/255/68 107/242/37 142/247/68
f 75/246/37 65/243/29 107/242/37
f 214/241/29 211/245/108 65/243/29
f 201/244/108 190/256/97 211/245/108
f 179/257/97 168/252/83 190/254/97
f 157/253/83 146/249/72 168/252/83
f 135/251/72 124/250/57 146/249/72
f 113/258/57 102/245/44 124/256/57
f 243/175/28 259/182/28 64/44/28
f 69/259/31 63/260/27 80/261/31
f 270/262/44 80/261/31 268/263/44
f 241/171/2 225/45/2 265/184/2
f 222/264/27 224/265/36 63/260/27
f 226/266/36 228/267/114 224/268/36
f 230/269/114 232/270/88 228/267/114
f 234/271/88 236/272/68 232/270/88
f 238/273/68 240/260/37 236/265/68
f 242/264/37 244/261/29 240/260/37
f 246/259/29 248/263/108 244/261/29
f 250/262/108 252/274/97 248/263/108
f 254/275/97 256/270/83 252/272/97
f 258/271/83 260/267/72 256/270/83
f 262/269/72 264/268/57 260/267/72
f 266/276/57 268/263/44 264/274/57
f 271/277/115 310/198/154 274/278/118
f 281/193/125 272/189/116 273/195/117
f 276/279/120 310/198/154 306/201/150
f 281/193/125 275/194/119 279/191/123
f 280/140/124 275/141/119 277/143/121
f 277/143/121 306/113/150 308/115/152
f 287/198/131 278/279/122 290/201/134
f 291/112/135 278/138/122 280/140/124
f 287/198/131 284/277/128 282/278/126
f 297/280/141 288/202/132 295/281/139
f 295/281/139 289/230/133 293/282/137
f 294/159/138 289/110/133 291/112/135
f 301/233/145 292/206/136 304/236/148
f 305/101/149 292/157/136 294/159/138
f 299/235/143 296/207/140 301/233/145
f 309/202/153 300/280/144 302/281/146
f 307/230/151 302/281/146 303/282/147
f 308/115/152 303/99/147 305/101/149
f 313/209/2 325/227/2 337/239/2
f 320/71/161 317/87/159 324/63/164
f 314/283/157 347/38/179 318/284/160
f 346/212/28 334/217/28 322/285/28
f 330/38/168 321/283/162 323/284/163
f 332/286/169 329/37/167 336/287/172
f 338/91/173 335/63/171 342/87/176
f 344/58/177 341/287/175 348/37/180
f 70/1/32 81/17/39 82/2/40
f 61/4/25 72/31/34 73/5/35
f 58/7/16 86/10/16 85/8/18
f 9/9/8 10/8/8 44/10/15
f 184/11/9 28/121/11 13/12/11
f 55/14/22 56/35/22 54/15/20
f 81/17/39 92/28/45 93/18/46
f 41/7/15 44/10/15 43/22/11
f 185/25/62 120/41/62 119/26/50
f 79/21/38 90/49/43 92/28/45
f 68/19/30 79/21/38 81/17/39
f 213/29/113 70/1/32 71/3/33
f 72/31/34 71/288/33 82/32/40
f 97/34/49 121/42/49 56/35/22
f 209/25/7 8/41/7 12/13/10
f 73/5/35 72/31/34 83/33/41
f 60/40/24 71/288/33 72/31/34
f 208/27/6 7/26/6 8/41/7
f 213/29/113 1/24/1 68/19/30
f 184/11/9 11/13/9 120/41/62
f 57/14/23 96/35/23 154/42/69
f 187/43/10 186/134/7 49/44/7
f 83/46/41 82/289/40 93/47/46
f 52/16/21 51/53/19 38/50/19
f 83/46/41 94/48/47 95/51/48
f 35/53/3 48/16/20 54/15/20
f 94/48/47 105/65/54 106/54/55
f 92/28/45 90/49/43 101/55/51
f 92/28/45 103/56/52 104/60/53
f 94/48/47 93/47/46 104/64/53
f 32/67/18 33/80/18 38/50/19
f 105/65/54 116/75/60 117/68/61
f 103/56/52 101/55/51 112/66/56
f 103/56/52 114/69/58 115/73/59
f 105/65/54 104/64/53 115/74/59
f 116/76/60 115/32/59 126/77/65
f 35/53/3 36/50/3 30/80/8
f 117/81/61 116/76/60 127/78/66
f 114/69/58 112/66/56 123/79/63
f 114/69/58 125/83/64 126/84/65
f 125/83/64 136/96/73 137/88/74
f 127/78/66 126/77/65 137/92/74
f 162/23/13 163/22/13 86/10/16
f 127/78/66 138/93/75 139/95/76
f 125/83/64 123/79/63 134/94/71
f 136/96/73 147/107/78 148/98/79
f 138/93/75 137/92/74 148/102/79
f 26/105/16 27/119/16 33/80/18
f 138/93/75 149/103/80 150/106/81
f 134/94/71 145/104/77 147/107/78
f 147/107/78 145/104/77 156/108/82
f 147/107/78 158/109/84 159/116/85
f 149/103/80 148/102/79 159/117/85
f 29/67/8 30/80/8 25/119/15
f 149/103/80 160/118/86 161/120/87
f 18/121/13 22/12/13 27/119/16
f 161/122/87 160/129/86 171/123/92
f 156/108/82 167/130/89 169/125/90
f 158/109/84 169/125/90 170/127/91
f 159/128/85 170/290/91 171/123/92
f 171/123/92 170/290/91 181/131/99
f 19/43/9 16/45/9 207/44/62
f 171/123/92 182/132/100 183/135/101
f 167/130/89 178/133/96 180/136/98
f 169/125/90 180/136/98 181/137/99
f 181/131/99 192/291/104 193/144/105
f 24/105/15 25/119/15 13/12/11
f 182/132/100 193/144/105 194/146/106
f 180/136/98 178/133/96 189/145/102
f 180/136/98 191/147/103 192/148/104
f 191/147/103 202/156/109 203/149/110
f 192/150/104 203/292/110 204/151/111
f 17/11/10 12/13/10 22/12/13
f 193/152/105 204/151/111 205/154/112
f 189/145/102 200/153/107 202/156/109
f 52/16/21 53/15/21 96/35/23
f 202/156/109 213/29/113 60/30/24
f 97/34/49 175/162/95 195/160/95
f 204/151/111 203/292/110 60/40/24
f 47/161/6 50/187/6 49/44/7
f 205/154/112 204/151/111 61/4/25
f 202/156/109 200/153/107 1/24/1
f 131/34/69 154/42/69 140/160/70
f 187/43/10 173/45/10 163/22/13
f 174/163/94 196/165/94 195/160/95
f 197/134/62 207/44/62 206/164/50
f 132/162/70 140/160/70 34/165/17
f 15/166/12 20/167/12 196/165/94
f 31/163/17 34/165/17 5/167/5
f 19/43/9 42/23/11 43/22/11
f 45/168/14 37/169/14 20/167/12
f 6/166/5 5/167/5 4/169/4
f 45/168/14 98/27/50 119/26/50
f 208/27/6 14/168/4 4/169/4
f 3/170/3 349/171/3 10/8/8
f 77/9/18 85/8/18 39/171/19
f 350/172/20 351/175/20 349/171/3
f 40/170/19 39/171/19 353/173/21
f 354/174/22 355/176/22 351/175/20
f 352/172/21 353/173/21 357/176/23
f 358/177/49 359/178/49 355/176/22
f 360/177/69 356/174/23 357/176/23
f 358/177/49 362/180/95 363/179/95
f 360/177/69 361/178/69 365/179/70
f 366/181/94 367/182/94 363/179/95
f 364/180/70 365/179/70 369/182/17
f 370/183/12 371/184/12 367/182/94
f 368/181/17 369/182/17 373/184/5
f 21/185/14 23/186/14 371/184/12
f 372/183/5 373/184/5 46/186/4
f 198/161/50 206/164/50 23/186/14
f 374/185/4 46/186/4 50/187/6
f 274/188/118 273/195/117 272/189/116
f 279/191/123 278/293/122 282/192/126
f 274/188/118 276/294/120 275/194/119
f 281/193/125 282/192/126 284/196/128
f 287/198/131 288/202/132 286/199/130
f 290/201/134 289/230/133 288/202/132
f 295/203/139 296/207/140 298/204/142
f 295/203/139 293/295/137 292/206/136
f 320/208/161 375/223/181 376/209/182
f 318/211/160 347/296/179 377/212/183
f 324/63/164 323/62/163 321/72/162
f 317/87/159 378/85/184 379/61/185
f 318/86/160 317/87/159 315/91/158
f 345/214/178 314/297/157 376/209/182
f 309/202/153 310/198/154 312/200/156
f 336/62/172 335/63/171 333/71/170
f 329/216/167 381/220/187 382/217/188
f 323/219/163 379/285/185 381/220/187
f 326/222/165 383/227/189 375/223/181
f 327/225/166 332/298/169 384/226/190
f 330/38/168 329/37/167 327/58/166
f 348/228/180 341/299/175 385/229/191
f 307/230/151 306/201/150 310/198/154
f 342/87/176 341/86/175 339/97/174
f 345/59/178 344/58/177 348/37/180
f 338/231/173 386/239/192 384/226/190
f 301/233/145 302/237/146 300/234/144
f 335/63/171 382/61/188 385/85/191
f 304/236/148 303/300/147 302/237/146
f 344/238/177 380/215/186 386/239/192
f 111/169/28 218/26/28 143/41/28
f 143/41/28 108/13/28 66/12/28
f 66/12/28 217/119/28 152/80/28
f 152/80/28 110/50/28 67/15/28
f 67/15/28 212/35/28 199/42/28
f 199/42/28 177/160/28 155/165/28
f 155/165/28 133/167/28 111/169/28
f 111/169/28 143/41/28 66/12/28
f 66/12/28 152/80/28 67/15/28
f 67/15/28 199/42/28 155/165/28
f 155/165/28 111/169/28 66/12/28
f 151/241/31 109/246/27 141/242/27
f 91/244/44 151/241/31 176/243/31
f 76/13/2 118/41/2 153/26/2
f 153/26/2 100/169/2 122/167/2
f 122/167/2 144/165/2 166/160/2
f 166/160/2 188/42/2 210/35/2
f 210/35/2 215/15/2 88/50/2
f 88/50/2 130/80/2 165/119/2
f 165/119/2 220/12/2 76/13/2
f 76/13/2 153/26/2 122/167/2
f 122/167/2 166/160/2 210/35/2
f 210/35/2 88/50/2 165/119/2
f 165/119/2 76/13/2 122/167/2
f 109/246/27 74/255/36 99/247/36
f 74/248/36 219/251/114 221/249/114
f 219/251/114 164/253/88 216/252/88
f 164/253/88 129/257/68 142/254/68
f 129/255/68 75/246/37 107/242/37
f 75/246/37 214/241/29 65/243/29
f 214/241/29 201/244/108 211/245/108
f 201/244/108 179/258/97 190/256/97
f 179/257/97 157/253/83 168/252/83
f 157/253/83 135/251/72 146/249/72
f 135/251/72 113/248/57 124/250/57
f 113/258/57 91/244/44 102/245/44
f 227/22/28 231/10/28 235/8/28
f 235/8/28 239/171/28 243/175/28
f 243/175/28 247/176/28 251/178/28
f 251/178/28 255/179/28 259/182/28
f 259/182/28 263/184/28 267/186/28
f 267/186/28 89/164/28 64/44/28
f 64/44/28 223/45/28 227/22/28
f 227/22/28 235/8/28 243/175/28
f 243/175/28 251/178/28 259/182/28
f 259/182/28 267/186/28 64/44/28
f 64/44/28 227/22/28 243/175/28
f 69/259/31 222/264/27 63/260/27
f 270/262/44 69/259/31 80/261/31
f 257/179/2 253/178/2 249/176/2
f 249/176/2 245/173/2 241/171/2
f 241/171/2 237/8/2 233/10/2
f 233/10/2 229/22/2 225/45/2
f 225/45/2 59/44/2 78/187/2
f 78/187/2 269/186/2 265/184/2
f 265/184/2 261/182/2 257/179/2
f 257/179/2 249/176/2 241/171/2
f 241/171/2 233/10/2 225/45/2
f 225/45/2 78/187/2 265/184/2
f 265/184/2 257/179/2 241/171/2
f 222/264/27 226/273/36 224/265/36
f 226/266/36 230/269/114 228/267/114
f 230/269/114 234/271/88 232/270/88
f 234/271/88 238/275/68 236/272/68
f 238/273/68 242/264/37 240/260/37
f 242/264/37 246/259/29 244/261/29
f 246/259/29 250/262/108 248/263/108
f 250/262/108 254/276/97 252/274/97
f 254/275/97 258/271/83 256/270/83
f 258/271/83 262/269/72 260/267/72
f 262/269/72 266/266/57 264/268/57
f 266/276/57 270/262/44 268/263/44
f 271/277/115 312/200/156 310/198/154
f 281/193/125 283/197/127 272/189/116
f 276/279/120 274/278/118 310/198/154
f 281/193/125 273/195/117 275/194/119
f 277/143/121 87/301/28 280/140/124
f 280/140/124 279/139/123 275/141/119
f 308/115/152 87/301/28 277/143/121
f 277/143/121 276/142/120 306/113/150
f 287/198/131 282/278/126 278/279/122
f 280/140/124 87/301/28 291/112/135
f 291/112/135 290/111/134 278/138/122
f 287/198/131 285/200/129 284/277/128
f 297/280/141 286/199/130 288/202/132
f 295/281/139 288/202/132 289/230/133
f 291/112/135 87/301/28 294/159/138
f 294/159/138 293/158/137 289/110/133
f 301/233/145 296/207/140 292/206/136
f 294/159/138 87/301/28 305/101/149
f 305/101/149 304/100/148 292/157/136
f 299/235/143 298/204/142 296/207/140
f 309/202/153 311/199/155 300/280/144
f 307/230/151 309/202/153 302/281/146
f 305/101/149 87/301/28 308/115/152
f 308/115/152 307/114/151 303/99/147
f 337/239/2 343/215/2 313/209/2
f 313/209/2 319/223/2 325/227/2
f 325/227/2 331/226/2 337/239/2
f 320/71/161 315/91/158 317/87/159
f 314/283/157 345/59/178 347/38/179
f 322/285/28 316/213/28 346/212/28
f 346/212/28 340/229/28 334/217/28
f 334/217/28 328/220/28 322/285/28
f 330/38/168 326/59/165 321/283/162
f 332/286/169 327/58/166 329/37/167
f 338/91/173 333/71/170 335/63/171
f 344/58/177 339/286/174 341/287/175
