# Blender 5.2.0 LTS
# www.blender.org
o Backdrop_Statue
v 0.000000 12.449483 -8.976661
v 0.000000 12.449483 -8.976661
v 10.512923 38.000000 0.000000
v 7.433759 38.000000 7.433759
v 7.737623 38.446869 7.737623
v 7.737623 38.446869 7.737623
v 10.942652 38.446869 0.000000
v 10.942652 38.446869 0.000000
v 13.050000 7.950000 13.500000
v 13.050000 12.050000 13.500000
v 13.500000 12.050000 13.050000
v 13.050000 12.500000 13.050000
v 13.500000 7.950000 13.050000
v 13.050000 7.500000 13.050000
v 13.500000 7.950000 -13.050000
v 13.500000 12.050000 -13.050000
v 16.549999 7.550000 -17.000000
v 0.000000 70.000000 0.000000
v 13.050000 12.050000 -13.500000
v 13.050000 12.500000 -13.050000
v 13.050000 7.950000 -13.500000
v 13.050000 7.500000 -13.050000
v -13.050000 7.950000 -13.500000
v -13.050000 12.050000 -13.500000
v -13.500000 12.050000 -13.050000
v -13.050000 12.500000 -13.050000
v -13.050000 12.500000 13.050000
v -13.500000 12.050000 13.050000
v -13.050000 12.050000 13.500000
v -13.050000 7.950000 13.500000
v -13.500000 7.950000 -13.050000
v -13.500000 7.950000 13.050000
v -13.050000 7.500000 13.050000
v -13.050000 7.500000 -13.050000
v 16.549999 0.450000 17.000000
v 16.549999 7.550000 17.000000
v 17.000000 7.550000 16.549999
v 16.549999 8.000000 16.549999
v 17.000000 0.450000 16.549999
v 16.549999 0.000000 16.549999
v 17.000000 0.450000 -16.549999
v 17.000000 7.550000 -16.549999
v 16.549999 7.550000 -17.000000
v 16.549999 8.000000 -16.549999
v 16.549999 0.450000 -17.000000
v 16.549999 0.000000 -16.549999
v -16.549999 0.450000 -17.000000
v -16.549999 7.550000 -17.000000
v -17.000000 7.550000 -16.549999
v -16.549999 8.000000 -16.549999
v 0.000000 67.656853 -4.596194
v 0.000000 65.061470 -6.005217
v 0.000000 62.000000 -6.500000
v -16.549999 8.000000 16.549999
v -17.000000 7.550000 16.549999
v 17.000000 7.550000 -16.549999
v -16.549999 7.550000 17.000000
v 1.758887 69.391037 -1.758887
v 16.549999 8.000000 -16.549999
v 3.250000 67.656853 -3.250000
v 4.246329 65.061470 -4.246329
v 4.596194 62.000000 -4.596194
v -16.549999 0.450000 17.000000
v -17.000000 0.450000 -16.549999
v -17.000000 0.450000 16.549999
v 17.000000 0.450000 -16.549999
v 2.487442 69.391037 0.000000
v 16.549999 0.450000 -17.000000
v 4.596194 67.656853 0.000000
v 6.005217 65.061470 0.000000
v 6.500000 62.000000 0.000000
v -16.549999 0.000000 16.549999
v -16.549999 0.000000 -16.549999
v -4.596194 62.000000 -4.596194
v 16.549999 0.000000 -16.549999
v 1.758887 69.391037 1.758887
v 17.000000 7.550000 16.549999
v 3.250000 67.656853 3.250000
v 4.246329 65.061470 4.246329
v 4.596194 62.000000 4.596194
v -4.246329 65.061470 -4.246329
v -6.499999 62.000000 0.000000
v -6.005216 65.061470 0.000000
v 16.549999 7.550000 17.000000
v 0.000000 69.391037 2.487442
v 16.549999 8.000000 16.549999
v 0.000000 67.656853 4.596194
v 0.000000 65.061470 6.005216
v 0.000000 62.000000 6.499999
v -4.596194 62.000000 4.596194
v -4.246329 65.061470 4.246329
v 0.000000 62.000000 6.499999
v 16.549999 0.450000 17.000000
v -1.758887 69.391037 1.758887
v 17.000000 0.450000 16.549999
v -3.250000 67.656853 3.250000
v -4.246329 65.061470 4.246329
v -4.596194 62.000000 4.596194
v 0.000000 65.061470 6.005216
v 4.596194 62.000000 4.596194
v 4.246329 65.061470 4.246329
v 16.549999 0.000000 16.549999
v -2.487442 69.391037 0.000000
v -17.000000 7.550000 -16.549999
v -4.596194 67.656853 0.000000
v -6.005216 65.061470 0.000000
v -6.499999 62.000000 0.000000
v 6.500000 62.000000 0.000000
v 6.005217 65.061470 0.000000
v 0.000000 62.000000 -6.500000
v -16.549999 7.550000 -17.000000
v -1.758887 69.391037 -1.758887
v -16.549999 8.000000 -16.549999
v -3.250000 67.656853 -3.250000
v -4.246329 65.061470 -4.246329
v -4.596194 62.000000 -4.596194
v 0.000000 65.061470 -6.005217
v 4.596194 62.000000 -4.596194
v -16.549999 0.000000 16.549999
v -16.549999 0.450000 -17.000000
v 0.000000 69.391037 -2.487442
v -17.000000 0.450000 -16.549999
v -16.549999 0.000000 -16.549999
v -17.000000 7.550000 16.549999
v -16.549999 8.000000 16.549999
v -16.549999 7.550000 17.000000
v -17.000000 0.450000 16.549999
v -16.549999 0.450000 17.000000
v 4.246329 65.061470 -4.246329
v -13.050000 7.500000 13.050000
v -13.050000 7.950000 13.500000
v -13.500000 7.950000 13.050000
v -13.050000 12.050000 13.500000
v -13.050000 12.500000 13.050000
v -13.500000 12.050000 13.050000
v -13.050000 7.500000 -13.050000
v -13.500000 7.950000 -13.050000
v -13.050000 7.950000 -13.500000
v -13.050000 12.500000 -13.050000
v -13.050000 12.050000 -13.500000
v -13.500000 12.050000 -13.050000
v 13.050000 7.500000 13.050000
v 13.500000 7.950000 13.050000
v 13.050000 7.950000 13.500000
v 13.050000 12.500000 13.050000
v 13.050000 12.050000 13.500000
v 13.500000 12.050000 13.050000
v 13.050000 7.500000 -13.050000
v 13.050000 7.950000 -13.500000
v 13.500000 7.950000 -13.050000
v 13.050000 12.500000 -13.050000
v 13.500000 12.050000 -13.050000
v 13.050000 12.050000 -13.500000
v 0.000000 12.000000 -8.512923
v 0.000000 12.449483 -8.976661
v 0.000000 38.000000 -7.162924
v 0.000000 37.550518 -7.673339
v 6.019546 12.000000 -6.019546
v 6.347458 12.449483 -6.347458
v 5.064952 38.000000 -5.064952
v 5.425870 37.550518 -5.425870
v 8.512923 12.000000 0.000000
v 8.976661 12.449483 0.000000
v 7.162924 38.000000 0.000000
v 7.673339 37.550518 0.000000
v 6.019546 12.000000 6.019546
v 6.347458 12.449483 6.347458
v 5.064952 38.000000 5.064952
v 5.425870 37.550518 5.425870
v -0.000000 12.000000 8.512923
v -0.000000 12.449483 8.976661
v -0.000000 38.000000 7.162924
v 0.000000 37.550518 7.673339
v -6.019546 12.000000 6.019546
v -6.347458 12.449483 6.347458
v -5.064952 38.000000 5.064952
v -5.425870 37.550518 5.425870
v -8.512923 12.000000 -0.000000
v -8.976661 12.449483 -0.000000
v -7.162924 38.000000 -0.000000
v -7.673339 37.550518 0.000000
v -6.019546 12.000000 -6.019546
v -6.347458 12.449483 -6.347458
v -5.064952 38.000000 -5.064952
v -5.425870 37.550518 -5.425870
v 0.000000 38.000000 -10.512923
v 0.000000 38.446869 -10.942652
v 0.000000 62.000000 -7.432924
v 0.000000 61.553131 -7.977348
v 7.433759 38.000000 -7.433759
v 7.737623 38.446869 -7.737623
v 5.255870 62.000000 -5.255870
v 5.640837 61.553131 -5.640837
v 10.512923 38.000000 0.000000
v 10.942652 38.446869 0.000000
v 7.432924 62.000000 0.000000
v 7.977348 61.553131 0.000000
v 7.433759 38.000000 7.433759
v 7.737623 38.446869 7.737623
v 5.255870 62.000000 5.255870
v 5.640837 61.553131 5.640837
v -0.000000 38.000000 10.512923
v 0.000000 38.446869 10.942652
v -0.000000 62.000000 7.432924
v 0.000000 61.553131 7.977348
v -7.433759 38.000000 7.433759
v -7.737623 38.446869 7.737623
v -5.255870 62.000000 5.255870
v -5.640837 61.553131 5.640837
v -10.512923 38.000000 -0.000000
v -10.942652 38.446869 0.000000
v -7.432924 62.000000 -0.000000
v -7.977348 61.553131 0.000000
v -7.433759 38.000000 -7.433759
v -7.737623 38.446869 -7.737623
v -5.255870 62.000000 -5.255870
v -5.640837 61.553131 -5.640837
v 12.038074 60.268234 -1.440191
v 12.629389 60.479317 -1.243026
v 12.467193 60.124912 -1.918106
v 35.391491 48.818432 1.040191
v 35.174706 49.425716 0.856867
v 35.012508 49.071308 1.531947
v 12.038073 60.268234 1.440191
v 12.467193 60.124912 1.918106
v 12.629391 60.479321 1.243026
v 34.641727 47.180180 2.080384
v 34.394890 47.721786 2.388815
v 34.070496 47.012974 2.388814
v 11.000001 58.000004 2.880384
v 11.246841 57.458397 3.161132
v 11.571236 58.167210 3.161132
v 33.891975 45.541931 1.040191
v 33.452877 45.663452 1.531947
v 33.290680 45.309048 0.856867
v 9.961926 55.731773 1.440191
v 10.188688 55.146290 1.243026
v 10.350884 55.500694 1.918106
v 33.891972 45.541931 -1.040191
v 33.290680 45.309048 -0.856867
v 33.452877 45.663452 -1.531947
v 9.961927 55.731773 -1.440191
v 10.350884 55.500694 -1.918107
v 10.188688 55.146290 -1.243026
v 34.641735 47.180180 -2.080384
v 34.070496 47.012974 -2.388813
v 34.394890 47.721786 -2.388815
v 10.999999 58.000004 -2.880384
v 11.571236 58.167210 -3.161132
v 11.246841 57.458397 -3.161132
v -33.891975 45.541931 -1.040191
v -33.452877 45.663456 -1.531947
v -33.290680 45.309048 -0.856867
v -9.961925 55.731770 -1.440191
v -10.188687 55.146286 -1.243026
v -10.350883 55.500690 -1.918106
v -33.891972 45.541931 1.040191
v -33.290680 45.309048 0.856867
v -33.452877 45.663452 1.531947
v -9.961926 55.731770 1.440191
v -10.350883 55.500690 1.918107
v -10.188687 55.146286 1.243026
v -34.641731 47.180183 2.080384
v -34.070496 47.012978 2.388813
v -34.394890 47.721790 2.388815
v -10.999998 58.000000 2.880384
v -11.571235 58.167206 3.161132
v -11.246841 57.458393 3.161132
v -35.391491 48.818432 1.040191
v -35.012512 49.071308 1.531948
v -35.174709 49.425716 0.856867
v -12.038074 60.268230 1.440191
v -12.629389 60.479313 1.243026
v -12.467192 60.124908 1.918106
v -35.391495 48.818432 -1.040191
v -35.174709 49.425716 -0.856867
v -35.012512 49.071308 -1.531947
v -12.038072 60.268230 -1.440191
v -12.467192 60.124908 -1.918106
v -12.629390 60.479317 -1.243026
v -34.641735 47.180180 -2.080384
v -34.394890 47.721786 -2.388814
v -34.070496 47.012978 -2.388815
v -11.000000 58.000000 -2.880384
v -11.246841 57.458393 -3.161132
v -11.571235 58.167206 -3.161132
v 35.391487 48.818432 -1.040191
v 35.012508 49.071308 -1.531948
v 35.174706 49.425716 -0.856867
v 6.347458 12.449483 -6.347458
v 6.347458 12.449483 -6.347458
v 6.019546 12.000000 -6.019546
v 0.000000 12.000000 -8.512923
v 5.425870 37.550518 -5.425870
v 5.425870 37.550518 -5.425870
v 0.000000 37.550518 -7.673339
v 0.000000 37.550518 -7.673339
v 0.000000 38.000000 -7.162924
v 5.064952 38.000000 -5.064952
v 8.976661 12.449483 0.000000
v 8.976661 12.449483 0.000000
v 8.512923 12.000000 0.000000
v 5.640837 61.553131 -5.640837
v 5.640837 61.553131 -5.640837
v 0.000000 61.553131 -7.977348
v 0.000000 61.553131 -7.977348
v 0.000000 62.000000 -7.432924
v 5.255870 62.000000 -5.255870
v 7.673339 37.550518 0.000000
v 7.673339 37.550518 0.000000
v 7.162924 38.000000 0.000000
v 6.347458 12.449483 6.347458
v 6.347458 12.449483 6.347458
v 6.019546 12.000000 6.019546
v 5.425870 37.550518 5.425870
v 5.425870 37.550518 5.425870
v 5.064952 38.000000 5.064952
v 7.977348 61.553131 0.000000
v 7.977348 61.553131 0.000000
v 7.432924 62.000000 0.000000
v -0.000000 12.449483 8.976661
v -0.000000 12.449483 8.976661
v -0.000000 12.000000 8.512923
v 0.000000 37.550518 7.673339
v 0.000000 37.550518 7.673339
v -0.000000 38.000000 7.162924
v -6.347458 12.449483 6.347458
v -6.347458 12.449483 6.347458
v -6.019546 12.000000 6.019546
v 0.000000 38.446869 -10.942652
v 0.000000 38.446869 -10.942652
v 7.737623 38.446869 -7.737623
v 7.737623 38.446869 -7.737623
v 7.433759 38.000000 -7.433759
v 0.000000 38.000000 -10.512923
v -5.425870 37.550518 5.425870
v -5.425870 37.550518 5.425870
v -5.064952 38.000000 5.064952
v -8.976661 12.449483 -0.000000
v -8.976661 12.449483 -0.000000
v -8.512923 12.000000 -0.000000
v -7.673339 37.550518 0.000000
v -7.673339 37.550518 0.000000
v -7.162924 38.000000 -0.000000
v -6.347458 12.449483 -6.347458
v -6.347458 12.449483 -6.347458
v -6.019546 12.000000 -6.019546
v -5.425870 37.550518 -5.425870
v -5.425870 37.550518 -5.425870
v -5.064952 38.000000 -5.064952
v 5.640837 61.553131 5.640837
v 5.640837 61.553131 5.640837
v 5.255870 62.000000 5.255870
v 0.000000 38.446869 10.942652
v 0.000000 38.446869 10.942652
v -0.000000 38.000000 10.512923
v 0.000000 61.553131 7.977348
v 0.000000 61.553131 7.977348
v -0.000000 62.000000 7.432924
v -7.737623 38.446869 7.737623
v -7.737623 38.446869 7.737623
v -7.433759 38.000000 7.433759
v 34.641727 47.180180 2.080384
v 35.391491 48.818432 1.040191
v -5.640837 61.553131 5.640837
v -5.640837 61.553131 5.640837
v -5.255870 62.000000 5.255870
v -10.942652 38.446869 0.000000
v -10.942652 38.446869 0.000000
v -10.512923 38.000000 -0.000000
v 12.038073 60.268234 1.440191
v 11.000001 58.000004 2.880384
v -7.977348 61.553131 0.000000
v -7.977348 61.553131 0.000000
v -7.432924 62.000000 -0.000000
v -7.737623 38.446869 -7.737623
v -7.737623 38.446869 -7.737623
v -7.433759 38.000000 -7.433759
v -5.640837 61.553131 -5.640837
v -5.640837 61.553131 -5.640837
v -5.255870 62.000000 -5.255870
v 9.961926 55.731773 1.440191
v -9.961925 55.731770 -1.440191
v -9.961926 55.731770 1.440191
v -33.891972 45.541931 1.040191
v -33.891975 45.541931 -1.040191
v -11.000000 58.000000 -2.880384
v -34.641735 47.180180 -2.080384
v -34.641731 47.180183 2.080384
v -10.999998 58.000000 2.880384
v -12.038074 60.268230 1.440191
v -35.391491 48.818432 1.040191
v -12.038072 60.268230 -1.440191
v 9.961927 55.731773 -1.440191
v -35.391495 48.818432 -1.040191
v 10.999999 58.000004 -2.880384
v 33.891972 45.541931 -1.040191
v 33.891975 45.541931 1.040191
v 34.641735 47.180180 -2.080384
v 35.391487 48.818432 -1.040191
v 12.038074 60.268234 -1.440191
vn 0.3822 0.0479 -0.9228
vn -0.0000 -0.7181 -0.6960
vn 0.7208 -0.6931 -0.0000
vn 0.5097 -0.6931 0.5097
vn 0.9175 0.1177 0.3800
vn 0.9175 0.1177 -0.3800
vn 0.4606 -0.4606 0.7588
vn 0.4606 0.4606 0.7588
vn 0.7588 0.4606 0.4606
vn 0.4606 0.7588 0.4606
vn 0.7588 -0.4606 0.4606
vn 0.4606 -0.7588 0.4606
vn 0.7588 -0.4606 -0.4606
vn 0.7588 0.4606 -0.4606
vn -0.0000 -0.0000 -1.0000
vn -0.0000 1.0000 -0.0000
vn 0.4606 0.4606 -0.7588
vn 0.4606 0.7588 -0.4606
vn 0.4606 -0.4606 -0.7588
vn 0.4606 -0.7588 -0.4606
vn -0.4606 -0.4606 -0.7588
vn -0.4606 0.4606 -0.7588
vn -0.7588 0.4606 -0.4606
vn -0.4606 0.7588 -0.4606
vn -0.4606 0.7588 0.4606
vn -0.7588 0.4606 0.4606
vn -0.4606 0.4606 0.7588
vn -0.4606 -0.4606 0.7588
vn -0.7588 -0.4606 -0.4606
vn -0.7588 -0.4606 0.4606
vn -0.4606 -0.7588 0.4606
vn -0.4606 -0.7588 -0.4606
vn -0.0000 0.6143 -0.7891
vn -0.3663 0.2894 -0.8843
vn -0.3785 0.1477 -0.9137
vn 1.0000 -0.0000 -0.0000
vn 0.3463 0.8719 -0.3463
vn 0.5579 0.6143 -0.5579
vn 0.8843 0.2894 -0.3663
vn 0.9137 0.1477 -0.3785
vn 0.4897 0.8719 -0.0000
vn 0.7891 0.6143 -0.0000
vn 0.8843 0.2894 0.3663
vn 0.9137 0.1477 0.3785
vn -0.9137 0.1477 -0.3785
vn -0.0000 -1.0000 -0.0000
vn 0.3463 0.8719 0.3463
vn 0.5579 0.6143 0.5579
vn 0.3663 0.2894 0.8843
vn 0.3785 0.1477 0.9138
vn -0.8843 0.2894 -0.3663
vn -0.9137 0.1477 0.3785
vn -0.8843 0.2894 0.3663
vn -0.0000 -0.0000 1.0000
vn -0.0000 0.8719 0.4897
vn -0.0000 0.6143 0.7891
vn -0.3663 0.2894 0.8843
vn -0.3785 0.1477 0.9137
vn 0.3785 0.1477 0.9137
vn -0.3463 0.8719 0.3463
vn -0.5579 0.6143 0.5579
vn -0.4897 0.8719 -0.0000
vn -1.0000 -0.0000 -0.0000
vn -0.7891 0.6143 -0.0000
vn 0.3785 0.1477 -0.9137
vn -0.3463 0.8719 -0.3463
vn -0.5579 0.6143 -0.5579
vn -0.3785 0.1477 -0.9138
vn 0.3663 0.2894 -0.8843
vn 0.3785 0.1477 -0.9138
vn -0.0000 0.8719 -0.4897
vn -0.3822 0.0479 -0.9228
vn 0.9228 0.0479 -0.3822
vn 0.9228 0.0479 0.3822
vn 0.3822 0.0479 0.9228
vn -0.3822 0.0479 0.9228
vn -0.9228 0.0479 0.3822
vn -0.9228 0.0479 -0.3822
vn -0.3800 0.1177 -0.9175
vn 0.3800 0.1177 0.9175
vn -0.3800 0.1177 0.9175
vn -0.9175 0.1177 0.3800
vn -0.9175 0.1177 -0.3800
vn -0.9093 0.4161 -0.0000
vn 0.0931 0.9710 -0.2203
vn -0.0193 0.7255 -0.6880
vn 0.9093 -0.4162 -0.0000
vn 0.7052 0.6749 0.2173
vn 0.5948 0.4336 0.6770
vn -0.0193 0.7255 0.6880
vn 0.0931 0.9710 0.2203
vn 0.9093 -0.4161 -0.0000
vn 0.4381 0.0913 0.8943
vn 0.2173 -0.3913 0.8943
vn -0.4028 -0.1126 0.9083
vn -0.1781 0.3785 0.9083
vn 0.0606 -0.7335 0.6770
vn -0.0498 -0.9748 0.2173
vn -0.6740 -0.7051 0.2203
vn -0.5616 -0.4596 0.6880
vn -0.0498 -0.9748 -0.2173
vn 0.0606 -0.7335 -0.6770
vn -0.5616 -0.4596 -0.6880
vn -0.6740 -0.7051 -0.2203
vn 0.2173 -0.3913 -0.8943
vn 0.4381 0.0913 -0.8943
vn -0.1781 0.3785 -0.9083
vn -0.4028 -0.1126 -0.9083
vn -0.9093 -0.4161 -0.0000
vn -0.0606 -0.7335 -0.6770
vn 0.0498 -0.9748 -0.2173
vn 0.9093 0.4161 -0.0000
vn 0.6740 -0.7051 -0.2203
vn 0.5616 -0.4596 -0.6880
vn 0.0498 -0.9748 0.2173
vn -0.0606 -0.7335 0.6770
vn 0.5616 -0.4596 0.6880
vn 0.6740 -0.7051 0.2203
vn -0.2173 -0.3913 0.8943
vn -0.4381 0.0913 0.8943
vn 0.1781 0.3785 0.9083
vn 0.4028 -0.1126 0.9083
vn -0.5948 0.4336 0.6770
vn -0.7052 0.6749 0.2173
vn -0.0931 0.9710 0.2203
vn 0.0193 0.7255 0.6880
vn -0.7052 0.6749 -0.2173
vn -0.5948 0.4336 -0.6770
vn 0.0193 0.7255 -0.6880
vn -0.0931 0.9710 -0.2203
vn -0.4381 0.0913 -0.8943
vn -0.2173 -0.3913 -0.8943
vn 0.4028 -0.1126 -0.9083
vn 0.1781 0.3785 -0.9083
vn 0.5948 0.4336 -0.6770
vn 0.7052 0.6749 -0.2173
vn 0.4921 -0.7181 -0.4921
vn 0.4673 0.7505 -0.4673
vn -0.0000 0.7505 -0.6609
vn 0.6960 -0.7181 -0.0000
vn 0.4486 0.7730 -0.4486
vn 0.3800 0.1177 -0.9175
vn -0.0000 0.7730 -0.6345
vn 0.6609 0.7505 -0.0000
vn 0.4921 -0.7181 0.4921
vn 0.4673 0.7505 0.4673
vn 0.6345 0.7730 -0.0000
vn -0.0000 -0.7181 0.6960
vn -0.0000 0.7505 0.6609
vn -0.4921 -0.7181 0.4921
vn -0.0000 -0.6931 -0.7208
vn 0.5097 -0.6931 -0.5097
vn -0.4673 0.7505 0.4673
vn -0.6960 -0.7181 -0.0000
vn -0.6609 0.7505 -0.0000
vn -0.4921 -0.7181 -0.4921
vn -0.4673 0.7505 -0.4673
vn 0.4486 0.7730 0.4486
vn -0.0000 -0.6931 0.7208
vn -0.0000 0.7730 0.6345
vn -0.5097 -0.6931 0.5097
vn 0.6391 -0.2925 0.7114
vn 0.8954 0.2677 0.3557
vn -0.4486 0.7730 0.4486
vn -0.7208 -0.6931 -0.0000
vn -0.3510 0.8611 0.3678
vn -0.6160 0.2819 0.7355
vn -0.6345 0.7730 -0.0000
vn -0.5097 -0.6931 -0.5097
vn -0.4486 0.7730 -0.4486
vn -0.8811 -0.2973 0.3678
vn 0.8811 -0.2973 -0.3678
vn 0.8811 -0.2973 0.3678
vn -0.3827 -0.8527 0.3557
vn -0.3827 -0.8527 -0.3557
vn 0.6160 0.2819 -0.7355
vn -0.6391 -0.2925 -0.7114
vn -0.6391 -0.2925 0.7114
vn 0.6160 0.2819 0.7355
vn 0.3510 0.8611 0.3678
vn -0.8954 0.2677 0.3557
vn 0.3510 0.8611 -0.3678
vn -0.8811 -0.2973 -0.3678
vn -0.8954 0.2677 -0.3557
vn -0.6160 0.2819 -0.7355
vn 0.3827 -0.8527 -0.3557
vn 0.3827 -0.8527 0.3557
vn 0.6391 -0.2925 -0.7114
vn 0.8954 0.2677 -0.3557
vn -0.3510 0.8611 -0.3678
vt 0.087944 0.087944
vt 0.229810 0.000000
vt 0.162500 0.162500
vt 0.000000 3.382843
vt 0.212316 3.253073
vt 0.000000 3.253073
vt 0.000000 0.000000
vt 0.124372 0.000000
vt -0.652500 -0.652500
vt -0.652500 -0.675000
vt -0.675000 -0.652500
vt -0.652500 0.652500
vt -0.652500 0.675000
vt -0.675000 0.652500
vt 0.229810 3.100000
vt 0.000000 3.100000
vt -0.827500 -0.850000
vt -0.827500 -0.827500
vt -0.850000 -0.827500
vt 0.652500 0.652500
vt 0.652500 0.675000
vt 0.675000 0.652500
vt 0.652500 -0.652500
vt 0.675000 -0.652500
vt 0.652500 -0.675000
vt 0.827500 -0.827500
vt 0.827500 -0.850000
vt 0.850000 -0.827500
vt 0.000000 0.124372
vt 0.000000 0.229810
vt 0.162500 3.382843
vt 0.087944 -0.087944
vt -0.212316 3.253073
vt -0.229810 3.100000
vt 0.162500 -0.162500
vt 0.000000 -0.124372
vt 0.212316 3.253073
vt 0.827500 0.827500
vt 0.850000 0.827500
vt 0.827500 0.850000
vt 0.162500 3.382843
vt 0.000000 -0.229810
vt -0.827500 0.827500
vt -0.850000 0.827500
vt -0.827500 0.850000
vt -0.162500 -0.162500
vt -0.087944 -0.087944
vt -0.229810 0.000000
vt -0.124372 0.000000
vt -0.162500 3.382843
vt -0.087944 0.087944
vt -0.162500 0.162500
vt 0.601904 0.072010
vt 0.631469 0.062151
vt 0.623360 0.095905
vt -0.052010 2.440922
vt -0.042843 2.471286
vt -0.076597 2.453565
vt 0.601904 -0.072010
vt 0.623360 -0.095905
vt 0.631470 -0.062151
vt 1.732086 2.359009
vt 1.719744 2.386089
vt 1.703525 2.350649
vt 0.550000 2.900000
vt 0.562342 2.872920
vt 0.578562 2.908360
vt 1.694599 -0.052010
vt 1.672644 -0.076597
vt 1.664534 -0.042843
vt -0.072010 2.786589
vt -0.062151 2.757314
vt -0.095905 2.775035
vt 1.694599 0.052010
vt 1.664534 0.042843
vt 1.672644 0.076597
vt 0.072010 2.786589
vt 0.095905 2.775035
vt 0.062151 2.757314
vt 1.732087 2.359009
vt 0.550000 2.900000
vt -1.694599 0.052010
vt -1.672644 0.076597
vt -1.664534 0.042843
vt 0.072010 2.786588
vt 0.062151 2.757314
vt 0.095905 2.775034
vt -1.694599 -0.052010
vt -1.664534 -0.042843
vt -1.672644 -0.076597
vt -0.072010 2.786588
vt -0.095905 2.775034
vt -0.062151 2.757314
vt -1.732087 2.359009
vt -1.703525 2.350649
vt -1.719744 2.386090
vt -0.550000 2.900000
vt -0.578562 2.908360
vt -0.562342 2.872920
vt -0.052010 2.440922
vt -0.076597 2.453565
vt -0.042843 2.471286
vt -0.601904 -0.072010
vt -0.631469 -0.062151
vt -0.623360 -0.095905
vt 0.052010 2.440922
vt 0.042843 2.471286
vt 0.076597 2.453565
vt -0.601904 0.072010
vt -0.623360 0.095905
vt -0.631469 0.062151
vt -1.732087 2.359009
vt -1.719744 2.386089
vt -0.550000 2.900000
vt 0.052010 2.440922
vt 0.076597 2.453565
vt 0.042843 2.471286
vt -0.850000 0.377500
vt -0.827500 0.022500
vt -0.850000 0.022500
vt 0.850000 0.022500
vt 0.827500 0.377500
vt 0.850000 0.377500
vt 0.827500 0.022500
vt -0.850000 0.022500
vt -0.827500 0.377500
vt -0.675000 0.602500
vt -0.652500 0.397500
vt -0.675000 0.397500
vt 0.675000 0.397500
vt 0.652500 0.602500
vt 0.675000 0.602500
vt 0.652500 0.397500
vt -0.652500 0.602500
vt -0.386881 1.922343
vt -0.000000 1.900000
vt 0.000000 1.922343
vt 0.317373 0.317373
vt 0.000000 0.425646
vt 0.000000 0.448833
vt 0.000000 0.383667
vt 0.253248 0.253248
vt 0.271293 0.271293
vt 0.448833 -0.000000
vt 0.300977 0.300977
vt 0.282042 0.282042
vt 0.000000 0.371646
vt 0.262794 0.262794
vt 0.358146 -0.000000
vt 0.383667 0.000000
vt 0.317373 -0.317373
vt 0.425646 -0.000000
vt 0.253248 -0.253248
vt 0.271293 -0.271293
vt 0.371646 -0.000000
vt 0.398867 0.000000
vt -0.000000 -0.448833
vt 0.300977 -0.300977
vt -0.000000 -0.358146
vt 0.000000 -0.383667
vt -0.317373 -0.317373
vt -0.000000 -0.425646
vt 0.386881 1.922343
vt 0.000000 1.900000
vt -0.253248 -0.253248
vt -0.271293 -0.271293
vt 0.371688 1.900000
vt -0.448833 0.000000
vt -0.300977 -0.300977
vt -0.358146 0.000000
vt -0.383667 0.000000
vt -0.317373 0.317373
vt -0.425646 0.000000
vt -0.253248 0.253248
vt -0.271293 0.271293
vt -0.300977 0.300977
vt 0.000000 0.358146
vt 0.282042 -0.282042
vt 0.262794 -0.262794
vt -0.000000 -0.371646
vt 0.000000 -0.398867
vt -0.119441 2.386089
vt -0.282042 -0.282042
vt -0.262794 -0.262794
vt -0.371688 1.900000
vt 0.623360 3.006246
vt -0.371646 0.000000
vt -0.398867 0.000000
vt 1.750625 -0.076597
vt 1.758735 -0.042843
vt -0.282042 0.282042
vt -0.262794 0.262794
vt 0.000000 0.398867
vt 0.517544 -0.095905
vt -0.144019 2.900000
vt -0.509434 0.062151
vt 0.158057 2.872920
vt -1.732087 0.104019
vt -1.703525 0.119441
vt -1.732087 -0.104019
vt 0.509434 0.062151
vt -0.509434 -0.062151
vt -1.758735 -0.042843
vt -1.750626 -0.076597
vt -0.623360 3.006245
vt -0.601904 3.013412
vt -0.158057 2.872920
vt -0.104019 2.359009
vt -0.119441 2.386090
vt 0.144019 2.900000
vt 0.158057 2.872920
vt 0.104019 2.359009
vt -1.750626 0.076597
vt -1.758735 0.042843
vt 1.703525 0.119441
vt 0.104019 2.359009
vt 0.119441 2.386089
vt 1.732086 -0.104019
vt 1.703525 -0.119441
vt 0.601904 3.013412
vt 1.758735 0.042843
vt 1.750625 0.076597
vt 0.827500 0.022500
vt -0.827500 0.022500
vt 0.000000 1.877526
vt 0.317373 0.622474
vt 0.000000 0.622474
vt -0.271293 1.877526
vt -0.317373 0.622474
vt 0.271293 1.877526
vt -0.000000 0.622474
vt -0.371688 -0.371688
vt -0.371688 0.371688
vt 0.371688 0.371688
vt 0.000000 3.077657
vt -0.282042 3.077657
vt 0.282042 3.077657
vt -0.072010 3.013412
vt -0.104019 2.359009
vt 0.052010 2.277097
vt 1.750625 2.453565
vt 0.517544 2.775035
vt 0.509434 -0.062151
vt 1.672644 2.283173
vt 0.052010 2.277097
vt -0.517544 2.775034
vt -0.072010 3.013412
vt 0.850000 0.022500
vt 0.601904 3.013412
vt -0.158057 2.872920
vt -0.517544 0.095905
vt -1.703525 -0.119441
vt 0.517544 0.095905
vt -0.517544 -0.095905
vt -0.601904 3.013412
vt 0.119441 2.386089
vt 1.732087 0.104019
vt 0.525646 -0.000000
vt 0.371688 -0.371688
vt -0.000000 -0.525646
vt -0.525646 0.000000
vt 0.000000 0.525646
vt 0.072010 3.013412
vt -0.052010 2.277097
vt -0.052010 2.277097
vt -1.672644 2.283173
vt 0.072010 3.013412
vt -1.672644 2.283173
vt -1.750626 2.453565
s 1
f 58/1/37 69/2/42 60/3/38
f 51/4/33 129/5/69 117/6/69
f 58/1/37 18/7/16 67/8/41
f 33/9/31 30/10/28 32/11/30
f 26/12/24 24/13/22 25/14/23
f 117/6/69 118/15/70 110/16/65
f 57/17/27 54/18/25 55/19/26
f 22/20/20 21/21/19 15/22/13
f 14/23/12 13/24/11 9/25/7
f 61/5/39 108/16/40 62/15/40
f 38/26/10 36/27/8 37/28/9
f 121/29/71 18/7/16 58/1/37
f 121/29/71 60/3/38 51/30/33
f 60/31/38 109/6/39 61/5/39
f 34/12/32 31/14/29 23/13/21
f 29/10/27 27/9/25 28/11/26
f 67/8/41 18/7/16 76/32/47
f 71/16/44 101/33/43 100/34/44
f 69/4/42 101/33/43 70/6/43
f 67/8/41 78/35/48 69/2/42
f 76/32/47 18/7/16 85/36/55
f 79/37/49 92/16/59 80/15/50
f 44/38/18 42/39/14 43/40/17
f 78/41/48 99/6/49 79/37/49
f 76/32/47 87/42/56 78/35/48
f 40/26/12 39/28/11 35/27/7
f 72/18/31 63/17/28 65/19/30
f 73/43/32 64/44/29 47/45/21
f 87/4/56 91/33/57 88/6/57
f 85/36/55 96/46/61 87/42/56
f 85/36/55 18/7/16 94/47/60
f 88/6/57 90/34/58 89/16/58
f 94/47/60 105/48/64 96/46/61
f 94/47/60 18/7/16 103/49/62
f 97/33/53 82/16/52 98/34/52
f 96/50/61 83/6/53 97/33/53
f 50/43/24 48/45/22 49/44/23
f 103/49/62 18/7/16 112/51/66
f 106/6/51 74/15/45 107/16/45
f 46/38/20 45/40/19 41/39/13
f 105/4/64 81/37/51 106/6/51
f 103/49/62 114/52/67 105/48/64
f 115/33/34 53/16/35 116/34/68
f 20/20/18 16/22/14 19/21/17
f 12/23/10 10/25/8 11/24/9
f 115/33/34 51/4/33 52/6/34
f 112/51/66 51/30/33 114/52/67
f 112/51/66 18/7/16 121/29/71
f 401/53/190 219/54/85 220/55/86
f 364/56/163 222/57/88 223/58/89
f 371/59/166 225/60/90 226/61/91
f 363/62/162 228/63/93 229/64/94
f 372/65/167 231/66/95 232/67/96
f 398/68/187 234/69/97 235/70/98
f 382/71/171 237/72/99 238/73/100
f 397/74/186 240/75/101 241/76/102
f 394/77/183 243/78/103 244/79/104
f 399/80/188 246/64/105 247/63/106
f 396/81/185 249/67/107 250/66/108
f 386/82/175 252/83/110 253/84/111
f 383/85/172 255/86/113 256/87/114
f 385/88/174 258/89/115 259/90/116
f 384/91/173 261/92/117 262/93/118
f 389/94/178 264/95/119 265/96/120
f 390/97/179 267/98/121 268/99/122
f 392/100/181 270/101/123 271/102/124
f 391/103/180 273/104/125 274/105/126
f 395/106/184 276/107/127 277/108/128
f 393/109/182 279/110/129 280/111/130
f 388/112/177 282/113/131 283/95/132
f 387/114/176 285/99/133 286/98/134
f 400/115/189 288/116/135 289/117/136
f 72/18/31 64/44/29 73/43/32
f 57/118/27 65/119/30 63/120/28
f 50/43/24 55/19/26 54/18/25
f 47/121/21 49/122/23 48/123/22
f 73/43/32 45/40/19 46/38/20
f 44/38/18 48/45/22 50/43/24
f 41/124/13 43/123/17 42/122/14
f 46/38/20 39/28/11 40/26/12
f 38/26/10 42/39/14 44/38/18
f 35/125/7 37/126/9 36/118/8
f 40/26/12 63/17/28 72/18/31
f 54/18/25 36/27/8 38/26/10
f 33/9/31 31/14/29 34/12/32
f 29/127/27 32/128/30 30/129/28
f 26/12/24 28/11/26 27/9/25
f 23/130/21 25/131/23 24/132/22
f 34/12/32 21/21/19 22/20/20
f 20/20/18 24/13/22 26/12/24
f 15/133/13 19/132/17 16/131/14
f 22/20/20 13/24/11 14/23/12
f 12/23/10 16/22/14 20/20/18
f 9/129/7 11/134/9 10/127/8
f 14/23/12 30/10/28 33/9/31
f 27/9/25 10/25/8 12/23/10
f 6/135/4 3/136/3 8/137/3
f 290/138/137 293/139/2 2/140/2
f 296/141/139 299/142/138 294/143/138
f 300/144/140 292/145/137 290/138/137
f 303/146/141 307/147/143 308/148/141
f 294/143/138 311/149/144 309/150/144
f 312/151/145 302/152/140 300/144/140
f 309/150/144 317/153/146 315/154/146
f 303/146/141 320/155/147 318/156/147
f 321/157/148 314/158/145 312/151/145
f 315/154/146 326/159/149 324/160/149
f 327/161/150 323/162/148 321/157/148
f 332/163/152 335/164/151 330/137/151
f 324/160/149 338/165/153 336/166/153
f 8/137/3 334/167/152 332/163/152
f 339/168/154 329/169/150 327/161/150
f 336/166/153 344/170/155 342/171/155
f 345/172/156 341/173/154 339/168/154
f 342/171/155 350/174/157 348/175/157
f 2/140/2 347/176/156 345/172/156
f 348/175/157 298/177/139 296/141/139
f 351/178/158 320/155/147 353/179/158
f 354/137/159 4/167/4 6/163/4
f 351/178/158 359/180/160 357/181/160
f 360/135/161 356/136/159 354/137/159
f 228/182/93 364/56/163 223/58/89
f 365/183/164 359/180/160 367/184/164
f 368/137/165 362/185/161 360/135/161
f 225/186/90 372/65/167 232/67/96
f 365/183/164 375/187/168 373/188/168
f 376/163/169 370/164/165 368/137/165
f 226/61/91 223/189/89 222/190/88
f 379/191/170 375/187/168 381/192/170
f 330/137/151 378/185/169 376/135/169
f 379/191/170 307/147/143 305/193/143
f 238/194/100 235/70/98 234/69/97
f 238/73/100 372/195/167 382/71/171
f 232/67/96 229/64/94 228/63/93
f 252/83/110 255/196/113 253/84/111
f 255/86/113 384/91/173 262/93/118
f 253/84/111 385/88/174 386/82/175
f 285/197/133 383/85/172 256/87/114
f 252/83/110 388/198/177 283/199/132
f 259/90/116 389/200/178 385/88/174
f 244/201/104 241/76/102 240/75/101
f 249/67/107 246/64/105 250/66/108
f 262/202/118 259/90/116 258/89/115
f 274/105/126 271/203/124 270/204/123
f 274/205/126 390/97/179 391/206/180
f 268/207/122 384/91/173 390/195/179
f 264/95/119 267/98/121 265/96/120
f 270/101/123 389/208/178 265/209/120
f 273/104/125 393/109/182 280/111/130
f 285/99/133 282/113/131 286/98/134
f 237/72/99 394/77/183 244/79/104
f 276/107/127 392/100/181 271/102/124
f 243/78/103 396/210/185 250/211/108
f 235/70/98 397/74/186 398/68/187
f 279/205/129 387/114/176 286/98/134
f 277/108/128 388/212/177 395/106/184
f 280/111/130 277/213/128 276/214/127
f 246/215/105 397/74/186 241/76/102
f 288/116/135 399/216/188 247/217/106
f 234/69/97 363/218/162 229/219/94
f 249/67/107 401/220/190 220/186/86
f 220/55/86 289/221/136 288/222/135
f 289/117/136 364/56/163 400/115/189
f 219/54/85 371/59/166 226/61/91
f 75/38/46 119/18/46 123/43/46
f 124/126/63 122/223/63 127/119/63
f 84/122/54 128/224/54 93/124/54
f 113/43/16 86/26/16 59/38/16
f 111/126/15 68/223/15 120/119/15
f 56/122/36 95/224/36 66/124/36
f 148/20/46 130/9/46 136/12/46
f 135/134/63 137/133/63 132/128/63
f 146/131/54 131/128/54 144/133/54
f 139/12/16 145/23/16 151/20/16
f 140/134/15 149/133/15 138/128/15
f 152/131/36 143/128/36 150/133/36
f 166/158/46 174/169/46 182/176/46
f 297/225/1 291/226/1 1/227/1
f 349/228/72 155/227/72 346/229/72
f 180/170/16 172/159/16 164/149/16
f 161/230/73 301/231/73 159/226/73
f 165/225/74 313/229/74 163/231/74
f 169/230/75 322/231/75 167/226/75
f 173/225/76 328/229/76 171/231/76
f 177/228/77 340/227/77 175/229/77
f 181/225/78 183/226/78 179/227/78
f 206/232/46 214/233/46 190/234/46
f 306/235/142 333/163/142 331/137/142
f 380/236/79 187/137/79 377/135/79
f 196/155/16 188/147/16 212/187/16
f 193/237/6 7/137/6 191/163/6
f 197/235/5 5/135/5 195/137/5
f 201/237/80 355/137/80 199/163/80
f 205/235/81 361/135/81 203/137/81
f 209/236/82 369/137/82 207/135/82
f 213/235/83 215/163/83 211/137/83
f 248/210/84 236/71/84 224/238/84
f 226/61/91 289/221/136 219/54/85
f 220/186/86 247/63/106 249/67/107
f 227/239/92 239/240/92 287/115/92
f 232/67/96 223/241/89 225/186/90
f 238/242/100 229/64/94 231/66/95
f 240/75/101 237/243/99 244/201/104
f 250/66/108 241/244/102 243/242/103
f 251/245/109 263/208/109 275/106/109
f 258/89/115 255/196/113 262/202/118
f 256/246/114 283/95/132 285/99/133
f 284/210/112 272/247/112 260/91/112
f 264/95/119 261/246/117 268/99/122
f 274/205/126 265/96/120 267/98/121
f 276/214/127 273/104/125 280/111/130
f 282/113/131 279/205/129 286/98/134
f 58/1/37 67/8/41 69/2/42
f 51/4/33 60/31/38 129/5/69
f 117/6/69 129/5/69 118/15/70
f 61/5/39 109/6/39 108/16/40
f 121/29/71 58/1/37 60/3/38
f 60/31/38 69/4/42 109/6/39
f 71/16/44 70/6/43 101/33/43
f 69/4/42 78/50/48 101/33/43
f 67/8/41 76/32/47 78/35/48
f 79/37/49 99/6/49 92/16/59
f 78/41/48 87/4/56 99/6/49
f 76/32/47 85/36/55 87/42/56
f 87/4/56 96/50/61 91/33/57
f 85/36/55 94/47/60 96/46/61
f 88/6/57 91/33/57 90/34/58
f 94/47/60 103/49/62 105/48/64
f 97/33/53 83/6/53 82/16/52
f 96/50/61 105/4/64 83/6/53
f 106/6/51 81/37/51 74/15/45
f 105/4/64 114/41/67 81/37/51
f 103/49/62 112/51/66 114/52/67
f 115/33/34 52/6/34 53/16/35
f 115/33/34 114/50/67 51/4/33
f 112/51/66 121/29/71 51/30/33
f 72/18/31 65/19/30 64/44/29
f 57/118/27 55/126/26 65/119/30
f 50/43/24 49/44/23 55/19/26
f 47/121/21 64/223/29 49/122/23
f 73/43/32 47/45/21 45/40/19
f 44/38/18 43/40/17 48/45/22
f 41/124/13 45/248/19 43/123/17
f 46/38/20 41/39/13 39/28/11
f 38/26/10 37/28/9 42/39/14
f 35/125/7 39/224/11 37/126/9
f 40/26/12 35/27/7 63/17/28
f 54/18/25 57/17/27 36/27/8
f 33/9/31 32/11/30 31/14/29
f 29/127/27 28/134/26 32/128/30
f 26/12/24 25/14/23 28/11/26
f 23/130/21 31/133/29 25/131/23
f 34/12/32 23/13/21 21/21/19
f 20/20/18 19/21/17 24/13/22
f 15/133/13 21/130/19 19/132/17
f 22/20/20 15/22/13 13/24/11
f 12/23/10 11/24/9 16/22/14
f 9/129/7 13/128/11 11/134/9
f 14/23/12 9/25/7 30/10/28
f 27/9/25 29/10/27 10/25/8
f 6/135/4 4/185/4 3/136/3
f 290/138/137 292/145/137 293/139/2
f 296/141/139 298/177/139 299/142/138
f 300/144/140 302/152/140 292/145/137
f 303/146/141 305/193/143 307/147/143
f 294/143/138 299/142/138 311/149/144
f 312/151/145 314/158/145 302/152/140
f 309/150/144 311/149/144 317/153/146
f 303/146/141 308/148/141 320/155/147
f 321/157/148 323/162/148 314/158/145
f 315/154/146 317/153/146 326/159/149
f 327/161/150 329/169/150 323/162/148
f 332/163/152 334/167/152 335/164/151
f 324/160/149 326/159/149 338/165/153
f 8/137/3 3/136/3 334/167/152
f 339/168/154 341/173/154 329/169/150
f 336/166/153 338/165/153 344/170/155
f 345/172/156 347/176/156 341/173/154
f 342/171/155 344/170/155 350/174/157
f 2/140/2 293/139/2 347/176/156
f 348/175/157 350/174/157 298/177/139
f 351/178/158 318/156/147 320/155/147
f 354/137/159 356/136/159 4/167/4
f 351/178/158 353/179/158 359/180/160
f 360/135/161 362/185/161 356/136/159
f 228/182/93 363/239/162 364/56/163
f 365/183/164 357/181/160 359/180/160
f 368/137/165 370/164/165 362/185/161
f 225/186/90 371/249/166 372/65/167
f 365/183/164 367/184/164 375/187/168
f 376/163/169 378/167/169 370/164/165
f 226/61/91 225/60/90 223/189/89
f 379/191/170 373/188/168 375/187/168
f 330/137/151 335/164/151 378/185/169
f 379/191/170 381/192/170 307/147/143
f 238/194/100 237/243/99 235/70/98
f 238/73/100 231/250/95 372/195/167
f 232/67/96 231/66/95 229/64/94
f 252/83/110 256/251/114 255/196/113
f 255/86/113 383/85/172 384/91/173
f 253/84/111 258/89/115 385/88/174
f 285/197/133 387/210/176 383/85/172
f 252/83/110 386/82/175 388/198/177
f 259/90/116 264/252/119 389/200/178
f 244/201/104 243/253/103 241/76/102
f 249/67/107 247/63/106 246/64/105
f 262/202/118 261/254/117 259/90/116
f 274/105/126 273/104/125 271/203/124
f 274/205/126 267/98/121 390/97/179
f 268/207/122 261/92/117 384/91/173
f 264/95/119 268/99/122 267/98/121
f 270/101/123 392/100/181 389/208/178
f 273/104/125 391/103/180 393/109/182
f 285/99/133 283/95/132 282/113/131
f 237/72/99 382/71/171 394/77/183
f 276/107/127 395/106/184 392/100/181
f 243/78/103 394/77/183 396/210/185
f 235/70/98 240/75/101 397/74/186
f 279/205/129 393/255/182 387/114/176
f 277/108/128 282/256/131 388/212/177
f 280/111/130 279/110/129 277/213/128
f 246/215/105 399/257/188 397/74/186
f 288/116/135 400/115/189 399/216/188
f 234/69/97 398/68/187 363/218/162
f 249/67/107 396/81/185 401/220/190
f 220/55/86 219/54/85 289/221/136
f 289/117/136 222/57/88 364/56/163
f 219/54/85 401/53/190 371/59/166
f 75/38/46 102/26/46 119/18/46
f 124/126/63 104/122/63 122/223/63
f 84/122/54 126/126/54 128/224/54
f 113/43/16 125/18/16 86/26/16
f 111/126/15 17/122/15 68/223/15
f 56/122/36 77/126/36 95/224/36
f 148/20/46 142/23/46 130/9/46
f 135/134/63 141/131/63 137/133/63
f 146/131/54 133/134/54 131/128/54
f 139/12/16 134/9/16 145/23/16
f 140/134/15 153/131/15 149/133/15
f 152/131/36 147/134/36 143/128/36
f 182/176/46 154/139/46 158/145/46
f 158/145/46 162/152/46 166/158/46
f 166/158/46 170/162/46 174/169/46
f 174/169/46 178/173/46 182/176/46
f 182/176/46 158/145/46 166/158/46
f 297/225/1 295/230/1 291/226/1
f 349/228/72 157/225/72 155/227/72
f 164/149/16 160/142/16 156/177/16
f 156/177/16 184/174/16 180/170/16
f 180/170/16 176/165/16 172/159/16
f 172/159/16 168/153/16 164/149/16
f 164/149/16 156/177/16 180/170/16
f 161/230/73 310/225/73 301/231/73
f 165/225/74 316/228/74 313/229/74
f 169/230/75 325/225/75 322/231/75
f 173/225/76 337/228/76 328/229/76
f 177/228/77 343/225/77 340/227/77
f 181/225/78 185/230/78 183/226/78
f 190/234/46 194/258/46 198/259/46
f 198/259/46 202/260/46 206/232/46
f 206/232/46 210/261/46 214/233/46
f 214/233/46 186/262/46 190/234/46
f 190/234/46 198/259/46 206/232/46
f 306/235/142 304/237/142 333/163/142
f 380/236/79 189/235/79 187/137/79
f 212/187/16 208/184/16 204/180/16
f 204/180/16 200/179/16 196/155/16
f 196/155/16 192/148/16 188/147/16
f 188/147/16 216/192/16 212/187/16
f 212/187/16 204/180/16 196/155/16
f 193/237/6 319/235/6 7/137/6
f 197/235/5 352/236/5 5/135/5
f 201/237/80 358/235/80 355/137/80
f 205/235/81 366/236/81 361/135/81
f 209/236/82 374/235/82 369/137/82
f 213/235/83 217/237/83 215/163/83
f 224/238/84 218/263/84 248/210/84
f 248/210/84 242/77/84 236/71/84
f 236/71/84 230/195/84 224/238/84
f 226/61/91 222/190/88 289/221/136
f 220/186/86 288/241/135 247/63/106
f 287/115/92 221/56/87 227/239/92
f 227/239/92 233/264/92 239/240/92
f 239/240/92 245/216/92 287/115/92
f 232/67/96 228/63/93 223/241/89
f 238/242/100 234/244/97 229/64/94
f 240/75/101 235/70/98 237/243/99
f 250/66/108 246/64/105 241/244/102
f 275/106/109 281/212/109 251/245/109
f 251/245/109 257/265/109 263/208/109
f 263/208/109 269/100/109 275/106/109
f 258/89/115 253/84/111 255/196/113
f 256/246/114 252/266/110 283/95/132
f 260/91/112 254/85/112 284/210/112
f 284/210/112 278/267/112 272/247/112
f 272/247/112 266/195/112 260/91/112
f 264/95/119 259/268/116 261/246/117
f 274/205/126 270/269/123 265/96/120
f 276/214/127 271/203/124 273/104/125
f 282/113/131 277/269/128 279/205/129
