# Blender 5.2.0 LTS
# www.blender.org
o Backdrop_Butter_Detail
v 7.580000 0.580000 20.000000
v 53.523804 1.580000 -14.027087
v 53.523804 6.420000 -14.027087
v 41.655422 1.580000 -12.479760
v 40.837139 6.420000 -11.190103
v 40.837139 1.580000 -11.190103
v 8.920000 28.920000 -18.000000
v -46.000000 28.920000 -16.920000
v 26.000000 28.000000 0.000000
v 26.000000 24.723944 -13.365098
v 26.000000 22.000000 -15.000000
v 26.607323 27.926130 -2.266562
v 27.199692 27.706339 -4.477313
v 27.762522 27.346039 -6.577817
v 28.281950 26.854103 -8.516355
v 28.745190 26.242641 -10.245190
v 29.140835 25.526711 -11.721756
v 29.459143 24.723944 -12.909693
v 29.692272 23.854101 -13.779752
v 29.834488 22.938606 -14.310505
v 29.882286 22.000000 -14.488887
v 27.173258 27.926130 -2.032143
v 28.317627 27.706339 -4.014248
v 29.404928 27.346039 -5.897510
v 30.408390 26.854103 -7.635553
v 31.303301 26.242641 -9.185586
v 32.067627 25.526711 -10.509439
v 32.682549 24.723944 -11.574513
v 33.132923 23.854101 -12.354587
v 33.407661 22.938606 -12.830448
v 33.500000 22.000000 -12.990381
v 27.659239 27.926130 -1.659238
v 29.277620 27.706339 -3.277620
v 30.815296 27.346039 -4.815297
v 32.234406 26.854103 -6.234403
v 33.500000 26.242641 -7.500000
v 34.580921 25.526711 -8.580920
v 35.450550 24.723944 -9.450551
v 36.087479 23.854101 -10.087477
v 36.476017 22.938606 -10.476017
v 36.606602 22.000000 -10.606601
v 28.032143 27.926130 -1.173258
v 30.014248 27.706339 -2.317627
v 31.897511 27.346039 -3.404929
v 33.635551 26.854103 -4.408389
v 35.185585 26.242641 -5.303300
v 36.509438 25.526711 -6.067627
v 37.574512 24.723944 -6.682549
v 38.354584 23.854101 -7.132924
v 38.830448 22.938606 -7.407663
v 38.990379 22.000000 -7.499999
v 40.919998 20.920000 -15.000000
v 10.000000 1.080000 13.920000
v 10.000000 20.920000 13.920000
v 40.919998 1.080000 -15.000000
v 10.000000 20.920000 -13.920000
v 28.266562 27.926130 -0.607323
v 30.477312 27.706339 -1.199692
v 32.577816 27.346039 -1.762521
v 34.516354 26.854103 -2.281950
v 36.245190 26.242641 -2.745190
v 37.721756 25.526711 -3.140835
v 38.909691 24.723944 -3.459141
v 39.779751 23.854101 -3.692273
v 40.310505 22.938606 -3.834489
v 40.488884 22.000000 -3.882285
v 10.000000 1.080000 -13.920000
v 10.420000 0.580000 -20.000000
v 42.000000 1.080000 13.920000
v 40.919998 1.080000 15.000000
v 40.919998 20.920000 15.000000
v 11.080000 20.920000 15.000000
v 11.080000 1.080000 15.000000
v 11.080000 1.080000 -15.000000
v 11.080000 20.920000 -15.000000
v 28.346516 27.926130 0.000000
v 30.635254 27.706339 0.000000
v 32.809856 27.346039 0.000000
v 34.816776 26.854103 0.000000
v 36.606598 26.242641 -0.000000
v 38.135254 25.526711 0.000000
v 39.365097 24.723944 0.000000
v 40.265846 23.854101 -0.000000
v 40.815323 22.938606 -0.000001
v 40.999996 22.000000 0.000000
v 11.080000 0.000000 -13.920000
v 11.080000 22.000000 -13.920000
v 42.000000 1.080000 -13.920000
v 40.919998 0.000000 -13.920000
v 40.919998 22.000000 -13.920000
v 42.000000 20.920000 -13.920000
v 42.000000 20.920000 13.920000
v -46.000000 28.920000 16.920000
v 8.920000 1.080000 -18.000000
v 28.266562 27.926130 0.607323
v 30.477312 27.706339 1.199692
v 32.577816 27.346039 1.762521
v 34.516354 26.854103 2.281950
v 36.245186 26.242641 2.745190
v 37.721756 25.526711 3.140835
v 38.909691 24.723944 3.459141
v 39.779751 23.854101 3.692272
v 40.310505 22.938606 3.834488
v 40.488884 22.000000 3.882285
v 40.919998 0.000000 13.920000
v 11.080000 0.000000 13.920000
v 11.080000 22.000000 13.920000
v 40.919998 22.000000 13.920000
v 11.500000 33.419998 -18.920000
v 11.500000 33.419998 18.920000
v 11.500000 0.580000 18.920000
v 11.500000 0.580000 -18.920000
v 10.420000 33.419998 -20.000000
v 28.032143 27.926130 1.173258
v 30.014248 27.706339 2.317627
v 31.897509 27.346039 3.404929
v 33.635551 26.854103 4.408389
v 35.185585 26.242641 5.303299
v 36.509438 25.526711 6.067626
v 37.574512 24.723944 6.682548
v 38.354584 23.854101 7.132923
v 38.830448 22.938606 7.407661
v 38.990379 22.000000 7.499999
v 6.500000 33.419998 -18.920000
v 6.500000 33.419998 18.920000
v 52.234146 1.580000 -14.845368
v 7.580000 34.500000 18.920000
v 10.420000 34.500000 18.920000
v 8.920000 30.000000 16.920000
v 10.000000 28.920000 -16.920000
v -44.919998 30.000000 16.920000
v -44.919998 28.920000 18.000000
v 27.659237 27.926130 1.659238
v 29.277620 27.706339 3.277620
v 30.815296 27.346039 4.815297
v 32.234402 26.854103 6.234402
v 33.499996 26.242641 7.499998
v 34.580917 25.526711 8.580919
v 35.450550 24.723944 9.450549
v 36.087479 23.854101 10.087476
v 36.476017 22.938606 10.476015
v 36.606598 22.000000 10.606600
v -44.919998 1.080000 18.000000
v 58.344578 6.420000 12.479760
v 7.580000 -0.500000 18.920000
v 7.580000 -0.500000 -18.920000
v 6.500000 0.580000 -18.920000
v 6.500000 0.580000 18.920000
v 58.344578 1.580000 12.479760
v 59.162861 6.420000 11.190103
v 10.000000 28.920000 16.920000
v 27.173258 27.926130 2.032143
v 28.317627 27.706339 4.014248
v 29.404928 27.346039 5.897509
v 30.408386 26.854103 7.635551
v 31.303299 26.242641 9.185583
v 32.067627 25.526711 10.509437
v 32.682549 24.723944 11.574512
v 33.132923 23.854101 12.354585
v 33.407661 22.938606 12.830446
v 33.499996 22.000000 12.990378
v 47.530167 7.500000 13.791399
v 59.162861 1.580000 11.190103
v 46.476196 6.420000 14.027087
v -46.000000 1.080000 16.920000
v 46.476196 1.580000 14.027087
v 10.420000 0.580000 20.000000
v 10.420000 33.419998 20.000000
v 10.420000 -0.500000 -18.920000
v 10.420000 -0.500000 18.920000
v 26.607323 27.926130 2.266561
v 27.199692 27.706339 4.477312
v 27.762520 27.346039 6.577817
v 28.281948 26.854103 8.516351
v 28.745190 26.242641 10.245187
v 29.140833 25.526711 11.721753
v 29.459141 24.723944 12.909690
v 29.692274 23.854101 13.779749
v 29.834488 22.938606 14.310503
v 29.882284 22.000000 14.488884
v 10.420000 34.500000 -18.920000
v 7.580000 34.500000 -18.920000
v 7.580000 0.580000 -20.000000
v 7.580000 33.419998 -20.000000
v 7.580000 33.419998 20.000000
v 46.476196 1.580000 14.027087
v 47.765854 1.580000 14.845368
v 47.530167 0.500000 13.791399
v 46.476196 6.420000 14.027087
v 26.000000 27.926130 2.346516
v 26.000000 27.706339 4.635254
v 26.000000 27.346039 6.809857
v 26.000000 26.854103 8.816775
v 26.000000 26.242641 10.606597
v 26.000000 25.526711 12.135251
v 26.000000 24.723944 13.365094
v 26.000000 23.854101 14.265845
v 26.000000 22.938606 14.815324
v 26.000000 22.000000 14.999995
v 47.530167 7.500000 13.791399
v 47.765854 6.420000 14.845368
v 41.655422 1.580000 -12.479760
v 40.837139 1.580000 -11.190103
v 41.891109 0.500000 -11.425791
v 40.837139 6.420000 -11.190103
v 41.655422 6.420000 -12.479760
v 41.891109 7.500000 -11.425791
v 58.344578 1.580000 12.479760
v 25.392677 27.926130 2.266561
v 24.800308 27.706339 4.477312
v 24.237478 27.346039 6.577817
v 23.718050 26.854103 8.516351
v 23.254810 26.242641 10.245186
v 22.859165 25.526711 11.721752
v 22.540859 24.723944 12.909689
v 22.307728 23.854101 13.779749
v 22.165512 22.938606 14.310503
v 22.117714 22.000000 14.488883
v 59.162861 1.580000 11.190103
v 58.108891 0.500000 11.425791
v 59.162861 6.420000 11.190103
v 58.344578 6.420000 12.479760
v 58.108891 7.500000 11.425791
v 53.523804 1.580000 -14.027087
v 52.234146 1.580000 -14.845368
v 52.469833 0.500000 -13.791399
v 52.234146 6.420000 -14.845368
v 24.826742 27.926130 2.032143
v 23.682373 27.706339 4.014248
v 22.595072 27.346039 5.897509
v 21.591612 26.854103 7.635551
v 20.696703 26.242641 9.185581
v 19.932375 25.526711 10.509435
v 19.317451 24.723944 11.574511
v 18.867079 23.854101 12.354585
v 18.592339 22.938606 12.830447
v 18.500002 22.000000 12.990376
v 53.523804 6.420000 -14.027087
v 52.469833 7.500000 -13.791399
v -46.000000 1.080000 16.920000
v -44.919998 1.080000 18.000000
v -44.919998 0.000000 16.920000
v -46.000000 28.920000 16.920000
v -44.919998 30.000000 16.920000
v -44.919998 28.920000 18.000000
v -44.919998 1.080000 -18.000000
v 24.340763 27.926130 1.659237
v 22.722380 27.706339 3.277619
v 21.184704 27.346039 4.815296
v 19.765598 26.854103 6.234402
v 18.500004 26.242641 7.499996
v 17.419083 25.526711 8.580916
v 16.549450 24.723944 9.450548
v 15.912525 23.854101 10.087476
v 15.523985 22.938606 10.476016
v 15.393401 22.000000 10.606597
v -46.000000 1.080000 -16.920000
v -44.919998 0.000000 -16.920000
v -46.000000 28.920000 -16.920000
v -44.919998 28.920000 -18.000000
v -44.919998 30.000000 -16.920000
v 8.920000 1.080000 18.000000
v 10.000000 1.080000 16.920000
v 8.920000 0.000000 16.920000
v 10.000000 28.920000 16.920000
v 23.967857 27.926130 1.173258
v 21.985752 27.706339 2.317626
v 20.102491 27.346039 3.404928
v 18.364449 26.854103 4.408388
v 16.814419 26.242641 5.303298
v 15.490565 25.526711 6.067625
v 14.425489 24.723944 6.682546
v 13.645416 23.854101 7.132923
v 13.169555 22.938606 7.407662
v 13.009624 22.000000 7.499996
v 8.920000 28.920000 18.000000
v 8.920000 30.000000 16.920000
v 10.000000 1.080000 -16.920000
v 8.920000 1.080000 -18.000000
v 8.920000 0.000000 -16.920000
v 8.920000 28.920000 -18.000000
v 10.000000 28.920000 -16.920000
v 8.920000 30.000000 -16.920000
v 6.500000 0.580000 18.920000
v 23.733440 27.926130 0.607323
v 21.522690 27.706339 1.199692
v 19.422184 27.346039 1.762520
v 17.483650 26.854103 2.281950
v 15.754816 26.242641 2.745189
v 14.278250 25.526711 3.140833
v 13.090311 24.723944 3.459140
v 12.220253 23.854101 3.692273
v 11.689498 22.938606 3.834489
v 11.511119 22.000000 3.882282
v 7.580000 0.580000 20.000000
v 7.580000 -0.500000 18.920000
v 6.500000 33.419998 18.920000
v 7.580000 34.500000 18.920000
v 7.580000 33.419998 20.000000
v 7.580000 0.580000 -20.000000
v 6.500000 0.580000 -18.920000
v 7.580000 -0.500000 -18.920000
v 6.500000 33.419998 -18.920000
v 23.653484 27.926130 -0.000000
v 21.364746 27.706339 -0.000000
v 19.190144 27.346039 -0.000000
v 17.183226 26.854103 0.000000
v 15.393406 26.242641 0.000000
v 13.864751 25.526711 -0.000000
v 12.634907 24.723944 -0.000000
v 11.734157 23.854101 0.000001
v 11.184677 22.938606 0.000001
v 11.000008 22.000000 -0.000002
v 7.580000 33.419998 -20.000000
v 7.580000 34.500000 -18.920000
v 10.420000 0.580000 20.000000
v 11.500000 0.580000 18.920000
v 10.420000 -0.500000 18.920000
v 11.500000 33.419998 18.920000
v 10.420000 33.419998 20.000000
v 10.420000 34.500000 18.920000
v 11.500000 0.580000 -18.920000
v 23.733440 27.926130 -0.607323
v 21.522690 27.706339 -1.199692
v 19.422184 27.346039 -1.762521
v 17.483650 26.854103 -2.281949
v 15.754816 26.242641 -2.745188
v 14.278251 25.526711 -3.140834
v 13.090312 24.723944 -3.459141
v 12.220253 23.854101 -3.692271
v 11.689498 22.938606 -3.834487
v 11.511122 22.000000 -3.882285
v 10.420000 0.580000 -20.000000
v 10.420000 -0.500000 -18.920000
v 10.420000 33.419998 -20.000000
v 11.500000 33.419998 -18.920000
v 10.420000 34.500000 -18.920000
v 40.919998 20.920000 -15.000000
v 42.000000 20.920000 -13.920000
v 40.919998 22.000000 -13.920000
v 42.000000 1.080000 -13.920000
v 23.967857 27.926130 -1.173258
v 21.985752 27.706339 -2.317627
v 20.102491 27.346039 -3.404928
v 18.364449 26.854103 -4.408387
v 16.814421 26.242641 -5.303297
v 15.490568 25.526711 -6.067625
v 14.425490 24.723944 -6.682547
v 13.645417 23.854101 -7.132921
v 13.169554 22.938606 -7.407660
v 13.009627 22.000000 -7.499997
v 40.919998 1.080000 -15.000000
v 40.919998 0.000000 -13.920000
v 42.000000 20.920000 13.920000
v 40.919998 20.920000 15.000000
v 40.919998 22.000000 13.920000
v 40.919998 1.080000 15.000000
v 42.000000 1.080000 13.920000
v 40.919998 0.000000 13.920000
v 10.000000 20.920000 -13.920000
v 24.340763 27.926130 -1.659238
v 22.722382 27.706339 -3.277619
v 21.184704 27.346039 -4.815296
v 19.765598 26.854103 -6.234401
v 18.500006 26.242641 -7.499995
v 17.419085 25.526711 -8.580915
v 16.549454 24.723944 -9.450548
v 15.912526 23.854101 -10.087473
v 15.523985 22.938606 -10.476015
v 15.393406 22.000000 -10.606597
v 11.080000 20.920000 -15.000000
v 11.080000 22.000000 -13.920000
v 11.080000 1.080000 -15.000000
v 10.000000 1.080000 -13.920000
v 11.080000 0.000000 -13.920000
v 10.000000 20.920000 13.920000
v 11.080000 22.000000 13.920000
v 11.080000 20.920000 15.000000
v 10.000000 1.080000 13.920000
v 24.826742 27.926130 -2.032142
v 23.682375 27.706339 -4.014247
v 22.595072 27.346039 -5.897509
v 21.591612 26.854103 -7.635550
v 20.696705 26.242641 -9.185579
v 19.932377 25.526711 -10.509433
v 19.317455 24.723944 -11.574510
v 18.867079 23.854101 -12.354582
v 18.592339 22.938606 -12.830445
v 18.500006 22.000000 -12.990375
v 11.080000 1.080000 15.000000
v 11.080000 0.000000 13.920000
v -46.000000 1.080000 -16.920000
v 41.655422 6.420000 -12.479760
v 52.234146 6.420000 -14.845368
v 8.920000 30.000000 -16.920000
v -44.919998 30.000000 -16.920000
v 47.765854 6.420000 14.845368
v 47.765854 1.580000 14.845368
v 25.392677 27.926130 -2.266560
v 24.800308 27.706339 -4.477311
v 24.237480 27.346039 -6.577816
v 23.718050 26.854103 -8.516350
v 23.254812 26.242641 -10.245182
v 22.859167 25.526711 -11.721748
v 22.540859 24.723944 -12.909687
v 22.307728 23.854101 -13.779745
v 22.165512 22.938606 -14.310502
v 22.117718 22.000000 -14.488880
v 41.891109 0.500000 -11.425791
v -44.919998 0.000000 16.920000
v -44.919998 0.000000 -16.920000
v 47.530167 0.500000 13.791399
v 58.108891 7.500000 11.425791
v 8.920000 1.080000 18.000000
v 8.920000 28.920000 18.000000
v 52.469833 0.500000 -13.791399
v 58.108891 0.500000 11.425791
v 26.000000 27.926130 -2.346515
v 26.000000 27.706339 -4.635252
v 26.000000 27.346039 -6.809855
v 26.000000 26.854103 -8.816774
v 26.000000 26.242641 -10.606592
v 26.000000 25.526711 -12.135248
v 26.000000 23.854101 -14.265841
v 26.000000 22.938606 -14.815323
v 8.920000 0.000000 -16.920000
v 8.920000 0.000000 16.920000
v 10.000000 1.080000 16.920000
v 10.000000 1.080000 -16.920000
v -44.919998 1.080000 -18.000000
v -44.919998 28.920000 -18.000000
v 52.469833 7.500000 -13.791399
v 41.891109 7.500000 -11.425791
vn -0.4606 -0.4606 0.7588
vn 0.6400 -0.4606 -0.6150
vn 0.6400 0.4606 -0.6150
vn -0.6150 -0.4606 -0.6400
vn -0.8410 0.4606 -0.2839
vn -0.8410 -0.4606 -0.2839
vn 0.4606 0.4606 -0.7588
vn -0.7588 0.4606 -0.4606
vn -0.0000 1.0000 -0.0000
vn -0.0000 0.7780 -0.6282
vn -0.0000 0.1931 -0.9812
vn 0.0171 0.9978 -0.0640
vn 0.0343 0.9912 -0.1279
vn 0.0528 0.9790 -0.1970
vn 0.0736 0.9587 -0.2747
vn 0.0979 0.9257 -0.3653
vn 0.1271 0.8712 -0.4743
vn 0.1626 0.7781 -0.6068
vn 0.2037 0.6171 -0.7601
vn 0.2420 0.3545 -0.9032
vn 0.2539 0.1931 -0.9478
vn 0.0331 0.9978 -0.0574
vn 0.0662 0.9912 -0.1147
vn 0.1020 0.9790 -0.1766
vn 0.1422 0.9587 -0.2463
vn 0.1891 0.9257 -0.3275
vn 0.2455 0.8712 -0.4252
vn 0.3141 0.7781 -0.5440
vn 0.3935 0.6171 -0.6815
vn 0.4675 0.3545 -0.8098
vn 0.4906 0.1931 -0.8497
vn 0.0468 0.9978 -0.0468
vn 0.0936 0.9912 -0.0936
vn 0.1442 0.9790 -0.1442
vn 0.2011 0.9587 -0.2011
vn 0.2674 0.9257 -0.2674
vn 0.3472 0.8712 -0.3472
vn 0.4442 0.7781 -0.4442
vn 0.5564 0.6171 -0.5564
vn 0.6612 0.3545 -0.6612
vn 0.6938 0.1931 -0.6938
vn 0.0574 0.9978 -0.0331
vn 0.1147 0.9912 -0.0662
vn 0.1766 0.9790 -0.1020
vn 0.2463 0.9587 -0.1422
vn 0.3275 0.9257 -0.1891
vn 0.4252 0.8712 -0.2455
vn 0.5440 0.7781 -0.3141
vn 0.6815 0.6171 -0.3935
vn 0.8098 0.3545 -0.4675
vn 0.8497 0.1931 -0.4906
vn -0.7588 -0.4606 0.4606
vn -0.7588 0.4606 0.4606
vn 0.4606 -0.4606 -0.7588
vn 0.0640 0.9978 -0.0171
vn 0.1279 0.9912 -0.0343
vn 0.1970 0.9790 -0.0528
vn 0.2747 0.9587 -0.0736
vn 0.3653 0.9257 -0.0979
vn 0.4743 0.8712 -0.1271
vn 0.6068 0.7781 -0.1626
vn 0.7601 0.6171 -0.2037
vn 0.9032 0.3545 -0.2420
vn 0.9478 0.1931 -0.2540
vn -0.7588 -0.4606 -0.4606
vn 0.7588 -0.4606 0.4606
vn 0.4606 -0.4606 0.7588
vn 0.4606 0.4606 0.7588
vn -0.4606 0.4606 0.7588
vn -0.4606 -0.4606 -0.7588
vn -0.4606 0.4606 -0.7588
vn 0.0662 0.9978 -0.0000
vn 0.1324 0.9912 -0.0000
vn 0.2040 0.9790 -0.0000
vn 0.2844 0.9587 -0.0000
vn 0.3781 0.9257 -0.0000
vn 0.4910 0.8712 -0.0000
vn 0.6282 0.7781 -0.0000
vn 0.7869 0.6171 -0.0000
vn 0.9351 0.3545 -0.0000
vn 0.9812 0.1931 -0.0000
vn -0.4606 -0.7588 -0.4606
vn -0.4606 0.7588 -0.4606
vn 0.7588 -0.4606 -0.4606
vn 0.4606 -0.7588 -0.4606
vn 0.4606 0.7588 -0.4606
vn 0.7588 0.4606 -0.4606
vn 0.7588 0.4606 0.4606
vn 0.0640 0.9978 0.0171
vn 0.1279 0.9912 0.0343
vn 0.1970 0.9790 0.0528
vn 0.2747 0.9587 0.0736
vn 0.3653 0.9257 0.0979
vn 0.4743 0.8712 0.1271
vn 0.6068 0.7781 0.1626
vn 0.7601 0.6171 0.2037
vn 0.9032 0.3545 0.2420
vn 0.9478 0.1930 0.2539
vn 0.4606 -0.7588 0.4606
vn -0.4606 -0.7588 0.4606
vn -0.4606 0.7588 0.4606
vn 0.4606 0.7588 0.4606
vn 0.0574 0.9978 0.0331
vn 0.1147 0.9912 0.0662
vn 0.1766 0.9790 0.1020
vn 0.2463 0.9587 0.1422
vn 0.3275 0.9257 0.1891
vn 0.4252 0.8712 0.2455
vn 0.5440 0.7781 0.3141
vn 0.6815 0.6171 0.3935
vn 0.8098 0.3545 0.4675
vn 0.8497 0.1931 0.4906
vn 0.2839 -0.4606 -0.8410
vn 0.0468 0.9978 0.0468
vn 0.0936 0.9912 0.0936
vn 0.1442 0.9790 0.1442
vn 0.2011 0.9587 0.2011
vn 0.2674 0.9257 0.2674
vn 0.3472 0.8712 0.3472
vn 0.4442 0.7781 0.4442
vn 0.5564 0.6171 0.5564
vn 0.6612 0.3545 0.6612
vn 0.6938 0.1930 0.6938
vn 0.6151 0.4606 0.6400
vn 0.6150 -0.4606 0.6400
vn 0.8410 0.4606 0.2839
vn 0.0331 0.9978 0.0574
vn 0.0662 0.9912 0.1147
vn 0.1020 0.9790 0.1766
vn 0.1422 0.9587 0.2463
vn 0.1891 0.9257 0.3275
vn 0.2455 0.8712 0.4252
vn 0.3141 0.7781 0.5440
vn 0.3934 0.6171 0.6815
vn 0.4675 0.3545 0.8098
vn 0.4906 0.1931 0.8497
vn -0.3490 0.7588 0.5500
vn 0.8410 -0.4606 0.2839
vn -0.6400 0.4606 0.6150
vn -0.6400 -0.4606 0.6150
vn 0.0171 0.9978 0.0640
vn 0.0343 0.9912 0.1279
vn 0.0528 0.9790 0.1970
vn 0.0736 0.9587 0.2747
vn 0.0979 0.9257 0.3653
vn 0.1271 0.8712 0.4743
vn 0.1626 0.7781 0.6068
vn 0.2037 0.6171 0.7601
vn 0.2420 0.3545 0.9032
vn 0.2539 0.1931 0.9478
vn -0.9759 -0.0000 0.2182
vn 0.2182 -0.0000 0.9759
vn -0.0000 -1.0000 -0.0000
vn -0.0000 0.9978 0.0662
vn -0.0000 0.9912 0.1324
vn -0.0000 0.9790 0.2040
vn -0.0000 0.9587 0.2844
vn -0.0000 0.9257 0.3781
vn -0.0000 0.8712 0.4910
vn -0.0000 0.7781 0.6282
vn -0.0000 0.6171 0.7869
vn -0.0000 0.3545 0.9351
vn -0.0000 0.1930 0.9812
vn -0.2182 -0.0000 -0.9759
vn -0.0171 0.9978 0.0640
vn -0.0343 0.9912 0.1279
vn -0.0528 0.9790 0.1970
vn -0.0736 0.9587 0.2747
vn -0.0979 0.9257 0.3653
vn -0.1271 0.8712 0.4743
vn -0.1626 0.7781 0.6068
vn -0.2037 0.6171 0.7601
vn -0.2420 0.3545 0.9032
vn -0.2540 0.1930 0.9478
vn 0.9759 -0.0000 -0.2182
vn -0.0331 0.9978 0.0574
vn -0.0662 0.9912 0.1147
vn -0.1020 0.9790 0.1766
vn -0.1422 0.9587 0.2463
vn -0.1891 0.9257 0.3275
vn -0.2455 0.8712 0.4252
vn -0.3141 0.7781 0.5440
vn -0.3935 0.6171 0.6815
vn -0.4675 0.3545 0.8098
vn -0.4906 0.1930 0.8497
vn -1.0000 -0.0000 -0.0000
vn -0.0000 -0.0000 1.0000
vn -0.0000 -0.0000 -1.0000
vn -0.0468 0.9978 0.0468
vn -0.0936 0.9912 0.0936
vn -0.1442 0.9790 0.1442
vn -0.2011 0.9587 0.2011
vn -0.2674 0.9257 0.2674
vn -0.3472 0.8712 0.3472
vn -0.4442 0.7781 0.4442
vn -0.5564 0.6171 0.5564
vn -0.6612 0.3545 0.6612
vn -0.6938 0.1930 0.6938
vn 1.0000 -0.0000 -0.0000
vn -0.0574 0.9978 0.0331
vn -0.1147 0.9912 0.0662
vn -0.1766 0.9790 0.1020
vn -0.2463 0.9587 0.1422
vn -0.3275 0.9257 0.1891
vn -0.4252 0.8712 0.2455
vn -0.5440 0.7781 0.3141
vn -0.6815 0.6171 0.3934
vn -0.8098 0.3545 0.4675
vn -0.8497 0.1930 0.4906
vn -0.0640 0.9978 0.0171
vn -0.1279 0.9912 0.0343
vn -0.1970 0.9790 0.0528
vn -0.2747 0.9587 0.0736
vn -0.3653 0.9257 0.0979
vn -0.4743 0.8712 0.1271
vn -0.6068 0.7781 0.1626
vn -0.7601 0.6171 0.2037
vn -0.9032 0.3545 0.2420
vn -0.9478 0.1930 0.2540
vn -0.0662 0.9978 -0.0000
vn -0.1324 0.9912 -0.0000
vn -0.2040 0.9790 -0.0000
vn -0.2844 0.9587 -0.0000
vn -0.3781 0.9257 -0.0000
vn -0.4910 0.8712 -0.0000
vn -0.6282 0.7781 -0.0000
vn -0.7869 0.6171 -0.0000
vn -0.9351 0.3545 -0.0000
vn -0.9812 0.1930 -0.0000
vn -0.0640 0.9978 -0.0171
vn -0.1279 0.9912 -0.0343
vn -0.1970 0.9790 -0.0528
vn -0.2747 0.9587 -0.0736
vn -0.3653 0.9257 -0.0979
vn -0.4743 0.8712 -0.1271
vn -0.6068 0.7781 -0.1626
vn -0.7601 0.6171 -0.2037
vn -0.9032 0.3545 -0.2420
vn -0.9478 0.1930 -0.2539
vn -0.0574 0.9978 -0.0331
vn -0.1147 0.9912 -0.0662
vn -0.1766 0.9790 -0.1020
vn -0.2463 0.9587 -0.1422
vn -0.3275 0.9257 -0.1891
vn -0.4252 0.8712 -0.2455
vn -0.5440 0.7781 -0.3141
vn -0.6815 0.6171 -0.3935
vn -0.8098 0.3545 -0.4675
vn -0.8497 0.1930 -0.4906
vn -0.0468 0.9978 -0.0468
vn -0.0936 0.9912 -0.0936
vn -0.1442 0.9790 -0.1442
vn -0.2011 0.9587 -0.2011
vn -0.2674 0.9257 -0.2674
vn -0.3472 0.8712 -0.3472
vn -0.4442 0.7781 -0.4442
vn -0.5564 0.6171 -0.5564
vn -0.6612 0.3545 -0.6612
vn -0.6938 0.1930 -0.6938
vn -0.0331 0.9978 -0.0574
vn -0.0662 0.9912 -0.1147
vn -0.1020 0.9790 -0.1766
vn -0.1422 0.9587 -0.2463
vn -0.1891 0.9257 -0.3275
vn -0.2455 0.8712 -0.4252
vn -0.3141 0.7781 -0.5440
vn -0.3934 0.6171 -0.6815
vn -0.4675 0.3545 -0.8098
vn -0.4906 0.1930 -0.8497
vn -0.6151 0.4606 -0.6400
vn 0.2839 0.4606 -0.8410
vn -0.2839 0.4606 0.8410
vn -0.2839 -0.4606 0.8410
vn -0.0171 0.9978 -0.0640
vn -0.0343 0.9912 -0.1279
vn -0.0528 0.9790 -0.1970
vn -0.0736 0.9587 -0.2747
vn -0.0979 0.9257 -0.3653
vn -0.1271 0.8712 -0.4743
vn -0.1626 0.7781 -0.6068
vn -0.2037 0.6171 -0.7601
vn -0.2420 0.3545 -0.9032
vn -0.2540 0.1931 -0.9478
vn -0.5500 -0.7588 -0.3490
vn -0.3490 -0.7588 0.5500
vn 0.5500 0.7588 0.3489
vn 0.3490 -0.7588 -0.5500
vn 0.5500 -0.7588 0.3490
vn -0.0000 0.9978 -0.0662
vn -0.0000 0.9912 -0.1324
vn -0.0000 0.9790 -0.2040
vn -0.0000 0.9587 -0.2844
vn -0.0000 0.9257 -0.3781
vn -0.0000 0.8712 -0.4910
vn -0.0000 0.6171 -0.7869
vn -0.0000 0.3545 -0.9351
vn 0.3490 0.7588 -0.5500
vn -0.5500 0.7588 -0.3489
vt 1.300000 0.606762
vt 1.437259 0.512259
vt 1.457042 0.586088
vt 1.300000 0.668255
vt 1.472957 0.645485
vt 1.300000 0.713292
vt 1.484614 0.688988
vt 1.300000 0.117326
vt 1.300000 0.000000
vt 1.330366 0.113328
vt 1.300000 1.192705
vt 1.491724 1.146930
vt 1.300000 1.146930
vt 1.300000 0.231763
vt 1.359985 0.223866
vt 1.300000 1.100000
vt 1.494114 1.100000
vt 1.300000 0.340493
vt 1.388126 0.328891
vt 1.300000 0.440839
vt 1.414098 0.425818
vt 1.300000 0.530330
vt 1.656646 0.617729
vt 1.358663 0.101607
vt 1.656646 1.192705
vt 1.670383 1.146930
vt 1.415881 0.200712
vt 1.675000 1.100000
vt 1.470246 0.294875
vt 1.520419 0.381778
vt 1.565165 0.459279
vt 1.603381 0.525472
vt 1.634127 0.578726
vt 1.540765 0.240765
vt 1.611720 0.311720
vt 1.675000 0.375000
vt 1.729046 0.429046
vt 1.772527 0.472528
vt 1.804374 0.504374
vt 1.382962 0.082962
vt 1.823801 1.146930
vt 1.463881 0.163881
vt 1.830330 1.100000
vt 1.878726 0.334127
vt 1.917729 0.356646
vt 1.401607 0.058663
vt 0.504374 1.192705
vt 0.370383 1.146930
vt 0.523801 1.146930
vt 1.500712 0.115881
vt 0.530330 1.100000
vt 0.375000 1.100000
vt 1.594876 0.170246
vt 1.681778 0.220419
vt 1.759279 0.265165
vt 1.825472 0.303381
vt 1.725818 0.114097
vt 1.812259 0.137260
vt 1.886088 0.157042
vt 1.945485 0.172957
vt 1.988988 0.184614
vt 1.413328 0.030366
vt 0.184614 1.192705
vt 0.191724 1.146930
vt 1.523866 0.059985
vt 0.194114 1.100000
vt 1.628891 0.088126
vt 1.968255 0.000000
vt 2.013292 0.000000
vt 1.417326 -0.000000
vt 0.000000 1.146930
vt 1.531763 0.000000
vt -0.000000 1.100000
vt 1.640493 0.000000
vt 1.740839 -0.000000
vt 1.830330 0.000000
vt 1.906763 -0.000000
vt -0.191724 1.146930
vt -0.194114 1.100000
vt 1.523866 -0.059985
vt 1.628891 -0.088126
vt 1.725818 -0.114097
vt 1.812259 -0.137259
vt 1.886088 -0.157042
vt 1.945485 -0.172957
vt 1.988988 -0.184614
vt 1.413328 -0.030366
vt -0.184614 1.192705
vt 1.825472 -0.303381
vt 1.878726 -0.334127
vt 1.917729 -0.356646
vt 1.401607 -0.058663
vt -0.370383 1.146930
vt 1.500712 -0.115881
vt -0.375000 1.100000
vt 1.594875 -0.170246
vt 1.681778 -0.220419
vt 1.759279 -0.265165
vt 1.382962 -0.082962
vt 1.463881 -0.163881
vt -0.523801 1.146930
vt -0.530330 1.100000
vt 1.540765 -0.240765
vt 1.611720 -0.311720
vt 1.675000 -0.375000
vt 1.729046 -0.429046
vt 1.772527 -0.472527
vt 1.804374 -0.504374
vt -0.356646 1.192705
vt 1.603381 -0.525472
vt 1.634127 -0.578726
vt 1.656646 -0.617729
vt 1.358663 -0.101607
vt 1.415881 -0.200712
vt 1.830330 1.100000
vt 1.675000 1.100000
vt 1.470246 -0.294875
vt 1.520419 -0.381778
vt 1.565165 -0.459279
vt 1.359985 -0.223866
vt 2.082771 0.321000
vt 2.611707 0.079000
vt 2.082771 0.079000
vt 1.494114 1.100000
vt 1.388126 -0.328891
vt 2.623492 0.689570
vt 2.376508 -0.689570
vt 2.905445 -0.571290
vt 1.414097 -0.425818
vt -0.846000 1.446000
vt 0.846000 0.054000
vt -0.846000 0.054000
vt 1.437259 -0.512259
vt -0.701354 0.321000
vt 0.559505 0.079000
vt -0.701354 0.079000
vt 1.457042 -0.586088
vt 2.917229 0.321000
vt 2.388293 0.079000
vt 2.917229 0.079000
vt 1.472957 -0.645485
vt 2.094555 0.571290
vt 1.484614 -0.688987
vt 1.330366 -0.113328
vt 0.701354 0.321000
vt -0.559505 0.079000
vt 0.701354 0.079000
vt 1.300000 -0.530330
vt 0.846000 1.446000
vt 1.300000 -0.606763
vt -2.246000 1.446000
vt 0.446000 0.054000
vt -2.246000 0.054000
vt 1.300000 -0.668255
vt -2.246000 0.846000
vt 0.446000 -0.846000
vt 0.446000 0.846000
vt 1.300000 -0.713292
vt 1.300000 -0.117326
vt -0.946000 1.671000
vt 0.946000 0.029000
vt -0.946000 0.029000
vt 1.300000 -0.231763
vt 0.521000 1.671000
vt 0.379000 0.029000
vt 0.521000 0.029000
vt 1.300000 -0.340493
vt 0.521000 0.946000
vt 0.379000 -0.946000
vt 0.379000 0.946000
vt 0.446000 1.446000
vt 1.300000 -0.440839
vt 0.946000 1.671000
vt -0.946000 0.029000
vt 0.946000 0.029000
vt -2.246000 -0.846000
vt 1.269634 -0.113328
vt 2.046000 1.046000
vt 0.554000 0.054000
vt 2.046000 0.054000
vt 1.108276 1.146930
vt 1.240015 -0.223866
vt -0.696000 1.046000
vt 0.696000 0.054000
vt -0.696000 0.054000
vt 1.105886 1.100000
vt 1.211874 -0.328891
vt 2.046000 0.696000
vt 0.554000 -0.696000
vt 0.554000 0.696000
vt 0.379000 1.671000
vt 0.521000 0.029000
vt 0.379000 0.029000
vt 1.185902 -0.425818
vt 2.082771 0.623988
vt 0.521000 -0.946000
vt 1.162740 -0.512259
vt 0.696000 1.046000
vt -0.696000 0.054000
vt 0.696000 0.054000
vt 1.142958 -0.586088
vt 0.554000 1.046000
vt 1.127043 -0.645484
vt 2.046000 -0.696000
vt 1.115386 -0.688987
vt 2.041857 0.559505
vt -2.246000 0.900000
vt 1.034835 -0.459279
vt 0.846000 0.000000
vt -0.846000 0.000000
vt 0.996619 -0.525472
vt 2.958143 -0.559505
vt 0.965873 -0.578726
vt -0.900000 0.054000
vt -0.900000 1.446000
vt 0.943354 -0.617729
vt 1.241337 -0.101607
vt 2.676190 0.701354
vt 0.943354 1.192705
vt 0.929617 1.146930
vt 1.184119 -0.200712
vt 2.388293 -0.742268
vt 0.925000 1.100000
vt 1.129754 -0.294875
vt -2.300000 0.846000
vt -2.300000 1.446000
vt 1.079581 -0.381778
vt 2.676190 0.079000
vt 2.611707 0.321000
vt 2.676190 0.321000
vt 0.795626 -0.504374
vt 1.217038 -0.082962
vt -1.000000 1.671000
vt -1.000000 0.029000
vt 0.795626 1.192705
vt 0.776199 1.146930
vt 1.136119 -0.163881
vt 1.000000 0.029000
vt 1.000000 1.671000
vt 0.769670 1.100000
vt 1.059235 -0.240765
vt 0.521000 1.725000
vt 0.379000 1.725000
vt 2.388293 0.321000
vt 2.323810 0.079000
vt 0.988280 -0.311720
vt 0.946000 -0.025000
vt -0.946000 -0.025000
vt 2.323810 -0.701354
vt 0.925000 -0.375000
vt 0.623988 0.079000
vt 0.559505 0.321000
vt 0.623988 0.321000
vt 0.870954 -0.429046
vt 2.611707 0.742268
vt 0.827473 -0.472527
vt -1.000000 0.029000
vt 0.918222 -0.220419
vt 0.900000 1.446000
vt 0.840721 -0.265165
vt 0.774528 -0.303381
vt -0.623988 0.079000
vt -0.559505 0.321000
vt -0.623988 0.321000
vt 0.721274 -0.334127
vt 2.917229 -0.623988
vt 0.682271 -0.356646
vt 1.198393 -0.058663
vt -2.300000 0.054000
vt -0.504374 1.192705
vt -0.370383 1.146930
vt -0.523801 1.146930
vt 1.099288 -0.115881
vt -2.300000 -0.846000
vt -0.530330 1.100000
vt -0.375000 1.100000
vt 1.005125 -0.170246
vt -2.246000 0.000000
vt 0.446000 0.000000
vt 0.654516 -0.172957
vt 0.379000 -0.025000
vt 0.521000 -0.025000
vt 0.611013 -0.184614
vt 1.186672 -0.030366
vt -0.191724 1.146930
vt 1.076134 -0.059985
vt -0.946000 1.725000
vt 0.946000 1.725000
vt -0.194114 1.100000
vt 0.971109 -0.088126
vt 0.500000 0.846000
vt 0.874183 -0.114097
vt 2.046000 -0.750000
vt 0.787741 -0.137259
vt 0.446000 -0.900000
vt 0.713912 -0.157042
vt 0.959507 0.000000
vt 0.750000 0.054000
vt 0.750000 1.046000
vt 2.046000 0.000000
vt 0.554000 0.000000
vt 0.859161 -0.000000
vt 0.500000 -0.696000
vt 2.100000 1.046000
vt 0.769670 -0.000000
vt 2.100000 0.696000
vt 0.693238 0.000000
vt 2.100000 -0.696000
vt 0.631745 0.000000
vt 2.100000 0.054000
vt 0.586708 -0.000000
vt 1.182674 0.000000
vt 0.554000 0.750000
vt -0.184614 1.192705
vt -0.000000 1.146930
vt 1.068237 0.000000
vt 0.000000 1.100000
vt 2.376508 0.375000
vt 2.323810 0.321000
vt 0.654516 0.172957
vt 0.571290 0.025000
vt 0.611013 0.184614
vt 1.186672 0.030366
vt 0.571290 0.375000
vt -0.000000 1.192705
vt 0.191724 1.146930
vt 1.076134 0.059985
vt -0.571290 0.025000
vt 0.194114 1.100000
vt 0.971109 0.088126
vt -0.571290 0.375000
vt -0.750000 1.046000
vt -0.750000 0.054000
vt 0.874183 0.114097
vt 2.623492 0.025000
vt -0.696000 0.000000
vt 0.696000 0.000000
vt 0.787741 0.137259
vt 2.376508 0.025000
vt 0.713913 0.157042
vt 0.370383 1.146930
vt 0.375000 1.100000
vt 1.099288 0.115881
vt 1.005125 0.170246
vt 0.900000 0.054000
vt 2.623492 0.375000
vt 0.918222 0.220419
vt 0.446000 0.900000
vt 0.840721 0.265165
vt -2.246000 -0.900000
vt 0.774528 0.303381
vt 0.721274 0.334127
vt 0.682271 0.356646
vt 1.198393 0.058663
vt 0.356646 1.192705
vt 0.500000 -0.846000
vt 0.925000 0.375000
vt 0.870954 0.429046
vt 0.827473 0.472527
vt 0.795626 0.504374
vt 1.217038 0.082962
vt 0.523801 1.146930
vt 1.136119 0.163881
vt 0.575000 0.029000
vt 0.530330 1.100000
vt 1.059235 0.240765
vt 0.325000 0.029000
vt 0.988280 0.311720
vt 2.046000 0.750000
vt 1.184119 0.200712
vt 0.769670 1.100000
vt 0.925000 1.100000
vt 1.129754 0.294875
vt 1.079581 0.381777
vt 1.034835 0.459279
vt 2.100000 0.054000
vt 0.996619 0.525472
vt 0.500000 0.696000
vt 0.965873 0.578725
vt 0.943354 0.617729
vt 1.241337 0.101607
vt 0.554000 -0.750000
vt 1.142958 0.586087
vt 1.127043 0.645484
vt 1.115386 0.688987
vt 1.269634 0.113328
vt 1.240015 0.223866
vt 1.105886 1.100000
vt 1.211874 0.328891
vt 1.185902 0.425817
vt 1.162741 0.512259
vt 1.484614 1.192705
vt 1.804374 1.192705
vt 0.356646 1.192705
vt 0.000000 1.192705
vt 1.115386 1.192705
vt 1.000000 0.029000
vt 0.184614 1.192705
vt 0.504374 1.192705
s 1
f 423/1/294 16/2/16 17/3/17
f 10/4/10 17/3/17 18/5/18
f 424/6/295 18/5/18 19/7/19
f 418/8/289 9/9/9 12/10/12
f 424/11/295 20/12/20 425/13/296
f 419/14/290 12/10/12 13/15/13
f 11/16/11 20/12/20 21/17/21
f 420/18/291 13/15/13 14/19/14
f 421/20/292 14/19/14 15/21/15
f 422/22/293 15/21/15 16/2/16
f 18/5/18 29/23/29 19/7/19
f 12/10/12 9/9/9 22/24/22
f 20/12/20 29/25/29 30/26/30
f 12/10/12 23/27/23 13/15/13
f 20/12/20 31/28/31 21/17/21
f 13/15/13 24/29/24 14/19/14
f 14/19/14 25/30/25 15/21/15
f 15/21/15 26/31/26 16/2/16
f 16/2/16 27/32/27 17/3/17
f 17/3/17 28/33/28 18/5/18
f 25/30/25 34/34/34 35/35/35
f 25/30/25 36/36/36 26/31/26
f 26/31/26 37/37/37 27/32/27
f 27/32/27 38/38/38 28/33/28
f 28/33/28 39/39/39 29/23/29
f 22/24/22 9/9/9 32/40/32
f 29/25/29 40/41/40 30/26/30
f 23/27/23 32/40/32 33/42/33
f 30/26/30 41/43/41 31/28/31
f 23/27/23 34/34/34 24/29/24
f 39/39/39 48/44/48 49/45/49
f 32/40/32 9/9/9 42/46/42
f 39/47/39 50/48/50 40/49/40
f 33/42/33 42/46/42 43/50/43
f 41/51/41 50/48/50 51/52/51
f 33/42/33 44/53/44 34/34/34
f 34/34/34 45/54/45 35/35/35
f 35/35/35 46/55/46 36/36/36
f 36/36/36 47/56/47 37/37/37
f 37/37/37 48/44/48 38/38/38
f 44/53/44 60/57/58 45/54/45
f 46/55/46 60/57/58 61/58/59
f 47/56/47 61/58/59 62/59/60
f 47/56/47 63/60/61 48/44/48
f 48/44/48 64/61/62 49/45/49
f 42/46/42 9/9/9 57/62/55
f 50/48/50 64/63/62 65/64/63
f 43/50/43 57/62/55 58/65/56
f 51/52/51 65/64/63 66/66/64
f 44/53/44 58/65/56 59/67/57
f 62/59/60 82/68/78 63/60/61
f 63/60/61 83/69/79 64/61/62
f 57/62/55 9/9/9 76/70/72
f 64/63/62 84/71/80 65/64/63
f 57/62/55 77/72/73 58/65/56
f 66/66/64 84/71/80 85/73/81
f 58/65/56 78/74/74 59/67/57
f 60/57/58 78/74/74 79/75/75
f 60/57/58 80/76/76 61/58/59
f 61/58/59 81/77/77 62/59/60
f 85/73/81 103/78/97 104/79/98
f 78/74/74 96/80/90 97/81/91
f 78/74/74 98/82/92 79/75/75
f 79/75/75 99/83/93 80/76/76
f 80/76/76 100/84/94 81/77/77
f 81/77/77 101/85/95 82/68/78
f 82/68/78 102/86/96 83/69/79
f 76/70/72 9/9/9 95/87/89
f 84/71/80 102/88/96 103/78/97
f 77/72/73 95/87/89 96/80/90
f 99/83/93 119/89/108 100/84/94
f 100/84/94 120/90/109 101/85/95
f 101/85/95 121/91/110 102/86/96
f 95/87/89 9/9/9 114/92/103
f 102/88/96 122/93/111 103/78/97
f 95/87/89 115/94/104 96/80/90
f 104/79/98 122/93/111 123/95/112
f 96/80/90 116/96/105 97/81/91
f 97/81/91 117/97/106 98/82/92
f 99/83/93 117/97/106 118/98/107
f 115/94/104 133/99/114 134/100/115
f 123/95/112 141/101/122 142/102/123
f 116/96/105 134/100/115 135/103/116
f 117/97/106 135/103/116 136/104/117
f 117/97/106 137/105/118 118/98/107
f 118/98/107 138/106/119 119/89/108
f 119/89/108 139/107/120 120/90/109
f 121/91/110 139/107/120 140/108/121
f 114/92/103 9/9/9 133/99/114
f 121/109/110 141/101/122 122/93/111
f 137/105/118 157/110/132 138/106/119
f 138/106/119 158/111/133 139/107/120
f 139/107/120 159/112/134 140/108/121
f 133/99/114 9/9/9 152/113/127
f 141/41/122 159/25/134 160/26/135
f 133/99/114 153/114/128 134/100/115
f 142/115/123 160/26/135 161/116/136
f 134/100/115 154/117/129 135/103/116
f 135/103/116 155/118/130 136/104/117
f 136/104/117 156/119/131 137/105/118
f 159/25/134 179/12/149 160/26/135
f 152/113/127 172/120/142 153/114/128
f 206/121/164 225/122/164 202/123/164
f 161/116/136 179/12/149 180/124/150
f 154/117/129 172/120/142 173/125/143
f 239/126/9 200/127/9 223/128/9
f 154/117/129 174/129/144 155/118/130
f 243/130/186 257/131/186 240/132/186
f 155/118/130 175/133/145 156/119/131
f 189/134/151 203/135/151 186/136/151
f 157/110/132 175/133/145 176/137/146
f 222/138/152 187/139/152 208/140/152
f 157/110/132 177/141/147 158/111/133
f 204/142/153 220/128/153 188/127/153
f 158/111/133 178/143/148 159/112/134
f 152/113/127 9/9/9 171/144/141
f 238/145/175 219/146/175 224/147/175
f 174/129/144 194/148/158 175/133/145
f 282/149/199 263/132/199 278/131/199
f 176/137/146 194/148/158 195/150/159
f 260/151/188 279/152/188 246/153/188
f 176/137/146 196/154/160 177/141/147
f 261/155/9 277/156/9 283/157/9
f 177/141/147 197/158/161 178/143/148
f 171/144/141 9/9/9 190/159/154
f 297/160/186 301/161/186 284/162/186
f 179/12/149 197/11/161 198/13/162
f 171/144/141 191/163/155 172/120/142
f 320/164/187 295/165/187 316/166/187
f 179/12/149 199/16/163 180/124/150
f 172/120/142 192/167/156 173/125/143
f 334/168/153 296/169/153 302/170/153
f 276/171/187 241/153/187 262/152/187
f 173/125/143 193/172/157 174/129/144
f 336/173/199 317/174/199 322/175/199
f 280/157/153 242/176/153 258/155/153
f 190/159/154 9/9/9 209/177/165
f 355/178/187 390/179/187 357/180/187
f 197/11/161 217/181/173 198/13/162
f 191/163/155 209/177/165 210/182/166
f 376/183/186 374/184/186 379/185/186
f 198/13/162 218/186/174 199/16/163
f 192/167/156 210/182/166 211/187/167
f 353/188/153 391/189/153 375/190/153
f 314/191/188 333/192/188 300/193/188
f 192/167/156 212/194/168 193/172/157
f 432/126/297 393/195/270 433/142/298
f 315/170/9 321/196/9 337/168/9
f 194/148/158 212/194/168 213/197/169
f 339/198/199 358/199/199 341/200/199
f 194/148/158 214/201/170 195/150/159
f 371/202/188 352/180/188 373/179/188
f 195/150/159 215/203/171 196/154/160
f 372/190/9 356/204/9 340/188/9
f 197/158/161 215/203/171 216/205/172
f 412/127/285 6/206/6 409/142/284
f 395/157/86 431/207/71 396/155/83
f 212/194/168 232/208/180 213/197/169
f 426/209/85 428/132/66 427/210/99
f 214/201/170 232/208/180 233/211/181
f 416/126/287 163/212/138 417/128/288
f 214/201/170 234/213/182 215/203/171
f 414/214/67 151/130/88 415/215/68
f 215/203/171 235/216/183 216/205/172
f 209/177/165 9/9/9 228/217/176
f 413/128/286 3/218/3 432/126/297
f 217/181/173 235/219/183 236/220/184
f 209/177/165 229/221/177 210/182/166
f 417/128/288 398/222/273 412/127/285
f 218/186/174 236/220/184 237/223/185
f 211/187/167 229/221/177 230/224/178
f 410/176/100 392/225/65 411/155/82
f 430/153/70 8/226/8 431/151/71
f 211/187/167 231/227/179 212/194/168
f 2/228/2 394/229/271 3/230/3
f 234/213/182 254/231/196 235/216/183
f 228/217/176 9/9/9 247/232/189
f 185/233/69 148/162/52 1/234/1
f 236/220/184 254/235/196 255/236/197
f 228/217/176 248/237/190 229/221/177
f 183/238/70 124/173/8 184/239/71
f 237/223/185 255/236/197 256/240/198
f 229/221/177 249/241/191 230/224/178
f 181/242/86 184/191/71 182/243/83
f 397/244/272 166/245/140 398/139/273
f 231/227/179 249/241/191 250/246/192
f 169/247/85 111/174/66 170/248/99
f 433/142/298 164/249/139 162/127/137
f 231/227/179 251/250/193 232/208/180
f 4/251/4 5/252/5 393/253/270
f 232/208/180 252/254/194 233/211/181
f 409/142/284 126/255/113 416/126/287
f 234/213/182 252/254/194 253/256/195
f 167/257/67 110/160/88 168/233/68
f 249/241/191 269/258/203 250/246/192
f 429/131/84 7/259/7 130/149/87
f 127/243/101 168/164/68 128/242/102
f 250/246/192 270/260/204 251/250/193
f 145/248/100 147/161/65 146/247/82
f 251/250/193 271/261/205 252/254/194
f 149/262/125 150/263/126 144/264/124
f 252/254/194 272/265/206 253/256/195
f 162/127/137 144/266/124 413/128/286
f 253/256/195 273/267/207 254/231/196
f 247/232/189 9/9/9 266/268/200
f 132/151/69 165/269/52 143/153/1
f 254/270/196 274/271/208 255/272/197
f 248/237/190 266/268/200 267/273/201
f 396/155/83 93/274/53 131/176/101
f 256/275/198 274/271/208 275/276/209
f 248/237/190 268/277/202 249/241/191
f 411/278/82 94/152/54 426/279/85
f 271/261/205 291/280/216 272/265/206
f 146/281/82 68/192/54 169/282/85
f 272/265/206 292/283/217 273/267/207
f 266/268/200 9/9/9 285/284/210
f 112/175/84 113/239/7 109/173/87
f 273/109/207 293/285/218 274/271/208
f 266/268/200 286/286/211 267/273/201
f 128/287/102 109/173/87 181/288/86
f 275/276/209 293/285/218 294/289/219
f 267/273/201 287/290/212 268/277/202
f 170/282/99 1/165/1 145/281/100
f 129/156/102 130/291/87 395/157/86
f 268/277/202 288/292/213 269/258/203
f 107/189/101 71/293/68 108/204/102
f 427/279/99 143/153/1 410/278/100
f 269/258/203 289/294/214 270/260/204
f 131/176/101 415/295/68 129/156/102
f 271/261/205 289/294/214 290/296/215
f 182/288/83 125/160/53 127/287/101
f 286/286/211 306/297/222 287/290/212
f 74/298/70 56/198/8 75/299/71
f 105/300/99 73/179/1 106/301/100
f 287/290/212 307/302/223 288/292/213
f 87/190/83 54/303/53 107/189/101
f 70/180/67 92/304/88 71/178/68
f 288/292/213 308/305/224 289/294/214
f 108/204/102 91/306/87 90/188/86
f 290/296/215 308/305/224 309/307/225
f 89/188/85 69/308/66 105/204/99
f 290/296/215 310/309/226 291/280/216
f 88/310/84 52/178/7 91/304/87
f 291/280/216 311/311/227 292/283/217
f 285/284/210 9/9/9 304/312/220
f 90/188/86 75/313/71 87/190/83
f 292/314/217 312/315/228 293/285/218
f 286/286/211 304/312/220 305/316/221
f 86/301/82 55/180/54 89/300/85
f 294/289/219 312/315/228 313/317/229
f 397/244/272 162/318/137 164/319/139
f 309/307/225 329/320/236 310/309/226
f 409/321/284 6/135/6 4/251/4
f 310/309/226 330/322/237 311/311/227
f 304/312/220 9/9/9 323/323/230
f 433/324/298 393/253/270 5/252/5
f 311/325/227 331/326/238 312/315/228
f 304/312/220 324/327/231 305/316/221
f 417/328/288 163/146/138 149/262/125
f 313/317/229 331/326/238 332/329/239
f 305/316/221 325/330/232 306/297/222
f 413/331/286 144/264/124 150/263/126
f 72/332/69 53/185/52 73/333/1
f 307/302/223 325/330/232 326/334/233
f 416/335/287 126/122/113 2/228/2
f 106/336/100 67/184/65 86/337/82
f 307/302/223 327/338/234 308/305/224
f 412/339/285 398/139/273 166/245/140
f 309/307/225 327/338/234 328/340/235
f 332/329/239 350/341/248 351/342/249
f 325/330/232 343/343/241 344/344/242
f 426/209/85 94/345/54 429/131/84
f 432/346/297 3/230/3 394/229/271
f 326/334/233 344/344/242 345/347/243
f 395/157/86 130/291/87 7/348/7
f 410/278/100 143/153/1 165/269/52
f 326/334/233 346/349/244 327/338/234
f 132/350/69 131/176/101 93/274/53
f 328/340/235 346/349/244 347/351/245
f 411/278/82 392/269/65 430/153/70
f 328/340/235 348/352/246 329/320/236
f 396/155/83 431/207/71 8/225/8
f 329/320/236 349/353/247 330/322/237
f 323/323/230 9/9/9 342/354/240
f 427/210/99 428/132/66 414/214/67
f 331/326/238 349/355/247 350/341/248
f 324/327/231 342/354/240 343/343/241
f 129/156/102 415/295/68 151/356/88
f 347/351/245 365/357/254 366/358/255
f 182/288/83 184/239/71 124/173/8
f 347/351/245 367/359/256 348/352/246
f 170/248/99 111/174/66 167/257/67
f 348/352/246 368/360/257 349/353/247
f 342/354/240 9/9/9 361/361/250
f 128/287/102 168/233/68 110/160/88
f 349/355/247 369/362/258 350/341/248
f 342/354/240 362/363/251 343/343/241
f 169/282/85 68/192/54 112/364/84
f 351/342/249 369/362/258 370/365/259
f 344/344/242 362/363/251 363/366/252
f 181/288/86 109/173/87 113/239/7
f 145/281/100 1/165/1 148/367/52
f 344/344/242 364/368/253 345/347/243
f 90/188/86 91/306/87 52/369/7
f 185/233/69 127/287/101 125/160/53
f 346/349/244 364/368/253 365/357/254
f 146/247/82 147/161/65 183/238/70
f 361/361/250 381/370/261 362/363/251
f 106/336/100 73/333/1 53/185/52
f 370/371/259 388/220/268 389/372/269
f 362/363/251 382/373/262 363/366/252
f 89/300/85 55/180/54 88/310/84
f 363/366/252 383/374/263 364/368/253
f 108/204/102 71/293/68 92/308/88
f 365/357/254 383/374/263 384/375/264
f 105/300/99 69/376/66 70/180/67
f 365/357/254 385/377/265 366/358/255
f 87/190/83 75/313/71 56/378/8
f 367/359/256 385/377/265 386/379/266
f 86/337/82 67/184/65 74/298/70
f 367/359/256 387/380/267 368/360/257
f 361/361/250 9/9/9 380/381/260
f 72/382/69 107/189/101 54/303/53
f 368/235/257 388/220/268 369/236/258
f 384/375/264 404/383/279 385/377/265
f 385/377/265 405/384/280 386/379/266
f 386/379/266 406/385/281 387/380/267
f 380/381/260 9/9/9 399/386/274
f 387/219/267 407/181/282 388/220/268
f 380/381/260 400/387/275 381/370/261
f 389/372/269 407/181/282 408/388/283
f 381/370/261 401/389/276 382/373/262
f 382/373/262 402/390/277 383/374/263
f 384/375/264 402/390/277 403/391/278
f 407/181/282 424/11/295 425/13/296
f 399/386/274 419/14/290 400/387/275
f 408/388/283 425/13/296 11/16/11
f 400/387/275 420/18/291 401/389/276
f 401/389/276 421/20/292 402/390/277
f 402/390/277 422/22/293 403/391/278
f 403/391/278 423/1/294 404/383/279
f 404/383/279 10/4/10 405/384/280
f 406/385/281 10/4/10 424/6/295
f 399/386/274 9/9/9 418/8/289
f 423/1/294 422/22/293 16/2/16
f 10/4/10 423/1/294 17/3/17
f 424/6/295 10/4/10 18/5/18
f 424/11/295 19/392/19 20/12/20
f 419/14/290 418/8/289 12/10/12
f 11/16/11 425/13/296 20/12/20
f 420/18/291 419/14/290 13/15/13
f 421/20/292 420/18/291 14/19/14
f 422/22/293 421/20/292 15/21/15
f 18/5/18 28/33/28 29/23/29
f 20/12/20 19/392/19 29/25/29
f 12/10/12 22/24/22 23/27/23
f 20/12/20 30/26/30 31/28/31
f 13/15/13 23/27/23 24/29/24
f 14/19/14 24/29/24 25/30/25
f 15/21/15 25/30/25 26/31/26
f 16/2/16 26/31/26 27/32/27
f 17/3/17 27/32/27 28/33/28
f 25/30/25 24/29/24 34/34/34
f 25/30/25 35/35/35 36/36/36
f 26/31/26 36/36/36 37/37/37
f 27/32/27 37/37/37 38/38/38
f 28/33/28 38/38/38 39/39/39
f 29/25/29 39/393/39 40/41/40
f 23/27/23 22/24/22 32/40/32
f 30/26/30 40/41/40 41/43/41
f 23/27/23 33/42/33 34/34/34
f 39/39/39 38/38/38 48/44/48
f 39/47/39 49/394/49 50/48/50
f 33/42/33 32/40/32 42/46/42
f 41/51/41 40/49/40 50/48/50
f 33/42/33 43/50/43 44/53/44
f 34/34/34 44/53/44 45/54/45
f 35/35/35 45/54/45 46/55/46
f 36/36/36 46/55/46 47/56/47
f 37/37/37 47/56/47 48/44/48
f 44/53/44 59/67/57 60/57/58
f 46/55/46 45/54/45 60/57/58
f 47/56/47 46/55/46 61/58/59
f 47/56/47 62/59/60 63/60/61
f 48/44/48 63/60/61 64/61/62
f 50/48/50 49/394/49 64/63/62
f 43/50/43 42/46/42 57/62/55
f 51/52/51 50/48/50 65/64/63
f 44/53/44 43/50/43 58/65/56
f 62/59/60 81/77/77 82/68/78
f 63/60/61 82/68/78 83/69/79
f 64/63/62 83/395/79 84/71/80
f 57/62/55 76/70/72 77/72/73
f 66/66/64 65/64/63 84/71/80
f 58/65/56 77/72/73 78/74/74
f 60/57/58 59/67/57 78/74/74
f 60/57/58 79/75/75 80/76/76
f 61/58/59 80/76/76 81/77/77
f 85/73/81 84/71/80 103/78/97
f 78/74/74 77/72/73 96/80/90
f 78/74/74 97/81/91 98/82/92
f 79/75/75 98/82/92 99/83/93
f 80/76/76 99/83/93 100/84/94
f 81/77/77 100/84/94 101/85/95
f 82/68/78 101/85/95 102/86/96
f 84/71/80 83/395/79 102/88/96
f 77/72/73 76/70/72 95/87/89
f 99/83/93 118/98/107 119/89/108
f 100/84/94 119/89/108 120/90/109
f 101/85/95 120/90/109 121/91/110
f 102/88/96 121/109/110 122/93/111
f 95/87/89 114/92/103 115/94/104
f 104/79/98 103/78/97 122/93/111
f 96/80/90 115/94/104 116/96/105
f 97/81/91 116/96/105 117/97/106
f 99/83/93 98/82/92 117/97/106
f 115/94/104 114/92/103 133/99/114
f 123/95/112 122/93/111 141/101/122
f 116/96/105 115/94/104 134/100/115
f 117/97/106 116/96/105 135/103/116
f 117/97/106 136/104/117 137/105/118
f 118/98/107 137/105/118 138/106/119
f 119/89/108 138/106/119 139/107/120
f 121/91/110 120/90/109 139/107/120
f 121/109/110 140/270/121 141/101/122
f 137/105/118 156/119/131 157/110/132
f 138/106/119 157/110/132 158/111/133
f 139/107/120 158/111/133 159/112/134
f 141/41/122 140/393/121 159/25/134
f 133/99/114 152/113/127 153/114/128
f 142/115/123 141/41/122 160/26/135
f 134/100/115 153/114/128 154/117/129
f 135/103/116 154/117/129 155/118/130
f 136/104/117 155/118/130 156/119/131
f 159/25/134 178/392/148 179/12/149
f 152/113/127 171/144/141 172/120/142
f 206/121/164 227/229/164 225/122/164
f 161/116/136 160/26/135 179/12/149
f 154/117/129 153/114/128 172/120/142
f 239/126/9 207/142/9 200/127/9
f 154/117/129 173/125/143 174/129/144
f 243/130/186 259/149/186 257/131/186
f 155/118/130 174/129/144 175/133/145
f 189/134/151 205/252/151 203/135/151
f 157/110/132 156/119/131 175/133/145
f 222/138/152 201/244/152 187/139/152
f 157/110/132 176/137/146 177/141/147
f 204/142/153 226/126/153 220/128/153
f 158/111/133 177/141/147 178/143/148
f 238/145/175 221/263/175 219/146/175
f 174/129/144 193/172/157 194/148/158
f 282/149/199 265/130/199 263/132/199
f 176/137/146 175/133/145 194/148/158
f 260/151/188 281/171/188 279/152/188
f 176/137/146 195/150/159 196/154/160
f 261/155/9 244/176/9 277/156/9
f 177/141/147 196/154/160 197/158/161
f 297/160/186 303/173/186 301/161/186
f 179/12/149 178/392/148 197/11/161
f 171/144/141 190/159/154 191/163/155
f 320/164/187 299/191/187 295/165/187
f 179/12/149 198/13/162 199/16/163
f 172/120/142 191/163/155 192/167/156
f 334/168/153 318/196/153 296/169/153
f 276/171/187 245/151/187 241/153/187
f 173/125/143 192/167/156 193/172/157
f 336/173/199 319/160/199 317/174/199
f 280/157/153 264/156/153 242/176/153
f 355/178/187 378/202/187 390/179/187
f 197/11/161 216/396/172 217/181/173
f 191/163/155 190/159/154 209/177/165
f 376/183/186 360/198/186 374/184/186
f 198/13/162 217/181/173 218/186/174
f 192/167/156 191/163/155 210/182/166
f 353/188/153 359/204/153 391/189/153
f 314/191/188 335/164/188 333/192/188
f 192/167/156 211/187/167 212/194/168
f 432/126/297 394/255/271 393/195/270
f 315/170/9 298/169/9 321/196/9
f 194/148/158 193/172/157 212/194/168
f 339/198/199 354/183/199 358/199/199
f 194/148/158 213/197/169 214/201/170
f 371/202/188 338/178/188 352/180/188
f 195/150/159 214/201/170 215/203/171
f 372/190/9 377/189/9 356/204/9
f 197/158/161 196/154/160 215/203/171
f 412/127/285 166/249/140 6/206/6
f 395/157/86 7/348/7 431/207/71
f 212/194/168 231/227/179 232/208/180
f 426/209/85 429/131/84 428/132/66
f 214/201/170 213/197/169 232/208/180
f 416/126/287 2/218/2 163/212/138
f 214/201/170 233/211/181 234/213/182
f 414/214/67 428/132/66 151/130/88
f 215/203/171 234/213/182 235/216/183
f 413/128/286 150/212/126 3/218/3
f 217/181/173 216/396/172 235/219/183
f 209/177/165 228/217/176 229/221/177
f 417/128/288 149/266/125 398/222/273
f 218/186/174 217/181/173 236/220/184
f 211/187/167 210/182/166 229/221/177
f 410/176/100 165/274/52 392/225/65
f 430/153/70 392/269/65 8/226/8
f 211/187/167 230/224/178 231/227/179
f 2/228/2 126/122/113 394/229/271
f 234/213/182 253/256/195 254/231/196
f 185/233/69 125/160/53 148/162/52
f 236/220/184 235/219/183 254/235/196
f 228/217/176 247/232/189 248/237/190
f 183/238/70 147/161/65 124/173/8
f 237/223/185 236/220/184 255/236/197
f 229/221/177 248/237/190 249/241/191
f 181/242/86 113/164/7 184/191/71
f 397/244/272 164/319/139 166/245/140
f 231/227/179 230/224/178 249/241/191
f 169/247/85 112/175/84 111/174/66
f 433/142/298 5/206/5 164/249/139
f 231/227/179 250/246/192 251/250/193
f 4/251/4 6/135/6 5/252/5
f 232/208/180 251/250/193 252/254/194
f 409/142/284 4/195/4 126/255/113
f 234/213/182 233/211/181 252/254/194
f 167/257/67 111/174/66 110/160/88
f 249/241/191 268/277/202 269/258/203
f 429/131/84 94/345/54 7/259/7
f 127/243/101 185/191/69 168/164/68
f 250/246/192 269/258/203 270/260/204
f 145/248/100 148/162/52 147/161/65
f 251/250/193 270/260/204 271/261/205
f 149/262/125 163/146/138 150/263/126
f 252/254/194 271/261/205 272/265/206
f 162/127/137 397/222/272 144/266/124
f 253/256/195 272/265/206 273/267/207
f 132/151/69 93/226/53 165/269/52
f 254/270/196 273/109/207 274/271/208
f 248/237/190 247/232/189 266/268/200
f 396/155/83 8/225/8 93/274/53
f 256/275/198 255/272/197 274/271/208
f 248/237/190 267/273/201 268/277/202
f 411/278/82 430/153/70 94/152/54
f 271/261/205 290/296/215 291/280/216
f 146/281/82 183/193/70 68/192/54
f 272/265/206 291/280/216 292/283/217
f 112/175/84 68/397/54 113/239/7
f 273/109/207 292/314/217 293/285/218
f 266/268/200 285/284/210 286/286/211
f 128/287/102 110/160/88 109/173/87
f 275/276/209 274/271/208 293/285/218
f 267/273/201 286/286/211 287/290/212
f 170/282/99 167/166/67 1/165/1
f 129/156/102 151/356/88 130/291/87
f 268/277/202 287/290/212 288/292/213
f 107/189/101 72/382/69 71/293/68
f 427/279/99 414/152/67 143/153/1
f 269/258/203 288/292/213 289/294/214
f 131/176/101 132/350/69 415/295/68
f 271/261/205 270/260/204 289/294/214
f 182/288/83 124/173/8 125/160/53
f 286/286/211 305/316/221 306/297/222
f 74/298/70 67/184/65 56/198/8
f 105/300/99 70/180/67 73/179/1
f 287/290/212 306/297/222 307/302/223
f 87/190/83 56/378/8 54/303/53
f 70/180/67 69/376/66 92/304/88
f 288/292/213 307/302/223 308/305/224
f 108/204/102 92/308/88 91/306/87
f 290/296/215 289/294/214 308/305/224
f 89/188/85 88/306/84 69/308/66
f 290/296/215 309/307/225 310/309/226
f 88/310/84 55/180/54 52/178/7
f 291/280/216 310/309/226 311/311/227
f 90/188/86 52/369/7 75/313/71
f 292/314/217 311/325/227 312/315/228
f 286/286/211 285/284/210 304/312/220
f 86/301/82 74/179/70 55/180/54
f 294/289/219 293/285/218 312/315/228
f 309/307/225 328/340/235 329/320/236
f 310/309/226 329/320/236 330/322/237
f 311/325/227 330/398/237 331/326/238
f 304/312/220 323/323/230 324/327/231
f 313/317/229 312/315/228 331/326/238
f 305/316/221 324/327/231 325/330/232
f 72/332/69 54/183/53 53/185/52
f 307/302/223 306/297/222 325/330/232
f 106/336/100 53/185/52 67/184/65
f 307/302/223 326/334/233 327/338/234
f 309/307/225 308/305/224 327/338/234
f 332/329/239 331/326/238 350/341/248
f 325/330/232 324/327/231 343/343/241
f 326/334/233 325/330/232 344/344/242
f 326/334/233 345/347/243 346/349/244
f 328/340/235 327/338/234 346/349/244
f 328/340/235 347/351/245 348/352/246
f 329/320/236 348/352/246 349/353/247
f 331/326/238 330/398/237 349/355/247
f 324/327/231 323/323/230 342/354/240
f 347/351/245 346/349/244 365/357/254
f 347/351/245 366/358/255 367/359/256
f 348/352/246 367/359/256 368/360/257
f 349/355/247 368/399/257 369/362/258
f 342/354/240 361/361/250 362/363/251
f 351/342/249 350/341/248 369/362/258
f 344/344/242 343/343/241 362/363/251
f 344/344/242 363/366/252 364/368/253
f 346/349/244 345/347/243 364/368/253
f 361/361/250 380/381/260 381/370/261
f 370/371/259 369/236/258 388/220/268
f 362/363/251 381/370/261 382/373/262
f 363/366/252 382/373/262 383/374/263
f 365/357/254 364/368/253 383/374/263
f 365/357/254 384/375/264 385/377/265
f 367/359/256 366/358/255 385/377/265
f 367/359/256 386/379/266 387/380/267
f 368/235/257 387/219/267 388/220/268
f 384/375/264 403/391/278 404/383/279
f 385/377/265 404/383/279 405/384/280
f 386/379/266 405/384/280 406/385/281
f 387/219/267 406/396/281 407/181/282
f 380/381/260 399/386/274 400/387/275
f 389/372/269 388/220/268 407/181/282
f 381/370/261 400/387/275 401/389/276
f 382/373/262 401/389/276 402/390/277
f 384/375/264 383/374/263 402/390/277
f 407/181/282 406/396/281 424/11/295
f 399/386/274 418/8/289 419/14/290
f 408/388/283 407/181/282 425/13/296
f 400/387/275 419/14/290 420/18/291
f 401/389/276 420/18/291 421/20/292
f 402/390/277 421/20/292 422/22/293
f 403/391/278 422/22/293 423/1/294
f 404/383/279 423/1/294 10/4/10
f 406/385/281 405/384/280 10/4/10
