# Blender 5.2.0 LTS
# www.blender.org
o Backdrop_Microphone
v -21.744675 86.966179 4.996795
v 0.000000 108.000000 0.000000
v 16.333040 86.966179 -15.199688
v -15.199690 86.966179 16.333042
v -20.153099 87.563316 4.077900
v -19.169455 86.000000 3.509992
v -6.544985 84.436684 -19.492046
v 15.414145 87.563316 -13.608114
v 14.846237 86.000000 -12.624469
v -12.624471 86.000000 14.846238
v -13.608115 87.563316 15.414146
v -6.544985 86.000000 -18.356232
v -6.544985 87.563316 -19.492046
v 6.544985 87.563316 -19.492044
v -6.544984 86.000000 18.356230
v -6.544985 84.436684 19.492044
v -4.077900 84.436684 20.153101
v -6.544985 86.966179 -21.329838
v -6.544985 85.033821 -21.329838
v 6.544985 85.033821 -21.329836
v 6.544985 86.966179 -21.329836
v -16.333040 85.033821 15.199689
v -5.867062 98.000000 -10.162051
v -6.100000 97.550003 -10.565510
v -5.867062 86.000000 -10.162051
v -6.100000 86.449997 -10.565510
v -10.162051 98.000000 -5.867062
v -10.565510 97.550003 -6.100000
v -10.162051 86.000000 -5.867062
v -10.565510 86.449997 -6.100000
v -4.996796 85.033821 21.744675
v -11.734125 98.000000 0.000000
v -12.200000 97.550003 0.000000
v -11.734125 86.000000 0.000000
v -12.200000 86.449997 0.000000
v -10.162051 98.000000 5.867062
v -10.565510 97.550003 6.100000
v 6.544985 86.000000 18.356232
v -10.162051 86.000000 5.867062
v -10.565510 86.449997 6.100000
v -16.333040 86.966179 15.199689
v -5.867062 98.000000 10.162051
v -6.100000 97.550003 10.565510
v 0.000000 99.000000 -11.000000
v 4.996794 85.033821 21.744673
v 5.500000 99.000000 -9.526279
v -5.867062 86.000000 10.162051
v 9.526279 99.000000 -5.500000
v -6.100000 86.449997 10.565510
v 11.000000 99.000000 0.000000
v -4.996796 86.966179 21.744675
v 9.526279 99.000000 5.500000
v 0.000000 98.000000 11.734125
v 5.500000 99.000000 9.526279
v 0.000000 97.550003 12.200000
v 0.000000 99.000000 11.000000
v 0.000000 86.000000 11.734125
v -5.500000 99.000000 9.526279
v 0.000000 86.449997 12.200000
v -9.526279 99.000000 5.500000
v 5.867062 98.000000 10.162051
v -11.000000 99.000000 0.000000
v 6.100000 97.550003 10.565510
v -9.526279 99.000000 -5.500000
v -15.414145 87.563316 13.608114
v -5.500000 99.000000 -9.526279
v -14.846238 86.000000 12.624470
v 5.867062 86.000000 10.162051
v 6.100000 86.449997 10.565510
v -12.624471 86.000000 -14.846239
v -13.608116 84.436684 -15.414146
v -5.267062 65.000000 -9.122821
v -5.500000 65.449997 -9.526279
v -16.333042 85.033821 -15.199691
v -15.414146 84.436684 -13.608116
v -9.122821 65.000000 -5.267062
v -9.526279 65.449997 -5.500000
v 0.000000 86.000000 -11.734125
v 0.000000 86.449997 -12.200000
v -10.534125 65.000000 0.000000
v -11.000000 65.449997 0.000000
v -9.122821 65.000000 5.267062
v -9.526279 65.449997 5.500000
v -3.509992 86.000000 19.169456
v -4.077900 87.563316 20.153101
v 3.509992 86.000000 19.169453
v 4.077898 84.436684 20.153097
v -5.267062 65.000000 9.122821
v -5.500000 65.449997 9.526279
v 0.000000 98.000000 -11.734125
v 0.000000 105.363960 -7.778174
v 0.000000 97.550003 -12.200000
v 19.534126 0.000000 -0.000000
v 0.000000 65.000000 10.534125
v 0.000000 65.449997 11.000000
v 5.267062 65.000000 9.122821
v 5.500000 65.449997 9.526279
v 2.104759 107.314919 -3.645550
v 6.544984 85.033821 21.329838
v 3.889087 105.363960 -6.736096
v 5.081337 102.444153 -8.801134
v 17.320507 4.550000 -10.000000
v 6.544985 84.436684 19.492046
v 9.122821 65.000000 5.267062
v 9.526279 65.449997 5.500000
v 11.734125 86.000000 0.000000
v 3.645550 107.314919 -2.104759
v 10.162051 86.000000 5.867062
v 6.736096 105.363960 -3.889087
v 8.801134 102.444153 -5.081337
v 16.917049 5.000000 -9.767062
v 10.565510 86.449997 6.100000
v 12.200000 86.449997 0.000000
v -1.918327 64.000000 -1.918327
v -2.262742 63.549999 -2.262742
v 4.209517 107.314919 0.000000
v -2.262742 63.549999 -2.262742
v 7.778174 105.363960 0.000000
v 10.162674 102.444153 0.000000
v 17.320507 0.450000 -10.000000
v -1.918327 2.000000 -1.918327
v -2.262742 2.450000 -2.262742
v -2.262742 2.450000 -2.262742
v 10.162051 98.000000 5.867062
v 3.645549 107.314919 2.104759
v 11.734125 98.000000 0.000000
v 6.736096 105.363960 3.889087
v 8.801134 102.444153 5.081337
v 16.917049 0.000000 -9.767062
v 12.200000 97.550003 0.000000
v 10.565510 97.550003 6.100000
v -2.712924 64.000000 0.000000
v -3.200000 63.549999 0.000000
v 2.104759 107.314919 3.645549
v -3.200000 63.549999 0.000000
v 3.889086 105.363960 6.736096
v 5.081337 102.444153 8.801134
v 10.000000 4.550000 -17.320507
v -2.712924 2.000000 -0.000000
v -3.200000 2.450000 0.000000
v -3.200000 2.450000 0.000000
v -1.918327 64.000000 1.918327
v 0.000000 107.314919 4.209517
v -2.262742 63.549999 2.262742
v -0.000001 105.363960 7.778174
v 0.000000 102.444153 10.162674
v 9.767062 5.000000 -16.917049
v -2.262742 63.549999 2.262742
v -0.000000 65.000000 -10.534125
v 5.267062 65.000000 -9.122821
v 5.500000 65.449997 -9.526279
v -2.104759 107.314919 3.645549
v 0.000000 65.449997 -11.000000
v -3.889088 105.363960 6.736095
v -5.081337 102.444153 8.801134
v 10.000000 0.450000 -17.320507
v -1.918327 2.000000 1.918327
v -2.262742 2.450000 2.262742
v -2.262742 2.450000 2.262742
v -9.767062 5.000000 -16.917049
v -3.645549 107.314919 2.104759
v -10.000000 4.550000 -17.320507
v -6.736096 105.363960 3.889086
v -8.801134 102.444153 5.081337
v 9.767062 0.000000 -16.917049
v -9.767062 0.000000 -16.917049
v -10.000000 0.450000 -17.320507
v -16.917049 5.000000 -9.767062
v -17.320507 4.550000 -10.000000
v -4.209518 107.314919 0.000000
v 9.122821 65.000000 -5.267062
v -7.778174 105.363960 -0.000001
v -10.162675 102.444153 0.000000
v 0.000000 4.550000 -20.000000
v 10.534125 65.000000 -0.000000
v 11.000000 65.449997 0.000000
v 9.526279 65.449997 -5.500000
v -16.917049 0.000000 -9.767062
v -3.645550 107.314919 -2.104759
v -17.320507 0.450000 -10.000000
v -6.736095 105.363960 -3.889088
v -8.801134 102.444153 -5.081337
v 0.000000 5.000000 -19.534126
v -19.534126 5.000000 -0.000000
v -20.000000 4.550000 0.000000
v 0.000000 2.000000 -2.712924
v 0.000000 2.450000 -3.200000
v -2.104759 107.314919 -3.645549
v 0.000000 2.450000 -3.200000
v -3.889086 105.363960 -6.736096
v -5.081337 102.444153 -8.801134
v 0.000000 0.450000 -20.000000
v -19.534126 0.000000 0.000000
v -20.000000 0.450000 0.000000
v -16.917049 5.000000 9.767062
v -17.320507 4.550000 10.000000
v -0.000000 107.314919 -4.209518
v -16.917049 0.000000 9.767062
v -17.320507 0.450000 10.000000
v -0.000000 102.444153 -10.162675
v -6.544985 85.033821 21.329836
v -6.544985 86.966179 21.329836
v -9.767062 5.000000 16.917049
v -10.000000 4.550000 17.320507
v -9.767062 0.000000 16.917049
v -10.000000 0.450000 17.320507
v -0.000000 5.000000 19.534126
v 0.000000 4.550000 20.000000
v -0.000000 64.000000 -2.712924
v 0.000000 63.549999 -3.200000
v 0.000000 63.549999 -3.200000
v 0.000000 0.000000 19.534126
v 0.000000 0.450000 20.000000
v 9.767062 5.000000 16.917049
v 10.000000 4.550000 17.320507
v 9.767062 0.000000 16.917049
v 10.000000 0.450000 17.320507
v 16.917049 5.000000 9.767062
v 17.320507 4.550000 10.000000
v 16.917049 0.000000 9.767062
v 17.320507 0.450000 10.000000
v 1.918327 2.000000 1.918327
v -0.000000 2.000000 2.712924
v 0.000000 2.450000 3.200000
v 0.000000 2.450000 3.200000
v 2.262742 2.450000 2.262742
v 2.262742 2.450000 2.262742
v 19.534126 5.000000 0.000000
v 20.000000 4.550000 0.000000
v 19.534126 0.000000 -0.000000
v 20.000000 0.450000 0.000000
v 10.162051 98.000000 -5.867062
v 5.867062 98.000000 -10.162051
v 6.100000 97.550003 -10.565510
v 10.565510 97.550003 -6.100000
v 16.917049 5.000000 -9.767062
v 17.320507 4.550000 -10.000000
v 1.918327 2.000000 -1.918327
v 2.712924 2.000000 0.000000
v 3.200000 2.450000 0.000000
v 3.200000 2.450000 0.000000
v 2.262742 2.450000 -2.262742
v 2.262742 2.450000 -2.262742
v 16.917049 0.000000 -9.767062
v 17.320507 0.450000 -10.000000
v 0.000000 64.000000 2.712924
v 1.918327 64.000000 1.918327
v 2.262742 63.549999 2.262742
v 2.262742 63.549999 2.262742
v 0.000000 63.549999 3.200000
v 0.000000 63.549999 3.200000
v 9.767062 5.000000 -16.917049
v 0.000000 5.000000 -19.534126
v 0.000000 4.550000 -20.000000
v 10.000000 4.550000 -17.320507
v 2.712924 64.000000 -0.000000
v 1.918327 64.000000 -1.918327
v 2.262742 63.549999 -2.262742
v 2.262742 63.549999 -2.262742
v 3.200000 63.549999 0.000000
v 3.200000 63.549999 0.000000
v -0.000000 0.000000 -19.534126
v 9.767062 0.000000 -16.917049
v 10.000000 0.450000 -17.320507
v 0.000000 0.450000 -20.000000
v -0.000000 0.000000 -19.534126
v -21.351862 84.567810 6.094985
v -21.779837 85.156868 6.094985
v -21.329836 85.033821 6.544985
v 5.867062 86.000000 -10.162051
v 10.162051 86.000000 -5.867062
v 10.565510 86.449997 -6.100000
v 6.100000 86.449997 -10.565510
v 20.000000 0.450000 0.000000
v 19.534126 5.000000 0.000000
v 20.000000 4.550000 0.000000
v 16.917049 0.000000 9.767062
v 17.320507 0.450000 10.000000
v 16.917049 5.000000 9.767062
v 17.320507 4.550000 10.000000
v 9.767062 0.000000 16.917049
v 10.000000 0.450000 17.320507
v 9.767062 5.000000 16.917049
v 10.000000 4.550000 17.320507
v 0.000000 0.000000 19.534126
v 0.000000 0.450000 20.000000
v -0.000000 5.000000 19.534126
v 0.000000 4.550000 20.000000
v -9.767062 0.000000 16.917049
v -10.000000 0.450000 17.320507
v -9.767062 5.000000 16.917049
v -10.000000 4.550000 17.320507
v -16.917049 0.000000 9.767062
v -17.320507 0.450000 10.000000
v -16.917049 5.000000 9.767062
v -17.320507 4.550000 10.000000
v -19.534126 0.000000 0.000000
v -20.000000 0.450000 0.000000
v -19.534126 5.000000 -0.000000
v -20.000000 4.550000 0.000000
v -16.917049 0.000000 -9.767062
v -17.320507 0.450000 -10.000000
v -16.917049 5.000000 -9.767062
v -17.320507 4.550000 -10.000000
v -9.767062 0.000000 -16.917049
v -10.000000 0.450000 -17.320507
v -9.767062 5.000000 -16.917049
v -10.000000 4.550000 -17.320507
v 0.000000 2.000000 -2.712924
v 0.000000 2.450000 -3.200000
v -0.000000 64.000000 -2.712924
v 0.000000 63.549999 -3.200000
v 1.918327 2.000000 -1.918327
v 2.262742 2.450000 -2.262742
v 1.918327 64.000000 -1.918327
v 2.262742 63.549999 -2.262742
v 2.712924 2.000000 0.000000
v 3.200000 2.450000 0.000000
v 2.712924 64.000000 -0.000000
v 3.200000 63.549999 0.000000
v 1.918327 2.000000 1.918327
v 2.262742 2.450000 2.262742
v 1.918327 64.000000 1.918327
v 2.262742 63.549999 2.262742
v -0.000000 2.000000 2.712924
v 0.000000 2.450000 3.200000
v 0.000000 64.000000 2.712924
v 0.000000 63.549999 3.200000
v -1.918327 2.000000 1.918327
v -2.262742 2.450000 2.262742
v -1.918327 64.000000 1.918327
v -2.262742 63.549999 2.262742
v -2.712924 2.000000 -0.000000
v -3.200000 2.450000 0.000000
v -2.712924 64.000000 0.000000
v -3.200000 63.549999 0.000000
v -1.918327 2.000000 -1.918327
v -2.262742 2.450000 -2.262742
v -1.918327 64.000000 -1.918327
v -2.262742 63.549999 -2.262742
v -0.000000 65.000000 -10.534125
v 0.000000 65.449997 -11.000000
v 5.267062 65.000000 -9.122821
v 5.500000 65.449997 -9.526279
v 9.122821 65.000000 -5.267062
v 9.526279 65.449997 -5.500000
v 10.534125 65.000000 -0.000000
v 11.000000 65.449997 0.000000
v 9.122821 65.000000 5.267062
v 9.526279 65.449997 5.500000
v 5.267062 65.000000 9.122821
v 5.500000 65.449997 9.526279
v 0.000000 65.000000 10.534125
v 0.000000 65.449997 11.000000
v -5.267062 65.000000 9.122821
v -5.500000 65.449997 9.526279
v -9.122821 65.000000 5.267062
v -9.526279 65.449997 5.500000
v -10.534125 65.000000 0.000000
v -11.000000 65.449997 0.000000
v -9.122821 65.000000 -5.267062
v -9.526279 65.449997 -5.500000
v -5.267062 65.000000 -9.122821
v -5.500000 65.449997 -9.526279
v 0.000000 86.000000 -11.734125
v 0.000000 86.449997 -12.200000
v 0.000000 98.000000 -11.734125
v 0.000000 97.550003 -12.200000
v 5.867062 86.000000 -10.162051
v 6.100000 86.449997 -10.565510
v 5.867062 98.000000 -10.162051
v 6.100000 97.550003 -10.565510
v 10.162051 86.000000 -5.867062
v 10.565510 86.449997 -6.100000
v 10.162051 98.000000 -5.867062
v 10.565510 97.550003 -6.100000
v 11.734125 86.000000 0.000000
v 12.200000 86.449997 0.000000
v 11.734125 98.000000 0.000000
v 12.200000 97.550003 0.000000
v 10.162051 86.000000 5.867062
v 10.565510 86.449997 6.100000
v 10.162051 98.000000 5.867062
v 10.565510 97.550003 6.100000
v 5.867062 86.000000 10.162051
v 6.100000 86.449997 10.565510
v 5.867062 98.000000 10.162051
v 6.100000 97.550003 10.565510
v 0.000000 86.000000 11.734125
v 0.000000 86.449997 12.200000
v 0.000000 98.000000 11.734125
v 0.000000 97.550003 12.200000
v -5.867062 86.000000 10.162051
v -6.100000 86.449997 10.565510
v -5.867062 98.000000 10.162051
v -6.100000 97.550003 10.565510
v -10.162051 86.000000 5.867062
v -10.565510 86.449997 6.100000
v -10.162051 98.000000 5.867062
v -10.565510 97.550003 6.100000
v -11.734125 86.000000 0.000000
v -12.200000 86.449997 0.000000
v -11.734125 98.000000 0.000000
v -12.200000 97.550003 0.000000
v -10.162051 86.000000 -5.867062
v -10.565510 86.449997 -6.100000
v -10.162051 98.000000 -5.867062
v -10.565510 97.550003 -6.100000
v -5.867062 86.000000 -10.162051
v -6.100000 86.449997 -10.565510
v -5.867062 98.000000 -10.162051
v -6.100000 97.550003 -10.565510
v -21.329838 85.033821 -6.544985
v -21.351860 84.567810 -6.094985
v -21.779839 85.156868 -6.094985
v -19.492044 84.436684 6.544985
v -19.748140 84.046738 6.094985
v -19.055658 84.271736 6.094985
v -19.492046 84.436684 -6.544985
v -19.055660 84.271736 -6.094985
v -19.748138 84.046738 -6.094985
v -18.356230 86.000000 6.544985
v -18.064503 85.635941 6.094985
v -18.064503 86.364059 6.094985
v 6.544985 85.033821 -21.329836
v 6.094985 84.567810 -21.351860
v 6.094985 85.156868 -21.779837
v -18.356232 86.000000 -6.544985
v -18.064505 86.364059 -6.094985
v -18.064505 85.635941 -6.094985
v -6.544985 84.436684 -19.492046
v -6.094985 84.046738 -19.748140
v -6.094985 84.271736 -19.055660
v 6.544985 84.436684 -19.492044
v 6.094985 84.271736 -19.055658
v 6.094985 84.046738 -19.748137
v -6.544985 86.000000 -18.356232
v -6.094985 85.635941 -18.064505
v -6.094985 86.364059 -18.064505
v -20.153099 87.563316 -4.077899
v -19.550175 87.728264 -4.249417
v -20.149881 87.953262 -4.595657
v -13.608116 87.563316 -15.414146
v -14.054901 87.953262 -15.152482
v -13.455194 87.728264 -14.806242
v 6.544985 86.000000 -18.356230
v 6.094985 86.364059 -18.064503
v 6.094985 85.635941 -18.064503
v 4.077899 87.563316 -20.153101
v 4.249418 87.728264 -19.550179
v 4.595658 87.953262 -20.149883
v 15.414145 87.563316 -13.608114
v 15.152481 87.953262 -14.054899
v 14.806239 87.728264 -13.455193
v -21.744673 86.966179 -4.996795
v -21.538744 87.432190 -5.397517
v -21.909384 86.843132 -5.611506
v -15.199691 86.966179 -16.333042
v -15.814402 86.843132 -16.168331
v -15.443765 87.432190 -15.954343
v 4.996797 86.966179 -21.744677
v 5.397519 87.432190 -21.538748
v 5.611508 86.843132 -21.909388
v 16.333040 86.966179 -15.199688
v 16.168329 86.843132 -15.814400
v 15.954341 87.432190 -15.443762
v 4.996797 85.033821 -21.744677
v 5.611508 85.156868 -21.909388
v 5.397520 84.567810 -21.538750
v -21.744673 85.033821 -4.996795
v -21.909384 85.156868 -5.611506
v -21.538746 84.567810 -5.397518
v -15.199691 85.033821 -16.333042
v -15.443763 84.567810 -15.954342
v -15.814402 85.156868 -16.168331
v 16.333040 85.033821 -15.199688
v 15.954340 84.567810 -15.443760
v 16.168329 85.156868 -15.814400
v 4.077900 84.436684 -20.153101
v 4.595659 84.046738 -20.149885
v 4.249419 84.271736 -19.550179
v 15.414145 84.436684 -13.608114
v 14.806239 84.271736 -13.455192
v 15.152479 84.046738 -14.054897
v -20.153099 84.436684 -4.077899
v -20.149883 84.046738 -4.595658
v -19.550177 84.271736 -4.249417
v -13.608116 84.436684 -15.414146
v -13.455194 84.271736 -14.806241
v -14.054898 84.046738 -15.152481
v 3.509993 86.000000 -19.169456
v 3.753841 85.635941 -18.691814
v 3.753840 86.364059 -18.691814
v 14.846237 86.000000 -12.624469
v 14.310663 86.364059 -12.596828
v 14.310662 85.635941 -12.596827
v 13.608116 87.563316 -15.414146
v 13.455194 87.728264 -14.806241
v 14.054898 87.953262 -15.152481
v -19.169455 86.000000 -3.509992
v -18.691811 85.635941 -3.753840
v -18.691811 86.364059 -3.753839
v -12.624471 86.000000 -14.846239
v -12.596829 86.364059 -14.310665
v -12.596828 85.635941 -14.310663
v 20.153099 87.563316 -4.077899
v 20.149883 87.953262 -4.595658
v 19.550177 87.728264 -4.249417
v 15.199691 86.966179 -16.333042
v 15.443763 87.432190 -15.954342
v 15.814402 86.843132 -16.168331
v 21.744673 86.966179 -4.996795
v 21.909384 86.843132 -5.611506
v 21.538746 87.432190 -5.397518
v -15.414146 87.563316 -13.608116
v -14.806241 87.728264 -13.455194
v -15.152481 87.953262 -14.054898
v -4.077899 87.563316 -20.153099
v -4.595658 87.953262 -20.149883
v -4.249417 87.728264 -19.550177
v 15.199691 85.033821 -16.333042
v 15.814402 85.156868 -16.168331
v 15.443765 84.567810 -15.954343
v 21.744673 85.033821 -4.996795
v 21.538744 84.567810 -5.397517
v 21.909384 85.156868 -5.611506
v 13.608116 84.436684 -15.414146
v 14.054901 84.046738 -15.152482
v 13.455194 84.271736 -14.806242
v -16.333042 86.966179 -15.199691
v -15.954342 87.432190 -15.443763
v -16.168331 86.843132 -15.814402
v -4.996795 86.966179 -21.744673
v -5.611506 86.843132 -21.909384
v -5.397518 87.432190 -21.538746
v 20.153099 84.436684 -4.077899
v 19.550175 84.271736 -4.249417
v 20.149881 84.046738 -4.595657
v 12.624471 86.000000 -14.846239
v 12.596829 85.635941 -14.310665
v 12.596828 86.364059 -14.310663
v 19.169455 86.000000 -3.509992
v 18.691811 86.364059 -3.753840
v 18.691811 85.635941 -3.753839
v -16.333042 85.033821 -15.199691
v -16.168331 85.156868 -15.814402
v -15.954343 84.567810 -15.443765
v -4.996795 85.033821 -21.744673
v -5.397517 84.567810 -21.538744
v -5.611506 85.156868 -21.909384
v 19.492046 87.563316 -6.544985
v 19.055660 87.728264 -6.094985
v 19.748138 87.953262 -6.094985
v 19.492044 87.563316 6.544985
v 19.748140 87.953262 6.094985
v 19.055658 87.728264 6.094985
v 21.329838 86.966179 -6.544985
v 21.351860 87.432190 -6.094985
v 21.779839 86.843132 -6.094985
v -15.414146 84.436684 -13.608116
v -15.152482 84.046738 -14.054901
v -14.806242 84.271736 -13.455194
v -4.077899 84.436684 -20.153099
v -4.249417 84.271736 -19.550175
v -4.595657 84.046738 -20.149881
v 21.329836 86.966179 6.544985
v 21.779837 86.843132 6.094985
v 21.351862 87.432190 6.094985
v 21.329838 85.033821 -6.544985
v 21.779839 85.156868 -6.094985
v 21.351864 84.567810 -6.094985
v 21.329836 85.033821 6.544985
v 21.351860 84.567810 6.094985
v 21.779837 85.156868 6.094985
v -14.846239 86.000000 -12.624471
v -14.310665 85.635941 -12.596829
v -14.310663 86.364059 -12.596828
v -3.509992 86.000000 -19.169455
v -3.753840 86.364059 -18.691811
v -3.753839 85.635941 -18.691811
v 19.492046 84.436684 -6.544985
v 19.748140 84.046738 -6.094985
v 19.055660 84.271736 -6.094985
v 19.492044 84.436684 6.544985
v 19.055658 84.271736 6.094985
v 19.748137 84.046738 6.094985
v 18.356232 86.000000 -6.544985
v 18.064505 85.635941 -6.094985
v 18.064505 86.364059 -6.094985
v -6.544985 87.563316 -19.492046
v -6.094985 87.728264 -19.055660
v -6.094985 87.953262 -19.748138
v 6.544985 87.563316 -19.492044
v 6.094985 87.953262 -19.748140
v 6.094985 87.728264 -19.055658
v -6.544985 86.966179 -21.329838
v -6.094985 87.432190 -21.351860
v -6.094985 86.843132 -21.779839
v 6.544985 86.966179 -21.329836
v 6.094985 86.843132 -21.779837
v 6.094985 87.432190 -21.351862
v 18.356230 86.000000 6.544985
v 18.064503 86.364059 6.094985
v 18.064503 85.635941 6.094985
v -19.549999 84.500000 1.050000
v -19.549999 84.949997 1.500000
v -20.000000 84.949997 1.050000
v -19.549999 87.050003 1.500000
v -19.549999 87.500000 1.050000
v -20.000000 87.050003 1.050000
v -6.544985 85.033821 -21.329838
v -6.094985 85.156868 -21.779839
v -6.094985 84.567810 -21.351864
v -21.329838 86.966179 -6.544985
v -21.779839 86.843132 -6.094985
v -21.351864 87.432190 -6.094985
v -21.329836 86.966179 6.544985
v -21.351860 87.432190 6.094985
v -21.779837 86.843132 6.094985
v -19.492046 87.563316 -6.544985
v -19.748140 87.953262 -6.094985
v -19.055660 87.728264 -6.094985
v -19.492044 87.563316 6.544985
v -19.055658 87.728264 6.094985
v -19.748137 87.953262 6.094985
v -19.169455 86.000000 3.509992
v -18.691811 86.364059 3.753840
v -18.691811 85.635941 3.753840
v -12.624471 86.000000 14.846238
v -12.596829 85.635941 14.310664
v -12.596828 86.364059 14.310663
v -20.153099 84.436684 4.077899
v -19.550177 84.271736 4.249417
v -20.149881 84.046738 4.595657
v -13.608115 84.436684 15.414146
v -14.054899 84.046738 15.152482
v -13.455194 84.271736 14.806242
v -21.744675 85.033821 4.996796
v -21.538746 84.567810 5.397518
v -21.909386 85.156868 5.611507
v -15.199690 85.033821 16.333042
v -15.814402 85.156868 16.168331
v -15.443764 84.567810 15.954343
v -21.744675 86.966179 4.996795
v -21.909386 86.843132 5.611507
v -21.538748 87.432190 5.397519
v -15.199690 86.966179 16.333042
v -15.443762 87.432190 15.954342
v -15.814402 86.843132 16.168331
v -20.153099 87.563316 4.077900
v -20.149883 87.953262 4.595658
v -19.550177 87.728264 4.249418
v -13.608115 87.563316 15.414146
v -13.455193 87.728264 14.806241
v -14.054897 87.953262 15.152481
v -14.846238 86.000000 12.624470
v -14.310664 86.364059 12.596828
v -14.310663 85.635941 12.596828
v -3.509992 86.000000 19.169456
v -3.753841 85.635941 18.691813
v -3.753840 86.364059 18.691813
v -15.414145 84.436684 13.608114
v -14.806240 84.271736 13.455192
v -15.152481 84.046738 14.054897
v -4.077900 84.436684 20.153101
v -4.595659 84.046738 20.149885
v -4.249419 84.271736 19.550179
v -16.333040 85.033821 15.199689
v -15.954341 84.567810 15.443761
v -16.168329 85.156868 15.814401
v -4.996796 85.033821 21.744675
v -5.611507 85.156868 21.909386
v -5.397520 84.567810 21.538748
v -16.333040 86.966179 15.199689
v -16.168329 86.843132 15.814401
v -15.954342 87.432190 15.443763
v -4.996796 86.966179 21.744675
v -5.397519 87.432190 21.538748
v -5.611507 86.843132 21.909386
v -15.414145 87.563316 13.608114
v -15.152482 87.953262 14.054899
v -14.806241 87.728264 13.455193
v -4.077900 87.563316 20.153101
v -4.249418 87.728264 19.550179
v -4.595658 87.953262 20.149883
v -6.544984 86.000000 18.356230
v -6.094985 86.364059 18.064503
v -6.094985 85.635941 18.064503
v 6.544985 86.000000 18.356232
v 6.094985 85.635941 18.064505
v 6.094985 86.364059 18.064505
v -6.544985 84.436684 19.492044
v -6.094985 84.271736 19.055658
v -6.094985 84.046738 19.748137
v 6.544985 84.436684 19.492046
v 6.094985 84.046738 19.748140
v 6.094985 84.271736 19.055660
v -6.544985 85.033821 21.329836
v -6.094985 84.567810 21.351860
v -6.094985 85.156868 21.779837
v 6.544984 85.033821 21.329838
v 6.094985 85.156868 21.779839
v 6.094985 84.567810 21.351864
v -6.544985 86.966179 21.329836
v -6.094985 86.843132 21.779837
v -6.094985 87.432190 21.351862
v 6.544984 86.966179 21.329838
v 6.094985 87.432190 21.351860
v 6.094985 86.843132 21.779839
v -6.544985 87.563316 19.492044
v -6.094985 87.953262 19.748140
v -6.094985 87.728264 19.055658
v 6.544985 87.563316 19.492046
v 6.094985 87.728264 19.055660
v 6.094985 87.953262 19.748138
v 3.509992 86.000000 19.169453
v 3.753840 86.364059 18.691811
v 3.753840 85.635941 18.691811
v 14.846240 86.000000 12.624472
v 14.310665 85.635941 12.596829
v 14.310665 86.364059 12.596828
v 4.077898 84.436684 20.153097
v 4.249416 84.271736 19.550175
v 4.595656 84.046738 20.149879
v 15.414147 84.436684 13.608117
v 15.152482 84.046738 14.054901
v 14.806242 84.271736 13.455194
v 4.996794 85.033821 21.744673
v 5.397517 84.567810 21.538744
v 5.611506 85.156868 21.909384
v 16.333042 85.033821 15.199692
v 16.168331 85.156868 15.814403
v 15.954343 84.567810 15.443766
v 4.996794 86.966179 21.744673
v 5.611506 86.843132 21.909384
v 5.397518 87.432190 21.538746
v 16.333042 86.966179 15.199692
v 15.954343 87.432190 15.443764
v 16.168331 86.843132 15.814403
v 4.077899 87.563316 20.153097
v 4.595657 87.953262 20.149881
v 4.249417 87.728264 19.550175
v 15.414146 87.563316 13.608117
v 14.806242 87.728264 13.455194
v 15.152481 87.953262 14.054899
v 12.624468 86.000000 14.846236
v 12.596827 86.364059 14.310662
v 12.596825 85.635941 14.310662
v 19.169458 86.000000 3.509993
v 18.691814 85.635941 3.753841
v 18.691814 86.364059 3.753840
v 13.608112 84.436684 15.414145
v 13.455190 84.271736 14.806239
v 14.054895 84.046738 15.152479
v 20.153103 84.436684 4.077901
v 20.149887 84.046738 4.595659
v 19.550180 84.271736 4.249419
v 15.199687 85.033821 16.333040
v 15.443760 84.567810 15.954341
v 15.814399 85.156868 16.168329
v 21.744677 85.033821 4.996797
v 21.909388 85.156868 5.611509
v 21.538750 84.567810 5.397521
v 15.199687 86.966179 16.333040
v 15.814399 86.843132 16.168329
v 15.443761 87.432190 15.954341
v 21.744677 86.966179 4.996797
v 21.538750 87.432190 5.397520
v 21.909388 86.843132 5.611509
v 13.608112 87.563316 15.414145
v 14.054897 87.953262 15.152481
v 13.455191 87.728264 14.806239
v 20.153103 87.563316 4.077900
v 19.550180 87.728264 4.249418
v 20.149885 87.953262 4.595658
v -19.549999 84.500000 -1.050000
v -20.000000 84.949997 -1.050000
v -19.549999 84.949997 -1.500000
v -19.549999 87.500000 -1.050000
v -19.549999 87.050003 -1.500000
v -20.000000 87.050003 -1.050000
v 0.000000 84.500000 1.050000
v 0.000000 84.949997 1.500000
v 0.000000 87.050003 1.500000
v 0.000000 87.500000 1.050000
v 0.000000 84.949997 -1.500000
v 0.000000 84.500000 -1.050000
v 0.000000 87.500000 -1.050000
v 0.000000 87.050003 -1.500000
v 19.549999 84.500000 1.050000
v 20.000000 84.949997 1.050000
v 19.549999 84.949997 1.500000
v 19.549999 87.500000 1.050000
v 19.549999 87.050003 1.500000
v 20.000000 87.050003 1.050000
v 19.549999 84.949997 -1.500000
v 20.000000 84.949997 -1.050000
v 19.549999 84.500000 -1.050000
v 19.549999 87.050003 -1.500000
v 19.549999 87.500000 -1.050000
v 20.000000 87.050003 -1.050000
v 4.077899 87.563316 -20.153101
v 3.509993 86.000000 -19.169456
v 4.996797 86.966179 -21.744677
v -15.199690 85.033821 16.333042
v 4.077900 84.436684 -20.153101
v 4.996797 85.033821 -21.744677
v 16.333040 85.033821 -15.199688
v -19.549999 87.050003 -1.500000
v -19.549999 84.949997 -1.500000
v -20.000000 84.949997 -1.050000
v -20.000000 87.050003 -1.050000
v -21.744675 85.033821 4.996796
v -19.549999 84.500000 -1.050000
v 19.169455 86.000000 -3.509992
v 20.153099 87.563316 -4.077899
v -13.608115 84.436684 15.414146
v 13.608116 87.563316 -15.414146
v 12.624471 86.000000 -14.846239
v -15.414145 84.436684 13.608114
v -19.492044 87.563316 6.544985
v -18.356230 86.000000 6.544985
v -18.356232 86.000000 -6.544985
v -19.492046 87.563316 -6.544985
v 21.744673 86.966179 -4.996795
v 21.744673 85.033821 -4.996795
v 15.199691 85.033821 -16.333042
v 15.199691 86.966179 -16.333042
v -21.329836 86.966179 6.544985
v -21.329838 86.966179 -6.544985
v 18.356230 86.000000 6.544985
v 19.492044 87.563316 6.544985
v 13.608116 84.436684 -15.414146
v 15.414145 84.436684 -13.608114
v -4.996795 85.033821 -21.744673
v -4.077899 84.436684 -20.153099
v -21.329836 85.033821 6.544985
v 21.329836 86.966179 6.544985
v -21.329838 85.033821 -6.544985
v 19.492046 87.563316 -6.544985
v 18.356232 86.000000 -6.544985
v 21.329838 86.966179 -6.544985
v -19.492044 84.436684 6.544985
v 19.492046 84.436684 -6.544985
v 21.329838 85.033821 -6.544985
v 21.329836 85.033821 6.544985
v 6.544985 84.436684 -19.492044
v 6.544985 86.000000 -18.356230
v -20.153099 84.436684 4.077899
v -20.153099 87.563316 -4.077899
v -19.169455 86.000000 -3.509992
v -13.608116 87.563316 -15.414146
v 20.153099 84.436684 -4.077899
v -21.744673 86.966179 -4.996795
v 19.492044 84.436684 6.544985
v -15.199691 86.966179 -16.333042
v -21.744673 85.033821 -4.996795
v -15.199691 85.033821 -16.333042
v -20.153099 84.436684 -4.077899
v -19.492046 84.436684 -6.544985
v -15.414146 87.563316 -13.608116
v -14.846239 86.000000 -12.624471
v -3.509992 86.000000 -19.169455
v -4.077899 87.563316 -20.153099
v -16.333042 86.966179 -15.199691
v -4.996795 86.966179 -21.744673
v 6.544984 86.966179 21.329838
v 14.846240 86.000000 12.624472
v 15.414147 84.436684 13.608117
v -6.544985 87.563316 19.492044
v 15.199687 85.033821 16.333040
v 13.608112 84.436684 15.414145
v 6.544985 87.563316 19.492046
v 12.624468 86.000000 14.846236
v 16.333042 85.033821 15.199692
v 4.996794 86.966179 21.744673
v 16.333042 86.966179 15.199692
v 19.169458 86.000000 3.509993
v 20.153103 84.436684 4.077901
v 4.077899 87.563316 20.153097
v 15.414146 87.563316 13.608117
v -19.549999 87.500000 1.050000
v -19.549999 87.500000 -1.050000
v -20.000000 87.050003 1.050000
v 21.744677 85.033821 4.996797
v 15.199687 86.966179 16.333040
v -19.549999 84.949997 1.500000
v -19.549999 87.050003 1.500000
v -20.000000 84.949997 1.050000
v 21.744677 86.966179 4.996797
v 13.608112 87.563316 15.414145
v -19.549999 84.500000 1.050000
v 20.153103 87.563316 4.077900
v 20.000000 87.050003 -1.050000
v 20.000000 84.949997 -1.050000
v 19.549999 84.949997 -1.500000
v 19.549999 87.050003 -1.500000
v 19.549999 84.500000 1.050000
v 19.549999 84.500000 -1.050000
v 20.000000 84.949997 1.050000
v 19.549999 87.500000 -1.050000
v 19.549999 87.500000 1.050000
v 20.000000 87.050003 1.050000
v 19.549999 87.050003 1.500000
v 19.549999 84.949997 1.500000
vn -0.8484 0.4140 -0.3299
vn -0.0000 1.0000 -0.0000
vn 0.8997 0.4140 -0.1385
vn -0.1385 0.4140 0.8997
vn -0.1665 0.6698 -0.7236
vn 0.2550 -0.0000 -0.9669
vn -0.7099 -0.6698 0.2176
vn 0.5060 0.6698 0.5434
vn 0.2627 -0.0000 0.9649
vn 0.9649 -0.0000 0.2627
vn 0.5434 0.6698 0.5060
vn -0.7099 -0.0000 0.7043
vn -0.7099 0.6698 0.2176
vn 0.7099 0.6698 0.2176
vn -0.7099 -0.0000 -0.7043
vn -0.7099 -0.6698 -0.2176
vn 0.7236 -0.6698 0.1665
vn -0.7099 0.4140 -0.5698
vn -0.7099 -0.4140 -0.5698
vn 0.7099 -0.4140 -0.5698
vn 0.7099 0.4140 -0.5698
vn -0.8997 -0.4140 0.1385
vn -0.3474 0.7193 -0.6017
vn -0.3474 -0.7193 -0.6017
vn -0.6017 0.7193 -0.3474
vn -0.6017 -0.7193 -0.3474
vn 0.3299 -0.4140 0.8484
vn -0.6948 0.7192 -0.0000
vn -0.6948 0.7193 -0.0000
vn -0.6947 -0.7193 -0.0000
vn -0.6017 0.7193 0.3474
vn 0.7099 -0.0000 -0.7043
vn -0.6017 -0.7193 0.3474
vn -0.8997 0.4140 0.1385
vn -0.3474 0.7193 0.6017
vn -0.0000 -0.3118 -0.9501
vn -0.3299 -0.4140 0.8484
vn 0.4751 -0.3118 -0.8228
vn -0.3474 -0.7193 0.6017
vn 0.8228 -0.3118 -0.4751
vn 0.9501 -0.3118 -0.0000
vn 0.3299 0.4140 0.8484
vn 0.8228 -0.3118 0.4751
vn -0.0000 0.7193 0.6947
vn 0.4751 -0.3118 0.8228
vn -0.0000 -0.3118 0.9501
vn -0.0000 -0.7193 0.6947
vn -0.4751 -0.3118 0.8228
vn -0.8228 -0.3118 0.4751
vn 0.3474 0.7193 0.6017
vn -0.9501 -0.3118 -0.0000
vn -0.8228 -0.3118 -0.4751
vn -0.5060 0.6698 -0.5434
vn -0.4751 -0.3118 -0.8228
vn -0.2627 -0.0000 -0.9649
vn 0.3474 -0.7193 0.6017
vn 0.9649 -0.0000 -0.2627
vn 0.5434 -0.6698 -0.5060
vn -0.8997 -0.4140 -0.1385
vn -0.5060 -0.6698 0.5434
vn -0.0000 -0.7193 -0.6947
vn 0.9669 -0.0000 -0.2550
vn 0.7236 0.6698 0.1665
vn -0.9669 -0.0000 -0.2550
vn -0.7236 -0.6698 0.1665
vn -0.0000 0.7193 -0.6947
vn -0.0000 0.7539 -0.6570
vn -0.0000 -1.0000 -0.0000
vn 0.1747 0.9369 -0.3026
vn 0.7099 -0.4140 0.5698
vn 0.3285 0.7539 -0.5690
vn 0.4511 0.4315 -0.7813
vn 0.8660 -0.0000 -0.5000
vn 0.7099 -0.6698 -0.2176
vn 0.6017 -0.7193 0.3474
vn 0.6947 -0.7193 -0.0000
vn 0.3026 0.9369 -0.1747
vn 0.5690 0.7539 -0.3285
vn 0.7813 0.4315 -0.4511
vn -0.4798 0.7345 -0.4798
vn -0.3827 -0.0000 -0.9239
vn 0.3495 0.9369 -0.0000
vn 0.6570 0.7539 -0.0000
vn 0.9021 0.4315 -0.0000
vn -0.4798 -0.7345 -0.4798
vn 0.6017 0.7193 0.3474
vn 0.3026 0.9369 0.1747
vn 0.6948 0.7192 -0.0000
vn 0.5690 0.7539 0.3285
vn 0.7813 0.4315 0.4511
vn 0.6948 0.7193 -0.0000
vn -0.6786 0.7345 -0.0000
vn -0.9239 -0.0000 0.3827
vn 0.1747 0.9369 0.3026
vn 0.3285 0.7539 0.5690
vn 0.4511 0.4315 0.7813
vn 0.5000 -0.0000 -0.8660
vn -0.6786 -0.7345 -0.0000
vn -0.4798 0.7345 0.4798
vn -0.0000 0.9369 0.3495
vn -0.3827 -0.0000 0.9239
vn -0.0000 0.7539 0.6570
vn -0.0000 0.4315 0.9021
vn 0.3474 -0.7193 -0.6017
vn -0.1747 0.9369 0.3026
vn -0.3285 0.7539 0.5690
vn -0.4511 0.4315 0.7813
vn -0.4798 -0.7345 0.4798
vn -0.3027 0.9369 0.1747
vn -0.5690 0.7539 0.3285
vn -0.7813 0.4315 0.4511
vn -0.3495 0.9369 -0.0000
vn 0.6017 -0.7193 -0.3474
vn -0.6570 0.7539 -0.0000
vn -0.9021 0.4315 -0.0000
vn -0.0000 -0.0000 -1.0000
vn -0.3026 0.9369 -0.1747
vn -0.5690 0.7539 -0.3285
vn -0.7813 0.4315 -0.4511
vn -0.6947 0.7193 -0.0000
vn -0.0000 -0.7345 -0.6786
vn 0.3827 -0.0000 -0.9239
vn -0.1747 0.9369 -0.3026
vn -0.3285 0.7539 -0.5690
vn -0.4511 0.4315 -0.7813
vn -0.0000 0.9369 -0.3495
vn -0.0000 0.4315 -0.9021
vn -0.7099 -0.4140 0.5698
vn -0.7099 0.4140 0.5698
vn -0.0000 0.7345 -0.6786
vn 0.4798 -0.7345 0.4798
vn -0.0000 -0.7345 0.6786
vn 0.3827 -0.0000 0.9239
vn 0.9239 -0.0000 0.3827
vn 0.6947 0.7193 -0.0000
vn 0.6017 0.7193 -0.3474
vn 0.3474 0.7193 -0.6017
vn 0.4798 -0.7345 -0.4798
vn 0.6786 -0.7345 -0.0000
vn 0.9239 -0.0000 -0.3827
vn -0.0000 0.7345 0.6786
vn 0.4798 0.7345 0.4798
vn 0.6786 0.7345 -0.0000
vn 0.4798 0.7345 -0.4798
vn -0.5327 -0.7760 0.3376
vn -0.9027 -0.2669 0.3376
vn -0.0000 -0.0000 1.0000
vn 1.0000 -0.0000 -0.0000
vn 0.8660 -0.0000 0.5000
vn 0.5000 -0.0000 0.8660
vn -0.5000 -0.0000 0.8660
vn -0.8660 -0.0000 0.5000
vn -1.0000 -0.0000 -0.0000
vn -0.8660 -0.0000 -0.5000
vn -0.5000 -0.0000 -0.8660
vn -0.9239 -0.0000 -0.3827
vn -0.5327 -0.7760 -0.3376
vn -0.9027 -0.2669 -0.3376
vn -0.0251 -0.9410 0.3376
vn 0.5734 -0.7465 0.3376
vn 0.5734 -0.7465 -0.3376
vn -0.0252 -0.9410 -0.3376
vn 0.8871 -0.3147 0.3376
vn 0.8871 0.3147 0.3376
vn 0.3376 -0.7760 -0.5327
vn 0.3376 -0.2669 -0.9027
vn 0.8871 0.3147 -0.3376
vn 0.8871 -0.3147 -0.3376
vn -0.3376 -0.9410 -0.0251
vn -0.3376 -0.7465 0.5734
vn 0.3376 -0.7465 0.5734
vn 0.3376 -0.9410 -0.0251
vn -0.3376 -0.3147 0.8871
vn -0.3376 0.3147 0.8871
vn 0.3278 0.7465 0.5790
vn -0.1905 0.9410 0.2798
vn 0.1470 0.9410 -0.3049
vn 0.6654 0.7465 -0.0056
vn 0.3376 0.3147 0.8871
vn 0.3376 -0.3147 0.8871
vn -0.5790 0.7465 0.3278
vn -0.2798 0.9410 -0.1906
vn 0.3049 0.9410 0.1470
vn 0.0056 0.7465 0.6654
vn -0.6301 0.7760 0.0260
vn -0.9505 0.2669 -0.1590
vn -0.6130 0.2669 -0.7437
vn -0.2926 0.7760 -0.5587
vn -0.0260 0.7760 -0.6301
vn 0.1590 0.2669 -0.9505
vn 0.7437 0.2669 -0.6130
vn 0.5587 0.7760 -0.2926
vn 0.1590 -0.2669 -0.9505
vn -0.0260 -0.7760 -0.6301
vn -0.9505 -0.2669 -0.1590
vn -0.6302 -0.7760 0.0260
vn -0.2926 -0.7760 -0.5587
vn -0.6130 -0.2669 -0.7437
vn 0.5587 -0.7760 -0.2926
vn 0.7437 -0.2669 -0.6130
vn -0.2798 -0.9410 -0.1906
vn -0.5790 -0.7465 0.3278
vn 0.0056 -0.7465 0.6654
vn 0.3049 -0.9410 0.1470
vn -0.1906 -0.9410 0.2798
vn 0.3278 -0.7465 0.5790
vn 0.6654 -0.7465 -0.0056
vn 0.1470 -0.9410 -0.3049
vn -0.7359 -0.3147 0.5995
vn -0.7359 0.3147 0.5995
vn -0.1512 0.3147 0.9371
vn -0.1512 -0.3147 0.9371
vn -0.6654 0.7465 -0.0056
vn -0.1470 0.9410 -0.3049
vn 0.5995 -0.3147 0.7359
vn 0.5995 0.3147 0.7359
vn 0.9371 0.3147 0.1512
vn 0.9371 -0.3147 0.1512
vn 0.1906 0.9410 0.2798
vn -0.3278 0.7465 0.5790
vn 0.2926 0.7760 -0.5587
vn 0.6130 0.2669 -0.7437
vn 0.9505 0.2669 -0.1590
vn 0.6301 0.7760 0.0260
vn -0.0056 0.7465 0.6654
vn -0.3049 0.9410 0.1470
vn 0.2798 0.9410 -0.1906
vn 0.5790 0.7465 0.3278
vn 0.6130 -0.2669 -0.7437
vn 0.2926 -0.7760 -0.5587
vn 0.6301 -0.7760 0.0260
vn 0.9505 -0.2669 -0.1590
vn -0.1470 -0.9410 -0.3049
vn -0.6654 -0.7465 -0.0056
vn -0.5587 0.7760 -0.2926
vn -0.7437 0.2669 -0.6130
vn -0.1590 0.2669 -0.9505
vn 0.0260 0.7760 -0.6301
vn -0.3278 -0.7465 0.5791
vn 0.1905 -0.9410 0.2798
vn -0.9371 -0.3147 0.1512
vn -0.9371 0.3147 0.1512
vn -0.5995 0.3147 0.7359
vn -0.5995 -0.3147 0.7359
vn -0.7437 -0.2669 -0.6130
vn -0.5587 -0.7760 -0.2926
vn 0.0260 -0.7760 -0.6301
vn -0.1590 -0.2669 -0.9505
vn -0.5734 0.7465 -0.3376
vn 0.0251 0.9410 -0.3376
vn 0.0252 0.9410 0.3376
vn -0.5734 0.7465 0.3376
vn 0.5327 0.7760 -0.3376
vn 0.9027 0.2669 -0.3376
vn -0.3049 -0.9410 0.1470
vn -0.0056 -0.7465 0.6654
vn 0.5791 -0.7465 0.3278
vn 0.2798 -0.9410 -0.1906
vn 0.9027 0.2669 0.3376
vn 0.5327 0.7760 0.3376
vn 0.9027 -0.2669 -0.3376
vn 0.5327 -0.7760 -0.3376
vn 0.5327 -0.7760 0.3376
vn 0.9027 -0.2669 0.3376
vn 0.1512 -0.3147 0.9371
vn 0.1512 0.3147 0.9371
vn 0.7359 0.3147 0.5995
vn 0.7359 -0.3147 0.5995
vn 0.0251 -0.9410 -0.3376
vn -0.5734 -0.7465 -0.3376
vn -0.5734 -0.7465 0.3376
vn 0.0252 -0.9410 0.3376
vn -0.8871 -0.3147 -0.3376
vn -0.8871 0.3147 -0.3376
vn -0.3376 0.7465 0.5734
vn -0.3376 0.9410 -0.0251
vn 0.3376 0.9410 -0.0252
vn 0.3376 0.7465 0.5734
vn -0.3376 0.7760 -0.5327
vn -0.3376 0.2669 -0.9027
vn 0.3376 0.2669 -0.9027
vn 0.3376 0.7760 -0.5327
vn -0.8871 0.3147 0.3376
vn -0.8871 -0.3147 0.3376
vn -0.3376 -0.2669 -0.9027
vn -0.3376 -0.7760 -0.5327
vn -0.9027 0.2669 -0.3376
vn -0.5327 0.7760 -0.3376
vn -0.5327 0.7760 0.3376
vn -0.9027 0.2669 0.3376
vn -0.0252 0.9410 -0.3376
vn 0.5734 0.7465 -0.3376
vn 0.5734 0.7465 0.3376
vn -0.0251 0.9410 0.3376
vn 0.5995 0.3147 -0.7359
vn 0.5995 -0.3147 -0.7359
vn 0.9371 -0.3147 -0.1512
vn 0.9371 0.3147 -0.1512
vn 0.3278 -0.7465 -0.5790
vn -0.1906 -0.9410 -0.2798
vn 0.1470 -0.9410 0.3049
vn 0.6654 -0.7465 0.0056
vn -0.6301 -0.7760 -0.0260
vn -0.9505 -0.2669 0.1590
vn -0.6130 -0.2669 0.7437
vn -0.2926 -0.7760 0.5587
vn -0.9505 0.2669 0.1590
vn -0.6301 0.7760 -0.0260
vn -0.2926 0.7760 0.5587
vn -0.6130 0.2669 0.7437
vn -0.1906 0.9410 -0.2798
vn 0.3278 0.7465 -0.5790
vn 0.6654 0.7465 0.0056
vn 0.1470 0.9410 0.3049
vn 0.1512 0.3147 -0.9371
vn 0.1512 -0.3147 -0.9371
vn 0.7359 -0.3147 -0.5995
vn 0.7359 0.3147 -0.5995
vn -0.0056 -0.7465 -0.6654
vn -0.3049 -0.9410 -0.1470
vn 0.2798 -0.9410 0.1906
vn 0.5790 -0.7465 -0.3278
vn -0.5587 -0.7760 0.2926
vn -0.7437 -0.2669 0.6130
vn -0.1590 -0.2669 0.9505
vn 0.0260 -0.7760 0.6301
vn -0.7437 0.2669 0.6130
vn -0.5587 0.7760 0.2926
vn 0.0260 0.7760 0.6301
vn -0.1590 0.2669 0.9505
vn -0.3049 0.9410 -0.1470
vn -0.0056 0.7465 -0.6654
vn 0.5790 0.7465 -0.3278
vn 0.2798 0.9410 0.1906
vn -0.3376 0.3147 -0.8871
vn -0.3376 -0.3147 -0.8871
vn 0.3376 -0.3147 -0.8871
vn 0.3376 0.3147 -0.8871
vn -0.3376 -0.7465 -0.5734
vn -0.3376 -0.9410 0.0251
vn 0.3376 -0.9410 0.0251
vn 0.3376 -0.7465 -0.5734
vn -0.3376 -0.7760 0.5327
vn -0.3376 -0.2669 0.9027
vn 0.3376 -0.2669 0.9027
vn 0.3376 -0.7760 0.5327
vn -0.3376 0.2669 0.9027
vn -0.3376 0.7760 0.5327
vn 0.3376 0.7760 0.5327
vn 0.3376 0.2669 0.9027
vn -0.3376 0.9410 0.0252
vn -0.3376 0.7465 -0.5734
vn 0.3376 0.7465 -0.5734
vn 0.3376 0.9410 0.0251
vn -0.7359 0.3147 -0.5995
vn -0.7359 -0.3147 -0.5995
vn -0.1512 -0.3147 -0.9371
vn -0.1512 0.3147 -0.9371
vn -0.5790 -0.7465 -0.3278
vn -0.2798 -0.9410 0.1906
vn 0.3049 -0.9410 -0.1470
vn 0.0056 -0.7465 -0.6654
vn -0.0260 -0.7760 0.6301
vn 0.1590 -0.2669 0.9505
vn 0.7437 -0.2669 0.6130
vn 0.5587 -0.7760 0.2926
vn 0.1590 0.2669 0.9505
vn -0.0260 0.7760 0.6301
vn 0.5587 0.7760 0.2926
vn 0.7437 0.2669 0.6130
vn -0.2798 0.9410 0.1906
vn -0.5790 0.7465 -0.3278
vn 0.0056 0.7465 -0.6654
vn 0.3049 0.9410 -0.1470
vn -0.9371 0.3147 -0.1512
vn -0.9371 -0.3147 -0.1512
vn -0.5995 -0.3147 -0.7359
vn -0.5995 0.3147 -0.7359
vn -0.6654 -0.7465 0.0056
vn -0.1470 -0.9410 0.3049
vn 0.1906 -0.9410 -0.2798
vn -0.3278 -0.7465 -0.5790
vn 0.2926 -0.7760 0.5587
vn 0.6130 -0.2669 0.7437
vn 0.9505 -0.2669 0.1590
vn 0.6301 -0.7760 -0.0260
vn 0.6130 0.2669 0.7437
vn 0.2926 0.7760 0.5587
vn 0.6301 0.7760 -0.0260
vn 0.9505 0.2669 0.1590
vn -0.1470 0.9410 0.3049
vn -0.6654 0.7465 0.0056
vn -0.3278 0.7465 -0.5791
vn 0.1906 0.9410 -0.2798
vn 0.3761 -0.8560 0.3546
vn 0.3761 -0.3546 0.8561
vn 0.3761 0.3546 0.8560
vn 0.3761 0.8561 0.3546
vn 0.3761 -0.3546 -0.8560
vn 0.3761 -0.8561 -0.3546
vn 0.3761 0.8560 -0.3546
vn 0.3761 0.3546 -0.8561
vn -0.7236 0.6698 -0.1665
vn -0.9669 -0.0000 0.2550
vn -0.3299 0.4140 -0.8484
vn -0.1385 -0.4140 0.8997
vn -0.7236 -0.6698 -0.1665
vn -0.3299 -0.4140 -0.8484
vn 0.8997 -0.4140 -0.1385
vn -0.4606 0.4606 -0.7588
vn -0.4606 -0.4606 -0.7588
vn -0.7588 -0.4606 -0.4606
vn -0.7588 0.4606 -0.4606
vn -0.8484 -0.4140 -0.3299
vn -0.4606 -0.7588 -0.4606
vn -0.2550 -0.0000 0.9669
vn 0.1665 0.6698 0.7236
vn 0.5434 -0.6698 0.5060
vn -0.5434 0.6698 -0.5060
vn -0.9649 -0.0000 -0.2627
vn -0.5060 -0.6698 -0.5434
vn 0.2176 0.6698 0.7099
vn 0.7043 -0.0000 0.7099
vn 0.7043 -0.0000 -0.7099
vn 0.2176 0.6698 -0.7099
vn 0.8484 0.4140 0.3299
vn 0.8484 -0.4140 0.3299
vn 0.1385 -0.4140 -0.8997
vn 0.1385 0.4140 -0.8997
vn -0.5698 0.4140 0.7099
vn -0.5698 0.4140 -0.7099
vn -0.7043 -0.0000 0.7099
vn -0.2176 0.6698 0.7099
vn -0.5434 -0.6698 -0.5060
vn 0.5060 -0.6698 0.5434
vn 0.3299 -0.4140 -0.8484
vn 0.7236 -0.6698 -0.1665
vn -0.5698 -0.4140 0.7099
vn 0.5698 0.4140 0.7099
vn -0.5698 -0.4140 -0.7099
vn -0.2176 0.6698 -0.7099
vn -0.7043 -0.0000 -0.7099
vn 0.5698 0.4140 -0.7099
vn 0.2176 -0.6698 0.7099
vn -0.2176 -0.6698 -0.7099
vn 0.5698 -0.4140 -0.7099
vn 0.5698 -0.4140 0.7099
vn 0.7099 -0.6698 0.2176
vn 0.7099 -0.0000 0.7043
vn -0.1665 -0.6698 -0.7236
vn -0.1665 0.6698 0.7236
vn 0.2550 -0.0000 0.9669
vn 0.5434 0.6698 -0.5060
vn 0.1665 -0.6698 0.7236
vn -0.8484 0.4140 0.3299
vn -0.2176 -0.6698 0.7099
vn -0.1385 0.4140 -0.8997
vn -0.8484 -0.4140 0.3299
vn -0.1385 -0.4140 -0.8997
vn -0.1665 -0.6698 0.7236
vn 0.2176 -0.6698 -0.7099
vn -0.5060 0.6698 0.5434
vn -0.2627 -0.0000 0.9649
vn 0.9669 -0.0000 0.2550
vn 0.7236 0.6698 -0.1665
vn -0.8997 0.4140 -0.1385
vn 0.3299 0.4140 -0.8484
vn 0.7099 0.4140 0.5698
vn 0.2627 -0.0000 -0.9649
vn 0.5060 -0.6698 -0.5434
vn -0.7099 0.6698 -0.2176
vn 0.1385 -0.4140 0.8997
vn -0.5434 -0.6698 0.5060
vn 0.7099 0.6698 -0.2176
vn -0.9649 -0.0000 0.2627
vn 0.8997 -0.4140 0.1385
vn -0.3299 0.4140 0.8484
vn 0.8997 0.4140 0.1385
vn -0.2550 -0.0000 -0.9669
vn 0.1665 -0.6698 -0.7236
vn -0.7236 0.6698 0.1665
vn 0.5060 0.6698 -0.5434
vn -0.4606 0.7588 0.4606
vn -0.4606 0.7588 -0.4606
vn -0.7588 0.4606 0.4606
vn 0.8484 -0.4140 -0.3299
vn 0.1385 0.4140 0.8997
vn -0.4606 -0.4606 0.7588
vn -0.4606 0.4606 0.7588
vn -0.7588 -0.4606 0.4606
vn 0.8484 0.4140 -0.3299
vn -0.5434 0.6698 0.5060
vn -0.4606 -0.7588 0.4606
vn 0.1665 0.6698 -0.7236
vn 0.7588 0.4606 -0.4606
vn 0.7588 -0.4606 -0.4606
vn 0.4606 -0.4606 -0.7588
vn 0.4606 0.4606 -0.7588
vn 0.4606 -0.7588 0.4606
vn 0.4606 -0.7588 -0.4606
vn 0.7588 -0.4606 0.4606
vn 0.4606 0.7588 -0.4606
vn 0.4606 0.7588 0.4606
vn 0.7588 0.4606 0.4606
vn 0.4606 0.4606 0.7588
vn 0.4606 -0.4606 0.7588
vt 0.194454 5.268198
vt -0.000000 5.122208
vt 0.254067 5.122208
vt 0.275000 4.950000
vt 0.000000 4.950000
vt -0.000000 0.210476
vt 0.194454 0.336805
vt 0.000000 0.388909
vt 0.000000 5.268198
vt 0.254067 5.122208
vt 0.440057 0.254067
vt 0.254067 0.440057
vt 0.440057 5.122208
vt 0.476314 4.950000
vt 0.182277 0.105238
vt 0.388909 -0.000000
vt 0.336805 0.194454
vt 0.000000 0.000000
vt 0.210476 -0.000000
vt 0.000000 -0.550000
vt -0.476314 0.275000
vt 0.476314 0.275000
vt 0.105238 0.182277
vt -0.000000 5.268198
vt -0.254067 5.122208
vt 0.182277 -0.105238
vt -0.275000 4.950000
vt 0.336805 -0.194454
vt 0.105238 -0.182277
vt 0.194454 -0.336805
vt 0.254067 -0.440057
vt 0.440057 -0.254067
vt 0.000000 -0.210476
vt -0.000000 -0.388909
vt 0.194454 5.268198
vt 0.000000 5.122208
vt -0.000000 5.268198
vt -0.254067 5.122208
vt -0.105238 -0.182277
vt -0.194454 -0.336805
vt -0.440057 -0.254067
vt -0.254067 -0.440057
vt -0.182277 -0.105238
vt -0.440057 5.122208
vt -0.476314 4.950000
vt -0.336805 -0.194454
vt -0.388909 0.000000
vt -0.194454 5.268198
vt -0.210476 -0.000000
vt -0.182277 0.105238
vt -0.336805 0.194454
vt 0.000000 5.268198
vt -0.254067 0.440057
vt -0.440057 0.254067
vt -0.105238 0.182277
vt -0.194454 0.336805
vt -0.327249 4.251691
vt -0.304749 4.257843
vt -0.304749 4.228391
vt 0.327249 4.251691
vt 0.304749 4.228391
vt 0.304749 4.257843
vt -0.974602 -0.327249
vt -0.987407 -0.304749
vt -0.952783 -0.304749
vt -0.974602 0.327249
vt -0.952783 0.304749
vt -0.987407 0.304749
vt -0.327249 4.300000
vt -0.304749 4.281797
vt -0.304749 4.318203
vt 0.327249 4.300000
vt 0.304749 4.318203
vt 0.304749 4.281797
vt -0.327249 0.974602
vt -0.304749 0.987407
vt -0.304749 0.952783
vt 0.327249 0.974602
vt 0.304749 0.952783
vt 0.304749 0.987407
vt -1.007655 0.203895
vt -0.977509 0.212471
vt -1.007494 0.229783
vt -0.680406 0.770707
vt -0.702745 0.757624
vt -0.672760 0.740312
vt 0.203895 1.007655
vt 0.212471 0.977509
vt 0.229783 1.007494
vt 0.770707 0.680406
vt 0.757624 0.702745
vt 0.740312 0.672760
vt 0.249840 4.348309
vt 0.269876 4.371610
vt 0.280575 4.342156
vt -0.759985 4.348309
vt -0.790720 4.342156
vt -0.772188 4.371610
vt 0.249840 4.348309
vt 0.269876 4.371610
vt 0.280575 4.342156
vt 0.759984 4.348309
vt 0.790720 4.342156
vt 0.772188 4.371610
vt 0.249840 4.251691
vt 0.280575 4.257843
vt 0.269876 4.228391
vt 0.249840 4.251691
vt 0.280575 4.257843
vt 0.269876 4.228391
vt -0.759985 4.251691
vt -0.772188 4.228391
vt -0.790720 4.257843
vt 0.759984 4.251691
vt 0.772188 4.228391
vt 0.790720 4.257843
vt 0.203895 1.007655
vt 0.229783 1.007494
vt 0.212471 0.977509
vt 0.740312 0.672760
vt 0.757624 0.702745
vt -1.007655 0.203895
vt -1.007494 0.229783
vt -0.977509 0.212471
vt -0.672760 0.740312
vt -0.702745 0.757624
vt 0.958473 4.300000
vt 0.934591 4.281797
vt 0.934591 4.318203
vt 0.742312 4.300000
vt 0.715533 4.318203
vt 0.715533 4.281797
vt 0.680406 0.770707
vt 0.672760 0.740312
vt 0.702745 0.757624
vt -0.958473 4.300000
vt -0.934591 4.281797
vt -0.934591 4.318203
vt 0.742312 4.300000
vt 0.715533 4.318203
vt 1.007655 0.203895
vt 1.007494 0.229783
vt 0.977509 0.212471
vt 0.759985 4.348309
vt 0.772188 4.371610
vt 0.790720 4.342156
vt 0.249840 4.348309
vt 0.269876 4.371610
vt -0.770707 0.680406
vt -0.740312 0.672760
vt -0.757624 0.702745
vt -0.203895 1.007655
vt -0.229783 1.007494
vt -0.212471 0.977509
vt 0.759985 4.251691
vt 0.790720 4.257843
vt 0.772188 4.228391
vt 0.249840 4.251691
vt 0.269876 4.228391
vt 0.702745 0.757624
vt 0.672760 0.740312
vt -0.249840 4.348309
vt -0.280575 4.342156
vt -0.269876 4.371610
vt 1.007655 0.203895
vt 0.977509 0.212471
vt 1.007494 0.229783
vt 0.715533 4.281797
vt 0.958473 4.300000
vt 0.934591 4.318203
vt 0.934591 4.281797
vt -0.249840 4.251691
vt -0.269876 4.228391
vt -0.280575 4.257843
vt 0.974602 0.327249
vt 0.952783 0.304749
vt 0.987407 0.304749
vt 0.974602 -0.327249
vt 0.987407 -0.304749
vt 0.952783 -0.304749
vt 0.327249 4.348309
vt 0.304749 4.371610
vt 0.304749 4.342156
vt -0.757624 0.702745
vt -0.740312 0.672760
vt -0.203895 1.007655
vt -0.212471 0.977509
vt -0.229783 1.007494
vt -0.327249 4.348309
vt -0.304749 4.342156
vt -0.304749 4.371610
vt -0.742312 4.300000
vt -0.715533 4.281797
vt -0.715533 4.318203
vt 0.987407 0.304749
vt 0.987407 -0.304749
vt -0.304749 0.987407
vt 0.304749 0.987407
vt -0.977500 -0.052500
vt -0.977500 -0.075000
vt -1.000000 -0.052500
vt -0.987407 0.304749
vt -0.987407 -0.304749
vt -0.742312 4.300000
vt -0.715533 4.281797
vt -1.007655 -0.203895
vt -0.977509 -0.212471
vt -1.007494 -0.229783
vt -0.680406 -0.770707
vt -0.702745 -0.757624
vt -0.672760 -0.740312
vt -0.249840 4.251691
vt -0.269876 4.228391
vt -0.280575 4.257843
vt -0.759984 4.251691
vt -0.772188 4.228391
vt -0.280575 4.342156
vt -0.269876 4.371610
vt -0.759984 4.348309
vt -0.772188 4.371610
vt -1.007655 -0.203895
vt -1.007494 -0.229783
vt -0.977509 -0.212471
vt -0.672760 -0.740312
vt -0.702745 -0.757624
vt -0.715533 4.318203
vt -0.715533 4.281797
vt -0.958473 4.300000
vt -0.934591 4.281797
vt -0.934591 4.318203
vt -0.770707 -0.680406
vt -0.740312 -0.672760
vt -0.757624 -0.702745
vt -0.203895 -1.007655
vt -0.229783 -1.007494
vt -0.212471 -0.977509
vt -0.759984 4.251691
vt -0.772188 4.228391
vt -0.790720 4.257843
vt -0.280575 4.257843
vt -0.269876 4.228391
vt -0.759984 4.348309
vt -0.790720 4.342156
vt -0.772188 4.371610
vt -0.249840 4.348309
vt -0.280575 4.342156
vt -0.757624 -0.702745
vt -0.740312 -0.672760
vt -0.203895 -1.007655
vt -0.212471 -0.977509
vt -0.229783 -1.007494
vt -0.304749 4.318203
vt -0.304749 4.281797
vt 0.327249 4.300000
vt 0.304749 4.281797
vt 0.304749 4.318203
vt -0.327249 -0.974602
vt -0.304749 -0.952783
vt -0.304749 -0.987407
vt 0.327249 -0.974602
vt 0.304749 -0.987407
vt 0.304749 -0.952783
vt -0.327249 4.251691
vt -0.304749 4.228391
vt -0.304749 4.257843
vt 0.304749 4.257843
vt 0.304749 4.228391
vt -0.327249 4.348309
vt -0.304749 4.342156
vt -0.304749 4.371610
vt 0.304749 4.371610
vt 0.304749 4.342156
vt -0.304749 -0.987407
vt 0.304749 -0.987407
vt -0.958473 4.300000
vt 0.742312 4.300000
vt 0.203895 -1.007655
vt 0.212471 -0.977509
vt 0.229783 -1.007494
vt 0.770707 -0.680406
vt 0.757624 -0.702745
vt 0.740312 -0.672760
vt 0.249840 4.251691
vt 0.269876 4.228391
vt -0.759985 4.251691
vt -0.772188 4.228391
vt 0.249840 4.348309
vt 0.280575 4.342156
vt -0.759985 4.348309
vt -0.772188 4.371610
vt 0.203895 -1.007655
vt 0.229783 -1.007494
vt 0.212471 -0.977509
vt 0.770707 -0.680406
vt 0.740312 -0.672760
vt 0.757624 -0.702745
vt -0.742312 4.300000
vt 0.958473 4.300000
vt 0.680406 -0.770707
vt 0.672759 -0.740312
vt 0.702745 -0.757624
vt 1.007655 -0.203895
vt 1.007494 -0.229783
vt 0.977509 -0.212471
vt 0.790720 4.257843
vt -0.249840 4.251691
vt -0.280575 4.257843
vt -0.269876 4.228391
vt 0.790720 4.342156
vt -0.249840 4.348309
vt -0.269876 4.371610
vt -0.280575 4.342156
vt 0.702745 -0.757624
vt 0.672760 -0.740312
vt 1.007655 -0.203895
vt 0.977509 -0.212471
vt 1.007494 -0.229783
vt -0.977500 0.052500
vt -1.000000 0.052500
vt -0.977500 0.075000
vt 0.977500 -0.052500
vt 1.000000 -0.052500
vt 0.977500 -0.075000
vt 0.977500 0.075000
vt 1.000000 0.052500
vt 0.977500 0.052500
vt 0.528275 0.305000
vt 0.293353 0.508103
vt 0.305000 0.528275
vt 0.500000 0.866025
vt -0.000000 0.976706
vt 0.000000 1.000000
vt 0.113137 0.113137
vt 0.135646 0.000000
vt 0.160000 0.000000
vt 0.488353 0.845852
vt 0.113137 -0.113137
vt 0.000000 -0.135646
vt 0.000000 -0.160000
vt 0.866025 0.500000
vt 0.095916 0.095916
vt 0.845852 0.488353
vt 0.508103 0.293353
vt 1.000000 0.000000
vt 0.976706 -0.000000
vt 0.095916 -0.095916
vt 0.866025 -0.500000
vt 0.976706 0.000000
vt 0.845852 -0.488353
vt 0.500000 -0.866025
vt 0.488353 -0.845852
vt 0.000000 -1.000000
vt 0.000000 0.160000
vt -0.000000 -0.976706
vt -0.500000 -0.866025
vt 0.000000 -0.976706
vt -0.488353 -0.845852
vt -1.088992 4.342156
vt -1.066492 4.251691
vt -1.088992 4.257843
vt -0.866025 -0.500000
vt -0.845852 -0.488353
vt 0.135646 -0.000000
vt -1.000000 0.000000
vt 0.000000 0.135646
vt -0.976706 0.000000
vt -0.866025 0.500000
vt -0.976706 -0.000000
vt 0.550000 0.000000
vt 0.456141 0.263353
vt -0.845852 0.488353
vt -0.500000 0.866025
vt 0.187692 4.318203
vt 0.187692 4.281797
vt -0.488353 0.845852
vt 0.000000 0.976706
vt -0.113137 -0.113137
vt -0.000000 -0.135646
vt 0.000000 0.550000
vt 0.263353 0.456141
vt -0.000000 0.526706
vt -0.095916 -0.095916
vt 0.275000 0.476314
vt -0.160000 0.000000
vt -0.135646 -0.000000
vt 0.610000 0.000000
vt 0.508103 -0.293353
vt 0.528275 -0.305000
vt -0.113137 0.113137
vt -0.135646 0.000000
vt -0.095916 0.095916
vt -0.000000 0.135646
vt 0.586706 0.000000
vt 0.456141 -0.263353
vt 0.526706 0.000000
vt -0.987407 4.202337
vt -1.067593 4.228391
vt 0.275000 -0.476314
vt 0.476314 -0.275000
vt 0.263353 -0.456141
vt 0.000000 0.610000
vt -0.263353 -0.456141
vt 0.000000 -0.526706
vt -1.007655 4.221834
vt -0.977509 4.386413
vt -0.476314 -0.275000
vt -0.275000 -0.476314
vt -0.550000 0.000000
vt -0.456141 -0.263353
vt 0.000000 0.586706
vt -0.456141 0.263353
vt -0.526706 -0.000000
vt 0.702745 4.202337
vt -0.275000 0.476314
vt 0.740312 4.213587
vt -0.263353 0.456141
vt 0.305000 -0.528275
vt -0.770707 4.378166
vt -0.740312 4.386413
vt 0.293353 -0.508103
vt 0.000000 -0.610000
vt 0.000000 -0.586706
vt -0.269876 -1.076937
vt -0.305000 -0.528275
vt 0.249840 -1.087234
vt -0.293353 -0.508103
vt -0.702745 4.397663
vt -0.528275 -0.305000
vt -0.952783 4.213587
vt -0.917812 4.300000
vt -0.974602 4.221834
vt -0.508103 -0.293353
vt -0.797717 4.371610
vt -0.610000 0.000000
vt -0.586706 0.000000
vt -0.528275 0.305000
vt -0.508103 0.293353
vt -0.305000 0.528275
vt -0.293353 0.508103
vt 1.088992 4.342156
vt 1.066492 4.251691
vt 1.088992 4.257843
vt 1.066492 4.348309
vt -0.808416 4.257843
vt -0.249840 -1.087234
vt -0.269876 -1.076937
vt -0.952783 4.213587
vt -0.917812 4.300000
vt -0.903225 4.281797
vt 0.987407 4.397663
vt 1.067593 4.371610
vt 1.067593 4.371610
vt 0.974602 4.378166
vt 0.987407 4.397663
vt 0.903225 4.318203
vt 0.917812 4.300000
vt 0.740312 4.386413
vt 0.770707 4.378166
vt 0.987407 4.202337
vt 1.067593 4.228391
vt -1.007655 4.378166
vt -0.977509 4.386413
vt -0.187692 4.281797
vt -0.187692 4.318203
vt -0.680406 4.378166
vt -0.702745 4.397663
vt -1.067593 4.228391
vt -0.974602 4.221834
vt -0.987407 4.202337
vt 0.797717 4.371610
vt 0.903225 4.281797
vt 0.974602 4.221834
vt 0.952783 4.213587
vt 0.702745 4.397663
vt -1.087234 -0.249840
vt -1.076937 -0.269876
vt -0.977509 4.213587
vt -1.007655 4.221834
vt 0.977509 4.386413
vt -0.808417 4.342156
vt 0.269876 1.076937
vt 0.249840 1.087234
vt 0.269876 1.076937
vt -0.977500 4.247500
vt -1.000000 4.352500
vt -0.977500 4.352500
vt 0.000000 0.075000
vt 0.000000 0.052500
vt -0.797717 4.228391
vt -0.808417 4.257843
vt 1.007655 4.378166
vt 0.977509 4.386413
vt -0.702745 4.202337
vt 0.808416 4.257843
vt 0.770707 4.378166
vt -0.740312 4.213587
vt -0.903225 4.318203
vt -0.974602 4.378166
vt -0.952783 4.386413
vt -0.974602 4.378166
vt 0.797717 4.371610
vt 0.808417 4.342156
vt 0.680406 4.378166
vt 0.702745 4.397663
vt 1.007655 4.221834
vt 0.977509 4.213587
vt 1.087234 0.249840
vt 1.076937 0.269876
vt -1.067593 4.371610
vt -0.987407 4.397663
vt -0.702745 4.202337
vt -0.680406 4.221834
vt -0.987407 4.397663
vt -1.066492 4.348309
vt -1.067593 4.371610
vt 0.952783 4.386413
vt 0.917812 4.300000
vt 0.974602 4.378166
vt 0.770707 4.221834
vt -0.770707 4.221834
vt -0.740312 4.213587
vt 0.187692 4.281797
vt -0.269876 1.076937
vt 0.797717 4.228391
vt 0.808417 4.257843
vt 0.770707 4.221834
vt 0.740312 4.213587
vt -0.187692 4.281797
vt -0.187692 4.318203
vt -1.067593 4.228391
vt 0.952783 4.213587
vt 0.903225 4.281797
vt 0.702745 4.202337
vt 0.680406 4.221834
vt 0.187692 4.281797
vt -0.977509 4.386413
vt 0.740312 4.386413
vt 0.977509 4.213587
vt -1.076937 0.269876
vt 1.067593 4.228391
vt 0.974602 4.221834
vt 0.987407 4.202337
vt -1.087234 -0.249840
vt -0.702745 4.397663
vt 0.797717 4.371610
vt -1.087234 0.249840
vt -1.076937 0.269876
vt -0.903225 4.281797
vt 1.076937 0.269876
vt -0.770707 4.378166
vt -0.702745 4.202337
vt -0.680406 4.221834
vt -0.987407 4.202337
vt -0.249840 1.087234
vt -0.269876 1.076937
vt -0.977509 4.213587
vt 0.187692 4.318203
vt 0.770707 4.221834
vt -1.067593 4.371610
vt 0.702745 4.202337
vt 0.680406 4.221834
vt -0.987407 4.397663
vt -0.952783 4.386413
vt -0.903225 4.318203
vt -0.702745 4.202337
vt 0.977509 4.213587
vt 1.007655 4.221834
vt 0.269876 -1.076937
vt 0.249840 -1.087234
vt -0.680406 4.378166
vt 1.076937 -0.269876
vt 1.087234 -0.249840
vt -1.000000 4.247500
vt -0.797717 4.371610
vt 0.702745 4.397663
vt 1.076937 -0.269876
vt -0.740312 4.386413
vt 1.007655 4.378166
vt 0.000000 -0.052500
vt 0.000000 -0.075000
vt 1.000000 4.247500
vt 0.977500 4.352500
vt 1.000000 4.352500
vt 0.977500 4.247500
vt -1.067593 0.304749
vt 0.000000 0.227500
vt 0.500000 0.022500
vt 0.000000 0.022500
vt -0.500000 0.227500
vt -0.500000 0.022500
vt 0.866025 0.227500
vt 0.866025 0.022500
vt 0.500000 0.227500
vt -0.866025 0.022500
vt -0.866025 0.227500
vt 0.000000 3.177500
vt 0.113137 0.122500
vt 0.000000 0.122500
vt -0.113137 3.177500
vt -0.113137 0.122500
vt 0.113137 3.177500
vt 0.275000 3.272500
vt 0.000000 3.272500
vt -0.275000 3.272500
vt 0.476314 3.272500
vt -0.476314 3.272500
vt 0.000000 4.877500
vt 0.305000 4.322500
vt 0.000000 4.322500
vt -0.305000 4.877500
vt -0.305000 4.322500
vt 0.528275 4.877500
vt 0.528275 4.322500
vt 0.305000 4.877500
vt -0.528275 4.322500
vt -0.528275 4.877500
vt 0.304749 4.213587
vt -0.304749 4.386413
vt 0.304749 4.386413
vt 0.304749 1.067593
vt -1.087234 4.251691
vt -0.772188 0.797717
vt 0.212471 4.386413
vt -0.631224 4.300000
vt 1.007655 4.378166
vt 1.087234 4.251691
vt 0.797717 0.772188
vt 0.187692 4.318203
vt 0.631223 4.300000
vt 0.808416 4.342156
vt 0.797717 0.772188
vt -0.772188 0.797717
vt 0.212471 4.213587
vt 0.740312 4.213587
vt 0.187692 4.281797
vt 0.680406 4.221834
vt 0.772188 0.797717
vt 0.740312 4.386413
vt 0.212471 4.386413
vt 1.087234 4.251691
vt 1.087234 4.348309
vt 0.631224 4.300000
vt -0.797717 0.772188
vt -0.212471 4.386413
vt 1.007655 4.221834
vt 0.212471 4.213587
vt 1.067593 0.304749
vt 1.067593 -0.304749
vt -0.212471 4.213587
vt 1.067593 -0.304749
vt -0.304749 4.213587
vt -0.304749 1.067593
vt 0.304749 1.067593
vt -0.052500 4.352500
vt 0.052500 4.247500
vt -0.052500 4.247500
vt 0.000000 4.352500
vt 0.000000 4.247500
vt -1.067593 -0.304749
vt -1.067593 0.304749
vt -1.087234 4.251691
vt -0.212471 4.213587
vt -0.212471 4.386413
vt -1.076937 -0.269876
vt -0.772188 -0.797717
vt -0.631223 4.300000
vt -0.187692 4.281797
vt -0.212471 4.386413
vt -1.087234 4.348309
vt -0.797717 -0.772188
vt -0.808416 4.342156
vt -0.797717 -0.772188
vt -0.304749 -1.067593
vt 0.304749 -1.067593
vt -0.304749 -1.067593
vt 0.212471 4.213587
vt 0.269876 -1.076937
vt 0.797717 -0.772188
vt 0.680406 4.378166
vt 0.631223 4.300000
vt -0.187692 4.281797
vt 1.087234 4.348309
vt 0.772188 -0.797717
vt 0.772188 -0.797717
vt 0.052500 4.375000
vt -0.075000 4.352500
vt -0.052500 4.225000
vt 0.052500 4.352500
vt 0.194454 5.268198
vt -0.194454 5.268198
vt -0.194454 5.268198
vt 0.194454 5.268198
vt -0.977509 4.213587
vt -1.007655 4.378166
vt -0.249840 -1.087234
vt -0.797717 4.228391
vt 0.952783 4.386413
vt 0.680406 4.378166
vt 0.249840 1.087234
vt 0.797717 4.228391
vt -0.770707 4.221834
vt 0.903225 4.318203
vt -0.249840 1.087234
vt -1.087234 0.249840
vt -0.680406 4.378166
vt 0.797717 4.228391
vt 1.087234 0.249840
vt -0.680406 4.221834
vt 0.977509 4.386413
vt -1.067593 -0.304749
vt -0.304749 1.067593
vt -1.087234 4.348309
vt 0.212471 4.386413
vt 0.212471 4.213587
vt 0.772188 0.797717
vt -0.797717 0.772188
vt 1.067593 0.304749
vt -0.772188 -0.797717
vt -0.212471 4.213587
vt 0.304749 -1.067593
vt 0.797717 -0.772188
vt -0.212471 4.213587
vt 0.052500 4.225000
vt 0.075000 4.247500
vt 0.075000 4.352500
vt -0.052500 4.375000
vt -0.075000 4.247500
s 1
f 109/1/78 119/2/84 110/3/79
f 200/2/127 46/4/38 44/5/36
f 197/6/126 100/7/71 91/8/67
f 91/9/67 101/10/72 200/2/127
f 100/7/71 110/11/79 101/12/72
f 101/13/72 48/4/40 46/14/38
f 107/15/77 118/16/83 109/17/78
f 107/15/77 2/18/2 116/19/82
f 56/20/46 64/21/52 48/22/40
f 197/6/126 2/18/2 98/23/69
f 98/23/69 109/17/78 100/7/71
f 98/23/69 2/18/2 107/15/77
f 110/3/79 50/5/41 48/4/40
f 118/24/83 128/25/90 119/2/84
f 116/19/82 2/18/2 125/26/87
f 119/2/84 52/27/43 50/5/41
f 116/19/82 127/28/89 118/16/83
f 125/26/87 2/18/2 134/29/94
f 128/13/90 54/4/45 52/14/43
f 125/26/87 136/30/95 127/28/89
f 127/28/89 137/31/96 128/32/90
f 137/3/96 56/5/46 54/4/45
f 136/30/95 143/33/100 145/34/102
f 136/35/95 146/36/103 137/3/96
f 134/29/94 2/18/2 143/33/100
f 145/37/102 155/38/107 146/36/103
f 143/33/100 2/18/2 152/39/105
f 146/36/103 58/27/48 56/5/46
f 143/33/100 154/40/106 145/34/102
f 154/40/106 164/41/111 155/42/107
f 152/39/105 2/18/2 161/43/109
f 58/27/48 164/44/111 60/45/49
f 152/39/105 163/46/110 154/40/106
f 164/25/111 62/5/51 60/27/49
f 161/43/109 172/47/114 163/46/110
f 163/48/110 173/2/115 164/25/111
f 161/43/109 2/18/2 170/49/112
f 173/2/115 64/4/52 62/5/51
f 172/47/114 179/50/117 181/51/118
f 172/52/114 182/3/119 173/2/115
f 170/49/112 2/18/2 179/50/117
f 181/51/118 191/53/125 182/54/119
f 179/50/117 2/18/2 188/55/123
f 64/4/52 191/13/125 66/14/54
f 181/51/118 188/55/123 190/56/124
f 190/48/124 200/2/127 191/25/125
f 188/55/123 2/18/2 197/6/126
f 191/25/125 44/5/36 66/27/54
f 190/56/124 197/6/126 91/8/67
f 837/57/438 268/58/146 267/59/145
f 839/60/440 414/61/157 415/62/158
f 843/63/444 417/64/159 418/65/160
f 860/66/461 420/67/161 421/68/162
f 822/69/423 423/70/163 424/71/164
f 20/60/20 426/61/165 427/62/166
f 823/72/424 429/73/167 430/74/168
f 7/75/7 432/76/169 433/77/170
f 847/78/448 435/79/171 436/80/172
f 12/69/12 438/70/173 439/71/174
f 850/81/451 441/82/175 442/83/176
f 852/84/453 444/85/177 445/86/178
f 848/72/449 447/73/179 448/74/180
f 802/87/403 450/88/181 451/89/182
f 8/90/8 453/91/183 454/92/184
f 854/93/455 456/94/185 457/95/186
f 856/96/457 459/97/187 460/98/188
f 804/99/405 462/100/189 463/101/190
f 3/102/3 465/103/191 466/104/192
f 807/105/408 468/106/193 469/107/194
f 857/108/458 471/109/195 472/110/196
f 858/111/459 474/112/197 475/113/198
f 808/114/409 477/115/199 478/116/200
f 806/117/407 480/118/201 481/119/202
f 834/90/435 483/120/203 484/121/204
f 859/122/460 486/123/205 487/124/206
f 71/84/58 489/125/207 490/126/208
f 803/127/404 492/128/209 493/129/210
f 9/130/9 495/131/211 496/132/212
f 818/133/419 498/134/213 499/135/214
f 851/136/452 501/137/215 502/138/216
f 70/139/57 504/140/217 505/132/218
f 816/141/417 507/142/219 508/143/220
f 828/144/429 510/145/221 511/146/222
f 825/147/426 513/95/223 514/148/224
f 861/149/462 516/150/225 517/151/226
f 864/152/465 519/153/227 520/154/228
f 827/155/428 522/156/229 523/157/230
f 826/158/427 525/159/231 526/109/232
f 833/133/434 528/160/233 529/161/234
f 865/144/466 531/145/235 532/146/236
f 866/162/467 534/163/237 535/164/238
f 853/165/454 537/166/239 538/167/240
f 819/139/420 540/168/241 541/131/242
f 815/169/416 543/170/243 544/171/244
f 74/155/59 546/156/245 547/157/246
f 835/172/436 549/173/247 550/174/248
f 840/175/441 552/176/249 553/177/250
f 832/178/433 555/179/251 556/180/252
f 842/181/443 558/182/253 559/183/254
f 75/149/60 561/184/255 562/185/256
f 836/186/437 564/187/257 565/188/258
f 838/189/439 567/190/259 568/191/260
f 845/60/446 570/62/261 571/61/262
f 846/57/447 573/59/263 574/58/264
f 862/192/463 576/193/265 577/194/266
f 863/169/464 579/170/267 580/171/268
f 844/175/445 582/195/269 583/176/270
f 855/178/456 585/180/271 586/196/272
f 841/72/442 588/74/273 589/73/274
f 13/75/13 591/77/275 592/197/276
f 14/78/14 594/198/277 595/79/278
f 18/189/18 597/191/279 598/190/280
f 21/181/21 600/183/281 601/182/282
f 831/69/432 603/71/283 604/70/284
f 892/199/493 887/200/488 889/201/490
f 888/200/489 882/199/483 884/201/485
f 19/57/19 612/58/285 613/59/286
f 830/181/431 615/183/287 616/182/288
f 829/189/430 618/191/289 619/190/290
f 824/66/425 621/202/291 622/67/292
f 821/63/422 624/65/293 625/203/294
f 6/136/6 627/138/295 628/137/296
f 10/204/10 630/205/297 631/194/298
f 849/206/450 633/207/299 634/208/300
f 817/209/418 636/210/301 637/211/302
f 813/212/414 639/213/303 640/214/304
f 805/215/406 642/113/305 643/216/306
f 1/162/1 645/217/307 646/218/308
f 4/219/4 648/220/309 649/97/310
f 5/221/5 651/222/311 652/223/312
f 11/209/11 654/224/313 655/225/314
f 67/204/55 657/226/315 658/227/316
f 84/228/62 660/229/317 661/230/318
f 820/231/421 663/232/319 664/233/320
f 17/234/17 666/235/321 667/236/322
f 22/237/22 669/238/323 670/239/324
f 31/212/27 672/240/325 673/241/326
f 41/242/34 675/243/327 676/244/328
f 51/245/42 678/218/329 679/246/330
f 65/231/53 681/247/331 682/248/332
f 85/249/63 684/250/333 685/251/334
f 15/69/15 687/252/335 688/253/336
f 38/254/32 690/255/337 691/256/338
f 16/257/16 693/258/339 694/259/340
f 103/260/74 696/261/341 697/262/342
f 201/263/128 699/264/343 700/265/344
f 99/60/70 702/266/345 703/267/346
f 202/268/129 705/269/347 706/270/348
f 867/181/468 708/271/349 709/272/350
f 870/257/471 711/273/351 712/258/352
f 873/260/474 714/262/353 715/274/354
f 86/275/64 717/138/355 718/137/356
f 868/276/469 720/168/357 721/140/358
f 87/277/65 723/278/359 724/279/360
f 869/280/470 726/281/361 727/282/362
f 45/283/37 729/284/363 730/109/364
f 875/285/476 732/113/365 733/286/366
f 876/287/477 735/288/367 736/148/368
f 877/289/478 738/290/369 739/97/370
f 880/291/481 741/292/371 742/293/372
f 881/294/482 744/295/373 745/296/374
f 874/297/475 747/194/375 748/227/376
f 878/298/479 750/128/377 751/129/378
f 872/299/473 753/300/379 754/301/380
f 879/302/480 756/303/381 757/304/382
f 871/114/472 759/115/383 760/305/384
f 885/306/486 762/307/385 763/308/386
f 886/102/487 765/309/387 766/104/388
f 890/310/491 768/311/389 769/312/390
f 891/299/492 771/313/391 772/314/392
f 893/315/494 774/316/393 775/317/394
f 814/318/415 811/319/412 810/320/411
f 883/318/484 809/320/410 812/319/413
f 898/321/499 900/322/501 905/323/506
f 902/321/503 904/323/505 903/322/504
f 896/324/497 895/325/496 899/326/500
f 897/324/498 901/326/502 894/325/495
f 272/327/113 270/328/104 273/329/104
f 264/330/104 262/331/61 265/332/61
f 259/333/144 256/334/143 261/335/143
f 254/332/66 252/336/137 255/330/137
f 249/337/142 246/338/141 251/339/141
f 245/340/113 263/336/104 264/330/104
f 241/335/139 238/341/138 243/333/138
f 255/330/137 236/342/136 237/340/136
f 234/329/137 232/343/136 235/327/136
f 231/344/76 244/342/113 245/340/113
f 229/344/135 236/342/136 228/345/135
f 225/339/132 222/346/131 227/337/131
f 221/347/75 230/348/76 231/344/76
f 229/344/135 218/349/86 219/347/86
f 217/350/56 220/349/75 221/347/75
f 219/347/86 214/351/50 215/350/50
f 213/352/47 216/351/56 217/350/56
f 211/353/130 257/341/144 259/333/144
f 208/352/44 214/351/50 207/354/44
f 261/335/143 247/346/142 249/337/142
f 206/355/39 212/356/47 213/352/47
f 208/352/44 203/357/35 204/355/35
f 705/358/347 201/359/128 700/360/344
f 199/361/33 205/357/39 206/355/39
f 204/355/35 195/362/31 196/361/31
f 227/337/131 239/363/139 241/335/139
f 194/364/30 198/362/33 199/361/33
f 243/333/138 186/365/121 189/353/121
f 185/364/120 195/362/31 184/366/120
f 180/367/26 193/368/30 194/364/30
f 176/369/76 171/370/113 177/22/113
f 185/364/120 168/371/25 169/367/25
f 167/372/24 178/371/26 180/367/26
f 717/373/355 720/168/357 718/374/356
f 169/367/25 160/375/23 162/372/23
f 265/332/61 166/375/24 167/372/24
f 254/332/66 160/375/23 253/376/66
f 159/377/108 223/378/132 225/339/132
f 153/379/61 150/380/104 149/381/61
f 251/339/141 142/382/99 148/377/99
f 177/22/113 150/380/104 151/383/104
f 141/384/98 157/382/108 159/377/108
f 148/377/99 132/385/92 135/384/92
f 130/386/91 124/387/86 131/388/86
f 123/389/85 139/390/98 141/384/98
f 700/265/344 703/267/346 702/266/345
f 135/384/92 114/391/80 117/389/80
f 189/353/121 121/391/85 123/389/85
f 117/389/80 209/392/130 211/353/130
f 112/388/75 106/393/76 113/386/76
f 176/369/76 104/394/75 175/395/76
f 696/396/341 99/359/70 703/397/346
f 97/398/56 104/394/75 105/399/75
f 95/20/47 96/400/56 97/398/56
f 92/401/66 233/328/137 234/329/137
f 235/327/136 126/393/88 130/386/91
f 95/20/47 88/402/39 94/403/47
f 718/137/356 87/404/65 86/275/64
f 684/405/333 84/228/62 661/230/318
f 83/406/33 88/402/39 89/407/39
f 113/386/76 271/343/113 272/327/113
f 81/408/30 82/409/33 83/406/33
f 273/329/104 78/410/61 79/401/61
f 595/79/278 592/197/276 591/77/275
f 81/408/30 76/411/26 80/412/30
f 561/413/255 74/155/59 547/157/246
f 73/414/24 76/411/26 77/21/26
f 489/415/207 70/139/57 505/132/218
f 153/379/61 72/416/24 73/414/24
f 69/417/56 108/387/75 112/388/75
f 657/226/315 65/418/53 682/419/332
f 131/388/86 61/420/50 63/417/50
f 684/250/333 681/247/331 685/251/334
f 59/421/47 68/420/56 69/417/56
f 63/417/50 53/422/44 55/421/44
f 678/423/329 85/249/63 685/251/334
f 49/424/39 57/422/47 59/421/47
f 724/279/360 45/425/37 87/277/65
f 55/421/44 42/426/35 43/424/35
f 681/427/331 41/242/34 676/244/328
f 40/428/33 47/426/39 49/424/39
f 697/429/342 38/430/32 103/431/74
f 43/424/35 36/432/31 37/428/31
f 676/433/328 679/246/330 678/218/329
f 35/434/30 39/432/33 40/428/33
f 37/428/31 32/435/28 33/434/29
f 672/240/325 51/245/42 679/246/330
f 30/436/26 34/435/30 35/434/30
f 33/434/29 27/437/25 28/436/25
f 754/301/380 757/304/382 756/303/381
f 26/438/24 29/437/26 30/436/26
f 28/436/25 23/439/23 24/438/23
f 79/401/61 25/439/24 26/438/24
f 24/438/23 90/410/66 92/401/66
f 675/243/327 22/237/22 670/239/324
f 691/256/338 688/253/336 687/252/335
f 600/440/281 20/441/20 427/442/166
f 601/182/282 598/190/280 597/191/279
f 612/442/285 18/443/18 598/440/280
f 670/444/324 673/241/326 672/240/325
f 666/235/321 31/445/27 673/446/326
f 693/447/339 15/448/15 688/449/336
f 594/450/277 21/443/21 601/451/282
f 597/452/279 13/453/13 592/454/276
f 439/455/174 13/453/13 12/456/12
f 654/419/313 10/204/10 631/194/298
f 454/457/184 9/130/9 8/458/8
f 432/459/169 19/441/19 613/460/286
f 565/188/258 562/185/256 561/184/255
f 627/138/295 5/461/5 652/462/312
f 577/194/266 580/463/268 579/464/267
f 427/62/166 613/59/286 612/58/285
f 421/68/162 418/65/160 417/64/159
f 652/223/312 655/225/314 654/224/313
f 648/220/309 11/465/11 655/466/314
f 699/467/343 16/468/16 694/469/340
f 466/470/192 463/101/190 462/100/189
f 438/471/173 7/472/7 433/473/170
f 453/474/183 3/102/3 466/104/192
f 651/222/311 1/475/1 646/476/308
f 667/477/322 84/228/62 17/478/17
f 454/92/184 451/89/182 450/88/181
f 450/479/181 803/127/404 493/129/210
f 646/218/308 649/480/310 648/433/309
f 462/481/189 802/87/403 451/89/182
f 642/113/305 4/219/4 649/97/310
f 480/118/201 807/482/408 469/483/194
f 465/103/191 808/114/409 478/116/200
f 810/484/411 812/485/413 809/486/410
f 726/281/361 723/278/359 727/282/362
f 645/217/307 813/212/414 640/214/304
f 468/106/193 804/99/405 463/101/190
f 814/318/415 786/487/399 787/488/400
f 661/464/318 658/227/316 657/226/315
f 439/71/174 448/74/180 447/73/179
f 640/214/304 643/489/306 642/490/305
f 490/126/208 487/124/206 486/123/205
f 543/170/243 816/491/417 508/492/220
f 508/143/220 499/135/214 498/134/213
f 636/493/301 805/215/406 643/216/306
f 478/494/200 469/107/194 468/106/193
f 541/131/242 818/495/419 819/139/420
f 436/80/172 433/77/170 432/76/169
f 663/496/319 67/204/55 658/227/316
f 424/497/164 821/498/422 822/448/423
f 622/499/292 823/430/424 824/500/425
f 526/109/232 825/147/426 826/158/427
f 510/501/221 513/95/223 511/502/222
f 522/156/229 828/144/429 511/146/222
f 622/67/292 625/203/294 624/65/293
f 510/145/221 818/503/419 499/504/214
f 492/128/209 806/505/407 481/506/202
f 507/142/219 825/507/426 514/508/224
f 618/509/289 821/498/422 625/510/294
f 664/511/320 22/237/22 820/512/421
f 621/513/291 830/514/431 616/515/288
f 556/516/252 831/517/432 832/518/433
f 528/413/233 827/155/428 523/157/230
f 496/132/212 834/519/435 9/130/9
f 630/205/297 817/520/418 637/521/302
f 616/182/288 619/190/290 618/191/289
f 495/131/211 492/522/209 496/132/212
f 549/523/247 836/186/437 565/188/258
f 268/360/146 829/514/430 619/358/290
f 526/109/232 523/524/230 522/525/229
f 694/259/340 697/262/342 696/261/341
f 568/191/260 559/183/254 558/182/253
f 540/168/241 833/526/434 529/527/234
f 555/450/251 838/443/439 568/451/260
f 615/358/287 839/359/440 415/360/158
f 556/180/252 553/177/250 552/176/249
f 589/455/274 840/453/441 841/456/442
f 631/194/298 628/528/296 627/529/295
f 558/452/253 840/453/441 553/454/250
f 415/62/158 267/59/145 268/58/146
f 417/396/159 837/359/438 267/530/145
f 582/459/269 845/441/446 571/460/262
f 567/440/259 846/441/447 574/442/264
f 435/531/171 848/517/449 448/532/180
f 628/137/296 849/404/450 6/136/6
f 484/533/204 808/114/409 834/534/435
f 541/131/242 544/535/244 543/373/243
f 570/442/261 842/443/443 559/440/254
f 441/536/175 851/136/452 502/138/216
f 504/140/217 852/495/453 445/537/178
f 441/82/175 444/85/177 442/83/176
f 588/471/273 844/472/445 583/473/270
f 537/538/239 815/169/416 544/171/244
f 586/196/272 583/176/270 582/195/269
f 456/539/185 850/81/451 442/83/176
f 573/540/263 855/541/456 586/542/272
f 538/167/240 529/161/234 528/160/233
f 634/208/300 813/543/414 849/206/450
f 574/58/264 571/61/262 570/62/261
f 444/544/177 856/96/457 460/98/188
f 423/449/163 843/468/444 418/447/160
f 426/540/165 847/541/448 436/542/172
f 585/531/271 831/517/432 604/532/284
f 460/545/188 457/95/186 456/94/185
f 457/95/186 857/108/458 854/93/455
f 664/233/320 667/236/322 666/235/321
f 459/97/187 858/111/459 475/113/198
f 424/71/164 430/74/168 429/73/167
f 475/525/198 472/110/196 471/109/195
f 486/123/205 857/546/458 472/547/196
f 484/121/204 481/119/202 480/118/201
f 589/73/274 604/70/284 603/71/283
f 420/429/161 823/430/424 430/548/168
f 525/549/231 853/165/454 538/167/240
f 577/194/266 861/550/462 862/192/463
f 490/551/208 858/111/459 71/552/58
f 579/170/267 864/491/465 520/492/228
f 520/154/228 517/151/226 516/150/225
f 564/538/257 863/169/464 580/171/268
f 595/516/278 848/517/449 14/518/14
f 576/193/265 75/520/60 562/521/256
f 531/145/235 861/503/462 517/504/226
f 414/467/157 860/431/461 421/553/162
f 519/153/227 866/554/467 535/555/238
f 501/137/215 859/404/460 487/556/206
f 531/433/235 534/163/237 532/480/236
f 546/156/245 865/144/466 532/146/236
f 634/208/300 637/211/302 636/210/301
f 550/174/248 866/162/467 835/172/436
f 502/557/216 505/132/218 504/140/217
f 550/174/248 547/489/246 546/490/245
f 702/360/345 867/514/468 709/358/350
f 706/270/348 709/272/350 708/271/349
f 720/168/357 869/558/470 727/527/362
f 711/513/351 202/514/129 706/559/348
f 754/560/380 871/114/472 872/561/473
f 715/562/354 867/514/468 873/500/474
f 712/258/352 715/274/354 714/262/353
f 712/563/352 15/448/15 870/498/471
f 714/499/353 38/430/32 691/564/338
f 753/496/379 874/297/475 748/227/376
f 726/565/361 875/285/476 733/286/366
f 730/109/364 733/524/366 732/525/365
f 751/529/378 748/227/376 747/194/375
f 735/288/367 45/283/37 730/109/364
f 732/113/365 877/289/478 739/97/370
f 736/148/368 739/502/370 738/545/369
f 757/566/382 878/298/479 879/567/480
f 736/568/368 880/291/481 876/569/477
f 738/290/369 881/570/482 745/427/374
f 742/293/372 745/296/374 744/295/373
f 717/138/355 880/461/481 742/536/372
f 744/537/373 868/276/469 721/140/358
f 883/318/484 884/201/485 882/199/483
f 763/571/386 879/302/480 885/572/486
f 760/444/384 763/308/386 762/307/385
f 765/309/387 871/114/472 760/305/384
f 888/486/489 889/573/490 887/484/488
f 762/307/385 890/310/491 769/312/390
f 766/574/388 769/312/390 768/311/389
f 788/488/401 809/320/410 883/318/484
f 771/575/391 886/102/487 766/104/388
f 892/199/493 811/319/412 814/318/415
f 768/576/389 893/315/494 775/317/394
f 772/314/392 775/317/394 774/316/393
f 772/577/392 874/297/475 891/418/492
f 751/129/378 893/578/494 878/298/479
f 782/579/395 887/200/488 892/199/493
f 882/199/483 784/580/397 785/579/398
f 895/581/496 897/582/498 894/583/495
f 899/326/500 900/322/501 898/321/499
f 902/321/503 894/325/495 901/326/502
f 905/584/506 903/583/504 904/582/505
f 787/488/400 896/324/497 899/326/500
f 901/326/502 789/487/402 788/488/401
f 898/321/499 783/580/396 782/579/395
f 785/579/398 904/323/505 902/321/503
f 422/448/147 617/514/147 269/359/147
f 417/64/159 414/585/157 421/68/162
f 268/58/146 615/183/287 415/62/158
f 93/348/68 289/357/68 305/375/68
f 174/586/116 156/587/97 192/588/116
f 308/589/155 192/588/116 306/590/155
f 303/371/2 287/354/2 111/342/2
f 138/591/97 120/587/73 156/592/97
f 102/593/73 274/588/148 120/587/73
f 276/586/148 278/590/149 274/588/148
f 280/589/149 282/594/150 278/590/149
f 284/593/150 286/588/147 282/587/150
f 288/586/147 290/590/151 286/588/147
f 292/595/151 294/590/152 290/594/151
f 296/589/152 298/588/153 294/590/152
f 300/586/153 302/587/154 298/588/153
f 304/593/154 306/592/155 302/587/154
f 317/363/68 325/378/68 333/390/68
f 210/596/122 242/597/122 187/598/122
f 115/599/81 310/598/81 122/600/81
f 315/341/2 339/391/2 331/382/2
f 316/601/140 240/598/140 314/597/140
f 320/596/134 226/600/134 318/598/134
f 324/601/133 224/598/133 322/597/133
f 328/596/101 158/600/101 326/598/101
f 332/599/93 140/598/93 330/600/93
f 336/596/156 338/597/156 334/598/156
f 355/402/68 363/416/68 347/395/68
f 44/5/36 344/602/97 342/603/116
f 66/27/54 342/603/116 364/604/155
f 46/14/38 346/602/73 344/605/97
f 48/4/40 348/603/148 346/602/73
f 50/5/41 350/604/149 348/603/148
f 52/27/43 352/606/150 350/604/149
f 54/4/45 354/603/147 352/602/150
f 56/5/46 356/604/151 354/603/147
f 58/45/48 358/604/152 356/606/151
f 60/27/49 360/603/153 358/604/152
f 62/5/51 362/602/154 360/603/153
f 64/4/52 364/605/155 362/602/154
f 405/437/68 373/343/68 389/422/68
f 368/607/116 370/608/97 366/609/116
f 412/610/155 366/609/116 410/611/155
f 387/420/2 371/328/2 403/435/2
f 372/612/97 374/608/73 370/613/97
f 376/614/73 378/609/148 374/608/73
f 380/607/148 382/611/149 378/609/148
f 384/610/149 386/615/150 382/611/149
f 388/614/150 390/609/147 386/608/150
f 392/607/147 394/611/151 390/609/147
f 396/616/151 398/611/152 394/615/151
f 400/610/152 402/609/153 398/611/152
f 404/607/153 406/608/154 402/609/153
f 408/614/154 410/613/155 406/608/154
f 614/514/116 428/430/116 419/431/116
f 423/70/163 420/617/161 430/74/168
f 624/618/293 429/73/167 622/619/292
f 593/518/148 434/541/148 425/441/148
f 432/76/169 426/620/165 436/80/172
f 612/58/285 600/183/281 427/62/166
f 596/443/153 431/472/153 437/456/153
f 438/70/173 435/617/171 448/74/180
f 591/618/275 447/73/179 595/619/278
f 470/621/151 500/136/151 440/461/151
f 456/539/185 444/85/177 460/622/188
f 441/623/175 504/140/217 445/537/178
f 503/624/97 473/111/97 458/96/97
f 449/625/154 467/626/154 479/505/154
f 466/627/192 451/89/182 453/91/183
f 454/457/184 493/628/210 495/131/211
f 494/629/149 476/114/149 464/102/149
f 471/109/195 459/502/187 475/525/198
f 468/106/193 465/630/191 478/494/200
f 480/118/201 477/631/199 484/121/204
f 486/123/205 474/632/197 490/126/208
f 496/132/212 481/633/202 483/634/203
f 501/635/215 489/415/207 505/132/218
f 497/503/155 521/155/155 527/636/155
f 510/637/221 507/142/219 514/508/224
f 498/638/213 543/373/243 508/639/220
f 542/169/150 524/640/150 512/641/150
f 522/525/229 513/95/223 526/109/232
f 545/155/152 575/642/152 515/503/152
f 531/643/235 519/153/227 535/555/238
f 516/419/225 579/464/267 520/644/228
f 563/645/73 533/641/73 518/491/73
f 528/160/233 525/549/231 538/167/240
f 540/168/241 537/646/239 544/535/244
f 546/490/245 534/163/237 550/174/248
f 561/184/255 549/523/247 565/188/258
f 551/453/116 569/441/116 581/472/116
f 558/647/253 555/179/251 568/648/260
f 552/619/249 603/71/283 556/618/252
f 602/517/147 572/441/147 566/443/147
f 570/62/261 567/190/259 574/58/264
f 576/193/265 564/649/257 580/463/268
f 582/195/269 573/650/263 586/196/272
f 588/74/273 585/651/271 604/70/284
f 597/652/279 594/198/277 601/653/282
f 787/488/400 605/199/68 776/318/68
f 610/654/153 777/655/153 607/656/153
f 784/657/397 606/484/147 783/658/396
f 779/318/2 785/579/398 788/488/401
f 618/659/289 621/202/291 616/660/288
f 638/661/155 650/461/155 626/136/155
f 630/205/297 633/662/299 628/528/296
f 654/419/313 627/529/295 652/663/312
f 629/624/150 647/219/150 641/215/150
f 636/210/301 639/664/303 634/208/300
f 642/490/305 645/217/307 640/214/304
f 648/665/309 651/222/311 646/476/308
f 668/237/154 680/465/154 656/666/154
f 660/667/317 663/496/319 658/227/316
f 684/668/333 657/226/315 682/419/332
f 659/228/149 677/669/149 671/661/149
f 666/235/321 669/670/323 664/233/320
f 672/240/325 675/671/327 670/444/324
f 678/423/329 681/247/331 676/672/328
f 698/359/153 710/498/153 686/448/153
f 690/255/337 693/651/339 688/253/336
f 714/619/353 687/252/335 712/618/352
f 689/430/148 707/514/148 701/359/148
f 696/261/341 699/673/343 694/259/340
f 702/266/345 705/269/347 700/265/344
f 708/674/349 711/273/351 706/675/348
f 728/621/152 740/461/152 716/275/152
f 720/168/357 723/676/359 718/374/356
f 744/537/373 717/373/355 742/639/372
f 719/624/73 737/289/73 731/285/73
f 726/281/361 729/677/363 724/279/360
f 732/525/365 735/288/367 730/109/364
f 738/678/369 741/292/371 736/568/368
f 758/114/151 770/679/151 746/680/151
f 750/681/377 753/496/379 748/227/376
f 774/663/393 747/194/375 772/577/392
f 749/298/97 767/682/97 761/626/97
f 756/303/381 759/683/383 754/301/380
f 762/307/385 765/671/387 760/444/384
f 766/684/388 775/317/394 771/313/391
f 780/486/116 786/658/399 778/484/116
f 798/326/68 782/579/395 787/488/400
f 788/685/401 784/686/397 782/687/395
f 794/582/147 783/658/396 792/584/147
f 788/488/401 793/321/2 800/326/2
f 789/657/402 796/584/116 786/658/399
f 801/688/148 791/656/148 797/655/148
f 109/1/78 118/24/83 119/2/84
f 200/2/127 101/10/72 46/4/38
f 197/6/126 98/23/69 100/7/71
f 91/9/67 100/689/71 101/10/72
f 100/7/71 109/17/78 110/11/79
f 101/13/72 110/3/79 48/4/40
f 107/15/77 116/19/82 118/16/83
f 48/22/40 50/369/41 52/399/43
f 52/399/43 54/398/45 56/20/46
f 56/20/46 58/407/48 60/406/49
f 60/406/49 62/408/51 64/21/52
f 64/21/52 66/414/54 44/379/36
f 44/379/36 46/383/38 48/22/40
f 48/22/40 52/399/43 56/20/46
f 56/20/46 60/406/49 64/21/52
f 64/21/52 44/379/36 48/22/40
f 98/23/69 107/15/77 109/17/78
f 110/3/79 119/2/84 50/5/41
f 118/24/83 127/690/89 128/25/90
f 119/2/84 128/25/90 52/27/43
f 116/19/82 125/26/87 127/28/89
f 128/13/90 137/3/96 54/4/45
f 125/26/87 134/29/94 136/30/95
f 127/28/89 136/30/95 137/31/96
f 137/3/96 146/36/103 56/5/46
f 136/30/95 134/29/94 143/33/100
f 136/35/95 145/37/102 146/36/103
f 145/37/102 154/691/106 155/38/107
f 146/36/103 155/38/107 58/27/48
f 143/33/100 152/39/105 154/40/106
f 154/40/106 163/46/110 164/41/111
f 58/27/48 155/38/107 164/44/111
f 152/39/105 161/43/109 163/46/110
f 164/25/111 173/2/115 62/5/51
f 161/43/109 170/49/112 172/47/114
f 163/48/110 172/52/114 173/2/115
f 173/2/115 182/3/119 64/4/52
f 172/47/114 170/49/112 179/50/117
f 172/52/114 181/692/118 182/3/119
f 181/51/118 190/56/124 191/53/125
f 64/4/52 182/3/119 191/13/125
f 181/51/118 179/50/117 188/55/123
f 190/48/124 91/9/67 200/2/127
f 191/25/125 200/2/127 44/5/36
f 190/56/124 188/55/123 197/6/126
f 272/327/113 271/343/113 270/328/104
f 264/330/104 263/336/104 262/331/61
f 259/333/144 257/341/144 256/334/143
f 254/332/66 253/376/66 252/336/137
f 249/337/142 247/346/142 246/338/141
f 245/340/113 244/342/113 263/336/104
f 241/335/139 239/363/139 238/341/138
f 255/330/137 252/336/137 236/342/136
f 234/329/137 233/328/137 232/343/136
f 231/344/76 230/348/76 244/342/113
f 229/344/135 237/340/136 236/342/136
f 225/339/132 223/378/132 222/346/131
f 221/347/75 220/349/75 230/348/76
f 229/344/135 228/345/135 218/349/86
f 217/350/56 216/351/56 220/349/75
f 219/347/86 218/349/86 214/351/50
f 213/352/47 212/356/47 216/351/56
f 211/353/130 209/392/130 257/341/144
f 208/352/44 215/350/50 214/351/50
f 261/335/143 256/334/143 247/346/142
f 206/355/39 205/357/39 212/356/47
f 208/352/44 207/354/44 203/357/35
f 705/358/347 202/514/129 201/359/128
f 199/361/33 198/362/33 205/357/39
f 204/355/35 203/357/35 195/362/31
f 227/337/131 222/346/131 239/363/139
f 194/364/30 193/368/30 198/362/33
f 243/333/138 238/341/138 186/365/121
f 185/364/120 196/361/31 195/362/31
f 180/367/26 178/371/26 193/368/30
f 176/369/76 175/395/76 171/370/113
f 185/364/120 184/366/120 168/371/25
f 167/372/24 166/375/24 178/371/26
f 717/373/355 721/140/358 720/168/357
f 169/367/25 168/371/25 160/375/23
f 265/332/61 262/331/61 166/375/24
f 254/332/66 162/372/23 160/375/23
f 159/377/108 157/382/108 223/378/132
f 153/379/61 151/383/104 150/380/104
f 251/339/141 246/338/141 142/382/99
f 177/22/113 171/370/113 150/380/104
f 141/384/98 139/390/98 157/382/108
f 148/377/99 142/382/99 132/385/92
f 130/386/91 126/393/88 124/387/86
f 123/389/85 121/391/85 139/390/98
f 700/265/344 699/264/343 703/267/346
f 135/384/92 132/385/92 114/391/80
f 189/353/121 186/365/121 121/391/85
f 117/389/80 114/391/80 209/392/130
f 112/388/75 108/387/75 106/393/76
f 176/369/76 105/399/75 104/394/75
f 696/396/341 103/431/74 99/359/70
f 97/398/56 96/400/56 104/394/75
f 95/20/47 94/403/47 96/400/56
f 92/401/66 90/410/66 233/328/137
f 235/327/136 232/343/136 126/393/88
f 95/20/47 89/407/39 88/402/39
f 718/137/356 723/693/359 87/404/65
f 684/405/333 85/694/63 84/228/62
f 83/406/33 82/409/33 88/402/39
f 113/386/76 106/393/76 271/343/113
f 81/408/30 80/412/30 82/409/33
f 273/329/104 270/328/104 78/410/61
f 595/79/278 594/198/277 592/197/276
f 81/408/30 77/21/26 76/411/26
f 561/413/255 75/636/60 74/155/59
f 73/414/24 72/416/24 76/411/26
f 489/415/207 71/526/58 70/139/57
f 153/379/61 149/381/61 72/416/24
f 69/417/56 68/420/56 108/387/75
f 657/226/315 67/204/55 65/418/53
f 131/388/86 124/387/86 61/420/50
f 684/250/333 682/248/332 681/247/331
f 59/421/47 57/422/47 68/420/56
f 63/417/50 61/420/50 53/422/44
f 678/423/329 51/695/42 85/249/63
f 49/424/39 47/426/39 57/422/47
f 724/279/360 729/677/363 45/425/37
f 55/421/44 53/422/44 42/426/35
f 681/427/331 65/465/53 41/242/34
f 40/428/33 39/432/33 47/426/39
f 697/429/342 690/548/337 38/430/32
f 43/424/35 42/426/35 36/432/31
f 676/433/328 675/671/327 679/246/330
f 35/434/30 34/435/30 39/432/33
f 37/428/31 36/432/31 32/435/28
f 672/240/325 31/212/27 51/245/42
f 30/436/26 29/437/26 34/435/30
f 33/434/29 32/435/28 27/437/25
f 754/301/380 753/300/379 757/304/382
f 26/438/24 25/439/24 29/437/26
f 28/436/25 27/437/25 23/439/23
f 79/401/61 78/410/61 25/439/24
f 24/438/23 23/439/23 90/410/66
f 675/243/327 41/242/34 22/237/22
f 691/256/338 690/255/337 688/253/336
f 600/440/281 21/443/21 20/441/20
f 601/182/282 600/183/281 598/190/280
f 612/442/285 19/441/19 18/443/18
f 670/444/324 669/696/323 673/241/326
f 666/235/321 17/234/17 31/445/27
f 693/447/339 16/468/16 15/448/15
f 594/450/277 14/518/14 21/443/21
f 597/452/279 18/443/18 13/453/13
f 439/455/174 591/697/275 13/453/13
f 654/419/313 11/550/11 10/204/10
f 454/457/184 495/131/211 9/130/9
f 432/459/169 7/472/7 19/441/19
f 565/188/258 564/187/257 562/185/256
f 627/138/295 6/136/6 5/461/5
f 577/194/266 576/193/265 580/463/268
f 427/62/166 426/61/165 613/59/286
f 421/68/162 420/67/161 418/65/160
f 652/223/312 651/222/311 655/225/314
f 648/220/309 4/219/4 11/465/11
f 699/467/343 201/359/128 16/468/16
f 466/470/192 465/630/191 463/101/190
f 438/471/173 12/456/12 7/472/7
f 453/474/183 8/698/8 3/102/3
f 651/222/311 5/221/5 1/475/1
f 667/477/322 660/229/317 84/228/62
f 454/92/184 453/91/183 451/89/182
f 450/479/181 802/625/403 803/127/404
f 646/218/308 645/217/307 649/480/310
f 462/481/189 804/699/405 802/87/403
f 642/113/305 805/215/406 4/219/4
f 480/118/201 806/117/407 807/482/408
f 465/103/191 3/102/3 808/114/409
f 810/484/411 811/573/412 812/485/413
f 726/281/361 724/279/360 723/278/359
f 645/217/307 1/162/1 813/212/414
f 468/106/193 807/105/408 804/99/405
f 814/318/415 810/320/411 786/487/399
f 661/464/318 660/667/317 658/227/316
f 439/71/174 438/70/173 448/74/180
f 640/214/304 639/213/303 643/489/306
f 490/126/208 489/125/207 487/124/206
f 543/170/243 815/169/416 816/491/417
f 508/143/220 507/142/219 499/135/214
f 636/493/301 817/512/418 805/215/406
f 478/494/200 477/700/199 469/107/194
f 541/131/242 498/638/213 818/495/419
f 436/80/172 435/79/171 433/77/170
f 663/496/319 820/701/421 67/204/55
f 424/497/164 624/563/293 821/498/422
f 622/499/292 429/564/167 823/430/424
f 526/109/232 513/95/223 825/147/426
f 510/501/221 514/148/224 513/95/223
f 522/156/229 827/155/428 828/144/429
f 622/67/292 621/202/291 625/203/294
f 510/145/221 828/144/429 818/503/419
f 492/128/209 803/127/404 806/505/407
f 507/142/219 816/141/417 825/507/426
f 618/509/289 829/514/430 821/498/422
f 664/511/320 669/238/323 22/237/22
f 621/513/291 824/500/425 830/514/431
f 556/516/252 603/702/283 831/517/432
f 528/413/233 833/636/434 827/155/428
f 496/132/212 483/634/203 834/519/435
f 630/205/297 10/204/10 817/520/418
f 616/182/288 615/183/287 619/190/290
f 495/131/211 493/628/210 492/522/209
f 549/523/247 835/703/436 836/186/437
f 268/360/146 837/359/438 829/514/430
f 526/109/232 525/159/231 523/524/230
f 694/259/340 693/258/339 697/262/342
f 568/191/260 567/190/259 559/183/254
f 540/168/241 819/139/420 833/526/434
f 555/450/251 832/518/433 838/443/439
f 615/358/287 830/514/431 839/359/440
f 556/180/252 555/179/251 553/177/250
f 589/455/274 552/697/249 840/453/441
f 631/194/298 630/205/297 628/528/296
f 558/452/253 842/443/443 840/453/441
f 415/62/158 414/61/157 267/59/145
f 417/396/159 843/468/444 837/359/438
f 582/459/269 844/472/445 845/441/446
f 567/440/259 838/443/439 846/441/447
f 435/531/171 847/541/448 848/517/449
f 628/137/296 633/556/299 849/404/450
f 484/533/204 477/115/199 808/114/409
f 541/131/242 540/168/241 544/535/244
f 570/442/261 845/441/446 842/443/443
f 441/536/175 850/461/451 851/136/452
f 504/140/217 70/139/57 852/495/453
f 441/82/175 445/86/178 444/85/177
f 588/471/273 841/456/442 844/472/445
f 537/538/239 853/645/454 815/169/416
f 586/196/272 585/180/271 583/176/270
f 456/539/185 854/704/455 850/81/451
f 573/540/263 846/441/447 855/541/456
f 538/167/240 537/166/239 529/161/234
f 634/208/300 639/664/303 813/543/414
f 574/58/264 573/59/263 571/61/262
f 444/544/177 852/705/453 856/96/457
f 423/449/163 822/448/423 843/468/444
f 426/540/165 20/441/20 847/541/448
f 585/531/271 855/541/456 831/517/432
f 460/545/188 459/502/187 457/95/186
f 457/95/186 471/109/195 857/108/458
f 664/233/320 663/232/319 667/236/322
f 459/97/187 856/96/457 858/111/459
f 424/71/164 423/70/163 430/74/168
f 475/525/198 474/706/197 472/110/196
f 486/123/205 859/122/460 857/546/458
f 484/121/204 483/120/203 481/119/202
f 589/73/274 588/74/273 604/70/284
f 420/429/161 860/431/461 823/430/424
f 525/549/231 826/707/427 853/165/454
f 577/194/266 516/419/225 861/550/462
f 490/551/208 474/112/197 858/111/459
f 579/170/267 863/169/464 864/491/465
f 520/154/228 519/153/227 517/151/226
f 564/538/257 836/645/437 863/169/464
f 595/516/278 447/702/179 848/517/449
f 576/193/265 862/192/463 75/520/60
f 531/145/235 865/144/466 861/503/462
f 414/467/157 839/359/440 860/431/461
f 519/153/227 864/152/465 866/554/467
f 501/137/215 851/136/452 859/404/460
f 531/433/235 535/164/238 534/163/237
f 546/156/245 74/155/59 865/144/466
f 634/208/300 633/207/299 637/211/302
f 550/174/248 534/163/237 866/162/467
f 502/557/216 501/635/215 505/132/218
f 550/174/248 549/173/247 547/489/246
f 702/360/345 99/359/70 867/514/468
f 706/270/348 705/269/347 709/272/350
f 720/168/357 868/276/469 869/558/470
f 711/513/351 870/498/471 202/514/129
f 754/560/380 759/115/383 871/114/472
f 715/562/354 708/509/349 867/514/468
f 712/258/352 711/273/351 715/274/354
f 712/563/352 687/497/335 15/448/15
f 714/499/353 873/500/474 38/430/32
f 753/496/379 872/701/473 874/297/475
f 726/565/361 869/708/470 875/285/476
f 730/109/364 729/284/363 733/524/366
f 751/529/378 750/681/377 748/227/376
f 735/288/367 876/287/477 45/283/37
f 732/113/365 875/285/476 877/289/478
f 736/148/368 735/288/367 739/502/370
f 757/566/382 750/128/377 878/298/479
f 736/568/368 741/292/371 880/291/481
f 738/290/369 877/289/478 881/570/482
f 742/293/372 741/292/371 745/296/374
f 717/138/355 86/275/64 880/461/481
f 744/537/373 881/495/482 868/276/469
f 883/318/484 812/319/413 884/201/485
f 763/571/386 756/303/381 879/302/480
f 760/444/384 759/696/383 763/308/386
f 765/309/387 886/102/487 871/114/472
f 888/486/489 884/485/485 889/573/490
f 762/307/385 885/306/486 890/310/491
f 766/574/388 765/671/387 769/312/390
f 788/488/401 789/487/402 809/320/410
f 771/575/391 891/679/492 886/102/487
f 892/199/493 889/201/490 811/319/412
f 768/576/389 890/572/491 893/315/494
f 772/314/392 771/313/391 775/317/394
f 772/577/392 747/194/375 874/297/475
f 751/129/378 774/709/393 893/578/494
f 782/579/395 783/580/396 887/200/488
f 882/199/483 888/200/489 784/580/397
f 895/581/496 896/584/497 897/582/498
f 899/326/500 895/325/496 900/322/501
f 902/321/503 903/322/504 894/325/495
f 905/584/506 900/581/501 903/583/504
f 787/488/400 786/487/399 896/324/497
f 901/326/502 897/324/498 789/487/402
f 898/321/499 905/323/506 783/580/396
f 785/579/398 784/580/397 904/323/505
f 269/359/147 416/468/147 422/448/147
f 422/448/147 623/498/147 617/514/147
f 417/64/159 267/710/145 414/585/157
f 268/58/146 619/190/290 615/183/287
f 305/375/68 266/331/68 165/336/68
f 165/336/68 129/342/68 93/348/68
f 93/348/68 277/349/68 281/351/68
f 281/351/68 285/356/68 289/357/68
f 289/357/68 293/362/68 297/368/68
f 297/368/68 301/371/68 305/375/68
f 305/375/68 165/336/68 93/348/68
f 93/348/68 281/351/68 289/357/68
f 289/357/68 297/368/68 305/375/68
f 174/586/116 138/593/97 156/587/97
f 308/589/155 174/586/116 192/588/116
f 111/342/2 147/336/2 183/376/2
f 183/376/2 307/375/2 303/371/2
f 303/371/2 299/366/2 295/362/2
f 295/362/2 291/357/2 287/354/2
f 287/354/2 283/351/2 279/349/2
f 279/349/2 275/345/2 111/342/2
f 111/342/2 183/376/2 303/371/2
f 303/371/2 295/362/2 287/354/2
f 287/354/2 279/349/2 111/342/2
f 138/591/97 102/593/73 120/587/73
f 102/593/73 276/586/148 274/588/148
f 276/586/148 280/589/149 278/590/149
f 280/589/149 284/595/150 282/594/150
f 284/593/150 288/586/147 286/588/147
f 288/586/147 292/589/151 290/590/151
f 292/595/151 296/589/152 294/590/152
f 296/589/152 300/586/153 298/588/153
f 300/586/153 304/593/154 302/587/154
f 304/593/154 308/591/155 306/592/155
f 333/390/68 337/391/68 309/365/68
f 309/365/68 313/341/68 317/363/68
f 317/363/68 321/346/68 325/378/68
f 325/378/68 329/382/68 333/390/68
f 333/390/68 309/365/68 317/363/68
f 210/596/122 258/601/122 242/597/122
f 115/599/81 312/596/81 310/598/81
f 331/382/2 327/338/2 323/346/2
f 323/346/2 319/334/2 315/341/2
f 315/341/2 311/392/2 339/391/2
f 339/391/2 335/385/2 331/382/2
f 331/382/2 323/346/2 315/341/2
f 316/601/140 260/596/140 240/598/140
f 320/596/134 248/599/134 226/600/134
f 324/601/133 250/596/133 224/598/133
f 328/596/101 144/599/101 158/600/101
f 332/599/93 133/596/93 140/598/93
f 336/596/156 340/601/156 338/597/156
f 347/395/68 349/394/68 351/400/68
f 351/400/68 353/403/68 355/402/68
f 355/402/68 357/409/68 359/412/68
f 359/412/68 361/411/68 363/416/68
f 363/416/68 341/381/68 343/380/68
f 343/380/68 345/370/68 347/395/68
f 347/395/68 351/400/68 355/402/68
f 355/402/68 359/412/68 363/416/68
f 363/416/68 343/380/68 347/395/68
f 44/5/36 46/4/38 344/602/97
f 66/27/54 44/5/36 342/603/116
f 46/14/38 48/4/40 346/602/73
f 48/4/40 50/5/41 348/603/148
f 50/5/41 52/27/43 350/604/149
f 52/27/43 54/45/45 352/606/150
f 54/4/45 56/5/46 354/603/147
f 56/5/46 58/27/48 356/604/151
f 58/45/48 60/27/49 358/604/152
f 60/27/49 62/5/51 360/603/153
f 62/5/51 64/4/52 362/602/154
f 64/4/52 66/14/54 364/605/155
f 389/422/68 393/426/68 397/432/68
f 397/432/68 401/435/68 405/437/68
f 405/437/68 409/439/68 365/410/68
f 365/410/68 369/328/68 373/343/68
f 373/343/68 377/393/68 381/387/68
f 381/387/68 385/420/68 389/422/68
f 389/422/68 397/432/68 405/437/68
f 405/437/68 365/410/68 373/343/68
f 373/343/68 381/387/68 389/422/68
f 368/607/116 372/614/97 370/608/97
f 412/610/155 368/607/116 366/609/116
f 403/435/2 399/432/2 395/426/2
f 395/426/2 391/422/2 387/420/2
f 387/420/2 383/387/2 379/393/2
f 379/393/2 375/343/2 371/328/2
f 371/328/2 367/410/2 411/439/2
f 411/439/2 407/437/2 403/435/2
f 403/435/2 395/426/2 387/420/2
f 387/420/2 379/393/2 371/328/2
f 371/328/2 411/439/2 403/435/2
f 372/612/97 376/614/73 374/608/73
f 376/614/73 380/607/148 378/609/148
f 380/607/148 384/610/149 382/611/149
f 384/610/149 388/616/150 386/615/150
f 388/614/150 392/607/147 390/609/147
f 392/607/147 396/610/151 394/611/151
f 396/616/151 400/610/152 398/611/152
f 400/610/152 404/607/153 402/609/153
f 404/607/153 408/614/154 406/608/154
f 408/614/154 412/612/155 410/613/155
f 419/431/116 413/359/116 614/514/116
f 614/514/116 620/500/116 428/430/116
f 423/70/163 418/651/160 420/617/161
f 624/618/293 424/71/164 429/73/167
f 425/441/148 599/443/148 593/518/148
f 593/518/148 446/517/148 434/541/148
f 432/76/169 613/711/286 426/620/165
f 612/58/285 598/190/280 600/183/281
f 437/456/153 590/453/153 596/443/153
f 596/443/153 611/441/153 431/472/153
f 438/70/173 433/651/170 435/617/171
f 591/618/275 439/71/174 447/73/179
f 440/461/151 455/712/151 470/621/151
f 470/621/151 485/404/151 500/136/151
f 456/539/185 442/83/176 444/85/177
f 441/623/175 502/557/216 504/140/217
f 458/96/97 443/705/97 503/624/97
f 503/624/97 488/552/97 473/111/97
f 479/505/154 491/127/154 449/625/154
f 449/625/154 461/682/154 467/626/154
f 466/627/192 462/481/189 451/89/182
f 454/457/184 450/713/181 493/628/210
f 464/102/149 452/698/149 494/629/149
f 494/629/149 482/534/149 476/114/149
f 471/109/195 457/95/186 459/502/187
f 468/106/193 463/101/190 465/630/191
f 480/118/201 469/483/194 477/631/199
f 486/123/205 472/547/196 474/632/197
f 496/132/212 492/522/209 481/633/202
f 501/635/215 487/714/206 489/415/207
f 527/636/155 539/642/155 497/503/155
f 497/503/155 509/144/155 521/155/155
f 510/637/221 499/135/214 507/142/219
f 498/638/213 541/131/242 543/373/243
f 512/641/150 506/491/150 542/169/150
f 542/169/150 536/645/150 524/640/150
f 522/525/229 511/502/222 513/95/223
f 515/503/152 530/144/152 545/155/152
f 545/155/152 560/636/152 575/642/152
f 531/643/235 517/151/226 519/153/227
f 516/419/225 577/194/266 579/464/267
f 518/491/73 578/169/73 563/645/73
f 563/645/73 548/640/73 533/641/73
f 528/160/233 523/715/230 525/549/231
f 540/168/241 529/527/234 537/646/239
f 546/490/245 532/480/236 534/163/237
f 561/184/255 547/716/246 549/523/247
f 581/472/116 587/456/116 551/453/116
f 551/453/116 557/443/116 569/441/116
f 558/647/253 553/177/250 555/179/251
f 552/619/249 589/73/274 603/71/283
f 566/443/147 554/518/147 602/517/147
f 602/517/147 584/541/147 572/441/147
f 570/62/261 559/183/254 567/190/259
f 576/193/265 562/521/256 564/649/257
f 582/195/269 571/717/262 573/650/263
f 588/74/273 583/617/270 585/651/271
f 597/652/279 592/197/276 594/198/277
f 787/488/400 782/579/395 605/199/68
f 610/654/153 781/688/153 777/655/153
f 784/657/397 608/486/147 606/484/147
f 779/318/2 609/199/2 785/579/398
f 618/659/289 625/203/294 621/202/291
f 626/136/155 632/404/155 638/661/155
f 638/661/155 644/669/155 650/461/155
f 630/205/297 637/521/302 633/662/299
f 654/419/313 631/194/298 627/529/295
f 641/215/150 635/512/150 629/624/150
f 629/624/150 653/465/150 647/219/150
f 636/210/301 643/718/306 639/664/303
f 642/490/305 649/480/310 645/217/307
f 648/665/309 655/225/314 651/222/311
f 656/666/154 662/512/154 668/237/154
f 668/237/154 674/242/154 680/465/154
f 660/667/317 667/719/322 663/496/319
f 684/668/333 661/464/318 657/226/315
f 671/661/149 665/478/149 659/228/149
f 659/228/149 683/694/149 677/669/149
f 666/235/321 673/446/326 669/670/323
f 672/240/325 679/246/330 675/671/327
f 678/423/329 685/251/334 681/247/331
f 686/448/153 692/468/153 698/359/153
f 698/359/153 704/514/153 710/498/153
f 690/255/337 697/617/342 693/651/339
f 714/619/353 691/256/338 687/252/335
f 701/359/148 695/431/148 689/430/148
f 689/430/148 713/500/148 707/514/148
f 696/261/341 703/720/346 699/673/343
f 702/266/345 709/272/350 705/269/347
f 708/674/349 715/274/354 711/273/351
f 716/275/152 722/404/152 728/621/152
f 728/621/152 734/712/152 740/461/152
f 720/168/357 727/527/362 723/676/359
f 744/537/373 721/140/358 717/373/355
f 731/285/73 725/708/73 719/624/73
f 719/624/73 743/570/73 737/289/73
f 726/281/361 733/721/366 729/677/363
f 732/525/365 739/502/370 735/288/367
f 738/678/369 745/296/374 741/292/371
f 746/680/151 752/561/151 758/114/151
f 758/114/151 764/102/151 770/679/151
f 750/681/377 757/722/382 753/496/379
f 774/663/393 751/529/378 747/194/375
f 761/626/97 755/567/97 749/298/97
f 749/298/97 773/578/97 767/682/97
f 756/303/381 763/571/386 759/683/383
f 762/307/385 769/312/390 765/671/387
f 766/684/388 768/576/389 775/317/394
f 780/486/116 789/657/402 786/658/399
f 798/326/68 790/321/68 782/579/395
f 782/687/395 787/723/400 786/724/399
f 786/724/399 789/725/402 788/685/401
f 788/685/401 785/726/398 784/686/397
f 784/686/397 783/727/396 782/687/395
f 782/687/395 786/724/399 788/685/401
f 794/582/147 784/657/397 783/658/396
f 788/488/401 785/579/398 793/321/2
f 789/657/402 799/582/116 796/584/116
f 801/688/148 795/654/148 791/656/148
