# Blender 5.2.0 LTS
# www.blender.org
o Backdrop_MushroomFountain_Detail
v 0.000000 1.080000 -5.000000
v 0.000000 0.000000 -3.910681
v -25.204407 32.919998 -6.382623
v -24.153868 30.000000 -6.116586
v -25.204407 31.080000 -6.382623
v -24.831196 34.000000 -2.057576
v -25.911196 32.919998 -2.147063
v -24.831196 30.000000 -2.057576
v -25.911196 31.080000 -2.147063
v -24.831196 34.000000 2.057576
v -25.911196 32.919998 2.147063
v 4.265688 25.500000 -25.562834
v 4.359521 26.451031 -26.125204
v -24.831196 30.000000 2.057576
v -25.911196 31.080000 2.147063
v -24.153868 34.000000 6.116586
v -25.204407 32.919998 6.382623
v -24.153868 30.000000 6.116586
v -25.204407 31.080000 6.382623
v -22.817680 34.000000 10.008768
v -23.810106 32.919998 10.444082
v -22.817680 30.000000 10.008768
v -23.810106 31.080000 10.444082
v 25.827782 25.500000 -2.140155
v 26.395979 26.451031 -2.187237
v -20.859095 34.000000 13.627917
v -21.766329 32.919998 14.220652
v -20.859095 30.000000 13.627917
v -21.766329 31.080000 14.220652
v -18.331518 34.000000 16.875347
v -19.128820 32.919998 17.609322
v 27.556425 0.000000 -18.003506
v 30.143867 0.000000 -13.222331
v 31.136293 1.080000 -13.657645
v 28.463661 1.080000 -18.596237
v -18.331518 30.000000 16.875347
v -19.128820 31.080000 17.609322
v -15.303908 34.000000 19.662460
v -15.969532 32.919998 20.517653
v 8.415017 25.500000 -24.512079
v 8.600138 26.451031 -25.051334
v -15.303908 30.000000 19.662460
v -15.969532 31.080000 20.517653
v -11.858842 34.000000 21.913233
v -12.374632 32.919998 22.866318
v -11.858842 30.000000 21.913233
v -12.374632 31.080000 22.866318
v 20.883234 1.920000 -26.830776
v -8.090307 34.000000 23.566265
v -8.442186 32.919998 24.591248
v -8.090307 30.000000 23.566265
v -8.442186 31.080000 24.591248
v 25.827782 25.500000 2.140155
v 26.395979 26.451031 2.187237
v -4.101081 34.000000 24.576475
v -4.279460 32.919998 25.645395
v -4.101081 30.000000 24.576475
v -4.279460 31.080000 25.645395
v 30.143867 0.000000 13.222331
v 31.136293 1.080000 13.657645
v 0.000000 34.000000 24.916298
v 0.000000 32.919998 26.000000
v 0.000000 30.000000 24.916298
v 0.000000 31.080000 26.000000
v 4.101081 34.000000 24.576475
v 4.279460 32.919998 25.645395
v 12.334789 25.500000 -22.792706
v 12.606154 26.451029 -23.294127
v 4.101081 30.000000 24.576475
v 4.279460 31.080000 25.645395
v 8.090307 34.000000 23.566265
v 8.442186 32.919998 24.591248
v 24.217308 3.000000 22.293600
v 27.556425 3.000000 18.003506
v 28.463661 1.920000 18.596237
v 25.014610 1.920000 23.027575
v 8.090307 30.000000 23.566265
v 8.442186 31.080000 24.591248
v 11.858842 34.000000 21.913233
v 12.374632 32.919998 22.866318
v 11.858842 30.000000 21.913233
v 12.374632 31.080000 22.866318
v 25.123268 25.500000 6.362072
v 25.675966 26.451031 6.502035
v 15.303908 34.000000 19.662460
v 15.969532 32.919998 20.517653
v 15.303908 30.000000 19.662460
v 15.969532 31.080000 20.517653
v 18.331518 34.000000 16.875347
v 19.128820 32.919998 17.609322
v 18.331518 30.000000 16.875347
v 19.128820 31.080000 17.609322
v 20.859095 34.000000 13.627917
v 21.766329 32.919998 14.220652
v 20.859095 30.000000 13.627917
v 21.766329 31.080000 14.220652
v 22.817680 34.000000 10.008768
v 23.810106 32.919998 10.444082
v 22.817680 30.000000 10.008768
v 23.810106 31.080000 10.444082
v 20.217609 0.000000 -25.975584
v 24.217308 0.000000 -22.293600
v 25.014610 1.080000 -23.027575
v 20.883234 1.080000 -26.830776
v 24.153868 34.000000 6.116586
v 25.204407 32.919998 6.382623
v 24.153868 30.000000 6.116586
v 25.204407 31.080000 6.382623
v 23.733454 25.500000 10.410460
v 24.255575 26.451029 10.639481
v 24.831196 34.000000 2.057576
v 25.911196 32.919998 2.147063
v -1.012159 30.000000 -3.777427
v -1.294095 28.920000 -4.829629
v -1.012159 0.000000 -3.777427
v -1.294095 1.080000 -4.829629
v -1.955340 30.000000 -3.386749
v -2.500000 28.920000 -4.330127
v 15.918120 25.500000 20.451601
v 16.268312 26.451031 20.901524
v -1.955340 0.000000 -3.386749
v -2.500000 1.080000 -4.330127
v -2.765269 30.000000 -2.765269
v -3.535534 28.920000 -3.535534
v 0.000000 30.000000 -24.916298
v 0.000000 31.080000 -26.000000
v -2.765269 0.000000 -2.765269
v -3.535534 1.080000 -3.535534
v -3.386749 30.000000 -1.955340
v -4.330127 28.920000 -2.500000
v -3.386749 0.000000 -1.955340
v -4.330127 1.080000 -2.500000
v -3.777427 30.000000 -1.012159
v -4.829629 28.920000 -1.294095
v -3.777427 0.000000 -1.012159
v -4.829629 1.080000 -1.294095
v 21.696259 25.500000 14.174868
v 19.067242 25.500000 17.552629
v 19.486702 26.451031 17.938787
v 22.173567 26.451033 14.486711
v -3.910681 30.000000 0.000000
v -5.000000 28.920000 0.000000
v 0.000000 34.000000 -24.916298
v 0.000000 32.919998 -26.000000
v -3.910681 0.000000 -0.000000
v -5.000000 1.080000 0.000000
v 18.331518 30.000000 -16.875347
v 19.128820 31.080000 -17.609322
v -3.777427 30.000000 1.012159
v -4.829629 28.920000 1.294095
v -3.777427 0.000000 1.012159
v -4.829629 1.080000 1.294095
v -3.386749 30.000000 1.955340
v -4.330127 28.920000 2.500000
v -3.386749 0.000000 1.955340
v -4.330127 1.080000 2.500000
v -2.765269 30.000000 2.765269
v -3.535534 28.920000 3.535534
v -2.765269 0.000000 2.765269
v -3.535534 1.080000 3.535534
v -1.955340 30.000000 3.386749
v -2.500000 28.920000 4.330127
v 4.101081 30.000000 -24.576475
v 4.279460 31.080000 -25.645395
v -1.955340 0.000000 3.386749
v -2.500000 1.080000 4.330127
v -1.012159 30.000000 3.777427
v -1.294095 28.920000 4.829629
v -1.012159 0.000000 3.777427
v -1.294095 1.080000 4.829629
v 20.859095 30.000000 -13.627917
v 21.766329 31.080000 -14.220652
v 0.000000 30.000000 3.910681
v 0.000000 28.920000 5.000000
v 4.101081 34.000000 -24.576475
v 4.279460 32.919998 -25.645395
v -0.000000 0.000000 3.910681
v 0.000000 1.080000 5.000000
v 27.556425 0.000000 18.003506
v 24.217308 0.000000 22.293600
v 25.014610 1.080000 23.027575
v 28.463661 1.080000 18.596237
v 1.012159 30.000000 3.777427
v 1.294095 28.920000 4.829629
v 1.012159 0.000000 3.777427
v 1.294095 1.080000 4.829629
v 1.955340 30.000000 3.386749
v 2.500000 28.920000 4.330127
v 1.955340 0.000000 3.386749
v 2.500000 1.080000 4.330127
v 2.765269 30.000000 2.765269
v 3.535534 28.920000 3.535534
v 8.090307 30.000000 -23.566265
v 8.442186 31.080000 -24.591248
v 2.765269 0.000000 2.765269
v 3.535534 1.080000 3.535534
v 3.386749 30.000000 1.955340
v 4.330127 28.920000 2.500000
v 3.386749 0.000000 1.955340
v 4.330127 1.080000 2.500000
v 23.810106 31.080000 -10.444082
v 25.911196 31.080000 2.147063
v 4.829629 28.920000 1.294095
v 3.777427 0.000000 1.012159
v 19.128820 32.919998 -17.609322
v 8.442186 32.919998 -24.591248
v 24.831196 30.000000 2.057576
v 22.817680 30.000000 -10.008768
v 25.911196 32.919998 -2.147063
v 0.000000 0.000000 -3.910681
v 21.766329 32.919998 -14.220652
v 3.777427 30.000000 1.012159
v 8.090307 34.000000 -23.566265
v 18.331518 34.000000 -16.875347
v 32.959610 1.920000 8.346506
v 31.136293 1.920000 13.657645
v 15.969532 31.080000 -20.517653
v 12.374632 31.080000 -22.866318
v 20.859095 34.000000 -13.627917
v 24.831196 34.000000 -2.057576
v 30.143867 3.000000 13.222331
v 31.909071 3.000000 8.080469
v 16.268311 26.451029 -20.901522
v 24.255583 26.451033 -10.639483
v 11.858842 30.000000 -21.913233
v 15.303908 30.000000 -19.662460
v 0.000000 28.920000 -5.000000
v 4.829629 1.080000 1.294095
v 3.535534 28.920000 -3.535534
v -0.000000 30.000000 -3.910681
v 2.765269 30.000000 -2.765269
v 23.733454 25.500000 -10.410460
v 15.918120 25.500000 -20.451601
v 4.330127 1.080000 -2.500000
v 0.000000 1.080000 -5.000000
v 25.014610 1.920000 -23.027575
v 28.463661 1.920000 -18.596237
v 20.217609 3.000000 -25.975584
v 30.143867 3.000000 -13.222331
v 3.386749 0.000000 -1.955340
v 27.556425 3.000000 -18.003506
v 24.217308 3.000000 -22.293600
v 1.294095 1.080000 -4.829629
v 19.067242 25.500000 -17.552629
v 21.696259 25.500000 -14.174868
v 1.955340 30.000000 -3.386749
v 1.012159 30.000000 -3.777427
v 2.765269 0.000000 -2.765269
v 5.000000 1.080000 0.000000
v 4.829629 1.080000 -1.294095
v 1.294095 28.920000 -4.829629
v 2.500000 28.920000 -4.330127
v 22.173563 26.451031 -14.486709
v 19.486702 26.451031 -17.938787
v 24.153868 34.000000 -6.116586
v 22.817680 34.000000 -10.008768
v 3.535534 1.080000 -3.535534
v 2.500000 1.080000 -4.330127
v 15.303908 34.000000 -19.662460
v 11.858842 34.000000 -21.913233
v 3.910681 30.000000 -0.000000
v 23.810106 32.919998 -10.444082
v 25.204407 32.919998 -6.382623
v 24.153868 30.000000 -6.116586
v 24.831196 30.000000 -2.057576
v 1.012159 0.000000 -3.777427
v 1.955340 0.000000 -3.386749
v 12.374632 32.919998 -22.866318
v 15.969532 32.919998 -20.517653
v 3.777427 0.000000 -1.012159
v 3.910681 0.000000 0.000000
v 3.777427 30.000000 -1.012159
v 3.386749 30.000000 -1.955340
v 5.000000 28.920000 0.000000
v 4.330127 28.920000 -2.500000
v 4.829629 28.920000 -1.294095
v 25.911196 31.080000 -2.147063
v 25.204407 31.080000 -6.382623
v -0.000000 30.000000 -3.910681
v 0.000000 28.920000 -5.000000
v 1.012159 0.000000 -3.777427
v 1.294095 1.080000 -4.829629
v 1.012159 30.000000 -3.777427
v 1.294095 28.920000 -4.829629
v 1.955340 0.000000 -3.386749
v 2.500000 1.080000 -4.330127
v 1.955340 30.000000 -3.386749
v 2.500000 28.920000 -4.330127
v 2.765269 0.000000 -2.765269
v 3.535534 1.080000 -3.535534
v 2.765269 30.000000 -2.765269
v 3.535534 28.920000 -3.535534
v 3.386749 0.000000 -1.955340
v 4.330127 1.080000 -2.500000
v 3.386749 30.000000 -1.955340
v 4.330127 28.920000 -2.500000
v 3.777427 0.000000 -1.012159
v 4.829629 1.080000 -1.294095
v 3.777427 30.000000 -1.012159
v 4.829629 28.920000 -1.294095
v 3.910681 0.000000 0.000000
v 5.000000 1.080000 0.000000
v 3.910681 30.000000 -0.000000
v 5.000000 28.920000 0.000000
v 3.777427 0.000000 1.012159
v 4.829629 1.080000 1.294095
v 3.777427 30.000000 1.012159
v 4.829629 28.920000 1.294095
v 3.386749 0.000000 1.955340
v 4.330127 1.080000 2.500000
v 3.386749 30.000000 1.955340
v 4.330127 28.920000 2.500000
v 2.765269 0.000000 2.765269
v 3.535534 1.080000 3.535534
v 2.765269 30.000000 2.765269
v 3.535534 28.920000 3.535534
v 1.955340 0.000000 3.386749
v 2.500000 1.080000 4.330127
v 1.955340 30.000000 3.386749
v 2.500000 28.920000 4.330127
v 1.012159 0.000000 3.777427
v 1.294095 1.080000 4.829629
v 1.012159 30.000000 3.777427
v 1.294095 28.920000 4.829629
v -0.000000 0.000000 3.910681
v 0.000000 1.080000 5.000000
v 0.000000 30.000000 3.910681
v 0.000000 28.920000 5.000000
v -1.012159 0.000000 3.777427
v -1.294095 1.080000 4.829629
v -1.012159 30.000000 3.777427
v -1.294095 28.920000 4.829629
v -1.955340 0.000000 3.386749
v -2.500000 1.080000 4.330127
v -1.955340 30.000000 3.386749
v -2.500000 28.920000 4.330127
v -2.765269 0.000000 2.765269
v -3.535534 1.080000 3.535534
v -2.765269 30.000000 2.765269
v -3.535534 28.920000 3.535534
v -3.386749 0.000000 1.955340
v -4.330127 1.080000 2.500000
v -3.386749 30.000000 1.955340
v -4.330127 28.920000 2.500000
v -3.777427 0.000000 1.012159
v -4.829629 1.080000 1.294095
v -3.777427 30.000000 1.012159
v -4.829629 28.920000 1.294095
v -3.910681 0.000000 -0.000000
v -5.000000 1.080000 0.000000
v -3.910681 30.000000 0.000000
v -5.000000 28.920000 0.000000
v -3.777427 0.000000 -1.012159
v -4.829629 1.080000 -1.294095
v -3.777427 30.000000 -1.012159
v -4.829629 28.920000 -1.294095
v -3.386749 0.000000 -1.955340
v -4.330127 1.080000 -2.500000
v -3.386749 30.000000 -1.955340
v -4.330127 28.920000 -2.500000
v -2.765269 0.000000 -2.765269
v -3.535534 1.080000 -3.535534
v -2.765269 30.000000 -2.765269
v -3.535534 28.920000 -3.535534
v -1.955340 0.000000 -3.386749
v -2.500000 1.080000 -4.330127
v -1.955340 30.000000 -3.386749
v -2.500000 28.920000 -4.330127
v -1.012159 0.000000 -3.777427
v -1.294095 1.080000 -4.829629
v -1.012159 30.000000 -3.777427
v -1.294095 28.920000 -4.829629
v 0.000000 30.000000 -24.916298
v 0.000000 31.080000 -26.000000
v 0.000000 34.000000 -24.916298
v 0.000000 32.919998 -26.000000
v 4.101081 30.000000 -24.576475
v 4.279460 31.080000 -25.645395
v 4.101081 34.000000 -24.576475
v 4.279460 32.919998 -25.645395
v 8.090307 30.000000 -23.566265
v 8.442186 31.080000 -24.591248
v 8.090307 34.000000 -23.566265
v 8.442186 32.919998 -24.591248
v 11.858842 30.000000 -21.913233
v 12.374632 31.080000 -22.866318
v 11.858842 34.000000 -21.913233
v 12.374632 32.919998 -22.866318
v 15.303908 30.000000 -19.662460
v 15.969532 31.080000 -20.517653
v 15.303908 34.000000 -19.662460
v 15.969532 32.919998 -20.517653
v 18.331518 30.000000 -16.875347
v 19.128820 31.080000 -17.609322
v 18.331518 34.000000 -16.875347
v 19.128820 32.919998 -17.609322
v 20.859095 30.000000 -13.627917
v 21.766329 31.080000 -14.220652
v 20.859095 34.000000 -13.627917
v 21.766329 32.919998 -14.220652
v 22.817680 30.000000 -10.008768
v 23.810106 31.080000 -10.444082
v 22.817680 34.000000 -10.008768
v 23.810106 32.919998 -10.444082
v 24.153868 30.000000 -6.116586
v 25.204407 31.080000 -6.382623
v 24.153868 34.000000 -6.116586
v 25.204407 32.919998 -6.382623
v 24.831196 30.000000 -2.057576
v 25.911196 31.080000 -2.147063
v 24.831196 34.000000 -2.057576
v 25.911196 32.919998 -2.147063
v 24.831196 30.000000 2.057576
v 25.911196 31.080000 2.147063
v 24.831196 34.000000 2.057576
v 25.911196 32.919998 2.147063
v 24.153868 30.000000 6.116586
v 25.204407 31.080000 6.382623
v 24.153868 34.000000 6.116586
v 25.204407 32.919998 6.382623
v 22.817680 30.000000 10.008768
v 23.810106 31.080000 10.444082
v 22.817680 34.000000 10.008768
v 23.810106 32.919998 10.444082
v 20.859095 30.000000 13.627917
v 21.766329 31.080000 14.220652
v 20.859095 34.000000 13.627917
v 21.766329 32.919998 14.220652
v 18.331518 30.000000 16.875347
v 19.128820 31.080000 17.609322
v 18.331518 34.000000 16.875347
v 19.128820 32.919998 17.609322
v 15.303908 30.000000 19.662460
v 15.969532 31.080000 20.517653
v 15.303908 34.000000 19.662460
v 15.969532 32.919998 20.517653
v 11.858842 30.000000 21.913233
v 12.374632 31.080000 22.866318
v 11.858842 34.000000 21.913233
v 12.374632 32.919998 22.866318
v 8.090307 30.000000 23.566265
v 8.442186 31.080000 24.591248
v 8.090307 34.000000 23.566265
v 8.442186 32.919998 24.591248
v 4.101081 30.000000 24.576475
v 4.279460 31.080000 25.645395
v 4.101081 34.000000 24.576475
v 4.279460 32.919998 25.645395
v 0.000000 30.000000 24.916298
v 0.000000 31.080000 26.000000
v 0.000000 34.000000 24.916298
v 0.000000 32.919998 26.000000
v -4.101081 30.000000 24.576475
v -4.279460 31.080000 25.645395
v -4.101081 34.000000 24.576475
v -4.279460 32.919998 25.645395
v -8.090307 30.000000 23.566265
v -8.442186 31.080000 24.591248
v -8.090307 34.000000 23.566265
v -8.442186 32.919998 24.591248
v -11.858842 30.000000 21.913233
v -12.374632 31.080000 22.866318
v -11.858842 34.000000 21.913233
v -12.374632 32.919998 22.866318
v -15.303908 30.000000 19.662460
v -15.969532 31.080000 20.517653
v -15.303908 34.000000 19.662460
v -15.969532 32.919998 20.517653
v -18.331518 30.000000 16.875347
v -19.128820 31.080000 17.609322
v -18.331518 34.000000 16.875347
v -19.128820 32.919998 17.609322
v -20.859095 30.000000 13.627917
v -21.766329 31.080000 14.220652
v -20.859095 34.000000 13.627917
v -21.766329 32.919998 14.220652
v -22.817680 30.000000 10.008768
v -23.810106 31.080000 10.444082
v -22.817680 34.000000 10.008768
v -23.810106 32.919998 10.444082
v -24.153868 30.000000 6.116586
v -25.204407 31.080000 6.382623
v -24.153868 34.000000 6.116586
v -25.204407 32.919998 6.382623
v -24.831196 30.000000 2.057576
v -25.911196 31.080000 2.147063
v -24.831196 34.000000 2.057576
v -25.911196 32.919998 2.147063
v -24.831196 30.000000 -2.057576
v -25.911196 31.080000 -2.147063
v -24.831196 34.000000 -2.057576
v -25.911196 32.919998 -2.147063
v -24.153868 30.000000 -6.116586
v -25.204407 31.080000 -6.382623
v -24.153868 34.000000 -6.116586
v -25.204407 32.919998 -6.382623
v -22.817680 30.000000 -10.008768
v -23.810106 31.080000 -10.444082
v -22.817680 34.000000 -10.008768
v -23.810106 32.919998 -10.444082
v -20.859095 30.000000 -13.627917
v -21.766329 31.080000 -14.220652
v -20.859095 34.000000 -13.627917
v -21.766329 32.919998 -14.220652
v -18.331518 30.000000 -16.875347
v -19.128820 31.080000 -17.609322
v -18.331518 34.000000 -16.875347
v -19.128820 32.919998 -17.609322
v -15.303908 30.000000 -19.662460
v -15.969532 31.080000 -20.517653
v -15.303908 34.000000 -19.662460
v -15.969532 32.919998 -20.517653
v -11.858842 30.000000 -21.913233
v -12.374632 31.080000 -22.866318
v -11.858842 34.000000 -21.913233
v -12.374632 32.919998 -22.866318
v -8.090307 30.000000 -23.566265
v -8.442186 31.080000 -24.591248
v -8.090307 34.000000 -23.566265
v -8.442186 32.919998 -24.591248
v -4.101081 30.000000 -24.576475
v -4.279460 31.080000 -25.645395
v -4.101081 34.000000 -24.576475
v -4.279460 32.919998 -25.645395
v 0.000000 25.500000 -25.916298
v -0.000000 26.451031 -26.486444
v -0.000000 32.500000 -22.136297
v 0.000000 31.548969 -23.733555
v 4.265688 25.500000 -25.562834
v 4.359521 26.451031 -26.125204
v 3.643509 32.500000 -21.834389
v 3.906419 31.548969 -23.409861
v 8.415017 25.500000 -24.512079
v 8.600138 26.451031 -25.051334
v 7.187652 32.500000 -20.936890
v 7.706273 31.548969 -22.447607
v 12.334789 25.500000 -22.792706
v 12.606154 26.451029 -23.294127
v 10.535707 32.500000 -19.468294
v 11.295919 31.548969 -20.873041
v 15.918120 25.500000 -20.451601
v 16.268311 26.451029 -20.901522
v 13.596396 32.500000 -17.468649
v 14.577454 31.548969 -18.729107
v 19.067242 25.500000 -17.552629
v 19.486702 26.451031 -17.938787
v 16.286200 32.500000 -14.992510
v 17.461349 31.548969 -16.074295
v 21.696259 25.500000 -14.174868
v 22.173563 26.451031 -14.486709
v 18.531769 32.500000 -12.107403
v 19.868937 31.548969 -12.981027
v 23.733454 25.500000 -10.410460
v 24.255583 26.451033 -10.639483
v 20.271830 32.500000 -8.892052
v 21.734556 31.548969 -9.533665
v 25.123268 25.500000 -6.362072
v 25.675966 26.451031 -6.502034
v 21.458935 32.500000 -5.434136
v 23.007315 31.548969 -5.826247
v 25.827782 25.500000 -2.140155
v 26.395979 26.451031 -2.187237
v 22.060692 32.500000 -1.828005
v 23.652491 31.548967 -1.959898
v 25.827782 25.500000 2.140155
v 26.395979 26.451031 2.187237
v 22.060692 32.500000 1.828005
v 23.652494 31.548969 1.959898
v 25.123268 25.500000 6.362072
v 25.675966 26.451031 6.502035
v 21.458935 32.500000 5.434136
v 23.007311 31.548967 5.826246
v 23.733454 25.500000 10.410460
v 24.255575 26.451029 10.639481
v 20.271830 32.500000 8.892052
v 21.734556 31.548969 9.533665
v 21.696259 25.500000 14.174868
v 22.173567 26.451033 14.486711
v 18.531769 32.500000 12.107403
v 19.868937 31.548969 12.981027
v 19.067242 25.500000 17.552629
v 19.486702 26.451031 17.938787
v 16.286200 32.500000 14.992510
v 17.461349 31.548969 16.074295
v 15.918120 25.500000 20.451601
v 16.268312 26.451031 20.901524
v 13.596396 32.500000 17.468649
v 14.577456 31.548971 18.729109
v 12.334789 25.500000 22.792706
v 12.606153 26.451029 23.294128
v 10.535707 32.500000 19.468294
v 11.295919 31.548969 20.873041
v 8.415017 25.500000 24.512079
v 8.600138 26.451031 25.051334
v 7.187652 32.500000 20.936890
v 7.706273 31.548969 22.447607
v 4.265688 25.500000 25.562834
v 4.359521 26.451031 26.125204
v 3.643509 32.500000 21.834389
v 3.906419 31.548969 23.409861
v 0.000000 25.500000 25.916298
v 0.000000 26.451031 26.486444
v 0.000000 32.500000 22.136297
v 0.000000 31.548969 23.733555
v -4.265688 25.500000 25.562834
v -4.359521 26.451031 26.125204
v -3.643509 32.500000 21.834389
v -3.906419 31.548969 23.409861
v -8.415017 25.500000 24.512079
v -8.600138 26.451031 25.051334
v -7.187652 32.500000 20.936890
v -7.706273 31.548969 22.447607
v -12.334789 25.500000 22.792706
v -12.606154 26.451029 23.294127
v -10.535707 32.500000 19.468294
v -11.295919 31.548969 20.873041
v -15.918120 25.500000 20.451601
v -16.268311 26.451029 20.901522
v -13.596396 32.500000 17.468649
v -14.577454 31.548969 18.729107
v -19.067242 25.500000 17.552629
v -19.486702 26.451031 17.938787
v -16.286200 32.500000 14.992510
v -17.461349 31.548969 16.074295
v -21.696259 25.500000 14.174868
v -22.173563 26.451031 14.486709
v -18.531769 32.500000 12.107403
v -19.868937 31.548969 12.981027
v -23.733454 25.500000 10.410460
v -24.255583 26.451033 10.639483
v -20.271830 32.500000 8.892052
v -21.734556 31.548969 9.533665
v -25.123268 25.500000 6.362072
v -25.675966 26.451031 6.502034
v -21.458935 32.500000 5.434136
v -23.007315 31.548969 5.826247
v -25.827782 25.500000 2.140155
v -26.395979 26.451031 2.187237
v -22.060692 32.500000 1.828005
v -23.652491 31.548967 1.959898
v -25.827782 25.500000 -2.140155
v -26.395979 26.451031 -2.187237
v -22.060692 32.500000 -1.828005
v -23.652494 31.548969 -1.959898
v -25.123268 25.500000 -6.362072
v -25.675966 26.451031 -6.502035
v -21.458935 32.500000 -5.434136
v -23.007311 31.548967 -5.826246
v -23.733454 25.500000 -10.410460
v -24.255575 26.451029 -10.639481
v -20.271830 32.500000 -8.892052
v -21.734556 31.548969 -9.533665
v -21.696259 25.500000 -14.174868
v -22.173567 26.451033 -14.486711
v -18.531769 32.500000 -12.107403
v -19.868937 31.548969 -12.981027
v -19.067242 25.500000 -17.552629
v -19.486702 26.451031 -17.938787
v -16.286200 32.500000 -14.992510
v -17.461349 31.548969 -16.074295
v -15.918120 25.500000 -20.451601
v -16.268312 26.451031 -20.901524
v -13.596396 32.500000 -17.468649
v -14.577456 31.548971 -18.729109
v -12.334789 25.500000 -22.792706
v -12.606153 26.451029 -23.294128
v -10.535707 32.500000 -19.468294
v -11.295919 31.548969 -20.873041
v -8.415017 25.500000 -24.512079
v -8.600138 26.451031 -25.051334
v -7.187652 32.500000 -20.936890
v -7.706273 31.548969 -22.447607
v -4.265688 25.500000 -25.562834
v -4.359521 26.451031 -26.125204
v -3.643509 32.500000 -21.834389
v -3.906419 31.548969 -23.409861
v -0.000000 0.000000 -32.916298
v 0.000000 1.080000 -34.000000
v 0.000000 3.000000 -32.916298
v 0.000000 1.920000 -34.000000
v 5.417861 0.000000 -32.467361
v 5.596217 1.080000 -33.536285
v 5.417861 3.000000 -32.467361
v 5.596217 1.920000 -33.536285
v 10.687902 0.000000 -31.132805
v 11.039783 1.080000 -32.157787
v 10.687902 3.000000 -31.132805
v 11.039783 1.920000 -32.157787
v 15.666421 0.000000 -28.949022
v 16.182211 1.080000 -29.902107
v 15.666421 3.000000 -28.949022
v 16.182211 1.920000 -29.902107
v 20.217609 0.000000 -25.975584
v 20.883234 1.080000 -26.830776
v 20.217609 3.000000 -25.975584
v 20.883234 1.920000 -26.830776
v 24.217308 0.000000 -22.293600
v 25.014610 1.080000 -23.027575
v 24.217308 3.000000 -22.293600
v 25.014610 1.920000 -23.027575
v 27.556425 0.000000 -18.003506
v 28.463661 1.080000 -18.596237
v 27.556425 3.000000 -18.003506
v 28.463661 1.920000 -18.596237
v 30.143867 0.000000 -13.222331
v 31.136293 1.080000 -13.657645
v 30.143867 3.000000 -13.222331
v 31.136293 1.920000 -13.657645
v 31.909071 0.000000 -8.080469
v 32.959610 1.080000 -8.346506
v 31.909071 3.000000 -8.080469
v 32.959610 1.920000 -8.346506
v 32.803871 0.000000 -2.718222
v 33.883873 1.080000 -2.807698
v 32.803871 3.000000 -2.718222
v 33.883873 1.920000 -2.807698
v 32.803871 0.000000 2.718222
v 33.883873 1.080000 2.807698
v 32.803871 3.000000 2.718222
v 33.883873 1.920000 2.807698
v 31.909071 0.000000 8.080469
v 32.959610 1.080000 8.346506
v 31.909071 3.000000 8.080469
v 32.959610 1.920000 8.346506
v 30.143867 0.000000 13.222331
v 31.136293 1.080000 13.657645
v 30.143867 3.000000 13.222331
v 31.136293 1.920000 13.657645
v 27.556425 0.000000 18.003506
v 28.463661 1.080000 18.596237
v 27.556425 3.000000 18.003506
v 28.463661 1.920000 18.596237
v 24.217308 0.000000 22.293600
v 25.014610 1.080000 23.027575
v 24.217308 3.000000 22.293600
v 25.014610 1.920000 23.027575
v 20.217609 0.000000 25.975584
v 20.883234 1.080000 26.830776
v 20.217609 3.000000 25.975584
v 20.883234 1.920000 26.830776
v 15.666421 0.000000 28.949022
v 16.182211 1.080000 29.902107
v 15.666421 3.000000 28.949022
v 16.182211 1.920000 29.902107
v 10.687902 0.000000 31.132805
v 11.039783 1.080000 32.157787
v 10.687902 3.000000 31.132805
v 11.039783 1.920000 32.157787
v 5.417861 0.000000 32.467361
v 5.596217 1.080000 33.536285
v 5.417861 3.000000 32.467361
v 5.596217 1.920000 33.536285
v 0.000000 0.000000 32.916298
v 0.000000 1.080000 34.000000
v -0.000000 3.000000 32.916298
v 0.000000 1.920000 34.000000
v -5.417861 0.000000 32.467361
v -5.596217 1.080000 33.536285
v -5.417861 3.000000 32.467361
v -5.596217 1.920000 33.536285
v -10.687902 0.000000 31.132805
v -11.039783 1.080000 32.157787
v -10.687902 3.000000 31.132805
v -11.039783 1.920000 32.157787
v -15.666421 0.000000 28.949022
v -16.182211 1.080000 29.902107
v -15.666421 3.000000 28.949022
v -16.182211 1.920000 29.902107
v -20.217609 0.000000 25.975584
v -20.883234 1.080000 26.830776
v -20.217609 3.000000 25.975584
v -20.883234 1.920000 26.830776
v -24.217308 0.000000 22.293600
v -25.014610 1.080000 23.027575
v -24.217308 3.000000 22.293600
v -25.014610 1.920000 23.027575
v -27.556425 0.000000 18.003506
v -28.463661 1.080000 18.596237
v -27.556425 3.000000 18.003506
v -28.463661 1.920000 18.596237
v -30.143867 0.000000 13.222331
v -31.136293 1.080000 13.657645
v -30.143867 3.000000 13.222331
v -31.136293 1.920000 13.657645
v -31.909071 0.000000 8.080469
v -32.959610 1.080000 8.346506
v -31.909071 3.000000 8.080469
v -32.959610 1.920000 8.346506
v -32.803871 0.000000 2.718222
v -33.883873 1.080000 2.807698
v -32.803871 3.000000 2.718222
v -33.883873 1.920000 2.807698
v -32.803871 0.000000 -2.718222
v -33.883873 1.080000 -2.807698
v -32.803871 3.000000 -2.718222
v -33.883873 1.920000 -2.807698
v -31.909071 0.000000 -8.080469
v -32.959610 1.080000 -8.346506
v -31.909071 3.000000 -8.080469
v -32.959610 1.920000 -8.346506
v -30.143867 0.000000 -13.222331
v -31.136293 1.080000 -13.657645
v -30.143867 3.000000 -13.222331
v -31.136293 1.920000 -13.657645
v -27.556425 0.000000 -18.003506
v -28.463661 1.080000 -18.596237
v -27.556425 3.000000 -18.003506
v -28.463661 1.920000 -18.596237
v -24.217308 0.000000 -22.293600
v -25.014610 1.080000 -23.027575
v -24.217308 3.000000 -22.293600
v -25.014610 1.920000 -23.027575
v -20.217609 0.000000 -25.975584
v -20.883234 1.080000 -26.830776
v -20.217609 3.000000 -25.975584
v -20.883234 1.920000 -26.830776
v -15.666421 0.000000 -28.949022
v -16.182211 1.080000 -29.902107
v -15.666421 3.000000 -28.949022
v -16.182211 1.920000 -29.902107
v -10.687902 0.000000 -31.132805
v -11.039783 1.080000 -32.157787
v -10.687902 3.000000 -31.132805
v -11.039783 1.920000 -32.157787
v -5.417861 0.000000 -32.467361
v -5.596217 1.080000 -33.536285
v -5.417861 3.000000 -32.467361
v -5.596217 1.920000 -33.536285
v -24.153868 34.000000 -6.116586
v 25.675966 26.451031 -6.502034
v 25.123268 25.500000 -6.362072
v -23.810106 31.080000 -10.444082
v -22.817680 30.000000 -10.008768
v -23.810106 32.919998 -10.444082
v -22.817680 34.000000 -10.008768
v -21.766329 31.080000 -14.220652
v -20.859095 30.000000 -13.627917
v -21.766329 32.919998 -14.220652
v -20.859095 34.000000 -13.627917
v -19.128820 31.080000 -17.609322
v -18.331518 30.000000 -16.875347
v 20.883234 1.080000 26.830776
v 20.217609 0.000000 25.975584
v -19.128820 32.919998 -17.609322
v -18.331518 34.000000 -16.875347
v -15.969532 31.080000 -20.517653
v -15.303908 30.000000 -19.662460
v -15.969532 32.919998 -20.517653
v -15.303908 34.000000 -19.662460
v -12.374632 31.080000 -22.866318
v -11.858842 30.000000 -21.913233
v -0.000000 26.451031 -26.486444
v 0.000000 25.500000 -25.916298
v -12.374632 32.919998 -22.866318
v -11.858842 34.000000 -21.913233
v -8.442186 31.080000 -24.591248
v -8.090307 30.000000 -23.566265
v 31.136293 1.920000 -13.657645
v -8.442186 32.919998 -24.591248
v -8.090307 34.000000 -23.566265
v -4.279460 31.080000 -25.645395
v -4.101081 30.000000 -24.576475
v -4.279460 32.919998 -25.645395
v -4.101081 34.000000 -24.576475
v 16.182211 1.920000 -29.902107
v 15.666421 3.000000 -28.949022
v 12.606153 26.451029 23.294128
v 12.334789 25.500000 22.792706
v 32.959610 1.080000 8.346506
v 31.909071 0.000000 8.080469
v 8.600138 26.451031 25.051334
v 8.415017 25.500000 24.512079
v 16.182211 1.080000 -29.902107
v 15.666421 0.000000 -28.949022
v 4.359521 26.451031 26.125204
v 4.265688 25.500000 25.562834
v 0.000000 26.451031 26.486444
v 0.000000 25.500000 25.916298
v 33.883873 1.920000 2.807698
v 32.803871 3.000000 2.718222
v -4.359521 26.451031 26.125204
v -4.265688 25.500000 25.562834
v 11.039783 1.920000 -32.157787
v 10.687902 3.000000 -31.132805
v -8.600138 26.451031 25.051334
v -8.415017 25.500000 24.512079
v 33.883873 1.080000 2.807698
v 32.803871 0.000000 2.718222
v -12.606154 26.451029 23.294127
v -12.334789 25.500000 22.792706
v 11.039783 1.080000 -32.157787
v 10.687902 0.000000 -31.132805
v -16.268311 26.451029 20.901522
v -15.918120 25.500000 20.451601
v -19.486702 26.451031 17.938787
v -19.067242 25.500000 17.552629
v 33.883873 1.920000 -2.807698
v 32.803871 3.000000 -2.718222
v -22.173563 26.451031 14.486709
v -21.696259 25.500000 14.174868
v 5.596217 1.920000 -33.536285
v 5.417861 3.000000 -32.467361
v -24.255583 26.451033 10.639483
v -23.733454 25.500000 10.410460
v 33.883873 1.080000 -2.807698
v 32.803871 0.000000 -2.718222
v -25.675966 26.451031 6.502034
v -25.123268 25.500000 6.362072
v 5.596217 1.080000 -33.536285
v 5.417861 0.000000 -32.467361
v -26.395979 26.451031 2.187237
v -25.827782 25.500000 2.140155
v -26.395979 26.451031 -2.187237
v -25.827782 25.500000 -2.140155
v 32.959610 1.920000 -8.346506
v 31.909071 3.000000 -8.080469
v -25.675966 26.451031 -6.502035
v -25.123268 25.500000 -6.362072
v -24.255575 26.451029 -10.639481
v -23.733454 25.500000 -10.410460
v 32.959610 1.080000 -8.346506
v 31.909071 0.000000 -8.080469
v 0.000000 1.920000 -34.000000
v 0.000000 3.000000 -32.916298
v -22.173567 26.451033 -14.486711
v -21.696259 25.500000 -14.174868
v -19.486702 26.451031 -17.938787
v -19.067242 25.500000 -17.552629
v -16.268312 26.451031 -20.901524
v -15.918120 25.500000 -20.451601
v 0.000000 1.080000 -34.000000
v -0.000000 0.000000 -32.916298
v -12.606153 26.451029 -23.294128
v -12.334789 25.500000 -22.792706
v -8.600138 26.451031 -25.051334
v -8.415017 25.500000 -24.512079
v -4.359521 26.451031 -26.125204
v -4.265688 25.500000 -25.562834
v 20.883234 1.920000 26.830776
v 20.217609 3.000000 25.975584
v 16.182211 1.080000 29.902107
v 15.666421 0.000000 28.949022
v 16.182211 1.920000 29.902107
v 15.666421 3.000000 28.949022
v 11.039783 1.080000 32.157787
v 10.687902 0.000000 31.132805
v 11.039783 1.920000 32.157787
v 10.687902 3.000000 31.132805
v 5.596217 1.080000 33.536285
v 5.417861 0.000000 32.467361
v 5.596217 1.920000 33.536285
v 5.417861 3.000000 32.467361
v 0.000000 1.080000 34.000000
v 0.000000 0.000000 32.916298
v 0.000000 1.920000 34.000000
v -0.000000 3.000000 32.916298
v -5.596217 1.080000 33.536285
v -5.417861 0.000000 32.467361
v -5.596217 1.920000 33.536285
v -5.417861 3.000000 32.467361
v -11.039783 1.080000 32.157787
v -10.687902 0.000000 31.132805
v -11.039783 1.920000 32.157787
v -10.687902 3.000000 31.132805
v -16.182211 1.080000 29.902107
v -15.666421 0.000000 28.949022
v -16.182211 1.920000 29.902107
v -15.666421 3.000000 28.949022
v -20.883234 1.080000 26.830776
v -20.217609 0.000000 25.975584
v -20.883234 1.920000 26.830776
v -20.217609 3.000000 25.975584
v -25.014610 1.080000 23.027575
v -24.217308 0.000000 22.293600
v -25.014610 1.920000 23.027575
v -24.217308 3.000000 22.293600
v -28.463661 1.080000 18.596237
v -27.556425 0.000000 18.003506
v -28.463661 1.920000 18.596237
v -27.556425 3.000000 18.003506
v -31.136293 1.080000 13.657645
v -30.143867 0.000000 13.222331
v -31.136293 1.920000 13.657645
v -30.143867 3.000000 13.222331
v -32.959610 1.080000 8.346506
v -31.909071 0.000000 8.080469
v -32.959610 1.920000 8.346506
v -31.909071 3.000000 8.080469
v -33.883873 1.080000 2.807698
v -32.803871 0.000000 2.718222
v -33.883873 1.920000 2.807698
v -32.803871 3.000000 2.718222
v -33.883873 1.080000 -2.807698
v -32.803871 0.000000 -2.718222
v -33.883873 1.920000 -2.807698
v -32.803871 3.000000 -2.718222
v -32.959610 1.080000 -8.346506
v -31.909071 0.000000 -8.080469
v -32.959610 1.920000 -8.346506
v -31.909071 3.000000 -8.080469
v -31.136293 1.080000 -13.657645
v -30.143867 0.000000 -13.222331
v -31.136293 1.920000 -13.657645
v -30.143867 3.000000 -13.222331
v -28.463661 1.080000 -18.596237
v -27.556425 0.000000 -18.003506
v -28.463661 1.920000 -18.596237
v -27.556425 3.000000 -18.003506
v -25.014610 1.080000 -23.027575
v -24.217308 0.000000 -22.293600
v -25.014610 1.920000 -23.027575
v -24.217308 3.000000 -22.293600
v -20.883234 1.080000 -26.830776
v -20.217609 0.000000 -25.975584
v -20.883234 1.920000 -26.830776
v -20.217609 3.000000 -25.975584
v -16.182211 1.080000 -29.902107
v -15.666421 0.000000 -28.949022
v -16.182211 1.920000 -29.902107
v -15.666421 3.000000 -28.949022
v -11.039783 1.080000 -32.157787
v -10.687902 0.000000 -31.132805
v -11.039783 1.920000 -32.157787
v -10.687902 3.000000 -31.132805
v -5.596217 1.080000 -33.536285
v -5.417861 0.000000 -32.467361
v -5.596217 1.920000 -33.536285
v -5.417861 3.000000 -32.467361
vn -0.0000 -0.0000 -1.0000
vn -0.0000 -1.0000 -0.0000
vn -0.6843 0.7083 -0.1733
vn -0.6843 -0.7083 -0.1733
vn -0.7035 0.7083 -0.0583
vn -0.7035 -0.7083 -0.0583
vn -0.7035 0.7083 0.0583
vn 0.1412 -0.5142 -0.8460
vn -0.7035 -0.7083 0.0583
vn -0.6843 0.7083 0.1733
vn -0.6843 -0.7083 0.1733
vn -0.6464 0.7083 0.2836
vn -0.6464 -0.7083 0.2836
vn 0.8548 -0.5142 -0.0708
vn -0.5910 0.7083 0.3861
vn -0.5910 -0.7083 0.3861
vn -0.5193 0.7083 0.4781
vn 0.5910 -0.7083 -0.3861
vn 0.6464 -0.7083 -0.2836
vn -0.5193 -0.7083 0.4781
vn -0.4336 0.7083 0.5571
vn 0.2785 -0.5142 -0.8112
vn -0.4336 -0.7083 0.5571
vn -0.3360 0.7083 0.6208
vn -0.3360 -0.7083 0.6208
vn 0.4336 0.7083 -0.5571
vn -0.2292 0.7083 0.6676
vn -0.2292 0.7083 0.6677
vn -0.2292 -0.7083 0.6676
vn -0.2292 -0.7083 0.6677
vn 0.8548 -0.5142 0.0708
vn -0.1162 0.7083 0.6963
vn -0.1162 -0.7083 0.6963
vn 0.6464 -0.7083 0.2836
vn -0.0000 0.7083 0.7059
vn -0.0000 -0.7083 0.7059
vn 0.1162 0.7083 0.6963
vn 0.4082 -0.5142 -0.7543
vn 0.1162 -0.7083 0.6963
vn 0.2292 0.7083 0.6676
vn 0.2292 0.7083 0.6677
vn 0.5193 0.7083 0.4781
vn 0.5910 0.7083 0.3861
vn 0.2292 -0.7083 0.6676
vn 0.2292 -0.7083 0.6677
vn 0.3360 0.7083 0.6208
vn 0.3360 -0.7083 0.6208
vn 0.8314 -0.5142 0.2105
vn 0.8314 -0.5142 0.2106
vn 0.4336 0.7083 0.5571
vn 0.4336 -0.7083 0.5571
vn 0.5193 -0.7083 0.4781
vn 0.5910 -0.7083 0.3861
vn 0.6464 0.7083 0.2836
vn 0.4336 -0.7083 -0.5571
vn 0.5193 -0.7083 -0.4781
vn 0.6843 0.7083 0.1733
vn 0.6843 -0.7083 0.1733
vn 0.7854 -0.5142 0.3445
vn 0.7035 0.7083 0.0583
vn -0.1822 0.7101 -0.6801
vn -0.1822 -0.7101 -0.6801
vn -0.3520 0.7101 -0.6097
vn 0.5268 -0.5142 0.6768
vn -0.3520 -0.7101 -0.6097
vn -0.4978 0.7101 -0.4978
vn -0.0000 -0.7083 -0.7059
vn -0.4978 -0.7101 -0.4978
vn -0.6097 0.7101 -0.3520
vn -0.6097 -0.7101 -0.3520
vn -0.6801 0.7101 -0.1822
vn -0.6801 -0.7101 -0.1822
vn 0.7180 -0.5142 0.4691
vn 0.6310 -0.5142 0.5809
vn -0.7041 0.7101 -0.0000
vn -0.0000 0.7083 -0.7059
vn -0.7041 -0.7101 -0.0000
vn -0.6801 0.7101 0.1822
vn -0.6801 -0.7101 0.1822
vn -0.6097 0.7101 0.3520
vn -0.6097 -0.7101 0.3520
vn -0.4978 0.7101 0.4978
vn -0.4978 -0.7101 0.4978
vn -0.3520 0.7101 0.6097
vn 0.1162 -0.7083 -0.6963
vn -0.3520 -0.7101 0.6097
vn -0.1822 0.7101 0.6801
vn -0.1822 -0.7101 0.6801
vn -0.0000 0.7101 0.7041
vn 0.1162 0.7083 -0.6963
vn -0.0000 -0.7101 0.7041
vn 0.1822 0.7101 0.6801
vn 0.1822 -0.7101 0.6801
vn 0.3520 0.7101 0.6097
vn 0.3520 -0.7101 0.6097
vn 0.4978 0.7101 0.4978
vn 0.2292 -0.7083 -0.6676
vn 0.2292 -0.7083 -0.6677
vn 0.4978 -0.7101 0.4978
vn 0.6097 0.7101 0.3520
vn 0.6097 -0.7101 0.3520
vn 0.7035 -0.7083 0.0583
vn 0.6801 0.7101 0.1822
vn 0.6801 -0.7101 0.1822
vn 0.5193 0.7083 -0.4781
vn 0.2292 0.7083 -0.6677
vn 0.7035 0.7083 -0.0583
vn -0.0000 -0.7101 -0.7041
vn 0.5910 0.7083 -0.3861
vn 0.2292 0.7083 -0.6676
vn 0.3360 -0.7083 -0.6208
vn 0.5268 -0.5142 -0.6768
vn 0.7854 -0.5142 -0.3445
vn -0.0000 0.7101 -0.7041
vn 0.4978 0.7101 -0.4978
vn 0.6097 -0.7101 -0.3520
vn 0.6464 0.7083 -0.2836
vn 0.1822 -0.7101 -0.6801
vn 0.6310 -0.5142 -0.5809
vn 0.7180 -0.5142 -0.4691
vn 0.3520 0.7101 -0.6097
vn 0.1822 0.7101 -0.6801
vn 0.4978 -0.7101 -0.4978
vn 0.7041 -0.7101 -0.0000
vn 0.6801 -0.7101 -0.1822
vn 0.6843 0.7083 -0.1733
vn 0.3520 -0.7101 -0.6097
vn 0.3360 0.7083 -0.6208
vn 0.7041 0.7101 -0.0000
vn 0.6843 -0.7083 -0.1733
vn 0.7035 -0.7083 -0.0583
vn 0.6801 0.7101 -0.1822
vn 0.6097 0.7101 -0.3520
vn -0.0000 1.0000 -0.0000
vn 0.2588 -0.0000 -0.9659
vn 0.5000 -0.0000 -0.8660
vn 0.7071 -0.0000 -0.7071
vn 0.8660 -0.0000 -0.5000
vn 0.9659 -0.0000 -0.2588
vn 1.0000 -0.0000 -0.0000
vn 0.9659 -0.0000 0.2588
vn 0.8660 -0.0000 0.5000
vn 0.7071 -0.0000 0.7071
vn 0.5000 -0.0000 0.8660
vn 0.2588 -0.0000 0.9659
vn -0.0000 -0.0000 1.0000
vn -0.2588 -0.0000 0.9659
vn -0.5000 -0.0000 0.8660
vn -0.7071 -0.0000 0.7071
vn -0.8660 -0.0000 0.5000
vn -0.9659 -0.0000 0.2588
vn -1.0000 -0.0000 -0.0000
vn -0.9659 -0.0000 -0.2588
vn -0.8660 -0.0000 -0.5000
vn -0.7071 -0.0000 -0.7071
vn -0.5000 -0.0000 -0.8660
vn -0.2588 -0.0000 -0.9659
vn 0.1646 -0.0000 -0.9864
vn 0.3247 -0.0000 -0.9458
vn 0.4759 -0.0000 -0.8795
vn 0.6142 -0.0000 -0.7891
vn 0.7357 -0.0000 -0.6773
vn 0.8372 -0.0000 -0.5469
vn 0.8372 -0.0000 -0.5470
vn 0.9158 -0.0000 -0.4017
vn 0.9694 -0.0000 -0.2455
vn 0.9966 -0.0000 -0.0826
vn 0.9966 -0.0000 0.0826
vn 0.9694 -0.0000 0.2455
vn 0.9158 -0.0000 0.4017
vn 0.8372 -0.0000 0.5469
vn 0.7357 -0.0000 0.6773
vn 0.6142 -0.0000 0.7891
vn 0.4759 -0.0000 0.8795
vn 0.3247 -0.0000 0.9458
vn 0.1646 -0.0000 0.9864
vn -0.1646 -0.0000 0.9864
vn -0.3247 -0.0000 0.9458
vn -0.4759 -0.0000 0.8795
vn -0.6142 -0.0000 0.7891
vn -0.7357 -0.0000 0.6773
vn -0.8372 -0.0000 0.5469
vn -0.8372 -0.0000 0.5470
vn -0.9158 -0.0000 0.4017
vn -0.9694 -0.0000 0.2455
vn -0.9966 -0.0000 0.0826
vn -0.9966 -0.0000 -0.0826
vn -0.9694 -0.0000 -0.2455
vn -0.9158 -0.0000 -0.4017
vn -0.8372 -0.0000 -0.5469
vn -0.7357 -0.0000 -0.6773
vn -0.6142 -0.0000 -0.7891
vn -0.4759 -0.0000 -0.8795
vn -0.3247 -0.0000 -0.9458
vn -0.1646 -0.0000 -0.9864
vn -0.0000 0.4751 -0.8799
vn -0.0000 0.9605 -0.2782
vn -0.0000 0.6852 -0.7283
vn 0.1448 0.4751 -0.8679
vn 0.0458 0.9605 -0.2744
vn 0.1199 0.6852 -0.7184
vn 0.2857 0.4751 -0.8322
vn 0.0903 0.9605 -0.2631
vn 0.2365 0.6852 -0.6889
vn 0.4188 0.4751 -0.7739
vn 0.1324 0.9605 -0.2447
vn 0.3467 0.6852 -0.6406
vn 0.5404 0.4751 -0.6944
vn 0.1709 0.9605 -0.2195
vn 0.4474 0.6852 -0.5748
vn 0.6474 0.4751 -0.5959
vn 0.2047 0.9605 -0.1884
vn 0.5359 0.6852 -0.4933
vn 0.7366 0.4751 -0.4813
vn 0.2329 0.9605 -0.1522
vn 0.6097 0.6852 -0.3984
vn 0.8058 0.4751 -0.3535
vn 0.2548 0.9605 -0.1117
vn 0.6670 0.6852 -0.2926
vn 0.8530 0.4751 -0.2160
vn 0.2697 0.9605 -0.0683
vn 0.7061 0.6852 -0.1788
vn 0.8769 0.4751 -0.0727
vn 0.2772 0.9605 -0.0230
vn 0.7259 0.6852 -0.0601
vn 0.8769 0.4751 0.0727
vn 0.2772 0.9605 0.0230
vn 0.7259 0.6852 0.0601
vn 0.8530 0.4751 0.2160
vn 0.2697 0.9605 0.0683
vn 0.7061 0.6852 0.1788
vn 0.8058 0.4751 0.3535
vn 0.2548 0.9605 0.1117
vn 0.6670 0.6852 0.2926
vn 0.7366 0.4751 0.4813
vn 0.2329 0.9605 0.1522
vn 0.6097 0.6852 0.3984
vn 0.6474 0.4751 0.5959
vn 0.2047 0.9605 0.1884
vn 0.5359 0.6852 0.4933
vn 0.5404 0.4751 0.6944
vn 0.1709 0.9605 0.2195
vn 0.4474 0.6852 0.5748
vn 0.4188 0.4751 0.7739
vn 0.1324 0.9605 0.2447
vn 0.3467 0.6852 0.6406
vn 0.2857 0.4751 0.8322
vn 0.0903 0.9605 0.2631
vn 0.2365 0.6852 0.6889
vn 0.1448 0.4751 0.8679
vn 0.0458 0.9605 0.2744
vn 0.1199 0.6852 0.7184
vn -0.0000 0.4751 0.8799
vn -0.0000 0.9605 0.2782
vn -0.0000 0.6852 0.7283
vn -0.1448 0.4751 0.8679
vn -0.0458 0.9605 0.2744
vn -0.1199 0.6852 0.7184
vn -0.2857 0.4751 0.8322
vn -0.0903 0.9605 0.2631
vn -0.2365 0.6852 0.6889
vn -0.4188 0.4751 0.7739
vn -0.1324 0.9605 0.2447
vn -0.3467 0.6852 0.6406
vn -0.5404 0.4751 0.6944
vn -0.1709 0.9605 0.2195
vn -0.4474 0.6852 0.5748
vn -0.6474 0.4751 0.5959
vn -0.2047 0.9605 0.1884
vn -0.5359 0.6852 0.4933
vn -0.7366 0.4751 0.4813
vn -0.2329 0.9605 0.1522
vn -0.6097 0.6852 0.3984
vn -0.8058 0.4751 0.3535
vn -0.2548 0.9605 0.1117
vn -0.6670 0.6852 0.2926
vn -0.8530 0.4751 0.2160
vn -0.2697 0.9605 0.0683
vn -0.7061 0.6852 0.1788
vn -0.8769 0.4751 0.0727
vn -0.2772 0.9605 0.0230
vn -0.7259 0.6852 0.0601
vn -0.8769 0.4751 -0.0727
vn -0.2772 0.9605 -0.0230
vn -0.7259 0.6852 -0.0601
vn -0.8530 0.4751 -0.2160
vn -0.2697 0.9605 -0.0683
vn -0.7061 0.6852 -0.1788
vn -0.8058 0.4751 -0.3535
vn -0.2548 0.9605 -0.1117
vn -0.6670 0.6852 -0.2926
vn -0.7366 0.4751 -0.4813
vn -0.2329 0.9605 -0.1522
vn -0.6097 0.6852 -0.3984
vn -0.6474 0.4751 -0.5959
vn -0.2047 0.9605 -0.1884
vn -0.5359 0.6852 -0.4933
vn -0.5404 0.4751 -0.6944
vn -0.1709 0.9605 -0.2195
vn -0.4474 0.6852 -0.5748
vn -0.4188 0.4751 -0.7739
vn -0.1324 0.9605 -0.2447
vn -0.3467 0.6852 -0.6406
vn -0.2857 0.4751 -0.8322
vn -0.0903 0.9605 -0.2631
vn -0.2365 0.6852 -0.6889
vn -0.1448 0.4751 -0.8679
vn -0.0458 0.9605 -0.2744
vn -0.1199 0.6852 -0.7184
vn 0.8314 -0.5142 -0.2105
vn -0.6464 -0.7083 -0.2836
vn -0.6464 0.7083 -0.2836
vn -0.5910 -0.7083 -0.3861
vn -0.5910 0.7083 -0.3861
vn -0.5193 -0.7083 -0.4781
vn -0.5193 0.7083 -0.4781
vn -0.4336 -0.7083 -0.5571
vn -0.4336 0.7083 -0.5571
vn -0.3360 -0.7083 -0.6208
vn -0.0000 -0.5142 -0.8577
vn -0.3360 0.7083 -0.6208
vn -0.2292 -0.7083 -0.6677
vn -0.2292 -0.7083 -0.6676
vn -0.2292 0.7083 -0.6677
vn -0.2292 0.7083 -0.6676
vn -0.1162 -0.7083 -0.6963
vn -0.1162 0.7083 -0.6963
vn 0.4082 -0.5142 0.7543
vn 0.2785 -0.5142 0.8112
vn 0.1412 -0.5142 0.8460
vn -0.0000 -0.5142 0.8577
vn -0.1412 -0.5142 0.8460
vn -0.2785 -0.5142 0.8112
vn -0.4082 -0.5142 0.7543
vn -0.5268 -0.5142 0.6768
vn -0.6310 -0.5142 0.5809
vn -0.7180 -0.5142 0.4691
vn -0.7854 -0.5142 0.3445
vn -0.8314 -0.5142 0.2105
vn -0.8548 -0.5142 0.0708
vn -0.8548 -0.5142 -0.0708
vn -0.8314 -0.5142 -0.2106
vn -0.8314 -0.5142 -0.2105
vn -0.7854 -0.5142 -0.3445
vn -0.7180 -0.5142 -0.4691
vn -0.6310 -0.5142 -0.5809
vn -0.5268 -0.5142 -0.6768
vn -0.4082 -0.5142 -0.7543
vn -0.2785 -0.5142 -0.8112
vn -0.1412 -0.5142 -0.8460
vt 1.088316 0.711033
vt 0.916576 0.843767
vt 0.956441 0.880466
vt -0.176777 -0.176777
vt -0.169337 -0.097767
vt -0.216506 -0.125000
vt -0.241481 -0.064705
vt -0.195534 0.000000
vt -0.188871 -0.050608
vt 0.216506 -0.125000
vt 0.138263 -0.138263
vt 0.176777 -0.176777
vt 0.873067 0.803715
vt 0.926588 0.605370
vt 0.993447 0.649051
vt 0.724335 1.322551
vt 0.520523 1.275000
vt 0.708743 1.275000
vt 0.125000 -0.216506
vt 0.241481 -0.064705
vt 0.169337 -0.097767
vt -0.216506 0.125000
vt -0.138263 0.138263
vt -0.176777 0.176777
vt -0.241481 0.064705
vt -0.169337 0.097767
vt 0.241481 0.064705
vt 0.195534 -0.000000
vt 0.188871 0.050608
vt 0.169337 0.097767
vt 0.216506 0.125000
vt 0.765195 0.983123
vt 0.250000 0.000000
vt 0.195534 0.000000
vt 0.176777 0.176777
vt 1.260220 0.319131
vt 1.140884 0.500438
vt 1.207693 0.305829
vt -0.188871 0.050608
vt 0.000000 1.300000
vt 0.205054 1.228824
vt 0.000000 1.245815
vt 0.188871 -0.050608
vt 0.422109 1.229562
vt 0.592942 1.095662
vt 0.404515 1.178313
vt -0.138263 -0.138263
vt 0.618732 1.143316
vt -0.250000 0.000000
vt 1.190505 0.522204
vt 1.042955 0.681396
vt 0.138263 0.138263
vt 1.086728 0.476683
vt 1.013592 0.444603
vt -0.125000 0.216506
vt 0.873067 -0.803715
vt 0.926588 -0.605370
vt 0.814310 -0.749626
vt 0.213973 1.282270
vt 0.097767 -0.169337
vt 0.974335 1.322551
vt 0.795906 1.275000
vt 0.953362 1.275000
vt 0.877631 1.275000
vt 0.896939 1.322551
vt -0.195534 -0.000000
vt -0.097767 0.169337
vt -0.724336 1.322552
vt -0.877631 1.275000
vt -0.708743 1.275000
vt 0.064705 -0.241481
vt -0.064705 0.241481
vt -0.050608 0.188871
vt 0.050608 -0.188871
vt -0.125000 -0.216506
vt 1.086728 -0.476683
vt 0.993447 -0.649051
vt -0.097767 -0.169337
vt 0.125000 0.216506
vt -0.064705 -0.241481
vt 0.097767 0.169337
vt 1.295560 0.107353
vt -0.050608 -0.188871
vt 0.064705 0.241481
vt 0.000000 -0.250000
vt 0.798477 1.025883
vt -0.000000 -0.195534
vt 0.050608 0.188871
vt 1.423183 0.929812
vt 1.210865 1.114680
vt 1.377821 0.900175
vt 0.000000 -0.195534
vt 0.000000 0.250000
vt 1.647980 -0.417325
vt 1.507193 -0.661117
vt 1.556815 -0.682882
vt 0.000000 0.195534
vt 1.241560 0.102879
vt 1.423183 -0.929812
vt 1.210865 -1.114680
vt 1.377821 -0.900175
vt -0.000000 0.195534
vt 1.295560 -0.107353
vt -0.107353 1.646000
vt 0.102879 1.700000
vt -0.102879 1.700000
vt -0.531974 1.322551
vt -0.520523 1.275000
vt 1.260220 -0.319131
vt 1.241560 -0.102879
vt 0.728873 0.936455
vt 0.814310 0.749626
vt 1.207693 -0.305829
vt 1.250731 1.151379
vt 1.010880 1.298779
vt 1.044162 1.341539
vt 1.140884 -0.500438
vt 1.190505 -0.522204
vt 1.042955 -0.681396
vt 0.813416 1.322551
vt 1.088316 -0.711033
vt 1.150366 -0.291312
vt 1.013592 -0.444603
vt 0.916576 -0.843767
vt 0.956441 -0.880466
vt 0.765195 -0.983123
vt 0.798477 -1.025883
vt -0.318104 1.275000
vt -0.325102 1.322551
vt 0.618732 -1.143316
vt 0.564796 1.043652
vt 0.679820 0.873432
vt 0.592942 -1.095662
vt 0.422109 -1.229562
vt 1.250731 -1.151379
vt 0.404515 -1.178313
vt 0.213973 -1.282270
vt 0.630308 1.322551
vt 0.616739 1.275000
vt 0.205054 -1.228824
vt 1.182625 -0.097995
vt 1.072947 -0.271707
vt 0.000000 -1.300000
vt 0.000000 -1.245815
vt -0.205054 -1.228824
vt -0.213973 -1.282270
vt -0.107008 1.275000
vt -0.109362 1.322551
vt -0.404515 -1.178313
vt 0.359383 1.046844
vt 0.526785 0.973415
vt -0.422109 -1.229562
vt -0.592942 -1.095662
vt -0.618732 -1.143316
vt -0.765195 -0.983123
vt 0.430007 1.322551
vt 0.420751 1.275000
vt -0.798477 -1.025883
vt 1.182625 0.097995
vt 1.103035 -0.091400
vt -0.956441 -0.880466
vt 1.507193 0.661117
vt -0.916576 -0.843767
vt -1.088316 -0.711033
vt -1.042955 -0.681396
vt 0.107008 1.275000
vt 0.109362 1.322551
vt -1.190505 -0.522204
vt 0.195321 1.170493
vt 0.385314 1.122380
vt -1.140884 -0.500438
vt -1.260220 -0.319131
vt -1.207693 -0.305829
vt -1.295560 -0.107353
vt 0.213284 1.275000
vt 0.217976 1.322551
vt -1.241560 -0.102879
vt 1.072947 0.271707
vt 1.103035 0.091400
vt -1.295560 0.107353
vt 0.107353 1.646000
vt -1.260220 0.319131
vt -1.241560 0.102879
vt -1.207693 0.305829
vt 0.318104 1.275000
vt 0.325102 1.322551
vt -1.140884 0.500438
vt -1.190505 0.522204
vt -1.042955 0.681396
vt 0.000000 1.186678
vt 0.182175 1.091719
vt -1.088316 0.711033
vt -0.916576 0.843767
vt 1.010880 -1.298779
vt -0.956441 0.880466
vt 1.150366 0.291312
vt -0.765195 0.983123
vt -0.798477 1.025883
vt -0.618732 1.143316
vt 0.000000 1.275000
vt -0.000000 1.322551
vt -0.592942 1.095662
vt 0.531974 1.322552
vt -0.422109 1.229562
vt 1.556815 0.682882
vt -0.404515 1.178313
vt -0.213973 1.282270
vt -0.205054 1.228824
vt 0.728873 -0.936455
vt 0.679820 -0.873432
vt 0.809111 1.495105
vt 0.630308 1.322551
vt 0.813416 1.322551
vt 1.595454 -0.404023
vt 0.564796 -1.043652
vt 0.526785 -0.973415
vt 0.359383 -1.046844
vt 0.385314 -1.122380
vt 0.783321 1.447451
vt 0.195321 -1.170493
vt 0.182175 -1.091719
vt 1.640194 -0.135911
vt 0.000000 -1.186678
vt 0.000000 -1.106815
vt -0.217976 1.322551
vt 0.000000 1.322551
vt -0.182175 -1.091719
vt -0.195321 -1.170493
vt 0.551989 1.607889
vt -0.430007 1.322551
vt -0.213284 1.275000
vt 1.694194 -0.140385
vt -0.359383 -1.046844
vt -0.385314 -1.122380
vt -0.616739 1.275000
vt -0.420751 1.275000
vt -0.564796 -1.043652
vt -0.526785 -0.973415
vt 0.534395 1.556640
vt -0.630308 1.322551
vt -0.795906 1.275000
vt -0.679820 -0.873432
vt -0.728873 -0.936455
vt -0.974335 1.322551
vt -0.813416 1.322551
vt 1.694194 0.140385
vt -0.814310 -0.749626
vt -0.873067 -0.803715
vt -0.724335 1.322551
vt -0.896939 1.322551
vt -0.926588 -0.605370
vt -0.993447 -0.649051
vt 0.270893 1.623368
vt 1.640194 0.135911
vt -1.086728 -0.476683
vt -1.013592 -0.444603
vt -0.531974 1.322552
vt -1.150366 -0.291312
vt -1.072947 -0.271707
vt 0.279811 1.676814
vt -0.325102 1.322551
vt -1.182625 -0.097995
vt -1.103035 -0.091400
vt 1.647980 0.417325
vt -1.103035 0.091400
vt -1.182625 0.097995
vt 0.325102 1.322551
vt -1.072947 0.271707
vt -1.150366 0.291312
vt 0.531974 1.322551
vt 1.595454 0.404023
vt -1.013592 0.444603
vt -1.086728 0.476683
vt 0.000000 1.645815
vt -0.926588 0.605370
vt -0.993447 0.649051
vt 0.724336 1.322552
vt -0.873067 0.803715
vt -0.814310 0.749626
vt -0.953362 1.275000
vt -0.728873 0.936455
vt -0.679820 0.873432
vt -0.000000 1.645815
vt 0.000000 1.700000
vt -0.630308 1.322551
vt -0.813416 1.322551
vt -0.564796 1.043652
vt -0.526785 0.973415
vt -0.359383 1.046844
vt -0.385314 1.122380
vt -0.195321 1.170493
vt -0.182175 1.091719
vt -0.000000 1.106815
vt 1.044162 -1.341539
vt 0.809111 -1.495105
vt 0.783321 -1.447451
vt 0.551989 -1.607889
vt 0.534395 -1.556640
vt 0.270893 -1.623368
vt 0.279811 -1.676814
vt 0.000000 -1.645815
vt -0.000000 -1.645815
vt 0.000000 -1.700000
vt -0.279811 -1.676814
vt -0.270893 -1.623368
vt -0.551989 -1.607889
vt -0.534395 -1.556640
vt -0.783321 -1.447451
vt -0.809111 -1.495105
vt -1.010880 -1.298779
vt -1.044162 -1.341539
vt -1.250731 -1.151379
vt -1.210865 -1.114680
vt -1.423183 -0.929812
vt -1.377821 -0.900175
vt -1.507193 -0.661117
vt -1.556815 -0.682882
vt -1.647980 -0.417325
vt -1.595454 -0.404023
vt -1.640194 -0.135911
vt -1.694194 -0.140385
vt -1.694194 0.140385
vt -1.640194 0.135911
vt -1.647980 0.417325
vt -1.595454 0.404023
vt -1.556815 0.682882
vt -1.507193 0.661117
vt -1.423183 0.929812
vt -1.377821 0.900175
vt -1.210865 1.114680
vt -1.250731 1.151379
vt -1.010880 1.298779
vt -1.044162 1.341539
vt -0.809111 1.495105
vt -0.783321 1.447451
vt -0.551989 1.607889
vt -0.534395 1.556640
vt -0.270893 1.623368
vt -0.279811 1.676814
vt 0.000000 1.446000
vt 0.064705 0.054000
vt 0.000000 0.054000
vt -0.064705 1.446000
vt -0.064705 0.054000
vt 0.064705 1.446000
vt 0.125000 0.054000
vt 0.125000 1.446000
vt 0.176777 0.054000
vt 0.176777 1.446000
vt -0.125000 0.054000
vt -0.125000 1.446000
vt -0.176777 0.054000
vt -0.176777 1.446000
vt 0.000000 1.646000
vt 0.213973 1.554000
vt 0.000000 1.554000
vt -0.213973 1.646000
vt -0.213973 1.554000
vt 0.213973 1.646000
vt 0.422109 1.554000
vt 0.422109 1.646000
vt 0.618732 1.554000
vt 0.618732 1.646000
vt 0.798477 1.554000
vt 0.798477 1.646000
vt 0.956441 1.554000
vt 0.880466 1.646000
vt 0.711033 1.554000
vt 0.880466 1.554000
vt 0.711033 1.646000
vt 0.522204 1.554000
vt 0.522204 1.646000
vt 0.319131 1.554000
vt 0.319131 1.646000
vt 0.107353 1.554000
vt -0.107353 1.554000
vt -0.319131 1.554000
vt -0.319131 1.646000
vt -0.522204 1.554000
vt -0.522204 1.646000
vt -0.711033 1.554000
vt -0.711033 1.646000
vt -0.880466 1.554000
vt 0.956441 1.646000
vt -0.422109 1.554000
vt -0.422109 1.646000
vt -0.618732 1.554000
vt -0.618732 1.646000
vt -0.798477 1.554000
vt -0.798477 1.646000
vt -0.956441 1.554000
vt -0.880466 1.646000
vt -0.956441 1.646000
vt 0.213284 -1.278142
vt -0.795906 1.022580
vt 0.795906 1.022580
vt 0.000000 1.577448
vt 0.195321 1.577448
vt 0.564796 1.577448
vt 0.728873 1.577448
vt 0.803715 1.577448
vt 0.476683 1.577448
vt 0.291312 1.577448
vt 0.097995 1.577448
vt -0.097995 1.577448
vt -0.291312 1.577448
vt -0.476683 1.577448
vt -0.803715 1.577448
vt 0.728873 1.577449
vt -0.195321 1.577448
vt -0.564796 1.577448
vt -0.728873 1.577448
vt -0.291312 1.577448
vt -0.097995 1.577448
vt 0.097995 1.577448
vt 0.291312 1.577448
vt -0.728873 1.577449
vt 0.000000 0.096000
vt 0.279811 0.054000
vt -0.279811 0.096000
vt -0.279811 0.054000
vt 0.279811 0.096000
vt 0.551989 0.054000
vt 0.551989 0.096000
vt 0.809111 0.054000
vt 0.809111 0.096000
vt 1.044162 0.054000
vt 1.044162 0.096000
vt 1.250731 0.054000
vt 1.151379 0.096000
vt 0.929812 0.054000
vt 1.151379 0.054000
vt 0.929812 0.096000
vt 0.682882 0.054000
vt 0.682882 0.096000
vt 0.417325 0.054000
vt 0.417325 0.096000
vt 0.140385 0.054000
vt 0.140385 0.096000
vt -0.140385 0.054000
vt -0.140385 0.096000
vt -0.417325 0.054000
vt -0.417325 0.096000
vt -0.682882 0.054000
vt -0.682882 0.096000
vt -0.929812 0.054000
vt -0.929812 0.096000
vt -1.151379 0.054000
vt 1.250731 0.096000
vt 1.044162 0.054000
vt 1.250731 0.054000
vt -0.551989 0.054000
vt -0.551989 0.096000
vt -0.809111 0.054000
vt -0.809111 0.096000
vt -1.044162 0.054000
vt -1.044162 0.096000
vt -1.250731 0.054000
vt -1.151379 0.096000
vt -0.929812 0.054000
vt -1.151379 0.054000
vt -0.682882 0.054000
vt 0.682882 0.054000
vt 0.929812 0.054000
vt 1.151379 0.054000
vt -1.250731 0.096000
vt -1.044162 0.054000
vt -1.250731 0.054000
vt 1.084813 0.708743
vt 1.186673 0.520523
vt 1.256163 0.318104
vt 1.291389 0.107008
vt 1.291389 -0.107008
vt 1.256163 -0.318104
vt 1.186673 -0.520523
vt 1.084813 -0.708743
vt 0.953362 -0.877631
vt 0.795906 -1.022580
vt 0.616739 -1.139635
vt 0.420751 -1.225604
vt 0.000000 -1.295815
vt -0.213284 -1.278142
vt -0.420751 -1.225604
vt -0.616739 -1.139635
vt -0.795906 -1.022580
vt -0.953362 -0.877631
vt -1.084813 -0.708743
vt -1.186673 -0.520523
vt -1.256163 -0.318104
vt -1.291389 -0.107008
vt -1.291389 0.107008
vt -1.256163 0.318104
vt -1.186673 0.520523
vt -1.084813 0.708743
vt -0.953362 0.877631
vt -0.616739 1.139635
vt -0.420751 1.225604
vt -0.213284 1.278142
vt 0.000000 1.295815
vt 0.213284 1.278142
vt 0.420751 1.225604
vt 0.616739 1.139635
vt 0.953362 0.877631
vt 0.385314 1.577448
vt 0.873067 1.577448
vt 0.649051 1.577448
vt -0.649051 1.577448
vt -0.385314 1.577448
vt -0.873067 1.577448
s 1
f 172/1/18 147/2/56 148/3/56
f 158/4/82 153/5/80 154/6/80
f 152/7/79 145/8/77 151/9/79
f 198/10/100 191/11/96 192/12/96
f 548/13/213 551/14/215 552/15/216
f 253/16/120 232/17/113 245/18/120
f 190/19/95 195/11/99 196/12/99
f 203/20/103 197/21/100 198/10/100
f 130/22/69 123/23/66 124/24/66
f 134/25/71 129/26/69 130/22/69
f 250/27/125 271/28/124 270/29/125
f 250/27/125 240/30/116 234/31/116
f 205/3/105 259/32/26 214/2/105
f 274/33/129 272/29/132 261/34/129
f 229/35/115 273/30/133 275/31/133
f 263/36/126 256/37/117 255/38/126
f 136/25/72 131/26/70 135/39/72
f 126/40/67 163/41/85 125/42/67
f 228/20/104 199/21/101 204/43/104
f 194/44/98 225/45/111 193/46/97
f 156/6/81 159/47/83 160/4/83
f 150/7/78 153/5/80 149/9/78
f 218/48/111 226/32/55 225/45/111
f 276/27/132 273/30/133 272/29/132
f 142/49/75 133/39/71 134/25/71
f 132/22/70 127/23/68 131/26/70
f 278/36/130 208/37/19 201/50/19
f 200/10/101 195/11/99 199/21/101
f 211/1/109 214/2/105 219/51/109
f 152/7/79 155/5/81 156/6/81
f 274/33/129 212/43/103 203/20/103
f 234/31/116 248/52/123 257/35/123
f 556/53/219 551/14/215 555/54/218
f 122/55/65 127/23/68 128/24/68
f 584/56/240 579/57/236 583/58/239
f 144/40/76 175/41/90 176/59/90
f 192/12/96 187/60/94 188/19/94
f 139/61/74 119/62/64 138/63/74
f 253/16/120 244/64/119 254/65/119
f 142/49/75 149/9/78 141/66/75
f 262/50/117 219/51/109 256/37/117
f 124/24/66 117/67/63 118/55/63
f 228/20/104 271/28/124 249/33/124
f 140/68/73 138/69/74 137/70/73
f 186/71/93 189/60/95 190/19/95
f 114/72/61 117/67/63 113/73/61
f 206/44/106 260/45/128 268/48/128
f 136/25/72 145/8/77 146/49/77
f 184/71/92 187/60/94 183/74/92
f 116/72/62 121/67/65 122/55/65
f 162/75/84 157/47/82 158/4/82
f 576/76/234 579/57/236 580/77/237
f 166/75/86 159/47/83 165/78/86
f 252/79/121 231/52/115 229/35/115
f 168/80/87 161/78/84 162/75/84
f 258/79/127 248/52/123 267/81/127
f 164/59/85 193/46/97 163/41/85
f 277/82/131 264/38/130 278/36/130
f 170/80/88 165/78/86 169/83/88
f 251/84/122 246/81/121 252/79/121
f 174/85/89 167/83/87 168/80/87
f 268/48/128 259/32/26 269/86/26
f 170/80/88 177/87/91 178/85/91
f 243/84/118 267/81/127 266/88/118
f 201/50/19 171/51/18 172/1/18
f 237/89/109 242/90/105 241/91/109
f 174/85/89 183/74/92 173/92/89
f 227/93/114 247/88/122 251/84/122
f 176/59/90 213/46/110 206/44/106
f 215/94/57 221/95/54 216/96/54
f 186/71/93 177/87/91 185/74/93
f 243/84/118 210/97/108 235/93/108
f 263/36/126 220/98/107 209/82/107
f 148/3/56 226/32/55 217/86/55
f 182/99/53 180/100/52 179/101/53
f 116/72/62 210/97/108 115/73/62
f 227/93/114 113/73/61 230/102/114
f 202/103/102 265/98/131 277/82/131
f 112/104/60 220/105/107 111/106/60
f 110/107/59 137/70/73 109/108/59
f 108/109/58 207/110/102 202/103/102
f 544/111/210 547/112/212 548/13/213
f 112/103/60 105/113/57 106/109/57
f 103/114/56 101/115/55 104/116/55
f 108/109/58 99/117/34 107/113/58
f 106/109/57 97/117/54 98/118/54
f 100/118/34 95/119/53 99/117/34
f 254/61/119 233/62/112 223/120/112
f 98/118/54 93/119/43 94/121/43
f 572/122/231 575/123/233 576/76/234
f 96/121/53 91/124/52 95/119/53
f 94/121/43 89/124/42 90/125/42
f 92/125/52 87/126/51 91/124/52
f 90/125/42 85/126/50 86/127/50
f 110/107/59 83/128/48 84/129/49
f 82/130/47 87/126/51 88/127/51
f 540/131/207 543/132/209 544/111/210
f 80/130/46 85/126/50 79/133/46
f 78/134/45 81/133/47 82/130/47
f 75/99/43 73/100/42 76/135/42
f 72/134/41 79/133/46 71/136/40
f 70/137/39 77/136/44 78/134/45
f 68/138/38 233/62/112 67/139/38
f 66/137/37 71/136/40 65/140/37
f 568/141/228 571/142/230 572/122/231
f 64/143/36 69/140/39 70/137/39
f 62/143/35 65/140/37 61/144/35
f 182/99/53 59/95/34 60/96/34
f 64/143/36 57/145/33 63/144/36
f 62/143/35 55/145/32 56/146/32
f 84/129/49 53/147/31 54/148/31
f 58/146/33 51/149/29 57/145/33
f 540/131/207 535/150/203 539/151/206
f 56/146/32 49/149/27 50/152/28
f 48/116/26 242/90/105 236/114/105
f 52/152/30 46/153/25 51/149/29
f 50/152/28 44/153/24 45/154/24
f 47/154/25 42/155/23 46/153/25
f 41/156/22 67/139/38 40/157/22
f 45/154/24 38/155/21 39/158/21
f 564/159/225 567/160/227 568/141/228
f 37/161/20 42/155/23 43/158/23
f 35/89/18 33/162/19 32/91/18
f 31/161/17 38/155/21 30/163/17
f 29/164/16 36/163/20 37/161/20
f 27/164/15 30/163/17 26/165/15
f 54/148/31 24/166/14 25/167/14
f 23/168/13 28/165/16 29/164/16
f 532/169/201 535/150/203 536/170/204
f 21/168/12 26/165/15 20/171/12
f 19/172/11 22/171/13 23/168/13
f 17/172/10 20/171/12 16/173/10
f 15/174/9 18/173/11 19/172/11
f 41/156/22 12/175/8 13/176/8
f 17/172/10 10/177/7 11/174/7
f 564/159/225 559/178/221 563/179/224
f 9/180/6 14/177/9 15/174/9
f 7/181/5 10/106/7 6/105/5
f 75/99/43 221/95/54 74/101/43
f 5/182/4 8/183/6 9/180/6
f 7/180/5 829/184/3 3/182/3
f 25/167/14 831/185/310 830/186/310
f 5/182/4 833/187/311 4/184/4
f 3/182/3 835/187/312 834/188/312
f 832/188/311 837/189/313 833/187/311
f 528/190/198 531/191/200 532/169/201
f 834/188/312 839/189/314 838/192/314
f 836/192/313 841/193/315 837/189/313
f 181/135/52 843/194/51 180/100/52
f 838/192/314 845/193/316 844/195/316
f 560/196/222 555/54/218 559/178/221
f 840/195/315 847/197/317 841/193/315
f 844/195/316 849/197/318 848/198/318
f 850/199/319 847/197/317 846/198/317
f 13/176/8 853/200/320 852/201/320
f 854/199/321 849/197/318 855/202/321
f 224/203/113 831/185/310 232/17/113
f 856/204/322 851/202/319 850/199/319
f 237/89/109 239/162/117 858/205/117
f 859/204/324 855/202/321 860/206/325
f 35/89/18 102/90/56 103/114/56
f 861/207/326 857/206/323 856/204/322
f 863/207/327 860/206/325 864/208/327
f 126/40/67 862/208/326 861/207/326
f 144/40/76 864/208/327 143/42/76
f 588/209/243 583/58/239 587/210/242
f 865/211/128 238/115/26 48/116/26
f 867/212/328 119/62/64 120/213/64
f 60/96/34 870/214/58 869/94/58
f 592/215/246 587/210/242 591/216/245
f 871/156/329 868/139/328 867/212/328
f 592/215/246 595/217/248 596/218/249
f 873/211/111 101/115/55 874/219/111
f 871/156/329 876/175/330 872/157/329
f 600/220/252 595/217/248 599/221/251
f 875/176/330 878/200/331 876/175/330
f 215/94/57 880/222/60 222/214/57
f 604/223/255 599/221/251 603/224/254
f 881/225/332 878/200/331 877/226/331
f 604/223/255 607/227/257 608/228/258
f 883/229/110 866/219/128 865/211/128
f 885/230/333 882/231/332 881/225/332
f 869/94/58 888/222/102 887/232/102
f 608/228/258 611/233/260 612/234/261
f 885/230/333 890/235/334 886/236/333
f 616/237/264 611/233/260 615/238/263
f 891/229/97 874/219/111 892/239/97
f 889/240/334 894/241/335 890/235/334
f 616/237/264 619/242/266 620/243/267
f 895/244/336 894/241/335 893/245/335
f 897/246/107 880/222/60 879/232/60
f 620/243/267 623/247/269 624/248/270
f 899/249/337 896/69/336 895/250/336
f 624/248/270 627/251/272 628/252/273
f 883/229/110 902/253/90 884/239/110
f 899/249/337 904/108/338 900/70/337
f 887/232/102 906/254/131 905/246/131
f 632/255/276 627/251/272 631/256/275
f 903/257/338 908/128/339 904/108/338
f 636/258/279 631/256/275 635/259/278
f 891/229/97 910/253/85 909/260/85
f 911/148/340 908/128/339 907/261/339
f 640/262/282 635/259/278 639/263/281
f 913/167/341 912/147/340 911/148/340
f 915/264/126 898/254/107 897/246/107
f 640/262/282 643/265/284 644/266/285
f 917/267/342 914/166/341 913/167/341
f 644/266/285 647/268/287 648/269/288
f 919/270/344 918/185/343 917/267/342
f 921/264/130 906/254/131 922/271/130
f 648/269/288 651/272/290 652/273/291
f 901/260/90 924/274/76 902/253/90
f 919/270/344 926/18/345 920/17/344
f 652/273/291 655/275/293 656/276/294
f 925/277/345 928/64/346 926/18/345
f 660/278/297 655/275/293 659/279/296
f 927/244/346 930/241/347 928/280/346
f 858/205/117 916/271/126 915/264/126
f 664/281/300 659/279/296 663/282/299
f 909/260/85 932/283/67 931/284/67
f 933/285/348 930/241/347 929/286/347
f 668/287/303 663/282/299 667/288/302
f 935/230/349 934/235/348 933/285/348
f 921/264/130 33/162/19 34/205/19
f 668/287/303 671/289/305 672/290/306
f 935/230/349 938/231/350 936/236/349
f 676/291/309 671/289/305 675/292/308
f 937/225/350 853/200/320 938/231/350
f 528/190/198 675/292/308 527/293/197
f 76/135/42 940/194/50 939/294/50
f 941/295/47 843/194/51 842/294/51
f 943/295/46 940/194/50 944/296/46
f 945/297/44 942/296/47 941/295/47
f 947/297/40 944/296/46 948/298/40
f 945/297/44 950/299/39 946/298/44
f 947/297/40 952/299/37 951/300/37
f 949/300/39 954/301/36 950/299/39
f 951/300/37 956/302/35 955/303/35
f 957/304/33 954/301/36 953/303/36
f 959/304/32 956/302/35 960/305/32
f 961/306/29 958/305/33 957/304/33
f 963/306/27 960/305/32 964/307/27
f 961/306/29 966/308/25 962/307/29
f 963/306/27 968/308/24 967/309/24
f 965/309/25 970/310/23 966/308/25
f 967/309/24 972/310/21 971/311/21
f 973/312/20 970/310/23 969/311/23
f 971/311/21 976/313/17 975/312/17
f 977/314/16 974/313/20 973/312/20
f 979/314/15 976/313/17 980/315/15
f 977/314/16 982/316/13 978/315/16
f 979/314/15 984/316/12 983/317/12
f 985/318/11 982/316/13 981/317/13
f 983/317/12 988/319/10 987/318/10
f 985/318/11 990/320/9 986/319/11
f 987/318/10 992/320/7 991/321/7
f 993/322/6 990/320/9 989/321/9
f 991/321/7 996/323/5 995/322/5
f 997/324/4 994/323/6 993/322/6
f 999/324/3 996/323/5 1000/325/3
f 1001/326/311 998/325/4 997/324/4
f 999/324/3 1004/327/312 1003/326/312
f 1005/328/313 1002/327/311 1001/326/311
f 1007/328/314 1004/327/312 1008/329/314
f 1005/328/313 1010/330/315 1006/329/313
f 1007/328/314 1012/330/316 1011/331/316
f 1009/331/315 1014/332/317 1010/330/315
f 1011/331/316 1016/332/318 1015/333/318
f 1017/334/319 1014/332/317 1013/333/317
f 1019/334/321 1016/332/318 1020/335/321
f 1021/336/323 1018/335/319 1017/334/319
f 1023/336/325 1020/335/321 1024/337/325
f 1021/336/323 1026/338/326 1022/337/323
f 1023/336/325 1028/338/327 1027/339/327
f 1025/339/326 932/283/67 1026/338/326
f 1027/339/327 924/274/76 923/284/76
f 305/43/2 337/47/2 369/73/2
f 280/340/1 282/341/135 1/342/1
f 372/343/157 1/342/1 370/344/157
f 351/66/134 319/60/134 287/81/134
f 284/345/135 286/346/136 282/341/135
f 288/347/136 290/348/137 286/346/136
f 292/349/137 294/346/138 290/348/137
f 296/347/138 298/341/139 294/346/138
f 300/345/139 302/342/140 298/341/139
f 304/340/140 306/344/141 302/342/140
f 308/343/141 310/350/142 306/344/141
f 312/351/142 314/352/143 310/350/142
f 316/349/143 318/346/144 314/348/143
f 320/347/144 322/341/145 318/346/144
f 324/345/145 326/342/146 322/341/145
f 328/340/146 330/344/147 326/342/146
f 332/343/147 334/350/148 330/344/147
f 336/351/148 338/352/149 334/350/148
f 340/353/149 342/350/150 338/352/149
f 344/351/150 346/344/151 342/350/150
f 348/343/151 350/342/152 346/344/151
f 352/340/152 354/341/153 350/342/152
f 356/345/153 358/346/154 354/341/153
f 360/347/154 362/348/155 358/346/154
f 364/353/155 366/350/156 362/352/155
f 368/351/156 370/344/157 366/350/156
f 477/171/2 389/32/2 421/117/2
f 376/354/1 378/355/158 374/356/1
f 524/357/195 374/356/1 522/358/195
f 515/202/134 451/144/134 419/113/134
f 380/359/158 382/360/159 378/355/158
f 384/361/159 386/362/160 382/360/159
f 388/363/160 390/364/161 386/362/160
f 392/365/161 394/366/162 390/364/161
f 396/367/162 398/368/163 394/369/162
f 400/370/164 402/371/165 398/368/163
f 404/372/165 406/373/166 402/371/165
f 408/374/166 410/375/167 406/373/166
f 412/181/167 414/376/168 410/375/167
f 416/104/168 418/377/169 414/376/168
f 420/378/169 422/379/170 418/377/169
f 424/380/170 426/381/171 422/379/170
f 428/382/171 430/383/172 426/381/171
f 432/384/172 434/364/173 430/366/172
f 436/365/173 438/362/174 434/364/173
f 440/363/174 442/360/175 438/362/174
f 444/361/175 446/355/176 442/360/175
f 448/359/176 450/356/146 446/355/176
f 452/354/146 454/358/177 450/356/146
f 456/357/177 458/385/178 454/358/177
f 460/386/178 462/387/179 458/385/178
f 464/388/179 466/389/180 462/387/179
f 468/390/180 470/391/181 466/389/180
f 472/392/181 474/381/182 470/383/181
f 476/382/183 478/379/184 474/381/182
f 480/380/184 482/377/185 478/379/184
f 484/378/185 486/376/186 482/377/185
f 488/104/186 490/375/187 486/376/186
f 492/181/187 494/373/188 490/375/187
f 496/374/188 498/371/189 494/373/188
f 500/372/189 502/368/190 498/371/189
f 504/370/190 506/369/191 502/368/190
f 508/393/191 510/389/192 506/391/191
f 512/390/192 514/387/193 510/389/192
f 516/388/193 518/385/194 514/387/193
f 520/386/194 522/358/195 518/385/194
f 597/394/2 661/395/2 541/396/2
f 528/397/198 530/176/199 526/201/196
f 674/225/307 528/397/198 526/201/196
f 563/179/224 651/272/290 619/242/266
f 532/398/201 534/156/202 530/176/199
f 534/156/202 540/399/207 538/138/205
f 538/138/205 544/400/210 542/120/208
f 544/400/210 546/61/211 542/120/208
f 548/401/213 550/16/214 546/65/211
f 550/16/214 556/402/219 554/203/217
f 554/203/217 560/403/222 558/186/220
f 560/403/222 562/167/223 558/186/220
f 564/404/225 566/148/226 562/167/223
f 568/405/228 570/129/229 566/148/226
f 572/406/231 574/107/232 570/129/229
f 576/407/234 578/68/235 574/107/232
f 578/68/235 584/408/240 582/250/238
f 582/61/238 588/409/243 586/213/241
f 588/409/243 590/212/244 586/213/241
f 592/399/246 594/156/247 590/212/244
f 594/156/247 600/398/252 598/176/250
f 598/176/250 604/397/255 602/226/253
f 604/397/255 606/225/256 602/226/253
f 608/410/258 610/230/259 606/225/256
f 610/230/259 616/411/264 614/240/262
f 614/240/262 620/412/267 618/245/265
f 620/412/267 622/244/268 618/245/265
f 624/408/270 626/249/271 622/250/268
f 626/249/271 632/407/276 630/257/274
f 630/257/274 636/413/279 634/261/277
f 636/413/279 638/148/280 634/261/277
f 640/414/282 642/167/283 638/148/280
f 644/415/285 646/267/286 642/167/283
f 648/416/288 650/270/289 646/267/286
f 652/402/291 654/277/292 650/270/289
f 654/277/292 660/401/297 658/65/295
f 658/244/295 664/417/300 662/286/298
f 664/417/300 666/285/301 662/286/298
f 668/411/303 670/230/304 666/285/301
f 670/230/304 676/410/309 674/225/307
f 793/323/2 705/162/2 737/194/2
f 680/418/1 682/419/158 678/342/1
f 828/420/195 678/342/1 826/421/195
f 811/330/134 747/298/134 715/254/134
f 684/422/158 686/423/159 682/419/158
f 688/424/159 690/425/160 686/423/159
f 692/426/160 694/427/161 690/425/160
f 696/428/161 698/429/162 694/427/161
f 700/430/162 702/431/163 698/432/162
f 704/433/163 706/434/165 702/431/163
f 708/435/165 710/436/166 706/434/165
f 712/437/166 714/438/167 710/436/166
f 716/439/167 718/440/168 714/438/167
f 720/441/168 722/442/169 718/440/168
f 724/443/169 726/444/170 722/442/169
f 728/445/170 730/446/171 726/444/170
f 732/447/171 734/448/172 730/446/171
f 736/449/172 738/450/173 734/451/172
f 740/428/173 742/425/174 738/450/173
f 744/426/174 746/423/175 742/425/174
f 748/424/175 750/419/176 746/423/175
f 752/422/176 754/342/146 750/419/176
f 756/418/146 758/421/177 754/342/146
f 760/420/177 762/452/178 758/421/177
f 764/453/178 766/454/179 762/452/178
f 768/455/179 770/456/180 766/454/179
f 772/457/180 774/458/181 770/456/180
f 776/459/181 778/460/182 774/461/181
f 780/447/182 782/462/184 778/460/182
f 784/445/184 786/442/185 782/462/184
f 788/443/185 790/440/186 786/442/185
f 792/441/186 794/438/187 790/440/186
f 796/439/187 798/436/188 794/438/187
f 800/437/188 802/463/189 798/436/188
f 804/435/189 806/464/190 802/463/189
f 808/433/190 810/465/191 806/464/190
f 812/466/191 814/467/192 810/468/191
f 816/457/192 818/454/193 814/467/192
f 820/455/193 822/452/194 818/454/193
f 824/453/194 826/421/195 822/452/194
f 172/1/18 171/51/18 147/2/56
f 158/4/82 157/47/82 153/5/80
f 152/7/79 146/49/77 145/8/77
f 198/10/100 197/21/100 191/11/96
f 548/13/213 547/112/212 551/14/215
f 253/16/120 224/203/113 232/17/113
f 190/19/95 189/60/95 195/11/99
f 203/20/103 212/43/103 197/21/100
f 130/22/69 129/26/69 123/23/66
f 134/25/71 133/39/71 129/26/69
f 250/27/125 249/33/124 271/28/124
f 250/27/125 270/29/125 240/30/116
f 205/3/105 269/86/26 259/32/26
f 274/33/129 276/27/132 272/29/132
f 229/35/115 231/52/115 273/30/133
f 263/36/126 262/50/117 256/37/117
f 136/25/72 132/22/70 131/26/70
f 126/40/67 164/59/85 163/41/85
f 228/20/104 200/10/101 199/21/101
f 194/44/98 218/48/111 225/45/111
f 156/6/81 155/5/81 159/47/83
f 150/7/78 154/6/80 153/5/80
f 218/48/111 217/86/55 226/32/55
f 276/27/132 275/31/133 273/30/133
f 142/49/75 141/66/75 133/39/71
f 132/22/70 128/24/68 127/23/68
f 278/36/130 264/38/130 208/37/19
f 200/10/101 196/12/99 195/11/99
f 211/1/109 205/3/105 214/2/105
f 152/7/79 151/9/79 155/5/81
f 274/33/129 261/34/129 212/43/103
f 234/31/116 240/30/116 248/52/123
f 556/53/219 552/15/216 551/14/215
f 122/55/65 121/67/65 127/23/68
f 584/56/240 580/77/237 579/57/236
f 144/40/76 143/42/76 175/41/90
f 192/12/96 191/11/96 187/60/94
f 139/61/74 120/213/64 119/62/64
f 253/16/120 245/18/120 244/64/119
f 142/49/75 150/7/78 149/9/78
f 262/50/117 211/1/109 219/51/109
f 124/24/66 123/23/66 117/67/63
f 228/20/104 204/43/104 271/28/124
f 140/68/73 139/250/74 138/69/74
f 186/71/93 185/74/93 189/60/95
f 114/72/61 118/55/63 117/67/63
f 206/44/106 213/46/110 260/45/128
f 136/25/72 135/39/72 145/8/77
f 184/71/92 188/19/94 187/60/94
f 116/72/62 115/73/62 121/67/65
f 162/75/84 161/78/84 157/47/82
f 576/76/234 575/123/233 579/57/236
f 166/75/86 160/4/83 159/47/83
f 252/79/121 246/81/121 231/52/115
f 168/80/87 167/83/87 161/78/84
f 258/79/127 257/35/123 248/52/123
f 164/59/85 194/44/98 193/46/97
f 277/82/131 265/98/131 264/38/130
f 170/80/88 166/75/86 165/78/86
f 251/84/122 247/88/122 246/81/121
f 174/85/89 173/92/89 167/83/87
f 268/48/128 260/45/128 259/32/26
f 170/80/88 169/83/88 177/87/91
f 243/84/118 258/79/127 267/81/127
f 201/50/19 208/37/19 171/51/18
f 237/89/109 236/114/105 242/90/105
f 174/85/89 184/71/92 183/74/92
f 227/93/114 230/102/114 247/88/122
f 176/59/90 175/41/90 213/46/110
f 215/94/57 222/214/57 221/95/54
f 186/71/93 178/85/91 177/87/91
f 243/84/118 266/88/118 210/97/108
f 263/36/126 255/38/126 220/98/107
f 148/3/56 147/2/56 226/32/55
f 182/99/53 181/135/52 180/100/52
f 116/72/62 235/93/108 210/97/108
f 227/93/114 114/72/61 113/73/61
f 202/103/102 207/110/102 265/98/131
f 112/104/60 209/181/107 220/105/107
f 110/107/59 140/68/73 137/70/73
f 108/109/58 107/113/58 207/110/102
f 544/111/210 543/132/209 547/112/212
f 112/103/60 111/110/60 105/113/57
f 103/114/56 102/90/56 101/115/55
f 108/109/58 100/118/34 99/117/34
f 106/109/57 105/113/57 97/117/54
f 100/118/34 96/121/53 95/119/53
f 254/61/119 244/63/119 233/62/112
f 98/118/54 97/117/54 93/119/43
f 572/122/231 571/142/230 575/123/233
f 96/121/53 92/125/52 91/124/52
f 94/121/43 93/119/43 89/124/42
f 92/125/52 88/127/51 87/126/51
f 90/125/42 89/124/42 85/126/50
f 110/107/59 109/108/59 83/128/48
f 82/130/47 81/133/47 87/126/51
f 540/131/207 539/151/206 543/132/209
f 80/130/46 86/127/50 85/126/50
f 78/134/45 77/136/44 81/133/47
f 75/99/43 74/101/43 73/100/42
f 72/134/41 80/130/46 79/133/46
f 70/137/39 69/140/39 77/136/44
f 68/138/38 223/120/112 233/62/112
f 66/137/37 72/134/41 71/136/40
f 568/141/228 567/160/227 571/142/230
f 64/143/36 63/144/36 69/140/39
f 62/143/35 66/137/37 65/140/37
f 182/99/53 179/101/53 59/95/34
f 64/143/36 58/146/33 57/145/33
f 62/143/35 61/144/35 55/145/32
f 84/129/49 83/128/48 53/147/31
f 58/146/33 52/152/30 51/149/29
f 540/131/207 536/170/204 535/150/203
f 56/146/32 55/145/32 49/149/27
f 48/116/26 238/115/26 242/90/105
f 52/152/30 47/154/25 46/153/25
f 50/152/28 49/149/27 44/153/24
f 47/154/25 43/158/23 42/155/23
f 41/156/22 68/138/38 67/139/38
f 45/154/24 44/153/24 38/155/21
f 564/159/225 563/179/224 567/160/227
f 37/161/20 36/163/20 42/155/23
f 35/89/18 34/205/19 33/162/19
f 31/161/17 39/158/21 38/155/21
f 29/164/16 28/165/16 36/163/20
f 27/164/15 31/161/17 30/163/17
f 54/148/31 53/147/31 24/166/14
f 23/168/13 22/171/13 28/165/16
f 532/169/201 531/191/200 535/150/203
f 21/168/12 27/164/15 26/165/15
f 19/172/11 18/173/11 22/171/13
f 17/172/10 21/168/12 20/171/12
f 15/174/9 14/177/9 18/173/11
f 41/156/22 40/157/22 12/175/8
f 17/172/10 16/173/10 10/177/7
f 564/159/225 560/196/222 559/178/221
f 9/180/6 8/183/6 14/177/9
f 7/181/5 11/104/7 10/106/7
f 75/99/43 216/96/54 221/95/54
f 5/182/4 4/184/4 8/183/6
f 7/180/5 6/183/5 829/184/3
f 25/167/14 24/166/14 831/185/310
f 5/182/4 832/188/311 833/187/311
f 3/182/3 829/184/3 835/187/312
f 832/188/311 836/192/313 837/189/313
f 528/190/198 527/293/197 531/191/200
f 834/188/312 835/187/312 839/189/314
f 836/192/313 840/195/315 841/193/315
f 181/135/52 842/294/51 843/194/51
f 838/192/314 839/189/314 845/193/316
f 560/196/222 556/53/219 555/54/218
f 840/195/315 846/198/317 847/197/317
f 844/195/316 845/193/316 849/197/318
f 850/199/319 851/202/319 847/197/317
f 13/176/8 12/175/8 853/200/320
f 854/199/321 848/198/318 849/197/318
f 224/203/113 830/186/310 831/185/310
f 856/204/322 857/206/323 851/202/319
f 237/89/109 241/91/109 239/162/117
f 859/204/324 854/199/321 855/202/321
f 35/89/18 32/91/18 102/90/56
f 861/207/326 862/208/326 857/206/323
f 863/207/327 859/204/324 860/206/325
f 126/40/67 125/42/67 862/208/326
f 144/40/76 863/207/327 864/208/327
f 588/209/243 584/56/240 583/58/239
f 865/211/128 866/219/128 238/115/26
f 867/212/328 868/139/328 119/62/64
f 60/96/34 59/95/34 870/214/58
f 592/215/246 588/209/243 587/210/242
f 871/156/329 872/157/329 868/139/328
f 592/215/246 591/216/245 595/217/248
f 873/211/111 104/116/55 101/115/55
f 871/156/329 875/176/330 876/175/330
f 600/220/252 596/218/249 595/217/248
f 875/176/330 877/226/331 878/200/331
f 215/94/57 879/232/60 880/222/60
f 604/223/255 600/220/252 599/221/251
f 881/225/332 882/231/332 878/200/331
f 604/223/255 603/224/254 607/227/257
f 883/229/110 884/239/110 866/219/128
f 885/230/333 886/236/333 882/231/332
f 869/94/58 870/214/58 888/222/102
f 608/228/258 607/227/257 611/233/260
f 885/230/333 889/240/334 890/235/334
f 616/237/264 612/234/261 611/233/260
f 891/229/97 873/211/111 874/219/111
f 889/240/334 893/245/335 894/241/335
f 616/237/264 615/238/263 619/242/266
f 895/244/336 896/280/336 894/241/335
f 897/246/107 898/254/107 880/222/60
f 620/243/267 619/242/266 623/247/269
f 899/249/337 900/70/337 896/69/336
f 624/248/270 623/247/269 627/251/272
f 883/229/110 901/260/90 902/253/90
f 899/249/337 903/257/338 904/108/338
f 887/232/102 888/222/102 906/254/131
f 632/255/276 628/252/273 627/251/272
f 903/257/338 907/261/339 908/128/339
f 636/258/279 632/255/276 631/256/275
f 891/229/97 892/239/97 910/253/85
f 911/148/340 912/147/340 908/128/339
f 640/262/282 636/258/279 635/259/278
f 913/167/341 914/166/341 912/147/340
f 915/264/126 916/271/126 898/254/107
f 640/262/282 639/263/281 643/265/284
f 917/267/342 918/185/343 914/166/341
f 644/266/285 643/265/284 647/268/287
f 919/270/344 920/17/344 918/185/343
f 921/264/130 905/246/131 906/254/131
f 648/269/288 647/268/287 651/272/290
f 901/260/90 923/284/76 924/274/76
f 919/270/344 925/277/345 926/18/345
f 652/273/291 651/272/290 655/275/293
f 925/277/345 927/65/346 928/64/346
f 660/278/297 656/276/294 655/275/293
f 927/244/346 929/286/347 930/241/347
f 858/205/117 239/162/117 916/271/126
f 664/281/300 660/278/297 659/279/296
f 909/260/85 910/253/85 932/283/67
f 933/285/348 934/235/348 930/241/347
f 668/287/303 664/281/300 663/282/299
f 935/230/349 936/236/349 934/235/348
f 921/264/130 922/271/130 33/162/19
f 668/287/303 667/288/302 671/289/305
f 935/230/349 937/225/350 938/231/350
f 676/291/309 672/290/306 671/289/305
f 937/225/350 852/201/320 853/200/320
f 528/190/198 676/291/309 675/292/308
f 76/135/42 73/100/42 940/194/50
f 941/295/47 942/296/47 843/194/51
f 943/295/46 939/294/50 940/194/50
f 945/297/44 946/298/44 942/296/47
f 947/297/40 943/295/46 944/296/46
f 945/297/44 949/300/39 950/299/39
f 947/297/40 948/298/40 952/299/37
f 949/300/39 953/303/36 954/301/36
f 951/300/37 952/299/37 956/302/35
f 957/304/33 958/305/33 954/301/36
f 959/304/32 955/303/35 956/302/35
f 961/306/29 962/307/29 958/305/33
f 963/306/27 959/304/32 960/305/32
f 961/306/29 965/309/25 966/308/25
f 963/306/27 964/307/27 968/308/24
f 965/309/25 969/311/23 970/310/23
f 967/309/24 968/308/24 972/310/21
f 973/312/20 974/313/20 970/310/23
f 971/311/21 972/310/21 976/313/17
f 977/314/16 978/315/16 974/313/20
f 979/314/15 975/312/17 976/313/17
f 977/314/16 981/317/13 982/316/13
f 979/314/15 980/315/15 984/316/12
f 985/318/11 986/319/11 982/316/13
f 983/317/12 984/316/12 988/319/10
f 985/318/11 989/321/9 990/320/9
f 987/318/10 988/319/10 992/320/7
f 993/322/6 994/323/6 990/320/9
f 991/321/7 992/320/7 996/323/5
f 997/324/4 998/325/4 994/323/6
f 999/324/3 995/322/5 996/323/5
f 1001/326/311 1002/327/311 998/325/4
f 999/324/3 1000/325/3 1004/327/312
f 1005/328/313 1006/329/313 1002/327/311
f 1007/328/314 1003/326/312 1004/327/312
f 1005/328/313 1009/331/315 1010/330/315
f 1007/328/314 1008/329/314 1012/330/316
f 1009/331/315 1013/333/317 1014/332/317
f 1011/331/316 1012/330/316 1016/332/318
f 1017/334/319 1018/335/319 1014/332/317
f 1019/334/321 1015/333/318 1016/332/318
f 1021/336/323 1022/337/323 1018/335/319
f 1023/336/325 1019/334/321 1020/335/321
f 1021/336/323 1025/339/326 1026/338/326
f 1023/336/325 1024/337/325 1028/338/327
f 1025/339/326 931/284/67 932/283/67
f 1027/339/327 1028/338/327 924/274/76
f 369/73/2 2/97/2 281/88/2
f 281/88/2 285/81/2 289/52/2
f 289/52/2 293/30/2 297/29/2
f 297/29/2 301/28/2 305/43/2
f 305/43/2 309/21/2 313/11/2
f 313/11/2 317/60/2 321/74/2
f 321/74/2 325/87/2 329/83/2
f 329/83/2 333/78/2 337/47/2
f 337/47/2 341/5/2 345/9/2
f 345/9/2 349/8/2 353/39/2
f 353/39/2 357/26/2 361/23/2
f 361/23/2 365/67/2 369/73/2
f 369/73/2 281/88/2 289/52/2
f 289/52/2 297/29/2 305/43/2
f 305/43/2 313/11/2 321/74/2
f 321/74/2 329/83/2 337/47/2
f 337/47/2 345/9/2 353/39/2
f 353/39/2 361/23/2 369/73/2
f 369/73/2 289/52/2 305/43/2
f 305/43/2 321/74/2 337/47/2
f 337/47/2 353/39/2 369/73/2
f 280/340/1 284/345/135 282/341/135
f 372/343/157 280/340/1 1/342/1
f 287/81/134 283/88/134 279/102/134
f 279/102/134 371/73/134 367/67/134
f 367/67/134 363/23/134 359/26/134
f 359/26/134 355/39/134 351/66/134
f 351/66/134 347/9/134 343/5/134
f 343/5/134 339/47/134 335/78/134
f 335/78/134 331/83/134 327/92/134
f 327/92/134 323/74/134 319/60/134
f 319/60/134 315/11/134 311/21/134
f 311/21/134 307/43/134 303/34/134
f 303/34/134 299/29/134 295/30/134
f 295/30/134 291/52/134 287/81/134
f 287/81/134 279/102/134 367/67/134
f 367/67/134 359/26/134 351/66/134
f 351/66/134 343/5/134 335/78/134
f 335/78/134 327/92/134 319/60/134
f 319/60/134 311/21/134 303/34/134
f 303/34/134 295/30/134 287/81/134
f 287/81/134 367/67/134 351/66/134
f 351/66/134 335/78/134 319/60/134
f 319/60/134 303/34/134 287/81/134
f 284/345/135 288/347/136 286/346/136
f 288/347/136 292/349/137 290/348/137
f 292/349/137 296/347/138 294/346/138
f 296/347/138 300/345/139 298/341/139
f 300/345/139 304/340/140 302/342/140
f 304/340/140 308/343/141 306/344/141
f 308/343/141 312/351/142 310/350/142
f 312/351/142 316/353/143 314/352/143
f 316/349/143 320/347/144 318/346/144
f 320/347/144 324/345/145 322/341/145
f 324/345/145 328/340/146 326/342/146
f 328/340/146 332/343/147 330/344/147
f 332/343/147 336/351/148 334/350/148
f 336/351/148 340/353/149 338/352/149
f 340/353/149 344/351/150 342/350/150
f 344/351/150 348/343/151 346/344/151
f 348/343/151 352/340/152 350/342/152
f 352/340/152 356/345/153 354/341/153
f 356/345/153 360/347/154 358/346/154
f 360/347/154 364/349/155 362/348/155
f 364/353/155 368/351/156 366/350/156
f 368/351/156 372/343/157 370/344/157
f 429/124/2 433/126/2 437/133/2
f 437/133/2 441/136/2 445/140/2
f 445/140/2 449/144/2 453/145/2
f 453/145/2 457/149/2 461/153/2
f 461/153/2 465/155/2 469/163/2
f 469/163/2 473/165/2 477/171/2
f 477/171/2 481/173/2 485/177/2
f 485/177/2 489/183/2 493/184/2
f 493/184/2 497/187/2 501/189/2
f 501/189/2 505/193/2 509/197/2
f 509/197/2 513/202/2 517/206/2
f 517/206/2 521/208/2 373/42/2
f 373/42/2 377/41/2 381/46/2
f 381/46/2 385/45/2 389/32/2
f 389/32/2 393/2/2 397/51/2
f 397/51/2 401/37/2 405/38/2
f 405/38/2 409/98/2 413/110/2
f 413/110/2 417/113/2 421/117/2
f 421/117/2 425/119/2 429/124/2
f 429/124/2 437/133/2 445/140/2
f 445/140/2 453/145/2 461/153/2
f 461/153/2 469/163/2 477/171/2
f 477/171/2 485/177/2 493/184/2
f 493/184/2 501/189/2 509/197/2
f 509/197/2 517/206/2 373/42/2
f 373/42/2 381/46/2 389/32/2
f 389/32/2 397/51/2 405/38/2
f 405/38/2 413/110/2 421/117/2
f 421/117/2 429/124/2 445/140/2
f 445/140/2 461/153/2 477/171/2
f 477/171/2 493/184/2 509/197/2
f 509/197/2 373/42/2 389/32/2
f 389/32/2 405/38/2 421/117/2
f 421/117/2 445/140/2 477/171/2
f 477/171/2 509/197/2 389/32/2
f 376/354/1 380/359/158 378/355/158
f 524/357/195 376/354/1 374/356/1
f 411/98/134 407/38/134 403/37/134
f 403/37/134 399/51/134 395/2/134
f 395/2/134 391/32/134 387/45/134
f 387/45/134 383/46/134 379/41/134
f 379/41/134 375/42/134 523/208/134
f 523/208/134 519/206/134 515/202/134
f 515/202/134 511/197/134 507/193/134
f 507/193/134 503/189/134 499/187/134
f 499/187/134 495/184/134 491/183/134
f 491/183/134 487/177/134 483/173/134
f 483/173/134 479/171/134 475/165/134
f 475/165/134 471/163/134 467/155/134
f 467/155/134 463/153/134 459/149/134
f 459/149/134 455/145/134 451/144/134
f 451/144/134 447/140/134 443/136/134
f 443/136/134 439/133/134 435/126/134
f 435/126/134 431/124/134 427/119/134
f 427/119/134 423/117/134 419/113/134
f 419/113/134 415/110/134 411/98/134
f 411/98/134 403/37/134 395/2/134
f 395/2/134 387/45/134 379/41/134
f 379/41/134 523/208/134 515/202/134
f 515/202/134 507/193/134 499/187/134
f 499/187/134 491/183/134 483/173/134
f 483/173/134 475/165/134 467/155/134
f 467/155/134 459/149/134 451/144/134
f 451/144/134 443/136/134 435/126/134
f 435/126/134 427/119/134 419/113/134
f 419/113/134 411/98/134 395/2/134
f 395/2/134 379/41/134 515/202/134
f 515/202/134 499/187/134 483/173/134
f 483/173/134 467/155/134 451/144/134
f 451/144/134 435/126/134 419/113/134
f 419/113/134 395/2/134 515/202/134
f 515/202/134 483/173/134 451/144/134
f 380/359/158 384/361/159 382/360/159
f 384/361/159 388/363/160 386/362/160
f 388/363/160 392/365/161 390/364/161
f 392/365/161 396/384/162 394/366/162
f 396/367/162 400/370/164 398/368/163
f 400/370/164 404/372/165 402/371/165
f 404/372/165 408/374/166 406/373/166
f 408/374/166 412/181/167 410/375/167
f 412/181/167 416/104/168 414/376/168
f 416/104/168 420/378/169 418/377/169
f 420/378/169 424/380/170 422/379/170
f 424/380/170 428/382/171 426/381/171
f 428/382/171 432/392/172 430/383/172
f 432/384/172 436/365/173 434/364/173
f 436/365/173 440/363/174 438/362/174
f 440/363/174 444/361/175 442/360/175
f 444/361/175 448/359/176 446/355/176
f 448/359/176 452/354/146 450/356/146
f 452/354/146 456/357/177 454/358/177
f 456/357/177 460/386/178 458/385/178
f 460/386/178 464/388/179 462/387/179
f 464/388/179 468/390/180 466/389/180
f 468/390/180 472/393/181 470/391/181
f 472/392/181 476/382/183 474/381/182
f 476/382/183 480/380/184 478/379/184
f 480/380/184 484/378/185 482/377/185
f 484/378/185 488/104/186 486/376/186
f 488/104/186 492/181/187 490/375/187
f 492/181/187 496/374/188 494/373/188
f 496/374/188 500/372/189 498/371/189
f 500/372/189 504/370/190 502/368/190
f 504/370/190 508/367/191 506/369/191
f 508/393/191 512/390/192 510/389/192
f 512/390/192 516/388/193 514/387/193
f 516/388/193 520/386/194 518/385/194
f 520/386/194 524/357/195 522/358/195
f 549/469/2 553/470/2 557/471/2
f 557/471/2 561/472/2 565/473/2
f 565/473/2 569/474/2 573/475/2
f 573/475/2 577/476/2 581/477/2
f 581/477/2 585/478/2 589/479/2
f 589/479/2 593/480/2 597/394/2
f 597/394/2 601/481/2 605/482/2
f 605/482/2 609/483/2 613/484/2
f 613/484/2 617/485/2 621/486/2
f 621/486/2 625/487/2 629/488/2
f 629/488/2 633/489/2 637/490/2
f 637/490/2 641/491/2 645/492/2
f 645/492/2 649/493/2 653/494/2
f 653/494/2 657/495/2 661/395/2
f 661/395/2 665/496/2 669/497/2
f 669/497/2 673/498/2 525/499/2
f 525/499/2 529/500/2 533/501/2
f 533/501/2 537/502/2 541/396/2
f 541/396/2 545/503/2 549/469/2
f 549/469/2 557/471/2 565/473/2
f 565/473/2 573/475/2 581/477/2
f 581/477/2 589/479/2 597/394/2
f 597/394/2 605/482/2 613/484/2
f 613/484/2 621/486/2 629/488/2
f 629/488/2 637/490/2 645/492/2
f 645/492/2 653/494/2 661/395/2
f 661/395/2 669/497/2 525/499/2
f 525/499/2 533/501/2 541/396/2
f 541/396/2 549/469/2 565/473/2
f 565/473/2 581/477/2 597/394/2
f 597/394/2 613/484/2 629/488/2
f 629/488/2 645/492/2 661/395/2
f 661/395/2 525/499/2 541/396/2
f 541/396/2 565/473/2 597/394/2
f 597/394/2 629/488/2 661/395/2
f 528/397/198 532/398/201 530/176/199
f 674/225/307 676/410/309 528/397/198
f 611/233/260 607/227/257 603/224/254
f 603/224/254 599/221/251 595/217/248
f 595/217/248 591/216/245 587/210/242
f 587/210/242 583/58/239 579/57/236
f 579/57/236 575/123/233 571/142/230
f 571/142/230 567/160/227 563/179/224
f 563/179/224 559/178/221 555/54/218
f 555/54/218 551/14/215 547/112/212
f 547/112/212 543/132/209 539/151/206
f 539/151/206 535/150/203 531/191/200
f 531/191/200 527/293/197 675/292/308
f 675/292/308 671/289/305 667/288/302
f 667/288/302 663/282/299 659/279/296
f 659/279/296 655/275/293 651/272/290
f 651/272/290 647/268/287 643/265/284
f 643/265/284 639/263/281 635/259/278
f 635/259/278 631/256/275 627/251/272
f 627/251/272 623/247/269 619/242/266
f 619/242/266 615/238/263 611/233/260
f 611/233/260 603/224/254 595/217/248
f 595/217/248 587/210/242 579/57/236
f 579/57/236 571/142/230 563/179/224
f 563/179/224 555/54/218 547/112/212
f 547/112/212 539/151/206 531/191/200
f 531/191/200 675/292/308 667/288/302
f 667/288/302 659/279/296 651/272/290
f 651/272/290 643/265/284 635/259/278
f 635/259/278 627/251/272 619/242/266
f 619/242/266 611/233/260 595/217/248
f 595/217/248 579/57/236 563/179/224
f 563/179/224 547/112/212 531/191/200
f 531/191/200 667/288/302 651/272/290
f 651/272/290 635/259/278 619/242/266
f 619/242/266 595/217/248 563/179/224
f 563/179/224 531/191/200 651/272/290
f 532/398/201 536/504/204 534/156/202
f 534/156/202 536/504/204 540/399/207
f 538/138/205 540/399/207 544/400/210
f 544/400/210 548/505/213 546/61/211
f 548/401/213 552/506/216 550/16/214
f 550/16/214 552/506/216 556/402/219
f 554/203/217 556/402/219 560/403/222
f 560/403/222 564/404/225 562/167/223
f 564/404/225 568/405/228 566/148/226
f 568/405/228 572/406/231 570/129/229
f 572/406/231 576/407/234 574/107/232
f 576/407/234 580/507/237 578/68/235
f 578/68/235 580/507/237 584/408/240
f 582/61/238 584/505/240 588/409/243
f 588/409/243 592/399/246 590/212/244
f 592/399/246 596/504/249 594/156/247
f 594/156/247 596/504/249 600/398/252
f 598/176/250 600/398/252 604/397/255
f 604/397/255 608/410/258 606/225/256
f 608/410/258 612/508/261 610/230/259
f 610/230/259 612/508/261 616/411/264
f 614/240/262 616/411/264 620/412/267
f 620/412/267 624/509/270 622/244/268
f 624/408/270 628/507/273 626/249/271
f 626/249/271 628/507/273 632/407/276
f 630/257/274 632/407/276 636/413/279
f 636/413/279 640/414/282 638/148/280
f 640/414/282 644/415/285 642/167/283
f 644/415/285 648/416/288 646/267/286
f 648/416/288 652/402/291 650/270/289
f 652/402/291 656/506/294 654/277/292
f 654/277/292 656/506/294 660/401/297
f 658/244/295 660/509/297 664/417/300
f 664/417/300 668/411/303 666/285/301
f 668/411/303 672/508/306 670/230/304
f 670/230/304 672/508/306 676/410/309
f 745/298/2 749/299/2 753/301/2
f 753/301/2 757/305/2 761/307/2
f 761/307/2 765/308/2 769/310/2
f 769/310/2 773/313/2 777/315/2
f 777/315/2 781/316/2 785/319/2
f 785/319/2 789/320/2 793/323/2
f 793/323/2 797/325/2 801/327/2
f 801/327/2 805/329/2 809/330/2
f 809/330/2 813/332/2 817/335/2
f 817/335/2 821/337/2 825/338/2
f 825/338/2 677/283/2 681/253/2
f 681/253/2 685/239/2 689/219/2
f 689/219/2 693/115/2 697/90/2
f 697/90/2 701/91/2 705/162/2
f 705/162/2 709/271/2 713/254/2
f 713/254/2 717/222/2 721/214/2
f 721/214/2 725/95/2 729/101/2
f 729/101/2 733/100/2 737/194/2
f 737/194/2 741/296/2 745/298/2
f 745/298/2 753/301/2 761/307/2
f 761/307/2 769/310/2 777/315/2
f 777/315/2 785/319/2 793/323/2
f 793/323/2 801/327/2 809/330/2
f 809/330/2 817/335/2 825/338/2
f 825/338/2 681/253/2 689/219/2
f 689/219/2 697/90/2 705/162/2
f 705/162/2 713/254/2 721/214/2
f 721/214/2 729/101/2 737/194/2
f 737/194/2 745/298/2 761/307/2
f 761/307/2 777/315/2 793/323/2
f 793/323/2 809/330/2 825/338/2
f 825/338/2 689/219/2 705/162/2
f 705/162/2 721/214/2 737/194/2
f 737/194/2 761/307/2 793/323/2
f 793/323/2 825/338/2 705/162/2
f 680/418/1 684/422/158 682/419/158
f 828/420/195 680/418/1 678/342/1
f 707/162/134 703/91/134 699/90/134
f 699/90/134 695/115/134 691/219/134
f 691/219/134 687/239/134 683/253/134
f 683/253/134 679/274/134 827/338/134
f 827/338/134 823/337/134 819/335/134
f 819/335/134 815/332/134 811/330/134
f 811/330/134 807/329/134 803/327/134
f 803/327/134 799/325/134 795/323/134
f 795/323/134 791/320/134 787/319/134
f 787/319/134 783/316/134 779/315/134
f 779/315/134 775/313/134 771/310/134
f 771/310/134 767/308/134 763/307/134
f 763/307/134 759/305/134 755/302/134
f 755/302/134 751/299/134 747/298/134
f 747/298/134 743/296/134 739/194/134
f 739/194/134 735/100/134 731/101/134
f 731/101/134 727/95/134 723/214/134
f 723/214/134 719/222/134 715/254/134
f 715/254/134 711/271/134 707/162/134
f 707/162/134 699/90/134 691/219/134
f 691/219/134 683/253/134 827/338/134
f 827/338/134 819/335/134 811/330/134
f 811/330/134 803/327/134 795/323/134
f 795/323/134 787/319/134 779/315/134
f 779/315/134 771/310/134 763/307/134
f 763/307/134 755/302/134 747/298/134
f 747/298/134 739/194/134 731/101/134
f 731/101/134 723/214/134 715/254/134
f 715/254/134 707/162/134 691/219/134
f 691/219/134 827/338/134 811/330/134
f 811/330/134 795/323/134 779/315/134
f 779/315/134 763/307/134 747/298/134
f 747/298/134 731/101/134 715/254/134
f 715/254/134 691/219/134 811/330/134
f 811/330/134 779/315/134 747/298/134
f 684/422/158 688/424/159 686/423/159
f 688/424/159 692/426/160 690/425/160
f 692/426/160 696/428/161 694/427/161
f 696/428/161 700/449/162 698/429/162
f 700/430/162 704/433/163 702/431/163
f 704/433/163 708/435/165 706/434/165
f 708/435/165 712/437/166 710/436/166
f 712/437/166 716/439/167 714/438/167
f 716/439/167 720/441/168 718/440/168
f 720/441/168 724/443/169 722/442/169
f 724/443/169 728/445/170 726/444/170
f 728/445/170 732/447/171 730/446/171
f 732/447/171 736/459/172 734/448/172
f 736/449/172 740/428/173 738/450/173
f 740/428/173 744/426/174 742/425/174
f 744/426/174 748/424/175 746/423/175
f 748/424/175 752/422/176 750/419/176
f 752/422/176 756/418/146 754/342/146
f 756/418/146 760/420/177 758/421/177
f 760/420/177 764/453/178 762/452/178
f 764/453/178 768/455/179 766/454/179
f 768/455/179 772/457/180 770/456/180
f 772/457/180 776/466/181 774/458/181
f 776/459/181 780/447/182 778/460/182
f 780/447/182 784/445/184 782/462/184
f 784/445/184 788/443/185 786/442/185
f 788/443/185 792/441/186 790/440/186
f 792/441/186 796/439/187 794/438/187
f 796/439/187 800/437/188 798/436/188
f 800/437/188 804/435/189 802/463/189
f 804/435/189 808/433/190 806/464/190
f 808/433/190 812/430/191 810/465/191
f 812/466/191 816/457/192 814/467/192
f 816/457/192 820/455/193 818/454/193
f 820/455/193 824/453/194 822/452/194
f 824/453/194 828/420/195 826/421/195
