# Blender 5.2.0 LTS
# www.blender.org
o Backdrop_PoolLadder
v 7.586283 20.150963 -7.490193
v 10.413716 20.150963 -7.490193
v 7.586283 20.150963 -6.509807
v 4.500000 5.650000 -7.550000
v 10.413716 20.150963 -6.509807
v -2.500000 5.650000 7.550000
v 7.586283 21.000000 -6.019616
v 4.500000 6.350000 -7.550000
v 10.413716 21.000000 -6.019616
v -2.500000 6.350000 7.550000
v 7.108040 22.875158 -7.490192
v 9.839130 22.143366 -7.490192
v 4.050000 6.350000 -8.000000
v 4.050000 6.800000 -7.550000
v -2.050000 6.800000 -7.550000
v 7.108040 22.875158 -6.509808
v 9.839130 22.143366 -6.509808
v 4.050000 5.650000 -8.000000
v -2.050000 5.200000 -7.550000
v 4.050000 5.200000 -7.550000
v 7.327787 23.695267 -6.019615
v -2.500000 6.350000 -7.550000
v -2.500000 5.650000 -7.550000
v -2.050000 5.650000 -8.000000
v -2.050000 6.350000 -8.000000
v 10.058878 22.963474 -6.019615
v 10.413716 21.000000 -7.980384
v 6.145395 25.471569 -7.490192
v 8.594024 24.057854 -7.490192
v 7.586283 21.000000 -7.980384
v 6.145395 25.471569 -6.509808
v 8.594025 24.057854 -6.509808
v -2.050000 5.650000 8.000000
v 4.050000 5.200000 7.550000
v -2.050000 5.200000 7.550000
v 6.569914 26.206858 -6.019616
v -2.050000 6.350000 8.000000
v -2.050000 6.800000 7.550000
v 4.050000 6.800000 7.550000
v 9.018543 24.793142 -6.019616
v 10.058878 22.963474 -7.980385
v 4.763952 27.763248 -7.490192
v 6.763248 25.763950 -7.490192
v 7.327787 23.695267 -7.980385
v 4.763952 27.763248 -6.509808
v 6.763249 25.763950 -6.509808
v 4.500000 6.350000 7.550000
v 4.500000 5.650000 7.550000
v 4.050000 5.650000 8.000000
v 4.050000 6.350000 8.000000
v 5.364313 28.363609 -6.019616
v 7.586283 21.849037 -6.509807
v 7.586283 21.849037 -7.490193
v 7.363609 26.364311 -6.019616
v 9.018543 24.793142 -7.980384
v 3.057853 29.594025 -7.490193
v 4.471570 27.145395 -7.490193
v 6.569913 26.206858 -7.980384
v 3.057854 29.594025 -6.509807
v 4.471570 27.145395 -6.509808
v 10.413716 21.849037 -7.490193
v 10.413716 21.849037 -6.509807
v 3.793141 30.018545 -6.019615
v 7.547535 24.515375 -6.509808
v 7.547535 24.515375 -7.490192
v 5.206859 27.569914 -6.019615
v 7.363610 26.364311 -7.980384
v 1.143367 30.839130 -7.490192
v 1.875160 28.108042 -7.490192
v 5.364313 28.363609 -7.980384
v 1.143367 30.839132 -6.509808
v 1.875160 28.108040 -6.509808
v 10.278625 23.783583 -7.490192
v 10.278625 23.783583 -6.509808
v 1.963475 31.058878 -6.019615
v 6.994433 26.942146 -6.509808
v 6.994433 26.942146 -7.490192
v 2.695268 28.327787 -6.019615
v 5.206859 27.569914 -7.980385
v -0.849038 31.413717 -7.490192
v -0.849038 28.586283 -7.490192
v 3.793141 30.018545 -7.980385
v -0.849038 31.413717 -6.509808
v -0.849038 28.586283 -6.509808
v 9.443062 25.528431 -7.490192
v 9.443063 25.528431 -6.509808
v 0.000000 31.413717 -6.019615
v 5.964673 28.963970 -6.509808
v 5.964674 28.963970 -7.490192
v 0.000000 28.586283 -6.019615
v 2.695268 28.327787 -7.980385
v -0.849038 30.000000 -7.490192
v -0.849038 0.000000 -7.490192
v 1.963475 31.058878 -7.980385
v -0.849038 30.000000 -6.509808
v -0.849038 0.000000 -6.509808
v 7.963971 26.964672 -7.490192
v 7.963971 26.964672 -6.509808
v 0.000000 30.000000 -6.019615
v 4.528430 30.443064 -6.509808
v 4.528430 30.443064 -7.490193
v 0.000000 0.000000 -6.019615
v 0.000000 28.586283 -7.980385
v 7.586283 20.150963 6.509807
v 10.413716 20.150963 6.509807
v 0.000000 31.413717 -7.980385
v 7.586283 20.150963 7.490193
v 10.413716 20.150963 7.490193
v 5.942147 27.994434 -7.490193
v 5.942146 27.994434 -6.509807
v 7.586283 21.000000 7.980384
v 2.783582 31.278625 -6.509808
v 2.783582 31.278624 -7.490192
v 10.413716 21.000000 7.980384
v 0.000000 0.000000 -7.980385
v 7.108040 22.875158 6.509808
v 9.839130 22.143366 6.509808
v 0.000000 30.000000 -7.980385
v 7.108040 22.875158 7.490192
v 9.839130 22.143366 7.490192
v 3.515376 28.547535 -7.490192
v 3.515376 28.547533 -6.509808
v 7.327787 23.695267 7.980385
v 0.849038 31.413717 -6.509808
v 0.849038 31.413717 -7.490192
v 10.058878 22.963474 7.980385
v 10.413716 21.000000 6.019616
v 6.145395 25.471569 6.509808
v 8.594024 24.057854 6.509808
v 7.586283 21.000000 6.019616
v 6.145395 25.471569 7.490192
v 8.594025 24.057854 7.490192
v 0.849038 28.586283 -7.490192
v 0.849038 28.586283 -6.509808
v 6.569914 26.206858 7.980384
v 0.849038 30.000000 -6.509808
v 0.849038 30.000000 -7.490192
v 9.018543 24.793142 7.980384
v 10.058878 22.963474 6.019615
v 4.763952 27.763248 6.509808
v 6.763248 25.763950 6.509808
v 7.327787 23.695267 6.019615
v 4.763952 27.763248 7.490192
v 6.763249 25.763950 7.490192
v 0.849038 0.000000 -7.490192
v 0.849038 0.000000 -6.509808
v 5.364313 28.363609 7.980384
v 7.586283 21.849037 7.490193
v 7.586283 21.849037 6.509807
v 7.363609 26.364311 7.980384
v 9.018543 24.793142 6.019616
v 3.057853 29.594025 6.509807
v 4.471570 27.145395 6.509807
v 6.569913 26.206858 6.019616
v 3.057854 29.594025 7.490193
v 4.471570 27.145395 7.490192
v 10.413716 21.849037 6.509807
v 10.413716 21.849037 7.490193
v 3.793141 30.018545 7.980385
v 7.547535 24.515375 7.490192
v 7.547535 24.515375 6.509808
v 5.206859 27.569914 7.980385
v 7.363610 26.364311 6.019616
v 1.143367 30.839130 6.509808
v 5.364313 28.363609 6.019616
v 1.875160 28.108042 6.509808
v 1.143367 30.839132 7.490192
v 10.278625 23.783583 6.509808
v 10.278625 23.783583 7.490192
v 1.875160 28.108040 7.490192
v 1.963475 31.058878 7.980385
v 5.206859 27.569914 6.019615
v 2.695268 28.327787 7.980385
v 6.994433 26.942146 7.490192
v 6.994433 26.942146 6.509808
v -0.849038 31.413717 6.509808
v 4.528430 30.443064 7.490192
v -0.849038 28.586283 6.509808
v -0.849038 31.413717 7.490192
v 7.963971 26.964672 6.509808
v 7.963971 26.964672 7.490192
v -0.849038 28.586283 7.490192
v 0.000000 31.413717 7.980385
v 2.695268 28.327787 6.019615
v 0.000000 28.586283 7.980385
v 5.942147 27.994434 6.509807
v 5.942146 27.994434 7.490193
v -0.849038 30.000000 6.509808
v 2.783582 31.278625 7.490192
v -0.849038 0.000000 6.509808
v -0.849038 30.000000 7.490192
v 5.964673 28.963970 7.490192
v 5.964674 28.963970 6.509808
v -0.849038 0.000000 7.490192
v 0.000000 30.000000 7.980385
v 0.000000 28.586283 6.019615
v 0.000000 0.000000 7.980385
v 3.515376 28.547535 6.509808
v 3.515376 28.547533 7.490192
v 0.849038 30.000000 7.490192
v 2.783582 31.278624 6.509808
v 1.963475 31.058878 6.019615
v 0.849038 0.000000 7.490192
v 0.849038 28.586283 6.509808
v 0.849038 28.586283 7.490192
v 0.849038 30.000000 6.509808
v 0.000000 30.000000 6.019615
v 9.443062 25.528431 6.509808
v 9.443063 25.528431 7.490192
v 0.000000 31.413717 6.019615
v 0.000000 0.000000 6.019615
v 0.849038 0.000000 6.509808
v 4.528430 30.443064 6.509807
v 3.793141 30.018545 6.019615
v 0.849038 31.413717 7.490192
v 0.849038 31.413717 6.509808
v -2.050000 6.350000 8.000000
v -2.050000 6.800000 7.550000
v -2.500000 6.350000 7.550000
v -2.050000 5.200000 7.550000
v -2.050000 5.650000 8.000000
v -2.500000 5.650000 7.550000
v 0.000000 0.000000 6.019615
v -0.389711 0.450000 5.725000
v 0.389711 0.450000 5.725000
v 0.000000 30.000000 6.019615
v 0.389711 29.549999 5.725000
v -0.389711 29.549999 5.725000
v 0.849038 0.000000 6.509808
v 0.909327 0.450000 6.025000
v 1.299038 0.450000 6.700000
v 0.849038 30.000000 6.509808
v 1.299038 29.549999 6.700000
v 0.909327 29.549999 6.025000
v 0.849038 0.000000 7.490192
v 1.299038 0.450000 7.300000
v 0.909327 0.450000 7.975000
v 0.849038 30.000000 7.490192
v 0.909327 29.549999 7.975000
v 1.299038 29.549999 7.300000
v 0.000000 0.000000 7.980385
v 0.389712 0.450000 8.275000
v -0.389711 0.450000 8.275000
v 0.000000 30.000000 7.980385
v -0.389712 29.549999 8.275000
v 0.389711 29.549999 8.275000
v -0.849038 0.000000 7.490192
v -0.909327 0.450000 7.975000
v -1.299038 0.450000 7.300000
v -0.849038 30.000000 7.490192
v -1.299038 29.549999 7.300000
v -0.909327 29.549999 7.975000
v -0.849038 0.000000 6.509808
v -1.299038 0.450000 6.700000
v -0.909327 0.450000 6.025000
v -0.849038 30.000000 6.509808
v -0.909327 29.549999 6.025000
v -1.299038 29.549999 6.700000
v 0.000000 28.586283 6.019615
v -0.389711 29.036283 5.725000
v 0.389711 29.036283 5.725000
v 0.000000 31.413717 6.019615
v 0.389711 30.963717 5.725000
v -0.389711 30.963717 5.725000
v 0.849038 28.586283 6.509808
v 0.909327 29.036283 6.025000
v 1.299038 29.036283 6.700000
v 0.849038 31.413717 6.509808
v 1.299038 30.963717 6.700000
v 0.909327 30.963717 6.025000
v 0.849038 28.586283 7.490192
v 1.299038 29.036283 7.300000
v 0.909327 29.036283 7.975000
v 0.849038 31.413717 7.490192
v 0.909327 30.963717 7.975000
v 1.299038 30.963717 7.300000
v 0.000000 28.586283 7.980385
v 0.389712 29.036283 8.275000
v -0.389711 29.036283 8.275000
v 0.000000 31.413717 7.980385
v -0.389712 30.963717 8.275000
v 0.389711 30.963717 8.275000
v -0.849038 28.586283 7.490192
v -0.909327 29.036283 7.975000
v -1.299038 29.036283 7.300000
v -0.849038 31.413717 7.490192
v -1.299038 30.963717 7.300000
v -0.909327 30.963717 7.975000
v -0.849038 28.586283 6.509808
v -1.299038 29.036283 6.700000
v -0.909327 29.036283 6.025000
v -0.849038 31.413717 6.509808
v -0.909327 30.963717 6.025000
v -1.299038 30.963717 6.700000
v 2.695268 28.327787 6.019615
v 2.202368 28.661589 5.725000
v 2.955232 28.863317 5.725000
v 1.963475 31.058878 6.019615
v 2.456375 30.725077 5.725000
v 1.703511 30.523348 5.725000
v 3.515376 28.547535 6.509808
v 3.457142 28.997805 6.025000
v 3.833574 29.098671 6.700000
v 2.783582 31.278624 6.509808
v 3.334718 30.960426 6.700000
v 2.958285 30.859564 6.025000
v 3.515376 28.547533 7.490192
v 3.833574 29.098671 7.300000
v 3.457142 28.997805 7.975000
v 2.783582 31.278625 7.490192
v 2.958285 30.859564 7.975000
v 3.334718 30.960426 7.300000
v 2.695268 28.327787 7.980385
v 2.955232 28.863317 8.275000
v 2.202368 28.661589 8.275000
v 1.963475 31.058878 7.980385
v 1.703511 30.523348 8.275000
v 2.456375 30.725077 8.275000
v 1.875160 28.108040 7.490192
v 1.700458 28.527102 7.975000
v 1.324025 28.426239 7.300000
v 1.143367 30.839132 7.490192
v 0.825169 30.287994 7.300000
v 1.201601 30.388861 7.975000
v 1.875160 28.108042 6.509808
v 1.324025 28.426239 6.700000
v 1.700458 28.527102 6.025000
v 1.143367 30.839130 6.509808
v 1.201601 30.388861 6.025000
v 0.825169 30.287994 6.700000
v 5.206859 27.569914 6.019615
v 4.644358 27.764771 5.725000
v 5.319359 28.154484 5.725000
v 3.793141 30.018545 6.019615
v 4.355642 29.823689 5.725000
v 3.680641 29.433975 5.725000
v 5.942147 27.994434 6.509807
v 5.769358 28.414289 6.025000
v 6.106859 28.609146 6.700000
v 4.528430 30.443064 6.509807
v 5.143141 30.278353 6.700000
v 4.805641 30.083496 6.025000
v 5.942146 27.994434 7.490193
v 6.106859 28.609146 7.300000
v 5.769358 28.414289 7.975000
v 4.528430 30.443064 7.490192
v 4.805641 30.083496 7.975000
v 5.143141 30.278353 7.300000
v 5.206859 27.569914 7.980385
v 5.319359 28.154484 8.275000
v 4.644358 27.764771 8.275001
v 3.793141 30.018545 7.980385
v 3.680641 29.433975 8.275000
v 4.355642 29.823689 8.275001
v 4.471570 27.145395 7.490192
v 4.194359 27.504963 7.975000
v 3.856859 27.310106 7.300000
v 3.057854 29.594025 7.490193
v 2.893142 28.979313 7.300000
v 3.230642 29.174170 7.975000
v 4.471570 27.145395 6.509807
v 3.856859 27.310106 6.700000
v 4.194359 27.504963 6.025000
v 3.057853 29.594025 6.509807
v 3.230642 29.174170 6.025000
v 2.893142 28.979313 6.700000
v 7.363610 26.364311 6.019616
v 6.769845 26.406940 5.725000
v 7.320980 26.958076 5.725000
v 5.364313 28.363609 6.019616
v 5.958078 28.320980 5.725000
v 5.406943 27.769844 5.725000
v 7.963971 26.964672 6.509808
v 7.688403 27.325500 6.025000
v 7.963971 27.601068 6.700000
v 5.964674 28.963970 6.509808
v 6.601069 28.963970 6.700000
v 6.325501 28.688402 6.025000
v 7.963971 26.964672 7.490192
v 7.963970 27.601068 7.300000
v 7.688403 27.325500 7.975000
v 5.964673 28.963970 7.490192
v 6.325501 28.688402 7.975000
v 6.601069 28.963970 7.300000
v 7.363609 26.364311 7.980384
v 7.320980 26.958076 8.275000
v 6.769845 26.406940 8.275000
v 5.364313 28.363609 7.980384
v 5.406943 27.769844 8.275000
v 5.958078 28.320980 8.275000
v 6.763249 25.763950 7.490192
v 6.402421 26.039518 7.975000
v 6.126853 25.763950 7.300000
v 4.763952 27.763248 7.490192
v 4.763952 27.126852 7.300000
v 5.039519 27.402420 7.975000
v 6.763248 25.763950 6.509808
v 6.126853 25.763950 6.700000
v 6.402421 26.039518 6.025000
v 4.763952 27.763248 6.509808
v 5.039519 27.402420 6.025000
v 4.763952 27.126852 6.700000
v 9.018543 24.793142 6.019616
v 8.433976 24.680643 5.725000
v 8.823688 25.355642 5.725000
v 6.569913 26.206858 6.019616
v 7.154481 26.319357 5.725000
v 6.764770 25.644358 5.725000
v 9.443062 25.528431 6.509808
v 9.083495 25.805643 6.025000
v 9.278351 26.143143 6.700000
v 6.994433 26.942146 6.509808
v 7.609144 27.106857 6.700000
v 7.414289 26.769358 6.025000
v 9.443063 25.528431 7.490192
v 9.278351 26.143143 7.300000
v 9.083495 25.805643 7.975000
v 6.994433 26.942146 7.490192
v 7.414289 26.769358 7.974999
v 7.609145 27.106857 7.300000
v 9.018543 24.793142 7.980384
v 8.823687 25.355642 8.275001
v 8.433976 24.680643 8.275000
v 6.569914 26.206858 7.980384
v 6.764770 25.644358 8.275001
v 7.154481 26.319357 8.275000
v 8.594025 24.057854 7.490192
v 8.174168 24.230642 7.974999
v 7.979312 23.893143 7.300000
v 6.145395 25.471569 7.490192
v 6.310106 24.856857 7.300000
v 6.504962 25.194357 7.975000
v 8.594024 24.057854 6.509808
v 7.979313 23.893143 6.700000
v 8.174169 24.230642 6.025000
v 6.145395 25.471569 6.509808
v 6.504962 25.194357 6.025000
v 6.310107 24.856857 6.700000
v 10.058878 22.963474 6.019615
v 9.523347 22.703510 5.725000
v 9.725076 23.456375 5.725000
v 7.327787 23.695267 6.019615
v 7.863319 23.955231 5.725000
v 7.661589 23.202366 5.725000
v 10.278625 23.783583 6.509808
v 9.859563 23.958284 6.025000
v 9.960427 24.334717 6.700000
v 7.547535 24.515375 6.509808
v 8.098670 24.833572 6.700000
v 7.997805 24.457140 6.025000
v 10.278625 23.783583 7.490192
v 9.960427 24.334717 7.300000
v 9.859563 23.958284 7.975000
v 7.547535 24.515375 7.490192
v 7.997805 24.457140 7.975000
v 8.098670 24.833572 7.300000
v 10.058878 22.963474 7.980385
v 9.725076 23.456375 8.275000
v 9.523347 22.703510 8.275000
v 7.327787 23.695267 7.980385
v 7.661589 23.202366 8.275000
v 7.863319 23.955231 8.275000
v 9.839130 22.143366 7.490192
v 9.388860 22.201601 7.975000
v 9.287995 21.825169 7.300000
v 7.108040 22.875158 7.490192
v 7.426238 22.324024 7.300000
v 7.527103 22.700457 7.975000
v 9.839130 22.143366 6.509808
v 9.287995 21.825169 6.700000
v 9.388860 22.201601 6.025000
v 7.108040 22.875158 6.509808
v 7.527103 22.700457 6.025000
v 7.426238 22.324024 6.700000
v 10.413716 21.000000 6.019616
v 9.963717 20.610289 5.725000
v 9.963717 21.389711 5.725000
v 7.586283 21.000000 6.019616
v 8.036283 21.389711 5.725000
v 8.036283 20.610289 5.725000
v 10.413716 21.849037 6.509807
v 9.963717 21.909327 6.025000
v 9.963717 22.299038 6.700000
v 7.586283 21.849037 6.509807
v 8.036283 22.299038 6.700000
v 8.036283 21.909327 6.025000
v 10.413716 21.849037 7.490193
v 9.963717 22.299038 7.300000
v 9.963717 21.909327 7.975000
v 7.586283 21.849037 7.490193
v 8.036283 21.909327 7.975000
v 8.036283 22.299038 7.300000
v 10.413716 21.000000 7.980384
v 9.963717 21.389711 8.275000
v 9.963717 20.610289 8.275000
v 7.586283 21.000000 7.980384
v 8.036283 20.610289 8.275000
v 8.036283 21.389711 8.275000
v 10.413716 20.150963 7.490193
v 9.963717 20.090673 7.975000
v 9.963717 19.700962 7.300000
v 7.586283 20.150963 7.490193
v 8.036283 19.700962 7.300000
v 8.036283 20.090673 7.975000
v 10.413716 20.150963 6.509807
v 9.963717 19.700962 6.700000
v 9.963717 20.090673 6.025000
v 7.586283 20.150963 6.509807
v 8.036283 20.090673 6.025000
v 8.036283 19.700962 6.700000
v 0.000000 0.000000 -7.980385
v -0.389712 0.450000 -8.275000
v 0.389711 0.450000 -8.275000
v 0.000000 30.000000 -7.980385
v 0.389712 29.549999 -8.275000
v -0.389711 29.549999 -8.275000
v 0.849038 0.000000 -7.490192
v 0.909327 0.450000 -7.975000
v 1.299038 0.450000 -7.300000
v 0.849038 30.000000 -7.490192
v 1.299038 29.549999 -7.300000
v 0.909327 29.549999 -7.975000
v 0.849038 0.000000 -6.509808
v 1.299038 0.450000 -6.700000
v 0.909327 0.450000 -6.025000
v 0.849038 30.000000 -6.509808
v 0.909327 29.549999 -6.025000
v 1.299038 29.549999 -6.700000
v 0.000000 0.000000 -6.019615
v 0.389711 0.450000 -5.725000
v -0.389711 0.450000 -5.725000
v 0.000000 30.000000 -6.019615
v -0.389711 29.549999 -5.725000
v 0.389711 29.549999 -5.725000
v -0.849038 0.000000 -6.509808
v -0.909327 0.450000 -6.025000
v -1.299038 0.450000 -6.700000
v -0.849038 30.000000 -6.509808
v -1.299038 29.549999 -6.700000
v -0.909327 29.549999 -6.025000
v -0.849038 0.000000 -7.490192
v -1.299038 0.450000 -7.300000
v -0.909327 0.450000 -7.975000
v -0.849038 30.000000 -7.490192
v -0.909327 29.549999 -7.975000
v -1.299038 29.549999 -7.300000
v 0.000000 28.586283 -7.980385
v -0.389712 29.036283 -8.275000
v 0.389711 29.036283 -8.275000
v 0.000000 31.413717 -7.980385
v 0.389712 30.963717 -8.275000
v -0.389711 30.963717 -8.275000
v 0.849038 28.586283 -7.490192
v 0.909327 29.036283 -7.975000
v 1.299038 29.036283 -7.300000
v 0.849038 31.413717 -7.490192
v 1.299038 30.963717 -7.300000
v 0.909327 30.963717 -7.975000
v 0.849038 28.586283 -6.509808
v 1.299038 29.036283 -6.700000
v 0.909327 29.036283 -6.025000
v 0.849038 31.413717 -6.509808
v 0.909327 30.963717 -6.025000
v 1.299038 30.963717 -6.700000
v 0.000000 28.586283 -6.019615
v 0.389711 29.036283 -5.725000
v -0.389711 29.036283 -5.725000
v 0.000000 31.413717 -6.019615
v -0.389711 30.963717 -5.725000
v 0.389711 30.963717 -5.725000
v -0.849038 28.586283 -6.509808
v -0.909327 29.036283 -6.025000
v -1.299038 29.036283 -6.700000
v -0.849038 31.413717 -6.509808
v -1.299038 30.963717 -6.700000
v -0.909327 30.963717 -6.025000
v -0.849038 28.586283 -7.490192
v -1.299038 29.036283 -7.300000
v -0.909327 29.036283 -7.975000
v -0.849038 31.413717 -7.490192
v -0.909327 30.963717 -7.975000
v -1.299038 30.963717 -7.300000
v 2.695268 28.327787 -7.980385
v 2.202367 28.661589 -8.275000
v 2.955232 28.863317 -8.275000
v 1.963475 31.058878 -7.980385
v 2.456376 30.725077 -8.275000
v 1.703511 30.523348 -8.275000
v 3.515376 28.547535 -7.490192
v 3.457142 28.997805 -7.975000
v 3.833574 29.098671 -7.300000
v 2.783582 31.278624 -7.490192
v 3.334718 30.960426 -7.300000
v 2.958285 30.859564 -7.975000
v 3.515376 28.547533 -6.509808
v 3.833574 29.098671 -6.700000
v 3.457142 28.997805 -6.025000
v 2.783582 31.278625 -6.509808
v 2.958285 30.859564 -6.025000
v 3.334718 30.960426 -6.700000
v 2.695268 28.327787 -6.019615
v 2.955232 28.863317 -5.725000
v 2.202368 28.661589 -5.725000
v 1.963475 31.058878 -6.019615
v 1.703511 30.523348 -5.725000
v 2.456375 30.725077 -5.725000
v 1.875160 28.108040 -6.509808
v 1.700458 28.527102 -6.025000
v 1.324025 28.426239 -6.700000
v 1.143367 30.839132 -6.509808
v 0.825169 30.287994 -6.700000
v 1.201601 30.388861 -6.025000
v 1.875160 28.108042 -7.490192
v 1.324025 28.426239 -7.300000
v 1.700458 28.527102 -7.975000
v 1.143367 30.839130 -7.490192
v 1.201601 30.388861 -7.975000
v 0.825169 30.287994 -7.300000
v 5.206859 27.569914 -7.980385
v 4.644358 27.764771 -8.275000
v 5.319359 28.154484 -8.275000
v 3.793141 30.018545 -7.980385
v 4.355642 29.823689 -8.275000
v 3.680641 29.433975 -8.275000
v 5.942147 27.994434 -7.490193
v 5.769358 28.414289 -7.975000
v 6.106859 28.609146 -7.300000
v 4.528430 30.443064 -7.490193
v 5.143141 30.278353 -7.300000
v 4.805641 30.083496 -7.975000
v 5.942146 27.994434 -6.509807
v 6.106859 28.609146 -6.700000
v 5.769358 28.414289 -6.025000
v 4.528430 30.443064 -6.509808
v 4.805641 30.083496 -6.025000
v 5.143141 30.278353 -6.700000
v 5.206859 27.569914 -6.019615
v 5.319359 28.154484 -5.725000
v 4.644358 27.764771 -5.725000
v 3.793141 30.018545 -6.019615
v 3.680641 29.433975 -5.725000
v 4.355642 29.823689 -5.725000
v 4.471570 27.145395 -6.509808
v 4.194359 27.504963 -6.025000
v 3.856859 27.310106 -6.700000
v 3.057854 29.594025 -6.509807
v 2.893142 28.979313 -6.700000
v 3.230642 29.174170 -6.025000
v 4.471570 27.145395 -7.490193
v 3.856859 27.310106 -7.300000
v 4.194359 27.504963 -7.975000
v 3.057853 29.594025 -7.490193
v 3.230642 29.174170 -7.975000
v 2.893142 28.979313 -7.300000
v 7.363610 26.364311 -7.980384
v 6.769845 26.406940 -8.275000
v 7.320980 26.958076 -8.275001
v 5.364313 28.363609 -7.980384
v 5.958078 28.320980 -8.275000
v 5.406942 27.769844 -8.275001
v 7.963971 26.964672 -7.490192
v 7.688403 27.325500 -7.975000
v 7.963971 27.601068 -7.300000
v 5.964674 28.963970 -7.490192
v 6.601069 28.963970 -7.300000
v 6.325501 28.688402 -7.975000
v 7.963971 26.964672 -6.509808
v 7.963970 27.601068 -6.700000
v 7.688403 27.325500 -6.025000
v 5.964673 28.963970 -6.509808
v 6.325501 28.688402 -6.025000
v 6.601069 28.963970 -6.700000
v 7.363609 26.364311 -6.019616
v 7.320980 26.958076 -5.725000
v 6.769845 26.406940 -5.725000
v 5.364313 28.363609 -6.019616
v 5.406943 27.769844 -5.725000
v 5.958078 28.320980 -5.725000
v 6.763249 25.763950 -6.509808
v 6.402421 26.039518 -6.025000
v 6.126853 25.763950 -6.700000
v 4.763952 27.763248 -6.509808
v 4.763952 27.126852 -6.700000
v 5.039519 27.402420 -6.025000
v 6.763248 25.763950 -7.490192
v 6.126853 25.763950 -7.300000
v 6.402421 26.039518 -7.975000
v 4.763952 27.763248 -7.490192
v 5.039519 27.402420 -7.975000
v 4.763952 27.126852 -7.300000
v 9.018543 24.793142 -7.980384
v 8.433976 24.680643 -8.275000
v 8.823688 25.355642 -8.275000
v 6.569913 26.206858 -7.980384
v 7.154481 26.319357 -8.275000
v 6.764770 25.644358 -8.275000
v 9.443062 25.528431 -7.490192
v 9.083495 25.805643 -7.975000
v 9.278351 26.143143 -7.300000
v 6.994433 26.942146 -7.490192
v 7.609144 27.106857 -7.300000
v 7.414289 26.769358 -7.975000
v 9.443063 25.528431 -6.509808
v 9.278351 26.143143 -6.700000
v 9.083495 25.805643 -6.025000
v 6.994433 26.942146 -6.509808
v 7.414289 26.769358 -6.025001
v 7.609145 27.106857 -6.700000
v 9.018543 24.793142 -6.019616
v 8.823687 25.355642 -5.724999
v 8.433976 24.680643 -5.725000
v 6.569914 26.206858 -6.019616
v 6.764770 25.644358 -5.724999
v 7.154481 26.319357 -5.725000
v 8.594025 24.057854 -6.509808
v 8.174168 24.230642 -6.025001
v 7.979312 23.893143 -6.700000
v 6.145395 25.471569 -6.509808
v 6.310106 24.856857 -6.700000
v 6.504962 25.194357 -6.025000
v 8.594024 24.057854 -7.490192
v 7.979313 23.893143 -7.300000
v 8.174169 24.230642 -7.975000
v 6.145395 25.471569 -7.490192
v 6.504962 25.194357 -7.975000
v 6.310107 24.856857 -7.300000
v 10.058878 22.963474 -7.980385
v 9.523347 22.703510 -8.275000
v 9.725076 23.456375 -8.275000
v 7.327787 23.695267 -7.980385
v 7.863319 23.955231 -8.275000
v 7.661589 23.202366 -8.275000
v 10.278625 23.783583 -7.490192
v 9.859563 23.958284 -7.975000
v 9.960427 24.334717 -7.300000
v 7.547535 24.515375 -7.490192
v 8.098670 24.833572 -7.300000
v 7.997805 24.457140 -7.975000
v 10.278625 23.783583 -6.509808
v 9.960427 24.334717 -6.700000
v 9.859563 23.958284 -6.025000
v 7.547535 24.515375 -6.509808
v 7.997805 24.457140 -6.025000
v 8.098670 24.833572 -6.700000
v 10.058878 22.963474 -6.019615
v 9.725076 23.456375 -5.725000
v 9.523347 22.703510 -5.725000
v 7.327787 23.695267 -6.019615
v 7.661589 23.202366 -5.725000
v 7.863319 23.955231 -5.725000
v 9.839130 22.143366 -6.509808
v 9.388860 22.201601 -6.025000
v 9.287995 21.825169 -6.700000
v 7.108040 22.875158 -6.509808
v 7.426238 22.324024 -6.700000
v 7.527103 22.700457 -6.025000
v 9.839130 22.143366 -7.490192
v 9.287995 21.825169 -7.300000
v 9.388860 22.201601 -7.975000
v 7.108040 22.875158 -7.490192
v 7.527103 22.700457 -7.975000
v 7.426238 22.324024 -7.300000
v 10.413716 21.000000 -7.980384
v 9.963717 20.610289 -8.275000
v 9.963717 21.389711 -8.275000
v 7.586283 21.000000 -7.980384
v 8.036283 21.389711 -8.275000
v 8.036283 20.610289 -8.275000
v 10.413716 21.849037 -7.490193
v 9.963717 21.909327 -7.975000
v 9.963717 22.299038 -7.300000
v 7.586283 21.849037 -7.490193
v 8.036283 22.299038 -7.300000
v 8.036283 21.909327 -7.975000
v 10.413716 21.849037 -6.509807
v 9.963717 22.299038 -6.700000
v 9.963717 21.909327 -6.025000
v 7.586283 21.849037 -6.509807
v 8.036283 21.909327 -6.025000
v 8.036283 22.299038 -6.700000
v 10.413716 21.000000 -6.019616
v 9.963717 21.389711 -5.725000
v 9.963717 20.610289 -5.725000
v 7.586283 21.000000 -6.019616
v 8.036283 20.610289 -5.725000
v 8.036283 21.389711 -5.725000
v 10.413716 20.150963 -6.509807
v 9.963717 20.090673 -6.025000
v 9.963717 19.700962 -6.700000
v 7.586283 20.150963 -6.509807
v 8.036283 19.700962 -6.700000
v 8.036283 20.090673 -6.025000
v 10.413716 20.150963 -7.490193
v 9.963717 19.700962 -7.300000
v 9.963717 20.090673 -7.975000
v 7.586283 20.150963 -7.490193
v 8.036283 20.090673 -7.975000
v 8.036283 19.700962 -7.300000
v -2.050000 5.200000 -7.550000
v -2.500000 5.650000 -7.550000
v -2.050000 5.650000 -8.000000
v -2.050000 6.800000 -7.550000
v -2.050000 6.350000 -8.000000
v -2.500000 6.350000 -7.550000
v 4.050000 5.200000 7.550000
v 4.500000 5.650000 7.550000
v 4.050000 5.650000 8.000000
v 4.050000 6.800000 7.550000
v 4.050000 6.350000 8.000000
v 4.500000 6.350000 7.550000
v 4.050000 5.200000 -7.550000
v 4.050000 5.650000 -8.000000
v 4.500000 5.650000 -7.550000
v 4.050000 6.800000 -7.550000
v 4.500000 6.350000 -7.550000
v 4.050000 6.350000 -8.000000
v -2.050000 12.200000 7.550000
v -2.050000 12.650000 8.000000
v -2.500000 12.650000 7.550000
v -2.050000 13.350000 8.000000
v -2.050000 13.800000 7.550000
v -2.500000 13.350000 7.550000
v -2.050000 12.200000 -7.550000
v -2.500000 12.650000 -7.550000
v -2.050000 12.650000 -8.000000
v -2.050000 13.800000 -7.550000
v -2.050000 13.350000 -8.000000
v -2.500000 13.350000 -7.550000
v 4.050000 12.200000 7.550000
v 4.500000 12.650000 7.550000
v 4.050000 12.650000 8.000000
v 4.050000 13.800000 7.550000
v 4.050000 13.350000 8.000000
v 4.500000 13.350000 7.550000
v 4.050000 12.200000 -7.550000
v 4.050000 12.650000 -8.000000
v 4.500000 12.650000 -7.550000
v 4.050000 13.800000 -7.550000
v 4.500000 13.350000 -7.550000
v 4.050000 13.350000 -8.000000
v -2.050000 19.200001 7.550000
v -2.050000 19.650002 8.000000
v -2.500000 19.650002 7.550000
v -2.050000 20.349998 8.000000
v -2.050000 20.799999 7.550000
v -2.500000 20.349998 7.550000
v -2.050000 19.200001 -7.550000
v -2.500000 19.650002 -7.550000
v -2.050000 19.650002 -8.000000
v -2.050000 20.799999 -7.550000
v -2.050000 20.349998 -8.000000
v -2.500000 20.349998 -7.550000
v 4.050000 19.200001 7.550000
v 4.500000 19.650002 7.550000
v 4.050000 19.650002 8.000000
v 4.050000 20.799999 7.550000
v 4.050000 20.349998 8.000000
v 4.500000 20.349998 7.550000
v 4.050000 19.200001 -7.550000
v 4.050000 19.650002 -8.000000
v 4.500000 19.650002 -7.550000
v 4.050000 20.799999 -7.550000
v 4.500000 20.349998 -7.550000
v 4.050000 20.349998 -8.000000
v -2.050000 12.200000 -7.550000
v -2.050000 12.200000 7.550000
v -2.500000 12.650000 7.550000
v -2.500000 12.650000 -7.550000
v -2.050000 12.650000 8.000000
v -2.050000 13.350000 8.000000
v -2.500000 13.350000 7.550000
v -2.050000 13.800000 7.550000
v -2.050000 13.800000 -7.550000
v -2.500000 13.350000 -7.550000
v -2.050000 13.350000 -8.000000
v -2.050000 12.650000 -8.000000
v 4.050000 12.200000 -7.550000
v 4.050000 12.650000 -8.000000
v 4.050000 13.800000 -7.550000
v 4.050000 13.350000 -8.000000
v 4.500000 13.350000 -7.550000
v 4.500000 12.650000 -7.550000
v 4.050000 12.200000 7.550000
v 4.500000 12.650000 7.550000
v 4.050000 13.800000 7.550000
v 4.500000 13.350000 7.550000
v 4.050000 13.350000 8.000000
v 4.050000 12.650000 8.000000
v -2.050000 19.200001 -7.550000
v -2.050000 19.200001 7.550000
v -2.500000 19.650002 7.550000
v -2.500000 19.650002 -7.550000
v -2.050000 19.650002 8.000000
v -2.050000 20.349998 8.000000
v -2.500000 20.349998 7.550000
v -2.050000 20.799999 7.550000
v -2.050000 20.799999 -7.550000
v -2.500000 20.349998 -7.550000
v -2.050000 20.349998 -8.000000
v -2.050000 19.650002 -8.000000
v 4.050000 19.200001 -7.550000
v 4.050000 19.650002 -8.000000
v 4.050000 20.799999 -7.550000
v 4.050000 20.349998 -8.000000
v 4.500000 20.349998 -7.550000
v 4.500000 19.650002 -7.550000
v 4.050000 19.200001 7.550000
v 4.500000 19.650002 7.550000
v 4.050000 20.799999 7.550000
v 4.500000 20.349998 7.550000
v 4.050000 20.349998 8.000000
v 4.050000 19.650002 8.000000
vn -0.6904 -0.6265 -0.3617
vn 0.6904 -0.6265 -0.3617
vn -0.6904 -0.6265 0.3617
vn 0.7588 -0.4606 -0.4606
vn 0.6904 -0.6265 0.3617
vn -0.7588 -0.4606 0.4606
vn -0.6904 -0.0000 0.7235
vn 0.7588 0.4606 -0.4606
vn 0.6904 -0.0000 0.7235
vn -0.7588 0.4606 0.4606
vn -0.8290 -0.4265 -0.3617
vn 0.5047 -0.7839 -0.3617
vn 0.4606 0.4606 -0.7588
vn 0.4606 0.7588 -0.4606
vn -0.4606 0.7588 -0.4606
vn -0.8290 -0.4265 0.3617
vn 0.5047 -0.7839 0.3617
vn 0.4606 -0.4606 -0.7588
vn -0.4606 -0.7588 -0.4606
vn 0.4606 -0.7588 -0.4606
vn -0.6669 0.1787 0.7235
vn -0.7588 0.4606 -0.4606
vn -0.7588 -0.4606 -0.4606
vn -0.4606 -0.4606 -0.7588
vn -0.4606 0.4606 -0.7588
vn 0.6668 -0.1787 0.7235
vn 0.6904 -0.0000 -0.7235
vn -0.9111 -0.1974 -0.3617
vn 0.2846 -0.8878 -0.3617
vn -0.6904 -0.0000 -0.7235
vn -0.9111 -0.1974 0.3617
vn 0.2846 -0.8878 0.3617
vn -0.4606 -0.4606 0.7588
vn 0.4606 -0.7588 0.4606
vn -0.4606 -0.7588 0.4606
vn -0.5979 0.3452 0.7235
vn -0.4606 0.4606 0.7588
vn -0.4606 0.7588 0.4606
vn 0.4606 0.7588 0.4606
vn 0.5979 -0.3452 0.7235
vn 0.6669 -0.1787 -0.7235
vn -0.9312 0.0451 -0.3617
vn 0.0451 -0.9312 -0.3617
vn -0.6669 0.1787 -0.7235
vn -0.9312 0.0451 0.3617
vn 0.0451 -0.9312 0.3617
vn 0.7588 0.4606 0.4606
vn 0.7588 -0.4606 0.4606
vn 0.4606 -0.4606 0.7588
vn 0.4606 0.4606 0.7588
vn -0.4882 0.4882 0.7235
vn -0.6904 0.6265 0.3617
vn -0.6904 0.6265 -0.3617
vn 0.4882 -0.4882 0.7235
vn 0.5979 -0.3452 -0.7235
vn -0.8878 0.2846 -0.3617
vn -0.1974 -0.9111 -0.3617
vn -0.5979 0.3452 -0.7235
vn -0.8878 0.2846 0.3617
vn -0.1974 -0.9111 0.3617
vn 0.6904 0.6265 -0.3617
vn 0.6904 0.6265 0.3617
vn -0.3452 0.5979 0.7235
vn -0.5047 0.7839 0.3617
vn -0.5047 0.7839 -0.3617
vn 0.3452 -0.5979 0.7235
vn 0.4882 -0.4882 -0.7235
vn -0.7839 0.5047 -0.3617
vn -0.4265 -0.8290 -0.3617
vn -0.4882 0.4882 -0.7235
vn -0.7839 0.5047 0.3617
vn -0.4265 -0.8290 0.3617
vn 0.8290 0.4265 -0.3617
vn 0.8290 0.4265 0.3617
vn -0.1787 0.6669 0.7235
vn -0.2846 0.8878 0.3617
vn -0.2846 0.8878 -0.3617
vn 0.1787 -0.6669 0.7235
vn 0.3452 -0.5979 -0.7235
vn -0.6265 0.6904 -0.3617
vn -0.6265 -0.6904 -0.3617
vn -0.3452 0.5979 -0.7235
vn -0.6265 0.6904 0.3617
vn -0.6265 -0.6904 0.3617
vn 0.9111 0.1974 -0.3617
vn 0.9111 0.1974 0.3617
vn -0.0000 0.6904 0.7235
vn -0.0451 0.9312 0.3617
vn -0.0451 0.9312 -0.3617
vn -0.0000 -0.6904 0.7235
vn 0.1787 -0.6668 -0.7235
vn -0.1787 0.6668 -0.7235
vn 0.9312 -0.0451 -0.3617
vn 0.9312 -0.0451 0.3617
vn 0.1974 0.9111 0.3617
vn 0.1974 0.9111 -0.3617
vn -0.0000 -0.6904 -0.7235
vn -0.0000 0.6904 -0.7235
vn 0.8878 -0.2846 -0.3617
vn 0.8878 -0.2846 0.3617
vn 0.4265 0.8290 0.3617
vn 0.4265 0.8290 -0.3617
vn 0.7839 -0.5047 -0.3617
vn 0.7839 -0.5047 0.3617
vn 0.6265 0.6904 0.3617
vn 0.6265 0.6904 -0.3617
vn 0.6265 -0.6904 -0.3617
vn 0.6265 -0.6904 0.3617
vn 0.1787 -0.6668 0.7235
vn -0.0000 -0.0000 1.0000
vn -0.0000 1.0000 -0.0000
vn -1.0000 -0.0000 -0.0000
vn -0.0000 -1.0000 -0.0000
vn -0.2677 -0.3400 -0.9015
vn 0.2677 -0.3400 -0.9015
vn 0.2677 0.3400 -0.9015
vn -0.2677 0.3400 -0.9015
vn 0.6469 -0.3400 -0.6826
vn 0.9146 -0.3400 -0.2189
vn 0.9146 0.3400 -0.2189
vn 0.6469 0.3400 -0.6826
vn 0.9146 -0.3400 0.2189
vn 0.6469 -0.3400 0.6826
vn 0.6469 0.3400 0.6826
vn 0.9146 0.3400 0.2189
vn 0.2677 -0.3400 0.9015
vn -0.2677 -0.3400 0.9015
vn -0.2677 0.3400 0.9015
vn 0.2677 0.3400 0.9015
vn -0.6469 -0.3400 0.6826
vn -0.9146 -0.3400 0.2189
vn -0.9146 0.3400 0.2189
vn -0.6469 0.3400 0.6826
vn -0.9146 -0.3400 -0.2189
vn -0.6469 -0.3400 -0.6826
vn -0.6469 0.3400 -0.6826
vn -0.9146 0.3400 -0.2189
vn 0.2588 -0.9659 -0.0000
vn -0.1706 -0.3977 -0.9015
vn 0.3466 -0.2591 -0.9015
vn -0.2588 0.9659 -0.0000
vn 0.1706 0.3977 -0.9015
vn -0.3466 0.2591 -0.9015
vn 0.7128 -0.1610 -0.6826
vn 0.9714 -0.0917 -0.2189
vn 0.7954 0.5651 -0.2189
vn 0.5368 0.4958 -0.6826
vn 0.9714 -0.0917 0.2189
vn 0.7128 -0.1610 0.6826
vn 0.5368 0.4958 0.6826
vn 0.7954 0.5651 0.2189
vn 0.3466 -0.2591 0.9015
vn -0.1706 -0.3977 0.9015
vn -0.3466 0.2591 0.9015
vn 0.1706 0.3977 0.9015
vn -0.5368 -0.4958 0.6826
vn -0.7954 -0.5651 0.2189
vn -0.9714 0.0917 0.2189
vn -0.7128 0.1610 0.6826
vn -0.7954 -0.5651 -0.2189
vn -0.5368 -0.4958 -0.6826
vn -0.7128 0.1610 -0.6826
vn -0.9714 0.0917 -0.2189
vn 0.5000 -0.8660 -0.0000
vn -0.0619 -0.4283 -0.9015
vn 0.4019 -0.1606 -0.9015
vn -0.5000 0.8660 -0.0000
vn 0.0619 0.4283 -0.9015
vn -0.4019 0.1606 -0.9015
vn 0.7302 0.0290 -0.6826
vn 0.9621 0.1629 -0.2189
vn 0.6221 0.7517 -0.2189
vn 0.3902 0.6179 -0.6826
vn 0.9621 0.1629 0.2189
vn 0.7302 0.0290 0.6826
vn 0.3902 0.6179 0.6826
vn 0.6221 0.7517 0.2189
vn 0.4019 -0.1606 0.9015
vn -0.0619 -0.4283 0.9015
vn -0.4019 0.1606 0.9015
vn 0.0619 0.4283 0.9015
vn -0.3902 -0.6179 0.6826
vn -0.6221 -0.7517 0.2189
vn -0.9621 -0.1629 0.2189
vn -0.7302 -0.0290 0.6826
vn -0.6221 -0.7517 -0.2189
vn -0.3902 -0.6179 -0.6826
vn -0.7302 -0.0290 -0.6826
vn -0.9621 -0.1629 -0.2189
vn 0.7071 -0.7071 -0.0000
vn 0.0511 -0.4297 -0.9015
vn 0.4297 -0.0511 -0.9015
vn -0.7071 0.7071 -0.0000
vn -0.0511 0.4297 -0.9015
vn -0.4297 0.0511 -0.9015
vn 0.6978 0.2170 -0.6826
vn 0.8871 0.4063 -0.2189
vn 0.4063 0.8871 -0.2189
vn 0.2170 0.6978 -0.6826
vn 0.8871 0.4063 0.2189
vn 0.6978 0.2170 0.6826
vn 0.2170 0.6978 0.6826
vn 0.4063 0.8871 0.2189
vn 0.4297 -0.0511 0.9015
vn 0.0511 -0.4297 0.9015
vn -0.4297 0.0511 0.9015
vn -0.0511 0.4297 0.9015
vn -0.2170 -0.6978 0.6826
vn -0.4063 -0.8871 0.2189
vn -0.8871 -0.4063 0.2189
vn -0.6978 -0.2170 0.6826
vn -0.4063 -0.8871 -0.2189
vn -0.2170 -0.6978 -0.6826
vn -0.6978 -0.2170 -0.6826
vn -0.8871 -0.4063 -0.2189
vn 0.8660 -0.5000 -0.0000
vn 0.1606 -0.4019 -0.9015
vn 0.4283 0.0619 -0.9015
vn -0.8660 0.5000 -0.0000
vn -0.1606 0.4019 -0.9015
vn -0.4283 -0.0619 -0.9015
vn 0.6179 0.3902 -0.6826
vn 0.7517 0.6221 -0.2189
vn 0.1629 0.9621 -0.2189
vn 0.0290 0.7302 -0.6826
vn 0.7517 0.6221 0.2189
vn 0.6179 0.3902 0.6826
vn 0.0290 0.7302 0.6826
vn 0.1629 0.9621 0.2189
vn 0.4283 0.0619 0.9015
vn 0.1606 -0.4019 0.9015
vn -0.4283 -0.0619 0.9015
vn -0.1606 0.4019 0.9015
vn -0.0290 -0.7302 0.6826
vn -0.1629 -0.9621 0.2189
vn -0.7517 -0.6221 0.2189
vn -0.6179 -0.3902 0.6826
vn -0.1629 -0.9621 -0.2189
vn -0.0290 -0.7302 -0.6826
vn -0.6179 -0.3902 -0.6826
vn -0.7517 -0.6221 -0.2189
vn 0.9659 -0.2588 -0.0000
vn 0.2591 -0.3466 -0.9015
vn 0.3977 0.1706 -0.9015
vn -0.9659 0.2588 -0.0000
vn -0.2591 0.3466 -0.9015
vn -0.3977 -0.1706 -0.9015
vn 0.4958 0.5368 -0.6826
vn 0.5651 0.7954 -0.2189
vn -0.0917 0.9714 -0.2189
vn -0.1610 0.7128 -0.6826
vn 0.5651 0.7954 0.2189
vn 0.4958 0.5368 0.6826
vn -0.1610 0.7128 0.6826
vn -0.0917 0.9714 0.2189
vn 0.3977 0.1706 0.9015
vn 0.2591 -0.3466 0.9015
vn -0.3977 -0.1706 0.9015
vn -0.2591 0.3466 0.9015
vn 0.1610 -0.7128 0.6826
vn 0.0917 -0.9714 0.2189
vn -0.5651 -0.7954 0.2189
vn -0.4958 -0.5368 0.6826
vn 0.0917 -0.9714 -0.2189
vn 0.1610 -0.7128 -0.6826
vn -0.4958 -0.5368 -0.6826
vn -0.5651 -0.7954 -0.2189
vn 1.0000 -0.0000 -0.0000
vn 0.3400 -0.2677 -0.9015
vn 0.3400 0.2677 -0.9015
vn -0.3400 0.2677 -0.9015
vn -0.3400 -0.2677 -0.9015
vn 0.3400 0.6469 -0.6826
vn 0.3400 0.9146 -0.2189
vn -0.3400 0.9146 -0.2189
vn -0.3400 0.6469 -0.6826
vn 0.3400 0.9146 0.2189
vn 0.3400 0.6469 0.6826
vn -0.3400 0.6469 0.6826
vn -0.3400 0.9146 0.2189
vn 0.3400 0.2677 0.9015
vn 0.3400 -0.2677 0.9015
vn -0.3400 -0.2677 0.9015
vn -0.3400 0.2677 0.9015
vn 0.3400 -0.6469 0.6826
vn 0.3400 -0.9146 0.2189
vn -0.3400 -0.9146 0.2189
vn -0.3400 -0.6469 0.6826
vn 0.3400 -0.9146 -0.2189
vn 0.3400 -0.6469 -0.6826
vn -0.3400 -0.6469 -0.6826
vn -0.3400 -0.9146 -0.2189
vn -0.0000 -0.0000 -1.0000
vt -0.102500 -0.400000
vt -0.102500 -0.377500
vt -0.125000 -0.377500
vt 0.000000 0.000000
vt -0.019486 0.022500
vt 0.019486 0.022500
vt 0.000000 1.500000
vt 0.019486 1.477500
vt -0.019486 1.477500
vt -0.325490 0.000000
vt -0.301250 0.022500
vt -0.335000 0.022500
vt -0.325490 1.500000
vt -0.335000 1.477500
vt -0.301250 1.477500
vt -0.374510 0.000000
vt -0.365000 0.022500
vt -0.398750 0.022500
vt -0.374510 1.500000
vt -0.398750 1.477500
vt -0.365000 1.477500
vt 0.019486 0.022500
vt -0.019486 0.022500
vt -0.019486 1.477500
vt 0.019486 1.477500
vt -0.365000 0.022500
vt -0.335000 0.022500
vt 0.000000 1.429314
vt -0.019486 1.451814
vt 0.019486 1.451814
vt 0.000000 1.570686
vt 0.019486 1.548186
vt -0.019486 1.548186
vt -0.325490 1.429314
vt -0.301250 1.451814
vt -0.335000 1.451814
vt -0.325490 1.570686
vt -0.335000 1.548186
vt -0.301250 1.548186
vt -0.374510 1.429314
vt -0.365000 1.451814
vt -0.398750 1.451814
vt -0.374510 1.570686
vt -0.398750 1.548186
vt -0.365000 1.548186
vt 0.019486 1.451814
vt -0.019486 1.451814
vt -0.019486 1.548186
vt 0.019486 1.548186
vt 0.134763 1.416389
vt 0.110118 1.433079
vt 0.147762 1.443166
vt 0.098174 1.552944
vt 0.122819 1.536254
vt 0.085176 1.526167
vt -0.325490 1.427377
vt -0.301250 1.449890
vt -0.335000 1.454934
vt 0.139179 -0.325490
vt 0.166736 -0.335000
vt 0.147914 -0.301250
vt -0.374510 1.427377
vt -0.365000 1.454934
vt -0.398750 1.449890
vt 0.139179 -0.374510
vt 0.147914 -0.398750
vt 0.166736 -0.365000
vt 0.134763 1.416389
vt 0.098174 1.552944
vt 0.085176 1.526167
vt 0.093758 -0.374510
vt 0.085023 -0.398750
vt 0.066201 -0.365000
vt -0.374510 1.541957
vt -0.365000 1.514400
vt -0.398750 1.519443
vt 0.093758 -0.325490
vt 0.066201 -0.335000
vt 0.085023 -0.301250
vt -0.325490 1.541957
vt -0.301250 1.519443
vt -0.335000 1.514400
vt 0.260343 1.378496
vt 0.232218 1.388239
vt 0.265968 1.407724
vt 0.189657 1.500927
vt 0.217782 1.491184
vt 0.184032 1.471699
vt -0.325490 1.399722
vt -0.301250 1.420714
vt -0.335000 1.430457
vt 0.226421 -0.325490
vt 0.257157 -0.335000
vt 0.240282 -0.301250
vt -0.374510 1.399722
vt -0.365000 1.430457
vt -0.398750 1.420714
vt 0.226422 -0.374510
vt 0.240282 -0.398750
vt 0.257157 -0.365000
vt 0.217782 1.491184
vt 0.223578 -0.374510
vt 0.209718 -0.398750
vt 0.192843 -0.365000
vt -0.374510 1.479701
vt -0.365000 1.448966
vt -0.398750 1.458709
vt 0.223579 -0.325490
vt 0.192843 -0.335000
vt 0.209718 -0.301250
vt -0.325490 1.479701
vt -0.301250 1.458709
vt -0.335000 1.448966
vt 0.368180 1.318216
vt 0.338492 1.320347
vt 0.366049 1.347904
vt 0.268216 1.418180
vt 0.297904 1.416049
vt 0.270347 1.388492
vt -0.325490 1.348234
vt -0.301250 1.366275
vt -0.335000 1.380053
vt 0.298234 -0.325490
vt 0.330053 -0.335000
vt 0.316275 -0.301250
vt -0.374510 1.348234
vt -0.365000 1.380053
vt -0.398750 1.366275
vt 0.298234 -0.374510
vt 0.316275 -0.398750
vt 0.330053 -0.365000
vt 0.368180 1.318216
vt 0.268216 1.418180
vt 0.338162 -0.374510
vt 0.320121 -0.398750
vt 0.306343 -0.365000
vt -0.374510 1.388162
vt -0.365000 1.356343
vt -0.398750 1.370121
vt 0.338162 -0.325490
vt 0.306343 -0.335000
vt 0.320121 -0.301250
vt -0.325490 1.388162
vt -0.301250 1.370121
vt -0.335000 1.356343
vt 0.450927 1.239657
vt 0.421699 1.234032
vt 0.441184 1.267782
vt 0.328496 1.310343
vt 0.357724 1.315968
vt 0.338239 1.282218
vt -0.325490 1.276422
vt -0.301250 1.290282
vt -0.335000 1.307157
vt 0.349722 -0.325490
vt 0.380457 -0.335000
vt 0.370714 -0.301250
vt -0.374510 1.276422
vt -0.365000 1.307157
vt -0.398750 1.290282
vt 0.349722 -0.374510
vt 0.370714 -0.398750
vt 0.380457 -0.365000
vt 0.441184 1.267782
vt 0.328496 1.310343
vt 0.429701 -0.374510
vt 0.408708 -0.398750
vt 0.398966 -0.365000
vt -0.374510 1.273578
vt -0.365000 1.242843
vt -0.398750 1.259718
vt 0.429701 -0.325490
vt 0.398966 -0.335000
vt 0.408708 -0.301250
vt -0.325490 1.273578
vt -0.301250 1.259718
vt -0.335000 1.242843
vt 0.502944 1.148174
vt 0.476167 1.135175
vt 0.486254 1.172819
vt 0.366389 1.184763
vt 0.393166 1.197762
vt 0.383079 1.160118
vt -0.325490 1.189179
vt -0.301250 1.197914
vt -0.335000 1.216736
vt 0.377377 -0.325490
vt 0.404934 -0.335000
vt 0.399890 -0.301250
vt -0.374510 1.189179
vt -0.365000 1.216736
vt -0.398750 1.197914
vt 0.377377 -0.374510
vt 0.399890 -0.398750
vt 0.404934 -0.365000
vt 0.491957 -0.374510
vt 0.469443 -0.398750
vt 0.464400 -0.365000
vt -0.374510 1.143758
vt -0.365000 1.116201
vt -0.398750 1.135023
vt 0.491957 -0.325490
vt 0.464400 -0.335000
vt 0.469443 -0.301250
vt -0.325490 1.143758
vt -0.301250 1.135023
vt -0.335000 1.116201
vt 0.520686 1.050000
vt 0.498186 1.030514
vt 0.498186 1.069486
vt 0.379314 1.050000
vt 0.401814 1.069486
vt 0.401814 1.030514
vt 0.520686 -0.325490
vt 0.498186 -0.301250
vt 0.498186 -0.335000
vt 0.379314 -0.325490
vt 0.401814 -0.335000
vt 0.401814 -0.301250
vt 0.520686 -0.374510
vt 0.498186 -0.365000
vt 0.498186 -0.398750
vt 0.379314 -0.374510
vt 0.401814 -0.398750
vt 0.401814 -0.365000
vt -0.019486 0.022500
vt 0.019486 1.477500
vt 0.374510 0.000000
vt 0.398750 0.022500
vt 0.365000 0.022500
vt 0.374510 1.500000
vt 0.365000 1.477500
vt 0.398750 1.477500
vt 0.325490 0.000000
vt 0.335000 0.022500
vt 0.301250 0.022500
vt 0.325490 1.500000
vt 0.301250 1.477500
vt 0.335000 1.477500
vt 0.019486 0.022500
vt -0.019486 1.477500
vt 0.335000 0.022500
vt 0.365000 0.022500
vt -0.019486 1.451814
vt 0.019486 1.548186
vt 0.374510 1.429314
vt 0.398750 1.451814
vt 0.365000 1.451814
vt 0.374510 1.570686
vt 0.365000 1.548186
vt 0.398750 1.548186
vt 0.325490 1.429314
vt 0.335000 1.451814
vt 0.301250 1.451814
vt 0.325490 1.570686
vt 0.301250 1.548186
vt 0.335000 1.548186
vt 0.019486 1.451814
vt -0.019486 1.548186
vt 0.110118 1.433079
vt 0.122819 1.536254
vt 0.374510 1.427377
vt 0.398750 1.449890
vt 0.365000 1.454934
vt 0.139179 0.374510
vt 0.166736 0.365000
vt 0.147914 0.398750
vt 0.325490 1.427377
vt 0.335000 1.454934
vt 0.301250 1.449890
vt 0.139179 0.325490
vt 0.147914 0.301250
vt 0.166736 0.335000
vt 0.093758 0.325490
vt 0.085023 0.301250
vt 0.066201 0.335000
vt 0.325490 1.541957
vt 0.335000 1.514400
vt 0.301250 1.519443
vt 0.093758 0.374510
vt 0.066201 0.365000
vt 0.085023 0.398750
vt 0.374510 1.541957
vt 0.398750 1.519443
vt 0.365000 1.514400
vt 0.374510 1.399722
vt 0.398750 1.420714
vt 0.365000 1.430457
vt 0.226421 0.374510
vt 0.257157 0.365000
vt 0.240282 0.398750
vt 0.325490 1.399722
vt 0.335000 1.430457
vt 0.301250 1.420714
vt 0.226422 0.325490
vt 0.240282 0.301250
vt 0.257157 0.335000
vt 0.184032 1.471699
vt 0.223578 0.325490
vt 0.209718 0.301250
vt 0.192843 0.335000
vt 0.325490 1.479701
vt 0.335000 1.448966
vt 0.301250 1.458709
vt 0.223579 0.374510
vt 0.192843 0.365000
vt 0.209718 0.398750
vt 0.374510 1.479701
vt 0.398750 1.458709
vt 0.365000 1.448966
vt 0.270347 1.388492
vt 0.374510 1.348234
vt 0.398750 1.366275
vt 0.365000 1.380053
vt 0.298234 0.374510
vt 0.330053 0.365000
vt 0.316275 0.398750
vt 0.325490 1.348234
vt 0.335000 1.380053
vt 0.301250 1.366275
vt 0.298234 0.325490
vt 0.316275 0.301250
vt 0.330053 0.335000
vt 0.338162 0.325490
vt 0.320121 0.301250
vt 0.306343 0.335000
vt 0.325490 1.388162
vt 0.335000 1.356343
vt 0.301250 1.370121
vt 0.338162 0.374510
vt 0.306343 0.365000
vt 0.320121 0.398750
vt 0.374510 1.388162
vt 0.398750 1.370121
vt 0.365000 1.356343
vt 0.374510 1.276422
vt 0.398750 1.290282
vt 0.365000 1.307157
vt 0.349722 0.374510
vt 0.380457 0.365000
vt 0.370714 0.398750
vt 0.325490 1.276422
vt 0.335000 1.307157
vt 0.301250 1.290282
vt 0.349722 0.325490
vt 0.370714 0.301250
vt 0.380457 0.335000
vt 0.429701 0.325490
vt 0.408708 0.301250
vt 0.398966 0.335000
vt 0.325490 1.273578
vt 0.335000 1.242843
vt 0.301250 1.259718
vt 0.429701 0.374510
vt 0.398966 0.365000
vt 0.408708 0.398750
vt 0.374510 1.273578
vt 0.398750 1.259718
vt 0.365000 1.242843
vt 0.374510 1.189179
vt 0.398750 1.197914
vt 0.365000 1.216736
vt 0.377377 0.374510
vt 0.404934 0.365000
vt 0.399890 0.398750
vt 0.325490 1.189179
vt 0.335000 1.216736
vt 0.301250 1.197914
vt 0.377377 0.325490
vt 0.399890 0.301250
vt 0.404934 0.335000
vt 0.491957 0.325490
vt 0.469443 0.301250
vt 0.464400 0.335000
vt 0.325490 1.143758
vt 0.335000 1.116201
vt 0.301250 1.135023
vt 0.491957 0.374510
vt 0.464400 0.365000
vt 0.469443 0.398750
vt 0.374510 1.143758
vt 0.398750 1.135023
vt 0.365000 1.116201
vt 0.520686 0.374510
vt 0.498186 0.398750
vt 0.498186 0.365000
vt 0.379314 0.374510
vt 0.401814 0.365000
vt 0.401814 0.398750
vt 0.520686 0.325490
vt 0.498186 0.335000
vt 0.498186 0.301250
vt 0.379314 0.325490
vt 0.401814 0.301250
vt 0.401814 0.335000
vt -0.102500 0.377500
vt -0.125000 0.377500
vt -0.102500 0.400000
vt 0.202500 -0.377500
vt 0.225000 -0.377500
vt 0.202500 -0.400000
vt 0.202500 0.377500
vt 0.202500 0.400000
vt 0.225000 0.377500
vt -0.102500 0.960000
vt -0.102500 0.982500
vt -0.125000 0.982500
vt -0.102500 1.017500
vt -0.102500 1.040000
vt -0.125000 1.017500
vt -0.377500 0.960000
vt -0.377500 0.982500
vt -0.400000 0.982500
vt -0.377500 1.040000
vt -0.400000 1.017500
vt -0.377500 1.017500
vt 0.377500 0.960000
vt 0.400000 0.982500
vt 0.377500 0.982500
vt 0.377500 1.040000
vt 0.377500 1.017500
vt 0.400000 1.017500
vt 0.217782 -0.286250
vt 0.045466 -0.301250
vt 0.000000 -0.300981
vt 0.019486 -0.286250
vt 0.042452 -0.325490
vt 0.045466 -0.301250
vt 0.064952 -0.335000
vt 0.042452 -0.374510
vt 0.122819 -0.286250
vt 0.019486 -0.413750
vt 0.045466 -0.398750
vt 0.019486 -0.286250
vt 0.019486 -0.413750
vt 0.000000 -0.399019
vt -0.019486 -0.413750
vt -0.042452 -0.374510
vt -0.019486 -0.413750
vt -0.045466 -0.398750
vt -0.064952 -0.335000
vt -0.064952 -0.365000
vt -0.045466 -0.301250
vt -0.042452 -0.325490
vt -0.045466 -0.301250
vt -0.019486 -0.286250
vt 0.045466 -0.398750
vt 0.175769 1.427377
vt 0.019486 -0.413750
vt -0.301250 1.542978
vt -0.335000 1.548021
vt -0.019486 -0.413750
vt -0.045466 -0.398750
vt -0.019486 -0.286250
vt -0.398750 1.542978
vt -0.365000 1.548021
vt 0.175769 1.427377
vt 0.172857 1.449890
vt -0.286250 1.407724
vt -0.300981 1.378496
vt 0.098174 -0.399019
vt 0.122819 -0.413750
vt -0.335000 1.513918
vt -0.301250 1.504175
vt 0.110118 -0.413750
vt 0.134763 -0.399019
vt 0.057168 1.541957
vt 0.060080 1.519443
vt -0.365000 1.421312
vt 0.297904 -0.286250
vt -0.335000 1.421312
vt 0.110118 -0.286250
vt 0.057168 1.541957
vt -0.398750 1.504175
vt -0.365000 1.513918
vt -0.300981 1.318216
vt -0.286250 1.347904
vt -0.399019 1.378496
vt 0.189657 -0.399019
vt 0.217782 -0.413750
vt -0.365000 1.114952
vt -0.325490 1.092452
vt -0.335000 1.114952
vt 0.232218 -0.413750
vt 0.260343 -0.399019
vt -0.335000 1.448199
vt -0.301250 1.434420
vt -0.413750 1.471699
vt -0.365000 1.365505
vt 0.357724 -0.286250
vt -0.301250 1.375248
vt 0.232218 -0.286250
vt -0.300981 1.500927
vt -0.286250 1.471699
vt -0.365000 1.448199
vt -0.398750 1.434420
vt -0.300981 1.239657
vt -0.286250 1.267782
vt -0.413750 1.347904
vt -0.374510 1.092452
vt 0.297904 -0.413750
vt 0.268216 -0.399019
vt 0.064952 0.335000
vt 0.042452 0.374510
vt 0.064952 0.365000
vt 0.338492 -0.413750
vt 0.368180 -0.399019
vt 0.454175 -0.301250
vt -0.413750 1.388492
vt -0.398750 1.301976
vt 0.377377 1.225769
vt 0.399890 1.222857
vt 0.238198 -0.335000
vt 0.251976 -0.301250
vt 0.338492 -0.286250
vt -0.286250 1.388492
vt -0.300981 1.418180
vt 0.454175 -0.398750
vt -0.300981 1.148174
vt -0.286250 1.172819
vt -0.399019 1.239657
vt 0.328496 -0.399019
vt 0.357724 -0.413750
vt 0.421699 -0.413750
vt 0.450927 -0.399019
vt 0.492978 -0.301250
vt -0.399019 1.310343
vt 0.325248 -0.398750
vt 0.315505 -0.365000
vt -0.286250 1.069486
vt -0.301250 1.095466
vt 0.315505 -0.335000
vt 0.325248 -0.301250
vt 0.450927 -0.300981
vt -0.286250 1.282218
vt -0.300981 1.310343
vt 0.498021 -0.365000
vt -0.300981 1.050000
vt -0.413750 1.172819
vt 0.491957 1.107168
vt -0.399019 1.184763
vt 0.376355 -0.398750
vt 0.371312 -0.365000
vt 0.019486 0.413750
vt 0.045466 0.398750
vt 0.376355 -0.301250
vt 0.371312 -0.335000
vt 0.469443 1.110080
vt -0.300981 1.184763
vt -0.286250 1.160118
vt 0.019486 0.413750
vt 0.000000 0.399019
vt -0.413750 1.069486
vt -0.398750 1.095466
vt -0.399019 1.050000
vt -0.398750 1.004534
vt -0.413750 1.030514
vt -0.374510 1.007548
vt 0.045466 0.398750
vt -0.335000 0.985048
vt -0.365000 0.985048
vt -0.325490 1.007548
vt -0.301250 1.004534
vt -0.286250 1.030514
vt 0.019486 0.413750
vt 0.045466 0.301250
vt 0.000000 0.300981
vt 0.042452 0.325490
vt 0.045466 0.301250
vt 0.019486 0.286250
vt -0.045466 0.301250
vt -0.019486 0.286250
vt -0.045466 0.301250
vt -0.042452 0.325490
vt 0.122819 0.413750
vt -0.064952 0.335000
vt -0.042452 0.374510
vt -0.019486 0.413750
vt -0.045466 0.398750
vt -0.019486 0.413750
vt 0.019486 0.286250
vt -0.019486 0.286250
vt 0.398750 1.542978
vt 0.365000 1.548021
vt 0.189657 0.399019
vt -0.045466 0.398750
vt -0.019486 0.413750
vt 0.335000 1.548021
vt 0.301250 1.542978
vt 0.399019 1.378496
vt 0.413750 1.407724
vt 0.098174 0.300981
vt 0.122819 0.286250
vt 0.134763 0.300981
vt 0.110118 0.286250
vt 0.398750 1.504175
vt 0.365000 1.513918
vt 0.335000 1.421312
vt 0.268216 0.399019
vt 0.365000 1.421312
vt 0.110118 0.413750
vt 0.335000 1.513918
vt 0.301250 1.504175
vt 0.399019 1.318216
vt 0.413750 1.347904
vt 0.286250 1.407724
vt 0.217782 0.286250
vt 0.189657 0.300981
vt 0.335000 1.114952
vt 0.374510 1.092452
vt 0.365000 1.114952
vt 0.260343 0.300981
vt 0.232218 0.286250
vt 0.365000 1.448199
vt 0.398750 1.434420
vt 0.286250 1.471699
vt 0.301250 1.375248
vt 0.328496 0.399019
vt 0.398750 1.375248
vt 0.260343 0.399019
vt 0.413750 1.471699
vt 0.399019 1.500927
vt 0.301250 1.434420
vt 0.335000 1.448199
vt 0.413750 1.267782
vt 0.399019 1.239657
vt 0.286250 1.347904
vt 0.325490 1.092452
vt 0.268216 0.300981
vt 0.297904 0.286250
vt -0.400000 0.282500
vt -0.377500 0.317500
vt -0.400000 0.317500
vt 0.368180 0.300981
vt 0.338492 0.286250
vt 0.454175 0.398750
vt 0.300981 1.418180
vt 0.301250 1.301976
vt 0.238198 0.365000
vt 0.251976 0.398750
vt 0.338492 0.413750
vt 0.399019 1.418180
vt 0.413750 1.388492
vt 0.454175 0.301250
vt 0.399019 1.148174
vt 0.413750 1.172819
vt 0.300981 1.239657
vt 0.357724 0.286250
vt 0.328496 0.300981
vt 0.450927 0.300981
vt 0.421699 0.286250
vt 0.498021 0.365000
vt 0.300981 1.310343
vt 0.325248 0.301250
vt 0.315505 0.335000
vt 0.413750 1.069486
vt 0.398750 1.095466
vt 0.315505 0.365000
vt 0.325248 0.398750
vt 0.450927 0.399019
vt 0.413750 1.282218
vt 0.399019 1.310343
vt 0.492978 0.301250
vt 0.399019 1.050000
vt 0.286250 1.172819
vt -0.102500 0.282500
vt -0.125000 0.317500
vt -0.102500 0.317500
vt 0.300981 1.184763
vt 0.376355 0.301250
vt 0.371312 0.335000
vt 0.376355 0.398750
vt 0.371312 0.365000
vt 0.399019 1.184763
vt 0.413750 1.160118
vt 0.301250 1.095466
vt 0.300981 1.050000
vt 0.286250 1.069486
vt -0.125000 0.282500
vt 0.301250 1.004534
vt 0.286250 1.030514
vt 0.325490 1.007548
vt 0.365000 0.985048
vt 0.335000 0.985048
vt 0.377500 0.282500
vt 0.400000 0.317500
vt 0.377500 0.317500
vt 0.374510 1.007548
vt 0.413750 1.030514
vt 0.398750 1.004534
vt -0.102500 0.667500
vt -0.125000 0.632500
vt -0.102500 0.632500
vt -0.125000 0.667500
vt 0.377500 0.632500
vt 0.400000 0.667500
vt 0.377500 0.667500
vt -0.400000 0.632500
vt -0.377500 0.667500
vt -0.400000 0.667500
vt 0.202500 0.982500
vt 0.202500 0.960000
vt 0.202500 1.040000
vt 0.202500 1.017500
vt 0.202500 0.317500
vt 0.202500 0.282500
vt -0.377500 0.282500
vt 0.045466 0.022500
vt -0.045466 1.477500
vt -0.045466 0.022500
vt 0.045466 1.477500
vt 0.045466 0.022500
vt -0.045466 0.022500
vt 0.045466 1.451814
vt -0.045466 1.548186
vt -0.045466 1.451814
vt 0.045466 1.548186
vt 0.175769 -0.325490
vt 0.172857 1.449890
vt 0.060080 1.519443
vt 0.085023 1.426355
vt 0.098174 -0.300981
vt 0.057168 -0.374510
vt 0.297107 -0.374510
vt 0.260343 -0.300981
vt 0.240282 1.504175
vt 0.288468 1.420714
vt 0.209718 1.375248
vt 0.189657 -0.300981
vt 0.152893 -0.374510
vt -0.335000 1.365505
vt 0.398199 -0.325490
vt 0.384420 1.366275
vt 0.251976 1.370121
vt 0.320121 1.301976
vt 0.268216 -0.300981
vt 0.238198 -0.374510
vt 0.316275 1.434420
vt 0.320121 1.301976
vt -0.335000 1.288198
vt -0.365000 1.288198
vt -0.374510 1.202893
vt 0.454175 1.290282
vt 0.408708 1.211532
vt -0.374510 1.347107
vt 0.463918 -0.335000
vt 0.463918 -0.365000
vt 0.370714 1.338468
vt 0.408708 1.211532
vt -0.374510 1.107168
vt 0.492978 1.197914
vt -0.374510 1.225769
vt 0.498021 -0.335000
vt 0.498186 1.095466
vt 0.401814 1.004534
vt 0.498186 1.004534
vt 0.401814 1.095466
vt 0.134763 0.399019
vt 0.175769 0.325490
vt 0.098174 0.399019
vt 0.057168 0.325490
vt 0.147914 1.542978
vt 0.297107 0.325490
vt 0.152893 0.325490
vt 0.365000 1.365505
vt 0.335000 1.365505
vt 0.368180 0.399019
vt 0.398199 0.325490
vt 0.238198 0.325490
vt 0.365000 1.288198
vt 0.335000 1.288198
vt 0.325490 1.202893
vt 0.325490 1.347107
vt 0.463918 0.365000
vt 0.463918 0.335000
vt 0.325490 1.107168
vt 0.325490 1.225769
vt 0.498021 0.335000
vt -0.377500 0.632500
vt 0.202500 0.667500
vt 0.202500 0.632500
vt 0.019486 -0.286250
vt 0.019486 -0.286250
vt 0.064952 -0.365000
vt -0.019486 -0.286250
vt -0.019486 -0.286250
vt -0.398750 1.426355
vt -0.301250 1.426355
vt 0.134763 -0.300981
vt -0.413750 1.407724
vt -0.399019 1.500927
vt -0.398750 1.375248
vt 0.328496 -0.300981
vt -0.399019 1.318216
vt -0.399019 1.418180
vt 0.368180 -0.300981
vt -0.413750 1.267782
vt -0.413750 1.282218
vt 0.421699 -0.286250
vt 0.492978 -0.398750
vt -0.399019 1.148174
vt -0.413750 1.160118
vt 0.019486 0.286250
vt -0.019486 0.286250
vt -0.064952 0.365000
vt 0.019486 0.286250
vt -0.019486 0.286250
vt 0.217782 0.413750
vt 0.301250 1.426355
vt 0.297904 0.413750
vt 0.398750 1.426355
vt 0.300981 1.378496
vt 0.300981 1.500927
vt 0.357724 0.413750
vt 0.232218 0.413750
vt 0.300981 1.318216
vt 0.286250 1.388492
vt 0.286250 1.267782
vt 0.492978 0.398750
vt 0.286250 1.282218
vt 0.421699 0.413750
vt 0.300981 1.148174
vt 0.286250 1.160118
vt 0.400000 0.282500
vt 0.400000 0.632500
vt 0.045466 1.477500
vt -0.045466 1.477500
vt 0.175769 -0.374510
vt 0.057168 -0.325490
vt 0.297107 -0.325490
vt 0.161532 1.458709
vt 0.152893 -0.325490
vt 0.398199 -0.374510
vt 0.238198 -0.325490
vt -0.325490 1.202893
vt 0.325248 1.259718
vt -0.325490 1.347107
vt -0.325490 1.107168
vt 0.376355 1.135023
vt -0.325490 1.225769
vt 0.175769 0.374510
vt 0.057168 0.374510
vt 0.297107 0.374510
vt 0.152893 0.374510
vt 0.398199 0.374510
vt 0.238198 0.374510
vt 0.374510 1.202893
vt 0.374510 1.347107
vt 0.374510 1.107168
vt 0.374510 1.225769
s 1
f 37/1/37 38/2/38 10/3/10
f 35/2/35 33/1/33 6/3/6
f 211/4/97 224/5/114 225/6/115
f 207/7/98 227/8/116 228/9/117
f 212/10/107 230/11/118 231/12/119
f 206/13/106 233/14/120 234/15/121
f 203/16/108 236/17/122 237/18/123
f 200/19/105 239/20/124 240/21/125
f 197/4/90 242/22/126 243/23/127
f 195/7/87 245/24/128 246/25/129
f 194/16/84 248/18/130 249/26/131
f 191/19/83 251/21/132 252/20/133
f 190/10/81 254/27/134 255/11/135
f 188/13/80 257/15/136 258/14/137
f 196/28/97 260/29/114 261/30/115
f 210/31/98 263/32/116 264/33/117
f 204/34/107 266/35/118 267/36/119
f 216/37/106 269/38/120 270/39/121
f 205/40/108 272/41/122 273/42/123
f 215/43/105 275/44/124 276/45/125
f 185/28/90 278/46/126 279/47/127
f 183/31/87 281/48/128 282/49/129
f 182/40/84 284/42/130 285/41/131
f 179/43/83 287/45/132 288/44/133
f 178/34/81 290/36/134 291/35/135
f 176/37/80 293/39/136 294/38/137
f 184/50/91 296/51/139 297/52/140
f 202/53/92 299/54/142 300/55/143
f 198/56/103 302/57/144 303/58/145
f 201/59/102 305/60/146 306/61/147
f 199/62/104 308/63/148 309/64/149
f 189/65/101 311/66/150 312/67/151
f 173/68/109 314/52/152 315/51/153
f 171/69/75 317/70/154 318/54/155
f 170/71/72 320/72/156 321/73/157
f 167/74/71 323/75/158 324/76/159
f 166/77/69 326/78/160 327/79/161
f 164/80/68 329/81/162 330/82/163
f 172/83/79 332/84/165 333/85/166
f 214/86/82 335/87/168 336/88/169
f 186/89/99 338/90/170 339/91/171
f 213/92/96 341/93/172 342/94/173
f 187/95/100 344/96/174 345/97/175
f 177/98/95 347/99/176 348/100/177
f 162/83/66 350/85/178 351/84/179
f 159/86/63 353/88/180 354/101/181
f 156/102/60 356/103/182 357/104/183
f 155/105/59 359/106/184 360/107/185
f 153/108/57 362/109/186 363/110/187
f 152/111/56 365/112/188 366/113/189
f 163/114/67 368/115/191 369/116/192
f 165/117/70 371/118/194 372/119/195
f 180/120/93 374/121/196 375/122/197
f 193/123/89 377/124/198 378/125/199
f 181/126/94 380/127/200 381/128/201
f 192/129/88 383/130/202 384/131/203
f 150/132/54 386/116/204 387/115/205
f 147/133/51 389/119/206 390/118/207
f 144/134/46 392/135/208 393/136/209
f 143/137/45 395/138/210 396/139/211
f 141/140/43 398/141/212 399/142/213
f 140/143/42 401/144/214 402/145/215
f 151/146/55 404/147/217 405/148/218
f 154/149/58 407/150/220 408/151/221
f 208/152/85 410/153/222 411/154/223
f 175/155/77 413/156/224 414/157/225
f 209/158/86 416/159/226 417/160/227
f 174/161/76 419/162/228 420/163/229
f 138/146/40 422/164/230 423/147/231
f 135/165/36 425/151/232 426/150/233
f 132/166/32 428/167/234 429/168/235
f 131/169/31 431/170/236 432/171/237
f 129/172/29 434/173/238 435/174/239
f 128/175/28 437/176/240 438/177/241
f 139/178/41 440/179/243 441/180/244
f 142/181/44 443/182/246 444/183/247
f 168/184/73 446/185/248 447/186/249
f 161/187/65 449/188/250 450/189/251
f 169/190/74 452/191/252 453/192/253
f 160/193/64 455/194/254 456/195/255
f 126/178/26 458/180/256 459/179/257
f 123/181/21 461/183/258 462/182/259
f 120/196/17 464/197/260 465/198/261
f 119/199/16 467/200/262 468/201/263
f 117/202/12 470/203/264 471/204/265
f 116/205/11 473/206/266 474/207/267
f 127/208/27 476/209/269 477/210/270
f 130/211/30 479/212/271 480/213/272
f 157/214/61 482/215/273 483/216/274
f 149/217/53 485/218/275 486/219/276
f 158/220/62 488/221/277 489/222/278
f 148/223/52 491/224/279 492/225/280
f 114/208/9 494/210/281 495/209/282
f 111/211/7 497/213/283 498/212/284
f 108/220/5 500/222/285 501/221/286
f 107/223/3 503/225/287 504/224/288
f 105/214/2 506/216/289 507/215/290
f 104/217/1 509/219/291 510/218/292
f 115/4/97 512/226/114 513/6/115
f 118/7/98 515/227/116 516/9/117
f 145/228/107 518/229/118 519/230/119
f 137/231/106 521/232/120 522/233/121
f 146/234/108 524/235/122 525/236/123
f 136/237/105 527/238/124 528/239/125
f 102/4/90 530/240/126 531/23/127
f 99/7/87 533/241/128 534/25/129
f 96/234/84 536/236/130 537/242/131
f 95/237/83 539/239/132 540/238/133
f 93/228/81 542/243/134 543/229/135
f 92/231/80 545/233/136 546/232/137
f 103/28/97 548/244/114 549/30/115
f 106/31/98 551/245/116 552/33/117
f 133/246/107 554/247/118 555/248/119
f 125/249/106 557/250/120 558/251/121
f 134/252/108 560/253/122 561/254/123
f 124/255/105 563/256/124 564/257/125
f 90/28/90 566/258/126 567/47/127
f 87/31/87 569/259/128 570/49/129
f 84/252/84 572/254/130 573/253/131
f 83/255/83 575/257/132 576/256/133
f 81/246/81 578/248/134 579/247/135
f 80/249/80 581/251/136 582/250/137
f 91/50/91 584/260/139 585/52/140
f 94/53/92 587/261/142 588/55/143
f 121/262/103 590/263/144 591/264/145
f 113/265/102 593/266/146 594/267/147
f 122/268/104 596/269/148 597/270/149
f 112/271/101 599/272/150 600/273/151
f 78/68/78 602/52/152 603/51/153
f 75/69/75 605/55/154 606/54/155
f 72/274/72 608/275/156 609/276/157
f 71/277/71 611/278/158 612/279/159
f 69/280/69 614/281/160 615/282/161
f 68/283/68 617/284/162 618/285/163
f 79/83/79 620/84/165 621/85/166
f 82/86/82 623/87/168 624/88/169
f 109/286/99 626/287/170 627/288/171
f 101/289/96 629/290/172 630/291/173
f 110/292/100 632/293/174 633/294/175
f 100/295/95 635/296/176 636/297/177
f 66/83/66 638/85/178 639/84/179
f 63/86/63 641/298/180 642/87/181
f 60/299/60 644/300/182 645/301/183
f 59/302/59 647/303/184 648/304/185
f 57/305/57 650/306/186 651/307/187
f 56/308/56 653/309/188 654/310/189
f 67/114/67 656/115/191 657/116/192
f 70/117/70 659/118/194 660/311/195
f 97/312/93 662/313/196 663/314/197
f 89/315/89 665/316/198 666/317/199
f 98/318/94 668/319/200 669/320/201
f 88/321/88 671/322/202 672/323/203
f 54/132/54 674/116/204 675/115/205
f 51/133/51 677/119/206 678/118/207
f 46/324/46 680/325/208 681/326/209
f 45/327/45 683/328/210 684/329/211
f 43/330/43 686/331/212 687/332/213
f 42/333/42 689/334/214 690/335/215
f 55/146/55 692/147/217 693/148/218
f 58/149/58 695/150/220 696/151/221
f 85/336/85 698/337/222 699/338/223
f 77/339/77 701/340/224 702/341/225
f 86/342/86 704/343/226 705/344/227
f 76/345/76 707/346/228 708/347/229
f 40/146/40 710/164/230 711/147/231
f 36/165/36 713/151/232 714/150/233
f 32/348/32 716/349/234 717/350/235
f 31/351/31 719/352/236 720/353/237
f 29/354/29 722/355/238 723/356/239
f 28/357/28 725/358/240 726/359/241
f 41/178/41 728/179/243 729/180/244
f 44/181/44 731/182/246 732/183/247
f 73/360/73 734/361/248 735/362/249
f 65/363/65 737/364/250 738/365/251
f 74/366/74 740/367/252 741/368/253
f 64/369/64 743/370/254 744/371/255
f 26/178/26 746/180/256 747/179/257
f 21/181/21 749/183/258 750/182/259
f 17/372/17 752/373/260 753/374/261
f 16/375/16 755/376/262 756/377/263
f 12/378/12 758/379/264 759/380/265
f 11/381/11 761/382/266 762/383/267
f 27/208/27 764/209/269 765/210/270
f 30/211/30 767/212/271 768/213/272
f 61/384/61 770/385/273 771/386/274
f 53/387/53 773/388/275 774/389/276
f 62/390/62 776/391/277 777/392/278
f 52/393/52 779/394/279 780/395/280
f 9/208/9 782/210/281 783/209/282
f 7/211/7 785/213/283 786/212/284
f 5/390/5 788/392/285 789/391/286
f 3/393/3 791/395/287 792/394/288
f 2/384/2 794/386/289 795/385/290
f 1/387/1 797/389/291 798/388/292
f 19/396/19 23/397/23 24/398/24
f 15/396/15 25/398/25 22/397/22
f 34/399/34 48/400/48 49/401/49
f 39/399/39 50/401/50 47/400/47
f 20/402/20 18/403/18 4/404/4
f 14/402/14 8/404/8 13/403/13
f 866/2/35 869/1/33 867/3/6
f 870/1/37 872/2/38 871/3/10
f 865/396/19 868/397/23 876/398/24
f 873/396/15 875/398/25 874/397/22
f 883/399/34 884/400/48 888/401/49
f 885/399/39 887/401/50 886/400/47
f 877/402/20 878/403/18 882/404/4
f 879/402/14 881/404/8 880/403/13
f 890/405/35 893/406/33 891/407/6
f 894/408/37 896/409/38 895/410/10
f 889/405/19 892/407/23 900/406/24
f 897/409/15 899/408/25 898/410/22
f 907/411/34 908/412/48 912/413/49
f 909/414/39 911/415/50 910/416/47
f 901/417/20 902/418/18 906/419/4
f 903/420/14 905/421/8 904/422/13
f 269/38/120 215/43/105 276/45/125
f 335/423/168 213/92/96 342/94/173
f 230/424/118 211/425/97 225/426/115
f 270/424/121 210/425/98 216/427/106
f 416/159/226 208/152/85 411/154/223
f 234/428/121 207/425/98 206/427/106
f 228/9/117 225/6/115 224/5/114
f 231/12/119 234/15/121 233/14/120
f 272/41/122 204/34/107 267/36/119
f 231/429/119 203/430/108 212/427/107
f 299/431/142 201/59/102 306/61/147
f 233/14/120 200/19/105 240/21/125
f 237/18/123 240/21/125 239/20/124
f 308/63/148 198/56/103 303/58/145
f 242/432/126 203/430/108 237/433/123
f 266/424/118 196/425/97 261/434/115
f 246/435/129 200/430/105 195/436/87
f 243/23/127 246/25/129 245/24/128
f 267/36/119 270/39/121 269/38/120
f 243/437/127 194/438/84 197/436/90
f 384/131/203 193/123/89 192/129/88
f 245/439/128 191/438/83 252/440/133
f 249/26/131 252/20/133 251/21/132
f 264/33/117 261/30/115 260/29/114
f 254/441/134 194/438/84 249/442/131
f 305/60/146 189/65/101 312/67/151
f 251/21/132 188/13/80 258/14/137
f 255/11/135 258/14/137 257/15/136
f 255/443/135 211/425/97 190/444/81
f 257/445/136 207/425/98 228/446/117
f 273/42/123 276/45/125 275/44/124
f 344/96/174 186/89/99 339/91/171
f 278/432/126 205/430/108 273/447/123
f 297/52/140 198/448/103 184/50/91
f 282/449/129 215/430/105 183/436/87
f 279/47/127 282/49/129 281/48/128
f 303/58/145 306/450/147 305/451/146
f 279/452/127 182/438/84 185/436/90
f 380/127/200 180/120/93 375/122/197
f 281/439/128 179/438/83 288/453/133
f 285/41/131 288/44/133 287/45/132
f 296/51/139 299/54/142 297/52/140
f 290/36/134 182/40/84 285/41/131
f 341/93/172 177/98/95 348/100/177
f 287/45/132 176/37/80 294/38/137
f 291/35/135 294/38/137 293/39/136
f 291/445/135 196/425/97 178/444/81
f 293/445/136 210/425/98 264/454/117
f 311/455/150 308/63/148 312/456/151
f 413/156/224 174/161/76 420/163/229
f 314/52/152 199/457/104 309/458/149
f 333/459/166 186/89/99 172/460/79
f 311/66/150 171/461/75 318/462/155
f 315/51/153 318/54/155 317/70/154
f 341/463/172 338/90/170 342/464/173
f 315/465/153 170/71/72 173/466/109
f 452/191/252 168/184/73 447/186/249
f 317/70/154 167/467/71 324/468/159
f 321/469/157 324/76/159 323/75/158
f 336/88/169 333/85/166 332/84/165
f 326/78/160 170/71/72 321/73/157
f 371/470/194 193/123/89 378/125/199
f 323/75/158 164/80/68 330/82/163
f 329/81/162 326/471/160 330/82/163
f 296/472/139 166/77/69 327/79/161
f 300/55/143 164/473/68 202/53/92
f 347/474/176 344/96/174 348/475/177
f 374/121/196 163/476/67 369/477/192
f 345/97/175 162/478/66 187/95/100
f 449/188/250 160/193/64 456/195/255
f 347/99/176 159/479/63 354/480/181
f 353/88/180 350/85/178 354/101/181
f 488/481/277 157/482/61 483/483/274
f 351/484/179 156/102/60 162/485/66
f 377/486/198 374/121/196 378/487/199
f 353/488/180 155/105/59 360/107/185
f 357/489/183 360/107/185 359/106/184
f 407/490/220 175/155/77 414/157/225
f 362/109/186 156/102/60 357/104/183
f 372/119/195 369/116/192 368/115/191
f 359/106/184 152/111/56 366/113/189
f 363/491/187 366/113/189 365/112/188
f 332/492/165 153/108/57 363/110/187
f 365/112/188 214/493/82 336/494/169
f 381/128/201 384/495/203 383/496/202
f 410/153/222 151/497/55 405/498/218
f 386/499/204 181/126/94 381/128/201
f 485/483/275 148/500/52 492/481/280
f 390/501/207 192/129/88 147/502/51
f 389/119/206 386/116/204 390/118/207
f 524/503/122 145/504/107 519/505/119
f 387/506/205 144/134/46 150/507/54
f 413/156/224 410/508/222 414/157/225
f 389/509/206 143/137/45 396/139/211
f 395/138/210 392/510/208 396/139/211
f 443/182/246 161/511/65 450/512/251
f 393/136/209 141/140/43 144/134/46
f 404/147/217 407/150/220 405/148/218
f 395/138/210 140/143/42 402/145/215
f 399/142/213 402/513/215 401/514/214
f 368/515/191 141/140/43 399/142/213
f 372/516/195 140/143/42 165/517/70
f 417/518/227 420/163/229 419/162/228
f 446/185/248 139/519/41 441/520/244
f 417/160/227 138/521/40 209/158/86
f 521/232/120 136/237/105 528/239/125
f 419/162/228 135/522/36 426/523/233
f 423/147/231 426/150/233 425/151/232
f 560/253/122 133/246/107 555/248/119
f 423/524/231 132/166/32 138/525/40
f 449/188/250 446/526/248 450/189/251
f 432/171/237 135/527/36 131/169/31
f 429/168/235 432/528/237 431/529/236
f 479/530/271 149/482/53 486/531/276
f 429/168/235 129/172/29 132/166/32
f 440/179/243 443/182/246 441/180/244
f 431/170/236 128/175/28 438/177/241
f 435/174/239 438/532/241 437/533/240
f 435/174/239 151/534/55 129/172/29
f 408/535/221 128/175/28 154/536/58
f 455/194/254 452/537/252 456/195/255
f 482/531/273 127/538/27 477/530/270
f 458/539/256 169/190/74 453/192/253
f 557/250/120 124/255/105 564/257/125
f 462/182/259 160/511/64 123/181/21
f 459/179/257 462/182/259 461/183/258
f 596/269/148 121/262/103 591/264/145
f 459/179/257 120/540/17 126/178/26
f 483/216/274 486/219/276 485/218/275
f 468/201/263 123/541/21 119/199/16
f 465/198/261 468/542/263 467/543/262
f 515/544/116 137/504/106 522/545/121
f 470/203/264 120/196/17 465/198/261
f 480/213/272 477/210/270 476/209/269
f 467/200/262 116/205/11 474/207/267
f 473/546/266 470/203/264 474/547/267
f 440/179/243 117/540/12 471/548/265
f 473/206/266 142/549/44 444/550/247
f 489/222/278 492/225/280 491/224/279
f 513/551/115 145/504/107 115/552/97
f 494/553/281 158/500/62 489/554/278
f 593/266/146 112/271/101 600/273/151
f 491/554/279 111/555/7 498/553/284
f 495/209/282 498/212/284 497/213/283
f 632/293/174 109/286/99 627/288/171
f 500/556/285 114/555/9 495/557/282
f 519/230/119 522/233/121 521/232/120
f 504/556/288 111/555/7 107/558/3
f 501/221/286 504/224/288 503/225/287
f 551/544/116 125/504/106 558/559/121
f 506/560/289 108/558/5 501/561/286
f 516/9/117 513/6/115 512/226/114
f 503/561/287 104/562/1 510/560/292
f 507/215/290 510/218/292 509/219/291
f 507/563/290 127/538/27 105/562/2
f 509/563/291 130/538/30 480/564/272
f 525/236/123 528/239/125 527/238/124
f 549/565/115 133/504/107 103/552/97
f 525/566/123 102/567/90 146/568/108
f 629/290/172 100/295/95 636/297/177
f 527/569/124 99/567/87 534/570/129
f 531/23/127 534/25/129 533/241/128
f 668/319/200 97/312/93 663/314/197
f 536/571/130 102/567/90 531/572/127
f 555/248/119 558/251/121 557/250/120
f 540/573/133 99/567/87 95/574/83
f 537/242/131 540/238/133 539/239/132
f 587/575/142 113/265/102 594/267/147
f 537/576/131 93/577/81 96/574/84
f 552/33/117 549/30/115 548/244/114
f 539/239/132 92/231/80 546/232/137
f 543/229/135 546/232/137 545/233/136
f 512/578/114 93/577/81 543/579/135
f 516/580/117 92/577/80 118/552/98
f 561/254/123 564/257/125 563/256/124
f 585/52/140 121/448/103 91/50/91
f 561/569/123 90/567/90 134/568/108
f 672/323/203 89/315/89 88/321/88
f 563/569/124 87/567/87 570/581/129
f 567/47/127 570/49/129 569/259/128
f 704/343/226 85/336/85 699/338/223
f 572/571/130 90/567/90 567/582/127
f 591/264/145 594/583/147 593/584/146
f 576/571/133 87/567/87 83/574/83
f 573/253/131 576/256/133 575/257/132
f 630/291/173 82/585/82 101/289/96
f 578/248/134 84/252/84 573/253/131
f 584/260/139 587/261/142 585/52/140
f 575/257/132 80/249/80 582/250/137
f 579/247/135 582/250/137 581/251/136
f 548/578/114 81/577/81 579/586/135
f 552/587/117 80/577/80 106/552/98
f 597/270/149 600/588/151 599/589/150
f 626/287/170 79/590/79 621/591/166
f 602/52/152 122/457/104 597/458/149
f 701/340/224 76/345/76 708/347/229
f 599/272/150 75/592/75 606/593/155
f 603/51/153 606/54/155 605/55/154
f 740/367/252 73/360/73 735/362/249
f 608/275/156 78/594/78 603/595/153
f 627/288/171 630/596/173 629/597/172
f 605/55/154 71/467/71 612/468/159
f 609/598/157 612/279/159 611/278/158
f 666/317/199 70/599/70 89/315/89
f 614/281/160 72/274/72 609/276/157
f 624/88/169 621/85/166 620/84/165
f 611/278/158 68/283/68 618/285/163
f 617/284/162 614/600/160 618/285/163
f 584/601/139 69/280/69 615/282/161
f 588/55/143 68/473/68 94/53/92
f 633/294/175 636/602/177 635/603/176
f 662/313/196 67/604/67 657/605/192
f 638/606/178 110/292/100 633/294/175
f 737/364/250 64/369/64 744/371/255
f 642/607/181 100/295/95 63/608/63
f 641/298/180 638/85/178 642/87/181
f 776/609/277 61/610/61 771/611/274
f 644/300/182 66/612/66 639/613/179
f 665/614/198 662/313/196 666/615/199
f 641/616/180 59/302/59 648/304/185
f 647/303/184 644/617/182 648/304/185
f 702/341/225 58/618/58 77/339/77
f 650/306/186 60/299/60 645/301/183
f 660/311/195 657/116/192 656/115/191
f 647/303/184 56/308/56 654/310/189
f 651/619/187 654/310/189 653/309/188
f 651/307/187 79/620/79 57/305/57
f 624/621/169 56/308/56 82/622/82
f 671/623/202 668/319/200 672/624/203
f 693/625/218 85/336/85 55/626/55
f 674/627/204 98/318/94 669/320/201
f 773/611/275 52/628/52 780/609/280
f 671/322/202 51/629/51 678/630/207
f 677/119/206 674/116/204 678/118/207
f 49/631/49 47/632/47 50/633/50
f 680/325/208 54/634/54 675/635/205
f 701/340/224 698/636/222 702/341/225
f 684/329/211 51/637/51 45/327/45
f 683/328/210 680/638/208 684/329/211
f 731/182/246 65/511/65 738/512/251
f 681/326/209 43/330/43 46/324/46
f 692/147/217 695/150/220 693/148/218
f 683/328/210 42/333/42 690/335/215
f 687/332/213 690/639/215 689/640/214
f 656/641/191 43/330/43 687/332/213
f 689/334/214 70/642/70 660/643/195
f 705/644/227 708/347/229 707/346/228
f 734/361/248 41/645/41 729/646/244
f 705/344/227 40/647/40 86/342/86
f 38/2/38 50/401/50 39/399/39
f 714/648/233 76/345/76 36/649/36
f 711/147/231 714/150/233 713/151/232
f 34/399/34 33/1/33 35/2/35
f 716/349/234 40/650/40 711/651/231
f 735/652/249 738/365/251 737/364/250
f 720/353/237 36/653/36 31/351/31
f 717/350/235 720/654/237 719/655/236
f 767/656/271 53/610/53 774/657/276
f 717/350/235 29/354/29 32/348/32
f 728/179/243 731/182/246 729/180/244
f 719/352/236 28/357/28 726/359/241
f 723/356/239 726/658/241 725/659/240
f 723/356/239 55/660/55 29/354/29
f 696/661/221 28/357/28 58/662/58
f 741/663/253 744/371/255 743/370/254
f 770/657/273 27/664/27 765/656/270
f 746/665/256 74/366/74 741/368/253
f 24/666/24 22/667/22 25/668/25
f 750/182/259 64/511/64 21/181/21
f 747/179/257 750/182/259 749/183/258
f 19/396/19 18/403/18 20/402/20
f 747/179/257 17/540/17 26/178/26
f 771/386/274 774/389/276 773/388/275
f 756/377/263 21/669/21 16/375/16
f 753/374/261 756/670/263 755/671/262
f 14/402/14 25/398/25 15/396/15
f 758/379/264 17/372/17 753/374/261
f 768/213/272 765/210/270 764/209/269
f 755/376/262 11/381/11 762/383/267
f 761/672/266 758/379/264 762/673/267
f 759/548/265 41/178/41 12/540/12
f 761/382/266 44/674/44 732/675/247
f 777/392/278 780/395/280 779/394/279
f 15/396/15 10/3/10 38/2/38
f 777/676/278 9/677/9 62/628/62
f 39/399/39 8/404/8 14/402/14
f 786/678/284 52/628/52 7/677/7
f 783/209/282 786/212/284 785/213/283
f 37/668/37 6/679/6 33/666/33
f 788/680/285 9/677/9 783/681/282
f 20/402/20 48/400/48 34/399/34
f 792/680/288 7/677/7 3/682/3
f 789/391/286 792/394/288 791/395/287
f 35/2/35 23/397/23 19/396/19
f 794/683/289 5/682/5 789/684/286
f 4/685/4 13/686/13 8/687/8
f 791/684/287 1/688/1 798/683/292
f 795/385/290 798/388/292 797/389/291
f 764/689/269 2/688/2 795/690/290
f 797/690/291 30/664/30 768/689/272
f 866/2/35 868/397/23 865/396/19
f 870/691/37 867/692/6 869/693/33
f 873/396/15 871/3/10 872/2/38
f 876/693/24 874/694/22 875/691/25
f 865/396/19 878/403/18 877/402/20
f 879/402/14 875/398/25 873/396/15
f 882/695/4 880/696/13 881/697/8
f 877/402/20 884/400/48 883/399/34
f 885/399/39 881/404/8 879/402/14
f 888/698/49 886/699/47 887/700/50
f 883/399/34 869/1/33 866/2/35
f 872/2/38 887/401/50 885/399/39
f 890/411/35 892/419/23 889/417/19
f 894/408/37 891/407/6 893/406/33
f 897/420/15 895/416/10 896/414/38
f 900/406/24 898/410/22 899/408/25
f 889/405/19 902/701/18 901/702/20
f 903/703/14 899/408/25 897/409/15
f 906/419/4 904/422/13 905/421/8
f 901/417/20 908/412/48 907/411/34
f 909/414/39 905/421/8 903/420/14
f 912/413/49 910/416/47 911/415/50
f 907/702/34 893/406/33 890/405/35
f 896/409/38 911/704/50 909/703/39
f 809/705/110 221/666/110 807/706/110
f 219/632/112 800/685/112 222/707/112
f 802/396/111 808/399/111 814/402/111
f 811/402/113 220/2/113 799/396/113
f 229/427/113 241/436/113 253/444/113
f 227/8/116 230/708/118 225/6/115
f 257/709/136 224/5/114 255/710/135
f 226/425/111 250/438/111 238/430/111
f 233/14/120 236/17/122 231/12/119
f 239/711/124 242/22/126 237/712/123
f 245/24/128 248/713/130 243/23/127
f 251/21/132 254/27/134 249/26/131
f 283/438/113 259/425/113 271/430/113
f 263/32/116 266/714/118 261/30/115
f 293/715/136 260/29/114 291/716/135
f 268/427/111 292/444/111 280/436/111
f 269/38/120 272/41/122 267/36/119
f 275/717/124 278/46/126 273/714/123
f 281/48/128 284/716/130 279/47/127
f 287/45/132 290/36/134 285/41/131
f 313/466/138 325/77/138 301/718/138
f 299/54/142 302/719/144 297/52/140
f 329/720/162 296/51/139 327/721/161
f 298/722/141 322/723/141 310/65/141
f 305/451/146 308/63/148 303/58/145
f 309/458/149 318/54/155 314/52/152
f 315/51/153 324/468/159 320/721/156
f 323/75/158 326/471/160 321/469/157
f 343/724/164 355/102/164 331/725/164
f 333/85/166 342/726/173 338/727/170
f 363/728/187 336/88/169 332/84/165
f 346/98/167 334/729/167 358/730/167
f 341/463/172 344/96/174 339/91/171
f 347/726/176 350/85/178 345/727/175
f 353/88/180 356/728/182 351/84/179
f 359/106/184 362/731/186 357/489/183
f 385/507/190 397/140/190 373/732/190
f 371/118/194 374/733/196 369/116/192
f 401/734/214 368/115/191 399/735/213
f 382/129/193 370/736/193 394/737/193
f 377/486/198 380/127/200 375/122/197
f 383/738/202 386/116/204 381/733/201
f 387/115/205 396/734/211 392/739/208
f 395/138/210 398/740/212 393/741/209
f 427/742/216 403/497/216 415/158/216
f 407/150/220 410/743/222 405/148/218
f 435/744/239 408/151/221 404/147/217
f 418/745/219 406/536/219 430/169/219
f 411/746/223 420/163/229 416/747/226
f 419/748/228 422/164/230 417/743/227
f 425/151/232 428/749/234 423/147/231
f 429/168/235 438/532/241 434/173/238
f 463/750/242 439/519/242 451/190/242
f 441/180/244 450/512/251 446/751/248
f 471/548/265 444/183/247 440/179/243
f 454/752/245 442/549/245 466/199/245
f 449/188/250 452/537/252 447/753/249
f 455/512/254 458/180/256 453/751/253
f 461/183/258 464/548/260 459/179/257
f 467/543/262 470/203/264 465/198/261
f 499/558/268 475/538/268 487/500/268
f 479/212/271 482/754/273 477/210/270
f 509/755/291 476/209/269 507/756/290
f 490/500/112 478/538/112 502/558/112
f 485/218/275 488/221/277 483/216/274
f 491/757/279 494/210/281 489/754/278
f 497/213/283 500/756/285 495/209/282
f 503/225/287 506/216/289 501/221/286
f 535/574/113 511/552/113 523/568/113
f 515/227/116 518/708/118 513/6/115
f 545/709/136 512/226/114 543/710/135
f 526/568/111 514/552/111 538/574/111
f 521/232/120 524/235/122 519/230/119
f 527/711/124 530/240/126 525/712/123
f 533/241/128 536/713/130 531/23/127
f 539/239/132 542/243/134 537/242/131
f 571/574/113 547/552/113 559/568/113
f 551/245/116 554/714/118 549/30/115
f 581/715/136 548/244/114 579/716/135
f 562/568/111 550/552/111 574/574/111
f 557/250/120 560/253/122 555/248/119
f 563/717/124 566/258/126 561/714/123
f 569/259/128 572/716/130 567/47/127
f 575/257/132 578/248/134 573/253/131
f 607/274/138 583/758/138 595/759/138
f 587/261/142 590/719/144 585/52/140
f 617/720/162 584/260/139 615/721/161
f 598/271/141 586/760/141 610/761/141
f 593/584/146 596/269/148 591/264/145
f 599/762/150 602/52/152 597/458/149
f 605/55/154 608/721/156 603/51/153
f 611/278/158 614/600/160 609/598/157
f 643/299/164 619/620/164 631/763/164
f 623/87/168 626/727/170 621/85/166
f 651/728/187 624/88/169 620/84/165
f 634/295/167 622/585/167 646/764/167
f 629/597/172 632/293/174 627/288/171
f 635/726/176 638/85/178 633/727/175
f 641/298/180 644/728/182 639/84/179
f 647/303/184 650/765/186 645/766/183
f 679/324/190 655/767/190 667/768/190
f 659/118/194 662/733/196 657/116/192
f 689/734/214 656/115/191 687/735/213
f 670/321/193 658/599/193 682/769/193
f 665/614/198 668/319/200 663/314/197
f 671/738/202 674/116/204 669/733/201
f 675/115/205 684/734/211 680/739/208
f 683/328/210 686/770/212 681/771/209
f 715/772/216 691/626/216 703/342/216
f 695/150/220 698/743/222 693/148/218
f 723/744/239 696/151/221 692/147/217
f 706/773/219 694/662/219 718/351/219
f 699/774/223 708/347/229 704/775/226
f 707/748/228 710/164/230 705/743/227
f 713/151/232 716/749/234 711/147/231
f 717/350/235 726/658/241 722/355/238
f 751/776/242 727/645/242 739/366/242
f 729/180/244 738/512/251 734/751/248
f 759/548/265 732/183/247 728/179/243
f 742/777/245 730/674/245 754/375/245
f 737/364/250 740/778/252 735/652/249
f 743/512/254 746/180/256 741/751/253
f 749/183/258 752/548/260 747/179/257
f 755/671/262 758/379/264 753/374/261
f 787/682/268 763/664/268 775/628/268
f 767/212/271 770/754/273 765/210/270
f 797/755/291 764/209/269 795/756/290
f 778/628/112 766/664/112 790/682/112
f 773/388/275 776/391/277 771/386/274
f 779/757/279 782/210/281 777/754/278
f 785/213/283 788/756/285 783/209/282
f 791/395/287 794/386/289 789/391/286
f 803/668/293 812/706/293 801/666/293
f 815/687/268 806/707/268 813/685/268
f 835/402/113 817/2/113 823/396/113
f 822/699/112 824/695/112 819/779/112
f 833/780/110 818/693/110 831/781/110
f 826/396/111 832/399/111 838/402/111
f 827/691/293 836/781/293 825/693/293
f 839/697/268 830/779/268 837/695/268
f 859/402/113 841/2/113 847/396/113
f 846/416/112 848/419/112 843/412/112
f 857/704/110 842/406/110 855/701/110
f 850/396/111 856/399/111 862/402/111
f 851/408/293 860/701/293 849/406/293
f 863/421/268 854/412/268 861/419/268
f 269/38/120 216/37/106 215/43/105
f 335/423/168 214/729/82 213/92/96
f 230/424/118 212/427/107 211/425/97
f 270/424/121 263/782/116 210/425/98
f 416/159/226 209/158/86 208/152/85
f 234/428/121 227/783/116 207/425/98
f 228/9/117 227/8/116 225/6/115
f 231/12/119 230/11/118 234/15/121
f 272/41/122 205/40/108 204/34/107
f 231/429/119 236/784/122 203/430/108
f 299/431/142 202/722/92 201/59/102
f 233/14/120 206/13/106 200/19/105
f 237/18/123 236/17/122 240/21/125
f 308/63/148 199/62/104 198/56/103
f 242/432/126 197/436/90 203/430/108
f 266/424/118 204/427/107 196/425/97
f 246/435/129 239/447/124 200/430/105
f 243/23/127 242/22/126 246/25/129
f 267/36/119 266/35/118 270/39/121
f 243/437/127 248/453/130 194/438/84
f 384/131/203 377/124/198 193/123/89
f 245/439/128 195/436/87 191/438/83
f 249/26/131 248/18/130 252/20/133
f 264/33/117 263/32/116 261/30/115
f 254/441/134 190/444/81 194/438/84
f 305/60/146 201/59/102 189/65/101
f 251/21/132 191/19/83 188/13/80
f 255/11/135 254/27/134 258/14/137
f 255/443/135 224/785/114 211/425/97
f 257/445/136 188/444/80 207/425/98
f 273/42/123 272/41/122 276/45/125
f 344/96/174 187/95/100 186/89/99
f 278/432/126 185/436/90 205/430/108
f 297/52/140 302/719/144 198/448/103
f 282/449/129 275/447/124 215/430/105
f 279/47/127 278/46/126 282/49/129
f 303/58/145 302/57/144 306/450/147
f 279/452/127 284/453/130 182/438/84
f 380/127/200 181/126/94 180/120/93
f 281/439/128 183/436/87 179/438/83
f 285/41/131 284/42/130 288/44/133
f 296/51/139 300/55/143 299/54/142
f 290/36/134 178/34/81 182/40/84
f 341/93/172 213/92/96 177/98/95
f 287/45/132 179/43/83 176/37/80
f 291/35/135 290/36/134 294/38/137
f 291/445/135 260/786/114 196/425/97
f 293/445/136 176/444/80 210/425/98
f 311/455/150 309/64/149 308/63/148
f 413/156/224 175/155/77 174/161/76
f 314/52/152 173/68/109 199/457/104
f 333/459/166 338/90/170 186/89/99
f 311/66/150 189/65/101 171/461/75
f 315/51/153 314/52/152 318/54/155
f 341/463/172 339/91/171 338/90/170
f 315/465/153 320/72/156 170/71/72
f 452/191/252 169/190/74 168/184/73
f 317/70/154 171/69/75 167/467/71
f 321/469/157 320/787/156 324/76/159
f 336/88/169 335/87/168 333/85/166
f 326/78/160 166/77/69 170/71/72
f 371/470/194 165/736/70 193/123/89
f 323/75/158 167/74/71 164/80/68
f 329/81/162 327/788/161 326/471/160
f 296/472/139 184/789/91 166/77/69
f 300/55/143 329/720/162 164/473/68
f 347/474/176 345/97/175 344/96/174
f 374/121/196 180/120/93 163/476/67
f 345/97/175 350/790/178 162/478/66
f 449/188/250 161/187/65 160/193/64
f 347/99/176 177/98/95 159/479/63
f 353/88/180 351/84/179 350/85/178
f 488/481/277 158/500/62 157/482/61
f 351/484/179 356/103/182 156/102/60
f 377/486/198 375/122/197 374/121/196
f 353/488/180 159/791/63 155/105/59
f 357/489/183 356/792/182 360/107/185
f 407/490/220 154/793/58 175/155/77
f 362/109/186 153/108/57 156/102/60
f 372/119/195 371/118/194 369/116/192
f 359/106/184 155/105/59 152/111/56
f 363/491/187 362/731/186 366/113/189
f 332/492/165 172/725/79 153/108/57
f 365/112/188 152/111/56 214/493/82
f 381/128/201 380/127/200 384/495/203
f 410/153/222 208/152/85 151/497/55
f 386/499/204 150/794/54 181/126/94
f 485/483/275 149/482/53 148/500/52
f 390/501/207 383/130/202 192/129/88
f 389/119/206 387/115/205 386/116/204
f 524/503/122 146/568/108 145/504/107
f 387/506/205 392/135/208 144/134/46
f 413/156/224 411/746/223 410/508/222
f 389/509/206 147/795/51 143/137/45
f 395/138/210 393/741/209 392/510/208
f 443/182/246 142/181/44 161/511/65
f 393/136/209 398/141/212 141/140/43
f 404/147/217 408/151/221 407/150/220
f 395/138/210 143/137/45 140/143/42
f 399/142/213 398/141/212 402/513/215
f 368/515/191 163/796/67 141/140/43
f 372/516/195 401/144/214 140/143/42
f 417/518/227 416/747/226 420/163/229
f 446/185/248 168/184/73 139/519/41
f 417/160/227 422/797/230 138/521/40
f 521/232/120 137/231/106 136/237/105
f 419/162/228 174/161/76 135/522/36
f 423/147/231 422/164/230 426/150/233
f 560/253/122 134/252/108 133/246/107
f 423/524/231 428/167/234 132/166/32
f 449/188/250 447/753/249 446/526/248
f 432/171/237 425/798/232 135/527/36
f 429/168/235 428/167/234 432/528/237
f 479/530/271 130/538/30 149/482/53
f 429/168/235 434/173/238 129/172/29
f 440/179/243 444/183/247 443/182/246
f 431/170/236 131/169/31 128/175/28
f 435/174/239 434/173/238 438/532/241
f 435/174/239 404/799/217 151/534/55
f 408/535/221 437/176/240 128/175/28
f 455/194/254 453/800/253 452/537/252
f 482/531/273 157/482/61 127/538/27
f 458/539/256 126/801/26 169/190/74
f 557/250/120 125/249/106 124/255/105
f 462/182/259 455/512/254 160/511/64
f 459/179/257 458/180/256 462/182/259
f 596/269/148 122/268/104 121/262/103
f 459/179/257 464/548/260 120/540/17
f 483/216/274 482/215/273 486/219/276
f 468/201/263 461/802/258 123/541/21
f 465/198/261 464/197/260 468/542/263
f 515/544/116 118/552/98 137/504/106
f 470/203/264 117/202/12 120/196/17
f 480/213/272 479/212/271 477/210/270
f 467/200/262 119/199/16 116/205/11
f 473/546/266 471/204/265 470/203/264
f 440/179/243 139/178/41 117/540/12
f 473/206/266 116/205/11 142/549/44
f 489/222/278 488/221/277 492/225/280
f 513/551/115 518/559/118 145/504/107
f 494/553/281 114/555/9 158/500/62
f 593/266/146 113/265/102 112/271/101
f 491/554/279 148/500/52 111/555/7
f 495/209/282 494/210/281 498/212/284
f 632/293/174 110/292/100 109/286/99
f 500/556/285 108/558/5 114/555/9
f 519/230/119 518/229/118 522/233/121
f 504/556/288 497/557/283 111/555/7
f 501/221/286 500/222/285 504/224/288
f 551/544/116 106/552/98 125/504/106
f 506/560/289 105/562/2 108/558/5
f 516/9/117 515/227/116 513/6/115
f 503/561/287 107/558/3 104/562/1
f 507/215/290 506/216/289 510/218/292
f 507/563/290 476/564/269 127/538/27
f 509/563/291 104/562/1 130/538/30
f 525/236/123 524/235/122 528/239/125
f 549/565/115 554/559/118 133/504/107
f 525/566/123 530/803/126 102/567/90
f 629/290/172 101/289/96 100/295/95
f 527/569/124 136/568/105 99/567/87
f 531/23/127 530/240/126 534/25/129
f 668/319/200 98/318/94 97/312/93
f 536/571/130 96/574/84 102/567/90
f 555/248/119 554/247/118 558/251/121
f 540/573/133 533/804/128 99/567/87
f 537/242/131 536/236/130 540/238/133
f 587/575/142 94/760/92 113/265/102
f 537/576/131 542/805/134 93/577/81
f 552/33/117 551/245/116 549/30/115
f 539/239/132 95/237/83 92/231/80
f 543/229/135 542/243/134 546/232/137
f 512/578/114 115/552/97 93/577/81
f 516/580/117 545/586/136 92/577/80
f 561/254/123 560/253/122 564/257/125
f 585/52/140 590/719/144 121/448/103
f 561/569/123 566/806/126 90/567/90
f 672/323/203 665/316/198 89/315/89
f 563/569/124 124/568/105 87/567/87
f 567/47/127 566/258/126 570/49/129
f 704/343/226 86/342/86 85/336/85
f 572/571/130 84/574/84 90/567/90
f 591/264/145 590/263/144 594/583/147
f 576/571/133 569/807/128 87/567/87
f 573/253/131 572/254/130 576/256/133
f 630/291/173 623/808/168 82/585/82
f 578/248/134 81/246/81 84/252/84
f 584/260/139 588/55/143 587/261/142
f 575/257/132 83/255/83 80/249/80
f 579/247/135 578/248/134 582/250/137
f 548/578/114 103/552/97 81/577/81
f 552/587/117 581/586/136 80/577/80
f 597/270/149 596/269/148 600/588/151
f 626/287/170 109/286/99 79/590/79
f 602/52/152 78/68/78 122/457/104
f 701/340/224 77/339/77 76/345/76
f 599/272/150 112/271/101 75/592/75
f 603/51/153 602/52/152 606/54/155
f 740/367/252 74/366/74 73/360/73
f 608/275/156 72/274/72 78/594/78
f 627/288/171 626/287/170 630/596/173
f 605/55/154 75/69/75 71/467/71
f 609/598/157 608/809/156 612/279/159
f 666/317/199 659/810/194 70/599/70
f 614/281/160 69/280/69 72/274/72
f 624/88/169 623/87/168 621/85/166
f 611/278/158 71/277/71 68/283/68
f 617/284/162 615/811/161 614/600/160
f 584/601/139 91/758/91 69/280/69
f 588/55/143 617/720/162 68/473/68
f 633/294/175 632/293/174 636/602/177
f 662/313/196 97/312/93 67/604/67
f 638/606/178 66/812/66 110/292/100
f 737/364/250 65/363/65 64/369/64
f 642/607/181 635/296/176 100/295/95
f 641/298/180 639/84/179 638/85/178
f 776/609/277 62/628/62 61/610/61
f 644/300/182 60/299/60 66/612/66
f 665/614/198 663/314/197 662/313/196
f 641/616/180 63/813/63 59/302/59
f 647/303/184 645/766/183 644/617/182
f 702/341/225 695/814/220 58/618/58
f 650/306/186 57/305/57 60/299/60
f 660/311/195 659/118/194 657/116/192
f 647/303/184 59/302/59 56/308/56
f 651/619/187 650/765/186 654/310/189
f 651/307/187 620/815/165 79/620/79
f 624/621/169 653/309/188 56/308/56
f 671/623/202 669/320/201 668/319/200
f 693/625/218 698/337/222 85/336/85
f 674/627/204 54/816/54 98/318/94
f 773/611/275 53/610/53 52/628/52
f 671/322/202 88/321/88 51/629/51
f 677/119/206 675/115/205 674/116/204
f 49/631/49 48/707/48 47/632/47
f 680/325/208 46/324/46 54/634/54
f 701/340/224 699/774/223 698/636/222
f 684/329/211 677/817/206 51/637/51
f 683/328/210 681/771/209 680/638/208
f 731/182/246 44/181/44 65/511/65
f 681/326/209 686/331/212 43/330/43
f 692/147/217 696/151/221 695/150/220
f 683/328/210 45/327/45 42/333/42
f 687/332/213 686/331/212 690/639/215
f 656/641/191 67/767/67 43/330/43
f 689/334/214 42/333/42 70/642/70
f 705/644/227 704/775/226 708/347/229
f 734/361/248 73/360/73 41/645/41
f 705/344/227 710/818/230 40/647/40
f 38/2/38 37/1/37 50/401/50
f 714/648/233 707/346/228 76/345/76
f 711/147/231 710/164/230 714/150/233
f 34/399/34 49/401/49 33/1/33
f 716/349/234 32/348/32 40/650/40
f 735/652/249 734/819/248 738/365/251
f 720/353/237 713/820/232 36/653/36
f 717/350/235 716/349/234 720/654/237
f 767/656/271 30/664/30 53/610/53
f 717/350/235 722/355/238 29/354/29
f 728/179/243 732/183/247 731/182/246
f 719/352/236 31/351/31 28/357/28
f 723/356/239 722/355/238 726/658/241
f 723/356/239 692/821/217 55/660/55
f 696/661/221 725/358/240 28/357/28
f 741/663/253 740/778/252 744/371/255
f 770/657/273 61/610/61 27/664/27
f 746/665/256 26/822/26 74/366/74
f 24/666/24 23/679/23 22/667/22
f 750/182/259 743/512/254 64/511/64
f 747/179/257 746/180/256 750/182/259
f 19/396/19 24/398/24 18/403/18
f 747/179/257 752/548/260 17/540/17
f 771/386/274 770/385/273 774/389/276
f 756/377/263 749/823/258 21/669/21
f 753/374/261 752/373/260 756/670/263
f 14/402/14 13/403/13 25/398/25
f 758/379/264 12/378/12 17/372/17
f 768/213/272 767/212/271 765/210/270
f 755/376/262 16/375/16 11/381/11
f 761/672/266 759/380/265 758/379/264
f 759/548/265 728/179/243 41/178/41
f 761/382/266 11/381/11 44/674/44
f 777/392/278 776/391/277 780/395/280
f 15/396/15 22/397/22 10/3/10
f 777/676/278 782/678/281 9/677/9
f 39/399/39 47/400/47 8/404/8
f 786/678/284 779/676/279 52/628/52
f 783/209/282 782/210/281 786/212/284
f 37/668/37 10/667/10 6/679/6
f 788/680/285 5/682/5 9/677/9
f 20/402/20 4/404/4 48/400/48
f 792/680/288 785/681/283 7/677/7
f 789/391/286 788/392/285 792/394/288
f 35/2/35 6/3/6 23/397/23
f 794/683/289 2/688/2 5/682/5
f 4/685/4 18/824/18 13/686/13
f 791/684/287 3/682/3 1/688/1
f 795/385/290 794/386/289 798/388/292
f 764/689/269 27/664/27 2/688/2
f 797/690/291 1/688/1 30/664/30
f 866/2/35 867/3/6 868/397/23
f 870/691/37 871/694/10 867/692/6
f 873/396/15 874/397/22 871/3/10
f 876/693/24 868/692/23 874/694/22
f 865/396/19 876/398/24 878/403/18
f 879/402/14 880/403/13 875/398/25
f 882/695/4 878/825/18 880/696/13
f 877/402/20 882/404/4 884/400/48
f 885/399/39 886/400/47 881/404/8
f 888/698/49 884/779/48 886/699/47
f 883/399/34 888/401/49 869/1/33
f 872/2/38 870/1/37 887/401/50
f 890/411/35 891/412/6 892/419/23
f 894/408/37 895/410/10 891/407/6
f 897/420/15 898/421/22 895/416/10
f 900/406/24 892/407/23 898/410/22
f 889/405/19 900/406/24 902/701/18
f 903/703/14 904/704/13 899/408/25
f 906/419/4 902/418/18 904/422/13
f 901/417/20 906/419/4 908/412/48
f 909/414/39 910/416/47 905/421/8
f 912/413/49 908/412/48 910/416/47
f 907/702/34 912/701/49 893/406/33
f 896/409/38 894/408/37 911/704/50
f 809/705/110 217/668/110 221/666/110
f 219/632/112 804/687/112 800/685/112
f 802/396/111 218/2/111 808/399/111
f 811/402/113 805/399/113 220/2/113
f 253/444/113 223/425/113 229/427/113
f 229/427/113 235/430/113 241/436/113
f 241/436/113 247/438/113 253/444/113
f 227/8/116 234/826/121 230/708/118
f 257/709/136 228/9/117 224/5/114
f 238/430/111 232/427/111 226/425/111
f 226/425/111 256/444/111 250/438/111
f 250/438/111 244/436/111 238/430/111
f 233/14/120 240/21/125 236/17/122
f 239/711/124 246/25/129 242/22/126
f 245/24/128 252/827/133 248/713/130
f 251/21/132 258/14/137 254/27/134
f 271/430/113 277/436/113 283/438/113
f 283/438/113 289/444/113 259/425/113
f 259/425/113 265/427/113 271/430/113
f 263/32/116 270/717/121 266/714/118
f 293/715/136 264/33/117 260/29/114
f 280/436/111 274/430/111 268/427/111
f 268/427/111 262/425/111 292/444/111
f 292/444/111 286/438/111 280/436/111
f 269/38/120 276/45/125 272/41/122
f 275/717/124 282/49/129 278/46/126
f 281/48/128 288/715/133 284/716/130
f 287/45/132 294/38/137 290/36/134
f 301/718/138 307/828/138 313/466/138
f 313/466/138 319/71/138 325/77/138
f 325/77/138 295/789/138 301/718/138
f 299/54/142 306/762/147 302/719/144
f 329/720/162 300/55/143 296/51/139
f 310/65/141 304/59/141 298/722/141
f 298/722/141 328/829/141 322/723/141
f 322/723/141 316/461/141 310/65/141
f 305/451/146 312/456/151 308/63/148
f 309/458/149 311/762/150 318/54/155
f 315/51/153 317/70/154 324/468/159
f 323/75/158 330/82/163 326/471/160
f 331/725/164 337/830/164 343/724/164
f 343/724/164 349/485/164 355/102/164
f 355/102/164 361/108/164 331/725/164
f 333/85/166 335/87/168 342/726/173
f 363/728/187 365/831/188 336/88/169
f 358/730/167 352/479/167 346/98/167
f 346/98/167 340/92/167 334/729/167
f 334/729/167 364/832/167 358/730/167
f 341/463/172 348/475/177 344/96/174
f 347/726/176 354/101/181 350/85/178
f 353/88/180 360/831/185 356/728/182
f 359/106/184 366/113/189 362/731/186
f 373/732/190 379/833/190 385/507/190
f 385/507/190 391/134/190 397/140/190
f 397/140/190 367/796/190 373/732/190
f 371/118/194 378/738/199 374/733/196
f 401/734/214 372/119/195 368/115/191
f 394/737/193 388/502/193 382/129/193
f 382/129/193 376/123/193 370/736/193
f 370/736/193 400/834/193 394/737/193
f 377/486/198 384/495/203 380/127/200
f 383/738/202 390/118/207 386/116/204
f 387/115/205 389/119/206 396/734/211
f 395/138/210 402/145/215 398/740/212
f 415/158/216 421/521/216 427/742/216
f 427/742/216 433/835/216 403/497/216
f 403/497/216 409/152/216 415/158/216
f 407/150/220 414/748/225 410/743/222
f 435/744/239 437/836/240 408/151/221
f 430/169/219 424/527/219 418/745/219
f 418/745/219 412/837/219 406/536/219
f 406/536/219 436/175/219 430/169/219
f 411/746/223 413/156/224 420/163/229
f 419/748/228 426/150/233 422/164/230
f 425/151/232 432/836/237 428/749/234
f 429/168/235 431/529/236 438/532/241
f 451/190/242 457/801/242 463/750/242
f 463/750/242 469/838/242 439/519/242
f 439/519/242 445/184/242 451/190/242
f 441/180/244 443/182/246 450/512/251
f 471/548/265 473/839/266 444/183/247
f 466/199/245 460/541/245 454/752/245
f 454/752/245 448/840/245 442/549/245
f 442/549/245 472/205/245 466/199/245
f 449/188/250 456/195/255 452/537/252
f 455/512/254 462/182/259 458/180/256
f 461/183/258 468/839/263 464/548/260
f 467/543/262 474/547/267 470/203/264
f 487/500/268 493/555/268 499/558/268
f 499/558/268 505/562/268 475/538/268
f 475/538/268 481/482/268 487/500/268
f 479/212/271 486/757/276 482/754/273
f 509/755/291 480/213/272 476/209/269
f 502/558/112 496/555/112 490/500/112
f 490/500/112 484/482/112 478/538/112
f 478/538/112 508/562/112 502/558/112
f 485/218/275 492/225/280 488/221/277
f 491/757/279 498/212/284 494/210/281
f 497/213/283 504/755/288 500/756/285
f 503/225/287 510/218/292 506/216/289
f 523/568/113 529/567/113 535/574/113
f 535/574/113 541/577/113 511/552/113
f 511/552/113 517/504/113 523/568/113
f 515/227/116 522/826/121 518/708/118
f 545/709/136 516/9/117 512/226/114
f 538/574/111 532/567/111 526/568/111
f 526/568/111 520/504/111 514/552/111
f 514/552/111 544/577/111 538/574/111
f 521/232/120 528/239/125 524/235/122
f 527/711/124 534/25/129 530/240/126
f 533/241/128 540/827/133 536/713/130
f 539/239/132 546/232/137 542/243/134
f 559/568/113 565/567/113 571/574/113
f 571/574/113 577/577/113 547/552/113
f 547/552/113 553/504/113 559/568/113
f 551/245/116 558/717/121 554/714/118
f 581/715/136 552/33/117 548/244/114
f 574/574/111 568/567/111 562/568/111
f 562/568/111 556/504/111 550/552/111
f 550/552/111 580/577/111 574/574/111
f 557/250/120 564/257/125 560/253/122
f 563/717/124 570/49/129 566/258/126
f 569/259/128 576/715/133 572/716/130
f 575/257/132 582/250/137 578/248/134
f 595/759/138 601/594/138 607/274/138
f 607/274/138 613/280/138 583/758/138
f 583/758/138 589/841/138 595/759/138
f 587/261/142 594/762/147 590/719/144
f 617/720/162 588/55/143 584/260/139
f 610/761/141 604/592/141 598/271/141
f 598/271/141 592/265/141 586/760/141
f 586/760/141 616/842/141 610/761/141
f 593/584/146 600/588/151 596/269/148
f 599/762/150 606/54/155 602/52/152
f 605/55/154 612/468/159 608/721/156
f 611/278/158 618/285/163 614/600/160
f 631/763/164 637/612/164 643/299/164
f 643/299/164 649/305/164 619/620/164
f 619/620/164 625/843/164 631/763/164
f 623/87/168 630/726/173 626/727/170
f 651/728/187 653/831/188 624/88/169
f 646/764/167 640/608/167 634/295/167
f 634/295/167 628/289/167 622/585/167
f 622/585/167 652/844/167 646/764/167
f 629/597/172 636/602/177 632/293/174
f 635/726/176 642/87/181 638/85/178
f 641/298/180 648/831/185 644/728/182
f 647/303/184 654/310/189 650/765/186
f 667/768/190 673/634/190 679/324/190
f 679/324/190 685/330/190 655/767/190
f 655/767/190 661/845/190 667/768/190
f 659/118/194 666/738/199 662/733/196
f 689/734/214 660/311/195 656/115/191
f 682/769/193 676/629/193 670/321/193
f 670/321/193 664/315/193 658/599/193
f 658/599/193 688/846/193 682/769/193
f 665/614/198 672/624/203 668/319/200
f 671/738/202 678/118/207 674/116/204
f 675/115/205 677/119/206 684/734/211
f 683/328/210 690/335/215 686/770/212
f 703/342/216 709/647/216 715/772/216
f 715/772/216 721/847/216 691/626/216
f 691/626/216 697/336/216 703/342/216
f 695/150/220 702/748/225 698/743/222
f 723/744/239 725/836/240 696/151/221
f 718/351/219 712/653/219 706/773/219
f 706/773/219 700/848/219 694/662/219
f 694/662/219 724/357/219 718/351/219
f 699/774/223 701/340/224 708/347/229
f 707/748/228 714/150/233 710/164/230
f 713/151/232 720/836/237 716/749/234
f 717/350/235 719/655/236 726/658/241
f 739/366/242 745/822/242 751/776/242
f 751/776/242 757/849/242 727/645/242
f 727/645/242 733/360/242 739/366/242
f 729/180/244 731/182/246 738/512/251
f 759/548/265 761/839/266 732/183/247
f 754/375/245 748/669/245 742/777/245
f 742/777/245 736/850/245 730/674/245
f 730/674/245 760/381/245 754/375/245
f 737/364/250 744/371/255 740/778/252
f 743/512/254 750/182/259 746/180/256
f 749/183/258 756/839/263 752/548/260
f 755/671/262 762/673/267 758/379/264
f 775/628/268 781/677/268 787/682/268
f 787/682/268 793/688/268 763/664/268
f 763/664/268 769/610/268 775/628/268
f 767/212/271 774/757/276 770/754/273
f 797/755/291 768/213/272 764/209/269
f 790/682/112 784/677/112 778/628/112
f 778/628/112 772/610/112 766/664/112
f 766/664/112 796/688/112 790/682/112
f 773/388/275 780/395/280 776/391/277
f 779/757/279 786/212/284 782/210/281
f 785/213/283 792/755/288 788/756/285
f 791/395/287 798/388/292 794/386/289
f 803/668/293 816/705/293 812/706/293
f 815/687/268 810/632/268 806/707/268
f 835/402/113 829/399/113 817/2/113
f 822/699/112 828/697/112 824/695/112
f 833/780/110 820/691/110 818/693/110
f 826/396/111 821/2/111 832/399/111
f 827/691/293 840/780/293 836/781/293
f 839/697/268 834/699/268 830/779/268
f 859/402/113 853/399/113 841/2/113
f 846/416/112 852/421/112 848/419/112
f 857/704/110 844/408/110 842/406/110
f 850/396/111 845/2/111 856/399/111
f 851/408/293 864/704/293 860/701/293
f 863/421/268 858/416/268 854/412/268
