# Blender 5.2.0 LTS
# www.blender.org
o Backdrop_SprayDome
v 0.000000 30.623919 -3.337814
v 0.000000 31.000000 0.000000
v -4.338239 24.920965 0.294713
v -1.601687 24.639151 -4.317337
v -2.424349 24.920965 -3.609668
v 21.081598 35.890324 0.124355
v 21.186712 35.743340 0.124355
v -4.539766 24.639151 -0.771568
v -21.219191 35.697918 0.047497
v -21.081598 35.890324 -0.124356
v -21.186712 35.743340 -0.124356
v -21.134155 35.816830 0.153710
v -21.049118 35.935741 0.047499
v -3.264161 23.727186 4.110552
v -10.568460 35.697918 18.400108
v -10.701047 35.743340 18.286053
v -10.433959 35.816830 18.379574
v 3.258861 24.183170 3.737089
v 2.951955 23.445375 4.523509
v -1.606985 24.183170 4.690800
v -2.938083 24.639151 3.545768
v -1.913892 24.920965 3.904380
v 1.606984 24.183170 -4.690800
v 2.441496 23.445375 -4.818222
v 2.424348 24.920965 3.609668
v -10.483422 35.935741 18.252823
v -10.648492 35.890324 18.195026
v -10.433104 35.890324 -18.319378
v -10.650728 35.697918 -18.352610
v 1.927764 23.727186 4.882122
v 1.601686 24.639151 4.317337
v 10.650730 35.697918 18.352610
v 10.433105 35.890324 18.319380
v 10.485661 35.743340 18.410408
v -5.393451 23.445375 0.294714
v -5.191923 23.727186 -0.771568
v 10.700196 35.816833 18.225861
v 10.565696 35.935741 18.205322
v 5.191923 23.727186 0.771568
v 4.539766 24.639151 0.771568
v -4.479137 16.000000 -6.165004
v -4.702282 15.638945 -6.472136
v -4.479137 4.000000 -6.165004
v -4.702282 4.361055 -6.472136
v -7.247397 16.000000 -2.354822
v -7.608452 15.638945 -2.472136
v -2.951956 23.445375 -4.523508
v -1.927765 23.727186 -4.882121
v -7.247397 4.000000 -2.354822
v -7.608452 4.361055 -2.472136
v 0.000000 29.514534 -6.508256
v -4.519039 10.293661 -1.031442
v 0.000000 25.352348 -11.727471
v 0.000000 22.508257 -13.514533
v 0.000000 19.337814 -14.623919
v 0.000000 16.000000 -15.000000
v -7.247397 16.000000 2.354822
v -7.608452 15.638945 2.472136
v 0.000000 10.000000 0.000000
v -7.247397 4.000000 2.354822
v -0.000003 16.000000 14.999998
v -0.000003 14.145898 14.265849
v -0.000001 12.473289 12.135255
v 1.448223 30.623919 -3.007267
v -7.608452 4.361055 2.472136
v 2.823827 29.514534 -5.863736
v 4.057832 27.727470 -8.426174
v 5.088359 25.352348 -10.566087
v 5.863736 22.508257 -12.176173
v 6.345080 19.337814 -13.175694
v 6.508256 16.000000 -13.514533
v -0.000002 11.145898 8.816777
v -0.000000 10.293661 4.635254
v -15.598846 4.638945 -3.560335
v -15.237791 5.000000 -3.477927
v 2.011161 10.293661 4.176220
v 3.825455 11.145898 7.943643
v -4.479137 16.000000 6.165004
v 2.609608 30.623919 -2.081093
v -4.702282 15.638945 6.472136
v 5.088360 29.514534 -4.057831
v 7.311960 27.727470 -5.831093
v 9.168906 25.352348 -7.311958
v 10.566088 22.508257 -8.426173
v 11.433440 19.337814 -9.117863
v 11.727472 16.000000 -9.352346
v 5.265289 12.473289 10.933488
v 6.189717 14.145898 12.853086
v 6.508253 16.000000 13.514533
v -4.479137 4.000000 6.165004
v -4.702282 4.361055 6.472136
v -6.781455 5.000000 -14.081836
v -6.942140 4.638945 -14.415502
v 3.254128 30.623919 -0.742733
v -15.598846 0.361055 -3.560335
v 6.345080 29.514534 -1.448223
v 9.117865 27.727470 -2.081092
v 11.433439 25.352348 -2.609607
v 13.175695 22.508257 -3.007265
v 14.257266 19.337814 -3.254127
v 14.623919 16.000000 -3.337812
v -6.781455 0.000000 -14.081836
v -15.237791 0.000000 -3.477927
v -15.598846 4.638945 3.560335
v -6.942140 0.361055 -14.415502
v -12.219760 5.000000 -9.744934
v -12.509303 4.638945 -9.975838
v -15.237791 5.000000 3.477927
v 3.254128 30.623919 0.742734
v -4.519039 10.293661 1.031440
v 6.345080 29.514534 1.448224
v 9.117865 27.727470 2.081094
v 11.433438 25.352348 2.609609
v 13.175694 22.508257 3.007268
v 14.257266 19.337814 3.254129
v 14.623917 16.000000 3.337816
v -12.219760 0.000000 -9.744934
v 11.727469 16.000000 9.352348
v 11.153488 14.145898 8.894613
v 9.487724 12.473289 7.566208
v 6.893233 11.145898 5.497172
v 3.623988 10.293661 2.890034
v -8.595722 11.145898 1.961915
v 2.609608 30.623919 2.081094
v -11.830999 12.473289 2.700345
v 5.088359 29.514534 4.057831
v 7.311959 27.727470 5.831095
v 9.168904 25.352348 7.311959
v 10.566085 22.508257 8.426175
v 11.433439 19.337814 9.117866
v 15.598846 0.361055 -3.560335
v -15.598846 0.361055 3.560335
v -15.237791 0.000000 3.477927
v 4.519039 10.293661 1.031442
v 8.595722 11.145898 1.961919
v 11.830998 12.473289 2.700349
v 13.908173 14.145898 3.174452
v -13.908175 14.145898 3.174446
v 1.448223 30.623919 3.007267
v -14.623918 16.000000 3.337811
v 2.823826 29.514534 5.863736
v 4.057830 27.727470 8.426175
v 5.088357 25.352348 10.566086
v 5.863733 22.508257 12.176174
v 6.345078 19.337814 13.175695
v 15.237791 0.000000 -3.477927
v 12.509303 4.638945 -9.975838
v -12.509303 0.361055 -9.975838
v -15.237791 5.000000 -3.477927
v -15.598846 4.638945 -3.560335
v 0.000000 4.000000 -7.620364
v -12.509303 4.638945 9.975838
v 0.000000 4.361055 -8.000000
v -0.000001 30.623919 3.337814
v -15.237791 0.000000 -3.477927
v -0.000001 29.514534 6.508255
v -0.000002 27.727470 9.352347
v -0.000002 25.352348 11.727469
v -0.000004 22.508257 13.514532
v -0.000002 19.337814 14.623918
v 12.219760 5.000000 -9.744934
v -12.219760 5.000000 9.744934
v -15.598846 0.361055 -3.560335
v -15.237791 5.000000 3.477927
v -15.598846 4.638945 3.560335
v -15.237791 0.000000 3.477927
v 12.509303 0.361055 -9.975838
v -15.598846 0.361055 3.560335
v -1.448224 30.623919 3.007266
v -12.219760 5.000000 9.744934
v -2.823827 29.514534 5.863735
v -4.057833 27.727470 8.426172
v -5.088361 25.352348 10.566084
v -5.863739 22.508257 12.176170
v -6.345082 19.337814 13.175694
v -6.508258 16.000000 13.514530
v 13.908174 14.145898 -3.174448
v 11.830998 12.473289 -2.700348
v 8.595723 11.145898 -1.961917
v 4.519039 10.293661 -1.031441
v -12.509303 0.361055 9.975838
v -12.219760 0.000000 9.744934
v -11.727472 16.000000 9.352344
v -2.609609 30.623919 2.081092
v -11.153492 14.145898 8.894609
v -5.088360 29.514534 4.057830
v -7.311960 27.727470 5.831091
v -9.168906 25.352348 7.311955
v -10.566089 22.508257 8.426169
v -11.433441 19.337814 9.117861
v 12.219760 0.000000 -9.744934
v 3.623988 10.293661 -2.890034
v 6.893235 11.145898 -5.497171
v 9.487724 12.473289 -7.566208
v 11.153490 14.145898 -8.894610
v 6.942140 4.638945 -14.415502
v -12.509303 4.638945 9.975838
v -9.487726 12.473289 7.566206
v -3.254128 30.623919 0.742733
v -6.893235 11.145898 5.497168
v -6.345080 29.514534 1.448222
v -9.117864 27.727470 2.081091
v -11.433437 25.352348 2.609604
v -13.175694 22.508257 3.007262
v -14.257267 19.337814 3.254124
v 6.781455 5.000000 -14.081836
v -12.219760 0.000000 9.744934
v -12.509303 0.361055 9.975838
v -6.781455 5.000000 14.081836
v -6.942140 4.638945 14.415502
v -6.781455 5.000000 14.081836
v -6.942140 4.638945 14.415502
v -3.623988 10.293661 2.890033
v -3.254128 30.623919 -0.742735
v -6.942140 0.361055 14.415502
v -6.345079 29.514534 -1.448224
v -9.117863 27.727470 -2.081095
v -11.433435 25.352348 -2.609611
v -13.175693 22.508257 -3.007270
v -14.257264 19.337814 -3.254132
v -14.623917 16.000000 -3.337817
v 0.000000 16.000000 -7.620364
v 0.000000 15.638945 -8.000000
v -6.781455 0.000000 14.081836
v 6.942140 0.361055 -14.415502
v 6.189720 14.145898 -12.853085
v 5.265290 12.473289 -10.933487
v -6.781455 0.000000 14.081836
v -2.609607 30.623919 -2.081094
v -6.942140 0.361055 14.415502
v -5.088357 29.514534 -4.057832
v -7.311957 27.727470 -5.831094
v -9.168901 25.352348 -7.311960
v -10.566083 22.508257 -8.426176
v -11.433436 19.337814 -9.117867
v -11.727468 16.000000 -9.352348
v 3.825457 11.145898 -7.943643
v 2.011162 10.293661 -4.176220
v 0.000000 4.638945 16.000000
v 0.000000 5.000000 15.629660
v 0.000000 10.293661 -4.635255
v 0.000000 11.145898 -8.816778
v 7.247397 4.000000 2.354822
v -1.448222 30.623919 -3.007267
v 7.608452 4.361055 2.472136
v -2.823824 29.514534 -5.863736
v -4.057829 27.727470 -8.426174
v -5.088354 25.352348 -10.566085
v -5.863731 22.508257 -12.176174
v -6.345076 19.337814 -13.175695
v -6.508252 16.000000 -13.514534
v 0.000000 12.473289 -12.135255
v 0.000000 14.145898 -14.265848
v 6.781455 0.000000 -14.081836
v 0.000000 5.000000 15.629660
v 0.000000 4.638945 16.000000
v -0.000000 0.000000 15.629660
v 0.000000 0.361055 16.000000
v 0.000000 0.361055 16.000000
v -0.000000 0.000000 15.629660
v -2.011162 10.293661 4.176220
v 0.000002 27.727470 -9.352346
v -3.825458 11.145898 7.943640
v -5.265291 12.473289 10.933486
v -6.189723 14.145898 12.853085
v 0.000000 4.638945 -16.000000
v 6.781455 5.000000 14.081836
v 6.942140 4.638945 14.415502
v 6.942140 4.638945 14.415502
v 6.781455 5.000000 14.081836
v 6.942140 0.361055 14.415502
v 6.781455 0.000000 14.081836
v 6.942140 0.361055 14.415502
v -8.595720 11.145898 -1.961920
v -11.830998 12.473289 -2.700352
v -13.908173 14.145898 -3.174453
v -0.000000 5.000000 -15.629660
v 7.247397 16.000000 2.354822
v 7.608452 15.638945 2.472136
v -3.623987 10.293661 -2.890035
v 6.781455 0.000000 14.081836
v 12.509303 4.638945 9.975838
v 12.219760 5.000000 9.744934
v 12.509303 4.638945 9.975838
v -6.893231 11.145898 -5.497172
v -9.487722 12.473289 -7.566211
v -11.153487 14.145898 -8.894614
v 0.000000 0.361055 -16.000000
v -10.700194 35.816833 -18.225861
v -10.565693 35.935741 -18.205322
v -2.011161 10.293661 -4.176220
v 12.219760 5.000000 9.744934
v 12.509303 0.361055 9.975838
v 12.219760 0.000000 9.744934
v 12.509303 0.361055 9.975838
v -3.825453 11.145898 -7.943642
v -5.265286 12.473289 -10.933489
v -6.189715 14.145898 -12.853087
v 0.000000 0.000000 -15.629660
v 15.237791 5.000000 3.477927
v 15.598846 4.638945 -3.560335
v 12.219760 0.000000 9.744934
v 15.598846 4.638945 3.560335
v 15.237791 5.000000 3.477927
v 15.237791 5.000000 -3.477927
v 15.598846 0.361055 3.560335
v 15.237791 0.000000 3.477927
v 15.598846 4.638945 3.560335
v 4.479137 4.000000 -6.165004
v 7.247397 4.000000 -2.354822
v 7.608452 4.361055 -2.472136
v 4.702282 4.361055 -6.472136
v -12.219760 0.000000 -9.744934
v -12.509303 0.361055 -9.975838
v -12.219760 5.000000 -9.744934
v -12.509303 4.638945 -9.975838
v -6.781455 0.000000 -14.081836
v -6.942140 0.361055 -14.415502
v -6.781455 5.000000 -14.081836
v -6.942140 4.638945 -14.415502
v 0.000000 4.000000 -7.620364
v 0.000000 4.361055 -8.000000
v 0.000000 16.000000 -7.620364
v 0.000000 15.638945 -8.000000
v 4.479137 4.000000 -6.165004
v 4.702282 4.361055 -6.472136
v 4.479137 16.000000 -6.165004
v 4.702282 15.638945 -6.472136
v 7.247397 4.000000 -2.354822
v 7.608452 4.361055 -2.472136
v 7.247397 16.000000 -2.354822
v 7.608452 15.638945 -2.472136
v 7.247397 4.000000 2.354822
v 7.608452 4.361055 2.472136
v 7.247397 16.000000 2.354822
v 7.608452 15.638945 2.472136
v 4.479137 4.000000 6.165004
v 4.702282 4.361055 6.472136
v 4.479137 16.000000 6.165004
v 4.702282 15.638945 6.472136
v 0.000000 4.000000 7.620364
v 0.000000 4.361055 8.000000
v 0.000000 16.000000 7.620364
v 0.000000 15.638945 8.000000
v -4.479137 4.000000 6.165004
v -4.702282 4.361055 6.472136
v -4.479137 16.000000 6.165004
v -4.702282 15.638945 6.472136
v -7.247397 4.000000 2.354822
v -7.608452 4.361055 2.472136
v -7.247397 16.000000 2.354822
v -7.608452 15.638945 2.472136
v -7.247397 4.000000 -2.354822
v -7.608452 4.361055 -2.472136
v -7.247397 16.000000 -2.354822
v -7.608452 15.638945 -2.472136
v -4.479137 4.000000 -6.165004
v -4.702282 4.361055 -6.472136
v -4.479137 16.000000 -6.165004
v -4.702282 15.638945 -6.472136
v 1.927764 23.727186 4.882122
v 2.175708 23.639841 5.323370
v 1.740749 24.024389 5.256957
v 10.650730 35.697918 18.352610
v 15.237791 0.000000 3.477927
v 10.853563 35.369255 17.994617
v 2.951955 23.445375 4.523509
v 3.432610 23.558865 4.664563
v 3.003826 23.411982 5.033411
v 10.700196 35.816833 18.225861
v 15.598846 0.361055 3.560335
v 10.683605 35.844585 17.700243
v 3.258861 24.183170 3.737089
v 3.510806 24.630745 3.734325
v 3.680762 24.155415 4.028698
v -10.483422 35.935741 18.252823
v 15.237791 5.000000 -3.477927
v -10.415840 35.991470 17.733551
v -1.913892 24.920965 3.904380
v -2.155554 25.374180 3.902895
v -1.726771 25.227295 4.271741
v -10.648492 35.890324 18.195026
v 15.598846 4.638945 -3.560335
v -10.850800 35.606918 17.799963
v -2.938083 24.639151 3.545768
v -3.418632 24.761766 3.679349
v -2.983674 25.146317 3.612936
v -10.701047 35.743340 18.286053
v 15.237791 0.000000 -3.477927
v -10.690836 35.222370 18.209856
v -3.264161 23.727186 4.110552
v -3.522322 23.639841 4.545903
v -3.682285 24.024389 4.136010
v -10.568460 35.697918 18.400108
v 15.598846 0.361055 -3.560335
v -10.157013 35.369255 18.396772
v -2.441497 23.445375 4.818221
v -2.323328 23.558867 5.305008
v -2.857150 23.411982 5.118094
v -10.433959 35.816830 18.379574
v 4.479137 4.000000 6.165004
v -9.987056 35.844585 18.102398
v -1.606985 24.183170 4.690800
v -1.478619 24.630745 4.907608
v -1.648576 24.155416 5.201982
v -21.049118 35.935741 0.047499
v 0.000000 4.000000 7.620364
v -20.565624 35.991470 -0.153610
v -4.338239 24.920965 0.294713
v -4.457784 25.374180 0.084685
v -4.562822 25.227295 0.640446
v -21.081598 35.890324 -0.124356
v 0.000000 4.361055 8.000000
v -20.840618 35.606918 -0.497089
v -4.539766 24.639151 -0.771568
v -4.895725 24.761766 -1.120945
v -4.620731 25.146317 -0.777466
v -21.186712 35.743340 -0.124356
v 4.702282 4.361055 6.472136
v -21.115616 35.222370 -0.153610
v -5.191923 23.727186 -0.771568
v -5.698029 23.639841 -0.777466
v -5.423033 24.024389 -1.120945
v -21.219191 35.697918 0.047497
v 12.219760 5.000000 -9.744934
v -21.010578 35.369255 0.402151
v -5.393451 23.445375 0.294714
v -5.755936 23.558867 0.640446
v -5.860975 23.411982 0.084685
v -21.134155 35.816830 0.153710
v 12.509303 4.638945 -9.975838
v -20.670662 35.844585 0.402151
v -4.865844 24.183170 0.953713
v -4.989423 24.630745 1.173285
v -5.329336 24.155416 1.173284
v -10.565693 35.935741 -18.205322
v 7.247397 16.000000 -2.354822
v -10.149781 35.991470 -17.887157
v -2.424349 24.920965 -3.609668
v -2.302232 25.374180 -3.818211
v -2.836054 25.227295 -3.631296
v -10.433104 35.890324 -18.319378
v 4.479137 16.000000 -6.165004
v -9.989819 35.606922 -18.297052
v -1.601687 24.639151 -4.317337
v -1.477096 24.761766 -4.800294
v -1.637061 25.146317 -4.390404
v -10.485660 35.743340 -18.410408
v 4.702282 15.638945 -6.472136
v -10.424777 35.222370 -18.363464
v -1.927765 23.727186 -4.882121
v -2.175709 23.639841 -5.323370
v -1.740750 24.024389 -5.256956
v -10.650728 35.697918 -18.352610
v 7.608452 15.638945 -2.472136
v -10.853561 35.369255 -17.994617
v -2.951956 23.445375 -4.523508
v -3.432611 23.558867 -4.664564
v -3.003828 23.411982 -5.033410
v -10.700194 35.816833 -18.225861
v 12.219760 0.000000 -9.744934
v -10.683603 35.844585 -17.700243
v -3.258862 24.183170 -3.737088
v -3.510807 24.630745 -3.734324
v -3.680763 24.155416 -4.028698
v 10.483423 35.935741 -18.252823
v 12.509303 0.361055 -9.975838
v 10.415842 35.991470 -17.733551
v 1.913891 24.920965 -3.904381
v 2.155553 25.374180 -3.902895
v 1.726770 25.227295 -4.271741
v 10.648494 35.890324 -18.195024
v 6.781455 5.000000 -14.081836
v 10.850801 35.606918 -17.799961
v 2.938082 24.639151 -3.545769
v 3.418631 24.761766 -3.679350
v 2.983672 25.146317 -3.612937
v 10.701050 35.743340 -18.286053
v -0.000000 5.000000 -15.629660
v 10.690838 35.222370 -18.209856
v 3.264160 23.727186 -4.110553
v 3.522320 23.639841 -4.545904
v 3.682284 24.024389 -4.136011
v 10.568461 35.697918 -18.400108
v 0.000000 4.638945 -16.000000
v 10.157015 35.369255 -18.396772
v 2.441496 23.445375 -4.818222
v 2.323327 23.558867 -5.305009
v 2.857149 23.411982 -5.118095
v 10.433960 35.816833 -18.379574
v 6.942140 4.638945 -14.415502
v 9.987057 35.844585 -18.102398
v 1.606984 24.183170 -4.690800
v 1.478618 24.630745 -4.907608
v 1.648575 24.155416 -5.201982
v 21.049118 35.935741 -0.047499
v 0.000000 0.000000 -15.629660
v 20.565624 35.991470 0.153609
v 4.338239 24.920965 -0.294713
v 4.457784 25.374180 -0.084684
v 4.562822 25.227297 -0.640445
v 21.081598 35.890324 0.124355
v 6.781455 0.000000 -14.081836
v 20.840618 35.606918 0.497088
v 4.539766 24.639151 0.771568
v 4.895725 24.761766 1.120946
v 4.620731 25.146317 0.777467
v 21.186712 35.743340 0.124355
v 6.942140 0.361055 -14.415502
v 21.115616 35.222370 0.153609
v 5.191923 23.727186 0.771568
v 5.698029 23.639841 0.777467
v 5.423033 24.024389 1.120946
v 21.219191 35.697918 -0.047498
v 0.000000 0.361055 -16.000000
v 21.010578 35.369255 -0.402152
v 5.393451 23.445375 -0.294713
v 5.755936 23.558867 -0.640445
v 5.860975 23.411982 -0.084684
v 21.134155 35.816830 -0.153711
v 0.000000 16.000000 7.620364
v 20.670662 35.844585 -0.402152
v 4.865844 24.183170 -0.953712
v 4.989423 24.630745 -1.173284
v 5.329336 24.155416 -1.173284
v 10.565696 35.935741 18.205322
v 4.479137 16.000000 6.165004
v 10.149782 35.991470 17.887157
v 2.424348 24.920965 3.609668
v 2.302231 25.374180 3.818211
v 2.836053 25.227295 3.631297
v 10.433105 35.890324 18.319380
v 4.702282 15.638945 6.472136
v 9.989819 35.606918 18.297050
v 1.601686 24.639151 4.317337
v 1.477095 24.761766 4.800295
v 1.637060 25.146317 4.390404
v 10.485661 35.743340 18.410408
v 0.000000 15.638945 8.000000
v 10.424779 35.222370 18.363464
v -10.485660 35.743340 -18.410408
v 1.913891 24.920965 -3.904381
v 10.648494 35.890324 -18.195024
v 10.483423 35.935741 -18.252823
v 2.938082 24.639151 -3.545769
v 10.433960 35.816833 -18.379574
v -4.865844 24.183170 0.953713
v 10.701050 35.743340 -18.286053
v 21.049118 35.935741 -0.047499
v 21.134155 35.816830 -0.153711
v 10.568461 35.697918 -18.400108
v -3.258862 24.183170 -3.737088
v 3.264160 23.727186 -4.110553
v -2.441497 23.445375 4.818221
v 4.338239 24.920965 -0.294713
v 5.393451 23.445375 -0.294713
v 4.865844 24.183170 -0.953712
v 21.219191 35.697918 -0.047498
vn -0.0000 0.9714 -0.2376
vn -0.0000 1.0000 -0.0000
vn 0.9628 0.1532 0.2225
vn 0.9097 -0.0595 0.4109
vn 0.2888 0.1532 0.9451
vn 0.3542 0.7510 0.5572
vn 0.8252 0.0924 0.5572
vn 0.8107 -0.0595 -0.5824
vn -0.9707 -0.1111 0.2128
vn -0.3542 0.7510 -0.5572
vn -0.8252 0.0924 -0.5572
vn -0.5897 0.4217 0.6888
vn -0.2087 0.9545 0.2128
vn -0.3451 -0.7479 -0.5670
vn -0.3011 -0.1111 0.9471
vn -0.8952 0.0924 0.4360
vn 0.3016 0.4217 0.8551
vn 0.3412 -0.4037 -0.8489
vn 0.1095 -0.9606 -0.2553
vn 0.9057 -0.4037 -0.1290
vn -0.0990 -0.0596 -0.9933
vn 0.6741 0.1532 -0.7226
vn -0.9057 -0.4037 0.1290
vn -0.2758 -0.9606 0.0328
vn -0.2888 0.1532 -0.9451
vn 0.0800 0.9545 0.2871
vn -0.6597 0.7510 0.0281
vn 0.3055 0.7510 -0.5854
vn -0.6697 -0.1111 -0.7343
vn -0.6636 -0.7479 0.0154
vn -0.9097 -0.0595 -0.4109
vn 0.6697 -0.1111 0.7343
vn -0.3055 0.7510 0.5854
vn -0.0700 0.0924 0.9933
vn 0.1663 -0.9606 0.2225
vn 0.3184 -0.7479 -0.5824
vn 0.8913 0.4217 0.1663
vn 0.2887 0.9545 0.0743
vn -0.3185 -0.7479 0.5824
vn -0.8107 -0.0595 0.5824
vn -0.4051 0.7246 -0.5575
vn -0.4051 -0.7246 -0.5575
vn -0.6554 0.7246 -0.2130
vn -0.1095 -0.9606 0.2553
vn 0.6636 -0.7479 -0.0154
vn -0.6554 -0.7246 -0.2130
vn -0.0000 0.8947 -0.4467
vn -0.1379 -0.9900 -0.0315
vn -0.0000 0.6158 -0.7879
vn -0.0000 0.4278 -0.9039
vn -0.0000 0.2192 -0.9757
vn -0.0000 -0.1277 -0.9918
vn -0.6554 0.7246 0.2130
vn -0.0000 -1.0000 -0.0000
vn -0.6554 -0.7246 0.2130
vn -0.0000 -0.1277 0.9918
vn -0.0000 -0.5809 0.8139
vn -0.0000 -0.8576 0.5144
vn 0.1031 0.9714 -0.2141
vn 0.1938 0.8947 -0.4024
vn 0.2747 0.7741 -0.5704
vn 0.3418 0.6158 -0.7098
vn 0.3922 0.4278 -0.8144
vn 0.4233 0.2192 -0.8791
vn 0.4303 -0.1277 -0.8936
vn -0.0000 -0.9545 0.2984
vn -0.0000 -0.9900 0.1414
vn -0.9749 -0.0000 -0.2225
vn 0.0614 -0.9900 0.1274
vn 0.1295 -0.9545 0.2688
vn -0.4051 0.7246 0.5575
vn 0.1858 0.9714 -0.1481
vn 0.3492 0.8947 -0.2785
vn 0.4949 0.7741 -0.3947
vn 0.6160 0.6158 -0.4912
vn 0.7067 0.4278 -0.5636
vn 0.7628 0.2192 -0.6083
vn 0.7754 -0.1277 -0.6184
vn 0.2232 -0.8576 0.4635
vn 0.3532 -0.5809 0.7333
vn 0.4303 -0.1277 0.8936
vn -0.4051 -0.7246 0.5575
vn -0.3029 0.7160 -0.6289
vn 0.2317 0.9714 -0.0529
vn 0.4355 0.8947 -0.0994
vn 0.6172 0.7741 -0.1409
vn 0.7681 0.6158 -0.1753
vn 0.8812 0.4278 -0.2011
vn 0.9512 0.2192 -0.2171
vn 0.9669 -0.1277 -0.2207
vn -0.3029 -0.7160 -0.6289
vn -0.9749 -0.0000 0.2225
vn -0.5458 0.7160 -0.4352
vn 0.2317 0.9714 0.0529
vn -0.1379 -0.9900 0.0315
vn 0.4355 0.8947 0.0994
vn 0.6172 0.7741 0.1409
vn 0.7681 0.6158 0.1753
vn 0.8812 0.4278 0.2011
vn 0.9512 0.2192 0.2171
vn 0.9669 -0.1277 0.2207
vn -0.5458 -0.7160 -0.4352
vn 0.7754 -0.1277 0.6184
vn 0.6364 -0.5809 0.5075
vn 0.4022 -0.8576 0.3207
vn 0.2333 -0.9545 0.1860
vn 0.1106 -0.9900 0.0882
vn -0.2909 -0.9545 0.0664
vn 0.1858 0.9714 0.1481
vn -0.5015 -0.8576 0.1145
vn 0.3492 0.8947 0.2785
vn 0.4949 0.7741 0.3947
vn 0.6160 0.6158 0.4912
vn 0.7067 0.4278 0.5636
vn 0.7628 0.2192 0.6083
vn 0.9749 -0.0000 -0.2225
vn 0.1379 -0.9900 0.0315
vn 0.2909 -0.9545 0.0664
vn 0.5015 -0.8576 0.1145
vn 0.7935 -0.5809 0.1811
vn -0.7935 -0.5809 0.1811
vn 0.1031 0.9714 0.2141
vn -0.9669 -0.1277 0.2207
vn 0.1938 0.8947 0.4024
vn 0.2747 0.7741 0.5704
vn 0.3418 0.6158 0.7098
vn 0.3922 0.4278 0.8144
vn 0.4233 0.2192 0.8791
vn 0.7818 -0.0000 -0.6235
vn -0.6806 0.7160 -0.1553
vn -0.0000 -0.7246 -0.6892
vn -0.7818 -0.0000 0.6235
vn -0.0000 0.9714 0.2376
vn -0.6806 -0.7160 -0.1553
vn -0.0000 0.8947 0.4467
vn -0.0000 0.7741 0.6330
vn -0.0000 0.6158 0.7879
vn -0.0000 0.4278 0.9039
vn -0.0000 0.2192 0.9757
vn -0.6806 0.7160 0.1553
vn -0.6806 -0.7160 0.1553
vn -0.1031 0.9714 0.2141
vn -0.5458 0.7160 0.4352
vn -0.1938 0.8947 0.4024
vn -0.2747 0.7741 0.5704
vn -0.3418 0.6158 0.7098
vn -0.3922 0.4278 0.8144
vn -0.4233 0.2192 0.8791
vn -0.4303 -0.1277 0.8936
vn 0.7935 -0.5809 -0.1811
vn 0.5015 -0.8576 -0.1145
vn 0.2909 -0.9545 -0.0664
vn 0.1379 -0.9900 -0.0315
vn -0.7754 -0.1277 0.6184
vn -0.1858 0.9714 0.1481
vn -0.6364 -0.5809 0.5075
vn -0.3492 0.8947 0.2785
vn -0.4949 0.7741 0.3947
vn -0.6160 0.6158 0.4912
vn -0.7067 0.4278 0.5636
vn -0.7628 0.2192 0.6083
vn 0.1106 -0.9900 -0.0882
vn 0.2333 -0.9545 -0.1860
vn 0.4022 -0.8576 -0.3207
vn 0.6364 -0.5809 -0.5075
vn 0.4339 -0.0000 -0.9010
vn -0.4022 -0.8576 0.3207
vn -0.2317 0.9714 0.0529
vn -0.2333 -0.9545 0.1860
vn -0.4355 0.8947 0.0994
vn -0.6172 0.7741 0.1409
vn -0.7681 0.6158 0.1753
vn -0.8812 0.4278 0.2011
vn -0.9512 0.2192 0.2171
vn -0.5458 -0.7160 0.4352
vn -0.3029 0.7160 0.6289
vn -0.4339 -0.0000 0.9010
vn -0.1106 -0.9900 0.0882
vn -0.2317 0.9714 -0.0529
vn -0.4355 0.8947 -0.0994
vn -0.6172 0.7741 -0.1409
vn -0.7681 0.6158 -0.1753
vn -0.8812 0.4278 -0.2011
vn -0.9512 0.2192 -0.2171
vn -0.9669 -0.1277 -0.2207
vn -0.0000 0.7246 -0.6892
vn -0.3029 -0.7160 0.6289
vn 0.3532 -0.5809 -0.7333
vn 0.2232 -0.8576 -0.4635
vn -0.1858 0.9714 -0.1481
vn -0.3492 0.8947 -0.2785
vn -0.4949 0.7741 -0.3947
vn -0.6160 0.6158 -0.4912
vn -0.7067 0.4278 -0.5636
vn -0.7628 0.2192 -0.6083
vn -0.7754 -0.1277 -0.6184
vn 0.1295 -0.9545 -0.2688
vn 0.0614 -0.9900 -0.1274
vn -0.0000 -0.0000 1.0000
vn -0.0000 -0.9900 -0.1414
vn -0.0000 -0.9545 -0.2984
vn 0.6554 -0.7246 0.2130
vn -0.1031 0.9714 -0.2141
vn -0.1938 0.8947 -0.4024
vn -0.2747 0.7741 -0.5704
vn -0.3418 0.6158 -0.7098
vn -0.3922 0.4278 -0.8144
vn -0.4233 0.2192 -0.8791
vn -0.4303 -0.1277 -0.8936
vn -0.0000 -0.8576 -0.5144
vn -0.0000 -0.5809 -0.8139
vn -0.0000 0.7160 0.6981
vn -0.0000 -0.7160 0.6981
vn -0.0614 -0.9900 0.1274
vn -0.0000 0.7741 -0.6330
vn -0.1295 -0.9545 0.2688
vn -0.2232 -0.8576 0.4635
vn -0.3532 -0.5809 0.7333
vn -0.0000 -0.0000 -1.0000
vn 0.3029 0.7160 0.6289
vn 0.4339 -0.0000 0.9010
vn 0.3029 -0.7160 0.6289
vn -0.2909 -0.9545 -0.0664
vn -0.5015 -0.8576 -0.1145
vn -0.7935 -0.5809 -0.1811
vn 0.6554 0.7246 0.2130
vn -0.1106 -0.9900 -0.0882
vn 0.7818 -0.0000 0.6235
vn 0.5458 0.7160 0.4352
vn -0.2333 -0.9545 -0.1860
vn -0.4022 -0.8575 -0.3207
vn -0.6364 -0.5809 -0.5075
vn -0.8913 0.4217 -0.1663
vn -0.2887 0.9545 -0.0743
vn -0.0614 -0.9900 -0.1274
vn 0.5458 -0.7160 0.4352
vn -0.1295 -0.9545 -0.2688
vn -0.2232 -0.8576 -0.4635
vn -0.3532 -0.5809 -0.7333
vn 0.6806 0.7160 0.1553
vn 0.9749 -0.0000 0.2225
vn 0.4051 -0.7246 -0.5575
vn 0.6554 -0.7246 -0.2130
vn -0.7818 -0.0000 -0.6235
vn -0.4339 -0.0000 -0.9010
vn 0.5878 -0.0000 -0.8090
vn 0.9511 -0.0000 -0.3090
vn 0.9511 -0.0000 0.3090
vn 0.5878 -0.0000 0.8090
vn -0.5878 -0.0000 0.8090
vn -0.9511 -0.0000 0.3090
vn -0.9511 -0.0000 -0.3090
vn -0.5878 -0.0000 -0.8090
vn -0.4067 -0.5817 -0.7044
vn -0.3645 -0.8185 0.4441
vn -0.8376 -0.4002 0.3719
vn 0.4067 0.5817 0.7044
vn 0.6806 -0.7160 0.1553
vn 0.9578 -0.2528 0.1366
vn 0.5939 -0.7941 -0.1293
vn 0.1275 -0.9539 0.2719
vn 0.4067 0.5817 0.7045
vn 0.6361 0.6469 -0.4205
vn 0.5564 0.0773 -0.8273
vn 0.7413 -0.4397 -0.5071
vn -0.4067 0.5817 0.7044
vn 0.6806 0.7160 -0.1553
vn -0.1293 0.9249 -0.3575
vn 0.4067 -0.5817 -0.7044
vn 0.3808 0.5915 -0.7107
vn 0.8472 0.4317 -0.3095
vn -0.9526 0.1971 -0.2318
vn -0.5842 0.0378 -0.8107
vn -0.1111 0.4561 -0.8830
vn 0.6806 -0.7160 -0.1553
vn -0.6498 -0.5308 0.5440
vn -0.5668 -0.8185 -0.0936
vn -0.7408 -0.4002 -0.5394
vn 0.3606 -0.2528 0.8978
vn 0.4090 -0.7941 0.4497
vn -0.1717 -0.9539 0.2463
vn -0.4068 0.5817 0.7044
vn 0.4051 -0.7246 0.5575
vn 0.6823 0.6469 0.3406
vn 0.9947 0.0773 0.0682
vn 0.8098 -0.4397 0.3884
vn -0.8134 0.5817 -0.0000
vn -0.0000 -0.7246 0.6892
vn 0.2449 0.9249 -0.2907
vn 0.8134 -0.5817 -0.0000
vn 0.8059 0.5915 -0.0255
vn 0.6917 0.4317 0.5790
vn -0.2756 0.1971 -0.9409
vn 0.4100 0.0378 -0.9113
vn 0.7091 0.4561 -0.5377
vn -0.7961 -0.5308 -0.2907
vn -0.2024 -0.8185 -0.5377
vn 0.0967 -0.4002 -0.9113
vn 0.5458 0.7160 -0.4352
vn -0.5973 -0.2528 0.7612
vn -0.1849 -0.7941 0.5790
vn -0.2992 -0.9539 -0.0255
vn 0.0461 0.6469 0.7612
vn 0.4382 0.0773 0.8955
vn 0.0685 -0.4397 0.8955
vn -0.4067 0.5817 -0.7044
vn 0.6554 0.7246 -0.2130
vn 0.3743 0.9249 0.0667
vn 0.4067 -0.5817 0.7044
vn 0.4251 0.5915 0.6852
vn -0.1556 0.4317 0.8885
vn 0.4051 0.7246 -0.5575
vn 0.6770 0.1971 -0.7091
vn 0.9942 0.0378 -0.1006
vn 0.8202 0.4561 0.3453
vn -0.1462 -0.5308 -0.8348
vn 0.3645 -0.8185 -0.4441
vn 0.8376 -0.4002 -0.3719
vn -0.9578 -0.2528 -0.1367
vn -0.5939 -0.7941 0.1293
vn -0.1275 -0.9539 -0.2719
vn 0.5458 -0.7160 -0.4352
vn -0.6361 0.6469 0.4205
vn -0.5564 0.0773 0.8273
vn -0.7413 -0.4397 0.5071
vn 0.4067 0.5817 -0.7044
vn 0.1293 0.9249 0.3575
vn -0.4067 -0.5817 0.7044
vn -0.3808 0.5915 0.7107
vn -0.8472 0.4317 0.3095
vn 0.3029 0.7160 -0.6289
vn 0.9526 0.1971 0.2318
vn 0.5842 0.0378 0.8107
vn 0.1111 0.4561 0.8830
vn -0.0000 0.7160 -0.6981
vn 0.6498 -0.5308 -0.5440
vn 0.5668 -0.8185 0.0936
vn 0.7408 -0.4002 0.5394
vn -0.3606 -0.2528 -0.8978
vn -0.4090 -0.7941 -0.4497
vn 0.1717 -0.9539 -0.2463
vn 0.4068 0.5817 -0.7044
vn -0.6823 0.6469 -0.3407
vn -0.9947 0.0773 -0.0682
vn -0.8098 -0.4397 -0.3884
vn 0.8134 0.5817 -0.0000
vn -0.0000 -0.7160 -0.6981
vn -0.2449 0.9249 0.2907
vn -0.8134 -0.5817 -0.0000
vn -0.8059 0.5915 0.0255
vn -0.6917 0.4317 -0.5790
vn 0.3029 -0.7160 -0.6289
vn 0.2756 0.1971 0.9409
vn -0.4100 0.0378 0.9113
vn -0.7091 0.4561 0.5377
vn 0.7961 -0.5308 0.2907
vn 0.2024 -0.8185 0.5377
vn -0.0967 -0.4002 0.9113
vn 0.5973 -0.2528 -0.7612
vn 0.1849 -0.7941 -0.5790
vn 0.2992 -0.9539 0.0255
vn -0.0000 0.7246 0.6892
vn -0.0461 0.6469 -0.7612
vn -0.4382 0.0773 -0.8955
vn -0.0685 -0.4397 -0.8955
vn 0.4051 0.7246 0.5575
vn -0.3743 0.9249 -0.0667
vn -0.4251 0.5915 -0.6852
vn 0.1556 0.4317 -0.8885
vn -0.6770 0.1971 0.7091
vn -0.9942 0.0378 0.1006
vn -0.8202 0.4561 -0.3453
vn 0.1462 -0.5308 0.8348
vn 0.0700 0.0924 -0.9933
vn -0.6741 0.1532 0.7226
vn 0.6597 0.7510 -0.0281
vn -0.0800 0.9545 -0.2871
vn 0.0990 -0.0595 0.9933
vn -0.3016 0.4217 -0.8551
vn 0.5646 -0.4037 0.7199
vn 0.8952 0.0924 -0.4360
vn 0.2087 0.9545 -0.2128
vn 0.5897 0.4217 -0.6888
vn 0.3011 -0.1111 -0.9471
vn -0.3412 -0.4037 0.8489
vn 0.3452 -0.7479 0.5670
vn 0.2758 -0.9606 -0.0328
vn -0.9628 0.1532 -0.2225
vn -0.1663 -0.9606 -0.2225
vn -0.5646 -0.4037 -0.7199
vn 0.9707 -0.1111 -0.2128
vt 0.000000 0.467617
vt 0.254418 0.528304
vt 0.000000 0.586374
vt 0.072411 0.150363
vt 0.000000 0.000000
vt 0.130480 0.104055
vt 0.000000 0.166891
vt 0.141191 0.293187
vt 0.000000 0.325413
vt -0.344662 -0.274858
vt -0.225952 -0.051572
vt -0.181199 -0.144502
vt 0.100558 -0.208811
vt -0.000000 -0.231763
vt -0.191273 -0.397182
vt -0.100558 -0.208811
vt 0.000000 0.966891
vt 0.325413 0.800000
vt 0.000000 0.800000
vt 0.202892 0.421309
vt 0.458445 0.365598
vt -0.591550 -0.135017
vt -0.429786 -0.098096
vt 0.000000 1.125413
vt 0.317254 0.966891
vt 0.000000 1.267617
vt 0.293187 1.125413
vt 0.254418 1.267617
vt 0.528304 1.125413
vt -0.914303 1.787167
vt -0.889998 1.780346
vt -0.910493 1.761119
vt -0.444730 0.707295
vt -0.166891 0.800000
vt -0.158722 0.707295
vt -0.000000 -0.440839
vt -0.263265 -0.546674
vt 0.365598 0.291555
vt -1.056708 1.790841
vt -1.050529 1.768463
vt -1.033533 1.792229
vt -0.269673 -0.014736
vt -0.287797 -0.032022
vt -0.293049 -0.004234
vt 0.254418 0.202892
vt 0.571672 0.966891
vt 0.586374 0.800000
vt -0.528285 0.910266
vt -0.534180 0.885012
vt -0.507489 0.894358
vt -0.014736 1.246048
vt -0.004234 1.268709
vt -0.032022 1.261365
vt -0.243292 1.209159
vt -0.249471 1.231537
vt -0.266467 1.207771
vt 0.325413 0.800000
vt -0.000000 0.707295
vt 0.309486 0.707295
vt 0.571672 0.130480
vt 0.455893 0.966891
vt 0.166891 0.800000
vt 0.467617 0.800000
vt 0.455893 0.104055
vt 0.421309 1.125413
vt 0.162706 0.966891
vt 0.191273 -0.397182
vt 0.365598 1.267617
vt 0.150363 1.125413
vt 0.317254 0.072411
vt 0.263264 -0.546674
vt -0.121217 1.246048
vt -0.115112 1.268709
vt -0.141803 1.261365
vt -0.524171 -0.912641
vt -0.499353 -0.905120
vt -0.520792 -0.886678
vt 0.162706 0.037137
vt 0.104055 1.386374
vt -0.130480 1.267617
vt 0.130480 1.267617
vt -0.166891 0.800000
vt 0.317254 -0.072411
vt 0.455893 -0.104055
vt -0.162706 0.966891
vt 0.586373 0.800000
vt 0.557674 0.707295
vt -0.150363 1.125413
vt 0.309486 -0.642654
vt -0.000000 -0.606763
vt 0.147598 -0.226175
vt 0.171631 -0.233228
vt 0.150191 -0.251671
vt 0.474386 -0.378310
vt 0.344662 -0.274859
vt 0.162706 -0.037137
vt 0.181199 -0.144502
vt -0.309486 0.707295
vt -0.586374 0.800000
vt -0.557675 0.707295
vt -0.467617 0.800000
vt 0.254418 -0.202892
vt 0.365598 -0.291555
vt -0.455893 0.966891
vt -0.421309 1.125413
vt -1.052456 -0.002375
vt -1.033533 -0.020108
vt -1.028281 0.007680
vt 0.130480 -0.104055
vt 0.557674 -0.444731
vt 0.458445 -0.365598
vt 0.571672 -0.130480
vt -0.309486 -0.642654
vt -0.474386 -0.378310
vt 0.317254 0.966891
vt 0.202891 -0.421309
vt 0.528304 1.125413
vt 0.571672 0.966891
vt -0.444731 0.707295
vt -0.158723 0.707295
vt 0.458445 1.267617
vt 0.293187 1.125413
vt 0.141191 -0.293187
vt 0.591550 -0.135017
vt 0.429786 -0.098096
vt -0.234540 1.209159
vt -0.245380 1.231537
vt -0.260099 1.207771
vt 0.072411 -0.150363
vt 0.225952 -0.051572
vt 0.695409 -0.158723
vt 0.254418 -0.528304
vt -0.000000 0.966891
vt -0.000000 0.800000
vt -0.000000 -0.325413
vt -0.000000 -0.467617
vt 0.225952 0.051572
vt -0.000000 1.267617
vt -0.000000 1.125413
vt -0.532425 -0.909751
vt -0.542540 -0.889998
vt -0.000000 -0.166891
vt 0.202891 1.386374
vt 0.254418 1.267617
vt -0.202892 -0.421309
vt -0.317254 0.966891
vt -0.293187 1.125413
vt -0.141191 -0.293187
vt -0.521698 1.790841
vt -0.507851 1.768463
vt -0.499353 1.792229
vt 0.695409 0.158722
vt 0.591550 0.135017
vt -0.072411 -0.150363
vt 0.158722 0.707295
vt -0.254418 -0.528304
vt -0.000000 -0.586373
vt -1.054080 0.006218
vt -1.042031 0.024854
vt -0.325413 0.800000
vt 0.557675 0.444731
vt 0.474386 0.378310
vt -0.254418 1.267617
vt -0.528304 1.125413
vt -0.130480 -0.104055
vt -0.254418 -0.202891
vt 0.429786 0.098096
vt 0.344662 0.274859
vt -0.458445 -0.365598
vt -0.365598 -0.291555
vt -0.571672 0.966891
vt -0.365598 1.267617
vt -0.150363 1.125413
vt -0.421308 1.125413
vt -0.317254 -0.072411
vt 0.181199 0.144502
vt 0.444731 0.707295
vt -0.162706 -0.037137
vt -0.122075 -0.240911
vt -0.116166 -0.265250
vt -0.142857 -0.255905
vt -0.571672 -0.130480
vt -0.521655 0.915969
vt -0.499491 0.914853
vt -0.467617 0.800000
vt -0.162706 0.966891
vt -0.455893 -0.104055
vt -0.455893 0.966891
vt 0.100558 0.208811
vt -0.317254 0.072411
vt -0.528423 1.784896
vt -0.534542 1.761119
vt -0.162706 0.037137
vt -0.104055 1.386374
vt 0.130481 1.267617
vt -0.130480 1.267617
vt -0.000000 -0.713292
vt 0.166891 0.800000
vt -0.455893 0.104055
vt 0.162707 0.966891
vt 0.191273 0.397182
vt 0.150364 1.125413
vt 0.309486 0.707295
vt 0.557675 0.707295
vt 0.000000 0.707295
vt -0.130480 0.104055
vt 0.309486 0.642654
vt 0.263264 0.546674
vt 0.000000 0.440839
vt 0.000000 0.231763
vt -0.571672 0.130481
vt -0.365598 0.291555
vt -0.458445 0.365598
vt 0.467617 0.800000
vt 0.455893 0.966891
vt 0.421309 1.125413
vt -0.254418 0.202892
vt -0.163208 -0.205528
vt -0.176116 -0.227295
vt -0.184114 -0.206801
vt -0.072411 0.150363
vt 0.000000 0.606763
vt -0.254418 0.528304
vt -0.571672 0.966891
vt -0.325413 0.800000
vt -0.586373 0.800000
vt -0.202891 0.421309
vt -0.528304 1.125413
vt -0.317254 0.966891
vt 0.000000 0.713292
vt -0.458445 1.267617
vt -0.293187 1.125413
vt -0.141191 0.293187
vt -0.557675 -0.444730
vt 0.096388 -0.244106
vt 0.108785 -0.266169
vt 0.087037 -0.262848
vt -0.225952 0.051572
vt 0.162943 1.209159
vt 0.175540 1.231537
vt 0.184038 1.207771
vt -0.429786 0.098096
vt -0.259596 0.038578
vt -0.284901 0.038873
vt -0.271152 0.056047
vt -0.917630 1.784896
vt -0.918173 1.761119
vt -0.899731 1.768463
vt -0.695409 -0.158722
vt -0.591550 0.135018
vt 0.158723 0.707295
vt -0.181199 0.144502
vt -0.344662 0.274859
vt -0.002375 1.784896
vt 0.007680 1.761119
vt -0.020108 1.768463
vt 0.444731 0.707295
vt -0.557674 0.444731
vt -0.474386 0.378311
vt -0.195219 1.246048
vt -0.195145 1.268709
vt -0.213587 1.261365
vt -0.146904 1.231958
vt -0.170932 1.238088
vt -0.149184 1.257316
vt -0.100558 0.208811
vt -0.557674 0.707295
vt -0.309486 0.707295
vt 0.038578 1.231958
vt 0.056047 1.238088
vt 0.038873 1.257316
vt -0.263264 0.546674
vt -0.191273 0.397182
vt -0.911293 1.790842
vt -0.885012 1.792229
vt 0.006218 1.787167
vt 0.024854 1.780346
vt 0.215867 1.231958
vt 0.240015 1.238088
vt 0.219520 1.257316
vt -0.524283 1.787167
vt -0.499491 1.780346
vt -0.521239 1.761119
vt -0.096388 0.244106
vt -0.108785 0.266168
vt -0.087037 0.262848
vt 0.917630 1.784896
vt 0.918173 1.761119
vt 0.899731 1.768463
vt -0.147598 0.226175
vt -0.171631 0.233228
vt -0.150191 0.251671
vt 0.911293 1.790842
vt 0.885012 1.792229
vt -0.162943 1.209159
vt -0.175540 1.231537
vt -0.184038 1.207771
vt 0.524171 0.912641
vt 0.499353 0.905120
vt 0.520792 0.886678
vt 0.195219 1.246048
vt 0.195145 1.268709
vt 0.213587 1.261365
vt 0.532425 0.909751
vt 0.542540 0.889998
vt 0.146904 1.231958
vt 0.170932 1.238088
vt 0.149184 1.257316
vt 0.914303 1.787167
vt 0.889998 1.780346
vt 0.910493 1.761119
vt 0.163208 0.205528
vt 0.176116 0.227295
vt 0.184114 0.206801
vt 0.528423 1.784896
vt 0.534542 1.761119
vt 0.507851 1.768463
vt 0.122075 0.240911
vt 0.116166 0.265250
vt 0.142857 0.255905
vt 0.521698 1.790842
vt 0.499353 1.792229
vt 0.234540 1.209159
vt 0.245380 1.231537
vt 0.260099 1.207771
vt 1.052456 0.002375
vt 1.033533 0.020108
vt 1.028281 -0.007680
vt 0.014736 1.246048
vt 0.004234 1.268709
vt 0.032022 1.261365
vt 1.054080 -0.006218
vt 1.042031 -0.024854
vt -0.038578 1.231958
vt -0.056047 1.238088
vt -0.038873 1.257316
vt -0.006218 1.787167
vt -0.024854 1.780346
vt -0.007680 1.761119
vt 0.259596 -0.038578
vt 0.284901 -0.038873
vt 0.271152 -0.056047
vt 0.002375 1.784896
vt 0.020108 1.768463
vt 0.269673 0.014736
vt 0.287797 0.032022
vt 0.293049 0.004234
vt 1.056708 1.790841
vt 1.050529 1.768463
vt 1.033533 1.792229
vt 0.243292 1.209159
vt 0.249471 1.231537
vt 0.266467 1.207771
vt 0.528285 -0.910266
vt 0.534180 -0.885012
vt 0.507489 -0.894358
vt 0.121217 1.246048
vt 0.115112 1.268709
vt 0.141803 1.261365
vt 0.521655 -0.915969
vt 0.499491 -0.914852
vt -0.215867 1.231958
vt -0.240015 1.238088
vt -0.219520 1.257316
vt 0.524283 1.787167
vt 0.499491 1.780346
vt 0.521239 1.761119
vt 0.235114 -0.323607
vt 0.000000 -0.381018
vt 0.000000 -0.400000
vt 0.339073 0.704092
vt 0.000000 0.781483
vt 0.347107 0.720775
vt 0.625465 0.498792
vt 0.380423 0.123607
vt 0.223957 0.308250
vt 0.362370 0.117741
vt 0.610988 0.487247
vt 0.223957 -0.308250
vt 0.779942 0.178017
vt 0.761890 0.173896
vt 0.779942 -0.178017
vt 0.235114 0.323607
vt 0.761890 -0.173896
vt 0.625465 -0.498792
vt -0.535010 0.911293
vt 0.610988 -0.487247
vt 0.362370 -0.117741
vt 0.339073 -0.704092
vt 0.347107 -0.720775
vt 0.000000 -0.800000
vt 0.000000 -0.781483
vt 0.380423 -0.123607
vt -0.339073 -0.704092
vt -0.000000 -0.781483
vt 0.000000 0.400000
vt -0.347107 -0.720775
vt -0.625465 -0.498792
vt -0.610988 -0.487247
vt -0.779942 -0.178017
vt -0.761890 -0.173896
vt -0.779942 0.178017
vt 0.000000 0.381018
vt -0.761890 0.173896
vt -0.625465 0.498792
vt 0.542678 -0.899731
vt 0.521239 -0.918173
vt -0.610988 0.487247
vt -0.339073 0.704092
vt -0.347107 0.720775
vt -0.000000 0.781483
vt -0.235114 -0.323607
vt -0.223957 -0.308250
vt -0.362370 -0.117741
vt -0.380423 -0.123607
vt -0.380423 0.123607
vt -0.362370 0.117741
vt -0.223957 0.308250
vt -0.235114 0.323607
vt 0.244786 1.238088
vt 0.259596 1.186359
vt 0.271152 1.201219
vt 0.535010 -0.911293
vt 0.521655 1.794516
vt 0.532537 1.784896
vt 1.050529 0.020108
vt 1.055781 -0.007680
vt 0.231037 1.257316
vt 1.042031 1.780346
vt 1.028281 1.799574
vt -0.244106 1.186359
vt -0.262848 1.201219
vt -0.520792 1.799574
vt -0.542540 1.780346
vt 0.081853 1.257316
vt 0.080084 1.231958
vt -0.914852 1.780346
vt -0.894358 1.799574
vt 0.080349 0.234540
vt 0.082429 0.260099
vt 1.055781 1.761119
vt 0.507851 0.919839
vt 0.534542 0.910493
vt -0.095695 1.246048
vt -0.227295 1.181992
vt 0.184038 -0.201435
vt 0.162943 -0.186854
vt -0.086339 -0.213587
vt -0.521698 -0.918979
vt -0.909751 1.794516
vt -0.535052 1.787167
vt -1.042031 1.780346
vt -0.284901 1.181992
vt -1.055781 1.761119
vt -0.163208 1.186359
vt -0.184114 1.201219
vt -1.056708 -0.007685
vt -1.059336 1.787167
vt -1.054080 1.794516
vt -0.186716 1.231537
vt -0.201435 1.207771
vt -0.534542 -0.910493
vt -0.507851 -0.919839
vt 0.905120 1.792229
vt -0.919839 1.768463
vt -0.231037 1.257316
vt -1.028281 1.799574
vt -0.244786 1.238088
vt -0.259596 1.186359
vt -0.271152 1.201219
vt 1.059336 1.787167
vt 1.054080 1.794516
vt -0.087037 1.201219
vt 0.894358 1.799574
vt 0.914853 1.780346
vt -0.081853 1.257316
vt -0.080084 1.231958
vt -0.521655 1.794516
vt 0.244106 1.186359
vt 0.262848 1.201219
vt 0.087037 1.201219
vt -0.532536 1.784896
vt 0.095695 1.246048
vt 0.206801 1.201219
vt 0.086338 0.213587
vt 0.521698 0.918979
vt -0.228141 -0.032022
vt -0.058664 1.231537
vt 0.115112 -0.190911
vt 0.542540 1.780346
vt 0.520792 1.799574
vt 0.909751 1.794516
vt 1.056708 0.007686
vt 0.535052 1.787167
vt -0.141803 0.181565
vt -0.007685 1.790841
vt 0.163208 1.186359
vt 0.184114 1.201219
vt 0.201435 1.207771
vt 0.186716 1.231537
vt -0.080349 -0.234540
vt -0.082429 -0.260099
vt -0.243292 -0.047686
vt -0.266467 -0.058664
vt -0.184038 0.201435
vt -0.162943 0.186854
vt 0.266467 0.058664
vt 0.243292 0.047686
vt 0.007686 1.790841
vt -1.050529 -0.020108
vt -1.055781 0.007680
vt 0.222889 0.004234
vt -0.542678 0.899731
vt -0.521239 0.918173
vt 0.058664 1.231537
vt 0.000000 0.231947
vt 0.347107 0.018053
vt 0.000000 0.018053
vt -0.347107 0.231947
vt -0.347107 0.018053
vt 0.347107 0.231947
vt 0.625465 0.018053
vt 0.498792 0.231947
vt 0.178017 0.018053
vt 0.498792 0.018053
vt 0.178017 0.231947
vt -0.178017 0.018053
vt -0.178017 0.231947
vt -0.498792 0.018053
vt 0.625465 0.231947
vt 0.625465 0.018053
vt -0.625465 0.018053
vt -0.498792 0.231947
vt -0.178017 0.018053
vt -0.498792 0.018053
vt 0.178017 0.018053
vt 0.498792 0.018053
vt -0.625465 0.231947
vt -0.625465 0.018053
vt 0.000000 0.781947
vt 0.235114 0.218053
vt 0.000000 0.218053
vt -0.235114 0.781947
vt -0.235114 0.218053
vt 0.323607 0.781947
vt 0.123607 0.218053
vt 0.323607 0.218053
vt 0.123607 0.781947
vt -0.123607 0.218053
vt -0.123607 0.781947
vt -0.323607 0.218053
vt 0.235114 0.781947
vt -0.323607 0.781947
vt 0.147598 1.172269
vt 0.528285 1.796787
vt -0.233228 1.177943
vt 0.534180 1.792229
vt -0.524171 1.796787
vt -0.149184 -0.180647
vt -0.107778 -0.195145
vt -0.905120 1.792229
vt -0.080349 1.209159
vt -0.206801 1.201219
vt -0.183967 1.238088
vt -0.082429 1.207771
vt -0.116166 1.177943
vt 0.006218 1.794516
vt -0.231037 0.038873
vt -0.222889 -0.004234
vt -0.228141 1.261365
vt -0.047686 1.209159
vt 0.038578 1.186359
vt -0.287797 1.177943
vt -0.535010 1.790842
vt -0.081853 0.219520
vt -0.115112 0.190911
vt -0.534180 1.792229
vt -0.147598 1.172269
vt -0.096388 1.186359
vt 0.233228 1.177943
vt 0.524171 1.796787
vt 0.149184 0.180647
vt 0.107778 0.195145
vt 0.080349 1.209159
vt 0.183967 1.238088
vt 0.082429 1.207771
vt 0.116166 1.177943
vt -0.006218 1.794516
vt 0.231037 -0.038873
vt 0.228141 1.261365
vt 0.047686 1.209159
vt -0.038578 1.186359
vt 0.287797 1.177943
vt 0.081853 -0.219520
vt 0.458445 1.267617
vt -0.104055 1.386374
vt -0.365598 1.267617
vt -0.000000 1.386374
vt -0.458445 1.267617
vt 0.104055 1.386374
vt 0.365598 1.267617
vt -0.254418 1.267617
vt -0.695409 0.158723
vt -0.309486 0.642654
vt 0.226988 1.231958
vt 0.284901 1.181992
vt -0.107778 1.268709
vt 0.919839 1.768463
vt -0.226988 1.231958
vt -0.108785 1.181992
vt 0.108785 1.181992
vt 0.107778 1.268709
vt 0.227295 1.181992
vt 0.141803 -0.181565
vt 0.228141 0.032022
vt 0.096388 1.186359
vt 0.535010 1.790842
vt -0.532425 1.794516
vt -0.122075 1.172269
vt -0.002375 1.796787
vt -0.014736 1.172269
vt -0.528285 1.796787
vt 0.532425 1.794516
vt 0.122075 1.172269
vt 0.002375 1.796787
vt 0.014736 1.172269
s 1
f 262/1/215 68/2/62 53/3/49
f 64/4/59 2/5/2 79/6/72
f 1/7/1 66/8/60 51/9/47
f 1/7/1 2/5/2 64/4/59
f 200/10/169 110/11/95 213/12/178
f 59/5/54 76/13/69 73/14/67
f 263/15/216 213/12/178 261/16/214
f 55/17/51 71/18/65 56/19/52
f 67/20/61 83/21/75 68/2/62
f 200/10/169 125/22/110 123/23/108
f 54/24/50 70/25/64 55/17/51
f 53/26/49 69/27/63 54/24/50
f 68/28/62 84/29/76 69/27/63
f 16/30/16 384/31/272 390/32/276
f 185/33/156 140/34/123 138/35/121
f 262/1/215 66/8/60 67/20/61
f 72/36/66 264/37/217 263/15/216
f 66/8/60 82/38/74 67/20/61
f 72/36/66 261/16/214 73/14/67
f 12/39/12 426/40/300 432/41/303
f 35/42/35 428/43/301 429/44/302
f 64/4/59 81/45/73 66/8/60
f 69/27/63 85/46/77 70/25/64
f 70/25/64 86/47/78 71/18/65
f 290/48/234 462/49/323 438/50/308
f 3/51/3 410/52/291 411/53/292
f 547/54/380 434/55/304 435/56/305
f 89/57/81 62/58/57 88/59/80
f 82/38/74 98/60/87 83/21/75
f 85/61/77 101/62/90 86/63/78
f 81/45/73 97/64/86 82/38/74
f 84/65/76 100/66/89 85/61/77
f 77/67/70 73/14/67 76/13/69
f 83/68/75 99/69/88 84/65/76
f 79/6/72 96/70/85 81/45/73
f 87/71/79 72/36/66 77/67/70
f 5/72/5 440/73/310 441/74/311
f 26/75/26 402/76/284 378/77/268
f 79/6/72 2/5/2 94/78/84
f 97/79/86 113/80/98 98/81/87
f 264/37/217 200/10/169 263/15/216
f 100/66/89 116/82/101 101/62/90
f 97/64/86 111/83/96 112/84/97
f 99/69/88 115/85/100 100/66/89
f 118/86/103 88/59/80 119/87/104
f 98/81/87 114/88/99 99/69/88
f 94/78/84 111/83/96 96/70/85
f 88/89/80 63/90/58 87/71/79
f 19/91/19 368/92/260 369/93/261
f 120/94/105 77/67/70 121/95/106
f 94/78/84 2/5/2 109/96/94
f 121/95/106 76/13/69 122/97/107
f 265/98/218 183/99/154 185/100/156
f 115/85/100 118/101/103 116/82/101
f 112/84/97 126/102/111 127/103/112
f 114/88/99 130/104/115 115/85/100
f 113/80/98 129/105/114 114/88/99
f 109/96/94 126/102/111 111/83/96
f 13/106/13 432/107/303 408/108/289
f 59/5/54 122/97/107 76/13/69
f 109/96/94 2/5/2 124/109/109
f 119/110/104 87/71/79 120/94/105
f 112/84/97 128/111/113 113/112/98
f 265/113/218 198/114/167 264/37/217
f 118/86/103 145/115/128 89/57/81
f 126/102/111 142/116/125 127/103/112
f 129/117/114 145/115/128 130/118/115
f 116/82/101 119/119/104 137/120/120
f 128/121/113 144/122/127 129/117/114
f 124/109/109 141/123/124 126/102/111
f 136/124/119 121/95/106 135/125/118
f 20/126/20 404/127/285 405/128/286
f 124/109/109 2/5/2 139/129/122
f 59/5/54 134/130/117 122/97/107
f 137/131/120 120/94/105 136/124/119
f 127/103/112 143/132/126 128/111/113
f 89/57/81 160/133/139 61/134/56
f 142/116/125 156/135/135 157/136/136
f 144/122/127 160/133/139 145/115/128
f 59/5/54 180/137/153 134/130/117
f 144/122/127 158/138/137 159/139/138
f 139/129/122 156/135/135 141/123/124
f 27/140/27 378/77/268 384/141/272
f 134/130/117 121/95/106 122/97/107
f 139/129/122 2/5/2 154/142/133
f 180/137/153 135/125/118 134/130/117
f 142/143/125 158/138/137 143/144/126
f 156/135/135 172/145/145 157/136/136
f 159/139/138 175/146/148 160/133/139
f 158/138/137 174/147/147 159/139/138
f 154/142/133 171/148/144 156/135/135
f 17/149/17 396/150/279 402/151/284
f 177/152/150 136/124/119 178/153/151
f 154/142/133 2/5/2 169/154/142
f 101/62/90 137/120/120 177/155/150
f 157/136/136 173/156/146 158/157/137
f 10/158/10 408/108/289 414/159/293
f 160/133/139 176/160/149 61/134/56
f 195/161/165 178/153/151 194/162/164
f 173/163/146 189/164/160 174/147/147
f 171/148/144 184/165/155 186/166/157
f 179/167/152 136/124/119 135/125/118
f 194/162/164 179/167/152 193/168/163
f 169/154/142 2/5/2 184/165/155
f 172/145/145 188/169/159 173/156/146
f 175/146/148 183/99/154 176/160/149
f 172/145/145 186/166/157 187/170/158
f 174/147/147 190/171/161 175/146/148
f 188/172/159 204/173/173 189/174/160
f 184/165/155 201/175/170 186/166/157
f 193/168/163 180/137/153 192/176/162
f 86/63/78 177/155/150 195/177/165
f 184/165/155 2/5/2 199/178/168
f 554/179/387 398/180/280 399/181/281
f 59/5/54 192/176/162 180/137/153
f 187/170/158 203/182/172 188/169/159
f 28/183/28 438/50/308 444/184/313
f 183/185/154 205/186/174 140/34/123
f 186/166/157 202/187/171 187/170/158
f 189/174/160 205/186/174 190/188/161
f 59/5/54 238/189/198 192/176/162
f 199/178/168 216/190/180 201/175/170
f 15/191/15 390/192/276 396/150/279
f 199/178/168 2/5/2 214/193/179
f 202/194/171 218/195/182 203/196/172
f 62/197/57 264/37/217 63/90/58
f 205/186/174 221/198/185 140/34/123
f 202/187/171 216/190/180 217/199/181
f 204/173/173 220/200/184 205/186/174
f 237/201/197 194/162/164 193/168/163
f 204/173/173 218/195/182 219/202/183
f 226/203/188 86/47/78 195/204/165
f 253/205/211 71/18/65 226/203/188
f 237/201/197 192/176/162 238/189/198
f 214/193/179 2/5/2 229/206/190
f 226/207/188 194/162/164 227/208/189
f 242/209/201 238/189/198 241/210/200
f 218/211/182 232/212/192 233/213/193
f 61/134/56 265/98/218 62/58/57
f 220/200/184 236/214/196 221/198/185
f 216/190/180 232/212/192 217/199/181
f 219/202/183 235/215/195 220/200/184
f 218/195/182 234/216/194 219/202/183
f 214/193/179 231/217/191 216/190/180
f 14/218/14 392/219/277 393/220/278
f 229/206/190 2/5/2 244/221/203
f 252/222/210 237/201/197 242/209/201
f 59/5/54 241/210/200 238/189/198
f 232/212/192 248/223/206 233/213/193
f 59/5/54 73/14/67 261/16/214
f 235/224/195 251/225/209 236/226/196
f 231/217/191 247/227/205 232/212/192
f 234/228/194 250/229/208 235/224/195
f 253/230/211 227/208/189 252/222/210
f 233/231/193 249/232/207 234/228/194
f 229/206/190 246/233/204 231/217/191
f 244/221/203 2/5/2 1/7/1
f 247/227/205 53/3/49 248/223/206
f 59/5/54 261/16/214 213/12/178
f 250/229/208 56/19/52 251/225/209
f 247/227/205 51/9/47 262/1/215
f 249/232/207 55/17/51 250/229/208
f 185/234/156 125/22/110 198/114/167
f 249/232/207 53/26/49 54/24/50
f 246/233/204 1/7/1 51/9/47
f 30/235/30 362/236/255 363/237/256
f 59/5/54 213/12/178 110/11/95
f 59/5/54 110/11/95 52/238/48
f 18/239/18 374/240/264 375/241/265
f 125/22/110 274/242/223 123/23/108
f 36/243/36 422/244/297 423/245/298
f 123/23/108 52/238/48 110/11/95
f 32/246/32 540/247/373 366/248/259
f 138/249/121 275/250/224 125/22/110
f 140/34/123 276/251/225 138/35/121
f 274/242/223 280/252/227 52/238/48
f 275/250/224 285/253/230 274/242/223
f 9/254/9 420/255/296 426/256/300
f 276/251/225 236/214/196 287/257/232
f 275/250/224 287/258/232 286/259/231
f 22/260/22 380/261/270 381/262/271
f 59/5/54 52/238/48 280/252/227
f 21/263/21 386/264/273 387/265/274
f 59/5/54 280/252/227 291/266/235
f 287/267/232 251/225/209 298/268/239
f 8/269/8 416/270/294 417/271/295
f 285/253/230 291/266/235 280/252/227
f 285/253/230 297/272/238 296/273/237
f 37/274/37 366/248/259 372/275/263
f 287/258/232 297/272/238 286/259/231
f 251/225/209 253/205/211 298/268/239
f 11/276/11 414/277/293 420/255/296
f 59/5/54 291/266/235 241/210/200
f 297/272/238 242/209/201 296/273/237
f 297/272/238 253/230/211 252/222/210
f 296/273/237 241/210/200 291/266/235
f 4/278/4 446/279/314 447/280/315
f 541/281/374 444/282/313 450/283/316
f 48/284/45 452/285/317 453/286/318
f 29/287/29 450/288/316 456/289/319
f 47/290/44 458/291/320 459/292/321
f 289/293/233 456/289/319 462/294/323
f 552/295/385 464/296/324 465/297/325
f 544/298/377 492/299/343 468/300/327
f 542/301/375 470/302/329 471/303/330
f 543/304/376 468/300/327 474/305/332
f 545/306/378 476/307/333 477/308/334
f 548/309/381 474/310/332 480/311/336
f 553/312/386 482/313/337 483/314/338
f 551/315/384 480/316/336 486/317/339
f 24/318/24 488/319/340 489/320/341
f 546/321/379 486/317/339 492/322/343
f 23/323/23 494/324/344 495/325/345
f 549/326/382 522/327/363 498/328/348
f 555/329/388 500/330/350 501/331/351
f 6/332/6 498/328/348 504/333/353
f 40/334/40 506/335/354 507/336/355
f 7/337/7 504/338/353 510/339/356
f 39/340/39 512/341/357 513/342/358
f 558/343/391 510/339/356 516/344/359
f 556/345/389 518/346/360 519/347/361
f 550/348/383 516/349/359 522/350/363
f 557/351/390 524/352/364 525/353/365
f 38/354/38 372/355/263 528/356/367
f 25/357/25 530/358/368 531/359/369
f 33/360/33 528/356/367 534/361/370
f 31/362/31 536/363/371 537/364/372
f 34/365/34 534/366/370 540/367/373
f 533/368/366 521/369/362 539/370/362
f 515/19/347 503/371/352 497/372/347
f 485/19/335 473/371/331 491/373/331
f 467/374/322 503/371/352 509/373/352
f 455/375/307 443/376/312 437/377/307
f 491/373/331 425/378/299 431/374/299
f 413/370/288 401/379/283 419/368/283
f 395/380/275 461/378/322 467/374/322
f 431/374/299 377/381/267 383/380/267
f 371/382/258 389/381/275 395/380/275
f 312/383/242 310/377/243 309/376/242
f 383/380/267 300/384/240 308/382/240
f 295/385/236 365/384/258 371/382/258
f 462/49/323 290/48/234 289/386/233
f 284/385/229 300/384/240 283/387/229
f 533/368/366 278/388/226 527/379/366
f 295/385/236 272/389/222 294/387/236
f 268/390/220 283/387/229 267/389/220
f 258/391/213 272/389/222 273/390/222
f 256/391/212 267/389/220 255/392/212
f 245/393/202 401/379/283 243/388/202
f 258/391/213 224/394/187 257/395/213
f 223/396/186 443/376/312 449/383/312
f 256/391/212 209/394/176 212/397/176
f 208/398/175 224/394/187 230/397/187
f 212/397/176 170/399/143 197/398/143
f 168/400/141 207/399/175 208/398/175
f 197/398/143 164/401/140 165/400/140
f 455/375/307 278/388/226 279/393/226
f 163/402/134 166/401/141 168/400/141
f 312/383/242 151/403/131 153/396/131
f 165/400/140 149/404/130 150/402/130
f 148/405/102 155/404/134 163/402/134
f 369/93/261 366/406/259 540/407/373
f 107/405/93 149/404/130 106/408/93
f 245/393/202 310/377/243 311/375/243
f 148/405/102 102/409/91 117/408/102
f 93/410/83 106/408/93 92/409/83
f 515/19/347 102/409/91 105/410/91
f 485/19/335 92/409/83 479/411/335
f 91/412/82 407/369/288 413/370/288
f 539/370/362 78/413/71 80/412/71
f 91/412/82 60/414/55 90/413/82
f 58/415/53 78/413/71 57/414/53
f 50/416/46 60/414/55 65/415/55
f 459/292/321 48/284/45 47/290/44
f 58/415/53 45/417/43 46/416/43
f 50/416/46 43/418/42 49/417/46
f 42/419/41 45/417/43 41/418/41
f 153/396/131 43/418/42 44/419/42
f 42/419/41 222/403/186 223/396/186
f 506/420/354 39/421/39 513/422/358
f 372/355/263 38/354/38 37/423/37
f 429/44/302 36/243/36 35/42/35
f 534/366/370 34/365/34 33/424/33
f 540/367/373 32/425/32 34/365/34
f 519/347/361 516/426/359 510/427/356
f 507/428/355 504/429/353 498/430/348
f 536/363/371 30/431/30 363/432/256
f 378/433/268 386/264/273 384/434/272
f 378/77/268 27/140/27 26/75/26
f 537/435/372 25/357/25 31/436/31
f 537/364/372 534/437/370 528/438/367
f 488/319/340 23/439/23 495/440/345
f 513/422/358 510/441/356 504/429/353
f 366/248/259 37/274/37 32/246/32
f 489/320/341 486/442/339 480/443/336
f 387/265/274 22/444/22 21/263/21
f 404/127/285 22/260/22 381/262/271
f 384/31/272 392/445/277 390/32/276
f 375/446/265 19/91/19 18/447/18
f 381/448/271 378/77/268 402/76/284
f 402/76/284 26/75/26 17/449/17
f 384/31/272 16/30/16 27/450/27
f 390/192/276 15/191/15 16/451/16
f 414/452/293 422/453/297 420/454/296
f 386/264/273 14/455/14 393/456/278
f 432/107/303 13/106/13 12/457/12
f 369/93/261 30/235/30 19/91/19
f 414/452/293 11/458/11 10/459/10
f 396/150/279 17/149/17 15/191/15
f 374/460/264 366/248/259 375/461/265
f 390/462/276 398/180/280 396/463/279
f 420/255/296 9/254/9 11/276/11
f 492/464/343 495/325/345 494/324/344
f 432/41/303 435/56/305 434/55/304
f 404/127/285 396/465/279 405/128/286
f 417/466/295 414/452/293 408/467/289
f 416/468/294 36/469/36 423/470/298
f 504/429/353 7/471/7 6/472/6
f 453/473/318 450/283/316 444/282/313
f 438/474/308 446/279/314 444/475/313
f 447/476/315 5/72/5 4/477/4
f 528/356/367 33/360/33 38/354/38
f 410/52/291 8/269/8 417/271/295
f 444/282/313 541/281/374 28/478/28
f 446/279/314 48/479/45 453/480/318
f 363/481/256 540/367/373 534/366/370
f 456/289/319 289/293/233 29/287/29
f 408/108/289 10/158/10 13/106/13
f 450/283/316 29/482/29 541/281/374
f 494/324/344 542/301/375 471/303/330
f 468/300/327 543/304/376 544/298/377
f 477/308/334 542/483/375 545/306/378
f 483/484/338 480/311/336 474/310/332
f 471/485/330 468/300/327 492/299/343
f 492/299/343 544/298/377 546/486/379
f 411/487/292 408/108/289 432/107/303
f 434/488/304 3/51/3 411/53/292
f 372/355/263 530/489/368 528/356/367
f 531/359/369 18/239/18 25/357/25
f 477/308/334 474/490/332 468/491/327
f 474/310/332 548/309/381 543/492/376
f 522/327/363 549/326/382 550/493/383
f 480/316/336 551/315/384 548/494/381
f 441/495/311 438/50/308 462/49/323
f 426/256/300 12/496/12 9/254/9
f 438/50/308 28/183/28 290/48/234
f 441/74/311 552/295/385 5/72/5
f 486/317/339 546/321/379 551/315/384
f 476/307/333 553/497/386 483/498/338
f 462/294/323 465/499/325 464/500/324
f 398/180/280 20/501/20 405/502/286
f 500/330/350 40/334/40 507/336/355
f 399/181/281 14/218/14 554/179/387
f 428/43/301 547/503/380 435/504/305
f 465/505/325 47/290/44 552/506/385
f 525/507/365 556/345/389 557/508/390
f 522/350/363 525/353/365 524/352/364
f 516/344/359 550/509/383 558/343/391
f 512/341/357 556/345/389 519/347/361
f 510/339/356 558/343/391 7/337/7
f 489/320/341 553/312/386 24/318/24
f 429/44/302 426/510/300 420/511/296
f 522/327/363 500/512/350 498/328/348
f 459/292/321 456/513/319 450/514/316
f 524/515/364 555/329/388 501/331/351
f 498/328/348 6/332/6 549/326/382
f 146/381/54 260/395/54 103/404/54
f 266/516/219 225/517/166 288/518/219
f 320/519/245 288/518/219 318/520/245
f 315/408/2 211/394/2 304/384/2
f 196/521/166 167/522/129 225/517/166
f 147/523/129 131/524/116 167/525/129
f 301/526/116 306/527/241 131/524/116
f 303/528/241 293/529/228 306/527/241
f 282/530/228 271/517/221 293/531/228
f 269/521/221 259/518/199 271/517/221
f 239/516/199 215/520/177 259/518/199
f 210/519/177 181/532/132 215/520/177
f 152/533/132 132/534/92 181/535/132
f 104/528/92 95/536/68 132/534/92
f 74/526/68 314/537/244 95/536/68
f 316/538/244 318/520/245 314/539/244
f 349/414/54 325/376/54 333/388/54
f 324/540/219 326/541/246 322/542/219
f 360/543/253 322/542/219 358/544/253
f 347/413/2 331/377/2 323/403/2
f 328/545/246 330/546/247 326/547/246
f 332/548/247 334/549/248 330/546/247
f 336/550/248 338/551/249 334/549/248
f 340/552/249 342/542/199 338/541/249
f 344/540/199 346/544/250 342/542/199
f 348/553/250 350/549/251 346/551/250
f 352/550/251 354/546/252 350/549/251
f 356/548/252 358/547/253 354/546/252
f 535/436/254 373/239/254 367/554/254
f 369/93/261 540/407/373 362/236/255
f 363/432/256 534/437/370 536/363/371
f 364/425/257 526/555/257 532/424/257
f 375/461/265 366/248/259 368/556/260
f 531/359/369 372/557/263 374/240/264
f 376/558/266 388/451/266 394/191/266
f 387/559/274 378/77/268 380/560/270
f 381/262/271 402/561/284 404/127/285
f 403/562/269 391/455/269 385/263/269
f 393/563/278 384/31/272 386/564/273
f 399/181/281 390/462/276 392/219/277
f 405/565/286 396/150/279 398/566/280
f 412/567/287 424/254/287 430/496/287
f 417/568/295 408/108/289 410/569/291
f 411/570/292 432/41/303 434/55/304
f 433/571/290 421/572/290 415/269/290
f 423/470/298 414/452/293 416/468/294
f 429/44/302 420/511/296 422/244/297
f 435/56/305 426/40/300 428/573/301
f 442/478/306 454/482/306 460/574/306
f 447/575/315 438/50/308 440/576/310
f 441/74/311 462/577/323 464/296/324
f 439/72/309 457/578/309 451/579/309
f 453/480/318 444/475/313 446/279/314
f 459/292/321 450/514/316 452/285/317
f 465/499/325 456/289/319 458/580/320
f 466/581/326 478/494/326 484/315/326
f 477/582/334 468/300/327 470/583/329
f 471/303/330 492/464/343 494/324/344
f 493/584/328 481/497/328 475/306/328
f 483/484/338 474/310/332 476/585/333
f 489/320/341 480/443/336 482/313/337
f 495/586/345 486/317/339 488/587/340
f 502/588/346 514/343/346 520/509/346
f 507/589/355 498/328/348 500/512/350
f 501/590/351 522/350/363 524/352/364
f 523/591/349 511/592/349 505/334/349
f 513/422/358 504/429/353 506/420/354
f 519/347/361 510/427/356 512/341/357
f 525/353/365 516/349/359 518/593/360
f 537/594/372 528/356/367 530/489/368
f 262/1/215 67/20/61 68/2/62
f 1/7/1 64/4/59 66/8/60
f 200/10/169 123/23/108 110/11/95
f 263/15/216 200/10/169 213/12/178
f 55/17/51 70/25/64 71/18/65
f 67/20/61 82/38/74 83/21/75
f 200/10/169 198/114/167 125/22/110
f 54/24/50 69/27/63 70/25/64
f 53/26/49 68/28/62 69/27/63
f 68/28/62 83/595/75 84/29/76
f 185/33/156 183/185/154 140/34/123
f 262/1/215 51/9/47 66/8/60
f 72/36/66 63/90/58 264/37/217
f 66/8/60 81/45/73 82/38/74
f 72/36/66 263/15/216 261/16/214
f 64/4/59 79/6/72 81/45/73
f 69/27/63 84/29/76 85/46/77
f 70/25/64 85/46/77 86/47/78
f 89/57/81 61/134/56 62/58/57
f 82/38/74 97/64/86 98/60/87
f 85/61/77 100/66/89 101/62/90
f 81/45/73 96/70/85 97/64/86
f 84/65/76 99/69/88 100/66/89
f 77/67/70 72/36/66 73/14/67
f 83/68/75 98/81/87 99/69/88
f 79/6/72 94/78/84 96/70/85
f 87/71/79 63/90/58 72/36/66
f 97/79/86 112/596/97 113/80/98
f 264/37/217 198/114/167 200/10/169
f 100/66/89 115/85/100 116/82/101
f 97/64/86 96/70/85 111/83/96
f 99/69/88 114/88/99 115/85/100
f 118/86/103 89/57/81 88/59/80
f 98/81/87 113/80/98 114/88/99
f 94/78/84 109/96/94 111/83/96
f 88/89/80 62/197/57 63/90/58
f 120/94/105 87/71/79 77/67/70
f 121/95/106 77/67/70 76/13/69
f 265/98/218 176/160/149 183/99/154
f 115/85/100 130/104/115 118/101/103
f 112/84/97 111/83/96 126/102/111
f 114/88/99 129/105/114 130/104/115
f 113/80/98 128/597/113 129/105/114
f 109/96/94 124/109/109 126/102/111
f 119/110/104 88/89/80 87/71/79
f 112/84/97 127/103/112 128/111/113
f 265/113/218 185/234/156 198/114/167
f 118/86/103 130/118/115 145/115/128
f 126/102/111 141/123/124 142/116/125
f 129/117/114 144/122/127 145/115/128
f 116/82/101 118/101/103 119/119/104
f 128/121/113 143/144/126 144/122/127
f 124/109/109 139/129/122 141/123/124
f 136/124/119 120/94/105 121/95/106
f 137/131/120 119/110/104 120/94/105
f 127/103/112 142/116/125 143/132/126
f 89/57/81 145/115/128 160/133/139
f 142/116/125 141/123/124 156/135/135
f 144/122/127 159/139/138 160/133/139
f 144/122/127 143/144/126 158/138/137
f 139/129/122 154/142/133 156/135/135
f 134/130/117 135/125/118 121/95/106
f 180/137/153 179/167/152 135/125/118
f 142/143/125 157/598/136 158/138/137
f 156/135/135 171/148/144 172/145/145
f 159/139/138 174/147/147 175/146/148
f 158/138/137 173/163/146 174/147/147
f 154/142/133 169/154/142 171/148/144
f 177/152/150 137/131/120 136/124/119
f 101/62/90 116/82/101 137/120/120
f 157/136/136 172/145/145 173/156/146
f 160/133/139 175/146/148 176/160/149
f 195/161/165 177/152/150 178/153/151
f 173/163/146 188/599/159 189/164/160
f 171/148/144 169/154/142 184/165/155
f 179/167/152 178/153/151 136/124/119
f 194/162/164 178/153/151 179/167/152
f 172/145/145 187/170/158 188/169/159
f 175/146/148 190/171/161 183/99/154
f 172/145/145 171/148/144 186/166/157
f 174/147/147 189/164/160 190/171/161
f 188/172/159 203/196/172 204/173/173
f 184/165/155 199/178/168 201/175/170
f 193/168/163 179/167/152 180/137/153
f 86/63/78 101/62/90 177/155/150
f 187/170/158 202/187/171 203/182/172
f 183/185/154 190/188/161 205/186/174
f 186/166/157 201/175/170 202/187/171
f 189/174/160 204/173/173 205/186/174
f 199/178/168 214/193/179 216/190/180
f 202/194/171 217/600/181 218/195/182
f 62/197/57 265/113/218 264/37/217
f 205/186/174 220/200/184 221/198/185
f 202/187/171 201/175/170 216/190/180
f 204/173/173 219/202/183 220/200/184
f 237/201/197 227/208/189 194/162/164
f 204/173/173 203/196/172 218/195/182
f 226/203/188 71/18/65 86/47/78
f 253/205/211 56/19/52 71/18/65
f 237/201/197 193/168/163 192/176/162
f 226/207/188 195/161/165 194/162/164
f 242/209/201 237/201/197 238/189/198
f 218/211/182 217/199/181 232/212/192
f 61/134/56 176/160/149 265/98/218
f 220/200/184 235/215/195 236/214/196
f 216/190/180 231/217/191 232/212/192
f 219/202/183 234/216/194 235/215/195
f 218/195/182 233/601/193 234/216/194
f 214/193/179 229/206/190 231/217/191
f 252/222/210 227/208/189 237/201/197
f 232/212/192 247/227/205 248/223/206
f 235/224/195 250/229/208 251/225/209
f 231/217/191 246/233/204 247/227/205
f 234/228/194 249/232/207 250/229/208
f 253/230/211 226/207/188 227/208/189
f 233/231/193 248/602/206 249/232/207
f 229/206/190 244/221/203 246/233/204
f 247/227/205 262/1/215 53/3/49
f 250/229/208 55/17/51 56/19/52
f 247/227/205 246/233/204 51/9/47
f 249/232/207 54/24/50 55/17/51
f 185/234/156 138/249/121 125/22/110
f 249/232/207 248/602/206 53/26/49
f 246/233/204 244/221/203 1/7/1
f 125/22/110 275/250/224 274/242/223
f 123/23/108 274/242/223 52/238/48
f 138/249/121 276/603/225 275/250/224
f 140/34/123 221/198/185 276/251/225
f 274/242/223 285/253/230 280/252/227
f 275/250/224 286/259/231 285/253/230
f 276/251/225 221/198/185 236/214/196
f 275/250/224 276/603/225 287/258/232
f 287/267/232 236/226/196 251/225/209
f 285/253/230 296/273/237 291/266/235
f 285/253/230 286/259/231 297/272/238
f 287/258/232 298/604/239 297/272/238
f 251/225/209 56/19/52 253/205/211
f 297/272/238 252/222/210 242/209/201
f 297/272/238 298/604/239 253/230/211
f 296/273/237 242/209/201 241/210/200
f 533/368/366 527/379/366 521/369/362
f 515/19/347 509/373/352 503/371/352
f 485/19/335 479/411/335 473/371/331
f 467/374/322 461/378/322 503/371/352
f 455/375/307 449/383/312 443/376/312
f 491/373/331 473/371/331 425/378/299
f 413/370/288 407/369/288 401/379/283
f 395/380/275 389/381/275 461/378/322
f 431/374/299 425/378/299 377/381/267
f 371/382/258 365/384/258 389/381/275
f 312/383/242 311/375/243 310/377/243
f 383/380/267 377/381/267 300/384/240
f 295/385/236 294/387/236 365/384/258
f 284/385/229 308/382/240 300/384/240
f 533/368/366 279/393/226 278/388/226
f 295/385/236 273/390/222 272/389/222
f 268/390/220 284/385/229 283/387/229
f 258/391/213 257/395/213 272/389/222
f 256/391/212 268/390/220 267/389/220
f 245/393/202 419/368/283 401/379/283
f 258/391/213 230/397/187 224/394/187
f 223/396/186 222/403/186 443/376/312
f 256/391/212 255/392/212 209/394/176
f 208/398/175 207/399/175 224/394/187
f 212/397/176 209/394/176 170/399/143
f 168/400/141 166/401/141 207/399/175
f 197/398/143 170/399/143 164/401/140
f 455/375/307 437/377/307 278/388/226
f 163/402/134 155/404/134 166/401/141
f 312/383/242 309/376/242 151/403/131
f 165/400/140 164/401/140 149/404/130
f 148/405/102 117/408/102 155/404/134
f 369/93/261 368/92/260 366/406/259
f 107/405/93 150/402/130 149/404/130
f 245/393/202 243/388/202 310/377/243
f 148/405/102 105/410/91 102/409/91
f 93/410/83 107/405/93 106/408/93
f 515/19/347 497/372/347 102/409/91
f 485/19/335 93/410/83 92/409/83
f 91/412/82 90/413/82 407/369/288
f 539/370/362 521/369/362 78/413/71
f 91/412/82 65/415/55 60/414/55
f 58/415/53 80/412/71 78/413/71
f 50/416/46 49/417/46 60/414/55
f 459/292/321 452/285/317 48/284/45
f 58/415/53 57/414/53 45/417/43
f 50/416/46 44/419/42 43/418/42
f 42/419/41 46/416/43 45/417/43
f 153/396/131 151/403/131 43/418/42
f 42/419/41 41/418/41 222/403/186
f 506/420/354 40/605/40 39/421/39
f 429/44/302 422/244/297 36/243/36
f 519/347/361 518/346/360 516/426/359
f 507/428/355 506/420/354 504/429/353
f 536/363/371 31/362/31 30/431/30
f 378/433/268 387/265/274 386/264/273
f 537/435/372 530/358/368 25/357/25
f 537/364/372 536/363/371 534/437/370
f 488/319/340 24/318/24 23/439/23
f 513/422/358 512/606/357 510/441/356
f 489/320/341 488/319/340 486/442/339
f 387/265/274 380/607/270 22/444/22
f 404/127/285 20/126/20 22/260/22
f 384/31/272 393/563/278 392/445/277
f 375/446/265 368/92/260 19/91/19
f 381/448/271 380/560/270 378/77/268
f 414/452/293 423/470/298 422/453/297
f 386/264/273 21/263/21 14/455/14
f 369/93/261 362/236/255 30/235/30
f 374/460/264 372/275/263 366/248/259
f 390/462/276 399/181/281 398/180/280
f 492/464/343 486/608/339 495/325/345
f 432/41/303 426/40/300 435/56/305
f 404/127/285 402/561/284 396/465/279
f 417/466/295 416/468/294 414/452/293
f 416/468/294 8/609/8 36/469/36
f 453/473/318 452/610/317 450/283/316
f 438/474/308 447/280/315 446/279/314
f 447/476/315 440/73/310 5/72/5
f 410/52/291 3/51/3 8/269/8
f 446/279/314 4/278/4 48/479/45
f 363/481/256 362/611/255 540/367/373
f 494/324/344 23/323/23 542/301/375
f 477/308/334 470/612/329 542/483/375
f 483/484/338 482/613/337 480/311/336
f 471/485/330 470/583/329 468/300/327
f 411/487/292 410/569/291 408/108/289
f 434/488/304 547/571/380 3/51/3
f 372/355/263 531/614/369 530/489/368
f 531/359/369 374/240/264 18/239/18
f 477/308/334 476/307/333 474/490/332
f 441/495/311 440/576/310 438/50/308
f 441/74/311 464/296/324 552/295/385
f 476/307/333 545/306/378 553/497/386
f 462/294/323 456/289/319 465/499/325
f 398/180/280 554/179/387 20/501/20
f 500/330/350 555/329/388 40/334/40
f 399/181/281 392/219/277 14/218/14
f 428/43/301 35/42/35 547/503/380
f 465/505/325 458/291/320 47/290/44
f 525/507/365 518/346/360 556/345/389
f 522/350/363 516/349/359 525/353/365
f 512/341/357 39/340/39 556/345/389
f 489/320/341 482/313/337 553/312/386
f 429/44/302 428/43/301 426/510/300
f 522/327/363 501/615/351 500/512/350
f 459/292/321 458/291/320 456/513/319
f 524/515/364 557/591/390 555/329/388
f 317/409/54 299/372/54 254/371/54
f 254/371/54 191/378/54 146/381/54
f 146/381/54 307/384/54 302/387/54
f 302/387/54 281/389/54 260/395/54
f 260/395/54 228/394/54 182/399/54
f 182/399/54 133/401/54 103/404/54
f 103/404/54 313/408/54 317/409/54
f 317/409/54 254/371/54 146/381/54
f 146/381/54 302/387/54 260/395/54
f 260/395/54 182/399/54 103/404/54
f 103/404/54 317/409/54 146/381/54
f 266/516/219 196/521/166 225/517/166
f 320/519/245 266/516/219 288/518/219
f 161/378/2 206/371/2 277/411/2
f 277/411/2 319/409/2 315/408/2
f 315/408/2 75/404/2 108/401/2
f 108/401/2 162/399/2 211/394/2
f 211/394/2 240/392/2 270/389/2
f 270/389/2 292/387/2 304/384/2
f 304/384/2 305/381/2 161/378/2
f 161/378/2 277/411/2 315/408/2
f 315/408/2 108/401/2 211/394/2
f 211/394/2 270/389/2 304/384/2
f 304/384/2 161/378/2 315/408/2
f 196/521/166 147/530/129 167/522/129
f 147/523/129 301/526/116 131/524/116
f 301/526/116 303/528/241 306/527/241
f 303/528/241 282/533/228 293/529/228
f 282/530/228 269/521/221 271/517/221
f 269/521/221 239/516/199 259/518/199
f 239/516/199 210/519/177 215/520/177
f 210/519/177 152/538/132 181/532/132
f 152/533/132 104/528/92 132/534/92
f 104/528/92 74/526/68 95/536/68
f 74/526/68 316/523/244 314/537/244
f 316/538/244 320/519/245 318/520/245
f 333/388/54 337/379/54 341/369/54
f 341/369/54 345/413/54 349/414/54
f 349/414/54 353/417/54 357/418/54
f 357/418/54 321/403/54 325/376/54
f 325/376/54 329/377/54 333/388/54
f 333/388/54 341/369/54 349/414/54
f 349/414/54 357/418/54 325/376/54
f 324/540/219 328/552/246 326/541/246
f 360/543/253 324/540/219 322/542/219
f 323/403/2 359/418/2 355/417/2
f 355/417/2 351/414/2 347/413/2
f 347/413/2 343/369/2 339/379/2
f 339/379/2 335/388/2 331/377/2
f 331/377/2 327/376/2 323/403/2
f 323/403/2 355/417/2 347/413/2
f 347/413/2 339/379/2 331/377/2
f 328/545/246 332/548/247 330/546/247
f 332/548/247 336/550/248 334/549/248
f 336/550/248 340/553/249 338/551/249
f 340/552/249 344/540/199 342/542/199
f 344/540/199 348/543/250 346/544/250
f 348/553/250 352/550/251 350/549/251
f 352/550/251 356/548/252 354/546/252
f 356/548/252 360/545/253 358/547/253
f 367/554/254 361/616/254 535/436/254
f 535/436/254 529/357/254 373/239/254
f 532/424/257 538/365/257 364/425/257
f 364/425/257 370/617/262 526/555/257
f 394/191/266 400/149/282 376/558/266
f 376/558/266 382/618/266 388/451/266
f 385/263/269 379/444/269 403/562/269
f 403/562/269 397/619/269 391/455/269
f 430/496/287 406/620/287 412/567/287
f 412/567/287 418/276/287 424/254/287
f 415/269/290 409/51/290 433/571/290
f 433/571/290 427/621/290 421/572/290
f 460/574/306 436/622/306 442/478/306
f 442/478/306 448/281/306 454/482/306
f 451/579/309 445/477/309 439/72/309
f 439/72/309 463/295/309 457/578/309
f 484/315/326 490/321/342 466/581/326
f 466/581/326 472/623/326 478/494/326
f 475/306/328 469/483/328 493/584/328
f 493/584/328 487/624/328 481/497/328
f 520/509/346 496/625/346 502/588/346
f 502/588/346 508/337/346 514/343/346
f 505/334/349 499/329/349 523/591/349
f 523/591/349 517/626/349 511/592/349
