# Blender 5.2.0 LTS
# www.blender.org
o Backdrop_Dinghy
v 0.000000 13.000000 0.000000
v -16.219152 3.085256 18.959871
v 0.000000 10.899187 -5.948387
v -16.830299 2.971494 18.787069
v 0.000000 5.399187 -9.624693
v 0.000000 2.000000 -10.120000
v 9.066699 19.817690 -5.905091
v 8.913924 19.306709 4.780874
v 9.662362 19.633984 -5.716785
v -17.696405 3.598875 -16.739531
v -18.039034 3.794053 -16.127401
v 8.451506 19.817690 4.545800
v 3.399187 12.461622 -2.708280
v 6.465638 10.899187 -5.151454
v 8.899187 8.465637 -7.090368
v 10.461622 5.399187 -8.335228
v 11.000000 2.000000 -8.764177
v -18.137844 3.237374 -16.438282
v 21.770838 2.000000 0.393413
v 21.770838 2.000000 -0.393413
v 20.602057 5.714369 0.000000
v 8.986105 19.633984 4.222569
v -17.351395 3.598875 17.501848
v 5.887565 12.461622 -1.563626
v 11.198813 10.899187 -2.974193
v 15.413843 8.465637 -4.093626
v 18.120060 5.399187 -4.812346
v 19.052559 2.000000 -5.060000
v 20.694080 5.399187 -0.393413
v 20.694080 5.399187 0.393414
v 9.096814 19.862122 -6.061919
v -22.049999 1.950000 9.000000
v -17.117643 3.794053 18.163252
v -17.416414 3.237375 18.032309
v 6.798373 12.461622 0.000000
v 12.931275 10.899187 0.000000
v 17.798372 8.465637 0.000000
v -19.950001 1.950000 9.000000
v -22.049999 1.500000 8.550000
v -22.500000 10.050000 -8.550000
v -22.500000 1.950000 -8.550000
v -22.049999 1.950000 -9.000000
v -22.049999 10.050000 -9.000000
v 8.353561 19.862122 4.419672
v 8.119808 19.666943 3.758266
v 5.887564 12.461622 1.563626
v 11.198813 10.899187 2.974193
v 15.413843 8.465637 4.093626
v 18.120058 5.399187 4.812346
v 19.052559 2.000000 5.060000
v -19.950001 10.050000 -9.000000
v -22.049999 10.500000 -8.550000
v -19.500000 1.950000 8.550000
v -19.500000 1.950000 -8.550000
v 8.747310 19.742308 3.915064
v -16.928268 2.449378 -16.920912
v 3.399186 12.461622 2.708280
v 6.465638 10.899187 5.151454
v 8.899186 8.465637 7.090368
v 10.461620 5.399187 8.335227
v 11.000000 2.000000 8.764177
v -19.950001 1.500000 -8.550000
v -19.950001 1.500000 8.550000
v -19.500000 10.050000 -8.550000
v -19.500000 10.050000 8.550000
v -17.268606 3.080986 -17.045143
v -17.562845 2.541292 -16.849051
v -0.000001 12.461622 3.127252
v 0.000000 10.899187 5.948387
v 0.000000 8.465637 8.187251
v -0.000001 5.399187 9.624691
v 0.000000 2.000000 10.120000
v -19.950001 10.500000 -8.550000
v -19.950001 10.050000 9.000000
v -22.049999 10.050000 9.000000
v -22.049999 10.500000 8.550000
v 9.535531 19.550621 -6.742692
v 9.875868 18.919014 -6.618460
v -3.399187 12.461622 2.708279
v -6.465638 10.899187 5.151454
v -8.899186 8.465637 7.090368
v -10.461620 5.399187 8.335227
v -11.000000 2.000000 8.764177
v -19.950001 10.500000 8.550000
v -16.715599 1.845208 17.649454
v -16.397171 2.111088 18.550451
v 9.439444 19.666945 -6.674049
v 9.970049 19.458710 -6.266491
v -16.930237 1.736311 -15.722659
v -5.887565 12.461622 1.563625
v -11.198813 10.899187 2.974193
v -15.413843 8.465637 4.093626
v -18.120058 5.399187 4.812345
v -19.052559 2.000000 5.060000
v 9.735785 19.742306 -6.099137
v 9.162571 19.283434 4.126165
v 9.032837 19.175110 3.759080
v 8.776191 19.458708 3.628612
v -16.797947 1.931489 -16.411568
v -17.387686 1.845208 -16.164454
v -6.798373 12.461622 -0.000000
v -12.931275 10.899187 0.000000
v -17.798372 8.465637 0.000000
v 8.747310 19.742308 3.915064
v 8.986105 19.633984 4.222569
v -16.830299 2.971494 18.787069
v -17.416414 3.237375 18.032309
v -17.345528 2.541291 17.329226
v -17.854429 2.111088 -15.330581
v 9.905139 18.802691 -6.504056
v 9.772851 18.607513 -5.815146
v -5.887563 12.461622 -1.563626
v -11.198813 10.899187 -2.974193
v -15.413843 8.465637 -4.093626
v -18.120056 5.399187 -4.812346
v -19.052559 2.000000 -5.060000
v -17.387686 1.845208 -16.164454
v -18.318054 2.971494 -15.499817
v 10.041414 19.175108 -5.987570
v 9.970049 19.458710 -6.266491
v 10.041414 19.175108 -5.987570
v -17.699593 2.445108 -14.800716
v -3.399185 12.461622 -2.708279
v -6.465638 10.899187 -5.151454
v -8.899186 8.465637 -7.090368
v -10.461618 5.399187 -8.335227
v -11.000000 2.000000 -8.764177
v 9.735785 19.742306 -6.099137
v 9.662362 19.633984 -5.716785
v 9.851253 19.283434 -5.647835
v -18.137844 3.237374 -16.438282
v -17.277496 1.934127 -15.102254
v -17.854429 2.111088 -15.330581
v 0.000001 12.461622 -3.127252
v 9.694853 18.651945 -5.675797
v 0.000000 8.465637 -8.187251
v 9.272757 19.162926 -5.374261
v 9.851253 19.283434 -5.647835
v -18.173111 3.596237 -15.429177
v -17.562845 2.541292 -16.849051
v -18.044531 3.085255 -14.926628
v -18.318054 2.971494 -15.499817
v 9.195280 19.306709 -5.402542
v -16.681570 3.596236 18.724796
v 9.162571 19.283434 4.126165
v 8.986304 19.162926 4.741333
v 9.038342 18.651943 4.225211
v -16.397171 2.111088 18.550451
v -15.844866 1.934127 18.267704
v -15.896903 2.445109 18.783827
v 9.032837 19.175110 3.759080
v 8.985129 18.607513 4.074645
v 8.554874 18.802691 3.520590
v -16.715599 1.845208 17.649454
v -16.512035 1.931488 17.043303
v -16.081778 1.736312 17.597359
v 8.776191 19.458708 3.628612
v 8.449606 18.919014 3.467076
v 8.131655 19.550621 3.640773
v -17.345528 2.541291 17.329226
v -17.298655 3.080986 16.978748
v -16.980703 2.449378 16.805052
v -19.950001 10.500000 -8.550000
v -19.500000 10.050000 -8.550000
v -19.950001 10.050000 -9.000000
v -19.950001 1.500000 -8.550000
v -19.950001 1.950000 -9.000000
v -19.500000 1.950000 -8.550000
v -19.950001 10.500000 8.550000
v -19.950001 10.050000 9.000000
v -19.500000 10.050000 8.550000
v -20.694078 5.399187 -0.393414
v -20.694078 5.399187 0.393412
v -20.602055 5.714369 -0.000001
v -21.770838 2.000000 0.393413
v -21.770838 2.000000 -0.393413
v -19.950001 1.500000 8.550000
v -19.500000 1.950000 8.550000
v -19.950001 1.950000 9.000000
v -22.049999 10.500000 -8.550000
v -22.049999 10.050000 -9.000000
v -22.500000 10.050000 -8.550000
v -22.049999 1.500000 -8.550000
v -22.500000 1.950000 -8.550000
v -22.049999 1.950000 -9.000000
v -22.049999 10.050000 9.000000
v -22.049999 10.500000 8.550000
v -22.500000 10.050000 8.550000
v -22.049999 1.500000 8.550000
v -22.049999 1.950000 9.000000
v -22.500000 1.950000 8.550000
v 19.549999 14.300000 -0.850000
v 20.000000 13.850000 -0.850000
v 19.549999 13.850000 -1.300000
v 19.549999 11.700000 -0.850000
v 19.549999 12.150000 -1.300000
v 20.000000 12.150000 -0.850000
v 19.549999 14.300000 0.850000
v 19.549999 13.850000 1.300000
v 20.000000 13.850000 0.850000
v 19.549999 11.700000 0.850000
v 20.000000 12.150000 0.850000
v 19.549999 12.150000 1.300000
v -19.549999 14.300000 -0.850000
v -19.549999 13.850000 -1.300000
v -20.000000 13.850000 -0.850000
v -19.549999 11.700000 -0.850000
v -20.000000 12.150000 -0.850000
v -19.549999 12.150000 -1.300000
v -19.549999 13.850000 1.300000
v -19.549999 14.300000 0.850000
v -20.000000 13.850000 0.850000
v -19.549999 11.700000 0.850000
v -19.549999 12.150000 1.300000
v -20.000000 12.150000 0.850000
v -22.049999 1.500000 -8.550000
v -22.500000 1.950000 8.550000
v 19.549999 14.300000 0.850000
v -19.549999 14.300000 0.850000
v -19.549999 13.850000 1.300000
v 19.549999 13.850000 1.300000
v 19.549999 12.150000 1.300000
v 20.000000 12.150000 0.850000
v 20.000000 13.850000 0.850000
v 19.549999 11.700000 0.850000
v 19.549999 11.700000 -0.850000
v 20.000000 12.150000 -0.850000
v -19.950001 1.950000 -9.000000
v -22.500000 10.050000 8.550000
v -19.549999 11.700000 -0.850000
v -19.549999 12.150000 -1.300000
v 19.549999 12.150000 -1.300000
v -19.549999 13.850000 -1.300000
v -20.000000 12.150000 -0.850000
v -20.000000 13.850000 -0.850000
v -19.549999 14.300000 -0.850000
v -20.000000 13.850000 0.850000
v -19.549999 11.700000 0.850000
v -20.000000 12.150000 0.850000
v 19.549999 14.300000 -0.850000
v 19.549999 13.850000 -1.300000
v 20.000000 13.850000 -0.850000
v -19.549999 12.150000 1.300000
vn -0.0000 1.0000 -0.0000
vn 0.0677 0.0691 0.9953
vn -0.0000 0.7800 -0.6258
vn -0.7612 -0.4976 0.4159
vn -0.0000 0.2843 -0.9587
vn -0.0000 0.1442 -0.9895
vn -0.2606 0.8434 0.4699
vn 0.5793 0.4033 0.7083
vn 0.8148 0.4976 0.2974
vn -0.4201 0.4866 -0.7660
vn -0.7173 0.6559 -0.2349
vn 0.1811 0.8434 0.5059
vn 0.0752 0.9475 -0.3107
vn 0.1507 0.8098 -0.5670
vn 0.2173 0.5960 -0.7730
vn 0.2657 0.3181 -0.9100
vn 0.2802 0.1637 -0.9459
vn -0.8148 -0.4976 -0.2974
vn 0.9259 0.2933 0.2379
vn 0.9259 0.2933 -0.2379
vn 0.8012 0.5983 -0.0000
vn 0.7612 0.4976 -0.4159
vn -0.8527 0.4866 -0.1900
vn 0.1483 0.9680 -0.2023
vn 0.2955 0.8798 -0.3724
vn 0.4562 0.7109 -0.5353
vn 0.6147 0.4203 -0.6675
vn 0.6724 0.2356 -0.7017
vn 0.8540 0.4368 -0.2827
vn 0.8540 0.4368 0.2827
vn -0.1640 0.9859 -0.0332
vn -0.4606 -0.4606 0.7588
vn -0.6499 0.6559 0.3838
vn 0.1910 0.9816 -0.0000
vn 0.3796 0.9252 -0.0000
vn 0.6129 0.7902 -0.0000
vn 0.4606 -0.4606 0.7588
vn -0.4606 -0.7588 0.4606
vn -0.7588 0.4606 -0.4606
vn -0.7588 -0.4606 -0.4606
vn -0.4606 -0.4606 -0.7588
vn -0.4606 0.4606 -0.7588
vn -0.1331 0.9859 0.1013
vn -0.3345 0.8178 -0.4683
vn 0.1483 0.9680 0.2023
vn 0.2955 0.8798 0.3724
vn 0.4562 0.7109 0.5353
vn 0.6147 0.4203 0.6675
vn 0.6724 0.2356 0.7017
vn 0.4606 0.4606 -0.7588
vn -0.4606 0.7588 -0.4606
vn 0.7588 -0.4606 0.4606
vn 0.7588 -0.4606 -0.4606
vn 0.1857 -0.4372 -0.8800
vn 0.0752 0.9475 0.3107
vn 0.1507 0.8098 0.5670
vn 0.2173 0.5960 0.7730
vn 0.2657 0.3181 0.9100
vn 0.2802 0.1637 0.9459
vn 0.4606 -0.7588 -0.4606
vn 0.4606 -0.7588 0.4606
vn 0.7588 0.4606 -0.4606
vn 0.7588 0.4606 0.4606
vn -0.1096 0.1108 -0.9878
vn -0.0000 0.9393 0.3432
vn -0.0000 0.7800 0.6258
vn -0.0000 0.5518 0.8340
vn -0.0000 0.2843 0.9587
vn -0.0000 0.1442 0.9895
vn 0.4606 0.7588 -0.4606
vn 0.4606 0.4606 0.7588
vn -0.4606 0.4606 0.7588
vn -0.4606 0.7588 0.4606
vn 0.4393 0.4447 -0.7805
vn 0.7324 -0.0993 -0.6736
vn -0.0752 0.9475 0.3107
vn -0.1507 0.8098 0.5670
vn -0.2173 0.5960 0.7730
vn -0.2657 0.3181 0.9100
vn -0.2802 0.1637 0.9459
vn 0.4606 0.7588 0.4606
vn -0.3464 -0.9361 -0.0608
vn -0.0784 -0.7124 0.6974
vn 0.1311 0.8178 -0.5603
vn 0.1655 -0.9823 0.0873
vn -0.1483 0.9680 0.2023
vn -0.2955 0.8798 0.3724
vn -0.4562 0.7109 0.5353
vn -0.6147 0.4203 0.6675
vn -0.6724 0.2356 0.7017
vn 0.9949 -0.0001 0.1005
vn 0.7313 -0.2203 -0.6455
vn 0.2098 0.3560 -0.9106
vn 0.2802 -0.8130 -0.5104
vn -0.1910 0.9816 -0.0000
vn -0.3796 0.9252 -0.0000
vn -0.6129 0.7902 -0.0000
vn 0.1511 0.9323 -0.3285
vn 0.6364 0.7122 0.2963
vn -0.4429 0.0116 0.8965
vn -0.9361 0.2354 0.2614
vn -0.8765 -0.3504 -0.3302
vn -0.5757 -0.7124 0.4013
vn 0.8263 -0.4724 -0.3065
vn 0.7124 -0.6405 0.2867
vn -0.1483 0.9680 -0.2023
vn -0.2955 0.8798 -0.3724
vn -0.4562 0.7109 -0.5353
vn -0.6147 0.4203 -0.6675
vn -0.6724 0.2356 -0.7017
vn -0.1829 -0.9361 -0.3004
vn -0.9658 0.0116 0.2589
vn 0.9676 -0.2203 0.1234
vn 0.8226 0.3560 -0.4434
vn -0.4527 -0.3955 0.7991
vn -0.0752 0.9475 -0.3107
vn -0.1507 0.8098 -0.5670
vn -0.2173 0.5960 -0.7730
vn -0.2657 0.3181 -0.9100
vn -0.2802 0.1637 -0.9459
vn 0.3465 0.9323 -0.1033
vn 0.1973 0.7122 0.6737
vn 0.5812 -0.0001 0.8138
vn -0.8142 0.2353 -0.5308
vn -0.0866 -0.8388 0.5375
vn -0.0000 0.9393 -0.3432
vn 0.4622 -0.4980 0.7338
vn -0.0000 0.5518 -0.8340
vn 0.0987 -0.0579 0.9934
vn -0.8146 0.5124 0.2718
vn -0.3303 -0.3504 -0.8764
vn -0.7031 0.0691 0.7078
vn -0.1498 0.4033 0.9027
vn -0.3335 0.5124 0.7914
vn 0.8115 -0.0579 0.5815
vn 0.8563 -0.4980 0.1370
vn 0.3467 -0.8388 0.4198
vn 0.3016 -0.3955 0.8676
vn 0.6856 -0.6405 -0.3460
vn 0.3151 -0.4724 -0.8231
vn -0.1985 -0.8130 -0.5474
vn 0.1748 -0.9823 -0.0667
vn -0.0226 -0.0993 -0.9948
vn -0.2964 0.4447 -0.8452
vn -0.8144 0.1108 -0.5696
vn -0.5386 -0.4372 -0.7203
vn 1.0000 -0.0000 -0.0000
vn -0.0000 -0.0000 -1.0000
vn -0.0000 -1.0000 -0.0000
vn -0.0000 -0.0000 1.0000
vn -0.8540 0.4368 -0.2827
vn -0.8540 0.4368 0.2827
vn -0.8012 0.5983 -0.0000
vn -0.9259 0.2933 0.2379
vn -0.9259 0.2933 -0.2379
vn -1.0000 -0.0000 -0.0000
vn -0.4606 -0.7588 -0.4606
vn -0.7588 -0.4606 0.4606
vn 0.4606 -0.4606 -0.7588
vn -0.7588 0.4606 0.4606
vt -1.102500 0.075000
vt -1.125000 0.097500
vt -1.102500 0.097500
vt 0.000000 0.100000
vt 0.523081 0.269959
vt 0.550000 0.100000
vt 0.000000 0.297419
vt 0.169959 0.135414
vt 0.323282 0.257573
vt -1.102500 -0.450000
vt -1.102500 -0.427500
vt -1.125000 -0.427500
vt 0.977500 -0.042500
vt 0.977500 -0.065000
vt 1.000000 -0.042500
vt 0.000000 0.423282
vt 0.323282 0.544959
vt 0.444959 0.423282
vt 0.019671 0.269959
vt -0.019671 0.269959
vt 0.000000 0.285718
vt 0.977500 0.042500
vt 0.977500 0.065000
vt 1.000000 0.042500
vt 0.000000 0.269959
vt 0.000000 0.156363
vt 0.000000 0.000000
vt 0.906003 0.269959
vt 0.952628 0.100000
vt 0.294378 0.078181
vt 0.559941 0.148710
vt -0.878142 0.127065
vt -0.863430 0.154049
vt -0.846413 0.122469
vt 0.449305 -0.211128
vt 0.422575 -0.227290
vt 0.445696 -0.239044
vt 0.444959 0.354518
vt 0.770692 0.204681
vt -0.997500 -0.427500
vt -0.997500 -0.450000
vt -0.975000 -0.427500
vt -0.901615 0.161869
vt -0.908163 0.189703
vt -0.875092 0.179944
vt 0.770692 0.423282
vt 0.437365 -0.195753
vt 0.405990 -0.187913
vt 0.417678 -0.220984
vt 0.339919 -0.000000
vt 0.646564 0.000000
vt -0.869384 0.808223
vt -0.839897 0.820578
vt -0.846512 0.786133
vt 0.313325 0.972935
vt 0.330923 0.945951
vt 0.337135 0.977531
vt 0.889919 0.000000
vt -0.997500 0.075000
vt -0.997500 0.097500
vt -0.975000 0.097500
vt 0.294378 -0.078181
vt 0.559941 -0.148710
vt 0.486789 0.304957
vt 0.471972 0.333702
vt 0.454841 0.303096
vt 0.821914 0.161869
vt 0.806370 0.189703
vt 0.836977 0.179944
vt 0.770692 -0.204681
vt -0.997500 0.427500
vt -0.975000 0.427500
vt -0.997500 0.450000
vt 0.444959 -0.354518
vt -0.866461 0.127065
vt -0.848937 0.154049
vt -0.840253 0.122469
vt 0.523081 0.269959
vt 0.906003 0.269959
vt 0.169959 -0.135414
vt 0.323282 -0.257573
vt 0.444959 0.423282
vt 0.438810 0.972935
vt 0.422480 0.945951
vt 0.406583 0.977531
vt -0.000000 0.269959
vt -0.000000 -0.156363
vt 0.483118 0.981699
vt 0.453335 0.990884
vt 0.459764 0.965335
vt 0.000000 -0.297419
vt -0.169959 -0.135414
vt -0.323282 -0.257573
vt -0.019671 0.269959
vt 0.019671 0.269959
vt -0.000000 0.285718
vt -0.323282 0.544959
vt -0.444959 0.423282
vt -0.835780 -0.882473
vt -0.825602 -0.852165
vt -0.804089 -0.879868
vt 0.299379 0.958755
vt 0.290757 0.930376
vt 0.325203 0.940135
vt -0.523081 0.269959
vt -0.550000 0.100000
vt 0.492563 0.964172
vt 0.463638 0.958146
vt 0.484743 0.932597
vt -0.906003 0.269959
vt -0.952628 0.100000
vt -0.294378 -0.078181
vt -0.559941 -0.148710
vt 0.774991 0.148575
vt 0.746331 0.154263
vt 0.771459 0.179812
vt -0.892721 0.766529
vt -0.863875 0.755113
vt -0.884980 0.740036
vt -0.444959 -0.354518
vt -0.770692 -0.204681
vt 0.451642 0.958755
vt 0.449256 0.930376
vt 0.427744 0.940135
vt -0.770692 0.423282
vt -0.339919 0.000000
vt -0.646564 0.000000
vt -0.889919 0.000000
vt -0.819859 0.105554
vt -0.792243 0.096706
vt -0.794845 0.122255
vt -0.294378 0.078181
vt -0.559941 0.148710
vt -0.770692 0.204681
vt -0.206308 0.964172
vt -0.237067 0.958146
vt -0.211261 0.932597
vt -0.444959 0.354518
vt -0.841515 0.148575
vt -0.810958 0.154263
vt -0.834078 0.179812
vt -0.523081 0.269959
vt -0.906003 0.269959
vt -0.169959 0.135414
vt -0.323282 0.257573
vt -1.102500 0.427500
vt -1.102500 0.450000
vt -1.125000 0.427500
vt -0.977500 0.042500
vt -0.977500 0.065000
vt -1.000000 0.042500
vt -0.977500 -0.065000
vt -0.977500 -0.042500
vt -1.000000 -0.042500
vt -0.019671 0.100000
vt 0.476777 0.337135
vt 0.498502 0.313325
vt 0.483118 0.285839
vt -0.906892 0.161869
vt -0.884820 0.179944
vt -0.884820 0.836977
vt -0.884980 0.122255
vt 0.766529 0.105554
vt 0.740036 0.122255
vt -0.902227 0.154263
vt -0.936240 0.179812
vt -0.939353 0.148575
vt 0.445696 0.965335
vt 0.422575 0.990884
vt 0.493793 0.945951
vt 0.282392 0.964172
vt 0.283790 0.932597
vt 0.406583 -0.182039
vt 0.438810 -0.181431
vt -0.855882 -0.908163
vt -0.913385 0.096706
vt -0.203732 0.930376
vt -0.792243 -0.913385
vt 0.449256 -0.203732
vt 0.427744 -0.176029
vt -0.211128 0.981699
vt -0.239044 0.965335
vt -0.864933 0.154049
vt -0.849035 0.122469
vt -0.846413 0.846046
vt -0.878142 0.842453
vt 0.488643 0.290757
vt 0.495257 0.325203
vt 0.019671 0.100000
vt -1.125000 0.502500
vt -1.102500 0.502500
vt -0.975000 0.502500
vt -0.997500 0.502500
vt -0.849035 -0.840253
vt -0.867276 -0.866461
vt 0.977500 0.607500
vt 1.000000 0.692500
vt 0.977500 0.692500
vt -0.977500 0.607500
vt -1.000000 0.692500
vt -0.977500 0.692500
vt 1.000000 0.607500
vt -1.000000 0.607500
vt 0.304957 0.987115
vt -0.908656 0.771459
vt -0.901952 0.806370
vt 0.471972 0.983347
vt 1.030103 -0.000000
vt 0.906003 -0.240617
vt 0.253000 0.100000
vt 0.019671 0.100000
vt 1.034704 0.019671
vt -0.253000 0.100000
vt 0.808223 0.092260
vt -0.839897 0.096574
vt -0.195753 0.987115
vt -0.187954 0.958755
vt -0.834078 -0.936240
vt -0.187913 0.983347
vt -0.927523 0.105554
vt -0.825602 0.096574
vt 0.427500 0.502500
vt -0.427500 0.097500
vt 0.427500 0.097500
vt -1.030103 0.000000
vt -0.906003 0.240617
vt -0.019671 0.100000
vt -1.034704 -0.019671
vt -0.427500 0.502500
vt 0.042500 0.692500
vt -0.042500 0.607500
vt 0.042500 0.607500
vt -0.042500 0.692500
vt 0.000000 0.544959
vt 0.453335 0.295255
vt -0.863875 0.096706
vt -0.908656 0.179812
vt 0.476777 0.977531
vt -0.867570 -0.875092
vt -0.939191 0.122255
vt -0.819859 -0.927523
vt 0.285839 0.981699
vt 1.034704 -0.019671
vt 0.240617 0.269959
vt 0.906003 0.240617
vt -0.240617 0.269959
vt 0.842453 0.127065
vt 0.484743 0.283790
vt 0.495257 0.940135
vt -0.181431 0.972935
vt -0.182039 0.977531
vt -0.882473 0.092260
vt 0.449315 0.958146
vt 0.451917 -0.211261
vt -1.034704 0.019671
vt -0.240617 0.269959
vt -0.906003 -0.240617
vt 0.240617 0.269959
s 1
f 216/1/157 41/2/40 42/3/41
f 6/4/6 16/5/16 17/6/17
f 3/7/3 13/8/13 14/9/14
f 75/10/72 76/11/73 229/12/160
f 218/13/81 221/14/71 224/15/63
f 136/16/128 14/17/14 15/18/15
f 172/19/151 173/20/152 174/21/153
f 226/22/60 232/23/159 227/24/53
f 5/25/5 15/18/15 16/5/16
f 134/26/126 1/27/1 13/8/13
f 17/6/17 27/28/27 28/29/28
f 14/9/14 24/30/24 25/31/25
f 140/32/131 66/33/64 56/34/54
f 105/35/99 12/36/12 8/37/8
f 15/38/15 25/31/25 26/39/26
f 84/40/81 74/41/71 65/42/63
f 107/43/101 33/44/33 23/45/23
f 16/5/16 26/46/26 27/28/27
f 13/8/13 1/27/1 24/30/24
f 104/47/98 45/48/44 44/49/43
f 24/30/24 1/27/1 35/50/34
f 25/31/25 35/50/34 36/51/35
f 117/52/111 99/53/94 89/54/85
f 120/55/114 78/56/75 77/57/74
f 26/39/26 36/51/35 37/58/36
f 62/59/60 228/60/159 54/61/53
f 35/50/34 1/27/1 46/62/45
f 35/50/34 47/63/46 36/51/35
f 128/64/121 87/65/84 31/66/31
f 131/67/124 11/68/11 10/69/10
f 36/51/35 48/70/47 37/58/36
f 73/71/70 64/72/62 51/73/50
f 47/63/46 59/74/57 48/70/47
f 108/75/102 161/76/145 162/77/146
f 48/46/47 60/78/58 49/79/48
f 46/62/45 1/27/1 57/80/55
f 49/79/48 61/6/59 50/29/49
f 46/62/45 58/81/56 47/63/46
f 58/17/56 70/16/67 59/82/57
f 98/83/93 158/84/143 159/85/144
f 59/82/57 71/86/68 60/78/58
f 57/80/55 1/27/1 68/87/65
f 129/88/122 7/89/7 143/90/133
f 60/78/58 72/4/69 61/6/59
f 57/80/55 69/91/66 58/81/56
f 69/91/66 79/92/76 80/93/77
f 30/94/30 29/95/29 21/96/21
f 70/16/67 80/97/77 81/98/78
f 85/99/82 155/100/141 156/101/142
f 119/102/113 111/103/105 110/104/104
f 71/86/68 81/98/78 82/105/79
f 68/87/65 1/27/1 79/92/76
f 72/4/69 82/105/79 83/106/80
f 130/107/123 137/108/129 135/109/127
f 83/106/80 93/110/89 94/111/90
f 80/93/77 90/112/86 91/113/87
f 118/114/112 141/115/132 139/116/130
f 109/117/103 132/118/125 122/119/115
f 81/120/78 91/113/87 92/121/88
f 97/122/92 152/123/139 153/124/140
f 82/105/79 92/125/88 93/110/89
f 79/92/76 1/27/1 90/112/86
f 90/112/86 1/27/1 101/126/95
f 91/113/87 101/126/95 102/127/96
f 92/121/88 102/127/96 103/128/97
f 86/129/83 149/130/137 150/131/138
f 101/126/95 1/27/1 112/132/106
f 101/126/95 113/133/107 102/127/96
f 102/127/96 114/134/108 103/128/97
f 96/135/91 146/136/135 147/137/136
f 113/133/107 125/138/118 114/134/108
f 106/139/100 2/140/2 144/141/134
f 114/125/108 126/142/119 115/143/109
f 112/132/106 1/27/1 123/144/116
f 115/143/109 127/106/120 116/111/110
f 112/132/106 124/145/117 113/133/107
f 39/1/38 32/3/32 217/2/158
f 225/13/61 223/15/52 222/14/37
f 124/97/117 136/16/128 125/98/118
f 63/59/61 53/61/52 38/60/37
f 240/22/70 242/24/62 241/23/50
f 125/98/118 5/25/5 126/142/119
f 123/144/116 1/27/1 134/26/126
f 52/146/51 43/147/42 40/148/39
f 126/142/119 6/4/6 127/106/120
f 123/144/116 3/7/3 124/145/117
f 236/149/51 233/150/42 235/151/39
f 230/149/157 234/151/40 231/150/41
f 220/152/72 219/153/73 237/154/160
f 238/153/38 243/152/32 239/154/158
f 19/155/19 29/95/29 30/94/30
f 77/156/74 128/64/121 120/157/114
f 31/66/31 129/158/122 128/64/121
f 143/90/133 130/107/123 129/88/122
f 66/33/64 131/159/124 10/160/10
f 10/161/10 31/66/31 87/65/84
f 122/162/115 135/109/127 137/108/129
f 23/45/23 108/75/102 107/43/101
f 141/115/132 109/163/103 122/164/115
f 7/89/7 141/165/132 143/90/133
f 11/68/11 118/114/112 139/116/130
f 78/56/75 119/102/113 110/104/104
f 144/166/134 107/43/101 106/167/100
f 144/141/134 8/168/8 12/169/12
f 66/33/64 78/170/75 56/34/54
f 111/103/105 130/171/123 135/172/127
f 44/49/43 105/35/99 104/47/98
f 159/173/144 104/47/98 98/174/93
f 45/48/44 33/175/33 44/49/43
f 146/136/135 149/176/137 147/137/136
f 152/177/139 96/135/91 147/137/136
f 149/178/137 85/99/82 156/101/142
f 152/179/139 155/100/141 153/180/140
f 2/140/2 86/129/83 150/131/138
f 146/136/135 105/181/99 8/182/8
f 89/54/85 109/117/103 117/52/111
f 76/11/73 74/41/71 84/40/81
f 161/183/145 158/84/143 162/184/146
f 56/185/54 117/52/111 140/186/131
f 153/124/140 98/83/93 97/122/92
f 111/187/105 99/53/94 110/188/104
f 176/189/155 173/20/152 172/19/151
f 84/40/81 64/72/62 73/71/70
f 62/71/60 53/42/52 63/40/61
f 73/71/70 43/147/42 52/146/51
f 42/3/41 40/190/39 43/191/42
f 63/59/61 32/3/32 39/1/38
f 38/60/37 65/192/63 74/193/71
f 162/194/146 85/99/82 108/195/102
f 39/11/38 41/148/40 216/146/157
f 219/153/73 221/14/71 218/13/81
f 222/196/37 224/197/63 221/198/71
f 226/22/60 223/15/52 225/13/61
f 216/1/157 228/60/159 62/59/60
f 54/61/53 51/193/50 64/192/62
f 52/146/51 229/12/160 76/11/73
f 75/191/72 217/2/158 32/3/32
f 230/149/157 232/23/159 226/22/60
f 231/199/41 235/200/39 233/201/42
f 236/149/51 237/154/160 219/153/73
f 238/153/38 234/151/40 230/149/157
f 240/22/70 233/150/42 236/149/51
f 218/13/81 242/24/62 240/22/70
f 225/13/61 243/152/32 238/153/38
f 227/202/53 241/198/50 242/197/62
f 220/201/72 239/203/158 243/199/32
f 95/204/9 138/171/9 121/102/9
f 139/205/130 31/66/31 11/206/11
f 87/207/84 66/33/64 10/160/10
f 21/208/21 48/70/47 49/209/48
f 28/210/28 29/95/29 20/211/20
f 26/39/26 21/208/21 29/212/29
f 30/94/30 50/213/49 19/155/19
f 18/67/18 100/214/18 133/163/18
f 122/162/115 143/90/133 141/165/132
f 111/187/105 132/118/125 89/54/85
f 78/170/75 99/215/94 56/34/54
f 55/216/22 145/135/22 151/217/22
f 12/36/12 33/175/33 144/218/134
f 45/219/44 161/76/145 23/45/23
f 160/75/4 148/220/4 4/167/4
f 150/131/138 8/168/8 2/140/2
f 152/179/139 149/178/137 156/101/142
f 158/84/143 155/221/141 162/184/146
f 180/146/1 169/40/1 163/71/1
f 181/191/148 167/60/148 185/3/148
f 164/222/147 178/223/147 168/224/147
f 166/71/149 189/11/149 183/146/149
f 170/193/150 190/3/150 179/60/150
f 174/225/153 114/134/108 115/226/109
f 94/213/90 173/20/152 175/227/154
f 92/121/88 174/225/153 173/228/152
f 172/19/151 116/210/110 176/189/155
f 188/229/156 184/224/156 191/223/156
f 204/149/1 198/13/1 192/22/1
f 205/201/148 196/196/148 209/199/148
f 193/230/147 202/231/147 197/232/147
f 195/22/149 213/153/149 207/149/149
f 199/198/150 214/199/150 203/196/150
f 212/233/156 208/232/156 215/231/156
f 6/4/6 5/25/5 16/5/16
f 3/7/3 134/26/126 13/8/13
f 136/16/128 3/234/3 14/17/14
f 5/25/5 136/16/128 15/18/15
f 17/6/17 16/5/16 27/28/27
f 14/9/14 13/8/13 24/30/24
f 15/38/15 14/9/14 25/31/25
f 16/5/16 15/18/15 26/46/26
f 25/31/25 24/30/24 35/50/34
f 26/39/26 25/31/25 36/51/35
f 35/50/34 46/62/45 47/63/46
f 36/51/35 47/63/46 48/70/47
f 47/63/46 58/81/56 59/74/57
f 48/46/47 59/82/57 60/78/58
f 49/79/48 60/78/58 61/6/59
f 46/62/45 57/80/55 58/81/56
f 58/17/56 69/234/66 70/16/67
f 59/82/57 70/16/67 71/86/68
f 60/78/58 71/86/68 72/4/69
f 57/80/55 68/87/65 69/91/66
f 69/91/66 68/87/65 79/92/76
f 70/16/67 69/234/66 80/97/77
f 71/86/68 70/16/67 81/98/78
f 72/4/69 71/86/68 82/105/79
f 83/106/80 82/105/79 93/110/89
f 80/93/77 79/92/76 90/112/86
f 81/120/78 80/93/77 91/113/87
f 82/105/79 81/98/78 92/125/88
f 91/113/87 90/112/86 101/126/95
f 92/121/88 91/113/87 102/127/96
f 101/126/95 112/132/106 113/133/107
f 102/127/96 113/133/107 114/134/108
f 113/133/107 124/145/117 125/138/118
f 114/125/108 125/98/118 126/142/119
f 115/143/109 126/142/119 127/106/120
f 112/132/106 123/144/116 124/145/117
f 124/97/117 3/234/3 136/16/128
f 125/98/118 136/16/128 5/25/5
f 126/142/119 5/25/5 6/4/6
f 123/144/116 134/26/126 3/7/3
f 19/155/19 20/211/20 29/95/29
f 77/156/74 87/65/84 128/64/121
f 31/66/31 7/235/7 129/158/122
f 143/90/133 137/108/129 130/107/123
f 66/33/64 140/32/131 131/159/124
f 10/161/10 11/206/11 31/66/31
f 122/162/115 132/236/125 135/109/127
f 23/45/23 161/76/145 108/75/102
f 141/115/132 118/114/112 109/163/103
f 7/89/7 139/237/130 141/165/132
f 11/68/11 131/67/124 118/114/112
f 78/56/75 120/55/114 119/102/113
f 144/166/134 33/44/33 107/43/101
f 144/141/134 2/140/2 8/168/8
f 66/33/64 77/238/74 78/170/75
f 111/103/105 119/102/113 130/171/123
f 44/49/43 12/36/12 105/35/99
f 159/173/144 45/48/44 104/47/98
f 45/48/44 23/239/23 33/175/33
f 146/136/135 150/240/138 149/176/137
f 152/177/139 97/217/92 96/135/91
f 149/178/137 86/241/83 85/99/82
f 152/179/139 156/101/142 155/100/141
f 2/140/2 106/139/100 86/129/83
f 146/136/135 96/135/91 105/181/99
f 89/54/85 132/118/125 109/117/103
f 76/11/73 75/10/72 74/41/71
f 161/183/145 159/85/144 158/84/143
f 56/185/54 99/53/94 117/52/111
f 153/124/140 158/84/143 98/83/93
f 111/187/105 89/54/85 99/53/94
f 176/189/155 175/227/154 173/20/152
f 84/40/81 65/42/63 64/72/62
f 62/71/60 54/72/53 53/42/52
f 73/71/70 51/73/50 43/147/42
f 42/3/41 41/2/40 40/190/39
f 63/59/61 38/60/37 32/3/32
f 38/60/37 53/61/52 65/192/63
f 162/194/146 155/100/141 85/99/82
f 39/11/38 217/12/158 41/148/40
f 219/153/73 220/152/72 221/14/71
f 222/196/37 223/202/52 224/197/63
f 226/22/60 227/24/53 223/15/52
f 216/1/157 42/3/41 228/60/159
f 54/61/53 228/60/159 51/193/50
f 52/146/51 40/148/39 229/12/160
f 75/191/72 229/190/160 217/2/158
f 230/149/157 231/150/41 232/23/159
f 231/199/41 234/203/40 235/200/39
f 236/149/51 235/151/39 237/154/160
f 238/153/38 239/154/158 234/151/40
f 240/22/70 241/23/50 233/150/42
f 218/13/81 224/15/63 242/24/62
f 225/13/61 222/14/37 243/152/32
f 227/202/53 232/196/159 241/198/50
f 220/201/72 237/200/160 239/203/158
f 121/102/9 88/55/9 95/204/9
f 95/204/9 9/242/9 138/171/9
f 139/205/130 7/235/7 31/66/31
f 87/207/84 77/238/74 66/33/64
f 49/209/48 30/243/30 21/208/21
f 21/208/21 37/58/36 48/70/47
f 28/210/28 27/244/27 29/95/29
f 29/212/29 27/245/27 26/39/26
f 26/39/26 37/58/36 21/208/21
f 30/94/30 49/246/48 50/213/49
f 133/163/18 142/114/18 18/67/18
f 18/67/18 67/247/18 100/214/18
f 122/162/115 137/108/129 143/90/133
f 111/187/105 135/248/127 132/118/125
f 78/170/75 110/249/104 99/215/94
f 151/217/22 157/250/22 55/216/22
f 55/216/22 22/181/22 145/135/22
f 12/36/12 44/49/43 33/175/33
f 45/219/44 159/251/144 161/76/145
f 4/167/4 34/43/4 160/75/4
f 160/75/4 154/252/4 148/220/4
f 150/131/138 146/253/135 8/168/8
f 152/179/139 147/254/136 149/178/137
f 158/84/143 153/124/140 155/221/141
f 180/146/1 187/11/1 169/40/1
f 181/191/148 165/193/148 167/60/148
f 164/222/147 171/229/147 178/223/147
f 166/71/149 177/40/149 189/11/149
f 170/193/150 186/191/150 190/3/150
f 115/226/109 172/255/151 174/225/153
f 174/225/153 103/128/97 114/134/108
f 94/213/90 93/256/89 173/20/152
f 173/228/152 93/257/89 92/121/88
f 92/121/88 103/128/97 174/225/153
f 172/19/151 115/258/109 116/210/110
f 188/229/156 182/222/156 184/224/156
f 204/149/1 211/153/1 198/13/1
f 205/201/148 194/198/148 196/196/148
f 193/230/147 200/233/147 202/231/147
f 195/22/149 201/13/149 213/153/149
f 199/198/150 210/201/150 214/199/150
f 212/233/156 206/230/156 208/232/156
