# Blender 5.2.0 LTS
# www.blender.org
o Backdrop_RockFall
v -17.877062 20.761301 19.554466
v -18.379808 20.522060 19.862701
v -17.791248 20.346823 20.029696
v -24.132233 2.754559 23.917387
v -32.613369 2.929797 10.877274
v -24.720793 2.929797 23.750393
v -24.516836 2.340081 23.625345
v -32.409412 2.340082 10.752227
v 12.976287 11.513111 -25.583370
v 9.075526 39.313404 -17.919312
v 8.869485 39.446388 -18.506561
v 8.614162 39.743305 -18.004913
v 12.770245 11.646095 -26.170620
v 12.635565 11.083210 -25.906006
v -2.469401 11.646095 -33.927113
v -6.370161 39.446388 -26.263052
v -6.966207 39.313404 -26.084040
v -6.625484 39.743305 -25.761404
v -3.065447 11.513110 -33.748096
v -2.604083 11.083210 -33.662495
v -13.075526 4.686596 -14.080689
v -16.976286 32.486889 -6.416630
v -16.770245 32.353905 -5.829381
v -16.635565 32.916790 -6.093996
v -1.395918 32.916790 1.662495
v -1.530599 32.353905 1.927110
v -0.934554 32.486889 1.748097
v 2.966206 4.686596 -5.915961
v -12.869485 4.553612 -13.493441
v 2.370161 4.553612 -5.736948
v 2.625484 4.256695 -6.238596
v -12.614162 4.256695 -13.995088
v 15.811350 -2.682885 24.570566
v 24.015020 20.980257 26.233534
v 24.520205 20.830189 25.876787
v 24.251499 21.404497 25.822317
v 16.316534 -2.832954 24.213820
v 15.753674 -3.107125 24.099722
v 20.111118 -2.832954 5.494549
v 28.314789 20.830189 7.157516
v 27.988407 20.980257 6.632202
v 28.046083 21.404497 7.103046
v 19.784737 -2.682885 4.969235
v 19.548258 -3.107124 5.380451
v 3.984980 3.019742 1.766466
v 12.188650 26.682886 3.429433
v 11.683467 26.832954 3.786180
v 12.246327 27.107126 3.900277
v 8.451742 27.107126 22.619549
v 7.888882 26.832954 22.505451
v 8.215262 26.682886 23.030766
v 0.011593 3.019742 21.367798
v 3.479796 3.169812 2.123213
v -0.314789 3.169812 20.842484
v -0.046083 2.595503 20.896954
v 3.748501 2.595503 2.177682
v -3.706780 -2.782074 -7.433683
v 3.051335 30.950972 -14.392096
v 3.029833 30.826612 -15.015852
v 2.815167 31.383446 -14.794825
v -3.728282 -2.906434 -8.057439
v -4.116232 -3.214549 -7.657990
v -20.299206 -2.906434 -24.151365
v -13.541093 30.826612 -31.109779
v -14.165212 30.950972 -31.113060
v -13.755758 31.383446 -30.888752
v -20.923325 -2.782074 -24.154646
v -20.687157 -3.214549 -23.751917
v -35.051334 3.049029 -9.607904
v -28.293221 36.782074 -16.566317
v -28.271717 36.906433 -15.942560
v -27.883766 37.214550 -16.342009
v -21.103649 1.521288 25.420132
v -21.305124 1.077036 25.011417
v -11.312843 37.214550 -0.248083
v -11.700793 36.906433 0.151365
v -11.076675 36.782074 0.154646
v -17.834789 3.049029 7.113060
v -35.029831 3.173388 -8.984148
v -18.458908 3.173389 7.109780
v -18.244244 2.616553 6.888752
v -34.815166 2.616554 -9.205175
v 19.862625 3.095141 14.167574
v 8.642233 58.818882 8.747506
v 9.233402 58.917084 8.533321
v 8.749539 59.258038 8.299589
v 20.453794 3.193344 13.953390
v 20.146786 2.655987 13.805088
v 31.371431 3.193344 -8.647831
v 20.151037 58.917084 -14.067900
v 19.951338 58.818882 -14.664118
v 19.667175 59.258038 -14.301632
v 31.171730 3.095141 -9.244049
v 31.064423 2.655987 -8.796133
v 7.357768 -2.818884 -20.747505
v -3.862625 52.904858 -26.167574
v -4.453794 52.806656 -25.953390
v -4.146786 53.344013 -25.805088
v -15.064424 53.344013 -3.203868
v -15.371430 52.806656 -3.352170
v -15.171731 52.904858 -2.755951
v -3.951337 -2.818884 2.664118
v 6.766598 -2.917087 -20.533321
v -4.151037 -2.917087 2.067899
v -3.667175 -3.258038 2.301631
v 7.250460 -3.258038 -20.299589
v 12.000361 -4.070784 15.179862
v 18.560295 38.478714 13.150638
v 18.851721 38.407021 12.589451
v 18.495802 38.922966 12.699550
v 12.291788 -4.142477 14.618675
v 11.798886 -4.515036 14.771148
v 3.101111 -4.142477 -15.092291
v 9.661043 38.407021 -17.121515
v 9.103648 38.478714 -17.420132
v 9.305123 38.922966 -17.011417
v 2.543716 -4.070784 -15.390906
v 2.608209 -4.515036 -14.939818
v -30.560295 1.521288 -5.150638
v -24.000362 44.070786 -7.179862
v -24.291788 44.142479 -6.618675
v -23.798887 44.515038 -6.771147
v -14.608209 44.515038 22.939819
v -15.101110 44.142479 23.092291
v -14.543715 44.070786 23.390907
v -21.103649 1.521288 25.420132
v -30.851721 1.592982 -4.589450
v -21.661043 1.592982 25.121515
v -21.305124 1.077036 25.011417
v -30.495802 1.077036 -4.699549
v -21.661043 1.592982 25.121515
v -14.543715 44.070786 23.390907
v -14.608209 44.515038 22.939819
v -15.101110 44.142479 23.092291
v -30.495802 1.077036 -4.699549
v -30.851721 1.592982 -4.589450
v -30.560295 1.521288 -5.150638
v -23.798887 44.515038 -6.771147
v -24.000362 44.070786 -7.179862
v -24.291788 44.142479 -6.618675
v 11.798886 -4.515036 14.771148
v 12.291788 -4.142477 14.618675
v 12.000361 -4.070784 15.179862
v 18.495802 38.922966 12.699550
v 18.560295 38.478714 13.150638
v 18.851721 38.407021 12.589451
v 2.608209 -4.515036 -14.939818
v 2.543716 -4.070784 -15.390906
v 3.101111 -4.142477 -15.092291
v 9.305123 38.922966 -17.011417
v 9.661043 38.407021 -17.121515
v 9.103648 38.478714 -17.420132
v -3.667175 -3.258038 2.301631
v -3.951337 -2.818884 2.664118
v -4.151037 -2.917087 2.067899
v -15.171731 52.904858 -2.755951
v -15.064424 53.344013 -3.203868
v -15.371430 52.806656 -3.352170
v 7.250460 -3.258038 -20.299589
v 6.766598 -2.917087 -20.533321
v 7.357768 -2.818884 -20.747505
v -4.146786 53.344013 -25.805088
v -3.862625 52.904858 -26.167574
v -4.453794 52.806656 -25.953390
v 20.146786 2.655987 13.805088
v 20.453794 3.193344 13.953390
v 19.862625 3.095141 14.167574
v 8.749539 59.258038 8.299589
v 8.642233 58.818882 8.747506
v 9.233402 58.917084 8.533321
v 31.064423 2.655987 -8.796133
v 31.171730 3.095141 -9.244049
v 31.371431 3.193344 -8.647831
v 19.667175 59.258038 -14.301632
v 20.151037 58.917084 -14.067900
v 19.951338 58.818882 -14.664118
v -18.244244 2.616553 6.888752
v -17.834789 3.049029 7.113060
v -18.458908 3.173389 7.109780
v -11.076675 36.782074 0.154646
v -11.312843 37.214550 -0.248083
v -11.700793 36.906433 0.151365
v -34.815166 2.616554 -9.205175
v -35.029831 3.173388 -8.984148
v -35.051334 3.049029 -9.607904
v -27.883766 37.214550 -16.342009
v -28.293221 36.782074 -16.566317
v -28.271717 36.906433 -15.942560
v -4.116232 -3.214549 -7.657990
v -3.728282 -2.906434 -8.057439
v -3.706780 -2.782074 -7.433683
v 2.815167 31.383446 -14.794825
v 3.051335 30.950972 -14.392096
v 3.029833 30.826612 -15.015852
v -20.687157 -3.214549 -23.751917
v -20.923325 -2.782074 -24.154646
v -20.299206 -2.906434 -24.151365
v -13.755758 31.383446 -30.888752
v -13.541093 30.826612 -31.109779
v -14.165212 30.950972 -31.113060
v -0.046083 2.595503 20.896954
v 0.011593 3.019742 21.367798
v -0.314789 3.169812 20.842484
v 8.215262 26.682886 23.030766
v 8.451742 27.107126 22.619549
v 7.888882 26.832954 22.505451
v 3.748501 2.595503 2.177682
v 3.479796 3.169812 2.123213
v 3.984980 3.019742 1.766466
v 12.246327 27.107126 3.900277
v 12.188650 26.682886 3.429433
v 11.683467 26.832954 3.786180
v 15.753674 -3.107125 24.099722
v 16.316534 -2.832954 24.213820
v 15.811350 -2.682885 24.570566
v 24.251499 21.404497 25.822317
v 24.015020 20.980257 26.233534
v 24.520205 20.830189 25.876787
v 19.548258 -3.107124 5.380451
v 19.784737 -2.682885 4.969235
v 20.111118 -2.832954 5.494549
v 28.046083 21.404497 7.103046
v 28.314789 20.830189 7.157516
v 27.988407 20.980257 6.632202
v 2.625484 4.256695 -6.238596
v 2.966206 4.686596 -5.915961
v 2.370161 4.553612 -5.736948
v -0.934554 32.486889 1.748097
v -1.395918 32.916790 1.662495
v -1.530599 32.353905 1.927110
v -12.614162 4.256695 -13.995088
v -12.869485 4.553612 -13.493441
v -13.075526 4.686596 -14.080689
v -16.635565 32.916790 -6.093996
v -16.976286 32.486889 -6.416630
v -16.770245 32.353905 -5.829381
v 12.635565 11.083210 -25.906006
v 12.770245 11.646095 -26.170620
v 12.976287 11.513111 -25.583370
v 8.614162 39.743305 -18.004913
v 9.075526 39.313404 -17.919312
v 8.869485 39.446388 -18.506561
v -2.604083 11.083210 -33.662495
v -3.065447 11.513110 -33.748096
v -2.469401 11.646095 -33.927113
v -6.625484 39.743305 -25.761404
v -6.370161 39.446388 -26.263052
v -6.966207 39.313404 -26.084040
v -24.516836 2.340081 23.625345
v -24.132233 2.754559 23.917387
v -24.720793 2.929797 23.750393
v -17.791248 20.346823 20.029696
v -17.877062 20.761301 19.554466
v -18.379808 20.522060 19.862701
v -32.409412 2.340082 10.752227
v -32.613369 2.929797 10.877274
v -32.495228 2.754559 10.276995
v -25.769640 20.761301 6.681345
v -26.154243 20.346823 6.389304
v -26.272387 20.522060 6.989582
v -14.230362 -2.761300 17.318655
v -13.727614 -2.522061 17.010418
v -13.845757 -2.346823 17.610697
v -7.590588 15.659919 13.247774
v -7.504773 15.245441 13.723005
v -7.386630 15.070203 13.122726
v -22.122938 -2.761300 4.445534
v -22.208752 -2.346823 3.970304
v -21.620192 -2.522061 4.137298
v -15.483164 15.659919 0.374654
v -15.279206 15.070203 0.249607
v -15.867768 15.245441 0.082613
v -11.170747 42.056759 3.015551
v -11.392267 42.497787 3.417323
v -11.439688 42.587189 2.789025
v -9.097812 57.296795 5.349916
v -8.739536 57.737823 5.063332
v -9.145232 57.386196 4.721619
v 2.422248 42.056759 -13.122618
v 2.153307 42.587189 -13.349144
v 2.780523 42.497787 -13.409204
v 4.853459 57.737823 -11.074837
v 5.074979 57.296795 -11.476609
v 4.447763 57.386196 -11.416550
v 3.146541 38.262177 15.074837
v 3.552238 38.613804 15.416551
v 2.925021 38.703205 15.476609
v 5.577753 53.943241 17.122618
v 5.219477 53.502213 17.409203
v 5.846693 53.412811 17.349142
v 16.739536 38.262177 -1.063332
v 17.097813 38.703205 -1.349917
v 17.145233 38.613804 -0.721619
v 19.170746 53.943241 0.984449
v 19.439686 53.412811 1.210974
v 19.392265 53.502213 0.582677
v 29.250000 0.000000 12.550000
v 29.250000 0.450000 13.000000
v 28.799999 0.450000 12.550000
v 29.250000 51.549999 13.000000
v 29.250000 52.000000 12.550000
v 28.799999 51.549999 12.550000
v 29.250000 0.000000 -12.550000
v 28.799999 0.450000 -12.550000
v 29.250000 0.450000 -13.000000
v 29.250000 52.000000 -12.550000
v 29.250000 51.549999 -13.000000
v 28.799999 51.549999 -12.550000
v 30.750000 0.000000 12.550000
v 31.200001 0.450000 12.550000
v 30.750000 0.450000 13.000000
v 30.750000 52.000000 12.550000
v 30.750000 51.549999 13.000000
v 31.200001 51.549999 12.550000
v 30.750000 0.000000 -12.550000
v 30.750000 0.450000 -13.000000
v 31.200001 0.450000 -12.550000
v 30.750000 52.000000 -12.550000
v 31.200001 51.549999 -12.550000
v 30.750000 51.549999 -13.000000
v 21.450001 49.500000 14.550000
v 21.450001 49.950001 15.000000
v 21.000000 49.950001 14.550000
v 21.450001 52.049999 15.000000
v 21.450001 52.500000 14.550000
v 21.000000 52.049999 14.550000
v 21.450001 49.500000 -14.550000
v 21.000000 49.950001 -14.550000
v 21.450001 49.950001 -15.000000
v 21.450001 52.500000 -14.550000
v 21.450001 52.049999 -15.000000
v 21.000000 52.049999 -14.550000
v 34.549999 49.500000 14.550000
v 35.000000 49.950001 14.550000
v 34.549999 49.950001 15.000000
v 34.549999 52.500000 14.550000
v 34.549999 52.049999 15.000000
v 35.000000 52.049999 14.550000
v 34.549999 49.500000 -14.550000
v 34.549999 49.950001 -15.000000
v 35.000000 49.950001 -14.550000
v 34.549999 52.500000 -14.550000
v 35.000000 52.049999 -14.550000
v 34.549999 52.049999 -15.000000
v 28.000000 0.500000 -29.538427
v 28.000000 0.950000 -30.000000
v 28.000000 3.500000 -29.538427
v 28.000000 3.050000 -30.000000
v 40.816246 0.500000 -26.613205
v 41.016514 0.950000 -27.029066
v 40.816246 3.500000 -26.613205
v 41.016514 3.050000 -27.029066
v 51.094067 0.500000 -18.416912
v 51.454941 0.950000 -18.704697
v 51.094067 3.500000 -18.416912
v 51.454941 3.050000 -18.704697
v 56.797836 0.500000 -6.572917
v 57.247837 0.950000 -6.675629
v 56.797836 3.500000 -6.572917
v 57.247837 3.050000 -6.675629
v 56.797836 0.500000 6.572917
v 57.247837 0.950000 6.675629
v 56.797836 3.500000 6.572917
v 57.247837 3.050000 6.675629
v 51.094067 0.500000 18.416912
v 51.454941 0.950000 18.704697
v 51.094067 3.500000 18.416912
v 51.454941 3.050000 18.704697
v 40.816246 0.500000 26.613205
v 41.016514 0.950000 27.029066
v 40.816246 3.500000 26.613205
v 41.016514 3.050000 27.029066
v 28.000000 0.500000 29.538427
v 28.000000 0.950000 30.000000
v 28.000000 3.500000 29.538427
v 28.000000 3.050000 30.000000
v 15.183756 0.500000 26.613205
v 14.983487 0.950000 27.029066
v 15.183756 3.500000 26.613205
v 14.983487 3.050000 27.029066
v 4.905930 0.500000 18.416912
v 4.545057 0.950000 18.704697
v 4.905930 3.500000 18.416912
v 4.545057 3.050000 18.704697
v -0.797837 0.500000 6.572919
v -1.247837 0.950000 6.675629
v -0.797837 3.500000 6.572919
v -1.247837 3.050000 6.675629
v -0.797837 0.500000 -6.572919
v -1.247837 0.950000 -6.675629
v -0.797837 3.500000 -6.572919
v -1.247837 3.050000 -6.675629
v 4.905930 0.500000 -18.416912
v 4.545057 0.950000 -18.704697
v 4.905930 3.500000 -18.416912
v 4.545057 3.050000 -18.704697
v 15.183756 0.500000 -26.613205
v 14.983487 0.950000 -27.029066
v 15.183756 3.500000 -26.613205
v 14.983487 3.050000 -27.029066
v 28.000000 3.000000 -19.538427
v 28.000000 3.450000 -20.000000
v 28.000000 5.000000 -19.538427
v 28.000000 4.550000 -20.000000
v 36.477406 3.000000 -17.603516
v 36.677673 3.450000 -18.019377
v 36.477406 5.000000 -17.603516
v 36.677673 4.550000 -18.019377
v 43.275753 3.000000 -12.182013
v 43.636627 3.450000 -12.469797
v 43.275753 5.000000 -12.182014
v 43.636627 4.550000 -12.469797
v 47.048557 3.000000 -4.347708
v 47.498558 3.450000 -4.450419
v 47.048557 5.000000 -4.347708
v 47.498558 4.550000 -4.450419
v 47.048557 3.000000 4.347708
v 47.498558 3.450000 4.450419
v 47.048557 5.000000 4.347708
v 47.498558 4.550000 4.450419
v 43.275753 3.000000 12.182014
v 43.636627 3.450000 12.469797
v 43.275753 5.000000 12.182013
v 43.636627 4.550000 12.469797
v 36.477406 3.000000 17.603516
v 36.677673 3.450000 18.019377
v 36.477406 5.000000 17.603516
v 36.677673 4.550000 18.019377
v 28.000000 3.000000 19.538427
v 28.000000 3.450000 20.000000
v 28.000000 5.000000 19.538427
v 28.000000 4.550000 20.000000
v 19.522594 3.000000 17.603516
v 19.322325 3.450000 18.019377
v 19.522594 5.000000 17.603516
v 19.322325 4.550000 18.019377
v 12.724243 3.000000 12.182012
v 12.363371 3.450000 12.469797
v 12.724242 5.000000 12.182012
v 12.363371 4.550000 12.469797
v 8.951442 3.000000 4.347710
v 8.501442 3.450000 4.450419
v 8.951442 5.000000 4.347710
v 8.501442 4.550000 4.450419
v 8.951442 3.000000 -4.347710
v 8.501442 3.450000 -4.450419
v 8.951442 5.000000 -4.347710
v 8.501442 4.550000 -4.450419
v 12.724242 3.000000 -12.182012
v 12.363371 3.450000 -12.469797
v 12.724243 5.000000 -12.182012
v 12.363371 4.550000 -12.469797
v 19.522594 3.000000 -17.603516
v 19.322325 3.450000 -18.019377
v 19.522594 5.000000 -17.603516
v 19.322325 4.550000 -18.019377
v -25.769640 20.761301 6.681345
v -26.272387 20.522060 6.989582
v -26.154243 20.346823 6.389304
v -32.495228 2.754559 10.276995
v -22.122938 -2.761300 4.445534
v -22.208752 -2.346823 3.970304
v -15.483164 15.659919 0.374654
v -15.867768 15.245441 0.082613
v -15.279206 15.070203 0.249607
v -21.620192 -2.522061 4.137298
v -14.230362 -2.761300 17.318655
v -13.727614 -2.522061 17.010418
v -7.590588 15.659919 13.247774
v -7.386630 15.070203 13.122726
v -7.504773 15.245441 13.723005
v -13.845757 -2.346823 17.610697
v 2.422248 42.056759 -13.122618
v -11.170747 42.056759 3.015551
v -11.439688 42.587189 2.789025
v 2.153307 42.587189 -13.349144
v -11.392267 42.497787 3.417323
v -9.097812 57.296795 5.349916
v -9.145232 57.386196 4.721619
v -8.739536 57.737823 5.063332
v 4.853459 57.737823 -11.074837
v 4.447763 57.386196 -11.416550
v 5.074979 57.296795 -11.476609
v 2.780523 42.497787 -13.409204
v 16.739536 38.262177 -1.063332
v 17.097813 38.703205 -1.349917
v 19.170746 53.943241 0.984449
v 19.392265 53.502213 0.582677
v 19.439686 53.412811 1.210974
v 17.145233 38.613804 -0.721619
v 3.146541 38.262177 15.074837
v 3.552238 38.613804 15.416551
v 5.577753 53.943241 17.122618
v 5.846693 53.412811 17.349142
v 5.219477 53.502213 17.409203
v 2.925021 38.703205 15.476609
v 29.250000 0.000000 -12.550000
v 29.250000 0.000000 12.550000
v 28.799999 0.450000 12.550000
v 28.799999 0.450000 -12.550000
v 29.250000 0.450000 13.000000
v 29.250000 51.549999 13.000000
v 28.799999 51.549999 12.550000
v 29.250000 52.000000 12.550000
v 29.250000 52.000000 -12.550000
v 28.799999 51.549999 -12.550000
v 29.250000 51.549999 -13.000000
v 29.250000 0.450000 -13.000000
v 30.750000 0.000000 -12.550000
v 30.750000 0.450000 -13.000000
v 30.750000 52.000000 -12.550000
v 30.750000 51.549999 -13.000000
v 31.200001 51.549999 -12.550000
v 31.200001 0.450000 -12.550000
v 30.750000 0.000000 12.550000
v 31.200001 0.450000 12.550000
v 30.750000 52.000000 12.550000
v 31.200001 51.549999 12.550000
v 30.750000 51.549999 13.000000
v 30.750000 0.450000 13.000000
v 21.450001 49.500000 -14.550000
v 21.450001 49.500000 14.550000
v 21.000000 49.950001 14.550000
v 21.000000 49.950001 -14.550000
v 21.450001 49.950001 15.000000
v 21.450001 52.049999 15.000000
v 21.000000 52.049999 14.550000
v 21.450001 52.500000 14.550000
v 21.450001 52.500000 -14.550000
v 21.000000 52.049999 -14.550000
v 21.450001 52.049999 -15.000000
v 21.450001 49.950001 -15.000000
v 34.549999 49.500000 -14.550000
v 34.549999 49.950001 -15.000000
v 34.549999 52.500000 -14.550000
v 34.549999 52.049999 -15.000000
v 35.000000 52.049999 -14.550000
v 35.000000 49.950001 -14.550000
v 34.549999 49.500000 14.550000
v 35.000000 49.950001 14.550000
v 34.549999 52.500000 14.550000
v 35.000000 52.049999 14.550000
v 34.549999 52.049999 15.000000
v 34.549999 49.950001 15.000000
v 43.636627 4.550000 12.469797
v 47.498558 4.550000 4.450419
v 47.048557 5.000000 4.347708
v 43.275753 5.000000 12.182013
v 28.000000 0.950000 -30.000000
v 41.016514 0.950000 -27.029066
v 40.816246 0.500000 -26.613205
v 28.000000 0.500000 -29.538427
v 41.016514 3.050000 -27.029066
v 28.000000 3.050000 -30.000000
v 28.000000 3.500000 -29.538427
v 40.816246 3.500000 -26.613205
v 51.454941 0.950000 -18.704697
v 51.094067 0.500000 -18.416912
v 43.636627 4.550000 -12.469797
v 36.677673 4.550000 -18.019377
v 36.477406 5.000000 -17.603516
v 43.275753 5.000000 -12.182014
v 51.454941 3.050000 -18.704697
v 51.094067 3.500000 -18.416912
v 47.498558 3.450000 4.450419
v 43.636627 3.450000 12.469797
v 43.275753 3.000000 12.182014
v 47.048557 3.000000 4.347708
v 57.247837 0.950000 -6.675629
v 56.797836 0.500000 -6.572917
v 57.247837 3.050000 -6.675629
v 56.797836 3.500000 -6.572917
v 57.247837 0.950000 6.675629
v 56.797836 0.500000 6.572917
v 36.677673 3.450000 -18.019377
v 43.636627 3.450000 -12.469797
v 43.275753 3.000000 -12.182013
v 36.477406 3.000000 -17.603516
v 57.247837 3.050000 6.675629
v 56.797836 3.500000 6.572917
v 51.454941 0.950000 18.704697
v 51.094067 0.500000 18.416912
v 51.454941 3.050000 18.704697
v 51.094067 3.500000 18.416912
v 47.498558 4.550000 -4.450419
v 47.048557 5.000000 -4.347708
v 41.016514 0.950000 27.029066
v 40.816246 0.500000 26.613205
v 41.016514 3.050000 27.029066
v 40.816246 3.500000 26.613205
v 28.000000 0.950000 30.000000
v 28.000000 0.500000 29.538427
v 28.000000 3.050000 30.000000
v 28.000000 3.500000 29.538427
v 47.498558 3.450000 -4.450419
v 47.048557 3.000000 -4.347708
v 14.983487 0.950000 27.029066
v 15.183756 0.500000 26.613205
v 28.000000 4.550000 -20.000000
v 28.000000 5.000000 -19.538427
v 14.983487 3.050000 27.029066
v 15.183756 3.500000 26.613205
v 4.545057 0.950000 18.704697
v 4.905930 0.500000 18.416912
v 4.545057 3.050000 18.704697
v 4.905930 3.500000 18.416912
v -1.247837 0.950000 6.675629
v -0.797837 0.500000 6.572919
v -1.247837 3.050000 6.675629
v -0.797837 3.500000 6.572919
v -1.247837 0.950000 -6.675629
v -0.797837 0.500000 -6.572919
v 28.000000 3.450000 -20.000000
v 28.000000 3.000000 -19.538427
v -1.247837 3.050000 -6.675629
v -0.797837 3.500000 -6.572919
v 4.545057 0.950000 -18.704697
v 4.905930 0.500000 -18.416912
v 4.545057 3.050000 -18.704697
v 4.905930 3.500000 -18.416912
v 14.983487 0.950000 -27.029066
v 15.183756 0.500000 -26.613205
v 14.983487 3.050000 -27.029066
v 15.183756 3.500000 -26.613205
v 36.677673 3.450000 18.019377
v 36.477406 3.000000 17.603516
v 36.677673 4.550000 18.019377
v 36.477406 5.000000 17.603516
v 28.000000 3.450000 20.000000
v 28.000000 3.000000 19.538427
v 28.000000 4.550000 20.000000
v 28.000000 5.000000 19.538427
v 19.322325 3.450000 18.019377
v 19.522594 3.000000 17.603516
v 19.322325 4.550000 18.019377
v 19.522594 5.000000 17.603516
v 12.363371 3.450000 12.469797
v 12.724243 3.000000 12.182012
v 12.363371 4.550000 12.469797
v 12.724242 5.000000 12.182012
v 8.501442 3.450000 4.450419
v 8.951442 3.000000 4.347710
v 8.501442 4.550000 4.450419
v 8.951442 5.000000 4.347710
v 8.501442 3.450000 -4.450419
v 8.951442 3.000000 -4.347710
v 8.501442 4.550000 -4.450419
v 8.951442 5.000000 -4.347710
v 12.363371 3.450000 -12.469797
v 12.724242 3.000000 -12.182012
v 12.363371 4.550000 -12.469797
v 12.724243 5.000000 -12.182012
v 19.322325 3.450000 -18.019377
v 19.522594 3.000000 -17.603516
v 19.322325 4.550000 -18.019377
v 19.522594 5.000000 -17.603516
vn 0.1310 0.8782 0.4599
vn -0.2022 0.7197 0.6642
vn 0.1879 0.6036 0.7749
vn -0.1179 -0.2449 0.9624
vn -0.9895 -0.1287 0.0664
vn -0.5080 -0.1287 0.8517
vn -0.3728 -0.5195 0.7688
vn -0.8543 -0.5195 -0.0165
vn 0.9376 -0.3039 -0.1692
vn 0.8141 0.5761 0.0734
vn 0.6775 0.6642 -0.3158
vn 0.5083 0.8610 0.0166
vn 0.8010 -0.2158 -0.5584
vn 0.7117 -0.5888 -0.3831
vn -0.0199 -0.2158 -0.9762
vn -0.1434 0.6642 -0.7336
vn -0.5384 0.5761 -0.6150
vn -0.3126 0.8610 -0.4012
vn -0.4149 -0.3039 -0.8576
vn -0.1092 -0.5888 -0.8009
vn -0.8141 -0.5761 -0.0734
vn -0.9376 0.3039 0.1692
vn -0.8010 0.2158 0.5584
vn -0.7117 0.5888 0.3831
vn 0.1092 0.5888 0.8009
vn 0.0199 0.2158 0.9762
vn 0.4149 0.3039 0.8576
vn 0.5384 -0.5761 0.6150
vn -0.6775 -0.6642 0.3158
vn 0.1434 -0.6642 0.7336
vn 0.3126 -0.8610 0.4012
vn -0.5083 -0.8610 -0.0166
vn 0.1243 -0.5878 0.7994
vn 0.4253 0.2806 0.8604
vn 0.7601 0.1812 0.6240
vn 0.5820 0.5618 0.5879
vn 0.4591 -0.6872 0.5630
vn 0.0860 -0.8689 0.4874
vn 0.6421 -0.6872 -0.3398
vn 0.9431 0.1812 -0.2787
vn 0.7268 0.2806 -0.6269
vn 0.7650 0.5618 -0.3148
vn 0.4258 -0.5878 -0.6879
vn 0.2690 -0.8689 -0.4154
vn -0.4253 -0.2806 -0.8604
vn -0.1243 0.5878 -0.7994
vn -0.4591 0.6872 -0.5630
vn -0.0860 0.8689 -0.4874
vn -0.2690 0.8689 0.4154
vn -0.6421 0.6872 0.3398
vn -0.4258 0.5878 0.6879
vn -0.7268 -0.2806 0.6269
vn -0.7601 -0.1812 -0.6240
vn -0.9431 -0.1812 0.2787
vn -0.7650 -0.5618 0.3148
vn -0.5820 -0.5618 -0.5879
vn 0.7640 -0.5699 0.3024
vn 0.9414 0.3153 0.1198
vn 0.9271 0.2329 -0.2936
vn 0.7849 0.6020 -0.1471
vn 0.7498 -0.6523 -0.1109
vn 0.4927 -0.8565 0.1538
vn 0.0890 -0.6523 -0.7527
vn 0.2664 0.2329 -0.9353
vn -0.1473 0.3153 -0.9375
vn 0.1241 0.6020 -0.7888
vn -0.3246 -0.5699 -0.7549
vn -0.1681 -0.8565 -0.4880
vn -0.9414 -0.3153 -0.1198
vn -0.7640 0.5699 -0.3024
vn -0.7498 0.6523 0.1109
vn -0.4927 0.8565 -0.1538
vn 0.2955 -0.0000 0.9553
vn -0.1522 -0.9872 0.0471
vn 0.1681 0.8565 0.4880
vn -0.0890 0.6523 0.7527
vn 0.3246 0.5699 0.7549
vn 0.1473 -0.3153 0.9375
vn -0.9271 -0.2329 0.2936
vn -0.2664 -0.2329 0.9353
vn -0.1241 -0.6020 0.7888
vn -0.7849 -0.6020 0.1471
vn 0.1652 -0.3490 0.9225
vn -0.0158 0.5500 0.8350
vn 0.3760 0.6151 0.6931
vn 0.0553 0.8410 0.5382
vn 0.5570 -0.2839 0.7805
vn 0.3535 -0.6400 0.6822
vn 0.9576 -0.2839 -0.0489
vn 0.7766 0.6151 -0.1363
vn 0.6443 0.5500 -0.5315
vn 0.4559 0.8410 -0.2912
vn 0.8253 -0.3490 -0.4440
vn 0.7542 -0.6400 -0.1472
vn 0.0158 -0.5500 -0.8350
vn -0.1652 0.3490 -0.9225
vn -0.5570 0.2839 -0.7805
vn -0.3535 0.6400 -0.6822
vn -0.7542 0.6400 0.1472
vn -0.9576 0.2839 0.0489
vn -0.8253 0.3490 0.4440
vn -0.6443 -0.5500 0.5315
vn -0.3760 -0.6151 -0.6931
vn -0.7766 -0.6151 0.1363
vn -0.4559 -0.8410 0.2912
vn -0.0553 -0.8410 -0.5382
vn 0.5885 -0.5281 0.6122
vn 0.7287 0.3813 0.5689
vn 0.9218 0.3338 0.1969
vn 0.6860 0.6757 0.2699
vn 0.7816 -0.5756 0.2403
vn 0.4550 -0.8225 0.3414
vn 0.5094 -0.5756 -0.6397
vn 0.6496 0.3338 -0.6831
vn 0.2802 0.3813 -0.8810
vn 0.4138 0.6757 -0.6101
vn 0.1400 -0.5281 -0.8376
vn 0.1828 -0.8225 -0.5386
vn -0.7287 -0.3813 -0.5688
vn -0.5885 0.5281 -0.6122
vn -0.7816 0.5756 -0.2403
vn -0.4550 0.8225 -0.3413
vn -0.1828 0.8225 0.5386
vn -0.5094 0.5756 0.6397
vn -0.1400 0.5281 0.8376
vn -0.2802 -0.3813 0.8810
vn -0.9218 -0.3338 -0.1969
vn -0.6496 -0.3338 0.6830
vn -0.4138 -0.6757 0.6101
vn -0.6860 -0.6757 -0.2699
vn -0.9431 0.1593 0.2917
vn 0.1522 0.9872 -0.0471
vn -0.2955 -0.0000 -0.9553
vn 0.9431 -0.1593 -0.2917
vn 0.1965 -0.9759 0.0949
vn -0.4350 -0.0000 0.9004
vn -0.8787 -0.2182 -0.4245
vn -0.1965 0.9759 -0.0949
vn 0.4350 -0.0000 -0.9004
vn 0.8787 0.2182 0.4245
vn -0.1925 -0.9611 0.1982
vn 0.7174 -0.0000 0.6967
vn -0.6696 0.2764 0.6894
vn 0.1925 0.9611 -0.1982
vn -0.7174 -0.0000 -0.6967
vn 0.6696 -0.2764 -0.6894
vn -0.3268 -0.9428 -0.0663
vn -0.1987 -0.0000 0.9801
vn -0.9240 0.3335 -0.1873
vn 0.3268 0.9428 0.0663
vn 0.1987 -0.0000 -0.9801
vn 0.9240 -0.3335 0.1873
vn 0.1340 -0.9553 -0.2634
vn 0.8912 -0.0000 0.4536
vn -0.4333 -0.2955 0.8514
vn -0.1340 0.9553 0.2634
vn -0.8912 -0.0000 -0.4536
vn 0.4333 0.2955 -0.8514
vn -0.3320 -0.9211 0.2035
vn 0.5227 -0.0000 0.8525
vn -0.7852 0.3894 0.4814
vn 0.3320 0.9211 -0.2035
vn -0.5227 -0.0000 -0.8525
vn 0.7852 -0.3894 -0.4814
vn -0.1520 -0.9801 -0.1280
vn -0.6442 -0.0000 0.7648
vn -0.7496 0.1987 -0.6314
vn 0.1520 0.9801 0.1280
vn 0.6442 -0.0000 -0.7648
vn 0.7496 -0.1987 0.6314
vn -0.0000 -1.0000 -0.0000
vn -0.0000 -0.0000 1.0000
vn -1.0000 -0.0000 -0.0000
vn -0.0000 1.0000 -0.0000
vn -0.0000 -0.0000 -1.0000
vn 1.0000 -0.0000 -0.0000
vn 0.4339 -0.0000 -0.9010
vn 0.7818 -0.0000 -0.6235
vn 0.9749 -0.0000 -0.2225
vn 0.9749 -0.0000 0.2225
vn 0.7818 -0.0000 0.6235
vn 0.4339 -0.0000 0.9010
vn -0.4339 -0.0000 0.9010
vn -0.7818 -0.0000 0.6235
vn -0.9749 -0.0000 0.2225
vn -0.9749 -0.0000 -0.2225
vn -0.7818 -0.0000 -0.6235
vn -0.4339 -0.0000 -0.9010
vn -0.3505 0.8782 -0.3254
vn -0.6837 0.7197 -0.1211
vn -0.6054 0.6036 -0.5189
vn -0.9112 -0.2449 -0.3314
vn -0.1310 -0.8782 -0.4599
vn -0.1879 -0.6036 -0.7749
vn 0.3728 0.5195 -0.7688
vn 0.1179 0.2449 -0.9624
vn 0.5080 0.1287 -0.8517
vn 0.2022 -0.7197 -0.6642
vn 0.3505 -0.8782 0.3254
vn 0.6837 -0.7197 0.1211
vn 0.8543 0.5195 0.0165
vn 0.9895 0.1287 -0.0664
vn 0.9112 0.2449 0.3314
vn 0.6054 -0.6036 0.5189
vn -0.1638 -0.6522 -0.7402
vn -0.7572 -0.6522 -0.0356
vn -0.9355 -0.3006 -0.1858
vn -0.3421 -0.3006 -0.8903
vn -0.9040 -0.3599 0.2306
vn -0.7641 0.5429 0.3485
vn -0.7955 0.6021 -0.0679
vn -0.5266 0.8352 0.1586
vn 0.0668 0.8352 -0.5459
vn -0.2021 0.6021 -0.7724
vn 0.2136 0.5429 -0.8122
vn 0.0736 -0.3599 -0.9301
vn 0.5266 -0.8352 -0.1586
vn 0.7641 -0.5429 -0.3485
vn 0.7572 0.6522 0.0356
vn 0.9040 0.3599 -0.2306
vn 0.9355 0.3006 0.1858
vn 0.7955 -0.6021 0.0679
vn -0.0668 -0.8352 0.5459
vn 0.2021 -0.6021 0.7724
vn 0.1638 0.6522 0.7402
vn 0.3421 0.3006 0.8903
vn -0.0736 0.3599 0.9301
vn -0.2136 -0.5429 0.8122
vn -0.4606 -0.7588 -0.4606
vn -0.4606 -0.7588 0.4606
vn -0.7588 -0.4606 0.4606
vn -0.7588 -0.4606 -0.4606
vn -0.4606 -0.4606 0.7588
vn -0.4606 0.4606 0.7588
vn -0.7588 0.4606 0.4606
vn -0.4606 0.7588 0.4606
vn -0.4606 0.7588 -0.4606
vn -0.7588 0.4606 -0.4606
vn -0.4606 0.4606 -0.7588
vn -0.4606 -0.4606 -0.7588
vn 0.4606 -0.7588 -0.4606
vn 0.4606 -0.4606 -0.7588
vn 0.4606 0.7588 -0.4606
vn 0.4606 0.4606 -0.7588
vn 0.7588 0.4606 -0.4606
vn 0.7588 -0.4606 -0.4606
vn 0.4606 -0.7588 0.4606
vn 0.7588 -0.4606 0.4606
vn 0.4606 0.7588 0.4606
vn 0.7588 0.4606 0.4606
vn 0.4606 0.4606 0.7588
vn 0.4606 -0.4606 0.7588
vn 0.5458 0.7160 0.4352
vn 0.6806 0.7160 0.1553
vn -0.0000 -0.7160 -0.6981
vn 0.3029 -0.7160 -0.6289
vn 0.3029 0.7160 -0.6289
vn -0.0000 0.7160 -0.6981
vn 0.5458 -0.7160 -0.4352
vn 0.5458 0.7160 -0.4352
vn 0.6806 -0.7160 0.1553
vn 0.5458 -0.7160 0.4352
vn 0.6806 -0.7160 -0.1553
vn 0.6806 0.7160 -0.1553
vn 0.3029 -0.7160 0.6289
vn 0.3029 0.7160 0.6289
vn -0.0000 -0.7160 0.6981
vn -0.0000 0.7160 0.6981
vn -0.3029 -0.7160 0.6289
vn -0.3029 0.7160 0.6289
vn -0.5458 -0.7160 0.4352
vn -0.5458 0.7160 0.4352
vn -0.6806 -0.7160 0.1553
vn -0.6806 0.7160 0.1553
vn -0.6806 -0.7160 -0.1553
vn -0.6806 0.7160 -0.1553
vn -0.5458 -0.7160 -0.4352
vn -0.5458 0.7160 -0.4352
vn -0.3029 -0.7160 -0.6289
vn -0.3029 0.7160 -0.6289
vt -0.553834 -0.007732
vt -0.565642 0.012404
vt -0.585040 -0.007568
vt -0.183359 -0.115082
vt -0.197567 -0.133206
vt -0.207552 -0.103395
vt -1.034358 1.187596
vt -1.046166 1.207732
vt -1.014960 1.207568
vt 0.460259 0.130828
vt 0.449207 0.158669
vt 0.480395 0.152451
vt 0.137798 2.645243
vt 0.160193 2.667201
vt 0.167608 2.640333
vt -0.634977 1.946148
vt -0.657532 1.923936
vt -0.629473 1.920351
vt -0.687788 1.569172
vt -0.677055 1.541331
vt -0.708261 1.547549
vt -1.394188 0.817100
vt -1.414661 0.828316
vt -1.413586 0.797128
vt 0.362523 -0.162902
vt 0.338330 -0.145854
vt 0.367888 -0.140944
vt 0.130410 -0.225752
vt 0.127186 -0.203539
vt 0.155056 -0.207124
vt -1.044848 0.129775
vt -1.068390 0.150987
vt -1.042124 0.158491
vt -0.205812 0.382900
vt -0.186414 0.402872
vt -0.185339 0.371684
vt 0.437477 2.962902
vt 0.432112 2.940944
vt 0.461670 2.945854
vt 0.465256 1.946148
vt 0.483052 1.920351
vt 0.455182 1.923936
vt 0.410763 -1.151538
vt 0.422587 -1.130977
vt 0.394444 -1.125273
vt 1.007339 0.132799
vt 1.022690 0.159667
vt 0.993131 0.154757
vt 0.589944 -0.738557
vt 0.614589 -0.730934
vt 0.600018 -0.758993
vt 0.739741 1.569172
vt 0.719605 1.547549
vt 0.750793 1.541331
vt -1.189944 0.338557
vt -1.200018 0.358993
vt -1.214589 0.330934
vt -0.912212 0.130828
vt -0.891739 0.152451
vt -0.922945 0.158669
vt 0.234977 0.053852
vt 0.229473 0.079649
vt 0.257532 0.076064
vt 0.983359 0.715082
vt 1.007552 0.703395
vt 0.997567 0.733206
vt -0.727186 2.203539
vt -0.730410 2.225752
vt -0.755056 2.207124
vt 0.439807 0.132799
vt 0.462202 0.154757
vt 0.432392 0.159667
vt -1.065256 0.053852
vt -1.055182 0.076064
vt -1.083052 0.079649
vt -0.207339 2.667201
vt -0.193131 2.645243
vt -0.222690 2.640333
vt 0.187425 0.129775
vt 0.173990 0.158491
vt 0.199249 0.150987
vt 0.612316 -0.195014
vt 0.609433 -0.171472
vt 0.584173 -0.189309
vt 0.787684 -1.204986
vt 0.815827 -1.210691
vt 0.790568 -1.228528
vt 1.212575 1.070225
vt 1.200751 1.049013
vt 1.226010 1.041509
vt 0.977413 -0.269023
vt 0.989237 -0.248462
vt 1.005556 -0.274727
vt -0.355152 1.070225
vt -0.357876 1.041509
vt -0.331610 1.049013
vt 0.131274 0.311930
vt 0.148310 0.295798
vt 0.118508 0.286847
vt -0.046728 1.624344
vt -0.069796 1.645839
vt -0.076530 1.617695
vt -0.630708 0.699754
vt -0.643474 0.674672
vt -0.653776 0.704034
vt 0.304700 1.645839
vt 0.320831 1.624344
vt 0.291469 1.617695
vt 1.295300 0.554160
vt 1.308531 0.582305
vt 1.279168 0.575656
vt 0.430708 0.900246
vt 0.453776 0.895966
vt 0.443474 0.925328
vt -0.130204 0.554160
vt -0.153272 0.575656
vt -0.123470 0.582305
vt -0.331274 1.288070
vt -0.318508 1.313153
vt -0.348310 1.304202
vt -1.225842 0.117004
vt -1.206612 0.137728
vt -1.236040 0.146490
vt -0.889562 -1.001485
vt -0.893853 -0.977723
vt -0.918990 -0.993135
vt -0.537611 0.117004
vt -0.543864 0.146490
vt -0.513850 0.137728
vt -1.288482 -0.334067
vt -1.307712 -0.319465
vt -1.313619 -0.349479
vt -0.711518 -0.865933
vt -0.686381 -0.850521
vt -0.692288 -0.880535
vt -0.662389 0.782996
vt -0.686150 0.762272
vt -0.656136 0.753510
vt -1.106147 -0.222277
vt -1.110438 -0.198515
vt -1.081010 -0.206865
vt -0.774158 0.782996
vt -0.763960 0.753510
vt -0.793388 0.762272
vt -0.150778 2.102838
vt -0.170866 2.124889
vt -0.139451 2.129359
vt -0.267496 2.864840
vt -0.253167 2.886891
vt -0.236081 2.869310
vt 0.121112 2.102838
vt 0.107665 2.129359
vt 0.139026 2.124889
vt 0.242673 2.886891
vt 0.253749 2.864840
vt 0.222388 2.869310
vt 0.157327 1.913109
vt 0.177612 1.930690
vt 0.146251 1.935160
vt 0.278888 2.697162
vt 0.260974 2.675111
vt 0.292335 2.670640
vt 0.053167 1.913109
vt 0.067496 1.935160
vt 0.036081 1.930690
vt -0.049222 2.697162
vt -0.060549 2.670640
vt -0.029134 2.675111
vt 1.462500 0.000000
vt 1.462500 0.022500
vt 1.440000 0.022500
vt 1.462500 2.577500
vt 1.462500 2.600000
vt 1.440000 2.577500
vt 1.462500 0.022500
vt 1.537500 0.000000
vt 1.560000 0.022500
vt 1.537500 0.022500
vt 1.537500 2.600000
vt 1.537500 2.577500
vt 1.560000 2.577500
vt 1.537500 0.022500
vt 1.072500 2.475000
vt 1.072500 2.497500
vt 1.050000 2.497500
vt 1.072500 2.602500
vt 1.072500 2.625000
vt 1.050000 2.602500
vt 1.727500 2.475000
vt 1.750000 2.497500
vt 1.727500 2.497500
vt 1.727500 2.625000
vt 1.727500 2.602500
vt 1.750000 2.602500
vt -1.256076 0.079649
vt -0.755056 -1.154615
vt -0.730410 -1.146991
vt 0.358993 2.203539
vt 0.330934 2.207124
vt -1.524790 0.234977
vt 0.127186 0.769545
vt 0.130410 0.746991
vt -1.200018 2.203539
vt -1.189944 2.225752
vt 0.850571 1.946148
vt 0.856076 1.920351
vt -0.730934 -0.207124
vt 0.589944 -0.225752
vt 0.928015 -0.657532
vt 0.924790 -0.634977
vt 0.338330 1.026666
vt 0.362523 1.014979
vt -0.103395 -0.145854
vt -0.133206 -0.140944
vt 1.297670 2.640333
vt 1.558586 0.462202
vt 1.553221 0.439807
vt 0.983359 2.962902
vt 0.703395 2.945854
vt 0.733206 2.940944
vt -0.697670 0.159667
vt -0.690254 0.132799
vt 0.437477 -0.414979
vt -0.183359 -0.162902
vt -0.197567 -0.140944
vt -0.758587 0.137798
vt 0.432112 -0.437375
vt -1.751492 0.158669
vt -1.740758 0.130828
vt -0.553834 1.839104
vt 0.828316 1.839104
vt 0.797128 1.845322
vt -1.740758 0.460259
vt -0.708261 1.555653
vt -1.014960 -0.145322
vt 0.140758 1.569172
vt 0.371684 -0.139104
vt -0.891739 -0.355653
vt -0.912212 -0.344438
vt 0.140758 0.739741
vt 0.152567 0.719605
vt -0.106161 0.158491
vt -0.108884 0.129775
vt -1.125273 1.341648
vt 0.584173 1.341648
vt 0.609433 1.334144
vt 0.977413 -0.155356
vt 0.989237 -0.134144
vt 1.402304 -0.355152
vt -0.274727 -0.141648
vt -1.291116 1.070225
vt 0.815827 -0.141648
vt -0.002304 -1.044848
vt 0.000580 -1.068390
vt 0.422587 1.355356
vt 0.118508 0.227681
vt 0.148310 0.234330
vt -0.838512 1.617695
vt 0.704034 0.234330
vt -0.153272 1.687405
vt -0.130204 1.683125
vt 1.288070 1.987165
vt -0.318508 1.972319
vt -0.348310 1.965670
vt 0.638512 0.582305
vt 0.631778 0.554160
vt 0.895966 1.965670
vt 0.925328 1.972319
vt 0.311930 0.212835
vt 0.295798 0.234330
vt -0.069796 -0.083125
vt -1.181267 0.117004
vt -0.889562 1.017341
vt -0.319465 1.017341
vt -0.349479 1.026103
vt -1.624761 -0.513850
vt -1.307712 1.017341
vt -1.288482 1.038065
vt -1.081010 -0.126103
vt -0.012480 0.753510
vt -0.018733 0.782996
vt -0.850521 -0.126103
vt -0.711518 -0.138065
vt -0.375239 -0.686150
vt -0.379529 -0.662389
vt 0.667457 2.129359
vt 0.656131 2.102838
vt 0.242673 0.553742
vt -0.457262 -0.236081
vt -0.436977 -0.253167
vt 0.836977 0.053167
vt 0.139026 0.670460
vt 0.854891 0.067496
vt 0.969613 -0.029134
vt 0.253749 0.573830
vt 0.177612 -0.770828
vt 0.157327 -0.753742
vt -0.867457 2.670640
vt -0.569613 -0.170866
vt -0.558537 -0.150778
vt 0.260974 -0.870460
vt 0.278888 -0.856131
vt 1.462500 -0.627500
vt 1.440000 0.627500
vt 1.462500 0.627500
vt 1.440000 -0.627500
vt 1.537500 0.627500
vt 1.560000 -0.627500
vt 1.537500 -0.627500
vt 1.560000 0.627500
vt 1.072500 -0.727500
vt 1.050000 0.727500
vt 1.072500 0.727500
vt 1.050000 -0.727500
vt 1.727500 0.727500
vt 1.750000 -0.727500
vt 1.727500 -0.727500
vt 1.750000 0.727500
vt 2.374928 -0.222521
vt 2.163788 -0.609101
vt 2.181831 -0.623490
vt 2.050826 1.351453
vt 1.400000 1.476921
vt 1.400000 1.500000
vt 2.040812 1.330660
vt 2.554703 0.920846
vt 1.833884 0.900969
vt 2.163788 0.609101
vt 2.181831 0.623490
vt 2.572747 0.935235
vt 2.163788 -0.609101
vt 2.352428 -0.217385
vt 2.862392 0.333781
vt 2.839892 0.328646
vt 2.862392 -0.333781
vt 2.163788 0.609101
vt 1.823870 0.880176
vt 2.839892 -0.328646
vt 2.572747 -0.935235
vt 2.554703 -0.920846
vt 2.374928 0.222521
vt 2.050826 -1.351453
vt 2.040812 -1.330660
vt 1.400000 -1.476921
vt 1.400000 -1.500000
vt 2.352428 0.217385
vt 0.759188 -1.330660
vt 1.400000 0.976921
vt 0.749174 -1.351453
vt 0.245296 -0.920846
vt 0.227253 -0.935235
vt -0.039892 -0.328646
vt -0.062392 -0.333781
vt -0.062392 0.333781
vt 1.400000 1.000000
vt -0.333781 0.152500
vt 0.328646 0.175000
vt 0.333781 0.152500
vt 0.227253 0.935235
vt -0.039892 0.328646
vt 0.245296 0.920846
vt 0.749174 1.351453
vt 0.759188 1.330660
vt 1.833884 -0.900969
vt 1.823870 -0.880176
vt 1.400000 -1.000000
vt 1.400000 -0.976921
vt 0.976130 -0.880176
vt 0.966116 -0.900969
vt 0.618169 -0.623490
vt 0.636212 -0.609101
vt 0.425072 -0.222521
vt 0.636212 -0.609101
vt 0.447572 -0.217386
vt 0.222521 0.172500
vt -0.217386 0.150000
vt -0.222521 0.172500
vt 0.447572 0.217386
vt 0.425072 0.222521
vt 0.618169 0.623490
vt 0.636212 0.609101
vt 0.966116 0.900969
vt 0.636212 0.609101
vt 0.976130 0.880176
vt -1.065256 -1.250571
vt 0.928015 1.923936
vt 0.600018 -0.203539
vt 0.465256 0.850571
vt -1.528015 0.076064
vt 0.754615 -0.207124
vt 1.007339 -0.690254
vt 1.026666 -0.145854
vt -0.207339 1.290254
vt 1.558586 0.154757
vt -0.585040 1.845322
vt -0.355653 0.152451
vt -0.687788 1.544438
vt 1.207732 -0.139104
vt -0.186414 -0.145322
vt 0.187425 -0.108884
vt 0.000580 0.150987
vt 0.790568 -0.134144
vt 1.212575 -1.291116
vt -1.210691 -0.141648
vt 0.631778 1.295300
vt -0.643474 0.227681
vt -0.087405 1.624344
vt -0.831778 0.304700
vt 1.687405 0.575656
vt -1.225842 -1.181267
vt -1.620471 -0.537611
vt -0.993135 1.026103
vt -1.187520 0.146490
vt -0.375239 0.762272
vt -0.692288 -0.117341
vt -0.774158 -0.018733
vt -1.110438 -0.117341
vt -1.624761 0.137728
vt -0.206865 -0.126103
vt 0.121112 0.656131
vt -0.454891 2.864840
vt -0.569613 2.124889
vt 0.958537 -0.049222
vt 0.854891 1.935160
vt -0.770828 1.930690
vt -0.627500 2.577500
vt 0.627500 0.022500
vt -0.627500 0.022500
vt 0.627500 2.577500
vt -0.727500 2.602500
vt 0.727500 2.497500
vt -0.727500 2.497500
vt 0.727500 2.602500
vt 1.400000 0.152500
vt 2.050826 0.047500
vt 1.400000 0.047500
vt 0.749174 0.152500
vt 0.749174 0.047500
vt 2.050826 0.152500
vt 2.572747 0.047500
vt 0.935235 0.152500
vt 0.333781 0.047500
vt 0.935235 0.047500
vt -0.333781 0.047500
vt -0.935235 0.047500
vt 2.572747 0.152500
vt 0.227253 0.047500
vt -0.935235 0.152500
vt 0.227253 0.152500
vt 1.400000 0.227500
vt 1.833884 0.172500
vt 1.400000 0.172500
vt 0.966116 0.227500
vt 0.966116 0.172500
vt 1.833884 0.227500
vt 2.181831 0.172500
vt 0.623490 0.227500
vt 0.623490 0.172500
vt 0.222521 0.227500
vt -0.222521 0.227500
vt -0.623490 0.172500
vt 2.181831 0.227500
vt 0.618169 0.172500
vt -0.623490 0.227500
vt 0.618169 0.227500
vt -1.250571 0.053852
vt -1.528015 0.257532
vt 0.155056 0.754615
vt -0.758993 -0.203539
vt -0.727186 -1.169545
vt 1.290254 2.667201
vt 0.367888 1.037375
vt 0.997567 2.940944
vt 0.461670 -0.426666
vt -0.753221 0.160193
vt -1.752567 0.480395
vt -1.046166 -0.139104
vt 0.151492 1.541331
vt 0.402872 -0.145322
vt -1.151538 1.334144
vt 1.399420 -0.331610
vt -0.248462 -0.134144
vt -1.293839 1.041509
vt 0.410763 1.334144
vt -0.831778 1.645839
vt 0.674672 0.227681
vt 1.304202 1.965670
vt -0.046728 -0.087405
vt -0.918990 1.026103
vt -0.880535 -0.117341
vt 0.222388 0.570827
vt 0.857262 0.036081
vt -0.856131 2.697162
vt 0.146251 -0.773830
vt -0.454891 -0.267496
vt -0.328646 0.175000
vt 0.217386 0.150000
vt -1.154615 2.207124
vt -0.758587 2.645243
vt -0.426666 2.945854
vt -1.413586 1.845322
vt -0.007732 1.839104
vt 1.555653 1.547549
vt -0.189309 1.341648
vt 1.399420 1.049013
vt 0.443474 1.972319
vt 0.570827 2.869310
vt 0.969613 2.675111
s 1
f 77/1/77 75/2/75 76/3/76
f 105/4/105 102/5/102 104/6/104
f 68/7/68 67/8/67 63/9/63
f 82/10/82 79/11/79 69/12/69
f 101/13/101 99/14/99 100/15/100
f 110/16/110 108/17/108 109/18/109
f 66/19/66 64/20/64 65/21/65
f 72/22/72 70/23/70 71/24/71
f 106/25/106 103/26/103 95/27/95
f 118/28/118 117/29/117 113/30/113
f 55/31/55 52/32/52 54/33/54
f 62/34/62 61/35/61 57/36/57
f 86/37/86 84/38/84 85/39/85
f 116/40/116 114/41/114 115/42/115
f 51/43/51 49/44/49 50/45/50
f 88/46/88 87/47/87 83/48/83
f 112/49/112 111/50/111 107/51/107
f 60/52/60 58/53/58 59/54/59
f 122/55/122 120/56/120 121/57/121
f 81/58/81 78/59/78 80/60/80
f 130/61/130 127/62/127 119/63/119
f 92/64/92 90/65/90 91/66/91
f 125/67/125 123/68/123 124/69/124
f 94/70/94 93/71/93 89/72/89
f 129/73/129 126/74/126 128/75/128
f 98/76/98 96/77/96 97/78/97
f 56/79/56 53/80/53 45/81/45
f 48/82/48 46/83/46 47/84/47
f 38/85/38 37/86/37 33/87/33
f 36/88/36 34/89/34 35/90/35
f 44/91/44 43/92/43 39/93/39
f 42/94/42 40/95/40 41/96/41
f 31/97/31 28/98/28 30/99/30
f 27/100/27 25/101/25 26/102/26
f 32/103/32 29/104/29 21/105/21
f 24/106/24 22/107/22 23/108/23
f 14/109/14 13/110/13 9/111/9
f 12/112/12 10/113/10 11/114/11
f 20/115/20 19/116/19 15/117/15
f 18/118/18 16/119/16 17/120/17
f 7/121/7 4/122/4 6/123/6
f 3/124/3 1/125/1 2/126/2
f 8/127/8 5/128/5 460/129/192
f 457/130/189 459/131/191 458/132/190
f 467/133/199 468/134/200 472/135/204
f 469/136/201 471/137/203 470/138/202
f 461/139/193 462/140/194 466/141/198
f 463/142/195 465/143/197 464/144/196
f 474/145/206 477/146/209 475/147/207
f 478/148/210 480/149/212 479/150/211
f 473/151/205 476/152/208 484/153/216
f 481/154/213 483/155/215 482/156/214
f 491/157/223 492/158/224 496/159/228
f 493/160/225 495/161/227 494/162/226
f 485/163/217 486/164/218 490/165/222
f 487/166/219 489/167/221 488/168/220
f 498/169/230 501/170/233 499/171/231
f 502/172/234 504/173/236 503/174/235
f 497/169/229 500/171/232 508/175/240
f 505/173/237 507/172/239 506/174/238
f 515/176/247 516/177/248 520/178/252
f 517/179/249 519/180/251 518/181/250
f 509/176/241 510/182/242 514/177/246
f 511/179/243 513/181/245 512/180/244
f 522/183/230 525/184/233 523/185/231
f 526/186/234 528/187/236 527/188/235
f 521/183/229 524/185/232 532/184/240
f 529/187/237 531/186/239 530/188/238
f 539/189/247 540/190/248 544/191/252
f 541/192/249 543/193/251 542/194/250
f 533/189/241 534/191/242 538/190/246
f 535/192/243 537/194/245 536/193/244
f 130/61/130 128/195/128 127/62/127
f 125/67/125 128/75/128 126/74/126
f 122/55/122 124/196/124 123/197/123
f 120/198/120 127/62/127 121/199/121
f 130/200/130 117/201/117 118/202/118
f 116/40/116 120/203/120 122/204/122
f 114/41/114 117/29/117 115/42/115
f 118/202/118 111/50/111 112/49/112
f 116/205/116 109/18/109 114/206/114
f 108/17/108 111/207/111 109/18/109
f 112/208/112 126/74/126 129/73/129
f 123/197/123 108/209/108 110/210/110
f 105/4/105 103/211/103 106/212/106
f 101/13/101 104/213/104 102/214/102
f 99/14/99 97/215/97 100/15/100
f 96/77/96 103/26/103 97/78/97
f 106/212/106 93/216/93 94/217/94
f 92/218/92 96/77/96 98/76/98
f 90/219/90 93/71/93 91/220/91
f 94/70/94 87/221/87 88/222/88
f 86/223/86 90/65/90 92/64/92
f 84/38/84 87/47/87 85/39/85
f 105/224/105 83/48/83 102/225/102
f 86/223/86 101/226/101 84/227/84
f 81/58/81 79/228/79 82/229/82
f 77/230/77 80/60/80 78/59/78
f 72/22/72 76/3/76 75/2/75
f 70/231/70 79/11/79 71/232/71
f 82/233/82 67/8/67 68/7/68
f 72/22/72 65/234/65 70/23/70
f 63/235/63 65/21/65 64/20/64
f 68/7/68 61/35/61 62/34/62
f 60/236/60 64/20/64 66/19/66
f 57/237/57 59/54/59 58/53/58
f 62/34/62 78/238/78 81/239/81
f 60/240/60 77/1/77 58/241/58
f 55/31/55 53/242/53 56/243/56
f 52/32/52 50/244/50 54/33/54
f 48/82/48 50/45/50 49/44/49
f 45/81/45 47/245/47 46/246/46
f 44/247/44 45/81/45 43/248/43
f 42/249/42 46/83/46 48/82/48
f 39/250/39 41/96/41 40/95/40
f 44/91/44 37/86/37 38/85/38
f 36/251/36 40/95/40 42/94/42
f 34/89/34 37/252/37 35/90/35
f 55/253/55 33/87/33 52/254/52
f 49/255/49 34/89/34 36/88/36
f 31/97/31 29/104/29 32/103/32
f 27/100/27 30/256/30 28/257/28
f 25/101/25 23/258/23 26/102/26
f 21/259/21 23/108/23 22/107/22
f 32/103/32 19/260/19 20/261/20
f 18/262/18 22/107/22 24/106/24
f 16/263/16 19/116/19 17/264/17
f 20/115/20 13/265/13 14/266/14
f 12/112/12 16/119/16 18/118/18
f 10/267/10 13/110/13 11/268/11
f 31/269/31 9/111/9 28/270/28
f 25/271/25 10/113/10 12/112/12
f 7/272/7 5/128/5 8/127/8
f 3/273/3 6/123/6 4/122/4
f 457/130/189 2/126/2 1/125/1
f 459/274/191 5/128/5 458/275/190
f 461/139/193 460/276/192 462/140/194
f 463/142/195 459/277/191 457/278/189
f 466/279/198 464/144/196 465/143/197
f 461/139/193 468/134/200 467/133/199
f 469/136/201 465/280/197 463/281/195
f 471/137/203 468/282/200 470/138/202
f 467/283/199 4/122/4 7/121/7
f 1/125/1 471/284/203 469/285/201
f 474/145/206 476/286/208 473/287/205
f 478/148/210 475/147/207 477/146/209
f 481/288/213 479/289/211 480/290/212
f 484/153/216 482/156/214 483/155/215
f 485/291/217 484/292/216 486/293/218
f 481/288/213 488/294/220 483/295/215
f 490/165/222 488/168/220 489/167/221
f 485/291/217 492/296/224 491/297/223
f 487/166/219 494/298/226 489/167/221
f 496/159/228 494/162/226 495/161/227
f 491/297/223 477/299/209 474/300/206
f 480/290/212 495/301/227 493/302/225
f 498/303/230 500/304/232 497/305/229
f 502/172/234 499/171/231 501/170/233
f 505/305/237 503/306/235 504/303/236
f 508/175/240 506/174/238 507/172/239
f 497/169/229 510/182/242 509/176/241
f 511/179/243 507/172/239 505/173/237
f 514/177/246 512/180/244 513/181/245
f 509/307/241 516/308/248 515/309/247
f 517/309/249 513/310/245 511/307/243
f 520/178/252 518/181/250 519/180/251
f 515/176/247 501/170/233 498/169/230
f 504/173/236 519/180/251 517/179/249
f 522/311/230 524/312/232 521/313/229
f 526/186/234 523/185/231 525/184/233
f 529/313/237 527/314/235 528/311/236
f 532/184/240 530/188/238 531/186/239
f 521/183/229 534/191/242 533/189/241
f 535/192/243 531/186/239 529/187/237
f 538/190/246 536/193/244 537/194/245
f 533/315/241 540/316/248 539/317/247
f 541/317/249 537/318/245 535/315/243
f 544/191/252 542/194/250 543/193/251
f 539/189/247 525/184/233 522/183/230
f 528/187/236 543/193/251 541/192/249
f 546/319/254 548/320/253 545/321/253
f 550/322/256 552/323/255 549/324/255
f 554/324/258 556/325/257 553/322/257
f 550/322/256 558/326/259 551/325/256
f 560/327/257 562/328/260 559/329/260
f 553/322/257 564/326/260 563/330/260
f 565/319/261 567/331/262 568/332/261
f 569/333/263 558/326/259 557/330/259
f 563/330/260 572/334/264 571/333/264
f 573/335/261 570/334/263 569/333/263
f 575/327/256 577/336/259 578/337/256
f 571/333/264 580/338/254 579/335/254
f 581/339/262 574/338/261 573/335/261
f 579/335/254 584/340/253 583/339/253
f 585/341/264 547/332/254 546/319/254
f 587/342/265 582/340/262 581/339/262
f 583/339/253 590/343/266 589/342/266
f 587/342/265 592/344/267 588/343/265
f 589/342/266 594/344/268 593/345/268
f 565/319/261 596/346/263 595/341/263
f 591/345/267 598/347/269 592/344/267
f 560/327/257 600/348/258 561/337/257
f 601/349/270 594/344/268 602/347/270
f 597/349/269 604/350/271 598/347/269
f 601/349/270 606/350/272 605/351/272
f 603/351/271 608/352/273 604/350/271
f 605/351/272 610/352/274 609/353/274
f 585/341/264 562/328/260 586/346/264
f 611/354/275 608/352/273 607/353/273
f 575/327/256 614/348/255 613/355/255
f 609/356/274 616/357/276 615/358/276
f 617/359/277 612/360/275 611/354/275
f 619/359/278 616/360/276 620/361/278
f 576/329/259 596/346/263 577/336/259
f 621/362/279 618/361/277 617/359/277
f 623/362/280 620/361/278 624/363/280
f 549/324/255 622/363/279 621/362/279
f 623/362/280 555/323/258 554/324/258
f 625/364/265 567/331/262 566/321/262
f 627/364/266 548/320/253 628/365/266
f 629/366/267 626/365/265 625/364/265
f 627/364/266 632/367/268 631/366/268
f 629/366/267 634/368/269 630/367/267
f 631/366/268 636/368/270 635/369/270
f 637/370/271 634/368/269 633/369/269
f 639/370/272 636/368/270 640/371/272
f 641/372/273 638/373/271 637/370/271
f 639/370/272 644/374/274 643/372/274
f 645/375/275 642/376/273 641/377/273
f 643/372/274 648/378/276 647/379/276
f 649/380/277 646/378/275 645/379/275
f 651/380/278 648/378/276 652/381/278
f 653/382/279 650/383/277 649/380/277
f 655/382/280 652/381/278 656/384/280
f 613/355/255 654/384/279 653/382/279
f 599/355/258 656/384/280 600/348/258
f 147/202/74 74/385/74 135/200/74
f 131/195/131 140/199/131 136/62/131
f 145/386/73 73/74/73 143/387/73
f 138/55/132 144/210/132 150/388/132
f 139/203/133 148/29/133 137/389/133
f 151/206/134 142/207/134 149/390/134
f 159/212/135 165/391/135 153/4/135
f 155/213/137 164/215/137 160/392/137
f 169/38/136 154/225/136 167/48/136
f 162/393/138 168/223/138 174/64/138
f 163/77/139 172/394/139 161/27/139
f 175/219/140 166/221/140 173/72/140
f 195/7/141 177/239/141 183/233/141
f 182/395/143 184/228/143 179/60/143
f 193/53/142 178/396/142 191/237/142
f 198/397/144 181/2/144 192/240/144
f 187/231/145 196/398/145 185/12/145
f 199/20/146 190/399/146 197/235/146
f 219/91/147 201/253/147 207/400/147
f 206/244/149 208/242/149 203/33/149
f 217/89/148 202/401/148 215/402/148
f 210/82/150 216/403/150 222/249/150
f 211/246/151 220/248/151 209/81/151
f 223/95/152 214/404/152 221/250/152
f 231/103/153 237/405/153 225/97/153
f 230/102/155 232/406/155 227/256/155
f 239/111/154 228/407/154 226/270/154
f 234/408/156 240/112/156 246/118/156
f 235/107/157 244/409/157 233/259/157
f 247/263/158 238/265/158 245/117/158
f 267/139/159 249/410/159 255/411/159
f 254/412/161 256/128/161 251/413/161
f 265/414/160 250/122/160 263/415/160
f 258/130/162 264/285/162 270/416/162
f 259/277/163 268/417/163 257/418/163
f 269/419/164 266/138/164 262/282/164
f 279/420/165 285/297/165 273/300/165
f 278/150/167 280/286/167 275/147/167
f 287/159/166 276/421/166 274/422/166
f 282/288/168 288/302/168 294/423/168
f 283/155/169 292/424/169 281/153/169
f 295/167/170 286/425/170 293/165/170
f 315/307/171 297/303/171 303/305/171
f 302/426/173 304/427/173 299/428/173
f 313/180/172 298/170/172 311/178/172
f 306/305/174 312/309/174 318/307/174
f 307/172/175 316/182/175 305/175/175
f 319/429/176 310/428/176 317/427/176
f 339/315/171 321/311/171 327/313/171
f 326/430/173 328/431/173 323/432/173
f 337/193/172 322/184/172 335/191/172
f 330/313/174 336/317/174 342/315/174
f 331/186/175 340/191/175 329/184/175
f 343/433/176 334/432/176 341/431/176
f 357/334/171 373/344/171 389/360/171
f 348/434/175 350/435/177 346/436/175
f 400/437/188 346/436/175 398/438/188
f 395/361/174 379/347/174 363/338/174
f 352/439/177 354/440/178 350/435/177
f 356/441/178 358/442/179 354/443/178
f 360/358/179 362/444/180 358/442/179
f 364/356/180 366/445/181 362/444/180
f 368/446/181 370/435/182 366/440/181
f 372/439/182 374/436/172 370/435/182
f 376/434/172 378/438/183 374/436/172
f 380/437/183 382/447/184 378/438/183
f 384/448/184 386/444/185 382/445/184
f 388/356/185 390/442/186 386/444/185
f 392/358/186 394/443/187 390/442/186
f 396/449/187 398/438/188 394/447/187
f 429/367/171 445/378/171 405/337/171
f 404/450/175 406/451/177 402/452/175
f 456/453/188 402/452/175 454/454/188
f 427/365/174 411/328/174 451/381/174
f 408/455/177 410/456/178 406/451/177
f 412/457/178 414/375/179 410/458/178
f 416/459/179 418/377/180 414/375/179
f 420/460/180 422/461/181 418/377/180
f 424/462/181 426/451/182 422/456/181
f 428/455/182 430/452/172 426/451/182
f 432/450/172 434/454/183 430/452/172
f 436/453/183 438/463/184 434/454/183
f 440/464/184 442/377/185 438/461/184
f 444/460/185 446/375/186 442/377/185
f 448/459/186 450/458/187 446/375/186
f 452/465/187 454/454/188 450/463/187
f 130/61/130 129/466/129 128/195/128
f 125/67/125 124/69/124 128/75/128
f 122/55/122 121/57/121 124/196/124
f 120/198/120 119/63/119 127/62/127
f 130/200/130 119/467/119 117/201/117
f 116/40/116 115/42/115 120/203/120
f 114/41/114 113/30/113 117/29/117
f 118/202/118 113/468/113 111/50/111
f 116/205/116 110/16/110 109/18/109
f 108/17/108 107/469/107 111/207/111
f 112/208/112 107/387/107 126/74/126
f 123/197/123 125/470/125 108/209/108
f 105/4/105 104/6/104 103/211/103
f 101/13/101 100/15/100 104/213/104
f 99/14/99 98/471/98 97/215/97
f 96/77/96 95/27/95 103/26/103
f 106/212/106 95/472/95 93/216/93
f 92/218/92 91/473/91 96/77/96
f 90/219/90 89/72/89 93/71/93
f 94/70/94 89/72/89 87/221/87
f 86/223/86 85/474/85 90/65/90
f 84/38/84 83/48/83 87/47/87
f 105/224/105 88/46/88 83/48/83
f 86/223/86 99/475/99 101/226/101
f 81/58/81 80/60/80 79/228/79
f 77/230/77 76/395/76 80/60/80
f 72/22/72 71/24/71 76/3/76
f 70/231/70 69/12/69 79/11/79
f 82/233/82 69/476/69 67/8/67
f 72/22/72 66/397/66 65/234/65
f 63/235/63 67/477/67 65/21/65
f 68/7/68 63/9/63 61/35/61
f 60/236/60 59/478/59 64/20/64
f 57/237/57 61/479/61 59/54/59
f 62/34/62 57/36/57 78/238/78
f 60/240/60 75/2/75 77/1/77
f 55/31/55 54/33/54 53/242/53
f 52/32/52 51/480/51 50/244/50
f 48/82/48 47/84/47 50/45/50
f 45/81/45 53/80/53 47/245/47
f 44/247/44 56/79/56 45/81/45
f 42/249/42 41/481/41 46/83/46
f 39/250/39 43/482/43 41/96/41
f 44/91/44 39/93/39 37/86/37
f 36/251/36 35/483/35 40/95/40
f 34/89/34 33/402/33 37/252/37
f 55/253/55 38/85/38 33/87/33
f 49/255/49 51/484/51 34/89/34
f 31/97/31 30/99/30 29/104/29
f 27/100/27 26/102/26 30/256/30
f 25/101/25 24/485/24 23/258/23
f 21/259/21 29/486/29 23/108/23
f 32/103/32 21/105/21 19/260/19
f 18/262/18 17/487/17 22/107/22
f 16/263/16 15/117/15 19/116/19
f 20/115/20 15/117/15 13/265/13
f 12/112/12 11/114/11 16/119/16
f 10/267/10 9/111/9 13/110/13
f 31/269/31 14/109/14 9/111/9
f 25/271/25 27/488/27 10/113/10
f 7/272/7 6/413/6 5/128/5
f 3/273/3 2/489/2 6/123/6
f 457/130/189 458/132/190 2/126/2
f 459/274/191 460/129/192 5/128/5
f 461/139/193 8/411/8 460/276/192
f 463/142/195 464/144/196 459/277/191
f 466/279/198 462/417/194 464/144/196
f 461/139/193 466/141/198 468/134/200
f 469/136/201 470/138/202 465/280/197
f 471/137/203 472/490/204 468/282/200
f 467/283/199 472/415/204 4/122/4
f 1/125/1 3/124/3 471/284/203
f 474/145/206 475/147/207 476/286/208
f 478/148/210 479/150/211 475/147/207
f 481/288/213 482/491/214 479/289/211
f 484/153/216 476/152/208 482/156/214
f 485/291/217 473/420/205 484/292/216
f 481/288/213 487/423/219 488/294/220
f 490/165/222 486/164/218 488/168/220
f 485/291/217 490/492/222 492/296/224
f 487/166/219 493/493/225 494/298/226
f 496/159/228 492/158/224 494/162/226
f 491/297/223 496/494/228 477/299/209
f 480/290/212 478/495/210 495/301/227
f 498/303/230 499/306/231 500/304/232
f 502/172/234 503/174/235 499/171/231
f 505/305/237 506/304/238 503/306/235
f 508/175/240 500/171/232 506/174/238
f 497/169/229 508/175/240 510/182/242
f 511/179/243 512/180/244 507/172/239
f 514/177/246 510/182/242 512/180/244
f 509/307/241 514/310/246 516/308/248
f 517/309/249 518/308/250 513/310/245
f 520/178/252 516/177/248 518/181/250
f 515/176/247 520/178/252 501/170/233
f 504/173/236 502/172/234 519/180/251
f 522/311/230 523/314/231 524/312/232
f 526/186/234 527/188/235 523/185/231
f 529/313/237 530/312/238 527/314/235
f 532/184/240 524/185/232 530/188/238
f 521/183/229 532/184/240 534/191/242
f 535/192/243 536/193/244 531/186/239
f 538/190/246 534/191/242 536/193/244
f 533/315/241 538/318/246 540/316/248
f 541/317/249 542/316/250 537/318/245
f 544/191/252 540/190/248 542/194/250
f 539/189/247 544/191/252 525/184/233
f 528/187/236 526/186/234 543/193/251
f 546/319/254 547/332/254 548/320/253
f 550/322/256 551/325/256 552/323/255
f 554/324/258 555/323/258 556/325/257
f 550/322/256 557/330/259 558/326/259
f 560/327/257 561/337/257 562/328/260
f 553/322/257 556/325/257 564/326/260
f 565/319/261 566/321/262 567/331/262
f 569/333/263 570/334/263 558/326/259
f 563/330/260 564/326/260 572/334/264
f 573/335/261 574/338/261 570/334/263
f 575/327/256 576/329/259 577/336/259
f 571/333/264 572/334/264 580/338/254
f 581/339/262 582/340/262 574/338/261
f 579/335/254 580/338/254 584/340/253
f 585/341/264 586/346/264 547/332/254
f 587/342/265 588/343/265 582/340/262
f 583/339/253 584/340/253 590/343/266
f 587/342/265 591/345/267 592/344/267
f 589/342/266 590/343/266 594/344/268
f 565/319/261 568/332/261 596/346/263
f 591/345/267 597/349/269 598/347/269
f 560/327/257 599/355/258 600/348/258
f 601/349/270 593/345/268 594/344/268
f 597/349/269 603/351/271 604/350/271
f 601/349/270 602/347/270 606/350/272
f 603/351/271 607/353/273 608/352/273
f 605/351/272 606/350/272 610/352/274
f 585/341/264 559/329/260 562/328/260
f 611/354/275 612/360/275 608/352/273
f 575/327/256 578/337/256 614/348/255
f 609/356/274 610/496/274 616/357/276
f 617/359/277 618/361/277 612/360/275
f 619/359/278 615/354/276 616/360/276
f 576/329/259 595/341/263 596/346/263
f 621/362/279 622/363/279 618/361/277
f 623/362/280 619/359/278 620/361/278
f 549/324/255 552/323/255 622/363/279
f 623/362/280 624/363/280 555/323/258
f 625/364/265 626/365/265 567/331/262
f 627/364/266 545/321/253 548/320/253
f 629/366/267 630/367/267 626/365/265
f 627/364/266 628/365/266 632/367/268
f 629/366/267 633/369/269 634/368/269
f 631/366/268 632/367/268 636/368/270
f 637/370/271 638/373/271 634/368/269
f 639/370/272 635/369/270 636/368/270
f 641/372/273 642/374/273 638/373/271
f 639/370/272 640/371/272 644/374/274
f 645/375/275 646/497/275 642/376/273
f 643/372/274 644/374/274 648/378/276
f 649/380/277 650/383/277 646/378/275
f 651/380/278 647/379/276 648/378/276
f 653/382/279 654/384/279 650/383/277
f 655/382/280 651/380/278 652/381/278
f 613/355/255 614/348/255 654/384/279
f 599/355/258 655/382/280 656/384/280
f 147/202/74 141/49/74 74/385/74
f 131/195/131 134/498/131 140/199/131
f 145/386/73 132/67/73 73/74/73
f 138/55/132 133/197/132 144/210/132
f 139/203/133 152/42/133 148/29/133
f 151/206/134 146/18/134 142/207/134
f 159/212/135 171/217/135 165/391/135
f 155/213/137 158/15/137 164/215/137
f 169/38/136 156/499/136 154/225/136
f 162/393/138 157/475/138 168/223/138
f 163/77/139 176/473/139 172/394/139
f 175/219/140 170/500/140 166/221/140
f 195/7/141 189/34/141 177/239/141
f 182/395/143 188/501/143 184/228/143
f 193/53/142 180/502/142 178/396/142
f 198/397/144 186/22/144 181/2/144
f 187/231/145 200/503/145 196/398/145
f 199/20/146 194/478/146 190/399/146
f 219/91/147 213/85/147 201/253/147
f 206/244/149 212/504/149 208/242/149
f 217/89/148 204/484/148 202/401/148
f 210/82/150 205/44/150 216/403/150
f 211/246/151 224/505/151 220/248/151
f 223/95/152 218/483/152 214/404/152
f 231/103/153 243/261/153 237/405/153
f 230/102/155 236/258/155 232/406/155
f 239/111/154 241/267/154 228/407/154
f 234/408/156 229/271/156 240/112/156
f 235/107/157 248/487/157 244/409/157
f 247/263/158 242/506/158 238/265/158
f 267/139/159 261/133/159 249/410/159
f 254/412/161 260/275/161 256/128/161
f 265/414/160 252/273/160 250/122/160
f 258/130/162 253/125/162 264/285/162
f 259/277/163 272/144/163 268/417/163
f 269/419/164 271/280/164 266/138/164
f 279/420/165 291/291/165 285/297/165
f 278/150/167 284/507/167 280/286/167
f 287/159/166 289/161/166 276/421/166
f 282/288/168 277/290/168 288/302/168
f 283/155/169 296/508/169 292/424/169
f 295/167/170 290/298/170 286/425/170
f 315/307/171 309/309/171 297/303/171
f 302/426/173 308/429/173 304/427/173
f 313/180/172 300/172/172 298/170/172
f 306/305/174 301/303/174 312/309/174
f 307/172/175 320/180/175 316/182/175
f 319/429/176 314/426/176 310/428/176
f 339/315/171 333/317/171 321/311/171
f 326/430/173 332/433/173 328/431/173
f 337/193/172 324/186/172 322/184/172
f 330/313/174 325/311/174 336/317/174
f 331/186/175 344/193/175 340/191/175
f 343/433/176 338/430/176 334/432/176
f 397/363/171 345/323/171 349/325/171
f 349/325/171 353/326/171 357/334/171
f 357/334/171 361/338/171 365/340/171
f 365/340/171 369/343/171 373/344/171
f 373/344/171 377/347/171 381/350/171
f 381/350/171 385/352/171 389/360/171
f 389/360/171 393/361/171 397/363/171
f 397/363/171 349/325/171 357/334/171
f 357/334/171 365/340/171 373/344/171
f 373/344/171 381/350/171 389/360/171
f 389/360/171 397/363/171 357/334/171
f 348/434/175 352/439/177 350/435/177
f 400/437/188 348/434/175 346/436/175
f 355/326/174 351/325/174 347/323/174
f 347/323/174 399/363/174 395/361/174
f 395/361/174 391/360/174 387/352/174
f 387/352/174 383/350/174 379/347/174
f 379/347/174 375/344/174 371/343/174
f 371/343/174 367/340/174 363/338/174
f 363/338/174 359/334/174 355/326/174
f 355/326/174 347/323/174 395/361/174
f 395/361/174 387/352/174 379/347/174
f 379/347/174 371/343/174 363/338/174
f 363/338/174 355/326/174 395/361/174
f 352/439/177 356/446/178 354/440/178
f 356/441/178 360/358/179 358/442/179
f 360/358/179 364/356/180 362/444/180
f 364/356/180 368/448/181 366/445/181
f 368/446/181 372/439/182 370/435/182
f 372/439/182 376/434/172 374/436/172
f 376/434/172 380/437/183 378/438/183
f 380/437/183 384/449/184 382/447/184
f 384/448/184 388/356/185 386/444/185
f 388/356/185 392/358/186 390/442/186
f 392/358/186 396/441/187 394/443/187
f 396/449/187 400/437/188 398/438/188
f 413/346/171 417/332/171 421/331/171
f 421/331/171 425/365/171 429/367/171
f 429/367/171 433/368/171 437/373/171
f 437/373/171 441/374/171 445/378/171
f 445/378/171 449/383/171 453/384/171
f 453/384/171 401/348/171 405/337/171
f 405/337/171 409/336/171 413/346/171
f 413/346/171 421/331/171 429/367/171
f 429/367/171 437/373/171 445/378/171
f 445/378/171 453/384/171 405/337/171
f 405/337/171 413/346/171 429/367/171
f 404/450/175 408/455/177 406/451/177
f 456/453/188 404/450/175 402/452/175
f 443/374/174 439/371/174 435/368/174
f 435/368/174 431/367/174 427/365/174
f 427/365/174 423/320/174 419/332/174
f 419/332/174 415/346/174 411/328/174
f 411/328/174 407/337/174 403/348/174
f 403/348/174 455/384/174 451/381/174
f 451/381/174 447/378/174 443/374/174
f 443/374/174 435/368/174 427/365/174
f 427/365/174 419/332/174 411/328/174
f 411/328/174 403/348/174 451/381/174
f 451/381/174 443/374/174 427/365/174
f 408/455/177 412/462/178 410/456/178
f 412/457/178 416/459/179 414/375/179
f 416/459/179 420/460/180 418/377/180
f 420/460/180 424/464/181 422/461/181
f 424/462/181 428/455/182 426/451/182
f 428/455/182 432/450/172 430/452/172
f 432/450/172 436/453/183 434/454/183
f 436/453/183 440/465/184 438/463/184
f 440/464/184 444/460/185 442/377/185
f 444/460/185 448/459/186 446/375/186
f 448/459/186 452/457/187 450/458/187
f 452/465/187 456/453/188 454/454/188
