# Blender 5.2.0 LTS
# www.blender.org
o Backdrop_Butter
v 6.950000 -0.050000 20.000000
v 11.050000 -0.050000 20.000000
v 11.050000 -0.500000 19.549999
v 6.950000 -0.500000 19.549999
v 11.050000 34.049999 20.000000
v 6.950000 34.049999 20.000000
v 6.950000 34.500000 19.549999
v 11.050000 34.500000 19.549999
v 26.000000 28.000000 0.000000
v 11.050000 -0.500000 19.549999
v 26.000000 26.242641 -10.606602
v 11.500000 34.049999 19.549999
v 26.000000 22.000000 -15.000000
v 11.050000 34.049999 20.000000
v 10.450000 0.000000 -14.550000
v 11.050000 34.500000 19.549999
v 10.000000 21.549999 14.550000
v 11.500000 -0.050000 -19.549999
v 29.374035 27.543278 -4.643961
v 32.234406 26.242641 -8.580921
v 34.145641 24.296101 -11.211513
v 34.816780 22.000000 -12.135255
v 10.450000 22.000000 14.550000
v 10.450000 21.549999 15.000000
v 10.000000 0.450000 14.550000
v 11.050000 -0.050000 -20.000000
v 11.050000 -0.500000 -19.549999
v 31.459305 27.543278 -1.773836
v 36.087479 26.242641 -3.277621
v 39.179924 24.296101 -4.282417
v 40.265846 22.000000 -4.635255
v 10.450000 0.450000 15.000000
v 10.450000 0.000000 14.550000
v 41.549999 0.450000 15.000000
v 11.050000 34.049999 -20.000000
v 11.500000 34.049999 -19.549999
v 31.459305 27.543278 1.773835
v 36.087479 26.242641 3.277619
v 39.179924 24.296101 4.282416
v 40.265850 22.000000 4.635254
v 41.549999 21.549999 15.000000
v 42.000000 21.549999 14.550000
v 41.549999 22.000000 14.550000
v 11.050000 34.500000 -19.549999
v 41.549999 21.549999 -15.000000
v 29.374037 27.543278 4.643961
v 32.234406 26.242641 8.580920
v 34.145641 24.296101 11.211512
v 34.816780 22.000000 12.135256
v 42.000000 0.450000 14.550000
v 41.549999 0.000000 14.550000
v 42.000000 0.450000 -14.550000
v 42.000000 21.549999 -14.550000
v 41.549999 22.000000 -14.550000
v 26.000000 27.543278 5.740252
v 26.000000 26.242641 10.606601
v 26.000002 24.296101 13.858191
v 26.000000 22.000000 15.000002
v 42.000000 21.549999 -14.550000
v 41.549999 21.549999 -15.000000
v 41.549999 22.000000 -14.550000
v 42.000000 0.450000 -14.550000
v 41.549999 0.450000 -15.000000
v 22.625965 27.543278 4.643962
v 19.765596 26.242641 8.580920
v 17.854361 24.296101 11.211514
v 17.183222 22.000000 12.135258
v 41.549999 0.450000 -15.000000
v 41.549999 0.000000 -14.550000
v 10.450000 0.450000 -15.000000
v 41.549999 0.000000 -14.550000
v 42.000000 21.549999 14.550000
v 20.540695 27.543278 1.773836
v 15.912523 26.242641 3.277620
v 12.820076 24.296101 4.282418
v 11.734151 22.000000 4.635257
v 10.450000 21.549999 -15.000000
v 10.000000 21.549999 -14.550000
v 10.450000 22.000000 -14.550000
v 41.549999 21.549999 15.000000
v 41.549999 22.000000 14.550000
v 20.540695 27.543278 -1.773835
v 15.912523 26.242641 -3.277620
v 12.820076 24.296101 -4.282415
v 11.734149 22.000000 -4.635254
v 10.450000 22.000000 14.550000
v 10.000000 21.549999 14.550000
v 10.450000 21.549999 15.000000
v 41.549999 0.450000 15.000000
v 42.000000 0.450000 14.550000
v 22.625963 27.543278 -4.643961
v 19.765596 26.242641 -8.580920
v 17.854359 24.296101 -11.211512
v 17.183220 22.000000 -12.135256
v 10.450000 0.450000 15.000000
v 10.000000 0.450000 -14.550000
v 10.000000 0.450000 14.550000
v 41.549999 0.000000 14.550000
v 10.000000 21.549999 -14.550000
v 26.000000 27.543278 -5.740252
v 10.450000 21.549999 -15.000000
v 25.999998 24.296101 -13.858192
v 10.450000 22.000000 -14.550000
v 10.450000 0.000000 14.550000
v 10.450000 0.450000 -15.000000
v 10.450000 0.000000 -14.550000
v 10.000000 0.450000 -14.550000
v 11.500000 -0.050000 19.549999
v 11.050000 -0.050000 20.000000
v 6.950000 34.500000 -19.549999
v 6.950000 34.049999 -20.000000
v 6.500000 34.049999 -19.549999
v 6.950000 -0.500000 -19.549999
v 6.500000 -0.050000 -19.549999
v 6.950000 -0.050000 -20.000000
v 6.950000 34.049999 20.000000
v 6.950000 34.500000 19.549999
v 6.500000 34.049999 19.549999
v 6.950000 -0.500000 19.549999
v 6.950000 -0.050000 20.000000
v 6.500000 -0.050000 19.549999
v 9.550000 30.000000 -17.549999
v 10.000000 29.549999 -17.549999
v 9.550000 29.549999 -18.000000
v 9.550000 0.000000 -17.549999
v 9.550000 0.450000 -18.000000
v 10.000000 0.450000 -17.549999
v 9.550000 30.000000 17.549999
v 9.550000 29.549999 18.000000
v 10.000000 29.549999 17.549999
v 9.550000 0.000000 17.549999
v 10.000000 0.450000 17.549999
v 9.550000 0.450000 18.000000
v -45.549999 30.000000 -17.549999
v -45.549999 29.549999 -18.000000
v -46.000000 29.549999 -17.549999
v -45.549999 0.000000 -17.549999
v -46.000000 0.450000 -17.549999
v -45.549999 0.450000 -18.000000
v -45.549999 29.549999 18.000000
v -45.549999 30.000000 17.549999
v -46.000000 29.549999 17.549999
v -45.549999 0.000000 17.549999
v -45.549999 0.450000 18.000000
v -46.000000 0.450000 17.549999
v 52.947163 7.500000 -14.543699
v 53.386318 7.050000 -14.641903
v 52.848961 7.050000 -14.982853
v 52.947163 0.500000 -14.543699
v 52.848961 0.950000 -14.982853
v 53.386318 0.950000 -14.641903
v 58.861191 7.500000 11.903122
v 58.959393 7.050000 12.342276
v 59.300346 7.050000 11.804918
v 58.861191 0.500000 11.903122
v 59.300346 0.950000 11.804918
v 58.959393 0.950000 12.342276
v 41.138809 7.500000 -11.903122
v 41.040607 7.050000 -12.342276
v 40.699654 7.050000 -11.804918
v 41.138809 0.500000 -11.903122
v 40.699654 0.950000 -11.804918
v 41.040607 0.950000 -12.342276
v 47.151039 7.050000 14.982853
v 47.052837 7.500000 14.543699
v 46.613682 7.050000 14.641903
v 47.052837 0.500000 14.543699
v 47.151039 0.950000 14.982853
v 46.613682 0.950000 14.641903
v 11.050000 34.500000 -19.549999
v 11.500000 34.049999 19.549999
v 11.500000 34.049999 -19.549999
v 6.950000 34.500000 -19.549999
v 11.050000 34.049999 -20.000000
v 6.950000 34.049999 -20.000000
v 11.050000 -0.500000 -19.549999
v 6.950000 -0.500000 -19.549999
v 6.950000 -0.050000 -20.000000
v 11.050000 -0.050000 -20.000000
v 6.500000 34.049999 -19.549999
v 6.500000 34.049999 19.549999
v 11.500000 -0.050000 -19.549999
v 11.500000 -0.050000 19.549999
v 9.550000 30.000000 17.549999
v -45.549999 30.000000 17.549999
v -45.549999 29.549999 18.000000
v 9.550000 29.549999 18.000000
v -45.549999 0.000000 17.549999
v 9.550000 0.000000 17.549999
v 9.550000 0.450000 18.000000
v -45.549999 0.450000 18.000000
v 9.550000 30.000000 -17.549999
v 10.000000 29.549999 17.549999
v 10.000000 29.549999 -17.549999
v 6.500000 -0.050000 19.549999
v 6.500000 -0.050000 -19.549999
v -45.549999 30.000000 -17.549999
v 9.550000 29.549999 -18.000000
v -45.549999 29.549999 -18.000000
v 9.550000 0.000000 -17.549999
v -45.549999 0.000000 -17.549999
v -45.549999 0.450000 -18.000000
v 9.550000 0.450000 -18.000000
v -46.000000 29.549999 -17.549999
v -46.000000 29.549999 17.549999
v 10.000000 0.450000 -17.549999
v 10.000000 0.450000 17.549999
v 58.861191 7.500000 11.903122
v 47.052837 7.500000 14.543699
v 47.151039 7.050000 14.982853
v 58.959393 7.050000 12.342276
v 47.052837 0.500000 14.543699
v 58.861191 0.500000 11.903122
v 58.959393 0.950000 12.342276
v 47.151039 0.950000 14.982853
v 52.947163 7.500000 -14.543699
v 59.300346 7.050000 11.804918
v 53.386318 7.050000 -14.641903
v -46.000000 0.450000 17.549999
v -46.000000 0.450000 -17.549999
v 41.138809 7.500000 -11.903122
v 52.848961 7.050000 -14.982853
v 41.040607 7.050000 -12.342276
v 52.947163 0.500000 -14.543699
v 41.138809 0.500000 -11.903122
v 41.040607 0.950000 -12.342276
v 52.848961 0.950000 -14.982853
v 40.699654 7.050000 -11.804918
v 46.613682 7.050000 14.641903
v 59.300346 0.950000 11.804918
v 53.386318 0.950000 -14.641903
v 46.613682 0.950000 14.641903
v 40.699654 0.950000 -11.804918
vn -0.4606 -0.4606 0.7588
vn 0.4606 -0.4606 0.7588
vn 0.4606 -0.7588 0.4606
vn -0.4606 -0.7588 0.4606
vn 0.4606 0.4606 0.7588
vn -0.4606 0.4606 0.7588
vn -0.4606 0.7588 0.4606
vn 0.4606 0.7588 0.4606
vn -0.0000 1.0000 -0.0000
vn -0.0000 -1.0000 -0.0000
vn -0.0000 0.9109 -0.4126
vn 1.0000 -0.0000 -0.0000
vn -0.0000 0.4453 -0.8954
vn -0.0000 -0.0000 1.0000
vn -1.0000 -0.0000 -0.0000
vn 0.1099 0.9824 -0.1513
vn 0.2425 0.9109 -0.3338
vn 0.4455 0.6524 -0.6131
vn 0.5263 0.4453 -0.7244
vn -0.0000 -0.0000 -1.0000
vn 0.1778 0.9824 -0.0578
vn 0.3924 0.9109 -0.1275
vn 0.7208 0.6524 -0.2342
vn 0.8516 0.4453 -0.2767
vn 0.1778 0.9824 0.0578
vn 0.3924 0.9109 0.1275
vn 0.7208 0.6524 0.2342
vn 0.8516 0.4453 0.2767
vn 0.7588 0.4606 0.4606
vn 0.1099 0.9824 0.1513
vn 0.2425 0.9109 0.3338
vn 0.4455 0.6524 0.6131
vn 0.5263 0.4453 0.7244
vn 0.7588 -0.4606 0.4606
vn 0.7588 -0.4606 -0.4606
vn -0.0000 0.9824 0.1870
vn -0.0000 0.9109 0.4126
vn -0.0000 0.6524 0.7579
vn -0.0000 0.4453 0.8954
vn 0.7588 0.4606 -0.4606
vn 0.4606 0.4606 -0.7588
vn 0.4606 0.7588 -0.4606
vn -0.1099 0.9824 0.1513
vn -0.2425 0.9109 0.3338
vn -0.4455 0.6524 0.6131
vn -0.5263 0.4453 0.7244
vn 0.4606 -0.4606 -0.7588
vn 0.4606 -0.7588 -0.4606
vn -0.4606 -0.4606 -0.7588
vn -0.1778 0.9824 0.0578
vn -0.3924 0.9109 0.1275
vn -0.7208 0.6524 0.2342
vn -0.8516 0.4453 0.2767
vn -0.4606 0.4606 -0.7588
vn -0.7588 0.4606 -0.4606
vn -0.4606 0.7588 -0.4606
vn -0.1778 0.9824 -0.0578
vn -0.3925 0.9109 -0.1275
vn -0.7208 0.6524 -0.2342
vn -0.8516 0.4453 -0.2767
vn -0.7588 0.4606 0.4606
vn -0.1099 0.9824 -0.1513
vn -0.2425 0.9109 -0.3338
vn -0.4455 0.6524 -0.6131
vn -0.5263 0.4453 -0.7244
vn -0.7588 -0.4606 -0.4606
vn -0.7588 -0.4606 0.4606
vn -0.0000 0.9824 -0.1870
vn -0.0000 0.6524 -0.7579
vn -0.4606 -0.7588 -0.4606
vn 0.9759 -0.0000 -0.2182
vn -0.2182 -0.0000 -0.9759
vn 0.2182 -0.0000 0.9759
vn -0.9759 -0.0000 0.2182
vn 0.5500 0.7588 0.3490
vn -0.3489 0.7588 0.5500
vn -0.2839 0.4606 0.8410
vn 0.6151 0.4606 0.6400
vn -0.3489 -0.7588 0.5500
vn 0.5500 -0.7588 0.3490
vn 0.6150 -0.4606 0.6400
vn -0.2839 -0.4606 0.8410
vn 0.3490 0.7588 -0.5500
vn 0.8410 0.4606 0.2839
vn 0.6400 0.4606 -0.6150
vn -0.5500 0.7588 -0.3490
vn 0.2839 0.4606 -0.8410
vn -0.6151 0.4606 -0.6400
vn 0.3490 -0.7588 -0.5500
vn -0.5500 -0.7588 -0.3490
vn -0.6151 -0.4606 -0.6400
vn 0.2839 -0.4606 -0.8410
vn -0.8410 0.4606 -0.2839
vn -0.6400 0.4606 0.6150
vn 0.8410 -0.4606 0.2839
vn 0.6400 -0.4606 -0.6151
vn -0.6400 -0.4606 0.6151
vn -0.8410 -0.4606 -0.2839
vt -2.277500 0.877500
vt -2.277500 0.900000
vt -2.300000 0.877500
vt 2.077500 1.100000
vt 2.100000 1.077500
vt 2.077500 1.077500
vt 1.300000 0.530330
vt 1.707282 0.560576
vt 1.300000 0.692910
vt 1.300000 0.287013
vt 1.300000 0.000000
vt 1.468702 0.232198
vt 0.877500 1.500000
vt 0.877500 1.477500
vt 0.900000 1.477500
vt 1.300000 1.100000
vt 1.707282 1.214805
vt 1.740839 1.100000
vt 1.611720 0.429046
vt 1.804374 0.163881
vt 1.958996 0.214121
vt 1.572965 0.088692
vt -0.977500 -0.025000
vt -1.000000 -0.002500
vt -0.977500 -0.002500
vt 0.560576 1.214805
vt 0.231763 1.100000
vt 0.606763 1.100000
vt 2.077500 0.000000
vt 2.100000 0.022500
vt 2.077500 0.022500
vt -1.000000 1.702500
vt -0.977500 1.725000
vt -0.977500 1.702500
vt 0.727500 0.000000
vt 0.727500 0.022500
vt 0.750000 0.022500
vt -0.214121 1.214805
vt -0.231763 1.100000
vt 1.804374 -0.163881
vt -0.750000 1.077500
vt -0.727500 1.100000
vt -0.727500 1.077500
vt 0.727500 1.100000
vt 0.750000 1.077500
vt 0.727500 1.077500
vt 1.958996 -0.214121
vt 1.572965 -0.088692
vt 1.468702 -0.232198
vt 1.611720 -0.429046
vt -0.727500 0.000000
vt -0.750000 0.022500
vt -0.727500 0.022500
vt 1.707282 -0.560576
vt 0.977500 -0.025000
vt 0.977500 -0.002500
vt 1.000000 -0.002500
vt -0.606763 1.100000
vt 1.300000 -0.692910
vt 1.300000 -0.287013
vt 0.977500 1.725000
vt 1.000000 1.702500
vt 0.977500 1.702500
vt 1.300000 -0.530330
vt 1.131298 -0.232198
vt 0.892718 1.214805
vt 0.859161 1.100000
vt 0.988280 -0.429046
vt 0.892718 -0.560576
vt -0.560576 1.214805
vt -0.231763 1.100000
vt -0.606763 1.100000
vt 0.795626 -0.163881
vt 0.641004 -0.214121
vt 1.027035 -0.088692
vt 0.641004 0.214121
vt 1.027035 0.088692
vt -0.214121 1.214805
vt 0.231763 1.100000
vt 0.795626 0.163881
vt 0.892718 0.560576
vt 1.131298 0.232198
vt 0.988280 0.429046
vt 0.877500 0.000000
vt 0.900000 0.022500
vt 0.877500 0.022500
vt -0.877500 0.000000
vt -0.877500 0.022500
vt -0.900000 0.022500
vt 0.892718 1.214805
vt 0.859161 1.100000
vt -0.877500 1.500000
vt -0.900000 1.477500
vt -0.877500 1.477500
vt -2.277500 -0.900000
vt -2.277500 -0.877500
vt -2.300000 -0.877500
vt 2.647358 0.375000
vt 2.669316 0.352500
vt 2.642448 0.352500
vt 2.647358 0.025000
vt 2.642448 0.047500
vt 2.669316 0.047500
vt -0.595156 0.375000
vt -0.617114 0.352500
vt -0.590246 0.352500
vt -0.595156 0.025000
vt -0.590246 0.047500
vt -0.617114 0.047500
vt 0.595156 0.375000
vt 0.617114 0.352500
vt 0.590246 0.352500
vt 0.595156 0.025000
vt 0.590246 0.047500
vt 0.617114 0.047500
vt 2.357552 0.352500
vt 2.352642 0.375000
vt 2.330684 0.352500
vt 2.352642 0.025000
vt 2.357552 0.047500
vt 2.330684 0.047500
vt 0.522500 0.000000
vt 0.522500 1.077500
vt 0.522500 1.100000
vt 2.077500 0.727500
vt 2.100000 -0.727500
vt 2.077500 -0.727500
vt 2.100000 0.727500
vt 0.522500 0.022500
vt 0.347500 -0.977500
vt 0.552500 -1.000000
vt 0.552500 -0.977500
vt 0.347500 -1.000000
vt 0.552500 0.977500
vt 0.347500 1.000000
vt 0.347500 0.977500
vt 0.552500 1.000000
vt 0.477500 -0.900000
vt 0.477500 -0.877500
vt 0.477500 0.877500
vt 0.477500 0.900000
vt 2.352642 -0.727185
vt 2.947970 -0.617114
vt 2.943059 -0.595156
vt 2.357552 -0.749143
vt 2.669316 0.732095
vt 2.647358 0.727185
vt -0.877500 0.022500
vt 2.052030 0.617114
vt 2.056941 0.595156
vt 2.642448 0.749143
vt 2.330684 -0.732095
vt 2.965017 -0.590246
vt 2.034983 0.590246
vt 0.522500 -0.727500
vt 0.522500 0.727500
vt 0.347500 1.702500
vt 0.552500 -0.002500
vt 0.347500 -0.002500
vt 0.552500 1.702500
vt -2.277500 1.477500
vt 0.477500 0.022500
vt -2.277500 0.022500
vt 0.477500 1.477500
vt 0.877500 0.022500
vt 2.052030 0.352500
vt 2.052030 0.047500
vt 0.732095 0.352500
vt 0.732095 0.047500
vt 2.947970 0.352500
vt 2.947970 0.047500
vt -0.732095 0.352500
vt -0.732095 0.047500
vt 1.300000 1.214805
vt 0.214121 1.214805
vt -0.560576 1.214805
vt 1.300000 1.214805
vt 0.214121 1.214805
s 1
f 197/1/56 199/2/54 204/3/55
f 61/4/42 59/5/40 60/6/41
f 11/7/11 21/8/18 102/9/69
f 100/10/68 9/11/9 19/12/16
f 192/13/42 194/14/40 198/15/41
f 201/1/70 220/3/66 202/2/49
f 13/16/13 21/17/18 22/18/19
f 11/7/11 19/12/16 20/19/17
f 21/8/18 29/20/22 30/21/23
f 19/12/16 9/11/9 28/22/21
f 4/23/4 1/24/1 195/25/67
f 43/4/8 41/6/5 42/5/29
f 21/26/18 31/27/24 22/28/19
f 19/12/16 29/20/22 20/19/17
f 51/29/3 50/30/34 34/31/2
f 69/29/48 68/31/47 52/30/35
f 6/32/6 7/33/7 181/34/61
f 106/35/70 96/36/66 70/37/49
f 31/27/24 39/38/27 40/39/28
f 28/22/21 38/40/26 29/20/22
f 88/41/6 86/42/7 87/43/61
f 79/44/56 77/45/54 78/46/55
f 29/20/22 39/47/27 30/21/23
f 28/22/21 9/11/9 37/48/25
f 38/40/26 46/49/30 47/50/31
f 104/51/4 95/52/1 97/53/67
f 38/40/26 48/54/32 39/47/27
f 37/48/25 9/11/9 46/49/30
f 177/55/70 196/56/66 178/57/49
f 39/38/27 49/58/33 40/39/28
f 47/50/31 57/59/38 48/54/32
f 46/49/30 9/11/9 55/60/36
f 173/61/56 175/62/54 180/63/55
f 48/17/32 58/16/39 49/18/33
f 46/49/30 56/64/37 47/50/31
f 55/60/36 9/11/9 64/65/43
f 3/23/3 183/25/34 2/24/2
f 58/16/39 66/66/45 67/67/46
f 55/60/36 65/68/44 56/64/37
f 56/64/37 66/69/45 57/59/38
f 66/70/45 76/71/53 67/72/46
f 64/65/43 74/73/51 65/68/44
f 65/68/44 75/74/52 66/69/45
f 64/65/43 9/11/9 73/75/50
f 8/33/8 5/32/5 171/34/29
f 74/73/51 84/76/59 75/74/52
f 73/75/50 9/11/9 82/77/57
f 176/55/48 179/57/47 182/56/35
f 75/78/52 85/79/60 76/71/53
f 74/73/51 82/77/57 83/80/58
f 83/80/58 93/81/64 84/76/59
f 82/77/57 9/11/9 91/82/62
f 170/61/42 172/63/40 174/62/41
f 85/79/60 93/26/64 94/28/65
f 82/77/57 92/83/63 83/80/58
f 200/84/48 203/85/47 206/86/35
f 189/87/3 207/88/34 190/89/2
f 93/90/64 13/16/13 94/91/65
f 91/82/62 11/7/11 92/83/63
f 184/92/8 187/93/5 193/94/29
f 92/83/63 102/9/69 93/81/64
f 91/82/62 9/11/9 100/10/68
f 186/95/6 185/96/7 205/97/61
f 188/96/4 191/95/1 219/97/67
f 216/98/83 218/99/85 222/100/87
f 224/101/89 227/102/92 231/103/96
f 208/104/75 211/105/78 217/106/84
f 213/107/80 230/108/95 214/109/81
f 221/110/86 223/111/88 228/112/93
f 225/113/90 233/114/98 226/115/91
f 210/116/77 209/117/76 229/118/94
f 212/119/79 215/120/82 232/121/97
f 104/51/4 96/36/66 106/35/70
f 88/41/6 97/53/67 95/52/1
f 79/44/56 87/43/61 86/42/7
f 70/37/49 78/46/55 77/45/54
f 106/122/70 68/31/47 69/29/48
f 61/4/42 77/123/54 79/124/56
f 52/30/35 60/6/41 59/5/40
f 69/125/48 50/126/34 51/127/3
f 43/127/8 59/128/40 61/125/42
f 34/31/2 42/5/29 41/6/5
f 51/29/3 95/129/1 104/122/4
f 86/124/7 41/6/5 43/4/8
f 7/130/7 5/131/5 8/132/8
f 3/132/3 1/133/1 4/130/4
f 8/33/8 172/63/40 170/61/42
f 170/134/42 175/135/54 173/136/56
f 177/136/70 179/137/47 176/134/48
f 173/61/56 181/34/61 7/33/7
f 182/56/35 174/62/41 172/63/40
f 176/55/48 183/25/34 3/23/3
f 2/24/2 171/34/29 5/32/5
f 185/96/7 187/138/5 184/139/8
f 189/139/3 191/95/1 188/96/4
f 184/92/8 194/14/40 192/13/42
f 4/23/4 196/56/66 177/55/70
f 6/32/6 195/25/67 1/24/1
f 178/57/49 180/63/55 175/62/54
f 192/140/42 199/2/54 197/1/56
f 201/1/70 203/141/47 200/140/48
f 197/1/56 205/97/61 185/96/7
f 200/84/48 207/88/34 189/87/3
f 190/89/2 193/94/29 187/93/5
f 206/86/35 198/15/41 194/14/40
f 209/142/76 211/143/78 208/144/75
f 212/142/79 214/143/81 215/145/82
f 208/144/75 218/146/85 216/147/83
f 188/96/4 220/3/66 201/1/70
f 186/93/6 219/148/67 191/89/1
f 202/85/49 204/14/55 199/15/54
f 216/147/83 223/149/88 221/150/86
f 225/150/90 227/151/92 224/147/89
f 221/150/86 229/152/94 209/142/76
f 214/109/81 217/106/84 211/105/78
f 231/103/96 222/100/87 218/99/85
f 224/147/89 230/153/95 213/144/80
f 210/116/77 232/121/97 215/120/82
f 226/115/91 228/112/93 223/111/88
f 225/150/90 232/152/97 233/154/98
f 71/125/10 33/155/10 15/156/10
f 17/43/15 107/36/15 25/53/15
f 80/6/14 32/129/14 89/31/14
f 103/156/9 81/127/9 54/125/9
f 101/123/20 63/31/20 105/129/20
f 53/46/12 90/53/12 62/36/12
f 110/136/9 16/132/9 44/134/9
f 111/157/20 26/158/20 115/159/20
f 36/63/12 108/25/12 18/56/12
f 27/134/10 119/130/10 113/136/10
f 14/160/14 120/159/14 109/158/14
f 118/34/15 114/56/15 121/25/15
f 134/1/9 128/139/9 122/140/9
f 135/161/20 126/162/20 139/163/20
f 123/14/12 132/88/12 127/86/12
f 125/140/10 143/96/10 137/1/10
f 129/164/14 144/163/14 133/162/14
f 142/94/15 138/165/15 145/148/15
f 158/150/9 152/144/9 146/147/9
f 159/166/72 150/102/72 163/167/72
f 147/168/71 156/108/71 151/169/71
f 149/147/10 167/142/10 161/150/10
f 153/170/73 168/120/73 157/171/73
f 166/172/74 162/114/74 169/173/74
f 11/7/11 20/19/17 21/8/18
f 13/16/13 102/174/69 21/17/18
f 11/7/11 100/10/68 19/12/16
f 21/8/18 20/19/17 29/20/22
f 21/26/18 30/175/23 31/27/24
f 19/12/16 28/22/21 29/20/22
f 31/27/24 30/175/23 39/38/27
f 28/22/21 37/48/25 38/40/26
f 29/20/22 38/40/26 39/47/27
f 38/40/26 37/48/25 46/49/30
f 38/40/26 47/50/31 48/54/32
f 39/38/27 48/176/32 49/58/33
f 47/50/31 56/64/37 57/59/38
f 48/17/32 57/177/38 58/16/39
f 46/49/30 55/60/36 56/64/37
f 58/16/39 57/177/38 66/66/45
f 55/60/36 64/65/43 65/68/44
f 56/64/37 65/68/44 66/69/45
f 66/70/45 75/78/52 76/71/53
f 64/65/43 73/75/50 74/73/51
f 65/68/44 74/73/51 75/74/52
f 74/73/51 83/80/58 84/76/59
f 75/78/52 84/178/59 85/79/60
f 74/73/51 73/75/50 82/77/57
f 83/80/58 92/83/63 93/81/64
f 85/79/60 84/178/59 93/26/64
f 82/77/57 91/82/62 92/83/63
f 93/90/64 102/174/69 13/16/13
f 91/82/62 100/10/68 11/7/11
f 92/83/63 11/7/11 102/9/69
f 104/51/4 97/53/67 96/36/66
f 88/41/6 87/43/61 97/53/67
f 79/44/56 78/46/55 87/43/61
f 70/37/49 96/36/66 78/46/55
f 106/122/70 70/129/49 68/31/47
f 61/4/42 60/6/41 77/123/54
f 52/30/35 68/31/47 60/6/41
f 69/125/48 52/128/35 50/126/34
f 43/127/8 42/126/29 59/128/40
f 34/31/2 50/30/34 42/5/29
f 51/29/3 34/31/2 95/129/1
f 86/124/7 88/123/6 41/6/5
f 7/130/7 6/133/6 5/131/5
f 3/132/3 2/131/2 1/133/1
f 8/33/8 171/34/29 172/63/40
f 170/134/42 174/137/41 175/135/54
f 177/136/70 178/135/49 179/137/47
f 173/61/56 180/63/55 181/34/61
f 182/56/35 179/57/47 174/62/41
f 176/55/48 182/56/35 183/25/34
f 2/24/2 183/25/34 171/34/29
f 185/96/7 186/95/6 187/138/5
f 189/139/3 190/138/2 191/95/1
f 184/92/8 193/94/29 194/14/40
f 4/23/4 195/25/67 196/56/66
f 6/32/6 181/34/61 195/25/67
f 178/57/49 196/56/66 180/63/55
f 192/140/42 198/141/41 199/2/54
f 201/1/70 202/2/49 203/141/47
f 197/1/56 204/3/55 205/97/61
f 200/84/48 206/86/35 207/88/34
f 190/89/2 207/88/34 193/94/29
f 206/86/35 203/85/47 198/15/41
f 209/142/76 210/145/77 211/143/78
f 212/142/79 213/144/80 214/143/81
f 208/144/75 217/153/84 218/146/85
f 188/96/4 219/97/67 220/3/66
f 186/93/6 205/94/61 219/148/67
f 202/85/49 220/165/66 204/14/55
f 216/147/83 222/151/87 223/149/88
f 225/150/90 226/149/91 227/151/92
f 221/150/86 228/154/93 229/152/94
f 214/109/81 230/108/95 217/106/84
f 231/103/96 227/102/92 222/100/87
f 224/147/89 231/146/96 230/153/95
f 210/116/77 229/118/94 232/121/97
f 226/115/91 233/114/98 228/112/93
f 225/150/90 212/142/79 232/152/97
f 71/125/10 98/127/10 33/155/10
f 17/43/15 99/46/15 107/36/15
f 80/6/14 24/123/14 32/129/14
f 103/156/9 23/155/9 81/127/9
f 101/123/20 45/6/20 63/31/20
f 53/46/12 72/43/12 90/53/12
f 110/136/9 117/130/9 16/132/9
f 111/157/20 35/160/20 26/158/20
f 36/63/12 12/34/12 108/25/12
f 27/134/10 10/132/10 119/130/10
f 14/160/14 116/157/14 120/159/14
f 118/34/15 112/63/15 114/56/15
f 134/1/9 141/96/9 128/139/9
f 135/161/20 124/164/20 126/162/20
f 123/14/12 130/94/12 132/88/12
f 125/140/10 131/139/10 143/96/10
f 129/164/14 140/161/14 144/163/14
f 142/94/15 136/14/15 138/165/15
f 158/150/9 165/142/9 152/144/9
f 159/166/72 148/100/72 150/102/72
f 147/168/71 154/106/71 156/108/71
f 149/147/10 155/144/10 167/142/10
f 153/170/73 164/116/73 168/120/73
f 166/172/74 160/112/74 162/114/74
