# Blender 5.2.0 LTS
# www.blender.org
o Backdrop_Statue_Detail
v 33.660133 47.629417 -2.633217
v 6.451207 36.921413 -4.214783
v 7.378848 60.928551 3.236662
v 7.470202 36.921413 -1.891713
v 7.663174 12.000000 -1.940579
v 34.641731 47.180180 -1.492226
v 7.287395 38.000000 6.708519
v 7.991799 39.071449 7.356969
v 4.026206 38.000000 -5.172869
v 4.192042 62.000000 -5.385937
v 4.949020 60.928551 -6.358501
v 9.070795 38.000000 3.978821
v 7.679683 36.921413 0.636357
v 7.056953 36.921413 3.095467
v 7.878067 12.000000 0.652795
v 8.190673 13.078587 3.592764
v 0.000000 70.000000 0.000000
v -7.287395 38.000000 6.708519
v 8.913446 13.078587 0.738588
v 6.354484 38.000000 -1.609173
v 5.487682 38.000000 -3.585282
v 6.532677 38.000000 0.541314
v 6.083817 38.000000 -7.816489
v 1.472132 13.078587 8.822012
v 1.268366 36.921413 7.600904
v 7.810946 60.928551 -1.978001
v 8.029983 60.928551 0.665383
v 5.669490 36.921413 5.219135
v 3.667652 36.921413 6.777227
v 6.002955 38.000000 2.633140
v 4.256871 13.078587 7.866010
v 6.580311 13.078587 6.057603
v 7.239249 12.000000 3.175430
v 5.815946 12.000000 5.353957
v 9.947586 39.071449 4.363417
v 4.822719 38.000000 4.439626
v -1.472132 13.078587 8.822013
v 10.825396 39.071449 0.897018
v -3.119867 38.000000 5.765009
v 3.119867 38.000000 5.765009
v -1.078929 38.000000 6.465664
v 1.078929 38.000000 6.465664
v 6.671885 39.071449 -8.572037
v 3.762396 12.000000 6.952299
v 1.301131 12.000000 7.797252
v 6.801755 62.000000 0.563609
v -4.822719 38.000000 4.439626
v -6.002955 38.000000 2.633140
v -0.000000 60.928551 -8.057503
v 2.616267 60.928551 -7.620924
v 13.347549 60.535419 -0.749185
v 13.347549 60.535419 0.749187
v 9.871236 38.000000 0.817954
v -6.580312 13.078587 6.057604
v -4.256871 13.078587 7.866010
v -1.268367 36.921413 7.600905
v -1.301132 12.000000 7.797252
v -3.762396 12.000000 6.952299
v -3.667653 36.921413 6.777228
v -5.815946 12.000000 5.353957
v 11.929986 60.032059 0.510068
v 11.929986 60.032059 -0.510068
v 3.527047 39.071449 -10.273936
v 0.000000 39.071449 -10.862497
v 6.616222 62.000000 -1.675454
v 5.713717 62.000000 -3.732957
v 34.728462 49.963757 0.585940
v 34.728462 49.963760 -0.585940
v 10.530108 39.071449 -2.666587
v 9.093720 39.071449 -5.941224
v -7.487615 13.078587 -4.891903
v -2.904110 13.078587 -8.459386
v -5.493517 13.078587 -7.058069
v 35.247147 48.503036 -0.332052
v 35.247147 48.503036 0.332052
v 12.589502 58.879059 -3.033369
v 13.077005 59.944271 -2.099150
v -7.470202 36.921413 -1.891713
v -7.239249 12.000000 3.175430
v -7.878067 12.000000 0.652795
v -8.190672 13.078587 3.592764
v -8.670313 13.078587 -2.195622
v -8.913448 13.078587 0.738588
v -5.669490 36.921413 5.219135
v 2.216096 62.000000 -6.455265
v 0.000000 62.000000 -6.825067
v -7.056952 36.921413 3.095466
v -7.679684 36.921413 0.636357
v -6.532677 38.000000 0.541314
v 11.745791 59.629585 -1.429179
v 11.413884 58.904354 -2.065224
v 34.516865 49.501415 -1.641787
v 34.135586 48.668293 -2.372445
v 34.911163 47.768909 -1.344448
v -3.834947 60.928551 7.086361
v -3.248371 62.000000 6.002468
v -5.169978 39.071449 9.553281
v 0.000000 67.656853 -4.596194
v -4.714290 38.000000 8.711246
v -1.326222 60.928551 7.947608
v 0.000000 64.472137 -6.181868
v -1.123368 62.000000 6.731982
v -1.787909 39.071449 10.714347
v -1.630321 38.000000 9.769975
v -6.451209 36.921413 -4.214784
v 1.326222 60.928551 7.947609
v 1.123368 62.000000 6.731982
v -5.487682 38.000000 -3.585282
v 1.787910 39.071449 10.714348
v 1.630321 38.000000 9.769975
v 3.834947 60.928551 7.086361
v 3.248372 62.000000 6.002468
v -7.487615 13.078587 -4.891903
v 5.169977 39.071449 9.553280
v 0.330162 69.901505 -0.961730
v 0.652195 69.608452 -1.899778
v 0.958168 69.128052 -2.791049
v 1.240548 68.472137 -3.613593
v 1.492382 67.656853 -4.347159
v 1.707468 66.702286 -4.973684
v 1.880511 65.631927 -5.477741
v 2.007249 64.472137 -5.846917
v 2.084562 63.251476 -6.072123
v 2.110547 62.000000 -6.147812
v -6.617857 12.000000 -4.323661
v -7.470202 36.921413 -1.891713
v -6.354484 38.000000 -1.609173
v -8.670313 13.078587 -2.195622
v -7.663174 12.000000 -1.940579
v -7.679684 36.921413 0.636357
v -6.532677 38.000000 0.541314
v -8.913448 13.078587 0.738588
v -7.878067 12.000000 0.652795
v 4.714290 38.000000 8.711246
v 5.928097 60.928551 5.457198
v 0.624546 69.901505 -0.802417
v 1.233714 69.608452 -1.585076
v 1.812504 69.128052 -2.328705
v 2.346663 68.472137 -3.014993
v 2.823041 67.656853 -3.627042
v 3.229905 66.702286 -4.149783
v 3.557239 65.631927 -4.570341
v 3.796982 64.472137 -4.878362
v 3.943230 63.251476 -5.066262
v 3.992383 62.000000 -5.129413
v -7.056952 36.921413 3.095466
v -6.002955 38.000000 2.633140
v -8.190672 13.078587 3.592764
v -7.239249 12.000000 3.175430
v -5.669490 36.921413 5.219135
v -4.822719 38.000000 4.439626
v -6.580312 13.078587 6.057604
v -5.815946 12.000000 5.353957
v -3.667653 36.921413 6.777228
v 5.021365 62.000000 4.622492
v 7.991799 39.071449 7.356969
v 0.851251 69.901505 -0.556150
v 1.681541 69.608452 -1.098606
v 2.470427 69.128052 -1.614010
v 3.198482 68.472137 -2.089672
v 3.847779 67.656853 -2.513880
v 4.402332 66.702286 -2.876188
v 4.848485 65.631927 -3.167673
v 5.175252 64.472137 -3.381161
v 5.374588 63.251476 -3.511393
v 5.441582 62.000000 -3.555163
v -3.119867 38.000000 5.765009
v -4.256871 13.078587 7.866010
v -3.762396 12.000000 6.952299
v -1.268367 36.921413 7.600905
v -1.078929 38.000000 6.465664
v -1.472132 13.078587 8.822013
v -1.301132 12.000000 7.797252
v 1.268366 36.921413 7.600904
v 1.078929 38.000000 6.465664
v 7.287395 38.000000 6.708519
v 7.378848 60.928551 3.236662
v 0.985710 69.901505 -0.249616
v 1.947147 69.608452 -0.493085
v 2.860641 69.128052 -0.724412
v 3.703694 68.472137 -0.937903
v 4.455552 67.656853 -1.128299
v 5.097698 66.702286 -1.290913
v 5.614323 65.631927 -1.421740
v 5.992703 64.472137 -1.517559
v 6.223525 63.251476 -1.576011
v 6.301102 62.000000 -1.595655
v 1.472132 13.078587 8.822012
v 1.301131 12.000000 7.797252
v 3.667652 36.921413 6.777227
v 3.119867 38.000000 5.765009
v 4.256871 13.078587 7.866010
v 3.762396 12.000000 6.952299
v 5.669490 36.921413 5.219135
v 4.822719 38.000000 4.439626
v 6.580311 13.078587 6.057603
v 6.250214 62.000000 2.741598
v 9.947586 39.071449 4.363417
v 1.013351 69.901505 0.083969
v 2.001750 69.608452 0.165870
v 2.940859 69.128052 0.243687
v 3.807555 68.472137 0.315503
v 4.580495 67.656853 0.379551
v 5.240649 66.702286 0.434252
v 5.771761 65.631927 0.478262
v 6.160753 64.472137 0.510494
v 6.398047 63.251476 0.530157
v 6.477798 62.000000 0.536766
v 5.815946 12.000000 5.353957
v 7.056953 36.921413 3.095467
v 6.002955 38.000000 2.633140
v 8.190673 13.078587 3.592764
v 7.239249 12.000000 3.175430
v 7.679683 36.921413 0.636357
v 6.532677 38.000000 0.541314
v 8.913446 13.078587 0.738588
v 7.878067 12.000000 0.652795
v 9.070795 38.000000 3.978821
v 8.029983 60.928551 0.665383
v 0.931180 69.901505 0.408454
v 1.839432 69.608452 0.806849
v 2.702391 69.128052 1.185378
v 3.498807 68.472137 1.534719
v 4.209072 67.656853 1.846270
v 4.815695 66.702286 2.112359
v 5.303740 65.631927 2.326436
v 5.661189 64.472137 2.483228
v 5.879241 63.251476 2.578874
v 5.952526 62.000000 2.611020
v 7.470202 36.921413 -1.891713
v 6.354484 38.000000 -1.609173
v 8.670312 13.078587 -2.195621
v 7.663174 12.000000 -1.940579
v 6.451207 36.921413 -4.214783
v 5.487682 38.000000 -3.585282
v 7.487614 13.078587 -4.891903
v 6.617857 12.000000 -4.323661
v 4.733126 36.921413 -6.081120
v 6.801755 62.000000 0.563609
v 10.825396 39.071449 0.897018
v 0.748102 69.901505 0.688676
v 1.477783 69.608452 1.360395
v 2.171076 69.128052 1.998616
v 2.810910 68.472137 2.587625
v 3.381529 67.656853 3.112917
v 3.868886 66.702286 3.561559
v 4.260976 65.631927 3.922504
v 4.548147 64.472137 4.186864
v 4.723329 63.251476 4.348130
v 4.782205 62.000000 4.402330
v 4.026206 38.000000 -5.172869
v 5.493517 13.078587 -7.058069
v 4.855394 12.000000 -6.238207
v 2.502136 36.921413 -7.288470
v 2.128427 38.000000 -6.199895
v 2.904111 13.078587 -8.459387
v 2.566771 12.000000 -7.476748
v -0.000000 36.921413 -7.706004
v 0.000000 38.000000 -6.555067
v 9.871236 38.000000 0.817954
v 7.810946 60.928551 -1.978001
v 0.483955 69.901505 0.894270
v 0.955993 69.608452 1.766520
v 1.404492 69.128052 2.595273
v 1.818407 68.472137 3.360121
v 2.187546 67.656853 4.042232
v 2.502822 66.702286 4.624809
v 2.756469 65.631927 5.093509
v 2.942243 64.472137 5.436790
v 3.055570 63.251476 5.646198
v 3.093658 62.000000 5.716579
v 0.000000 13.078587 -8.943996
v 0.000000 12.000000 -7.905066
v 12.420000 11.420000 -13.500000
v 13.500000 11.420000 -12.420000
v 12.420000 12.500000 -12.420000
v 13.500000 8.580000 -12.420000
v 12.420000 8.580000 -13.500000
v 12.420000 7.500000 -12.420000
v 13.500000 11.420000 12.420000
v 6.616222 62.000000 -1.675454
v 10.530108 39.071449 -2.666587
v 0.167364 69.901505 1.002956
v 0.330606 69.608452 1.981215
v 0.485709 69.128052 2.910691
v 0.628851 68.472137 3.768496
v 0.756509 67.656853 4.533507
v 0.865540 66.702286 5.186889
v 0.953256 65.631927 5.712553
v 1.017502 64.472137 6.097554
v 1.056693 63.251476 6.332414
v 1.069865 62.000000 6.411348
v 12.420000 11.420000 13.500000
v 12.420000 12.500000 12.420000
v 12.420000 8.580000 13.500000
v 13.500000 8.580000 12.420000
v 12.420000 7.500000 12.420000
v -13.500000 11.420000 -12.420000
v -12.420000 11.420000 -13.500000
v -12.420000 12.500000 -12.420000
v -12.420000 8.580000 -13.500000
v 9.601975 38.000000 -2.431548
v 6.745472 60.928551 -4.407035
v -0.167364 69.901505 1.002956
v -0.330606 69.608452 1.981215
v -0.485708 69.128052 2.910691
v -0.628851 68.472137 3.768496
v -0.756509 67.656853 4.533507
v -0.865538 66.702286 5.186890
v -0.953256 65.631927 5.712553
v -1.017502 64.472137 6.097554
v -1.056692 63.251476 6.332414
v -1.069865 62.000000 6.411348
v -13.500000 8.580000 -12.420000
v -12.420000 7.500000 -12.420000
v -13.500000 11.420000 12.420000
v -12.420000 12.500000 12.420000
v -12.420000 11.420000 13.500000
v -13.500000 8.580000 12.420000
v -12.420000 8.580000 13.500000
v -12.420000 7.500000 12.420000
v 15.920000 6.920000 -17.000000
v 5.713717 62.000000 -3.732957
v 9.093720 39.071449 -5.941224
v -0.483955 69.901505 0.894270
v -0.955993 69.608452 1.766520
v -1.404491 69.128052 2.595273
v -1.818406 68.472137 3.360121
v -2.187546 67.656853 4.042231
v -2.502821 66.702286 4.624810
v -2.756469 65.631927 5.093509
v -2.942243 64.472137 5.436790
v -3.055569 63.251476 5.646199
v -3.093658 62.000000 5.716579
v 17.000000 6.920000 -15.920000
v 15.920000 8.000000 -15.920000
v 17.000000 1.080000 -15.920000
v 15.920000 1.080000 -17.000000
v 15.920000 0.000000 -15.920000
v 17.000000 6.920000 15.920000
v 15.920000 6.920000 17.000000
v 15.920000 8.000000 15.920000
v 15.920000 1.080000 17.000000
v 8.292190 38.000000 -5.417559
v 4.949020 60.928551 -6.358501
v -0.748102 69.901505 0.688676
v -1.477782 69.608452 1.360395
v -2.171076 69.128052 1.998616
v -2.810910 68.472137 2.587625
v -3.381529 67.656853 3.112917
v -3.868885 66.702286 3.561560
v -4.260975 65.631927 3.922504
v -4.548147 64.472137 4.186864
v -4.723328 63.251476 4.348131
v -4.782205 62.000000 4.402330
v 17.000000 1.080000 15.920000
v 15.920000 0.000000 15.920000
v -17.000000 6.920000 -15.920000
v -15.920000 6.920000 -17.000000
v -15.920000 8.000000 -15.920000
v -15.920000 1.080000 -17.000000
v -17.000000 1.080000 -15.920000
v -15.920000 0.000000 -15.920000
v -17.000000 6.920000 15.920000
v 4.192042 62.000000 -5.385937
v 6.671885 39.071449 -8.572037
v -0.931180 69.901505 0.408454
v -1.839431 69.608452 0.806850
v -2.702390 69.128052 1.185379
v -3.498807 68.472137 1.534719
v -4.209071 67.656853 1.846269
v -4.815694 66.702286 2.112360
v -5.303739 65.631927 2.326436
v -5.661188 64.472137 2.483228
v -5.879241 63.251476 2.578875
v -5.952526 62.000000 2.611020
v -15.920000 8.000000 15.920000
v -15.920000 6.920000 17.000000
v -17.000000 1.080000 15.920000
v 35.127243 48.241028 -0.930387
v -10.886190 55.157253 -2.099159
v -10.615650 54.566109 -0.749177
v -10.070011 55.967941 -0.510066
v -10.254209 56.370419 -1.429180
v -32.803398 45.757420 -1.641781
v 6.083817 38.000000 -7.816489
v 2.616267 60.928551 -7.620924
v -1.013351 69.901505 0.083969
v -2.001750 69.608452 0.165870
v -2.940859 69.128052 0.243687
v -3.807554 68.472137 0.315503
v -4.580494 67.656853 0.379550
v -5.240649 66.702286 0.434254
v -5.771760 65.631927 0.478262
v -6.160752 64.472137 0.510495
v -6.398046 63.251476 0.530158
v -6.477798 62.000000 0.536766
v -34.156219 46.119331 -0.930383
v -33.184681 46.590542 -2.372446
v -33.660133 47.629421 -2.633214
v -34.641739 47.180180 -1.492226
v -34.372295 46.591457 -1.344449
v -1.326222 60.928551 7.947608
v -3.834947 60.928551 7.086361
v -5.169978 39.071449 9.553281
v -1.787909 39.071449 10.714347
v 2.216096 62.000000 -6.455265
v 3.527047 39.071449 -10.273936
v -0.985709 69.901505 -0.249615
v -1.947147 69.608452 -0.493084
v -2.860640 69.128052 -0.724412
v -3.703694 68.472137 -0.937902
v -4.455550 67.656853 -1.128299
v -5.097698 66.702286 -1.290912
v -5.614321 65.631927 -1.421739
v -5.992702 64.472137 -1.517558
v -6.223524 63.251476 -1.576010
v -6.301101 62.000000 -1.595656
v 10.886192 55.157261 2.099155
v 10.254211 56.370422 1.429179
v 10.615651 54.566116 -0.749176
v 10.886192 55.157261 -2.099155
v -2.128427 38.000000 -6.199895
v -4.026206 38.000000 -5.172869
v 10.254211 56.370422 -1.429179
v 10.070011 55.967945 -0.510065
v 32.803398 45.757412 1.641785
v 3.216169 38.000000 -9.368382
v -0.000000 60.928551 -8.057503
v -0.851251 69.901505 -0.556150
v -1.681541 69.608452 -1.098605
v -2.470426 69.128052 -1.614010
v -3.198482 68.472137 -2.089672
v -3.847778 67.656853 -2.513879
v -4.402332 66.702286 -2.876186
v -4.848484 65.631927 -3.167672
v -5.175251 64.472137 -3.381160
v -5.374587 63.251476 -3.511392
v -5.441581 62.000000 -3.555163
v -5.487682 38.000000 -3.585282
v -6.354484 38.000000 -1.609173
v 8.292190 38.000000 -5.417559
v 9.601975 38.000000 -2.431548
v 34.156219 46.119331 0.930387
v 0.000000 38.000000 -9.905066
v 3.216169 38.000000 -9.368382
v 33.184681 46.590534 2.372446
v 33.660133 47.629417 2.633215
v 0.000000 62.000000 -6.825067
v 0.000000 39.071449 -10.862497
v -0.624546 69.901505 -0.802417
v -1.233714 69.608452 -1.585075
v -1.812504 69.128052 -2.328705
v -2.346663 68.472137 -3.014993
v -2.823040 67.656853 -3.627042
v -3.229905 66.702286 -4.149781
v -3.557238 65.631927 -4.570339
v -3.796980 64.472137 -4.878361
v -3.943230 63.251476 -5.066261
v -3.992382 62.000000 -5.129413
v -7.663174 12.000000 -1.940579
v -6.617857 12.000000 -4.323661
v 34.641731 47.180180 1.492226
v 34.372299 46.591450 1.344448
v -6.451209 36.921413 -4.214784
v 13.077007 59.944275 2.099152
v 12.589502 58.879059 3.033370
v -4.733125 36.921413 -6.081119
v -2.502136 36.921413 -7.288471
v 0.000000 38.000000 -9.905066
v -2.502136 36.921413 -7.288471
v -0.330162 69.901505 -0.961730
v -0.652195 69.608452 -1.899778
v -0.958168 69.128052 -2.791048
v -1.240548 68.472137 -3.613592
v -1.492381 67.656853 -4.347158
v -1.707469 66.702286 -4.973683
v -1.880511 65.631927 -5.477739
v -2.007248 64.472137 -5.846915
v -2.084563 63.251476 -6.072121
v -2.110547 62.000000 -6.147811
v 11.413885 58.904354 2.065224
v 11.745791 59.629585 1.429179
v 34.135586 48.668293 2.372446
v 34.516865 49.501411 1.641784
v 35.127243 48.241028 0.930387
v 34.911167 47.768909 1.344448
v 11.981600 57.550770 3.366784
v 11.373695 56.222473 3.033368
v 10.586116 57.095654 2.065224
v -2.128427 38.000000 -6.199895
v -2.904110 13.078587 -8.459386
v -0.000000 69.901505 -1.016824
v -0.000000 69.608452 -2.008610
v -0.000000 69.128052 -2.950938
v -0.000000 68.472137 -3.820603
v -2.566771 12.000000 -7.476748
v -0.000001 66.702286 -5.258609
v -0.000001 65.631927 -5.791541
v -4.733125 36.921413 -6.081119
v -0.000001 63.251476 -6.419973
v -0.000000 62.000000 -6.499999
v 11.000000 58.000004 2.292226
v -4.026206 38.000000 -5.172869
v -32.591801 45.295074 0.585951
v -32.591801 45.295074 -0.585951
v -5.493517 13.078587 -7.058069
v -34.036320 45.857323 -0.332053
v -34.036320 45.857323 0.332053
v -15.920000 0.000000 15.920000
v -15.920000 1.080000 17.000000
v -4.855394 12.000000 -6.238207
v -7.991799 39.071449 7.356970
v -5.021365 62.000000 4.622492
v -5.928098 60.928551 5.457199
v -9.070795 38.000000 3.978821
v -9.947586 39.071449 4.363418
v -6.250214 62.000000 2.741598
v -7.378847 60.928551 3.236661
v -9.871236 38.000000 0.817954
v -10.825395 39.071449 0.897018
v -6.801755 62.000000 0.563609
v -8.029983 60.928551 0.665383
v -9.601975 38.000000 -2.431548
v -10.530108 39.071449 -2.666586
v -6.616222 62.000000 -1.675454
v -7.810946 60.928551 -1.978000
v -8.292190 38.000000 -5.417559
v -9.093719 39.071449 -5.941223
v -5.713717 62.000000 -3.732957
v -6.745472 60.928551 -4.407035
v -6.083817 38.000000 -7.816489
v -6.671884 39.071449 -8.572035
v -4.192042 62.000000 -5.385937
v -4.949020 60.928551 -6.358500
v -3.216170 38.000000 -9.368382
v -3.527048 39.071449 -10.273939
v -2.216096 62.000000 -6.455265
v -2.616267 60.928551 -7.620925
v 34.911163 47.768909 -1.344448
v 34.135586 48.668293 -2.372445
v 11.413884 58.904354 -2.065224
v 12.589502 58.879059 -3.033369
v 35.127243 48.241028 -0.930387
v 34.516865 49.501415 -1.641787
v 11.745791 59.629585 -1.429179
v 13.077005 59.944271 -2.099150
v 35.247147 48.503036 -0.332052
v 34.728462 49.963760 -0.585940
v 11.929986 60.032059 -0.510068
v 13.347549 60.535419 -0.749185
v 35.247147 48.503036 0.332052
v 34.728462 49.963757 0.585940
v 11.929986 60.032059 0.510068
v 13.347549 60.535419 0.749187
v 35.127243 48.241028 0.930387
v 34.516865 49.501411 1.641784
v 11.745791 59.629585 1.429179
v 13.077007 59.944275 2.099152
v 34.911167 47.768909 1.344448
v 34.135586 48.668293 2.372446
v 11.413885 58.904354 2.065224
v 12.589502 58.879059 3.033370
v 34.641731 47.180180 1.492226
v 33.660133 47.629417 2.633215
v 11.000000 58.000004 2.292226
v 11.981600 57.550770 3.366784
v 34.372299 46.591450 1.344448
v 33.184681 46.590534 2.372446
v 10.586116 57.095654 2.065224
v 11.373695 56.222473 3.033368
v 34.156219 46.119331 0.930387
v 32.803398 45.757412 1.641785
v 10.254211 56.370422 1.429179
v 10.886192 55.157261 2.099155
v 34.036316 45.857323 0.332052
v 32.591801 45.295071 0.585950
v 10.070011 55.967945 0.510065
v 10.615650 54.566113 0.749178
v 34.036316 45.857323 -0.332052
v 32.591801 45.295074 -0.585949
v 10.070011 55.967945 -0.510065
v 10.615651 54.566116 -0.749176
v 34.156219 46.119331 -0.930387
v 32.803398 45.757416 -1.641782
v 10.254211 56.370422 -1.429179
v 10.886192 55.157261 -2.099155
v 34.372295 46.591450 -1.344448
v 33.184681 46.590538 -2.372446
v 10.586115 57.095654 -2.065224
v 11.373694 56.222473 -3.033368
v 34.641731 47.180180 -1.492226
v 33.660133 47.629417 -2.633217
v 11.000000 58.000004 -2.292226
v 11.981600 57.550766 -3.366785
v -34.372295 46.591457 -1.344449
v -33.184681 46.590542 -2.372446
v -10.586117 57.095650 -2.065224
v -11.373693 56.222469 -3.033368
v -34.156219 46.119331 -0.930383
v -32.803398 45.757420 -1.641781
v -10.254209 56.370419 -1.429180
v -10.886190 55.157253 -2.099159
v -34.036320 45.857323 -0.332053
v -32.591801 45.295074 -0.585951
v -10.070011 55.967941 -0.510066
v -10.615650 54.566109 -0.749177
v -34.036320 45.857323 0.332053
v -32.591801 45.295074 0.585951
v -10.070012 55.967941 0.510066
v -10.615650 54.566109 0.749177
v -34.156219 46.119335 0.930383
v -32.803402 45.757420 1.641781
v -10.254210 56.370419 1.429180
v -10.886192 55.157257 2.099159
v -34.372295 46.591457 1.344449
v -33.184681 46.590542 2.372445
v -10.586117 57.095650 2.065224
v -11.373693 56.222469 3.033369
v -34.641739 47.180180 1.492226
v -33.660130 47.629421 2.633217
v -10.999999 58.000000 2.292226
v -11.981598 57.550766 3.366784
v -34.911163 47.768913 1.344448
v -34.135582 48.668297 2.372446
v -11.413881 58.904350 2.065224
v -12.589504 58.879063 3.033368
v -35.127243 48.241032 0.930387
v -34.516865 49.501415 1.641784
v -11.745790 59.629581 1.429180
v -13.077003 59.944267 2.099157
v -35.247147 48.503040 0.332052
v -34.728462 49.963764 0.585940
v -11.929987 60.032059 0.510066
v -13.347548 60.535416 0.749184
v -35.247147 48.503040 -0.332052
v -34.728462 49.963764 -0.585940
v -11.929986 60.032059 -0.510066
v -13.347548 60.535416 -0.749184
v -35.127243 48.241032 -0.930387
v -34.516865 49.501419 -1.641786
v -11.745789 59.629581 -1.429180
v -13.077004 59.944271 -2.099160
v -34.911167 47.768913 -1.344448
v -34.135586 48.668297 -2.372446
v -11.413881 58.904350 -2.065224
v -12.589504 58.879063 -3.033368
v -34.641739 47.180180 -1.492226
v -33.660133 47.629421 -2.633214
v -10.999999 58.000000 -2.292226
v -11.981599 57.550762 -3.366783
v 8.670312 13.078587 -2.195621
v 6.250214 62.000000 2.741598
v 4.733126 36.921413 -6.081120
v 2.502136 36.921413 -7.288470
v 0.000000 13.078587 -8.943996
v 2.904111 13.078587 -8.459387
v 2.566771 12.000000 -7.476748
v 0.000000 12.000000 -7.905066
v -0.000000 36.921413 -7.706004
v 0.000000 38.000000 -6.555067
v 2.128427 38.000000 -6.199895
v 7.487614 13.078587 -4.891903
v 5.493517 13.078587 -7.058069
v 6.617857 12.000000 -4.323661
v 4.855394 12.000000 -6.238207
v 13.500000 8.580000 12.420000
v 13.500000 11.420000 12.420000
v 12.420000 11.420000 -13.500000
v -12.420000 11.420000 -13.500000
v 12.420000 8.580000 -13.500000
v 12.420000 8.580000 13.500000
v -12.420000 8.580000 13.500000
v 13.500000 8.580000 -12.420000
v -12.420000 11.420000 13.500000
v 12.420000 11.420000 13.500000
v 13.500000 11.420000 -12.420000
v 5.928097 60.928551 5.457198
v 6.745472 60.928551 -4.407035
v 5.021365 62.000000 4.622492
v 12.420000 7.500000 -12.420000
v -12.420000 7.500000 -12.420000
v -13.500000 8.580000 12.420000
v -13.500000 8.580000 -12.420000
v 17.000000 6.920000 15.920000
v 17.000000 6.920000 -15.920000
v 17.000000 1.080000 15.920000
v -13.500000 11.420000 12.420000
v 15.920000 1.080000 17.000000
v -15.920000 1.080000 17.000000
v -13.500000 11.420000 -12.420000
v -15.920000 6.920000 17.000000
v 15.920000 6.920000 17.000000
v 11.000000 58.000004 -2.292226
v -12.420000 8.580000 -13.500000
v -12.420000 12.500000 -12.420000
v 12.420000 12.500000 -12.420000
v -12.420000 7.500000 12.420000
v 12.420000 7.500000 12.420000
v 12.420000 12.500000 12.420000
v -12.420000 12.500000 12.420000
v 11.981600 57.550766 -3.366785
v 15.920000 0.000000 15.920000
v 15.920000 0.000000 -15.920000
v -17.000000 1.080000 -15.920000
v -17.000000 6.920000 -15.920000
v -17.000000 1.080000 15.920000
v -15.920000 1.080000 -17.000000
v 15.920000 1.080000 -17.000000
v -17.000000 6.920000 15.920000
v 15.920000 6.920000 -17.000000
v -15.920000 6.920000 -17.000000
v -2.216096 62.000000 -6.455265
v -15.920000 0.000000 15.920000
v 15.920000 8.000000 15.920000
v -15.920000 8.000000 15.920000
v -2.616267 60.928551 -7.620925
v 17.000000 1.080000 -15.920000
v 15.920000 8.000000 -15.920000
v -3.216170 38.000000 -9.368382
v -3.527048 39.071449 -10.273939
v -4.192042 62.000000 -5.385937
v -4.949020 60.928551 -6.358500
v -15.920000 0.000000 -15.920000
v -15.920000 8.000000 -15.920000
v -6.083817 38.000000 -7.816489
v -6.671884 39.071449 -8.572035
v -5.713717 62.000000 -3.732957
v -34.911167 47.768913 -1.344448
v -34.135586 48.668297 -2.372446
v -10.070012 55.967941 0.510066
v -10.615650 54.566109 0.749177
v -6.745472 60.928551 -4.407035
v -8.292190 38.000000 -5.417559
v -11.373693 56.222469 -3.033368
v 1.326222 60.928551 7.947609
v 34.036316 45.857323 0.332052
v -5.928098 60.928551 5.457199
v -9.093719 39.071449 -5.941223
v -6.616222 62.000000 -1.675454
v -10.586117 57.095650 -2.065224
v -7.810946 60.928551 -1.978000
v 32.591801 45.295071 0.585950
v 10.615650 54.566113 0.749178
v -9.601975 38.000000 -2.431548
v -10.530108 39.071449 -2.666586
v -6.801755 62.000000 0.563609
v 10.070011 55.967945 0.510065
v -8.029983 60.928551 0.665383
v 11.373694 56.222473 -3.033368
v -4.855394 12.000000 -6.238207
v -9.871236 38.000000 0.817954
v -32.803402 45.757420 1.641781
v -10.825395 39.071449 0.897018
v -6.250214 62.000000 2.741598
v 1.787910 39.071449 10.714348
v -7.378847 60.928551 3.236661
v -9.070795 38.000000 3.978821
v -9.947586 39.071449 4.363418
v -5.021365 62.000000 4.622492
v -7.991799 39.071449 7.356970
v -34.156219 46.119335 0.930383
v -7.287395 38.000000 6.708519
v -3.248371 62.000000 6.002468
v -4.714290 38.000000 8.711246
v 10.586115 57.095654 -2.065224
v -1.123368 62.000000 6.731982
v 1.123368 62.000000 6.731982
v -1.630321 38.000000 9.769975
v 1.630321 38.000000 9.769975
v -2.566771 12.000000 -7.476748
v 3.248372 62.000000 6.002468
v 3.834947 60.928551 7.086361
v 4.714290 38.000000 8.711246
v 5.169977 39.071449 9.553280
v -10.886192 55.157257 2.099159
v -10.254210 56.370419 1.429180
v -33.184681 46.590542 2.372445
v -33.660130 47.629421 2.633217
v -34.641739 47.180180 1.492226
v -34.372295 46.591457 1.344449
v 32.591801 45.295074 -0.585949
v 32.803398 45.757416 -1.641782
v 34.156219 46.119331 -0.930387
v 34.036316 45.857323 -0.332052
v -11.981599 57.550762 -3.366783
v -10.999999 58.000000 -2.292226
v 33.184681 46.590538 -2.372446
v 34.372295 46.591450 -1.344448
v -34.135582 48.668297 2.372446
v -34.516865 49.501415 1.641784
v -35.127243 48.241032 0.930387
v -34.911163 47.768913 1.344448
v -13.077003 59.944267 2.099157
v -12.589504 58.879063 3.033368
v -11.413881 58.904350 2.065224
v -11.745790 59.629581 1.429180
v -11.373693 56.222469 3.033369
v -10.586117 57.095650 2.065224
v -11.981598 57.550766 3.366784
v -10.999999 58.000000 2.292226
v -13.077004 59.944271 -2.099160
v -13.347548 60.535416 -0.749184
v -11.929986 60.032059 -0.510066
v -11.745789 59.629581 -1.429180
v -12.589504 58.879063 -3.033368
v -11.413881 58.904350 -2.065224
v -34.728462 49.963764 -0.585940
v -34.516865 49.501419 -1.641786
v -35.127243 48.241032 -0.930387
v -35.247147 48.503040 -0.332052
v -13.347548 60.535416 0.749184
v -11.929987 60.032059 0.510066
v -34.728462 49.963764 0.585940
v -35.247147 48.503040 0.332052
vn 0.6605 -0.3023 -0.6873
vn 0.5725 0.7297 -0.3740
vn 0.6008 0.7547 0.2636
vn 0.6629 0.7297 -0.1679
vn 0.6982 -0.6937 -0.1768
vn 0.5486 -0.6663 0.5050
vn 0.4200 0.7297 -0.5396
vn 0.4030 0.7547 -0.5178
vn 0.6829 -0.6663 0.2995
vn 0.6815 0.7297 0.0565
vn 0.6262 0.7297 0.2747
vn 0.7178 -0.6937 0.0595
vn 0.6596 -0.6937 0.2893
vn -0.0000 1.0000 -0.0000
vn -0.0000 -1.0000 -0.0000
vn 0.4580 -0.6663 -0.5884
vn 0.1185 -0.6937 0.7104
vn 0.1125 0.7297 0.6745
vn 0.6360 0.7547 -0.1611
vn 0.6539 0.7547 0.0542
vn 0.5031 0.7297 0.4631
vn 0.3255 0.7297 0.6014
vn 0.3428 -0.6937 0.6334
vn 0.5299 -0.6937 0.4878
vn -0.1185 -0.6937 0.7104
vn 0.7431 -0.6663 0.0616
vn -0.3255 0.7297 0.6014
vn -0.1125 0.7297 0.6745
vn -0.5031 0.7297 0.4631
vn -0.6262 0.7297 0.2747
vn -0.0000 0.7547 -0.6561
vn 0.2130 0.7547 -0.6205
vn -0.3539 0.9219 -0.1577
vn -0.3539 0.9219 0.1577
vn -0.5299 -0.6937 0.4878
vn -0.3428 -0.6937 0.6334
vn 0.2421 -0.6663 -0.7053
vn -0.0000 -0.6663 -0.7457
vn 0.5493 0.7547 -0.3589
vn 0.9394 0.3070 0.1529
vn 0.9394 0.3070 -0.1529
vn 0.7229 -0.6663 -0.1830
vn 0.6242 -0.6663 -0.4078
vn -0.6029 -0.6937 -0.3939
vn -0.2339 -0.6937 -0.6812
vn -0.4424 -0.6937 -0.5684
vn -0.5135 0.5732 -0.6385
vn -0.4109 0.7974 -0.4419
vn -0.6629 0.7297 -0.1679
vn -0.6596 -0.6937 0.2893
vn -0.7178 -0.6937 0.0595
vn -0.6982 -0.6937 -0.1768
vn -0.6815 0.7297 0.0565
vn 0.8841 0.1863 -0.4285
vn 0.7846 -0.0311 -0.6192
vn -0.4721 0.1273 0.8723
vn -0.0000 0.6276 -0.7785
vn -0.1633 0.1273 0.9783
vn -0.0000 0.2541 -0.9672
vn -0.8360 0.0519 -0.5462
vn 0.1633 0.1273 0.9783
vn 0.4721 0.1273 0.8723
vn 0.0651 0.9797 -0.1895
vn 0.1229 0.9255 -0.3581
vn 0.1743 0.8438 -0.5076
vn 0.2177 0.7421 -0.6340
vn 0.2528 0.6276 -0.7363
vn 0.2801 0.5060 -0.8158
vn 0.3002 0.3807 -0.8746
vn 0.3140 0.2541 -0.9148
vn 0.3221 0.1271 -0.9382
vn 0.3240 0.0638 -0.9439
vn -0.9681 0.0519 -0.2452
vn -0.9952 0.0519 0.0825
vn 0.7297 0.1273 0.6718
vn 0.1231 0.9797 -0.1581
vn 0.2326 0.9255 -0.2988
vn 0.3297 0.8438 -0.4235
vn 0.4117 0.7421 -0.5290
vn 0.4782 0.6276 -0.6144
vn 0.5298 0.5060 -0.6807
vn 0.5680 0.3807 -0.7297
vn 0.5941 0.2541 -0.7632
vn 0.6092 0.1271 -0.7827
vn 0.6130 0.0638 -0.7875
vn -0.9145 0.0519 0.4012
vn -0.7347 0.0519 0.6764
vn -0.4753 0.0519 0.8783
vn 0.1678 0.9797 -0.1096
vn 0.3170 0.9255 -0.2071
vn 0.4493 0.8438 -0.2936
vn 0.5612 0.7421 -0.3666
vn 0.6517 0.6276 -0.4258
vn 0.7221 0.5060 -0.4718
vn 0.7741 0.3807 -0.5058
vn 0.8097 0.2541 -0.5290
vn 0.8304 0.1271 -0.5425
vn 0.8355 0.0638 -0.5458
vn -0.1644 0.0519 0.9850
vn 0.1644 0.0519 0.9850
vn 0.9083 0.1273 0.3984
vn 0.1943 0.9797 -0.0492
vn 0.3670 0.9255 -0.0929
vn 0.5203 0.8438 -0.1318
vn 0.6498 0.7421 -0.1646
vn 0.7547 0.6276 -0.1911
vn 0.8362 0.5060 -0.2117
vn 0.8964 0.3807 -0.2270
vn 0.9376 0.2541 -0.2374
vn 0.9615 0.1271 -0.2435
vn 0.9674 0.0638 -0.2450
vn 0.4753 0.0519 0.8783
vn 0.7347 0.0519 0.6764
vn 0.1997 0.9797 0.0165
vn 0.3773 0.9256 0.0313
vn 0.5349 0.8438 0.0443
vn 0.6680 0.7421 0.0554
vn 0.7759 0.6276 0.0643
vn 0.8596 0.5060 0.0712
vn 0.9215 0.3807 0.0764
vn 0.9639 0.2541 0.0799
vn 0.9885 0.1271 0.0819
vn 0.9946 0.0638 0.0824
vn 0.9145 0.0519 0.4012
vn 0.9952 0.0519 0.0825
vn 0.9885 0.1273 0.0819
vn 0.1835 0.9797 0.0805
vn 0.3467 0.9255 0.1521
vn 0.4915 0.8438 0.2156
vn 0.6139 0.7421 0.2693
vn 0.7129 0.6276 0.3127
vn 0.7899 0.5060 0.3465
vn 0.8468 0.3807 0.3714
vn 0.8857 0.2541 0.3885
vn 0.9084 0.1271 0.3984
vn 0.9139 0.0638 0.4009
vn 0.9681 0.0519 -0.2452
vn 0.8360 0.0519 -0.5462
vn 0.6134 0.0519 -0.7881
vn 0.1474 0.9797 0.1357
vn 0.2786 0.9255 0.2564
vn 0.3949 0.8438 0.3635
vn 0.4932 0.7421 0.4540
vn 0.5728 0.6276 0.5273
vn 0.6346 0.5060 0.5842
vn 0.6803 0.3807 0.6263
vn 0.7116 0.2541 0.6551
vn 0.7298 0.1271 0.6718
vn 0.7342 0.0638 0.6759
vn 0.3243 0.0519 -0.9445
vn -0.0000 0.0519 -0.9987
vn 0.9615 0.1273 -0.2435
vn 0.0954 0.9797 0.1762
vn 0.1802 0.9255 0.3330
vn 0.2555 0.8438 0.4720
vn 0.3190 0.7421 0.5895
vn 0.3705 0.6276 0.6847
vn 0.4105 0.5060 0.7586
vn 0.4401 0.3807 0.8132
vn 0.4603 0.2541 0.8506
vn 0.4721 0.1271 0.8723
vn 0.4750 0.0638 0.8777
vn -0.0000 -0.0000 -1.0000
vn 1.0000 -0.0000 -0.0000
vn 0.0330 0.9797 0.1976
vn 0.0623 0.9255 0.3735
vn 0.0883 0.8438 0.5294
vn 0.1103 0.7421 0.6612
vn 0.1281 0.6276 0.7679
vn 0.1420 0.5060 0.8508
vn 0.1522 0.3807 0.9121
vn 0.1592 0.2541 0.9540
vn 0.1633 0.1271 0.9784
vn 0.1643 0.0638 0.9844
vn -0.0000 -0.0000 1.0000
vn -1.0000 -0.0000 -0.0000
vn 0.8304 0.1273 -0.5425
vn -0.0330 0.9797 0.1976
vn -0.0623 0.9255 0.3735
vn -0.0883 0.8438 0.5294
vn -0.1103 0.7421 0.6612
vn -0.1281 0.6276 0.7679
vn -0.1420 0.5060 0.8508
vn -0.1522 0.3807 0.9121
vn -0.1592 0.2541 0.9540
vn -0.1633 0.1271 0.9784
vn -0.1643 0.0638 0.9844
vn -0.0954 0.9797 0.1762
vn -0.1802 0.9255 0.3330
vn -0.2555 0.8438 0.4720
vn -0.3190 0.7421 0.5895
vn -0.3705 0.6276 0.6847
vn -0.4105 0.5060 0.7586
vn -0.4401 0.3807 0.8132
vn -0.4603 0.2541 0.8506
vn -0.4721 0.1271 0.8723
vn -0.4750 0.0638 0.8777
vn 0.6092 0.1273 -0.7827
vn -0.1474 0.9797 0.1357
vn -0.2786 0.9255 0.2564
vn -0.3949 0.8438 0.3635
vn -0.4932 0.7421 0.4540
vn -0.5728 0.6276 0.5273
vn -0.6346 0.5060 0.5842
vn -0.6803 0.3807 0.6263
vn -0.7116 0.2541 0.6551
vn -0.7298 0.1271 0.6718
vn -0.7342 0.0638 0.6759
vn -0.1835 0.9797 0.0805
vn -0.3467 0.9255 0.1521
vn -0.4915 0.8438 0.2156
vn -0.6139 0.7421 0.2693
vn -0.7129 0.6276 0.3127
vn -0.7899 0.5060 0.3465
vn -0.8468 0.3807 0.3714
vn -0.8857 0.2541 0.3885
vn -0.9084 0.1271 0.3984
vn -0.9139 0.0638 0.4009
vn 0.8721 -0.2103 -0.4419
vn 0.9290 -0.3347 -0.1577
vn -0.4369 -0.7909 -0.4285
vn 0.3221 0.1273 -0.9381
vn -0.1997 0.9797 0.0165
vn -0.3773 0.9255 0.0313
vn -0.5349 0.8438 0.0443
vn -0.6680 0.7421 0.0554
vn -0.7759 0.6276 0.0643
vn -0.8596 0.5060 0.0712
vn -0.9215 0.3807 0.0764
vn -0.9639 0.2541 0.0799
vn -0.9885 0.1271 0.0819
vn -0.9946 0.0638 0.0824
vn -0.5364 -0.5734 -0.6192
vn -0.6605 -0.3023 -0.6873
vn -0.1080 0.7547 0.6471
vn -0.3123 0.7547 0.5770
vn -0.3549 -0.6663 0.6558
vn -0.1227 -0.6663 0.7355
vn -0.1942 0.9797 -0.0492
vn -0.3670 0.9255 -0.0930
vn -0.5203 0.8438 -0.1318
vn -0.6498 0.7421 -0.1646
vn -0.7547 0.6276 -0.1911
vn -0.8362 0.5060 -0.2117
vn -0.8964 0.3807 -0.2270
vn -0.9376 0.2541 -0.2374
vn -0.9615 0.1271 -0.2435
vn -0.9674 0.0638 -0.2450
vn -0.8721 -0.2103 0.4419
vn -0.9290 -0.3347 -0.1577
vn -0.8721 -0.2103 -0.4419
vn -0.2220 0.7297 -0.6468
vn -0.4200 0.7297 -0.5396
vn 0.4369 -0.7909 0.4285
vn -0.0000 0.1273 -0.9919
vn -0.1678 0.9797 -0.1096
vn -0.3170 0.9255 -0.2071
vn -0.4493 0.8438 -0.2936
vn -0.5612 0.7421 -0.3666
vn -0.6517 0.6276 -0.4258
vn -0.7221 0.5060 -0.4718
vn -0.7741 0.3807 -0.5058
vn -0.8097 0.2541 -0.5290
vn -0.8304 0.1271 -0.5425
vn -0.8355 0.0638 -0.5458
vn -0.5725 0.7297 -0.3740
vn 0.7229 -0.6663 -0.1831
vn 0.5364 -0.5734 0.6192
vn 0.6605 -0.3023 0.6873
vn -0.1231 0.9797 -0.1581
vn -0.2326 0.9255 -0.2988
vn -0.3297 0.8438 -0.4236
vn -0.4117 0.7421 -0.5290
vn -0.4782 0.6276 -0.6144
vn -0.5298 0.5060 -0.6807
vn -0.5680 0.3807 -0.7297
vn -0.5941 0.2541 -0.7632
vn -0.6092 0.1271 -0.7827
vn -0.6130 0.0638 -0.7875
vn -0.4109 0.7974 0.4419
vn -0.5135 0.5732 0.6385
vn -0.3243 0.0519 -0.9445
vn -0.0650 0.9797 -0.1895
vn -0.1229 0.9255 -0.3581
vn -0.1743 0.8438 -0.5076
vn -0.2177 0.7421 -0.6340
vn -0.2528 0.6276 -0.7363
vn -0.2801 0.5060 -0.8158
vn -0.3002 0.3807 -0.8746
vn -0.3140 0.2541 -0.9148
vn -0.3221 0.1271 -0.9382
vn -0.3240 0.0638 -0.9439
vn 0.7846 -0.0311 0.6192
vn 0.8841 0.1863 0.4285
vn -0.6415 0.2936 0.7087
vn -0.7695 0.0140 0.6385
vn -0.0000 0.9797 -0.2004
vn -0.0000 0.9255 -0.3786
vn -0.0000 0.8438 -0.5367
vn -0.0000 0.7421 -0.6703
vn -0.0000 0.5060 -0.8626
vn -0.0000 0.3807 -0.9247
vn -0.6134 0.0519 -0.7881
vn -0.0000 0.1271 -0.9919
vn -0.0000 0.0638 -0.9980
vn -0.3817 -0.9116 0.1529
vn -0.3817 -0.9116 -0.1529
vn -0.7297 0.1273 0.6718
vn -0.9083 0.1273 0.3984
vn -0.9885 0.1273 0.0819
vn -0.9615 0.1273 -0.2435
vn -0.8304 0.1273 -0.5425
vn -0.6092 0.1273 -0.7827
vn -0.3221 0.1273 -0.9381
vn 0.9093 -0.4161 -0.0000
vn 0.2084 0.3815 -0.9005
vn -0.9093 0.4161 -0.0000
vn 0.9093 -0.4162 -0.0000
vn 0.3532 0.6978 -0.6232
vn -0.9093 0.4162 -0.0000
vn 0.4335 0.8733 -0.2224
vn 0.4335 0.8733 0.2224
vn 0.3532 0.6978 0.6232
vn 0.2084 0.3815 0.9005
vn 0.0280 -0.0128 0.9995
vn -0.1525 -0.4071 0.9005
vn -0.2972 -0.7234 0.6232
vn -0.3776 -0.8989 0.2224
vn -0.3776 -0.8989 -0.2224
vn -0.2972 -0.7234 -0.6232
vn -0.1525 -0.4071 -0.9005
vn 0.0280 -0.0128 -0.9995
vn -0.9093 -0.4161 -0.0000
vn 0.1525 -0.4071 -0.9005
vn 0.9093 0.4161 -0.0000
vn -0.9093 -0.4162 -0.0000
vn 0.2972 -0.7234 -0.6232
vn 0.3776 -0.8989 -0.2224
vn 0.3776 -0.8989 0.2224
vn 0.2972 -0.7234 0.6232
vn 0.1525 -0.4071 0.9005
vn -0.0280 -0.0128 0.9995
vn -0.9093 -0.4161 0.0001
vn -0.2084 0.3815 0.9005
vn -0.3532 0.6978 0.6232
vn -0.4335 0.8733 0.2224
vn -0.4335 0.8733 -0.2224
vn -0.3532 0.6978 -0.6232
vn -0.2084 0.3815 -0.9005
vn -0.0280 -0.0128 -0.9995
vn 0.2220 0.7297 -0.6468
vn -0.0000 -0.6937 -0.7202
vn 0.2339 -0.6937 -0.6812
vn -0.0000 0.7297 -0.6838
vn 0.6029 -0.6937 -0.3939
vn 0.4424 -0.6937 -0.5684
vn 0.7588 -0.4606 0.4606
vn 0.7588 0.4606 0.4606
vn 0.4606 0.4606 -0.7588
vn -0.4606 0.4606 -0.7588
vn 0.4606 -0.4606 -0.7588
vn 0.4606 -0.4606 0.7588
vn -0.4606 -0.4606 0.7588
vn 0.7588 -0.4606 -0.4606
vn -0.4606 0.4606 0.7588
vn 0.4606 0.4606 0.7588
vn 0.7588 0.4606 -0.4606
vn 0.4827 0.7547 0.4444
vn 0.4606 -0.7588 -0.4606
vn -0.4606 -0.7588 -0.4606
vn -0.7588 -0.4606 0.4606
vn -0.7588 -0.4606 -0.4606
vn -0.7588 0.4606 0.4606
vn -0.7588 0.4606 -0.4606
vn -0.6415 0.2936 -0.7087
vn -0.4606 -0.4606 -0.7588
vn -0.4606 0.7588 -0.4606
vn 0.4606 0.7588 -0.4606
vn -0.4606 -0.7588 0.4606
vn 0.4606 -0.7588 0.4606
vn 0.4606 0.7588 0.4606
vn -0.4606 0.7588 0.4606
vn -0.2130 0.7547 -0.6205
vn -0.2421 -0.6663 -0.7053
vn -0.4030 0.7547 -0.5178
vn -0.4580 -0.6663 -0.5884
vn -0.5493 0.7547 -0.3589
vn -0.7846 -0.0311 -0.6192
vn 0.9290 -0.3347 0.1577
vn -0.6242 -0.6663 -0.4078
vn 0.7695 0.0140 -0.6385
vn 0.1080 0.7547 0.6471
vn 0.3817 -0.9116 0.1529
vn -0.4827 0.7547 0.4444
vn -0.6360 0.7547 -0.1611
vn -0.9290 -0.3347 0.1577
vn -0.7229 -0.6663 -0.1831
vn -0.6539 0.7547 0.0542
vn -0.7695 0.0140 -0.6385
vn -0.7431 -0.6663 0.0616
vn -0.4369 -0.7909 0.4285
vn -0.6008 0.7547 0.2636
vn 0.1227 -0.6663 0.7355
vn -0.6829 -0.6663 0.2995
vn -0.5486 -0.6663 0.5050
vn 0.3123 0.7547 0.5770
vn 0.3549 -0.6663 0.6558
vn 0.8721 -0.2103 0.4419
vn -0.5364 -0.5734 0.6192
vn -0.6605 -0.3023 0.6873
vn 0.3817 -0.9116 -0.1529
vn 0.4369 -0.7909 -0.4285
vn 0.6415 0.2936 -0.7087
vn 0.5364 -0.5734 -0.6192
vn -0.7846 -0.0311 0.6192
vn -0.8841 0.1863 0.4285
vn 0.4109 0.7974 0.4419
vn 0.5135 0.5732 0.6385
vn 0.7695 0.0140 0.6385
vn 0.6415 0.2936 0.7087
vn 0.4109 0.7974 -0.4419
vn 0.3539 0.9219 -0.1577
vn 0.5135 0.5732 -0.6385
vn -0.9394 0.3070 -0.1529
vn -0.8841 0.1863 -0.4285
vn 0.3539 0.9219 0.1577
vn -0.9394 0.3070 0.1529
vt 0.667377 0.037459
vt 0.596499 -0.025503
vt 0.667377 -0.037459
vt 0.000000 3.382843
vt 0.085373 3.335114
vt -0.000000 3.335114
vt -0.029297 2.498188
vt 0.016603 2.425152
vt 0.029297 2.498188
vt 0.104958 2.757863
vt 0.025503 2.798397
vt 0.037459 2.728305
vt -0.025503 2.798397
vt -0.037459 2.728305
vt -0.000000 0.147547
vt 0.032610 0.094989
vt 0.047908 0.139552
vt -0.082089 2.475070
vt -0.016603 2.425152
vt 1.659234 2.329527
vt 1.732087 2.359009
vt 1.718615 2.329572
vt 0.587290 -0.071459
vt 0.653850 -0.104958
vt -0.082089 2.475071
vt -0.067222 2.388446
vt -0.118622 2.433415
vt 0.062027 0.180680
vt 0.141152 0.181352
vt 0.074619 0.217358
vt 0.131661 2.381471
vt 0.067222 2.388445
vt 0.074611 2.359009
vt -0.629475 0.151668
vt -0.587289 0.071459
vt -0.570694 0.103261
vt -0.000000 3.100000
vt 0.104228 3.162574
vt 0.105527 3.100000
vt 0.074619 3.382843
vt 0.161495 3.335114
vt 0.082089 2.475071
vt 0.118622 2.433415
vt 0.599080 2.877538
vt 0.570694 2.945218
vt 0.550000 2.900000
vt -0.000000 3.281596
vt 0.094026 3.281596
vt 0.100362 3.223607
vt 0.197161 3.162574
vt 0.189849 3.223607
vt 0.000000 3.223607
vt -0.000000 3.162574
vt -0.000000 0.191030
vt 0.117333 0.150750
vt -0.000000 0.100430
vt 0.016508 0.048086
vt 0.090625 0.116435
vt 0.062027 3.423607
vt 0.177862 3.281596
vt 0.061686 0.079254
vt 0.653850 0.104958
vt 0.596499 0.025503
vt -1.683007 2.381471
vt -1.718615 2.329573
vt -1.732087 2.359009
vt -1.629590 0.029298
vt -1.707811 0.046519
vt -1.640170 0.082089
vt -0.000000 0.050841
vt 0.000000 0.000000
vt 0.082089 2.475071
vt 0.016603 2.425152
vt 0.029297 2.498188
vt -0.151668 2.811123
vt -0.114611 2.900000
vt -0.168339 2.877538
vt 0.031227 0.040121
vt 0.570694 0.103261
vt 0.587290 0.071459
vt 0.199619 3.100000
vt 0.046519 2.412051
vt -0.118622 2.433415
vt -0.074611 2.359009
vt -0.067222 2.388445
vt 0.159924 0.104484
vt 0.192389 0.125694
vt -0.130813 0.381046
vt 0.000000 0.341253
vt -0.000000 0.402875
vt -0.333594 0.428602
vt -0.160808 0.468419
vt -0.304191 0.390824
vt 0.228517 3.281596
vt 0.169058 3.223607
vt 0.243918 3.223607
vt 0.151668 2.811123
vt 0.114611 2.900000
vt 0.103261 2.854783
vt 0.297061 1.953573
vt 0.121577 1.900000
vt 0.133329 1.953573
vt 0.042563 0.027808
vt -0.390547 0.098900
vt -0.285686 0.186648
vt -0.337274 0.220352
vt 0.143809 3.335114
vt 0.158384 3.281596
vt -0.209602 0.269297
vt -0.110805 0.322763
vt 0.123521 0.080701
vt -0.414609 0.270878
vt -0.454686 0.297061
vt 0.084077 0.054930
vt 0.181352 3.382843
vt 0.207489 3.335114
vt -0.176352 1.953573
vt 0.000000 1.900000
vt -0.160808 1.900000
vt 0.253313 3.162574
vt 0.177758 3.100000
vt 0.256471 3.100000
vt 0.175570 3.162574
vt -0.247451 0.317925
vt 0.629475 2.943953
vt 0.570694 2.945218
vt -0.044851 1.953573
vt -0.198941 1.900000
vt -0.218171 1.953573
vt 0.097357 0.024654
vt 0.143032 0.036221
vt -0.191747 -0.354318
vt -0.251068 -0.231125
vt -0.296405 -0.272860
vt 0.125694 3.382843
vt 0.064546 3.335114
vt -0.401499 -0.033269
vt -0.312511 -0.137080
vt -0.340088 -0.028180
vt 0.078801 3.162574
vt 0.079783 3.100000
vt -0.497379 -0.218171
vt -0.364370 -0.335426
vt -0.399590 -0.367849
vt -0.330811 0.083773
vt 0.185185 0.046895
vt 0.222778 0.056415
vt -0.040898 1.900000
vt -0.368942 -0.161833
vt 0.075878 3.223607
vt -1.718615 0.067222
vt -1.659234 0.118622
vt -0.066311 -0.397380
vt -0.162419 -0.300123
vt 0.049285 0.012481
vt -0.258499 -0.477664
vt -0.235714 -0.435562
vt 0.071087 3.281596
vt -0.089395 1.953573
vt -0.235714 1.900000
vt -0.081516 1.900000
vt 0.056415 3.382843
vt -0.015775 3.423607
vt -0.018978 3.382843
vt 0.066311 -0.397380
vt -0.056168 -0.336599
vt 0.089395 1.953573
vt 0.235714 1.900000
vt 0.258499 1.953573
vt -0.025525 3.223607
vt 0.071459 2.818521
vt -0.145206 0.653929
vt 0.000000 0.600000
vt -0.128339 0.600000
vt 0.190378 -0.015775
vt 0.050668 -0.004198
vt -0.125107 0.364424
vt 0.000000 0.327753
vt -0.000000 0.385300
vt -0.021713 3.335114
vt -0.023913 3.281596
vt 0.162419 -0.300123
vt 0.056168 -0.336599
vt 0.147043 -0.012184
vt 0.258499 -0.477664
vt 0.364370 -0.335426
vt 0.399590 -0.367848
vt 0.100088 -0.008293
vt 0.081516 1.900000
vt -0.026508 3.162574
vt -0.026838 3.100000
vt 0.191747 -0.354318
vt 0.251068 -0.231125
vt -0.105618 3.335114
vt -0.116322 3.281596
vt -0.236656 0.304056
vt -0.274384 0.179264
vt -0.201310 0.258643
vt 0.135120 -0.059269
vt 0.176352 1.953573
vt 0.000000 1.953573
vt 0.091972 -0.040342
vt 0.133329 1.953573
vt 0.270878 1.900000
vt 0.297061 1.953573
vt -0.128944 3.162574
vt -0.130551 3.100000
vt -0.373510 0.094586
vt -0.322560 0.210739
vt -0.106421 0.309995
vt -0.092314 3.382843
vt -0.145206 0.422969
vt -0.242770 0.311910
vt -0.274676 0.352903
vt -0.374381 0.244595
vt -0.330893 0.216183
vt -0.124161 3.223607
vt 1.629590 0.029297
vt 1.707811 0.046519
vt 1.701816 0.016603
vt 0.337274 0.220352
vt 0.330811 0.083773
vt 0.390547 0.098900
vt 0.174940 -0.076736
vt 0.046559 -0.020423
vt -0.433516 0.109781
vt -0.383159 0.097029
vt -0.217406 3.162574
vt 0.130813 0.381046
vt 0.110805 0.322763
vt -0.383984 -0.031818
vt -0.317724 0.080459
vt 0.210454 -0.092314
vt 0.140545 -0.129381
vt 0.169076 -0.155646
vt -0.036929 0.653929
vt 0.097029 0.600000
vt -0.032640 0.600000
vt -0.352848 -0.154773
vt -0.241136 -0.221981
vt -0.300148 -0.131657
vt -0.196125 3.281596
vt -0.209343 3.223607
vt 0.151668 2.811124
vt 0.168339 2.877538
vt -0.183383 -0.338861
vt -0.283475 -0.260957
vt 0.037405 -0.034434
vt -0.044851 1.953573
vt -0.178078 3.335114
vt -0.158771 0.600000
vt -0.179638 0.653929
vt 0.108554 -0.099931
vt -0.329016 -0.302880
vt -0.361962 -0.158771
vt -0.290797 -0.267698
vt 0.073889 -0.068020
vt -0.326634 -0.027066
vt -0.220116 3.100000
vt 0.024198 -0.044714
vt 0.176352 0.513697
vt 0.304191 0.390824
vt 0.160808 0.468419
vt 0.213049 3.281596
vt 0.125141 3.335114
vt 0.137823 3.281596
vt 0.401499 -0.033269
vt 0.340088 -0.028180
vt 0.070225 -0.129764
vt 0.063418 -0.380045
vt 0.155993 -0.288250
vt 0.053946 -0.323283
vt 0.047800 -0.088326
vt 0.169076 3.382843
vt 0.193444 3.335114
vt -0.212844 -0.393301
vt -0.065057 -0.389863
vt -0.073607 -0.441101
vt 0.236166 3.162574
vt 0.154683 3.100000
vt 0.239110 3.100000
vt 0.227407 3.223607
vt 0.152779 3.162574
vt -0.073607 0.653929
vt 0.065057 0.600000
vt 0.073607 0.653929
vt -0.188120 -0.347615
vt 0.109377 -0.202112
vt -0.063418 -0.380045
vt -0.155993 -0.288250
vt -0.053946 -0.323283
vt 0.147112 3.223607
vt -1.629590 -0.029298
vt -1.707811 -0.046519
vt -1.701816 -0.016603
vt 0.212844 -0.393301
vt 0.065057 -0.389863
vt 0.188120 -0.347615
vt 0.090920 -0.168006
vt -0.040898 1.900000
vt 0.052835 3.162574
vt 0.053493 3.100000
vt 0.329016 -0.302880
vt 0.361962 -0.158771
vt 0.409534 -0.179638
vt 0.283475 -0.260957
vt 0.183383 -0.338861
vt 0.090920 3.423607
vt 0.037825 3.382843
vt 0.109377 3.382843
vt 0.290797 -0.267698
vt 0.209602 0.269297
vt 0.247451 0.317925
vt 0.047663 3.281596
vt 0.050875 3.223607
vt -1.683007 2.381471
vt -1.659234 2.329527
vt 0.312511 -0.137080
vt 0.368942 -0.161833
vt 0.031443 -0.188425
vt 0.008368 -0.050148
vt -0.179638 0.653929
vt -0.032640 0.600000
vt -0.036929 0.653929
vt 0.043277 3.335114
vt 0.352848 -0.154773
vt 0.241136 -0.221981
vt 0.024285 -0.145535
vt 0.383984 -0.031818
vt 0.300148 -0.131657
vt 0.016530 -0.099061
vt 0.125107 0.364423
vt 0.201310 0.258643
vt 0.236656 0.304056
vt -0.031443 -0.188425
vt -0.008368 -0.050148
vt 0.453540 -0.198941
vt 0.497379 -0.218171
vt -0.043277 3.335114
vt -0.047663 3.281596
vt 0.333594 0.428602
vt 0.414609 0.270878
vt -0.024285 -0.145535
vt 0.374381 0.244595
vt 0.242770 0.311910
vt 0.274676 0.352903
vt -0.016530 -0.099061
vt 0.322560 0.210739
vt 0.317724 0.080459
vt 0.373510 0.094586
vt -0.052835 3.162574
vt -0.053493 3.100000
vt 0.274384 0.179264
vt 0.326634 -0.027066
vt 0.031443 3.423607
vt -0.037825 3.382843
vt 0.097029 0.600000
vt 0.109781 0.653929
vt 0.433516 0.109781
vt 0.330893 0.216183
vt -0.050875 3.223607
vt -0.104958 2.757863
vt -0.071459 2.818521
vt -0.047800 -0.088326
vt -0.125141 3.335114
vt 0.106421 0.309995
vt -0.152778 3.162574
vt -0.154683 3.100000
vt -0.621000 -0.621000
vt 0.621000 -0.675000
vt 0.621000 -0.621000
vt 0.285686 0.186648
vt -0.031443 3.423607
vt -0.109377 3.382843
vt 0.128339 0.373837
vt 0.145206 0.422969
vt 0.296405 -0.272860
vt -0.147112 3.223607
vt -1.701816 0.016603
vt 0.675000 0.621000
vt 0.621000 0.621000
vt -0.090920 -0.168006
vt -0.024198 -0.044714
vt -0.675000 0.429000
vt -0.621000 0.571000
vt -0.675000 0.571000
vt -0.137823 3.281596
vt 0.145206 0.653929
vt 0.000000 0.653929
vt -0.070225 -0.129764
vt -0.621000 -0.675000
vt -0.213049 3.281596
vt -0.227407 3.223607
vt -0.151668 2.811124
vt -0.103261 2.854783
vt -0.796000 -0.796000
vt 0.796000 -0.850000
vt 0.796000 -0.796000
vt -0.108554 -0.099931
vt -0.140545 -0.129381
vt -0.037405 -0.034434
vt -0.675000 0.621000
vt -0.621000 0.621000
vt -0.193444 3.335114
vt 0.621000 0.675000
vt -0.621000 0.429000
vt -0.073889 -0.068020
vt -0.621000 0.675000
vt -0.236166 3.162574
vt -0.239110 3.100000
vt -0.675000 -0.621000
vt 0.675000 -0.621000
vt -0.169076 -0.155646
vt -0.109377 -0.202112
vt 0.621000 0.429000
vt 0.675000 0.571000
vt 0.621000 0.571000
vt 0.675000 0.429000
vt -0.091972 -0.040342
vt -0.155646 3.382843
vt -0.105618 3.335114
vt -0.178078 3.335114
vt -0.128944 3.162574
vt -0.130551 3.100000
vt -0.217407 3.162574
vt -0.796000 0.000000
vt -0.796000 0.054000
vt -0.850000 0.054000
vt -0.210454 -0.092313
vt -0.046519 2.412051
vt -0.796000 -0.850000
vt -0.850000 -0.796000
vt -0.135120 -0.059269
vt -0.174940 -0.076736
vt -0.046559 -0.020423
vt 0.850000 0.796000
vt 0.796000 0.796000
vt -0.025525 3.223607
vt 0.570694 -0.103261
vt 0.629475 -0.151668
vt -0.190378 -0.015775
vt -0.050668 -0.004198
vt -0.021713 3.335114
vt -0.023913 3.281596
vt -0.147043 -0.012184
vt -0.850000 0.796000
vt -0.796000 0.796000
vt -0.100087 -0.008293
vt -0.092313 3.382843
vt 0.796000 0.000000
vt 0.796000 0.054000
vt 0.850000 0.054000
vt -0.026508 3.162574
vt -0.026838 3.100000
vt -0.796000 0.850000
vt -0.076736 3.423607
vt -0.018978 3.382843
vt -0.143032 0.036221
vt -0.097357 0.024654
vt 0.064546 3.335114
vt 0.078800 3.162574
vt 0.079783 3.100000
vt 0.046895 3.423607
vt 0.056415 3.382843
vt -0.796000 0.346000
vt -0.850000 0.346000
vt 0.075878 3.223607
vt 1.659234 2.329527
vt 1.683007 2.381471
vt -0.185185 0.046895
vt -0.049285 0.012481
vt 0.071087 3.281596
vt -0.222778 0.056415
vt -0.159924 0.104484
vt -0.192389 0.125694
vt 0.169058 3.223607
vt 1.659234 -0.118622
vt 1.707811 -0.046519
vt 1.718615 -0.067222
vt -0.042563 0.027807
vt 0.143809 3.335114
vt 0.158384 3.281596
vt 0.796000 0.850000
vt -0.123521 0.080700
vt -0.084077 0.054930
vt 0.175570 3.162574
vt -0.061686 0.079254
vt -0.090625 0.116435
vt -0.031227 0.040121
vt 0.125694 3.382843
vt 0.207489 3.335114
vt 0.253313 3.162574
vt 0.256471 3.100000
vt 0.796000 0.346000
vt 0.850000 0.346000
vt -0.117333 0.150750
vt -0.141152 0.181352
vt 0.850000 -0.796000
vt 0.228517 3.281596
vt 0.243918 3.223607
vt 0.037459 2.728306
vt 0.071459 2.818521
vt 0.104958 2.757863
vt -0.062027 0.180680
vt -0.074619 0.217358
vt 0.796000 0.054000
vt -0.189849 3.223607
vt -0.094026 3.281596
vt -0.100362 3.223607
vt -0.071459 2.818521
vt -0.104958 2.757863
vt -0.016508 0.048086
vt -0.177862 3.281596
vt -0.085373 3.335114
vt -0.032610 0.094989
vt -0.047908 0.139552
vt -0.141152 3.382843
vt -0.161495 3.335114
vt -0.199619 3.100000
vt -0.104228 3.162574
vt -0.105527 3.100000
vt -0.197161 3.162574
vt -0.074619 3.382843
vt -0.025503 2.798397
vt 0.025503 2.798397
vt -1.659234 -0.118622
vt -1.640170 -0.082089
vt -0.796000 0.054000
vt -0.850000 0.054000
vt -0.000000 3.423607
vt -0.667377 0.037459
vt -0.653850 0.104958
vt -0.103261 2.854783
vt -0.629475 -0.151668
vt -0.587289 -0.071459
vt -0.653850 -0.104958
vt 0.067222 2.388446
vt 0.046519 2.412052
vt -0.596499 -0.025503
vt -0.596499 0.025503
vt -0.016603 2.425152
vt -0.046519 2.412052
vt -0.131661 2.381471
vt -0.599080 2.877538
vt -0.570694 2.945218
vt -0.629475 2.943953
vt 1.629590 -0.029298
vt 1.701816 -0.016603
vt -0.029297 2.498188
vt -0.667377 -0.037459
vt 1.640170 -0.082089
vt -0.599080 2.877538
vt -0.550000 2.900000
vt 1.659234 0.118622
vt 1.640170 0.082089
vt -0.037459 2.728306
vt 0.103261 2.854783
vt 0.131661 2.381471
vt 0.118622 2.433415
vt 0.393903 -0.032640
vt -0.000000 1.846071
vt -0.125107 1.846071
vt 0.125107 1.846071
vt 0.274676 0.653929
vt 0.352903 0.653929
vt 0.210739 1.846071
vt 0.244595 0.653929
vt -0.031818 1.846071
vt -0.154773 1.846071
vt -0.302880 0.653929
vt 0.283475 1.846071
vt 0.212844 0.653929
vt 0.329016 0.653929
vt 0.183383 1.846071
vt 0.063418 1.846071
vt -0.063418 1.846071
vt -0.212844 0.653929
vt -0.183383 1.846071
vt -0.329016 0.653929
vt -0.260957 1.846071
vt -0.302880 0.653929
vt -0.031818 1.846071
vt 0.109781 0.653929
vt 0.094586 1.846071
vt 0.210739 1.846071
vt -0.274676 0.653929
vt -0.081516 -0.488499
vt -0.000000 3.046427
vt 0.130813 3.046427
vt 0.333594 1.953573
vt 0.317925 3.046427
vt 0.428602 1.953573
vt 0.220352 3.046427
vt 0.098900 3.046427
vt -0.161833 3.046427
vt -0.218171 1.953573
vt -0.272860 3.046427
vt -0.367848 1.953573
vt 0.296405 3.046427
vt 0.399590 1.953573
vt 0.191747 3.046427
vt 0.066311 3.046427
vt -0.066311 3.046427
vt -0.258499 1.953573
vt -0.191747 3.046427
vt -0.399590 1.953573
vt -0.272860 3.046427
vt -0.367849 1.953573
vt -0.161833 3.046427
vt -0.033269 3.046427
vt 0.428602 1.953573
vt -0.247451 3.046427
vt -0.333594 1.953573
vt 0.016603 2.292866
vt 1.725843 2.475071
vt 0.653850 2.997214
vt 0.599080 2.877538
vt -0.071459 2.981479
vt 1.725843 0.082089
vt 1.736423 -0.029297
vt 1.725843 2.475070
vt 0.653850 2.997214
vt 0.568685 2.811124
vt 0.544310 2.757863
vt 0.530783 -0.037459
vt 0.544310 -0.104958
vt 0.530783 0.037459
vt 0.544310 0.104958
vt 0.568685 2.811124
vt -0.046519 2.305967
vt -1.640170 2.287871
vt -0.568685 2.811123
vt -0.544309 2.757863
vt 0.071459 2.981479
vt -0.103261 2.945218
vt -0.530783 0.037459
vt -0.544309 0.104958
vt -0.530783 -0.037459
vt -0.544310 -0.104958
vt -0.544310 2.757863
vt -1.725843 2.475071
vt -0.653850 2.997213
vt -1.736423 -0.029297
vt -1.736423 0.029297
vt -1.725843 0.082089
vt -1.725843 2.475071
vt -0.653850 2.997214
vt 0.141152 3.382843
vt 0.629475 0.151668
vt -0.131661 2.381471
vt -0.176352 0.513697
vt 0.168339 2.877538
vt -0.453540 -0.198941
vt 0.046895 3.423607
vt 0.235714 -0.435562
vt 0.160808 1.900000
vt -0.076736 3.423607
vt -0.128339 0.373837
vt -0.409534 -0.179638
vt -0.155646 3.382843
vt -0.065057 0.600000
vt 0.073607 -0.441101
vt 0.454686 0.297061
vt 0.383159 0.097029
vt -0.090920 3.423607
vt 0.128339 0.600000
vt -0.168339 2.877538
vt -0.169076 3.382843
vt -0.015775 3.423607
vt 1.718615 2.329572
vt 0.850000 0.054000
vt -1.718615 -0.067222
vt -0.062027 3.423607
vt -0.570694 -0.103261
vt 1.718615 0.067222
vt 0.000000 0.395253
vt -0.393903 -0.032640
vt 0.236656 1.846071
vt 0.304056 1.846071
vt 0.094586 1.846071
vt -0.283475 1.846071
vt 0.304056 1.846071
vt -0.236656 1.846071
vt -0.493562 -0.040898
vt -0.480099 0.121577
vt 0.000000 0.495253
vt 0.480099 0.121577
vt 0.493562 -0.040898
vt 0.081516 -0.488499
vt -0.130813 3.046427
vt 0.247451 3.046427
vt -0.296405 3.046427
vt 0.098900 3.046427
vt 0.067222 2.329572
vt -0.067222 2.329572
vt -0.046519 2.305967
vt -0.016603 2.292866
vt 0.046519 2.305967
vt 1.706779 2.433415
vt 0.025503 3.001603
vt 0.071459 2.981479
vt 0.103261 2.945218
vt -0.103261 2.945218
vt -0.025503 3.001603
vt 1.736423 0.029297
vt 1.725843 -0.082089
vt 1.640170 2.287871
vt 1.640170 2.287871
vt 0.067222 2.329573
vt 0.046519 2.305967
vt 0.016603 2.292866
vt -0.016603 2.292866
vt -0.067222 2.329573
vt 0.103261 2.945218
vt 0.025503 3.001603
vt -0.025503 3.001603
vt -0.071459 2.981479
vt -1.640170 2.287871
vt -1.706779 2.433415
vt -1.725843 -0.082089
vt -1.706779 2.433415
s 1
f 51/1/33 61/2/34 52/3/34
f 98/4/57 120/5/68 498/6/301
f 67/7/40 74/8/41 68/9/41
f 381/10/219 383/11/220 382/12/220
f 382/12/220 731/13/389 732/14/389
f 495/15/299 116/16/64 117/17/65
f 485/18/294 75/19/40 67/7/40
f 788/20/414 6/21/1 789/22/414
f 52/3/34 483/23/280 466/24/280
f 791/25/416 793/26/415 790/27/415
f 118/28/66 140/29/80 119/30/67
f 1/31/1 94/32/55 6/33/1
f 806/34/423 805/35/421 807/36/423
f 502/37/305 123/38/71 124/39/72
f 119/40/67 141/41/81 120/5/68
f 92/42/54 94/32/55 93/43/55
f 488/44/295 482/45/281 503/46/295
f 499/47/302 120/5/68 121/48/69
f 122/49/70 144/50/84 123/38/71
f 121/48/69 143/51/83 122/49/70
f 101/52/59 123/38/71 501/53/304
f 496/54/300 117/17/65 118/28/66
f 117/17/65 139/55/79 118/28/66
f 494/56/298 115/57/63 116/16/64
f 116/16/64 138/58/78 117/17/65
f 98/4/57 118/59/66 119/40/67
f 121/48/69 141/41/81 142/60/82
f 101/52/59 121/48/69 122/49/70
f 115/57/63 137/61/77 116/16/64
f 77/62/48 62/63/33 51/1/33
f 400/64/234 402/65/233 401/66/234
f 506/67/307 398/68/221 385/69/221
f 493/70/297 17/71/14 115/57/63
f 809/72/425 811/73/424 808/74/424
f 798/75/419 801/76/420 800/77/420
f 115/57/63 17/71/14 136/78/76
f 77/62/48 91/79/47 90/80/48
f 123/38/71 145/81/85 124/39/72
f 92/42/54 74/8/41 380/82/54
f 484/83/293 463/84/269 487/85/293
f 140/29/80 160/86/92 161/87/93
f 717/88/383 86/89/31 49/90/31
f 727/91/386 720/92/384 726/93/386
f 142/94/82 164/95/96 143/96/83
f 735/97/391 787/98/413 741/99/391
f 739/100/390 745/101/397 746/102/397
f 138/58/78 160/86/92 139/55/79
f 136/78/76 17/71/14 157/103/89
f 742/104/395 728/105/387 733/106/387
f 142/94/82 162/107/94 163/108/95
f 717/88/383 722/109/385 713/110/383
f 137/61/77 159/111/91 138/58/78
f 727/91/386 734/112/390 739/113/390
f 136/78/76 158/114/90 137/61/77
f 140/115/80 162/107/94 141/116/81
f 721/117/384 445/118/38 720/119/384
f 144/120/84 166/121/98 145/122/85
f 143/96/83 165/123/97 144/120/84
f 723/124/385 728/105/387 722/109/385
f 76/125/47 694/46/375 91/126/47
f 754/127/400 758/128/404 759/129/404
f 159/111/91 179/130/103 180/131/104
f 404/132/236 760/133/394 738/134/394
f 157/103/89 179/130/103 158/114/90
f 161/135/93 183/136/107 162/107/94
f 749/137/398 755/138/402 747/139/398
f 166/121/98 186/140/110 187/141/111
f 164/95/96 186/140/110 165/123/97
f 759/142/404 763/143/405 761/144/405
f 749/137/398 740/145/395 742/104/395
f 161/87/93 181/146/105 182/147/106
f 754/127/400 745/101/397 752/148/400
f 738/134/394 755/138/402 757/149/402
f 163/108/95 185/150/109 164/95/96
f 385/69/221 402/151/233 399/152/233
f 403/153/235 764/154/236 404/132/236
f 160/86/92 180/131/104 181/146/105
f 157/103/89 17/71/14 178/155/102
f 405/156/237 763/143/405 765/157/237
f 163/108/95 183/136/107 184/158/108
f 406/159/238 765/160/237 769/161/238
f 182/162/106 202/163/117 203/164/118
f 736/165/392 767/166/235 403/153/235
f 756/167/403 774/168/407 775/169/407
f 184/158/108 206/170/121 185/150/109
f 735/97/391 384/171/219 381/10/219
f 72/172/45 659/173/352 771/174/45
f 180/131/104 202/175/117 181/146/105
f 178/155/102 17/71/14 199/176/114
f 469/177/252 661/178/354 660/179/354
f 184/158/108 204/180/119 205/181/120
f 736/165/392 772/182/406 768/183/392
f 179/130/103 201/184/116 180/131/104
f 775/185/407 7/186/6 8/187/6
f 179/130/103 199/176/114 200/188/115
f 182/162/106 204/180/119 183/136/107
f 406/159/238 770/189/403 756/167/403
f 187/141/111 207/190/122 208/191/123
f 185/150/109 207/190/122 186/140/110
f 773/192/406 680/193/368 772/182/406
f 205/181/120 225/194/132 226/195/133
f 468/196/253 440/197/266 424/198/253
f 200/188/115 222/199/129 201/184/116
f 63/200/37 445/118/38 64/201/38
f 199/176/114 221/202/128 200/188/115
f 203/164/118 225/194/132 204/180/119
f 69/203/42 442/204/43 70/205/43
f 208/191/123 228/206/135 229/207/136
f 206/170/121 228/206/135 207/190/122
f 78/208/49 440/197/266 465/209/266
f 469/177/252 424/198/253 423/210/252
f 202/163/117 224/211/131 203/164/118
f 72/212/45 751/213/46 73/214/46
f 71/215/44 751/213/46 462/216/44
f 205/181/120 227/217/134 206/170/121
f 782/218/411 784/219/412 785/220/411
f 679/221/39 65/222/19 26/223/19
f 201/184/116 223/224/130 202/175/117
f 199/176/114 17/71/14 220/225/127
f 82/226/52 462/216/44 461/227/52
f 227/217/134 249/228/148 228/206/135
f 50/229/32 86/89/31 85/230/32
f 88/231/53 441/232/49 78/208/49
f 224/233/131 244/234/143 245/235/144
f 83/236/51 461/237/52 80/238/51
f 87/239/30 47/240/29 48/241/30
f 227/217/134 247/242/146 248/243/147
f 750/244/399 694/98/375 702/245/375
f 59/246/27 47/240/29 84/247/29
f 222/199/129 244/234/143 223/224/130
f 220/225/127 17/71/14 241/248/140
f 38/249/26 443/101/267 69/203/42
f 226/195/133 246/250/145 247/242/146
f 83/236/51 79/251/50 81/252/50
f 221/202/128 243/253/142 222/199/129
f 54/254/35 79/255/50 60/256/35
f 220/225/127 242/257/141 221/202/128
f 224/211/131 246/250/145 225/194/132
f 87/239/30 89/258/53 88/231/53
f 228/206/135 250/259/149 229/207/136
f 241/248/140 17/71/14 262/260/153
f 63/261/37 23/262/16 446/263/37
f 247/264/146 267/265/158 268/266/159
f 27/267/20 65/222/19 46/268/20
f 242/257/141 264/269/155 243/253/142
f 25/270/18 40/271/22 42/272/18
f 241/248/140 263/273/154 242/257/141
f 245/274/144 267/265/158 246/275/145
f 55/276/36 57/277/25 37/278/25
f 249/279/148 271/280/162 250/281/149
f 248/282/147 270/283/161 249/279/148
f 37/284/25 45/285/17 24/286/17
f 55/276/36 60/256/35 58/287/36
f 244/234/143 266/288/157 245/235/144
f 56/289/28 39/290/27 59/246/27
f 25/270/18 41/291/28 56/289/28
f 248/282/147 268/266/159 269/292/160
f 505/293/306 762/294/401 509/295/306
f 31/296/23 45/297/17 44/298/23
f 244/234/143 264/269/155 265/299/156
f 38/249/26 12/128/9 53/300/26
f 271/280/162 291/301/173 292/302/174
f 269/292/160 291/301/173 270/283/161
f 32/303/24 33/304/13 16/305/13
f 28/306/21 40/271/22 29/307/22
f 265/308/156 287/309/169 266/310/157
f 31/296/23 34/311/24 32/303/24
f 50/229/32 10/312/8 11/313/8
f 269/292/160 289/314/171 290/315/172
f 779/316/410 781/65/409 778/317/409
f 27/267/20 653/318/3 3/319/3
f 264/269/155 286/320/168 265/299/156
f 262/260/153 17/71/14 283/321/165
f 16/322/13 15/323/12 19/324/12
f 268/266/159 288/325/170 289/314/171
f 14/326/11 36/327/21 28/306/21
f 263/273/154 285/328/167 264/269/155
f 13/329/10 30/330/11 14/326/11
f 262/260/153 284/331/166 263/273/154
f 266/310/157 288/325/170 267/265/158
f 655/332/351 9/333/7 654/334/7
f 285/328/167 307/335/181 286/320/168
f 283/321/165 17/71/14 304/336/178
f 8/187/6 12/337/9 35/338/9
f 289/314/171 309/339/183 310/340/184
f 43/341/16 442/342/43 23/262/16
f 284/331/166 306/343/180 285/328/167
f 663/344/355 666/345/356 664/346/356
f 284/331/166 304/336/178 305/347/179
f 287/309/169 309/339/183 288/325/170
f 2/348/2 20/349/4 4/350/4
f 292/302/174 312/351/186 313/352/187
f 290/315/172 312/351/186 291/301/173
f 2/348/2 9/333/7 21/353/2
f 13/329/10 20/349/4 22/354/10
f 286/355/168 308/356/182 287/309/169
f 19/324/12 5/357/5 652/358/5
f 652/359/5 665/360/355 663/344/355
f 290/315/172 310/340/184 311/361/185
f 776/362/408 731/13/389 777/363/408
f 304/336/178 326/364/189 305/347/179
f 308/356/182 330/365/193 309/339/183
f 660/179/354 662/366/351 655/332/351
f 313/352/187 333/367/196 334/368/197
f 311/361/185 333/367/196 312/351/186
f 701/369/382 676/370/366 700/371/381
f 11/313/8 66/372/39 679/221/39
f 307/373/181 329/374/192 308/356/182
f 664/346/356 658/375/353 657/376/353
f 678/377/368 653/318/3 680/193/368
f 310/340/184 332/378/195 311/361/185
f 506/67/307 509/295/306 508/379/307
f 700/371/381 677/380/367 697/381/378
f 306/343/180 328/382/191 307/335/181
f 304/336/178 17/71/14 325/383/188
f 672/384/362 668/385/358 676/386/366
f 310/340/184 330/365/193 331/387/194
f 657/388/353 659/173/352 656/389/352
f 305/347/179 327/390/190 306/343/180
f 699/371/380 673/391/363 698/369/379
f 332/378/195 352/392/205 353/393/206
f 489/394/296 503/76/295 490/395/296
f 716/396/382 693/397/366 715/398/381
f 328/382/191 348/399/201 349/400/202
f 325/383/188 17/71/14 346/401/199
f 698/369/379 684/402/372 682/403/370
f 331/387/194 351/404/204 352/392/205
f 682/403/370 671/405/361 681/381/369
f 326/364/189 348/399/201 327/390/190
f 675/386/365 683/406/371 673/384/363
f 325/383/188 347/407/200 326/364/189
f 329/374/192 351/404/204 330/365/193
f 697/381/378 670/408/360 696/403/377
f 334/368/197 354/409/207 355/410/208
f 332/378/195 354/409/207 333/367/196
f 696/403/377 688/411/373 701/369/382
f 681/381/369 667/412/357 699/371/380
f 328/382/191 350/413/203 329/414/192
f 674/415/364 669/416/359 677/417/367
f 695/418/376 691/417/374 670/416/360
f 346/401/199 368/419/210 347/407/200
f 350/420/203 372/421/214 351/422/204
f 700/371/381 676/370/366 668/412/358
f 355/259/208 375/423/217 376/424/218
f 353/243/206 375/423/217 354/425/207
f 714/426/379 690/427/363 707/428/371
f 349/400/202 371/429/213 350/413/203
f 353/243/206 373/195/215 374/217/216
f 485/18/294 487/85/293 486/430/294
f 692/431/365 716/396/382 710/432/373
f 349/400/202 369/433/211 370/434/212
f 346/401/199 17/71/14 367/435/209
f 352/242/205 372/421/214 373/195/215
f 715/398/381 686/436/367 719/437/378
f 347/407/200 369/433/211 348/399/201
f 373/195/215 395/438/230 374/217/216
f 466/24/280 482/439/281 467/440/281
f 369/433/211 391/441/226 370/434/212
f 367/435/209 17/71/14 388/442/223
f 373/195/215 393/443/228 394/444/229
f 697/381/378 677/380/367 669/405/359
f 368/419/210 390/445/225 369/433/211
f 714/396/379 705/446/372 724/447/370
f 367/435/209 389/448/224 368/419/210
f 371/449/213 393/443/228 372/421/214
f 724/450/370 705/451/372 708/452/376
f 376/424/218 396/453/231 397/454/232
f 374/217/216 396/453/231 375/423/217
f 725/447/377 712/455/360 706/446/374
f 681/381/369 671/405/361 674/380/364
f 370/456/212 392/457/227 371/449/213
f 389/448/224 411/458/241 390/445/225
f 388/442/223 410/459/240 389/448/224
f 392/457/227 414/460/244 393/443/228
f 397/454/232 417/461/247 418/462/248
f 395/438/230 417/461/247 396/453/231
f 392/457/227 412/463/242 413/464/243
f 689/428/362 685/465/358 693/466/366
f 394/444/229 416/467/246 395/438/230
f 447/468/268 463/21/269 448/469/269
f 390/445/225 412/470/242 391/441/226
f 388/442/223 17/71/14 409/471/239
f 699/371/380 667/412/357 672/370/362
f 394/444/229 414/460/244 415/472/245
f 413/473/243 433/474/259 434/475/260
f 703/398/380 690/431/363 714/396/379
f 415/472/245 437/476/263 416/467/246
f 447/477/268 444/478/254 464/479/268
f 411/458/241 433/474/259 412/470/242
f 409/471/239 17/71/14 430/480/256
f 696/403/377 670/408/360 691/402/374
f 415/472/245 435/481/261 436/482/262
f 719/437/378 686/436/367 711/483/359
f 410/459/240 432/484/258 411/458/241
f 409/471/239 431/485/257 410/459/240
f 413/464/243 435/481/261 414/460/244
f 418/462/248 438/486/264 439/121/265
f 416/467/246 438/486/264 417/461/247
f 724/447/370 709/483/361 704/437/369
f 704/450/369 709/451/361 718/452/364
f 432/484/258 452/487/271 453/488/272
f 431/485/257 451/489/270 452/487/271
f 434/490/260 456/491/275 435/481/261
f 439/121/265 459/492/278 460/493/279
f 437/476/263 459/492/278 438/486/264
f 708/452/376 706/494/374 712/495/360
f 434/475/260 454/496/273 455/497/274
f 704/437/369 687/498/357 703/398/380
f 437/476/263 457/499/276 458/500/277
f 421/501/250 425/502/251 422/503/251
f 432/484/258 454/496/273 433/474/259
f 430/480/256 17/71/14 451/489/270
f 682/403/370 684/402/372 695/408/376
f 436/482/262 456/491/275 457/499/276
f 725/447/377 710/432/373 716/396/382
f 455/497/274 475/504/286 476/505/287
f 718/506/364 711/495/359 686/494/367
f 458/507/277 478/508/289 479/509/290
f 489/394/296 420/510/249 419/511/249
f 453/488/272 475/504/286 454/496/273
f 451/489/270 17/71/14 472/512/283
f 675/391/365 701/369/382 688/411/373
f 457/513/276 477/514/288 478/508/289
f 715/398/381 693/397/366 685/498/358
f 453/488/272 473/515/284 474/516/285
f 451/489/270 473/515/284 452/487/271
f 455/517/274 477/514/288 456/518/275
f 460/519/279 480/520/291 481/521/292
f 458/507/277 480/520/291 459/522/278
f 703/426/380 687/427/357 689/428/362
f 477/514/288 499/47/302 478/508/289
f 698/369/379 673/391/363 683/411/371
f 474/516/285 494/56/298 495/15/299
f 472/512/283 494/56/298 473/515/284
f 476/523/287 498/6/301 477/514/288
f 421/501/250 748/524/396 426/525/250
f 481/521/292 501/53/304 502/37/305
f 479/509/290 501/53/304 480/520/291
f 778/526/409 762/294/401 753/527/401
f 692/466/365 707/528/371 690/529/363
f 476/523/287 496/530/300 98/4/57
f 803/531/422 805/35/421 802/532/421
f 776/362/408 799/533/419 798/75/419
f 479/509/290 499/47/302 101/52/59
f 795/534/418 797/535/417 794/536/417
f 719/437/378 712/455/360 725/447/377
f 474/516/285 496/54/300 475/504/286
f 472/512/283 17/71/14 493/70/297
f 809/72/425 729/537/388 810/538/425
f 803/531/422 813/539/426 804/540/422
f 791/25/416 815/541/427 792/542/416
f 779/543/410 793/26/415 780/84/410
f 800/544/420 796/545/418 795/546/418
f 743/547/393 785/220/411 737/548/393
f 808/74/424 815/541/427 814/549/427
f 812/550/426 797/535/417 813/539/426
f 743/547/393 444/478/254 427/551/254
f 786/552/413 807/545/423 787/553/413
f 788/554/414 784/219/412 783/555/412
f 419/511/249 748/524/396 744/556/396
f 750/244/399 425/502/251 766/557/399
f 400/558/234 729/537/388 730/559/388
f 339/437/15 510/396/15 363/447/15
f 364/465/176 362/451/176 379/528/176
f 341/494/175 511/427/175 343/506/175
f 360/447/14 342/398/14 336/437/14
f 359/465/163 338/451/163 361/528/163
f 335/494/164 356/427/164 337/506/164
f 279/381/15 321/369/15 315/403/15
f 316/385/176 314/415/176 319/406/176
f 293/417/175 320/406/175 295/415/175
f 300/403/14 294/371/14 276/381/14
f 299/385/163 278/415/163 301/406/163
f 275/417/164 296/406/164 277/415/164
f 217/560/15 149/255/15 512/213/15
f 258/561/151 256/388/150 272/389/151
f 471/562/282 272/389/151 492/172/282
f 127/232/14 195/327/14 235/353/14
f 254/563/150 252/564/139 256/388/150
f 252/565/139 234/566/138 236/567/138
f 234/566/138 232/358/137 236/567/138
f 232/358/137 214/568/125 216/324/125
f 214/568/125 212/322/124 216/324/125
f 210/569/124 196/570/113 212/322/124
f 194/571/113 192/572/112 196/573/113
f 190/574/112 188/286/100 192/572/112
f 174/575/100 172/284/99 188/286/100
f 170/576/99 168/577/88 172/284/99
f 154/578/88 152/579/87 168/577/88
f 150/580/87 148/252/86 152/581/87
f 146/569/86 132/236/74 148/252/86
f 130/582/74 128/583/73 132/236/74
f 126/584/73 113/567/60 128/583/73
f 105/585/60 507/565/303 113/567/60
f 507/586/303 471/562/282 492/172/282
f 532/93/15 218/337/15 104/587/15
f 429/588/255 408/200/222 450/201/255
f 537/117/314 429/588/255 450/201/255
f 407/230/14 514/133/14 112/182/14
f 387/589/222 366/590/198 408/200/222
f 345/591/198 324/205/177 366/592/198
f 303/593/177 282/203/152 324/205/177
f 261/594/152 240/249/126 282/203/152
f 240/249/126 177/595/101 198/596/101
f 198/596/101 135/597/75 156/598/75
f 135/599/75 114/169/62 156/600/75
f 111/601/62 109/167/61 114/169/62
f 106/602/61 103/159/58 109/167/61
f 100/603/58 97/604/56 103/159/58
f 95/605/56 513/606/308 97/604/56
f 515/607/308 517/129/309 513/608/308
f 519/609/309 521/127/310 517/129/309
f 523/610/310 525/102/311 521/127/310
f 525/102/311 531/593/312 529/100/312
f 531/593/312 533/611/313 529/100/312
f 535/612/313 537/117/314 533/613/313
f 548/8/315 564/84/315 580/614/318
f 545/615/319 543/125/316 547/616/319
f 543/125/316 593/469/332 595/617/332
f 590/557/317 574/510/317 558/618/317
f 551/1/321 545/619/319 547/62/319
f 553/620/322 551/1/321 555/3/322
f 559/24/323 553/620/322 555/3/322
f 563/125/324 557/621/323 559/622/323
f 565/469/325 563/125/324 567/44/325
f 569/468/326 567/44/325 571/623/326
f 575/624/327 569/468/326 571/623/326
f 579/625/328 573/551/327 575/626/327
f 581/218/329 579/625/328 583/627/329
f 587/628/330 581/218/329 583/627/329
f 589/20/331 587/624/330 591/629/331
f 593/469/332 591/629/331 595/617/332
f 612/630/333 628/542/333 644/537/333
f 601/631/337 599/632/334 603/633/337
f 597/317/334 651/552/350 599/632/334
f 642/634/335 626/635/335 610/13/335
f 607/636/338 601/69/337 603/637/337
f 609/293/339 607/636/338 611/638/339
f 615/639/340 609/293/339 611/638/339
f 617/317/341 615/640/340 619/632/341
f 621/316/342 619/632/341 623/544/342
f 627/546/344 621/316/342 623/544/342
f 629/641/345 627/546/344 631/642/345
f 633/643/346 631/536/345 635/550/346
f 637/644/347 635/550/346 639/531/347
f 641/645/348 639/531/347 643/532/348
f 647/546/349 641/646/348 643/647/348
f 649/64/350 647/546/349 651/552/350
f 51/1/33 62/63/33 61/2/34
f 98/4/57 119/40/67 120/5/68
f 67/7/40 75/19/40 74/8/41
f 381/10/219 384/171/219 383/11/220
f 382/12/220 383/11/220 731/13/389
f 495/15/299 494/56/298 116/16/64
f 485/18/294 486/430/294 75/19/40
f 788/20/414 1/469/1 6/21/1
f 52/3/34 61/2/34 483/23/280
f 791/25/416 792/542/416 793/26/415
f 118/28/66 139/55/79 140/29/80
f 1/31/1 93/43/55 94/32/55
f 806/34/423 802/532/421 805/35/421
f 502/37/305 501/53/304 123/38/71
f 119/40/67 140/648/80 141/41/81
f 92/42/54 380/82/54 94/32/55
f 488/44/295 467/125/281 482/45/281
f 499/47/302 498/6/301 120/5/68
f 122/49/70 143/51/83 144/50/84
f 121/48/69 142/60/82 143/51/83
f 101/52/59 122/49/70 123/38/71
f 496/54/300 495/15/299 117/17/65
f 117/17/65 138/58/78 139/55/79
f 494/56/298 493/70/297 115/57/63
f 116/16/64 137/61/77 138/58/78
f 98/4/57 496/530/300 118/59/66
f 121/48/69 120/5/68 141/41/81
f 101/52/59 499/47/302 121/48/69
f 115/57/63 136/78/76 137/61/77
f 77/62/48 90/80/48 62/63/33
f 400/64/234 399/317/233 402/65/233
f 506/67/307 508/379/307 398/68/221
f 809/72/425 810/538/425 811/73/424
f 798/75/419 799/533/419 801/76/420
f 77/62/48 76/649/47 91/79/47
f 123/38/71 144/50/84 145/81/85
f 92/42/54 68/9/41 74/8/41
f 484/83/293 448/650/269 463/84/269
f 140/29/80 139/55/79 160/86/92
f 717/88/383 713/110/383 86/89/31
f 727/91/386 721/651/384 720/92/384
f 142/94/82 163/108/95 164/95/96
f 735/97/391 786/652/413 787/98/413
f 739/100/390 734/204/390 745/101/397
f 138/58/78 159/111/91 160/86/92
f 742/104/395 740/145/395 728/105/387
f 142/94/82 141/116/81 162/107/94
f 717/88/383 723/124/385 722/109/385
f 137/61/77 158/114/90 159/111/91
f 727/91/386 726/93/386 734/112/390
f 136/78/76 157/103/89 158/114/90
f 140/115/80 161/135/93 162/107/94
f 721/117/384 64/201/38 445/118/38
f 144/120/84 165/123/97 166/121/98
f 143/96/83 164/95/96 165/123/97
f 723/124/385 733/106/387 728/105/387
f 76/125/47 702/617/375 694/46/375
f 754/127/400 752/148/400 758/128/404
f 159/111/91 158/114/90 179/130/103
f 404/132/236 764/154/236 760/133/394
f 157/103/89 178/155/102 179/130/103
f 161/135/93 182/162/106 183/136/107
f 749/137/398 757/149/402 755/138/402
f 166/121/98 165/123/97 186/140/110
f 164/95/96 185/150/109 186/140/110
f 759/142/404 758/653/404 763/143/405
f 749/137/398 747/139/398 740/145/395
f 161/87/93 160/86/92 181/146/105
f 754/127/400 746/102/397 745/101/397
f 738/134/394 760/133/394 755/138/402
f 163/108/95 184/158/108 185/150/109
f 385/69/221 398/68/221 402/151/233
f 403/153/235 767/166/235 764/154/236
f 160/86/92 159/111/91 180/131/104
f 405/156/237 761/144/405 763/143/405
f 163/108/95 162/107/94 183/136/107
f 406/159/238 405/604/237 765/160/237
f 182/162/106 181/654/105 202/163/117
f 736/165/392 768/183/392 767/166/235
f 756/167/403 770/189/403 774/168/407
f 184/158/108 205/181/120 206/170/121
f 735/97/391 741/99/391 384/171/219
f 72/172/45 656/389/352 659/173/352
f 180/131/104 201/184/116 202/175/117
f 469/177/252 423/210/252 661/178/354
f 184/158/108 183/136/107 204/180/119
f 736/165/392 773/192/406 772/182/406
f 179/130/103 200/188/115 201/184/116
f 775/185/407 774/655/407 7/186/6
f 179/130/103 178/155/102 199/176/114
f 182/162/106 203/164/118 204/180/119
f 406/159/238 769/161/238 770/189/403
f 187/141/111 186/140/110 207/190/122
f 185/150/109 206/170/121 207/190/122
f 773/192/406 678/377/368 680/193/368
f 205/181/120 204/180/119 225/194/132
f 468/196/253 465/209/266 440/197/266
f 200/188/115 221/202/128 222/199/129
f 63/200/37 446/656/37 445/118/38
f 199/176/114 220/225/127 221/202/128
f 203/164/118 224/211/131 225/194/132
f 69/203/42 443/101/267 442/204/43
f 208/191/123 207/190/122 228/206/135
f 206/170/121 227/217/134 228/206/135
f 78/208/49 441/232/49 440/197/266
f 469/177/252 468/196/253 424/198/253
f 202/163/117 223/657/130 224/211/131
f 72/212/45 771/658/45 751/213/46
f 71/215/44 73/214/46 751/213/46
f 205/181/120 226/195/133 227/217/134
f 782/218/411 783/555/412 784/219/412
f 679/221/39 66/372/39 65/222/19
f 201/184/116 222/199/129 223/224/130
f 82/226/52 71/215/44 462/216/44
f 227/217/134 248/243/147 249/228/148
f 50/229/32 49/90/31 86/89/31
f 88/231/53 89/258/53 441/232/49
f 224/233/131 223/224/130 244/234/143
f 83/236/51 82/583/52 461/237/52
f 87/239/30 84/247/29 47/240/29
f 227/217/134 226/195/133 247/242/146
f 750/244/399 766/557/399 694/98/375
f 59/246/27 39/290/27 47/240/29
f 222/199/129 243/253/142 244/234/143
f 38/249/26 53/300/26 443/101/267
f 226/195/133 225/194/132 246/250/145
f 83/236/51 80/238/51 79/251/50
f 221/202/128 242/257/141 243/253/142
f 54/254/35 81/659/50 79/255/50
f 220/225/127 241/248/140 242/257/141
f 224/211/131 245/660/144 246/250/145
f 87/239/30 48/241/30 89/258/53
f 228/206/135 249/228/148 250/259/149
f 63/261/37 43/341/16 23/262/16
f 247/264/146 246/275/145 267/265/158
f 27/267/20 26/223/19 65/222/19
f 242/257/141 263/273/154 264/269/155
f 25/270/18 29/307/22 40/271/22
f 241/248/140 262/260/153 263/273/154
f 245/274/144 266/310/157 267/265/158
f 55/276/36 58/287/36 57/277/25
f 249/279/148 270/283/161 271/280/162
f 248/282/147 269/292/160 270/283/161
f 37/284/25 57/661/25 45/285/17
f 55/276/36 54/254/35 60/256/35
f 244/234/143 265/299/156 266/288/157
f 56/289/28 41/291/28 39/290/27
f 25/270/18 42/272/18 41/291/28
f 248/282/147 247/264/146 268/266/159
f 505/293/306 753/527/401 762/294/401
f 31/296/23 24/662/17 45/297/17
f 244/234/143 243/253/142 264/269/155
f 38/249/26 35/596/9 12/128/9
f 271/280/162 270/283/161 291/301/173
f 269/292/160 290/315/172 291/301/173
f 32/303/24 34/311/24 33/304/13
f 28/306/21 36/327/21 40/271/22
f 265/308/156 286/355/168 287/309/169
f 31/296/23 44/298/23 34/311/24
f 50/229/32 85/230/32 10/312/8
f 269/292/160 268/266/159 289/314/171
f 779/316/410 780/66/410 781/65/409
f 27/267/20 46/268/20 653/318/3
f 264/269/155 285/328/167 286/320/168
f 16/322/13 33/251/13 15/323/12
f 268/266/159 267/265/158 288/325/170
f 14/326/11 30/330/11 36/327/21
f 263/273/154 284/331/166 285/328/167
f 13/329/10 22/354/10 30/330/11
f 262/260/153 283/321/165 284/331/166
f 266/310/157 287/309/169 288/325/170
f 655/332/351 662/366/351 9/333/7
f 285/328/167 306/343/180 307/335/181
f 8/187/6 7/186/6 12/337/9
f 289/314/171 288/325/170 309/339/183
f 43/341/16 70/663/43 442/342/43
f 284/331/166 305/347/179 306/343/180
f 663/344/355 665/360/355 666/345/356
f 284/331/166 283/321/165 304/336/178
f 287/309/169 308/356/182 309/339/183
f 2/348/2 21/353/2 20/349/4
f 292/302/174 291/301/173 312/351/186
f 290/315/172 311/361/185 312/351/186
f 2/348/2 654/334/7 9/333/7
f 13/329/10 4/350/4 20/349/4
f 286/355/168 307/373/181 308/356/182
f 19/324/12 15/323/12 5/357/5
f 652/359/5 5/664/5 665/360/355
f 290/315/172 289/314/171 310/340/184
f 776/362/408 732/14/389 731/13/389
f 304/336/178 325/383/188 326/364/189
f 308/356/182 329/374/192 330/365/193
f 660/179/354 661/178/354 662/366/351
f 313/352/187 312/351/186 333/367/196
f 311/361/185 332/378/195 333/367/196
f 701/369/382 675/391/365 676/370/366
f 11/313/8 10/312/8 66/372/39
f 307/373/181 328/665/191 329/374/192
f 664/346/356 666/345/356 658/375/353
f 678/377/368 3/319/3 653/318/3
f 310/340/184 331/387/194 332/378/195
f 506/67/307 505/293/306 509/295/306
f 700/371/381 668/412/358 677/380/367
f 306/343/180 327/390/190 328/382/191
f 672/384/362 667/406/357 668/385/358
f 310/340/184 309/339/183 330/365/193
f 657/388/353 658/666/353 659/173/352
f 305/347/179 326/364/189 327/390/190
f 699/371/380 672/370/362 673/391/363
f 332/378/195 331/387/194 352/392/205
f 489/394/296 488/667/295 503/76/295
f 716/396/382 692/431/365 693/397/366
f 328/382/191 327/390/190 348/399/201
f 698/369/379 683/411/371 684/402/372
f 331/387/194 330/365/193 351/404/204
f 682/403/370 695/408/376 671/405/361
f 326/364/189 347/407/200 348/399/201
f 675/386/365 688/385/373 683/406/371
f 325/383/188 346/401/199 347/407/200
f 329/374/192 350/668/203 351/404/204
f 697/381/378 669/405/359 670/408/360
f 334/368/197 333/367/196 354/409/207
f 332/378/195 353/393/206 354/409/207
f 696/403/377 691/402/374 688/411/373
f 681/381/369 674/380/364 667/412/357
f 328/382/191 349/400/202 350/413/203
f 674/415/364 671/418/361 669/416/359
f 695/418/376 684/415/372 691/417/374
f 346/401/199 367/435/209 368/419/210
f 350/420/203 371/449/213 372/421/214
f 355/259/208 354/425/207 375/423/217
f 353/243/206 374/217/216 375/423/217
f 349/400/202 370/434/212 371/429/213
f 353/243/206 352/242/205 373/195/215
f 485/18/294 484/83/293 487/85/293
f 349/400/202 348/399/201 369/433/211
f 352/242/205 351/422/204 372/421/214
f 715/398/381 685/498/358 686/436/367
f 347/407/200 368/419/210 369/433/211
f 373/195/215 394/444/229 395/438/230
f 466/24/280 483/23/280 482/439/281
f 369/433/211 390/445/225 391/441/226
f 373/195/215 372/421/214 393/443/228
f 368/419/210 389/448/224 390/445/225
f 714/396/379 707/432/371 705/446/372
f 367/435/209 388/442/223 389/448/224
f 371/449/213 392/457/227 393/443/228
f 376/424/218 375/423/217 396/453/231
f 374/217/216 395/438/230 396/453/231
f 370/456/212 391/669/226 392/457/227
f 389/448/224 410/459/240 411/458/241
f 388/442/223 409/471/239 410/459/240
f 392/457/227 413/464/243 414/460/244
f 397/454/232 396/453/231 417/461/247
f 395/438/230 416/467/246 417/461/247
f 392/457/227 391/669/226 412/463/242
f 689/428/362 687/427/357 685/465/358
f 394/444/229 415/472/245 416/467/246
f 447/468/268 464/670/268 463/21/269
f 390/445/225 411/458/241 412/470/242
f 394/444/229 393/443/228 414/460/244
f 413/473/243 412/470/242 433/474/259
f 703/398/380 689/397/362 690/431/363
f 415/472/245 436/482/262 437/476/263
f 447/477/268 427/551/254 444/478/254
f 411/458/241 432/484/258 433/474/259
f 415/472/245 414/460/244 435/481/261
f 410/459/240 431/485/257 432/484/258
f 409/471/239 430/480/256 431/485/257
f 413/464/243 434/490/260 435/481/261
f 418/462/248 417/461/247 438/486/264
f 416/467/246 437/476/263 438/486/264
f 724/447/370 708/455/376 709/483/361
f 432/484/258 431/485/257 452/487/271
f 431/485/257 430/480/256 451/489/270
f 434/490/260 455/115/274 456/491/275
f 439/121/265 438/486/264 459/492/278
f 437/476/263 458/500/277 459/492/278
f 708/452/376 705/451/372 706/494/374
f 434/475/260 433/474/259 454/496/273
f 704/437/369 718/436/364 687/498/357
f 437/476/263 436/482/262 457/499/276
f 421/501/250 426/525/250 425/502/251
f 432/484/258 453/488/272 454/496/273
f 436/482/262 435/481/261 456/491/275
f 725/447/377 706/446/374 710/432/373
f 455/497/274 454/496/273 475/504/286
f 718/506/364 709/671/361 711/495/359
f 458/507/277 457/513/276 478/508/289
f 489/394/296 490/395/296 420/510/249
f 453/488/272 474/516/285 475/504/286
f 457/513/276 456/518/275 477/514/288
f 453/488/272 452/487/271 473/515/284
f 451/489/270 472/512/283 473/515/284
f 455/517/274 476/523/287 477/514/288
f 460/519/279 459/522/278 480/520/291
f 458/507/277 479/509/290 480/520/291
f 477/514/288 498/6/301 499/47/302
f 474/516/285 473/515/284 494/56/298
f 472/512/283 493/70/297 494/56/298
f 476/523/287 98/4/57 498/6/301
f 421/501/250 744/556/396 748/524/396
f 481/521/292 480/520/291 501/53/304
f 479/509/290 101/52/59 501/53/304
f 778/526/409 781/672/409 762/294/401
f 692/466/365 710/465/373 707/528/371
f 476/523/287 475/673/286 496/530/300
f 803/531/422 804/540/422 805/35/421
f 776/362/408 777/363/408 799/533/419
f 479/509/290 478/508/289 499/47/302
f 795/534/418 796/674/418 797/535/417
f 719/437/378 711/483/359 712/455/360
f 474/516/285 495/15/299 496/54/300
f 809/72/425 730/559/388 729/537/388
f 803/531/422 812/550/426 813/539/426
f 791/25/416 814/549/427 815/541/427
f 779/543/410 790/27/415 793/26/415
f 800/544/420 801/553/420 796/545/418
f 743/547/393 782/218/411 785/220/411
f 808/74/424 811/73/424 815/541/427
f 812/550/426 794/536/417 797/535/417
f 743/547/393 737/548/393 444/478/254
f 786/552/413 806/546/423 807/545/423
f 788/554/414 789/675/414 784/219/412
f 419/511/249 420/510/249 748/524/396
f 750/244/399 422/503/251 425/502/251
f 400/558/234 401/33/234 729/537/388
f 339/437/15 357/398/15 510/396/15
f 364/465/176 358/494/176 362/451/176
f 341/494/175 378/465/175 511/427/175
f 360/447/14 377/396/14 342/398/14
f 359/465/163 322/494/163 338/451/163
f 335/494/164 340/465/164 356/427/164
f 279/381/15 297/371/15 321/369/15
f 316/385/176 298/417/176 314/415/176
f 293/417/175 318/385/175 320/406/175
f 300/403/14 317/369/14 294/371/14
f 299/385/163 274/417/163 278/415/163
f 275/417/164 280/385/164 296/406/164
f 497/658/15 273/676/15 257/375/15
f 257/375/15 253/345/15 237/360/15
f 237/360/15 233/664/15 217/560/15
f 217/560/15 213/304/15 209/311/15
f 209/311/15 193/298/15 189/297/15
f 189/297/15 173/277/15 169/287/15
f 169/287/15 153/256/15 149/255/15
f 149/255/15 133/677/15 129/227/15
f 129/227/15 125/216/15 512/213/15
f 512/213/15 497/658/15 257/375/15
f 257/375/15 237/360/15 217/560/15
f 217/560/15 209/311/15 189/297/15
f 189/297/15 169/287/15 149/255/15
f 149/255/15 129/227/15 512/213/15
f 512/213/15 257/375/15 217/560/15
f 217/560/15 189/297/15 149/255/15
f 258/561/151 254/563/150 256/388/150
f 471/562/282 258/561/151 272/389/151
f 251/333/14 255/366/14 259/178/14
f 259/178/14 491/210/14 504/198/14
f 504/198/14 108/197/14 127/232/14
f 127/232/14 131/258/14 147/241/14
f 147/241/14 151/240/14 167/290/14
f 167/290/14 171/291/14 175/272/14
f 175/272/14 191/271/14 195/327/14
f 195/327/14 211/330/14 215/354/14
f 215/354/14 231/349/14 235/353/14
f 235/353/14 251/333/14 259/178/14
f 259/178/14 504/198/14 127/232/14
f 127/232/14 147/241/14 167/290/14
f 167/290/14 175/272/14 195/327/14
f 195/327/14 215/354/14 235/353/14
f 235/353/14 259/178/14 127/232/14
f 127/232/14 167/290/14 195/327/14
f 254/563/150 238/678/139 252/564/139
f 252/565/139 238/679/139 234/566/138
f 234/566/138 230/680/137 232/358/137
f 232/358/137 230/680/137 214/568/125
f 214/568/125 210/569/124 212/322/124
f 210/569/124 194/580/113 196/570/113
f 194/571/113 190/574/112 192/572/112
f 190/574/112 174/575/100 188/286/100
f 174/575/100 170/576/99 172/284/99
f 170/576/99 154/578/88 168/577/88
f 154/578/88 150/681/87 152/579/87
f 150/580/87 146/569/86 148/252/86
f 146/569/86 130/582/74 132/236/74
f 130/582/74 126/584/73 128/583/73
f 126/584/73 105/585/60 113/567/60
f 105/585/60 500/682/303 507/565/303
f 507/586/303 500/683/303 471/562/282
f 99/157/15 18/143/15 516/653/15
f 516/653/15 520/684/15 524/685/15
f 524/685/15 528/112/15 532/93/15
f 532/93/15 536/92/15 470/686/15
f 470/686/15 428/263/15 386/262/15
f 386/262/15 344/342/15 302/687/15
f 302/687/15 260/688/15 218/337/15
f 218/337/15 176/186/15 134/655/15
f 134/655/15 110/689/15 104/587/15
f 104/587/15 99/157/15 516/653/15
f 516/653/15 524/685/15 532/93/15
f 532/93/15 470/686/15 386/262/15
f 386/262/15 302/687/15 218/337/15
f 218/337/15 134/655/15 104/587/15
f 104/587/15 516/653/15 532/93/15
f 532/93/15 386/262/15 218/337/15
f 429/588/255 387/589/222 408/200/222
f 537/117/314 539/690/314 429/588/255
f 155/193/14 197/318/14 239/268/14
f 239/268/14 281/222/14 323/372/14
f 323/372/14 365/312/14 407/230/14
f 407/230/14 449/89/14 538/110/14
f 538/110/14 534/109/14 530/105/14
f 530/105/14 526/145/14 522/139/14
f 522/139/14 518/138/14 514/133/14
f 514/133/14 96/154/14 102/166/14
f 102/166/14 107/183/14 112/182/14
f 112/182/14 155/193/14 239/268/14
f 239/268/14 323/372/14 407/230/14
f 407/230/14 538/110/14 530/105/14
f 530/105/14 522/139/14 514/133/14
f 514/133/14 102/166/14 112/182/14
f 112/182/14 239/268/14 407/230/14
f 407/230/14 530/105/14 514/133/14
f 387/589/222 345/691/198 366/590/198
f 345/591/198 303/593/177 324/205/177
f 303/593/177 261/594/152 282/203/152
f 261/594/152 219/610/126 240/249/126
f 240/249/126 219/610/126 177/595/101
f 198/596/101 177/595/101 135/597/75
f 135/599/75 111/601/62 114/169/62
f 111/601/62 106/602/61 109/167/61
f 106/602/61 100/603/58 103/159/58
f 100/603/58 95/605/56 97/604/56
f 95/605/56 515/692/308 513/606/308
f 515/607/308 519/609/309 517/129/309
f 519/609/309 523/610/310 521/127/310
f 523/610/310 527/693/311 525/102/311
f 525/102/311 527/693/311 531/593/312
f 531/593/312 535/591/313 533/611/313
f 535/612/313 539/690/314 537/117/314
f 588/694/318 592/33/315 540/32/315
f 540/32/315 544/82/318 548/8/315
f 548/8/315 552/19/315 556/430/318
f 556/430/318 560/85/315 564/84/315
f 564/84/315 568/695/315 572/696/315
f 572/696/315 576/697/315 580/614/318
f 580/614/318 584/698/318 588/694/318
f 588/694/318 540/32/315 548/8/315
f 548/8/315 556/430/318 564/84/315
f 564/84/315 572/696/315 580/614/318
f 580/614/318 588/694/318 548/8/315
f 545/615/319 541/699/316 543/125/316
f 543/125/316 541/699/316 593/469/332
f 550/700/317 546/701/320 542/702/317
f 542/702/317 594/98/317 590/557/317
f 590/557/317 586/502/317 582/525/317
f 582/525/317 578/524/317 574/510/317
f 574/510/317 570/395/320 566/76/317
f 566/76/317 562/703/320 558/618/317
f 558/618/317 554/704/317 550/700/317
f 550/700/317 542/702/317 590/557/317
f 590/557/317 582/525/317 574/510/317
f 574/510/317 566/76/317 558/618/317
f 558/618/317 550/700/317 590/557/317
f 551/1/321 549/705/321 545/619/319
f 553/620/322 549/705/321 551/1/321
f 559/24/323 557/706/323 553/620/322
f 563/125/324 561/699/324 557/621/323
f 565/469/325 561/699/324 563/125/324
f 569/468/326 565/469/325 567/44/325
f 575/624/327 573/707/327 569/468/326
f 579/625/328 577/547/328 573/551/327
f 581/218/329 577/547/328 579/625/328
f 587/628/330 585/555/330 581/218/329
f 589/20/331 585/708/330 587/624/330
f 593/469/332 589/20/331 591/629/331
f 596/709/333 600/710/336 604/711/333
f 604/711/333 608/712/333 612/630/333
f 612/630/333 616/713/336 620/84/333
f 620/84/333 624/26/343 628/542/333
f 628/542/333 632/541/333 636/73/333
f 636/73/333 640/538/336 644/537/333
f 644/537/333 648/33/333 596/709/333
f 596/709/333 604/711/333 612/630/333
f 612/630/333 620/84/333 628/542/333
f 628/542/333 636/73/333 644/537/333
f 644/537/333 596/709/333 612/630/333
f 601/631/337 597/317/334 599/632/334
f 597/317/334 649/64/350 651/552/350
f 602/171/335 598/99/335 650/98/335
f 650/98/335 646/714/335 642/634/335
f 642/634/335 638/715/335 634/716/335
f 634/716/335 630/717/335 626/635/335
f 626/635/335 622/76/335 618/533/335
f 618/533/335 614/363/335 610/13/335
f 610/13/335 606/11/335 602/171/335
f 602/171/335 650/98/335 642/634/335
f 642/634/335 634/716/335 626/635/335
f 626/635/335 618/533/335 610/13/335
f 610/13/335 602/171/335 642/634/335
f 607/636/338 605/67/338 601/69/337
f 609/293/339 605/67/338 607/636/338
f 615/639/340 613/527/340 609/293/339
f 617/317/341 613/718/340 615/640/340
f 621/316/342 617/317/341 619/632/341
f 627/546/344 625/719/344 621/316/342
f 629/641/345 625/719/344 627/546/344
f 633/643/346 629/720/345 631/536/345
f 637/644/347 633/643/346 635/550/346
f 641/645/348 637/644/347 639/531/347
f 647/546/349 645/721/349 641/646/348
f 649/64/350 645/721/349 647/546/349
