# Blender 5.2.0 LTS
# www.blender.org
o Backdrop_Lounger
v 14.000000 0.000000 -6.943769
v 14.422050 0.000000 -6.637133
v -14.000000 0.000000 6.056231
v -13.577950 0.000000 6.362867
v 14.000000 0.000000 6.056231
v 14.422050 0.000000 6.362867
v -13.577950 0.000000 -6.637133
v -13.739159 0.000000 -6.140983
v -14.605563 16.357443 8.000000
v -15.477117 17.578260 8.000000
v -15.110871 17.839725 7.550000
v -15.738583 17.944506 7.550000
v -14.239318 16.618908 7.550000
v -14.344097 15.991197 7.550000
v -14.239318 16.618908 -7.550000
v -15.110871 17.839725 -7.550000
v -16.549999 5.800000 7.550000
v -16.549999 6.250000 8.000000
v -15.477117 17.578260 -8.000000
v -15.738583 17.944506 -7.550000
v -14.605563 16.357443 -8.000000
v -14.344097 15.991197 -7.550000
v -28.522882 6.421740 -8.000000
v -29.394438 7.642558 -8.000000
v -29.760683 7.381093 -7.550000
v -29.655903 8.008802 -7.550000
v -29.655903 8.008802 7.550000
v -29.760683 7.381092 7.550000
v -29.394438 7.642558 8.000000
v -28.522882 6.421740 8.000000
v -28.889128 6.160274 -7.550000
v -28.889128 6.160273 7.550000
v -28.261417 6.055495 7.550000
v -28.261417 6.055495 -7.550000
v 16.549999 6.250000 8.000000
v 16.549999 7.750000 8.000000
v 17.000000 7.750000 7.550000
v 16.549999 8.200000 7.550000
v 17.000000 6.250000 7.550000
v 16.549999 5.800000 7.550000
v 17.000000 6.250000 -7.550000
v 17.000000 7.750000 -7.550000
v 16.549999 7.750000 -8.000000
v 16.549999 8.200000 -7.550000
v 16.549999 6.250000 -8.000000
v 16.549999 5.800000 -7.550000
v -16.549999 6.250000 -8.000000
v -16.549999 7.750000 -8.000000
v -17.000000 7.750000 -7.550000
v -16.549999 8.200000 -7.550000
v -16.549999 8.200000 7.550000
v -17.000000 7.750000 7.550000
v -16.549999 7.750000 8.000000
v -16.549999 6.250000 8.000000
v -17.000000 6.250000 -7.550000
v -17.000000 6.250000 7.550000
v -16.549999 5.800000 7.550000
v -16.549999 5.800000 -7.550000
v -17.000000 6.250000 7.550000
v -16.549999 7.750000 8.000000
v -16.549999 8.200000 7.550000
v -17.000000 7.750000 7.550000
v -16.549999 5.800000 -7.550000
v -17.000000 6.250000 -7.550000
v -16.549999 6.250000 -8.000000
v -16.549999 8.200000 -7.550000
v -16.549999 7.750000 -8.000000
v -17.000000 7.750000 -7.550000
v 16.549999 5.800000 7.550000
v 17.000000 6.250000 7.550000
v 16.549999 6.250000 8.000000
v 16.549999 8.200000 7.550000
v 16.549999 7.750000 8.000000
v 17.000000 7.750000 7.550000
v 16.549999 5.800000 -7.550000
v 16.549999 6.250000 -8.000000
v 17.000000 6.250000 -7.550000
v 16.549999 8.200000 -7.550000
v 17.000000 7.750000 -7.550000
v 16.549999 7.750000 -8.000000
v -28.261417 6.055495 7.550000
v -28.522882 6.421740 8.000000
v -28.889128 6.160273 7.550000
v -29.394438 7.642558 8.000000
v -29.655903 8.008802 7.550000
v -29.760683 7.381092 7.550000
v -28.261417 6.055495 -7.550000
v -28.889128 6.160274 -7.550000
v -28.522882 6.421740 -8.000000
v -29.655903 8.008802 -7.550000
v -29.394438 7.642558 -8.000000
v -29.760683 7.381093 -7.550000
v -14.344097 15.991197 7.550000
v -14.239318 16.618908 7.550000
v -14.605563 16.357443 8.000000
v -15.738583 17.944506 7.550000
v -15.477117 17.578260 8.000000
v -15.110871 17.839725 7.550000
v -14.344097 15.991197 -7.550000
v -14.605563 16.357443 -8.000000
v -14.239318 16.618908 -7.550000
v -15.738583 17.944506 -7.550000
v -15.110871 17.839725 -7.550000
v -15.477117 17.578260 -8.000000
v -14.000000 0.000000 6.056231
v -14.364058 0.450000 5.764503
v -13.635942 0.450000 5.764503
v -14.000000 7.000000 6.056231
v -13.635942 6.550000 5.764503
v -14.364058 6.550000 5.764503
v -13.577950 0.000000 6.362867
v -13.413001 0.450000 5.926479
v -13.188001 0.450000 6.618958
v -13.577950 7.000000 6.362867
v -13.188001 6.550000 6.618958
v -13.413001 6.550000 5.926479
v -13.739159 0.000000 6.859017
v -13.273157 0.450000 6.881042
v -13.862214 0.450000 7.309017
v -13.739159 7.000000 6.859017
v -13.862214 6.550000 7.309017
v -13.273157 6.550000 6.881042
v -14.260841 0.000000 6.859017
v -14.137786 0.450000 7.309017
v -14.726843 0.450000 6.881042
v -14.260841 7.000000 6.859017
v -14.726843 6.550000 6.881042
v -14.137786 6.550000 7.309017
v -14.422050 0.000000 6.362867
v -14.811999 0.450000 6.618958
v -14.586999 0.450000 5.926479
v -14.422050 7.000000 6.362867
v -14.586999 6.550000 5.926479
v -14.811999 6.550000 6.618958
v -14.000000 0.000000 -6.943769
v -14.364058 0.450000 -7.235497
v -13.635942 0.450000 -7.235497
v -14.000000 7.000000 -6.943769
v -13.635942 6.550000 -7.235497
v -14.364058 6.550000 -7.235497
v -13.577950 0.000000 -6.637133
v -13.413001 0.450000 -7.073521
v -13.188001 0.450000 -6.381042
v -13.577950 7.000000 -6.637133
v -13.188001 6.550000 -6.381042
v -13.413001 6.550000 -7.073521
v -13.739159 0.000000 -6.140983
v -13.273157 0.450000 -6.118958
v -13.862214 0.450000 -5.690983
v -13.739159 7.000000 -6.140983
v -13.862214 6.550000 -5.690983
v -13.273157 6.550000 -6.118958
v -14.260841 0.000000 -6.140983
v -14.137786 0.450000 -5.690983
v -14.726843 0.450000 -6.118958
v -14.260841 7.000000 -6.140983
v -14.726843 6.550000 -6.118958
v -14.137786 6.550000 -5.690983
v -14.422050 0.000000 -6.637133
v -14.811999 0.450000 -6.381042
v -14.586999 0.450000 -7.073521
v -14.422050 7.000000 -6.637133
v -14.586999 6.550000 -7.073521
v -14.811999 6.550000 -6.381042
v 14.000000 0.000000 6.056231
v 13.635942 0.450000 5.764503
v 14.364058 0.450000 5.764503
v 14.000000 7.000000 6.056231
v 14.364058 6.550000 5.764503
v 13.635942 6.550000 5.764503
v 14.422050 0.000000 6.362867
v 14.586999 0.450000 5.926479
v 14.811999 0.450000 6.618958
v 14.422050 7.000000 6.362867
v 14.811999 6.550000 6.618958
v 14.586999 6.550000 5.926479
v 14.260841 0.000000 6.859017
v 14.726843 0.450000 6.881042
v 14.137786 0.450000 7.309017
v 14.260841 7.000000 6.859017
v 14.137786 6.550000 7.309017
v 14.726843 6.550000 6.881042
v 13.739159 0.000000 6.859017
v 13.862214 0.450000 7.309017
v 13.273157 0.450000 6.881042
v 13.739159 7.000000 6.859017
v 13.273157 6.550000 6.881042
v 13.862214 6.550000 7.309017
v 13.577950 0.000000 6.362867
v 13.188001 0.450000 6.618958
v 13.413001 0.450000 5.926479
v 13.577950 7.000000 6.362867
v 13.413001 6.550000 5.926479
v 13.188001 6.550000 6.618958
v 14.000000 0.000000 -6.943769
v 13.635942 0.450000 -7.235497
v 14.364058 0.450000 -7.235497
v 14.000000 7.000000 -6.943769
v 14.364058 6.550000 -7.235497
v 13.635942 6.550000 -7.235497
v 14.422050 0.000000 -6.637133
v 14.586999 0.450000 -7.073521
v 14.811999 0.450000 -6.381042
v 14.422050 7.000000 -6.637133
v 14.811999 6.550000 -6.381042
v 14.586999 6.550000 -7.073521
v 14.260841 0.000000 -6.140983
v 14.726843 0.450000 -6.118958
v 14.137786 0.450000 -5.690983
v 14.260841 7.000000 -6.140983
v 14.137786 6.550000 -5.690983
v 14.726843 6.550000 -6.118958
v 13.739159 0.000000 -6.140983
v 13.862214 0.450000 -5.690983
v 13.273157 0.450000 -6.118958
v 13.739159 7.000000 -6.140983
v 13.273157 6.550000 -6.118958
v 13.862214 6.550000 -5.690983
v 13.577950 0.000000 -6.637133
v 13.188001 0.450000 -6.381042
v 13.413001 0.450000 -7.073521
v 13.577950 7.000000 -6.637133
v 13.413001 6.550000 -7.073521
v 13.188001 6.550000 -6.381042
v 14.260841 0.000000 6.859017
v -14.000000 7.000000 6.056231
v -13.577950 7.000000 6.362867
v -13.739159 0.000000 6.859017
v -14.000000 0.000000 -6.943769
v -13.739159 7.000000 6.859017
v -14.260841 0.000000 6.859017
v 14.260841 0.000000 -6.140983
v -14.260841 7.000000 6.859017
v -14.000000 7.000000 -6.943769
v -13.577950 7.000000 -6.637133
v -14.422050 0.000000 6.362867
v -14.422050 7.000000 6.362867
v -13.739159 7.000000 -6.140983
v -14.260841 0.000000 -6.140983
v -14.260841 7.000000 -6.140983
v -14.422050 0.000000 -6.637133
v 14.000000 7.000000 6.056231
v 14.422050 7.000000 6.362867
v -14.422050 7.000000 -6.637133
v 14.260841 7.000000 6.859017
v 13.739159 0.000000 6.859017
v 13.739159 7.000000 6.859017
v 13.577950 0.000000 6.362867
v 14.000000 7.000000 -6.943769
v 14.422050 7.000000 -6.637133
v 13.577950 7.000000 6.362867
v 14.260841 7.000000 -6.140983
v 13.739159 0.000000 -6.140983
v 13.739159 7.000000 -6.140983
v 13.577950 0.000000 -6.637133
v 13.577950 7.000000 -6.637133
vn -0.0000 -0.7099 -0.7043
vn 0.6698 -0.7099 -0.2176
vn 0.4140 -0.7099 0.5698
vn 0.6424 -0.1073 0.7588
vn 0.1072 0.6424 0.7588
vn 0.3500 0.8157 0.4606
vn -0.0660 0.8852 0.4606
vn 0.8852 0.0660 0.4606
vn 0.8157 -0.3500 0.4606
vn 0.8852 0.0660 -0.4606
vn 0.3500 0.8157 -0.4606
vn -0.0000 -1.0000 -0.0000
vn -0.0000 -0.0000 1.0000
vn 0.1072 0.6424 -0.7588
vn -0.0660 0.8852 -0.4606
vn 0.6424 -0.1072 -0.7588
vn 0.8157 -0.3500 -0.4606
vn -0.1072 -0.6424 -0.7588
vn -0.6424 0.1072 -0.7588
vn -0.8852 -0.0660 -0.4606
vn -0.8157 0.3500 -0.4606
vn -0.8157 0.3500 0.4606
vn -0.8852 -0.0660 0.4606
vn -0.6424 0.1072 0.7588
vn -0.1072 -0.6424 0.7588
vn -0.3500 -0.8157 -0.4606
vn -0.3500 -0.8157 0.4606
vn 0.0660 -0.8852 0.4606
vn 0.0660 -0.8852 -0.4606
vn 0.4606 -0.4606 0.7588
vn 0.4606 0.4606 0.7588
vn 0.7588 0.4606 0.4606
vn 0.4606 0.7588 0.4606
vn 0.7588 -0.4606 0.4606
vn 0.4606 -0.7588 0.4606
vn 0.7588 -0.4606 -0.4606
vn 0.7588 0.4606 -0.4606
vn 0.4606 0.4606 -0.7588
vn 0.4606 0.7588 -0.4606
vn 0.4606 -0.4606 -0.7588
vn 0.4606 -0.7588 -0.4606
vn -0.4606 -0.4606 -0.7588
vn -0.4606 0.4606 -0.7588
vn -0.7588 0.4606 -0.4606
vn -0.4606 0.7588 -0.4606
vn -0.4606 0.7588 0.4606
vn -0.7588 0.4606 0.4606
vn -0.4606 0.4606 0.7588
vn -0.4606 -0.4606 0.7588
vn -0.7588 -0.4606 -0.4606
vn -0.7588 -0.4606 0.4606
vn -0.4606 -0.7588 0.4606
vn -0.4606 -0.7588 -0.4606
vn -1.0000 -0.0000 -0.0000
vn -0.0000 1.0000 -0.0000
vn -0.0000 -0.0000 -1.0000
vn 1.0000 -0.0000 -0.0000
vn 0.5810 -0.8139 -0.0000
vn -0.8139 -0.5810 -0.0000
vn -0.5810 0.8139 -0.0000
vn 0.8139 0.5810 -0.0000
vn -0.3147 -0.3376 -0.8871
vn 0.3147 -0.3376 -0.8871
vn 0.3147 0.3376 -0.8871
vn -0.3147 0.3376 -0.8871
vn 0.7465 -0.3376 -0.5734
vn 0.9410 -0.3376 0.0252
vn 0.9410 0.3376 0.0252
vn 0.7465 0.3376 -0.5734
vn 0.7760 -0.3376 0.5327
vn 0.2669 -0.3376 0.9027
vn 0.2669 0.3376 0.9027
vn 0.7760 0.3376 0.5327
vn -0.2669 -0.3376 0.9027
vn -0.7760 -0.3376 0.5327
vn -0.7760 0.3376 0.5327
vn -0.2669 0.3376 0.9027
vn -0.9410 -0.3376 0.0252
vn -0.7465 -0.3376 -0.5734
vn -0.7465 0.3376 -0.5734
vn -0.9410 0.3376 0.0252
vn -0.0000 0.7099 -0.7043
vn 0.6698 0.7099 -0.2176
vn 0.4140 0.7099 0.5698
vn -0.4140 -0.7099 0.5698
vn -0.4140 0.7099 0.5698
vn -0.6698 -0.7099 -0.2176
vn -0.6698 0.7099 -0.2176
vt 0.827500 -0.377500
vt 0.827500 -0.400000
vt 0.850000 -0.377500
vt -0.827500 0.377500
vt -0.850000 0.377500
vt -0.827500 0.400000
vt -0.827500 -0.400000
vt -0.827500 -0.377500
vt -0.850000 -0.377500
vt -1.413071 -0.377500
vt -1.426144 -0.400000
vt -1.444456 -0.377500
vt 0.827500 0.377500
vt 0.850000 0.377500
vt 0.827500 0.400000
vt -0.400000 0.382128
vt -0.377500 0.400440
vt -0.377500 0.369055
vt -1.413071 0.377500
vt -1.444456 0.377500
vt -1.426144 0.400000
vt 0.377500 0.400440
vt 0.400000 0.382128
vt 0.377500 0.369055
vt -0.377500 0.799560
vt -0.377500 0.830945
vt -0.400000 0.817872
vt -0.786929 -0.377500
vt -0.773856 -0.400000
vt -0.755544 -0.377500
vt 0.377500 0.799560
vt 0.400000 0.817872
vt 0.377500 0.830945
vt -0.786929 0.377500
vt -0.755544 0.377500
vt -0.773856 0.400000
vt -0.700000 0.000000
vt -0.718203 0.022500
vt -0.681797 0.022500
vt -0.700000 0.350000
vt -0.681797 0.327500
vt -0.718203 0.327500
vt -0.318143 0.000000
vt -0.296324 0.022500
vt -0.330948 0.022500
vt -0.318143 0.350000
vt -0.330948 0.327500
vt -0.296324 0.327500
vt -0.686958 0.000000
vt -0.663658 0.022500
vt -0.693111 0.022500
vt -0.686958 0.350000
vt -0.693111 0.327500
vt -0.663658 0.327500
vt -0.713042 0.000000
vt -0.706889 0.022500
vt -0.736342 0.022500
vt -0.713042 0.350000
vt -0.736342 0.327500
vt -0.706889 0.327500
vt -0.296324 0.022500
vt 0.331857 0.000000
vt 0.353676 0.022500
vt 0.319052 0.022500
vt 0.331857 0.350000
vt 0.319052 0.327500
vt 0.353676 0.327500
vt 0.353676 0.022500
vt 0.700000 0.000000
vt 0.681797 0.022500
vt 0.718203 0.022500
vt 0.700000 0.350000
vt 0.718203 0.327500
vt 0.681797 0.327500
vt 0.713042 0.000000
vt 0.736342 0.022500
vt 0.706889 0.022500
vt 0.713042 0.350000
vt 0.706889 0.327500
vt 0.736342 0.327500
vt 0.686958 0.000000
vt 0.693111 0.022500
vt 0.663658 0.022500
vt 0.686958 0.350000
vt 0.663658 0.327500
vt 0.693111 0.327500
vt -0.827500 0.387500
vt -0.850000 0.312500
vt -0.827500 0.312500
vt -0.850000 0.387500
vt 0.850000 0.312500
vt 0.827500 0.387500
vt 0.850000 0.387500
vt 0.827500 0.312500
vt -1.469722 0.382128
vt -1.444456 0.308014
vt -1.426144 0.321087
vt -1.444456 0.308014
vt -1.488034 0.369055
vt -0.717205 0.799560
vt -0.730278 0.817872
vt -1.482795 0.400440
vt -0.773856 0.878913
vt -0.755544 0.891986
vt -1.413071 0.302775
vt -0.786929 0.897225
vt -0.663658 0.305948
vt -0.678898 0.331857
vt -0.659400 0.319052
vt 0.718203 -0.288225
vt 0.721102 -0.318143
vt 0.700000 -0.302812
vt -0.681797 -0.288225
vt -0.678898 -0.318143
vt -0.700000 -0.302812
vt 0.718203 0.361775
vt 0.721102 0.331857
vt 0.700000 0.347188
vt 0.740600 -0.330948
vt 0.713042 -0.342951
vt -0.670650 -0.296324
vt -0.659400 -0.330948
vt -0.686958 -0.342951
vt -0.681797 0.361775
vt -0.700000 0.347188
vt -0.663658 -0.344052
vt 0.736342 0.305948
vt 0.740600 0.319052
vt -0.693111 -0.365451
vt -0.713042 -0.342951
vt -0.706889 -0.365451
vt -0.670650 0.353676
vt -0.740600 -0.330948
vt -0.736342 -0.344052
vt -0.721102 -0.318143
vt -0.718203 -0.288225
vt -0.729350 -0.296324
vt -0.686958 0.307049
vt -0.693111 0.284549
vt -0.713042 0.307049
vt -0.706889 0.284549
vt -0.740600 0.319052
vt -0.736342 0.305948
vt 0.729350 -0.296324
vt -0.721102 0.331857
vt -0.718203 0.361775
vt -0.729350 0.353676
vt 0.736342 -0.344052
vt 0.706889 -0.365451
vt 0.686958 -0.342951
vt 0.693111 -0.365451
vt 0.659400 -0.330948
vt 0.663658 -0.344052
vt 0.729350 0.353676
vt 0.678898 -0.318143
vt 0.681797 -0.288225
vt 0.670650 -0.296324
vt 0.713042 0.307049
vt 0.706889 0.284549
vt 0.686958 0.307049
vt 0.693111 0.284549
vt 0.659400 0.319052
vt 0.663658 0.305948
vt 0.678898 0.331857
vt 0.681797 0.361775
vt 0.670650 0.353676
vt -0.377500 0.387500
vt 0.377500 0.312500
vt -0.377500 0.312500
vt 0.377500 0.387500
vt -0.717205 0.377500
vt 0.377500 0.308014
vt -0.377500 0.308014
vt -1.482795 0.377500
vt 0.377500 0.891986
vt -0.670650 0.022500
vt -0.729350 0.327500
vt -0.729350 0.022500
vt -0.344052 0.022500
vt -0.344052 0.327500
vt 0.305948 0.022500
vt 0.305948 0.327500
vt 0.729350 0.022500
vt 0.670650 0.327500
vt 0.670650 0.022500
vt -1.488034 0.369055
vt -0.711966 0.830945
vt -0.717205 -0.377500
vt -1.482795 -0.377500
vt -0.377500 0.891986
vt -0.670650 0.327500
vt 0.729350 0.327500
s 1
f 38/1/33 36/2/31 37/3/32
f 58/4/53 55/5/50 47/6/42
f 53/7/48 51/8/46 52/9/47
f 50/4/45 48/6/43 49/5/44
f 33/10/28 30/11/25 32/12/27
f 44/13/39 42/14/37 43/15/38
f 57/8/52 54/7/49 56/9/51
f 46/13/41 45/15/40 41/14/36
f 40/1/35 39/3/34 35/2/30
f 29/16/24 27/17/22 28/18/23
f 34/19/29 31/20/26 23/21/18
f 26/22/21 24/23/19 25/24/20
f 14/25/9 13/26/8 9/27/4
f 12/28/7 10/29/5 11/30/6
f 22/31/17 21/32/16 15/33/10
f 20/34/15 16/35/11 19/36/14
f 3/37/1 106/38/62 107/39/63
f 226/40/82 109/41/64 110/42/65
f 4/43/2 112/44/66 113/45/67
f 227/46/83 115/47/68 116/48/69
f 228/49/3 118/50/70 119/51/71
f 230/52/84 121/53/72 122/54/73
f 231/55/85 124/56/74 125/57/75
f 233/58/86 127/59/76 128/60/77
f 236/43/87 130/45/78 131/61/79
f 237/46/88 133/48/80 134/47/81
f 229/37/1 136/38/62 137/39/63
f 234/40/82 139/41/64 140/42/65
f 7/62/2 142/63/66 143/64/67
f 235/65/83 145/66/68 146/67/69
f 8/49/3 148/50/70 149/51/71
f 238/52/84 151/53/72 152/54/73
f 239/55/85 154/56/74 155/57/75
f 240/58/86 157/59/76 158/60/77
f 241/62/87 160/64/78 161/68/79
f 244/65/88 163/67/80 164/66/81
f 5/69/1 166/70/62 167/71/63
f 242/72/82 169/73/64 170/74/65
f 6/43/2 172/44/66 173/45/67
f 243/46/83 175/47/68 176/48/69
f 225/75/3 178/76/70 179/77/71
f 245/78/84 181/79/72 182/80/73
f 246/81/85 184/82/74 185/83/75
f 247/84/86 187/85/76 188/86/77
f 248/43/87 190/45/78 191/61/79
f 251/46/88 193/48/80 194/47/81
f 1/69/1 196/70/62 197/71/63
f 249/72/82 199/73/64 200/74/65
f 2/62/2 202/63/66 203/64/67
f 250/65/83 205/66/68 206/67/69
f 232/75/3 208/76/70 209/77/71
f 252/78/84 211/79/72 212/80/73
f 253/81/85 214/82/74 215/83/75
f 254/84/86 217/85/76 218/86/77
f 255/62/87 220/64/78 221/68/79
f 256/65/88 223/67/80 224/66/81
f 57/8/52 55/5/50 58/4/53
f 53/87/48 56/88/51 54/89/49
f 50/4/45 52/9/47 51/8/46
f 47/89/42 49/90/44 48/87/43
f 58/4/53 45/15/40 46/13/41
f 44/13/39 48/6/43 50/4/45
f 41/91/36 43/92/38 42/93/37
f 46/13/41 39/3/34 40/1/35
f 38/1/33 42/14/37 44/13/39
f 35/94/30 37/93/32 36/92/31
f 40/1/35 54/7/49 57/8/52
f 51/8/46 36/2/31 38/1/33
f 33/10/28 31/20/26 34/19/29
f 29/95/24 32/96/27 30/97/25
f 26/22/21 28/18/23 27/17/22
f 24/95/19 31/98/26 25/99/20
f 22/100/17 23/97/18 21/101/16
f 26/102/21 19/103/14 24/95/19
f 16/104/11 21/101/16 19/103/14
f 22/31/17 13/26/8 14/25/9
f 12/28/7 16/35/11 20/34/15
f 9/101/4 11/104/6 10/103/5
f 33/105/28 9/101/4 30/97/25
f 27/102/22 10/103/5 12/106/7
f 148/107/70 7/108/2 143/109/67
f 167/110/63 6/111/2 5/112/1
f 107/113/63 4/114/2 3/115/1
f 197/116/63 2/117/2 1/118/1
f 173/119/67 225/120/3 6/111/2
f 109/113/64 227/114/83 116/121/69
f 110/42/65 107/39/63 106/38/62
f 113/45/67 116/48/69 115/47/68
f 143/64/67 146/67/69 145/66/68
f 113/122/67 228/123/3 4/114/2
f 137/124/63 7/108/2 229/125/1
f 115/122/68 230/123/84 122/126/73
f 119/51/71 122/54/73 121/53/72
f 140/42/65 137/39/63 136/38/62
f 124/56/74 228/49/3 119/51/71
f 208/127/70 2/117/2 203/128/67
f 121/129/72 233/130/86 128/131/77
f 125/57/75 128/60/77 127/59/76
f 139/124/64 235/108/83 146/132/69
f 130/133/78 231/130/85 125/134/75
f 134/133/81 233/130/86 237/135/88
f 131/61/79 134/47/81 133/48/80
f 106/136/62 236/135/87 131/137/79
f 110/136/65 237/135/88 226/115/82
f 173/45/67 176/48/69 175/47/68
f 145/109/68 238/138/84 152/107/73
f 149/51/71 152/54/73 151/53/72
f 154/56/74 8/49/3 149/51/71
f 170/74/65 167/71/63 166/70/62
f 151/139/72 240/140/86 158/141/77
f 155/57/75 158/60/77 157/59/76
f 160/142/78 239/140/85 155/143/75
f 169/110/64 243/111/83 176/144/69
f 157/143/76 244/145/88 164/142/81
f 161/68/79 164/66/81 163/67/80
f 136/146/62 241/145/87 161/147/79
f 140/146/65 244/145/88 234/125/82
f 203/64/67 206/67/69 205/66/68
f 175/119/68 245/120/84 182/148/73
f 179/77/71 182/80/73 181/79/72
f 184/82/74 225/75/3 179/77/71
f 200/74/65 197/71/63 196/70/62
f 181/149/72 247/150/86 188/151/77
f 185/83/75 188/86/77 187/85/76
f 190/152/78 246/150/85 185/153/75
f 199/116/64 250/117/83 206/154/69
f 194/152/81 247/150/86 251/155/88
f 191/61/79 194/47/81 193/48/80
f 166/156/62 248/155/87 191/157/79
f 170/156/65 251/155/88 242/112/82
f 205/128/68 252/158/84 212/127/73
f 209/77/71 212/80/73 211/79/72
f 214/82/74 232/75/3 209/77/71
f 211/159/72 254/160/86 218/161/77
f 215/83/75 218/86/77 217/85/76
f 220/162/78 253/160/85 215/163/75
f 224/162/81 254/160/86 256/164/88
f 221/68/79 224/66/81 223/67/80
f 196/165/62 255/164/87 221/166/79
f 223/166/80 249/118/82 200/165/65
f 75/13/12 17/8/12 63/4/12
f 62/167/54 64/168/54 59/169/54
f 73/92/13 18/89/13 71/94/13
f 66/4/55 72/1/55 78/13/55
f 67/87/56 76/94/56 65/89/56
f 79/170/57 70/169/57 77/168/57
f 99/171/58 81/10/58 87/19/58
f 86/18/59 88/172/59 83/173/59
f 95/101/13 84/95/13 82/97/13
f 90/174/60 96/28/60 102/34/60
f 89/97/56 104/103/56 100/101/56
f 103/175/61 94/26/61 101/33/61
f 111/114/12 123/130/12 129/135/12
f 109/41/64 112/176/66 107/39/63
f 133/177/80 106/38/62 131/178/79
f 108/115/55 126/130/55 120/123/55
f 115/47/68 118/179/70 113/45/67
f 121/53/72 124/56/74 119/51/71
f 127/180/76 130/45/78 125/179/75
f 147/138/12 159/145/12 135/125/12
f 139/41/64 142/176/66 137/39/63
f 163/177/80 136/38/62 161/178/79
f 150/138/55 138/125/55 162/145/55
f 145/66/68 148/181/70 143/64/67
f 151/53/72 154/56/74 149/51/71
f 157/182/76 160/64/78 155/181/75
f 177/120/12 189/155/12 165/112/12
f 169/73/64 172/183/66 167/71/63
f 193/184/80 166/70/62 191/185/79
f 174/111/55 192/155/55 186/150/55
f 175/47/68 178/179/70 173/45/67
f 181/79/72 184/82/74 179/77/71
f 187/180/76 190/45/78 185/179/75
f 213/160/12 195/118/12 201/117/12
f 199/73/64 202/183/66 197/71/63
f 223/184/80 196/70/62 221/185/79
f 204/117/55 222/164/55 216/160/55
f 205/66/68 208/181/70 203/64/67
f 211/79/72 214/82/74 209/77/71
f 217/182/76 220/64/78 215/181/75
f 57/8/52 56/9/51 55/5/50
f 53/87/48 52/90/47 56/88/51
f 50/4/45 49/5/44 52/9/47
f 47/89/42 55/88/50 49/90/44
f 58/4/53 47/6/42 45/15/40
f 44/13/39 43/15/38 48/6/43
f 41/91/36 45/94/40 43/92/38
f 46/13/41 41/14/36 39/3/34
f 38/1/33 37/3/32 42/14/37
f 35/94/30 39/91/34 37/93/32
f 40/1/35 35/2/30 54/7/49
f 51/8/46 53/7/48 36/2/31
f 33/10/28 32/12/27 31/20/26
f 29/95/24 28/186/23 32/96/27
f 26/22/21 25/24/20 28/18/23
f 24/95/19 23/97/18 31/98/26
f 22/100/17 34/105/29 23/97/18
f 26/102/21 20/106/15 19/103/14
f 16/104/11 15/187/10 21/101/16
f 22/31/17 15/33/10 13/26/8
f 12/28/7 11/30/6 16/35/11
f 9/101/4 13/187/8 11/104/6
f 33/105/28 14/100/9 9/101/4
f 27/102/22 29/95/24 10/103/5
f 148/107/70 8/138/3 7/108/2
f 167/110/63 172/144/66 6/111/2
f 107/113/63 112/121/66 4/114/2
f 197/116/63 202/154/66 2/117/2
f 173/119/67 178/148/70 225/120/3
f 109/113/64 226/115/82 227/114/83
f 110/42/65 109/41/64 107/39/63
f 113/45/67 112/44/66 116/48/69
f 143/64/67 142/63/66 146/67/69
f 113/122/67 118/126/70 228/123/3
f 137/124/63 142/132/66 7/108/2
f 115/122/68 227/114/83 230/123/84
f 119/51/71 118/50/70 122/54/73
f 140/42/65 139/41/64 137/39/63
f 124/56/74 231/55/85 228/49/3
f 208/127/70 232/158/3 2/117/2
f 121/129/72 230/123/84 233/130/86
f 125/57/75 124/56/74 128/60/77
f 139/124/64 234/125/82 235/108/83
f 130/133/78 236/135/87 231/130/85
f 134/133/81 127/134/76 233/130/86
f 131/61/79 130/45/78 134/47/81
f 106/136/62 3/115/1 236/135/87
f 110/136/65 133/137/80 237/135/88
f 173/45/67 172/44/66 176/48/69
f 145/109/68 235/108/83 238/138/84
f 149/51/71 148/50/70 152/54/73
f 154/56/74 239/55/85 8/49/3
f 170/74/65 169/73/64 167/71/63
f 151/139/72 238/138/84 240/140/86
f 155/57/75 154/56/74 158/60/77
f 160/142/78 241/145/87 239/140/85
f 169/110/64 242/112/82 243/111/83
f 157/143/76 240/140/86 244/145/88
f 161/68/79 160/64/78 164/66/81
f 136/146/62 229/125/1 241/145/87
f 140/146/65 163/147/80 244/145/88
f 203/64/67 202/63/66 206/67/69
f 175/119/68 243/111/83 245/120/84
f 179/77/71 178/76/70 182/80/73
f 184/82/74 246/81/85 225/75/3
f 200/74/65 199/73/64 197/71/63
f 181/149/72 245/120/84 247/150/86
f 185/83/75 184/82/74 188/86/77
f 190/152/78 248/155/87 246/150/85
f 199/116/64 249/118/82 250/117/83
f 194/152/81 187/153/76 247/150/86
f 191/61/79 190/45/78 194/47/81
f 166/156/62 5/112/1 248/155/87
f 170/156/65 193/157/80 251/155/88
f 205/128/68 250/117/83 252/158/84
f 209/77/71 208/76/70 212/80/73
f 214/82/74 253/81/85 232/75/3
f 211/159/72 252/158/84 254/160/86
f 215/83/75 214/82/74 218/86/77
f 220/162/78 255/164/87 253/160/85
f 224/162/81 217/163/76 254/160/86
f 221/68/79 220/64/78 224/66/81
f 196/165/62 1/118/1 255/164/87
f 223/166/80 256/164/88 249/118/82
f 75/13/12 69/1/12 17/8/12
f 62/167/54 68/170/54 64/168/54
f 73/92/13 60/87/13 18/89/13
f 66/4/55 61/8/55 72/1/55
f 67/87/56 80/92/56 76/94/56
f 79/170/57 74/167/57 70/169/57
f 99/171/58 93/188/58 81/10/58
f 86/18/59 92/24/59 88/172/59
f 95/101/13 97/103/13 84/95/13
f 90/174/60 85/189/60 96/28/60
f 89/97/56 91/95/56 104/103/56
f 103/175/61 98/190/61 94/26/61
f 129/135/12 105/115/12 111/114/12
f 111/114/12 117/123/12 123/130/12
f 109/41/64 116/191/69 112/176/66
f 133/177/80 110/42/65 106/38/62
f 120/123/55 114/114/55 108/115/55
f 108/115/55 132/135/55 126/130/55
f 115/47/68 122/180/73 118/179/70
f 121/53/72 128/60/77 124/56/74
f 127/180/76 134/47/81 130/45/78
f 135/125/12 141/108/12 147/138/12
f 147/138/12 153/140/12 159/145/12
f 139/41/64 146/191/69 142/176/66
f 163/177/80 140/42/65 136/38/62
f 162/145/55 156/140/55 150/138/55
f 150/138/55 144/108/55 138/125/55
f 145/66/68 152/182/73 148/181/70
f 151/53/72 158/60/77 154/56/74
f 157/182/76 164/66/81 160/64/78
f 165/112/12 171/111/12 177/120/12
f 177/120/12 183/150/12 189/155/12
f 169/73/64 176/192/69 172/183/66
f 193/184/80 170/74/65 166/70/62
f 186/150/55 180/120/55 174/111/55
f 174/111/55 168/112/55 192/155/55
f 175/47/68 182/180/73 178/179/70
f 181/79/72 188/86/77 184/82/74
f 187/180/76 194/47/81 190/45/78
f 201/117/12 207/158/12 213/160/12
f 213/160/12 219/164/12 195/118/12
f 199/73/64 206/192/69 202/183/66
f 223/184/80 200/74/65 196/70/62
f 216/160/55 210/158/55 204/117/55
f 204/117/55 198/118/55 222/164/55
f 205/66/68 212/182/73 208/181/70
f 211/79/72 218/86/77 214/82/74
f 217/182/76 224/66/81 220/64/78
