# Blender 5.2.0 LTS
# www.blender.org
o Backdrop_SplashBucket
v -17.200293 65.550003 -13.716777
v -22.000000 47.049999 -2.550000
v -22.000000 44.950001 -2.550000
v -21.549999 47.049999 -3.000000
v -16.839422 62.000000 -13.428990
v -17.200293 62.450001 -13.716777
v 8.238588 -1.261421 17.643538
v -20.998413 66.000000 -4.792754
v -21.448414 65.550003 -4.895461
v -20.998413 62.000000 -4.792754
v -21.448414 62.450001 -4.895461
v -20.998413 66.000000 4.792754
v -21.448414 65.550003 4.895461
v -20.998413 62.000000 4.792754
v -21.448414 62.450001 4.895461
v -16.839422 66.000000 13.428990
v -17.200293 65.550003 13.716777
v -19.761412 55.261421 -10.356462
v -16.839422 62.000000 13.428990
v -17.200293 62.450001 13.716777
v 10.143583 -1.359323 19.104317
v 9.415940 -0.760802 21.314466
v -9.345174 66.000000 19.405453
v -9.545443 65.550003 19.821314
v -9.415940 -0.760802 21.314466
v -9.345174 62.000000 19.405453
v -9.545443 62.450001 19.821314
v 0.000000 66.000000 21.538427
v 0.000000 65.550003 22.000000
v 21.549999 44.950001 -3.000000
v -21.549999 44.950001 -3.000000
v -21.549999 44.500000 -2.550000
v 21.549999 44.500000 -2.550000
v 0.000000 62.000000 21.538427
v 0.000000 62.450001 22.000000
v 9.345174 66.000000 19.405453
v 9.545443 65.550003 19.821314
v -20.938763 54.949974 10.021334
v 9.345174 62.000000 19.405453
v 9.545443 62.450001 19.821314
v -2.835913 67.503830 -18.504482
v -3.157651 67.166695 -18.829065
v -9.361117 70.417809 -12.805505
v -9.797317 70.131790 -13.030117
v -19.761412 54.449352 6.350403
v -21.666405 54.351452 7.811181
v -12.982336 72.034943 -4.570232
v -13.482050 71.777290 -4.650398
v 0.000000 62.000000 -21.538427
v 0.000000 62.450001 -22.000000
v -12.982334 72.034943 4.570233
v -13.482056 71.777290 4.650400
v -9.361115 70.417809 12.805505
v -9.797318 70.131790 13.030119
v -18.584061 54.760803 -6.685533
v -17.856419 55.359325 -8.895684
v -6.333594 -0.602394 18.950878
v -7.061237 -0.292993 21.219639
v -2.835917 67.503822 18.504482
v -3.157653 67.166695 18.829067
v 0.000000 66.000000 -21.538427
v 0.000000 65.550003 -22.000000
v 20.998413 62.000000 -4.792754
v 21.448414 62.450001 -4.895461
v 5.300888 63.870155 20.538427
v 5.121871 63.469284 20.898687
v -10.143583 -1.359323 19.104317
v -8.238588 -1.261421 17.643538
v 13.437686 60.236485 18.504484
v 13.401394 59.771877 18.829065
v 20.998413 66.000000 -4.792754
v 21.448414 65.550003 -4.895461
v 19.962893 57.322506 12.805501
v 20.041056 56.806782 13.030119
v -18.584061 55.417778 9.926504
v -17.856419 55.108376 7.657744
v 23.584108 55.705368 4.570230
v 23.725794 55.161285 4.650399
v 9.345174 62.000000 -19.405453
v 16.839422 62.000000 -13.428990
v 17.200293 62.450001 -13.716777
v 9.545443 62.450001 -19.821314
v 23.584108 55.705368 -4.570230
v 23.725792 55.161285 -4.650398
v 20.998413 62.000000 4.792754
v 16.839422 62.000000 13.428990
v 17.200293 62.450001 13.716777
v 21.448414 62.450001 4.895461
v 19.962893 57.322506 -12.805501
v 20.041058 56.806786 -13.030122
v 16.839422 66.000000 -13.428990
v 9.345174 66.000000 -19.405453
v 9.545443 65.550003 -19.821314
v 17.200293 65.550003 -13.716777
v 13.437686 60.236485 -18.504484
v 5.300887 63.870155 -20.538427
v 5.121870 63.469288 -20.898685
v 13.401393 59.771877 -18.829063
v -8.238588 -0.449352 -21.649597
v -6.333594 -0.351451 -20.188820
v 16.839422 66.000000 13.428990
v 20.998413 66.000000 4.792754
v 21.448414 65.550003 4.895461
v 17.200293 65.550003 13.716777
v -21.549999 44.500000 2.550000
v -21.549999 44.950001 3.000000
v -22.000000 44.950001 2.550000
v -21.549999 47.049999 3.000000
v -21.549999 47.500000 2.550000
v -22.000000 47.049999 2.550000
v -5.300887 40.129845 -14.538427
v -5.121870 40.530716 -15.101314
v 5.300887 63.870155 -20.538427
v 5.121870 63.469288 -20.898685
v 0.458867 37.557697 -13.098670
v 0.860883 37.858982 -13.605813
v 13.437686 60.236485 -18.504484
v 13.401393 59.771877 -18.829063
v 5.077829 35.494991 -9.064563
v 5.658683 35.716415 -9.415517
v 19.962893 57.322506 -12.805501
v 20.041058 56.806786 -13.030122
v 7.641160 34.350277 -3.235101
v 8.321255 34.527382 -3.360363
v 23.584108 55.705368 -4.570230
v 23.725792 55.161285 -4.650398
v 7.641162 34.350277 3.235101
v 8.321257 34.527382 3.360363
v 23.584108 55.705368 4.570230
v 23.725794 55.161285 4.650399
v 5.077829 35.494995 9.064563
v 5.658680 35.716412 9.415514
v 19.962893 57.322506 12.805501
v 20.041056 56.806782 13.030119
v 0.458866 37.557697 13.098670
v 0.860884 37.858982 13.605815
v 13.437686 60.236485 18.504484
v 13.401394 59.771877 18.829065
v -5.300888 40.129845 14.538427
v -5.121870 40.530712 15.101313
v 5.300888 63.870155 20.538427
v 5.121871 63.469284 20.898687
v -11.060641 42.701992 13.098670
v -11.104621 43.202446 13.605812
v -2.835917 67.503822 18.504482
v -3.157653 67.166695 18.829067
v -15.679603 44.764694 9.064563
v -15.902423 45.345009 9.415516
v -9.361115 70.417809 12.805505
v -9.797318 70.131790 13.030119
v -18.242933 45.909409 3.235104
v -18.564993 46.534046 3.360359
v -12.982334 72.034943 4.570233
v -13.482056 71.777290 4.650400
v -18.242933 45.909409 -3.235104
v -18.564997 46.534046 -3.360360
v -12.982336 72.034943 -4.570232
v -13.482050 71.777290 -4.650398
v -15.679603 44.764690 -9.064563
v -15.902420 45.345013 -9.415513
v -9.361117 70.417809 -12.805505
v -9.797317 70.131790 -13.030117
v -11.060642 42.701992 -13.098670
v -11.104621 43.202446 -13.605812
v -2.835913 67.503830 -18.504482
v -3.157651 67.166695 -18.829065
v 0.000000 62.000000 -21.538427
v 0.000000 62.450001 -22.000000
v 0.000000 66.000000 -21.538427
v 0.000000 65.550003 -22.000000
v 9.345174 62.000000 -19.405453
v 9.545443 62.450001 -19.821314
v 9.345174 66.000000 -19.405453
v 9.545443 65.550003 -19.821314
v 16.839422 62.000000 -13.428990
v 17.200293 62.450001 -13.716777
v 16.839422 66.000000 -13.428990
v 17.200293 65.550003 -13.716777
v 20.998413 62.000000 -4.792754
v 21.448414 62.450001 -4.895461
v 20.998413 66.000000 -4.792754
v 21.448414 65.550003 -4.895461
v 20.998413 62.000000 4.792754
v 21.448414 62.450001 4.895461
v 20.998413 66.000000 4.792754
v 21.448414 65.550003 4.895461
v 16.839422 62.000000 13.428990
v 17.200293 62.450001 13.716777
v 16.839422 66.000000 13.428990
v 17.200293 65.550003 13.716777
v 9.345174 62.000000 19.405453
v 9.545443 62.450001 19.821314
v 9.345174 66.000000 19.405453
v 9.545443 65.550003 19.821314
v 0.000000 62.000000 21.538427
v 0.000000 62.450001 22.000000
v 0.000000 66.000000 21.538427
v 0.000000 65.550003 22.000000
v -9.345174 62.000000 19.405453
v -9.545443 62.450001 19.821314
v -9.345174 66.000000 19.405453
v -9.545443 65.550003 19.821314
v -16.839422 62.000000 13.428990
v -17.200293 62.450001 13.716777
v -16.839422 66.000000 13.428990
v -17.200293 65.550003 13.716777
v -20.998413 62.000000 4.792754
v -21.448414 62.450001 4.895461
v -20.998413 66.000000 4.792754
v -21.448414 65.550003 4.895461
v -20.998413 62.000000 -4.792754
v -21.448414 62.450001 -4.895461
v -20.998413 66.000000 -4.792754
v -21.448414 65.550003 -4.895461
v -16.839422 62.000000 -13.428990
v -17.200293 62.450001 -13.716777
v -16.839422 66.000000 -13.428990
v -17.200293 65.550003 -13.716777
v -9.345174 62.000000 -19.405453
v -9.545443 62.450001 -19.821314
v -9.345174 66.000000 -19.405453
v -9.545443 65.550003 -19.821314
v -8.238588 -1.261421 17.643538
v -8.684791 -0.958025 17.284374
v -7.971189 -0.816254 17.255636
v -19.761412 54.449352 6.350403
v -19.315210 54.030037 6.137741
v -20.028811 53.888268 6.166479
v -6.333594 -0.602394 18.950878
v -6.261333 -0.224736 18.429058
v -6.040819 -0.043352 19.098852
v -17.856419 55.108376 7.657744
v -17.384840 54.802940 7.980958
v -17.605354 54.621559 7.311163
v -7.061237 -0.292993 21.219639
v -6.693926 0.234356 21.135212
v -7.271241 0.204687 21.577906
v -18.584061 55.417778 9.926504
v -18.615263 55.050980 10.460009
v -18.037947 55.080650 10.017315
v -9.415940 -0.760802 21.314466
v -9.384738 -0.215202 21.663021
v -9.962053 -0.414922 21.266827
v -20.938763 54.949974 10.021334
v -21.306074 54.431374 10.148931
v -20.728758 54.631096 10.545126
v -10.143583 -1.359323 19.104317
v -10.615160 -0.952133 19.283073
v -10.394645 -1.045897 18.595518
v -21.666405 54.351452 7.811181
v -21.738667 53.800400 7.477621
v -21.959181 53.894165 8.165177
v -8.238588 -0.449352 -21.649597
v -8.684790 -0.030041 -21.862259
v -7.971189 0.111730 -21.833521
v -19.761412 55.261421 -10.356462
v -19.315210 54.958023 -10.715625
v -20.028811 54.816254 -10.744363
v -6.333594 -0.351451 -20.188820
v -6.261334 0.199602 -20.522379
v -6.040819 0.105837 -19.834824
v -17.856419 55.359325 -8.895684
v -17.384840 54.952133 -8.716927
v -17.605354 55.045898 -9.404482
v -7.061237 -0.949972 -17.978668
v -6.693925 -0.431374 -17.851068
v -7.271241 -0.631094 -17.454874
v -18.584061 54.760803 -6.685533
v -18.615263 54.215202 -6.336978
v -18.037947 54.414925 -6.733173
v -9.415939 -1.417780 -18.073496
v -9.384738 -1.050983 -17.539989
v -9.962053 -1.080652 -17.982683
v -20.938763 54.292992 -6.780362
v -21.306074 53.765640 -6.864789
v -20.728758 53.795311 -6.422094
v -10.143582 -1.108379 -20.342255
v -10.615160 -0.802944 -20.019041
v -10.394645 -0.621560 -20.688835
v -21.666405 54.602394 -9.049122
v -21.738667 54.224731 -9.570940
v -21.959181 54.043350 -8.901146
v 8.238588 -1.261421 17.643538
v 7.971189 -0.816254 17.255636
v 8.684791 -0.958025 17.284374
v 19.761412 54.449352 6.350402
v 20.028811 53.888268 6.166479
v 19.315210 54.030037 6.137741
v 10.143583 -1.359323 19.104317
v 10.394646 -1.045898 18.595518
v 10.615160 -0.952133 19.283073
v 21.666405 54.351452 7.811181
v 21.959181 53.894165 8.165177
v 21.738667 53.800400 7.477621
v 9.415940 -0.760802 21.314466
v 9.962053 -0.414922 21.266827
v 9.384738 -0.215201 21.663021
v 20.938763 54.949970 10.021334
v 20.728758 54.631096 10.545125
v 21.306074 54.431374 10.148931
v 7.061237 -0.292993 21.219639
v 7.271241 0.204687 21.577906
v 6.693925 0.234356 21.135212
v 18.584061 55.417778 9.926503
v 18.037947 55.080650 10.017315
v 18.615263 55.050980 10.460009
v 6.333594 -0.602395 18.950878
v 6.040819 -0.043352 19.098852
v 6.261334 -0.224736 18.429058
v 17.856419 55.108376 7.657743
v 17.605354 54.621559 7.311163
v 17.384840 54.802940 7.980958
v 8.238588 -0.449352 -21.649597
v 7.971189 0.111729 -21.833521
v 8.684791 -0.030041 -21.862259
v 19.761412 55.261417 -10.356462
v 20.028811 54.816254 -10.744363
v 19.315210 54.958023 -10.715625
v 10.143582 -1.108379 -20.342255
v 10.394645 -0.621560 -20.688835
v 10.615160 -0.802944 -20.019041
v 21.666407 54.602394 -9.049122
v 21.959181 54.043350 -8.901146
v 21.738667 54.224731 -9.570941
v 9.415939 -1.417780 -18.073496
v 9.962053 -1.080652 -17.982683
v 9.384738 -1.050983 -17.539989
v 20.938763 54.292992 -6.780362
v 20.728758 53.795311 -6.422094
v 21.306074 53.765640 -6.864789
v 7.061237 -0.949972 -17.978668
v 7.271241 -0.631094 -17.454874
v 6.693925 -0.431374 -17.851068
v 18.584061 54.760803 -6.685533
v 18.037947 54.414925 -6.733173
v 18.615263 54.215202 -6.336978
v 6.333594 -0.351451 -20.188820
v 6.040819 0.105837 -19.834824
v 6.261334 0.199602 -20.522379
v 17.856419 55.359322 -8.895685
v 17.605354 55.045898 -9.404482
v 17.384840 54.952133 -8.716927
v -21.549999 44.500000 -2.550000
v -22.000000 44.950001 -2.550000
v -21.549999 44.950001 -3.000000
v -21.549999 47.500000 -2.550000
v -21.549999 47.049999 -3.000000
v -22.000000 47.049999 -2.550000
v 21.549999 44.500000 2.550000
v 22.000000 44.950001 2.550000
v 21.549999 44.950001 3.000000
v 21.549999 47.500000 2.550000
v 21.549999 47.049999 3.000000
v 22.000000 47.049999 2.550000
v 21.549999 44.500000 -2.550000
v 21.549999 44.950001 -3.000000
v 22.000000 44.950001 -2.550000
v 21.549999 47.500000 -2.550000
v 22.000000 47.049999 -2.550000
v 21.549999 47.049999 -3.000000
v -16.839422 66.000000 -13.428990
v -7.061237 -0.949972 -17.978668
v -9.545443 62.450001 -19.821314
v -9.345174 62.000000 -19.405453
v -9.545443 65.550003 -19.821314
v -9.345174 66.000000 -19.405453
v 21.549999 44.500000 2.550000
v 22.000000 44.950001 -2.550000
v 22.000000 44.950001 2.550000
v -9.415939 -1.417780 -18.073496
v -20.938763 54.292992 -6.780362
v 9.415939 -1.417780 -18.073496
v 10.143582 -1.108379 -20.342255
v -10.143582 -1.108379 -20.342255
v 19.761412 54.449352 6.350402
v 21.666405 54.351452 7.811181
v -21.666405 54.602394 -9.049122
v 8.238588 -0.449352 -21.649597
v 20.938763 54.949970 10.021334
v 7.061237 -0.292993 21.219639
v 21.549999 47.500000 -2.550000
v 21.549999 47.500000 2.550000
v 22.000000 47.049999 2.550000
v 22.000000 47.049999 -2.550000
v 18.584061 55.417778 9.926503
v 19.761412 55.261417 -10.356462
v 21.666407 54.602394 -9.049122
v 6.333594 -0.602395 18.950878
v 21.549999 47.049999 3.000000
v 21.549999 44.950001 3.000000
v 17.856419 55.108376 7.657743
v -21.549999 47.500000 2.550000
v -21.549999 47.500000 -2.550000
v -22.000000 47.049999 2.550000
v 20.938763 54.292992 -6.780362
v 21.549999 47.049999 -3.000000
v 7.061237 -0.949972 -17.978668
v -21.549999 44.950001 3.000000
v -21.549999 47.049999 3.000000
v -22.000000 44.950001 2.550000
v 18.584061 54.760803 -6.685533
v 6.333594 -0.351451 -20.188820
v -21.549999 44.500000 2.550000
v 17.856419 55.359322 -8.895685
vn -0.5458 0.7160 -0.4352
vn -0.7588 0.4606 -0.4606
vn -0.7588 -0.4606 -0.4606
vn -0.4606 0.4606 -0.7588
vn -0.5458 -0.7160 -0.4352
vn -0.1410 -0.8218 -0.5520
vn -0.6806 0.7160 -0.1553
vn -0.6806 -0.7160 -0.1553
vn -0.6806 0.7160 0.1553
vn -0.6806 -0.7160 0.1553
vn -0.5458 0.7160 0.4352
vn -0.1410 0.8218 -0.5520
vn -0.5458 -0.7160 0.4352
vn 0.5154 -0.8556 -0.0486
vn 0.2647 -0.6493 0.7130
vn -0.3029 0.7160 0.6289
vn -0.2647 -0.6493 0.7130
vn -0.3029 -0.7160 0.6289
vn -0.0000 0.7160 0.6981
vn 0.4606 -0.4606 -0.7588
vn -0.4606 -0.4606 -0.7588
vn -0.4606 -0.7588 -0.4606
vn 0.4606 -0.7588 -0.4606
vn -0.0000 -0.7160 0.6981
vn 0.3029 0.7160 0.6289
vn -0.5468 0.7145 0.4365
vn 0.3029 -0.7160 0.6289
vn -0.0476 0.7160 -0.6965
vn -0.2932 0.8257 -0.4820
vn -0.1411 0.5420 -0.8285
vn -0.7975 0.5082 -0.3251
vn -0.4295 0.8865 -0.1720
vn -0.0000 -0.7160 -0.6981
vn -0.4295 0.8865 0.1720
vn -0.2932 0.8257 0.4820
vn 0.2647 0.6493 0.7130
vn 0.5154 0.8556 -0.0486
vn 0.7975 -0.5947 -0.1015
vn 0.5468 -0.4881 0.6803
vn -0.0476 0.7160 0.6965
vn -0.0000 0.7160 -0.6981
vn 0.6806 -0.7160 -0.1553
vn 0.2587 0.5792 0.7730
vn -0.5154 -0.8556 -0.0486
vn 0.1410 -0.8218 -0.5520
vn 0.5649 0.4424 0.6965
vn 0.6806 0.7160 -0.1553
vn 0.8105 0.3328 0.4820
vn 0.2647 0.8757 0.4038
vn 0.5154 0.7691 -0.3780
vn 0.9468 0.2719 0.1720
vn 0.3029 -0.7160 -0.6289
vn 0.5458 -0.7160 -0.4352
vn 0.9468 0.2719 -0.1720
vn 0.6806 -0.7160 0.1553
vn 0.5458 -0.7160 0.4352
vn 0.8105 0.3328 -0.4820
vn 0.5458 0.7160 -0.4352
vn 0.3029 0.7160 -0.6289
vn 0.5649 0.4424 -0.6965
vn 0.2587 0.5792 -0.7730
vn 0.1410 -0.5420 -0.8285
vn 0.7975 -0.5082 -0.3251
vn 0.5458 0.7160 0.4352
vn 0.6806 0.7160 0.1553
vn -0.0000 -1.0000 -0.0000
vn -0.0000 -0.0000 1.0000
vn -1.0000 -0.0000 -0.0000
vn -0.0000 1.0000 -0.0000
vn -0.3796 -0.8499 -0.3654
vn -0.2109 -0.4722 -0.8559
vn 0.4078 0.9131 -0.0000
vn -0.0917 -0.2053 -0.9744
vn -0.2348 -0.9146 -0.3292
vn 0.1282 -0.6236 -0.7711
vn 0.2943 -0.3777 -0.8779
vn -0.1187 -0.9664 -0.2278
vn 0.4001 -0.7451 -0.5336
vn 0.6039 -0.5160 -0.6075
vn -0.0543 -0.9952 -0.0813
vn 0.5510 -0.8124 -0.1905
vn 0.7757 -0.5927 -0.2168
vn -0.0543 -0.9952 0.0813
vn 0.5510 -0.8124 0.1905
vn 0.7757 -0.5927 0.2168
vn -0.1187 -0.9664 0.2278
vn 0.4001 -0.7451 0.5336
vn 0.6039 -0.5160 0.6075
vn -0.2348 -0.9146 0.3292
vn 0.1282 -0.6236 0.7711
vn 0.2943 -0.3777 0.8779
vn -0.3796 -0.8499 0.3654
vn -0.2109 -0.4722 0.8559
vn -0.0917 -0.2053 0.9744
vn -0.5243 -0.7853 0.3292
vn -0.5500 -0.3208 0.7711
vn -0.4777 -0.0329 0.8779
vn -0.6404 -0.7335 0.2278
vn -0.8219 -0.1993 0.5336
vn -0.7873 0.1053 0.6075
vn -0.7048 -0.7047 0.0813
vn -0.9728 -0.1319 0.1905
vn -0.9591 0.1820 0.2168
vn -0.7048 -0.7047 -0.0813
vn -0.9728 -0.1320 -0.1905
vn -0.9591 0.1820 -0.2168
vn -0.6404 -0.7335 -0.2278
vn -0.8219 -0.1993 -0.5336
vn -0.7873 0.1053 -0.6075
vn -0.5243 -0.7853 -0.3292
vn -0.5500 -0.3208 -0.7711
vn -0.4777 -0.0329 -0.8779
vn -0.0000 -0.0000 -1.0000
vn 0.4339 -0.0000 -0.9010
vn 0.7818 -0.0000 -0.6235
vn 0.9749 -0.0000 -0.2225
vn 0.9749 -0.0000 0.2225
vn 0.7818 -0.0000 0.6235
vn 0.4339 -0.0000 0.9010
vn -0.4339 -0.0000 0.9010
vn -0.7818 -0.0000 0.6235
vn -0.9749 -0.0000 0.2225
vn -0.9749 -0.0000 -0.2225
vn -0.7818 -0.0000 -0.6235
vn -0.4339 -0.0000 -0.9010
vn 0.1987 -0.9605 0.1947
vn -0.2414 -0.5618 -0.7913
vn 0.3755 -0.4392 -0.8162
vn -0.1987 0.9605 -0.1947
vn 0.2414 0.2093 -0.9476
vn -0.3755 0.0867 -0.9228
vn 0.7987 -0.2928 -0.5257
vn 0.9893 -0.1360 0.0532
vn 0.8552 0.5124 -0.0782
vn 0.6645 0.3557 -0.6572
vn 0.8276 -0.0673 0.5572
vn 0.3286 -0.0929 0.9399
vn 0.1945 0.5555 0.8084
vn 0.6935 0.5812 0.4258
vn -0.1945 -0.1969 0.9610
vn -0.6935 -0.3695 0.6185
vn -0.8276 0.2790 0.4870
vn -0.3286 0.4516 0.8295
vn -0.8552 -0.5025 0.1275
vn -0.6645 -0.5835 -0.4668
vn -0.7987 0.0650 -0.5983
vn -0.9893 0.1460 -0.0039
vn 0.1987 -0.9605 -0.1947
vn -0.2414 -0.2093 -0.9476
vn 0.3755 -0.0867 -0.9228
vn -0.1987 0.9605 0.1947
vn 0.2414 0.5618 -0.7913
vn -0.3755 0.4392 -0.8162
vn 0.7987 -0.0650 -0.5983
vn 0.9893 -0.1460 -0.0039
vn 0.8551 0.5025 0.1275
vn 0.6645 0.5835 -0.4668
vn 0.8276 -0.2790 0.4870
vn 0.3286 -0.4516 0.8295
vn 0.1945 0.1969 0.9610
vn 0.6935 0.3695 0.6185
vn -0.1945 -0.5555 0.8084
vn -0.6935 -0.5812 0.4258
vn -0.8276 0.0673 0.5572
vn -0.3286 0.0929 0.9399
vn -0.8551 -0.5124 -0.0782
vn -0.6645 -0.3557 -0.6572
vn -0.7987 0.2928 -0.5257
vn -0.9893 0.1360 0.0532
vn -0.1987 -0.9605 0.1947
vn -0.3755 -0.4392 -0.8162
vn 0.2414 -0.5618 -0.7913
vn 0.1987 0.9605 -0.1947
vn 0.3755 0.0867 -0.9228
vn -0.2414 0.2093 -0.9476
vn 0.6645 -0.5835 -0.4668
vn 0.8551 -0.5025 0.1275
vn 0.9893 0.1460 -0.0039
vn 0.7987 0.0650 -0.5983
vn 0.6935 -0.3695 0.6185
vn 0.1945 -0.1969 0.9610
vn 0.3286 0.4516 0.8295
vn 0.8276 0.2790 0.4870
vn -0.3286 -0.0929 0.9399
vn -0.8276 -0.0673 0.5572
vn -0.6935 0.5812 0.4258
vn -0.1945 0.5555 0.8084
vn -0.9893 -0.1360 0.0532
vn -0.7987 -0.2928 -0.5257
vn -0.6645 0.3557 -0.6572
vn -0.8551 0.5124 -0.0782
vn -0.1987 -0.9605 -0.1947
vn -0.3755 -0.0867 -0.9228
vn 0.2414 -0.2093 -0.9476
vn 0.1987 0.9605 0.1947
vn 0.3755 0.4392 -0.8162
vn -0.2414 0.5618 -0.7913
vn 0.6645 -0.3557 -0.6572
vn 0.8551 -0.5124 -0.0782
vn 0.9893 0.1360 0.0532
vn 0.7987 0.2928 -0.5257
vn 0.6935 -0.5812 0.4258
vn 0.1945 -0.5555 0.8084
vn 0.3286 0.0929 0.9399
vn 0.8276 0.0673 0.5572
vn -0.3286 -0.4516 0.8295
vn -0.8276 -0.2790 0.4870
vn -0.6935 0.3695 0.6185
vn -0.1945 0.1969 0.9610
vn -0.9893 -0.1460 -0.0039
vn -0.7987 -0.0650 -0.5983
vn -0.6645 0.5835 -0.4668
vn -0.8551 0.5025 0.1275
vn 1.0000 -0.0000 -0.0000
vn 0.5468 -0.7145 0.4365
vn -0.3029 -0.7160 -0.6289
vn -0.3029 0.7160 -0.6289
vn 0.4606 -0.7588 0.4606
vn 0.7588 -0.4606 -0.4606
vn 0.7588 -0.4606 0.4606
vn -0.2647 -0.8757 0.4039
vn -0.5468 0.4881 0.6803
vn 0.2647 -0.8757 0.4039
vn 0.5154 -0.7691 -0.3780
vn -0.5154 -0.7691 -0.3780
vn 0.1410 0.5420 -0.8285
vn 0.7975 0.5082 -0.3251
vn -0.7975 0.5947 -0.1015
vn -0.1410 -0.5420 -0.8285
vn 0.5467 0.7145 0.4365
vn -0.5468 -0.4881 0.6803
vn 0.4606 0.7588 -0.4606
vn 0.4606 0.7588 0.4606
vn 0.7588 0.4606 0.4606
vn 0.7588 0.4606 -0.4606
vn -0.2647 0.8757 0.4039
vn 0.1410 0.8218 -0.5520
vn 0.7975 0.5947 -0.1015
vn -0.7975 -0.5947 -0.1015
vn 0.4606 0.4606 0.7588
vn 0.4606 -0.4606 0.7588
vn -0.5154 0.7691 -0.3780
vn -0.4606 0.7588 0.4606
vn -0.4606 0.7588 -0.4606
vn -0.7588 0.4606 0.4606
vn 0.5468 0.4881 0.6803
vn 0.4606 0.4606 -0.7588
vn -0.5467 -0.7145 0.4365
vn -0.4606 -0.4606 0.7588
vn -0.4606 0.4606 0.7588
vn -0.7588 -0.4606 0.4606
vn -0.2647 0.6493 0.7130
vn -0.7975 -0.5082 -0.3251
vn -0.4606 -0.7588 0.4606
vn -0.5154 0.8556 -0.0486
vt -1.077500 2.352500
vt -1.077500 2.375000
vt -1.100000 2.352500
vt -0.411929 -0.063071
vt -0.434240 -0.047901
vt -0.398559 -0.040813
vt -1.077500 2.225000
vt -1.077500 2.247500
vt -1.100000 2.247500
vt -0.988071 2.722468
vt -0.965761 2.701502
vt -1.001441 2.694413
vt -0.947544 -0.030120
vt -0.921453 -0.011237
vt -0.954943 -0.002168
vt -0.382887 2.755419
vt -0.399048 2.740147
vt -0.365558 2.731078
vt -0.353062 -0.014650
vt -0.334696 0.011718
vt -0.363562 0.010234
vt -0.929203 -0.496325
vt -0.930763 -0.523000
vt -0.901897 -0.500866
vt -0.470797 -0.038040
vt -0.469237 -0.010760
vt -0.498103 -0.020746
vt -0.501067 2.747499
vt -0.507447 2.721569
vt -0.527256 2.731555
vt -0.507179 -0.955216
vt -0.530758 -0.964154
vt -0.519732 -0.929776
vt -0.390559 2.717573
vt -0.373881 2.690020
vt -0.408259 2.694708
vt -0.411929 -0.022468
vt -0.434239 -0.001502
vt -0.398559 0.005586
vt -0.988071 2.763071
vt -0.965761 2.747901
vt -1.001441 2.740813
vt 1.009441 -0.017573
vt 1.026119 0.009980
vt 0.991741 0.005292
vt -0.892821 0.444784
vt -0.869242 0.435846
vt -0.880268 0.470224
vt 0.898933 -0.047499
vt 0.892553 -0.021569
vt 0.872744 -0.031555
vt -0.929203 2.738040
vt -0.930763 2.710760
vt -0.901897 2.720746
vt -0.470797 0.903675
vt -0.469237 0.876999
vt -0.498103 0.899134
vt -1.046938 2.714650
vt -1.065304 2.688282
vt -1.036438 2.689765
vt 1.017113 -0.055419
vt 1.000952 -0.040147
vt 1.034442 -0.031078
vt 0.452456 2.730120
vt 0.478547 2.711236
vt 0.445057 2.702168
vt 0.411929 -0.063071
vt 0.398559 -0.040813
vt 0.434240 -0.047901
vt 0.988071 2.722468
vt 1.001441 2.694413
vt 0.965761 2.701502
vt 0.507179 -0.955216
vt 0.519732 -0.929776
vt 0.530758 -0.964154
vt 0.470797 -0.038040
vt 0.498103 -0.020746
vt 0.469237 -0.010760
vt -0.501067 2.747499
vt -0.527256 2.731555
vt 0.353062 -0.014650
vt 0.363562 0.010234
vt 0.334696 0.011718
vt 0.929203 -0.496325
vt 0.901897 -0.500866
vt 0.930763 -0.523000
vt -0.947544 -0.030120
vt -0.954943 -0.002168
vt -0.921453 -0.011237
vt -0.365558 2.731078
vt 0.411929 -0.022468
vt 0.398559 0.005586
vt 0.434240 -0.001502
vt 0.988071 2.763071
vt 1.001441 2.740813
vt 0.965761 2.747901
vt 1.017113 -0.055419
vt 1.034442 -0.031078
vt 1.000952 -0.040147
vt 0.478547 2.711236
vt 0.470797 0.903675
vt 0.498103 0.899134
vt 0.469237 0.876999
vt 1.046938 2.714650
vt 1.036438 2.689765
vt 1.065304 2.688282
vt 0.898933 -0.047499
vt 0.872744 -0.031555
vt 0.929203 2.738040
vt 0.901897 2.720746
vt 0.930763 2.710760
vt 1.009441 -0.017573
vt 0.991741 0.005292
vt 1.026119 0.009980
vt 0.892821 0.444784
vt 0.880268 0.470224
vt 0.869242 0.435846
vt 1.077500 2.225000
vt 1.100000 2.247500
vt 1.077500 2.247500
vt 1.077500 2.375000
vt 1.077500 2.352500
vt 1.100000 2.352500
vt 1.072421 -0.244773
vt 0.841971 -0.671450
vt 0.860015 -0.685839
vt 0.043044 0.680291
vt -0.265044 0.726921
vt -0.256094 0.755066
vt -0.316680 -0.017573
vt 0.670070 2.988594
vt 0.265044 3.193508
vt 0.671884 3.011824
vt -0.929776 -0.052295
vt 0.282934 0.470776
vt 0.022943 0.654934
vt 0.477272 0.991066
vt 0.841971 0.671450
vt 0.860015 0.685839
vt 0.941453 2.988594
vt 0.640275 2.866125
vt 0.651506 2.840339
vt 1.049921 -0.239638
vt 0.416063 0.168018
vt 0.253891 0.453228
vt -0.964154 -0.047607
vt 0.232520 2.758064
vt 0.228511 2.785268
vt 0.435846 2.747607
vt 0.470224 2.752295
vt 0.416063 -0.168018
vt 0.382058 0.161755
vt 0.467259 0.970273
vt -0.228511 2.785268
vt -0.232520 2.758064
vt 0.253891 -0.453228
vt 0.382058 -0.161755
vt -0.892821 -0.382887
vt -0.640275 2.866125
vt -0.651506 2.840339
vt 1.072421 0.244773
vt 0.043044 -0.680291
vt 0.282934 -0.470776
vt -0.925224 3.011824
vt -0.941453 2.988594
vt -0.411929 -0.882177
vt -0.265044 -0.726921
vt 0.022943 -0.654934
vt 0.670070 2.988594
vt 0.265044 3.193508
vt 0.256094 3.173464
vt 1.049921 0.239638
vt -0.555231 -0.680291
vt -0.256094 -0.755066
vt 0.000000 1.100000
vt -0.141796 3.375191
vt -0.157883 3.358335
vt -1.056761 0.011718
vt -0.470776 2.267251
vt -0.654934 2.135100
vt -0.680291 2.160122
vt -0.929203 0.334277
vt -0.901897 0.336659
vt -0.489866 -0.651506
vt -0.141796 -0.925224
vt -0.468056 -0.640275
vt -0.168018 2.326702
vt -0.453228 2.238235
vt -0.334696 -0.021569
vt -0.674103 -0.232520
vt -0.649117 -0.228512
vt 0.161755 2.295470
vt -0.161755 2.295470
vt 0.000000 1.076921
vt -0.649117 0.228512
vt -0.674102 0.232520
vt -1.083320 2.717573
vt 0.470776 2.267251
vt 0.168018 2.326702
vt -0.901897 2.754033
vt -0.930763 2.752549
vt -0.489866 0.651506
vt -0.468056 0.640275
vt 0.654934 2.135100
vt 0.453228 2.238235
vt -0.157883 0.941453
vt -0.141796 0.925224
vt -0.555231 0.680291
vt -0.553032 0.654934
vt -0.157883 3.358335
vt 0.256094 3.173464
vt 0.477272 -0.991066
vt 0.467259 -0.970273
vt 0.000000 -1.100000
vt 0.000000 -1.076921
vt -0.880268 2.731078
vt -0.892821 2.755419
vt -0.477272 -0.991066
vt -0.498103 -1.063341
vt -0.470797 -1.065723
vt -0.467259 -0.970273
vt 0.498103 -1.063341
vt -0.860015 -0.685839
vt -0.965761 0.535781
vt -0.841971 -0.671450
vt -1.072421 -0.244773
vt -1.065304 2.721569
vt -1.036438 2.731555
vt -1.049921 -0.239638
vt -0.313067 -0.921453
vt -0.398559 -0.862782
vt -1.072421 0.244773
vt -1.036438 -0.527256
vt -1.046938 -0.501067
vt -1.049921 0.239638
vt 0.411929 -0.882177
vt 0.434240 -0.864219
vt -0.860015 0.685839
vt -0.841971 0.671450
vt -0.477272 0.991066
vt -0.467259 0.970273
vt 1.077500 0.127500
vt 1.100000 -0.127500
vt 1.077500 -0.127500
vt -0.353062 0.898933
vt -0.363562 0.872744
vt -0.469237 -0.052549
vt 0.530758 1.000952
vt 0.507179 1.017113
vt -0.507179 1.017113
vt 1.086933 2.690020
vt 1.083320 2.717573
vt 0.339018 2.714650
vt -0.507179 -0.055419
vt -0.519732 -0.031078
vt -1.001441 0.537218
vt -1.083320 0.452456
vt -0.988071 0.517823
vt 0.519732 -0.031078
vt 1.065304 2.721569
vt 1.036438 2.731555
vt 1.100000 0.127500
vt 1.036438 -0.527256
vt 0.930763 2.752549
vt 0.901897 2.754033
vt 1.086933 0.478547
vt 0.988071 0.517823
vt 1.083320 0.452456
vt -1.060982 -0.014650
vt -1.056761 0.011718
vt 0.869242 -0.399048
vt 0.892821 -0.382887
vt 0.313067 -0.921453
vt 0.316680 -0.947544
vt 0.880268 2.731078
vt -1.077500 0.127500
vt -1.100000 -0.127500
vt -1.077500 -0.127500
vt 0.339018 2.714650
vt 0.343239 2.688282
vt 0.469237 -0.052549
vt 0.363562 0.872744
vt 0.363562 -0.031555
vt -1.100000 0.127500
vt 0.901897 0.336659
vt 0.316680 -0.017573
vt 0.313067 0.009980
vt 0.965761 0.535781
vt -0.127500 2.352500
vt 0.127500 2.247500
vt -0.127500 2.247500
vt -0.912147 0.161755
vt -0.256094 2.026536
vt 0.043044 1.892949
vt -0.555231 2.160122
vt 1.179205 -0.228511
vt 0.282934 1.785821
vt 0.470776 1.785821
vt 0.168018 1.726369
vt -0.168018 1.726369
vt -0.470776 1.785821
vt 1.002053 2.840339
vt 0.043044 1.892949
vt 0.282934 1.785821
vt -0.256094 2.026536
vt -0.489866 3.506589
vt -0.795121 2.267251
vt -0.232520 3.588865
vt 0.232520 3.588865
vt -0.795121 2.267251
vt 0.000000 3.277500
vt 0.477272 3.122500
vt 0.000000 3.122500
vt -0.477272 3.277500
vt -0.477272 3.122500
vt 0.477272 3.277500
vt 0.860015 3.122500
vt 0.685839 3.277500
vt 0.244773 3.122500
vt 0.685839 3.122500
vt 0.244773 3.277500
vt -0.244773 3.122500
vt -0.244773 3.277500
vt -0.685839 3.122500
vt 0.860015 3.277500
vt -0.860015 3.122500
vt -0.685839 3.277500
vt -0.860015 3.277500
vt -0.316680 -0.947544
vt -0.353062 -1.060982
vt -0.313067 -0.011237
vt -1.086933 2.690020
vt -0.519732 -0.052295
vt -0.988071 -0.317520
vt -1.063341 -0.020746
vt -0.411929 1.082480
vt -0.313067 0.009980
vt -1.086933 2.711236
vt -1.046938 0.339018
vt 0.336659 2.720746
vt -0.363562 -0.031555
vt 0.899134 -0.054033
vt 0.470797 -1.065723
vt 0.519732 -0.052295
vt 0.313067 -0.011237
vt 1.083320 -0.390559
vt 0.988071 -0.317520
vt -1.063341 -0.020746
vt -0.500866 2.754033
vt 0.353062 0.898933
vt 0.316680 1.009441
vt 0.880268 2.752295
vt 0.929203 0.334277
vt 1.046938 0.339018
vt 0.127500 2.352500
vt 0.925224 3.011824
vt -0.929776 -0.052295
vt -0.869242 -0.399048
vt -0.434240 -0.864219
vt -0.553032 -0.654934
vt -1.060982 -0.014650
vt -0.157883 -0.941453
vt 0.680291 2.160122
vt -0.141796 3.375191
vt -0.498103 -0.054033
vt -0.530758 1.000952
vt -1.086933 0.478547
vt 0.507179 -0.055419
vt 1.046938 -0.501067
vt 1.001441 0.537218
vt 0.398559 -0.862782
vt 0.892821 2.755419
vt 0.498103 -0.054033
vt 0.334696 -0.021569
vt -0.783980 -0.453228
vt -0.912147 -0.161755
vt -0.783980 0.453228
vt 0.998145 0.640275
vt 0.671884 0.925224
vt 0.265044 1.026921
vt 0.265044 -1.026921
vt 0.671884 -0.925224
vt 0.998145 -0.640275
vt 1.179205 0.228511
vt 1.002053 2.840339
vt -0.651506 3.506589
vt 0.651506 3.506589
vt -0.489866 3.506589
vt -1.083320 -0.390559
vt -0.316680 1.009441
vt -0.880268 2.752295
vt 0.353062 -1.060982
vt 0.411929 1.082480
vt 1.086933 2.711236
s 1
f 399/1/250 392/2/243 394/3/245
f 68/4/45 224/5/127 225/6/128
f 403/7/254 398/8/249 400/9/251
f 45/10/30 227/11/130 228/12/131
f 57/13/38 230/14/132 231/15/133
f 76/16/50 233/17/134 234/18/135
f 58/19/39 236/20/136 237/21/137
f 75/22/49 239/23/138 240/24/139
f 25/25/17 242/26/140 243/27/141
f 38/28/26 245/29/142 246/30/143
f 67/31/44 248/32/144 249/33/145
f 46/34/31 251/35/146 252/36/147
f 99/37/62 254/38/149 255/39/150
f 18/40/12 257/41/152 258/42/153
f 100/43/63 260/44/154 261/45/155
f 56/46/37 263/47/156 264/48/157
f 362/49/215 266/50/158 267/51/159
f 55/52/36 269/53/160 270/54/161
f 370/55/221 272/56/162 273/57/163
f 371/58/222 275/59/164 276/60/165
f 374/61/225 278/62/166 279/63/167
f 377/64/228 281/65/168 282/66/169
f 7/67/6 284/68/171 285/69/172
f 375/70/226 287/71/174 288/72/175
f 21/73/14 290/74/176 291/75/177
f 376/34/227 293/36/178 294/35/179
f 22/76/15 296/77/180 297/78/181
f 379/79/230 299/80/182 300/29/183
f 380/81/231 302/82/184 303/83/185
f 385/84/236 305/85/186 306/86/187
f 388/87/239 308/88/188 309/89/189
f 391/16/242 311/90/190 312/17/191
f 378/91/229 314/92/193 315/93/194
f 386/94/237 317/95/196 318/96/197
f 373/97/224 320/98/198 321/99/199
f 387/64/238 323/66/200 324/100/201
f 372/101/223 326/102/202 327/103/203
f 395/104/246 329/105/204 330/106/205
f 397/107/248 332/108/206 333/50/207
f 401/109/252 335/110/208 336/111/209
f 402/112/253 338/113/210 339/114/211
f 404/115/255 341/116/212 342/117/213
f 32/7/22 3/9/3 31/8/21
f 393/2/244 4/1/4 2/3/2
f 367/118/218 369/119/220 390/120/241
f 382/121/233 389/122/240 383/123/234
f 33/118/23 30/120/20 368/119/219
f 381/121/232 384/123/235 396/122/247
f 103/124/65 101/125/64 104/126/64
f 116/127/75 111/128/70 112/129/71
f 255/39/150 100/130/63 99/37/62
f 98/131/60 96/132/61 95/133/60
f 249/134/145 252/36/147 251/35/146
f 120/135/78 115/136/74 116/127/75
f 93/137/59 91/138/58 94/139/58
f 98/140/60 89/141/57 90/142/57
f 87/126/56 85/143/55 88/124/55
f 124/144/81 119/145/77 120/135/78
f 291/146/177 294/35/179 293/36/178
f 84/147/54 89/141/57 83/148/54
f 263/149/156 260/44/154 264/150/157
f 128/151/84 123/152/80 124/144/81
f 81/139/53 79/153/52 82/137/52
f 84/147/54 77/154/51 78/155/51
f 128/151/84 131/156/86 127/157/83
f 240/24/139 76/158/50 75/22/49
f 78/155/51 73/159/48 74/160/48
f 72/161/47 102/143/65 103/124/65
f 136/162/90 131/156/86 132/163/87
f 74/160/48 69/164/46 70/165/46
f 249/33/145 68/166/45 67/31/44
f 136/162/90 139/167/92 135/168/89
f 70/169/46 65/170/43 66/171/43
f 88/124/55 63/172/42 64/161/42
f 144/173/96 139/167/92 140/174/93
f 62/175/41 92/153/59 93/137/59
f 66/171/43 59/176/40 60/177/40
f 236/178/136 57/13/38 231/15/133
f 148/179/99 143/180/95 144/181/96
f 263/47/156 55/182/36 270/183/161
f 54/184/35 59/185/40 53/186/35
f 152/187/102 147/188/98 148/179/99
f 269/53/160 266/189/158 270/54/161
f 52/190/34 53/186/35 51/191/34
f 94/139/58 71/172/47 72/161/47
f 152/187/102 155/192/104 151/193/101
f 82/137/52 49/194/33 50/175/33
f 52/190/34 47/195/32 48/196/32
f 228/12/131 46/197/31 45/10/30
f 160/198/108 155/192/104 156/199/105
f 237/21/137 240/200/139 239/201/138
f 44/202/29 47/195/32 43/203/29
f 64/161/42 80/138/53 81/139/53
f 160/198/108 163/204/110 159/205/107
f 254/38/149 257/41/152 255/39/150
f 42/206/28 43/203/29 41/207/28
f 164/208/111 111/128/70 163/209/110
f 42/210/28 96/132/61 97/211/61
f 231/15/133 234/18/135 233/17/134
f 40/212/27 86/125/56 87/126/56
f 245/29/142 46/34/31 252/36/147
f 104/126/64 36/213/25 37/212/25
f 224/5/127 227/11/130 225/6/128
f 35/214/24 39/213/27 40/212/27
f 32/7/22 30/120/20 33/118/23
f 37/212/25 28/215/19 29/214/19
f 234/216/135 45/10/30 76/217/50
f 27/218/18 34/215/24 35/214/24
f 243/219/141 67/31/44 25/220/17
f 29/214/19 23/221/16 24/218/16
f 296/222/180 21/73/14 291/75/177
f 20/223/13 26/221/18 27/218/18
f 257/224/152 56/46/37 264/48/157
f 24/218/16 16/225/11 17/223/11
f 321/99/199 324/100/201 323/66/200
f 15/226/10 19/225/13 20/223/13
f 245/227/142 242/26/140 246/228/143
f 17/223/11 12/229/9 13/226/9
f 230/230/132 68/166/45 225/231/128
f 11/232/8 14/229/10 15/226/10
f 246/233/143 75/22/49 38/234/26
f 13/226/9 8/235/7 9/232/7
f 290/74/176 7/236/6 285/237/172
f 6/238/5 10/235/8 11/232/8
f 31/8/21 2/3/2 4/1/4
f 9/232/7 361/239/1 1/238/1
f 261/45/155 362/49/215 100/43/63
f 363/240/216 5/239/5 6/238/5
f 242/26/140 58/19/39 237/21/137
f 1/238/1 366/241/217 365/240/217
f 50/175/33 364/241/216 363/240/216
f 365/240/217 61/194/41 62/175/41
f 33/242/23 369/243/220 367/244/218
f 272/56/162 362/245/215 267/246/159
f 284/68/171 287/71/174 285/69/172
f 269/53/160 371/58/222 276/60/165
f 275/59/164 272/247/162 276/60/165
f 321/248/199 372/101/223 373/249/224
f 273/57/163 374/250/225 370/55/221
f 294/251/179 375/70/226 376/252/227
f 282/66/169 371/253/222 377/64/228
f 281/65/168 278/62/166 282/66/169
f 254/38/149 374/254/225 279/255/167
f 258/256/153 377/257/228 18/258/12
f 320/259/198 378/91/229 315/93/194
f 293/36/178 379/79/230 300/29/183
f 297/78/181 300/260/183 299/261/182
f 314/92/193 317/95/196 315/93/194
f 297/78/181 380/81/231 22/76/15
f 382/244/233 384/262/235 381/242/232
f 299/263/182 385/84/236 306/86/187
f 303/83/185 306/264/187 305/265/186
f 324/266/201 386/267/237 387/268/238
f 308/88/188 380/269/231 303/270/185
f 390/120/241 383/123/234 389/122/240
f 312/271/191 385/84/236 391/272/242
f 309/89/189 312/17/191 311/90/190
f 309/273/189 7/236/6 388/274/239
f 311/275/190 375/70/226 288/72/175
f 393/276/244 394/277/245 392/278/243
f 323/66/200 395/279/246 330/280/205
f 327/281/203 330/106/205 329/105/204
f 368/119/219 396/122/247 384/123/235
f 332/282/206 372/101/223 327/103/203
f 399/1/250 400/9/251 398/8/249
f 336/111/209 395/104/246 401/109/252
f 335/110/208 332/283/206 336/111/209
f 381/121/232 4/1/4 393/2/244
f 338/113/210 397/107/248 333/50/207
f 403/278/254 3/284/3 32/276/22
f 335/285/208 404/115/255 342/117/213
f 341/150/212 338/113/210 342/149/213
f 314/92/193 402/286/253 339/287/211
f 318/288/197 404/115/255 386/267/237
f 367/118/218 398/8/249 403/7/254
f 392/2/243 389/122/240 382/121/233
f 355/242/66 105/278/66 343/276/66
f 110/289/68 344/290/68 107/291/68
f 353/122/67 106/8/67 351/120/67
f 346/276/69 352/244/69 358/242/69
f 123/152/80 139/167/92 155/292/104
f 112/293/71 118/131/76 116/294/75
f 166/210/112 112/293/71 164/295/111
f 161/203/72 145/185/72 129/296/72
f 118/131/76 120/297/78 116/294/75
f 120/298/78 126/147/82 124/299/81
f 126/147/82 128/300/84 124/299/81
f 128/300/84 134/160/88 132/301/87
f 134/302/88 136/303/90 132/304/87
f 138/169/91 140/305/93 136/303/90
f 142/171/94 144/295/96 140/305/93
f 144/295/96 150/306/100 148/307/99
f 148/179/99 154/308/103 152/187/102
f 154/308/103 156/199/105 152/187/102
f 158/309/106 160/198/108 156/199/105
f 160/310/108 166/210/112 164/295/111
f 195/215/66 211/235/66 171/153/66
f 170/311/113 172/312/114 168/313/113
f 222/314/125 168/313/113 220/315/125
f 193/213/69 177/138/69 217/239/69
f 174/316/114 176/317/115 172/312/114
f 178/318/115 180/319/116 176/320/115
f 182/321/116 184/322/117 180/319/116
f 186/323/117 188/324/118 184/322/117
f 190/325/118 192/312/119 188/317/118
f 194/316/119 196/313/67 192/312/119
f 198/311/67 200/315/120 196/313/67
f 202/314/120 204/326/121 200/315/120
f 206/327/121 208/322/122 204/324/121
f 210/323/122 212/319/123 208/322/122
f 214/321/123 216/320/124 212/319/123
f 218/328/124 220/315/125 216/326/124
f 247/31/126 229/329/126 235/330/126
f 227/11/130 230/331/132 225/6/128
f 251/332/146 224/5/127 249/333/145
f 244/234/129 232/158/129 226/334/129
f 233/17/134 236/178/136 231/15/133
f 239/201/138 242/26/140 237/21/137
f 245/29/142 248/146/144 243/335/141
f 253/336/148 265/245/148 271/55/148
f 257/41/152 260/337/154 255/39/150
f 281/338/168 254/38/149 279/255/167
f 274/339/151 262/46/151 256/258/151
f 261/45/155 270/340/161 266/50/158
f 269/53/160 272/247/162 267/341/159
f 273/342/163 282/66/169 278/62/166
f 307/274/170 289/73/170 295/343/170
f 287/71/174 290/344/176 285/69/172
f 311/275/190 284/68/171 309/345/189
f 304/84/173 292/346/173 286/347/173
f 293/36/178 296/348/180 291/146/177
f 297/78/181 306/264/187 302/82/184
f 305/349/186 308/88/188 303/270/185
f 319/249/192 331/350/192 337/351/192
f 317/95/196 320/259/198 315/93/194
f 341/352/212 314/92/193 339/287/211
f 316/267/195 334/353/195 328/354/195
f 321/99/199 330/280/205 326/342/202
f 329/105/204 332/283/206 327/281/203
f 335/340/208 338/113/210 333/50/207
f 347/1/113 356/120/113 345/8/113
f 359/355/214 350/291/214 357/290/214
f 103/124/65 102/143/65 101/125/64
f 116/127/75 115/136/74 111/128/70
f 255/39/150 260/337/154 100/130/63
f 98/131/60 97/211/61 96/132/61
f 249/134/145 248/146/144 252/36/147
f 120/135/78 119/145/77 115/136/74
f 93/137/59 92/153/59 91/138/58
f 98/140/60 95/356/60 89/141/57
f 87/126/56 86/125/56 85/143/55
f 124/144/81 123/152/80 119/145/77
f 291/146/177 290/357/176 294/35/179
f 84/147/54 90/142/57 89/141/57
f 263/149/156 261/45/155 260/44/154
f 128/151/84 127/157/83 123/152/80
f 81/139/53 80/138/53 79/153/52
f 84/147/54 83/148/54 77/154/51
f 128/151/84 132/163/87 131/156/86
f 240/24/139 233/358/134 76/158/50
f 78/155/51 77/154/51 73/159/48
f 72/161/47 71/172/47 102/143/65
f 136/162/90 135/168/89 131/156/86
f 74/160/48 73/159/48 69/164/46
f 249/33/145 224/359/127 68/166/45
f 136/162/90 140/174/93 139/167/92
f 70/169/46 69/133/46 65/170/43
f 88/124/55 85/143/55 63/172/42
f 144/173/96 143/360/95 139/167/92
f 62/175/41 61/194/41 92/153/59
f 66/171/43 65/170/43 59/176/40
f 236/178/136 58/361/39 57/13/38
f 148/179/99 147/188/98 143/180/95
f 263/47/156 56/46/37 55/182/36
f 54/184/35 60/362/40 59/185/40
f 152/187/102 151/193/101 147/188/98
f 269/53/160 267/341/159 266/189/158
f 52/190/34 54/184/35 53/186/35
f 94/139/58 91/138/58 71/172/47
f 152/187/102 156/199/105 155/192/104
f 82/137/52 79/153/52 49/194/33
f 52/190/34 51/191/34 47/195/32
f 228/12/131 251/332/146 46/197/31
f 160/198/108 159/205/107 155/192/104
f 237/21/137 236/20/136 240/200/139
f 44/202/29 48/196/32 47/195/32
f 64/161/42 63/172/42 80/138/53
f 160/198/108 164/363/111 163/204/110
f 254/38/149 258/42/153 257/41/152
f 42/206/28 44/202/29 43/203/29
f 164/208/111 112/129/71 111/128/70
f 42/210/28 41/364/28 96/132/61
f 231/15/133 230/14/132 234/18/135
f 40/212/27 39/213/27 86/125/56
f 245/29/142 38/28/26 46/34/31
f 104/126/64 101/125/64 36/213/25
f 224/5/127 228/12/131 227/11/130
f 35/214/24 34/215/24 39/213/27
f 32/7/22 31/8/21 30/120/20
f 37/212/25 36/213/25 28/215/19
f 234/216/135 227/11/130 45/10/30
f 27/218/18 26/221/18 34/215/24
f 243/219/141 248/32/144 67/31/44
f 29/214/19 28/215/19 23/221/16
f 296/222/180 22/343/15 21/73/14
f 20/223/13 19/225/13 26/221/18
f 257/224/152 18/258/12 56/46/37
f 24/218/16 23/221/16 16/225/11
f 321/99/199 320/98/198 324/100/201
f 15/226/10 14/229/10 19/225/13
f 245/227/142 243/27/141 242/26/140
f 17/223/11 16/225/11 12/229/9
f 230/230/132 57/329/38 68/166/45
f 11/232/8 10/235/8 14/229/10
f 246/233/143 239/23/138 75/22/49
f 13/226/9 12/229/9 8/235/7
f 290/74/176 21/73/14 7/236/6
f 6/238/5 5/239/5 10/235/8
f 31/8/21 3/9/3 2/3/2
f 9/232/7 8/235/7 361/239/1
f 261/45/155 266/50/158 362/49/215
f 363/240/216 364/241/216 5/239/5
f 242/26/140 25/25/17 58/19/39
f 1/238/1 361/239/1 366/241/217
f 50/175/33 49/194/33 364/241/216
f 365/240/217 366/241/217 61/194/41
f 33/242/23 368/262/219 369/243/220
f 272/56/162 370/55/221 362/245/215
f 284/68/171 288/72/175 287/71/174
f 269/53/160 55/52/36 371/58/222
f 275/59/164 273/365/163 272/247/162
f 321/248/199 326/102/202 372/101/223
f 273/57/163 278/366/166 374/250/225
f 294/251/179 287/71/174 375/70/226
f 282/66/169 275/280/164 371/253/222
f 281/65/168 279/63/167 278/62/166
f 254/38/149 99/37/62 374/254/225
f 258/256/153 281/367/168 377/257/228
f 320/259/198 373/368/224 378/91/229
f 293/36/178 376/34/227 379/79/230
f 297/78/181 296/77/180 300/260/183
f 314/92/193 318/96/197 317/95/196
f 297/78/181 302/82/184 380/81/231
f 382/244/233 383/243/234 384/262/235
f 299/263/182 379/369/230 385/84/236
f 303/83/185 302/82/184 306/264/187
f 324/266/201 317/370/196 386/267/237
f 308/88/188 388/87/239 380/269/231
f 390/120/241 369/119/220 383/123/234
f 312/271/191 305/85/186 385/84/236
f 309/89/189 308/88/188 312/17/191
f 309/273/189 284/371/171 7/236/6
f 311/275/190 391/372/242 375/70/226
f 393/276/244 2/284/2 394/277/245
f 323/66/200 387/64/238 395/279/246
f 327/281/203 326/373/202 330/106/205
f 368/119/219 30/120/20 396/122/247
f 332/282/206 397/350/248 372/101/223
f 399/1/250 394/3/245 400/9/251
f 336/111/209 329/105/204 395/104/246
f 335/110/208 333/374/207 332/283/206
f 381/121/232 396/122/247 4/1/4
f 338/113/210 402/112/253 397/107/248
f 403/278/254 400/277/251 3/284/3
f 335/285/208 401/353/252 404/115/255
f 341/150/212 339/114/211 338/113/210
f 314/92/193 378/91/229 402/286/253
f 318/288/197 341/116/212 404/115/255
f 367/118/218 390/120/241 398/8/249
f 392/2/243 399/1/250 389/122/240
f 355/242/66 349/244/66 105/278/66
f 110/289/68 348/355/68 344/290/68
f 353/122/67 108/1/67 106/8/67
f 346/276/69 109/278/69 352/244/69
f 163/209/110 111/128/70 115/136/74
f 115/136/74 119/145/77 123/152/80
f 123/152/80 127/157/83 131/156/86
f 131/156/86 135/168/89 139/167/92
f 139/167/92 143/360/95 147/375/98
f 147/375/98 151/376/101 155/292/104
f 155/292/104 159/377/107 163/209/110
f 163/209/110 115/136/74 123/152/80
f 123/152/80 131/156/86 139/167/92
f 139/167/92 147/375/98 155/292/104
f 155/292/104 163/209/110 123/152/80
f 112/293/71 114/211/73 118/131/76
f 166/210/112 114/211/73 112/293/71
f 121/378/72 117/379/72 113/380/72
f 113/380/72 165/207/72 161/203/72
f 161/203/72 157/195/72 153/191/72
f 153/191/72 149/186/72 145/185/72
f 145/185/72 141/381/72 137/382/72
f 137/382/72 133/383/72 129/296/72
f 129/296/72 125/384/72 121/378/72
f 121/378/72 113/380/72 161/203/72
f 161/203/72 153/191/72 145/185/72
f 145/185/72 137/382/72 129/296/72
f 129/296/72 121/378/72 161/203/72
f 118/131/76 122/385/79 120/297/78
f 120/298/78 122/142/79 126/147/82
f 126/147/82 130/155/85 128/300/84
f 128/300/84 130/155/85 134/160/88
f 134/302/88 138/169/91 136/303/90
f 138/169/91 142/171/94 140/305/93
f 142/171/94 146/177/97 144/295/96
f 144/295/96 146/177/97 150/306/100
f 148/179/99 150/386/100 154/308/103
f 154/308/103 158/309/106 156/199/105
f 158/309/106 162/387/109 160/198/108
f 160/310/108 162/388/109 166/210/112
f 179/172/66 183/143/66 187/125/66
f 187/125/66 191/213/66 195/215/66
f 195/215/66 199/221/66 203/225/66
f 203/225/66 207/229/66 211/235/66
f 211/235/66 215/239/66 219/241/66
f 219/241/66 167/194/66 171/153/66
f 171/153/66 175/138/66 179/172/66
f 179/172/66 187/125/66 195/215/66
f 195/215/66 203/225/66 211/235/66
f 211/235/66 219/241/66 171/153/66
f 171/153/66 179/172/66 195/215/66
f 170/311/113 174/316/114 172/312/114
f 222/314/125 170/311/113 168/313/113
f 209/229/69 205/225/69 201/221/69
f 201/221/69 197/215/69 193/213/69
f 193/213/69 189/125/69 185/143/69
f 185/143/69 181/172/69 177/138/69
f 177/138/69 173/153/69 169/194/69
f 169/194/69 221/241/69 217/239/69
f 217/239/69 213/235/69 209/229/69
f 209/229/69 201/221/69 193/213/69
f 193/213/69 185/143/69 177/138/69
f 177/138/69 169/194/69 217/239/69
f 217/239/69 209/229/69 193/213/69
f 174/316/114 178/325/115 176/317/115
f 178/318/115 182/321/116 180/319/116
f 182/321/116 186/323/117 184/322/117
f 186/323/117 190/327/118 188/324/118
f 190/325/118 194/316/119 192/312/119
f 194/316/119 198/311/67 196/313/67
f 198/311/67 202/314/120 200/315/120
f 202/314/120 206/328/121 204/326/121
f 206/327/121 210/323/122 208/322/122
f 210/323/122 214/321/123 212/319/123
f 214/321/123 218/318/124 216/320/124
f 218/328/124 222/314/125 220/315/125
f 235/330/126 241/220/126 247/31/126
f 247/31/126 223/166/126 229/329/126
f 227/11/130 234/216/135 230/331/132
f 251/332/146 228/12/131 224/5/127
f 226/334/129 250/389/129 244/234/129
f 244/234/129 238/22/129 232/158/129
f 233/17/134 240/349/139 236/178/136
f 239/201/138 246/228/143 242/26/140
f 245/29/142 252/36/147 248/146/144
f 271/55/148 277/250/148 253/336/148
f 253/336/148 259/390/148 265/245/148
f 257/41/152 264/391/157 260/337/154
f 281/338/168 258/42/153 254/38/149
f 256/258/151 280/257/151 274/339/151
f 274/339/151 268/182/151 262/46/151
f 261/45/155 263/149/156 270/340/161
f 269/53/160 276/60/165 272/247/162
f 273/342/163 275/280/164 282/66/169
f 295/343/170 301/392/170 307/274/170
f 307/274/170 283/236/170 289/73/170
f 287/71/174 294/251/179 290/344/176
f 311/275/190 288/72/175 284/68/171
f 286/347/173 310/272/173 304/84/173
f 304/84/173 298/369/173 292/346/173
f 293/36/178 300/29/183 296/348/180
f 297/78/181 299/261/182 306/264/187
f 305/349/186 312/17/191 308/88/188
f 337/351/192 313/393/192 319/249/192
f 319/249/192 325/101/192 331/350/192
f 317/95/196 324/394/201 320/259/198
f 341/352/212 318/96/197 314/92/193
f 328/354/195 322/268/195 316/267/195
f 316/267/195 340/115/195 334/353/195
f 321/99/199 323/66/200 330/280/205
f 329/105/204 336/111/209 332/283/206
f 335/340/208 342/149/213 338/113/210
f 347/1/113 360/122/113 356/120/113
f 359/355/214 354/289/214 350/291/214
