# Blender 5.2.0 LTS
# www.blender.org
o Backdrop_Surfboard_Detail
v 7.626333 15.457785 -1.600000
v 7.860583 13.142858 -0.900000
v 7.179044 13.303676 -1.600000
v 7.280867 10.952381 -0.900000
v 6.609325 11.150975 -1.600000
v 6.563838 8.761905 -0.900000
v 5.905638 9.001253 -1.600000
v 5.685882 6.571429 -0.900000
v 5.046582 6.857933 -1.600000
v 4.596702 4.380952 -0.900000
v 3.988532 4.730064 -1.600000
v 3.159095 2.190476 -0.900000
v 2.648484 2.688238 -1.600000
v 0.575244 0.398867 -0.900000
v 0.000000 0.851813 -1.600000
v -0.575244 0.398867 -0.900000
v -0.700000 2.200000 5.800000
v 0.000000 1.500000 5.800000
v 0.000000 1.500000 5.800000
v -0.700000 7.800000 5.800000
v 0.000000 1.500000 2.200000
v 0.000000 7.800000 6.500000
v 0.000000 2.200000 1.500000
v -0.700000 2.200000 2.200000
v 0.000000 7.800000 6.500000
v -0.700000 7.800000 2.200000
v 0.000000 2.200000 6.500000
v 0.000000 8.500000 2.200000
v 0.000000 2.200000 6.500000
v 0.700000 2.200000 5.800000
v 0.000000 8.500000 2.200000
v 0.700000 7.800000 5.800000
v 0.000000 8.500000 5.800000
v 0.000000 8.500000 5.800000
v 0.700000 2.200000 2.200000
v 0.000000 2.200000 1.500000
v -4.596702 41.619049 0.900000
v -3.988533 41.269936 1.600000
v -4.596702 41.619049 -0.900000
v -3.988533 41.269936 -1.600000
v -3.159095 43.809525 0.900000
v -0.000000 45.148186 1.600000
v -2.648486 43.311760 1.600000
v -3.159095 43.809525 -0.900000
v -2.648486 43.311760 -1.600000
v -0.000000 45.148186 -1.600000
v 3.159095 43.809525 0.900000
v 2.648486 43.311760 1.600000
v 3.159095 43.809525 -0.900000
v 2.648486 43.311760 -1.600000
v 4.596702 41.619049 0.900000
v 3.988533 41.269936 1.600000
v 4.596702 41.619049 -0.900000
v 3.988533 41.269936 -1.600000
v 5.685882 39.428570 0.900000
v 5.046580 39.142071 1.600000
v 5.685882 39.428570 -0.900000
v 5.046580 39.142071 -1.600000
v 6.563838 37.238094 0.900000
v 5.905642 36.998737 1.600000
v 6.563838 37.238094 -0.900000
v 5.905642 36.998737 -1.600000
v 7.280867 35.047619 0.900000
v 6.609323 34.849033 1.600000
v 7.280867 35.047619 -0.900000
v 0.000000 1.500000 2.200000
v 6.609323 34.849033 -1.600000
v 7.860583 32.857143 0.900000
v 7.179046 32.696316 1.600000
v 7.860583 32.857143 -0.900000
v 7.179046 32.696316 -1.600000
v 8.315423 30.666666 0.900000
v 7.626332 30.542221 1.600000
v 8.315423 30.666666 -0.900000
v 7.626332 30.542221 -1.600000
v 8.652317 28.476191 0.900000
v 7.957728 28.387493 1.600000
v 8.652317 28.476191 -0.900000
v 7.957728 28.387493 -1.600000
v 8.875184 26.285715 0.900000
v 8.176980 26.232550 1.600000
v 8.875184 26.285715 -0.900000
v 8.176980 26.232550 -1.600000
v 8.986150 24.095238 0.900000
v 8.286150 24.077518 1.600000
v 8.986150 24.095238 -0.900000
v 8.286150 24.077518 -1.600000
v 0.000000 7.800000 1.500000
v 8.986150 21.904762 0.900000
v 8.286150 21.922482 1.600000
v 8.986150 21.904762 -0.900000
v 8.286150 21.922482 -1.600000
v 8.875184 19.714285 0.900000
v 8.176980 19.767450 1.600000
v 8.875184 19.714285 -0.900000
v 8.176980 19.767450 -1.600000
v 8.652317 17.523809 0.900000
v 7.957728 17.612507 1.600000
v 8.652317 17.523809 -0.900000
v 7.957728 17.612507 -1.600000
v 8.315423 15.333333 0.900000
v 7.626333 15.457785 1.600000
v 8.315423 15.333333 -0.900000
v 7.626333 15.457785 -1.600000
v 7.860583 13.142858 0.900000
v 7.179044 13.303676 1.600000
v 7.860583 13.142858 -0.900000
v 7.179044 13.303676 -1.600000
v 7.280867 10.952381 0.900000
v 0.700000 7.800000 2.200000
v 6.609325 11.150975 1.600000
v 7.280867 10.952381 -0.900000
v 6.609325 11.150975 -1.600000
v 6.563838 8.761905 0.900000
v 5.905638 9.001253 1.600000
v 6.563838 8.761905 -0.900000
v 5.905638 9.001253 -1.600000
v 5.685882 6.571429 0.900000
v 5.046582 6.857933 1.600000
v 5.685882 6.571429 -0.900000
v 5.046582 6.857933 -1.600000
v 4.596702 4.380952 0.900000
v 3.988532 4.730064 1.600000
v 4.596702 4.380952 -0.900000
v 3.988532 4.730064 -1.600000
v 3.159095 2.190476 0.900000
v 0.000000 0.851813 1.600000
v 2.648484 2.688238 1.600000
v 3.159095 2.190476 -0.900000
v 2.648484 2.688238 -1.600000
v 0.000000 0.851813 -1.600000
v 0.000000 7.800000 1.500000
v 8.315423 15.333333 -0.900000
v 7.957728 17.612507 -1.600000
v 8.652317 17.523809 -0.900000
v 8.176980 19.767450 -1.600000
v 8.875184 19.714285 -0.900000
v 8.286150 21.922482 -1.600000
v 8.986150 21.904762 -0.900000
v 8.286150 24.077518 -1.600000
v 8.986150 24.095238 -0.900000
v 8.176980 26.232550 -1.600000
v 8.875184 26.285715 -0.900000
v 7.957728 28.387493 -1.600000
v 8.652317 28.476191 -0.900000
v 7.626332 30.542221 -1.600000
v 8.315423 30.666666 -0.900000
v 7.179046 32.696316 -1.600000
v 7.860583 32.857143 -0.900000
v 6.609323 34.849033 -1.600000
v 7.280867 35.047619 -0.900000
v 5.905642 36.998737 -1.600000
v 6.563838 37.238094 -0.900000
v 5.046580 39.142071 -1.600000
v 5.685882 39.428570 -0.900000
v 3.988533 41.269936 -1.600000
v 4.596702 41.619049 -0.900000
v 2.648486 43.311760 -1.600000
v 3.159095 43.809525 -0.900000
v 0.575244 45.601135 -0.900000
v -0.000000 45.148186 -1.600000
v -0.575242 45.601135 -0.900000
v -2.648486 43.311760 -1.600000
v -3.159095 43.809525 -0.900000
v -3.988533 41.269936 -1.600000
v -4.596702 41.619049 -0.900000
v -5.046580 39.142071 -1.600000
v -5.685882 39.428570 -0.900000
v -5.905642 36.998737 -1.600000
v -6.563838 37.238094 -0.900000
v -6.609323 34.849033 -1.600000
v -7.280867 35.047619 -0.900000
v -7.179046 32.696316 -1.600000
v -7.860583 32.857143 -0.900000
v -7.626332 30.542221 -1.600000
v -8.315423 30.666666 -0.900000
v -7.957728 28.387493 -1.600000
v -8.652317 28.476191 -0.900000
v -8.176980 26.232550 -1.600000
v -8.875184 26.285715 -0.900000
v -8.286150 24.077518 -1.600000
v -8.986150 24.095238 -0.900000
v -8.286150 21.922482 -1.600000
v -8.986150 21.904762 -0.900000
v -8.176980 19.767450 -1.600000
v -8.875184 19.714285 -0.900000
v -7.957728 17.612507 -1.600000
v -8.652317 17.523809 -0.900000
v -7.626333 15.457785 -1.600000
v -8.315423 15.333333 -0.900000
v -7.179044 13.303676 -1.600000
v -7.860583 13.142858 -0.900000
v -6.609325 11.150975 -1.600000
v -7.280867 10.952381 -0.900000
v -5.905638 9.001253 -1.600000
v -6.563838 8.761905 -0.900000
v -5.046582 6.857933 -1.600000
v -5.685882 6.571429 -0.900000
v -3.988532 4.730064 -1.600000
v -4.596702 4.380952 -0.900000
v -2.648484 2.688238 -1.600000
v -3.159095 2.190476 -0.900000
v -0.575244 0.398867 0.900000
v 0.575244 0.398867 0.900000
v 0.000000 0.851813 1.600000
v 2.648484 2.688238 1.600000
v 3.159095 2.190476 0.900000
v 3.988532 4.730064 1.600000
v 4.596702 4.380952 0.900000
v 5.046582 6.857933 1.600000
v 5.685882 6.571429 0.900000
v 5.905638 9.001253 1.600000
v 6.563838 8.761905 0.900000
v 6.609325 11.150975 1.600000
v 7.280867 10.952381 0.900000
v 7.179044 13.303676 1.600000
v 7.860583 13.142858 0.900000
v 7.626333 15.457785 1.600000
v 8.315423 15.333333 0.900000
v 7.957728 17.612507 1.600000
v 8.652317 17.523809 0.900000
v 8.176980 19.767450 1.600000
v 8.875184 19.714285 0.900000
v 8.286150 21.922482 1.600000
v 8.986150 21.904762 0.900000
v 8.286150 24.077518 1.600000
v 8.986150 24.095238 0.900000
v 8.176980 26.232550 1.600000
v 8.875184 26.285715 0.900000
v 7.957728 28.387493 1.600000
v 8.652317 28.476191 0.900000
v 7.626332 30.542221 1.600000
v 8.315423 30.666666 0.900000
v 7.179046 32.696316 1.600000
v 7.860583 32.857143 0.900000
v 6.609323 34.849033 1.600000
v 7.280867 35.047619 0.900000
v 5.905642 36.998737 1.600000
v 6.563838 37.238094 0.900000
v 5.046580 39.142071 1.600000
v 5.685882 39.428570 0.900000
v 3.988533 41.269936 1.600000
v 4.596702 41.619049 0.900000
v 2.648486 43.311760 1.600000
v 3.159095 43.809525 0.900000
v 0.575242 45.601135 0.900000
v -0.575244 45.601135 0.900000
v -0.000000 45.148186 1.600000
v -2.648486 43.311760 1.600000
v -3.159095 43.809525 0.900000
v -3.988533 41.269936 1.600000
v -4.596702 41.619049 0.900000
v -5.046580 39.142071 1.600000
v -5.685882 39.428570 0.900000
v -5.905642 36.998737 1.600000
v -6.563838 37.238094 0.900000
v -6.609323 34.849033 1.600000
v -7.280867 35.047619 0.900000
v -7.179046 32.696316 1.600000
v -7.860583 32.857143 0.900000
v -7.626332 30.542221 1.600000
v -8.315423 30.666666 0.900000
v -7.957728 28.387493 1.600000
v -8.652317 28.476191 0.900000
v -8.176980 26.232550 1.600000
v -8.875184 26.285715 0.900000
v -8.286150 24.077518 1.600000
v -8.986150 24.095238 0.900000
v -8.286150 21.922482 1.600000
v -8.986150 21.904762 0.900000
v -8.176980 19.767450 1.600000
v -8.875184 19.714285 0.900000
v -7.957728 17.612507 1.600000
v -8.652317 17.523809 0.900000
v -7.626333 15.457785 1.600000
v -8.315423 15.333333 0.900000
v -7.179044 13.303676 1.600000
v -7.860583 13.142858 0.900000
v -6.609325 11.150975 1.600000
v -7.280867 10.952381 0.900000
v -5.905638 9.001253 1.600000
v -6.563838 8.761905 0.900000
v -5.046582 6.857933 1.600000
v -5.685882 6.571429 0.900000
v -3.988532 4.730064 1.600000
v -4.596702 4.380952 0.900000
v -2.648484 2.688238 1.600000
v -3.159095 2.190476 0.900000
v -5.046580 39.142071 -1.600000
v -5.685882 39.428570 -0.900000
v -5.046580 39.142071 1.600000
v -5.685882 39.428570 0.900000
v -5.905642 36.998737 -1.600000
v -6.563838 37.238094 -0.900000
v -5.905642 36.998737 1.600000
v -6.563838 37.238094 0.900000
v -6.609323 34.849033 -1.600000
v -7.280867 35.047619 -0.900000
v -6.609323 34.849033 1.600000
v -7.280867 35.047619 0.900000
v -7.179046 32.696316 -1.600000
v -7.860583 32.857143 -0.900000
v -7.179046 32.696316 1.600000
v -7.860583 32.857143 0.900000
v -7.626332 30.542221 -1.600000
v -8.315423 30.666666 -0.900000
v -7.626332 30.542221 1.600000
v -8.315423 30.666666 0.900000
v -7.957728 28.387493 -1.600000
v -8.652317 28.476191 -0.900000
v -7.957728 28.387493 1.600000
v -8.652317 28.476191 0.900000
v -8.176980 26.232550 -1.600000
v -8.875184 26.285715 -0.900000
v -8.176980 26.232550 1.600000
v -8.875184 26.285715 0.900000
v -8.286150 24.077518 -1.600000
v -8.986150 24.095238 -0.900000
v -8.286150 24.077518 1.600000
v -8.986150 24.095238 0.900000
v -8.286150 21.922482 -1.600000
v -8.986150 21.904762 -0.900000
v -8.286150 21.922482 1.600000
v -8.986150 21.904762 0.900000
v -8.176980 19.767450 -1.600000
v -8.875184 19.714285 -0.900000
v -8.176980 19.767450 1.600000
v -8.875184 19.714285 0.900000
v -7.957728 17.612507 -1.600000
v -8.652317 17.523809 -0.900000
v -7.957728 17.612507 1.600000
v -8.652317 17.523809 0.900000
v -7.626333 15.457785 -1.600000
v -8.315423 15.333333 -0.900000
v -7.626333 15.457785 1.600000
v -8.315423 15.333333 0.900000
v -7.179044 13.303676 -1.600000
v -7.860583 13.142858 -0.900000
v -7.179044 13.303676 1.600000
v -7.860583 13.142858 0.900000
v -6.609325 11.150975 -1.600000
v -7.280867 10.952381 -0.900000
v -6.609325 11.150975 1.600000
v -7.280867 10.952381 0.900000
v -5.905638 9.001253 -1.600000
v -6.563838 8.761905 -0.900000
v -5.905638 9.001253 1.600000
v -6.563838 8.761905 0.900000
v -5.046582 6.857933 -1.600000
v -5.685882 6.571429 -0.900000
v -5.046582 6.857933 1.600000
v -5.685882 6.571429 0.900000
v -3.988532 4.730064 -1.600000
v -4.596702 4.380952 -0.900000
v -3.988532 4.730064 1.600000
v -4.596702 4.380952 0.900000
v -2.648484 2.688238 -1.600000
v -3.159095 2.190476 -0.900000
v -2.648484 2.688238 1.600000
v -3.159095 2.190476 0.900000
v -0.700000 2.200000 5.800000
v -0.700000 2.200000 2.200000
v -0.700000 7.800000 5.800000
v -0.700000 7.800000 2.200000
v 0.700000 7.800000 2.200000
v 0.700000 2.200000 2.200000
v 0.700000 2.200000 5.800000
v 0.700000 7.800000 5.800000
vn -0.0000 -0.0000 -1.0000
vn 0.9733 -0.2297 -0.0000
vn 0.9589 -0.2836 -0.0000
vn 0.9398 -0.3417 -0.0000
vn 0.9126 -0.4090 -0.0000
vn 0.8673 -0.4978 -0.0000
vn 0.7161 -0.6980 -0.0000
vn 0.3051 -0.8904 -0.3378
vn -0.3051 -0.8904 -0.3378
vn -1.0000 -0.0000 -0.0000
vn -0.6861 -0.6861 0.2418
vn 0.6861 -0.6861 0.2418
vn 0.6861 -0.6861 -0.2418
vn 0.6861 0.2418 0.6861
vn 0.6861 -0.2418 -0.6861
vn -0.6861 0.2418 0.6861
vn 0.6861 -0.2418 0.6861
vn 0.6861 0.6861 -0.2418
vn -0.6861 -0.2418 0.6861
vn 1.0000 -0.0000 -0.0000
vn -0.6861 0.6861 -0.2418
vn 0.6861 0.6861 0.2418
vn -0.6861 0.6861 0.2418
vn -0.6861 -0.2418 -0.6861
vn -0.6127 0.3517 0.7077
vn -0.6127 0.3517 -0.7077
vn -0.5016 0.4890 0.7136
vn -0.0000 0.7093 0.7049
vn -0.5016 0.4890 -0.7136
vn -0.0000 0.7093 -0.7049
vn 0.5016 0.4890 0.7136
vn 0.5016 0.4890 -0.7136
vn 0.6127 0.3517 0.7077
vn 0.6127 0.3517 -0.7077
vn 0.6450 0.2891 0.7074
vn 0.6450 0.2891 -0.7074
vn 0.6644 0.2416 0.7073
vn 0.6644 0.2416 -0.7073
vn 0.6779 0.2005 0.7073
vn 0.6779 0.2005 -0.7073
vn -0.6861 -0.6861 -0.2418
vn 0.6881 0.1624 0.7072
vn 0.6881 0.1624 -0.7072
vn 0.6957 0.1256 0.7072
vn 0.6957 0.1256 -0.7072
vn 0.7013 0.0895 0.7072
vn 0.7013 0.0895 -0.7072
vn 0.7050 0.0537 0.7072
vn 0.7050 0.0537 -0.7072
vn 0.7068 0.0179 0.7072
vn 0.7068 0.0179 -0.7072
vn -0.6861 0.2418 -0.6861
vn 0.7068 -0.0179 0.7072
vn 0.7068 -0.0179 -0.7072
vn 0.7050 -0.0537 0.7072
vn 0.7050 -0.0537 -0.7072
vn 0.7013 -0.0895 0.7072
vn 0.7013 -0.0895 -0.7072
vn 0.6957 -0.1256 0.7072
vn 0.6957 -0.1256 -0.7072
vn 0.6881 -0.1624 0.7072
vn 0.6881 -0.1624 -0.7072
vn 0.6779 -0.2005 0.7073
vn 0.6779 -0.2005 -0.7073
vn 0.6644 -0.2416 0.7073
vn 0.6644 -0.2416 -0.7073
vn 0.6450 -0.2891 0.7074
vn 0.6450 -0.2891 -0.7074
vn 0.6127 -0.3517 0.7077
vn 0.6127 -0.3517 -0.7077
vn 0.5016 -0.4890 0.7136
vn -0.0000 -0.7093 0.7049
vn 0.5016 -0.4890 -0.7136
vn -0.0000 -0.7093 -0.7049
vn 0.6861 0.2418 -0.6861
vn 0.9841 -0.1777 -0.0000
vn 0.9919 -0.1267 -0.0000
vn 0.9971 -0.0759 -0.0000
vn 0.9997 -0.0253 -0.0000
vn 0.9997 0.0253 -0.0000
vn 0.9971 0.0759 -0.0000
vn 0.9919 0.1267 -0.0000
vn 0.9841 0.1777 -0.0000
vn 0.9733 0.2297 -0.0000
vn 0.9589 0.2836 -0.0000
vn 0.9398 0.3417 -0.0000
vn 0.9126 0.4090 -0.0000
vn 0.8673 0.4978 -0.0000
vn 0.7161 0.6980 -0.0000
vn 0.3051 0.8904 -0.3378
vn -0.3051 0.8904 -0.3378
vn -0.7161 0.6980 -0.0000
vn -0.8673 0.4978 -0.0000
vn -0.9126 0.4090 -0.0000
vn -0.9398 0.3417 -0.0000
vn -0.9589 0.2836 -0.0000
vn -0.9733 0.2297 -0.0000
vn -0.9841 0.1777 -0.0000
vn -0.9919 0.1267 -0.0000
vn -0.9971 0.0759 -0.0000
vn -0.9997 0.0253 -0.0000
vn -0.9997 -0.0253 -0.0000
vn -0.9971 -0.0759 -0.0000
vn -0.9919 -0.1267 -0.0000
vn -0.9841 -0.1777 -0.0000
vn -0.9733 -0.2297 -0.0000
vn -0.9589 -0.2836 -0.0000
vn -0.9398 -0.3417 -0.0000
vn -0.9126 -0.4090 -0.0000
vn -0.8673 -0.4978 -0.0000
vn -0.7161 -0.6980 -0.0000
vn -0.3051 -0.8904 0.3378
vn 0.3051 -0.8904 0.3378
vn -0.0000 -0.0000 1.0000
vn 0.3051 0.8904 0.3378
vn -0.3051 0.8904 0.3378
vn -0.6450 0.2891 -0.7074
vn -0.6450 0.2891 0.7074
vn -0.6644 0.2416 -0.7073
vn -0.6644 0.2416 0.7073
vn -0.6779 0.2005 -0.7073
vn -0.6779 0.2005 0.7073
vn -0.6881 0.1624 -0.7072
vn -0.6881 0.1624 0.7072
vn -0.6957 0.1256 -0.7072
vn -0.6957 0.1256 0.7072
vn -0.7013 0.0895 -0.7072
vn -0.7013 0.0895 0.7072
vn -0.7050 0.0537 -0.7072
vn -0.7050 0.0537 0.7072
vn -0.7068 0.0179 -0.7072
vn -0.7068 0.0179 0.7072
vn -0.7068 -0.0179 -0.7072
vn -0.7068 -0.0179 0.7072
vn -0.7050 -0.0537 -0.7072
vn -0.7050 -0.0537 0.7072
vn -0.7013 -0.0895 -0.7072
vn -0.7013 -0.0895 0.7072
vn -0.6957 -0.1256 -0.7072
vn -0.6957 -0.1256 0.7072
vn -0.6881 -0.1624 -0.7072
vn -0.6881 -0.1624 0.7072
vn -0.6779 -0.2005 -0.7073
vn -0.6779 -0.2005 0.7073
vn -0.6644 -0.2416 -0.7073
vn -0.6644 -0.2416 0.7073
vn -0.6450 -0.2891 -0.7074
vn -0.6450 -0.2891 0.7074
vn -0.6127 -0.3517 -0.7077
vn -0.6127 -0.3517 0.7077
vn -0.5016 -0.4890 -0.7136
vn -0.5016 -0.4890 0.7136
vn -0.7588 -0.4606 0.4606
vn -0.7588 -0.4606 -0.4606
vn -0.7588 0.4606 0.4606
vn -0.7588 0.4606 -0.4606
vn 0.7588 0.4606 -0.4606
vn 0.7588 -0.4606 -0.4606
vn 0.7588 -0.4606 0.4606
vn 0.7588 0.4606 0.4606
vt 0.000000 -0.110000
vt 0.000000 -0.075000
vt 0.035000 -0.110000
vt 0.000000 -0.290000
vt 0.000000 -0.325000
vt 0.035000 -0.290000
vt -0.035000 -0.110000
vt -0.035000 -0.290000
vt -0.028762 0.045000
vt 0.000000 0.080000
vt 0.028762 0.045000
vt 0.028762 0.045000
vt -0.000000 0.080000
vt -0.028762 0.045000
vt -0.028762 -0.045000
vt 0.028762 -0.045000
vt 0.000000 -0.080000
vt 0.028762 -0.045000
vt -0.028762 -0.045000
vt -0.000000 -0.080000
vt 0.132424 0.134412
vt 0.028762 0.019943
vt 0.000000 0.042591
vt 0.157955 0.109524
vt 0.229835 0.219048
vt 0.199427 0.236503
vt 0.284294 0.328571
vt 0.252329 0.342897
vt 0.328192 0.438095
vt 0.295282 0.450063
vt 0.364043 0.547619
vt 0.330466 0.557549
vt 0.393029 0.657143
vt 0.358952 0.665184
vt 0.415771 0.766667
vt 0.381317 0.772889
vt 0.432616 0.876190
vt 0.397886 0.880625
vt 0.443759 0.985714
vt 0.408849 0.988373
vt 0.449308 1.095238
vt 0.414308 1.096124
vt 0.080000 1.203876
vt 0.045000 1.095238
vt 0.080000 1.096124
vt -0.080000 1.096124
vt -0.045000 1.204762
vt -0.080000 1.203876
vt 0.408849 1.311628
vt 0.449308 1.204762
vt 0.414308 1.203876
vt 0.443759 1.314286
vt 0.397886 1.419375
vt 0.432616 1.423810
vt 0.381317 1.527111
vt 0.415771 1.533333
vt 0.358952 1.634816
vt 0.393029 1.642857
vt 0.330466 1.742452
vt 0.364043 1.752381
vt 0.295282 1.849937
vt 0.328192 1.861905
vt 0.252329 1.957103
vt 0.284294 1.971429
vt 0.199427 2.063497
vt 0.229835 2.080952
vt 0.132424 2.165588
vt 0.157955 2.190476
vt -0.132424 2.165588
vt -0.028762 2.280057
vt -0.000000 2.257409
vt -0.028762 2.280057
vt -0.157955 2.190476
vt -0.229835 2.080952
vt -0.199427 2.063497
vt -0.284294 1.971429
vt -0.252329 1.957103
vt -0.328192 1.861905
vt -0.295282 1.849937
vt -0.364043 1.752381
vt -0.330466 1.742452
vt -0.393029 1.642857
vt -0.358952 1.634816
vt -0.415771 1.533333
vt -0.381317 1.527111
vt -0.432616 1.423810
vt -0.397886 1.419375
vt -0.443759 1.314286
vt -0.408849 1.311628
vt -0.449308 1.204762
vt -0.414308 1.203876
vt 0.045000 1.204762
vt -0.045000 1.095238
vt -0.408849 0.988373
vt -0.449308 1.095238
vt -0.414308 1.096124
vt -0.443759 0.985714
vt -0.397886 0.880625
vt -0.432616 0.876190
vt -0.381317 0.772889
vt -0.415771 0.766667
vt -0.358952 0.665184
vt -0.393029 0.657143
vt -0.330466 0.557549
vt -0.364043 0.547619
vt -0.295282 0.450063
vt -0.328192 0.438095
vt -0.252329 0.342897
vt -0.284294 0.328571
vt -0.199427 0.236503
vt -0.229835 0.219048
vt -0.132424 0.134412
vt -0.157955 0.109524
vt 0.000000 0.390000
vt -0.035000 0.110000
vt 0.000000 0.110000
vt -0.035000 0.390000
vt 0.035000 0.110000
vt 0.035000 0.390000
vt 0.028762 2.280057
vt 0.028762 2.280057
vt -0.028762 0.019943
vt -0.110000 0.390000
vt -0.290000 0.110000
vt -0.110000 0.110000
vt -0.290000 0.390000
vt -0.157955 -0.045000
vt -0.157955 0.045000
vt 0.157955 0.045000
vt 0.045000 0.219048
vt -0.045000 0.109524
vt 0.045000 0.109524
vt 0.045000 0.328571
vt -0.045000 0.219048
vt 0.045000 0.438095
vt -0.045000 0.328571
vt 0.045000 0.547619
vt -0.045000 0.438095
vt 0.045000 0.657143
vt -0.045000 0.547619
vt 0.045000 0.766667
vt -0.045000 0.657143
vt 0.045000 0.876190
vt -0.045000 0.766667
vt 0.045000 0.985714
vt -0.045000 0.876190
vt -0.045000 0.985714
vt 0.045000 1.314286
vt 0.045000 1.423810
vt -0.045000 1.314286
vt 0.045000 1.533333
vt -0.045000 1.423810
vt 0.045000 1.642857
vt -0.045000 1.533333
vt 0.045000 1.752381
vt -0.045000 1.642857
vt 0.045000 1.861905
vt -0.045000 1.752381
vt 0.045000 1.971429
vt -0.045000 1.861905
vt 0.045000 2.080952
vt -0.045000 1.971429
vt 0.045000 2.190476
vt -0.045000 2.080952
vt 0.157955 -0.045000
vt -0.045000 2.190476
s 1
f 21/1/13 23/2/15 366/3/158
f 28/1/18 365/3/157 132/2/75
f 33/4/22 22/5/14 368/6/160
f 19/4/12 367/6/159 27/5/17
f 31/1/21 88/2/52 364/7/156
f 66/1/41 362/7/154 36/2/24
f 25/5/16 34/4/23 363/8/155
f 18/4/11 29/5/19 361/8/153
f 16/9/9 131/10/74 14/11/8
f 160/12/90 46/13/30 162/14/91
f 203/15/112 204/16/113 127/17/72
f 246/18/115 247/19/116 42/20/28
f 16/9/9 204/16/113 203/15/112
f 130/21/73 14/22/8 131/23/74
f 128/21/71 204/22/113 126/24/71
f 130/21/73 124/25/70 129/24/73
f 128/21/71 122/25/69 123/26/69
f 125/26/70 120/27/68 124/25/70
f 123/26/69 118/27/67 119/28/67
f 121/28/68 116/29/66 120/27/68
f 119/28/67 114/29/65 115/30/65
f 117/30/66 112/31/64 116/29/66
f 115/30/65 109/31/63 111/32/63
f 113/32/64 107/33/62 112/31/64
f 111/32/63 105/33/61 106/34/61
f 108/34/62 103/35/60 107/33/62
f 106/34/61 101/35/59 102/36/59
f 104/36/60 99/37/58 103/35/60
f 102/36/59 97/37/57 98/38/57
f 100/38/58 95/39/56 99/37/58
f 98/38/57 93/39/55 94/40/55
f 96/40/56 91/41/54 95/39/56
f 94/40/55 89/41/53 90/42/53
f 87/43/51 91/44/54 92/45/54
f 90/46/53 84/47/50 85/48/50
f 83/49/49 86/50/51 87/51/51
f 81/49/48 84/50/50 80/52/48
f 79/53/47 82/52/49 83/49/49
f 77/53/46 80/52/48 76/54/46
f 75/55/45 78/54/47 79/53/47
f 73/55/44 76/54/46 72/56/44
f 71/57/43 74/56/45 75/55/45
f 69/57/42 72/56/44 68/58/42
f 67/59/40 70/58/43 71/57/43
f 64/59/39 68/58/42 63/60/39
f 62/61/38 65/60/40 67/59/40
f 60/61/37 63/60/39 59/62/37
f 58/63/36 61/62/38 62/61/38
f 56/63/35 59/62/37 55/64/35
f 54/65/34 57/64/36 58/63/36
f 52/65/33 55/64/35 51/66/33
f 50/67/32 53/66/34 54/65/34
f 48/67/31 51/66/33 47/68/31
f 162/14/91 246/18/115 160/12/90
f 45/69/29 162/70/91 46/71/30
f 43/69/27 247/72/116 41/73/27
f 45/69/29 39/74/26 44/73/29
f 43/69/27 37/74/25 38/75/25
f 40/75/26 290/76/117 39/74/26
f 38/75/25 292/76/118 291/77/118
f 289/77/117 294/78/119 290/76/117
f 291/77/118 296/78/120 295/79/120
f 293/79/119 298/80/121 294/78/119
f 295/79/120 300/80/122 299/81/122
f 297/81/121 302/82/123 298/80/121
f 299/81/122 304/82/124 303/83/124
f 301/83/123 306/84/125 302/82/123
f 303/83/124 308/84/126 307/85/126
f 305/85/125 310/86/127 306/84/125
f 307/85/126 312/86/128 311/87/128
f 309/87/127 314/88/129 310/86/127
f 311/87/128 316/88/130 315/89/130
f 313/89/129 318/90/131 314/88/129
f 315/89/130 320/90/132 319/91/132
f 321/45/133 318/92/131 317/43/131
f 319/48/132 324/93/134 323/46/134
f 325/94/135 322/95/133 321/96/133
f 327/94/136 324/95/134 328/97/136
f 329/98/137 326/97/135 325/94/135
f 331/98/138 328/97/136 332/99/138
f 333/100/139 330/99/137 329/98/137
f 335/100/140 332/99/138 336/101/140
f 337/102/141 334/101/139 333/100/139
f 339/102/142 336/101/140 340/103/142
f 341/104/143 338/103/141 337/102/141
f 343/104/144 340/103/142 344/105/144
f 345/106/145 342/105/143 341/104/143
f 347/106/146 344/105/144 348/107/146
f 349/108/147 346/107/145 345/106/145
f 351/108/148 348/107/146 352/109/148
f 353/110/149 350/109/147 349/108/147
f 355/110/150 352/109/148 356/111/150
f 357/112/151 354/111/149 353/110/149
f 359/112/152 356/111/150 360/113/152
f 18/4/11 362/7/154 66/1/41
f 25/114/16 361/115/153 29/116/19
f 31/1/21 363/8/155 34/4/23
f 36/116/24 364/117/156 88/114/52
f 366/118/158 132/114/75 365/119/157
f 21/1/13 367/6/159 19/4/12
f 33/4/22 365/3/157 28/1/18
f 27/116/17 368/119/160 22/114/14
f 50/67/32 160/120/90 49/68/32
f 48/67/31 246/121/115 42/71/28
f 357/112/151 16/122/9 358/113/151
f 359/112/152 203/122/112 127/23/72
f 110/123/20 30/124/20 35/125/20
f 20/126/10 24/125/10 17/124/10
f 16/9/9 288/127/111 202/128/111
f 12/129/7 204/16/113 14/11/8
f 197/108/1 165/75/1 1/36/1
f 10/130/6 207/131/7 12/132/7
f 8/133/5 209/134/6 10/130/6
f 6/135/4 211/136/5 8/133/5
f 4/137/3 213/138/4 6/135/4
f 2/139/2 215/140/3 4/137/3
f 133/141/76 217/142/2 2/139/2
f 135/143/77 219/144/76 133/141/76
f 137/145/78 221/146/77 135/143/77
f 139/44/79 223/147/78 137/145/78
f 141/92/80 225/93/79 139/44/79
f 143/148/81 227/47/80 141/92/80
f 145/149/82 229/150/81 143/148/81
f 147/151/83 231/152/82 145/149/82
f 149/153/84 233/154/83 147/151/83
f 151/155/85 235/156/84 149/153/84
f 153/157/86 237/158/85 151/155/85
f 155/159/87 239/160/86 153/157/86
f 157/161/88 241/162/87 155/159/87
f 159/163/89 243/164/88 157/161/88
f 160/12/90 245/165/89 159/129/89
f 164/128/92 247/19/116 162/14/91
f 166/161/93 250/166/92 164/163/92
f 168/159/94 252/164/93 166/161/93
f 170/157/95 254/162/94 168/159/94
f 172/155/96 256/160/95 170/157/95
f 174/153/97 258/158/96 172/155/96
f 176/151/98 260/156/97 174/153/97
f 178/149/99 262/154/98 176/151/98
f 180/148/100 264/152/99 178/149/99
f 182/92/101 266/150/100 180/148/100
f 184/44/102 268/47/101 182/92/101
f 186/145/103 270/93/102 184/44/102
f 188/143/104 272/147/103 186/145/103
f 190/141/105 274/146/104 188/143/104
f 192/139/106 276/144/105 190/141/105
f 194/137/107 278/142/106 192/139/106
f 196/135/108 280/140/107 194/137/107
f 198/133/109 282/138/108 196/135/108
f 200/130/110 284/136/109 198/133/109
f 202/132/111 286/134/110 200/130/110
f 210/28/114 242/65/114 275/100/114
f 16/9/9 14/11/8 204/16/113
f 130/21/73 129/24/73 14/22/8
f 128/21/71 127/23/72 204/22/113
f 130/21/73 125/26/70 124/25/70
f 128/21/71 126/24/71 122/25/69
f 125/26/70 121/28/68 120/27/68
f 123/26/69 122/25/69 118/27/67
f 121/28/68 117/30/66 116/29/66
f 119/28/67 118/27/67 114/29/65
f 117/30/66 113/32/64 112/31/64
f 115/30/65 114/29/65 109/31/63
f 113/32/64 108/34/62 107/33/62
f 111/32/63 109/31/63 105/33/61
f 108/34/62 104/36/60 103/35/60
f 106/34/61 105/33/61 101/35/59
f 104/36/60 100/38/58 99/37/58
f 102/36/59 101/35/59 97/37/57
f 100/38/58 96/40/56 95/39/56
f 98/38/57 97/37/57 93/39/55
f 96/40/56 92/42/54 91/41/54
f 94/40/55 93/39/55 89/41/53
f 87/43/51 86/92/51 91/44/54
f 90/46/53 89/93/53 84/47/50
f 83/49/49 82/52/49 86/50/51
f 81/49/48 85/51/50 84/50/50
f 79/53/47 78/54/47 82/52/49
f 77/53/46 81/49/48 80/52/48
f 75/55/45 74/56/45 78/54/47
f 73/55/44 77/53/46 76/54/46
f 71/57/43 70/58/43 74/56/45
f 69/57/42 73/55/44 72/56/44
f 67/59/40 65/60/40 70/58/43
f 64/59/39 69/57/42 68/58/42
f 62/61/38 61/62/38 65/60/40
f 60/61/37 64/59/39 63/60/39
f 58/63/36 57/64/36 61/62/38
f 56/63/35 60/61/37 59/62/37
f 54/65/34 53/66/34 57/64/36
f 52/65/33 56/63/35 55/64/35
f 50/67/32 49/68/32 53/66/34
f 48/67/31 52/65/33 51/66/33
f 162/14/91 247/19/116 246/18/115
f 45/69/29 44/73/29 162/70/91
f 43/69/27 42/71/28 247/72/116
f 45/69/29 40/75/26 39/74/26
f 43/69/27 41/73/27 37/74/25
f 40/75/26 289/77/117 290/76/117
f 38/75/25 37/74/25 292/76/118
f 289/77/117 293/79/119 294/78/119
f 291/77/118 292/76/118 296/78/120
f 293/79/119 297/81/121 298/80/121
f 295/79/120 296/78/120 300/80/122
f 297/81/121 301/83/123 302/82/123
f 299/81/122 300/80/122 304/82/124
f 301/83/123 305/85/125 306/84/125
f 303/83/124 304/82/124 308/84/126
f 305/85/125 309/87/127 310/86/127
f 307/85/126 308/84/126 312/86/128
f 309/87/127 313/89/129 314/88/129
f 311/87/128 312/86/128 316/88/130
f 313/89/129 317/91/131 318/90/131
f 315/89/130 316/88/130 320/90/132
f 321/45/133 322/44/133 318/92/131
f 319/48/132 320/47/132 324/93/134
f 325/94/135 326/97/135 322/95/133
f 327/94/136 323/96/134 324/95/134
f 329/98/137 330/99/137 326/97/135
f 331/98/138 327/94/136 328/97/136
f 333/100/139 334/101/139 330/99/137
f 335/100/140 331/98/138 332/99/138
f 337/102/141 338/103/141 334/101/139
f 339/102/142 335/100/140 336/101/140
f 341/104/143 342/105/143 338/103/141
f 343/104/144 339/102/142 340/103/142
f 345/106/145 346/107/145 342/105/143
f 347/106/146 343/104/144 344/105/144
f 349/108/147 350/109/147 346/107/145
f 351/108/148 347/106/146 348/107/146
f 353/110/149 354/111/149 350/109/147
f 355/110/150 351/108/148 352/109/148
f 357/112/151 358/113/151 354/111/149
f 359/112/152 355/110/150 356/111/150
f 18/4/11 361/8/153 362/7/154
f 25/114/16 363/117/155 361/115/153
f 31/1/21 364/7/156 363/8/155
f 36/116/24 362/115/154 364/117/156
f 366/118/158 23/116/15 132/114/75
f 21/1/13 366/3/158 367/6/159
f 33/4/22 368/6/160 365/3/157
f 27/116/17 367/118/159 368/119/160
f 50/67/32 46/71/30 160/120/90
f 48/67/31 47/68/31 246/121/115
f 357/112/151 131/23/74 16/122/9
f 359/112/152 360/113/152 203/122/112
f 110/123/20 32/126/20 30/124/20
f 20/126/10 26/123/10 24/125/10
f 16/9/9 203/15/112 288/127/111
f 12/129/7 207/165/7 204/16/113
f 13/21/1 15/23/1 201/112/1
f 201/112/1 199/110/1 197/108/1
f 197/108/1 195/106/1 193/104/1
f 193/104/1 191/102/1 189/100/1
f 189/100/1 187/98/1 185/94/1
f 185/94/1 183/96/1 181/91/1
f 181/91/1 179/89/1 177/87/1
f 177/87/1 175/85/1 173/83/1
f 173/83/1 171/81/1 169/79/1
f 169/79/1 167/77/1 165/75/1
f 165/75/1 163/69/1 161/71/1
f 161/71/1 158/67/1 156/65/1
f 156/65/1 154/63/1 152/61/1
f 152/61/1 150/59/1 148/57/1
f 148/57/1 146/55/1 144/53/1
f 144/53/1 142/49/1 140/51/1
f 140/51/1 138/42/1 136/40/1
f 136/40/1 134/38/1 1/36/1
f 1/36/1 3/34/1 5/32/1
f 5/32/1 7/30/1 9/28/1
f 9/28/1 11/26/1 13/21/1
f 13/21/1 201/112/1 197/108/1
f 197/108/1 193/104/1 189/100/1
f 189/100/1 185/94/1 181/91/1
f 181/91/1 177/87/1 173/83/1
f 173/83/1 169/79/1 165/75/1
f 165/75/1 161/71/1 156/65/1
f 156/65/1 152/61/1 148/57/1
f 148/57/1 144/53/1 140/51/1
f 140/51/1 136/40/1 1/36/1
f 1/36/1 5/32/1 9/28/1
f 9/28/1 13/21/1 197/108/1
f 197/108/1 189/100/1 181/91/1
f 181/91/1 173/83/1 165/75/1
f 165/75/1 156/65/1 148/57/1
f 148/57/1 140/51/1 1/36/1
f 1/36/1 9/28/1 197/108/1
f 197/108/1 181/91/1 165/75/1
f 165/75/1 148/57/1 1/36/1
f 10/130/6 209/134/6 207/131/7
f 8/133/5 211/136/5 209/134/6
f 6/135/4 213/138/4 211/136/5
f 4/137/3 215/140/3 213/138/4
f 2/139/2 217/142/2 215/140/3
f 133/141/76 219/144/76 217/142/2
f 135/143/77 221/146/77 219/144/76
f 137/145/78 223/147/78 221/146/77
f 139/44/79 225/93/79 223/147/78
f 141/92/80 227/47/80 225/93/79
f 143/148/81 229/150/81 227/47/80
f 145/149/82 231/152/82 229/150/81
f 147/151/83 233/154/83 231/152/82
f 149/153/84 235/156/84 233/154/83
f 151/155/85 237/158/85 235/156/84
f 153/157/86 239/160/86 237/158/85
f 155/159/87 241/162/87 239/160/86
f 157/161/88 243/164/88 241/162/87
f 159/163/89 245/166/89 243/164/88
f 160/12/90 246/18/115 245/165/89
f 164/128/92 250/127/92 247/19/116
f 166/161/93 252/164/93 250/166/92
f 168/159/94 254/162/94 252/164/93
f 170/157/95 256/160/95 254/162/94
f 172/155/96 258/158/96 256/160/95
f 174/153/97 260/156/97 258/158/96
f 176/151/98 262/154/98 260/156/97
f 178/149/99 264/152/99 262/154/98
f 180/148/100 266/150/100 264/152/99
f 182/92/101 268/47/101 266/150/100
f 184/44/102 270/93/102 268/47/101
f 186/145/103 272/147/103 270/93/102
f 188/143/104 274/146/104 272/147/103
f 190/141/105 276/144/105 274/146/104
f 192/139/106 278/142/106 276/144/105
f 194/137/107 280/140/107 278/142/106
f 196/135/108 282/138/108 280/140/107
f 198/133/109 284/136/109 282/138/108
f 200/130/110 286/134/110 284/136/109
f 202/132/111 288/131/111 286/134/110
f 287/112/114 205/23/114 206/21/114
f 206/21/114 208/26/114 210/28/114
f 210/28/114 212/30/114 214/32/114
f 214/32/114 216/34/114 218/36/114
f 218/36/114 220/38/114 222/40/114
f 222/40/114 224/42/114 226/51/114
f 226/51/114 228/49/114 230/53/114
f 230/53/114 232/55/114 234/57/114
f 234/57/114 236/59/114 238/61/114
f 238/61/114 240/63/114 242/65/114
f 242/65/114 244/67/114 248/71/114
f 248/71/114 249/69/114 251/75/114
f 251/75/114 253/77/114 255/79/114
f 255/79/114 257/81/114 259/83/114
f 259/83/114 261/85/114 263/87/114
f 263/87/114 265/89/114 267/91/114
f 267/91/114 269/96/114 271/94/114
f 271/94/114 273/98/114 275/100/114
f 275/100/114 277/102/114 279/104/114
f 279/104/114 281/106/114 283/108/114
f 283/108/114 285/110/114 287/112/114
f 287/112/114 206/21/114 210/28/114
f 210/28/114 214/32/114 218/36/114
f 218/36/114 222/40/114 226/51/114
f 226/51/114 230/53/114 234/57/114
f 234/57/114 238/61/114 242/65/114
f 242/65/114 248/71/114 251/75/114
f 251/75/114 255/79/114 259/83/114
f 259/83/114 263/87/114 267/91/114
f 267/91/114 271/94/114 275/100/114
f 275/100/114 279/104/114 283/108/114
f 283/108/114 287/112/114 210/28/114
f 210/28/114 218/36/114 226/51/114
f 226/51/114 234/57/114 242/65/114
f 242/65/114 251/75/114 259/83/114
f 259/83/114 267/91/114 275/100/114
f 275/100/114 283/108/114 210/28/114
f 210/28/114 226/51/114 242/65/114
f 242/65/114 259/83/114 275/100/114
