# Blender 5.2.0 LTS
# www.blender.org
o Backdrop_Island
v 0.000000 11.000000 0.000000
v -13.152306 -33.603603 -18.102594
v 0.000000 9.526279 -15.000000
v 0.000000 7.778174 -21.213203
v -13.005831 -34.000000 -17.900993
v -6.109417 -12.396397 -8.408894
v 0.000000 0.000000 -30.000000
v -5.699661 -12.000000 -7.844910
v -0.000000 -59.573410 -10.049380
v -9.250776 -60.000000 3.005760
v -9.557528 -59.573410 3.105430
v 0.000000 -60.000000 -9.726842
v -5.717294 -60.000000 7.869180
v -0.000000 -34.426590 -1.170619
v 4.563900 10.625184 -6.281670
v 8.816778 9.526279 -12.135255
v 12.468807 7.778174 -17.161842
v 15.271109 5.500000 -21.018877
v 17.032709 2.847009 -23.443512
v 17.633556 0.000000 -24.270510
v -5.906877 -59.573410 8.130120
v -9.250776 -60.000000 -3.005760
v 21.043877 -34.000000 -6.837572
v 21.280874 -33.603603 -6.914576
v 27.130638 -12.000000 -8.815281
v -0.000000 -34.000000 -0.546842
v 5.906877 -59.573410 -8.130120
v 7.384546 10.625184 -2.399384
v 14.265848 9.526279 -4.635255
v 20.174953 7.778174 -6.555242
v 24.709171 5.500000 -8.028497
v 27.559502 2.847009 -8.954625
v 28.531696 0.000000 -9.270511
v 27.377579 -11.598419 -8.895517
v 27.130638 -12.000000 8.815281
v 27.377581 -11.598418 8.895518
v 16.767656 -12.000000 23.078701
v 16.920275 -11.598419 23.288759
v 5.717294 -60.000000 -7.869180
v 0.688073 -34.426590 -0.947051
v 7.384546 10.625184 2.399384
v 14.265849 9.526279 4.635254
v 20.174953 7.778174 6.555239
v 24.709171 5.500000 8.028496
v 27.559504 2.847009 8.954622
v 28.531698 0.000000 9.270509
v 0.000000 -12.000000 28.526842
v -16.767656 -12.000000 23.078701
v 16.920277 -11.598418 -23.288761
v -9.557529 -59.573410 -3.105430
v 13.005831 -34.000000 -17.900993
v 0.321426 -34.000000 -0.442404
v 9.557528 -59.573410 -3.105430
v 4.563900 10.625184 6.281670
v 8.816780 9.526279 12.135256
v 12.468807 7.778174 17.161840
v 15.271107 5.500000 21.018875
v 17.032711 2.847009 23.443512
v 17.633560 0.000000 24.270512
v 0.000000 -59.573410 10.049380
v 5.906877 -59.573410 8.130120
v 5.717294 -60.000000 7.869180
v 0.000000 -60.000000 9.726842
v -21.043877 -34.000000 -6.837572
v 9.250776 -60.000000 -3.005760
v 1.113325 -34.426590 -0.361741
v 0.000000 10.625184 7.764571
v 0.000001 9.526279 15.000002
v 0.000000 7.778174 21.213202
v 0.000001 5.500000 25.980761
v 0.000002 2.847009 28.977776
v 0.000002 0.000000 30.000004
v 16.767656 -12.000000 -23.078701
v -0.000000 -11.598418 28.786493
v -21.280874 -33.603603 6.914576
v 13.152305 -33.603603 -18.102594
v -5.717294 -60.000000 -7.869180
v 0.520078 -34.000000 -0.168984
v 9.557529 -59.573410 3.105430
v -4.563900 10.625184 6.281670
v -8.816778 9.526279 12.135258
v -12.468806 7.778174 17.161840
v -15.271107 5.500000 21.018877
v -17.032707 2.847009 23.443516
v -17.633556 0.000000 24.270515
v 21.280876 -33.603603 6.914576
v -21.043877 -34.000000 6.837572
v -21.280876 -33.603603 -6.914576
v 21.043877 -34.000000 6.837572
v -13.152305 -33.603603 18.102594
v 9.250776 -60.000000 3.005760
v 1.113325 -34.426590 0.361741
v -7.384546 10.625184 2.399384
v -14.265849 9.526279 4.635257
v -20.174953 7.778174 6.555240
v -24.709171 5.500000 8.028498
v -27.559502 2.847009 8.954628
v -28.531698 0.000000 9.270514
v -13.005831 -34.000000 17.900993
v 0.000000 -33.603603 22.376036
v 13.152306 -33.603603 18.102594
v 13.005831 -34.000000 17.900993
v 0.000000 -34.000000 22.126842
v 0.520078 -34.000000 0.168984
v -13.005831 -34.000000 -17.900993
v -7.384546 10.625184 -2.399384
v -14.265851 9.526279 -4.635254
v -20.174953 7.778174 -6.555240
v -24.709171 5.500000 -8.028496
v -27.559505 2.847009 -8.954621
v -28.531702 0.000000 -9.270508
v 0.000000 -34.000000 -22.126842
v 5.906877 -59.573410 -8.130120
v 0.000000 -33.603603 -22.376036
v -13.152306 -33.603603 -18.102594
v 0.000000 -60.000000 -9.726842
v 5.717294 -60.000000 -7.869180
v -0.000000 -59.573410 -10.049380
v -4.563900 10.625184 -6.281670
v -8.816781 9.526279 -12.135256
v -12.468806 7.778174 -17.161840
v -15.271107 5.500000 -21.018875
v -17.032715 2.847009 -23.443512
v -17.633562 0.000000 -24.270512
v -5.906877 -59.573410 -8.130120
v 0.000000 -11.598418 -28.786493
v -0.000000 -12.000000 -28.526842
v -16.920275 -11.598419 -23.288759
v -16.920277 -11.598418 23.288761
v -16.767656 -12.000000 -23.078701
v 9.557529 -59.573410 3.105430
v -0.000000 10.625184 -7.764571
v 9.557528 -59.573410 -3.105430
v 9.250776 -60.000000 -3.005760
v -0.000001 5.500000 -25.980761
v -0.000004 2.847009 -28.977777
v 9.250776 -60.000000 3.005760
v -27.377581 -11.598418 -8.895518
v 5.906877 -59.573410 8.130120
v -27.377579 -11.598419 8.895517
v -27.130638 -12.000000 8.815281
v 5.717294 -60.000000 7.869180
v -27.130638 -12.000000 -8.815281
v -9.222245 -12.000000 -2.996489
v -9.885247 -12.396397 -3.211911
v -21.043877 -34.000000 -6.837572
v -21.280876 -33.603603 -6.914576
v -9.222245 -12.000000 2.996489
v -9.885247 -12.396397 3.211911
v -21.043877 -34.000000 6.837572
v -21.280874 -33.603603 6.914576
v -5.699661 -12.000000 7.844910
v -6.109418 -12.396397 8.408895
v -13.005831 -34.000000 17.900993
v -13.152305 -33.603603 18.102594
v 0.000000 -12.000000 9.696842
v 0.000000 -12.396397 10.393964
v 0.000000 -34.000000 22.126842
v 0.000000 -33.603603 22.376036
v 5.699661 -12.000000 7.844910
v 6.109417 -12.396397 8.408894
v 13.005831 -34.000000 17.900993
v 13.152306 -33.603603 18.102594
v 9.222245 -12.000000 2.996489
v 9.885247 -12.396397 3.211911
v 21.043877 -34.000000 6.837572
v 21.280876 -33.603603 6.914576
v 9.222245 -12.000000 -2.996489
v 9.885247 -12.396397 -3.211911
v 21.043877 -34.000000 -6.837572
v 21.280874 -33.603603 -6.914576
v 5.699661 -12.000000 -7.844910
v 6.109418 -12.396397 -8.408895
v 13.005831 -34.000000 -17.900993
v 13.152305 -33.603603 -18.102594
v 0.000000 -12.000000 -9.696842
v -0.000000 -12.396397 -10.393964
v 0.000000 -34.000000 -22.126842
v 0.000000 -33.603603 -22.376036
v -13.017587 0.000000 -17.917173
v -13.421200 -0.401581 -18.472696
v -16.767656 -12.000000 -23.078701
v -16.920275 -11.598419 -23.288759
v -21.062899 0.000000 -6.843752
v -21.715960 -0.401581 -7.055941
v -27.130638 -12.000000 -8.815281
v -27.377581 -11.598418 -8.895518
v -21.062899 0.000000 6.843752
v -21.715958 -0.401581 7.055940
v -27.130638 -12.000000 8.815281
v -27.377579 -11.598419 8.895517
v -13.017587 0.000000 17.917173
v -13.421200 -0.401581 18.472696
v -16.767656 -12.000000 23.078701
v -16.920277 -11.598418 23.288761
v 0.000000 0.000000 22.146843
v 0.000000 -0.401581 22.833508
v -0.321426 -34.000000 -0.442404
v -0.688073 -34.426590 -0.947050
v 0.000000 -12.000000 28.526842
v -0.000000 -11.598418 28.786493
v 13.017587 0.000000 17.917173
v 13.421200 -0.401581 18.472696
v 16.767656 -12.000000 23.078701
v 16.920275 -11.598419 23.288759
v 21.062899 0.000000 6.843752
v 21.715960 -0.401581 7.055941
v 27.130638 -12.000000 8.815281
v 27.377581 -11.598418 8.895518
v -5.717294 -60.000000 -7.869180
v -5.906877 -59.573410 -8.130120
v -0.520078 -34.000000 -0.168984
v -1.113325 -34.426590 -0.361741
v 21.062899 0.000000 -6.843752
v 21.715958 -0.401581 -7.055940
v 27.130638 -12.000000 -8.815281
v 27.377579 -11.598419 -8.895517
v 13.017587 0.000000 -17.917173
v 13.421200 -0.401581 -18.472696
v 16.767656 -12.000000 -23.078701
v 16.920277 -11.598418 -23.288761
v 0.000000 0.000000 -22.146843
v 0.000000 -0.401581 -22.833508
v -9.250776 -60.000000 -3.005760
v -9.557529 -59.573410 -3.105430
v -0.520078 -34.000000 0.168984
v -1.113325 -34.426590 0.361741
v -9.250776 -60.000000 3.005760
v -9.557528 -59.573410 3.105430
v -0.321426 -34.000000 0.442404
v -0.688073 -34.426590 0.947051
v -5.717294 -60.000000 7.869180
v -5.906877 -59.573410 8.130120
v -0.000000 -12.000000 -28.526842
v 0.000000 -11.598418 -28.786493
v 0.000000 -34.000000 0.546842
v 0.000000 -34.426590 1.170619
v 0.000000 -60.000000 9.726842
v 0.000000 -59.573410 10.049380
v 0.321426 -34.000000 0.442404
v 0.688073 -34.426590 0.947050
vn -0.0000 1.0000 -0.0000
vn -0.5117 0.4919 -0.7044
vn -0.0000 0.9749 -0.2226
vn -0.0000 0.9302 -0.3671
vn -0.0000 -1.0000 -0.0000
vn -0.4306 0.6807 -0.5927
vn -0.0000 0.3379 -0.9412
vn -0.1775 0.9533 -0.2444
vn -0.0000 0.3329 -0.9430
vn -0.7586 -0.6031 0.2465
vn -0.4689 -0.6031 0.6453
vn -0.0000 0.5813 -0.8137
vn 0.0643 0.9940 -0.0885
vn 0.1309 0.9749 -0.1801
vn 0.2158 0.9302 -0.2970
vn 0.3356 0.8210 -0.4619
vn 0.4950 0.5392 -0.6813
vn 0.5532 0.3379 -0.7614
vn -0.7586 -0.6031 -0.2465
vn 0.8052 -0.5322 -0.2616
vn 0.7987 -0.5430 -0.2595
vn -0.0000 0.9377 -0.3473
vn 0.5543 0.3329 -0.7629
vn 0.1041 0.9940 -0.0338
vn 0.2117 0.9749 -0.0688
vn 0.3491 0.9302 -0.1134
vn 0.5430 0.8210 -0.1764
vn 0.8009 0.5392 -0.2602
vn 0.8951 0.3379 -0.2908
vn 0.7987 -0.5430 0.2595
vn 0.4936 -0.5430 0.6794
vn 0.4783 0.5813 -0.6583
vn 0.1041 0.9940 0.0338
vn 0.2117 0.9749 0.0688
vn 0.3491 0.9302 0.1134
vn 0.5430 0.8210 0.1764
vn 0.8009 0.5392 0.2602
vn 0.8951 0.3379 0.2908
vn -0.0000 -0.5430 0.8398
vn -0.4936 -0.5430 0.6794
vn 0.4936 -0.5430 -0.6794
vn 0.4976 -0.5322 -0.6849
vn 0.2042 0.9377 -0.2810
vn 0.8968 0.3329 -0.2914
vn 0.0643 0.9940 0.0885
vn 0.1309 0.9749 0.1801
vn 0.2158 0.9302 0.2970
vn 0.3356 0.8210 0.4619
vn 0.4950 0.5392 0.6813
vn 0.5532 0.3379 0.7614
vn -0.0000 -0.6031 0.7977
vn 0.4689 -0.6031 0.6453
vn -0.8052 -0.5322 -0.2616
vn 0.7739 0.5813 -0.2514
vn -0.0000 0.9940 0.1094
vn -0.0000 0.9749 0.2226
vn -0.0000 0.9302 0.3671
vn -0.0000 0.8210 0.5710
vn -0.0000 0.5392 0.8422
vn -0.0000 0.3379 0.9412
vn -0.8052 -0.5322 0.2616
vn -0.4689 -0.6031 -0.6453
vn 0.3303 0.9377 -0.1073
vn 0.8968 0.3329 0.2914
vn -0.0643 0.9940 0.0885
vn -0.1309 0.9749 0.1801
vn -0.2158 0.9302 0.2970
vn -0.3356 0.8210 0.4619
vn -0.4950 0.5392 0.6813
vn -0.5532 0.3379 0.7614
vn 0.8052 -0.5322 0.2616
vn -0.4976 -0.5322 0.6849
vn 0.7739 0.5813 0.2515
vn -0.1041 0.9940 0.0338
vn -0.2117 0.9749 0.0688
vn -0.3491 0.9302 0.1134
vn -0.5430 0.8210 0.1764
vn -0.8009 0.5392 0.2602
vn -0.8951 0.3379 0.2908
vn -0.0000 -0.5322 0.8466
vn 0.4976 -0.5322 0.6849
vn 0.3303 0.9377 0.1073
vn -0.4976 -0.5322 -0.6849
vn -0.1041 0.9940 -0.0338
vn -0.2117 0.9749 -0.0688
vn -0.3491 0.9302 -0.1134
vn -0.5430 0.8210 -0.1764
vn -0.8009 0.5392 -0.2602
vn -0.8951 0.3379 -0.2908
vn -0.0000 -0.5322 -0.8466
vn 0.4689 -0.6031 -0.6453
vn -0.0000 -0.6031 -0.7977
vn -0.0643 0.9940 -0.0885
vn -0.1309 0.9749 -0.1801
vn -0.2158 0.9302 -0.2970
vn -0.3356 0.8210 -0.4619
vn -0.4950 0.5392 -0.6813
vn -0.5532 0.3379 -0.7614
vn -0.0000 -0.5430 -0.8398
vn -0.4936 -0.5430 -0.6794
vn 0.7586 -0.6031 0.2465
vn -0.0000 0.9940 -0.1094
vn 0.7586 -0.6031 -0.2465
vn -0.0000 0.8210 -0.5710
vn -0.0000 0.5392 -0.8422
vn -0.7987 -0.5430 -0.2595
vn 0.5543 0.3329 0.7629
vn -0.7987 -0.5430 0.2595
vn -0.2873 0.9533 -0.0933
vn -0.6967 0.6807 -0.2264
vn -0.8280 0.4919 -0.2690
vn -0.2873 0.9533 0.0933
vn -0.6967 0.6807 0.2264
vn -0.8280 0.4919 0.2690
vn -0.1775 0.9533 0.2444
vn -0.4306 0.6807 0.5927
vn -0.5118 0.4919 0.7044
vn -0.0000 0.9533 0.3021
vn -0.0000 0.6807 0.7326
vn -0.0000 0.4919 0.8706
vn 0.1775 0.9533 0.2444
vn 0.4306 0.6807 0.5927
vn 0.5117 0.4919 0.7044
vn 0.2873 0.9533 0.0933
vn 0.6967 0.6807 0.2264
vn 0.8280 0.4919 0.2690
vn 0.2873 0.9533 -0.0933
vn 0.6967 0.6807 -0.2264
vn 0.8280 0.4919 -0.2690
vn 0.1775 0.9533 -0.2444
vn 0.4306 0.6807 -0.5927
vn 0.5118 0.4919 -0.7044
vn -0.0000 0.9533 -0.3021
vn -0.0000 0.6807 -0.7326
vn -0.0000 0.4919 -0.8706
vn -0.1815 0.9511 -0.2498
vn -0.4381 0.6667 -0.6030
vn -0.5190 0.4694 -0.7143
vn -0.2937 0.9511 -0.0954
vn -0.7089 0.6667 -0.2303
vn -0.8397 0.4694 -0.2729
vn -0.2937 0.9511 0.0954
vn -0.7089 0.6667 0.2303
vn -0.8397 0.4694 0.2729
vn -0.1815 0.9511 0.2498
vn -0.4381 0.6667 0.6030
vn -0.5190 0.4694 0.7143
vn -0.0000 0.9511 0.3088
vn -0.0000 0.6667 0.7454
vn -0.2041 0.9377 -0.2810
vn -0.4783 0.5813 -0.6583
vn -0.0000 0.4694 0.8830
vn 0.1815 0.9511 0.2498
vn 0.4381 0.6667 0.6030
vn 0.5190 0.4694 0.7143
vn 0.2937 0.9511 0.0954
vn 0.7089 0.6667 0.2303
vn 0.8397 0.4694 0.2729
vn -0.5543 0.3329 -0.7629
vn -0.3303 0.9377 -0.1073
vn -0.7739 0.5813 -0.2515
vn 0.2937 0.9511 -0.0954
vn 0.7089 0.6667 -0.2303
vn 0.8397 0.4694 -0.2729
vn 0.1815 0.9511 -0.2498
vn 0.4381 0.6667 -0.6030
vn 0.5190 0.4694 -0.7143
vn -0.0000 0.9511 -0.3088
vn -0.0000 0.6667 -0.7454
vn -0.8968 0.3329 -0.2914
vn -0.3303 0.9377 0.1073
vn -0.7739 0.5813 0.2514
vn -0.8968 0.3329 0.2914
vn -0.2042 0.9377 0.2810
vn -0.4783 0.5813 0.6583
vn -0.5543 0.3329 0.7629
vn -0.0000 0.4694 -0.8830
vn -0.0000 0.9377 0.3473
vn -0.0000 0.5813 0.8137
vn -0.0000 0.3329 0.9430
vn 0.2042 0.9377 0.2810
vn 0.4783 0.5813 0.6583
vt 0.000000 0.750000
vt 0.228195 0.314084
vt 0.440839 0.606763
vt -0.671060 0.923635
vt -1.053145 0.342188
vt -0.650879 0.895859
vt 0.000000 0.000000
vt 0.851635 0.142350
vt 0.881678 0.000000
vt 0.623440 0.858092
vt 0.000000 1.060660
vt 0.444776 -0.579921
vt 1.153935 -0.600000
vt 0.440764 -0.600000
vt -0.905130 -1.680180
vt -0.341879 -1.700000
vt -0.895050 -1.700000
vt 0.763555 1.050944
vt -0.000000 1.299038
vt 0.000000 1.141675
vt 0.000000 1.107342
vt -0.000000 0.388229
vt 0.851635 1.172176
vt -0.000000 1.448889
vt -0.305471 -0.420445
vt 0.000000 -0.484842
vt -0.284983 -0.392246
vt 1.235459 0.401425
vt 0.369227 0.119969
vt -0.000000 -2.978671
vt -0.285865 -3.000000
vt -0.295344 -2.978671
vt 1.377975 0.447731
vt 0.034404 -0.047353
vt 0.026004 -0.008449
vt 0.016071 -0.022120
vt 0.713292 0.231763
vt 0.305471 -0.420445
vt 0.000000 -0.519698
vt 1.172176 0.142350
vt 0.463526 0.000000
vt 1.213526 0.000000
vt 1.008748 0.327762
vt 0.447731 0.142350
vt -0.463525 0.000000
vt 1.008748 -0.327762
vt 0.295344 -2.978671
vt 0.000000 -3.000000
vt 0.000000 -2.978671
vt 0.285865 -3.000000
vt 1.235459 -0.401425
vt 0.369227 -0.119969
vt 1.377975 -0.447731
vt 0.713292 -0.231763
vt 0.000000 -1.680180
vt -0.650292 -1.700000
vt 0.000000 -1.700000
vt 0.851636 -1.172176
vt 0.440839 -0.606763
vt -0.447731 0.142350
vt -1.213526 0.000000
vt 0.623440 -0.858092
vt 0.763555 -1.050944
vt -0.305471 0.420445
vt 0.000000 0.484842
vt -0.000000 0.519698
vt 0.228195 -0.314084
vt 0.000000 -1.299038
vt 0.000000 -0.388229
vt 0.000000 -1.448889
vt -0.034404 0.047353
vt -0.000000 0.027342
vt -0.000000 0.058531
vt 0.000000 -0.750000
vt 0.881678 0.000000
vt 0.000000 0.142350
vt 0.000000 0.000000
vt 0.000000 -1.060660
vt -0.881678 0.000000
vt -0.440839 -0.606763
vt -0.623440 -0.858092
vt -0.763555 -1.050944
vt -0.228195 -0.314084
vt -0.851635 -1.172176
vt -0.369227 -0.119969
vt -0.494262 0.160596
vt -0.284983 0.392246
vt -1.377975 -0.447731
vt -0.494262 -0.160596
vt -0.461112 -0.149824
vt -0.713292 -0.231763
vt -1.172176 0.142350
vt -0.463526 0.000000
vt -1.213526 0.000000
vt -1.008748 -0.327762
vt 0.034404 0.047353
vt 0.026004 0.008449
vt 0.055666 0.018087
vt 0.650292 -1.700000
vt 0.657615 -1.680180
vt -1.235459 -0.401425
vt -0.461112 0.149824
vt -1.235459 0.401425
vt 0.345729 -1.680180
vt -0.345729 -1.680180
vt -0.369227 0.119969
vt -1.377975 0.447731
vt 0.000000 -0.058531
vt -0.016071 -0.022120
vt -0.034404 -0.047353
vt -0.713293 0.231763
vt -0.447731 0.142350
vt 0.463525 0.000000
vt -1.008748 0.327762
vt -0.440839 0.606763
vt -0.657615 -1.680180
vt 0.447731 0.142350
vt -0.623440 0.858092
vt 0.905130 -1.680180
vt 0.341879 -1.700000
vt -0.763555 1.050944
vt -0.228195 0.314084
vt -0.851636 1.172176
vt 0.000000 -0.579921
vt -0.838383 -0.600000
vt -0.846014 -0.579921
vt -0.851636 0.142350
vt -0.881678 0.000000
vt 0.494262 -0.160596
vt 0.284983 -0.392246
vt -0.155271 -2.978671
vt 0.150288 -3.000000
vt 0.155271 -2.978671
vt -0.444776 -0.579921
vt -0.440764 -0.600000
vt -0.671060 -0.923635
vt -1.053145 -0.342188
vt -1.085798 -0.352797
vt -1.153935 -0.600000
vt -1.164438 -0.579921
vt 0.393459 -3.000000
vt 0.406506 -2.978671
vt -1.085798 0.352797
vt 0.494262 0.160596
vt 0.284983 0.392246
vt 0.461112 0.149824
vt -0.000000 -0.579921
vt 0.000000 -0.600000
vt -0.406506 -2.978671
vt -0.150288 -3.000000
vt 0.000000 -1.141675
vt 0.650879 -0.895859
vt 0.000000 -1.107342
vt 0.838383 -0.600000
vt 0.846014 -0.579921
vt -0.650879 -0.895859
vt -0.444776 -0.579921
vt 0.305471 0.420445
vt 1.085798 0.352797
vt 1.053145 -0.342188
vt 1.085798 -0.352797
vt 0.444776 -0.579921
vt 0.671060 -0.923635
vt 0.055666 -0.018087
vt -0.345729 -1.680180
vt 0.345729 -1.680180
vt 1.164438 -0.579921
vt 0.016071 0.022120
vt 0.461112 -0.149824
vt 0.671060 0.923635
vt 1.053145 0.342188
vt -0.000000 -0.600000
vt 0.650879 0.895859
vt 0.895050 -1.700000
vt -0.055666 -0.018087
vt -0.026004 0.008449
vt -0.055666 0.018087
vt 0.000000 -0.027342
vt -0.026004 -0.008449
vt -0.393459 -3.000000
vt -0.016071 0.022120
vt -0.285865 0.393459
vt 0.462539 -0.150288
vt 0.000000 -0.486342
vt -0.018087 -1.721329
vt 0.034404 -1.721329
vt 0.018087 -1.721329
vt 0.047353 -1.721329
vt -0.000000 -1.721329
vt -0.034404 -1.721329
vt 0.160596 -0.619820
vt -0.305471 -0.619820
vt 1.052194 0.341879
vt -0.650292 -0.895050
vt -1.052194 0.341879
vt -0.420445 -0.619820
vt -0.657615 -1.680180
vt 0.305471 -0.619820
vt -0.160596 -0.619820
vt 0.420445 -0.619820
vt 0.657615 -1.680180
vt 0.923635 -0.020079
vt 1.164438 -0.579921
vt -0.671060 -0.020079
vt 1.356532 0.440764
vt -0.838383 -1.153935
vt -1.356532 0.440764
vt -0.352797 -0.020079
vt -0.923635 -0.020079
vt 0.000000 -0.020079
vt -0.846014 -0.579921
vt 0.671060 -0.020079
vt -1.164438 -0.579921
vt 0.352797 -0.020079
vt 0.846014 -0.579921
vt -0.047353 -1.721329
vt 0.000000 -1.721329
vt -0.000000 0.142350
vt -1.172176 0.142350
vt 0.851636 0.142350
vt -0.851635 0.142350
vt -0.285865 -0.393459
vt -0.462539 -0.150288
vt -0.462539 0.150288
vt 0.000000 0.486342
vt 0.285865 0.393459
vt 0.462539 0.150288
vt 0.285865 -0.393459
vt -0.047353 -1.721329
vt 0.034404 -1.721329
vt 0.420445 -0.619820
vt -0.000000 -0.619820
vt -0.650292 0.895050
vt 0.000000 1.106342
vt 0.650292 0.895050
vt 1.052194 -0.341879
vt 0.650292 -0.895050
vt 0.000000 -1.106342
vt -1.052194 -0.341879
vt 0.000000 -0.619820
vt -0.420445 -0.619820
vt 0.352797 -0.020079
vt -0.838383 1.153935
vt -0.000000 1.426342
vt 0.838383 1.153935
vt 1.356532 -0.440764
vt 0.838383 -1.153935
vt 0.000000 -1.426342
vt -1.356532 -0.440764
vt 0.047353 -1.721329
vt -0.352797 -0.020079
vt -0.034404 -1.721329
s 1
f 3/1/3 15/2/13 16/3/14
f 181/4/137 184/5/139 180/6/136
f 7/7/7 19/8/17 20/9/18
f 3/1/3 17/10/15 4/11/4
f 138/12/106 130/13/100 143/14/106
f 90/15/72 87/16/61 99/17/72
f 4/11/4 18/18/16 135/19/104
f 223/20/169 180/6/136 222/21/168
f 132/22/102 1/7/1 15/2/13
f 135/19/104 19/23/17 136/24/105
f 153/25/116 156/26/118 152/27/115
f 17/10/15 31/28/27 18/18/16
f 15/2/13 1/7/1 28/29/24
f 118/30/92 77/31/62 125/32/62
f 19/23/17 31/28/27 32/33/28
f 241/34/182 104/35/82 240/36/181
f 15/2/13 29/37/25 16/3/14
f 161/38/122 156/26/118 157/39/119
f 19/40/17 33/41/29 20/42/18
f 16/3/14 30/43/26 17/10/15
f 32/44/28 46/45/38 33/41/29
f 29/37/25 43/46/35 30/43/26
f 113/47/91 116/48/92 118/30/92
f 60/49/51 62/50/52 61/47/52
f 31/28/27 43/46/35 44/51/36
f 28/29/24 1/7/1 41/52/33
f 32/33/28 44/51/36 45/53/37
f 28/29/24 42/54/34 29/37/25
f 100/55/80 99/56/72 103/57/80
f 44/51/36 58/58/49 45/53/37
f 41/52/33 55/59/46 42/54/34
f 45/60/37 59/61/50 46/45/38
f 42/54/34 56/62/47 43/46/35
f 43/46/35 57/63/48 44/51/36
f 6/64/6 176/65/133 177/66/134
f 41/52/33 1/7/1 54/67/45
f 56/62/47 70/68/58 57/63/48
f 54/67/45 1/7/1 67/69/55
f 57/63/48 71/70/59 58/58/49
f 199/71/151 26/72/22 14/73/12
f 54/67/45 68/74/56 55/59/46
f 59/75/50 71/76/59 72/77/60
f 55/59/46 69/78/57 56/62/47
f 71/76/59 85/79/70 72/77/60
f 69/78/57 81/80/66 82/81/67
f 69/78/57 83/82/68 70/68/58
f 67/69/55 1/7/1 80/83/65
f 71/70/59 83/82/68 84/84/69
f 67/69/55 81/80/66 68/74/56
f 80/83/65 1/7/1 93/85/74
f 145/86/110 8/87/8 6/64/6
f 83/82/68 97/88/78 84/84/69
f 149/89/113 152/27/115 148/90/112
f 80/83/65 94/91/75 81/80/66
f 84/92/69 98/93/79 85/94/70
f 82/81/67 94/91/75 95/95/76
f 40/96/32 78/97/63 66/98/54
f 100/55/80 102/99/81 101/100/81
f 83/82/68 95/95/76 96/101/77
f 149/89/113 144/102/109 145/86/110
f 95/95/76 109/103/87 96/101/77
f 88/104/53 87/16/61 75/105/61
f 93/85/74 1/7/1 106/106/84
f 96/101/77 110/107/88 97/88/78
f 237/108/179 230/109/174 231/110/175
f 93/85/74 107/111/85 94/91/75
f 97/112/78 111/113/89 98/93/79
f 95/95/76 107/111/85 108/114/86
f 106/106/84 120/115/94 107/111/85
f 114/55/90 105/56/83 115/116/83
f 110/117/88 124/42/98 111/113/89
f 107/111/85 121/118/95 108/114/86
f 115/119/83 64/120/53 88/104/53
f 108/114/86 122/121/96 109/103/87
f 106/106/84 1/7/1 119/122/93
f 109/103/87 123/123/97 110/107/88
f 119/122/93 1/7/1 132/22/102
f 122/121/96 136/24/105 123/123/97
f 119/122/93 3/1/3 120/115/94
f 126/124/99 130/125/100 128/126/100
f 123/127/97 7/7/7 124/128/98
f 121/118/95 3/1/3 4/11/4
f 165/129/125 160/130/121 161/38/122
f 121/118/95 135/19/104 122/121/96
f 131/131/101 134/132/103 133/133/103
f 140/134/108 143/14/106 141/135/108
f 193/136/146 188/137/142 189/138/143
f 140/134/108 48/139/40 129/140/40
f 133/133/103 117/141/91 113/142/91
f 189/138/143 184/5/139 185/143/140
f 169/144/128 172/145/130 168/146/127
f 74/147/39 48/125/40 47/148/39
f 61/149/52 137/150/101 131/131/101
f 197/151/149 202/152/153 196/153/148
f 74/147/39 37/154/31 38/155/31
f 114/55/90 51/99/42 112/57/90
f 197/151/149 192/156/145 193/136/146
f 36/157/30 37/139/31 35/135/30
f 173/158/131 176/65/133 172/145/130
f 215/159/163 206/160/156 207/161/157
f 34/162/21 35/135/30 25/14/21
f 203/163/154 206/160/156 202/152/153
f 66/98/54 104/35/82 92/164/73
f 86/165/71 23/120/20 24/166/20
f 34/162/21 73/13/41 49/167/41
f 14/73/12 52/168/43 40/96/32
f 101/15/81 89/16/71 86/165/71
f 169/144/128 164/169/124 165/129/125
f 219/170/166 214/171/162 215/159/163
f 126/124/99 73/154/41 127/172/99
f 223/20/169 218/173/165 219/170/166
f 76/119/42 23/120/20 51/174/42
f 125/142/62 22/132/19 50/133/19
f 227/175/172 212/176/160 213/177/161
f 241/34/182 236/178/178 237/108/179
f 21/32/11 63/48/51 60/49/51
f 50/133/19 10/150/10 11/131/10
f 231/110/175 226/179/171 227/175/172
f 11/131/10 13/180/11 21/149/11
f 199/71/151 212/176/160 198/181/150
f 210/182/5 91/183/5 238/184/5
f 92/185/73 139/149/107 79/131/64
f 241/186/182 239/49/180 139/47/107
f 240/36/181 26/72/22 212/176/160
f 66/187/54 79/131/64 53/133/44
f 40/188/32 53/133/44 27/142/23
f 14/189/12 27/47/23 9/30/9
f 199/190/151 9/30/9 211/32/159
f 152/27/115 168/146/127 176/65/133
f 145/191/110 2/119/2 147/104/111
f 6/192/6 179/55/135 2/116/2
f 170/193/5 154/194/5 146/195/5
f 151/105/114 145/191/110 147/104/111
f 153/196/116 151/105/114 155/15/117
f 159/55/120 153/192/116 155/197/117
f 161/198/122 159/55/120 163/100/123
f 165/199/125 163/15/123 167/165/126
f 171/166/129 165/199/125 167/165/126
f 173/200/131 171/166/129 175/119/132
f 179/55/135 173/198/131 175/201/132
f 188/137/142 206/160/156 218/173/165
f 187/12/141 181/202/137 183/203/138
f 181/204/137 235/124/177 183/126/138
f 216/205/5 194/206/5 186/207/5
f 189/208/143 187/12/141 191/134/144
f 193/209/146 191/134/144 195/140/147
f 197/210/149 195/211/147 201/147/152
f 203/212/154 201/147/152 205/155/155
f 213/187/161 211/142/159 225/133/170
f 209/157/158 203/209/154 205/213/155
f 215/214/163 209/157/158 217/162/164
f 227/185/172 225/133/170 229/131/173
f 219/202/166 217/162/164 221/167/167
f 223/210/169 221/215/167 235/124/177
f 231/216/175 229/131/173 233/149/176
f 237/217/179 233/32/176 239/49/180
f 3/1/3 132/22/102 15/2/13
f 181/4/137 185/143/140 184/5/139
f 7/7/7 136/218/105 19/8/17
f 3/1/3 16/3/14 17/10/15
f 138/12/106 128/203/100 130/13/100
f 90/15/72 75/105/61 87/16/61
f 4/11/4 17/10/15 18/18/16
f 223/20/169 181/4/137 180/6/136
f 135/19/104 18/18/16 19/23/17
f 153/25/116 157/39/119 156/26/118
f 17/10/15 30/43/26 31/28/27
f 118/30/92 116/48/92 77/31/62
f 19/23/17 18/18/16 31/28/27
f 241/34/182 92/164/73 104/35/82
f 15/2/13 28/29/24 29/37/25
f 161/38/122 160/130/121 156/26/118
f 19/40/17 32/44/28 33/41/29
f 16/3/14 29/37/25 30/43/26
f 32/44/28 45/60/37 46/45/38
f 29/37/25 42/54/34 43/46/35
f 113/47/91 117/50/91 116/48/92
f 60/49/51 63/48/51 62/50/52
f 31/28/27 30/43/26 43/46/35
f 32/33/28 31/28/27 44/51/36
f 28/29/24 41/52/33 42/54/34
f 100/55/80 90/197/72 99/56/72
f 44/51/36 57/63/48 58/58/49
f 41/52/33 54/67/45 55/59/46
f 45/60/37 58/219/49 59/61/50
f 42/54/34 55/59/46 56/62/47
f 43/46/35 56/62/47 57/63/48
f 6/64/6 8/87/8 176/65/133
f 56/62/47 69/78/57 70/68/58
f 57/63/48 70/68/58 71/70/59
f 199/71/151 198/181/150 26/72/22
f 54/67/45 67/69/55 68/74/56
f 59/75/50 58/220/49 71/76/59
f 55/59/46 68/74/56 69/78/57
f 71/76/59 84/221/69 85/79/70
f 69/78/57 68/74/56 81/80/66
f 69/78/57 82/81/67 83/82/68
f 71/70/59 70/68/58 83/82/68
f 67/69/55 80/83/65 81/80/66
f 145/86/110 144/102/109 8/87/8
f 83/82/68 96/101/77 97/88/78
f 149/89/113 153/25/116 152/27/115
f 80/83/65 93/85/74 94/91/75
f 84/92/69 97/112/78 98/93/79
f 82/81/67 81/80/66 94/91/75
f 40/96/32 52/168/43 78/97/63
f 100/55/80 103/57/80 102/99/81
f 83/82/68 82/81/67 95/95/76
f 149/89/113 148/90/112 144/102/109
f 95/95/76 108/114/86 109/103/87
f 88/104/53 64/120/53 87/16/61
f 96/101/77 109/103/87 110/107/88
f 237/108/179 236/178/178 230/109/174
f 93/85/74 106/106/84 107/111/85
f 97/112/78 110/117/88 111/113/89
f 95/95/76 94/91/75 107/111/85
f 106/106/84 119/122/93 120/115/94
f 114/55/90 112/57/90 105/56/83
f 110/117/88 123/40/97 124/42/98
f 107/111/85 120/115/94 121/118/95
f 115/119/83 105/174/83 64/120/53
f 108/114/86 121/118/95 122/121/96
f 109/103/87 122/121/96 123/123/97
f 122/121/96 135/19/104 136/24/105
f 119/122/93 132/22/102 3/1/3
f 126/124/99 127/172/99 130/125/100
f 123/127/97 136/218/105 7/7/7
f 121/118/95 120/115/94 3/1/3
f 165/129/125 164/169/124 160/130/121
f 121/118/95 4/11/4 135/19/104
f 131/131/101 137/150/101 134/132/103
f 140/134/108 138/12/106 143/14/106
f 193/136/146 192/156/145 188/137/142
f 140/134/108 141/135/108 48/139/40
f 133/133/103 134/132/103 117/141/91
f 189/138/143 188/137/142 184/5/139
f 169/144/128 173/158/131 172/145/130
f 74/147/39 129/211/40 48/125/40
f 61/149/52 62/180/52 137/150/101
f 197/151/149 203/163/154 202/152/153
f 74/147/39 47/148/39 37/154/31
f 114/55/90 76/201/42 51/99/42
f 197/151/149 196/153/148 192/156/145
f 36/157/30 38/213/31 37/139/31
f 173/158/131 177/66/134 176/65/133
f 215/159/163 214/171/162 206/160/156
f 34/162/21 36/157/30 35/135/30
f 203/163/154 207/161/157 206/160/156
f 66/98/54 78/97/63 104/35/82
f 86/165/71 89/16/71 23/120/20
f 34/162/21 25/14/21 73/13/41
f 14/73/12 26/72/22 52/168/43
f 101/15/81 102/17/81 89/16/71
f 169/144/128 168/146/127 164/169/124
f 219/170/166 218/173/165 214/171/162
f 126/124/99 49/215/41 73/154/41
f 223/20/169 222/21/168 218/173/165
f 76/119/42 24/166/20 23/120/20
f 125/142/62 77/141/62 22/132/19
f 227/175/172 226/179/171 212/176/160
f 241/34/182 240/36/181 236/178/178
f 21/32/11 13/31/11 63/48/51
f 50/133/19 22/132/19 10/150/10
f 231/110/175 230/109/174 226/179/171
f 11/131/10 10/150/10 13/180/11
f 199/71/151 213/177/161 212/176/160
f 238/184/5 232/222/5 228/223/5
f 228/223/5 224/224/5 210/182/5
f 210/182/5 12/225/5 39/226/5
f 39/226/5 65/227/5 91/183/5
f 91/183/5 142/228/5 238/184/5
f 238/184/5 228/223/5 210/182/5
f 210/182/5 39/226/5 91/183/5
f 92/185/73 241/229/182 139/149/107
f 241/186/182 237/217/179 239/49/180
f 212/176/160 226/179/171 230/109/174
f 230/109/174 236/178/178 240/36/181
f 240/36/181 104/35/82 78/97/63
f 78/97/63 52/168/43 26/72/22
f 26/72/22 198/181/150 212/176/160
f 212/176/160 230/109/174 240/36/181
f 240/36/181 78/97/63 26/72/22
f 66/187/54 92/185/73 79/131/64
f 40/188/32 66/187/54 53/133/44
f 14/189/12 40/230/32 27/47/23
f 199/190/151 14/189/12 9/30/9
f 176/65/133 8/87/8 144/102/109
f 144/102/109 148/90/112 152/27/115
f 152/27/115 156/26/118 160/130/121
f 160/130/121 164/169/124 168/146/127
f 168/146/127 172/145/130 176/65/133
f 176/65/133 144/102/109 152/27/115
f 152/27/115 160/130/121 168/146/127
f 145/191/110 6/231/6 2/119/2
f 6/192/6 177/232/134 179/55/135
f 146/195/5 5/233/5 178/234/5
f 178/234/5 174/235/5 170/193/5
f 170/193/5 166/236/5 162/237/5
f 162/237/5 158/238/5 154/194/5
f 154/194/5 150/239/5 146/195/5
f 146/195/5 178/234/5 170/193/5
f 170/193/5 162/237/5 154/194/5
f 151/105/114 149/199/113 145/191/110
f 153/196/116 149/199/113 151/105/114
f 159/55/120 157/240/119 153/192/116
f 161/198/122 157/240/119 159/55/120
f 165/199/125 161/241/122 163/15/123
f 171/166/129 169/191/128 165/199/125
f 173/200/131 169/191/128 171/166/129
f 179/55/135 177/232/134 173/198/131
f 218/173/165 222/21/168 180/6/136
f 180/6/136 184/5/139 188/137/142
f 188/137/142 192/156/145 196/153/148
f 196/153/148 202/152/153 206/160/156
f 206/160/156 214/171/162 218/173/165
f 218/173/165 180/6/136 188/137/142
f 188/137/142 196/153/148 206/160/156
f 187/12/141 185/242/140 181/202/137
f 181/204/137 223/210/169 235/124/177
f 186/207/5 182/243/5 234/244/5
f 234/244/5 220/245/5 216/205/5
f 216/205/5 208/246/5 204/247/5
f 204/247/5 200/248/5 194/206/5
f 194/206/5 190/249/5 186/207/5
f 186/207/5 234/244/5 216/205/5
f 216/205/5 204/247/5 194/206/5
f 189/208/143 185/242/140 187/12/141
f 193/209/146 189/208/143 191/134/144
f 197/210/149 193/204/146 195/211/147
f 203/212/154 197/210/149 201/147/152
f 213/187/161 199/250/151 211/142/159
f 209/157/158 207/251/157 203/209/154
f 215/214/163 207/251/157 209/157/158
f 227/185/172 213/187/161 225/133/170
f 219/202/166 215/214/163 217/162/164
f 223/210/169 219/212/166 221/215/167
f 231/216/175 227/185/172 229/131/173
f 237/217/179 231/252/175 233/32/176
