# Blender 5.2.0 LTS
# www.blender.org
o Backdrop_PirateShip
v 14.550000 64.890007 -20.000000
v 14.550000 63.990002 -20.000000
v 15.000000 63.990002 -19.549999
v 15.000000 64.890007 -19.549999
v -19.450001 21.450001 11.000000
v -19.450001 38.549999 11.000000
v -19.000000 38.549999 10.550000
v -19.450001 39.000000 10.550000
v -19.000000 21.450001 10.550000
v -19.450001 21.000000 10.550000
v -19.000000 21.450001 -10.550000
v -19.000000 38.549999 -10.550000
v -19.450001 38.549999 -11.000000
v -19.450001 39.000000 -10.550000
v -19.450001 21.450001 -11.000000
v -19.450001 21.000000 -10.550000
v -40.549999 21.450001 -11.000000
v -40.549999 38.549999 -11.000000
v -41.000000 38.549999 -10.550000
v -40.549999 39.000000 -10.550000
v -40.549999 39.000000 10.550000
v -41.000000 38.549999 10.550000
v -40.549999 38.549999 11.000000
v -40.549999 21.450001 11.000000
v -41.000000 21.450001 -10.550000
v -41.000000 21.450001 10.550000
v -40.549999 21.000000 10.550000
v -40.549999 21.000000 -10.550000
v 31.549999 18.450001 11.000000
v 31.549999 25.549999 11.000000
v 32.000000 25.549999 10.550000
v 31.549999 26.000000 10.550000
v 32.000000 18.450001 10.550000
v 31.549999 18.000000 10.550000
v 32.000000 18.450001 -10.550000
v 32.000000 25.549999 -10.550000
v 31.549999 25.549999 -11.000000
v 31.549999 26.000000 -10.550000
v 31.549999 18.450001 -11.000000
v 31.549999 18.000000 -10.550000
v -31.549999 18.450001 -11.000000
v -31.549999 25.549999 -11.000000
v -32.000000 25.549999 -10.550000
v -31.549999 26.000000 -10.550000
v -31.549999 26.000000 10.550000
v -32.000000 25.549999 10.550000
v -31.549999 25.549999 11.000000
v -31.549999 18.450001 11.000000
v -32.000000 18.450001 -10.550000
v -32.000000 18.450001 10.550000
v -31.549999 18.000000 10.550000
v -31.549999 18.000000 -10.550000
v 37.549999 0.450000 13.000000
v 37.549999 19.549999 13.000000
v 38.000000 19.549999 12.550000
v 37.549999 20.000000 12.550000
v 38.000000 0.450000 12.550000
v 37.549999 0.000000 12.550000
v 38.000000 0.450000 -12.550000
v 38.000000 19.549999 -12.550000
v 37.549999 19.549999 -13.000000
v 37.549999 20.000000 -12.550000
v 37.549999 0.450000 -13.000000
v 37.549999 0.000000 -12.550000
v -37.549999 0.450000 -13.000000
v -37.549999 19.549999 -13.000000
v -38.000000 19.549999 -12.550000
v -37.549999 20.000000 -12.550000
v -37.549999 20.000000 12.550000
v -38.000000 19.549999 12.550000
v -37.549999 19.549999 13.000000
v -37.549999 0.450000 13.000000
v -38.000000 0.450000 -12.550000
v -38.000000 0.450000 12.550000
v -37.549999 0.000000 12.550000
v -37.549999 0.000000 -12.550000
v 36.424263 20.568047 9.042389
v 36.424263 20.568047 9.042389
v 36.000000 20.742386 8.742389
v 36.000000 20.742386 8.742389
v 36.000000 20.742386 8.742389
v 36.424263 21.042387 8.568048
v 36.424263 21.042387 8.568048
v 36.424263 2.957611 8.568047
v 36.424263 2.957611 8.568047
v 36.000000 3.257611 8.742388
v 36.000000 3.257611 8.742388
v 36.000000 3.257611 8.742388
v 36.424263 3.431952 9.042388
v 36.424263 3.431952 9.042388
v 36.424263 3.431952 -9.042389
v 36.424263 3.431952 -9.042389
v -37.549999 0.450000 13.000000
v -37.549999 0.000000 12.550000
v 36.000000 3.257612 -8.742389
v 36.000000 3.257612 -8.742389
v 36.000000 3.257612 -8.742389
v 36.424263 2.957611 -8.568048
v 36.424263 2.957611 -8.568048
v 36.424263 21.042387 -8.568047
v 36.424263 21.042387 -8.568047
v 36.000000 20.742386 -8.742388
v 36.000000 20.742386 -8.742388
v 36.000000 20.742386 -8.742388
v 36.424263 20.568047 -9.042388
v 36.424263 20.568047 -9.042388
v -38.000000 0.450000 12.550000
v -37.549999 19.549999 13.000000
v -37.549999 20.000000 12.550000
v -38.000000 19.549999 12.550000
v -37.549999 0.000000 -12.550000
v -38.000000 0.450000 -12.550000
v -37.549999 0.450000 -13.000000
v -37.549999 20.000000 -12.550000
v -37.549999 19.549999 -13.000000
v -38.000000 19.549999 -12.550000
v 37.549999 0.000000 12.550000
v 38.000000 0.450000 12.550000
v 37.549999 0.450000 13.000000
v 37.549999 20.000000 12.550000
v 37.549999 19.549999 13.000000
v 38.000000 19.549999 12.550000
v 37.549999 0.000000 -12.550000
v 37.549999 0.450000 -13.000000
v 38.000000 0.450000 -12.550000
v 37.549999 20.000000 -12.550000
v 38.000000 19.549999 -12.550000
v 37.549999 19.549999 -13.000000
v -31.549999 18.000000 10.550000
v -31.549999 18.450001 11.000000
v -32.000000 18.450001 10.550000
v -31.549999 25.549999 11.000000
v -31.549999 26.000000 10.550000
v -32.000000 25.549999 10.550000
v -31.549999 18.000000 -10.550000
v -32.000000 18.450001 -10.550000
v -31.549999 18.450001 -11.000000
v -31.549999 26.000000 -10.550000
v -31.549999 25.549999 -11.000000
v -32.000000 25.549999 -10.550000
v 31.549999 18.000000 10.550000
v 32.000000 18.450001 10.550000
v 31.549999 18.450001 11.000000
v 31.549999 26.000000 10.550000
v 31.549999 25.549999 11.000000
v 32.000000 25.549999 10.550000
v 31.549999 18.000000 -10.550000
v 31.549999 18.450001 -11.000000
v 32.000000 18.450001 -10.550000
v 31.549999 26.000000 -10.550000
v 32.000000 25.549999 -10.550000
v 31.549999 25.549999 -11.000000
v -40.549999 21.000000 10.550000
v -40.549999 21.450001 11.000000
v -41.000000 21.450001 10.550000
v -40.549999 38.549999 11.000000
v -40.549999 39.000000 10.550000
v -41.000000 38.549999 10.550000
v -40.549999 21.000000 -10.550000
v -41.000000 21.450001 -10.550000
v -40.549999 21.450001 -11.000000
v -40.549999 39.000000 -10.550000
v -40.549999 38.549999 -11.000000
v -41.000000 38.549999 -10.550000
v -19.450001 21.000000 10.550000
v -19.000000 21.450001 10.550000
v -19.450001 21.450001 11.000000
v -19.450001 39.000000 10.550000
v -19.450001 38.549999 11.000000
v -19.000000 38.549999 10.550000
v -19.450001 21.000000 -10.550000
v -19.450001 21.450001 -11.000000
v -19.000000 21.450001 -10.550000
v -19.450001 39.000000 -10.550000
v -19.000000 38.549999 -10.550000
v -19.450001 38.549999 -11.000000
v 13.450000 63.540001 19.549999
v 13.450000 63.990002 20.000000
v 13.000000 63.990002 19.549999
v 13.450000 64.890007 20.000000
v 13.450000 65.340004 19.549999
v 13.000000 64.890007 19.549999
v 36.000000 20.742386 -8.742388
v 36.424263 21.042387 -8.568047
v 36.424263 20.568047 -9.042388
v 60.000000 12.257108 -0.257107
v 59.575737 12.382766 -0.857107
v 59.575737 12.857107 -0.382765
v 36.000000 3.257612 -8.742389
v 36.424263 3.431952 -9.042389
v 36.424263 2.957611 -8.568048
v 60.000000 11.742894 -0.257107
v 59.575737 11.142895 -0.382765
v 59.575737 11.617236 -0.857107
v 36.000000 3.257611 8.742388
v 36.424263 2.957611 8.568047
v 36.424263 3.431952 9.042388
v 60.000000 11.742894 0.257107
v 59.575737 11.617236 0.857107
v 59.575737 11.142895 0.382765
v 36.000000 20.742386 8.742389
v 36.424263 20.568047 9.042389
v 36.424263 21.042387 8.568048
v 60.000000 12.257108 0.257107
v 59.575737 12.857107 0.382765
v 59.575737 12.382766 0.857107
v 14.000000 26.000000 -1.700538
v 13.594564 26.450001 -2.004753
v 14.405436 26.450001 -2.004752
v 14.000000 88.000000 -1.700538
v 14.405436 87.550003 -2.004753
v 13.594564 87.550003 -2.004752
v 15.329534 26.000000 -1.060268
v 15.314593 26.450001 -1.566925
v 15.820164 26.450001 -0.932960
v 15.329534 88.000000 -1.060268
v 15.820164 87.550003 -0.932960
v 15.314593 87.550003 -1.566925
v 15.657902 26.000000 0.378406
v 16.044708 26.450001 0.050829
v 15.864271 26.450001 0.841370
v 15.657902 88.000000 0.378406
v 15.864271 87.550003 0.841370
v 16.044708 87.550003 0.050829
v 14.737836 26.000000 1.532132
v 15.235115 26.450001 1.630307
v 14.504544 26.450001 1.982131
v 14.737836 88.000000 1.532132
v 14.504544 87.550003 1.982131
v 15.235115 87.550003 1.630307
v 13.262164 26.000000 1.532132
v 13.495456 26.450001 1.982131
v 12.764886 26.450001 1.630307
v 13.262164 88.000000 1.532132
v 12.764886 87.550003 1.630308
v 13.495456 87.550003 1.982131
v 12.342098 26.000000 0.378406
v 12.135729 26.450001 0.841370
v 11.955294 26.450001 0.050829
v 12.342098 88.000000 0.378406
v 11.955294 87.550003 0.050828
v 12.135729 87.550003 0.841370
v 12.670466 26.000000 -1.060268
v 12.179836 26.450001 -0.932960
v 12.685407 26.450001 -1.566925
v 12.670466 88.000000 -1.060268
v 12.685407 87.550003 -1.566925
v 12.179836 87.550003 -0.932960
v 13.450000 63.540001 -19.549999
v 13.000000 63.990002 -19.549999
v 13.450000 63.990002 -20.000000
v 13.450000 65.340004 -19.549999
v 13.450000 64.890007 -20.000000
v 13.000000 64.890007 -19.549999
v 14.550000 63.540001 19.549999
v 15.000000 63.990002 19.549999
v 14.550000 63.990002 20.000000
v 14.550000 65.340004 19.549999
v 14.550000 64.890007 20.000000
v 15.000000 64.890007 19.549999
v 14.550000 63.540001 -19.549999
v 14.550000 63.990002 -20.000000
v 15.000000 63.990002 -19.549999
v 14.550000 65.340004 -19.549999
v 15.000000 64.890007 -19.549999
v 14.550000 64.890007 -20.000000
v 13.450000 78.419998 12.550000
v 13.450000 78.869995 13.000000
v 13.000000 78.869995 12.550000
v 13.450000 79.770004 13.000000
v 13.450000 80.220001 12.550000
v 13.000000 79.770004 12.550000
v 13.450000 78.419998 -12.550000
v 13.000000 78.869995 -12.550000
v 13.450000 78.869995 -13.000000
v 13.450000 80.220001 -12.550000
v 13.450000 79.770004 -13.000000
v 13.000000 79.770004 -12.550000
v 14.550000 78.419998 12.550000
v 15.000000 78.869995 12.550000
v 14.550000 78.869995 13.000000
v 14.550000 80.220001 12.550000
v 14.550000 79.770004 13.000000
v 15.000000 79.770004 12.550000
v 14.550000 78.419998 -12.550000
v 14.550000 78.869995 -13.000000
v 15.000000 78.869995 -12.550000
v 14.550000 80.220001 -12.550000
v 15.000000 79.770004 -12.550000
v 14.550000 79.770004 -13.000000
v -14.550000 57.450001 20.000000
v -14.550000 57.900002 19.549999
v -15.000000 57.450001 19.549999
v -14.550000 56.099998 19.549999
v -14.550000 56.549999 20.000000
v -15.000000 56.549999 19.549999
v -14.000000 26.000000 -1.700538
v -14.405436 26.450001 -2.004753
v -13.594564 26.450001 -2.004752
v -14.000000 76.000000 -1.700538
v -13.594564 75.550003 -2.004753
v -14.405436 75.550003 -2.004752
v -12.670466 26.000000 -1.060268
v -12.685407 26.450001 -1.566925
v -12.179836 26.450001 -0.932960
v -12.670466 76.000000 -1.060268
v -12.179836 75.550003 -0.932960
v -12.685407 75.550003 -1.566925
v -12.342098 26.000000 0.378406
v -11.955294 26.450001 0.050828
v -12.135729 26.450001 0.841370
v -12.342098 76.000000 0.378406
v -12.135729 75.550003 0.841370
v -11.955294 75.550003 0.050829
v -13.262164 26.000000 1.532132
v -12.764886 26.450001 1.630308
v -13.495456 26.450001 1.982131
v -13.262164 76.000000 1.532132
v -13.495456 75.550003 1.982131
v -12.764886 75.550003 1.630307
v -14.737836 26.000000 1.532132
v -14.504544 26.450001 1.982131
v -15.235115 26.450001 1.630307
v -14.737836 76.000000 1.532132
v -15.235115 75.550003 1.630307
v -14.504544 75.550003 1.982131
v -15.657902 26.000000 0.378406
v -15.864271 26.450001 0.841371
v -16.044708 26.450001 0.050829
v -15.657902 76.000000 0.378406
v -16.044708 75.550003 0.050829
v -15.864271 75.550003 0.841370
v -15.329534 26.000000 -1.060268
v -15.820164 26.450001 -0.932960
v -15.314593 26.450001 -1.566925
v -15.329534 76.000000 -1.060268
v -15.314593 75.550003 -1.566925
v -15.820164 75.550003 -0.932960
v -14.550000 56.099998 -19.549999
v -15.000000 56.549999 -19.549999
v -14.550000 56.549999 -20.000000
v -14.550000 57.900002 -19.549999
v -14.550000 57.450001 -20.000000
v -15.000000 57.450001 -19.549999
v -13.450000 56.099998 19.549999
v -13.000000 56.549999 19.549999
v -13.450000 56.549999 20.000000
v -13.450000 57.900002 19.549999
v -13.450000 57.450001 20.000000
v -13.000000 57.450001 19.549999
v -13.450000 56.099998 -19.549999
v -13.450000 56.549999 -20.000000
v -13.000000 56.549999 -19.549999
v -13.450000 57.900002 -19.549999
v -13.000000 57.450001 -19.549999
v -13.450000 57.450001 -20.000000
v -14.550000 68.099998 12.550000
v -14.550000 68.549995 13.000000
v -15.000000 68.549995 12.550000
v -14.550000 69.450005 13.000000
v -14.550000 69.900002 12.550000
v -15.000000 69.450005 12.550000
v -14.550000 68.099998 -12.550000
v -15.000000 68.549995 -12.550000
v -14.550000 68.549995 -13.000000
v -14.550000 69.900002 -12.550000
v -14.550000 69.450005 -13.000000
v -15.000000 69.450005 -12.550000
v -13.450000 68.099998 12.550000
v -13.000000 68.549995 12.550000
v -13.450000 68.549995 13.000000
v -13.450000 69.900002 12.550000
v -13.450000 69.450005 13.000000
v -13.000000 69.450005 12.550000
v -13.450000 68.099998 -12.550000
v -13.450000 68.549995 -13.000000
v -13.000000 68.549995 -12.550000
v -13.450000 69.900002 -12.550000
v -13.000000 69.450005 -12.550000
v -13.450000 69.450005 -13.000000
v 46.308544 19.872686 -1.280385
v 46.559971 20.412203 -1.562983
v 46.878384 19.700710 -1.562983
v 73.691460 32.127312 -0.480384
v 73.440025 31.587795 -0.786976
v 73.121620 32.299290 -0.786977
v 46.761494 18.860573 -0.640192
v 47.192497 18.998829 -1.119022
v 47.351704 18.643084 -0.443962
v 73.861397 31.747581 -0.240194
v 73.638832 31.143583 -0.055958
v 73.479622 31.499327 -0.731019
v 46.761490 18.860571 0.640192
v 47.351704 18.643084 0.443962
v 47.192497 18.998829 1.119021
v 73.861397 31.747581 0.240193
v 73.479622 31.499327 0.731018
v 73.638832 31.143587 0.055958
v 46.308540 19.872686 1.280385
v 46.878384 19.700710 1.562983
v 46.559971 20.412203 1.562983
v 73.691460 32.127312 0.480384
v 73.121620 32.299290 0.786977
v 73.440025 31.587795 0.786976
v 45.855591 20.884800 0.640192
v 46.245857 21.114086 1.119021
v 46.086651 21.469831 0.443962
v 73.521523 32.507046 0.240193
v 72.922821 32.743504 0.055958
v 73.082031 32.387753 0.731018
v 45.855591 20.884800 -0.640192
v 46.086651 21.469831 -0.443962
v 46.245857 21.114086 -1.119022
v 73.521523 32.507046 -0.240193
v 73.082024 32.387753 -0.731020
v 72.922821 32.743504 -0.055958
v 15.329534 26.000000 -1.060268
v 14.000000 26.000000 -1.700538
v 14.000000 88.000000 -1.700538
v 15.329534 88.000000 -1.060268
v 13.450000 78.419998 -12.550000
v 13.450000 78.419998 12.550000
v 13.000000 78.869995 12.550000
v 13.000000 78.869995 -12.550000
v 13.450000 65.340004 -19.549999
v 14.550000 65.340004 -19.549999
v 13.450000 64.890007 -20.000000
v 13.450000 78.869995 13.000000
v 13.450000 79.770004 13.000000
v 13.000000 79.770004 12.550000
v 14.550000 65.340004 19.549999
v 13.450000 65.340004 19.549999
v 13.450000 64.890007 20.000000
v 14.550000 64.890007 20.000000
v 15.657902 26.000000 0.378406
v 14.550000 63.540001 -19.549999
v 13.450000 63.540001 -19.549999
v 13.450000 63.990002 -20.000000
v 15.657902 88.000000 0.378406
v 13.450000 63.540001 19.549999
v 14.550000 63.540001 19.549999
v 14.550000 63.990002 20.000000
v 13.450000 63.990002 20.000000
v 14.737836 26.000000 1.532132
v 13.000000 63.990002 -19.549999
v 13.000000 64.890007 -19.549999
v 14.737836 88.000000 1.532132
v 15.000000 63.990002 19.549999
v 15.000000 64.890007 19.549999
v 13.262164 26.000000 1.532132
v 13.000000 64.890007 19.549999
v 13.262164 88.000000 1.532132
v 12.342098 26.000000 0.378406
v 13.000000 63.990002 19.549999
v 12.342098 88.000000 0.378406
v 12.670466 26.000000 -1.060268
v 12.670466 88.000000 -1.060268
v 13.450000 80.220001 12.550000
v 13.450000 80.220001 -12.550000
v 13.000000 79.770004 -12.550000
v 13.450000 79.770004 -13.000000
v 13.450000 78.869995 -13.000000
v 14.550000 78.419998 -12.550000
v 14.550000 78.869995 -13.000000
v 14.550000 80.220001 -12.550000
v 14.550000 79.770004 -13.000000
v 15.000000 79.770004 -12.550000
v 15.000000 78.869995 -12.550000
v 14.550000 78.419998 12.550000
v 15.000000 78.869995 12.550000
v 14.550000 80.220001 12.550000
v 15.000000 79.770004 12.550000
v 14.550000 79.770004 13.000000
v 14.550000 78.869995 13.000000
v -14.550000 68.549995 13.000000
v -14.550000 69.450005 13.000000
v -15.000000 69.450005 12.550000
v -15.000000 68.549995 12.550000
v -14.550000 68.099998 -12.550000
v -14.550000 68.099998 12.550000
v -15.000000 68.549995 -12.550000
v -12.670466 26.000000 -1.060268
v -14.000000 26.000000 -1.700538
v -13.000000 57.450001 -19.549999
v -13.000000 56.549999 -19.549999
v -13.450000 56.549999 -20.000000
v -13.450000 57.450001 -20.000000
v -14.550000 57.900002 -19.549999
v -13.450000 57.900002 -19.549999
v -14.550000 57.450001 -20.000000
v -14.000000 76.000000 -1.700538
v -12.670466 76.000000 -1.060268
v -13.450000 57.900002 19.549999
v -14.550000 57.900002 19.549999
v -14.550000 57.450001 20.000000
v -13.450000 57.450001 20.000000
v -12.342098 26.000000 0.378406
v -13.450000 56.099998 -19.549999
v -14.550000 56.099998 -19.549999
v -14.550000 56.549999 -20.000000
v -12.342098 76.000000 0.378406
v -14.550000 56.099998 19.549999
v -13.450000 56.099998 19.549999
v -13.450000 56.549999 20.000000
v -14.550000 56.549999 20.000000
v -13.262164 26.000000 1.532132
v -15.000000 56.549999 -19.549999
v -15.000000 57.450001 -19.549999
v -13.262164 76.000000 1.532132
v -13.000000 56.549999 19.549999
v -13.000000 57.450001 19.549999
v -14.737836 26.000000 1.532132
v -15.000000 57.450001 19.549999
v -14.737836 76.000000 1.532132
v -15.657902 26.000000 0.378406
v -15.000000 56.549999 19.549999
v -15.657902 76.000000 0.378406
v -15.329534 26.000000 -1.060268
v -15.329534 76.000000 -1.060268
v -14.550000 69.900002 12.550000
v -14.550000 69.900002 -12.550000
v -15.000000 69.450005 -12.550000
v -14.550000 69.450005 -13.000000
v -14.550000 68.549995 -13.000000
v -13.450000 68.099998 -12.550000
v -13.450000 68.549995 -13.000000
v -13.450000 69.900002 -12.550000
v -13.450000 69.450005 -13.000000
v -13.000000 69.450005 -12.550000
v -13.000000 68.549995 -12.550000
v -13.450000 68.099998 12.550000
v -13.000000 68.549995 12.550000
v -13.450000 69.900002 12.550000
v -13.000000 69.450005 12.550000
v -13.450000 69.450005 13.000000
v -13.450000 68.549995 13.000000
v 46.761494 18.860573 -0.640192
v 46.308544 19.872686 -1.280385
v 73.691460 32.127312 -0.480384
v 73.861397 31.747581 -0.240194
v 46.761490 18.860571 0.640192
v 73.861397 31.747581 0.240193
v 46.308540 19.872686 1.280385
v 73.691460 32.127312 0.480384
v 45.855591 20.884800 0.640192
v 73.521523 32.507046 0.240193
v 45.855591 20.884800 -0.640192
v 73.521523 32.507046 -0.240193
vn 0.4606 0.4606 -0.7588
vn 0.4606 -0.4606 -0.7588
vn 0.7588 -0.4606 -0.4606
vn 0.7588 0.4606 -0.4606
vn 0.4606 -0.4606 0.7588
vn 0.4606 0.4606 0.7588
vn 0.7588 0.4606 0.4606
vn 0.4606 0.7588 0.4606
vn 0.7588 -0.4606 0.4606
vn 0.4606 -0.7588 0.4606
vn 0.4606 0.7588 -0.4606
vn 0.4606 -0.7588 -0.4606
vn -0.4606 -0.4606 -0.7588
vn -0.4606 0.4606 -0.7588
vn -0.7588 0.4606 -0.4606
vn -0.4606 0.7588 -0.4606
vn -0.4606 0.7588 0.4606
vn -0.7588 0.4606 0.4606
vn -0.4606 0.4606 0.7588
vn -0.4606 -0.4606 0.7588
vn -0.7588 -0.4606 -0.4606
vn -0.7588 -0.4606 0.4606
vn -0.4606 -0.7588 0.4606
vn -0.4606 -0.7588 -0.4606
vn -0.5774 -0.0000 0.8165
vn 0.2189 0.6900 0.6900
vn -0.5773 0.8165 -0.0000
vn -0.2050 0.6921 0.6921
vn -0.5773 -0.8165 -0.0000
vn 0.2189 -0.6900 0.6900
vn -0.2050 -0.6921 0.6921
vn -0.5774 -0.0000 -0.8165
vn 0.2189 -0.6900 -0.6900
vn -0.0000 -0.0000 1.0000
vn -0.0000 -1.0000 -0.0000
vn -0.5774 -0.8165 -0.0000
vn -0.2050 -0.6921 -0.6921
vn -0.5774 0.8165 -0.0000
vn 0.2189 0.6900 -0.6900
vn -0.2050 0.6921 -0.6921
vn -1.0000 -0.0000 -0.0000
vn -0.0000 1.0000 -0.0000
vn -0.0000 -0.0000 -1.0000
vn 1.0000 -0.0000 -0.0000
vn 0.3333 0.9428 -0.0000
vn 0.3333 -0.0000 -0.9428
vn 0.9308 0.2585 -0.2585
vn 0.6079 0.2723 -0.7459
vn 0.6079 0.7459 -0.2723
vn 0.3333 -0.9428 -0.0000
vn 0.9308 -0.2585 -0.2585
vn 0.6079 -0.7459 -0.2723
vn 0.6079 -0.2723 -0.7459
vn 0.3333 -0.0000 0.9428
vn 0.9308 -0.2585 0.2585
vn 0.6079 -0.2723 0.7459
vn 0.6079 -0.7459 0.2723
vn 0.9308 0.2585 0.2585
vn 0.6079 0.7459 0.2723
vn 0.6079 0.2723 0.7459
vn -0.2323 -0.3434 -0.9100
vn 0.2323 -0.3434 -0.9100
vn 0.2323 0.3435 -0.9100
vn -0.2323 0.3435 -0.9100
vn 0.5666 -0.3435 -0.7490
vn 0.8563 -0.3434 -0.3858
vn 0.8563 0.3435 -0.3858
vn 0.5666 0.3435 -0.7490
vn 0.9389 -0.3434 -0.0239
vn 0.8355 -0.3434 0.4289
vn 0.8355 0.3435 0.4289
vn 0.9389 0.3434 -0.0239
vn 0.6041 -0.3434 0.7191
vn 0.1856 -0.3435 0.9207
vn 0.1856 0.3435 0.9207
vn 0.6041 0.3435 0.7191
vn -0.1856 -0.3434 0.9207
vn -0.6041 -0.3434 0.7191
vn -0.6041 0.3435 0.7191
vn -0.1856 0.3435 0.9207
vn -0.8355 -0.3435 0.4289
vn -0.9389 -0.3434 -0.0239
vn -0.9389 0.3435 -0.0239
vn -0.8355 0.3435 0.4289
vn -0.8563 -0.3435 -0.3858
vn -0.5666 -0.3435 -0.7490
vn -0.5666 0.3435 -0.7490
vn -0.8563 0.3435 -0.3858
vn 0.5666 -0.3434 -0.7490
vn 0.9389 0.3435 -0.0239
vn 0.6041 0.3434 0.7191
vn -0.8355 -0.3434 0.4289
vn -0.9389 -0.3435 -0.0239
vn -0.8563 -0.3434 -0.3858
vn -0.8563 0.3434 -0.3858
vn -0.9128 -0.4085 -0.0000
vn -0.4043 0.1146 -0.9074
vn -0.1839 -0.3778 -0.9074
vn 0.9128 0.4085 -0.0000
vn 0.4350 -0.0964 -0.8953
vn 0.2179 0.3886 -0.8953
vn -0.0282 -0.7258 -0.6873
vn 0.0820 -0.9720 -0.2201
vn 0.6974 -0.6828 -0.2175
vn 0.5889 -0.4403 -0.6777
vn 0.0820 -0.9720 0.2201
vn -0.0282 -0.7258 0.6873
vn 0.5889 -0.4403 0.6777
vn 0.6974 -0.6828 0.2175
vn -0.1839 -0.3778 0.9074
vn -0.4043 0.1146 0.9074
vn 0.2179 0.3886 0.8953
vn 0.4350 -0.0964 0.8953
vn -0.5600 0.4626 0.6873
vn -0.6702 0.7088 0.2201
vn -0.0445 0.9750 0.2175
vn 0.0640 0.7325 0.6777
vn -0.6702 0.7088 -0.2201
vn -0.5600 0.4626 -0.6873
vn 0.0640 0.7325 -0.6777
vn -0.0445 0.9750 -0.2175
vn 0.5714 -0.6825 -0.4557
vn -0.0000 -0.6825 -0.7309
vn -0.0000 0.6825 -0.7309
vn 0.5714 0.6825 -0.4557
vn 0.7126 -0.6825 0.1626
vn 0.7126 0.6825 0.1626
vn 0.3171 -0.6825 0.6585
vn 0.3171 0.6825 0.6585
vn -0.3171 -0.6825 0.6585
vn -0.3171 0.6825 0.6585
vn -0.7126 -0.6825 0.1627
vn -0.7126 0.6825 0.1626
vn -0.5715 -0.6825 -0.4557
vn -0.5715 0.6825 -0.4557
vn 0.5715 -0.6825 -0.4557
vn -0.7126 -0.6825 0.1626
vn -0.5714 -0.6825 -0.4557
vn -0.5714 0.6825 -0.4557
vn -0.3604 -0.8576 -0.3669
vn -0.6200 -0.2775 -0.7339
vn 0.6400 0.2864 -0.7130
vn 0.8922 -0.2772 -0.3565
vn -0.3604 -0.8576 0.3670
vn 0.8922 -0.2772 0.3565
vn -0.6200 -0.2775 0.7339
vn 0.6400 0.2864 0.7130
vn -0.8796 0.3027 0.3669
vn 0.3878 0.8500 0.3565
vn -0.8796 0.3027 -0.3670
vn 0.3878 0.8500 -0.3565
vt -1.577500 1.277500
vt -1.577500 1.300000
vt -1.600000 1.277500
vt 1.877500 0.000000
vt 1.900000 0.022500
vt 1.877500 0.022500
vt -1.577500 0.900000
vt -1.600000 0.922500
vt -1.577500 0.922500
vt -1.877500 1.000000
vt -1.877500 0.977500
vt -1.900000 0.977500
vt 1.877500 1.000000
vt 1.900000 0.977500
vt 1.877500 0.977500
vt -1.877500 0.000000
vt -1.900000 0.022500
vt -1.877500 0.022500
vt 1.877500 0.022500
vt 1.900000 0.022500
vt -1.877500 0.022500
vt -1.900000 0.022500
vt 1.577500 0.900000
vt 1.600000 0.922500
vt 1.577500 0.922500
vt 1.577500 1.300000
vt 1.577500 1.277500
vt 1.600000 1.277500
vt -2.027500 1.050000
vt -2.027500 1.072500
vt -2.050000 1.072500
vt -2.027500 1.927500
vt -2.027500 1.950000
vt -2.050000 1.927500
vt -0.972500 1.050000
vt -0.950000 1.072500
vt -0.972500 1.072500
vt -0.972500 1.950000
vt -0.972500 1.927500
vt -0.950000 1.927500
vt -0.977500 3.177000
vt -1.000000 3.199500
vt -0.977500 3.199500
vt 0.672500 -1.000000
vt 0.672500 -0.977500
vt 0.650000 -0.977500
vt 1.800000 0.437119
vt 1.821213 0.428402
vt 1.821213 0.452119
vt 0.012855 0.612855
vt 0.042855 0.619138
vt 0.019138 0.642855
vt 1.800000 0.162881
vt 1.821213 0.171598
vt 1.821213 0.147881
vt 0.012855 0.587145
vt 0.019138 0.557145
vt 0.042855 0.580862
vt 1.800000 -0.437119
vt 1.821213 -0.428402
vt 1.821213 -0.452119
vt -0.012855 0.587145
vt -0.042855 0.580862
vt -0.019138 0.557145
vt 1.800000 -0.437119
vt 1.821213 -0.452119
vt 1.821213 -0.428402
vt -0.012855 0.612855
vt -0.019138 0.642855
vt -0.042855 0.619138
vt 0.700000 1.300000
vt 0.679728 1.322500
vt 0.720272 1.322500
vt 0.700000 4.400000
vt 0.720272 4.377500
vt 0.679728 4.377500
vt 0.053013 1.300000
vt 0.078346 1.322500
vt 0.046648 1.322500
vt 0.053013 4.400000
vt 0.046648 4.377500
vt 0.078346 4.377500
vt -0.018920 1.300000
vt -0.002541 1.322500
vt -0.042069 1.322500
vt -0.018920 4.400000
vt -0.042069 4.377500
vt -0.002541 4.377500
vt 0.736892 1.300000
vt 0.761756 1.322500
vt 0.725227 1.322500
vt 0.736892 4.400000
vt 0.725227 4.377500
vt 0.761756 4.377500
vt 0.663108 1.300000
vt 0.674773 1.322500
vt 0.638244 1.322500
vt 0.663108 4.400000
vt 0.638244 4.377500
vt 0.674773 4.377500
vt -0.018920 1.300000
vt -0.042069 1.322500
vt -0.002541 1.322500
vt -0.018920 4.400000
vt -0.002541 4.377500
vt -0.042069 4.377500
vt 0.053013 1.300000
vt 0.046648 1.322500
vt 0.053013 4.400000
vt 0.977500 3.177000
vt 0.977500 3.199500
vt 1.000000 3.199500
vt 0.672500 0.977500
vt 0.672500 1.000000
vt 0.650000 0.977500
vt 0.727500 -0.977500
vt 0.727500 -1.000000
vt 0.750000 -0.977500
vt 0.727500 0.977500
vt 0.750000 0.977500
vt 0.727500 1.000000
vt 0.672500 -0.627500
vt 0.672500 -0.650000
vt 0.650000 -0.627500
vt 0.672500 0.627500
vt 0.650000 0.627500
vt 0.672500 0.650000
vt 0.727500 -0.627500
vt 0.750000 -0.627500
vt 0.727500 -0.650000
vt 0.727500 0.627500
vt 0.727500 0.650000
vt 0.750000 0.627500
vt -1.000000 2.872500
vt -0.977500 2.895000
vt -0.977500 2.872500
vt -0.977500 2.805000
vt -1.000000 2.827500
vt -0.977500 2.827500
vt -0.700000 1.300000
vt -0.720272 1.322500
vt -0.679728 1.322500
vt -0.700000 3.800000
vt -0.679728 3.777500
vt -0.720272 3.777500
vt 0.053013 3.800000
vt 0.046648 3.777500
vt 0.078346 3.777500
vt -0.018920 1.300000
vt -0.002541 1.322500
vt -0.042069 1.322500
vt -0.018920 3.800000
vt -0.042069 3.777500
vt -0.002541 3.777500
vt -0.663108 1.300000
vt -0.638244 1.322500
vt -0.674773 1.322500
vt -0.663108 3.800000
vt -0.674773 3.777500
vt -0.638244 3.777500
vt -0.736892 1.300000
vt -0.725227 1.322500
vt -0.761756 1.322500
vt -0.736892 3.800000
vt -0.761756 3.777500
vt -0.725227 3.777500
vt -0.042069 1.322500
vt -0.002541 1.322500
vt -0.018920 3.800000
vt -0.002541 3.777500
vt -0.042069 3.777500
vt 0.046648 1.322500
vt 0.053013 3.800000
vt 0.046648 3.777500
vt 0.977500 2.805000
vt 0.977500 2.827500
vt 1.000000 2.827500
vt 0.977500 2.895000
vt 1.000000 2.872500
vt 0.977500 2.872500
vt -0.727500 -0.627500
vt -0.727500 -0.650000
vt -0.750000 -0.627500
vt -0.727500 0.627500
vt -0.750000 0.627500
vt -0.727500 0.650000
vt -0.672500 -0.627500
vt -0.650000 -0.627500
vt -0.672500 -0.650000
vt -0.672500 0.627500
vt -0.672500 0.650000
vt -0.650000 0.627500
vt 2.315427 0.993634
vt 2.327999 1.020610
vt 2.343919 0.985036
vt 3.684573 1.606366
vt 3.672001 1.579390
vt 3.656081 1.614964
vt 2.338075 0.032010
vt 2.359625 0.055951
vt 2.367585 0.022198
vt 0.012010 1.587379
vt 0.002798 1.557179
vt 0.036551 1.574966
vt 2.338074 -0.032010
vt 2.367585 -0.022198
vt 2.359625 -0.055951
vt -0.012010 1.587379
vt -0.036551 1.574966
vt -0.002798 1.557179
vt 2.315427 0.993634
vt -0.032010 1.044240
vt -0.055951 1.055704
vt -0.022198 1.073492
vt 3.676076 -0.012010
vt 3.646141 -0.002798
vt 3.654102 -0.036551
vt 0.032010 1.044240
vt 0.022198 1.073492
vt 0.055951 1.055704
vt 3.676076 0.012010
vt 3.654101 0.036551
vt 3.646141 0.002798
vt -1.877500 -0.627500
vt -1.900000 0.627500
vt -1.877500 0.627500
vt -1.900000 -0.627500
vt 1.877500 0.627500
vt 1.900000 -0.627500
vt 1.877500 -0.627500
vt 1.900000 0.627500
vt -1.577500 -0.527500
vt -1.600000 0.527500
vt -1.577500 0.527500
vt -1.600000 -0.527500
vt 1.577500 0.527500
vt 1.600000 -0.527500
vt 1.577500 -0.527500
vt 1.600000 0.527500
vt -2.027500 -0.527500
vt -2.050000 0.527500
vt -2.027500 0.527500
vt -2.050000 -0.527500
vt -0.972500 0.527500
vt -0.950000 -0.527500
vt -0.972500 -0.527500
vt -0.950000 0.527500
vt 1.800000 1.037119
vt 1.821213 1.028402
vt 1.000000 3.244500
vt 0.977500 3.244500
vt 0.720272 0.100238
vt 0.766477 0.053013
vt 0.700000 0.085027
vt 2.978787 0.019138
vt 2.978787 0.019138
vt 1.821213 0.452119
vt 2.978787 0.042855
vt 0.720272 0.100238
vt 0.765730 0.078346
vt 1.800000 0.437119
vt 1.821213 0.428402
vt 2.978787 -0.042855
vt 2.978787 -0.019138
vt 1.821213 0.171598
vt 1.800000 0.162881
vt -0.650000 3.988500
vt -0.627500 3.943500
vt -0.650000 3.943500
vt 2.978787 -0.019138
vt 2.978787 -0.042855
vt 0.791008 0.046648
vt 0.782895 -0.018920
vt 0.791008 0.046648
vt 0.802235 -0.002541
vt 0.793214 -0.042069
vt 0.736892 -0.076607
vt 0.793214 -0.042069
vt 0.761756 -0.081515
vt -0.977500 3.244500
vt -1.000000 3.244500
vt 0.725227 -0.099107
vt 0.663108 -0.076607
vt 0.674773 -0.099107
vt 0.638244 -0.081515
vt 0.617105 -0.018920
vt 0.638244 -0.081515
vt 0.617105 -0.018920
vt 0.606786 -0.042069
vt 0.597765 -0.002541
vt 0.633523 0.053013
vt 0.597765 -0.002541
vt 0.608992 0.046648
vt 0.679728 0.100238
vt 0.634270 0.078346
vt 0.679728 0.100238
vt 0.650000 3.943500
vt 0.627500 3.988500
vt 0.650000 3.988500
vt 0.627500 3.943500
vt -0.627500 3.988500
vt -0.650000 3.472500
vt -0.627500 3.427500
vt -0.650000 3.427500
vt -0.679728 0.100238
vt -0.633523 0.053013
vt -0.700000 0.085027
vt -0.672500 0.977500
vt -0.727500 1.000000
vt -0.727500 0.977500
vt -0.679728 0.100238
vt -0.634270 0.078346
vt -0.727500 -0.977500
vt -0.672500 -1.000000
vt -0.672500 -0.977500
vt -0.597765 -0.002541
vt -0.608992 0.046648
vt -0.672500 1.000000
vt -0.597765 -0.002541
vt -0.617105 -0.018920
vt -0.727500 -1.000000
vt -0.638244 -0.081515
vt -0.617105 -0.018920
vt -0.606786 -0.042069
vt -0.638244 -0.081515
vt -0.663108 -0.076607
vt -0.674773 -0.099107
vt -0.736892 -0.076607
vt -0.725227 -0.099107
vt -0.793214 -0.042069
vt -0.761756 -0.081515
vt -0.761756 -0.081515
vt -0.782895 -0.018920
vt -0.793214 -0.042069
vt -0.791008 0.046648
vt -0.802235 -0.002541
vt -0.791008 0.046648
vt -0.766477 0.053013
vt -0.720272 0.100238
vt -0.765730 0.078346
vt -0.720272 0.100238
vt 0.650000 3.427500
vt 0.627500 3.472500
vt 0.650000 3.472500
vt 0.627500 3.427500
vt -0.627500 3.472500
vt 2.359625 0.949941
vt 0.039349 1.579390
vt 3.673981 0.036551
vt 3.681942 0.002798
vt 3.673981 -0.036551
vt 3.681942 -0.002798
vt 2.338074 0.943029
vt -0.039349 1.579390
vt -0.024019 1.606366
vt -0.064019 0.993634
vt -0.078149 1.020610
vt 3.684573 -0.024019
vt 2.304332 -0.022198
vt 2.312293 0.055951
vt 0.078149 1.020610
vt 3.656081 0.039349
vt 3.684573 0.024019
vt -0.627500 0.977500
vt 0.627500 0.022500
vt -0.627500 0.022500
vt 0.627500 0.977500
vt -0.627500 0.022500
vt 0.627500 0.022500
vt -0.527500 1.277500
vt 0.527500 0.922500
vt -0.527500 0.922500
vt 0.527500 1.277500
vt -0.527500 1.927500
vt 0.527500 1.072500
vt -0.527500 1.072500
vt 0.527500 1.927500
vt 0.727500 3.244500
vt 0.672500 3.199500
vt 0.727500 3.199500
vt 0.437119 0.162881
vt -0.437119 1.037119
vt 0.437119 1.037119
vt 2.978787 0.619138
vt 2.978787 0.580862
vt 0.765730 1.322500
vt 0.634270 4.377500
vt 0.634270 1.322500
vt -0.081515 1.322500
vt -0.081515 4.377500
vt -0.081515 1.322500
vt 0.672500 3.244500
vt 0.727500 3.988500
vt 0.672500 3.943500
vt 0.727500 3.943500
vt 0.672500 3.988500
vt -0.672500 2.872500
vt -0.727500 2.827500
vt -0.672500 2.827500
vt -0.634270 1.322500
vt -0.765730 3.777500
vt -0.765730 1.322500
vt -0.081515 1.322500
vt -0.081515 3.777500
vt -0.081515 1.322500
vt -0.727500 2.872500
vt -0.672500 3.472500
vt -0.727500 3.427500
vt -0.672500 3.427500
vt -0.727500 3.472500
vt 0.032010 0.943029
vt 2.312293 1.055704
vt 0.024019 1.606366
vt -0.012010 1.625352
vt 3.654102 1.619388
vt 2.304332 0.022198
vt 2.978787 0.042855
vt 0.802235 -0.002541
vt 0.761756 -0.081515
vt 0.606786 -0.042069
vt 0.608992 0.046648
vt -0.608992 0.046648
vt -0.606786 -0.042069
vt -0.802235 -0.002541
vt 2.338075 0.943029
vt 3.656081 -0.039349
vt 2.312293 -0.055951
vt 0.064019 0.993634
vt -0.437119 0.162881
vt 0.765730 4.377500
vt -0.081515 4.377500
vt -0.634270 3.777500
vt -0.081515 3.777500
vt -0.032010 0.943029
vt 3.673981 1.574966
vt 3.654101 1.619388
vt 0.012010 1.625352
s 1
f 47/1/19 45/2/17 46/3/18
f 58/4/10 57/5/9 53/6/5
f 52/7/24 49/8/21 41/9/13
f 68/10/16 66/11/14 67/12/15
f 62/13/11 60/14/4 61/15/1
f 76/16/24 73/17/21 65/18/13
f 64/4/12 63/19/2 59/20/3
f 71/11/19 69/10/17 70/12/18
f 75/16/23 72/21/20 74/22/22
f 51/7/23 48/9/20 50/8/22
f 56/13/8 54/15/6 55/14/7
f 44/2/16 42/1/14 43/3/15
f 34/23/10 33/24/9 29/25/5
f 32/26/8 30/27/6 31/28/7
f 40/23/12 39/25/2 35/24/3
f 38/26/11 36/28/4 37/27/1
f 27/29/23 24/30/20 26/31/22
f 23/32/19 21/33/17 22/34/18
f 28/29/24 25/31/21 17/30/13
f 20/33/16 18/32/14 19/34/15
f 10/35/10 9/36/9 5/37/5
f 8/38/8 6/39/6 7/40/7
f 16/35/12 15/37/2 11/36/3
f 14/38/11 12/40/4 13/39/1
f 440/41/23 443/42/20 454/43/22
f 433/44/19 432/45/17 451/46/18
f 104/47/40 101/48/39 106/49/39
f 186/50/47 187/51/48 188/52/49
f 97/53/37 92/54/33 99/55/33
f 192/56/51 193/57/52 194/58/53
f 88/59/31 85/60/30 90/61/30
f 198/62/55 199/63/56 200/64/57
f 81/65/28 78/66/26 83/67/26
f 204/68/58 205/69/59 206/70/60
f 418/71/123 208/72/61 209/73/62
f 419/74/124 211/75/63 212/76/64
f 417/77/122 214/78/65 215/79/66
f 420/80/125 217/81/67 218/82/68
f 435/83/126 220/84/69 221/85/70
f 439/86/127 223/87/71 224/88/72
f 444/89/128 226/90/73 227/91/74
f 447/92/129 229/93/75 230/94/76
f 450/95/130 232/96/77 233/97/78
f 452/98/131 235/99/79 236/100/80
f 453/101/132 238/102/81 239/103/82
f 455/104/133 241/105/83 242/106/84
f 456/107/134 244/108/85 245/78/86
f 457/109/135 247/82/87 248/81/88
f 437/110/24 445/111/21 438/112/13
f 425/113/16 427/114/14 446/115/15
f 441/41/10 448/43/9 442/42/5
f 431/116/8 434/117/6 449/118/7
f 436/110/12 2/112/2 3/111/3
f 426/119/11 4/120/4 1/121/1
f 422/122/23 428/123/20 423/124/22
f 429/123/19 458/122/17 430/124/18
f 421/125/24 424/126/21 462/127/13
f 459/125/16 461/127/14 460/126/15
f 469/128/10 470/129/9 474/130/5
f 471/128/8 473/130/6 472/129/7
f 463/131/12 464/132/2 468/133/3
f 465/131/11 467/133/4 466/132/1
f 495/134/19 494/135/17 513/136/18
f 502/137/23 505/138/20 516/139/22
f 483/140/123 298/141/61 299/142/62
f 491/143/124 301/144/63 302/145/64
f 482/107/136 304/78/89 305/79/66
f 492/146/125 307/147/67 308/148/68
f 497/149/126 310/150/69 311/151/70
f 501/152/127 313/153/71 314/154/90
f 506/155/128 316/156/73 317/157/74
f 509/158/129 319/159/75 320/160/91
f 512/161/130 322/162/77 323/163/78
f 514/164/131 325/165/79 326/166/80
f 515/83/137 328/167/92 329/168/93
f 517/169/133 331/170/83 332/171/84
f 518/77/138 334/172/94 335/78/86
f 519/173/139 337/148/87 338/174/95
f 499/175/24 507/176/21 500/177/13
f 488/178/16 490/179/14 508/180/15
f 503/137/10 510/139/9 504/138/5
f 493/135/8 496/134/6 511/136/7
f 498/175/12 486/177/2 485/176/3
f 489/178/11 484/180/4 487/179/1
f 480/181/23 475/182/20 478/183/22
f 476/182/19 520/181/17 477/183/18
f 479/184/24 481/185/21 524/186/13
f 521/184/16 523/186/14 522/185/15
f 531/187/10 532/188/9 536/189/5
f 533/187/8 535/189/6 534/188/7
f 525/190/12 526/191/2 530/192/3
f 527/190/11 529/192/4 528/191/1
f 538/193/141 382/194/97 383/195/98
f 539/196/142 385/197/100 386/198/101
f 537/199/140 388/200/102 389/201/103
f 540/202/143 391/203/104 392/204/105
f 541/205/144 394/206/106 395/207/107
f 542/208/145 397/209/108 398/210/109
f 543/211/146 400/195/110 401/194/111
f 544/196/147 403/198/112 404/197/113
f 545/212/148 406/213/114 407/214/115
f 546/215/149 409/216/116 410/217/117
f 547/218/150 412/219/118 413/220/119
f 548/221/151 415/222/120 416/223/121
f 75/224/23 73/225/21 76/226/24
f 71/11/19 74/22/22 72/21/20
f 68/226/16 70/227/18 69/224/17
f 65/18/13 67/12/15 66/11/14
f 76/16/24 63/19/2 64/4/12
f 62/13/11 66/11/14 68/10/16
f 59/20/3 61/15/1 60/14/4
f 64/228/12 57/229/9 58/230/10
f 56/230/8 60/231/4 62/228/11
f 53/6/5 55/14/7 54/15/6
f 58/4/10 72/21/20 75/16/23
f 69/10/17 54/15/6 56/13/8
f 51/232/23 49/233/21 52/234/24
f 47/1/19 50/8/22 48/9/20
f 44/234/16 46/235/18 45/232/17
f 41/9/13 43/3/15 42/1/14
f 52/7/24 39/25/2 40/23/12
f 38/26/11 42/1/14 44/2/16
f 35/24/3 37/27/1 36/28/4
f 40/236/12 33/237/9 34/238/10
f 32/238/8 36/239/4 38/236/11
f 29/25/5 31/28/7 30/27/6
f 34/23/10 48/9/20 51/7/23
f 45/2/17 30/27/6 32/26/8
f 27/240/23 25/241/21 28/242/24
f 23/32/19 26/31/22 24/30/20
f 20/242/16 22/243/18 21/240/17
f 17/30/13 19/34/15 18/32/14
f 28/29/24 15/37/2 16/35/12
f 14/38/11 18/32/14 20/33/16
f 11/36/3 13/39/1 12/40/4
f 16/244/12 9/245/9 10/246/10
f 8/246/8 12/247/4 14/244/11
f 5/37/5 7/40/7 6/39/6
f 10/35/10 24/30/20 27/29/23
f 21/33/17 6/39/6 8/38/8
f 215/79/66 218/82/68 217/81/67
f 212/76/64 209/73/62 208/72/61
f 91/54/32 103/248/32 105/249/32
f 3/111/3 1/250/1 4/251/4
f 209/252/62 417/253/122 418/254/123
f 187/51/48 192/56/51 194/58/53
f 188/255/49 106/49/39 101/48/39
f 193/256/52 92/257/33 194/258/53
f 211/259/63 420/253/125 218/260/68
f 84/60/29 95/261/36 98/262/36
f 422/122/23 424/126/21 421/125/24
f 193/57/52 198/62/55 200/64/57
f 199/263/56 85/60/30 200/264/57
f 426/119/11 427/114/14 425/113/16
f 89/265/25 80/248/25 86/266/25
f 429/267/19 423/268/22 428/269/20
f 199/63/56 204/68/58 206/70/60
f 205/270/59 78/66/26 206/271/60
f 100/48/38 79/65/27 82/67/27
f 188/52/49 204/68/58 186/50/47
f 432/45/17 434/117/6 431/116/8
f 215/272/66 435/273/126 417/253/122
f 437/113/24 2/121/2 436/119/12
f 217/274/67 439/273/127 224/275/72
f 221/85/70 224/88/72 223/87/71
f 441/116/10 443/44/20 440/45/23
f 221/276/70 444/277/128 435/273/126
f 438/112/13 446/251/15 427/250/14
f 223/278/71 447/277/129 230/279/76
f 227/91/74 230/94/76 229/93/75
f 442/42/5 449/280/7 434/281/6
f 232/96/77 444/89/128 227/91/74
f 425/113/16 451/46/18 432/45/17
f 229/282/75 452/283/131 236/284/80
f 233/97/78 236/100/80 235/99/79
f 431/116/8 4/120/4 426/119/11
f 233/285/78 453/286/132 450/283/130
f 433/281/19 454/43/22 443/42/20
f 235/287/79 455/288/133 242/289/84
f 239/103/82 242/106/84 241/105/83
f 436/110/12 448/43/9 441/41/10
f 239/290/82 456/291/134 453/286/132
f 440/41/23 445/111/21 437/110/24
f 241/292/83 457/291/135 248/293/88
f 245/78/86 248/81/88 247/82/87
f 208/294/61 456/291/134 245/295/86
f 212/296/64 457/291/135 419/254/124
f 459/125/16 430/124/18 458/122/17
f 462/297/13 460/298/15 461/299/14
f 421/125/24 464/132/2 463/131/12
f 465/131/11 461/127/14 459/125/16
f 468/300/3 466/299/1 467/298/4
f 463/131/12 470/129/9 469/128/10
f 471/128/8 467/133/4 465/131/11
f 474/269/5 472/301/7 473/267/6
f 469/128/10 428/123/20 422/122/23
f 458/122/17 473/130/6 471/128/8
f 476/302/19 478/303/22 475/304/20
f 480/181/23 481/185/21 479/184/24
f 299/305/62 482/306/136 483/307/123
f 485/176/3 487/179/1 484/180/4
f 489/308/11 490/309/14 488/310/16
f 301/311/63 492/306/125 308/312/68
f 302/145/64 299/142/62 298/141/61
f 305/79/66 308/148/68 307/147/67
f 494/313/17 496/314/6 493/315/8
f 310/316/69 482/306/136 305/317/66
f 499/310/24 486/318/2 498/308/12
f 314/319/90 492/306/125 501/320/127
f 311/151/70 314/154/90 313/153/71
f 503/315/10 505/321/20 502/313/23
f 316/322/73 497/323/126 311/324/70
f 500/177/13 508/180/15 490/179/14
f 320/325/91 501/320/127 509/326/129
f 317/157/74 320/160/91 319/159/75
f 504/138/5 511/136/7 496/134/6
f 322/162/77 506/155/128 317/157/74
f 488/178/16 513/136/18 494/135/17
f 319/327/75 514/328/131 326/329/80
f 323/163/78 326/166/80 325/165/79
f 493/135/8 484/180/4 489/178/11
f 328/330/92 512/328/130 323/331/78
f 495/134/19 516/139/22 505/138/20
f 325/332/79 517/333/133 332/334/84
f 329/168/93 332/171/84 331/170/83
f 498/175/12 510/139/9 503/137/10
f 334/335/94 515/333/137 329/336/93
f 502/137/23 507/176/21 499/175/24
f 338/337/95 517/333/133 519/338/139
f 335/78/86 338/174/95 337/148/87
f 298/339/61 518/338/138 335/340/86
f 302/341/64 519/338/139 491/307/124
f 521/184/16 477/183/18 520/181/17
f 524/342/13 522/343/15 523/344/14
f 479/184/24 526/191/2 525/190/12
f 527/190/11 523/186/14 521/184/16
f 530/345/3 528/344/1 529/343/4
f 525/190/12 532/188/9 531/187/10
f 533/187/8 529/192/4 527/190/11
f 536/304/5 534/346/7 535/302/6
f 531/187/10 475/182/20 480/181/23
f 520/181/17 535/189/6 533/187/8
f 388/347/102 538/193/141 383/195/98
f 385/348/100 540/202/143 392/204/105
f 382/194/97 385/197/100 383/195/98
f 389/201/103 392/349/105 391/350/104
f 394/206/106 537/199/140 389/201/103
f 398/210/109 540/202/143 542/208/145
f 397/351/108 394/206/106 398/352/109
f 400/195/110 541/353/144 395/347/107
f 404/354/113 542/208/145 544/355/147
f 401/194/111 404/197/113 403/198/112
f 406/213/114 543/356/146 401/357/111
f 410/217/117 544/358/147 546/215/149
f 407/359/115 410/217/117 409/216/116
f 412/219/118 545/212/148 407/214/115
f 416/223/121 546/215/149 548/221/151
f 413/360/119 416/223/121 415/222/120
f 382/361/97 547/218/150 413/220/119
f 386/362/101 548/221/151 539/363/142
f 123/228/35 94/224/35 111/226/35
f 110/364/41 112/365/41 107/366/41
f 121/15/34 93/21/34 119/6/34
f 114/226/42 120/230/42 126/228/42
f 115/11/43 124/19/43 113/18/43
f 127/367/44 118/368/44 125/369/44
f 147/236/35 129/232/35 135/234/35
f 134/370/41 136/371/41 131/372/41
f 145/27/34 130/9/34 143/25/34
f 138/234/42 144/238/42 150/236/42
f 139/1/43 148/25/43 137/9/43
f 151/373/44 142/372/44 149/371/44
f 171/244/35 153/240/35 159/242/35
f 158/374/41 160/375/41 155/376/41
f 169/39/34 154/30/34 167/37/34
f 162/242/42 168/246/42 174/244/42
f 163/32/43 172/37/43 161/30/43
f 175/377/44 166/376/44 173/375/44
f 261/119/35 177/45/35 249/113/35
f 182/280/41 250/111/41 179/43/41
f 259/378/34 178/379/34 257/380/34
f 252/113/42 258/116/42 264/119/42
f 189/381/41 201/382/41 183/383/41
f 187/384/48 190/54/46 185/249/46
f 205/270/59 184/48/45 203/67/45
f 186/50/47 198/62/55 192/56/51
f 193/256/52 196/60/50 191/262/50
f 199/385/56 202/249/54 197/265/54
f 225/277/35 237/286/35 207/254/35
f 211/75/63 214/386/65 209/73/62
f 247/387/87 208/72/61 245/388/86
f 210/254/42 240/288/42 228/277/42
f 217/81/67 220/84/69 215/79/66
f 223/87/71 226/389/73 221/85/70
f 229/93/75 232/96/77 227/91/74
f 235/390/79 238/102/81 233/391/78
f 241/105/83 244/108/85 239/103/82
f 253/392/43 262/380/43 251/379/43
f 265/251/44 256/43/44 263/111/44
f 285/131/35 267/122/35 273/125/35
f 272/301/41 274/300/41 269/268/41
f 283/393/34 268/394/34 281/395/34
f 276/125/42 282/128/42 288/131/42
f 277/396/43 286/395/43 275/394/43
f 289/298/44 280/268/44 287/300/44
f 349/397/34 295/398/34 347/399/34
f 293/136/41 340/176/41 296/139/41
f 342/310/42 348/315/42 354/308/42
f 351/308/35 294/313/35 339/310/35
f 303/306/35 315/326/35 327/333/35
f 301/144/63 304/400/89 299/142/62
f 337/401/87 298/141/61 335/402/86
f 300/307/42 330/333/42 318/326/42
f 307/147/67 310/150/69 305/79/66
f 313/153/71 316/403/73 311/151/70
f 319/159/75 322/162/77 317/157/74
f 325/404/79 328/167/92 323/405/78
f 331/170/83 334/172/94 329/168/93
f 343/406/43 352/399/43 341/398/43
f 355/180/44 346/139/44 353/176/44
f 375/190/35 357/181/35 363/184/35
f 362/346/41 364/345/41 359/303/41
f 373/407/34 358/408/34 371/409/34
f 366/184/42 372/187/42 378/190/42
f 367/410/43 376/409/43 365/408/43
f 379/343/44 370/303/44 377/345/44
f 387/411/96 399/356/96 411/218/96
f 385/197/100 388/347/102 383/195/98
f 413/412/119 386/198/101 382/194/97
f 384/413/99 408/414/99 396/208/99
f 389/201/103 398/352/109 394/206/106
f 395/347/107 404/197/113 400/195/110
f 401/194/111 410/415/117 406/412/114
f 407/359/115 416/223/121 412/416/118
f 75/224/23 74/227/22 73/225/21
f 71/11/19 70/12/18 74/22/22
f 68/226/16 67/225/15 70/227/18
f 65/18/13 73/17/21 67/12/15
f 76/16/24 65/18/13 63/19/2
f 62/13/11 61/15/1 66/11/14
f 59/20/3 63/19/2 61/15/1
f 64/228/12 59/231/3 57/229/9
f 56/230/8 55/229/7 60/231/4
f 53/6/5 57/5/9 55/14/7
f 58/4/10 53/6/5 72/21/20
f 69/10/17 71/11/19 54/15/6
f 51/232/23 50/235/22 49/233/21
f 47/1/19 46/3/18 50/8/22
f 44/234/16 43/233/15 46/235/18
f 41/9/13 49/8/21 43/3/15
f 52/7/24 41/9/13 39/25/2
f 38/26/11 37/27/1 42/1/14
f 35/24/3 39/25/2 37/27/1
f 40/236/12 35/239/3 33/237/9
f 32/238/8 31/237/7 36/239/4
f 29/25/5 33/24/9 31/28/7
f 34/23/10 29/25/5 48/9/20
f 45/2/17 47/1/19 30/27/6
f 27/240/23 26/243/22 25/241/21
f 23/32/19 22/34/18 26/31/22
f 20/242/16 19/241/15 22/243/18
f 17/30/13 25/31/21 19/34/15
f 28/29/24 17/30/13 15/37/2
f 14/38/11 13/39/1 18/32/14
f 11/36/3 15/37/2 13/39/1
f 16/244/12 11/247/3 9/245/9
f 8/246/8 7/245/7 12/247/4
f 5/37/5 9/36/9 7/40/7
f 10/35/10 5/37/5 24/30/20
f 21/33/17 23/32/19 6/39/6
f 215/79/66 214/78/65 218/82/68
f 212/76/64 211/75/63 209/73/62
f 91/54/32 96/53/32 103/248/32
f 3/111/3 2/112/2 1/250/1
f 209/252/62 214/260/65 417/253/122
f 187/51/48 186/50/47 192/56/51
f 188/255/49 187/417/48 106/49/39
f 193/256/52 99/262/33 92/257/33
f 211/259/63 419/254/124 420/253/125
f 84/60/29 87/59/29 95/261/36
f 422/122/23 423/124/22 424/126/21
f 193/57/52 192/56/51 198/62/55
f 199/263/56 90/61/30 85/60/30
f 426/119/11 1/121/1 427/114/14
f 89/265/25 77/249/25 80/248/25
f 429/267/19 430/301/18 423/268/22
f 199/63/56 198/62/55 204/68/58
f 205/270/59 83/67/26 78/66/26
f 100/48/38 102/47/38 79/65/27
f 188/52/49 205/69/59 204/68/58
f 432/45/17 433/44/19 434/117/6
f 215/272/66 220/418/69 435/273/126
f 437/113/24 438/114/13 2/121/2
f 217/274/67 420/253/125 439/273/127
f 221/85/70 220/84/69 224/88/72
f 441/116/10 442/117/5 443/44/20
f 221/276/70 226/419/73 444/277/128
f 438/112/13 445/111/21 446/251/15
f 223/278/71 439/273/127 447/277/129
f 227/91/74 226/90/73 230/94/76
f 442/42/5 448/43/9 449/280/7
f 232/96/77 450/95/130 444/89/128
f 425/113/16 446/115/15 451/46/18
f 229/282/75 447/277/129 452/283/131
f 233/97/78 232/96/77 236/100/80
f 431/116/8 449/118/7 4/120/4
f 233/285/78 238/420/81 453/286/132
f 433/281/19 451/280/18 454/43/22
f 235/287/79 452/283/131 455/288/133
f 239/103/82 238/102/81 242/106/84
f 436/110/12 3/111/3 448/43/9
f 239/290/82 244/421/85 456/291/134
f 440/41/23 454/43/22 445/111/21
f 241/292/83 455/288/133 457/291/135
f 245/78/86 244/108/85 248/81/88
f 208/294/61 418/254/123 456/291/134
f 212/296/64 247/295/87 457/291/135
f 459/125/16 460/126/15 430/124/18
f 462/297/13 424/300/21 460/298/15
f 421/125/24 462/127/13 464/132/2
f 465/131/11 466/132/1 461/127/14
f 468/300/3 464/297/2 466/299/1
f 463/131/12 468/133/3 470/129/9
f 471/128/8 472/129/7 467/133/4
f 474/269/5 470/268/9 472/301/7
f 469/128/10 474/130/5 428/123/20
f 458/122/17 429/123/19 473/130/6
f 476/302/19 477/346/18 478/303/22
f 480/181/23 478/183/22 481/185/21
f 299/305/62 304/312/89 482/306/136
f 485/176/3 486/177/2 487/179/1
f 489/308/11 487/318/1 490/309/14
f 301/311/63 491/307/124 492/306/125
f 302/145/64 301/144/63 299/142/62
f 305/79/66 304/78/89 308/148/68
f 494/313/17 495/321/19 496/314/6
f 310/316/69 497/323/126 482/306/136
f 499/310/24 500/309/13 486/318/2
f 314/319/90 307/422/67 492/306/125
f 311/151/70 310/150/69 314/154/90
f 503/315/10 504/314/5 505/321/20
f 316/322/73 506/326/128 497/323/126
f 500/177/13 507/176/21 508/180/15
f 320/325/91 313/423/71 501/320/127
f 317/157/74 316/156/73 320/160/91
f 504/138/5 510/139/9 511/136/7
f 322/162/77 512/161/130 506/155/128
f 488/178/16 508/180/15 513/136/18
f 319/327/75 509/326/129 514/328/131
f 323/163/78 322/162/77 326/166/80
f 493/135/8 511/136/7 484/180/4
f 328/330/92 515/333/137 512/328/130
f 495/134/19 513/136/18 516/139/22
f 325/332/79 514/328/131 517/333/133
f 329/168/93 328/167/92 332/171/84
f 498/175/12 485/176/3 510/139/9
f 334/335/94 518/338/138 515/333/137
f 502/137/23 516/139/22 507/176/21
f 338/337/95 331/424/83 517/333/133
f 335/78/86 334/172/94 338/174/95
f 298/339/61 483/307/123 518/338/138
f 302/341/64 337/340/87 519/338/139
f 521/184/16 522/185/15 477/183/18
f 524/342/13 481/345/21 522/343/15
f 479/184/24 524/186/13 526/191/2
f 527/190/11 528/191/1 523/186/14
f 530/345/3 526/342/2 528/344/1
f 525/190/12 530/192/3 532/188/9
f 533/187/8 534/188/7 529/192/4
f 536/304/5 532/303/9 534/346/7
f 531/187/10 536/189/5 475/182/20
f 520/181/17 476/182/19 535/189/6
f 388/347/102 537/425/140 538/193/141
f 385/348/100 539/413/142 540/202/143
f 382/194/97 386/198/101 385/197/100
f 389/201/103 388/200/102 392/349/105
f 394/206/106 541/205/144 537/199/140
f 398/210/109 391/203/104 540/202/143
f 397/351/108 395/207/107 394/206/106
f 400/195/110 543/211/146 541/353/144
f 404/354/113 397/209/108 542/208/145
f 401/194/111 400/195/110 404/197/113
f 406/213/114 545/212/148 543/356/146
f 410/217/117 403/426/112 544/358/147
f 407/359/115 406/427/114 410/217/117
f 412/219/118 547/218/150 545/212/148
f 416/223/121 409/216/116 546/215/149
f 413/360/119 412/416/118 416/223/121
f 382/361/97 538/428/141 547/218/150
f 386/362/101 415/222/120 548/221/151
f 123/228/35 117/230/35 94/224/35
f 110/364/41 116/367/41 112/365/41
f 121/15/34 108/11/34 93/21/34
f 114/226/42 109/224/42 120/230/42
f 115/11/43 128/15/43 124/19/43
f 127/367/44 122/364/44 118/368/44
f 147/236/35 141/238/35 129/232/35
f 134/370/41 140/373/41 136/371/41
f 145/27/34 132/1/34 130/9/34
f 138/234/42 133/232/42 144/238/42
f 139/1/43 152/27/43 148/25/43
f 151/373/44 146/370/44 142/372/44
f 171/244/35 165/246/35 153/240/35
f 158/374/41 164/377/41 160/375/41
f 169/39/34 156/32/34 154/30/34
f 162/242/42 157/240/42 168/246/42
f 163/32/43 176/39/43 172/37/43
f 175/377/44 170/374/44 166/376/44
f 261/119/35 255/116/35 177/45/35
f 182/280/41 254/251/41 250/111/41
f 259/378/34 180/392/34 178/379/34
f 252/113/42 181/45/42 258/116/42
f 189/381/41 195/429/41 201/382/41
f 187/384/48 194/385/53 190/54/46
f 205/270/59 188/255/49 184/48/45
f 186/50/47 204/68/58 198/62/55
f 193/256/52 200/264/57 196/60/50
f 199/385/56 206/384/60 202/249/54
f 213/253/35 219/273/35 225/277/35
f 225/277/35 231/283/35 237/286/35
f 237/286/35 243/291/35 207/254/35
f 207/254/35 213/253/35 225/277/35
f 211/75/63 218/430/68 214/386/65
f 247/387/87 212/76/64 208/72/61
f 222/273/42 216/253/42 210/254/42
f 210/254/42 246/291/42 240/288/42
f 240/288/42 234/283/42 228/277/42
f 228/277/42 222/273/42 210/254/42
f 217/81/67 224/88/72 220/84/69
f 223/87/71 230/431/76 226/389/73
f 229/93/75 236/100/80 232/96/77
f 235/390/79 242/106/84 238/102/81
f 241/105/83 248/81/88 244/108/85
f 253/392/43 266/378/43 262/380/43
f 265/251/44 260/280/44 256/43/44
f 285/131/35 279/128/35 267/122/35
f 272/301/41 278/298/41 274/300/41
f 283/393/34 270/396/34 268/394/34
f 276/125/42 271/122/42 282/128/42
f 277/396/43 290/393/43 286/395/43
f 289/298/44 284/301/44 280/268/44
f 349/397/34 291/406/34 295/398/34
f 293/136/41 344/180/41 340/176/41
f 342/310/42 292/313/42 348/315/42
f 351/308/35 345/315/35 294/313/35
f 333/338/35 297/307/35 303/306/35
f 303/306/35 309/323/35 315/326/35
f 315/326/35 321/328/35 327/333/35
f 327/333/35 333/338/35 303/306/35
f 301/144/63 308/432/68 304/400/89
f 337/401/87 302/145/64 298/141/61
f 312/320/42 306/306/42 300/307/42
f 300/307/42 336/338/42 330/333/42
f 330/333/42 324/328/42 318/326/42
f 318/326/42 312/320/42 300/307/42
f 307/147/67 314/154/90 310/150/69
f 313/153/71 320/433/91 316/403/73
f 319/159/75 326/166/80 322/162/77
f 325/404/79 332/171/84 328/167/92
f 331/170/83 338/174/95 334/172/94
f 343/406/43 356/397/43 352/399/43
f 355/180/44 350/136/44 346/139/44
f 375/190/35 369/187/35 357/181/35
f 362/346/41 368/343/41 364/345/41
f 373/407/34 360/410/34 358/408/34
f 366/184/42 361/181/42 372/187/42
f 367/410/43 380/407/43 376/409/43
f 379/343/44 374/346/44 370/303/44
f 411/218/96 381/428/96 387/411/96
f 387/411/96 393/434/96 399/356/96
f 399/356/96 405/212/96 411/218/96
f 385/197/100 392/435/105 388/347/102
f 413/412/119 415/436/120 386/198/101
f 396/208/99 390/202/99 384/413/99
f 384/413/99 414/437/99 408/414/99
f 408/414/99 402/355/99 396/208/99
f 389/201/103 391/350/104 398/352/109
f 395/347/107 397/435/108 404/197/113
f 401/194/111 403/198/112 410/415/117
f 407/359/115 409/216/116 416/223/121
