# Blender 5.2.0 LTS
# www.blender.org
o Backdrop_Slide
v -34.415958 6.798265 2.406598
v -34.415958 6.798265 2.406598
v 4.952893 46.945312 -20.519360
v 5.309118 47.395313 -20.187174
v 5.309118 47.395313 -20.187174
v -18.250250 38.245041 -20.177593
v -18.517761 38.245041 -26.304581
v 7.100656 66.945312 -26.263807
v 7.587436 66.495316 -26.280806
v 7.587436 66.495316 -26.280806
v -14.374485 58.245041 -30.826178
v -14.580333 57.795040 -31.267618
v -14.580333 57.795040 -31.267618
v 7.100656 46.945312 -26.263807
v 7.587436 47.395313 -26.280806
v 7.587436 47.395313 -26.280806
v 4.557416 66.945312 -31.844442
v 4.889601 66.495316 -32.200668
v 4.889601 66.495316 -32.200668
v 1.997398 74.519882 -21.013939
v 1.552431 74.069885 -20.815828
v 1.552431 74.069885 -20.815828
v -18.517761 58.245041 -26.304581
v -18.250250 58.245041 -20.177593
v 1.997398 54.519882 -21.013939
v 1.552431 54.969883 -20.815828
v 1.552431 54.969883 -20.815828
v 6.445992 74.519882 -16.792381
v 6.445992 54.519882 -16.792381
v 12.576717 74.519882 -16.952921
v -32.159851 17.874607 -11.073527
v -28.096117 17.874607 -15.666739
v -28.309637 18.324608 -16.104521
v -28.309637 18.324608 -16.104521
v 12.576717 54.519882 -16.952921
v -8.915430 46.945312 -25.704517
v -6.767667 46.945312 -31.448963
v -7.123892 47.395313 -31.781149
v -7.123892 47.395313 -31.781149
v 16.798275 74.519882 -21.401514
v 17.253000 74.069885 -21.226963
v 17.253000 74.069885 -21.226963
v -1.187032 66.945312 -33.992207
v 16.798275 54.519882 -21.401514
v 17.253000 54.969883 -21.226963
v 17.253000 54.969883 -21.226963
v 16.637735 74.519882 -27.532242
v 10.049415 80.809608 -18.562990
v 9.562412 80.359612 -18.554489
v 9.562412 80.359612 -18.554489
v 10.049415 60.809608 -18.562990
v 9.562412 61.259609 -18.554489
v 9.562412 61.259609 -18.554489
v -6.767667 66.945312 -31.448963
v -8.915430 66.945312 -25.704517
v -7.123892 66.495316 -31.781149
v -7.123892 66.495316 -31.781149
v 12.494872 80.809608 -12.938821
v 12.494872 60.809608 -12.938821
v 18.200962 80.809608 -10.691133
v 18.209463 80.359612 -10.204130
v 18.209463 80.359612 -10.204130
v 1.836858 54.519882 -27.144665
v 6.058416 54.519882 -31.593260
v 18.200962 60.809608 -10.691133
v 18.209463 61.259609 -10.204130
v 18.209463 61.259609 -10.204130
v -25.276527 28.527897 -22.759089
v -19.741129 28.527897 -25.399338
v -19.766621 28.977898 -25.885746
v -19.766621 28.977898 -25.885746
v 23.825130 80.809608 -13.136591
v 23.825130 60.809608 -13.136591
v 12.189142 74.519882 -31.753798
v 12.363693 74.069885 -32.208523
v 12.363693 74.069885 -32.208523
v 26.072819 80.809608 -18.842678
v 26.559822 80.359612 -18.851181
v 26.559822 80.359612 -18.851181
v 16.503675 85.544411 -13.160706
v 16.052065 85.094414 -13.343166
v 16.052065 85.094414 -13.343166
v -14.374485 38.245041 -30.826178
v -8.247498 38.245041 -31.093689
v -8.080907 38.695042 -31.551392
v -8.080907 38.695042 -31.551392
v -14.580333 38.695042 -31.267618
v -14.580333 38.695042 -31.267618
v 16.503675 65.544411 -13.160706
v 16.052065 65.994408 -13.343166
v 16.052065 65.994408 -13.343166
v 16.557192 85.544411 -7.028110
v 16.557192 65.544411 -7.028110
v 12.189142 54.519882 -31.753798
v 16.637735 54.519882 -27.532242
v 12.363693 54.969883 -32.208523
v 12.363693 54.969883 -32.208523
v 20.931431 85.544411 -2.729556
v 20.748970 85.094414 -2.277947
v 20.748970 85.094414 -2.277947
v 6.058416 74.519882 -31.593260
v 1.836858 74.519882 -27.144665
v 20.931431 65.544411 -2.729556
v 20.748970 65.994408 -2.277947
v 20.748970 65.994408 -2.277947
v 12.297102 60.809608 -24.269079
v 17.921274 60.809608 -26.714537
v 17.912771 61.259609 -27.201540
v 17.912771 61.259609 -27.201540
v 27.064024 85.544411 -2.783074
v 27.254339 85.094414 -2.334717
v 27.254339 85.094414 -2.334717
v 23.627359 80.809608 -24.466850
v 27.064024 65.544411 -2.783074
v 27.254339 65.994408 -2.334717
v 27.254339 65.994408 -2.334717
v 31.362577 85.544411 -7.157314
v 31.814188 85.094414 -6.974852
v 31.814188 85.094414 -6.974852
v 20.334009 88.000000 -5.665993
v 19.989594 87.550003 -6.010407
v 19.989594 87.550003 -6.010407
v 20.334009 68.000000 -5.665993
v 19.989594 68.449997 -6.010407
v 19.989594 68.449997 -6.010407
v 17.921274 80.809608 -26.714537
v 12.297102 80.809608 -24.269079
v 17.912771 80.359612 -27.201540
v 17.912771 80.359612 -27.201540
v 17.987078 88.000000 -0.000000
v 17.987078 68.000000 0.000000
v 20.334009 88.000000 5.665993
v 19.989594 87.550003 6.010407
v 19.989594 87.550003 6.010407
v 20.802229 65.544411 -17.534945
v 26.934822 65.544411 -17.588461
v 27.117283 65.994408 -18.040071
v 27.117283 65.994408 -18.040071
v 20.611914 65.994408 -17.983301
v 20.611914 65.994408 -17.983301
v 20.334009 68.000000 5.665993
v 19.989594 68.449997 6.010407
v 19.989594 68.449997 6.010407
v 26.000000 88.000000 8.012924
v -1.187032 46.945312 -33.992207
v 4.557416 46.945312 -31.844442
v 4.889601 47.395313 -32.200668
v 4.889601 47.395313 -32.200668
v 26.000000 68.000000 8.012924
v 31.309061 85.544411 -13.289907
v 31.757418 85.094414 -13.480223
v 31.757418 85.094414 -13.480223
v 31.665991 88.000000 5.665993
v 32.010406 87.550003 6.010407
v 32.010406 87.550003 6.010407
v 23.627359 60.809608 -24.466850
v 26.072819 60.809608 -18.842678
v 26.559822 61.259609 -18.851181
v 26.559822 61.259609 -18.851181
v 31.665991 68.000000 5.665993
v 32.010406 68.449997 6.010407
v 32.010406 68.449997 6.010407
v 34.012924 88.000000 0.000000
v 26.934822 85.544411 -17.588461
v 20.802229 85.544411 -17.534945
v 20.611914 85.094414 -17.983301
v 20.611914 85.094414 -17.983301
v 27.117283 85.094414 -18.040071
v 27.117283 85.094414 -18.040071
v 34.012924 68.000000 -0.000000
v 31.665991 88.000000 -5.665993
v 26.000000 88.000000 -8.012924
v 32.010406 87.550003 -6.010407
v 32.010406 87.550003 -6.010407
v 26.000000 68.000000 -8.012924
v 31.665991 68.000000 -5.665993
v 32.010406 68.449997 -6.010407
v 32.010406 68.449997 -6.010407
v 31.309061 65.544411 -13.289907
v 31.362577 65.544411 -7.157314
v 31.814188 65.994408 -6.974852
v 31.814188 65.994408 -6.974852
v 31.757418 65.994408 -13.480223
v 31.757418 65.994408 -13.480223
v -37.716167 0.000000 23.353752
v -37.716167 0.450000 23.803753
v -38.166168 0.450000 23.353752
v -37.716167 4.550000 23.803753
v -37.716167 5.000000 23.353752
v -38.166168 4.550000 23.353752
v 26.000000 68.000000 -8.012924
v 25.584253 68.449997 -8.327792
v 26.415747 68.449997 -8.327792
v 26.000000 88.000000 -8.012924
v 26.415747 87.550003 -8.327792
v 25.584253 87.550003 -8.327792
v 31.665991 68.000000 -5.665993
v 32.010406 68.449997 -6.010407
v 31.665991 88.000000 -5.665993
v 32.010406 87.550003 -6.010407
v 34.012924 68.000000 -0.000000
v 34.327793 68.449997 -0.415745
v 34.327793 68.449997 0.415746
v 34.012924 88.000000 0.000000
v 34.327793 87.550003 0.415745
v 34.327793 87.550003 -0.415746
v 31.665991 68.000000 5.665993
v 32.010406 68.449997 6.010407
v 31.665991 88.000000 5.665993
v 32.010406 87.550003 6.010407
v 26.000000 68.000000 8.012924
v 26.415747 68.449997 8.327792
v 25.584253 68.449997 8.327792
v 26.000000 88.000000 8.012924
v 25.584253 87.550003 8.327792
v 26.415747 87.550003 8.327792
v 20.334009 68.000000 5.665993
v 19.989594 68.449997 6.010407
v 20.334009 88.000000 5.665993
v 19.989594 87.550003 6.010407
v 17.987078 68.000000 0.000000
v 17.672207 68.449997 0.415745
v 17.672207 68.449997 -0.415746
v 17.987078 88.000000 -0.000000
v 17.672207 87.550003 -0.415745
v 17.672207 87.550003 0.415746
v 20.334009 68.000000 -5.665993
v 19.989594 68.449997 -6.010407
v 20.334009 88.000000 -5.665993
v 19.989594 87.550003 -6.010407
v 20.802229 65.544411 -17.534945
v 20.611914 65.994408 -17.983301
v 20.802229 85.544411 -17.534945
v 20.611914 85.094414 -17.983301
v 26.934822 65.544411 -17.588461
v 27.117283 65.994408 -18.040071
v 26.934822 85.544411 -17.588461
v 27.117283 85.094414 -18.040071
v 31.309061 65.544411 -13.289907
v 31.757418 65.994408 -13.480223
v 31.309061 85.544411 -13.289907
v 31.757418 85.094414 -13.480223
v 31.362577 65.544411 -7.157314
v 31.814188 65.994408 -6.974852
v 31.362577 85.544411 -7.157314
v 31.814188 85.094414 -6.974852
v 27.064024 65.544411 -2.783074
v 27.254339 65.994408 -2.334717
v 27.064024 85.544411 -2.783074
v 27.254339 85.094414 -2.334717
v 20.931431 65.544411 -2.729556
v 20.748970 65.994408 -2.277947
v 20.931431 85.544411 -2.729556
v 20.748970 85.094414 -2.277947
v 16.557192 65.544411 -7.028110
v 16.429798 65.994408 -6.522386
v 16.104908 65.994408 -7.287778
v 16.557192 85.544411 -7.028110
v 16.104908 85.094414 -7.287778
v 16.429798 85.094414 -6.522386
v 16.503675 65.544411 -13.160706
v 16.052065 65.994408 -13.343166
v 16.503675 85.544411 -13.160706
v 16.052065 85.094414 -13.343166
v 12.297102 60.809608 -24.269079
v 11.781804 61.259609 -24.188744
v 12.359406 61.259609 -24.786869
v 12.297102 80.809608 -24.269079
v 12.359406 80.359612 -24.786869
v 11.781804 80.359612 -24.188744
v 17.921274 60.809608 -26.714537
v 17.912771 61.259609 -27.201540
v 17.921274 80.809608 -26.714537
v 17.912771 80.359612 -27.201540
v 23.627359 60.809608 -24.466850
v 23.547026 61.259609 -24.982147
v 24.145151 61.259609 -24.404545
v 23.627359 80.809608 -24.466850
v 24.145151 80.359612 -24.404545
v 23.547026 80.359612 -24.982147
v 26.072819 60.809608 -18.842678
v 26.559822 61.259609 -18.851181
v 26.072819 80.809608 -18.842678
v 26.559822 80.359612 -18.851181
v 23.825130 60.809608 -13.136591
v 24.340429 61.259609 -13.216927
v 23.762827 61.259609 -12.618802
v 23.825130 80.809608 -13.136591
v 23.762827 80.359612 -12.618801
v 24.340429 80.359612 -13.216927
v 18.200962 60.809608 -10.691133
v 18.209463 61.259609 -10.204130
v 18.200962 80.809608 -10.691133
v 18.209463 80.359612 -10.204130
v 12.494872 60.809608 -12.938821
v 12.575209 61.259609 -12.423522
v 11.977084 61.259609 -13.001124
v 12.494872 80.809608 -12.938821
v 11.977084 80.359612 -13.001124
v 12.575209 80.359612 -12.423522
v 10.049415 60.809608 -18.562990
v 9.562412 61.259609 -18.554489
v 10.049415 80.809608 -18.562990
v 9.562412 80.359612 -18.554489
v 1.836858 54.519882 -27.144665
v 1.393913 54.969883 -26.869371
v 1.691893 54.969883 -27.645636
v 1.836858 74.519882 -27.144665
v 1.691892 74.069885 -27.645636
v 1.393913 74.069885 -26.869371
v 6.058416 54.519882 -31.593260
v 5.550546 54.969883 -31.711809
v 6.310151 54.969883 -32.050007
v 6.058416 74.519882 -31.593260
v 6.310151 74.069885 -32.050007
v 5.550545 74.069885 -31.711809
v 12.189142 54.519882 -31.753798
v 12.363693 54.969883 -32.208523
v 12.189142 74.519882 -31.753798
v 12.363693 74.069885 -32.208523
v 16.637735 54.519882 -27.532242
v 16.756285 54.969883 -28.040112
v 17.094482 54.969883 -27.280506
v 16.637735 74.519882 -27.532242
v 17.094482 74.069885 -27.280506
v 16.756285 74.069885 -28.040112
v 16.798275 54.519882 -21.401514
v 17.253000 54.969883 -21.226963
v 16.798275 74.519882 -21.401514
v 17.253000 74.069885 -21.226963
v 12.576717 54.519882 -16.952921
v 13.084588 54.969883 -16.834372
v 12.324984 54.969883 -16.496174
v 12.576717 74.519882 -16.952921
v 12.324984 74.069885 -16.496174
v 13.084588 74.069885 -16.834372
v 6.445992 54.519882 -16.792381
v 6.721286 54.969883 -16.349436
v 5.945022 54.969883 -16.647415
v 6.445992 74.519882 -16.792381
v 5.945022 74.069885 -16.647415
v 6.721286 74.069885 -16.349436
v 1.997398 54.519882 -21.013939
v 1.552431 54.969883 -20.815828
v 1.997398 74.519882 -21.013939
v 1.552431 74.069885 -20.815828
v -8.915430 46.945312 -25.704517
v -9.215597 47.395313 -25.278034
v -9.244616 47.395313 -26.109020
v -8.915430 66.945312 -25.704517
v -9.244616 66.495316 -26.109020
v -9.215597 66.495316 -25.278034
v -6.767667 46.945312 -31.448963
v -7.123892 47.395313 -31.781149
v -6.767667 66.945312 -31.448963
v -7.123892 66.495316 -31.781149
v -1.187032 46.945312 -33.992207
v -1.613513 47.395313 -34.292374
v -0.782528 47.395313 -34.321392
v -1.187032 66.945312 -33.992207
v -0.782528 66.495316 -34.321392
v -1.613513 66.495316 -34.292374
v 4.557416 46.945312 -31.844442
v 4.889601 47.395313 -32.200668
v 4.557416 66.945312 -31.844442
v 4.889601 66.495316 -32.200668
v 7.100656 46.945312 -26.263807
v 7.587436 47.395313 -26.280806
v 7.100656 66.945312 -26.263807
v 7.587436 66.495316 -26.280806
v 4.952893 46.945312 -20.519360
v 5.309118 47.395313 -20.187174
v 4.952893 66.945312 -20.519360
v 5.309118 66.495316 -20.187174
v -0.627742 46.945312 -17.976118
v -0.201261 47.395313 -17.675949
v -1.032246 47.395313 -17.646931
v -0.627742 66.945312 -17.976118
v -1.032245 66.495316 -17.646931
v -0.201261 66.495316 -17.675949
v -6.372190 46.945312 -20.123882
v -6.704374 47.395313 -19.767656
v -6.372190 66.945312 -20.123882
v -6.704374 66.495316 -19.767656
v -18.250250 38.245041 -20.177593
v -18.359915 38.695042 -19.667728
v -18.711319 38.695042 -20.421316
v -18.250250 58.245041 -20.177593
v -18.711319 57.795040 -20.421316
v -18.359915 57.795040 -19.667728
v -18.517761 38.245041 -26.304581
v -18.955835 38.695042 -26.021601
v -18.671448 38.695042 -26.802948
v -18.517761 58.245041 -26.304581
v -18.671448 57.795040 -26.802948
v -18.955835 57.795040 -26.021601
v -14.374485 38.245041 -30.826178
v -14.580333 38.695042 -31.267618
v -14.374485 58.245041 -30.826178
v -14.580333 57.795040 -31.267618
v -8.247498 38.245041 -31.093689
v -8.080907 38.695042 -31.551392
v -8.247498 58.245041 -31.093689
v -8.080907 57.795040 -31.551392
v -3.725902 38.245041 -26.950413
v -3.284461 38.695042 -27.156261
v -3.725902 58.245041 -26.950413
v -3.284461 57.795040 -27.156261
v -3.458390 38.245041 -20.823423
v -3.000688 38.695042 -20.656834
v -3.458390 58.245041 -20.823423
v -3.000688 57.795040 -20.656834
v -7.601666 38.245041 -16.301828
v -7.091802 38.695042 -16.192163
v -7.845389 38.695042 -15.840759
v -7.601666 58.245041 -16.301828
v -7.845389 57.795040 -15.840759
v -7.091802 57.795040 -16.192163
v -13.728655 38.245041 -16.034319
v -13.895244 38.695042 -15.576615
v -13.728655 58.245041 -16.034319
v -13.895244 57.795040 -15.576615
v -24.683458 28.527897 -11.442634
v -24.585188 28.977898 -10.930452
v -25.203106 28.977898 -11.486829
v -24.683458 48.527897 -11.442634
v -25.203106 48.077896 -11.486829
v -24.585188 48.077896 -10.930452
v -27.323708 28.527897 -16.978033
v -27.810116 28.977898 -16.952541
v -27.323708 48.527897 -16.978033
v -27.810116 48.077896 -16.952541
v -25.276527 28.527897 -22.759089
v -25.788710 28.977898 -22.660818
v -25.232332 28.977898 -23.278736
v -25.276527 48.527897 -22.759089
v -25.232332 48.077896 -23.278736
v -25.788710 48.077896 -22.660818
v -19.741129 28.527897 -25.399338
v -19.766621 28.977898 -25.885746
v -19.741129 48.527897 -25.399338
v -19.766621 48.077896 -25.885746
v -13.960073 28.527897 -23.352158
v -14.058344 28.977898 -23.864340
v -13.440425 28.977898 -23.307962
v -13.960073 48.527897 -23.352158
v -13.440425 48.077896 -23.307962
v -14.058344 48.077896 -23.864340
v -11.319824 28.527897 -17.816759
v -10.833415 28.977898 -17.842251
v -11.319824 48.527897 -17.816759
v -10.833415 48.077896 -17.842251
v -13.367003 28.527897 -12.035704
v -13.005035 28.977898 -11.709785
v -13.367003 48.527897 -12.035704
v -13.005035 48.077896 -11.709785
v -18.902403 28.527897 -9.395454
v -18.876911 28.977898 -8.909045
v -18.902403 48.527897 -9.395454
v -18.876911 48.077896 -8.909045
v -27.192234 17.874607 -0.888404
v -27.350811 18.324608 -0.427864
v -27.192234 37.874607 -0.888404
v -27.350811 37.424606 -0.427864
v -31.785450 17.874607 -4.952137
v -32.223232 18.324608 -4.738617
v -31.785450 37.874607 -4.952137
v -32.223232 37.424606 -4.738617
v -32.159851 17.874607 -11.073527
v -32.592918 18.324608 -10.782941
v -32.322212 18.324608 -11.569132
v -32.159851 37.874607 -11.073527
v -32.322212 37.424606 -11.569132
v -32.592918 37.424606 -10.782941
v -28.096117 17.874607 -15.666739
v -28.309637 18.324608 -16.104521
v -28.096117 37.874607 -15.666739
v -28.309637 37.424606 -16.104521
v -21.974731 17.874607 -16.041140
v -21.816154 18.324608 -16.501680
v -21.974731 37.874607 -16.041140
v -21.816154 37.424606 -16.501680
v -17.381516 17.874607 -11.977407
v -16.943733 18.324608 -12.190928
v -17.381516 37.874607 -11.977407
v -16.943733 37.424606 -12.190928
v -17.007114 17.874607 -5.856019
v -16.574045 18.324608 -6.146604
v -16.844753 18.324608 -5.360413
v -17.007114 37.874607 -5.856019
v -16.844753 37.424606 -5.360413
v -16.574045 37.424606 -6.146604
v -21.070848 17.874607 -1.262805
v -20.857328 18.324608 -0.825023
v -21.070848 37.874607 -1.262805
v -20.857328 37.424606 -0.825023
v -25.377710 6.348265 9.807073
v -25.343735 6.798265 10.292963
v -25.377710 26.348265 9.807073
v -25.343735 25.898264 10.292963
v -31.193615 6.348265 7.861099
v -31.086420 6.798265 8.371487
v -31.713955 6.798265 7.825979
v -31.193615 26.348265 7.861099
v -31.713955 25.898264 7.825979
v -31.086420 25.898264 8.371487
v -33.930069 6.348265 2.372621
v -34.415958 6.798265 2.406598
v -33.930069 26.348265 2.372621
v -34.415958 25.898264 2.406598
v -31.984095 6.348265 -3.443282
v -32.351696 6.798265 -3.762834
v -31.984095 26.348265 -3.443282
v -32.351696 25.898264 -3.762834
v -26.495619 6.348265 -6.179737
v -26.529594 6.798265 -6.665627
v -26.495619 26.348265 -6.179737
v -26.529594 25.898264 -6.665627
v -20.679714 6.348265 -4.233762
v -20.786909 6.798265 -4.744151
v -20.159374 6.798265 -4.198643
v -20.679714 26.348265 -4.233762
v -20.159374 25.898264 -4.198643
v -20.786909 25.898264 -4.744150
v -17.943262 6.348265 1.254715
v -17.457371 6.798265 1.220738
v -17.943262 26.348265 1.254715
v -17.457371 25.898264 1.220738
v -19.889235 6.348265 7.070620
v -19.521633 6.798265 7.390170
v -19.889235 26.348265 7.070620
v -19.521633 25.898264 7.390170
v -19.528383 -6.000000 18.943321
v -19.307255 -5.550000 19.377310
v -19.528383 14.000000 18.943321
v -19.307255 13.550000 19.377310
v -25.642303 -6.000000 19.424496
v -25.792818 -5.550000 19.887732
v -25.642303 14.000000 19.424496
v -25.792818 13.550000 19.887732
v -30.305738 -6.000000 15.441542
v -30.397545 -5.550000 15.954921
v -30.775034 -5.550000 15.214056
v -30.305738 14.000000 15.441542
v -30.775034 13.550000 15.214056
v -30.397545 13.550000 15.954921
v -30.786913 -6.000000 9.327621
v -31.250149 -5.550000 9.177105
v -30.786913 14.000000 9.327621
v -31.250149 13.550000 9.177105
v -26.803959 -6.000000 4.664185
v -27.025085 -5.550000 4.230196
v -26.803959 14.000000 4.664185
v -27.025085 13.550000 4.230196
v -20.690037 -6.000000 4.183012
v -20.539522 -5.550000 3.719774
v -20.690037 14.000000 4.183012
v -20.539522 13.550000 3.719774
v -16.026602 -6.000000 8.165964
v -15.934795 -5.550000 7.652585
v -15.557307 -5.550000 8.393450
v -16.026602 14.000000 8.165964
v -15.557307 13.550000 8.393450
v -15.934795 13.550000 7.652585
v -15.545429 -6.000000 14.279886
v -15.082191 -5.550000 14.430401
v -15.545429 14.000000 14.279886
v -15.082191 13.550000 14.430401
v 26.000000 0.000000 -5.512924
v 26.000000 0.450000 -6.000000
v 26.000000 84.000000 -5.512924
v 26.000000 83.550003 -6.000000
v 29.898226 0.000000 -3.898226
v 29.826895 0.450000 -4.414848
v 30.414848 0.450000 -3.826895
v 29.898226 84.000000 -3.898226
v 30.414848 83.550003 -3.826895
v 29.826895 83.550003 -4.414848
v 31.512922 0.000000 -0.000000
v 32.000000 0.450000 0.000000
v 31.512922 84.000000 0.000000
v 32.000000 83.550003 0.000000
v 29.898226 0.000000 3.898226
v 30.414848 0.450000 3.826895
v 29.826895 0.450000 4.414848
v 29.898226 84.000000 3.898226
v 29.826895 83.550003 4.414848
v 30.414848 83.550003 3.826895
v 26.000000 0.000000 5.512924
v 26.000000 0.450000 6.000000
v 26.000000 84.000000 5.512924
v 26.000000 83.550003 6.000000
v 22.101774 0.000000 3.898226
v 22.173105 0.450000 4.414848
v 21.585152 0.450000 3.826895
v 22.101774 84.000000 3.898226
v 21.585152 83.550003 3.826895
v 22.173105 83.550003 4.414848
v 20.487078 0.000000 0.000000
v 20.000000 0.450000 0.000000
v 20.487078 84.000000 0.000000
v 20.000000 83.550003 0.000000
v 22.101774 0.000000 -3.898226
v 21.585152 0.450000 -3.826895
v 22.173105 0.450000 -4.414848
v 22.101774 84.000000 -3.898226
v 22.173105 83.550003 -4.414848
v 21.585152 83.550003 -3.826895
v -37.716167 0.000000 0.253753
v -38.166168 0.450000 0.253753
v -37.716167 0.450000 -0.196247
v -37.716167 5.000000 0.253753
v -37.716167 4.550000 -0.196247
v -38.166168 4.550000 0.253753
v -8.616170 0.000000 23.353752
v -8.166170 0.450000 23.353752
v -8.616170 0.450000 23.803753
v -8.616170 5.000000 23.353752
v -8.616170 4.550000 23.803753
v -8.166170 4.550000 23.353752
v -8.616170 0.000000 0.253753
v -8.616170 0.450000 -0.196247
v -8.166170 0.450000 0.253753
v -8.616170 5.000000 0.253753
v -8.166170 4.550000 0.253753
v -8.616170 4.550000 -0.196247
v -32.351696 6.798265 -3.762834
v -32.351696 6.798265 -3.762834
v -31.984095 6.348265 -3.443282
v -33.930069 6.348265 2.372621
v 5.309118 66.495316 -20.187174
v 5.309118 66.495316 -20.187174
v 4.952893 66.945312 -20.519360
v -0.627742 46.945312 -17.976118
v -0.627742 66.945312 -17.976118
v -6.704374 47.395313 -19.767656
v -6.704374 47.395313 -19.767656
v -6.372190 46.945312 -20.123882
v -27.810116 48.077896 -16.952541
v -27.810116 48.077896 -16.952541
v -24.683458 48.527897 -11.442634
v -27.323708 48.527897 -16.978033
v -6.704374 66.495316 -19.767656
v -6.704374 66.495316 -19.767656
v -6.372190 66.945312 -20.123882
v -8.080907 57.795040 -31.551392
v -8.080907 57.795040 -31.551392
v -8.247498 58.245041 -31.093689
v -3.284461 38.695042 -27.156261
v -3.284461 38.695042 -27.156261
v -3.725902 38.245041 -26.950413
v -25.276527 48.527897 -22.759089
v -3.284461 57.795040 -27.156261
v -3.284461 57.795040 -27.156261
v -3.725902 58.245041 -26.950413
v -27.810116 28.977898 -16.952541
v -27.810116 28.977898 -16.952541
v -27.323708 28.527897 -16.978033
v -24.683458 28.527897 -11.442634
v -3.000688 38.695042 -20.656834
v -3.000688 38.695042 -20.656834
v -3.458390 38.245041 -20.823423
v -31.250149 -5.550000 9.177105
v -31.250149 -5.550000 9.177105
v -30.786913 -6.000000 9.327621
v -30.305738 -6.000000 15.441542
v -3.000688 57.795040 -20.656834
v -3.000688 57.795040 -20.656834
v -3.458390 58.245041 -20.823423
v -7.601666 38.245041 -16.301828
v -7.601666 58.245041 -16.301828
v -13.895244 38.695042 -15.576615
v -13.895244 38.695042 -15.576615
v -13.728655 38.245041 -16.034319
v -32.223232 37.424606 -4.738617
v -32.223232 37.424606 -4.738617
v -27.350811 37.424606 -0.427864
v -27.350811 37.424606 -0.427864
v -27.192234 37.874607 -0.888404
v -31.785450 37.874607 -4.952137
v -13.895244 57.795040 -15.576615
v -13.895244 57.795040 -15.576615
v -13.728655 58.245041 -16.034319
v -19.766621 48.077896 -25.885746
v -19.766621 48.077896 -25.885746
v -19.741129 48.527897 -25.399338
v -13.960073 28.527897 -23.352158
v -32.159851 37.874607 -11.073527
v -13.960073 48.527897 -23.352158
v -27.350811 18.324608 -0.427864
v -27.350811 18.324608 -0.427864
v -32.223232 18.324608 -4.738617
v -32.223232 18.324608 -4.738617
v -31.785450 17.874607 -4.952137
v -27.192234 17.874607 -0.888404
v -10.833415 28.977898 -17.842251
v -10.833415 28.977898 -17.842251
v -11.319824 28.527897 -17.816759
v 32.000000 0.450000 0.000000
v 32.000000 0.450000 0.000000
v 29.898226 0.000000 3.898226
v 31.512922 0.000000 -0.000000
v -10.833415 48.077896 -17.842251
v -10.833415 48.077896 -17.842251
v -11.319824 48.527897 -17.816759
v -13.005035 28.977898 -11.709785
v -13.005035 28.977898 -11.709785
v -13.367003 28.527897 -12.035704
v -13.005035 48.077896 -11.709785
v -13.005035 48.077896 -11.709785
v -13.367003 48.527897 -12.035704
v -18.876911 28.977898 -8.909045
v -18.876911 28.977898 -8.909045
v -18.902403 28.527897 -9.395454
v -25.343735 25.898264 10.292963
v -25.343735 25.898264 10.292963
v -25.377710 26.348265 9.807073
v -31.193615 26.348265 7.861099
v -18.876911 48.077896 -8.909045
v -18.876911 48.077896 -8.909045
v -18.902403 48.527897 -9.395454
v -28.309637 37.424606 -16.104521
v -28.309637 37.424606 -16.104521
v -28.096117 37.874607 -15.666739
v -21.816154 18.324608 -16.501680
v -21.816154 18.324608 -16.501680
v -21.974731 17.874607 -16.041140
v -34.415958 25.898264 2.406598
v -34.415958 25.898264 2.406598
v -33.930069 26.348265 2.372621
v -21.816154 37.424606 -16.501680
v -21.816154 37.424606 -16.501680
v -21.974731 37.874607 -16.041140
v -25.343735 6.798265 10.292963
v -25.343735 6.798265 10.292963
v -31.193615 6.348265 7.861099
v -25.377710 6.348265 9.807073
v -16.943733 18.324608 -12.190928
v -16.943733 18.324608 -12.190928
v -17.381516 17.874607 -11.977407
v -16.943733 37.424606 -12.190928
v -16.943733 37.424606 -12.190928
v -17.381516 37.874607 -11.977407
v -17.007114 17.874607 -5.856019
v -17.007114 37.874607 -5.856019
v -20.857328 18.324608 -0.825023
v -20.857328 18.324608 -0.825023
v -21.070848 17.874607 -1.262805
v -25.792818 13.550000 19.887732
v -25.792818 13.550000 19.887732
v -19.307255 13.550000 19.377310
v -19.307255 13.550000 19.377310
v -19.528383 14.000000 18.943321
v -25.642303 14.000000 19.424496
v -20.857328 37.424606 -0.825023
v -20.857328 37.424606 -0.825023
v -21.070848 37.874607 -1.262805
v -32.351696 25.898264 -3.762834
v -32.351696 25.898264 -3.762834
v -31.984095 26.348265 -3.443282
v -26.529594 6.798265 -6.665627
v -26.529594 6.798265 -6.665627
v -26.495619 6.348265 -6.179737
v -30.305738 14.000000 15.441542
v -26.529594 25.898264 -6.665627
v -26.529594 25.898264 -6.665627
v -26.495619 26.348265 -6.179737
v -19.307255 -5.550000 19.377310
v -19.307255 -5.550000 19.377310
v -25.792818 -5.550000 19.887732
v -25.792818 -5.550000 19.887732
v -25.642303 -6.000000 19.424496
v -19.528383 -6.000000 18.943321
v -20.679714 6.348265 -4.233762
v -8.616170 0.000000 0.253753
v -37.716167 0.000000 0.253753
v -37.716167 0.450000 -0.196247
v -8.616170 0.450000 -0.196247
v -20.679714 26.348265 -4.233762
v -17.457371 6.798265 1.220738
v -17.457371 6.798265 1.220738
v -17.943262 6.348265 1.254715
v -17.457371 25.898264 1.220738
v -17.457371 25.898264 1.220738
v -17.943262 26.348265 1.254715
v -19.521633 6.798265 7.390170
v -19.521633 6.798265 7.390170
v -19.889235 6.348265 7.070620
v 26.000000 83.550003 -6.000000
v 26.000000 83.550003 -6.000000
v 26.000000 84.000000 -5.512924
v 29.898226 84.000000 -3.898226
v -19.521633 25.898264 7.390170
v -19.521633 25.898264 7.390170
v -19.889235 26.348265 7.070620
v -31.250149 13.550000 9.177105
v -31.250149 13.550000 9.177105
v -30.786913 14.000000 9.327621
v -27.025085 -5.550000 4.230196
v -27.025085 -5.550000 4.230196
v -26.803959 -6.000000 4.664185
v 32.000000 83.550003 0.000000
v 32.000000 83.550003 0.000000
v 31.512922 84.000000 0.000000
v -27.025085 13.550000 4.230196
v -27.025085 13.550000 4.230196
v -26.803959 14.000000 4.664185
v 26.000000 0.450000 -6.000000
v 26.000000 0.450000 -6.000000
v 29.898226 0.000000 -3.898226
v 26.000000 0.000000 -5.512924
v -20.539522 -5.550000 3.719774
v -20.539522 -5.550000 3.719774
v -20.690037 -6.000000 4.183012
v -20.539522 13.550000 3.719774
v -20.539522 13.550000 3.719774
v -20.690037 14.000000 4.183012
v -8.166170 4.550000 0.253753
v -8.166170 0.450000 0.253753
v -8.616170 4.550000 -0.196247
v -16.026602 -6.000000 8.165964
v -16.026602 14.000000 8.165964
v -8.616170 0.000000 23.353752
v -8.166170 0.450000 23.353752
v -15.082191 -5.550000 14.430401
v -15.082191 -5.550000 14.430401
v -15.545429 -6.000000 14.279886
v -37.716167 5.000000 0.253753
v -8.616170 5.000000 0.253753
v -37.716167 4.550000 -0.196247
v -15.082191 13.550000 14.430401
v -15.082191 13.550000 14.430401
v -15.545429 14.000000 14.279886
v 29.898226 84.000000 3.898226
v -38.166168 0.450000 0.253753
v -38.166168 4.550000 0.253753
v 26.000000 0.450000 6.000000
v 26.000000 0.450000 6.000000
v 26.000000 0.000000 5.512924
v -8.616170 5.000000 23.353752
v -37.716167 5.000000 23.353752
v -37.716167 4.550000 23.803753
v -8.616170 4.550000 23.803753
v 26.000000 83.550003 6.000000
v 26.000000 83.550003 6.000000
v 26.000000 84.000000 5.512924
v -38.166168 4.550000 23.353752
v 22.101774 0.000000 3.898226
v -37.716167 0.000000 23.353752
v -8.616170 0.450000 23.803753
v -37.716167 0.450000 23.803753
v 22.101774 84.000000 3.898226
v -38.166168 0.450000 23.353752
v 20.000000 0.450000 0.000000
v 20.000000 0.450000 0.000000
v 20.487078 0.000000 0.000000
v -8.166170 4.550000 23.353752
v 20.000000 83.550003 0.000000
v 20.000000 83.550003 0.000000
v 20.487078 84.000000 0.000000
v 22.101774 0.000000 -3.898226
v 22.101774 84.000000 -3.898226
vn -0.8949 -0.0000 0.4462
vn -0.6769 -0.7345 0.0473
vn 0.4963 -0.7345 0.4628
vn 0.9367 -0.0000 0.3502
vn -0.6649 -0.6795 0.3101
vn -0.6894 -0.6795 -0.2509
vn 0.6782 0.7345 -0.0237
vn 0.9100 -0.0000 -0.4147
vn -0.2868 0.7345 -0.6150
vn -0.7373 -0.0000 -0.6756
vn 0.6782 -0.7345 -0.0237
vn 0.4628 0.7345 -0.4963
vn 0.3502 -0.0000 -0.9367
vn -0.6199 0.7345 0.2760
vn -0.9997 -0.0000 0.0262
vn -0.6894 0.6795 -0.2509
vn -0.6649 0.6795 0.3101
vn -0.6199 -0.7345 0.2760
vn -0.2629 0.6795 0.6849
vn -0.2629 -0.6795 0.6849
vn 0.2984 0.6795 0.6702
vn -0.6937 -0.6795 -0.2389
vn -0.2975 -0.7345 -0.6099
vn -0.7490 -0.0000 -0.6626
vn 0.2984 -0.6795 0.6702
vn -0.7332 -0.6795 0.0256
vn -0.4963 -0.7345 -0.4628
vn -0.9367 -0.0000 -0.3502
vn 0.6335 0.7345 0.2432
vn 0.9997 -0.0000 -0.0262
vn -0.0256 0.6795 -0.7332
vn 0.6335 -0.7345 0.2432
vn 0.6702 0.6795 -0.2984
vn -0.6785 0.7345 0.0118
vn -0.9304 -0.0000 -0.3665
vn -0.6785 -0.7345 0.0118
vn -0.4963 0.7345 -0.4628
vn -0.7332 0.6795 0.0256
vn -0.5096 0.6795 0.5278
vn -0.5096 -0.6795 0.5278
vn 0.0118 0.7345 0.6785
vn 0.3987 -0.0000 0.9171
vn -0.6849 -0.6795 -0.2629
vn -0.2984 -0.6795 -0.6702
vn 0.0118 -0.7345 0.6785
vn -0.5452 -0.6795 -0.4909
vn -0.0355 -0.7345 -0.6777
vn -0.4305 -0.0000 -0.9026
vn 0.5278 0.6795 0.5096
vn 0.5278 -0.6795 0.5096
vn 0.2432 0.7345 -0.6335
vn -0.0262 -0.0000 -0.9997
vn 0.6785 0.7345 -0.0118
vn 0.9171 -0.0000 -0.3987
vn -0.6292 0.7345 -0.2542
vn -0.7133 -0.0000 -0.7009
vn -0.2868 -0.7345 -0.6150
vn 0.2321 -0.7345 -0.6377
vn -0.0436 -0.0000 -0.9990
vn -0.6292 -0.7345 -0.2542
vn -0.6753 0.6795 0.2867
vn -0.6753 -0.6795 0.2867
vn 0.2432 -0.7345 -0.6335
vn 0.6702 -0.6795 -0.2984
vn -0.2542 0.7345 0.6292
vn 0.0087 -0.0000 1.0000
vn -0.2984 0.6795 -0.6702
vn -0.6849 0.6795 -0.2629
vn -0.2542 -0.7345 0.6292
vn -0.5278 -0.6795 -0.5097
vn -0.0118 -0.7345 -0.6785
vn -0.3987 -0.0000 -0.9171
vn 0.2651 0.7345 0.6247
vn 0.7133 -0.0000 0.7009
vn 0.5096 0.6795 -0.5278
vn 0.2652 -0.7345 0.6246
vn 0.6292 0.7345 0.2542
vn 1.0000 -0.0000 -0.0087
vn -0.4798 0.7345 -0.4798
vn -0.3827 -0.0000 -0.9239
vn -0.4798 -0.7345 -0.4798
vn -0.0118 0.7345 -0.6785
vn -0.5278 0.6795 -0.5096
vn -0.7337 0.6795 -0.0000
vn -0.7337 -0.6795 -0.0000
vn -0.4798 0.7345 0.4798
vn -0.3827 -0.0000 0.9239
vn -0.2652 -0.7345 -0.6246
vn 0.2542 -0.7345 -0.6292
vn -0.0087 -0.0000 -1.0000
vn -0.2651 -0.7345 -0.6247
vn -0.4798 -0.7345 0.4798
vn -0.0000 0.6795 0.7337
vn -0.0256 -0.6795 -0.7332
vn 0.4628 -0.7345 -0.4963
vn -0.0000 -0.6795 0.7337
vn 0.6247 0.7345 -0.2651
vn 0.7009 -0.0000 -0.7133
vn 0.6247 0.7345 -0.2652
vn 0.4798 0.7345 0.4798
vn 0.9239 -0.0000 0.3827
vn 0.5097 -0.6795 -0.5278
vn 0.6785 -0.7345 -0.0118
vn 0.4798 -0.7345 0.4798
vn 0.7337 0.6795 -0.0000
vn 0.2542 0.7345 -0.6292
vn -0.2651 0.7345 -0.6247
vn -0.2652 0.7345 -0.6246
vn 0.7337 -0.6795 -0.0000
vn 0.4798 0.7345 -0.4798
vn -0.0000 0.6795 -0.7337
vn 0.3827 -0.0000 -0.9239
vn -0.0000 -0.6795 -0.7337
vn 0.4798 -0.7345 -0.4798
vn 0.6246 -0.7345 -0.2652
vn 0.6292 -0.7345 0.2542
vn 0.6247 -0.7345 -0.2651
vn -0.0000 -1.0000 -0.0000
vn -0.0000 -0.0000 1.0000
vn -1.0000 -0.0000 -0.0000
vn -0.0000 1.0000 -0.0000
vn -0.2048 -0.3468 -0.9153
vn 0.2048 -0.3468 -0.9153
vn 0.2048 0.3468 -0.9153
vn -0.2048 0.3468 -0.9153
vn 0.9239 -0.0000 -0.3827
vn 0.9153 -0.3468 -0.2048
vn 0.9153 -0.3468 0.2048
vn 0.9153 0.3468 0.2048
vn 0.9153 0.3468 -0.2048
vn 0.3827 -0.0000 0.9239
vn 0.2048 -0.3468 0.9153
vn -0.2048 -0.3468 0.9153
vn -0.2048 0.3468 0.9153
vn 0.2048 0.3468 0.9153
vn -0.9239 -0.0000 0.3827
vn -0.9153 -0.3468 0.2048
vn -0.9153 -0.3468 -0.2048
vn -0.9153 0.3468 -0.2048
vn -0.9153 0.3468 0.2048
vn -0.9239 -0.0000 -0.3827
vn -0.7009 -0.0000 0.7133
vn -0.7625 -0.3468 0.5462
vn -0.9226 -0.3468 0.1691
vn -0.9226 0.3468 0.1691
vn -0.7625 0.3468 0.5462
vn -1.0000 -0.0000 0.0087
vn -0.8007 -0.3468 -0.4885
vn -0.5161 -0.3468 -0.7832
vn -0.5161 0.3468 -0.7832
vn -0.8007 0.3468 -0.4885
vn 0.3665 -0.0000 -0.9304
vn 0.4885 -0.3468 -0.8007
vn 0.7832 -0.3468 -0.5161
vn 0.7831 0.3468 -0.5161
vn 0.4885 0.3468 -0.8007
vn 0.9304 -0.0000 0.3665
vn 0.8007 -0.3468 0.4885
vn 0.5161 -0.3468 0.7832
vn 0.5161 0.3468 0.7832
vn 0.8007 0.3468 0.4885
vn -0.3665 -0.0000 0.9304
vn -0.4885 -0.3468 0.8007
vn -0.7832 -0.3468 0.5161
vn -0.7831 0.3468 0.5161
vn -0.4885 0.3468 0.8007
vn -0.9171 -0.0000 0.3987
vn -0.9279 -0.3468 -0.1368
vn -0.7811 -0.3468 -0.5192
vn -0.7811 0.3468 -0.5192
vn -0.9279 0.3468 -0.1368
vn -0.5594 -0.3468 -0.7529
vn -0.1852 -0.3468 -0.9195
vn -0.1852 0.3468 -0.9195
vn -0.5594 0.3468 -0.7529
vn 0.6884 -0.0000 -0.7254
vn 0.7529 -0.3468 -0.5594
vn 0.9195 -0.3468 -0.1852
vn 0.9195 0.3468 -0.1852
vn 0.7529 0.3468 -0.5594
vn 0.7254 -0.0000 0.6884
vn 0.5594 -0.3468 0.7529
vn 0.1852 -0.3468 0.9195
vn 0.1852 0.3468 0.9195
vn 0.5594 0.3468 0.7529
vn -0.1368 -0.3468 0.9279
vn -0.5192 -0.3468 0.7811
vn -0.5192 0.3468 0.7811
vn -0.1368 0.3468 0.9279
vn -0.6884 -0.0000 0.7254
vn -0.9076 -0.3468 0.2366
vn -0.9219 -0.3468 -0.1727
vn -0.9219 0.3468 -0.1727
vn -0.9076 0.3468 0.2366
vn -0.4147 -0.0000 -0.9100
vn -0.2366 -0.3468 -0.9076
vn 0.1727 -0.3468 -0.9219
vn 0.1727 0.3468 -0.9219
vn -0.2366 0.3468 -0.9076
vn 0.4147 -0.0000 0.9100
vn 0.2366 -0.3468 0.9076
vn -0.1727 -0.3468 0.9219
vn -0.1727 0.3468 0.9219
vn 0.2366 0.3468 0.9076
vn -0.3502 -0.0000 0.9367
vn -0.7430 -0.3468 0.5724
vn -0.9161 -0.3468 0.2012
vn -0.9161 0.3468 0.2012
vn -0.7430 0.3468 0.5724
vn -0.9302 -0.3468 -0.1206
vn -0.7901 -0.3468 -0.5055
vn -0.7901 0.3468 -0.5055
vn -0.9302 0.3468 -0.1206
vn 0.6756 -0.0000 -0.7373
vn 0.9990 -0.0000 -0.0436
vn 0.7373 -0.0000 0.6756
vn 0.5724 -0.3468 0.7430
vn 0.2012 -0.3468 0.9161
vn 0.2012 0.3468 0.9161
vn 0.5724 0.3468 0.7430
vn 0.0436 -0.0000 0.9990
vn -0.4603 -0.3468 0.8172
vn -0.7647 -0.3468 0.5432
vn -0.7647 0.3468 0.5432
vn -0.4603 0.3468 0.8173
vn -0.9426 -0.0000 -0.3338
vn -0.8172 -0.3468 -0.4603
vn -0.5432 -0.3468 -0.7647
vn -0.5432 0.3468 -0.7647
vn -0.8173 0.3468 -0.4603
vn 0.3338 -0.0000 -0.9426
vn 0.4603 -0.3468 -0.8172
vn 0.7647 -0.3468 -0.5432
vn 0.7647 0.3468 -0.5432
vn 0.4603 0.3468 -0.8173
vn 0.9426 -0.0000 0.3338
vn 0.4305 -0.0000 0.9026
vn 0.0610 -0.0000 0.9981
vn -0.9981 -0.0000 0.0610
vn -0.9321 -0.3468 -0.1043
vn -0.7988 -0.3468 -0.4916
vn -0.7988 0.3468 -0.4916
vn -0.9321 0.3468 -0.1043
vn -0.0610 -0.0000 -0.9981
vn 0.6626 -0.0000 -0.7490
vn 0.9981 -0.0000 -0.0610
vn 0.9321 -0.3468 0.1043
vn 0.7988 -0.3468 0.4916
vn 0.7988 0.3468 0.4916
vn 0.9321 0.3468 0.1043
vn 0.7490 -0.0000 0.6626
vn 0.4462 -0.0000 0.8949
vn -0.4459 -0.3468 0.8252
vn -0.7551 -0.3468 0.5564
vn -0.7551 0.3468 0.5564
vn -0.4459 0.3468 0.8252
vn -0.9483 -0.0000 -0.3173
vn -0.4462 -0.0000 -0.8949
vn 0.3173 -0.0000 -0.9483
vn 0.4459 -0.3468 -0.8252
vn 0.7551 -0.3468 -0.5564
vn 0.7551 0.3468 -0.5564
vn 0.4459 0.3468 -0.8252
vn 0.9483 -0.0000 0.3173
vn 0.7604 -0.0000 0.6494
vn -0.6494 -0.0000 0.7604
vn -0.7226 -0.3468 0.5980
vn -0.9085 -0.3468 0.2331
vn -0.9085 0.3468 0.2331
vn -0.7226 0.3468 0.5980
vn -0.7604 -0.0000 -0.6494
vn -0.0785 -0.0000 -0.9969
vn 0.6494 -0.0000 -0.7604
vn 0.7226 -0.3468 -0.5980
vn 0.9085 -0.3468 -0.2331
vn 0.9085 0.3468 -0.2331
vn 0.7226 0.3468 -0.5980
vn 0.9969 -0.0000 -0.0785
vn 0.5024 -0.3468 -0.7920
vn 0.7920 -0.3468 -0.5024
vn 0.7920 0.3468 -0.5024
vn 0.5024 0.3468 -0.7920
vn 0.7920 -0.3468 0.5024
vn 0.5024 -0.3468 0.7920
vn 0.5024 0.3468 0.7920
vn 0.7920 0.3468 0.5024
vn -0.5024 -0.3468 0.7920
vn -0.7920 -0.3468 0.5024
vn -0.7920 0.3468 0.5024
vn -0.5024 0.3468 0.7920
vn -0.7920 -0.3468 -0.5024
vn -0.5024 -0.3468 -0.7920
vn -0.5024 0.3468 -0.7920
vn -0.7920 0.3468 -0.5024
vn -0.0000 -0.0000 -1.0000
vn 1.0000 -0.0000 -0.0000
vn -0.5121 -0.7345 -0.4452
vn 0.4963 0.7345 0.4628
vn 0.0256 -0.6795 0.7332
vn 0.0256 0.6795 0.7332
vn -0.4628 -0.7345 0.4963
vn -0.9100 -0.0000 0.4147
vn -0.6777 0.7345 0.0355
vn -0.9026 -0.0000 0.4305
vn -0.4909 0.6795 0.5452
vn -0.4628 0.7345 0.4963
vn 0.2321 0.7345 -0.6377
vn 0.6150 -0.7345 -0.2868
vn -0.5452 0.6795 -0.4909
vn 0.6150 0.7345 -0.2868
vn -0.6777 -0.7345 0.0355
vn -0.4909 -0.6795 0.5452
vn 0.6377 -0.7345 0.2321
vn -0.6454 -0.7345 -0.2097
vn -0.9969 -0.0000 0.0785
vn -0.6537 -0.6795 0.3331
vn 0.6377 0.7345 0.2321
vn 0.3101 -0.6795 0.6649
vn 0.3101 0.6795 0.6649
vn -0.2321 -0.7345 0.6377
vn -0.6756 -0.0000 0.7373
vn -0.6099 0.7345 0.2975
vn -0.6626 -0.0000 0.7490
vn -0.2209 0.7345 0.6416
vn -0.2321 0.7345 0.6377
vn -0.0355 0.7345 -0.6777
vn 0.4909 -0.6795 -0.5452
vn -0.6937 0.6795 -0.2389
vn 0.4909 0.6795 -0.5452
vn -0.2209 -0.7345 0.6416
vn -0.6099 -0.7345 0.2975
vn 0.6777 -0.7345 -0.0355
vn 0.9026 -0.0000 -0.4305
vn 0.6786 -0.7345 -0.0000
vn 0.5188 -0.6795 0.5188
vn 0.6777 0.7345 -0.0355
vn 0.5043 -0.7345 0.4541
vn 0.5043 0.7345 0.4541
vn 0.0355 -0.7345 0.6777
vn -0.3338 -0.0000 0.9426
vn 0.0473 0.7345 0.6769
vn -0.3173 -0.0000 0.9483
vn -0.4813 0.6795 0.5537
vn 0.0355 0.7345 0.6777
vn -0.2975 0.7345 -0.6099
vn 0.2209 -0.7345 -0.6416
vn -0.6769 0.7345 0.0473
vn 0.2209 0.7345 -0.6416
vn 0.0473 -0.7345 0.6769
vn -0.4813 -0.6795 0.5537
vn 0.6099 -0.7345 -0.2975
vn 0.6099 0.7345 -0.2975
vn 0.6937 -0.6795 0.2389
vn 0.6937 0.6795 0.2389
vn 0.2975 -0.7345 0.6099
vn -0.2097 0.7345 0.6454
vn 0.0785 -0.0000 0.9969
vn 0.3081 0.7345 0.6046
vn 0.2975 0.7345 0.6099
vn -0.5121 0.7345 -0.4452
vn -0.0473 -0.7345 -0.6769
vn -0.6537 0.6795 0.3331
vn -0.0473 0.7345 -0.6769
vn 0.3081 -0.7345 0.6046
vn -0.2097 -0.7345 0.6454
vn 0.4813 -0.6795 -0.5537
vn 0.4606 -0.7588 -0.4606
vn -0.4606 -0.7588 -0.4606
vn -0.4606 -0.4606 -0.7588
vn 0.4606 -0.4606 -0.7588
vn 0.4813 0.6795 -0.5537
vn 0.6769 -0.7345 -0.0473
vn 0.8949 -0.0000 -0.4462
vn 0.6769 0.7345 -0.0473
vn 0.5121 -0.7345 0.4452
vn -0.0000 0.7345 -0.6786
vn 0.5188 0.6795 -0.5188
vn 0.5121 0.7345 0.4452
vn -0.6454 0.7345 -0.2097
vn -0.3081 -0.7345 -0.6046
vn 0.6786 0.7345 -0.0000
vn -0.3081 0.7345 -0.6046
vn -0.0000 -0.7345 -0.6786
vn 0.5188 -0.6795 -0.5188
vn 0.2097 -0.7345 -0.6454
vn 0.2097 0.7345 -0.6454
vn 0.7588 0.4606 -0.4606
vn 0.7588 -0.4606 -0.4606
vn 0.4606 0.4606 -0.7588
vn 0.6537 -0.6795 -0.3331
vn 0.6537 0.6795 -0.3331
vn 0.4606 -0.7588 0.4606
vn 0.7588 -0.4606 0.4606
vn 0.6454 -0.7345 0.2097
vn -0.4606 0.7588 -0.4606
vn 0.4606 0.7588 -0.4606
vn -0.4606 0.4606 -0.7588
vn 0.6454 0.7345 0.2097
vn 0.5188 0.6795 0.5188
vn -0.7588 -0.4606 -0.4606
vn -0.7588 0.4606 -0.4606
vn -0.0000 -0.7345 0.6786
vn 0.4606 0.7588 0.4606
vn -0.4606 0.7588 0.4606
vn -0.4606 0.4606 0.7588
vn 0.4606 0.4606 0.7588
vn -0.0000 0.7345 0.6786
vn -0.7588 0.4606 0.4606
vn -0.5188 -0.6795 0.5188
vn -0.4606 -0.7588 0.4606
vn 0.4606 -0.4606 0.7588
vn -0.4606 -0.4606 0.7588
vn -0.5188 0.6795 0.5188
vn -0.7588 -0.4606 0.4606
vn -0.6786 -0.7345 -0.0000
vn 0.7588 0.4606 0.4606
vn -0.6786 0.7345 -0.0000
vn -0.5188 -0.6795 -0.5188
vn -0.5188 0.6795 -0.5188
vt 0.000000 3.400000
vt 0.020787 3.422500
vt -0.020787 3.422500
vt -0.000000 4.400000
vt -0.020787 4.377500
vt 0.020787 4.377500
vt -1.885808 -1.190188
vt -1.885808 -1.167688
vt -1.908308 -1.167688
vt 1.300000 3.400000
vt 1.320787 3.422500
vt 1.279213 3.422500
vt 1.300000 4.400000
vt 1.320787 4.377500
vt 1.279213 4.377500
vt -0.000000 3.400000
vt -0.020787 3.422500
vt 0.020787 3.422500
vt 0.000000 4.400000
vt 0.020787 4.377500
vt -0.020787 4.377500
vt 0.351406 3.277220
vt 0.326119 3.299720
vt 0.364389 3.299720
vt 0.351406 4.277221
vt 0.364389 4.254721
vt 0.326119 4.254721
vt 1.213454 3.040480
vt 1.209437 3.062980
vt 1.239343 3.062980
vt 1.213454 4.040481
vt 1.239343 4.017981
vt 1.209437 4.017981
vt 1.181368 3.040480
vt 1.177351 3.062980
vt 1.207258 3.062980
vt 1.181368 4.040481
vt 1.207258 4.017981
vt 1.177351 4.017981
vt 0.656830 3.040480
vt 0.660846 3.062980
vt 0.630940 3.062980
vt 0.656830 4.040481
vt 0.630940 4.017981
vt 0.660846 4.017981
vt 0.624744 3.040480
vt 0.628760 3.062980
vt 0.598854 3.062980
vt 0.624744 4.040481
vt 0.598854 4.017981
vt 0.628760 4.017981
vt 1.357233 2.725994
vt 1.343469 2.748494
vt 1.382282 2.748494
vt 1.357233 3.725994
vt 1.382282 3.703494
vt 1.343469 3.703494
vt 0.302921 2.725994
vt 0.277527 2.748494
vt 0.315508 2.748494
vt 0.302921 3.725994
vt 0.315508 3.703494
vt 0.277527 3.703494
vt 1.376612 2.725994
vt 1.402006 2.748494
vt 1.364025 2.748494
vt 1.376612 3.725994
vt 1.364025 3.703494
vt 1.402006 3.703494
vt 0.628836 2.725994
vt 0.654229 2.748494
vt 0.616249 2.748494
vt 0.628836 3.725994
vt 0.616249 3.703494
vt 0.654229 3.703494
vt 0.322300 2.725994
vt 0.336064 2.748494
vt 0.297251 2.748494
vt 0.322300 3.725994
vt 0.297251 3.703494
vt 0.336064 3.703494
vt 1.285226 2.347266
vt 1.263902 2.369766
vt 1.305451 2.369766
vt 1.285226 3.347266
vt 1.305451 3.324766
vt 1.263902 3.324766
vt -0.059352 2.347266
vt -0.080676 2.369766
vt -0.039126 2.369766
vt -0.059352 3.347266
vt -0.039126 3.324766
vt -0.080676 3.324766
vt -0.031387 2.347266
vt -0.010063 2.369766
vt -0.051612 2.369766
vt -0.031387 3.347266
vt -0.051612 3.324766
vt -0.010063 3.324766
vt 1.008880 1.912252
vt 0.983386 1.934752
vt 1.021066 1.934752
vt 1.008880 2.912252
vt 1.021066 2.889752
vt 0.983386 2.889752
vt 1.315229 1.912252
vt 1.301080 1.934752
vt 1.340147 1.934752
vt 1.315229 2.912252
vt 1.340147 2.889752
vt 1.301080 2.889752
vt -0.380083 1.912252
vt -0.354590 1.934752
vt -0.392269 1.934752
vt -0.380083 2.912252
vt -0.392269 2.889752
vt -0.354590 2.889752
vt -1.234173 1.426395
vt -1.229259 1.448895
vt -1.260155 1.448895
vt -1.234173 2.426395
vt -1.260155 2.403895
vt -1.229259 2.403895
vt 1.137954 1.426395
vt 1.133041 1.448895
vt 1.163937 1.448895
vt 1.137954 2.426395
vt 1.163937 2.403895
vt 1.133041 2.403895
vt -0.698004 1.426395
vt -0.702917 1.448895
vt -0.672021 1.448895
vt -0.698004 2.426395
vt -0.672021 2.403895
vt -0.702917 2.403895
vt 0.553676 0.893730
vt 0.539147 0.916230
vt 0.578457 0.916230
vt 0.553676 1.893730
vt 0.578457 1.871230
vt 0.539147 1.871230
vt 0.292801 0.893730
vt 0.307330 0.916230
vt 0.268021 0.916230
vt 0.292801 1.893730
vt 0.268021 1.871230
vt 0.307330 1.871230
vt -1.559681 0.317413
vt -1.554321 0.339913
vt -1.585698 0.339913
vt -1.559681 1.317413
vt -1.585698 1.294913
vt -1.554321 1.294913
vt -1.033986 0.317413
vt -1.039346 0.339913
vt -1.007969 0.339913
vt -1.033986 1.317413
vt -1.007969 1.294913
vt -1.039346 1.294913
vt -0.772077 -0.300000
vt -0.797746 -0.277500
vt -0.760703 -0.277500
vt -0.772077 0.700000
vt -0.760703 0.677500
vt -0.797746 0.677500
vt -0.408298 -0.300000
vt -0.382629 -0.277500
vt -0.419672 -0.277500
vt -0.408298 0.700000
vt -0.419672 0.677500
vt -0.382629 0.677500
vt 0.194911 0.000000
vt 0.220742 0.022500
vt 0.191345 0.022500
vt 1.494911 4.200000
vt 1.520742 4.177500
vt 1.491345 4.177500
vt 1.494911 0.000000
vt 1.520742 0.022500
vt 1.491345 0.022500
vt -0.194911 4.200000
vt -0.220742 4.177500
vt -0.191345 4.177500
vt -0.194911 0.000000
vt -0.220742 0.022500
vt -0.191345 0.022500
vt 1.105089 4.200000
vt 1.079258 4.177500
vt 1.108655 4.177500
vt 1.105089 0.000000
vt 1.079258 0.022500
vt 1.108655 0.022500
vt 0.194911 4.200000
vt 0.220742 4.177500
vt 0.191345 4.177500
vt -1.885808 -0.012688
vt -1.908308 -0.012688
vt -1.885808 0.009812
vt -1.908308 -0.012688
vt -1.167688 0.000000
vt -1.167688 0.022500
vt -1.190188 0.022500
vt -0.430808 -1.167688
vt -0.430808 -1.190188
vt -0.408309 -1.167688
vt -0.012688 0.000000
vt 0.009812 0.022500
vt -0.012688 0.022500
vt -0.012688 0.250000
vt -0.012688 0.227500
vt 0.009812 0.227500
vt 1.590709 0.348743
vt 1.565453 0.664495
vt 1.587871 0.674011
vt 1.320787 0.416390
vt 1.583300 0.283300
vt 1.300000 0.400646
vt 1.600520 0.300520
vt 1.716390 0.020787
vt 1.030596 0.899165
vt 1.346741 0.879423
vt 1.355864 0.902004
vt 1.716390 0.020787
vt 1.700646 -0.000000
vt 1.716390 -0.020787
vt 1.583300 -0.283300
vt 1.700646 0.000000
vt 1.207258 1.220227
vt 1.303641 0.942134
vt 1.181368 1.223343
vt 1.716390 -0.020787
vt 1.600520 -0.300520
vt 1.320787 -0.416390
vt -0.039126 1.716070
vt 0.227871 1.592222
vt -0.059352 1.699610
vt 1.300000 -0.400646
vt 1.279213 -0.416390
vt 1.016701 -0.283300
vt 1.040111 0.876747
vt 0.999480 -0.300520
vt 0.883610 -0.020787
vt 0.883610 -0.020787
vt 0.899354 0.000000
vt 0.617970 1.239343
vt 0.896064 1.335727
vt 0.895639 1.360077
vt 0.883610 0.020787
vt 1.016701 0.283300
vt 0.899354 -0.000000
vt 0.883610 0.020787
vt 0.999480 0.300520
vt 1.279213 0.416390
vt 1.568129 0.357866
vt 1.353201 0.139154
vt 1.177351 1.249107
vt 1.362717 0.116736
vt 0.614855 1.213454
vt 1.037449 0.113897
vt 0.084595 1.382282
vt 0.302921 1.579663
vt 0.277527 1.585590
vt 1.046571 0.136478
vt 0.837814 1.402006
vt 0.609457 1.587690
vt 0.618185 1.610426
vt 0.821490 0.326119
vt 0.827860 0.351406
vt 0.805245 0.364389
vt 0.825184 0.658035
vt -0.729017 1.563381
vt -0.412375 1.554684
vt -0.718724 1.541309
vt 0.802603 0.667158
vt 1.327991 0.942559
vt 0.315508 1.602500
vt 1.217021 0.660846
vt 1.191257 0.656830
vt -1.261617 1.163937
vt -0.987056 1.269967
vt -1.263826 1.137954
vt 1.188141 0.630940
vt 0.910048 0.534557
vt 0.091843 1.357233
vt 0.084595 1.382282
vt 0.910473 0.510207
vt 0.628760 0.621176
vt 0.624744 0.646941
vt -0.462231 1.305451
vt -0.338383 1.572448
vt -0.356195 1.589057
vt 0.598854 0.650056
vt 0.502471 0.928150
vt 0.478121 0.927724
vt 0.589090 1.209437
vt 0.831887 1.376612
vt 0.854724 1.364025
vt 0.839914 1.070076
vt -0.080676 1.714619
vt 0.862650 1.061348
vt -0.338383 1.572448
vt -0.445772 1.285226
vt 0.654229 0.841719
vt -1.616111 0.578457
vt -1.404806 0.783337
vt -1.607993 0.553676
vt 0.628836 0.847646
vt 0.336064 0.817472
vt 0.616249 0.824809
vt -0.080676 1.714619
vt 0.322300 0.839619
vt 0.297251 0.832371
vt 0.099870 1.050697
vt -0.935566 1.021066
vt -0.925888 1.315229
vt -0.947792 1.301080
vt 0.077622 1.040791
vt 0.069696 1.343469
vt -0.039126 1.716070
vt 0.244480 1.610033
vt 0.379372 1.314040
vt -0.933572 1.340147
vt 0.355033 1.313190
vt -0.912512 1.008880
vt 0.265456 1.009359
vt -1.720798 -0.120330
vt -1.599205 0.172164
vt -1.696503 -0.118631
vt 0.247645 1.025968
vt -0.010063 0.883797
vt -0.010063 0.883797
vt -0.031387 0.898806
vt -0.051612 0.882347
vt -0.318610 1.006194
vt -1.260155 0.574341
vt -1.366185 0.848902
vt -1.390506 0.847627
vt -0.051612 0.882347
vt -0.335219 0.988383
vt -0.460780 1.263902
vt -0.404045 1.577570
vt -0.164223 1.357813
vt -1.289436 1.133041
vt -0.186295 1.347521
vt -1.234173 0.572132
vt -0.150034 1.032842
vt -1.538752 -0.760703
vt -1.539346 -0.466381
vt -1.515287 -0.772077
vt -0.172919 1.041171
vt -0.354590 0.809608
vt -0.354590 0.809608
vt -0.380083 0.815091
vt -0.392269 0.792038
vt -0.686433 0.801716
vt -1.367541 0.021393
vt -1.589272 0.247607
vt -1.611162 0.236931
vt -0.694762 0.778831
vt -0.917996 0.983386
vt -0.988331 1.294287
vt -0.702917 1.193217
vt -1.629646 0.539147
vt -0.698004 1.167608
vt -1.359612 0.044420
vt -0.672021 1.165398
vt -0.565991 0.890838
vt 1.520742 -0.191345
vt 1.575646 0.000000
vt 1.600000 0.000000
vt -0.541671 0.892113
vt -0.650252 0.585489
vt -0.668350 0.601785
vt -0.943846 0.445452
vt -1.554321 -0.418574
vt -1.268885 -0.490354
vt -1.559681 -0.393055
vt -0.945120 0.469773
vt -1.229259 0.546523
vt -1.415482 0.805226
vt -1.098737 0.802057
vt -1.585698 -0.391299
vt -1.090808 0.825084
vt -1.267187 -0.514648
vt -0.847187 0.609546
vt -0.869076 0.598870
vt -0.828702 0.307330
vt -0.850356 0.292801
vt -0.842238 0.268021
vt -1.053542 0.063140
vt -1.289641 -0.994387
vt -0.976419 -0.947166
vt -1.282115 -0.971225
vt -0.842238 0.268021
vt -1.042866 0.041251
vt -1.617585 0.188142
vt -1.326480 0.333281
vt -1.519877 -0.797746
vt -1.324781 0.308987
vt -0.965363 -0.968866
vt -1.039346 0.237208
vt -0.430808 0.009812
vt -0.430808 -0.012688
vt -1.039346 0.237208
vt -1.033986 0.211688
vt -1.007969 0.209932
vt -0.897163 -0.062736
vt -0.872869 -0.061037
vt 1.520742 0.022500
vt -0.976082 -0.369509
vt 1.491345 0.220742
vt 1.300000 0.275646
vt 1.494911 0.194911
vt -0.994462 -0.353531
vt -1.562507 -0.458855
vt -1.340198 -0.233209
vt 1.520742 0.191345
vt 1.575646 -0.000000
vt -1.351254 -0.211510
vt 1.491345 0.220742
vt 1.300000 0.300000
vt -1.034502 -0.209151
vt -1.026976 -0.185989
vt -0.796740 -0.382629
vt 1.520742 0.191345
vt -0.801330 -0.408298
vt -0.777865 -0.419672
vt -0.777271 -0.713994
vt -0.754110 -0.721520
vt 1.520742 -0.191345
vt 1.494911 -0.194911
vt -1.885808 0.022500
vt -1.908308 0.227500
vt -1.885808 0.227500
vt 1.491345 -0.220742
vt 1.300000 -0.275646
vt 1.491345 -0.220742
vt 1.300000 -0.300000
vt 1.108655 -0.220742
vt 1.108655 -0.220742
vt 1.105089 -0.194911
vt 1.079258 0.022500
vt -1.190188 0.227500
vt -1.167688 0.022500
vt 1.079258 -0.191345
vt 1.024354 0.000000
vt -1.167688 0.227500
vt 1.079258 -0.191345
vt 1.000000 0.000000
vt 1.079258 0.191345
vt -0.408309 -0.012688
vt 1.079258 0.191345
vt 1.105089 0.194911
vt 1.108655 0.220742
vt 1.108655 0.220742
vt -0.012688 0.022500
vt -0.430808 0.227500
vt -0.430808 0.022500
vt 1.600520 3.422500
vt 0.999480 4.377500
vt 0.999480 3.422500
vt 0.300520 3.422500
vt -0.300520 4.377500
vt -0.300520 3.422500
vt 1.600520 4.377500
vt 1.030596 4.254721
vt 1.355864 3.299720
vt 1.030596 3.299720
vt 0.667158 4.254721
vt 0.899165 3.299720
vt 0.667158 3.299720
vt 1.355864 4.254721
vt 1.587871 3.299720
vt 0.674011 4.254721
vt 0.348743 3.299720
vt 0.674011 3.299720
vt 0.348743 4.254721
vt 0.116736 3.299720
vt 1.362717 4.254721
vt 1.037449 3.299720
vt 1.362717 3.299720
vt 1.037449 4.254721
vt 0.821490 3.299720
vt 0.617970 4.017981
vt 0.895639 3.062980
vt 0.617970 3.062980
vt 0.927724 4.017981
vt 0.927724 3.062980
vt 0.895639 4.017981
vt 1.220227 4.017981
vt 0.942559 3.062980
vt 1.220227 3.062980
vt 0.942559 4.017981
vt 1.188141 4.017981
vt 0.910473 3.062980
vt 1.188141 3.062980
vt 0.910473 4.017981
vt 0.650056 4.017981
vt 0.650056 3.062980
vt 1.585590 3.703494
vt 1.585590 2.748494
vt 1.040791 3.703494
vt 1.040791 2.748494
vt 0.618185 2.748494
vt 0.618185 3.703494
vt 0.837814 2.748494
vt 1.061348 2.748494
vt 1.061348 3.703494
vt 0.841719 2.748494
vt 0.077622 2.748494
vt 1.589057 2.369766
vt 0.988383 3.324766
vt 0.988383 2.369766
vt -0.356195 3.324766
vt -0.356195 2.369766
vt 0.244480 2.369766
vt 1.610033 3.324766
vt 1.314040 2.369766
vt 1.610033 2.369766
vt 1.314040 3.324766
vt 1.009359 2.369766
vt 0.265456 3.324766
vt 0.265456 2.369766
vt -0.335219 2.369766
vt -0.694762 2.889752
vt -0.917996 1.934752
vt -0.694762 1.934752
vt 1.563381 1.934752
vt -0.729017 2.889752
vt -0.404045 1.934752
vt -0.729017 1.934752
vt -0.404045 2.889752
vt -0.164223 1.934752
vt 1.357813 2.889752
vt 1.032842 1.934752
vt 1.357813 1.934752
vt 1.032842 2.889752
vt 0.809608 1.934752
vt 0.574341 2.403895
vt 0.847627 1.448895
vt 0.574341 1.448895
vt -0.943846 2.403895
vt -0.943846 1.448895
vt 0.847627 2.403895
vt -1.261617 2.403895
vt -0.988331 1.448895
vt -1.261617 1.448895
vt -0.988331 2.403895
vt 1.165398 2.403895
vt 0.892113 1.448895
vt 1.165398 1.448895
vt 0.892113 2.403895
vt 0.585489 1.448895
vt -0.650252 2.403895
vt -0.650252 1.448895
vt -1.367541 1.871230
vt -1.611162 0.916230
vt -1.367541 0.916230
vt -1.042866 1.871230
vt -1.042866 0.916230
vt 0.236931 1.871230
vt 0.236931 0.916230
vt 0.805226 0.916230
vt -1.415482 1.871230
vt -1.090808 0.916230
vt -1.415482 0.916230
vt -1.090808 1.871230
vt -0.847187 0.916230
vt 0.609546 1.871230
vt 0.609546 0.916230
vt 0.041251 0.916230
vt -1.267187 1.294913
vt -1.267187 0.339913
vt -0.976082 1.294913
vt -0.976082 0.339913
vt -0.391299 1.294913
vt -0.120330 0.339913
vt -0.391299 0.339913
vt -0.120330 1.294913
vt 0.188142 0.339913
vt -1.617585 1.294913
vt -1.326480 0.339913
vt -1.617585 0.339913
vt -1.326480 1.294913
vt 0.209932 1.294913
vt -0.061037 0.339913
vt 0.209932 0.339913
vt -0.061037 1.294913
vt -0.369509 0.339913
vt -0.965363 0.677500
vt -1.289641 -0.277500
vt -0.965363 -0.277500
vt -0.721520 0.677500
vt -0.968866 -0.277500
vt -0.721520 -0.277500
vt -1.289641 0.677500
vt -1.519877 -0.277500
vt -0.458855 -0.277500
vt -0.458855 0.677500
vt -0.211510 -0.277500
vt -1.351254 0.677500
vt -1.026976 -0.277500
vt -1.351254 -0.277500
vt -1.026976 0.677500
vt -0.796740 -0.277500
vt 1.300000 4.177500
vt 1.300000 0.022500
vt 0.191345 4.177500
vt 0.000000 0.022500
vt 0.000000 4.177500
vt -0.191345 0.022500
vt -0.191345 4.177500
vt 0.191345 0.022500
vt -1.908308 0.022500
vt -0.012688 0.227500
vt 0.300520 4.377500
vt 0.899165 4.254721
vt 1.587871 4.254721
vt 0.116736 4.254721
vt 0.821490 4.254721
vt 0.837814 3.703494
vt 0.841719 3.703494
vt 0.077622 3.703494
vt 1.589057 3.324766
vt 0.244480 3.324766
vt 1.009359 3.324766
vt -0.335219 3.324766
vt -0.917996 2.889752
vt 1.563381 2.889752
vt -0.164223 2.889752
vt 0.809608 2.889752
vt 0.585489 2.403895
vt -1.611162 1.871230
vt 0.805226 1.871230
vt -0.847187 1.871230
vt 0.041251 1.871230
vt 0.188142 1.294913
vt -0.369509 1.294913
vt -0.968866 0.677500
vt -1.519877 0.677500
vt -0.211510 0.677500
vt -0.796740 0.677500
s 1
f 170/1/109 202/2/127 203/3/128
f 163/4/105 205/5/129 206/6/130
f 842/7/405 841/8/404 847/9/408
f 149/10/96 212/11/132 213/12/133
f 172/13/111 195/14/124 196/15/125
f 144/13/93 215/15/134 216/14/135
f 849/8/410 851/7/412 853/9/414
f 175/10/113 192/12/122 193/11/123
f 131/16/85 222/17/137 223/18/138
f 130/19/84 225/20/139 226/21/140
f 93/22/62 256/23/143 257/24/144
f 92/25/61 259/26/145 260/27/146
f 106/28/70 266/29/148 267/30/149
f 127/31/83 269/32/150 270/33/151
f 156/34/102 276/35/153 277/36/154
f 113/37/75 279/38/155 280/39/156
f 73/40/50 286/41/158 287/42/159
f 72/43/49 289/44/160 290/45/161
f 59/46/40 296/47/163 297/48/164
f 58/49/39 299/50/165 300/51/166
f 63/52/43 306/53/168 307/54/169
f 102/55/68 309/56/170 310/57/171
f 64/58/44 312/59/172 313/60/173
f 101/61/67 315/62/174 316/63/175
f 95/64/64 322/65/177 323/66/178
f 47/67/33 325/68/179 326/69/180
f 35/70/25 332/71/182 333/72/183
f 30/73/21 335/74/184 336/75/185
f 29/76/20 338/77/186 339/78/187
f 28/79/19 341/80/188 342/81/189
f 36/82/26 348/83/191 349/84/192
f 55/85/38 351/86/193 352/87/194
f 145/88/94 358/89/196 359/90/197
f 43/91/31 361/92/198 362/93/199
f 634/94/299 376/95/201 377/96/202
f 635/97/300 379/98/203 380/99/204
f 6/100/5 386/101/206 387/102/207
f 24/103/17 389/104/208 390/105/209
f 7/106/6 392/107/210 393/108/211
f 23/109/16 395/110/212 396/111/213
f 670/112/318 414/113/217 415/114/218
f 671/115/319 417/116/219 418/117/220
f 659/118/312 424/119/222 425/120/223
f 641/121/305 427/122/224 428/123/225
f 68/124/46 434/125/227 435/126/228
f 652/127/309 437/128/229 438/129/230
f 687/130/327 444/131/232 445/132/233
f 689/133/329 447/134/234 448/135/235
f 31/136/22 470/137/240 471/138/241
f 688/139/328 473/140/242 474/141/243
f 744/142/353 488/143/247 489/144/248
f 745/145/354 491/146/249 492/147/250
f 736/148/350 502/149/253 503/150/254
f 718/151/343 505/152/255 506/153/256
f 774/154/366 520/155/260 521/156/261
f 779/157/371 523/158/262 524/159/263
f 666/160/316 542/161/267 543/162/268
f 764/163/362 545/164/269 546/165/270
f 821/166/390 560/167/274 561/168/275
f 822/169/391 563/170/276 564/171/277
f 810/172/384 574/173/279 575/174/280
f 792/175/377 577/176/281 578/177/282
f 701/178/335 584/179/283 585/180/284
f 834/181/399 587/182/285 588/183/286
f 848/184/409 594/185/287 595/186/288
f 852/187/413 597/188/289 598/189/290
f 861/190/418 604/191/291 605/192/292
f 862/193/419 607/194/293 608/195/294
f 776/196/368 835/197/400 777/198/369
f 828/196/395 830/198/397 836/199/401
f 823/200/392 824/201/393 850/202/411
f 840/203/403 843/204/406 857/205/416
f 775/206/367 778/207/370 819/208/388
f 829/209/396 818/210/387 820/211/389
f 277/36/154 280/39/156 279/38/155
f 182/212/116 179/213/115 184/214/117
f 193/215/123 176/216/114 175/217/113
f 195/215/124 171/216/110 174/218/110
f 196/15/125 193/11/123 192/12/122
f 310/57/171 307/54/169 306/53/168
f 202/219/127 176/216/114 178/218/114
f 167/220/108 164/221/106 169/222/106
f 206/223/130 171/216/110 163/224/105
f 203/3/128 206/6/130 205/5/129
f 203/225/128 160/226/104 170/227/109
f 277/228/154 157/229/103 156/230/102
f 205/231/129 153/226/100 155/232/100
f 169/222/106 150/213/97 152/214/99
f 212/233/132 160/226/104 162/232/104
f 359/234/197 146/235/95 145/236/94
f 216/233/135 153/226/100 144/237/93
f 213/12/133 216/14/135 215/15/134
f 213/238/133 141/239/92 149/237/96
f 138/222/89 135/240/88 140/220/91
f 215/238/134 132/239/86 134/241/86
f 184/214/117 136/221/89 138/222/89
f 222/242/137 141/239/92 143/241/92
f 270/33/151 267/30/149 266/29/148
f 226/243/140 132/239/86 130/244/84
f 223/18/138 226/21/140 225/20/139
f 269/245/150 126/246/82 129/247/82
f 223/248/138 123/249/81 131/250/85
f 225/251/139 120/249/79 122/252/79
f 192/253/122 123/249/81 125/252/81
f 196/253/125 120/249/79 172/217/111
f 152/214/99 117/254/77 119/212/77
f 313/60/173 316/63/175 315/62/174
f 182/212/116 114/255/76 180/254/116
f 280/256/156 126/246/82 113/230/75
f 119/212/77 110/255/73 112/257/73
f 267/245/149 107/246/71 106/258/70
f 105/259/69 114/255/76 116/257/76
f 309/260/170 101/261/67 316/262/175
f 100/259/65 110/255/73 98/263/65
f 322/264/177 94/265/63 97/266/63
f 256/267/143 103/263/69 105/259/69
f 276/256/153 107/246/71 109/247/71
f 260/267/146 98/263/65 92/268/61
f 257/24/144 260/27/146 259/26/145
f 359/90/197 362/93/199 361/92/198
f 257/269/144 89/270/60 93/268/62
f 88/271/57 84/272/58 83/273/57
f 259/269/145 80/270/55 82/274/55
f 140/220/91 89/270/60 91/274/60
f 82/274/55 165/240/107 167/220/108
f 279/228/155 77/229/53 79/275/53
f 315/276/174 74/265/51 76/266/51
f 286/277/158 157/229/103 159/275/103
f 290/277/161 77/229/53 72/278/49
f 287/42/159 290/45/161 289/44/160
f 435/279/228 69/280/47 68/281/46
f 287/282/159 65/283/45 73/278/50
f 312/262/172 63/284/43 307/285/169
f 289/282/160 60/283/41 62/286/41
f 313/276/173 94/265/63 64/261/44
f 296/287/163 65/283/45 67/286/45
f 352/87/194 349/84/192 348/83/191
f 300/287/166 60/283/41 58/288/39
f 297/48/164 300/51/166 299/50/165
f 351/289/193 54/290/37 57/291/37
f 297/292/164 51/293/36 59/288/40
f 299/292/165 48/293/34 50/294/34
f 266/295/148 51/293/36 53/294/36
f 270/295/151 48/293/34 127/258/83
f 326/264/180 74/265/51 47/296/33
f 323/66/178 326/69/180 325/68/179
f 435/126/228 438/129/230 437/128/229
f 323/297/178 44/298/32 95/296/64
f 362/299/199 54/290/37 43/236/31
f 325/297/179 40/298/29 42/300/29
f 349/289/192 37/301/27 36/302/26
f 332/303/182 44/298/32 46/300/32
f 471/304/241 32/305/23 31/306/22
f 336/303/185 40/298/29 30/307/21
f 333/72/183 336/75/185 335/74/184
f 390/105/209 387/102/207 386/101/206
f 338/308/186 35/307/25 333/309/183
f 358/310/196 37/301/27 39/291/27
f 335/309/184 28/311/19 342/308/189
f 339/78/187 342/81/189 341/80/188
f 393/108/211 396/111/213 395/110/212
f 339/312/187 25/313/18 29/311/20
f 389/314/208 23/315/16 396/316/213
f 341/312/188 20/313/14 22/317/14
f 306/318/168 25/313/18 27/317/18
f 310/318/171 20/313/14 102/284/68
f 361/319/198 17/235/12 19/320/12
f 471/138/241 474/141/243 473/140/242
f 16/321/11 146/235/95 148/320/95
f 395/322/212 11/273/9 13/271/9
f 19/320/12 8/323/7 10/321/7
f 387/314/207 7/315/6 6/324/5
f 5/325/3 14/323/11 16/321/11
f 2/326/2 629/327/297 630/328/2
f 10/321/7 633/329/298 631/325/298
f 428/123/225 425/120/223 424/119/222
f 376/330/201 3/329/3 5/325/3
f 393/322/211 83/273/57 7/315/6
f 380/331/204 633/329/298 635/332/300
f 377/96/202 380/99/204 379/98/203
f 377/333/202 638/334/301 634/332/299
f 427/335/224 642/336/303 639/337/303
f 379/338/203 645/334/306 643/339/306
f 348/340/191 638/334/301 636/339/301
f 352/340/194 645/334/306 55/302/38
f 13/271/9 648/272/307 646/341/307
f 649/342/308 84/272/58 86/341/58
f 438/343/230 642/336/303 652/281/309
f 653/342/310 648/272/307 655/344/310
f 425/335/223 658/336/311 659/345/312
f 660/346/313 651/344/308 649/342/308
f 543/347/268 665/348/314 666/349/316
f 653/342/310 669/350/317 667/346/317
f 414/351/217 662/350/313 660/346/313
f 434/343/227 658/336/311 656/337/311
f 418/352/220 669/350/317 671/353/319
f 415/114/218 418/117/220 417/116/219
f 415/354/218 674/355/320 670/353/318
f 677/356/324 680/357/322 675/358/322
f 417/354/219 683/355/325 681/359/325
f 386/360/206 674/355/320 672/359/320
f 390/360/209 683/355/325 24/324/17
f 437/279/229 686/280/326 684/361/326
f 543/162/268 546/165/270 545/164/269
f 444/362/232 69/280/47 71/361/47
f 474/363/243 680/357/322 688/306/328
f 448/362/235 686/280/326 689/364/329
f 445/132/233 448/135/235 447/134/234
f 690/356/330 694/357/331 695/365/330
f 445/366/233 698/367/332 687/364/327
f 584/368/283 702/369/334 699/370/334
f 447/366/234 705/367/336 703/371/336
f 706/372/337 698/367/332 696/371/332
f 470/363/240 694/357/331 692/358/331
f 703/371/336 711/373/338 709/372/338
f 503/150/254 506/153/256 505/152/255
f 712/374/339 708/373/337 706/372/337
f 506/375/256 717/376/341 718/377/343
f 709/372/338 721/378/344 719/374/344
f 424/379/222 714/378/339 712/374/339
f 428/379/225 721/378/344 641/345/305
f 473/304/242 724/305/345 722/380/345
f 34/380/23 727/381/346 32/305/23
f 505/382/255 730/328/347 728/326/347
f 722/380/345 733/381/348 731/383/348
f 502/375/253 737/376/349 734/384/349
f 738/385/351 727/381/346 725/383/346
f 741/385/352 733/381/348 743/386/352
f 488/387/247 740/386/351 738/385/351
f 503/382/254 630/328/2 736/377/350
f 492/387/250 743/386/352 745/388/354
f 489/144/248 492/147/250 491/146/249
f 489/389/248 748/390/355 744/388/353
f 749/391/356 753/392/358 754/393/356
f 491/394/249 757/390/359 755/395/359
f 746/395/355 695/365/330 748/390/355
f 755/395/359 679/365/324 677/356/324
f 728/326/347 760/327/360 758/396/360
f 761/397/361 629/327/297 627/396/297
f 546/398/270 754/393/356 764/349/362
f 758/396/360 767/399/363 765/397/363
f 768/400/364 772/393/365 773/392/364
f 520/401/260 763/399/361 761/397/361
f 776/196/368 778/402/370 775/403/367
f 524/404/263 767/399/363 779/405/371
f 521/156/261 524/159/263 523/158/262
f 521/406/261 782/407/372 774/405/366
f 542/398/267 772/393/365 770/391/365
f 523/406/262 785/407/374 783/408/374
f 575/409/280 578/177/282 577/176/281
f 786/410/375 782/407/372 780/408/372
f 578/411/282 791/412/376 792/413/377
f 793/410/378 785/407/374 795/414/378
f 734/384/349 788/414/375 786/410/375
f 715/384/341 795/414/378 717/376/341
f 545/347/269 798/348/379 796/415/379
f 663/415/314 801/416/380 665/348/314
f 577/417/281 804/418/381 802/370/381
f 796/415/379 807/416/382 805/419/382
f 574/420/279 811/412/383 808/421/383
f 799/419/380 814/422/385 801/416/380
f 805/419/382 817/422/386 815/423/386
f 819/208/388 820/211/389 818/210/387
f 560/424/274 814/422/385 812/423/385
f 575/425/280 702/369/334 810/413/384
f 564/424/277 817/422/386 822/426/391
f 561/168/275 564/171/277 563/170/276
f 775/206/367 824/201/393 823/200/392
f 561/427/275 827/428/394 821/426/390
f 829/403/396 830/198/397 828/196/395
f 563/427/276 833/428/398 831/429/398
f 768/400/364 827/428/394 825/429/394
f 751/400/358 833/428/398 753/392/358
f 588/430/286 804/418/381 834/431/399
f 585/180/284 588/176/286 587/177/285
f 777/432/369 836/433/401 830/434/397
f 585/435/284 839/436/402 701/431/335
f 841/8/404 843/204/406 840/203/403
f 587/437/285 846/436/407 844/438/407
f 828/196/395 847/9/408 841/8/404
f 594/439/287 839/436/402 837/438/402
f 823/203/392 851/7/412 849/8/410
f 598/440/290 846/436/407 852/441/413
f 595/442/288 598/189/290 597/188/289
f 842/443/405 853/444/414 851/202/412
f 595/445/288 856/446/415 848/441/409
f 850/202/411 857/447/416 843/443/406
f 597/448/289 860/446/417 858/449/417
f 849/8/410 835/197/400 776/196/368
f 604/450/291 856/446/415 854/449/415
f 840/203/403 818/451/387 829/403/396
f 608/452/294 860/446/417 862/453/419
f 605/192/292 608/188/294 607/189/293
f 605/454/292 811/412/383 861/453/418
f 607/455/293 791/412/376 789/421/376
f 621/403/118 185/8/118 609/196/118
f 190/447/120 610/456/120 187/444/120
f 619/457/119 186/432/119 617/458/119
f 612/196/121 618/203/121 624/403/121
f 207/226/118 217/239/118 227/249/118
f 195/14/124 177/459/112 193/11/123
f 121/460/80 192/12/122 124/461/80
f 224/244/121 214/237/121 204/224/121
f 198/462/126 206/6/130 202/2/127
f 203/3/128 154/463/101 161/464/101
f 210/465/131 212/11/132 208/459/131
f 215/15/134 142/461/87 213/12/133
f 220/463/136 222/17/137 218/464/136
f 225/20/139 228/462/141 223/18/138
f 251/263/118 261/270/118 235/221/118
f 166/466/90 137/467/90 139/468/90
f 81/469/56 232/470/56 90/471/56
f 241/213/121 233/240/121 258/268/121
f 238/472/98 183/473/98 236/467/98
f 242/474/78 181/475/78 240/476/78
f 246/477/74 115/478/74 244/475/74
f 250/479/66 104/480/66 248/481/66
f 254/482/142 256/483/143 252/480/142
f 259/26/145 262/471/147 257/24/144
f 295/288/118 265/258/118 275/230/118
f 269/484/150 108/485/72 267/486/149
f 49/487/35 266/29/148 52/488/35
f 303/293/121 293/283/121 283/229/121
f 274/489/152 276/35/153 272/485/152
f 279/490/155 158/491/54 277/492/154
f 284/493/157 286/41/158 282/491/157
f 289/494/160 66/495/42 287/496/159
f 294/497/162 296/47/163 292/495/162
f 299/498/165 302/488/167 297/499/164
f 337/311/118 305/284/118 317/265/118
f 307/54/169 316/500/175 312/501/172
f 21/502/15 306/53/168 26/503/15
f 314/261/121 345/313/121 334/307/121
f 315/62/174 96/504/52 313/60/173
f 320/505/176 322/506/177 318/504/176
f 325/68/179 45/507/30 323/66/178
f 330/508/181 332/509/182 328/507/181
f 335/74/184 338/77/186 333/72/183
f 341/80/188 344/510/190 339/78/187
f 367/323/118 375/332/118 347/302/118
f 351/86/193 38/511/28 349/84/192
f 644/512/302 348/83/191 637/513/302
f 355/290/121 383/334/121 373/329/121
f 356/514/195 358/89/196 354/515/195
f 361/92/198 147/516/13 359/90/197
f 366/517/8 15/518/8 364/519/8
f 370/520/4 4/521/4 368/518/4
f 374/522/200 376/95/201 372/523/200
f 379/98/203 382/524/205 377/96/202
f 419/355/118 391/315/118 401/272/118
f 389/104/208 392/107/210 387/102/207
f 682/525/321 386/526/206 673/527/321
f 394/315/121 421/355/121 411/350/121
f 395/110/212 87/528/10 393/108/211
f 400/529/59 85/530/59 398/531/59
f 404/532/214 650/533/214 402/530/214
f 408/534/215 661/535/215 406/536/215
f 412/537/216 414/538/217 410/535/216
f 417/116/219 420/527/221 415/114/218
f 443/364/118 453/373/118 423/345/118
f 427/539/224 657/540/304 425/541/223
f 720/542/340 424/119/222 713/543/340
f 431/336/121 459/378/121 451/367/121
f 432/544/226 434/125/227 430/540/226
f 437/545/229 70/546/48 435/547/228
f 442/548/231 444/131/232 440/546/231
f 447/549/234 697/550/333 445/551/233
f 452/552/236 707/553/236 450/550/236
f 456/554/237 458/543/237 454/555/237
f 479/381/118 487/388/118 461/365/118
f 678/556/323 693/557/323 691/558/323
f 756/559/238 462/558/238 747/560/238
f 467/357/121 495/390/121 485/386/121
f 468/561/239 470/137/240 466/562/239
f 473/140/242 33/563/24 471/138/241
f 478/564/244 726/565/244 476/566/244
f 482/567/245 739/568/245 480/565/245
f 486/569/246 488/143/247 484/570/246
f 491/146/249 494/571/251 489/144/248
f 515/399/118 525/407/118 497/376/118
f 716/572/342 502/149/253 735/573/342
f 794/574/252 498/573/252 787/575/252
f 504/377/121 531/414/121 522/405/121
f 505/576/255 1/577/1 503/578/254
f 510/579/257 628/580/257 508/577/257
f 514/581/258 762/582/258 512/583/258
f 518/584/259 520/155/260 516/582/259
f 523/585/262 781/586/373 521/587/261
f 528/588/264 530/589/264 526/586/264
f 551/416/118 559/426/118 533/392/118
f 752/590/357 771/591/357 769/592/357
f 832/593/265 534/594/265 826/595/265
f 539/393/121 567/428/121 557/422/121
f 540/596/266 542/597/267 538/591/266
f 545/164/269 664/598/315 543/162/268
f 550/599/271 800/600/271 548/598/271
f 554/601/272 813/602/272 552/603/272
f 558/604/273 560/605/274 556/602/273
f 563/170/276 566/595/278 561/168/275
f 589/436/118 599/446/118 569/412/118
f 790/606/112 574/180/279 809/607/112
f 607/189/293 570/607/80 605/192/292
f 576/413/121 606/453/121 596/441/121
f 577/608/281 700/609/126 575/174/280
f 582/610/101 584/611/283 580/609/101
f 587/177/285 838/607/131 585/180/284
f 592/606/87 594/192/287 590/607/87
f 597/612/289 855/609/136 595/186/288
f 602/610/141 604/613/291 600/609/141
f 613/434/295 622/458/295 611/432/295
f 625/210/296 616/201/296 623/208/296
f 277/36/154 276/35/153 280/39/156
f 182/212/116 180/254/116 179/213/115
f 193/215/123 178/218/114 176/216/114
f 195/215/124 172/217/111 171/216/110
f 196/15/125 195/14/124 193/11/123
f 310/57/171 309/56/170 307/54/169
f 202/219/127 170/227/109 176/216/114
f 167/220/108 165/240/107 164/221/106
f 206/223/130 174/218/110 171/216/110
f 203/3/128 202/2/127 206/6/130
f 203/225/128 162/232/104 160/226/104
f 277/228/154 159/275/103 157/229/103
f 205/231/129 163/224/105 153/226/100
f 169/222/106 164/221/106 150/213/97
f 212/233/132 149/237/96 160/226/104
f 359/234/197 148/320/95 146/235/95
f 216/233/135 155/232/100 153/226/100
f 213/12/133 212/11/132 216/14/135
f 213/238/133 143/241/92 141/239/92
f 138/222/89 136/221/89 135/240/88
f 215/238/134 144/237/93 132/239/86
f 184/214/117 179/213/115 136/221/89
f 222/242/137 131/250/85 141/239/92
f 270/33/151 269/32/150 267/30/149
f 226/243/140 134/241/86 132/239/86
f 223/18/138 222/17/137 226/21/140
f 269/245/150 127/258/83 126/246/82
f 223/248/138 125/252/81 123/249/81
f 225/251/139 130/244/84 120/249/79
f 192/253/122 175/217/113 123/249/81
f 196/253/125 122/252/79 120/249/79
f 152/214/99 150/213/97 117/254/77
f 313/60/173 312/59/172 316/63/175
f 182/212/116 116/257/76 114/255/76
f 280/256/156 129/247/82 126/246/82
f 119/212/77 117/254/77 110/255/73
f 267/245/149 109/247/71 107/246/71
f 105/259/69 103/263/69 114/255/76
f 309/260/170 102/284/68 101/261/67
f 100/259/65 112/257/73 110/255/73
f 322/264/177 95/296/64 94/265/63
f 256/267/143 93/268/62 103/263/69
f 276/256/153 156/230/102 107/246/71
f 260/267/146 100/259/65 98/263/65
f 257/24/144 256/23/143 260/27/146
f 359/90/197 358/89/196 362/93/199
f 257/269/144 91/274/60 89/270/60
f 88/271/57 86/341/58 84/272/58
f 259/269/145 92/268/61 80/270/55
f 140/220/91 135/240/88 89/270/60
f 82/274/55 80/270/55 165/240/107
f 279/228/155 113/230/75 77/229/53
f 315/276/174 101/261/67 74/265/51
f 286/277/158 73/278/50 157/229/103
f 290/277/161 79/275/53 77/229/53
f 287/42/159 286/41/158 290/45/161
f 435/279/228 71/361/47 69/280/47
f 287/282/159 67/286/45 65/283/45
f 312/262/172 64/261/44 63/284/43
f 289/282/160 72/278/49 60/283/41
f 313/276/173 97/266/63 94/265/63
f 296/287/163 59/288/40 65/283/45
f 352/87/194 351/86/193 349/84/192
f 300/287/166 62/286/41 60/283/41
f 297/48/164 296/47/163 300/51/166
f 351/289/193 55/302/38 54/290/37
f 297/292/164 53/294/36 51/293/36
f 299/292/165 58/288/39 48/293/34
f 266/295/148 106/258/70 51/293/36
f 270/295/151 50/294/34 48/293/34
f 326/264/180 76/266/51 74/265/51
f 323/66/178 322/65/177 326/69/180
f 435/126/228 434/125/227 438/129/230
f 323/297/178 46/300/32 44/298/32
f 362/299/199 57/291/37 54/290/37
f 325/297/179 47/296/33 40/298/29
f 349/289/192 39/291/27 37/301/27
f 332/303/182 35/307/25 44/298/32
f 471/304/241 34/380/23 32/305/23
f 336/303/185 42/300/29 40/298/29
f 333/72/183 332/71/182 336/75/185
f 390/105/209 389/104/208 387/102/207
f 338/308/186 29/311/20 35/307/25
f 358/310/196 145/236/94 37/301/27
f 335/309/184 30/307/21 28/311/19
f 339/78/187 338/77/186 342/81/189
f 393/108/211 392/107/210 396/111/213
f 339/312/187 27/317/18 25/313/18
f 389/314/208 24/324/17 23/315/16
f 341/312/188 28/311/19 20/313/14
f 306/318/168 63/284/43 25/313/18
f 310/318/171 22/317/14 20/313/14
f 361/319/198 43/236/31 17/235/12
f 471/138/241 470/137/240 474/141/243
f 16/321/11 14/323/11 146/235/95
f 395/322/212 23/315/16 11/273/9
f 19/320/12 17/235/12 8/323/7
f 387/314/207 392/316/210 7/315/6
f 5/325/3 3/329/3 14/323/11
f 2/326/2 627/396/297 629/327/297
f 10/321/7 8/323/7 633/329/298
f 428/123/225 427/122/224 425/120/223
f 376/330/201 634/332/299 3/329/3
f 393/322/211 88/271/57 83/273/57
f 380/331/204 631/325/298 633/329/298
f 377/96/202 376/95/201 380/99/204
f 377/333/202 636/339/301 638/334/301
f 427/335/224 641/345/305 642/336/303
f 379/338/203 635/332/300 645/334/306
f 348/340/191 36/302/26 638/334/301
f 352/340/194 643/339/306 645/334/306
f 13/271/9 11/273/9 648/272/307
f 649/342/308 651/344/308 84/272/58
f 438/343/230 639/337/303 642/336/303
f 653/342/310 646/341/307 648/272/307
f 425/335/223 656/337/311 658/336/311
f 660/346/313 662/350/313 651/344/308
f 543/347/268 663/415/314 665/348/314
f 653/342/310 655/344/310 669/350/317
f 414/351/217 670/353/318 662/350/313
f 434/343/227 68/281/46 658/336/311
f 418/352/220 667/346/317 669/350/317
f 415/114/218 414/113/217 418/117/220
f 415/354/218 672/359/320 674/355/320
f 677/356/324 679/365/324 680/357/322
f 417/354/219 671/353/319 683/355/325
f 386/360/206 6/324/5 674/355/320
f 390/360/209 681/359/325 683/355/325
f 437/279/229 652/281/309 686/280/326
f 543/162/268 542/161/267 546/165/270
f 444/362/232 687/364/327 69/280/47
f 474/363/243 675/358/322 680/357/322
f 448/362/235 684/361/326 686/280/326
f 445/132/233 444/131/232 448/135/235
f 690/356/330 692/358/331 694/357/331
f 445/366/233 696/371/332 698/367/332
f 584/368/283 701/431/335 702/369/334
f 447/366/234 689/364/329 705/367/336
f 706/372/337 708/373/337 698/367/332
f 470/363/240 31/306/22 694/357/331
f 703/371/336 705/367/336 711/373/338
f 503/150/254 502/149/253 506/153/256
f 712/374/339 714/378/339 708/373/337
f 506/375/256 715/384/341 717/376/341
f 709/372/338 711/373/338 721/378/344
f 424/379/222 659/345/312 714/378/339
f 428/379/225 719/374/344 721/378/344
f 473/304/242 688/306/328 724/305/345
f 34/380/23 725/383/346 727/381/346
f 505/382/255 718/377/343 730/328/347
f 722/380/345 724/305/345 733/381/348
f 502/375/253 736/377/350 737/376/349
f 738/385/351 740/386/351 727/381/346
f 741/385/352 731/383/348 733/381/348
f 488/387/247 744/388/353 740/386/351
f 503/382/254 2/326/2 630/328/2
f 492/387/250 741/385/352 743/386/352
f 489/144/248 488/143/247 492/147/250
f 489/389/248 746/395/355 748/390/355
f 749/391/356 751/400/358 753/392/358
f 491/394/249 745/388/354 757/390/359
f 746/395/355 690/356/330 695/365/330
f 755/395/359 757/390/359 679/365/324
f 728/326/347 730/328/347 760/327/360
f 761/397/361 763/399/361 629/327/297
f 546/398/270 749/391/356 754/393/356
f 758/396/360 760/327/360 767/399/363
f 768/400/364 770/391/365 772/393/365
f 520/401/260 774/405/366 763/399/361
f 776/196/368 777/198/369 778/402/370
f 524/404/263 765/397/363 767/399/363
f 521/156/261 520/155/260 524/159/263
f 521/406/261 780/408/372 782/407/372
f 542/398/267 666/349/316 772/393/365
f 523/406/262 779/405/371 785/407/374
f 575/409/280 574/180/279 578/177/282
f 786/410/375 788/414/375 782/407/372
f 578/411/282 789/421/376 791/412/376
f 793/410/378 783/408/374 785/407/374
f 734/384/349 737/376/349 788/414/375
f 715/384/341 793/410/378 795/414/378
f 545/347/269 764/349/362 798/348/379
f 663/415/314 799/419/380 801/416/380
f 577/417/281 792/413/377 804/418/381
f 796/415/379 798/348/379 807/416/382
f 574/420/279 810/413/384 811/412/383
f 799/419/380 812/423/385 814/422/385
f 805/419/382 807/416/382 817/422/386
f 819/208/388 778/207/370 820/211/389
f 560/424/274 821/426/390 814/422/385
f 575/425/280 699/370/334 702/369/334
f 564/424/277 815/423/386 817/422/386
f 561/168/275 560/167/274 564/171/277
f 775/206/367 819/208/388 824/201/393
f 561/427/275 825/429/394 827/428/394
f 829/403/396 820/402/389 830/198/397
f 563/427/276 822/426/391 833/428/398
f 768/400/364 773/392/364 827/428/394
f 751/400/358 831/429/398 833/428/398
f 588/430/286 802/370/381 804/418/381
f 585/180/284 584/179/283 588/176/286
f 777/432/369 835/614/400 836/433/401
f 585/435/284 837/438/402 839/436/402
f 841/8/404 842/7/405 843/204/406
f 587/437/285 834/431/399 846/436/407
f 828/196/395 836/199/401 847/9/408
f 594/439/287 848/441/409 839/436/402
f 823/203/392 850/204/411 851/7/412
f 598/440/290 844/438/407 846/436/407
f 595/442/288 594/192/287 598/189/290
f 842/443/405 847/447/408 853/444/414
f 595/445/288 854/449/415 856/446/415
f 850/202/411 824/201/393 857/447/416
f 597/448/289 852/441/413 860/446/417
f 849/8/410 853/9/414 835/197/400
f 604/450/291 861/453/418 856/446/415
f 840/203/403 857/205/416 818/451/387
f 608/452/294 858/449/417 860/446/417
f 605/192/292 604/191/291 608/188/294
f 605/454/292 808/421/383 811/412/383
f 607/455/293 862/453/419 791/412/376
f 621/403/118 615/203/118 185/8/118
f 190/447/120 614/615/120 610/456/120
f 619/457/119 188/434/119 186/432/119
f 612/196/121 189/8/121 618/203/121
f 227/249/118 191/217/118 197/216/118
f 197/216/118 201/227/118 207/226/118
f 207/226/118 211/237/118 217/239/118
f 217/239/118 221/250/118 227/249/118
f 227/249/118 197/216/118 207/226/118
f 195/14/124 173/465/112 177/459/112
f 121/460/80 196/15/125 192/12/122
f 204/224/121 199/216/121 194/217/121
f 194/217/121 229/249/121 224/244/121
f 224/244/121 219/239/121 214/237/121
f 214/237/121 209/226/121 204/224/121
f 204/224/121 194/217/121 224/244/121
f 198/462/126 200/616/126 206/6/130
f 203/3/128 205/5/129 154/463/101
f 210/465/131 216/14/135 212/11/132
f 215/15/134 133/460/87 142/461/87
f 220/463/136 226/21/140 222/17/137
f 225/20/139 230/616/141 228/462/141
f 235/221/118 239/213/118 243/254/118
f 243/254/118 247/255/118 251/263/118
f 251/263/118 255/268/118 261/270/118
f 261/270/118 231/240/118 235/221/118
f 235/221/118 243/254/118 251/263/118
f 166/466/90 168/472/90 137/467/90
f 81/469/56 234/617/56 232/470/56
f 258/268/121 253/263/121 249/255/121
f 249/255/121 245/254/121 241/213/121
f 241/213/121 237/221/121 233/240/121
f 233/240/121 263/270/121 258/268/121
f 258/268/121 249/255/121 241/213/121
f 238/472/98 151/618/98 183/473/98
f 242/474/78 118/477/78 181/475/78
f 246/477/74 111/619/74 115/478/74
f 250/479/66 99/482/66 104/480/66
f 254/482/142 260/620/146 256/483/143
f 259/26/145 264/469/147 262/471/147
f 275/230/118 281/229/118 285/278/118
f 285/278/118 291/283/118 295/288/118
f 295/288/118 301/293/118 265/258/118
f 265/258/118 271/246/118 275/230/118
f 275/230/118 285/278/118 295/288/118
f 269/484/150 128/489/72 108/485/72
f 49/487/35 270/33/151 266/29/148
f 283/229/121 278/230/121 273/246/121
f 273/246/121 268/258/121 303/293/121
f 303/293/121 298/288/121 293/283/121
f 293/283/121 288/278/121 283/229/121
f 283/229/121 273/246/121 303/293/121
f 274/489/152 280/39/156 276/35/153
f 279/490/155 78/493/54 158/491/54
f 284/493/157 290/45/161 286/41/158
f 289/494/160 61/497/42 66/495/42
f 294/497/162 300/51/166 296/47/163
f 299/498/165 304/487/167 302/488/167
f 317/265/118 321/296/118 327/298/118
f 327/298/118 331/307/118 337/311/118
f 337/311/118 343/313/118 305/284/118
f 305/284/118 311/261/118 317/265/118
f 317/265/118 327/298/118 337/311/118
f 307/54/169 309/56/170 316/500/175
f 21/502/15 310/57/171 306/53/168
f 334/307/121 329/298/121 324/296/121
f 324/296/121 319/265/121 314/261/121
f 314/261/121 308/284/121 345/313/121
f 345/313/121 340/311/121 334/307/121
f 334/307/121 324/296/121 314/261/121
f 315/62/174 75/505/52 96/504/52
f 320/505/176 326/621/180 322/506/177
f 325/68/179 41/508/30 45/507/30
f 330/508/181 336/622/185 332/509/182
f 335/74/184 342/81/189 338/77/186
f 341/80/188 346/623/190 344/510/190
f 347/302/118 353/301/118 357/236/118
f 357/236/118 363/235/118 367/323/118
f 367/323/118 371/329/118 375/332/118
f 375/332/118 381/334/118 347/302/118
f 347/302/118 357/236/118 367/323/118
f 351/86/193 56/624/28 38/511/28
f 644/512/302 352/87/194 348/83/191
f 373/329/121 369/323/121 365/235/121
f 365/235/121 360/236/121 355/290/121
f 355/290/121 350/302/121 383/334/121
f 383/334/121 378/332/121 373/329/121
f 373/329/121 365/235/121 355/290/121
f 356/514/195 362/93/199 358/89/196
f 361/92/198 18/625/13 147/516/13
f 366/517/8 9/520/8 15/518/8
f 370/520/4 632/626/4 4/521/4
f 374/522/200 380/99/204 376/95/201
f 379/98/203 384/627/205 382/524/205
f 401/272/118 405/344/118 409/350/118
f 409/350/118 413/353/118 419/355/118
f 419/355/118 385/324/118 391/315/118
f 391/315/118 397/273/118 401/272/118
f 401/272/118 409/350/118 419/355/118
f 389/104/208 396/111/213 392/107/210
f 682/525/321 390/628/209 386/526/206
f 411/350/121 407/344/121 403/272/121
f 403/272/121 399/273/121 394/315/121
f 394/315/121 388/324/121 421/355/121
f 421/355/121 416/353/121 411/350/121
f 411/350/121 403/272/121 394/315/121
f 395/110/212 12/629/10 87/528/10
f 400/529/59 647/532/59 85/530/59
f 404/532/214 654/630/214 650/533/214
f 408/534/215 668/537/215 661/535/215
f 412/537/216 418/631/220 414/538/217
f 417/116/219 422/525/221 420/527/221
f 423/345/118 429/336/118 433/281/118
f 433/281/118 439/280/118 443/364/118
f 443/364/118 449/367/118 453/373/118
f 453/373/118 457/378/118 423/345/118
f 423/345/118 433/281/118 443/364/118
f 427/539/224 640/544/304 657/540/304
f 720/542/340 428/123/225 424/119/222
f 451/367/121 446/364/121 441/280/121
f 441/280/121 436/281/121 431/336/121
f 431/336/121 426/345/121 459/378/121
f 459/378/121 455/373/121 451/367/121
f 451/367/121 441/280/121 431/336/121
f 432/544/226 438/129/230 434/125/227
f 437/545/229 685/548/48 70/546/48
f 442/548/231 448/135/235 444/131/232
f 447/549/234 704/552/333 697/550/333
f 452/552/236 710/632/236 707/553/236
f 456/554/237 460/542/237 458/543/237
f 461/365/118 465/357/118 469/306/118
f 469/306/118 475/305/118 479/381/118
f 479/381/118 483/386/118 487/388/118
f 487/388/118 493/390/118 461/365/118
f 461/365/118 469/306/118 479/381/118
f 678/556/323 676/633/323 693/557/323
f 756/559/238 464/556/238 462/558/238
f 485/386/121 481/381/121 477/305/121
f 477/305/121 472/306/121 467/357/121
f 467/357/121 463/365/121 495/390/121
f 495/390/121 490/388/121 485/386/121
f 485/386/121 477/305/121 467/357/121
f 468/561/239 474/141/243 470/137/240
f 473/140/242 723/634/24 33/563/24
f 478/564/244 732/567/244 726/565/244
f 482/567/245 742/635/245 739/568/245
f 486/569/246 492/147/250 488/143/247
f 491/146/249 496/636/251 494/571/251
f 497/376/118 501/377/118 507/328/118
f 507/328/118 511/327/118 515/399/118
f 515/399/118 519/405/118 525/407/118
f 525/407/118 529/414/118 497/376/118
f 497/376/118 507/328/118 515/399/118
f 716/572/342 506/153/256 502/149/253
f 794/574/252 500/572/252 498/573/252
f 522/405/121 517/399/121 513/327/121
f 513/327/121 509/328/121 504/377/121
f 504/377/121 499/376/121 531/414/121
f 531/414/121 527/407/121 522/405/121
f 522/405/121 513/327/121 504/377/121
f 505/576/255 729/579/1 1/577/1
f 510/579/257 759/637/257 628/580/257
f 514/581/258 766/584/258 762/582/258
f 518/584/259 524/159/263 520/155/260
f 523/585/262 784/588/373 781/586/373
f 528/588/264 532/638/264 530/589/264
f 533/392/118 537/393/118 541/349/118
f 541/349/118 547/348/118 551/416/118
f 551/416/118 555/422/118 559/426/118
f 559/426/118 565/428/118 533/392/118
f 533/392/118 541/349/118 551/416/118
f 752/590/357 750/596/357 771/591/357
f 832/593/265 536/639/265 534/594/265
f 557/422/121 553/416/121 549/348/121
f 549/348/121 544/349/121 539/393/121
f 539/393/121 535/392/121 567/428/121
f 567/428/121 562/426/121 557/422/121
f 557/422/121 549/348/121 539/393/121
f 540/596/266 546/640/270 542/597/267
f 545/164/269 797/599/315 664/598/315
f 550/599/271 806/641/271 800/600/271
f 554/601/272 816/604/272 813/602/272
f 558/604/273 564/642/277 560/605/274
f 563/170/276 568/593/278 566/595/278
f 569/412/118 573/413/118 579/369/118
f 579/369/118 583/431/118 589/436/118
f 589/436/118 593/441/118 599/446/118
f 599/446/118 603/453/118 569/412/118
f 569/412/118 579/369/118 589/436/118
f 790/606/112 578/177/282 574/180/279
f 607/189/293 572/606/80 570/607/80
f 596/441/121 591/436/121 586/431/121
f 586/431/121 581/418/121 576/413/121
f 576/413/121 571/412/121 606/453/121
f 606/453/121 601/446/121 596/441/121
f 596/441/121 586/431/121 576/413/121
f 577/608/281 803/610/126 700/609/126
f 582/610/101 588/183/286 584/611/283
f 587/177/285 845/606/131 838/607/131
f 592/606/87 598/189/290 594/192/287
f 597/612/289 859/610/136 855/609/136
f 602/610/141 608/195/294 604/613/291
f 613/434/295 626/457/295 622/458/295
f 625/210/296 620/447/296 616/201/296
