# Blender 5.2.0 LTS
# www.blender.org
o Backdrop_Umbrella
v 0.000000 72.265846 -9.270510
v 0.000000 73.000000 0.000000
v 25.577305 51.500000 -14.767062
v 25.723465 51.846619 -14.851450
v 29.534126 51.500000 0.000000
v 29.702900 51.846619 0.000000
v 25.577305 51.500000 14.767062
v 25.723465 51.846619 14.851450
v 14.767062 51.500000 25.577305
v 14.851450 51.846619 25.723465
v 0.000000 51.500000 29.534126
v -14.767062 51.500000 25.577305
v -14.851450 51.846619 25.723465
v 0.000000 51.846619 29.702900
v -25.577305 51.500000 14.767062
v -29.702900 51.846619 0.000000
v 0.000000 70.135254 -17.633556
v -1.069798 62.000000 -1.069798
v 0.000000 62.635254 -28.531696
v 0.000000 58.000000 -30.000000
v -25.723465 51.846619 14.851450
v -1.414214 0.450000 -1.414214
v 1.827792 0.450000 0.415746
v -1.069798 0.000000 -1.069798
v 1.827793 0.450000 -0.415746
v 4.635255 72.265846 -8.028497
v -1.827792 61.549999 0.415746
v 8.816778 70.135254 -15.271109
v 12.135255 66.816780 -21.018877
v 14.265848 62.635254 -24.709173
v 15.000000 58.000000 -25.980762
v 1.512924 0.000000 0.000000
v -1.414214 61.549999 1.414214
v 1.414214 61.549999 -1.414214
v 1.069798 62.000000 -1.069798
v -1.827793 61.549999 -0.415746
v 8.028497 72.265846 -4.635254
v -1.512924 62.000000 0.000000
v 15.271109 70.135254 -8.816778
v 21.018877 66.816780 -12.135254
v 24.709173 62.635254 -14.265847
v 25.980762 58.000000 -15.000000
v -25.723465 51.846619 -14.851450
v 14.767062 51.500000 -25.577305
v 0.000000 77.000000 0.000000
v 14.851450 51.846619 -25.723465
v -1.827792 0.450000 -0.415746
v 9.270509 72.265846 0.000000
v -1.827793 0.450000 0.415746
v 17.633556 70.135254 0.000000
v 24.270508 66.816780 0.000000
v 28.531694 62.635254 0.000001
v 30.000000 58.000000 0.000000
v 1.414214 0.450000 -1.414214
v -1.069798 62.000000 1.069798
v 1.414214 0.450000 -1.414214
v 1.069798 0.000000 -1.069798
v -1.512924 0.000000 -0.000000
v 8.028496 72.265846 4.635255
v -1.414214 0.450000 1.414214
v 15.271109 70.135254 8.816778
v 21.018877 66.816780 12.135254
v 24.709171 62.635254 14.265848
v 25.980762 58.000000 15.000000
v 1.414214 0.450000 -1.414214
v 1.069798 0.000000 -1.069798
v -1.069798 0.000000 1.069798
v 0.415746 61.549999 1.827792
v -0.415746 61.549999 1.827793
v 4.635254 72.265846 8.028497
v 0.000000 62.000000 1.512924
v 8.816778 70.135254 15.271109
v 12.135254 66.816780 21.018877
v 14.265845 62.635254 24.709171
v 15.000000 58.000000 25.980762
v -0.415746 61.549999 -1.827792
v 0.415746 61.549999 -1.827793
v -29.534126 51.500000 0.000000
v 1.414214 61.549999 -1.414214
v -0.415746 0.450000 1.827792
v -0.000001 72.265846 9.270509
v 0.415746 0.450000 1.827793
v 0.000000 70.135254 17.633556
v 0.000000 66.816780 24.270508
v -0.000001 62.635254 28.531691
v 0.000000 58.000000 30.000000
v 1.414214 61.549999 -1.414214
v 1.069798 62.000000 -1.069798
v 1.414214 61.549999 1.414214
v 1.414214 61.549999 1.414214
v -0.000000 0.000000 1.512924
v -4.635255 72.265846 8.028496
v 1.414214 61.549999 1.414214
v -8.816778 70.135254 15.271109
v -12.135254 66.816780 21.018877
v -14.265846 62.635254 24.709169
v -15.000000 58.000000 25.980762
v -0.000000 0.000000 1.512924
v 1.512924 62.000000 -0.000000
v 1.069798 62.000000 1.069798
v 0.000000 62.000000 1.512924
v -1.414214 0.450000 1.414214
v -8.028497 72.265846 4.635253
v -0.000000 62.000000 -1.512924
v -15.271109 70.135254 8.816778
v -21.018877 66.816780 12.135254
v -24.709171 62.635254 14.265843
v -25.980762 58.000000 15.000000
v -1.414214 0.450000 1.414214
v -1.069798 0.000000 1.069798
v -1.414214 61.549999 1.414214
v -1.414214 61.549999 1.414214
v 0.415746 0.450000 -1.827792
v -9.270508 72.265846 -0.000001
v 1.069798 62.000000 1.069798
v -17.633556 70.135254 0.000000
v -24.270508 66.816780 0.000000
v -28.531691 62.635254 -0.000003
v -30.000000 58.000000 0.000000
v -1.069798 62.000000 1.069798
v -1.512924 0.000000 -0.000000
v -25.577305 51.500000 -14.767062
v -1.512924 62.000000 0.000000
v -1.414214 0.450000 -1.414214
v -8.028495 72.265846 -4.635255
v 1.414214 0.450000 1.414214
v -15.271109 70.135254 -8.816778
v -21.018877 66.816780 -12.135254
v -24.709167 62.635254 -14.265848
v -25.980762 58.000000 -15.000000
v -1.414214 0.450000 -1.414214
v 1.414214 0.450000 1.414214
v 1.414214 0.450000 1.414214
v 1.512924 0.000000 0.000000
v 1.069798 0.000000 1.069798
v -4.635252 72.265846 -8.028496
v -1.069798 0.000000 -1.069798
v -8.816778 70.135254 -15.271109
v -12.135254 66.816780 -21.018877
v -14.265843 62.635254 -24.709171
v -15.000000 58.000000 -25.980762
v 0.000000 0.000000 -1.512924
v -1.414214 61.549999 -1.414214
v -1.414214 61.549999 -1.414214
v -0.000000 62.000000 -1.512924
v 1.069798 0.000000 1.069798
v -1.069798 62.000000 -1.069798
v 1.827792 61.549999 -0.415746
v -0.415746 0.450000 -1.827793
v 0.000000 66.816780 -24.270508
v 0.000000 0.000000 -1.512924
v 0.000000 51.846619 -29.702900
v -14.851450 51.846619 -25.723465
v 1.827793 61.549999 0.415746
v 1.512924 62.000000 -0.000000
v -14.767062 51.500000 -25.577305
v 0.000000 51.500000 -29.534126
v -1.414214 61.549999 -1.414214
v 0.391868 73.000000 2.973754
v -0.391870 73.000000 2.973755
v 2.771281 73.000000 1.147509
v 2.379413 73.000000 1.826247
v 2.004682 74.981064 1.617936
v 2.403514 74.981064 0.927138
v 0.975403 76.464104 1.036851
v 1.385639 76.464104 0.326299
v 1.016106 76.607018 0.586649
v 1.385641 76.464104 -0.326299
v 0.975403 76.464104 -1.036849
v 1.016106 76.607018 -0.586649
v 2.403514 74.981064 -0.927137
v 2.004682 74.981064 -1.617935
v 2.379413 73.000000 -1.826246
v 2.771282 73.000000 -1.147509
v -0.391869 73.000000 -2.973754
v 0.391869 73.000000 -2.973755
v 0.398832 74.981064 -2.545073
v -0.398833 74.981064 -2.545075
v -11.767062 58.500000 -20.381151
v -12.148550 58.153381 -21.041906
v -14.767062 51.500000 -25.577305
v -14.851450 51.846619 -25.723465
v -20.381151 58.500000 -11.767062
v -21.041906 58.153381 -12.148550
v -25.577305 51.500000 -14.767062
v -25.723465 51.846619 -14.851450
v -23.534126 58.500000 0.000000
v -24.297100 58.153381 0.000000
v -29.534126 51.500000 0.000000
v -29.702900 51.846619 0.000000
v -20.381151 58.500000 11.767062
v -21.041906 58.153381 12.148550
v -25.577305 51.500000 14.767062
v -25.723465 51.846619 14.851450
v -2.771281 73.000000 -1.147509
v -2.379412 73.000000 -1.826247
v -11.767062 58.500000 20.381151
v -12.148550 58.153381 21.041906
v -14.767062 51.500000 25.577305
v -14.851450 51.846619 25.723465
v 0.000000 58.500000 23.534126
v 0.000000 58.153381 24.297100
v 0.000000 51.500000 29.534126
v 0.000000 51.846619 29.702900
v 11.767062 58.500000 20.381151
v 12.148550 58.153381 21.041906
v 14.767062 51.500000 25.577305
v 14.851450 51.846619 25.723465
v 20.381151 58.500000 11.767062
v 21.041906 58.153381 12.148550
v 25.577305 51.500000 14.767062
v 25.723465 51.846619 14.851450
v -0.975403 76.464104 -1.036851
v -1.385639 76.464104 -0.326299
v -1.016106 76.607018 -0.586649
v 23.534126 58.500000 0.000000
v 24.297100 58.153381 0.000000
v 29.534126 51.500000 0.000000
v 29.702900 51.846619 0.000000
v 20.381151 58.500000 -11.767062
v 21.041906 58.153381 -12.148550
v 25.577305 51.500000 -14.767062
v 25.723465 51.846619 -14.851450
v -2.004683 74.981064 -1.617938
v -2.403516 74.981064 -0.927138
v -2.004682 74.981064 1.617935
v -2.403516 74.981064 0.927137
v 11.767062 58.500000 -20.381151
v 12.148550 58.153381 -21.041906
v 14.767062 51.500000 -25.577305
v 14.851450 51.846619 -25.723465
v 0.000000 58.500000 -23.534126
v 0.000000 58.153381 -24.297100
v 0.000000 51.500000 -29.534126
v 0.000000 51.846619 -29.702900
v -1.385641 76.464104 0.326299
v -0.975403 76.464104 1.036849
v -1.016106 76.607018 0.586649
v -2.379413 73.000000 1.826245
v -2.771282 73.000000 1.147508
v -0.410237 76.464104 1.363149
v 0.410236 76.464104 1.363148
v -0.000000 76.607018 1.173298
v 0.410237 76.464104 -1.363149
v -0.410236 76.464104 -1.363148
v 0.000000 76.607018 -1.173298
v -0.398833 74.981064 2.545073
v 0.398832 74.981064 2.545074
vn -0.0000 0.9842 -0.1772
vn -0.0000 1.0000 -0.0000
vn 0.7786 -0.4378 -0.4495
vn 0.8991 -0.4378 -0.0000
vn 0.7786 -0.4378 0.4495
vn 0.4495 -0.4378 0.7786
vn -0.0000 -0.4378 0.8991
vn -0.4495 -0.4378 0.7786
vn -0.7786 -0.4378 0.4495
vn -0.8991 -0.4378 -0.0000
vn -0.0000 0.9312 -0.3645
vn -0.0000 0.5063 -0.8623
vn -0.0000 0.3020 -0.9533
vn -0.9239 -0.0000 -0.3827
vn 0.9153 -0.3468 0.2048
vn -0.0000 -1.0000 -0.0000
vn 0.9153 -0.3468 -0.2048
vn 0.0886 0.9842 -0.1535
vn -0.9153 0.3468 0.2048
vn 0.1822 0.9312 -0.3156
vn 0.2987 0.8019 -0.5174
vn 0.4312 0.5063 -0.7468
vn 0.4767 0.3020 -0.8256
vn -0.9239 -0.0000 0.3827
vn 0.9239 -0.0000 -0.3827
vn -0.9153 0.3468 -0.2048
vn 0.1535 0.9842 -0.0886
vn 0.3156 0.9312 -0.1822
vn 0.5174 0.8019 -0.2987
vn 0.7468 0.5063 -0.4312
vn 0.8256 0.3020 -0.4767
vn -0.7786 -0.4378 -0.4495
vn 0.4495 -0.4378 -0.7786
vn -0.9153 -0.3468 -0.2048
vn 0.1772 0.9842 -0.0000
vn -0.9153 -0.3468 0.2048
vn 0.3645 0.9312 -0.0000
vn 0.5975 0.8019 -0.0000
vn 0.8623 0.5063 -0.0000
vn 0.9533 0.3020 -0.0000
vn 0.3827 -0.0000 -0.9239
vn 0.4798 -0.7345 -0.4798
vn 0.1535 0.9842 0.0886
vn 0.3156 0.9312 0.1822
vn 0.5174 0.8019 0.2987
vn 0.7468 0.5063 0.4312
vn 0.8256 0.3020 0.4767
vn 0.2048 0.3468 0.9153
vn -0.2048 0.3468 0.9153
vn 0.0886 0.9842 0.1535
vn 0.1822 0.9312 0.3156
vn 0.2987 0.8019 0.5174
vn 0.4312 0.5063 0.7468
vn 0.4767 0.3020 0.8256
vn -0.2048 0.3468 -0.9153
vn 0.2048 0.3468 -0.9153
vn -0.2048 -0.3468 0.9153
vn -0.0000 0.9842 0.1772
vn 0.2048 -0.3468 0.9153
vn -0.0000 0.9312 0.3645
vn -0.0000 0.8019 0.5975
vn -0.0000 0.5063 0.8623
vn -0.0000 0.3020 0.9533
vn 0.4798 0.7345 -0.4798
vn 0.9239 -0.0000 0.3827
vn 0.4798 0.7345 0.4798
vn -0.0886 0.9842 0.1535
vn 0.3827 -0.0000 0.9239
vn -0.1822 0.9312 0.3156
vn -0.2987 0.8019 0.5174
vn -0.4312 0.5063 0.7468
vn -0.4767 0.3020 0.8256
vn -0.0000 -0.6795 0.7337
vn 0.7337 0.6795 -0.0000
vn -0.0000 0.6795 0.7337
vn -0.3827 -0.0000 0.9239
vn -0.1535 0.9842 0.0886
vn -0.3156 0.9312 0.1822
vn -0.5174 0.8019 0.2987
vn -0.7468 0.5063 0.4312
vn -0.8256 0.3020 0.4766
vn -0.4798 -0.7345 0.4798
vn -0.4798 0.7345 0.4798
vn 0.2048 -0.3468 -0.9153
vn -0.1772 0.9842 -0.0000
vn -0.3645 0.9312 -0.0000
vn -0.5975 0.8019 -0.0000
vn -0.8623 0.5063 -0.0000
vn -0.9533 0.3020 -0.0000
vn -0.7337 -0.6795 -0.0000
vn -0.7337 0.6795 -0.0000
vn -0.3827 -0.0000 -0.9239
vn -0.1535 0.9842 -0.0886
vn -0.3156 0.9312 -0.1822
vn -0.5174 0.8019 -0.2987
vn -0.7468 0.5063 -0.4312
vn -0.8256 0.3020 -0.4767
vn -0.4798 -0.7345 -0.4798
vn 0.4798 -0.7345 0.4798
vn 0.7337 -0.6795 -0.0000
vn -0.0886 0.9842 -0.1535
vn -0.1822 0.9312 -0.3156
vn -0.2987 0.8019 -0.5174
vn -0.4312 0.5063 -0.7468
vn -0.4766 0.3020 -0.8256
vn -0.0000 -0.6795 -0.7337
vn -0.4798 0.7345 -0.4798
vn -0.0000 0.6795 -0.7337
vn 0.9153 0.3468 -0.2048
vn -0.2048 -0.3468 -0.9153
vn -0.0000 0.8019 -0.5975
vn -0.0000 -0.4378 -0.8991
vn -0.4495 -0.4378 -0.7786
vn 0.9153 0.3468 0.2048
vn 0.2447 0.2042 0.9478
vn -0.2447 0.2042 0.9478
vn 0.9432 0.2042 0.2620
vn 0.6985 0.2042 0.6859
vn 0.6493 0.4046 0.6440
vn 0.8823 0.4046 0.2403
vn 0.4286 0.7663 0.4786
vn 0.6288 0.7663 0.1319
vn 0.3627 0.9080 0.2094
vn 0.6288 0.7663 -0.1319
vn 0.4286 0.7663 -0.4786
vn 0.3628 0.9080 -0.2094
vn 0.8823 0.4046 -0.2403
vn 0.6493 0.4046 -0.6440
vn 0.6985 0.2042 -0.6859
vn 0.9432 0.2042 -0.2620
vn -0.2447 0.2042 -0.9478
vn 0.2447 0.2042 -0.9478
vn 0.2330 0.4046 -0.8843
vn -0.2330 0.4046 -0.8843
vn -0.1224 0.9696 -0.2120
vn -0.3113 0.7825 -0.5392
vn -0.3796 0.6508 -0.6575
vn -0.2120 0.9696 -0.1224
vn -0.5392 0.7825 -0.3113
vn -0.6575 0.6508 -0.3796
vn -0.2447 0.9696 -0.0000
vn -0.6226 0.7825 -0.0000
vn -0.7593 0.6508 -0.0000
vn -0.2119 0.9696 0.1224
vn -0.5392 0.7825 0.3113
vn -0.6575 0.6508 0.3796
vn -0.9432 0.2042 -0.2620
vn -0.6985 0.2042 -0.6859
vn -0.1224 0.9696 0.2120
vn -0.3113 0.7825 0.5392
vn -0.3796 0.6508 0.6575
vn -0.0000 0.9696 0.2447
vn -0.0000 0.7825 0.6226
vn -0.0000 0.6508 0.7593
vn 0.1224 0.9696 0.2120
vn 0.3113 0.7825 0.5392
vn 0.3796 0.6508 0.6575
vn 0.2120 0.9696 0.1224
vn 0.5392 0.7825 0.3113
vn 0.6575 0.6508 0.3796
vn -0.4286 0.7663 -0.4786
vn -0.6288 0.7663 -0.1319
vn -0.3628 0.9080 -0.2094
vn 0.2447 0.9696 -0.0000
vn 0.6226 0.7825 -0.0000
vn 0.7593 0.6508 -0.0000
vn 0.2119 0.9696 -0.1224
vn 0.5392 0.7825 -0.3113
vn 0.6575 0.6508 -0.3796
vn -0.6493 0.4046 -0.6440
vn -0.8823 0.4046 -0.2403
vn -0.6493 0.4046 0.6440
vn -0.8824 0.4046 0.2403
vn 0.1224 0.9696 -0.2120
vn 0.3113 0.7825 -0.5392
vn 0.3796 0.6508 -0.6575
vn -0.0000 0.9696 -0.2447
vn -0.0000 0.7825 -0.6226
vn -0.0000 0.6508 -0.7593
vn -0.6288 0.7663 0.1319
vn -0.4286 0.7663 0.4786
vn -0.3627 0.9080 0.2094
vn -0.6985 0.2042 0.6859
vn -0.9432 0.2042 0.2620
vn -0.2002 0.7663 0.6105
vn 0.2002 0.7663 0.6105
vn -0.0000 0.9080 0.4189
vn 0.2002 0.7663 -0.6105
vn -0.2002 0.7663 -0.6105
vn -0.0000 0.9080 -0.4189
vn -0.2330 0.4046 0.8843
vn 0.2330 0.4046 0.8843
vt -0.069282 -0.016315
vt -0.048770 -0.051842
vt -0.050805 -0.029332
vt 0.091390 0.020787
vt 0.053490 0.053490
vt 0.075646 0.000000
vt 0.440839 0.763555
vt 1.050944 0.606763
vt 0.606763 1.050944
vt -0.020787 0.022500
vt 0.020787 3.077500
vt -0.020787 3.077500
vt 0.000000 3.100000
vt -0.020787 -0.091390
vt -0.053490 -0.053490
vt -0.000000 -0.075646
vt 0.231763 0.401425
vt 0.000000 0.000000
vt 0.401425 0.231763
vt 0.091390 -0.020787
vt 0.053490 -0.053490
vt 0.070711 -0.070711
vt 0.000000 3.131763
vt 0.750000 2.900000
vt 0.000000 2.900000
vt 0.000000 1.213525
vt 0.713292 1.235459
vt 0.000000 1.426585
vt 0.000000 0.881678
vt 0.000000 0.463525
vt 0.020787 -0.091390
vt 0.020787 0.091390
vt 0.070711 0.070711
vt 0.763555 0.440839
vt -0.000000 3.100000
vt 1.235459 0.713292
vt 1.299038 2.900000
vt 0.713292 3.131763
vt -0.020512 -0.068157
vt 0.020512 -0.068157
vt -0.000000 -0.058665
vt 0.463525 -0.000000
vt 1.213525 0.000000
vt 0.881678 0.000000
vt 1.426585 -0.000000
vt 1.050944 -0.606763
vt 1.235459 -0.713292
vt -0.000000 0.000000
vt 0.020787 0.022500
vt -0.000000 3.131763
vt -0.750000 2.900000
vt 0.401425 -0.231763
vt 0.763555 -0.440839
vt 0.231763 -0.401425
vt 0.440839 -0.763555
vt 0.606763 -1.050944
vt 0.713292 -1.235459
vt 0.713292 3.131763
vt 0.000000 -1.213525
vt 0.000000 -0.881678
vt -0.000000 -1.426584
vt 0.020787 0.022500
vt -0.020787 0.022500
vt -0.000000 -0.463525
vt 0.069282 0.016315
vt 0.048770 0.051842
vt 0.050805 0.029332
vt -0.606763 -1.050944
vt -0.440839 -0.763555
vt 0.020787 0.091390
vt 0.000000 0.075646
vt -0.713292 -1.235458
vt -0.048770 0.051843
vt -0.069282 0.016315
vt -0.050805 0.029332
vt -0.231763 -0.401425
vt -1.235458 3.131763
vt -1.299038 2.900000
vt -0.401425 -0.231763
vt -1.050944 -0.606763
vt -0.763555 -0.440839
vt -1.235459 -0.713292
vt 0.020512 0.068157
vt -0.020512 0.068157
vt 0.000000 0.058665
vt -0.713292 3.131763
vt -0.463525 0.000000
vt -1.213525 0.000000
vt -0.881678 0.000000
vt -1.426584 0.000000
vt 0.091390 0.020787
vt -1.235458 0.713292
vt 0.048770 -0.051843
vt 0.069282 -0.016315
vt 0.050805 -0.029332
vt 0.000000 3.131763
vt -0.401425 0.231763
vt 0.000000 0.000000
vt -1.050944 0.606763
vt -0.763555 0.440839
vt -0.606763 1.050944
vt -0.440839 0.763555
vt -0.713292 1.235459
vt 0.713292 3.131763
vt -0.231763 0.401425
vt -0.020787 -0.091390
vt -0.070711 -0.070711
vt 0.020787 -0.091390
vt 0.000000 -0.075646
vt -0.016315 3.823205
vt -0.080897 3.749053
vt -0.051842 3.823205
vt 0.091390 -0.020787
vt 0.075646 -0.000000
vt -0.091390 -0.020787
vt -0.091390 -0.020787
vt -0.075646 -0.000000
vt -0.091390 0.020787
vt -0.053490 0.053490
vt -0.075646 0.000000
vt -0.091390 0.020787
vt -0.070711 0.070711
vt -0.020787 0.091390
vt -0.020787 0.091390
vt -0.000000 0.075646
vt -0.046357 3.749053
vt -0.091312 3.650000
vt -0.019593 3.650000
vt 0.019942 3.749053
vt -0.019942 3.749053
vt 0.020512 3.823205
vt -0.020512 3.823205
vt 0.000000 2.592331
vt -0.738353 2.575000
vt -0.742572 2.592331
vt -1.052095 0.607427
vt -0.588353 1.019058
vt -0.607427 1.052095
vt 0.019942 3.749053
vt -0.020512 3.823205
vt 0.020512 3.823205
vt 0.000000 1.176706
vt 0.000000 1.214855
vt 1.286173 2.592331
vt 0.738353 2.575000
vt 0.742572 2.592331
vt 0.019593 3.650000
vt -0.019942 3.749053
vt -1.214855 0.000000
vt -1.019058 0.588353
vt 0.000000 2.575000
vt -1.052095 -0.607427
vt -1.176706 0.000000
vt 0.000000 -1.214855
vt -0.588353 -1.019058
vt -0.607427 -1.052095
vt -1.019058 -0.588353
vt -1.278865 2.575000
vt -1.286173 2.592331
vt 1.052095 -0.607427
vt 0.588353 -1.019058
vt 0.607427 -1.052095
vt 0.000000 -1.176706
vt 1.214855 0.000000
vt 1.019058 -0.588353
vt 1.052095 0.607427
vt 1.176706 0.000000
vt 0.016315 3.823205
vt 0.080897 3.749053
vt 0.051842 3.823205
vt -0.080897 3.749053
vt -0.016315 3.823205
vt -0.051843 3.823205
vt 0.057375 3.650000
vt 0.046357 3.749053
vt 0.588353 1.019058
vt 0.607427 1.052095
vt -0.057375 3.650000
vt -0.046357 3.749053
vt 1.278865 2.575000
vt 1.019058 0.588353
vt 0.080897 3.749053
vt 0.057375 3.650000
vt 0.046357 3.749053
vt 0.051843 3.823205
vt 0.016315 3.823205
vt 0.070711 0.022500
vt -0.070711 3.077500
vt -0.070711 0.022500
vt 0.070711 3.077500
vt -0.118971 3.650000
vt 0.100234 3.749053
vt 0.019593 3.650000
vt 0.118971 3.650000
vt 0.048770 3.823205
vt -0.100234 3.749053
vt -0.019593 3.650000
vt -0.118971 3.650000
vt -0.048770 3.823205
vt -0.742572 1.286173
vt -1.286173 0.742572
vt -0.607427 2.907669
vt 1.278865 0.738353
vt 0.000000 -1.476706
vt -1.278865 0.738353
vt 0.000000 2.907669
vt -1.286173 -0.742572
vt -0.742572 -1.286173
vt -0.057375 3.650000
vt 0.607427 2.907669
vt 0.742572 -1.286173
vt 1.286173 -0.742572
vt 1.286173 0.742572
vt 0.742572 1.286173
vt -0.100234 3.749053
vt 1.235459 3.131763
vt -0.713292 3.131763
vt -0.713292 3.131763
vt 0.091312 3.650000
vt -0.091312 3.650000
vt 0.091312 3.650000
vt 0.048770 3.823205
vt -0.738353 1.278865
vt 0.000000 1.476706
vt 0.738353 1.278865
vt 1.476706 0.000000
vt 1.278865 -0.738353
vt 0.738353 -1.278865
vt -0.738353 -1.278865
vt -1.278865 -0.738353
vt -1.476706 0.000000
vt -0.048770 3.823205
s 1
f 236/1/180 237/2/181 238/3/182
f 148/4/109 88/5/64 99/6/74
f 28/7/20 40/8/29 29/9/21
f 80/10/57 68/11/48 69/12/49
f 99/13/74 154/12/114 148/11/109
f 80/14/57 110/15/82 98/16/73
f 26/17/18 2/18/2 37/19/27
f 154/20/114 100/21/66 90/22/66
f 19/23/12 31/24/23 20/25/13
f 150/26/111 30/27/22 19/28/12
f 17/29/11 29/9/21 150/26/111
f 1/30/1 28/7/20 17/29/11
f 82/31/59 135/21/99 133/22/99
f 77/32/56 88/5/64 87/33/64
f 1/30/1 2/18/2 26/17/18
f 26/17/18 39/34/28 28/7/20
f 145/35/108 77/11/56 76/12/55
f 29/9/21 41/36/30 30/27/22
f 31/37/23 41/38/30 42/24/31
f 241/39/185 242/40/186 243/41/187
f 41/38/30 53/25/40 42/24/31
f 37/19/27 2/18/2 48/42/35
f 39/34/28 51/43/38 40/8/29
f 37/19/27 50/44/37 39/34/28
f 41/36/30 51/43/38 52/45/39
f 52/45/39 62/46/45 63/47/46
f 98/48/73 82/49/59 80/10/57
f 52/50/39 64/51/47 53/25/40
f 48/42/35 2/18/2 59/52/43
f 50/44/37 62/46/45 51/43/38
f 48/42/35 61/53/44 50/44/37
f 61/53/44 70/54/50 72/55/51
f 63/47/46 73/56/52 74/57/53
f 64/37/47 74/58/53 75/24/54
f 59/52/43 2/18/2 70/54/50
f 134/48/100 25/49/17 23/10/15
f 61/53/44 73/56/52 62/46/45
f 72/55/51 84/59/61 73/56/52
f 70/54/50 83/60/60 72/55/51
f 101/13/75 69/12/49 68/11/48
f 73/56/52 85/61/62 74/57/53
f 76/12/55 113/62/84 149/63/110
f 74/58/53 86/25/63 75/24/54
f 70/54/50 2/18/2 81/64/58
f 168/65/124 169/66/125 170/67/126
f 83/60/60 95/68/70 84/59/61
f 81/64/58 94/69/69 83/60/60
f 113/70/84 57/5/42 142/71/106
f 84/59/61 96/72/71 85/61/62
f 213/73/161 214/74/162 215/75/163
f 85/50/62 97/51/72 86/25/63
f 81/64/58 2/18/2 92/76/67
f 96/77/71 108/51/81 97/78/72
f 92/76/67 2/18/2 103/79/77
f 94/69/69 106/80/79 95/68/70
f 94/69/69 103/79/77 105/81/78
f 95/68/70 107/82/80 96/72/71
f 244/83/188 245/84/189 246/85/190
f 107/86/80 119/25/89 108/51/81
f 103/79/77 2/18/2 114/87/85
f 105/81/78 117/88/87 106/80/79
f 103/79/77 116/89/86 105/81/78
f 107/82/80 117/88/87 118/90/88
f 25/91/17 57/5/42 56/33/42
f 117/88/87 129/92/96 118/90/88
f 165/93/121 166/94/122 167/95/123
f 118/96/88 130/24/97 119/25/89
f 114/87/85 2/18/2 125/97/93
f 142/98/106 149/63/110 113/62/84
f 121/98/90 49/63/36 47/62/34
f 116/89/86 128/99/95 117/88/87
f 114/87/85 127/100/94 116/89/86
f 127/100/94 139/101/103 128/99/95
f 125/97/93 138/102/102 127/100/94
f 129/92/96 139/101/103 140/103/104
f 123/35/91 36/11/26 27/12/19
f 129/104/96 141/37/105 130/24/97
f 125/97/93 2/18/2 136/105/101
f 69/106/49 120/15/83 112/107/83
f 138/102/102 150/26/111 139/101/103
f 136/105/101 17/29/11 138/102/102
f 68/108/48 100/21/66 101/109/75
f 140/103/104 150/26/111 19/28/12
f 236/110/180 226/111/172 237/112/181
f 23/113/15 135/21/99 134/114/100
f 140/86/104 20/25/13 141/51/105
f 136/105/101 2/18/2 1/30/1
f 23/10/15 148/11/109 154/12/114
f 49/115/36 110/15/82 109/107/82
f 27/116/19 120/15/83 123/117/91
f 47/62/34 27/12/19 36/11/26
f 47/118/34 137/119/98 121/120/90
f 36/121/26 147/119/107 144/122/107
f 149/123/110 137/119/98 131/122/98
f 76/124/55 147/119/107 145/125/108
f 227/126/173 239/127/183 226/111/172
f 160/128/116 248/129/192 247/130/191
f 247/130/191 242/131/186 241/132/185
f 152/133/112 156/134/113 153/135/113
f 184/136/139 179/137/135 180/138/136
f 177/139/133 245/140/189 244/141/188
f 180/138/136 232/142/177 233/143/178
f 153/144/113 122/145/32 43/146/32
f 176/147/132 178/148/134 177/139/133
f 16/133/10 15/134/9 21/135/9
f 188/149/142 183/150/138 184/136/139
f 43/146/32 78/151/10 16/133/10
f 192/152/145 187/153/141 188/149/142
f 202/154/153 197/155/149 198/156/150
f 13/135/8 11/151/7 14/133/7
f 198/156/150 191/157/144 192/152/145
f 21/135/9 12/158/8 13/159/8
f 14/133/7 9/145/6 10/146/6
f 210/160/159 205/161/155 206/162/156
f 10/159/6 7/134/5 8/135/5
f 206/162/156 201/163/152 202/154/153
f 217/164/165 209/165/158 210/160/159
f 221/166/168 216/167/164 217/164/165
f 168/168/124 172/169/128 169/170/125
f 163/171/119 166/172/122 165/173/121
f 8/135/5 5/151/4 6/133/4
f 6/133/4 3/145/3 4/146/3
f 174/174/130 172/169/128 171/175/127
f 233/143/178 228/176/174 229/177/175
f 163/171/119 161/178/117 164/179/120
f 4/146/3 44/180/33 46/144/33
f 229/177/175 220/181/167 221/166/168
f 46/146/33 157/151/112 152/133/112
f 224/182/170 195/183/147 225/184/171
f 213/185/161 225/184/171 214/186/162
f 146/21/16 67/15/16 24/119/16
f 77/11/56 54/187/41 113/62/84
f 143/188/92 149/63/110 124/189/92
f 38/117/2 71/109/2 155/6/2
f 34/190/25 25/49/17 65/187/25
f 154/12/114 132/189/65 23/10/15
f 93/190/68 82/49/59 126/187/68
f 69/12/49 102/189/76 80/10/57
f 33/188/24 49/63/36 60/189/24
f 36/11/26 22/187/14 47/62/34
f 247/130/191 239/191/183 160/128/116
f 163/192/119 159/193/115 162/194/118
f 171/175/127 161/178/117 174/174/130
f 165/195/121 248/129/192 163/192/119
f 168/168/124 164/179/120 171/175/127
f 170/67/126 167/95/123 166/94/122
f 167/95/123 243/41/187 242/40/186
f 244/141/188 172/192/128 177/139/133
f 246/85/190 170/67/126 169/66/125
f 177/139/133 173/194/129 176/147/132
f 224/196/170 175/197/131 196/198/148
f 213/199/161 178/148/134 224/196/170
f 187/153/141 205/161/155 228/176/174
f 184/136/139 182/200/137 186/201/140
f 180/202/136 235/133/179 182/135/137
f 222/203/16 203/204/16 185/205/16
f 188/206/142 186/146/140 190/133/143
f 192/202/145 190/133/143 194/135/146
f 198/156/150 194/207/146 200/208/151
f 227/126/173 195/183/147 240/209/184
f 202/206/153 200/135/151 204/133/154
f 206/210/156 204/133/154 208/146/157
f 210/160/159 208/211/157 212/212/160
f 217/206/165 212/135/160 219/133/166
f 215/75/163 246/85/190 245/84/189
f 227/126/173 214/186/162 225/184/171
f 238/3/182 215/75/163 214/74/162
f 221/210/168 219/133/166 223/146/169
f 229/177/175 223/213/169 231/214/176
f 241/132/185 226/215/172 247/130/191
f 233/206/178 231/146/176 235/133/179
f 243/41/187 238/3/182 237/2/181
f 148/4/109 87/33/64 88/5/64
f 28/7/20 39/34/28 40/8/29
f 80/10/57 82/49/59 68/11/48
f 80/14/57 109/107/82 110/15/82
f 154/20/114 99/6/74 100/21/66
f 19/23/12 30/104/22 31/24/23
f 150/26/111 29/9/21 30/27/22
f 17/29/11 28/7/20 29/9/21
f 1/30/1 26/17/18 28/7/20
f 82/31/59 98/16/73 135/21/99
f 77/32/56 145/125/108 88/5/64
f 26/17/18 37/19/27 39/34/28
f 29/9/21 40/8/29 41/36/30
f 31/37/23 30/216/22 41/38/30
f 41/38/30 52/50/39 53/25/40
f 39/34/28 50/44/37 51/43/38
f 37/19/27 48/42/35 50/44/37
f 41/36/30 40/8/29 51/43/38
f 52/45/39 51/43/38 62/46/45
f 52/50/39 63/217/46 64/51/47
f 50/44/37 61/53/44 62/46/45
f 48/42/35 59/52/43 61/53/44
f 61/53/44 59/52/43 70/54/50
f 63/47/46 62/46/45 73/56/52
f 64/37/47 63/216/46 74/58/53
f 61/53/44 72/55/51 73/56/52
f 72/55/51 83/60/60 84/59/61
f 70/54/50 81/64/58 83/60/60
f 73/56/52 84/59/61 85/61/62
f 76/12/55 77/11/56 113/62/84
f 74/58/53 85/50/62 86/25/63
f 83/60/60 94/69/69 95/68/70
f 81/64/58 92/76/67 94/69/69
f 113/70/84 56/33/42 57/5/42
f 84/59/61 95/68/70 96/72/71
f 85/50/62 96/218/71 97/51/72
f 96/77/71 107/86/80 108/51/81
f 94/69/69 105/81/78 106/80/79
f 94/69/69 92/76/67 103/79/77
f 95/68/70 106/80/79 107/82/80
f 107/86/80 118/96/88 119/25/89
f 105/81/78 116/89/86 117/88/87
f 103/79/77 114/87/85 116/89/86
f 107/82/80 106/80/79 117/88/87
f 25/91/17 134/114/100 57/5/42
f 117/88/87 128/99/95 129/92/96
f 118/96/88 129/104/96 130/24/97
f 116/89/86 127/100/94 128/99/95
f 114/87/85 125/97/93 127/100/94
f 127/100/94 138/102/102 139/101/103
f 125/97/93 136/105/101 138/102/102
f 129/92/96 128/99/95 139/101/103
f 129/104/96 140/216/104 141/37/105
f 69/106/49 101/109/75 120/15/83
f 138/102/102 17/29/11 150/26/111
f 136/105/101 1/30/1 17/29/11
f 68/108/48 90/22/66 100/21/66
f 140/103/104 139/101/103 150/26/111
f 236/110/180 227/126/173 226/111/172
f 23/113/15 133/22/99 135/21/99
f 140/86/104 19/23/12 20/25/13
f 23/10/15 25/49/17 148/11/109
f 49/115/36 121/120/90 110/15/82
f 27/116/19 112/107/83 120/15/83
f 47/62/34 49/63/36 27/12/19
f 47/118/34 131/122/98 137/119/98
f 36/121/26 123/117/91 147/119/107
f 149/123/110 142/71/106 137/119/98
f 76/124/55 144/122/107 147/119/107
f 227/126/173 240/209/184 239/127/183
f 160/128/116 159/193/115 248/129/192
f 247/130/191 248/129/192 242/131/186
f 152/133/112 157/151/112 156/134/113
f 184/136/139 183/150/138 179/137/135
f 177/139/133 178/148/134 245/140/189
f 180/138/136 179/137/135 232/142/177
f 153/144/113 156/180/113 122/145/32
f 176/147/132 175/197/131 178/148/134
f 16/133/10 78/151/10 15/134/9
f 188/149/142 187/153/141 183/150/138
f 43/146/32 122/145/32 78/151/10
f 192/152/145 191/157/144 187/153/141
f 202/154/153 201/163/152 197/155/149
f 13/135/8 12/134/8 11/151/7
f 198/156/150 197/155/149 191/157/144
f 21/135/9 15/134/9 12/158/8
f 14/133/7 11/151/7 9/145/6
f 210/160/159 209/165/158 205/161/155
f 10/159/6 9/158/6 7/134/5
f 206/162/156 205/161/155 201/163/152
f 217/164/165 216/167/164 209/165/158
f 221/166/168 220/181/167 216/167/164
f 168/168/124 171/175/127 172/169/128
f 163/171/119 164/179/120 166/172/122
f 8/135/5 7/134/5 5/151/4
f 6/133/4 5/151/4 3/145/3
f 174/174/130 173/219/129 172/169/128
f 233/143/178 232/142/177 228/176/174
f 163/171/119 162/220/118 161/178/117
f 4/146/3 3/145/3 44/180/33
f 229/177/175 228/176/174 220/181/167
f 46/146/33 44/145/33 157/151/112
f 224/182/170 196/221/148 195/183/147
f 213/185/161 224/182/170 225/184/171
f 24/119/16 151/71/16 66/5/16
f 66/5/16 32/114/16 146/21/16
f 146/21/16 91/16/16 67/15/16
f 67/15/16 58/120/16 24/119/16
f 24/119/16 66/5/16 146/21/16
f 77/11/56 79/190/41 54/187/41
f 143/188/92 76/12/55 149/63/110
f 155/6/2 35/5/2 104/125/2
f 104/125/2 18/119/2 38/117/2
f 38/117/2 55/15/2 71/109/2
f 71/109/2 115/21/2 155/6/2
f 155/6/2 104/125/2 38/117/2
f 34/190/25 148/11/109 25/49/17
f 154/12/114 89/188/65 132/189/65
f 93/190/68 68/11/48 82/49/59
f 69/12/49 111/188/76 102/189/76
f 33/188/24 27/12/19 49/63/36
f 36/11/26 158/190/14 22/187/14
f 247/130/191 226/215/172 239/191/183
f 163/192/119 248/129/192 159/193/115
f 171/175/127 164/179/120 161/178/117
f 165/195/121 242/131/186 248/129/192
f 168/168/124 166/172/122 164/179/120
f 166/94/122 168/65/124 170/67/126
f 170/67/126 45/18/2 167/95/123
f 242/40/186 165/93/121 167/95/123
f 167/95/123 45/18/2 243/41/187
f 244/141/188 169/222/125 172/192/128
f 169/66/125 244/83/188 246/85/190
f 246/85/190 45/18/2 170/67/126
f 177/139/133 172/192/128 173/194/129
f 224/196/170 178/148/134 175/197/131
f 213/199/161 245/140/189 178/148/134
f 228/176/174 232/142/177 179/137/135
f 179/137/135 183/150/138 187/153/141
f 187/153/141 191/157/144 197/155/149
f 197/155/149 201/163/152 205/161/155
f 205/161/155 209/165/158 216/167/164
f 216/167/164 220/181/167 228/176/174
f 228/176/174 179/137/135 187/153/141
f 187/153/141 197/155/149 205/161/155
f 205/161/155 216/167/164 228/176/174
f 184/136/139 180/138/136 182/200/137
f 180/202/136 233/206/178 235/133/179
f 185/205/16 181/223/16 234/224/16
f 234/224/16 230/225/16 222/203/16
f 222/203/16 218/226/16 211/227/16
f 211/227/16 207/228/16 203/204/16
f 203/204/16 199/229/16 193/230/16
f 193/230/16 189/231/16 185/205/16
f 185/205/16 234/224/16 222/203/16
f 222/203/16 211/227/16 203/204/16
f 203/204/16 193/230/16 185/205/16
f 188/206/142 184/210/139 186/146/140
f 192/202/145 188/206/142 190/133/143
f 198/156/150 192/152/145 194/207/146
f 227/126/173 225/184/171 195/183/147
f 202/206/153 198/202/150 200/135/151
f 206/210/156 202/206/153 204/133/154
f 210/160/159 206/162/156 208/211/157
f 217/206/165 210/202/159 212/135/160
f 245/84/189 213/73/161 215/75/163
f 215/75/163 45/18/2 246/85/190
f 227/126/173 236/110/180 214/186/162
f 214/74/162 236/1/180 238/3/182
f 238/3/182 45/18/2 215/75/163
f 221/210/168 217/206/165 219/133/166
f 229/177/175 221/166/168 223/213/169
f 241/132/185 237/232/181 226/215/172
f 233/206/178 229/210/175 231/146/176
f 237/2/181 241/39/185 243/41/187
f 243/41/187 45/18/2 238/3/182
