# Blender 5.2.0 LTS
# www.blender.org
o Backdrop_WaterTower
v -10.162674 43.555847 17.602268
v 0.000000 83.000000 0.000000
v 0.000000 47.000000 -22.000000
v 0.000000 73.000000 -22.000000
v 11.000000 47.000000 -19.052559
v 11.000000 73.000000 -19.052559
v 19.052559 47.000000 -11.000000
v 19.052559 73.000000 -11.000000
v 22.000000 47.000000 0.000000
v 22.000000 73.000000 0.000000
v 19.052559 47.000000 11.000000
v 19.052559 73.000000 11.000000
v 11.000000 47.000000 19.052559
v 11.000000 73.000000 19.052559
v 0.000000 47.000000 22.000000
v 0.000000 73.000000 22.000000
v -11.000000 47.000000 19.052559
v -11.000000 73.000000 19.052559
v -19.052559 47.000000 11.000000
v -19.052559 73.000000 11.000000
v -22.000000 47.000000 0.000000
v -22.000000 73.000000 0.000000
v -19.052559 47.000000 -11.000000
v -19.052559 73.000000 -11.000000
v -11.000000 47.000000 -19.052559
v -11.000000 73.000000 -19.052559
v 0.000000 80.071068 -15.556349
v -7.778175 40.636040 13.472190
v -13.656187 48.954609 15.671439
v -4.209517 38.685085 7.291099
v 0.000000 38.000000 0.000000
v 5.875967 -1.408466 7.205596
v -5.541763 -0.954609 -7.557020
v 4.209518 82.238792 -7.291099
v -5.875965 -1.408466 -7.205600
v 7.778174 80.071068 -13.472193
v 10.162675 76.826836 -17.602268
v -14.405532 48.892521 15.466189
v -11.298438 49.492706 -13.313691
v 11.734028 49.927353 13.063663
v 7.205601 -1.408466 5.875964
v -11.503687 49.554794 -12.564346
v 7.291099 82.238792 -4.209517
v 0.000000 38.685085 8.419035
v 13.472193 80.071068 -7.778174
v 17.602268 76.826836 -10.162674
v -14.007607 49.408466 15.337236
v 12.205999 49.667908 -14.865266
v -9.914765 -1.492706 7.899513
v 20.325348 43.555847 0.000001
v -0.000001 40.636040 15.556348
v 8.419035 82.238792 0.000000
v 0.000000 43.555847 20.325348
v 15.556348 80.071068 0.000001
v 20.325348 76.826836 0.000001
v -9.709517 -1.554794 8.648857
v 15.556348 40.636040 0.000001
v 8.419035 38.685085 0.000000
v -11.734029 49.927353 -13.063661
v -9.479175 -1.927353 8.149543
v 7.291099 82.238792 4.209518
v -15.337238 49.408466 -14.007604
v 13.472192 80.071068 7.778174
v 17.602268 76.826836 10.162675
v -15.466191 48.892521 14.405529
v -7.557017 -0.954609 -5.541765
v 7.291099 38.685085 -4.209517
v 13.472193 40.636040 -7.778174
v 14.007605 49.408466 -15.337237
v 4.209517 82.238792 7.291099
v 8.149543 -1.927353 -9.479175
v 7.778172 80.071068 13.472193
v 10.162674 76.826836 17.602268
v -15.671440 48.954609 13.656184
v 17.602268 43.555847 -10.162674
v -15.337238 49.408466 14.007604
v 9.479175 -1.927353 -8.149543
v 15.337235 49.408466 14.007607
v 0.000000 82.238792 8.419035
v -8.149542 -1.927353 -9.479176
v -0.000001 80.071068 15.556348
v 0.000000 76.826836 20.325348
v -8.994173 -1.161569 5.918261
v -14.865267 49.667908 -12.205998
v -6.347937 -1.667910 -9.007205
v -6.807672 -0.892521 -5.747015
v -5.875965 -1.408466 -7.205600
v -4.209517 82.238792 7.291099
v -9.538269 -1.285745 6.462356
v -7.778175 80.071068 13.472190
v -10.162674 76.826836 17.602268
v -9.007202 -1.667910 6.347938
v -7.205598 -1.408466 -5.875967
v -13.063661 49.927353 11.734028
v -9.007202 -1.667910 6.347938
v 10.162674 43.555847 17.602268
v -7.291099 82.238792 4.209518
v 7.778172 40.636040 13.472193
v -13.472193 80.071068 7.778171
v -17.602268 76.826836 10.162675
v -15.294944 49.161568 12.219028
v -7.205598 -1.408466 5.875967
v -14.750849 49.285744 11.674932
v 10.162675 43.555847 -17.602268
v 4.209517 38.685085 7.291099
v -8.419036 82.238792 0.000000
v -12.564346 49.554794 -11.503686
v -15.556348 80.071068 -0.000003
v -20.325350 76.826836 0.000001
v -14.865267 49.667908 12.205998
v 7.778174 40.636040 -13.472193
v 4.209518 38.685085 -7.291099
v -13.313691 49.492706 -11.298436
v -13.063661 49.927353 -11.734028
v -7.291099 82.238792 -4.209517
v -6.462356 -1.285745 9.538271
v -13.472190 80.071068 -7.778176
v -17.602268 76.826836 -10.162674
v -6.807672 -0.892521 5.747015
v -5.918260 -1.161569 8.994176
v -6.347937 -1.667910 9.007205
v 0.000000 40.636040 -15.556349
v 7.291099 38.685085 4.209518
v -4.209518 82.238792 -7.291099
v 13.472192 40.636040 7.778174
v -7.778171 80.071068 -13.472193
v -10.162675 76.826836 -17.602268
v -7.557017 -0.954609 5.541765
v -11.674934 49.285744 14.750848
v -7.205598 -1.408466 5.875967
v -12.219030 49.161568 15.294943
v 17.602268 43.555847 10.162675
v -0.000000 82.238792 -8.419036
v -13.313691 49.492706 11.298436
v -7.205598 -1.408466 -5.875967
v -0.000001 76.826836 -20.325350
v 6.347938 -1.667910 -9.007203
v -13.063661 49.927353 -11.734028
v -11.734029 49.927353 -13.063661
v -12.206001 49.667908 14.865266
v -14.007607 49.408466 15.337236
v -12.564346 49.554794 11.503686
v -14.865267 49.667908 12.205998
v -15.337238 49.408466 14.007604
v -12.206001 49.667908 14.865266
v -17.602268 43.555847 10.162675
v -13.472193 40.636040 7.778171
v -7.291099 38.685085 4.209518
v -8.648857 -1.554794 9.709517
v -11.734029 49.927353 13.063661
v -13.063661 49.927353 11.734028
v 14.865265 49.667908 12.206002
v 13.063661 49.927353 11.734030
v 9.007206 -1.667910 6.347936
v -20.325350 43.555847 0.000001
v -15.556348 40.636040 -0.000003
v -8.419036 38.685085 0.000000
v 9.479176 -1.927353 8.149541
v 8.149543 -1.927353 9.479174
v -5.541763 -0.954609 7.557020
v 6.347938 -1.667910 9.007201
v 12.205998 49.667908 14.865268
v 14.007603 49.408466 15.337239
v -17.602268 43.555847 -10.162674
v -13.472190 40.636040 -7.778176
v -7.291099 38.685085 -4.209517
v -5.875965 -1.408466 7.205600
v -12.206001 49.667908 -14.865266
v -5.747013 -0.892521 6.807675
v -14.007606 49.408466 -15.337236
v 9.007204 -1.667910 -6.347938
v -6.347937 -1.667910 9.007205
v -10.162675 43.555847 -17.602268
v -7.778171 40.636040 -13.472193
v -4.209518 38.685085 -7.291099
v 11.734029 49.927353 -13.063661
v 13.063661 49.927353 -11.734029
v -5.875965 -1.408466 7.205600
v 7.205599 -1.408466 -5.875966
v 5.875966 -1.408466 -7.205598
v -7.899512 -1.492706 9.914767
v -0.000001 43.555847 -20.325350
v 14.865266 49.667908 -12.206000
v -0.000000 38.685085 -8.419036
v 15.337237 49.408466 -14.007606
v -8.149542 -1.927353 9.479176
v -9.479175 -1.927353 8.149543
v -8.149542 -1.927353 9.479176
v -9.007202 -1.667910 -6.347938
v -9.479175 -1.927353 -8.149543
v -5.747013 -0.892521 -6.807675
v -12.206001 49.667908 -14.865266
v -11.674935 49.285744 -14.750848
v -12.219030 49.161568 -15.294943
v -6.347937 -1.667910 -9.007205
v -6.462356 -1.285746 -9.538271
v -5.918260 -1.161569 -8.994176
v -14.007606 49.408466 -15.337236
v -13.656187 48.954609 -15.671439
v -14.405532 48.892521 -15.466189
v -8.149542 -1.927353 -9.479176
v -8.648857 -1.554794 -9.709517
v -7.899512 -1.492706 -9.914767
v -15.337238 49.408466 -14.007604
v -15.466191 48.892521 -14.405529
v -15.671441 48.954609 -13.656184
v -9.479175 -1.927353 -8.149543
v -9.914765 -1.492706 -7.899512
v -9.709517 -1.554794 -8.648857
v -14.865267 49.667908 -12.205998
v -15.294944 49.161568 -12.219028
v -14.750849 49.285744 -11.674932
v -9.007202 -1.667910 -6.347938
v -8.994173 -1.161569 -5.918261
v -9.538269 -1.285745 -6.462356
v 11.734029 49.927353 -13.063661
v 11.298437 49.492706 -13.313691
v 11.503687 49.554794 -12.564346
v 13.063661 49.927353 11.734030
v 13.313691 49.492706 11.298439
v 12.564346 49.554794 11.503688
v 5.875966 -1.408466 -7.205598
v 5.747014 -0.892521 -6.807673
v 5.541765 -0.954609 -7.557018
v 13.063661 49.927353 -11.734029
v 12.564346 49.554794 -11.503687
v 13.313691 49.492706 -11.298438
v 7.205599 -1.408466 -5.875966
v 7.557019 -0.954609 -5.541764
v 6.807674 -0.892521 -5.747014
v 7.205601 -1.408466 5.875964
v 6.807676 -0.892521 5.747011
v 7.557021 -0.954609 5.541762
v 11.734028 49.927353 13.063663
v 11.503686 49.554794 12.564347
v 11.298436 49.492706 13.313692
v 14.865266 49.667908 -12.206000
v 14.750848 49.285744 -11.674934
v 15.294943 49.161568 -12.219029
v 9.007204 -1.667910 -6.347938
v 9.538270 -1.285746 -6.462356
v 8.994175 -1.161569 -5.918260
v 15.337237 49.408466 -14.007606
v 15.671439 48.954609 -13.656186
v 15.466190 48.892521 -14.405531
v 5.875967 -1.408466 7.205596
v 5.541765 -0.954609 7.557015
v 5.747015 -0.892521 6.807671
v 12.205998 49.667908 14.865268
v 11.674932 49.285744 14.750850
v 12.219027 49.161568 15.294945
v 9.479175 -1.927353 -8.149543
v 9.709517 -1.554794 -8.648857
v 9.914766 -1.492706 -7.899512
v 14.007605 49.408466 -15.337237
v 14.405530 48.892521 -15.466190
v 13.656185 48.954609 -15.671440
v 8.149543 -1.927353 -9.479175
v 7.899512 -1.492706 -9.914766
v 8.648857 -1.554794 -9.709517
v 6.347938 -1.667910 9.007201
v 6.462356 -1.285746 9.538268
v 5.918261 -1.161569 8.994172
v 14.007603 49.408466 15.337239
v 13.656183 48.954609 15.671442
v 14.405528 48.892521 15.466192
v 12.205999 49.667908 -14.865266
v 12.219028 49.161568 -15.294943
v 11.674933 49.285744 -14.750848
v 6.347938 -1.667910 -9.007203
v 5.918261 -1.161569 -8.994174
v 6.462356 -1.285745 -9.538269
v 8.149543 -1.927353 9.479174
v 8.648857 -1.554794 9.709516
v 7.899513 -1.492706 9.914764
v 15.337235 49.408466 14.007607
v 15.466188 48.892521 14.405534
v 15.671438 48.954609 13.656189
v 9.479176 -1.927353 8.149541
v 9.914767 -1.492706 7.899511
v 9.709517 -1.554794 8.648856
v 14.865265 49.667908 12.206002
v 15.294943 49.161568 12.219031
v 14.750848 49.285744 11.674935
v 9.007206 -1.667910 6.347936
v 8.994177 -1.161569 5.918259
v 9.538272 -1.285746 6.462355
v -11.734029 49.927353 13.063661
v -11.298438 49.492706 13.313691
v -11.503687 49.554794 12.564346
vn 0.3801 0.6498 -0.6583
vn -0.0000 1.0000 -0.0000
vn -0.0000 -0.9431 -0.3325
vn -0.0000 -0.2529 -0.9675
vn 0.1662 -0.9431 -0.2879
vn 0.4837 -0.2530 -0.8379
vn 0.2880 -0.9431 -0.1663
vn 0.8379 -0.2529 -0.4837
vn 0.3325 -0.9431 -0.0000
vn 0.9675 -0.2529 -0.0000
vn 0.2880 -0.9431 0.1662
vn 0.8379 -0.2529 0.4837
vn 0.1663 -0.9431 0.2880
vn 0.4837 -0.2529 0.8379
vn -0.0000 -0.9431 0.3325
vn -0.0000 -0.2529 0.9675
vn -0.1663 -0.9431 0.2880
vn -0.4837 -0.2530 0.8379
vn -0.2880 -0.9431 0.1662
vn -0.8379 -0.2529 0.4837
vn -0.3325 -0.9431 -0.0000
vn -0.9675 -0.2530 -0.0000
vn -0.2879 -0.9431 -0.1663
vn -0.8379 -0.2529 -0.4837
vn -0.1662 -0.9431 -0.2880
vn -0.4837 -0.2530 -0.8379
vn -0.0000 0.8923 -0.4514
vn 0.2081 0.9093 -0.3605
vn -0.0072 0.2326 0.9725
vn 0.0940 0.9822 -0.1628
vn -0.7709 -0.5817 -0.2594
vn 0.9725 -0.2326 0.0072
vn 0.1038 0.9782 -0.1798
vn 0.1127 -0.9872 0.1127
vn 0.2257 0.8923 -0.3909
vn 0.3934 0.6172 -0.6814
vn -0.5220 0.1899 0.8315
vn 0.8959 0.4387 -0.0694
vn -0.6154 0.7814 -0.1038
vn -0.2594 -0.5817 -0.7709
vn 0.7549 0.4814 0.4454
vn 0.1798 0.9782 -0.1038
vn -0.0000 0.9822 -0.1880
vn 0.3909 0.8923 -0.2257
vn 0.6814 0.6172 -0.3934
vn -0.1127 0.9872 0.1127
vn -0.4338 0.6816 -0.5893
vn -0.8959 -0.4387 -0.0694
vn -0.7601 0.6498 -0.0000
vn -0.0000 0.9093 -0.4162
vn 0.2076 0.9782 -0.0000
vn -0.0000 0.6498 -0.7601
vn 0.4514 0.8923 -0.0000
vn 0.7868 0.6172 -0.0000
vn -0.7549 -0.4814 0.4454
vn -0.4162 0.9093 -0.0000
vn -0.1880 0.9822 -0.0000
vn -0.1127 0.9872 -0.1127
vn 0.1127 -0.9872 -0.1127
vn 0.1798 0.9782 0.1038
vn -0.7709 0.5817 -0.2594
vn 0.3909 0.8923 0.2257
vn 0.6814 0.6172 0.3934
vn -0.8315 0.1899 0.5220
vn 0.0072 -0.2326 0.9725
vn -0.1628 0.9822 0.0940
vn -0.3605 0.9093 0.2081
vn 0.2594 0.5817 -0.7709
vn 0.1038 0.9782 0.1798
vn 0.1038 -0.7814 -0.6154
vn 0.2257 0.8923 0.3909
vn 0.3934 0.6172 0.6814
vn -0.9725 0.2326 0.0072
vn -0.6583 0.6498 0.3801
vn 0.6154 -0.7814 -0.1038
vn 0.7709 0.5817 0.2594
vn -0.0000 0.9782 0.2076
vn -0.1038 -0.7814 -0.6154
vn -0.0000 0.8923 0.4514
vn -0.0000 0.6172 0.7868
vn -0.4123 -0.2930 -0.8627
vn -0.5893 0.6816 0.4338
vn 0.5893 -0.6816 -0.4338
vn 0.5220 -0.1899 0.8315
vn 0.7709 -0.5817 0.2594
vn -0.1038 0.9782 0.1798
vn -0.7861 -0.3783 -0.4889
vn -0.2257 0.8923 0.3909
vn -0.3934 0.6172 0.6814
vn 0.1038 0.7814 -0.6154
vn -0.4338 -0.6816 -0.5893
vn -0.3801 0.6498 -0.6583
vn -0.1798 0.9782 0.1038
vn -0.2081 0.9093 -0.3605
vn -0.3909 0.8923 0.2257
vn -0.6814 0.6172 0.3934
vn -0.8627 0.2930 -0.4123
vn 0.2594 -0.5817 -0.7709
vn -0.4889 0.3783 -0.7861
vn -0.3801 0.6498 0.6583
vn -0.0940 0.9822 -0.1628
vn -0.2076 0.9782 -0.0000
vn 0.4454 0.4814 0.7549
vn -0.4514 0.8923 -0.0000
vn -0.7868 0.6172 -0.0000
vn -0.2081 0.9093 0.3605
vn -0.0940 0.9822 0.1628
vn -0.0694 0.4387 0.8959
vn -0.1798 0.9782 -0.1038
vn 0.4889 -0.3783 0.7861
vn -0.3909 0.8923 -0.2257
vn -0.6814 0.6172 -0.3934
vn 0.5220 -0.1899 -0.8315
vn 0.8627 -0.2930 0.4123
vn -0.0000 0.9093 0.4162
vn -0.1628 0.9822 -0.0940
vn -0.1038 0.9782 -0.1798
vn -0.3605 0.9093 -0.2081
vn -0.2257 0.8923 -0.3909
vn -0.3934 0.6172 -0.6814
vn 0.0072 -0.2326 -0.9725
vn 0.7861 0.3783 0.4889
vn 0.4123 0.2930 0.8627
vn -0.6583 0.6498 -0.3801
vn -0.0000 0.9782 -0.2076
vn -0.0694 0.4387 -0.8959
vn 0.2594 -0.5817 0.7709
vn -0.0000 0.6172 -0.7868
vn -0.5893 -0.6816 -0.4338
vn 0.1038 0.7814 0.6154
vn 0.6154 0.7814 0.1038
vn -0.2594 0.5817 0.7709
vn 0.4454 0.4814 -0.7549
vn -0.5893 0.6816 -0.4338
vn -0.7709 0.5817 0.2594
vn 0.4338 0.6816 0.5893
vn 0.6583 0.6498 -0.3801
vn 0.3605 0.9093 -0.2081
vn 0.1628 0.9822 -0.0940
vn -0.4454 -0.4814 0.7549
vn 0.6154 0.7814 -0.1038
vn 0.5893 0.6816 -0.4338
vn -0.1038 0.7814 -0.6154
vn 0.4338 -0.6816 -0.5893
vn 0.7601 0.6498 -0.0000
vn 0.4162 0.9093 -0.0000
vn 0.1880 0.9822 -0.0000
vn 0.6154 -0.7814 0.1038
vn 0.1038 -0.7814 0.6154
vn 0.9725 -0.2326 -0.0072
vn -0.5893 -0.6816 0.4338
vn -0.4338 0.6816 0.5893
vn 0.2594 0.5817 0.7709
vn 0.6583 0.6498 0.3801
vn 0.3605 0.9093 0.2081
vn 0.1628 0.9822 0.0940
vn 0.7709 -0.5817 -0.2594
vn 0.4338 0.6816 -0.5893
vn 0.8315 -0.1899 -0.5220
vn -0.2594 0.5817 -0.7709
vn 0.4338 -0.6816 0.5893
vn 0.5893 -0.6816 0.4338
vn 0.3801 0.6498 0.6583
vn 0.2081 0.9093 0.3605
vn 0.0940 0.9822 0.1628
vn -0.6154 0.7814 0.1038
vn -0.1038 0.7814 0.6154
vn -0.2594 -0.5817 0.7709
vn -0.7709 -0.5817 0.2594
vn 0.0694 -0.4387 0.8959
vn -0.0000 0.6498 0.7601
vn 0.5893 0.6816 0.4338
vn -0.0000 0.9822 0.1880
vn 0.7709 0.5817 -0.2594
vn -0.1038 -0.7814 0.6154
vn -0.6154 -0.7814 0.1038
vn -0.4338 -0.6816 0.5893
vn -0.6154 -0.7814 -0.1038
vn 0.8315 -0.1899 0.5220
vn 0.7861 0.3783 -0.4889
vn 0.4123 0.2930 -0.8627
vn 0.4889 -0.3783 -0.7861
vn 0.8627 -0.2930 -0.4123
vn -0.0072 0.2326 -0.9725
vn -0.5220 0.1899 -0.8315
vn -0.4454 -0.4814 -0.7549
vn 0.0694 -0.4387 -0.8959
vn -0.8315 0.1899 -0.5220
vn -0.9725 0.2326 -0.0072
vn -0.8959 -0.4387 0.0694
vn -0.7549 -0.4814 -0.4454
vn -0.8627 0.2930 0.4123
vn -0.4889 0.3783 0.7861
vn -0.4123 -0.2930 0.8627
vn -0.7861 -0.3783 0.4889
vn 0.1127 0.9872 -0.1127
vn -0.8959 0.4387 -0.0694
vn -0.7549 0.4814 0.4454
vn 0.1127 0.9872 0.1127
vn 0.0694 0.4387 -0.8959
vn -0.4454 0.4814 -0.7549
vn -0.1127 -0.9872 0.1127
vn -0.8315 -0.1899 0.5220
vn -0.9725 -0.2326 0.0072
vn -0.4454 0.4814 0.7549
vn 0.0694 0.4387 0.8959
vn -0.0072 -0.2326 0.9725
vn -0.5220 -0.1899 0.8315
vn -0.1127 -0.9872 -0.1127
vn -0.5220 -0.1899 -0.8315
vn -0.0072 -0.2326 -0.9725
vn 0.1126 0.9872 0.1127
vn -0.7549 0.4814 -0.4454
vn -0.8959 0.4387 0.0694
vn 0.4889 0.3783 0.7861
vn 0.8627 0.2930 0.4123
vn 0.7861 -0.3783 0.4889
vn 0.4123 -0.2930 0.8627
vn 0.9725 0.2326 -0.0072
vn 0.8315 0.1899 -0.5220
vn -0.9725 -0.2326 -0.0072
vn -0.8315 -0.1899 -0.5220
vn -0.7861 0.3783 0.4889
vn -0.4123 0.2930 0.8627
vn 0.7549 -0.4814 -0.4454
vn 0.8959 -0.4387 0.0694
vn 0.5220 0.1899 -0.8315
vn 0.0072 0.2326 -0.9725
vn -0.0694 -0.4387 -0.8959
vn 0.4454 -0.4814 -0.7549
vn -0.4889 -0.3783 0.7861
vn -0.8627 -0.2930 0.4123
vn 0.0072 0.2326 0.9725
vn 0.5220 0.1899 0.8315
vn -0.4123 0.2930 -0.8627
vn -0.7861 0.3783 -0.4889
vn -0.8627 -0.2930 -0.4123
vn -0.4889 -0.3783 -0.7861
vn 0.4454 -0.4814 0.7549
vn -0.0694 -0.4387 0.8959
vn 0.8315 0.1899 0.5220
vn 0.9725 0.2326 0.0072
vn 0.8959 -0.4387 -0.0694
vn 0.7549 -0.4814 0.4454
vn 0.8627 0.2930 -0.4123
vn 0.4889 0.3783 -0.7861
vn 0.4123 -0.2930 -0.8627
vn 0.7861 -0.3783 -0.4889
vn 0.8959 0.4387 0.0694
vn 0.7549 0.4814 -0.4454
vt 0.364555 0.210476
vt 0.777817 -0.000000
vt 0.673610 0.388909
vt 0.673610 -0.388909
vt 1.016267 -0.000000
vt 0.000000 3.650000
vt 0.550000 2.350000
vt 0.000000 2.350000
vt 0.388909 -0.673610
vt 0.000000 -1.016267
vt 0.508134 -0.880113
vt 0.210476 0.364555
vt 0.388909 0.673610
vt 0.952628 3.650000
vt 0.952628 2.350000
vt 0.000000 0.000000
vt 0.364555 -0.210476
vt 0.420952 -0.000000
vt 0.880113 2.177792
vt 0.550000 3.650000
vt -0.000000 3.841342
vt -0.550000 2.350000
vt -0.550000 3.650000
vt -0.952628 2.350000
vt 0.880113 0.508134
vt -0.000000 0.420952
vt 0.880113 3.841342
vt 0.000000 0.777817
vt -0.952628 3.650000
vt 0.000000 -0.420952
vt 0.210476 -0.364555
vt -0.407477 -0.096368
vt -0.432443 -0.077740
vt -0.394976 -0.074635
vt 0.508134 0.880113
vt -0.000000 1.016268
vt 0.952628 -0.550000
vt -0.952628 -0.550000
vt 0.000000 1.100000
vt 0.508134 3.841342
vt 1.100000 0.000000
vt -0.550000 -0.952628
vt -0.550000 0.952628
vt -0.000000 2.177792
vt 0.508134 2.177792
vt 0.880113 -0.508134
vt -0.000000 -0.777817
vt -0.508134 -0.880113
vt -0.210476 -0.364555
vt -0.653183 2.496368
vt -0.665685 2.474635
vt -0.628217 2.477740
vt 0.000000 3.841342
vt -0.388909 -0.673609
vt -0.880113 3.841342
vt -0.364555 -0.210476
vt -0.673610 -0.388909
vt -0.880113 -0.508134
vt -0.420952 -0.000000
vt -0.777817 0.000000
vt -1.016268 -0.000000
vt -0.880113 0.508134
vt -0.364555 0.210476
vt -0.700380 2.470423
vt -0.682809 2.447731
vt -0.720276 2.444626
vt -0.673609 0.388909
vt -0.360280 -0.070423
vt -0.340384 -0.044626
vt -0.377851 -0.047730
vt -0.210476 0.364555
vt -0.388909 0.673610
vt -0.508134 0.880113
vt -0.407477 -0.096368
vt -0.394976 -0.074635
vt -0.432443 -0.077740
vt 0.508134 2.177792
vt 0.360280 -0.070423
vt 0.377851 -0.047730
vt 0.340384 -0.044626
vt -0.508134 2.177792
vt 0.000000 2.177792
vt -0.610300 2.483395
vt -0.610952 2.458078
vt -0.583747 2.464287
vt -0.583747 2.464287
vt -0.880113 2.177792
vt -0.450360 -0.083395
vt -0.449709 -0.058078
vt -0.476914 -0.064287
vt -0.508134 2.177792
vt -0.360280 -0.070423
vt -0.340384 -0.044626
vt -0.377851 -0.047730
vt 0.653183 2.496368
vt 0.628217 2.477740
vt 0.665685 2.474635
vt -0.450360 -0.083395
vt -0.476913 -0.064287
vt -0.449709 -0.058078
vt -0.610300 2.483395
vt -0.583747 2.464287
vt -0.610951 2.458078
vt -0.700380 2.470423
vt -0.720277 2.444626
vt -0.682809 2.447731
vt -0.360280 -0.070423
vt 0.450360 -0.083395
vt 0.476914 -0.064287
vt 0.449709 -0.058078
vt -0.700380 2.470423
vt -0.394976 -0.074635
vt 0.700380 2.470423
vt 0.720276 2.444626
vt 0.682809 2.447731
vt 0.407477 -0.096368
vt 0.394976 -0.074635
vt 0.432443 -0.077740
vt 0.610300 2.483395
vt 0.610951 2.458078
vt 0.583747 2.464287
vt 0.360280 -0.070423
vt 0.340384 -0.044626
vt 0.377851 -0.047730
vt 0.360280 -0.070423
vt 0.377851 -0.047730
vt 0.340384 -0.044626
vt 0.360280 -0.070423
vt 0.340384 -0.044626
vt 0.377851 -0.047730
vt -0.653183 2.496368
vt 0.610300 2.483395
vt 0.583747 2.464287
vt 0.610951 2.458078
vt 0.450360 -0.083395
vt 0.476914 -0.064287
vt 0.449709 -0.058078
vt 0.700380 2.470423
vt 0.682809 2.447731
vt 0.720277 2.444626
vt -0.360280 -0.070423
vt -0.377851 -0.047730
vt -0.340384 -0.044626
vt 0.583747 2.464287
vt 0.610951 2.458078
vt 0.432443 -0.077740
vt -0.450360 -0.083395
vt -0.476913 -0.064287
vt -0.449709 -0.058078
vt 0.700380 2.470423
vt 0.682809 2.447731
vt 0.720276 2.444626
vt 0.610951 2.458078
vt 0.583747 2.464287
vt 0.450360 -0.083395
vt 0.449709 -0.058078
vt 0.476913 -0.064287
vt 0.394976 -0.074635
vt -0.700380 2.470423
vt -0.720277 2.444626
vt -0.682809 2.447731
vt -0.407477 -0.096368
vt -0.394976 -0.074635
vt -0.432443 -0.077740
vt -0.610300 2.483395
vt 0.450360 -0.083395
vt 0.449709 -0.058078
vt 0.476914 -0.064287
vt -0.495738 0.394976
vt -0.450360 0.317397
vt -0.476913 0.323118
vt -0.432443 -0.485476
vt -0.473959 -0.407477
vt -0.407477 -0.473959
vt 0.287351 0.340384
vt 0.360280 0.293798
vt 0.340384 0.287351
vt 0.628217 0.575184
vt 0.586701 0.653183
vt 0.575184 0.628217
vt -0.764747 2.458078
vt 0.737542 0.583747
vt 0.653183 0.586701
vt 0.665685 0.564922
vt -0.295913 -0.058078
vt -0.323118 -0.476914
vt -0.317397 -0.450360
vt -0.737543 2.464287
vt -0.764747 2.458078
vt 0.394976 -0.495738
vt 0.317397 -0.450360
vt 0.407477 -0.473959
vt -0.295913 -0.058078
vt -0.323118 -0.064287
vt 0.476914 -0.323118
vt 0.473959 -0.407477
vt 0.450360 -0.317397
vt 0.665685 -0.564922
vt 0.743263 -0.610300
vt 0.737542 -0.583747
vt -0.583747 -0.737542
vt -0.586701 -0.653183
vt -0.610300 -0.743263
vt -0.737542 2.464287
vt -0.720277 -0.773309
vt -0.766862 -0.700380
vt -0.773310 -0.720276
vt -0.575184 0.628217
vt -0.653183 0.586701
vt -0.628217 0.575184
vt -0.287351 -0.340384
vt -0.360280 -0.293798
vt -0.340384 -0.287351
vt -0.665685 -0.564922
vt -0.743263 -0.610300
vt -0.653183 -0.586701
vt -0.323118 -0.064287
vt -0.628217 -0.575184
vt -0.575184 -0.628217
vt -0.564922 0.665685
vt -0.610300 0.743263
vt -0.586701 0.653183
vt -0.737542 0.583747
vt -0.743263 0.610300
vt -0.287351 0.340384
vt -0.360280 0.293798
vt -0.293798 0.360280
vt -0.323118 0.476914
vt -0.407477 0.473959
vt -0.394976 0.495738
vt 0.773309 -0.720277
vt 0.700380 -0.766862
vt 0.720276 -0.773310
vt -0.495738 -0.394976
vt -0.450360 -0.317397
vt 0.295913 -0.058078
vt 0.485476 0.432443
vt 0.407477 0.473959
vt 0.432443 0.485476
vt 0.495738 0.394976
vt 0.450360 0.317397
vt 0.473959 0.407477
vt 0.720276 0.773310
vt 0.766862 0.700380
vt 0.773310 0.720277
vt -0.432443 0.485476
vt -0.473959 0.407477
vt -0.485476 0.432443
vt 0.764747 2.458078
vt 0.394976 0.495738
vt 0.317397 0.450360
vt 0.323118 0.476913
vt 0.575184 -0.628217
vt 0.653183 -0.586702
vt 0.628217 -0.575184
vt 0.340384 -0.287351
vt 0.293798 -0.360280
vt 0.287351 -0.340384
vt 0.485476 -0.432443
vt -0.720277 0.773309
vt -0.766862 0.700380
vt -0.700380 0.766862
vt 0.564922 -0.665685
vt 0.610300 -0.743263
vt 0.586701 -0.653183
vt 0.564922 0.665685
vt 0.610300 0.743263
vt 0.583747 0.737542
vt -0.293798 -0.360280
vt -0.575184 2.477740
vt -0.287351 -0.044626
vt -0.737542 2.464287
vt -0.700380 -0.766862
vt -0.773309 2.444626
vt -0.485476 -0.077740
vt 0.287351 -0.044626
vt -0.317397 0.450360
vt 0.737542 2.464287
vt -0.323118 -0.064287
vt 0.485476 -0.077740
vt 0.323118 -0.064287
vt 0.743263 0.610300
vt 0.700380 0.766862
vt 0.575184 2.477740
vt 0.766862 -0.700380
vt 0.575184 2.477740
vt 0.287351 -0.044626
vt 0.323118 -0.064287
vt 0.485476 -0.077740
vt 0.485476 -0.077740
vt 0.508134 3.841342
vt 0.550000 0.952628
vt 0.952628 0.550000
vt 0.550000 -0.952628
vt 0.000000 -1.100000
vt -1.100000 0.000000
vt -0.952628 0.550000
vt -0.508134 3.841342
vt -0.508134 3.841342
vt -0.485476 -0.432443
vt 0.293798 0.360280
vt -0.394976 -0.495738
vt 0.323118 -0.476913
vt 0.495738 -0.394976
vt -0.564922 -0.665685
vt -0.737542 -0.583747
vt -0.583747 0.737542
vt -0.665685 0.564922
vt -0.340384 0.287351
vt -0.476913 -0.323118
vt 0.476914 0.323118
vt 0.360280 -0.293798
vt 0.432443 -0.485476
vt -0.773310 0.720276
vt 0.583747 -0.737543
vt 0.773309 2.444626
vt 0.773310 2.444626
vt 0.773309 2.444626
s 1
f 43/1/42 54/2/53 45/3/44
f 125/4/118 50/5/49 57/2/56
f 4/6/4 5/7/5 3/8/3
f 98/9/94 53/10/52 96/11/92
f 34/12/33 45/3/44 36/13/35
f 6/14/6 7/7/7 5/15/5
f 31/16/2 123/17/116 58/18/57
f 132/19/124 13/7/13 11/15/11
f 8/20/8 9/8/9 7/7/7
f 136/21/128 6/20/6 4/6/4
f 10/6/10 11/22/11 9/8/9
f 43/1/42 2/16/2 52/18/51
f 12/23/12 13/24/13 11/22/11
f 45/3/44 55/5/54 46/25/45
f 133/26/125 2/16/2 34/12/33
f 14/20/14 15/8/15 13/7/13
f 34/12/33 2/16/2 43/1/42
f 16/6/16 17/22/17 15/8/15
f 37/27/36 8/20/8 6/14/6
f 133/26/125 36/13/35 27/28/27
f 18/29/18 19/22/19 17/24/17
f 31/16/2 44/30/43 105/31/101
f 20/23/20 21/8/21 19/22/19
f 187/32/176 56/33/55 49/34/48
f 27/28/27 37/35/36 136/36/128
f 22/6/22 23/7/23 21/8/21
f 12/37/12 20/38/20 4/39/4
f 123/17/116 57/2/56 58/18/57
f 24/20/24 25/15/25 23/7/23
f 46/40/45 10/6/10 8/20/8
f 36/13/35 46/25/45 37/35/36
f 26/23/26 3/8/3 25/22/25
f 9/41/9 17/42/17 25/43/25
f 50/44/49 11/22/11 9/8/9
f 55/21/54 12/23/12 10/6/10
f 52/18/51 63/4/62 54/2/53
f 96/45/92 15/8/15 13/7/13
f 54/2/53 64/46/63 55/5/54
f 52/18/51 2/16/2 61/17/60
f 64/27/63 14/20/14 12/14/12
f 63/4/62 70/31/69 72/9/71
f 50/44/49 7/7/7 75/45/74
f 63/4/62 73/11/72 64/46/63
f 61/17/60 2/16/2 70/31/69
f 31/16/2 58/18/57 67/1/66
f 68/3/67 50/5/49 75/25/74
f 72/9/71 82/10/80 73/11/72
f 70/31/69 2/16/2 79/30/77
f 67/1/66 57/2/56 68/3/67
f 73/40/72 16/6/16 14/20/14
f 70/31/69 81/47/79 72/9/71
f 44/30/43 98/9/94 105/31/101
f 81/47/79 91/48/89 82/10/80
f 79/30/77 2/16/2 88/49/86
f 31/16/2 67/1/66 112/12/107
f 138/50/130 113/51/108 107/52/103
f 82/53/80 18/23/18 16/6/16
f 79/30/77 90/54/88 81/47/79
f 18/23/18 100/55/96 20/29/20
f 90/54/88 97/56/93 99/57/95
f 105/31/101 125/4/118 123/17/116
f 90/54/88 100/58/96 91/48/89
f 88/49/86 2/16/2 97/56/93
f 104/19/100 7/7/7 5/15/5
f 99/57/95 106/59/102 108/60/104
f 31/16/2 105/31/101 123/17/116
f 99/57/95 109/61/105 100/58/96
f 97/56/93 2/16/2 106/59/102
f 112/12/107 68/3/67 111/13/106
f 111/13/106 75/25/74 104/35/100
f 20/23/20 109/21/105 22/6/22
f 108/60/104 118/62/112 109/61/105
f 106/59/102 2/16/2 115/63/109
f 144/64/135 74/65/73 65/66/64
f 22/6/22 118/40/112 24/20/24
f 108/60/104 115/63/109 117/67/111
f 167/68/157 169/69/159 160/70/150
f 111/13/106 182/36/171 122/28/115
f 115/63/109 2/16/2 124/71/117
f 184/26/173 111/13/106 122/28/115
f 24/20/24 127/27/120 26/14/26
f 117/67/111 124/71/117 126/72/119
f 98/9/94 132/46/124 125/4/118
f 117/67/111 127/73/120 118/62/112
f 26/23/26 136/21/128 4/6/4
f 126/72/119 133/26/125 27/28/27
f 186/74/175 181/75/170 149/76/140
f 126/72/119 136/36/128 127/73/120
f 124/71/117 2/16/2 133/26/125
f 104/77/100 3/8/3 182/44/171
f 31/16/2 112/12/107 184/26/173
f 51/47/50 1/48/1 53/10/52
f 87/78/85 33/79/32 191/80/179
f 31/16/2 30/49/30 44/30/43
f 30/49/30 51/47/50 44/30/43
f 1/81/1 15/8/15 53/82/52
f 145/83/136 131/84/123 129/85/122
f 31/16/2 148/56/139 30/49/30
f 168/83/158 193/86/180 194/84/181
f 28/54/28 146/58/137 1/48/1
f 148/56/139 28/54/28 30/49/30
f 146/87/137 17/22/17 1/81/1
f 172/88/162 120/89/114 116/90/110
f 155/44/145 19/22/19 146/91/137
f 157/59/147 147/57/138 148/56/139
f 147/57/138 155/61/145 146/58/137
f 31/16/2 157/59/147 148/56/139
f 135/92/127 86/93/84 66/94/65
f 31/16/2 166/63/156 157/59/147
f 164/45/154 21/8/21 155/44/145
f 156/60/146 164/62/154 155/61/145
f 166/63/156 156/60/146 157/59/147
f 139/95/131 42/96/41 39/97/38
f 95/98/91 89/99/87 83/100/81
f 173/19/163 23/7/23 164/45/154
f 31/16/2 175/71/165 166/63/156
f 175/71/165 165/67/155 166/63/156
f 165/67/155 173/73/163 164/62/154
f 94/50/90 142/52/133 134/51/126
f 143/101/134 103/102/99 101/103/97
f 174/72/164 182/36/171 173/73/163
f 141/104/132 38/105/37 29/106/29
f 102/107/98 128/94/121 119/93/113
f 182/44/171 25/22/25 173/91/163
f 31/16/2 184/26/173 175/71/165
f 184/26/173 174/72/164 175/71/165
f 85/108/83 196/109/182 197/110/183
f 170/111/160 199/106/184 200/105/185
f 80/74/78 202/33/186 203/112/187
f 62/113/61 205/114/188 206/115/189
f 190/116/178 208/117/190 209/118/191
f 84/119/82 211/120/192 212/121/193
f 189/98/177 214/100/194 215/99/195
f 176/95/166 217/97/197 218/96/198
f 153/95/143 220/97/200 221/96/201
f 180/122/169 223/123/203 224/124/204
f 177/95/167 226/96/205 227/97/206
f 179/125/168 229/126/207 230/127/208
f 41/128/40 232/129/210 233/130/211
f 40/131/39 235/52/213 236/51/214
f 183/132/172 238/133/215 239/134/216
f 171/135/161 241/136/217 242/137/218
f 185/138/174 244/139/219 245/140/220
f 32/141/31 247/142/221 248/143/222
f 162/119/152 250/144/223 251/145/224
f 77/116/75 253/146/225 254/117/226
f 69/113/68 256/114/227 257/115/228
f 71/116/70 259/117/229 260/118/230
f 161/147/151 262/148/231 263/149/232
f 163/150/153 265/151/233 266/152/234
f 48/119/47 268/153/235 269/154/236
f 137/155/129 271/156/237 272/157/238
f 159/116/149 274/146/239 275/158/240
f 78/159/76 277/160/241 278/161/242
f 158/162/148 280/163/243 281/164/244
f 152/165/142 283/84/245 284/86/246
f 154/166/144 286/167/247 287/168/248
f 150/50/141 289/51/249 290/52/250
f 160/70/150 290/52/250 289/51/249
f 208/169/190 189/170/177 215/171/195
f 149/172/140 187/173/176 186/174/175
f 244/139/219 183/132/172 239/134/216
f 223/175/203 179/176/168 230/177/208
f 226/178/205 176/179/166 218/180/198
f 214/100/194 211/181/192 215/99/195
f 238/182/215 177/183/167 227/184/206
f 197/185/183 194/84/181 193/86/180
f 116/186/110 186/174/175 172/187/162
f 229/126/207 171/135/161 242/137/218
f 194/84/181 170/111/160 168/83/158
f 230/127/208 227/97/206 226/96/205
f 250/188/223 262/148/231 251/189/224
f 120/89/114 167/68/157 160/70/150
f 265/151/233 162/119/152 251/145/224
f 281/164/244 278/161/242 277/160/241
f 275/190/240 161/191/151 159/192/149
f 286/193/247 283/84/245 287/194/248
f 287/195/248 158/196/148 154/197/144
f 220/198/200 152/199/142 284/200/246
f 66/94/65 107/52/103 113/51/108
f 129/201/122 150/202/141 145/203/136
f 224/124/204 218/96/198 217/97/197
f 74/65/73 143/101/134 101/103/97
f 103/204/99 89/99/87 101/181/97
f 38/205/37 144/206/135 65/207/64
f 42/208/41 138/209/130 107/210/103
f 271/156/237 180/122/169 224/124/204
f 191/80/179 39/97/38 42/96/41
f 214/100/194 135/92/127 66/94/65
f 169/211/159 102/212/98 119/213/113
f 128/94/121 95/98/91 83/100/81
f 134/214/126 143/215/134 94/216/90
f 120/185/114 131/84/123 116/217/110
f 119/93/113 134/51/126 142/52/133
f 142/218/133 150/202/141 290/219/250
f 39/220/38 168/221/158 139/222/131
f 197/110/183 87/78/85 85/108/83
f 212/223/193 138/209/130 84/224/82
f 191/225/179 135/226/127 87/227/85
f 275/158/240 266/152/234 265/151/233
f 196/228/182 80/229/78 203/230/187
f 277/231/241 163/232/153 266/233/234
f 49/234/48 95/235/91 187/173/176
f 74/65/73 56/33/55 65/66/64
f 209/118/191 206/115/189 205/114/188
f 242/236/218 239/134/216 238/133/215
f 29/106/29 145/83/136 141/104/132
f 260/118/230 257/115/228 256/114/227
f 253/237/225 71/238/70 260/239/230
f 254/240/226 171/241/161 77/242/75
f 254/117/226 245/140/220 244/139/219
f 256/243/227 185/244/174 245/245/220
f 278/161/242 152/165/142 78/159/76
f 206/115/189 84/119/82 62/113/61
f 202/246/186 190/247/178 209/248/191
f 271/156/237 268/249/235 272/157/238
f 257/115/228 48/119/47 69/113/68
f 259/250/229 137/251/129 272/252/238
f 286/167/247 41/128/40 233/130/211
f 233/130/211 221/96/201 220/97/200
f 235/253/213 153/254/143 221/255/201
f 232/256/210 32/257/31 248/258/222
f 149/76/140 29/106/29 38/105/37
f 281/259/244 159/192/149 158/196/148
f 248/143/222 236/51/214 235/52/213
f 200/260/185 62/261/61 170/262/160
f 236/263/214 162/264/152 40/265/39
f 247/142/221 161/147/151 263/149/232
f 203/112/187 200/105/185 199/106/184
f 217/266/197 48/267/47 269/268/236
f 188/174/59 92/235/59 178/269/59
f 142/270/133 169/69/159 119/271/113
f 160/70/150 129/272/122 120/89/114
f 288/202/46 110/215/46 47/273/46
f 103/204/99 128/94/121 83/100/81
f 74/65/73 89/217/87 49/34/48
f 38/274/37 56/33/55 149/275/140
f 131/84/123 181/75/170 116/217/110
f 59/222/58 198/262/58 210/224/58
f 42/96/41 86/276/84 191/80/179
f 66/94/65 212/204/193 214/100/194
f 93/226/34 207/247/34 195/277/34
f 193/278/180 33/79/32 197/110/183
f 199/106/184 196/279/182 203/112/187
f 205/114/188 202/280/186 209/118/191
f 211/120/192 208/117/190 215/281/195
f 216/179/196 237/282/196 255/283/196
f 230/127/208 218/284/198 223/276/203
f 224/124/204 269/278/236 271/156/237
f 219/254/199 249/264/199 276/285/199
f 235/286/213 232/129/210 248/287/222
f 233/130/211 284/278/246 286/167/247
f 270/251/202 252/242/202 228/176/202
f 238/278/215 229/126/207 242/137/218
f 246/257/209 285/197/209 273/192/209
f 250/188/223 247/142/221 263/149/232
f 244/139/219 241/288/217 254/117/226
f 256/114/227 253/289/225 260/118/230
f 265/151/233 262/288/231 275/158/240
f 268/153/235 259/117/229 272/281/238
f 281/290/244 266/152/234 274/146/239
f 287/194/248 278/161/242 280/163/243
f 43/1/42 52/18/51 54/2/53
f 125/4/118 132/46/124 50/5/49
f 4/6/4 6/20/6 5/7/5
f 98/9/94 51/47/50 53/10/52
f 34/12/33 43/1/42 45/3/44
f 6/14/6 8/20/8 7/7/7
f 132/19/124 96/45/92 13/7/13
f 8/20/8 10/6/10 9/8/9
f 136/21/128 37/291/36 6/20/6
f 10/6/10 12/23/12 11/22/11
f 12/23/12 14/29/14 13/24/13
f 45/3/44 54/2/53 55/5/54
f 14/20/14 16/6/16 15/8/15
f 16/6/16 18/23/18 17/22/17
f 37/27/36 46/40/45 8/20/8
f 133/26/125 34/12/33 36/13/35
f 18/29/18 20/23/20 19/22/19
f 20/23/20 22/6/22 21/8/21
f 27/28/27 36/13/35 37/35/36
f 22/6/22 24/20/24 23/7/23
f 4/39/4 6/292/6 8/293/8
f 8/293/8 10/41/10 12/37/12
f 12/37/12 14/294/14 16/295/16
f 16/295/16 18/42/18 20/38/20
f 20/38/20 22/296/22 24/297/24
f 24/297/24 26/43/26 4/39/4
f 4/39/4 8/293/8 12/37/12
f 12/37/12 16/295/16 20/38/20
f 20/38/20 24/297/24 4/39/4
f 123/17/116 125/4/118 57/2/56
f 24/20/24 26/14/26 25/15/25
f 46/40/45 55/21/54 10/6/10
f 36/13/35 45/3/44 46/25/45
f 26/23/26 4/6/4 3/8/3
f 25/43/25 3/39/3 5/292/5
f 5/292/5 7/293/7 9/41/9
f 9/41/9 11/37/11 13/294/13
f 13/294/13 15/295/15 17/42/17
f 17/42/17 19/38/19 21/296/21
f 21/296/21 23/297/23 25/43/25
f 25/43/25 5/292/5 9/41/9
f 9/41/9 13/294/13 17/42/17
f 17/42/17 21/296/21 25/43/25
f 50/44/49 132/91/124 11/22/11
f 55/21/54 64/298/63 12/23/12
f 52/18/51 61/17/60 63/4/62
f 96/45/92 53/82/52 15/8/15
f 54/2/53 63/4/62 64/46/63
f 64/27/63 73/40/72 14/20/14
f 63/4/62 61/17/60 70/31/69
f 50/44/49 9/8/9 7/7/7
f 63/4/62 72/9/71 73/11/72
f 68/3/67 57/2/56 50/5/49
f 72/9/71 81/47/79 82/10/80
f 67/1/66 58/18/57 57/2/56
f 73/40/72 82/53/80 16/6/16
f 70/31/69 79/30/77 81/47/79
f 44/30/43 51/47/50 98/9/94
f 81/47/79 90/54/88 91/48/89
f 82/53/80 91/299/89 18/23/18
f 79/30/77 88/49/86 90/54/88
f 18/23/18 91/299/89 100/55/96
f 90/54/88 88/49/86 97/56/93
f 105/31/101 98/9/94 125/4/118
f 90/54/88 99/57/95 100/58/96
f 104/19/100 75/45/74 7/7/7
f 99/57/95 97/56/93 106/59/102
f 99/57/95 108/60/104 109/61/105
f 112/12/107 67/1/66 68/3/67
f 111/13/106 68/3/67 75/25/74
f 20/23/20 100/298/96 109/21/105
f 108/60/104 117/67/111 118/62/112
f 22/6/22 109/21/105 118/40/112
f 108/60/104 106/59/102 115/63/109
f 111/13/106 104/35/100 182/36/171
f 184/26/173 112/12/107 111/13/106
f 24/20/24 118/40/112 127/27/120
f 117/67/111 115/63/109 124/71/117
f 98/9/94 96/11/92 132/46/124
f 117/67/111 126/72/119 127/73/120
f 26/23/26 127/298/120 136/21/128
f 126/72/119 124/71/117 133/26/125
f 126/72/119 27/28/27 136/36/128
f 104/77/100 5/7/5 3/8/3
f 51/47/50 28/54/28 1/48/1
f 30/49/30 28/54/28 51/47/50
f 1/81/1 17/22/17 15/8/15
f 28/54/28 147/57/138 146/58/137
f 148/56/139 147/57/138 28/54/28
f 146/87/137 19/24/19 17/22/17
f 155/44/145 21/8/21 19/22/19
f 157/59/147 156/60/146 147/57/138
f 147/57/138 156/60/146 155/61/145
f 164/45/154 23/7/23 21/8/21
f 156/60/146 165/67/155 164/62/154
f 166/63/156 165/67/155 156/60/146
f 173/19/163 25/15/25 23/7/23
f 175/71/165 174/72/164 165/67/155
f 165/67/155 174/72/164 173/73/163
f 174/72/164 122/28/115 182/36/171
f 182/44/171 3/8/3 25/22/25
f 184/26/173 122/28/115 174/72/164
f 160/70/150 169/69/159 290/52/250
f 208/169/190 190/247/178 189/170/177
f 149/172/140 56/300/55 187/173/176
f 244/139/219 185/138/174 183/132/172
f 223/175/203 180/301/169 179/176/168
f 226/178/205 177/183/167 176/179/166
f 214/100/194 212/204/193 211/181/192
f 238/182/215 183/282/172 177/183/167
f 197/185/183 196/279/182 194/84/181
f 116/186/110 181/302/170 186/174/175
f 229/126/207 179/125/168 171/135/161
f 194/84/181 199/106/184 170/111/160
f 230/127/208 229/126/207 227/97/206
f 250/188/223 263/149/232 262/148/231
f 120/89/114 172/88/162 167/68/157
f 265/151/233 163/150/153 162/119/152
f 281/164/244 280/163/243 278/161/242
f 275/190/240 262/303/231 161/191/151
f 286/193/247 284/86/246 283/84/245
f 287/195/248 280/304/243 158/196/148
f 220/198/200 153/254/143 152/199/142
f 66/94/65 86/93/84 107/52/103
f 129/201/122 289/305/249 150/202/141
f 224/124/204 223/123/203 218/96/198
f 74/65/73 144/64/135 143/101/134
f 103/204/99 83/100/81 89/99/87
f 38/205/37 141/273/132 144/206/135
f 42/208/41 139/222/131 138/209/130
f 271/156/237 137/155/129 180/122/169
f 191/80/179 33/79/32 39/97/38
f 214/100/194 189/98/177 135/92/127
f 169/211/159 167/269/157 102/212/98
f 128/94/121 102/107/98 95/98/91
f 134/214/126 103/306/99 143/215/134
f 120/185/114 129/85/122 131/84/123
f 119/93/113 128/94/121 134/51/126
f 142/218/133 94/216/90 150/202/141
f 39/220/38 193/307/180 168/221/158
f 197/110/183 33/79/32 87/78/85
f 212/223/193 113/308/108 138/209/130
f 191/225/179 86/309/84 135/226/127
f 275/158/240 274/146/239 266/152/234
f 196/228/182 85/277/83 80/229/78
f 277/231/241 78/285/76 163/232/153
f 49/234/48 89/310/87 95/235/91
f 74/65/73 49/34/48 56/33/55
f 209/118/191 208/117/190 206/115/189
f 242/236/218 241/288/217 239/134/216
f 29/106/29 131/84/123 145/83/136
f 260/118/230 259/117/229 257/115/228
f 253/237/225 77/242/75 71/238/70
f 254/240/226 241/311/217 171/241/161
f 254/117/226 253/146/225 245/140/220
f 256/243/227 69/283/68 185/244/174
f 278/161/242 283/84/245 152/165/142
f 206/115/189 211/120/192 84/119/82
f 202/246/186 80/229/78 190/247/178
f 271/156/237 269/278/236 268/249/235
f 257/115/228 268/153/235 48/119/47
f 259/250/229 71/238/70 137/251/129
f 286/167/247 154/166/144 41/128/40
f 233/130/211 232/129/210 221/96/201
f 235/253/213 40/265/39 153/254/143
f 232/256/210 41/312/40 32/257/31
f 149/76/140 181/75/170 29/106/29
f 281/259/244 274/313/239 159/192/149
f 248/143/222 247/142/221 236/51/214
f 200/260/185 205/314/188 62/261/61
f 236/263/214 250/315/223 162/264/152
f 247/142/221 32/141/31 161/147/151
f 203/112/187 202/33/186 200/105/185
f 217/266/197 176/179/166 48/267/47
f 178/269/59 121/187/59 188/174/59
f 188/174/59 60/173/59 92/235/59
f 92/235/59 130/212/59 178/269/59
f 142/270/133 290/52/250 169/69/159
f 160/70/150 289/51/249 129/272/122
f 47/273/46 140/203/46 288/202/46
f 288/202/46 151/216/46 110/215/46
f 110/215/46 76/206/46 47/273/46
f 103/204/99 134/51/126 128/94/121
f 74/65/73 101/103/97 89/217/87
f 38/274/37 65/66/64 56/33/55
f 131/84/123 29/106/29 181/75/170
f 210/224/58 114/209/58 59/222/58
f 59/222/58 192/221/58 198/262/58
f 198/262/58 204/261/58 210/224/58
f 42/96/41 107/286/103 86/276/84
f 66/94/65 113/51/108 212/204/193
f 195/277/34 35/227/34 93/226/34
f 93/226/34 213/170/34 207/247/34
f 207/247/34 201/229/34 195/277/34
f 193/278/180 39/97/38 33/79/32
f 199/106/184 194/84/181 196/279/182
f 205/114/188 200/316/185 202/280/186
f 211/120/192 206/115/189 208/117/190
f 255/283/196 267/267/196 216/179/196
f 216/179/196 225/183/196 237/282/196
f 237/282/196 243/244/196 255/283/196
f 230/127/208 226/96/205 218/284/198
f 224/124/204 217/97/197 269/278/236
f 276/285/199 282/199/199 219/254/199
f 219/254/199 234/265/212 249/264/199
f 249/264/199 264/232/199 276/285/199
f 235/286/213 221/96/201 232/129/210
f 233/130/211 220/97/200 284/278/246
f 228/176/202 222/301/202 270/251/202
f 270/251/202 258/238/202 252/242/202
f 252/242/202 240/241/202 228/176/202
f 238/278/215 227/97/206 229/126/207
f 273/192/209 261/191/209 246/257/209
f 246/257/209 231/312/209 285/197/209
f 285/197/209 279/196/209 273/192/209
f 250/188/223 236/51/214 247/142/221
f 244/139/219 239/134/216 241/288/217
f 256/114/227 245/317/220 253/289/225
f 265/151/233 251/145/224 262/288/231
f 268/153/235 257/115/228 259/117/229
f 281/290/244 277/318/241 266/152/234
f 287/194/248 283/84/245 278/161/242
