# Blender 5.2.0 LTS
# www.blender.org
o Backdrop_DivingPlatform
v -3.550000 49.349998 -9.000000
v 27.549999 46.650002 -9.000000
v -3.550000 46.650002 -9.000000
v -3.550000 46.200001 -8.550000
v 27.549999 46.200001 -8.550000
v 21.000000 27.500000 -1.043769
v 21.992683 27.500000 -0.322542
v 28.000000 49.349998 -8.550000
v 27.549999 49.799999 8.550000
v 27.549999 49.799999 -8.550000
v 28.000000 49.349998 8.550000
v 28.000000 46.650002 8.550000
v 27.549999 46.650002 9.000000
v 27.549999 49.349998 9.000000
v 15.750001 27.950001 -7.200000
v 15.750001 36.049999 -7.200000
v 16.200001 36.049999 -7.650000
v 15.750001 36.500000 -7.650000
v 16.200001 27.950001 -7.650000
v 15.750001 27.500000 -7.650000
v 16.200001 27.950001 -8.350000
v 16.200001 36.049999 -8.350000
v 15.750001 36.049999 -8.800000
v 15.750001 36.500000 -8.350000
v 15.750001 27.950001 -8.800000
v 15.750001 27.500000 -8.350000
v -1.550000 27.950001 -8.800000
v -1.550000 36.049999 -8.800000
v -2.000000 36.049999 -8.350000
v -1.550000 36.500000 -8.350000
v -1.550000 36.500000 -7.650000
v -2.000000 36.049999 -7.650000
v -1.550000 36.049999 -7.200000
v -1.550000 27.950001 -7.200000
v -2.000000 27.950001 -8.350000
v -2.000000 27.950001 -7.650000
v -1.550000 27.500000 -7.650000
v -1.550000 27.500000 -8.350000
v 15.750001 27.950001 8.800000
v 15.750001 36.049999 8.800000
v 16.200001 36.049999 8.350000
v 15.750001 36.500000 8.350000
v 16.200001 27.950001 8.350000
v 15.750001 27.500000 8.350000
v 16.200001 27.950001 7.650000
v 16.200001 36.049999 7.650000
v 15.750001 36.049999 7.200000
v 15.750001 36.500000 7.650000
v 15.750001 27.950001 7.200000
v 15.750001 27.500000 7.650000
v -1.550000 27.950001 7.200000
v -1.550000 36.049999 7.200000
v -2.000000 36.049999 7.650000
v -1.550000 36.500000 7.650000
v -1.550000 36.500000 8.350000
v -2.000000 36.049999 8.350000
v -1.550000 36.049999 8.800000
v -1.550000 27.950001 8.800000
v -2.000000 27.950001 7.650000
v -2.000000 27.950001 8.350000
v -1.550000 27.500000 8.350000
v -1.550000 27.500000 7.650000
v 21.549999 24.650002 9.000000
v 21.549999 27.349998 9.000000
v 22.000000 27.349998 8.550000
v 21.549999 27.799999 8.550000
v 22.000000 24.650002 8.550000
v 21.549999 24.200001 8.550000
v 22.000000 24.650002 -8.550000
v 22.000000 27.349998 -8.550000
v 21.549999 27.349998 -9.000000
v 21.549999 27.799999 -8.550000
v 21.549999 24.650002 -9.000000
v 21.549999 24.200001 -8.550000
v -3.550000 24.650002 -9.000000
v -3.550000 27.349998 -9.000000
v -4.000000 27.349998 -8.550000
v -3.550000 27.799999 -8.550000
v -3.550000 27.799999 8.550000
v -4.000000 27.349998 8.550000
v -3.550000 27.349998 9.000000
v -3.550000 24.650002 9.000000
v -4.000000 24.650002 -8.550000
v -4.000000 24.650002 8.550000
v -3.550000 24.200001 8.550000
v -3.550000 24.200001 -8.550000
v 8.550000 0.450000 8.000000
v 8.550000 81.550003 8.000000
v 9.000000 81.550003 7.550000
v 8.550000 82.000000 7.550000
v 9.000000 0.450000 7.550000
v 8.550000 0.000000 7.550000
v 9.000000 0.450000 -7.550000
v 9.000000 81.550003 -7.550000
v 8.550000 81.550003 -8.000000
v 8.550000 82.000000 -7.550000
v 8.550000 0.450000 -8.000000
v 8.550000 0.000000 -7.550000
v -8.550000 0.450000 -8.000000
v -8.550000 81.550003 -8.000000
v -8.550000 0.450000 8.000000
v -8.550000 0.000000 7.550000
v -9.000000 81.550003 -7.550000
v -8.550000 82.000000 -7.550000
v -8.550000 82.000000 7.550000
v -9.000000 81.550003 7.550000
v -8.550000 81.550003 8.000000
v -8.550000 0.450000 8.000000
v -9.000000 0.450000 -7.550000
v -9.000000 0.450000 7.550000
v -8.550000 0.000000 7.550000
v -8.550000 0.000000 -7.550000
v -9.000000 0.450000 7.550000
v -8.550000 81.550003 8.000000
v -8.550000 82.000000 7.550000
v -9.000000 81.550003 7.550000
v -8.550000 0.000000 -7.550000
v -9.000000 0.450000 -7.550000
v -8.550000 0.450000 -8.000000
v -8.550000 82.000000 -7.550000
v -8.550000 81.550003 -8.000000
v -9.000000 81.550003 -7.550000
v 8.550000 0.000000 7.550000
v 9.000000 0.450000 7.550000
v 8.550000 0.450000 8.000000
v 8.550000 82.000000 7.550000
v 8.550000 81.550003 8.000000
v 9.000000 81.550003 7.550000
v 8.550000 0.000000 -7.550000
v 8.550000 0.450000 -8.000000
v 9.000000 0.450000 -7.550000
v 8.550000 82.000000 -7.550000
v 9.000000 81.550003 -7.550000
v 8.550000 81.550003 -8.000000
v -3.550000 24.200001 8.550000
v -3.550000 24.650002 9.000000
v -4.000000 24.650002 8.550000
v -3.550000 27.349998 9.000000
v -3.550000 27.799999 8.550000
v -4.000000 27.349998 8.550000
v -3.550000 24.200001 -8.550000
v -4.000000 24.650002 -8.550000
v -3.550000 24.650002 -9.000000
v -3.550000 27.799999 -8.550000
v -3.550000 27.349998 -9.000000
v -4.000000 27.349998 -8.550000
v 21.549999 24.200001 8.550000
v 22.000000 24.650002 8.550000
v 21.549999 24.650002 9.000000
v 21.549999 27.799999 8.550000
v 21.549999 27.349998 9.000000
v 22.000000 27.349998 8.550000
v 21.549999 24.200001 -8.550000
v 21.549999 24.650002 -9.000000
v 22.000000 24.650002 -8.550000
v 21.549999 27.799999 -8.550000
v 22.000000 27.349998 -8.550000
v 21.549999 27.349998 -9.000000
v -1.550000 27.500000 8.350000
v -1.550000 27.950001 8.800000
v -2.000000 27.950001 8.350000
v -1.550000 36.049999 8.800000
v -1.550000 36.500000 8.350000
v -2.000000 36.049999 8.350000
v -1.550000 27.500000 7.650000
v -2.000000 27.950001 7.650000
v -1.550000 27.950001 7.200000
v -1.550000 36.500000 7.650000
v -1.550000 36.049999 7.200000
v -2.000000 36.049999 7.650000
v 15.750001 27.500000 8.350000
v 16.200001 27.950001 8.350000
v 15.750001 27.950001 8.800000
v 15.750001 36.500000 8.350000
v 15.750001 36.049999 8.800000
v 16.200001 36.049999 8.350000
v 15.750001 27.500000 7.650000
v 15.750001 27.950001 7.200000
v 16.200001 27.950001 7.650000
v 15.750001 36.500000 7.650000
v 16.200001 36.049999 7.650000
v 15.750001 36.049999 7.200000
v -1.550000 27.500000 -7.650000
v -1.550000 27.950001 -7.200000
v -2.000000 27.950001 -7.650000
v -1.550000 36.049999 -7.200000
v -1.550000 36.500000 -7.650000
v -2.000000 36.049999 -7.650000
v -1.550000 27.500000 -8.350000
v -2.000000 27.950001 -8.350000
v -1.550000 27.950001 -8.800000
v -1.550000 36.500000 -8.350000
v -1.550000 36.049999 -8.800000
v -2.000000 36.049999 -8.350000
v 15.750001 27.500000 -7.650000
v 16.200001 27.950001 -7.650000
v 15.750001 27.950001 -7.200000
v 15.750001 36.500000 -7.650000
v 15.750001 36.049999 -7.200000
v 16.200001 36.049999 -7.650000
v 15.750001 27.500000 -8.350000
v 15.750001 27.950001 -8.800000
v 16.200001 27.950001 -8.350000
v 15.750001 36.500000 -8.350000
v 16.200001 36.049999 -8.350000
v 15.750001 36.049999 -8.800000
v -3.550000 49.349998 9.000000
v -3.550000 49.799999 8.550000
v -4.000000 49.349998 8.550000
v -3.550000 46.200001 8.550000
v -3.550000 46.650002 9.000000
v -4.000000 46.650002 8.550000
v 21.000000 27.500000 -1.043769
v 20.635942 27.950001 -1.335497
v 21.364058 27.950001 -1.335497
v 21.000000 36.500000 -1.043769
v 21.364058 36.049999 -1.335497
v 20.635942 36.049999 -1.335497
v 21.992683 27.500000 -0.322542
v 22.157633 27.950001 -0.758931
v 22.382633 27.950001 -0.066452
v 21.992683 36.500000 -0.322542
v 22.382633 36.049999 -0.066452
v 22.157633 36.049999 -0.758931
v 21.613512 27.500000 0.844427
v 22.079514 27.950001 0.866452
v 21.490456 27.950001 1.294427
v 21.613512 36.500000 0.844427
v 21.490456 36.049999 1.294427
v 22.079514 36.049999 0.866452
v 20.386488 27.500000 0.844427
v 20.509544 27.950001 1.294427
v 19.920486 27.950001 0.866452
v 20.386488 36.500000 0.844427
v 19.920486 36.049999 0.866452
v 20.509544 36.049999 1.294427
v 20.007317 27.500000 -0.322542
v 19.617367 27.950001 -0.066452
v 19.842367 27.950001 -0.758931
v 20.007317 36.500000 -0.322542
v 19.842367 36.049999 -0.758931
v 19.617367 36.049999 -0.066452
v -3.550000 46.200001 -8.550000
v -4.000000 46.650002 -8.550000
v -3.550000 46.650002 -9.000000
v -3.550000 49.799999 -8.550000
v -3.550000 49.349998 -9.000000
v -4.000000 49.349998 -8.550000
v 27.549999 46.200001 8.550000
v 28.000000 46.650002 8.550000
v 27.549999 46.650002 9.000000
v 27.549999 49.799999 8.550000
v 27.549999 49.349998 9.000000
v 28.000000 49.349998 8.550000
v 27.549999 46.200001 -8.550000
v 27.549999 46.650002 -9.000000
v 28.000000 46.650002 -8.550000
v 27.549999 49.799999 -8.550000
v 28.000000 49.349998 -8.550000
v 27.549999 49.349998 -9.000000
v -1.550000 49.500000 8.350000
v -1.550000 49.950001 8.800000
v -2.000000 49.950001 8.350000
v -1.550000 58.049999 8.800000
v -1.550000 58.500000 8.350000
v -2.000000 58.049999 8.350000
v -1.550000 49.500000 7.650000
v -2.000000 49.950001 7.650000
v -1.550000 49.950001 7.200000
v -1.550000 58.500000 7.650000
v -1.550000 58.049999 7.200000
v -2.000000 58.049999 7.650000
v 19.949999 49.500000 8.350000
v 20.400000 49.950001 8.350000
v 19.949999 49.950001 8.800000
v 19.949999 58.500000 8.350000
v 19.949999 58.049999 8.800000
v 20.400000 58.049999 8.350000
v 19.949999 49.500000 7.650000
v 19.949999 49.950001 7.200000
v 20.400000 49.950001 7.650000
v 19.949999 58.500000 7.650000
v 20.400000 58.049999 7.650000
v 19.949999 58.049999 7.200000
v -1.550000 49.500000 -7.650000
v -1.550000 49.950001 -7.200000
v -2.000000 49.950001 -7.650000
v -1.550000 58.049999 -7.200000
v -1.550000 58.500000 -7.650000
v -2.000000 58.049999 -7.650000
v -1.550000 49.500000 -8.350000
v -2.000000 49.950001 -8.350000
v -1.550000 49.950001 -8.800000
v -1.550000 58.500000 -8.350000
v -1.550000 58.049999 -8.800000
v -2.000000 58.049999 -8.350000
v 19.949999 49.500000 -7.650000
v 20.400000 49.950001 -7.650000
v 19.949999 49.950001 -7.200000
v 19.949999 58.500000 -7.650000
v 19.949999 58.049999 -7.200000
v 20.400000 58.049999 -7.650000
v 19.949999 49.500000 -8.350000
v 19.949999 49.950001 -8.800000
v 20.400000 49.950001 -8.350000
v 19.949999 58.500000 -8.350000
v 20.400000 58.049999 -8.350000
v 19.949999 58.049999 -8.800000
v -3.550000 73.350006 9.000000
v -3.550000 73.800003 8.550000
v -4.000000 73.350006 8.550000
v -3.550000 70.199997 8.550000
v -3.550000 70.649994 9.000000
v -4.000000 70.649994 8.550000
v 27.000000 49.500000 -1.043769
v 26.635942 49.950001 -1.335497
v 27.364058 49.950001 -1.335497
v 27.000000 58.500000 -1.043769
v 27.364058 58.049999 -1.335497
v 26.635942 58.049999 -1.335497
v 27.992683 49.500000 -0.322542
v 28.157633 49.950001 -0.758931
v 28.382633 49.950001 -0.066452
v 27.992683 58.500000 -0.322542
v 28.382633 58.049999 -0.066452
v 28.157633 58.049999 -0.758931
v 27.613512 49.500000 0.844427
v 28.079514 49.950001 0.866452
v 27.490456 49.950001 1.294427
v 27.613512 58.500000 0.844427
v 27.490456 58.049999 1.294427
v 28.079514 58.049999 0.866452
v 26.386488 49.500000 0.844427
v 26.509544 49.950001 1.294427
v 25.920486 49.950001 0.866452
v 26.386488 58.500000 0.844427
v 25.920486 58.049999 0.866452
v 26.509544 58.049999 1.294427
v 26.007317 49.500000 -0.322542
v 25.617367 49.950001 -0.066452
v 25.842367 49.950001 -0.758931
v 26.007317 58.500000 -0.322542
v 25.842367 58.049999 -0.758931
v 25.617367 58.049999 -0.066452
v -3.550000 70.199997 -8.550000
v -4.000000 70.649994 -8.550000
v -3.550000 70.649994 -9.000000
v -3.550000 73.800003 -8.550000
v -3.550000 73.350006 -9.000000
v -4.000000 73.350006 -8.550000
v 33.549999 70.199997 8.550000
v 34.000000 70.649994 8.550000
v 33.549999 70.649994 9.000000
v 33.549999 73.800003 8.550000
v 33.549999 73.350006 9.000000
v 34.000000 73.350006 8.550000
v 33.549999 70.199997 -8.550000
v 33.549999 70.649994 -9.000000
v 34.000000 70.649994 -8.550000
v 33.549999 73.800003 -8.550000
v 34.000000 73.350006 -8.550000
v 33.549999 73.350006 -9.000000
v -1.550000 73.500000 8.350000
v -1.550000 73.949997 8.800000
v -2.000000 73.949997 8.350000
v -1.550000 82.050003 8.800000
v -1.550000 82.500000 8.350000
v -2.000000 82.050003 8.350000
v -1.550000 73.500000 7.650000
v -2.000000 73.949997 7.650000
v -1.550000 73.949997 7.200000
v -1.550000 82.500000 7.650000
v -1.550000 82.050003 7.200000
v -2.000000 82.050003 7.650000
v 24.150000 73.500000 8.350000
v 24.600000 73.949997 8.350000
v 24.150000 73.949997 8.800000
v 24.150000 82.500000 8.350000
v 24.150000 82.050003 8.800000
v 24.600000 82.050003 8.350000
v 24.150000 73.500000 7.650000
v 24.150000 73.949997 7.200000
v 24.600000 73.949997 7.650000
v 24.150000 82.500000 7.650000
v 24.600000 82.050003 7.650000
v 24.150000 82.050003 7.200000
v -1.550000 73.500000 -7.650000
v -1.550000 73.949997 -7.200000
v -2.000000 73.949997 -7.650000
v -1.550000 82.050003 -7.200000
v -1.550000 82.500000 -7.650000
v -2.000000 82.050003 -7.650000
v -1.550000 73.500000 -8.350000
v -2.000000 73.949997 -8.350000
v -1.550000 73.949997 -8.800000
v -1.550000 82.500000 -8.350000
v -1.550000 82.050003 -8.800000
v -2.000000 82.050003 -8.350000
v 24.150000 73.500000 -7.650000
v 24.600000 73.949997 -7.650000
v 24.150000 73.949997 -7.200000
v 24.150000 82.500000 -7.650000
v 24.150000 82.050003 -7.200000
v 24.600000 82.050003 -7.650000
v 24.150000 73.500000 -8.350000
v 24.150000 73.949997 -8.800000
v 24.600000 73.949997 -8.350000
v 24.150000 82.500000 -8.350000
v 24.600000 82.050003 -8.350000
v 24.150000 82.050003 -8.800000
v 33.000000 73.500000 -1.043769
v 32.635941 73.949997 -1.335495
v 33.364059 73.949997 -1.335497
v 33.000000 82.500000 -1.043769
v 33.364059 82.050003 -1.335495
v 32.635941 82.050003 -1.335497
v 33.992683 73.500000 -0.322542
v 34.157631 73.949997 -0.758932
v 34.382633 73.949997 -0.066452
v 33.992683 82.500000 -0.322542
v 34.382633 82.050003 -0.066452
v 34.157631 82.050003 -0.758931
v 33.613514 73.500000 0.844427
v 34.079514 73.949997 0.866452
v 33.490456 73.949997 1.294427
v 33.613514 82.500000 0.844427
v 33.490456 82.050003 1.294427
v 34.079514 82.050003 0.866452
v 32.386486 73.500000 0.844427
v 32.509544 73.949997 1.294427
v 31.920486 73.949997 0.866452
v 32.386486 82.500000 0.844427
v 31.920486 82.050003 0.866452
v 32.509544 82.050003 1.294427
v 32.007317 73.500000 -0.322542
v 31.617367 73.949997 -0.066452
v 31.842367 73.949997 -0.758931
v 32.007317 82.500000 -0.322542
v 31.842367 82.050003 -0.758931
v 31.617367 82.050003 -0.066452
v -4.000000 46.650002 -8.550000
v -4.000000 49.349998 -8.550000
v 21.000000 36.500000 -1.043769
v 21.992683 36.500000 -0.322542
v 27.549999 46.200001 8.550000
v 28.000000 46.650002 -8.550000
v 21.613512 27.500000 0.844427
v -3.550000 49.799999 8.550000
v -3.550000 49.799999 -8.550000
v -4.000000 49.349998 8.550000
v 21.613512 36.500000 0.844427
v 27.549999 49.349998 -9.000000
v 20.386488 27.500000 0.844427
v -3.550000 46.650002 9.000000
v -3.550000 49.349998 9.000000
v -4.000000 46.650002 8.550000
v 20.386488 36.500000 0.844427
v 20.007317 27.500000 -0.322542
v -3.550000 46.200001 8.550000
v 20.007317 36.500000 -0.322542
v -1.550000 49.500000 7.650000
v -1.550000 49.500000 8.350000
v -2.000000 49.950001 8.350000
v -2.000000 49.950001 7.650000
v -1.550000 49.950001 8.800000
v -1.550000 58.049999 8.800000
v -2.000000 58.049999 8.350000
v -1.550000 58.500000 8.350000
v -1.550000 58.500000 7.650000
v -2.000000 58.049999 7.650000
v -1.550000 58.049999 7.200000
v -1.550000 49.950001 7.200000
v 19.949999 49.500000 7.650000
v 19.949999 49.950001 7.200000
v 19.949999 58.500000 7.650000
v 19.949999 58.049999 7.200000
v 20.400000 58.049999 7.650000
v 20.400000 49.950001 7.650000
v 19.949999 49.500000 8.350000
v 20.400000 49.950001 8.350000
v 19.949999 58.500000 8.350000
v 20.400000 58.049999 8.350000
v 19.949999 58.049999 8.800000
v 19.949999 49.950001 8.800000
v -1.550000 49.500000 -8.350000
v -1.550000 49.500000 -7.650000
v -2.000000 49.950001 -7.650000
v -2.000000 49.950001 -8.350000
v -1.550000 49.950001 -7.200000
v -1.550000 58.049999 -7.200000
v -2.000000 58.049999 -7.650000
v -1.550000 58.500000 -7.650000
v -1.550000 58.500000 -8.350000
v -2.000000 58.049999 -8.350000
v -1.550000 58.049999 -8.800000
v -1.550000 49.950001 -8.800000
v 19.949999 49.500000 -8.350000
v 19.949999 49.950001 -8.800000
v 19.949999 58.500000 -8.350000
v 19.949999 58.049999 -8.800000
v 20.400000 58.049999 -8.350000
v 20.400000 49.950001 -8.350000
v 19.949999 49.500000 -7.650000
v 20.400000 49.950001 -7.650000
v 19.949999 58.500000 -7.650000
v 20.400000 58.049999 -7.650000
v 19.949999 58.049999 -7.200000
v 19.949999 49.950001 -7.200000
v 33.549999 73.350006 9.000000
v 33.549999 70.649994 9.000000
v 34.000000 70.649994 8.550000
v 34.000000 73.350006 8.550000
v 33.549999 73.800003 -8.550000
v 33.549999 73.800003 8.550000
v 34.000000 73.350006 -8.550000
v 27.992683 49.500000 -0.322542
v 27.000000 49.500000 -1.043769
v 33.549999 70.199997 -8.550000
v -3.550000 70.199997 -8.550000
v -3.550000 70.649994 -9.000000
v 33.549999 70.649994 -9.000000
v -3.550000 73.350006 -9.000000
v -4.000000 70.649994 -8.550000
v -4.000000 73.350006 -8.550000
v 27.000000 58.500000 -1.043769
v 27.992683 58.500000 -0.322542
v 33.549999 70.199997 8.550000
v 34.000000 70.649994 -8.550000
v 27.613512 49.500000 0.844427
v -3.550000 73.800003 8.550000
v -3.550000 73.800003 -8.550000
v -4.000000 73.350006 8.550000
v 27.613512 58.500000 0.844427
v 33.549999 73.350006 -9.000000
v 26.386488 49.500000 0.844427
v -3.550000 70.649994 9.000000
v -3.550000 73.350006 9.000000
v -4.000000 70.649994 8.550000
v 26.386488 58.500000 0.844427
v 26.007317 49.500000 -0.322542
v -3.550000 70.199997 8.550000
v 26.007317 58.500000 -0.322542
v -1.550000 73.500000 7.650000
v -1.550000 73.500000 8.350000
v -2.000000 73.949997 8.350000
v -2.000000 73.949997 7.650000
v -1.550000 73.949997 8.800000
v -1.550000 82.050003 8.800000
v -2.000000 82.050003 8.350000
v -1.550000 82.500000 8.350000
v -1.550000 82.500000 7.650000
v -2.000000 82.050003 7.650000
v -1.550000 82.050003 7.200000
v -1.550000 73.949997 7.200000
v 24.150000 73.500000 7.650000
v 24.150000 73.949997 7.200000
v 24.150000 82.500000 7.650000
v 24.150000 82.050003 7.200000
v 24.600000 82.050003 7.650000
v 24.600000 73.949997 7.650000
v 24.150000 73.500000 8.350000
v 24.600000 73.949997 8.350000
v 24.150000 82.500000 8.350000
v 24.600000 82.050003 8.350000
v 24.150000 82.050003 8.800000
v 24.150000 73.949997 8.800000
v -1.550000 73.500000 -8.350000
v -1.550000 73.500000 -7.650000
v -2.000000 73.949997 -7.650000
v -2.000000 73.949997 -8.350000
v -1.550000 73.949997 -7.200000
v -1.550000 82.050003 -7.200000
v -2.000000 82.050003 -7.650000
v -1.550000 82.500000 -7.650000
v -1.550000 82.500000 -8.350000
v -2.000000 82.050003 -8.350000
v -1.550000 82.050003 -8.800000
v -1.550000 73.949997 -8.800000
v 24.150000 73.500000 -8.350000
v 24.150000 73.949997 -8.800000
v 24.150000 82.500000 -8.350000
v 24.150000 82.050003 -8.800000
v 24.600000 82.050003 -8.350000
v 24.600000 73.949997 -8.350000
v 24.150000 73.500000 -7.650000
v 24.600000 73.949997 -7.650000
v 24.150000 82.500000 -7.650000
v 24.600000 82.050003 -7.650000
v 24.150000 82.050003 -7.200000
v 24.150000 73.949997 -7.200000
v 33.992683 73.500000 -0.322542
v 33.000000 73.500000 -1.043769
v 33.000000 82.500000 -1.043769
v 33.992683 82.500000 -0.322542
v 33.613514 73.500000 0.844427
v 33.613514 82.500000 0.844427
v 32.386486 73.500000 0.844427
v 32.386486 82.500000 0.844427
v 32.007317 73.500000 -0.322542
v 32.007317 82.500000 -0.322542
vn -0.4606 0.4606 -0.7588
vn 0.4606 -0.4606 -0.7588
vn -0.4606 -0.4606 -0.7588
vn -0.4606 -0.7588 -0.4606
vn 0.4606 -0.7588 -0.4606
vn -0.0000 -0.7099 -0.7043
vn 0.6698 -0.7099 -0.2176
vn 0.7588 0.4606 -0.4606
vn 0.4606 0.7588 0.4606
vn 0.4606 0.7588 -0.4606
vn 0.7588 0.4606 0.4606
vn 0.7588 -0.4606 0.4606
vn 0.4606 -0.4606 0.7588
vn 0.4606 0.4606 0.7588
vn 0.4606 -0.7588 0.4606
vn 0.7588 -0.4606 -0.4606
vn 0.4606 0.4606 -0.7588
vn -0.7588 0.4606 -0.4606
vn -0.4606 0.7588 -0.4606
vn -0.4606 0.7588 0.4606
vn -0.7588 0.4606 0.4606
vn -0.4606 0.4606 0.7588
vn -0.4606 -0.4606 0.7588
vn -0.7588 -0.4606 -0.4606
vn -0.7588 -0.4606 0.4606
vn -0.4606 -0.7588 0.4606
vn -0.0000 -0.0000 1.0000
vn -0.0000 -1.0000 -0.0000
vn -1.0000 -0.0000 -0.0000
vn -0.0000 1.0000 -0.0000
vn -0.0000 -0.0000 -1.0000
vn 1.0000 -0.0000 -0.0000
vn -0.3147 -0.3376 -0.8871
vn 0.3147 -0.3376 -0.8871
vn 0.3147 0.3376 -0.8871
vn -0.3147 0.3376 -0.8871
vn 0.7465 -0.3376 -0.5734
vn 0.9410 -0.3376 0.0251
vn 0.9410 0.3376 0.0251
vn 0.7465 0.3376 -0.5734
vn 0.7760 -0.3376 0.5327
vn 0.2669 -0.3376 0.9027
vn 0.2669 0.3376 0.9027
vn 0.7760 0.3376 0.5327
vn -0.2669 -0.3376 0.9027
vn -0.7760 -0.3376 0.5327
vn -0.7760 0.3376 0.5327
vn -0.2669 0.3376 0.9027
vn -0.9410 -0.3376 0.0252
vn -0.7465 -0.3376 -0.5734
vn -0.7465 0.3376 -0.5734
vn -0.9410 0.3376 0.0251
vn -0.9410 -0.3376 0.0251
vn -0.0000 0.7099 -0.7043
vn 0.6698 0.7099 -0.2176
vn 0.4140 -0.7099 0.5698
vn 0.4140 0.7099 0.5698
vn -0.4140 -0.7099 0.5698
vn -0.4140 0.7099 0.5698
vn -0.6698 -0.7099 -0.2176
vn -0.6698 0.7099 -0.2176
vt 0.427500 0.377500
vt 0.450000 0.377500
vt 0.427500 0.400000
vt -0.427500 0.377500
vt -0.427500 0.400000
vt -0.450000 0.377500
vt -0.177500 1.210000
vt -0.177500 1.232500
vt -0.200000 1.232500
vt 0.377500 0.000000
vt 0.377500 0.022500
vt 0.400000 0.022500
vt 0.427500 -0.377500
vt 0.427500 -0.400000
vt 0.450000 -0.377500
vt -0.427500 -0.400000
vt -0.427500 -0.377500
vt -0.450000 -0.377500
vt -0.377500 0.000000
vt -0.400000 0.022500
vt -0.377500 0.022500
vt -0.177500 1.367500
vt -0.177500 1.390000
vt -0.200000 1.367500
vt 1.077500 1.210000
vt 1.100000 1.232500
vt 1.077500 1.232500
vt 1.077500 1.390000
vt 1.077500 1.367500
vt 1.100000 1.367500
vt -0.077500 1.375000
vt -0.077500 1.397500
vt -0.100000 1.397500
vt -0.077500 1.802500
vt -0.077500 1.825000
vt -0.100000 1.802500
vt -0.417500 1.375000
vt -0.417500 1.397500
vt -0.440000 1.397500
vt -0.417500 1.825000
vt -0.440000 1.802500
vt -0.417500 1.802500
vt -0.382500 1.375000
vt -0.360000 1.397500
vt -0.382500 1.397500
vt -0.382500 1.825000
vt -0.382500 1.802500
vt -0.360000 1.802500
vt 0.382500 1.375000
vt 0.382500 1.397500
vt 0.360000 1.397500
vt 0.382500 1.825000
vt 0.360000 1.802500
vt 0.382500 1.802500
vt 0.417500 1.375000
vt 0.440000 1.397500
vt 0.417500 1.397500
vt 0.417500 1.825000
vt 0.417500 1.802500
vt 0.440000 1.802500
vt -0.177500 2.467500
vt -0.177500 2.490000
vt -0.200000 2.467500
vt -0.177500 2.310000
vt -0.177500 2.332500
vt -0.200000 2.332500
vt 1.050000 1.375000
vt 1.031797 1.397500
vt 1.068203 1.397500
vt 1.050000 1.825000
vt 1.068203 1.802500
vt 1.031797 1.802500
vt 0.016127 1.375000
vt 0.037947 1.397500
vt 0.003323 1.397500
vt 0.016127 1.825000
vt 0.003323 1.802500
vt 0.037947 1.802500
vt 1.080676 1.375000
vt 1.103976 1.397500
vt 1.074523 1.397500
vt 1.080676 1.825000
vt 1.074523 1.802500
vt 1.103976 1.802500
vt 1.019324 1.375000
vt 1.025477 1.397500
vt 0.996024 1.397500
vt 1.019324 1.825000
vt 0.996024 1.802500
vt 1.025477 1.802500
vt 0.003323 1.397500
vt 0.003323 1.802500
vt 1.377500 2.310000
vt 1.400000 2.332500
vt 1.377500 2.332500
vt 1.377500 2.490000
vt 1.377500 2.467500
vt 1.400000 2.467500
vt -0.077500 2.475000
vt -0.077500 2.497500
vt -0.100000 2.497500
vt -0.077500 2.902500
vt -0.077500 2.925000
vt -0.100000 2.902500
vt 0.997500 2.475000
vt 1.020000 2.497500
vt 0.997500 2.497500
vt 0.997500 2.925000
vt 0.997500 2.902500
vt 1.020000 2.902500
vt -0.177500 -0.450000
vt -0.177500 -0.427500
vt -0.200000 -0.427500
vt 1.350000 2.475000
vt 1.331797 2.497500
vt 1.368203 2.497500
vt 1.350000 2.925000
vt 1.368203 2.902500
vt 1.331797 2.902500
vt 0.016127 2.475000
vt 0.037947 2.497500
vt 0.003323 2.497500
vt 0.016127 2.925000
vt 0.003323 2.902500
vt 0.037947 2.902500
vt 1.380676 2.475000
vt 1.403976 2.497500
vt 1.374523 2.497500
vt 1.380676 2.925000
vt 1.374523 2.902500
vt 1.403976 2.902500
vt 1.319324 2.475000
vt 1.325477 2.497500
vt 1.296024 2.497500
vt 1.319324 2.925000
vt 1.296024 2.902500
vt 1.325477 2.902500
vt 0.003323 2.497500
vt 0.003323 2.902500
vt -0.177500 0.427500
vt -0.200000 0.427500
vt -0.177500 0.450000
vt 1.677500 -0.427500
vt 1.700000 -0.427500
vt 1.677500 -0.450000
vt 1.677500 0.427500
vt 1.677500 0.450000
vt 1.700000 0.427500
vt -0.077500 -0.417500
vt -0.077500 -0.440000
vt -0.100000 -0.417500
vt -0.077500 -0.382500
vt -0.100000 -0.382500
vt -0.077500 -0.360000
vt 1.207500 -0.417500
vt 1.230000 -0.417500
vt 1.207500 -0.440000
vt 1.207500 -0.382500
vt 1.207500 -0.360000
vt 1.230000 -0.382500
vt -0.077500 0.382500
vt -0.077500 0.360000
vt -0.100000 0.382500
vt -0.077500 0.417500
vt -0.100000 0.417500
vt -0.077500 0.440000
vt 1.207500 0.382500
vt 1.230000 0.382500
vt 1.207500 0.360000
vt 1.207500 0.417500
vt 1.207500 0.440000
vt 1.230000 0.417500
vt 1.650000 3.675000
vt 1.631797 3.697500
vt 1.668203 3.697500
vt 1.650000 4.125000
vt 1.668203 4.102500
vt 1.631797 4.102500
vt 0.016127 3.675000
vt 0.037947 3.697500
vt 0.003323 3.697500
vt 0.016127 4.125000
vt 0.003323 4.102500
vt 0.037947 4.102500
vt 1.680676 3.675000
vt 1.703976 3.697500
vt 1.674523 3.697500
vt 1.680676 4.125000
vt 1.674523 4.102500
vt 1.703976 4.102500
vt 1.619324 3.675000
vt 1.625477 3.697500
vt 1.596024 3.697500
vt 1.619324 4.125000
vt 1.596024 4.102500
vt 1.625477 4.102500
vt 0.003323 3.697500
vt 0.037947 3.697500
vt 0.003323 4.102500
vt -0.400000 4.077500
vt 0.377500 4.077500
vt 0.400000 4.077500
vt -0.427500 0.000000
vt 0.427500 0.022500
vt 0.427500 0.000000
vt -0.377500 4.077500
vt -0.427500 0.022500
vt -0.427500 1.210000
vt 0.427500 1.232500
vt 0.427500 1.210000
vt 0.427500 1.390000
vt -0.427500 1.367500
vt -0.427500 1.390000
vt 1.077500 0.427500
vt 1.100000 -0.427500
vt 1.077500 -0.427500
vt 1.100000 0.427500
vt 0.787500 1.397500
vt 0.787500 1.375000
vt 0.787500 1.825000
vt 0.787500 1.802500
vt 1.377500 -0.427500
vt 1.400000 0.427500
vt 1.377500 0.427500
vt 1.107882 0.037947
vt 1.050000 0.052188
vt 1.068203 0.066775
vt 1.099634 0.016127
vt 1.400000 -0.427500
vt 1.103976 -0.043323
vt 1.119132 0.003323
vt 0.427500 2.490000
vt -0.427500 2.467500
vt -0.427500 2.490000
vt 1.103976 -0.043323
vt 1.080676 -0.042221
vt 0.996024 -0.043323
vt 1.000366 0.016127
vt 1.019324 -0.042221
vt -0.427500 2.310000
vt 0.427500 2.332500
vt 0.427500 2.310000
vt 0.996024 -0.043323
vt 0.980868 0.003323
vt 0.992118 0.037947
vt 1.031797 0.066775
vt -0.417500 2.475000
vt -0.382500 2.497500
vt -0.382500 2.475000
vt -0.382500 2.925000
vt -0.417500 2.902500
vt -0.417500 2.925000
vt 0.997500 -0.382500
vt 1.020000 -0.417500
vt 0.997500 -0.417500
vt 1.020000 -0.382500
vt 0.382500 2.475000
vt 0.417500 2.497500
vt 0.417500 2.475000
vt 0.417500 2.925000
vt 0.382500 2.902500
vt 0.382500 2.925000
vt 0.997500 0.417500
vt 1.020000 0.382500
vt 0.997500 0.382500
vt 1.020000 0.417500
vt 1.677500 3.532500
vt 1.700000 3.667500
vt 1.677500 3.667500
vt 1.407882 0.037947
vt 1.350000 0.052188
vt 1.368203 0.066775
vt -0.177500 3.532500
vt -0.200000 3.667500
vt -0.177500 3.667500
vt 1.399634 0.016127
vt 1.419132 0.003323
vt 1.380676 -0.042221
vt 1.419132 0.003323
vt 1.403976 -0.043323
vt 1.700000 3.532500
vt -0.200000 3.532500
vt 1.296024 -0.043323
vt 1.300366 0.016127
vt 1.319324 -0.042221
vt 1.280868 0.003323
vt 1.292118 0.037947
vt 1.331797 0.066775
vt -0.077500 4.102500
vt -0.100000 3.697500
vt -0.077500 3.697500
vt -0.100000 4.102500
vt 1.230000 3.697500
vt 1.207500 4.102500
vt 1.230000 4.102500
vt 1.207500 3.697500
vt 1.707882 0.037947
vt 1.650000 0.052188
vt 1.668203 0.066775
vt 1.707882 0.037947
vt 1.699634 0.016127
vt 1.719132 0.003323
vt 1.680676 -0.042221
vt 1.719132 0.003323
vt 1.703976 -0.043323
vt 1.625477 -0.064721
vt 1.674523 -0.064721
vt 1.619324 -0.042221
vt 1.580868 0.003323
vt 1.596024 -0.043323
vt 1.596024 -0.043323
vt 1.600366 0.016127
vt 1.580868 0.003323
vt 1.592118 0.037947
vt 1.631797 0.066775
vt 0.427500 4.077500
vt -0.427500 4.077500
vt -0.427500 1.232500
vt 0.427500 1.367500
vt 0.787500 -0.382500
vt -0.077500 -0.417500
vt -0.077500 -0.382500
vt 0.787500 -0.417500
vt 0.787500 0.417500
vt -0.077500 0.382500
vt -0.077500 0.417500
vt 0.787500 0.382500
vt -0.427500 2.332500
vt 1.107882 1.397500
vt 0.992118 1.802500
vt 0.992118 1.397500
vt -0.043323 1.397500
vt -0.043323 1.802500
vt -0.043323 1.397500
vt 0.427500 2.467500
vt -0.417500 2.497500
vt -0.382500 2.902500
vt 0.382500 2.497500
vt 0.417500 2.902500
vt -0.427500 3.667500
vt 0.427500 3.532500
vt -0.427500 3.532500
vt 1.407882 2.497500
vt 1.292118 2.902500
vt 1.292118 2.497500
vt -0.043323 2.497500
vt -0.043323 2.902500
vt -0.043323 2.497500
vt 0.427500 3.667500
vt -0.417500 4.102500
vt -0.382500 3.697500
vt -0.417500 3.697500
vt -0.382500 4.102500
vt 0.382500 4.102500
vt 0.417500 3.697500
vt 0.382500 3.697500
vt 0.417500 4.102500
vt 1.707882 3.697500
vt 1.592118 4.102500
vt 1.592118 3.697500
vt -0.043323 3.697500
vt -0.043323 4.102500
vt -0.043323 3.697500
vt 1.119132 0.003323
vt 0.980868 0.003323
vt 1.403976 -0.043323
vt 1.280868 0.003323
vt 1.296024 -0.043323
vt 1.668203 0.066775
vt 1.703976 -0.043323
vt 1.631797 0.066775
vt 1.107882 1.802500
vt -0.043323 1.802500
vt 1.407882 2.902500
vt -0.043323 2.902500
vt 1.707882 4.102500
vt -0.043323 4.102500
s 1
f 96/1/10 94/2/8 95/3/17
f 104/4/19 100/5/1 103/6/18
f 85/7/26 82/8/23 84/9/25
f 112/10/4 109/11/24 99/12/3
f 90/13/9 88/14/14 89/15/11
f 107/16/22 105/17/20 106/18/21
f 111/19/26 108/20/23 110/21/25
f 98/10/5 97/12/2 93/11/16
f 92/19/15 91/21/12 87/20/13
f 81/22/22 79/23/20 80/24/21
f 86/7/4 83/9/24 75/8/3
f 78/23/19 76/22/1 77/24/18
f 68/25/15 67/26/12 63/27/13
f 66/28/9 64/29/14 65/30/11
f 74/25/5 73/27/2 69/26/16
f 72/28/10 70/30/8 71/29/17
f 61/31/26 58/32/23 60/33/25
f 57/34/22 55/35/20 56/36/21
f 62/31/4 59/33/24 51/32/3
f 54/35/19 52/34/1 53/36/18
f 44/37/15 43/38/12 39/39/13
f 42/40/9 40/41/14 41/42/11
f 50/43/5 49/44/2 45/45/16
f 48/46/10 46/47/8 47/48/17
f 37/31/26 34/32/23 36/33/25
f 33/34/22 31/35/20 32/36/21
f 38/31/4 35/33/24 27/32/3
f 30/35/19 28/34/1 29/36/18
f 20/49/15 19/50/12 15/51/13
f 18/52/9 16/53/14 17/54/11
f 26/55/5 25/56/2 21/57/16
f 24/58/10 22/59/8 23/60/17
f 455/61/22 448/62/20 450/63/21
f 459/64/26 454/65/23 456/66/25
f 6/67/6 214/68/33 215/69/34
f 443/70/54 217/71/35 218/72/36
f 7/73/7 220/74/37 221/75/38
f 444/76/55 223/77/39 224/78/40
f 447/79/56 226/80/41 227/81/42
f 451/82/57 229/83/43 230/84/44
f 453/85/58 232/86/45 233/87/46
f 457/88/59 235/89/47 236/90/48
f 458/73/60 238/91/49 239/74/50
f 460/76/61 241/78/51 242/92/52
f 4/64/4 441/66/24 3/65/3
f 449/62/19 1/61/1 442/63/18
f 445/93/15 12/94/12 13/95/13
f 9/96/9 14/97/14 11/98/11
f 5/93/5 2/95/2 446/94/16
f 10/96/10 8/98/8 452/97/17
f 462/99/26 465/100/23 463/101/25
f 466/102/22 468/103/20 467/104/21
f 461/99/4 464/101/24 472/100/3
f 469/103/19 471/102/1 470/104/18
f 479/105/15 480/106/12 484/107/13
f 481/108/9 483/109/14 482/110/11
f 473/105/5 474/107/2 478/106/16
f 475/108/10 477/110/8 476/109/17
f 486/99/26 489/100/23 487/101/25
f 490/102/22 492/103/20 491/104/21
f 485/99/4 488/101/24 496/100/3
f 493/103/19 495/102/1 494/104/18
f 503/105/15 504/106/12 508/107/13
f 505/108/9 507/109/14 506/110/11
f 497/105/5 498/107/2 502/106/16
f 499/108/10 501/110/8 500/109/17
f 537/111/22 530/112/20 532/113/21
f 541/112/26 536/111/23 538/113/25
f 517/114/6 316/115/33 317/116/34
f 525/117/54 319/118/35 320/119/36
f 516/120/7 322/121/37 323/122/38
f 526/123/55 325/124/39 326/125/40
f 529/126/56 328/127/41 329/128/42
f 533/129/57 331/130/43 332/131/44
f 535/132/58 334/133/45 335/134/46
f 539/135/59 337/136/47 338/137/48
f 540/120/60 340/138/53 341/121/50
f 542/123/61 343/125/51 344/139/52
f 519/140/4 523/141/24 520/142/3
f 531/140/19 522/142/1 524/141/18
f 527/143/15 511/144/12 510/145/13
f 514/143/9 509/145/14 512/144/11
f 518/146/5 521/147/2 528/148/16
f 513/146/10 515/148/8 534/147/17
f 544/149/26 547/150/23 545/151/25
f 548/150/22 550/149/20 549/151/21
f 543/152/4 546/153/24 554/154/3
f 551/152/19 553/154/1 552/153/18
f 561/155/15 562/156/12 566/157/13
f 563/155/9 565/157/14 564/156/11
f 555/158/5 556/159/2 560/160/16
f 557/158/10 559/160/8 558/159/17
f 568/161/26 571/162/23 569/163/25
f 572/162/22 574/161/20 573/163/21
f 567/164/4 570/165/24 578/166/3
f 575/164/19 577/166/1 576/165/18
f 585/167/15 586/168/12 590/169/13
f 587/167/9 589/169/14 588/168/11
f 579/170/5 580/171/2 584/172/16
f 581/170/10 583/172/8 582/171/17
f 592/173/6 412/174/33 413/175/34
f 593/176/54 415/177/35 416/178/36
f 591/179/7 418/180/37 419/181/38
f 594/182/55 421/183/39 422/184/40
f 595/185/56 424/186/41 425/187/42
f 596/188/57 427/189/43 428/190/44
f 597/191/58 430/192/45 431/193/46
f 598/194/59 433/195/47 434/196/48
f 599/179/60 436/197/53 437/198/50
f 600/182/61 439/184/51 440/199/52
f 111/19/26 109/11/24 112/10/4
f 107/200/22 110/21/25 108/20/23
f 104/4/19 106/18/21 105/17/20
f 99/12/3 103/201/18 100/202/1
f 112/203/4 97/204/2 98/205/5
f 96/1/10 100/5/1 104/4/19
f 93/11/16 95/202/17 94/201/8
f 98/10/5 91/21/12 92/19/15
f 90/13/9 94/2/8 96/1/10
f 87/20/13 89/206/11 88/200/14
f 92/205/15 108/207/23 111/203/26
f 105/17/20 88/14/14 90/13/9
f 85/208/26 83/209/24 86/210/4
f 81/22/22 84/9/25 82/8/23
f 78/211/19 80/212/21 79/213/20
f 75/8/3 77/24/18 76/22/1
f 86/7/4 73/27/2 74/25/5
f 72/28/10 76/22/1 78/23/19
f 69/26/16 71/29/17 70/30/8
f 74/214/5 67/215/12 68/216/15
f 66/216/9 70/217/8 72/214/10
f 63/27/13 65/30/11 64/29/14
f 68/25/15 82/8/23 85/7/26
f 79/23/20 64/29/14 66/28/9
f 61/37/26 59/45/24 62/43/4
f 57/34/22 60/33/25 58/32/23
f 54/46/19 56/42/21 55/40/20
f 51/32/3 53/36/18 52/34/1
f 62/31/4 49/218/2 50/219/5
f 48/220/10 52/34/1 54/35/19
f 45/45/16 47/48/17 46/47/8
f 50/43/5 43/38/12 44/37/15
f 42/40/9 46/47/8 48/46/10
f 39/39/13 41/42/11 40/41/14
f 44/219/15 58/32/23 61/31/26
f 55/35/20 40/221/14 42/220/9
f 37/49/26 35/57/24 38/55/4
f 33/34/22 36/33/25 34/32/23
f 30/58/19 32/54/21 31/52/20
f 27/32/3 29/36/18 28/34/1
f 38/31/4 25/218/2 26/219/5
f 24/220/10 28/34/1 30/35/19
f 21/57/16 23/60/17 22/59/8
f 26/55/5 19/50/12 20/49/15
f 18/52/9 22/59/8 24/58/10
f 15/51/13 17/54/11 16/53/14
f 20/219/15 34/32/23 37/31/26
f 31/35/20 16/221/14 18/220/9
f 13/95/13 11/98/11 14/97/14
f 9/222/9 8/223/8 10/224/10
f 220/225/37 6/226/6 215/227/34
f 4/64/4 2/95/2 5/93/5
f 3/65/3 442/63/18 1/61/1
f 217/227/35 444/228/55 224/225/40
f 218/72/36 215/69/34 214/68/33
f 221/75/38 224/78/40 223/77/39
f 5/224/5 12/229/12 445/222/15
f 226/230/41 7/228/7 221/231/38
f 449/232/19 450/233/21 448/234/20
f 230/235/44 444/228/55 451/236/57
f 227/81/42 230/84/44 229/83/43
f 446/94/16 452/97/17 8/98/8
f 232/86/45 447/79/56 227/81/42
f 455/61/22 456/66/25 454/65/23
f 229/83/43 457/88/59 236/90/48
f 233/87/46 236/90/48 235/89/47
f 10/96/10 1/61/1 449/62/19
f 233/237/46 458/238/60 453/239/58
f 459/240/26 441/241/24 4/242/4
f 235/243/47 460/238/61 242/244/52
f 239/74/50 242/92/52 241/78/51
f 239/245/50 6/226/6 458/238/60
f 241/245/51 443/226/54 218/246/36
f 445/93/15 454/65/23 459/64/26
f 448/62/20 14/97/14 9/96/9
f 462/247/26 464/248/24 461/249/4
f 466/102/22 463/101/25 465/100/23
f 469/250/19 467/251/21 468/252/20
f 472/100/3 470/104/18 471/102/1
f 461/99/4 474/107/2 473/105/5
f 475/108/10 471/102/1 469/103/19
f 478/106/16 476/109/17 477/110/8
f 473/253/5 480/254/12 479/255/15
f 481/255/9 477/256/8 475/253/10
f 484/107/13 482/110/11 483/109/14
f 479/105/15 465/100/23 462/99/26
f 468/103/20 483/109/14 481/108/9
f 486/257/26 488/258/24 485/259/4
f 490/102/22 487/101/25 489/100/23
f 493/260/19 491/261/21 492/262/20
f 496/100/3 494/104/18 495/102/1
f 485/99/4 498/107/2 497/105/5
f 499/108/10 495/102/1 493/103/19
f 502/106/16 500/109/17 501/110/8
f 497/263/5 504/264/12 503/265/15
f 505/265/9 501/266/8 499/263/10
f 508/107/13 506/110/11 507/109/14
f 503/105/15 489/100/23 486/99/26
f 492/103/20 507/109/14 505/108/9
f 510/267/13 512/268/11 509/269/14
f 514/143/9 515/148/8 513/146/10
f 322/270/37 517/271/6 317/272/34
f 519/140/4 521/147/2 518/146/5
f 520/273/3 524/274/18 522/275/1
f 319/272/35 526/276/55 326/270/40
f 320/119/36 317/116/34 316/115/33
f 323/122/38 326/125/40 325/124/39
f 518/146/5 511/144/12 527/143/15
f 323/277/38 529/278/56 516/276/7
f 531/140/19 532/113/21 530/112/20
f 325/279/39 533/278/57 332/280/44
f 329/128/42 332/131/44 331/130/43
f 528/281/16 534/269/17 515/268/8
f 334/133/45 529/126/56 329/128/42
f 537/275/22 538/282/25 536/273/23
f 331/130/43 539/135/59 338/137/48
f 335/134/46 338/137/48 337/136/47
f 513/146/10 522/142/1 531/140/19
f 335/283/46 540/284/60 535/285/58
f 541/112/26 523/141/24 519/140/4
f 344/286/52 539/285/59 542/284/61
f 341/121/50 344/139/52 343/125/51
f 341/287/50 517/271/6 540/284/60
f 343/287/51 525/271/54 320/288/36
f 527/143/15 536/111/23 541/112/26
f 530/112/20 509/145/14 514/143/9
f 544/149/26 546/153/24 543/152/4
f 548/289/22 545/290/25 547/291/23
f 551/152/19 549/151/21 550/149/20
f 554/291/3 552/292/18 553/289/1
f 543/152/4 556/159/2 555/158/5
f 557/158/10 553/154/1 551/152/19
f 560/293/16 558/294/17 559/295/8
f 555/158/5 562/156/12 561/155/15
f 563/155/9 559/160/8 557/158/10
f 566/296/13 564/295/11 565/294/14
f 561/155/15 547/150/23 544/149/26
f 550/149/20 565/157/14 563/155/9
f 568/161/26 570/165/24 567/164/4
f 572/289/22 569/290/25 571/291/23
f 575/164/19 573/163/21 574/161/20
f 578/291/3 576/292/18 577/289/1
f 567/164/4 580/171/2 579/170/5
f 581/170/10 577/166/1 575/164/19
f 584/293/16 582/294/17 583/295/8
f 579/170/5 586/168/12 585/167/15
f 587/167/9 583/172/8 581/170/10
f 590/296/13 588/295/11 589/294/14
f 585/167/15 571/162/23 568/161/26
f 574/161/20 589/169/14 587/167/9
f 418/297/37 592/298/6 413/299/34
f 422/300/40 593/298/54 594/301/55
f 416/178/36 413/175/34 412/174/33
f 419/181/38 422/184/40 421/183/39
f 419/302/38 595/303/56 591/301/7
f 421/304/39 596/303/57 428/305/44
f 425/187/42 428/190/44 427/189/43
f 430/306/45 595/303/56 425/307/42
f 427/307/43 598/308/59 434/306/48
f 431/193/46 434/196/48 433/195/47
f 436/309/53 597/308/58 431/310/46
f 433/311/47 600/312/61 440/313/52
f 437/198/50 440/199/52 439/184/51
f 437/314/50 592/298/6 599/312/60
f 439/314/51 593/298/54 416/315/36
f 129/1/28 102/17/28 117/4/28
f 116/206/29 118/11/29 113/21/29
f 127/316/27 101/207/27 125/204/27
f 120/4/30 126/13/30 132/1/30
f 121/317/31 130/204/31 119/207/31
f 133/201/32 124/21/32 131/11/32
f 153/214/28 135/112/28 141/140/28
f 140/212/29 142/209/29 137/318/29
f 151/29/27 136/8/27 149/27/27
f 144/140/30 150/216/30 156/214/30
f 145/22/31 154/27/31 143/8/31
f 157/319/32 148/318/32 155/209/32
f 177/320/28 159/321/28 165/322/28
f 164/42/29 166/45/29 161/38/29
f 175/221/27 160/32/27 173/218/27
f 168/322/30 174/323/30 180/320/30
f 169/34/31 178/218/31 167/32/31
f 181/47/32 172/38/32 179/45/32
f 201/324/28 183/325/28 189/326/28
f 188/54/29 190/57/29 185/50/29
f 199/221/27 184/32/27 197/218/27
f 192/326/30 198/327/30 204/324/30
f 193/34/31 202/218/31 191/32/31
f 205/59/32 196/50/32 203/57/32
f 253/97/27 211/65/27 251/95/27
f 209/233/29 244/241/29 212/328/29
f 246/140/30 252/222/30 258/224/30
f 255/224/28 210/112/28 243/140/28
f 219/228/28 231/239/28 237/238/28
f 217/71/35 220/329/37 215/69/34
f 241/330/51 214/68/33 239/331/50
f 216/226/30 234/239/30 228/236/30
f 223/77/39 226/332/41 221/75/38
f 229/83/43 232/86/45 227/81/42
f 235/333/47 238/91/49 233/334/46
f 247/61/31 256/95/31 245/65/31
f 259/335/32 250/328/32 257/241/32
f 279/253/28 261/149/28 267/152/28
f 266/251/29 268/248/29 263/336/29
f 277/109/27 262/100/27 275/107/27
f 270/152/30 276/255/30 282/253/30
f 271/102/31 280/107/31 269/100/31
f 283/337/32 274/336/32 281/248/32
f 303/263/28 285/161/28 291/164/28
f 290/261/29 292/258/29 287/338/29
f 301/109/27 286/100/27 299/107/27
f 294/164/30 300/265/30 306/263/30
f 295/102/31 304/107/31 293/100/31
f 307/339/32 298/338/32 305/258/32
f 355/269/27 313/273/27 353/267/27
f 311/340/29 346/341/29 314/342/29
f 348/140/30 354/143/30 360/146/30
f 357/146/28 312/112/28 345/140/28
f 321/276/28 333/285/28 339/284/28
f 319/118/35 322/343/37 317/116/34
f 343/344/51 316/115/33 341/345/50
f 318/271/30 336/285/30 330/278/30
f 325/124/39 328/346/41 323/122/38
f 331/130/43 334/133/45 329/128/42
f 337/347/47 340/138/53 335/348/46
f 349/275/31 358/267/31 347/273/31
f 361/349/32 352/342/32 359/341/32
f 381/158/28 363/149/28 369/152/28
f 368/350/29 370/351/29 365/352/29
f 379/294/27 364/291/27 377/296/27
f 372/152/30 378/155/30 384/158/30
f 373/289/31 382/296/31 371/291/31
f 385/353/32 376/352/32 383/351/32
f 405/170/28 387/161/28 393/164/28
f 392/354/29 394/355/29 389/356/29
f 403/294/27 388/291/27 401/296/27
f 396/164/30 402/167/30 408/170/30
f 397/289/31 406/296/31 395/291/31
f 409/357/32 400/356/32 407/355/32
f 417/301/28 429/308/28 435/312/28
f 415/177/35 418/358/37 413/175/34
f 439/359/51 412/174/33 437/360/50
f 414/298/30 432/308/30 426/303/30
f 421/183/39 424/361/41 419/181/38
f 427/189/43 430/192/45 425/187/42
f 433/362/47 436/197/53 431/363/46
f 111/19/26 110/21/25 109/11/24
f 107/200/22 106/206/21 110/21/25
f 104/4/19 103/6/18 106/18/21
f 99/12/3 109/11/24 103/201/18
f 112/203/4 99/207/3 97/204/2
f 96/1/10 95/3/17 100/5/1
f 93/11/16 97/12/2 95/202/17
f 98/10/5 93/11/16 91/21/12
f 90/13/9 89/15/11 94/2/8
f 87/20/13 91/21/12 89/206/11
f 92/205/15 87/204/13 108/207/23
f 105/17/20 107/16/22 88/14/14
f 85/208/26 84/318/25 83/209/24
f 81/22/22 80/24/21 84/9/25
f 78/211/19 77/319/18 80/212/21
f 75/8/3 83/9/24 77/24/18
f 86/7/4 75/8/3 73/27/2
f 72/28/10 71/29/17 76/22/1
f 69/26/16 73/27/2 71/29/17
f 74/214/5 69/217/16 67/215/12
f 66/216/9 65/215/11 70/217/8
f 63/27/13 67/26/12 65/30/11
f 68/25/15 63/27/13 82/8/23
f 79/23/20 81/22/22 64/29/14
f 61/37/26 60/38/25 59/45/24
f 57/34/22 56/36/21 60/33/25
f 54/46/19 53/47/18 56/42/21
f 51/32/3 59/33/24 53/36/18
f 62/31/4 51/32/3 49/218/2
f 48/220/10 47/221/17 52/34/1
f 45/45/16 49/44/2 47/48/17
f 50/43/5 45/45/16 43/38/12
f 42/40/9 41/42/11 46/47/8
f 39/39/13 43/38/12 41/42/11
f 44/219/15 39/218/13 58/32/23
f 55/35/20 57/34/22 40/221/14
f 37/49/26 36/50/25 35/57/24
f 33/34/22 32/36/21 36/33/25
f 30/58/19 29/59/18 32/54/21
f 27/32/3 35/33/24 29/36/18
f 38/31/4 27/32/3 25/218/2
f 24/220/10 23/221/17 28/34/1
f 21/57/16 25/56/2 23/60/17
f 26/55/5 21/57/16 19/50/12
f 18/52/9 17/54/11 22/59/8
f 15/51/13 19/50/12 17/54/11
f 20/219/15 15/218/13 34/32/23
f 31/35/20 33/34/22 16/221/14
f 13/95/13 12/94/12 11/98/11
f 9/222/9 11/229/11 8/223/8
f 220/225/37 7/228/7 6/226/6
f 4/64/4 3/65/3 2/95/2
f 3/65/3 441/66/24 442/63/18
f 217/227/35 443/226/54 444/228/55
f 218/72/36 217/71/35 215/69/34
f 221/75/38 220/74/37 224/78/40
f 5/224/5 446/223/16 12/229/12
f 226/230/41 447/236/56 7/228/7
f 449/232/19 442/335/18 450/233/21
f 230/235/44 223/364/39 444/228/55
f 227/81/42 226/80/41 230/84/44
f 446/94/16 2/95/2 452/97/17
f 232/86/45 453/85/58 447/79/56
f 455/61/22 450/63/21 456/66/25
f 229/83/43 451/82/57 457/88/59
f 233/87/46 232/86/45 236/90/48
f 10/96/10 452/97/17 1/61/1
f 233/237/46 238/365/49 458/238/60
f 459/240/26 456/328/25 441/241/24
f 235/243/47 457/239/59 460/238/61
f 239/74/50 238/91/49 242/92/52
f 239/245/50 214/246/33 6/226/6
f 241/245/51 460/238/61 443/226/54
f 445/93/15 13/95/13 454/65/23
f 448/62/20 455/61/22 14/97/14
f 462/247/26 463/336/25 464/248/24
f 466/102/22 467/104/21 463/101/25
f 469/250/19 470/337/18 467/251/21
f 472/100/3 464/101/24 470/104/18
f 461/99/4 472/100/3 474/107/2
f 475/108/10 476/109/17 471/102/1
f 478/106/16 474/107/2 476/109/17
f 473/253/5 478/256/16 480/254/12
f 481/255/9 482/254/11 477/256/8
f 484/107/13 480/106/12 482/110/11
f 479/105/15 484/107/13 465/100/23
f 468/103/20 466/102/22 483/109/14
f 486/257/26 487/338/25 488/258/24
f 490/102/22 491/104/21 487/101/25
f 493/260/19 494/339/18 491/261/21
f 496/100/3 488/101/24 494/104/18
f 485/99/4 496/100/3 498/107/2
f 499/108/10 500/109/17 495/102/1
f 502/106/16 498/107/2 500/109/17
f 497/263/5 502/266/16 504/264/12
f 505/265/9 506/264/11 501/266/8
f 508/107/13 504/106/12 506/110/11
f 503/105/15 508/107/13 489/100/23
f 492/103/20 490/102/22 507/109/14
f 510/267/13 511/281/12 512/268/11
f 514/143/9 512/144/11 515/148/8
f 322/270/37 516/276/7 517/271/6
f 519/140/4 520/142/3 521/147/2
f 520/273/3 523/282/24 524/274/18
f 319/272/35 525/271/54 526/276/55
f 320/119/36 319/118/35 317/116/34
f 323/122/38 322/121/37 326/125/40
f 518/146/5 528/148/16 511/144/12
f 323/277/38 328/366/41 529/278/56
f 531/140/19 524/141/18 532/113/21
f 325/279/39 526/276/55 533/278/57
f 329/128/42 328/127/41 332/131/44
f 528/281/16 521/267/2 534/269/17
f 334/133/45 535/132/58 529/126/56
f 537/275/22 532/274/21 538/282/25
f 331/130/43 533/129/57 539/135/59
f 335/134/46 334/133/45 338/137/48
f 513/146/10 534/147/17 522/142/1
f 335/283/46 340/367/53 540/284/60
f 541/112/26 538/113/25 523/141/24
f 344/286/52 337/368/47 539/285/59
f 341/121/50 340/138/53 344/139/52
f 341/287/50 316/288/33 517/271/6
f 343/287/51 542/284/61 525/271/54
f 527/143/15 510/145/13 536/111/23
f 530/112/20 537/111/22 509/145/14
f 544/149/26 545/151/25 546/153/24
f 548/289/22 549/292/21 545/290/25
f 551/152/19 552/153/18 549/151/21
f 554/291/3 546/290/24 552/292/18
f 543/152/4 554/154/3 556/159/2
f 557/158/10 558/159/17 553/154/1
f 560/293/16 556/296/2 558/294/17
f 555/158/5 560/160/16 562/156/12
f 563/155/9 564/156/11 559/160/8
f 566/296/13 562/293/12 564/295/11
f 561/155/15 566/157/13 547/150/23
f 550/149/20 548/150/22 565/157/14
f 568/161/26 569/163/25 570/165/24
f 572/289/22 573/292/21 569/290/25
f 575/164/19 576/165/18 573/163/21
f 578/291/3 570/290/24 576/292/18
f 567/164/4 578/166/3 580/171/2
f 581/170/10 582/171/17 577/166/1
f 584/293/16 580/296/2 582/294/17
f 579/170/5 584/172/16 586/168/12
f 587/167/9 588/168/11 583/172/8
f 590/296/13 586/293/12 588/295/11
f 585/167/15 590/169/13 571/162/23
f 574/161/20 572/162/22 589/169/14
f 418/297/37 591/301/7 592/298/6
f 422/300/40 415/369/35 593/298/54
f 416/178/36 415/177/35 413/175/34
f 419/181/38 418/180/37 422/184/40
f 419/302/38 424/370/41 595/303/56
f 421/304/39 594/301/55 596/303/57
f 425/187/42 424/186/41 428/190/44
f 430/306/45 597/308/58 595/303/56
f 427/307/43 596/303/57 598/308/59
f 431/193/46 430/192/45 434/196/48
f 436/309/53 599/312/60 597/308/58
f 433/311/47 598/308/59 600/312/61
f 437/198/50 436/197/53 440/199/52
f 437/314/50 412/371/33 592/298/6
f 439/314/51 600/312/61 593/298/54
f 129/1/28 123/13/28 102/17/28
f 116/206/29 122/201/29 118/11/29
f 127/316/27 114/317/27 101/207/27
f 120/4/30 115/17/30 126/13/30
f 121/317/31 134/316/31 130/204/31
f 133/201/32 128/206/32 124/21/32
f 153/214/28 147/216/28 135/112/28
f 140/212/29 146/319/29 142/209/29
f 151/29/27 138/22/27 136/8/27
f 144/140/30 139/112/30 150/216/30
f 145/22/31 158/29/31 154/27/31
f 157/319/32 152/212/32 148/318/32
f 177/320/28 171/323/28 159/321/28
f 164/42/29 170/47/29 166/45/29
f 175/221/27 162/34/27 160/32/27
f 168/322/30 163/321/30 174/323/30
f 169/34/31 182/221/31 178/218/31
f 181/47/32 176/42/32 172/38/32
f 201/324/28 195/327/28 183/325/28
f 188/54/29 194/59/29 190/57/29
f 199/221/27 186/34/27 184/32/27
f 192/326/30 187/325/30 198/327/30
f 193/34/31 206/221/31 202/218/31
f 205/59/32 200/54/32 196/50/32
f 253/97/27 207/61/27 211/65/27
f 209/233/29 248/335/29 244/241/29
f 246/140/30 208/112/30 252/222/30
f 255/224/28 249/222/28 210/112/28
f 237/238/28 213/226/28 219/228/28
f 219/228/28 225/236/28 231/239/28
f 217/71/35 224/372/40 220/329/37
f 241/330/51 218/72/36 214/68/33
f 228/236/30 222/228/30 216/226/30
f 216/226/30 240/238/30 234/239/30
f 223/77/39 230/373/44 226/332/41
f 229/83/43 236/90/48 232/86/45
f 235/333/47 242/92/52 238/91/49
f 247/61/31 260/97/31 256/95/31
f 259/335/32 254/233/32 250/328/32
f 279/253/28 273/255/28 261/149/28
f 266/251/29 272/337/29 268/248/29
f 277/109/27 264/102/27 262/100/27
f 270/152/30 265/149/30 276/255/30
f 271/102/31 284/109/31 280/107/31
f 283/337/32 278/251/32 274/336/32
f 303/263/28 297/265/28 285/161/28
f 290/261/29 296/339/29 292/258/29
f 301/109/27 288/102/27 286/100/27
f 294/164/30 289/161/30 300/265/30
f 295/102/31 308/109/31 304/107/31
f 307/339/32 302/261/32 298/338/32
f 355/269/27 309/275/27 313/273/27
f 311/340/29 350/349/29 346/341/29
f 348/140/30 310/112/30 354/143/30
f 357/146/28 351/143/28 312/112/28
f 339/284/28 315/271/28 321/276/28
f 321/276/28 327/278/28 333/285/28
f 319/118/35 326/374/40 322/343/37
f 343/344/51 320/119/36 316/115/33
f 330/278/30 324/276/30 318/271/30
f 318/271/30 342/284/30 336/285/30
f 325/124/39 332/375/44 328/346/41
f 331/130/43 338/137/48 334/133/45
f 337/347/47 344/139/52 340/138/53
f 349/275/31 362/269/31 358/267/31
f 361/349/32 356/340/32 352/342/32
f 381/158/28 375/155/28 363/149/28
f 368/350/29 374/353/29 370/351/29
f 379/294/27 366/289/27 364/291/27
f 372/152/30 367/149/30 378/155/30
f 373/289/31 386/294/31 382/296/31
f 385/353/32 380/350/32 376/352/32
f 405/170/28 399/167/28 387/161/28
f 392/354/29 398/357/29 394/355/29
f 403/294/27 390/289/27 388/291/27
f 396/164/30 391/161/30 402/167/30
f 397/289/31 410/294/31 406/296/31
f 409/357/32 404/354/32 400/356/32
f 435/312/28 411/298/28 417/301/28
f 417/301/28 423/303/28 429/308/28
f 415/177/35 422/376/40 418/358/37
f 439/359/51 416/178/36 412/174/33
f 426/303/30 420/301/30 414/298/30
f 414/298/30 438/312/30 432/308/30
f 421/183/39 428/377/44 424/361/41
f 427/189/43 434/196/48 430/192/45
f 433/362/47 440/199/52 436/197/53
