# Blender 5.2.0 LTS
# www.blender.org
o Backdrop_House
v -12.550000 22.000000 9.550000
v -13.000000 21.549999 9.550000
v -12.550000 21.549999 10.000000
v -12.550000 0.450000 10.000000
v -13.000000 0.450000 -9.550000
v -13.000000 0.450000 9.550000
v -12.550000 0.000000 9.550000
v -12.550000 0.000000 -9.550000
v 14.820339 24.858892 -9.050000
v 14.820339 24.858892 -9.050000
v 14.820339 25.333139 -9.050000
v 14.820339 25.333139 -9.050000
v 14.820339 25.333139 9.050000
v 14.820339 25.333139 9.050000
v 14.820339 24.858892 9.050000
v 14.820339 24.858892 9.050000
v -14.820339 23.141108 -9.050000
v -14.820339 23.141108 -9.050000
v -14.820339 22.666861 -9.050000
v -14.820339 22.666861 -9.050000
v -14.820339 22.666861 9.050000
v -14.820339 22.666861 9.050000
v -14.820339 23.141108 9.050000
v -14.820339 23.141108 9.050000
v -12.550000 0.000000 9.550000
v -12.550000 0.450000 10.000000
v -13.000000 0.450000 9.550000
v -12.550000 21.549999 10.000000
v -12.550000 22.000000 9.550000
v -13.000000 21.549999 9.550000
v -12.550000 0.000000 -9.550000
v -13.000000 0.450000 -9.550000
v -12.550000 0.450000 -10.000000
v -12.550000 22.000000 -9.550000
v -12.550000 21.549999 -10.000000
v -13.000000 21.549999 -9.550000
v 12.550000 0.000000 9.550000
v 13.000000 0.450000 9.550000
v 12.550000 0.450000 10.000000
v 12.550000 22.000000 9.550000
v 12.550000 21.549999 10.000000
v 13.000000 21.549999 9.550000
v 12.550000 0.000000 -9.550000
v 12.550000 0.450000 -10.000000
v 13.000000 0.450000 -9.550000
v 12.550000 22.000000 -9.550000
v 13.000000 21.549999 -9.550000
v 12.550000 21.549999 -10.000000
v -14.820339 22.666861 9.050000
v -14.348808 22.903984 9.500000
v -14.820339 23.141108 9.050000
v 1.767768 32.896263 9.500000
v 2.150223 33.188614 9.050000
v 1.385312 33.188614 9.050000
v -14.820339 22.666861 -9.050000
v -14.820339 23.141108 -9.050000
v -14.348808 22.903984 -9.500000
v 2.150225 33.188614 -9.050000
v 1.767768 32.896263 -9.500000
v 1.385313 33.188614 -9.050000
v -2.150224 14.811389 9.050000
v -1.385312 14.811389 9.050000
v -1.767768 15.103739 9.500000
v 14.820339 25.333139 9.050000
v 14.348808 25.096016 9.500000
v 14.820339 24.858892 9.050000
v -2.150225 14.811389 -9.050000
v -1.767768 15.103739 -9.500000
v -1.385312 14.811389 -9.050000
v 14.820339 25.333139 -9.050000
v 14.820339 24.858892 -9.050000
v 14.348808 25.096016 -9.500000
v 5.450000 24.000000 1.550000
v 5.450000 24.450001 2.000000
v 5.000000 24.450001 1.550000
v 5.450000 35.549999 2.000000
v 5.450000 36.000000 1.550000
v 5.000000 35.549999 1.550000
v 5.450000 24.000000 -1.550000
v 5.000000 24.450001 -1.550000
v 5.450000 24.450001 -2.000000
v 5.450000 36.000000 -1.550000
v 5.450000 35.549999 -2.000000
v 5.000000 35.549999 -1.550000
v 8.550000 24.000000 1.550000
v 9.000000 24.450001 1.550000
v 8.550000 24.450001 2.000000
v 8.550000 36.000000 1.550000
v 8.550000 35.549999 2.000000
v 9.000000 35.549999 1.550000
v 8.550000 24.000000 -1.550000
v 8.550000 24.450001 -2.000000
v 9.000000 24.450001 -1.550000
v 8.550000 36.000000 -1.550000
v 9.000000 35.549999 -1.550000
v 8.550000 35.549999 -2.000000
v -12.550000 22.000000 -9.550000
v -13.000000 21.549999 -9.550000
v -12.550000 21.549999 -10.000000
v -12.550000 0.450000 -10.000000
v 12.550000 0.000000 -9.550000
v 12.550000 0.450000 -10.000000
v 12.550000 22.000000 -9.550000
v 12.550000 21.549999 -10.000000
v 13.000000 21.549999 -9.550000
v 13.000000 0.450000 -9.550000
v 12.550000 0.000000 9.550000
v 13.000000 0.450000 9.550000
v 12.550000 22.000000 9.550000
v 13.000000 21.549999 9.550000
v 12.550000 21.549999 10.000000
v 12.550000 0.450000 10.000000
v -14.348808 22.903984 9.500000
v 1.767768 32.896263 9.500000
v 1.767768 32.896263 -9.500000
v -14.348808 22.903984 -9.500000
v -1.767768 15.103739 -9.500000
v 14.348808 25.096016 -9.500000
v 14.348808 25.096016 9.500000
v -1.767768 15.103739 9.500000
v 5.450000 24.000000 -1.550000
v 5.450000 24.000000 1.550000
v 5.000000 24.450001 1.550000
v 5.000000 24.450001 -1.550000
v 5.450000 24.450001 2.000000
v 5.450000 35.549999 2.000000
v 5.000000 35.549999 1.550000
v 5.450000 36.000000 1.550000
v 5.450000 36.000000 -1.550000
v 5.000000 35.549999 -1.550000
v 5.450000 35.549999 -2.000000
v 5.450000 24.450001 -2.000000
v 8.550000 24.000000 -1.550000
v 8.550000 24.450001 -2.000000
v 8.550000 36.000000 -1.550000
v 8.550000 35.549999 -2.000000
v 9.000000 35.549999 -1.550000
v 9.000000 24.450001 -1.550000
v 8.550000 24.000000 1.550000
v 9.000000 24.450001 1.550000
v 8.550000 36.000000 1.550000
v 9.000000 35.549999 1.550000
v 8.550000 35.549999 2.000000
v 8.550000 24.450001 2.000000
vn -0.4606 0.7588 0.4606
vn -0.7588 0.4606 0.4606
vn -0.4606 0.4606 0.7588
vn -0.4606 -0.4606 0.7588
vn -0.7588 -0.4606 -0.4606
vn -0.7588 -0.4606 0.4606
vn -0.4606 -0.7588 0.4606
vn -0.4606 -0.7588 -0.4606
vn 1.0000 -0.0000 -0.0000
vn 0.5694 -0.3115 -0.7608
vn 0.5694 0.3115 -0.7608
vn 0.5694 0.3115 0.7608
vn 0.5694 -0.3115 0.7608
vn -1.0000 -0.0000 -0.0000
vn -0.5694 0.3115 -0.7608
vn -0.5694 -0.3115 -0.7608
vn -0.5694 -0.3115 0.7608
vn -0.5694 0.3115 0.7608
vn -0.0000 -1.0000 -0.0000
vn -0.0000 -0.0000 1.0000
vn -0.0000 1.0000 -0.0000
vn -0.0000 -0.0000 -1.0000
vn -0.5269 -0.8499 -0.0000
vn -0.5269 0.8499 -0.0000
vn 0.2822 0.8975 0.3389
vn -0.2822 0.8975 0.3389
vn 0.2822 0.8975 -0.3389
vn -0.2822 0.8975 -0.3389
vn -0.2822 -0.8975 0.3389
vn 0.2822 -0.8975 0.3389
vn 0.5269 0.8499 -0.0000
vn 0.5269 -0.8499 -0.0000
vn -0.2822 -0.8975 -0.3389
vn 0.2822 -0.8975 -0.3389
vn -0.4606 0.7588 -0.4606
vn -0.7588 0.4606 -0.4606
vn -0.4606 0.4606 -0.7588
vn -0.4606 -0.4606 -0.7588
vn 0.4606 -0.7588 -0.4606
vn 0.4606 -0.4606 -0.7588
vn 0.4606 0.7588 -0.4606
vn 0.4606 0.4606 -0.7588
vn 0.7588 0.4606 -0.4606
vn 0.7588 -0.4606 -0.4606
vn 0.4606 -0.7588 0.4606
vn 0.7588 -0.4606 0.4606
vn 0.4606 0.7588 0.4606
vn 0.7588 0.4606 0.4606
vn 0.4606 0.4606 0.7588
vn 0.4606 -0.4606 0.7588
vn -0.5096 -0.0000 0.8604
vn -0.0000 0.7189 0.6952
vn -0.0000 0.7189 -0.6952
vn -0.5096 -0.0000 -0.8604
vn -0.0000 -0.7189 -0.6952
vn 0.5096 -0.0000 -0.8604
vn 0.5096 -0.0000 0.8604
vn -0.0000 -0.7189 0.6952
vt -0.477500 0.000000
vt -0.500000 0.022500
vt -0.477500 0.022500
vt -0.500000 1.077500
vt -0.477500 1.100000
vt -0.477500 1.077500
vt 0.477500 0.000000
vt 0.477500 0.022500
vt 0.500000 0.022500
vt 0.477500 1.100000
vt 0.500000 1.077500
vt 0.477500 1.077500
vt -0.741017 1.133343
vt -0.717440 1.145199
vt -0.741017 1.157055
vt 0.088388 -0.475000
vt 0.107511 -0.452500
vt 0.069266 -0.452500
vt 0.107511 0.452500
vt 0.088388 0.475000
vt 0.069266 0.452500
vt -0.107511 -0.452500
vt -0.069266 -0.452500
vt -0.088388 -0.475000
vt 0.741017 1.266657
vt 0.717440 1.254801
vt 0.741017 1.242945
vt -0.107511 0.452500
vt -0.088388 0.475000
vt -0.069266 0.452500
vt -0.077500 1.200000
vt -0.100000 1.222500
vt -0.077500 1.222500
vt -0.100000 1.777500
vt -0.077500 1.800000
vt -0.077500 1.777500
vt 0.077500 1.200000
vt 0.077500 1.222500
vt 0.100000 1.222500
vt 0.077500 1.800000
vt 0.100000 1.777500
vt 0.077500 1.777500
vt -0.627500 0.000000
vt 0.627500 0.022500
vt 0.627500 0.000000
vt 0.627500 1.100000
vt -0.627500 1.077500
vt -0.627500 1.100000
vt -0.627500 0.022500
vt 0.627500 1.077500
vt -0.452500 1.133343
vt 0.452500 1.157055
vt 0.452500 1.133343
vt 0.069266 1.659431
vt 0.069266 1.659431
vt 0.088388 1.644813
vt -0.107511 0.740569
vt -0.088388 0.755187
vt 0.107511 1.659431
vt -0.069266 0.740569
vt -0.452500 1.266657
vt 0.452500 1.242945
vt 0.452500 1.266657
vt -0.069266 0.740569
vt -0.107511 0.740569
vt 0.107511 1.659431
vt 0.272500 1.200000
vt 0.427500 1.222500
vt 0.427500 1.200000
vt 0.427500 1.800000
vt 0.272500 1.777500
vt 0.272500 1.800000
vt 0.272500 1.222500
vt 0.427500 1.777500
vt 0.627500 0.477500
vt -0.627500 -0.477500
vt -0.627500 0.477500
vt 0.627500 -0.477500
vt -0.741017 -0.452500
vt -0.741017 0.452500
vt 0.741017 -0.452500
vt 0.741017 0.452500
vt 0.427500 0.077500
vt 0.272500 -0.077500
vt 0.272500 0.077500
vt 0.427500 -0.077500
vt -0.452500 1.157055
vt -0.452500 1.242945
s 1
f 7/1/7 4/2/4 6/3/6
f 3/4/3 1/5/1 2/6/2
f 8/7/8 5/8/5 100/9/38
f 97/10/35 99/11/37 98/12/36
f 107/1/45 108/3/46 112/2/50
f 109/5/47 111/4/49 110/6/48
f 101/7/39 102/9/40 106/8/44
f 103/10/41 105/12/43 104/11/42
f 22/13/17 113/14/51 24/15/18
f 114/16/52 53/17/25 54/18/26
f 20/13/16 18/15/15 116/14/54
f 58/19/27 115/20/53 60/21/28
f 61/22/29 62/23/30 120/24/58
f 14/25/12 119/26/57 16/27/13
f 67/28/33 117/29/55 69/30/34
f 12/25/11 10/27/10 118/26/56
f 122/31/7 125/32/4 123/33/6
f 126/34/3 128/35/1 127/36/2
f 121/37/8 124/38/5 132/39/38
f 129/40/35 131/41/37 130/42/36
f 139/31/45 140/33/46 144/32/50
f 141/35/47 143/34/49 142/36/48
f 133/37/39 134/39/40 138/38/44
f 135/40/41 137/42/43 136/41/42
f 7/1/7 5/8/5 8/7/8
f 3/4/3 6/3/6 4/2/4
f 97/10/35 2/6/2 1/5/1
f 100/9/38 98/12/36 99/11/37
f 8/43/8 102/44/40 101/45/39
f 103/46/41 99/47/37 97/48/35
f 106/8/44 104/11/42 105/12/43
f 101/7/39 108/3/46 107/1/45
f 109/5/47 105/12/43 103/10/41
f 112/2/50 110/6/48 111/4/49
f 107/45/45 4/49/4 7/43/7
f 1/48/1 111/50/49 109/46/47
f 21/51/14 17/52/14 19/53/14
f 113/14/51 54/54/26 24/15/18
f 58/19/27 54/18/26 53/17/25
f 116/14/54 60/55/28 115/56/53
f 67/57/33 116/14/54 117/58/55
f 58/59/27 118/26/56 115/56/53
f 69/60/34 118/26/56 10/27/10
f 67/28/33 62/23/30 61/22/29
f 13/61/9 9/62/9 11/63/9
f 119/26/57 62/64/30 16/27/13
f 61/65/29 113/14/51 22/13/17
f 53/66/25 119/26/57 14/25/12
f 122/31/7 124/38/5 121/37/8
f 126/34/3 123/33/6 125/32/4
f 129/40/35 127/36/2 128/35/1
f 132/39/38 130/42/36 131/41/37
f 121/67/8 134/68/40 133/69/39
f 135/70/41 131/71/37 129/72/35
f 138/38/44 136/41/42 137/42/43
f 133/37/39 140/33/46 139/31/45
f 141/35/47 137/42/43 135/40/41
f 144/32/50 142/36/48 143/34/49
f 139/69/45 125/73/4 122/67/7
f 128/72/1 143/74/49 141/70/47
f 43/75/19 25/76/19 31/77/19
f 30/6/14 32/8/14 27/3/14
f 41/50/20 26/49/20 39/44/20
f 34/77/21 40/78/21 46/75/21
f 35/47/22 44/44/22 33/49/22
f 47/12/9 38/3/9 45/8/9
f 67/28/33 49/79/23 55/80/23
f 54/18/26 56/80/24 51/79/24
f 63/58/20 52/56/20 50/14/20
f 58/19/27 64/81/31 70/82/31
f 59/56/22 68/58/22 57/14/22
f 71/82/32 62/23/30 69/30/34
f 91/83/19 73/84/19 79/85/19
f 78/36/14 80/38/14 75/33/14
f 89/74/20 74/73/20 87/68/20
f 82/85/21 88/86/21 94/83/21
f 83/71/22 92/68/22 81/73/22
f 95/42/9 86/33/9 93/38/9
f 7/1/7 6/3/6 5/8/5
f 3/4/3 2/6/2 6/3/6
f 97/10/35 98/12/36 2/6/2
f 100/9/38 5/8/5 98/12/36
f 8/43/8 100/49/38 102/44/40
f 103/46/41 104/50/42 99/47/37
f 106/8/44 102/9/40 104/11/42
f 101/7/39 106/8/44 108/3/46
f 109/5/47 110/6/48 105/12/43
f 112/2/50 108/3/46 110/6/48
f 107/45/45 112/44/50 4/49/4
f 1/48/1 3/47/3 111/50/49
f 21/51/14 23/87/14 17/52/14
f 113/14/51 114/56/52 54/54/26
f 58/19/27 60/21/28 54/18/26
f 116/14/54 18/15/15 60/55/28
f 67/57/33 20/13/16 116/14/54
f 58/59/27 12/25/11 118/26/56
f 69/60/34 117/58/55 118/26/56
f 67/28/33 69/30/34 62/23/30
f 13/61/9 15/88/9 9/62/9
f 119/26/57 120/58/58 62/64/30
f 61/65/29 120/58/58 113/14/51
f 53/66/25 114/56/52 119/26/57
f 122/31/7 123/33/6 124/38/5
f 126/34/3 127/36/2 123/33/6
f 129/40/35 130/42/36 127/36/2
f 132/39/38 124/38/5 130/42/36
f 121/67/8 132/73/38 134/68/40
f 135/70/41 136/74/42 131/71/37
f 138/38/44 134/39/40 136/41/42
f 133/37/39 138/38/44 140/33/46
f 141/35/47 142/36/48 137/42/43
f 144/32/50 140/33/46 142/36/48
f 139/69/45 144/68/50 125/73/4
f 128/72/1 126/71/3 143/74/49
f 43/75/19 37/78/19 25/76/19
f 30/6/14 36/12/14 32/8/14
f 41/50/20 28/47/20 26/49/20
f 34/77/21 29/76/21 40/78/21
f 35/47/22 48/50/22 44/44/22
f 47/12/9 42/6/9 38/3/9
f 67/28/33 61/22/29 49/79/23
f 54/18/26 60/21/28 56/80/24
f 63/58/20 65/26/20 52/56/20
f 58/19/27 53/17/25 64/81/31
f 59/56/22 72/26/22 68/58/22
f 71/82/32 66/81/32 62/23/30
f 91/83/19 85/86/19 73/84/19
f 78/36/14 84/42/14 80/38/14
f 89/74/20 76/71/20 74/73/20
f 82/85/21 77/84/21 88/86/21
f 83/71/22 96/74/22 92/68/22
f 95/42/9 90/36/9 86/33/9
