# Blender 5.2.0 LTS
# www.blender.org
o Backdrop_Cloud
v 0.000000 13.120000 0.000000
v 5.221826 -2.000000 4.778174
v 0.000000 9.277241 -11.313708
v 0.000000 5.020807 -14.782072
v 0.000000 0.000000 -16.000000
v -12.000000 -2.000000 -10.000000
v -3.514719 -2.000000 10.485281
v -0.000001 -2.000000 2.000000
v 24.000000 -2.000000 -3.000000
v -0.913446 1.765605 2.000000
v 4.329569 12.121299 -4.329569
v 8.000000 9.277241 -8.000000
v 10.452503 5.020807 -10.452503
v 11.313708 0.000000 -11.313708
v 23.162674 1.451805 -3.000000
v 20.778173 4.378103 -3.000000
v 17.209518 6.333393 -3.000000
v -3.514719 4.957931 2.000000
v -7.407799 7.090975 2.000000
v 6.122935 12.121299 0.000000
v 11.313707 9.277241 0.000000
v 14.782071 5.020807 0.000000
v 15.999999 0.000000 0.000000
v 13.000000 7.020000 -3.000000
v -20.485281 -2.000000 10.485281
v 15.976579 6.333393 -5.976579
v 13.000000 -2.000000 7.999999
v 13.000000 1.451805 7.162673
v 4.329569 12.121299 4.329569
v 7.999999 9.277241 7.999999
v 10.452502 5.020807 10.452502
v 11.313707 0.000000 11.313707
v 18.500000 4.378103 -8.500000
v 20.186096 1.451805 -10.186096
v 20.778175 -2.000000 -10.778174
v 13.000000 4.378103 4.778174
v 13.000000 6.333393 1.209517
v 0.000000 12.121299 6.122935
v 0.000000 9.277241 11.313707
v 0.000000 5.020807 14.782070
v 0.000000 0.000000 15.999998
v -12.000000 7.840000 2.000000
v -4.071067 -3.000000 18.071068
v -8.752823 7.090975 -1.247177
v 12.999999 -3.000000 11.000000
v -6.000000 4.957931 -4.000000
v -4.329569 12.121299 4.329569
v -7.999999 9.277241 7.999999
v -10.452502 5.020807 10.452502
v -11.313707 0.000000 11.313707
v 12.238794 0.138004 11.000000
v 10.071067 2.798275 11.000000
v 6.826834 4.575812 11.000000
v -4.160623 1.765605 -5.839377
v -3.514719 -2.000000 -6.485281
v -6.122935 12.121299 0.000000
v -11.313707 9.277241 0.000000
v -14.782070 5.020807 0.000000
v -15.999998 0.000000 0.000000
v 3.000000 5.200000 11.000000
v -10.717514 -3.000000 -3.282486
v 13.000000 -2.000000 -14.000000
v -12.000000 -2.000000 13.999998
v -12.000000 1.765605 13.086553
v -4.329569 12.121299 -4.329569
v -7.999999 9.277241 -7.999999
v -10.452502 5.020807 -10.452502
v -11.313707 0.000000 -11.313707
v 13.000000 1.451805 -13.162675
v 13.000000 4.378103 -10.778174
v -12.000000 4.957931 10.485281
v 15.976579 6.333393 -0.023421
v 18.500000 4.378103 2.500000
v 0.000000 12.121299 -6.122935
v 20.186096 1.451805 4.186095
v 20.778173 -2.000000 4.778174
v 5.705980 4.575812 8.294020
v 8.000000 2.798275 6.000000
v -12.000000 7.090975 6.592201
v 5.499999 -3.000000 -10.000000
v 4.776855 -0.018896 -10.000000
v 5.813905 1.451805 4.186095
v 7.500000 4.378103 2.500000
v 10.023421 6.333393 -0.023421
v 2.717514 2.508362 -10.000000
v 9.532814 0.138004 4.467185
v -0.364507 4.197021 -10.000000
v 2.000001 -2.000000 -3.000000
v 10.071068 -3.000000 3.928932
v -4.000000 4.790000 -10.000000
v 2.837327 1.451805 -3.000000
v 5.221826 4.378103 -3.000000
v 8.790483 6.333393 -3.000000
v 3.000000 -3.000000 21.000000
v -12.000000 -2.000000 -10.000000
v 5.221826 -2.000000 -10.778173
v -12.000000 1.765605 -9.086554
v -12.000000 4.957931 -6.485281
v 5.813905 1.451805 -10.186095
v 7.500000 4.378103 -8.500000
v 10.023421 6.333393 -5.976579
v 3.000000 0.138004 20.238794
v -8.752823 7.090975 5.247177
v 3.000000 2.798275 18.071068
v -6.000001 4.957931 7.999999
v -4.160624 1.765605 9.839376
v -3.514719 -2.000000 10.485281
v -1.429318 4.197021 -12.570682
v 0.750000 2.508362 -14.750000
v 13.000000 6.333393 -7.209517
v 3.000000 4.575812 14.826834
v -20.485281 -2.000000 10.485281
v 20.778173 -2.000000 4.778174
v -19.839376 1.765605 9.839376
v -18.000000 4.957931 7.999999
v -15.247177 7.090975 5.247177
v 10.071067 -3.000000 18.071068
v 2.206174 -0.018896 -16.206173
v 13.000000 -2.000000 7.999999
v -23.999998 -2.000000 2.000000
v 2.717515 -3.000000 -16.717514
v 2.717515 -3.000000 -16.717514
v -23.086552 1.765605 2.000000
v -20.485281 4.957931 2.000000
v -16.592201 7.090975 2.000000
v 13.000000 -2.000000 -14.000000
v -4.000000 -3.000000 -0.500001
v 3.000000 -3.000000 1.000000
v -20.485281 -2.000000 -6.485281
v 3.000000 0.138004 1.761205
v 3.000000 2.798275 3.928932
v -19.839376 1.765605 -5.839376
v -18.000000 4.957931 -3.999999
v -15.247177 7.090975 -1.247177
v -4.000000 -0.018896 -1.223145
v 5.705980 4.575812 13.705980
v -4.000000 2.508362 -3.282486
v 8.000000 2.798275 16.000000
v 9.532814 0.138004 17.532814
v 10.071067 -3.000000 18.071068
v -11.313707 0.000000 -11.313707
v 20.778175 -2.000000 -10.778174
v -12.000000 7.090975 -2.592201
v -4.000000 4.197021 -6.364508
v -3.532814 0.138004 17.532814
v -2.000000 2.798275 16.000000
v 0.294019 4.575812 13.705980
v -15.999998 0.000000 0.000000
v -6.999999 -3.000000 11.000000
v 5.221826 -2.000000 4.778174
v -6.999999 -3.000000 11.000000
v -6.238794 0.138004 11.000000
v -4.071067 2.798275 11.000000
v -0.826834 4.575812 11.000000
v -11.313707 0.000000 11.313707
v -4.000000 -3.000000 -19.500000
v -4.071067 -3.000000 3.928933
v -4.000000 -0.018896 -18.776855
v -4.000000 2.508362 -16.717514
v -3.532814 0.138004 4.467186
v -2.000000 2.798275 6.000000
v 0.294019 4.575812 8.294020
v -1.429318 4.197021 -7.429318
v 0.750000 2.508362 -5.250000
v 2.206173 -0.018896 -3.793827
v 2.717514 -3.000000 -3.282486
v 0.000000 0.000000 15.999998
v 24.000000 -2.000000 -3.000000
v 3.000000 4.575812 7.173166
v -10.717514 -3.000000 -16.717514
v -13.499999 -3.000000 -10.000000
v 5.499999 -3.000000 -10.000000
v -10.206173 -0.018896 -3.793827
v -8.750000 2.508362 -5.250000
v -6.570682 4.197021 -7.429318
v -4.000000 -3.000000 -0.500001
v -4.071067 -3.000000 3.928933
v 11.313707 0.000000 11.313707
v -13.499999 -3.000000 -10.000000
v 15.999999 0.000000 0.000000
v 2.000001 -2.000000 -3.000000
v -12.776855 -0.018896 -10.000000
v -10.717514 2.508362 -10.000000
v -7.635492 4.197021 -10.000000
v -4.000000 -3.000000 -19.500000
v 2.717514 -3.000000 -3.282486
v 10.071068 -3.000000 3.928932
v -10.717514 -3.000000 -16.717514
v -3.514719 -2.000000 -6.485281
v 11.313708 0.000000 -11.313708
v -10.206173 -0.018896 -16.206173
v -8.750000 2.508362 -14.750000
v -6.570682 4.197021 -12.570682
v -10.717514 -3.000000 -3.282486
v 12.999999 -3.000000 11.000000
v -23.999998 -2.000000 2.000000
v 3.000000 -3.000000 21.000000
v 3.000000 -3.000000 1.000000
v -20.485281 -2.000000 -6.485281
v -4.071067 -3.000000 18.071068
v -0.000001 -2.000000 2.000000
v -4.000000 4.197021 -13.635492
v -12.000000 -2.000000 13.999998
v 5.221826 -2.000000 -10.778173
v 0.000000 0.000000 -16.000000
vn -0.0000 1.0000 -0.0000
vn -0.9015 0.2187 0.3734
vn -0.0000 0.7459 -0.6661
vn -0.0000 0.4245 -0.9054
vn -0.3734 0.2187 -0.9015
vn 0.3734 0.2187 -0.9015
vn 0.9015 0.2187 0.3734
vn 0.9054 0.4245 -0.0000
vn 0.2560 0.9322 -0.2560
vn 0.4710 0.7459 -0.4710
vn 0.6402 0.4245 -0.6402
vn 0.9015 0.2187 -0.3734
vn 0.6661 0.7459 -0.0000
vn 0.3620 0.9322 -0.0000
vn -0.3734 0.2187 0.9015
vn -0.0000 0.4245 0.9054
vn 0.2560 0.9322 0.2560
vn 0.4710 0.7459 0.4710
vn 0.6402 0.4245 0.6402
vn 0.3734 0.2187 0.9015
vn -0.0000 0.7459 0.6661
vn -0.0000 0.9322 0.3620
vn -0.2560 0.9322 0.2560
vn -0.4710 0.7459 0.4710
vn -0.6402 0.4245 0.6402
vn -0.3620 0.9322 -0.0000
vn -0.6661 0.7459 -0.0000
vn -0.9054 0.4245 -0.0000
vn -0.9015 0.2187 -0.3734
vn -0.2560 0.9322 -0.2560
vn -0.4710 0.7459 -0.4710
vn -0.6402 0.4245 -0.6402
vn -0.0000 0.9322 -0.3620
vt 1.009305 0.072590
vt 0.650000 -0.100000
vt 1.038909 -0.100000
vt 0.000000 0.251040
vt 0.565685 0.000000
vt 0.000000 0.000000
vt 0.000000 0.306147
vt 0.400000 0.400000
vt 0.000000 0.565685
vt 0.798829 0.001171
vt 0.650000 0.150000
vt 0.650000 -0.060476
vt 0.650000 -0.238909
vt 0.925000 -0.125000
vt 0.000000 0.463862
vt 0.522625 0.251040
vt 0.216478 0.216478
vt 0.925000 0.218905
vt 0.650000 0.072590
vt 0.509305 0.072590
vt 0.150000 -0.100000
vt 0.538909 -0.100000
vt 0.341342 -0.550000
vt 0.150000 -0.550000
vt 0.285299 -0.685299
vt 0.400000 0.463862
vt 0.306147 0.000000
vt 0.150000 0.218905
vt -0.209305 0.072590
vt 0.150000 0.072590
vt 0.110309 -0.000945
vt -0.200000 -0.150000
vt 0.135876 -0.150000
vt -0.522625 0.251040
vt 0.216478 -0.216478
vt -0.238909 -0.100000
vt -0.300000 0.139914
vt -0.550000 0.006900
vt -0.223359 0.006900
vt -0.565685 0.000000
vt 0.400000 -0.400000
vt 0.425000 0.218905
vt -0.300000 0.247897
vt -0.600000 0.088280
vt -0.208031 0.088280
vt 0.798829 0.298829
vt 0.860476 0.150000
vt 0.522625 0.251040
vt 0.000000 -0.565685
vt 1.038909 0.150000
vt 0.925000 0.425000
vt -0.437641 -0.262359
vt -0.600000 -0.100000
vt -0.600000 -0.329610
vt 0.400000 0.463862
vt 0.000000 -0.306147
vt -0.400000 -0.400000
vt -0.400000 0.463862
vt -0.216478 -0.216478
vt 0.650000 0.360476
vt -0.370390 -0.100000
vt -0.300000 -0.400000
vt -0.175736 -0.100000
vt -0.306147 0.000000
vt 0.291969 0.088280
vt -0.100000 -0.100000
vt 0.324264 -0.100000
vt -0.216478 0.216478
vt -0.903553 -0.150000
vt -0.550000 -0.150000
vt 0.150000 -0.741342
vt -0.400000 0.400000
vt 0.650000 0.218905
vt 0.650000 0.538909
vt 0.476641 0.006900
vt 0.150000 -0.150000
vt 0.503553 -0.150000
vt -0.196447 -0.150000
vt 0.400000 0.139914
vt 0.150000 0.006900
vt 0.200000 0.247897
vt -0.100000 0.088280
vt 0.375000 0.218905
vt 0.290695 0.072590
vt 0.501171 0.001171
vt 0.375000 -0.125000
vt 0.261091 -0.100000
vt 0.150000 -0.903553
vt 0.400000 -0.800000
vt -0.125000 0.218905
vt -0.300000 0.200000
vt -0.600000 -0.524264
vt -0.100000 0.247897
vt -0.491969 0.088280
vt -0.524264 -0.100000
vt 0.439524 0.150000
vt 0.261091 0.150000
vt 0.285299 -0.414701
vt 0.503553 -0.550000
vt 0.400000 -0.300000
vt -0.437641 0.062359
vt 0.375000 0.425000
vt 0.509305 0.072590
vt 0.501171 0.298829
vt -0.600000 0.247897
vt -0.208031 0.088280
vt 0.538909 -0.100000
vt -0.071466 0.371466
vt -0.200000 0.500000
vt -0.200000 0.318225
vt -0.600000 0.324264
vt -0.600000 0.129610
vt -0.991969 0.088280
vt -0.762359 -0.262359
vt -0.018225 0.500000
vt 0.037500 0.262500
vt 0.135876 0.500000
vt -0.900000 -0.400000
vt -1.024264 -0.100000
vt -0.550000 0.139914
vt -0.876641 0.006900
vt -0.200000 0.125418
vt -0.200000 -0.000945
vt -0.071466 0.628534
vt -0.400000 0.247897
vt -0.829610 -0.100000
vt 0.037500 0.737500
vt -0.762359 0.062359
vt -0.900000 0.200000
vt 0.810309 -0.000945
vt 0.500000 -0.150000
vt 0.835876 -0.150000
vt 0.503553 -0.150000
vt 0.291969 0.088280
vt 0.200000 0.247897
vt 0.150000 -0.358658
vt 0.150000 -0.196447
vt 0.500000 0.125418
vt 0.500000 -0.000945
vt 0.189691 -0.000945
vt -0.203553 -0.150000
vt -0.100000 -0.800000
vt -0.200000 0.681775
vt -0.100000 0.139914
vt -0.176641 0.006900
vt 0.014701 -0.685299
vt 0.164124 -0.150000
vt -0.203553 -0.550000
vt -0.200000 0.164124
vt -0.041342 -0.550000
vt 0.014701 -0.414701
vt 0.110309 -0.000945
vt -0.223359 0.006900
vt -0.196447 -0.150000
vt -0.100000 -0.300000
vt -0.200000 0.835876
vt 0.135876 -0.150000
vt 0.150000 0.139914
vt -0.510309 -0.000945
vt -0.437500 0.262500
vt -0.535876 -0.150000
vt -0.328534 0.371466
vt -0.381775 0.500000
vt -0.535876 0.500000
vt 0.262500 0.125418
vt -0.437500 0.737500
vt -0.328534 0.628534
vt -0.437500 0.125418
vt -0.300000 0.247897
vt -0.900000 0.247897
vt -0.800000 0.139914
vt 0.037500 0.125418
vt 0.737500 0.125418
s 1
f 75/1/19 119/2/20 76/3/20
f 4/4/4 190/5/6 205/6/6
f 74/7/33 12/8/10 3/9/3
f 72/10/17 24/11/1 37/12/22
f 72/10/17 36/13/21 73/14/18
f 3/15/3 13/16/11 4/4/4
f 74/7/33 1/6/1 11/17/9
f 73/18/18 28/19/16 75/1/19
f 34/20/11 168/21/12 35/22/12
f 53/23/14 60/24/1 136/25/17
f 12/26/10 22/4/8 13/16/11
f 11/17/9 1/6/1 20/27/14
f 16/28/13 75/29/19 15/30/8
f 165/31/19 176/32/20 166/33/20
f 13/16/11 180/6/12 14/5/12
f 11/17/9 21/5/13 12/8/10
f 21/15/13 31/34/19 22/4/8
f 20/27/14 1/6/1 29/35/17
f 15/30/8 113/36/7 9/21/7
f 78/37/10 51/38/8 86/39/11
f 22/4/8 178/40/7 23/6/7
f 20/27/14 30/41/18 21/5/13
f 33/42/10 15/30/8 34/20/11
f 105/43/18 64/44/16 106/45/19
f 26/46/9 24/11/1 17/47/14
f 31/48/19 167/6/20 32/5/20
f 29/35/17 39/49/21 30/41/18
f 26/46/9 16/50/13 33/51/10
f 103/52/17 42/53/1 79/54/22
f 30/55/18 40/4/16 31/48/19
f 29/35/17 1/6/1 38/56/22
f 38/56/22 48/57/24 39/49/21
f 40/4/16 48/58/24 49/34/25
f 38/56/22 1/6/1 47/59/23
f 17/47/14 73/14/18 16/50/13
f 110/60/33 24/11/1 26/46/9
f 40/4/16 155/40/15 41/6/15
f 126/2/6 34/1/11 142/3/6
f 19/61/14 105/62/18 18/63/13
f 48/58/24 58/4/28 49/34/25
f 47/59/23 1/6/1 56/64/26
f 17/47/14 24/11/1 72/10/17
f 54/65/11 201/66/12 55/67/12
f 49/34/25 148/6/2 50/40/2
f 47/59/23 57/40/27 48/57/24
f 56/64/26 1/6/1 65/68/30
f 51/38/8 117/69/7 45/70/7
f 136/25/17 60/24/1 111/71/22
f 58/4/28 141/5/29 59/6/29
f 56/64/26 66/72/31 57/40/27
f 70/73/3 34/1/11 69/19/4
f 70/74/3 26/46/9 33/51/10
f 58/4/28 66/55/31 67/48/32
f 139/75/19 197/76/20 140/77/20
f 67/34/32 5/6/5 68/40/5
f 65/68/30 3/9/3 66/72/31
f 86/39/11 195/70/12 89/78/12
f 67/34/32 3/15/3 4/4/4
f 65/68/30 1/6/1 74/7/33
f 138/79/18 102/80/16 139/75/19
f 19/61/14 42/53/1 103/52/17
f 46/81/10 10/82/8 54/65/11
f 28/19/16 83/83/24 82/84/25
f 37/12/22 24/11/1 84/85/23
f 37/12/22 83/86/24 36/13/21
f 28/19/16 150/87/15 27/2/15
f 136/25/17 104/88/21 138/89/18
f 106/45/19 203/53/20 107/63/20
f 83/90/24 91/30/28 82/29/25
f 46/91/10 19/61/14 18/63/13
f 105/62/18 79/54/22 71/92/21
f 18/93/13 106/94/19 10/82/8
f 82/29/25 181/21/2 2/36/2
f 8/66/7 106/94/19 7/95/7
f 84/85/23 24/11/1 93/96/26
f 84/85/23 92/97/27 83/86/24
f 77/98/9 52/99/13 78/100/10
f 44/101/9 42/53/1 19/61/14
f 93/96/26 100/102/31 92/97/27
f 92/28/27 99/103/32 91/30/28
f 93/96/26 24/11/1 101/104/30
f 98/105/3 54/106/11 97/44/4
f 91/30/28 204/107/29 88/21/29
f 6/53/6 54/106/11 189/63/6
f 101/104/30 70/74/3 100/102/31
f 99/84/32 62/2/5 96/87/5
f 163/108/17 90/109/1 144/110/22
f 98/111/3 44/101/9 46/91/10
f 143/112/33 42/53/1 44/101/9
f 100/83/31 69/19/4 99/84/32
f 101/104/30 24/11/1 110/60/33
f 71/105/21 114/113/25 64/44/16
f 79/54/22 42/53/1 116/114/23
f 87/115/14 164/116/18 85/117/13
f 79/54/22 115/118/24 71/92/21
f 63/53/15 114/113/25 112/119/15
f 52/99/13 136/25/17 138/89/18
f 52/120/13 139/121/19 51/38/8
f 116/114/23 124/119/27 115/118/24
f 114/94/25 196/66/2 25/95/2
f 165/31/19 137/122/21 135/123/16
f 108/124/9 90/109/1 87/115/14
f 115/125/24 123/82/28 114/94/25
f 116/114/23 42/53/1 125/126/26
f 109/127/10 87/115/14 85/117/13
f 125/126/26 42/53/1 134/128/30
f 125/126/26 133/129/31 124/119/27
f 118/130/11 172/131/12 121/132/12
f 130/80/4 187/133/6 198/76/6
f 120/66/29 132/134/32 199/67/29
f 123/82/28 133/135/31 132/134/32
f 130/80/4 78/79/10 86/75/11
f 77/98/9 60/24/1 53/23/14
f 132/113/32 98/105/3 97/44/4
f 134/128/30 42/53/1 143/112/33
f 169/136/33 60/24/1 77/98/9
f 169/136/33 78/100/10 131/137/3
f 118/130/11 85/138/13 81/139/8
f 134/128/30 98/111/3 133/129/31
f 132/113/32 95/53/5 129/119/5
f 85/138/13 165/140/19 81/139/8
f 102/80/16 200/141/15 94/76/15
f 111/71/22 146/142/24 104/88/21
f 202/143/33 90/109/1 108/124/9
f 102/80/16 146/144/24 145/145/25
f 111/71/22 60/24/1 147/146/23
f 81/139/8 186/147/7 80/131/7
f 147/146/23 153/148/27 146/142/24
f 163/108/17 137/149/21 164/116/18
f 145/121/25 151/70/2 43/69/2
f 145/121/25 153/120/27 152/38/28
f 87/115/14 90/109/1 163/108/17
f 147/146/23 60/24/1 154/150/26
f 154/150/26 60/24/1 162/151/30
f 159/122/3 118/152/11 158/123/4
f 152/38/28 161/37/31 160/153/32
f 149/70/29 160/153/32 177/154/29
f 153/148/27 162/151/30 161/155/31
f 202/143/33 109/127/10 159/156/3
f 162/151/30 60/24/1 169/136/33
f 158/123/4 122/157/6 185/32/6
f 160/145/32 131/158/3 130/80/4
f 157/141/5 130/80/4 128/76/5
f 162/151/30 131/137/3 161/155/31
f 137/122/21 173/159/25 135/123/16
f 144/110/22 174/160/24 137/149/21
f 127/32/15 173/159/25 194/161/15
f 144/110/22 90/109/1 175/162/23
f 175/162/23 90/109/1 184/163/26
f 61/147/2 182/139/28 171/131/2
f 175/162/23 183/164/27 174/160/24
f 174/165/24 182/139/28 173/140/25
f 184/163/26 192/166/31 183/164/27
f 182/139/28 170/132/29 179/131/29
f 184/163/26 90/109/1 193/167/30
f 183/138/27 191/130/32 182/139/28
f 191/159/32 156/32/5 188/161/5
f 192/168/31 158/123/4 191/159/32
f 193/167/30 90/109/1 202/143/33
f 193/167/30 159/156/3 192/166/31
f 75/1/19 28/19/16 119/2/20
f 4/4/4 13/16/11 190/5/6
f 74/7/33 11/17/9 12/8/10
f 72/10/17 37/12/22 36/13/21
f 3/15/3 12/26/10 13/16/11
f 73/18/18 36/73/21 28/19/16
f 34/20/11 15/30/8 168/21/12
f 12/26/10 21/15/13 22/4/8
f 16/28/13 73/90/18 75/29/19
f 165/31/19 135/123/16 176/32/20
f 13/16/11 22/4/8 180/6/12
f 11/17/9 20/27/14 21/5/13
f 21/15/13 30/58/18 31/34/19
f 15/30/8 75/29/19 113/36/7
f 78/37/10 52/120/13 51/38/8
f 22/4/8 31/34/19 178/40/7
f 20/27/14 29/35/17 30/41/18
f 33/42/10 16/28/13 15/30/8
f 105/43/18 71/105/21 64/44/16
f 31/48/19 40/4/16 167/6/20
f 29/35/17 38/56/22 39/49/21
f 26/46/9 17/47/14 16/50/13
f 30/55/18 39/15/21 40/4/16
f 38/56/22 47/59/23 48/57/24
f 40/4/16 39/15/21 48/58/24
f 17/47/14 72/10/17 73/14/18
f 40/4/16 49/34/25 155/40/15
f 126/2/6 69/19/4 34/1/11
f 19/61/14 103/52/17 105/62/18
f 48/58/24 57/15/27 58/4/28
f 54/65/11 10/82/8 201/66/12
f 49/34/25 58/4/28 148/6/2
f 47/59/23 56/64/26 57/40/27
f 51/38/8 139/121/19 117/69/7
f 58/4/28 67/48/32 141/5/29
f 56/64/26 65/68/30 66/72/31
f 70/73/3 33/18/10 34/1/11
f 70/74/3 110/60/33 26/46/9
f 58/4/28 57/15/27 66/55/31
f 139/75/19 102/80/16 197/76/20
f 67/34/32 4/4/4 5/6/5
f 65/68/30 74/7/33 3/9/3
f 86/39/11 51/38/8 195/70/12
f 67/34/32 66/58/31 3/15/3
f 138/79/18 104/158/21 102/80/16
f 46/81/10 18/93/13 10/82/8
f 28/19/16 36/73/21 83/83/24
f 37/12/22 84/85/23 83/86/24
f 28/19/16 82/84/25 150/87/15
f 136/25/17 111/71/22 104/88/21
f 106/45/19 64/44/16 203/53/20
f 83/90/24 92/28/27 91/30/28
f 46/91/10 44/101/9 19/61/14
f 105/62/18 103/52/17 79/54/22
f 18/93/13 105/125/18 106/94/19
f 82/29/25 91/30/28 181/21/2
f 8/66/7 10/82/8 106/94/19
f 84/85/23 93/96/26 92/97/27
f 77/98/9 53/23/14 52/99/13
f 93/96/26 101/104/30 100/102/31
f 92/28/27 100/42/31 99/103/32
f 98/105/3 46/169/10 54/106/11
f 91/30/28 99/103/32 204/107/29
f 6/53/6 97/44/4 54/106/11
f 101/104/30 110/60/33 70/74/3
f 99/84/32 69/19/4 62/2/5
f 98/111/3 143/112/33 44/101/9
f 100/83/31 70/73/3 69/19/4
f 71/105/21 115/170/24 114/113/25
f 87/115/14 163/108/17 164/116/18
f 79/54/22 116/114/23 115/118/24
f 63/53/15 64/44/16 114/113/25
f 52/99/13 53/23/14 136/25/17
f 52/120/13 138/171/18 139/121/19
f 116/114/23 125/126/26 124/119/27
f 114/94/25 123/82/28 196/66/2
f 165/31/19 164/172/18 137/122/21
f 115/125/24 124/93/27 123/82/28
f 109/127/10 108/124/9 87/115/14
f 125/126/26 134/128/30 133/129/31
f 118/130/11 81/139/8 172/131/12
f 130/80/4 86/75/11 187/133/6
f 120/66/29 123/82/28 132/134/32
f 123/82/28 124/93/27 133/135/31
f 130/80/4 131/158/3 78/79/10
f 132/113/32 133/170/31 98/105/3
f 169/136/33 77/98/9 78/100/10
f 118/130/11 109/173/10 85/138/13
f 134/128/30 143/112/33 98/111/3
f 132/113/32 97/44/4 95/53/5
f 85/138/13 164/165/18 165/140/19
f 102/80/16 145/145/25 200/141/15
f 111/71/22 147/146/23 146/142/24
f 102/80/16 104/158/21 146/144/24
f 81/139/8 165/140/19 186/147/7
f 147/146/23 154/150/26 153/148/27
f 163/108/17 144/110/22 137/149/21
f 145/121/25 152/38/28 151/70/2
f 145/121/25 146/171/24 153/120/27
f 159/122/3 109/172/10 118/152/11
f 152/38/28 153/120/27 161/37/31
f 149/70/29 152/38/28 160/153/32
f 153/148/27 154/150/26 162/151/30
f 202/143/33 108/124/9 109/127/10
f 158/123/4 118/152/11 122/157/6
f 160/145/32 161/144/31 131/158/3
f 157/141/5 160/145/32 130/80/4
f 162/151/30 169/136/33 131/137/3
f 137/122/21 174/168/24 173/159/25
f 144/110/22 175/162/23 174/160/24
f 127/32/15 135/123/16 173/159/25
f 61/147/2 173/140/25 182/139/28
f 175/162/23 184/163/26 183/164/27
f 174/165/24 183/138/27 182/139/28
f 184/163/26 193/167/30 192/166/31
f 182/139/28 191/130/32 170/132/29
f 183/138/27 192/173/31 191/130/32
f 191/159/32 158/123/4 156/32/5
f 192/168/31 159/122/3 158/123/4
f 193/167/30 202/143/33 159/156/3
