# Blender 5.2.0 LTS
# www.blender.org
o Backdrop_Foam
v 32.220009 24.450001 21.727989
v 32.220009 43.549999 21.727989
v 32.632610 43.549999 21.243467
v 32.184048 44.000000 21.279428
v 32.632610 24.450001 21.243467
v 32.184048 24.000000 21.279428
v 29.188288 24.450001 -21.718687
v 29.188288 43.549999 -21.718687
v 28.703766 43.549999 -22.131287
v 28.739727 44.000000 -21.682726
v 28.703766 24.450001 -22.131287
v 28.739727 24.000000 -21.682726
v -26.220009 24.450001 -17.727989
v -26.220009 43.549999 -17.727989
v -26.632608 43.549999 -17.243467
v -26.184048 44.000000 -17.279428
v -22.739727 44.000000 25.682726
v -23.188288 43.549999 25.718687
v -22.703766 43.549999 26.131287
v -22.703766 24.450001 26.131287
v -26.632608 24.450001 -17.243467
v -23.188288 24.450001 25.718687
v -22.739727 24.000000 25.682726
v -26.184048 24.000000 -17.279428
v 31.549999 0.450000 24.000000
v 31.549999 23.549999 24.000000
v 32.000000 23.549999 23.549999
v 31.549999 24.000000 23.549999
v 32.000000 0.450000 23.549999
v 31.549999 0.000000 23.549999
v 32.000000 0.450000 -23.549999
v 32.000000 23.549999 -23.549999
v 31.549999 23.549999 -24.000000
v 31.549999 24.000000 -23.549999
v 31.549999 0.450000 -24.000000
v 31.549999 0.000000 -23.549999
v -31.549999 0.450000 -24.000000
v -31.549999 23.549999 -24.000000
v -32.000000 23.549999 -23.549999
v -31.549999 24.000000 -23.549999
v -31.549999 24.000000 23.549999
v -32.000000 23.549999 23.549999
v -31.549999 23.549999 24.000000
v -31.549999 0.450000 24.000000
v -32.000000 0.450000 -23.549999
v -32.000000 0.450000 23.549999
v -31.549999 0.000000 23.549999
v -31.549999 0.000000 -23.549999
v -31.549999 0.000000 23.549999
v -31.549999 0.450000 24.000000
v -32.000000 0.450000 23.549999
v -31.549999 23.549999 24.000000
v -31.549999 24.000000 23.549999
v -32.000000 23.549999 23.549999
v -31.549999 0.000000 -23.549999
v -32.000000 0.450000 -23.549999
v -31.549999 0.450000 -24.000000
v -31.549999 24.000000 -23.549999
v -31.549999 23.549999 -24.000000
v -32.000000 23.549999 -23.549999
v 31.549999 0.000000 23.549999
v 32.000000 0.450000 23.549999
v 31.549999 0.450000 24.000000
v 31.549999 24.000000 23.549999
v 31.549999 23.549999 24.000000
v 32.000000 23.549999 23.549999
v 31.549999 0.000000 -23.549999
v 31.549999 0.450000 -24.000000
v 32.000000 0.450000 -23.549999
v 31.549999 24.000000 -23.549999
v 32.000000 23.549999 -23.549999
v 31.549999 23.549999 -24.000000
v -22.739727 24.000000 25.682726
v -22.703766 24.450001 26.131287
v -23.188288 24.450001 25.718687
v -22.703766 43.549999 26.131287
v -22.739727 44.000000 25.682726
v -23.188288 43.549999 25.718687
v -26.184048 24.000000 -17.279428
v -26.632608 24.450001 -17.243467
v -26.220009 24.450001 -17.727989
v -26.184048 44.000000 -17.279428
v -26.220009 43.549999 -17.727989
v -26.632608 43.549999 -17.243467
v 32.184048 24.000000 21.279428
v 32.632610 24.450001 21.243467
v 32.220009 24.450001 21.727989
v 32.184048 44.000000 21.279428
v 32.220009 43.549999 21.727989
v 32.632610 43.549999 21.243467
v 28.739727 24.000000 -21.682726
v 28.703766 24.450001 -22.131287
v 29.188288 24.450001 -21.718687
v 28.739727 44.000000 -21.682726
v 29.188288 43.549999 -21.718687
v 28.703766 43.549999 -22.131287
v -24.963301 44.000000 16.974548
v -24.985792 44.450001 17.423986
v -25.412739 44.450001 16.952057
v -24.985792 61.549999 17.423986
v -24.963301 62.000000 16.974548
v -25.412739 61.549999 16.952057
v -23.109079 44.000000 -20.079086
v -23.558517 44.450001 -20.101578
v -23.086588 44.450001 -20.528524
v -23.109079 62.000000 -20.079086
v -23.086588 61.549999 -20.528524
v -23.558517 61.549999 -20.101578
v -2.890922 44.000000 18.079086
v -2.441484 44.450001 18.101578
v -2.913413 44.450001 18.528524
v -2.890922 62.000000 18.079086
v -2.913413 61.549999 18.528524
v -2.441484 61.549999 18.101578
v -1.036697 44.000000 -18.974548
v -1.014206 44.450001 -19.423986
v -0.587259 44.450001 -18.952057
v -1.036697 62.000000 -18.974548
v -0.587259 61.549999 -18.952057
v -1.014206 61.549999 -19.423986
v 5.053171 44.500000 16.650934
v 5.102571 44.950001 17.098215
v 4.605890 44.950001 16.700335
v 5.102571 62.049999 17.098215
v 5.053171 62.500000 16.650934
v 4.605890 62.049999 16.700335
v 0.980399 44.500000 -20.224836
v 0.533119 44.950001 -20.175436
v 0.930999 44.950001 -20.672117
v 0.980399 62.500000 -20.224836
v 0.930999 62.049999 -20.672117
v 0.533119 62.049999 -20.175436
v 27.019600 44.500000 14.224837
v 27.466881 44.950001 14.175437
v 27.069000 44.950001 14.672117
v 27.019600 62.500000 14.224837
v 27.069000 62.049999 14.672117
v 27.466881 62.049999 14.175437
v 22.946829 44.500000 -22.650934
v 22.897429 44.950001 -23.098215
v 23.394110 44.950001 -22.700335
v 22.946829 62.500000 -22.650934
v 23.394110 62.049999 -22.700335
v 22.897429 62.049999 -23.098215
v 41.584553 28.259495 25.946129
v 42.083599 28.443314 26.295647
v 41.806007 28.854057 25.896608
v 45.735729 30.118113 25.478958
v 46.038372 30.301933 24.950169
v 45.458138 30.528858 25.079922
v 34.361149 28.259493 -6.356075
v 34.582603 28.854057 -6.405597
v 34.663792 28.443314 -6.884865
v 38.814968 30.301933 -7.352036
v 38.315922 30.118113 -7.701553
v 38.234734 30.528858 -7.222285
v 53.185032 1.698066 23.352037
v 53.765266 1.471141 23.222286
v 53.684078 1.881886 23.701553
v 57.638851 3.740504 22.356075
v 57.336208 3.556685 22.884865
v 57.417397 3.145940 22.405598
v 45.961628 1.698066 -8.950170
v 46.264271 1.881886 -9.478959
v 46.541862 1.471143 -9.079921
v 50.415447 3.740504 -9.946130
v 50.193993 3.145941 -9.896608
v 49.916401 3.556685 -10.295647
v 22.010698 0.000000 -23.247965
v 21.794956 0.450000 -22.853052
v 21.615786 0.450000 -23.463707
v 21.794956 3.550000 -22.853052
v 22.010698 4.000000 -23.247965
v 21.615786 3.550000 -23.463707
v 35.961983 0.000000 -48.785618
v 35.567070 0.450000 -49.001358
v 36.177723 0.450000 -49.180531
v 35.961983 4.000000 -48.785618
v 36.177723 3.550000 -49.180531
v 35.567070 3.550000 -49.001358
v 44.038017 0.000000 -11.214382
v 44.432930 0.450000 -10.998641
v 43.822277 0.450000 -10.819470
v 44.038017 4.000000 -11.214382
v 43.822277 3.550000 -10.819471
v 44.432930 3.550000 -10.998641
v 57.989304 0.000000 -36.752037
v 58.205044 0.450000 -37.146946
v 58.384216 0.450000 -36.536293
v 57.989304 4.000000 -36.752037
v 58.384216 3.550000 -36.536293
v 58.205044 3.550000 -37.146946
v -23.109079 44.000000 -20.079086
v -24.963301 44.000000 16.974548
v -25.412739 44.450001 16.952057
v -23.558517 44.450001 -20.101578
v -24.985792 44.450001 17.423986
v -24.985792 61.549999 17.423986
v -25.412739 61.549999 16.952057
v -24.963301 62.000000 16.974548
v -23.109079 62.000000 -20.079086
v -23.558517 61.549999 -20.101578
v -23.086588 61.549999 -20.528524
v -23.086588 44.450001 -20.528524
v -1.036697 44.000000 -18.974548
v -1.014206 44.450001 -19.423986
v -1.036697 62.000000 -18.974548
v -1.014206 61.549999 -19.423986
v -0.587259 61.549999 -18.952057
v -0.587259 44.450001 -18.952057
v -2.890922 44.000000 18.079086
v -2.441484 44.450001 18.101578
v -2.890922 62.000000 18.079086
v -2.441484 61.549999 18.101578
v -2.913413 61.549999 18.528524
v -2.913413 44.450001 18.528524
v 0.980399 44.500000 -20.224836
v 5.053171 44.500000 16.650934
v 4.605890 44.950001 16.700335
v 0.533119 44.950001 -20.175436
v 5.102571 44.950001 17.098215
v 5.102571 62.049999 17.098215
v 4.605890 62.049999 16.700335
v 5.053171 62.500000 16.650934
v 0.980399 62.500000 -20.224836
v 0.533119 62.049999 -20.175436
v 0.930999 62.049999 -20.672117
v 0.930999 44.950001 -20.672117
v 22.946829 44.500000 -22.650934
v 22.897429 44.950001 -23.098215
v 22.946829 62.500000 -22.650934
v 22.897429 62.049999 -23.098215
v 23.394110 62.049999 -22.700335
v 23.394110 44.950001 -22.700335
v 27.019600 44.500000 14.224837
v 27.466881 44.950001 14.175437
v 27.019600 62.500000 14.224837
v 27.466881 62.049999 14.175437
v 27.069000 62.049999 14.672117
v 27.069000 44.950001 14.672117
v 34.361149 28.259493 -6.356075
v 41.584553 28.259495 25.946129
v 41.806007 28.854057 25.896608
v 34.582603 28.854057 -6.405597
v 42.083599 28.443314 26.295647
v 45.735729 30.118113 25.478958
v 45.458138 30.528858 25.079922
v 46.038372 30.301933 24.950169
v 38.814968 30.301933 -7.352036
v 38.234734 30.528858 -7.222285
v 38.315922 30.118113 -7.701553
v 34.663792 28.443314 -6.884865
v 45.961628 1.698066 -8.950170
v 46.264271 1.881886 -9.478959
v 50.415447 3.740504 -9.946130
v 49.916401 3.556685 -10.295647
v 50.193993 3.145941 -9.896608
v 46.541862 1.471143 -9.079921
v 53.185032 1.698066 23.352037
v 53.765266 1.471141 23.222286
v 57.638851 3.740504 22.356075
v 57.417397 3.145940 22.405598
v 57.336208 3.556685 22.884865
v 53.684078 1.881886 23.701553
v 35.961983 0.000000 -48.785618
v 22.010698 0.000000 -23.247965
v 21.615786 0.450000 -23.463707
v 35.567070 0.450000 -49.001358
v 21.794956 0.450000 -22.853052
v 21.794956 3.550000 -22.853052
v 21.615786 3.550000 -23.463707
v 22.010698 4.000000 -23.247965
v 35.961983 4.000000 -48.785618
v 35.567070 3.550000 -49.001358
v 36.177723 3.550000 -49.180531
v 36.177723 0.450000 -49.180531
v 57.989304 0.000000 -36.752037
v 58.205044 0.450000 -37.146946
v 57.989304 4.000000 -36.752037
v 58.205044 3.550000 -37.146946
v 58.384216 3.550000 -36.536293
v 58.384216 0.450000 -36.536293
v 44.038017 0.000000 -11.214382
v 44.432930 0.450000 -10.998641
v 44.038017 4.000000 -11.214382
v 44.432930 3.550000 -10.998641
v 43.822277 3.550000 -10.819471
v 43.822277 0.450000 -10.819470
vn 0.5197 -0.4606 0.7196
vn 0.5197 0.4606 0.7196
vn 0.7932 0.4606 0.3985
vn 0.4959 0.7588 0.4223
vn 0.7932 -0.4606 0.3985
vn 0.4959 -0.7588 0.4223
vn 0.7196 -0.4606 -0.5197
vn 0.7196 0.4606 -0.5197
vn 0.3985 0.4606 -0.7932
vn 0.4223 0.7588 -0.4959
vn 0.3984 -0.4606 -0.7932
vn 0.4223 -0.7588 -0.4959
vn -0.5197 -0.4606 -0.7196
vn -0.5197 0.4606 -0.7196
vn -0.7932 0.4606 -0.3985
vn -0.4959 0.7588 -0.4223
vn -0.4223 0.7588 0.4959
vn -0.7196 0.4606 0.5197
vn -0.3985 0.4606 0.7932
vn -0.3984 -0.4606 0.7932
vn -0.7932 -0.4606 -0.3985
vn -0.7196 -0.4606 0.5197
vn -0.4223 -0.7588 0.4959
vn -0.4959 -0.7588 -0.4223
vn 0.4606 -0.4606 0.7588
vn 0.4606 0.4606 0.7588
vn 0.7588 0.4606 0.4606
vn 0.4606 0.7588 0.4606
vn 0.7588 -0.4606 0.4606
vn 0.4606 -0.7588 0.4606
vn 0.7588 -0.4606 -0.4606
vn 0.7588 0.4606 -0.4606
vn 0.4606 0.4606 -0.7588
vn 0.4606 0.7588 -0.4606
vn 0.4606 -0.4606 -0.7588
vn 0.4606 -0.7588 -0.4606
vn -0.4606 -0.4606 -0.7588
vn -0.4606 0.4606 -0.7588
vn -0.7588 0.4606 -0.4606
vn -0.4606 0.7588 -0.4606
vn -0.4606 0.7588 0.4606
vn -0.7588 0.4606 0.4606
vn -0.4606 0.4606 0.7588
vn -0.4606 -0.4606 0.7588
vn -0.7588 -0.4606 -0.4606
vn -0.7588 -0.4606 0.4606
vn -0.4606 -0.7588 0.4606
vn -0.4606 -0.7588 -0.4606
vn -0.0000 -1.0000 -0.0000
vn -0.0000 -0.0000 1.0000
vn -1.0000 -0.0000 -0.0000
vn -0.0000 1.0000 -0.0000
vn -0.0000 -0.0000 -1.0000
vn 1.0000 -0.0000 -0.0000
vn 0.0799 -0.0000 0.9968
vn -0.9968 -0.0000 0.0799
vn -0.0799 -0.0000 -0.9968
vn 0.9968 -0.0000 -0.0799
vn -0.0500 -0.0000 0.9988
vn -0.9988 -0.0000 -0.0500
vn 0.0500 -0.0000 -0.9988
vn 0.9988 -0.0000 0.0500
vn 0.1098 -0.0000 0.9940
vn -0.9940 -0.0000 0.1098
vn -0.1098 -0.0000 -0.9940
vn 0.9940 -0.0000 -0.1098
vn -0.8908 -0.4085 0.1992
vn 0.2182 -0.0000 0.9759
vn -0.3986 0.9128 0.0891
vn 0.8908 0.4085 -0.1992
vn -0.2182 -0.0000 -0.9759
vn 0.3986 -0.9128 -0.0891
vn -0.4794 -0.0000 0.8776
vn -0.8776 -0.0000 -0.4794
vn 0.4794 -0.0000 -0.8776
vn 0.8776 -0.0000 0.4794
vn -0.4370 -0.7588 -0.4830
vn -0.4830 -0.7588 0.4370
vn -0.7809 -0.4606 0.4221
vn -0.7348 -0.4606 -0.4979
vn -0.4979 -0.4606 0.7348
vn -0.4979 0.4606 0.7348
vn -0.7809 0.4606 0.4221
vn -0.4830 0.7588 0.4370
vn -0.4370 0.7588 -0.4830
vn -0.7348 0.4606 -0.4979
vn -0.4221 0.4606 -0.7809
vn -0.4221 -0.4606 -0.7809
vn 0.4830 -0.7588 -0.4370
vn 0.4979 -0.4606 -0.7348
vn 0.4830 0.7588 -0.4370
vn 0.4979 0.4606 -0.7348
vn 0.7809 0.4606 -0.4221
vn 0.7809 -0.4606 -0.4221
vn 0.4370 -0.7588 0.4830
vn 0.7348 -0.4606 0.4979
vn 0.4370 0.7588 0.4830
vn 0.7348 0.4606 0.4979
vn 0.4221 0.4606 0.7809
vn 0.4221 -0.4606 0.7809
vn -0.5083 -0.7588 -0.4072
vn -0.4072 -0.7588 0.5083
vn -0.7036 -0.4606 0.5411
vn -0.8048 -0.4606 -0.3745
vn -0.3745 -0.4606 0.8048
vn -0.3745 0.4606 0.8048
vn -0.7036 0.4606 0.5411
vn -0.4072 0.7588 0.5083
vn -0.5083 0.7588 -0.4072
vn -0.8048 0.4606 -0.3745
vn -0.5411 0.4606 -0.7036
vn -0.5411 -0.4606 -0.7036
vn 0.4072 -0.7588 -0.5083
vn 0.3745 -0.4606 -0.8048
vn 0.4072 0.7588 -0.5083
vn 0.3745 0.4606 -0.8048
vn 0.7036 0.4606 -0.5411
vn 0.7036 -0.4606 -0.5411
vn 0.5083 -0.7588 0.4072
vn 0.8048 -0.4606 0.3745
vn 0.5083 0.7588 0.4072
vn 0.8048 0.4606 0.3745
vn 0.5411 0.4606 0.7036
vn 0.5411 -0.4606 0.7036
vn -0.9600 0.1104 -0.2573
vn -0.7590 0.1104 0.6417
vn -0.6122 0.5045 0.6088
vn -0.8132 0.5045 -0.2901
vn -0.4283 0.2323 0.8733
vn 0.3922 0.6085 0.6898
vn 0.2083 0.8807 0.4254
vn 0.5928 0.7303 0.3394
vn 0.3918 0.7303 -0.5595
vn 0.0073 0.8807 -0.4736
vn 0.0611 0.6085 -0.7912
vn -0.7594 0.2322 -0.6077
vn -0.5928 -0.7303 -0.3394
vn -0.3922 -0.6085 -0.6898
vn 0.7590 -0.1104 -0.6417
vn 0.4283 -0.2323 -0.8733
vn 0.6122 -0.5045 -0.6088
vn -0.2083 -0.8807 -0.4254
vn -0.3918 -0.7303 0.5596
vn -0.0073 -0.8807 0.4736
vn 0.9600 -0.1104 0.2573
vn 0.8132 -0.5045 0.2901
vn 0.7594 -0.2322 0.6077
vn -0.0611 -0.6085 0.7912
vn -0.1834 -0.7588 -0.6250
vn -0.6250 -0.7588 0.1834
vn -0.8867 -0.4606 0.0404
vn -0.4451 -0.4606 -0.7680
vn -0.7680 -0.4606 0.4451
vn -0.7680 0.4606 0.4451
vn -0.8867 0.4606 0.0404
vn -0.6250 0.7588 0.1834
vn -0.1834 0.7588 -0.6250
vn -0.4451 0.4606 -0.7680
vn -0.0404 0.4606 -0.8867
vn -0.0404 -0.4606 -0.8867
vn 0.6250 -0.7588 -0.1834
vn 0.7680 -0.4606 -0.4451
vn 0.6250 0.7588 -0.1834
vn 0.7680 0.4606 -0.4451
vn 0.8867 0.4606 -0.0404
vn 0.8867 -0.4606 -0.0404
vn 0.1834 -0.7588 0.6250
vn 0.4451 -0.4606 0.7680
vn 0.1834 0.7588 0.6250
vn 0.4451 0.4606 0.7680
vn 0.0404 0.4606 0.8867
vn 0.0404 -0.4606 0.8867
vt -1.577500 -1.177500
vt -1.577500 -1.200000
vt -1.600000 -1.177500
vt -1.577500 1.177500
vt -1.600000 1.177500
vt -1.577500 1.200000
vt 1.577500 -1.177500
vt 1.600000 -1.177500
vt 1.577500 -1.200000
vt 1.577500 1.177500
vt 1.577500 1.200000
vt 1.600000 1.177500
vt -1.136986 1.200000
vt -1.135188 1.222500
vt -1.159414 1.222500
vt -1.135188 2.177500
vt -1.136986 2.200000
vt -1.159414 2.177500
vt 0.863971 1.200000
vt 0.862173 1.222500
vt 0.886399 1.222500
vt 0.863971 2.200000
vt 0.886399 2.177500
vt 0.862173 2.177500
vt -1.063971 1.200000
vt -1.062173 1.222500
vt -1.086399 1.222500
vt -1.063971 2.200000
vt -1.086399 2.177500
vt -1.062173 2.177500
vt 1.436986 1.200000
vt 1.435188 1.222500
vt 1.459414 1.222500
vt 1.436986 2.200000
vt 1.459414 2.177500
vt 1.435188 2.177500
vt -0.848727 2.200000
vt -0.871199 2.222500
vt -0.847603 2.222500
vt -0.871199 3.077500
vt -0.848727 3.100000
vt -0.847603 3.077500
vt -1.155454 2.200000
vt -1.177926 2.222500
vt -1.154329 2.222500
vt -1.155454 3.100000
vt -1.154329 3.077500
vt -1.177926 3.077500
vt -0.144546 2.200000
vt -0.122074 2.222500
vt -0.145671 2.222500
vt -0.144546 3.100000
vt -0.145671 3.077500
vt -0.122074 3.077500
vt 0.948727 2.200000
vt 0.971199 2.222500
vt 0.947603 2.222500
vt 0.948727 3.100000
vt 0.947603 3.077500
vt 0.971199 3.077500
vt 0.252659 2.225000
vt 0.255129 2.247500
vt 0.230295 2.247500
vt 0.255129 3.102500
vt 0.252659 3.125000
vt 0.230295 3.102500
vt 1.011242 2.225000
vt 1.008772 2.247500
vt 1.033606 2.247500
vt 1.011242 3.125000
vt 1.033606 3.102500
vt 1.008772 3.102500
vt -0.711242 2.225000
vt -0.708772 2.247500
vt -0.733606 2.247500
vt -0.711242 3.125000
vt -0.733606 3.102500
vt -0.708772 3.102500
vt 1.147341 2.225000
vt 1.144871 2.247500
vt 1.169706 2.247500
vt 1.147341 3.125000
vt 1.169706 3.102500
vt 1.144871 3.102500
vt 2.079228 1.412975
vt 2.104180 1.422166
vt 2.090300 1.442703
vt 2.286787 -1.273948
vt 2.301919 -1.247508
vt 2.272907 -1.253996
vt 0.317804 1.412975
vt 0.320280 1.442703
vt 0.344243 1.422166
vt 1.940748 0.367602
vt 1.915796 0.385078
vt 1.911737 0.361114
vt 2.659252 -1.167602
vt 2.688263 -1.161114
vt 2.684204 -1.185078
vt -1.117804 0.187025
vt -1.144243 0.177834
vt -1.120280 0.157297
vt 2.298081 0.447508
vt 2.313214 0.473948
vt 2.327093 0.453996
vt 2.520772 0.187025
vt 2.509700 0.157297
vt 2.495820 0.177834
vt 1.162398 0.000000
vt 1.142653 0.022500
vt 1.173185 0.022500
vt 1.142653 0.177500
vt 1.162398 0.200000
vt 1.173185 0.177500
vt 1.798099 0.000000
vt 1.778353 0.022500
vt 1.808886 0.022500
vt 1.798099 0.200000
vt 1.808886 0.177500
vt 1.778353 0.177500
vt 2.201901 0.000000
vt 2.221647 0.022500
vt 2.191114 0.022500
vt 2.201901 0.200000
vt 2.191114 0.177500
vt 2.221647 0.177500
vt 1.837602 0.000000
vt 1.857347 0.022500
vt 1.826815 0.022500
vt 1.837602 0.200000
vt 1.826815 0.177500
vt 1.857347 0.177500
vt -1.200000 1.177500
vt -1.177500 0.022500
vt -1.200000 0.022500
vt 1.200000 0.022500
vt 1.177500 1.177500
vt 1.200000 1.177500
vt 1.177500 0.022500
vt -1.177500 1.177500
vt -1.136986 -1.284136
vt -1.331630 0.862173
vt -1.309202 0.863971
vt -1.159414 -1.285934
vt 1.435188 1.106564
vt 1.436986 1.084136
vt -1.311000 0.886399
vt 1.631631 -1.062173
vt 1.609202 -1.063971
vt 1.459414 1.085934
vt -1.135188 -1.306564
vt 1.611000 -1.086399
vt -1.248165 -0.848727
vt -1.177926 1.005079
vt -1.155454 1.003954
vt -1.270637 -0.847603
vt -0.050710 0.971199
vt -0.051835 0.948727
vt -0.051835 0.948727
vt -1.154329 1.026426
vt -0.122074 -0.905079
vt -0.144546 -0.903954
vt -0.029363 0.947603
vt -0.145671 -0.926426
vt -1.249290 -0.871199
vt 0.252659 -0.832547
vt 0.026656 1.008772
vt 0.049020 1.011242
vt 0.230295 -0.835017
vt 1.144871 1.154911
vt 1.147341 1.132547
vt 0.046550 1.033606
vt 1.373344 -0.708772
vt 1.350980 -0.711242
vt 1.169706 1.135017
vt 0.255129 -0.854911
vt 1.353450 -0.733606
vt -1.297306 1.412975
vt 2.286787 1.505906
vt 1.733190 0.344243
vt 0.473948 0.094094
vt 0.447508 0.084903
vt 1.915796 1.505906
vt 1.940748 1.515097
vt 2.327093 0.073557
vt 0.494830 0.157297
vt 0.497306 0.187025
vt 2.870870 -1.120280
vt 2.866810 -1.144243
vt 2.684204 0.094094
vt -1.247508 1.515097
vt 1.100535 1.162398
vt 1.778353 2.450068
vt 1.798099 2.439281
vt 1.080789 1.173185
vt 2.910252 1.857347
vt 2.899465 1.837602
vt 1.808886 2.459027
vt 2.221647 0.549932
vt 2.201901 0.560719
vt 2.919211 1.826815
vt 1.089748 1.142653
vt 2.191114 0.540974
vt -1.577500 0.022500
vt 1.577500 0.022500
vt -1.285934 2.177500
vt -1.285934 1.222500
vt 1.611000 2.177500
vt 1.611000 1.222500
vt -1.311000 2.177500
vt -1.311000 1.222500
vt 1.085934 2.177500
vt 1.085934 1.222500
vt 1.005079 2.222500
vt -1.249290 2.222500
vt -0.050710 2.222500
vt -0.905079 2.222500
vt -0.835017 3.102500
vt -0.835017 2.247500
vt 1.353450 3.102500
vt 1.353450 2.247500
vt 0.046550 3.102500
vt 0.046550 2.247500
vt 1.135017 3.102500
vt 1.135017 2.247500
vt 1.729130 0.320280
vt 2.090300 -1.294830
vt 2.866810 0.177834
vt 0.367602 1.515097
vt 1.733190 1.422166
vt 2.313214 0.094094
vt 2.509700 0.494830
vt 2.450068 0.022500
vt 1.089748 0.022500
vt 2.910252 0.022500
vt 0.549932 0.022500
vt -0.122074 -0.905079
vt 0.026656 1.008772
vt 0.046550 1.033606
vt -1.294830 1.442703
vt 2.272907 1.526443
vt 2.659252 0.084903
vt -1.273948 1.505906
vt 1.005079 3.077500
vt -1.249290 3.077500
vt -0.050710 3.077500
vt -0.905079 3.077500
vt -1.167602 0.084903
vt 2.450068 0.177500
vt 1.089748 0.177500
vt 2.910252 0.177500
vt 0.549932 0.177500
s 1
f 47/1/47 44/2/44 46/3/46
f 43/2/43 41/1/41 42/3/42
f 48/4/48 45/5/45 37/6/37
f 40/4/40 38/6/38 39/5/39
f 30/7/30 29/8/29 25/9/25
f 28/7/28 26/9/26 27/8/27
f 36/10/36 35/11/35 31/12/31
f 34/10/34 32/12/32 33/11/33
f 23/13/23 20/14/20 22/15/22
f 19/16/19 17/17/17 18/18/18
f 24/19/24 21/20/21 13/21/13
f 16/22/16 14/23/14 15/24/15
f 6/25/6 5/26/5 1/27/1
f 4/28/4 2/29/2 3/30/3
f 12/31/12 11/32/11 7/33/7
f 10/34/10 8/35/8 9/36/9
f 194/37/78 197/38/81 195/39/79
f 198/40/82 200/41/84 199/42/83
f 193/43/77 196/44/80 204/45/88
f 201/46/85 203/47/87 202/48/86
f 211/49/95 212/50/96 216/51/100
f 213/52/97 215/53/99 214/54/98
f 205/55/89 206/56/90 210/57/94
f 207/58/91 209/59/93 208/60/92
f 218/61/102 221/62/105 219/63/103
f 222/64/106 224/65/108 223/66/107
f 217/67/101 220/68/104 228/69/112
f 225/70/109 227/71/111 226/72/110
f 235/73/119 236/74/120 240/75/124
f 237/76/121 239/77/123 238/78/122
f 229/79/113 230/80/114 234/81/118
f 231/82/115 233/83/117 232/84/116
f 242/85/126 245/86/129 243/87/127
f 246/88/130 248/89/132 247/90/131
f 241/91/125 244/92/128 252/93/136
f 249/94/133 251/95/135 250/96/134
f 259/97/143 260/98/144 264/99/148
f 261/100/145 263/101/147 262/102/146
f 253/103/137 254/104/138 258/105/142
f 255/106/139 257/107/141 256/108/140
f 266/109/150 269/110/153 267/111/151
f 270/112/154 272/113/156 271/114/155
f 265/115/149 268/116/152 276/117/160
f 273/118/157 275/119/159 274/120/158
f 283/121/167 284/122/168 288/123/172
f 285/124/169 287/125/171 286/126/170
f 277/127/161 278/128/162 282/129/166
f 279/130/163 281/131/165 280/132/164
f 47/1/47 45/5/45 48/4/48
f 43/133/43 46/134/46 44/135/44
f 40/4/40 42/3/42 41/1/41
f 37/136/37 39/137/39 38/138/38
f 48/4/48 35/11/35 36/10/36
f 34/10/34 38/6/38 40/4/40
f 31/139/31 33/138/33 32/137/32
f 36/10/36 29/8/29 30/7/30
f 28/7/28 32/12/32 34/10/34
f 25/135/25 27/140/27 26/133/26
f 30/7/30 44/2/44 47/1/47
f 41/1/41 26/9/26 28/7/28
f 23/141/23 21/142/21 24/143/24
f 19/16/19 22/15/22 20/14/20
f 16/143/16 18/144/18 17/141/17
f 13/21/13 15/24/15 14/23/14
f 24/143/24 11/145/11 12/146/12
f 10/146/10 14/147/14 16/143/16
f 7/33/7 9/36/9 8/35/8
f 12/146/12 5/148/5 6/149/6
f 4/149/4 8/150/8 10/146/10
f 1/27/1 3/30/3 2/29/2
f 6/149/6 20/151/20 23/141/23
f 17/141/17 2/152/2 4/149/4
f 194/153/78 196/154/80 193/155/77
f 198/40/82 195/39/79 197/38/81
f 201/155/85 199/156/83 200/153/84
f 204/45/88 202/48/86 203/47/87
f 193/155/77 206/157/90 205/158/89
f 207/159/91 203/160/87 201/155/85
f 210/57/94 208/60/92 209/59/93
f 205/158/89 212/161/96 211/162/95
f 213/162/97 209/163/93 207/159/91
f 216/51/100 214/54/98 215/53/99
f 194/153/78 216/164/100 197/165/81
f 200/153/84 215/164/99 213/162/97
f 218/166/102 220/167/104 217/168/101
f 222/64/106 219/63/103 221/62/105
f 225/168/109 223/169/107 224/166/108
f 228/69/112 226/72/110 227/71/111
f 217/168/101 230/170/114 229/171/113
f 231/171/115 227/172/111 225/168/109
f 234/81/118 232/84/116 233/83/117
f 229/171/113 236/173/120 235/174/119
f 237/174/121 233/175/117 231/171/115
f 240/75/124 238/78/122 239/77/123
f 235/174/119 221/176/105 218/166/102
f 224/166/108 239/177/123 237/174/121
f 242/178/126 244/92/128 241/91/125
f 246/179/130 243/87/127 245/86/129
f 249/94/133 247/90/131 248/89/132
f 252/180/136 250/96/134 251/95/135
f 241/91/125 254/181/138 253/182/137
f 255/106/139 251/183/135 249/184/133
f 258/185/142 256/108/140 257/107/141
f 253/103/137 260/98/144 259/97/143
f 261/100/145 257/186/141 255/187/139
f 264/99/148 262/188/146 263/189/147
f 242/85/126 264/190/148 245/86/129
f 248/191/132 263/101/147 261/100/145
f 266/192/150 268/193/152 265/194/149
f 270/112/154 267/111/151 269/110/153
f 273/194/157 271/195/155 272/192/156
f 276/117/160 274/120/158 275/119/159
f 265/194/149 278/196/162 277/197/161
f 273/194/157 280/196/164 275/198/159
f 282/129/166 280/132/164 281/131/165
f 277/197/161 284/199/168 283/200/167
f 285/200/169 281/201/165 279/197/163
f 288/123/172 286/126/170 287/125/171
f 283/200/167 269/202/153 266/192/150
f 272/192/156 287/203/171 285/200/169
f 67/10/49 49/1/49 55/4/49
f 54/140/51 56/139/51 51/134/51
f 65/10/50 50/204/50 63/205/50
f 58/4/52 64/7/52 70/10/52
f 59/4/53 68/205/53 57/204/53
f 71/137/54 62/134/54 69/139/54
f 91/146/49 73/141/49 79/143/49
f 78/206/56 80/20/56 75/207/56
f 89/208/55 74/14/55 87/209/55
f 82/143/52 88/149/52 94/146/52
f 83/210/57 92/32/57 81/211/57
f 95/212/58 86/26/58 93/213/58
f 115/158/49 97/153/49 103/155/49
f 102/42/60 104/214/60 99/39/60
f 113/53/59 98/215/59 111/51/59
f 106/155/52 112/162/52 118/159/52
f 107/47/61 116/216/61 105/45/61
f 119/59/62 110/217/62 117/57/62
f 139/171/49 121/166/49 127/168/49
f 126/218/64 128/68/64 123/219/64
f 137/220/63 122/62/63 135/221/63
f 130/168/52 136/174/52 142/171/52
f 131/222/65 140/80/65 129/223/65
f 143/224/66 134/74/66 141/225/66
f 163/182/67 145/178/67 151/91/67
f 150/90/69 152/226/69 147/227/69
f 161/228/68 146/86/68 159/190/68
f 154/229/70 160/100/70 166/187/70
f 153/230/71 168/108/71 164/231/71
f 167/232/72 158/98/72 165/105/72
f 187/197/49 169/192/49 175/194/49
f 174/114/74 176/233/74 171/111/74
f 185/125/73 170/234/73 183/123/73
f 190/197/52 173/192/52 184/200/52
f 179/119/75 188/235/75 177/117/75
f 191/131/76 182/236/76 189/129/76
f 47/1/47 46/3/46 45/5/45
f 43/133/43 42/140/42 46/134/46
f 40/4/40 39/5/39 42/3/42
f 37/136/37 45/139/45 39/137/39
f 48/4/48 37/6/37 35/11/35
f 34/10/34 33/11/33 38/6/38
f 31/139/31 35/136/35 33/138/33
f 36/10/36 31/12/31 29/8/29
f 28/7/28 27/8/27 32/12/32
f 25/135/25 29/134/29 27/140/27
f 30/7/30 25/9/25 44/2/44
f 41/1/41 43/2/43 26/9/26
f 23/141/23 22/144/22 21/142/21
f 19/16/19 18/18/18 22/15/22
f 16/143/16 15/142/15 18/144/18
f 13/21/13 21/20/21 15/24/15
f 24/143/24 13/147/13 11/145/11
f 10/146/10 9/145/9 14/147/14
f 7/33/7 11/32/11 9/36/9
f 12/146/12 7/150/7 5/148/5
f 4/149/4 3/148/3 8/150/8
f 1/27/1 5/26/5 3/30/3
f 6/149/6 1/152/1 20/151/20
f 17/141/17 19/151/19 2/152/2
f 194/153/78 195/156/79 196/154/80
f 198/40/82 199/42/83 195/39/79
f 201/155/85 202/154/86 199/156/83
f 204/45/88 196/44/80 202/48/86
f 193/155/77 204/160/88 206/157/90
f 207/159/91 208/157/92 203/160/87
f 210/57/94 206/56/90 208/60/92
f 205/158/89 210/163/94 212/161/96
f 213/162/97 214/237/98 209/163/93
f 216/51/100 212/50/96 214/54/98
f 194/153/78 211/162/95 216/164/100
f 200/153/84 198/165/82 215/164/99
f 218/166/102 219/169/103 220/167/104
f 222/64/106 223/66/107 219/63/103
f 225/168/109 226/238/110 223/169/107
f 228/69/112 220/68/104 226/72/110
f 217/168/101 228/239/112 230/170/114
f 231/171/115 232/170/116 227/172/111
f 234/81/118 230/80/114 232/84/116
f 229/171/113 234/175/118 236/173/120
f 237/174/121 238/173/122 233/175/117
f 240/75/124 236/74/120 238/78/122
f 235/174/119 240/177/124 221/176/105
f 224/166/108 222/176/106 239/177/123
f 242/178/126 243/240/127 244/92/128
f 246/179/130 247/241/131 243/87/127
f 249/94/133 250/96/134 247/90/131
f 252/180/136 244/226/128 250/96/134
f 241/91/125 252/93/136 254/181/138
f 255/106/139 256/108/140 251/183/135
f 258/185/142 254/231/138 256/108/140
f 253/103/137 258/105/142 260/98/144
f 261/100/145 262/102/146 257/186/141
f 264/99/148 260/98/144 262/188/146
f 242/85/126 259/242/143 264/190/148
f 248/191/132 246/243/130 263/101/147
f 266/192/150 267/195/151 268/193/152
f 270/112/154 271/114/155 267/111/151
f 273/194/157 274/193/158 271/195/155
f 276/117/160 268/116/152 274/120/158
f 265/194/149 276/198/160 278/196/162
f 273/194/157 279/197/163 280/196/164
f 282/129/166 278/128/162 280/132/164
f 277/197/161 282/201/166 284/199/168
f 285/200/169 286/199/170 281/201/165
f 288/123/172 284/122/168 286/126/170
f 283/200/167 288/203/172 269/202/153
f 272/192/156 270/202/154 287/203/171
f 67/10/49 61/7/49 49/1/49
f 54/140/51 60/137/51 56/139/51
f 65/10/50 52/4/50 50/204/50
f 58/4/52 53/1/52 64/7/52
f 59/4/53 72/10/53 68/205/53
f 71/137/54 66/140/54 62/134/54
f 91/146/49 85/149/49 73/141/49
f 78/206/56 84/24/56 80/20/56
f 89/208/55 76/16/55 74/14/55
f 82/143/52 77/141/52 88/149/52
f 83/210/57 96/36/57 92/32/57
f 95/212/58 90/30/58 86/26/58
f 115/158/49 109/162/49 97/153/49
f 102/42/60 108/244/60 104/214/60
f 113/53/59 100/245/59 98/215/59
f 106/155/52 101/153/52 112/162/52
f 107/47/61 120/246/61 116/216/61
f 119/59/62 114/247/62 110/217/62
f 139/171/49 133/174/49 121/166/49
f 126/218/64 132/72/64 128/68/64
f 137/220/63 124/64/63 122/62/63
f 130/168/52 125/166/52 136/174/52
f 131/222/65 144/84/65 140/80/65
f 143/224/66 138/78/66 134/74/66
f 163/182/67 157/248/67 145/178/67
f 150/90/69 156/96/69 152/226/69
f 161/228/68 148/179/68 146/86/68
f 154/229/70 149/191/70 160/100/70
f 153/230/71 155/183/71 168/108/71
f 167/232/72 162/188/72 158/98/72
f 187/197/49 181/200/49 169/192/49
f 174/114/74 180/249/74 176/233/74
f 185/125/73 172/250/73 170/234/73
f 190/197/52 178/194/52 173/192/52
f 179/119/75 192/251/75 188/235/75
f 191/131/76 186/252/76 182/236/76
