# Blender 5.2.0 LTS
# www.blender.org
o Backdrop_PirateShip_Detail
v 12.975020 88.000000 0.774030
v 12.244362 87.099998 1.325796
v 13.900002 65.340004 -19.099998
v 12.975020 26.000000 0.774030
v 12.244362 26.900002 1.325796
v 14.099998 78.419998 12.099998
v 13.323847 88.000000 1.092027
v 12.841849 87.099998 1.870478
v 13.323847 26.000000 1.092027
v 12.841849 26.900002 1.870478
v 14.099998 80.220001 12.099998
v 13.763990 88.000000 1.262540
v 13.595751 87.099998 2.162541
v 14.099998 63.540001 -19.099998
v 13.763990 26.000000 1.262540
v 13.595751 26.900002 2.162541
v -14.099998 68.099998 -12.099998
v -13.900002 68.099998 -12.099998
v 14.236010 88.000000 1.262540
v 14.404249 87.099998 2.162541
v 14.099998 65.340004 -19.099998
v 14.236010 26.000000 1.262540
v 14.404249 26.900002 2.162541
v 14.676153 88.000000 1.092027
v 15.158151 87.099998 1.870478
v 14.676153 26.000000 1.092027
v 15.158151 26.900002 1.870478
v -14.000000 26.000000 -1.284409
v -14.000000 26.900002 -2.200000
v 15.024980 88.000000 0.774030
v 15.755638 87.099998 1.325796
v 14.099998 63.540001 19.099998
v 13.900002 63.540001 19.099998
v 15.024980 26.000000 0.774030
v 15.755638 26.900002 1.325796
v 46.463947 19.525421 -0.790018
v 46.588581 19.246943 -0.546710
v 47.696953 18.972795 -1.107325
v 47.444527 19.536842 -1.600127
v 15.235377 88.000000 0.351494
v 16.116016 87.099998 0.602059
v 13.900002 65.340004 19.099998
v 14.099998 65.340004 19.099998
v 15.235377 26.000000 0.351494
v 16.116016 26.900002 0.602059
v 15.278930 88.000000 -0.118510
v 16.190615 87.099998 -0.202990
v 13.900002 78.419998 12.099998
v -13.536017 26.000000 -1.197676
v -13.134699 26.000000 -0.949189
v -12.517870 26.900002 -1.625820
v -13.205268 26.900002 -2.051439
v 36.000000 23.905279 -1.885612
v 36.812786 24.438557 -1.970075
v 13.900002 80.220001 -12.099998
v 13.900002 80.220001 12.099998
v -14.099998 69.900002 -12.099998
v -14.099998 69.900002 12.099998
v 36.000000 22.739908 5.472260
v 36.812786 23.220984 5.717378
v 14.000000 26.000000 -1.284409
v 14.000000 26.900002 -2.200000
v 36.000000 17.472256 10.739910
v 36.812786 17.717377 11.220987
v 13.900002 78.419998 -12.099998
v 14.099998 78.419998 -12.099998
v 36.000000 10.114388 11.905282
v 36.812786 10.029923 12.438560
v 36.000000 3.476758 8.523239
v 36.812786 3.094975 8.905025
v 14.463983 88.000000 -1.197676
v 14.000000 88.000000 -1.284409
v 14.000000 87.099998 -2.200000
v 14.794732 87.099998 -2.051439
v 36.000000 0.094717 1.885610
v 36.812786 -0.438560 1.970073
v 36.000000 1.260090 -5.472258
v 36.812786 0.779013 -5.717379
v 15.149755 88.000000 -0.572511
v 14.865301 88.000000 -0.949189
v 15.482130 87.099998 -1.625820
v 15.969359 87.099998 -0.980624
v 36.000000 6.527742 -10.739910
v 36.812786 6.282622 -11.220985
v 14.463983 26.000000 -1.197676
v 14.865301 26.000000 -0.949189
v 15.482130 26.900002 -1.625820
v 14.794732 26.900002 -2.051439
v 36.000000 20.523239 -8.523239
v 36.000000 13.885611 -11.905282
v 36.812786 13.970075 -12.438560
v 36.812786 20.905024 -8.905025
v -13.536017 76.000000 -1.197676
v -14.000000 76.000000 -1.284409
v -14.000000 75.099998 -2.200000
v -13.205268 75.099998 -2.051439
v 15.149755 26.000000 -0.572511
v 15.278930 26.000000 -0.118510
v 16.190615 26.900002 -0.202990
v 15.969359 26.900002 -0.980624
v -19.900002 21.900002 11.000000
v -19.900002 38.099998 11.000000
v -19.000000 38.099998 10.099998
v -19.900002 39.000000 10.099998
v -19.000000 21.900002 10.099998
v -19.900002 21.000000 10.099998
v -19.000000 21.900002 -10.099998
v -19.000000 38.099998 -10.099998
v -19.900002 38.099998 -11.000000
v -19.900002 39.000000 -10.099998
v -19.900002 21.900002 -11.000000
v -19.900002 21.000000 -10.099998
v -40.099998 21.900002 -11.000000
v -40.099998 38.099998 -11.000000
v -41.000000 38.099998 -10.099998
v -40.099998 39.000000 -10.099998
v -40.099998 39.000000 10.099998
v -41.000000 38.099998 10.099998
v -40.099998 38.099998 11.000000
v -40.099998 21.900002 11.000000
v -41.000000 21.900002 -10.099998
v -41.000000 21.900002 10.099998
v -40.099998 21.000000 10.099998
v -40.099998 21.000000 -10.099998
v 31.099998 18.900002 11.000000
v 31.099998 25.099998 11.000000
v 32.000000 25.099998 10.099998
v 31.099998 26.000000 10.099998
v 32.000000 18.900002 10.099998
v 31.099998 18.000000 10.099998
v 32.000000 18.900002 -10.099998
v 32.000000 25.099998 -10.099998
v 31.099998 25.099998 -11.000000
v 31.099998 26.000000 -10.099998
v 31.099998 18.900002 -11.000000
v 31.099998 18.000000 -10.099998
v -31.099998 18.900002 -11.000000
v -31.099998 25.099998 -11.000000
v -32.000000 25.099998 -10.099998
v -31.099998 26.000000 -10.099998
v -31.099998 26.000000 10.099998
v -32.000000 25.099998 10.099998
v -31.099998 25.099998 11.000000
v -31.099998 18.900002 11.000000
v -37.099998 0.900001 13.000000
v -37.099998 0.000000 12.099998
v -32.000000 18.900002 -10.099998
v -32.000000 18.900002 10.099998
v -31.099998 18.000000 10.099998
v -31.099998 18.000000 -10.099998
v 37.099998 0.900001 13.000000
v 37.099998 19.099998 13.000000
v 38.000000 19.099998 12.099998
v 37.099998 20.000000 12.099998
v 38.000000 0.900001 12.099998
v 37.099998 0.000000 12.099998
v 38.000000 0.900001 -12.099998
v 38.000000 19.099998 -12.099998
v 37.099998 19.099998 -13.000000
v 37.099998 20.000000 -12.099998
v 37.099998 0.900001 -13.000000
v 37.099998 0.000000 -12.099998
v -37.099998 0.900001 -13.000000
v -37.099998 19.099998 -13.000000
v -38.000000 19.099998 -12.099998
v -37.099998 20.000000 -12.099998
v -37.099998 20.000000 12.099998
v -38.000000 19.099998 12.099998
v -37.099998 19.099998 13.000000
v -37.099998 0.900001 13.000000
v -38.000000 0.900001 -12.099998
v -38.000000 0.900001 12.099998
v -37.099998 0.000000 12.099998
v -37.099998 0.000000 -12.099998
v -38.000000 0.900001 12.099998
v -37.099998 19.099998 13.000000
v -37.099998 20.000000 12.099998
v -38.000000 19.099998 12.099998
v -37.099998 0.000000 -12.099998
v -38.000000 0.900001 -12.099998
v -37.099998 0.900001 -13.000000
v -37.099998 20.000000 -12.099998
v -37.099998 19.099998 -13.000000
v -38.000000 19.099998 -12.099998
v 37.099998 0.000000 12.099998
v 38.000000 0.900001 12.099998
v 37.099998 0.900001 13.000000
v 37.099998 20.000000 12.099998
v 37.099998 19.099998 13.000000
v 38.000000 19.099998 12.099998
v 37.099998 0.000000 -12.099998
v 37.099998 0.900001 -13.000000
v 38.000000 0.900001 -12.099998
v 37.099998 20.000000 -12.099998
v 38.000000 19.099998 -12.099998
v 37.099998 19.099998 -13.000000
v -31.099998 18.000000 10.099998
v -31.099998 18.900002 11.000000
v -32.000000 18.900002 10.099998
v -31.099998 25.099998 11.000000
v -31.099998 26.000000 10.099998
v -32.000000 25.099998 10.099998
v -31.099998 18.000000 -10.099998
v -32.000000 18.900002 -10.099998
v -31.099998 18.900002 -11.000000
v -31.099998 26.000000 -10.099998
v -31.099998 25.099998 -11.000000
v -32.000000 25.099998 -10.099998
v 31.099998 18.000000 10.099998
v 32.000000 18.900002 10.099998
v 31.099998 18.900002 11.000000
v 31.099998 26.000000 10.099998
v 31.099998 25.099998 11.000000
v 32.000000 25.099998 10.099998
v 31.099998 18.000000 -10.099998
v 31.099998 18.900002 -11.000000
v 32.000000 18.900002 -10.099998
v 31.099998 26.000000 -10.099998
v 32.000000 25.099998 -10.099998
v 31.099998 25.099998 -11.000000
v -40.099998 21.000000 10.099998
v -40.099998 21.900002 11.000000
v -41.000000 21.900002 10.099998
v -40.099998 38.099998 11.000000
v -40.099998 39.000000 10.099998
v -41.000000 38.099998 10.099998
v -40.099998 21.000000 -10.099998
v -41.000000 21.900002 -10.099998
v -40.099998 21.900002 -11.000000
v -40.099998 39.000000 -10.099998
v -40.099998 38.099998 -11.000000
v -41.000000 38.099998 -10.099998
v -19.900002 21.000000 10.099998
v -19.000000 21.900002 10.099998
v -19.900002 21.900002 11.000000
v -19.900002 39.000000 10.099998
v -19.900002 38.099998 11.000000
v -19.000000 38.099998 10.099998
v -19.900002 21.000000 -10.099998
v -19.900002 21.900002 -11.000000
v -19.000000 21.900002 -10.099998
v -19.900002 39.000000 -10.099998
v -19.000000 38.099998 -10.099998
v -19.900002 38.099998 -11.000000
v 13.900002 63.540001 19.099998
v 13.900002 64.440002 20.000000
v -14.099998 57.000000 -20.000000
v -13.900002 57.000000 -20.000000
v 13.900002 65.340004 19.099998
v 13.000000 64.440002 19.099998
v 36.000000 20.523239 -8.523239
v 36.812786 20.905024 -8.905025
v 60.000000 12.037960 -0.037959
v 59.187214 12.994470 -0.994470
v 36.000000 13.885611 -11.905282
v 36.812786 13.970075 -12.438560
v 60.000000 12.008398 -0.053022
v 59.187214 12.220009 -1.389076
v 36.000000 6.527742 -10.739910
v 36.812786 6.282622 -11.220985
v 60.000000 11.975629 -0.047831
v 59.187214 11.361512 -1.253105
v 36.000000 1.260090 -5.472258
v 36.812786 0.779013 -5.717379
v 60.000000 11.952169 -0.024372
v 59.187214 10.746896 -0.638489
v 36.000000 0.094717 1.885610
v 36.812786 -0.438560 1.970073
v 60.000000 11.946980 0.008397
v 59.187214 10.610924 0.220008
v 36.000000 3.476758 8.523239
v 36.812786 3.094975 8.905025
v 60.000000 11.962043 0.037960
v 59.187214 11.005532 0.994470
v 36.000000 10.114388 11.905282
v 36.812786 10.029923 12.438560
v 60.000000 11.991603 0.053022
v 59.187214 11.779992 1.389077
v 36.000000 17.472256 10.739910
v 36.812786 17.717377 11.220987
v 60.000000 12.024372 0.047831
v 59.187214 12.638490 1.253105
v 36.000000 22.739908 5.472260
v 36.812786 23.220984 5.717378
v 60.000000 12.047832 0.024371
v 59.187214 13.253105 0.638489
v 36.000000 23.905279 -1.885612
v 36.812786 24.438557 -1.970075
v 60.000000 12.053022 -0.008397
v 59.187214 13.389075 -0.220006
v 14.000000 26.000000 -1.284409
v 14.000000 26.900002 -2.200000
v 14.000000 88.000000 -1.284409
v 14.000000 87.099998 -2.200000
v 14.463983 26.000000 -1.197676
v 14.794732 26.900002 -2.051439
v 14.463983 88.000000 -1.197676
v 14.794732 87.099998 -2.051439
v 14.865301 26.000000 -0.949189
v 15.482130 26.900002 -1.625820
v 14.865301 88.000000 -0.949189
v 15.482130 87.099998 -1.625820
v 15.149755 26.000000 -0.572511
v 15.969359 26.900002 -0.980624
v 15.149755 88.000000 -0.572511
v 15.969359 87.099998 -0.980624
v 15.278930 26.000000 -0.118510
v 16.190615 26.900002 -0.202990
v 15.278930 88.000000 -0.118510
v 16.190615 87.099998 -0.202990
v 15.235377 26.000000 0.351494
v 16.116016 26.900002 0.602059
v 15.235377 88.000000 0.351494
v 16.116016 87.099998 0.602059
v 15.024980 26.000000 0.774030
v 15.755638 26.900002 1.325796
v 15.024980 88.000000 0.774030
v 15.755638 87.099998 1.325796
v 14.676153 26.000000 1.092027
v 15.158151 26.900002 1.870478
v 14.676153 88.000000 1.092027
v 15.158151 87.099998 1.870478
v 14.236010 26.000000 1.262540
v 14.404249 26.900002 2.162541
v 14.236010 88.000000 1.262540
v 14.404249 87.099998 2.162541
v 13.763990 26.000000 1.262540
v 13.595751 26.900002 2.162541
v 13.763990 88.000000 1.262540
v 13.595751 87.099998 2.162541
v 13.323847 26.000000 1.092027
v 12.841849 26.900002 1.870478
v 13.323847 88.000000 1.092027
v 12.841849 87.099998 1.870478
v 12.975020 26.000000 0.774030
v 12.244362 26.900002 1.325796
v 12.975020 88.000000 0.774030
v 12.244362 87.099998 1.325796
v 12.764623 26.000000 0.351494
v 11.883984 26.900002 0.602059
v 12.764623 88.000000 0.351494
v 11.883984 87.099998 0.602059
v 12.721070 26.000000 -0.118510
v 11.809385 26.900002 -0.202990
v 12.721070 88.000000 -0.118510
v 11.809385 87.099998 -0.202990
v 12.850245 26.000000 -0.572511
v 12.030641 26.900002 -0.980624
v 12.850245 88.000000 -0.572511
v 12.030641 87.099998 -0.980624
v 13.134699 26.000000 -0.949189
v 12.517870 26.900002 -1.625820
v 13.134699 88.000000 -0.949189
v 12.517870 87.099998 -1.625820
v 13.536017 26.000000 -1.197676
v 13.205268 26.900002 -2.051439
v 13.536017 88.000000 -1.197676
v 13.205268 87.099998 -2.051439
v 13.900002 63.540001 -19.099998
v 13.000000 64.440002 -19.099998
v -13.000000 69.000000 -12.099998
v 13.900002 65.340004 -19.099998
v 13.900002 64.440002 -20.000000
v -15.000000 57.000000 19.099998
v 14.099998 63.540001 19.099998
v 15.000000 64.440002 19.099998
v -15.000000 57.000000 -19.099998
v 14.099998 65.340004 19.099998
v 14.099998 64.440002 20.000000
v -13.000000 69.000000 12.099998
v 14.099998 63.540001 -19.099998
v 14.099998 64.440002 -20.000000
v -13.900002 69.000000 13.000000
v 14.099998 65.340004 -19.099998
v 15.000000 64.440002 -19.099998
v -14.099998 69.000000 13.000000
v 13.900002 78.419998 12.099998
v 13.900002 79.320000 13.000000
v -13.000000 57.000000 -19.099998
v -13.000000 57.000000 19.099998
v 13.900002 80.220001 12.099998
v 13.000000 79.320000 12.099998
v 13.900002 78.419998 -12.099998
v 13.000000 79.320000 -12.099998
v 14.099998 64.440002 20.000000
v 13.900002 80.220001 -12.099998
v 13.900002 79.320000 -13.000000
v 13.900002 64.440002 20.000000
v 14.099998 78.419998 12.099998
v 15.000000 79.320000 12.099998
v -13.900002 57.000000 20.000000
v 14.099998 80.220001 12.099998
v 14.099998 79.320000 13.000000
v -14.099998 57.000000 20.000000
v 14.099998 78.419998 -12.099998
v 14.099998 79.320000 -13.000000
v -15.000000 69.000000 12.099998
v 14.099998 80.220001 -12.099998
v 15.000000 79.320000 -12.099998
v 14.099998 79.320000 13.000000
v -14.099998 56.099998 19.099998
v -14.099998 57.000000 20.000000
v 13.900002 79.320000 13.000000
v 13.000000 64.440002 19.099998
v -14.099998 57.900002 19.099998
v -15.000000 57.000000 19.099998
v -14.000000 26.000000 -1.284409
v -14.000000 26.900002 -2.200000
v -14.000000 76.000000 -1.284409
v -14.000000 75.099998 -2.200000
v -13.536017 26.000000 -1.197676
v -13.205268 26.900002 -2.051439
v -13.536017 76.000000 -1.197676
v -13.205268 75.099998 -2.051439
v -13.134699 26.000000 -0.949189
v -12.517870 26.900002 -1.625820
v -13.134699 76.000000 -0.949189
v -12.517870 75.099998 -1.625820
v -12.850245 26.000000 -0.572511
v -12.030641 26.900002 -0.980624
v -12.850245 76.000000 -0.572511
v -12.030641 75.099998 -0.980624
v -12.721070 26.000000 -0.118510
v -11.809385 26.900002 -0.202990
v -12.721070 76.000000 -0.118510
v -11.809385 75.099998 -0.202990
v -12.764623 26.000000 0.351494
v -11.883984 26.900002 0.602059
v -12.764623 76.000000 0.351494
v -11.883984 75.099998 0.602059
v -12.975020 26.000000 0.774030
v -12.244362 26.900002 1.325796
v -12.975020 76.000000 0.774030
v -12.244362 75.099998 1.325796
v -13.323847 26.000000 1.092027
v -12.841849 26.900002 1.870478
v -13.323847 76.000000 1.092027
v -12.841849 75.099998 1.870478
v -13.763990 26.000000 1.262540
v -13.595751 26.900002 2.162541
v -13.763990 76.000000 1.262540
v -13.595751 75.099998 2.162541
v -14.236010 26.000000 1.262540
v -14.404249 26.900002 2.162541
v -14.236010 76.000000 1.262540
v -14.404249 75.099998 2.162541
v -14.676153 26.000000 1.092027
v -15.158151 26.900002 1.870478
v -14.676153 76.000000 1.092027
v -15.158151 75.099998 1.870478
v -15.024980 26.000000 0.774030
v -15.755638 26.900002 1.325796
v -15.024980 76.000000 0.774030
v -15.755638 75.099998 1.325796
v -15.235377 26.000000 0.351494
v -16.116016 26.900002 0.602059
v -15.235377 76.000000 0.351494
v -16.116016 75.099998 0.602059
v -15.278930 26.000000 -0.118510
v -16.190615 26.900002 -0.202990
v -15.278930 76.000000 -0.118510
v -16.190615 75.099998 -0.202990
v -15.149755 26.000000 -0.572511
v -15.969359 26.900002 -0.980624
v -15.149755 76.000000 -0.572511
v -15.969359 75.099998 -0.980624
v -14.865301 26.000000 -0.949189
v -15.482130 26.900002 -1.625820
v -14.865301 76.000000 -0.949189
v -15.482130 75.099998 -1.625820
v -14.463983 26.000000 -1.197676
v -14.794732 26.900002 -2.051439
v -14.463983 76.000000 -1.197676
v -14.794732 75.099998 -2.051439
v -14.099998 56.099998 -19.099998
v -15.000000 57.000000 -19.099998
v 13.000000 64.440002 -19.099998
v -14.099998 57.900002 -19.099998
v -14.099998 57.000000 -20.000000
v 13.900002 64.440002 -20.000000
v -13.900002 56.099998 19.099998
v -13.000000 57.000000 19.099998
v 14.099998 64.440002 -20.000000
v -13.900002 57.900002 19.099998
v -13.900002 57.000000 20.000000
v 15.000000 79.320000 -12.099998
v -13.900002 56.099998 -19.099998
v -13.900002 57.000000 -20.000000
v 15.000000 79.320000 12.099998
v -13.900002 57.900002 -19.099998
v -13.000000 57.000000 -19.099998
v -13.900002 69.000000 -13.000000
v -14.099998 68.099998 12.099998
v -14.099998 69.000000 13.000000
v -14.099998 69.000000 -13.000000
v -15.000000 69.000000 -12.099998
v -14.099998 69.900002 12.099998
v -15.000000 69.000000 12.099998
v -14.099998 68.099998 -12.099998
v -15.000000 69.000000 -12.099998
v 15.000000 64.440002 -19.099998
v -14.099998 69.900002 -12.099998
v -14.099998 69.000000 -13.000000
v 15.000000 64.440002 19.099998
v -13.900002 68.099998 12.099998
v -13.000000 69.000000 12.099998
v 14.099998 79.320000 -13.000000
v -13.900002 69.900002 12.099998
v -13.900002 69.000000 13.000000
v 13.900002 79.320000 -13.000000
v -13.900002 68.099998 -12.099998
v -13.900002 69.000000 -13.000000
v 13.000000 79.320000 12.099998
v -13.900002 69.900002 -12.099998
v -13.000000 69.000000 -12.099998
v 13.000000 79.320000 -12.099998
v 46.308548 19.872690 -0.876853
v 47.129749 20.240202 -1.776008
v 73.691467 32.127316 -0.076853
v 72.870247 31.759796 -1.023991
v 46.463947 19.525421 -0.790018
v 47.444527 19.536842 -1.600127
v 73.705048 32.096863 -0.069242
v 73.051743 31.354265 -0.922581
v 46.588581 19.246943 -0.546710
v 47.696953 18.972795 -1.107325
v 73.716034 32.072479 -0.047916
v 73.197281 31.029051 -0.638448
v 46.657745 19.092394 -0.195120
v 47.837040 18.659767 -0.395198
v 73.722061 32.058918 -0.017095
v 73.278053 30.848572 -0.227861
v 46.657745 19.092394 0.195120
v 47.837040 18.659769 0.395197
v 73.722061 32.058918 0.017096
v 73.278053 30.848572 0.227860
v 46.588581 19.246943 0.546710
v 47.696953 18.972797 1.107324
v 73.716026 32.072479 0.047915
v 73.197281 31.029051 0.638447
v 46.463943 19.525421 0.790018
v 47.444527 19.536842 1.600127
v 73.705055 32.096863 0.069242
v 73.051735 31.354261 0.922585
v 46.308548 19.872690 0.876853
v 47.129753 20.240202 1.776008
v 73.691467 32.127316 0.076853
v 72.870247 31.759796 1.023991
v 46.153122 20.219946 0.790018
v 46.814980 20.943560 1.600127
v 73.677864 32.157761 0.069243
v 72.688759 32.165329 0.922587
v 46.028507 20.498436 0.546709
v 46.562550 21.507610 1.107322
v 73.666885 32.182144 0.047918
v 72.543221 32.490551 0.638446
v 45.959335 20.652979 0.195120
v 46.422462 21.820633 0.395201
v 73.660866 32.195709 0.017099
v 72.462448 32.671028 0.227860
v 45.959335 20.652979 -0.195120
v 46.422462 21.820635 -0.395201
v 73.660866 32.195709 -0.017099
v 72.462448 32.671028 -0.227860
v 46.028507 20.498434 -0.546709
v 46.562550 21.507608 -1.107322
v 73.666885 32.182144 -0.047918
v 72.543221 32.490551 -0.638446
v 46.153122 20.219946 -0.790018
v 46.814980 20.943562 -1.600128
v 73.677864 32.157764 -0.069243
v 72.688759 32.165333 -0.922585
v 11.883984 26.900002 0.602059
v 12.764623 26.000000 0.351494
v 13.900002 63.540001 -19.099998
v 11.883984 87.099998 0.602059
v 12.764623 88.000000 0.351494
v 14.099998 80.220001 -12.099998
v 11.809385 26.900002 -0.202990
v 12.721070 26.000000 -0.118510
v 11.809385 87.099998 -0.202990
v 12.721070 88.000000 -0.118510
v 12.030641 26.900002 -0.980624
v 12.850245 26.000000 -0.572511
v 12.030641 87.099998 -0.980624
v 12.850245 88.000000 -0.572511
v 12.517870 26.900002 -1.625820
v 13.134699 26.000000 -0.949189
v 12.517870 87.099998 -1.625820
v 13.134699 88.000000 -0.949189
v 13.205268 26.900002 -2.051439
v 13.536017 26.000000 -1.197676
v 13.205268 87.099998 -2.051439
v 13.536017 88.000000 -1.197676
v -12.517870 75.099998 -1.625820
v -13.134699 76.000000 -0.949189
v -12.030641 26.900002 -0.980624
v -12.850245 26.000000 -0.572511
v -12.030641 75.099998 -0.980624
v -12.850245 76.000000 -0.572511
v -14.099998 68.099998 12.099998
v -11.809385 26.900002 -0.202990
v -12.721070 26.000000 -0.118510
v 73.051743 31.354265 -0.922581
v 72.870247 31.759796 -1.023991
v 73.691467 32.127316 -0.076853
v 73.705048 32.096863 -0.069242
v -11.809385 75.099998 -0.202990
v -12.721070 76.000000 -0.118510
v -13.900002 57.900002 19.099998
v -14.099998 57.900002 19.099998
v -11.883984 26.900002 0.602059
v -12.764623 26.000000 0.351494
v -11.883984 75.099998 0.602059
v -12.764623 76.000000 0.351494
v -14.099998 56.099998 19.099998
v -13.900002 56.099998 19.099998
v -12.244362 26.900002 1.325796
v -12.975020 26.000000 0.774030
v -12.244362 75.099998 1.325796
v -12.975020 76.000000 0.774030
v -12.841849 26.900002 1.870478
v -13.323847 26.000000 1.092027
v 47.129749 20.240202 -1.776008
v 46.308548 19.872690 -0.876853
v -12.841849 75.099998 1.870478
v -13.323847 76.000000 1.092027
v -13.900002 57.900002 -19.099998
v -13.595751 26.900002 2.162541
v -13.763990 26.000000 1.262540
v -13.595751 75.099998 2.162541
v -13.763990 76.000000 1.262540
v -13.900002 56.099998 -19.099998
v -14.404249 26.900002 2.162541
v -14.236010 26.000000 1.262540
v -14.404249 75.099998 2.162541
v -14.236010 76.000000 1.262540
v -15.158151 26.900002 1.870478
v -14.676153 26.000000 1.092027
v -13.900002 69.900002 12.099998
v -15.158151 75.099998 1.870478
v -14.676153 76.000000 1.092027
v -14.099998 57.900002 -19.099998
v -15.755638 26.900002 1.325796
v -15.024980 26.000000 0.774030
v -13.900002 68.099998 12.099998
v -15.755638 75.099998 1.325796
v -15.024980 76.000000 0.774030
v -14.099998 56.099998 -19.099998
v -16.116016 26.900002 0.602059
v -15.235377 26.000000 0.351494
v -16.116016 75.099998 0.602059
v -15.235377 76.000000 0.351494
v -16.190615 26.900002 -0.202990
v -15.278930 26.000000 -0.118510
v -13.900002 69.900002 -12.099998
v -16.190615 75.099998 -0.202990
v -15.278930 76.000000 -0.118510
v -15.969359 26.900002 -0.980624
v -15.149755 26.000000 -0.572511
v -15.969359 75.099998 -0.980624
v -15.149755 76.000000 -0.572511
v -15.482130 26.900002 -1.625820
v -14.865301 26.000000 -0.949189
v -15.482130 75.099998 -1.625820
v -14.865301 76.000000 -0.949189
v -14.794732 26.900002 -2.051439
v -14.463983 26.000000 -1.197676
v -14.794732 75.099998 -2.051439
v -14.463983 76.000000 -1.197676
v 73.197281 31.029051 -0.638448
v 73.716034 32.072479 -0.047916
v 47.837040 18.659767 -0.395198
v 46.657745 19.092394 -0.195120
v 73.278053 30.848572 -0.227861
v 73.722061 32.058918 -0.017095
v 47.837040 18.659769 0.395197
v 46.657745 19.092394 0.195120
v 73.278053 30.848572 0.227860
v 73.722061 32.058918 0.017096
v 47.696953 18.972797 1.107324
v 46.588581 19.246943 0.546710
v 73.197281 31.029051 0.638447
v 73.716026 32.072479 0.047915
v 47.444527 19.536842 1.600127
v 46.463943 19.525421 0.790018
v 73.051735 31.354261 0.922585
v 73.705055 32.096863 0.069242
v 47.129753 20.240202 1.776008
v 46.308548 19.872690 0.876853
v 72.870247 31.759796 1.023991
v 73.691467 32.127316 0.076853
v 46.814980 20.943560 1.600127
v 46.153122 20.219946 0.790018
v 72.688759 32.165329 0.922587
v 73.677864 32.157761 0.069243
v 46.562550 21.507610 1.107322
v 46.028507 20.498436 0.546709
v 72.543221 32.490551 0.638446
v 73.666885 32.182144 0.047918
v 46.422462 21.820633 0.395201
v 45.959335 20.652979 0.195120
v 72.462448 32.671028 0.227860
v 73.660866 32.195709 0.017099
v 46.422462 21.820635 -0.395201
v 45.959335 20.652979 -0.195120
v 72.462448 32.671028 -0.227860
v 73.660866 32.195709 -0.017099
v 46.562550 21.507608 -1.107322
v 46.028507 20.498434 -0.546709
v 72.543221 32.490551 -0.638446
v 73.666885 32.182144 -0.047918
v 46.814980 20.943562 -1.600128
v 46.153122 20.219946 -0.790018
v 72.688759 32.165333 -0.922585
v 73.677864 32.157764 -0.069243
vn -0.5594 0.7132 0.4225
vn -0.5594 0.7131 0.4225
vn -0.4606 0.7588 -0.4606
vn -0.5594 -0.7132 0.4225
vn 0.4606 -0.7588 0.4606
vn -0.3690 0.7132 0.5960
vn -0.3690 -0.7132 0.5960
vn 0.4606 0.7588 0.4606
vn -0.1288 0.7132 0.6891
vn 0.4606 -0.7588 -0.4606
vn -0.1288 -0.7132 0.6891
vn -0.4606 -0.7588 -0.4606
vn 0.1288 0.7132 0.6891
vn 0.4606 0.7588 -0.4606
vn 0.1288 -0.7132 0.6891
vn 0.3690 0.7132 0.5960
vn 0.3690 -0.7132 0.5960
vn -0.0000 -0.7132 -0.7010
vn 0.5594 0.7132 0.4225
vn 0.5594 0.7131 0.4225
vn -0.4606 -0.7588 0.4606
vn 0.5594 -0.7132 0.4225
vn -0.5199 -0.5689 -0.6373
vn -0.4193 -0.7935 -0.4410
vn 0.6742 0.7132 0.1918
vn 0.6743 0.7132 0.1918
vn -0.4606 0.7588 0.4606
vn 0.6742 -0.7132 0.1918
vn 0.6743 -0.7132 0.1918
vn 0.6980 0.7132 -0.0647
vn 0.2532 -0.7132 -0.6537
vn 0.4723 -0.7132 -0.5181
vn 0.4723 -0.7132 -0.5180
vn -0.5533 0.8227 -0.1303
vn -0.5533 0.7422 0.3782
vn -0.5533 0.3782 0.7422
vn -0.5533 -0.1303 0.8227
vn -0.5533 -0.5890 0.5890
vn 0.2532 0.7132 -0.6537
vn -0.0000 0.7132 -0.7010
vn -0.5533 -0.8227 0.1303
vn -0.5533 -0.7422 -0.3782
vn 0.6275 0.7132 -0.3125
vn 0.4723 0.7132 -0.5181
vn -0.5533 -0.3782 -0.7422
vn -0.5533 0.5890 -0.5890
vn -0.5533 0.1303 -0.8227
vn 0.2532 0.7131 -0.6537
vn 0.6275 -0.7132 -0.3125
vn 0.6980 -0.7132 -0.0647
vn 0.4606 -0.4606 0.7588
vn 0.4606 0.4606 0.7588
vn 0.7588 0.4606 0.4606
vn 0.7588 -0.4606 0.4606
vn 0.7588 -0.4606 -0.4606
vn 0.7588 0.4606 -0.4606
vn 0.4606 0.4606 -0.7588
vn 0.4606 -0.4606 -0.7588
vn -0.4606 -0.4606 -0.7588
vn -0.4606 0.4606 -0.7588
vn -0.7588 0.4606 -0.4606
vn -0.7588 0.4606 0.4606
vn -0.4606 0.4606 0.7588
vn -0.4606 -0.4606 0.7588
vn -0.7588 -0.4606 -0.4606
vn -0.7588 -0.4606 0.4606
vn -0.0000 -0.0000 1.0000
vn -0.0000 -1.0000 -0.0000
vn -1.0000 -0.0000 -0.0000
vn -0.0000 1.0000 -0.0000
vn -0.0000 -0.0000 -1.0000
vn 1.0000 -0.0000 -0.0000
vn -0.2418 0.6861 0.6861
vn -0.2418 0.6861 -0.6861
vn 0.2418 -0.6861 -0.6861
vn -0.6861 -0.6861 0.2418
vn 0.4472 0.6325 -0.6325
vn 0.9490 0.2230 -0.2229
vn 0.6528 0.5357 -0.5357
vn 0.4472 0.1399 -0.8834
vn 0.9490 0.0493 -0.3114
vn 0.6528 0.1185 -0.7482
vn 0.4472 -0.4061 -0.7969
vn 0.9490 -0.1432 -0.2809
vn 0.6528 -0.3439 -0.6750
vn 0.4472 -0.7969 -0.4061
vn 0.9490 -0.2810 -0.1431
vn 0.6528 -0.6750 -0.3439
vn 0.4472 -0.8834 0.1399
vn 0.9490 -0.3114 0.0494
vn 0.6528 -0.7482 0.1185
vn 0.4472 -0.6325 0.6325
vn 0.9490 -0.2230 0.2230
vn 0.6528 -0.5357 0.5357
vn 0.4472 -0.1399 0.8834
vn 0.9490 -0.0493 0.3114
vn 0.6528 -0.1185 0.7482
vn 0.4472 0.4061 0.7969
vn 0.9490 0.1431 0.2810
vn 0.6528 0.3439 0.6750
vn 0.4472 0.7969 0.4061
vn 0.9490 0.2810 0.1432
vn 0.6528 0.6750 0.3439
vn 0.4472 0.8834 -0.1399
vn 0.9490 0.3114 -0.0493
vn 0.6528 0.7482 -0.1185
vn 0.3612 -0.0000 -0.9325
vn 0.6737 -0.0000 -0.7390
vn 0.8952 -0.0000 -0.4457
vn 0.9957 -0.0000 -0.0923
vn 0.9618 -0.0000 0.2737
vn 0.7980 -0.0000 0.6026
vn 0.0001 1.0000 -0.0000
vn 0.5264 -0.0000 0.8502
vn 0.1838 -0.0000 0.9830
vn 0.1837 -0.0000 0.9830
vn -0.1837 -0.0000 0.9830
vn -0.1838 -0.0000 0.9830
vn -0.5264 -0.0000 0.8502
vn -0.7980 -0.0000 0.6026
vn -0.9618 -0.0000 0.2737
vn -0.0001 1.0000 -0.0000
vn -0.9957 -0.0000 -0.0923
vn -0.8952 -0.0000 -0.4457
vn -0.6737 -0.0000 -0.7390
vn -0.3612 -0.0000 -0.9325
vn -0.6861 0.6861 -0.2418
vn 0.6861 0.6861 -0.2418
vn -0.2418 -0.6861 -0.6861
vn -0.6861 0.6861 0.2418
vn 0.6861 0.6861 0.2418
vn -0.6861 -0.6861 -0.2418
vn 0.2418 -0.6861 0.6861
vn 0.6861 -0.6861 0.2418
vn 0.2418 0.6861 -0.6861
vn 0.2418 0.6861 0.6861
vn 0.6861 -0.6861 -0.2418
vn -0.2418 -0.6861 0.6861
vn -0.9128 -0.4085 -0.0000
vn 0.0243 0.0109 -0.9996
vn 0.9128 0.4084 -0.0001
vn -0.9128 -0.4084 0.0001
vn 0.2015 -0.3850 -0.9006
vn 0.9140 0.4058 -0.0066
vn 0.3436 -0.7025 -0.6233
vn 0.9127 0.4086 0.0001
vn 0.4224 -0.8787 -0.2224
vn 0.9137 0.4064 -0.0000
vn 0.4224 -0.8787 0.2224
vn -0.9127 -0.4085 -0.0000
vn 0.3436 -0.7025 0.6233
vn 0.9109 0.4127 -0.0023
vn 0.2015 -0.3850 0.9006
vn 0.9129 0.4081 0.0008
vn -0.9128 -0.4085 0.0002
vn 0.0243 0.0109 0.9996
vn 0.9131 0.4077 -0.0000
vn -0.1528 0.4068 0.9006
vn 0.9127 0.4086 0.0002
vn -0.9128 -0.4084 -0.0000
vn -0.2949 0.7243 0.6233
vn 0.9105 0.4136 0.0033
vn -0.3738 0.9005 0.2224
vn 0.9126 0.4088 -0.0000
vn -0.3738 0.9005 -0.2224
vn 0.9141 0.4056 -0.0000
vn -0.2949 0.7243 -0.6233
vn 0.9125 0.4090 -0.0002
vn -0.9127 -0.4086 0.0001
vn -0.1528 0.4068 -0.9006
vn 0.9134 0.4070 0.0061
vn -0.6743 -0.7132 0.1918
vn -0.6742 -0.7132 0.1918
vn -0.6743 0.7132 0.1918
vn -0.6742 0.7132 0.1918
vn -0.6980 -0.7132 -0.0647
vn -0.6980 0.7132 -0.0647
vn -0.6275 -0.7132 -0.3125
vn -0.6275 0.7132 -0.3125
vn -0.4723 -0.7132 -0.5181
vn -0.4723 0.7132 -0.5180
vn -0.4723 0.7132 -0.5181
vn -0.2532 -0.7132 -0.6537
vn -0.2532 0.7132 -0.6537
vn 0.4723 0.7131 -0.5180
vn 0.6275 0.7131 -0.3125
vn 0.7839 0.0234 -0.6205
vn 0.6618 0.2962 -0.6887
vn 0.6620 0.2956 -0.6888
vn 0.7836 0.0234 -0.6208
vn -0.6452 -0.2888 -0.7073
vn -0.6275 0.7131 -0.3125
vn -0.4723 -0.7132 -0.5180
vn -0.4723 0.7131 -0.5180
vn -0.2532 0.7131 -0.6537
vn 0.8817 -0.1953 -0.4294
vn 0.8817 -0.1952 -0.4296
vn -0.3635 -0.9182 -0.1574
vn 0.9361 -0.3167 -0.1533
vn 0.9361 -0.3169 -0.1529
vn -0.3635 -0.9182 0.1574
vn 0.9361 -0.3167 0.1533
vn 0.9361 -0.3168 0.1531
vn -0.4193 -0.7935 0.4410
vn 0.8817 -0.1953 0.4294
vn 0.8817 -0.1952 0.4295
vn -0.5199 -0.5689 0.6373
vn 0.7839 0.0234 0.6205
vn 0.7837 0.0233 0.6207
vn -0.6452 -0.2888 0.7073
vn 0.6618 0.2962 0.6887
vn 0.6619 0.2957 0.6888
vn -0.7706 -0.0086 0.6373
vn 0.5397 0.5689 0.6205
vn 0.5395 0.5692 0.6204
vn -0.8711 0.2160 0.4410
vn 0.4418 0.7876 0.4294
vn 0.4416 0.7878 0.4295
vn -0.9269 0.3407 0.1574
vn 0.3875 0.9090 0.1533
vn 0.3875 0.9089 0.1537
vn -0.9269 0.3407 -0.1574
vn 0.3875 0.9090 -0.1533
vn 0.3875 0.9089 -0.1537
vn -0.8711 0.2160 -0.4410
vn 0.4418 0.7876 -0.4294
vn 0.4415 0.7878 -0.4294
vn -0.7706 -0.0086 -0.6373
vn 0.5397 0.5689 -0.6205
vn 0.5395 0.5693 -0.6204
vt -0.995000 -0.505000
vt -0.950000 -0.505000
vt -0.995000 -0.550000
vt 1.855000 0.605000
vt 1.855000 0.650000
vt 1.900000 0.605000
vt 0.695000 0.955000
vt 0.650000 0.955000
vt 0.695000 1.000000
vt -1.555000 0.505000
vt -1.555000 0.550000
vt -1.600000 0.505000
vt -1.555000 -0.505000
vt -1.555000 -0.550000
vt -1.600000 -0.505000
vt 0.695000 -1.000000
vt 0.695000 -0.955000
vt 0.650000 -0.955000
vt 1.555000 -0.505000
vt 1.600000 -0.505000
vt 1.555000 -0.550000
vt -2.005000 0.505000
vt -2.005000 0.550000
vt -2.050000 0.505000
vt -0.995000 0.505000
vt -0.995000 0.550000
vt -0.950000 0.505000
vt 1.855000 -0.605000
vt 1.855000 -0.650000
vt 1.900000 -0.605000
vt -2.005000 -0.550000
vt -2.005000 -0.505000
vt -2.050000 -0.505000
vt -1.855000 0.605000
vt -1.855000 0.650000
vt -1.900000 0.605000
vt 1.555000 0.505000
vt 1.600000 0.505000
vt 1.555000 0.550000
vt -1.855000 -0.650000
vt -1.855000 -0.605000
vt -1.900000 -0.605000
vt 0.705000 -0.955000
vt 0.750000 -0.955000
vt 0.705000 -1.000000
vt 0.705000 0.955000
vt 0.705000 1.000000
vt 0.750000 0.955000
vt 0.695000 -0.605000
vt 0.695000 -0.650000
vt 0.650000 -0.605000
vt 0.695000 0.605000
vt 0.650000 0.605000
vt 0.695000 0.650000
vt 0.705000 -0.605000
vt 0.750000 -0.605000
vt 0.705000 -0.650000
vt 0.705000 0.605000
vt 0.705000 0.650000
vt 0.750000 0.605000
vt -0.705000 -0.955000
vt -0.705000 -1.000000
vt -0.750000 -0.955000
vt -0.705000 0.955000
vt -0.750000 0.955000
vt -0.705000 1.000000
vt -0.695000 -0.955000
vt -0.650000 -0.955000
vt -0.695000 -1.000000
vt -0.695000 0.955000
vt -0.695000 1.000000
vt -0.650000 0.955000
vt -0.705000 -0.605000
vt -0.705000 -0.650000
vt -0.750000 -0.605000
vt -0.705000 0.605000
vt -0.750000 0.605000
vt -0.705000 0.650000
vt -0.695000 -0.605000
vt -0.650000 -0.605000
vt -0.695000 -0.650000
vt -0.695000 0.605000
vt -0.695000 0.650000
vt -0.650000 0.605000
vt -0.605000 0.045000
vt -0.650000 0.045000
vt 0.650000 0.045000
vt 0.605000 0.955000
vt 0.605000 0.045000
vt -0.650000 0.045000
vt -0.605000 0.955000
vt -0.550000 1.255000
vt -0.505000 0.945000
vt -0.550000 0.945000
vt 0.550000 0.945000
vt 0.505000 1.255000
vt 0.550000 1.255000
vt 0.505000 0.945000
vt -0.505000 1.255000
vt -0.550000 1.905000
vt -0.505000 1.095000
vt -0.550000 1.095000
vt 0.550000 1.095000
vt 0.505000 1.905000
vt 0.550000 1.905000
vt 0.505000 1.095000
vt -0.505000 1.905000
vt 0.809531 0.010150
vt 0.757488 0.028626
vt 0.798468 0.049031
vt -0.700000 0.110000
vt -0.676801 0.059884
vt -0.660263 0.102572
vt 1.840639 0.698504
vt 1.800000 1.026162
vt 1.840639 1.045251
vt 0.774107 0.081291
vt 0.723199 0.059884
vt 0.739737 0.102572
vt 0.069454 0.611000
vt 0.001898 0.601898
vt 0.002651 0.600420
vt 1.840639 0.314131
vt 1.800000 0.694281
vt 0.062655 0.568076
vt 0.002392 0.598781
vt 1.800000 0.063005
vt 1.800000 0.326387
vt 0.031924 0.537345
vt 0.001219 0.597608
vt 1.840639 -0.098504
vt 1.800000 0.273613
vt 1.840639 0.285869
vt 0.700000 0.110000
vt -0.011000 0.530546
vt -0.000420 0.597349
vt 0.743265 0.047459
vt 1.800000 -0.426162
vt 1.800000 -0.094281
vt -0.049723 0.550277
vt -0.001898 0.598102
vt 1.840639 0.154749
vt 1.800000 0.505719
vt 1.800000 0.173838
vt -0.002651 0.599580
vt -0.069454 0.589000
vt 1.840639 0.885869
vt 1.840639 0.501496
vt 0.700000 0.064220
vt -0.062655 0.631925
vt -0.002392 0.601219
vt 1.840639 -0.561049
vt 1.800000 -0.273613
vt 1.800000 -0.536996
vt -0.031924 0.662655
vt -0.001219 0.602392
vt 1.840639 0.098504
vt 1.840639 -0.285869
vt -0.625893 0.081291
vt 0.011000 0.669454
vt 0.000420 0.602651
vt 1.840639 0.445251
vt 1.800000 0.094281
vt 0.049723 0.649723
vt 0.763946 0.005926
vt 0.761769 -0.017575
vt 0.763946 0.005926
vt 0.805801 -0.030103
vt 2.372226 0.080006
vt 2.329429 0.027336
vt 2.323197 0.039501
vt 0.751249 -0.038701
vt 0.787782 -0.066290
vt -0.700000 0.064220
vt 0.757908 -0.093524
vt 0.733808 -0.054601
vt 0.720212 -0.108127
vt 0.711800 -0.063127
vt 0.679788 1.345000
vt 0.711800 1.300000
vt 0.720212 1.345000
vt 0.720212 4.355000
vt 0.688200 4.400000
vt 0.679788 4.355000
vt 0.642092 -0.093524
vt 0.688200 -0.063127
vt 0.679788 -0.108127
vt 0.666192 -0.054601
vt 0.648751 -0.038701
vt 0.612218 -0.066290
vt 0.594199 -0.030103
vt 0.638231 -0.017575
vt 0.590469 0.010150
vt 0.636054 0.005926
vt 0.601532 0.049031
vt 0.636054 0.005926
vt 0.642512 0.028626
vt 0.625893 0.081291
vt 0.656735 0.047459
vt 0.676801 0.059884
vt 0.660263 0.102572
vt -0.656735 0.047459
vt -0.601532 0.049031
vt -0.642512 0.028626
vt -0.636054 0.005926
vt 0.051200 1.587990
vt 0.003462 1.604843
vt 0.046129 1.567713
vt -0.590469 0.010150
vt -0.636054 0.005926
vt -0.594199 -0.030103
vt -0.638231 -0.017575
vt -0.648751 -0.038701
vt -0.612218 -0.066290
vt -0.642092 -0.093524
vt 2.372226 0.976842
vt 2.315427 0.993635
vt 2.356488 1.012010
vt -0.666192 -0.054601
vt -0.679788 -0.108127
vt -0.688200 -0.063127
vt -0.720212 1.345000
vt -0.688200 1.300000
vt -0.679788 1.345000
vt -0.679788 3.755000
vt -0.711800 3.800000
vt -0.720212 3.755000
vt -0.757908 -0.093524
vt -0.711800 -0.063127
vt -0.720212 -0.108127
vt -0.733808 -0.054601
vt -0.751249 -0.038701
vt -0.787782 -0.066290
vt -0.805801 -0.030103
vt -0.761769 -0.017575
vt -0.809531 0.010150
vt -0.763946 0.005926
vt -0.757488 0.028626
vt -0.763946 0.005926
vt -0.798468 0.049031
vt -0.743265 0.047459
vt -0.774107 0.081291
vt -0.723199 0.059884
vt -0.739737 0.102572
vt 0.031922 1.551453
vt 0.002396 1.603624
vt 2.391852 0.019760
vt 2.384848 0.055366
vt 0.000855 1.602946
vt 0.011393 1.542429
vt 2.332887 -0.009756
vt 2.332887 0.009756
vt -0.000855 1.602946
vt -0.011393 1.542429
vt 2.384848 -0.055366
vt 2.391852 -0.019760
vt -0.031922 1.551453
vt -0.002396 1.603624
vt 2.372226 -0.080006
vt 2.329429 -0.027336
vt -0.003462 1.604843
vt -0.046129 1.567713
vt 2.323197 0.976271
vt -0.051200 1.587990
vt -0.003843 1.606366
vt -0.080006 1.047178
vt -0.043843 0.993635
vt -0.088800 1.012010
vt 3.634438 1.608266
vt 3.684573 1.606366
vt 3.683893 1.607888
vt -0.027335 1.024922
vt -0.039501 1.010997
vt 3.634438 -0.046129
vt 3.683344 -0.002396
vt 3.627161 -0.031922
vt -0.019760 1.091032
vt -0.055366 1.075381
vt 3.623122 -0.011393
vt 3.683043 -0.000855
vt 0.009756 1.032649
vt -0.009756 1.032649
vt 3.683043 0.000855
vt 3.623122 0.011393
vt 0.019760 1.091032
vt 0.027335 1.024922
vt 3.683344 0.002396
vt 3.627161 0.031922
vt 0.080006 1.047178
vt 0.055366 1.075380
vt 3.634438 0.046129
vt 3.683893 0.003462
vt 0.043843 0.993635
vt 0.039501 1.010997
vt 3.634438 1.608267
vt 3.643512 1.587990
vt 1.855000 0.955000
vt -1.855000 0.045000
vt 1.855000 0.045000
vt -1.855000 0.955000
vt 1.855000 0.045000
vt -1.855000 0.045000
vt 1.555000 1.255000
vt -1.555000 0.945000
vt 1.555000 0.945000
vt -1.555000 1.255000
vt -0.995000 1.905000
vt -2.005000 1.095000
vt -0.995000 1.095000
vt -2.005000 1.905000
vt 0.273613 0.063005
vt -0.536996 0.873613
vt 0.094281 1.195264
vt 2.959361 0.649723
vt 2.959361 0.049723
vt 2.959361 0.568076
vt 1.840639 0.038951
vt 2.959361 0.031924
vt 2.959361 -0.049723
vt 1.840639 -0.445251
vt 2.959361 0.550277
vt 2.959361 0.589000
vt 2.959361 -0.062655
vt 2.959361 -0.031924
vt 0.700000 4.355000
vt 0.739737 1.345000
vt 0.700000 1.345000
vt 0.660263 4.355000
vt 0.660263 1.345000
vt 0.739737 4.355000
vt 0.774107 1.345000
vt 0.081291 4.355000
vt 0.049031 1.345000
vt 0.081291 1.345000
vt 0.049031 4.355000
vt 0.010150 1.345000
vt 0.010150 4.355000
vt -0.030103 1.345000
vt -0.030103 4.355000
vt -0.066290 1.345000
vt 0.787782 4.355000
vt 0.757908 1.345000
vt 0.787782 1.345000
vt 0.757908 4.355000
vt 0.642092 1.345000
vt 0.642092 4.355000
vt 0.612218 1.345000
vt -0.066290 4.355000
vt 0.625893 4.355000
vt 0.625893 1.345000
vt -0.700000 3.755000
vt -0.660263 1.345000
vt -0.700000 1.345000
vt -0.739737 3.755000
vt -0.739737 1.345000
vt -0.660263 3.755000
vt -0.625893 1.345000
vt 0.081291 3.755000
vt 0.049031 3.755000
vt 0.010150 3.755000
vt -0.030103 3.755000
vt -0.612218 3.755000
vt -0.642092 1.345000
vt -0.612218 1.345000
vt -0.642092 3.755000
vt -0.757908 1.345000
vt -0.757908 3.755000
vt -0.787782 1.345000
vt -0.066290 3.755000
vt -0.774107 3.755000
vt -0.774107 1.345000
vt 0.027336 0.962347
vt 3.652587 1.567713
vt 2.340749 1.047178
vt 0.003843 1.606366
vt -0.000855 1.609785
vt 3.659864 1.551453
vt 2.384848 0.948640
vt 3.663903 0.011393
vt 3.659864 -0.031922
vt 2.384848 0.948640
vt 2.356488 1.012010
vt 2.328127 1.075381
vt 2.321123 -0.019760
vt 2.328127 -0.055366
vt 2.321123 0.019760
vt 2.328127 0.055366
vt 3.627161 1.624528
vt 2.328127 1.075380
vt 0.650000 0.045000
vt 1.800000 0.873613
vt 1.800000 0.426162
vt 0.688200 1.300000
vt 0.711800 4.400000
vt 2.323197 0.976271
vt -0.711800 1.300000
vt -0.688200 3.800000
vt 2.323197 -0.039501
vt 3.683893 -0.003462
vt 0.088800 1.012010
vt 3.683893 1.607888
vt 0.426162 1.026162
vt 0.595264 0.694281
vt 0.536996 0.326387
vt -0.094281 0.004736
vt -0.426162 0.173838
vt -0.595264 0.505719
vt -0.273613 1.136995
vt 2.959361 0.611000
vt 2.959361 0.011000
vt 2.959361 0.537345
vt 2.959361 -0.011000
vt 2.959361 0.631925
vt 0.774107 4.355000
vt 0.612218 4.355000
vt -0.625893 3.755000
vt -0.787782 3.755000
vt -0.009756 0.954620
vt -0.027336 0.962347
vt -0.039501 0.976271
vt 0.039501 0.976271
vt 0.009756 0.954620
vt -0.003462 1.607888
vt 0.003462 1.607888
vt 0.002396 1.609107
vt 0.000855 1.609785
vt -0.002396 1.609107
vt 3.659864 0.031922
vt 3.663903 -0.011393
vt 3.652587 1.567713
s 1
f 106/1/5 105/2/54 101/3/51
f 162/4/10 161/5/58 157/6/55
f 575/7/12 477/8/132 363/9/129
f 140/10/3 138/11/60 139/12/61
f 149/13/21 144/14/64 148/15/66
f 160/4/14 158/6/56 159/5/57
f 246/16/73 42/17/27 404/18/130
f 130/19/5 129/20/54 125/21/51
f 116/22/3 114/23/60 115/24/61
f 104/1/8 102/3/52 103/2/53
f 143/14/63 141/13/27 142/15/62
f 112/25/10 111/26/58 107/27/55
f 150/10/12 147/12/65 137/11/59
f 110/25/14 108/27/56 109/26/57
f 124/22/12 121/24/65 113/23/59
f 154/28/8 152/29/52 153/30/53
f 119/31/63 117/32/27 118/33/62
f 156/28/5 155/30/54 151/29/51
f 123/32/21 120/31/64 122/33/66
f 166/34/3 164/35/60 165/36/61
f 134/37/14 132/38/56 133/39/57
f 174/34/12 171/36/65 163/35/59
f 136/37/10 135/39/58 131/38/55
f 169/40/63 167/41/27 168/42/62
f 173/41/21 170/40/64 172/42/66
f 33/17/21 388/16/138 250/18/76
f 128/19/8 126/21/52 127/20/53
f 3/7/3 480/9/74 360/8/127
f 32/43/5 504/44/134 369/45/133
f 43/43/8 385/45/136 366/44/131
f 14/46/10 483/47/75 375/48/137
f 21/46/14 501/48/128 372/47/135
f 48/49/21 403/50/138 382/51/76
f 378/50/73 56/49/27 513/51/130
f 65/52/12 516/53/132 387/54/129
f 55/52/3 510/54/74 384/53/127
f 6/55/5 489/56/134 393/57/133
f 11/55/8 400/57/136 390/56/131
f 66/58/10 507/59/75 399/60/137
f 578/58/14 486/60/128 396/59/135
f 616/61/21 394/62/138 406/63/76
f 402/62/73 611/61/27 364/63/130
f 649/64/12 367/65/132 479/66/129
f 643/64/3 247/66/74 476/65/127
f 617/67/5 380/68/134 485/69/133
f 610/67/8 391/69/136 482/68/131
f 633/70/10 248/71/75 491/72/137
f 628/70/14 379/72/128 488/71/135
f 601/73/21 376/74/138 498/75/76
f 494/74/73 58/73/27 397/75/130
f 17/76/12 496/77/132 503/78/129
f 57/76/3 495/78/74 500/77/127
f 646/79/5 370/80/134 509/81/133
f 640/79/8 373/81/136 506/80/131
f 18/82/10 492/83/75 515/84/137
f 656/82/14 361/84/128 512/83/135
f 173/41/21 171/36/65 174/34/12
f 169/72/63 172/85/66 170/86/64
f 166/34/3 168/42/62 167/41/27
f 163/87/59 165/88/61 164/8/60
f 174/34/12 161/5/58 162/4/10
f 160/4/14 164/35/60 166/34/3
f 157/89/55 159/8/57 158/88/56
f 162/4/10 155/30/54 156/28/5
f 154/28/8 158/6/56 160/4/14
f 151/90/51 153/91/53 152/72/52
f 156/28/5 170/40/64 173/41/21
f 167/41/27 152/29/52 154/28/8
f 149/13/21 147/12/65 150/10/12
f 143/92/63 148/93/66 144/94/64
f 140/10/3 142/15/62 141/13/27
f 137/95/59 139/96/61 138/97/60
f 150/10/12 135/39/58 136/37/10
f 134/37/14 138/11/60 140/10/3
f 131/98/55 133/97/57 132/96/56
f 136/37/10 129/20/54 130/19/5
f 128/19/8 132/38/56 134/37/14
f 125/94/51 127/99/53 126/92/52
f 130/19/5 144/14/64 149/13/21
f 141/13/27 126/21/52 128/19/8
f 123/32/21 121/24/65 124/22/12
f 119/100/63 122/101/66 120/102/64
f 116/22/3 118/33/62 117/32/27
f 113/103/59 115/104/61 114/105/60
f 124/22/12 111/26/58 112/25/10
f 110/25/14 114/23/60 116/22/3
f 107/106/55 109/105/57 108/104/56
f 112/25/10 105/2/54 106/1/5
f 104/1/8 108/27/56 110/25/14
f 101/102/51 103/107/53 102/100/52
f 106/1/5 120/31/64 123/32/21
f 117/32/27 102/3/52 104/1/8
f 99/108/50 97/109/49 100/110/49
f 95/111/40 93/112/39 96/113/48
f 91/114/47 89/115/46 92/116/46
f 87/117/32 85/118/31 88/119/31
f 258/120/82 253/121/78 257/122/81
f 84/123/45 90/124/47 91/114/47
f 262/125/85 257/122/81 261/126/84
f 81/117/44 79/109/43 82/110/43
f 84/123/45 77/127/42 83/128/45
f 266/129/88 261/126/84 265/130/87
f 76/131/41 77/132/42 78/133/42
f 73/134/40 71/118/39 74/119/39
f 270/135/91 265/130/87 269/136/90
f 87/117/32 97/109/49 86/137/32
f 76/131/41 69/138/38 75/139/41
f 274/140/94 269/136/90 273/141/93
f 70/142/38 67/143/37 69/144/38
f 65/52/12 507/59/75 66/58/10
f 274/140/94 277/145/96 278/146/97
f 64/147/36 67/143/37 68/148/37
f 62/134/18 85/118/31 61/149/18
f 282/150/100 277/145/96 281/151/99
f 81/117/44 71/118/39 80/137/44
f 64/152/36 59/153/35 63/154/36
f 57/76/3 397/75/130 58/73/27
f 286/155/103 281/151/99 285/156/102
f 55/52/3 513/51/130 56/49/27
f 54/157/34 59/153/35 60/158/35
f 51/159/33 49/112/31 52/113/31
f 290/160/106 285/156/102 289/161/105
f 92/162/46 53/163/34 54/157/34
f 290/160/106 253/121/78 254/164/79
f 48/49/21 516/53/132 65/52/12
f 47/108/30 79/109/43 46/165/30
f 99/108/50 44/166/28 98/167/50
f 42/17/27 385/45/136 43/43/8
f 47/108/30 40/166/25 41/168/26
f 39/169/23 37/170/24 36/171/23
f 45/168/29 34/172/22 44/166/28
f 32/43/5 388/16/138 33/17/21
f 41/168/26 30/172/19 31/173/20
f 29/111/18 49/112/31 28/174/18
f 27/175/17 34/172/22 35/173/22
f 25/175/16 30/172/19 24/176/16
f 23/177/15 26/176/17 27/175/17
f 43/43/8 501/48/128 21/46/14
f 25/175/16 19/178/13 20/177/13
f 17/76/12 492/83/75 18/82/10
f 16/179/11 22/180/15 23/181/15
f 14/46/10 504/44/134 32/43/5
f 20/182/13 12/183/9 13/184/9
f 56/49/27 400/57/136 11/55/8
f 10/185/7 15/186/11 16/187/11
f 13/187/9 7/188/6 8/185/6
f 6/55/5 403/50/138 48/49/21
f 10/185/7 4/189/4 9/188/7
f 21/46/14 480/9/74 3/7/3
f 8/185/6 1/189/1 2/190/2
f 573/191/172 4/189/4 5/190/4
f 575/7/12 483/47/75 14/46/10
f 576/191/174 1/189/1 577/192/175
f 11/55/8 486/60/128 578/58/14
f 579/193/176 574/192/173 573/191/172
f 581/193/177 577/192/175 582/194/177
f 66/58/10 489/56/134 6/55/5
f 583/195/178 580/196/176 579/193/176
f 3/7/3 404/18/130 42/17/27
f 581/193/177 586/197/179 585/195/179
f 587/198/180 584/197/178 583/195/178
f 585/195/179 590/199/182 589/198/181
f 578/58/14 510/54/74 55/52/3
f 587/198/180 592/200/183 588/199/180
f 33/17/21 477/8/132 575/7/12
f 589/198/181 594/200/184 593/201/184
f 62/134/18 592/200/183 591/201/183
f 73/134/40 594/200/184 72/149/40
f 595/159/185 93/112/39 596/202/44
f 597/203/49 50/202/32 51/159/33
f 595/159/185 600/204/43 599/203/186
f 601/73/21 496/77/132 17/76/12
f 597/203/49 603/205/50 598/204/49
f 605/206/188 607/207/190 604/208/187
f 608/209/30 600/204/43 609/210/30
f 611/61/27 391/69/136 610/67/8
f 612/211/28 603/205/50 602/209/50
f 608/209/30 615/212/25 614/211/26
f 617/67/5 394/62/138 616/61/21
f 612/211/28 619/213/22 613/212/28
f 614/211/26 621/213/19 620/214/20
f 622/215/17 619/213/22 618/214/22
f 39/216/23 625/217/191 624/218/191
f 626/215/16 621/213/19 627/219/16
f 610/67/8 379/72/128 628/70/14
f 629/220/15 623/219/17 622/215/17
f 626/215/16 632/221/13 631/220/13
f 633/70/10 380/68/134 617/67/5
f 634/222/11 630/223/15 629/224/15
f 631/225/13 637/226/9 636/227/9
f 638/228/7 635/229/11 634/230/11
f 58/73/27 373/81/136 640/79/8
f 636/230/9 642/231/6 641/228/6
f 628/70/14 247/66/74 643/64/3
f 638/228/7 645/232/4 639/231/7
f 646/79/5 376/74/138 601/73/21
f 641/228/6 648/232/1 647/233/2
f 649/64/12 248/71/75 633/70/10
f 650/234/172 645/232/4 644/233/4
f 652/234/174 648/232/1 653/235/175
f 654/236/176 651/235/173 650/234/172
f 640/79/8 361/84/128 656/82/14
f 657/236/177 653/235/175 658/237/177
f 643/64/3 364/63/130 611/61/27
f 654/236/176 660/238/178 655/239/176
f 18/82/10 370/80/134 646/79/5
f 657/236/177 662/238/179 661/240/192
f 659/240/178 664/241/180 660/238/178
f 661/240/192 666/241/182 665/242/194
f 616/61/21 367/65/132 649/64/12
f 663/242/193 668/243/183 664/241/180
f 656/82/14 495/78/74 57/76/3
f 665/242/194 670/243/184 669/244/195
f 29/111/18 668/243/183 667/244/183
f 95/111/40 670/243/184 94/174/40
f 671/245/196 607/207/190 672/246/197
f 673/247/198 37/170/24 38/248/24
f 671/245/196 676/249/200 675/250/199
f 673/247/198 678/251/201 674/252/198
f 675/250/199 680/253/203 679/254/202
f 681/255/204 678/251/201 677/256/201
f 683/257/205 680/253/203 684/258/206
f 685/259/207 682/260/204 681/255/204
f 683/257/205 688/261/209 687/262/208
f 685/216/207 690/217/210 686/263/207
f 691/264/211 688/261/209 692/265/212
f 693/266/213 690/267/210 689/268/210
f 695/269/214 692/270/212 696/271/215
f 693/266/213 698/272/216 694/273/213
f 695/274/214 700/275/218 699/276/217
f 701/277/219 698/272/216 697/278/216
f 703/279/220 700/275/218 704/280/221
f 701/277/219 706/281/222 702/282/219
f 703/279/220 708/283/224 707/284/223
f 705/285/222 710/286/225 706/281/222
f 707/284/223 712/287/227 711/288/226
f 713/289/228 710/286/225 709/290/225
f 715/291/229 712/287/227 716/292/230
f 713/289/228 625/293/191 714/294/228
f 715/295/229 606/270/189 605/296/188
f 191/4/68 146/41/68 179/34/68
f 178/91/69 180/89/69 175/85/69
f 189/297/67 145/298/67 187/299/67
f 182/34/70 188/28/70 194/4/70
f 183/300/71 192/301/71 181/302/71
f 195/88/72 186/85/72 193/89/72
f 215/37/68 197/13/68 203/10/68
f 202/99/69 204/98/69 199/93/69
f 213/303/67 198/304/67 211/305/67
f 206/10/70 212/19/70 218/37/70
f 207/306/71 216/305/71 205/304/71
f 219/96/72 210/93/72 217/98/72
f 239/25/68 221/32/68 227/22/68
f 226/107/69 228/106/69 223/101/69
f 237/307/67 222/308/67 235/309/67
f 230/22/70 236/1/70 242/25/70
f 231/310/71 240/309/71 229/308/71
f 243/104/72 234/101/72 241/106/72
f 371/46/68 245/17/68 359/7/68
f 362/7/70 368/43/70 374/46/70
f 263/311/69 279/312/69 287/313/69
f 254/314/79 256/114/80 252/116/77
f 288/157/104 254/315/79 252/162/77
f 285/156/102 269/136/90 261/126/84
f 256/114/80 262/316/85 260/123/83
f 262/316/85 264/317/86 260/123/83
f 266/318/88 268/131/89 264/133/86
f 268/131/89 274/319/94 272/320/92
f 274/321/94 276/148/95 272/142/92
f 278/322/97 280/147/98 276/148/95
f 282/323/100 284/158/101 280/152/98
f 286/324/103 288/157/104 284/158/101
f 319/176/68 351/199/68 299/137/68
f 294/325/71 296/326/107 292/327/71
f 358/328/126 292/327/71 356/329/126
f 301/137/70 337/189/70 321/176/70
f 298/330/107 300/331/108 296/326/107
f 302/332/108 304/333/109 300/334/108
f 306/335/109 308/336/110 304/333/109
f 310/337/110 312/338/111 308/336/110
f 314/339/111 316/340/112 312/338/111
f 318/341/112 320/342/114 316/343/112
f 322/344/114 324/181/115 320/342/114
f 326/182/116 328/179/117 324/181/115
f 330/184/118 332/345/119 328/179/117
f 334/346/119 336/347/120 332/345/119
f 338/348/120 340/338/121 336/340/120
f 342/339/121 344/336/123 340/338/121
f 346/337/123 348/333/124 344/336/123
f 350/335/124 352/334/125 348/333/124
f 354/349/125 356/329/126 352/350/125
f 395/58/68 377/49/68 383/52/68
f 386/52/70 392/55/70 398/58/70
f 487/70/68 401/61/68 475/64/68
f 478/64/70 484/67/70 490/70/70
f 431/213/68 463/238/68 411/112/68
f 410/351/71 412/352/107 408/353/71
f 474/354/126 408/353/71 472/355/126
f 425/210/70 461/237/70 445/229/70
f 414/356/107 416/357/108 412/352/107
f 418/358/108 420/333/109 416/334/108
f 422/359/109 424/336/110 420/333/109
f 426/360/110 428/338/111 424/336/110
f 430/361/111 432/340/112 428/338/111
f 434/362/112 436/363/114 432/364/112
f 438/365/114 440/224/115 436/363/114
f 442/225/116 444/222/117 440/224/115
f 446/227/118 448/366/119 444/222/117
f 450/367/119 452/368/120 448/366/119
f 454/369/120 456/338/121 452/340/120
f 458/361/121 460/336/123 456/338/121
f 462/360/123 464/333/124 460/336/123
f 466/359/124 468/334/125 464/333/124
f 470/370/125 472/355/126 468/371/125
f 511/82/68 493/73/68 499/76/68
f 502/76/70 508/79/70 514/82/70
f 549/273/139 565/286/139 525/372/139
f 518/218/140 524/373/143 522/216/143
f 572/295/170 518/218/140 570/374/170
f 535/253/146 519/375/141 559/376/164
f 522/216/143 528/377/145 526/378/145
f 526/248/145 532/379/147 530/247/147
f 532/379/147 534/256/149 530/247/147
f 534/256/149 540/380/151 538/255/151
f 540/377/151 542/216/153 538/381/151
f 542/216/153 548/296/156 546/382/156
f 546/382/156 552/269/158 550/374/158
f 552/269/158 554/383/161 550/374/158
f 556/276/161 558/384/163 554/385/161
f 558/384/163 564/284/165 562/386/165
f 564/284/165 566/387/167 562/386/165
f 568/388/167 570/374/170 566/389/167
f 173/41/21 172/42/66 171/36/65
f 169/72/63 168/91/62 172/85/66
f 166/34/3 165/36/61 168/42/62
f 163/87/59 171/89/65 165/88/61
f 174/34/12 163/35/59 161/5/58
f 160/4/14 159/5/57 164/35/60
f 157/89/55 161/390/58 159/8/57
f 162/4/10 157/6/55 155/30/54
f 154/28/8 153/30/53 158/6/56
f 151/90/51 155/85/54 153/91/53
f 156/28/5 151/29/51 170/40/64
f 167/41/27 169/40/63 152/29/52
f 149/13/21 148/15/66 147/12/65
f 143/92/63 142/99/62 148/93/66
f 140/10/3 139/12/61 142/15/62
f 137/95/59 147/98/65 139/96/61
f 150/10/12 137/11/59 135/39/58
f 134/37/14 133/39/57 138/11/60
f 131/98/55 135/95/58 133/97/57
f 136/37/10 131/38/55 129/20/54
f 128/19/8 127/20/53 132/38/56
f 125/94/51 129/93/54 127/99/53
f 130/19/5 125/21/51 144/14/64
f 141/13/27 143/14/63 126/21/52
f 123/32/21 122/33/66 121/24/65
f 119/100/63 118/107/62 122/101/66
f 116/22/3 115/24/61 118/33/62
f 113/103/59 121/106/65 115/104/61
f 124/22/12 113/23/59 111/26/58
f 110/25/14 109/26/57 114/23/60
f 107/106/55 111/103/58 109/105/57
f 112/25/10 107/27/55 105/2/54
f 104/1/8 103/2/53 108/27/56
f 101/102/51 105/101/54 103/107/53
f 106/1/5 101/3/51 120/31/64
f 117/32/27 119/31/63 102/3/52
f 99/108/50 98/167/50 97/109/49
f 95/111/40 94/174/40 93/112/39
f 91/114/47 90/124/47 89/115/46
f 87/117/32 86/137/32 85/118/31
f 258/120/82 254/164/79 253/121/78
f 84/123/45 83/128/45 90/124/47
f 262/125/85 258/120/82 257/122/81
f 81/117/44 80/137/44 79/109/43
f 84/123/45 78/317/42 77/127/42
f 266/129/88 262/125/85 261/126/84
f 76/131/41 75/139/41 77/132/42
f 73/134/40 72/149/40 71/118/39
f 270/135/91 266/129/88 265/130/87
f 87/117/32 100/110/49 97/109/49
f 76/131/41 70/320/38 69/138/38
f 274/140/94 270/135/91 269/136/90
f 70/142/38 68/148/37 67/143/37
f 65/52/12 387/54/129 507/59/75
f 274/140/94 273/141/93 277/145/96
f 64/147/36 63/391/36 67/143/37
f 62/134/18 88/119/31 85/118/31
f 282/150/100 278/146/97 277/145/96
f 81/117/44 74/119/39 71/118/39
f 64/152/36 60/158/35 59/153/35
f 57/76/3 500/77/127 397/75/130
f 286/155/103 282/150/100 281/151/99
f 55/52/3 384/53/127 513/51/130
f 54/157/34 53/163/34 59/153/35
f 51/159/33 50/202/32 49/112/31
f 290/160/106 286/155/103 285/156/102
f 92/162/46 89/392/46 53/163/34
f 290/160/106 289/161/105 253/121/78
f 48/49/21 382/51/76 516/53/132
f 47/108/30 82/110/43 79/109/43
f 99/108/50 45/168/29 44/166/28
f 42/17/27 246/16/73 385/45/136
f 47/108/30 46/165/30 40/166/25
f 39/169/23 38/248/24 37/170/24
f 45/168/29 35/173/22 34/172/22
f 32/43/5 369/45/133 388/16/138
f 41/168/26 40/166/25 30/172/19
f 29/111/18 52/113/31 49/112/31
f 27/175/17 26/176/17 34/172/22
f 25/175/16 31/173/20 30/172/19
f 23/177/15 22/178/15 26/176/17
f 43/43/8 366/44/131 501/48/128
f 25/175/16 24/176/16 19/178/13
f 17/76/12 503/78/129 492/83/75
f 16/179/11 15/393/11 22/180/15
f 14/46/10 375/48/137 504/44/134
f 20/182/13 19/394/13 12/183/9
f 56/49/27 378/50/73 400/57/136
f 10/185/7 9/188/7 15/186/11
f 13/187/9 12/186/9 7/188/6
f 6/55/5 393/57/133 403/50/138
f 10/185/7 5/190/4 4/189/4
f 21/46/14 372/47/135 480/9/74
f 8/185/6 7/188/6 1/189/1
f 573/191/172 574/192/173 4/189/4
f 575/7/12 363/9/129 483/47/75
f 576/191/174 2/190/2 1/189/1
f 11/55/8 390/56/131 486/60/128
f 579/193/176 580/196/176 574/192/173
f 581/193/177 576/191/174 577/192/175
f 66/58/10 399/60/137 489/56/134
f 583/195/178 584/197/178 580/196/176
f 3/7/3 360/8/127 404/18/130
f 581/193/177 582/194/177 586/197/179
f 587/198/180 588/199/180 584/197/178
f 585/195/179 586/197/179 590/199/182
f 578/58/14 396/59/135 510/54/74
f 587/198/180 591/201/183 592/200/183
f 33/17/21 250/18/76 477/8/132
f 589/198/181 590/199/182 594/200/184
f 62/134/18 61/149/18 592/200/183
f 73/134/40 593/201/184 594/200/184
f 595/159/185 96/113/48 93/112/39
f 597/203/49 598/204/49 50/202/32
f 595/159/185 596/202/44 600/204/43
f 601/73/21 498/75/76 496/77/132
f 597/203/49 602/209/50 603/205/50
f 605/206/188 606/375/189 607/207/190
f 608/209/30 599/203/186 600/204/43
f 611/61/27 402/62/73 391/69/136
f 612/211/28 613/212/28 603/205/50
f 608/209/30 609/210/30 615/212/25
f 617/67/5 485/69/133 394/62/138
f 612/211/28 618/214/22 619/213/22
f 614/211/26 615/212/25 621/213/19
f 622/215/17 623/219/17 619/213/22
f 39/216/23 36/395/23 625/217/191
f 626/215/16 620/214/20 621/213/19
f 610/67/8 482/68/131 379/72/128
f 629/220/15 630/221/15 623/219/17
f 626/215/16 627/219/16 632/221/13
f 633/70/10 491/72/137 380/68/134
f 634/222/11 635/396/11 630/223/15
f 631/225/13 632/397/13 637/226/9
f 638/228/7 639/231/7 635/229/11
f 58/73/27 494/74/73 373/81/136
f 636/230/9 637/229/9 642/231/6
f 628/70/14 488/71/135 247/66/74
f 638/228/7 644/233/4 645/232/4
f 646/79/5 509/81/133 376/74/138
f 641/228/6 642/231/6 648/232/1
f 649/64/12 479/66/129 248/71/75
f 650/234/172 651/235/173 645/232/4
f 652/234/174 647/233/2 648/232/1
f 654/236/176 655/239/176 651/235/173
f 640/79/8 506/80/131 361/84/128
f 657/236/177 652/234/174 653/235/175
f 643/64/3 476/65/127 364/63/130
f 654/236/176 659/240/178 660/238/178
f 18/82/10 515/84/137 370/80/134
f 657/236/177 658/237/177 662/238/179
f 659/240/178 663/242/193 664/241/180
f 661/240/192 662/238/179 666/241/182
f 616/61/21 406/63/76 367/65/132
f 663/242/193 667/244/183 668/243/183
f 656/82/14 512/83/135 495/78/74
f 665/242/194 666/241/182 670/243/184
f 29/111/18 28/174/18 668/243/183
f 95/111/40 669/244/195 670/243/184
f 671/245/196 604/208/187 607/207/190
f 673/247/198 674/252/198 37/170/24
f 671/245/196 672/246/197 676/249/200
f 673/247/198 677/256/201 678/251/201
f 675/250/199 676/249/200 680/253/203
f 681/255/204 682/260/204 678/251/201
f 683/257/205 679/254/202 680/253/203
f 685/259/207 686/398/207 682/260/204
f 683/257/205 684/258/206 688/261/209
f 685/216/207 689/382/210 690/217/210
f 691/264/211 687/262/208 688/261/209
f 693/266/213 694/273/213 690/267/210
f 695/269/214 691/296/211 692/270/212
f 693/266/213 697/278/216 698/272/216
f 695/274/214 696/399/215 700/275/218
f 701/277/219 702/282/219 698/272/216
f 703/279/220 699/276/217 700/275/218
f 701/277/219 705/285/222 706/281/222
f 703/279/220 704/280/221 708/283/224
f 705/285/222 709/290/225 710/286/225
f 707/284/223 708/283/224 712/287/227
f 713/289/228 714/294/228 710/286/225
f 715/291/229 711/288/226 712/287/227
f 713/289/228 624/400/191 625/293/191
f 715/295/229 716/401/230 606/270/189
f 191/4/68 185/28/68 146/41/68
f 178/91/69 184/88/69 180/89/69
f 189/297/67 176/300/67 145/298/67
f 182/34/70 177/41/70 188/28/70
f 183/300/71 196/297/71 192/301/71
f 195/88/72 190/91/72 186/85/72
f 215/37/68 209/19/68 197/13/68
f 202/99/69 208/96/69 204/98/69
f 213/303/67 200/306/67 198/304/67
f 206/10/70 201/13/70 212/19/70
f 207/306/71 220/303/71 216/305/71
f 219/96/72 214/99/72 210/93/72
f 239/25/68 233/1/68 221/32/68
f 226/107/69 232/104/69 228/106/69
f 237/307/67 224/310/67 222/308/67
f 230/22/70 225/32/70 236/1/70
f 231/310/71 244/307/71 240/309/71
f 243/104/72 238/107/72 234/101/72
f 371/46/68 365/43/68 245/17/68
f 362/7/70 249/17/70 368/43/70
f 287/313/69 251/402/69 255/403/69
f 255/403/69 259/404/69 263/311/69
f 263/311/69 267/405/69 271/406/69
f 271/406/69 275/407/69 279/312/69
f 279/312/69 283/408/69 287/313/69
f 287/313/69 255/403/69 263/311/69
f 263/311/69 271/406/69 279/312/69
f 254/314/79 258/409/82 256/114/80
f 288/157/104 290/410/106 254/315/79
f 261/126/84 257/122/81 253/121/78
f 253/121/78 289/161/105 285/156/102
f 285/156/102 281/151/99 277/145/96
f 277/145/96 273/141/93 269/136/90
f 269/136/90 265/130/87 261/126/84
f 261/126/84 253/121/78 285/156/102
f 285/156/102 277/145/96 269/136/90
f 256/114/80 258/409/82 262/316/85
f 262/316/85 266/411/88 264/317/86
f 266/318/88 270/412/91 268/131/89
f 268/131/89 270/412/91 274/319/94
f 274/321/94 278/322/97 276/148/95
f 278/322/97 282/413/100 280/147/98
f 282/323/100 286/324/103 284/158/101
f 286/324/103 290/410/106 288/157/104
f 311/166/68 315/172/68 319/176/68
f 319/176/68 323/178/68 327/186/68
f 327/186/68 331/188/68 335/189/68
f 335/189/68 339/192/68 343/196/68
f 343/196/68 347/197/68 351/199/68
f 351/199/68 355/200/68 291/149/68
f 291/149/68 295/118/68 299/137/68
f 299/137/68 303/109/68 307/167/68
f 307/167/68 311/166/68 319/176/68
f 319/176/68 327/186/68 335/189/68
f 335/189/68 343/196/68 351/199/68
f 351/199/68 291/149/68 299/137/68
f 299/137/68 307/167/68 319/176/68
f 319/176/68 335/189/68 351/199/68
f 294/325/71 298/330/107 296/326/107
f 358/328/126 294/325/71 292/327/71
f 309/165/70 305/109/70 301/137/70
f 301/137/70 297/118/70 293/149/70
f 293/149/70 357/200/70 353/199/70
f 353/199/70 349/197/113 345/194/70
f 345/194/70 341/192/122 337/189/70
f 337/189/70 333/188/113 329/186/70
f 329/186/70 325/178/70 321/176/70
f 321/176/70 317/172/113 313/166/70
f 313/166/70 309/165/70 301/137/70
f 301/137/70 293/149/70 353/199/70
f 353/199/70 345/194/70 337/189/70
f 337/189/70 329/186/70 321/176/70
f 321/176/70 313/166/70 301/137/70
f 301/137/70 353/199/70 337/189/70
f 298/330/107 302/414/108 300/331/108
f 302/332/108 306/335/109 304/333/109
f 306/335/109 310/337/110 308/336/110
f 310/337/110 314/339/111 312/338/111
f 314/339/111 318/348/112 316/340/112
f 318/341/112 322/344/114 320/342/114
f 322/344/114 326/182/116 324/181/115
f 326/182/116 330/184/118 328/179/117
f 330/184/118 334/346/119 332/345/119
f 334/346/119 338/415/120 336/347/120
f 338/348/120 342/339/121 340/338/121
f 342/339/121 346/337/123 344/336/123
f 346/337/123 350/335/124 348/333/124
f 350/335/124 354/332/125 352/334/125
f 354/349/125 358/328/126 356/329/126
f 395/58/68 389/55/68 377/49/68
f 386/52/70 381/49/70 392/55/70
f 487/70/68 481/67/68 401/61/68
f 478/64/70 405/61/70 484/67/70
f 423/205/68 427/212/68 431/213/68
f 431/213/68 435/219/68 439/221/68
f 439/221/68 443/229/68 447/231/68
f 447/231/68 451/232/68 455/235/68
f 455/235/68 459/239/68 463/238/68
f 463/238/68 467/241/68 471/243/68
f 471/243/68 407/174/68 411/112/68
f 411/112/68 415/202/68 419/204/68
f 419/204/68 423/205/68 431/213/68
f 431/213/68 439/221/68 447/231/68
f 447/231/68 455/235/68 463/238/68
f 463/238/68 471/243/68 411/112/68
f 411/112/68 419/204/68 431/213/68
f 431/213/68 447/231/68 463/238/68
f 410/351/71 414/356/107 412/352/107
f 474/354/126 410/351/71 408/353/71
f 433/213/70 429/212/122 425/210/70
f 425/210/70 421/204/70 417/202/70
f 417/202/70 413/112/70 409/174/70
f 409/174/70 473/243/70 469/241/70
f 469/241/70 465/238/70 461/237/70
f 461/237/70 457/235/122 453/232/70
f 453/232/70 449/231/70 445/229/70
f 445/229/70 441/221/70 437/219/70
f 437/219/70 433/213/70 425/210/70
f 425/210/70 417/202/70 409/174/70
f 409/174/70 469/241/70 461/237/70
f 461/237/70 453/232/70 445/229/70
f 445/229/70 437/219/70 425/210/70
f 425/210/70 409/174/70 461/237/70
f 414/356/107 418/416/108 416/357/108
f 418/358/108 422/359/109 420/333/109
f 422/359/109 426/360/110 424/336/110
f 426/360/110 430/361/111 428/338/111
f 430/361/111 434/369/112 432/340/112
f 434/362/112 438/365/114 436/363/114
f 438/365/114 442/225/116 440/224/115
f 442/225/116 446/227/118 444/222/117
f 446/227/118 450/367/119 448/366/119
f 450/367/119 454/417/120 452/368/120
f 454/369/120 458/361/121 456/338/121
f 458/361/121 462/360/123 460/336/123
f 462/360/123 466/359/124 464/333/124
f 466/359/124 470/358/125 468/334/125
f 470/370/125 474/354/126 472/355/126
f 511/82/68 505/79/68 493/73/68
f 502/76/70 497/73/70 508/79/70
f 533/418/139 537/419/150 541/420/139
f 541/420/139 545/267/155 549/273/139
f 549/273/139 553/272/160 557/282/139
f 557/282/139 561/281/150 565/286/139
f 565/286/139 569/294/169 517/293/139
f 517/293/139 521/421/142 525/372/139
f 525/372/139 529/422/139 533/418/139
f 533/418/139 541/420/139 549/273/139
f 549/273/139 557/282/139 565/286/139
f 565/286/139 517/293/139 525/372/139
f 525/372/139 533/418/139 549/273/139
f 518/218/140 520/296/140 524/373/143
f 572/295/170 520/296/140 518/218/140
f 551/423/159 547/265/157 543/261/154
f 543/261/154 539/258/152 535/253/146
f 535/253/146 531/249/148 527/246/146
f 527/246/146 523/207/144 519/375/141
f 519/375/141 571/424/171 567/425/168
f 567/425/168 563/426/166 559/376/164
f 559/376/164 555/427/162 551/423/159
f 551/423/159 543/261/154 535/253/146
f 535/253/146 527/246/146 519/375/141
f 519/375/141 567/425/168 559/376/164
f 559/376/164 551/423/159 535/253/146
f 522/216/143 524/373/143 528/377/145
f 526/248/145 528/428/145 532/379/147
f 532/379/147 536/429/149 534/256/149
f 534/256/149 536/429/149 540/380/151
f 540/377/151 544/430/153 542/216/153
f 542/216/153 544/430/153 548/296/156
f 546/382/156 548/296/156 552/269/158
f 552/269/158 556/388/161 554/383/161
f 556/276/161 560/279/163 558/384/163
f 558/384/163 560/279/163 564/284/165
f 564/284/165 568/288/167 566/387/167
f 568/388/167 572/295/170 570/374/170
