# Blender 5.2.0 LTS
# www.blender.org
o Backdrop_Dinghy_Detail
v 0.000000 13.000000 0.000000
v 0.000000 12.905893 -1.320925
v 0.000000 6.209518 -9.349661
v 0.000000 4.847010 -9.775169
v 0.617304 12.905893 -1.290043
v 1.224046 12.625184 -2.558012
v 1.809844 12.162675 -3.782213
v 2.364675 11.526279 -4.941700
v 2.879045 10.726887 -6.016633
v 3.344155 9.778174 -6.988619
v 3.752045 8.696376 -7.841028
v 4.095737 7.500000 -8.559276
v 4.369349 6.209518 -9.131071
v 4.568201 4.847010 -9.546631
v 4.688890 3.435788 -9.798846
v 4.729350 2.000000 -9.883401
v 1.205744 12.905893 -1.198839
v 2.390857 12.625184 -2.377166
v 3.535062 12.162675 -3.514819
v 4.618780 11.526279 -4.592331
v 5.623470 10.726887 -5.591269
v 6.531941 9.778174 -6.494538
v 7.328649 8.696376 -7.286683
v 7.999961 7.500000 -7.954152
v 8.534392 6.209518 -8.485523
v 8.922798 4.847010 -8.871704
v 9.158532 3.435788 -9.106088
v 9.237560 2.000000 -9.184663
v 1.737804 12.905893 -1.051579
v 3.445874 12.625184 -2.085166
v 5.094984 12.162675 -3.083075
v 6.656916 11.526279 -4.028231
v 8.104948 10.726887 -4.904464
v 9.414301 9.778174 -5.696779
v 10.562573 8.696376 -6.391621
v 11.530116 7.500000 -6.977100
v 12.300378 6.209518 -7.443201
v 12.860174 4.847010 -7.781945
v 13.199932 3.435788 -7.987538
v 13.313832 2.000000 -8.056462
v 2.188607 12.905893 -0.855149
v 4.339766 12.625184 -1.695666
v 6.416670 12.162675 -2.507170
v 8.383781 11.526279 -3.275775
v 10.207447 10.726887 -3.988331
v 11.856459 9.778174 -4.632645
v 13.302604 8.696376 -5.197693
v 14.521135 7.500000 -5.673808
v 15.491210 6.209518 -6.052843
v 16.196224 4.847010 -6.328311
v 16.624117 3.435788 -6.495500
v 16.767563 2.000000 -6.551549
v 2.537072 12.905893 -0.618733
v 5.030735 12.625184 -1.226878
v 7.438320 12.162675 -1.814032
v 9.718632 11.526279 -2.370147
v 11.832657 10.726887 -2.885708
v 13.744221 9.778174 -3.351894
v 15.420617 8.696376 -3.760727
v 16.833162 7.500000 -4.105214
v 17.957691 6.209518 -4.379460
v 18.774958 4.847010 -4.578772
v 19.270979 3.435788 -4.699739
v 19.437263 2.000000 -4.740294
v 2.766908 12.905893 -0.353385
v 5.486472 12.625184 -0.700723
v 8.112163 12.162675 -1.036073
v 10.599050 11.526279 -1.353694
v 12.904585 10.726887 -1.648153
v 14.989320 9.778174 -1.914412
v 16.817581 8.696376 -2.147914
v 18.358089 7.500000 -2.344665
v 19.584490 6.209518 -2.501300
v 20.475794 4.847010 -2.615135
v 21.016748 3.435788 -2.684224
v 21.198099 2.000000 -2.707387
v 2.867365 12.905893 -0.071514
v 5.685668 12.625184 -0.141803
v 8.406690 12.162675 -0.209667
v 10.983867 11.526279 -0.273943
v 13.373110 10.726887 -0.333532
v 15.533535 9.778174 -0.387414
v 17.428173 8.696376 -0.434667
v 19.024612 7.500000 -0.474483
v 20.295540 6.209518 -0.506181
v 21.219204 4.847010 -0.529217
v 21.779800 3.435788 -0.543198
v 21.967733 2.000000 -0.547886
v 8.717243 19.817968 -6.357846
v 8.930898 19.711889 -6.765702
v 9.201624 19.422083 -7.022544
v -17.883801 2.324435 -15.607020
v -17.467569 4.015894 -16.654419
v 8.617909 19.711891 -5.908257
v 2.833748 12.905893 0.213702
v 5.619009 12.625184 0.423747
v 8.308128 12.162675 0.626542
v 10.855091 11.526279 0.818617
v 13.216321 10.726887 0.996684
v 15.351418 9.778174 1.157699
v 17.223845 8.696376 1.298905
v 18.801567 7.500000 1.417886
v 20.057594 6.209518 1.512607
v 20.970427 4.847010 1.581447
v 21.524450 3.435788 1.623228
v 21.710182 2.000000 1.637233
v -17.880024 3.575454 -14.787702
v -17.619558 2.973801 -14.494776
v 8.830893 19.026201 -5.344667
v 8.659506 19.422083 -5.537409
v -17.792274 4.177105 -16.034573
v -17.943241 4.015894 -15.351305
v 9.086144 18.630312 -5.381674
v -17.056133 3.575454 -17.044762
v -17.968843 2.916895 -16.365162
v -17.820543 2.758152 -16.505850
v -17.231634 2.372149 -14.551020
v 2.667628 12.905893 0.488925
v 5.289611 12.625184 0.969484
v 7.821089 12.162675 1.433455
v 10.218743 11.526279 1.872898
v 12.441554 10.726887 2.280297
v 14.451488 9.778174 2.648679
v 16.214146 8.696376 2.971741
v 17.699379 7.500000 3.243955
v 18.881777 6.209518 3.460666
v 19.741096 4.847010 3.618163
v 20.262644 3.435788 3.713753
v 20.437487 2.000000 3.745797
v -16.668213 2.973803 -17.101004
v -17.680723 2.541289 -16.526125
v -18.023623 2.541292 -15.586748
v -18.117502 2.758147 -15.692327
v -18.140293 2.916896 -15.895470
v -18.085871 2.975008 -16.141743
v -17.136427 4.015894 17.386099
v 7.715322 19.711889 4.079835
v 7.701033 19.422083 3.706934
v -16.885046 4.177106 18.039131
v -17.158140 3.575452 16.819376
v 2.376772 12.905893 0.741286
v 4.712877 12.625184 1.469889
v 6.968344 12.162675 2.173341
v 9.104578 11.526279 2.839606
v 11.085032 10.726887 3.457285
v 12.875820 9.778174 4.015810
v 14.446294 8.696376 4.505622
v 15.769588 7.500000 4.918341
v 16.823069 6.209518 5.246909
v 17.588696 4.847010 5.485699
v 18.053377 3.435788 5.630628
v 18.209156 2.000000 5.679212
v -15.400469 2.372149 18.597052
v 8.716915 19.026201 5.092828
v 8.459000 19.422083 5.094381
v -16.820198 1.931710 -14.941361
v -16.495493 1.770498 -15.561210
v -15.614236 2.973802 18.925611
v -20.000000 12.569331 0.430669
v -19.130669 12.569331 1.300000
v -19.130669 11.700000 0.430669
v -20.000000 13.430669 0.430669
v -19.130669 14.300000 0.430669
v 1.974782 12.905893 0.958986
v 3.915774 12.625184 1.901563
v 5.789768 12.162675 2.811604
v 7.564694 11.526279 3.673537
v 9.210188 10.726887 4.472615
v 10.698095 9.778174 5.195166
v 12.002948 8.696376 5.828826
v 13.102430 7.500000 6.362751
v 13.977732 6.209518 6.787812
v 14.613866 4.847010 7.096728
v 14.999955 3.435788 7.284220
v 15.129388 2.000000 7.347074
v -19.130669 13.430669 1.300000
v -19.130669 12.569331 -1.300000
v -20.000000 12.569331 -0.430669
v -19.130669 11.700000 -0.430669
v -20.000000 13.430669 -0.430669
v -19.130669 13.430669 -1.300000
v -19.130669 14.300000 -0.430669
v 19.130669 12.569331 1.300000
v 20.000000 12.569331 0.430669
v 19.130669 11.700000 0.430669
v 20.000000 13.430669 0.430669
v 1.480452 12.905893 1.131844
v 2.935574 12.625184 2.244322
v 4.340467 12.162675 3.318400
v 5.671092 11.526279 4.335697
v 6.904685 10.726887 5.278811
v 8.020138 9.778174 6.131603
v 8.998358 8.696376 6.879479
v 9.822618 7.500000 7.509645
v 10.478811 6.209518 8.011324
v 10.955709 4.847010 8.375924
v 11.245152 3.435788 8.597211
v 11.342184 2.000000 8.671393
v 19.130669 13.430669 1.300000
v 19.130669 14.300000 0.430669
v 20.000000 12.569331 -0.430669
v 19.130669 12.569331 -1.300000
v 19.130669 11.700000 -0.430669
v 19.130669 13.430669 -1.300000
v 20.000000 13.430669 -0.430669
v 19.130669 14.300000 -0.430669
v -22.500000 2.369331 8.130669
v -21.630669 2.369331 9.000000
v -21.630669 1.500000 8.130669
v 0.916899 12.905893 1.251779
v 1.818109 12.625184 2.482140
v 2.688212 12.162675 3.670030
v 3.512317 11.526279 4.795125
v 4.276327 10.726887 5.838175
v 4.967168 9.778174 6.781332
v 5.573014 8.696376 7.608456
v 6.083510 7.500000 8.305398
v 6.489914 6.209518 8.860236
v 6.785275 4.847010 9.263470
v 6.964537 3.435788 9.508205
v 7.024633 2.000000 9.590249
v -22.500000 9.630669 8.130669
v -21.630669 10.500000 8.130669
v -21.630669 9.630669 9.000000
v -21.630669 2.369331 -9.000000
v -22.500000 2.369331 -8.130669
v -21.630669 1.500000 -8.130669
v -22.500000 9.630669 -8.130669
v -21.630669 9.630669 -9.000000
v -21.630669 10.500000 -8.130669
v -20.369331 2.369331 9.000000
v -19.500000 2.369331 8.130669
v 0.310472 12.905893 1.313182
v 0.615632 12.625184 2.603894
v 0.910258 12.162675 3.850055
v 1.189309 11.526279 5.030338
v 1.448012 10.726887 6.124552
v 1.681939 9.778174 7.113974
v 1.887083 8.696376 7.981670
v 2.059944 7.500000 8.712799
v 2.197555 6.209518 9.294853
v 2.297569 4.847010 9.717867
v 2.358268 3.435788 9.974607
v 2.378618 2.000000 10.060676
v -20.369331 1.500000 8.130669
v -19.500000 9.630669 8.130669
v -20.369331 9.630669 9.000000
v -20.369331 10.500000 8.130669
v -19.500000 2.369331 -8.130669
v -20.369331 2.369331 -9.000000
v -20.369331 1.500000 -8.130669
v -20.369331 9.630669 -9.000000
v -19.500000 9.630669 -8.130669
v -20.369331 10.500000 -8.130669
v -16.944372 2.973803 16.490818
v -0.310472 12.905893 1.313182
v -0.615632 12.625184 2.603894
v -0.910258 12.162675 3.850055
v -1.189309 11.526279 5.030338
v -1.448011 10.726887 6.124552
v -1.681936 9.778174 7.113974
v -1.887086 8.696376 7.981670
v -2.059943 7.500000 8.712799
v -2.197558 6.209518 9.294853
v -2.297568 4.847010 9.717867
v -2.358270 3.435788 9.974607
v -2.378618 2.000000 10.060676
v -17.180717 2.541292 17.630911
v 7.841691 19.026199 3.490742
v -21.630669 2.369331 9.000000
v -16.552397 2.372147 16.488459
v -17.039434 2.324435 17.630058
v 8.099608 18.630312 3.489191
v -20.369331 2.369331 9.000000
v -16.087250 1.931710 16.812931
v -16.871778 2.165683 17.747013
v 8.405675 18.340506 3.702694
v -19.500000 9.630669 -8.130669
v -0.916899 12.905893 1.251779
v -1.818109 12.625184 2.482140
v -2.688211 12.162675 3.670031
v -3.512316 11.526279 4.795125
v -4.276326 10.726887 5.838175
v -4.967166 9.778174 6.781332
v -5.573017 8.696376 7.608456
v -6.083508 7.500000 8.305398
v -6.489916 6.209518 8.860236
v -6.785274 4.847010 9.263470
v -6.964540 3.435788 9.508205
v -7.024632 2.000000 9.590249
v -15.673563 1.770496 17.377296
v -16.722672 2.107578 17.950428
v 8.677879 18.234428 4.074042
v -19.500000 9.630669 8.130669
v -15.422182 1.931708 18.030331
v -16.632065 2.165684 18.185804
v 8.843286 18.340506 4.503736
v -19.500000 2.369331 8.130669
v -15.400469 2.372149 18.597052
v -16.624237 2.324437 18.390070
v 8.857574 18.630312 4.876637
v -1.480452 12.905893 1.131844
v -2.935574 12.625184 2.244322
v -4.340466 12.162675 3.318400
v -5.671092 11.526279 4.335697
v -6.904685 10.726887 5.278812
v -8.020137 9.778174 6.131604
v -8.998360 8.696376 6.879478
v -9.822616 7.500000 7.509645
v -10.478814 6.209518 8.011324
v -10.955709 4.847010 8.375923
v -11.245154 3.435788 8.597211
v -11.342183 2.000000 8.671393
v -19.500000 2.369331 -8.130669
v -15.614236 2.973802 18.925611
v -16.701292 2.541291 18.508497
v 8.716915 19.026201 5.092828
v -17.586842 2.324435 -16.420544
v -16.006210 3.575454 18.927969
v -16.842569 2.758148 18.509344
v 8.459000 19.422083 5.094381
v -17.564056 2.165684 -16.217403
v -16.471357 4.015894 18.603498
v -17.010223 2.916899 18.392391
v -1.974782 12.905893 0.958986
v -3.915774 12.625184 1.901563
v -5.789767 12.162675 2.811605
v -7.564692 11.526279 3.673537
v -9.210189 10.726887 4.472616
v -10.698094 9.778174 5.195168
v -12.002950 8.696376 5.828825
v -13.102429 7.500000 6.362751
v -13.977734 6.209518 6.787811
v -14.613865 4.847010 7.096728
v -14.999958 3.435788 7.284220
v -15.129385 2.000000 7.347074
v 8.152931 19.711891 4.880879
v -20.000000 13.430669 -0.430669
v -16.885046 4.177106 18.039131
v -17.159334 2.975005 18.188976
v 7.880728 19.817966 4.509528
v -20.000000 13.430669 0.430669
v -17.136427 4.015894 17.386099
v -17.249939 2.916900 17.953602
v 7.715322 19.711889 4.079835
v -20.000000 12.569331 -0.430669
v -17.158140 3.575452 16.819376
v -2.376772 12.905893 0.741286
v -4.712877 12.625184 1.469889
v -6.968344 12.162675 2.173342
v -9.104577 11.526279 2.839607
v -11.085035 10.726887 3.457287
v -12.875820 9.778174 4.015812
v -14.446294 8.696376 4.505621
v -15.769587 7.500000 4.918342
v -16.823069 6.209518 5.246909
v -17.588694 4.847010 5.485698
v -18.053381 3.435788 5.630628
v -18.209154 2.000000 5.679213
v -17.257767 2.758149 17.749334
v 7.701033 19.422083 3.706934
v 8.941004 19.458710 3.930298
v -16.668213 2.973803 -17.101004
v -17.680723 2.541289 -16.526125
v 9.456875 19.026199 -7.059553
v -20.000000 12.569331 0.430669
v -16.407743 2.372148 -16.808077
v -17.586842 2.324435 -16.420544
v 9.628262 18.630312 -6.866811
v -19.130669 11.700000 -0.430669
v -2.667628 12.905893 0.488925
v -5.289612 12.625184 0.969484
v -7.821089 12.162675 1.433456
v -10.218742 11.526279 1.872899
v -12.441557 10.726887 2.280298
v -14.451488 9.778174 2.648681
v -16.214146 8.696376 2.971740
v -17.699375 7.500000 3.243956
v -18.881777 6.209518 3.460666
v -19.741096 4.847010 3.618163
v -20.262646 3.435788 3.713753
v -20.437485 2.000000 3.745798
v -16.344524 1.931709 -16.244476
v -17.564056 2.165684 -16.217403
v 9.669858 18.340506 -6.495959
v 19.130669 11.700000 -0.430669
v -16.495493 1.770498 -15.561210
v -17.618467 2.107579 -15.971128
v 9.570522 18.234428 -6.046374
v -22.500000 2.369331 8.130669
v -16.820198 1.931710 -14.941361
v -17.735504 2.165683 -15.747714
v 9.356868 18.340506 -5.638516
v -2.833748 12.905893 0.213702
v -5.619010 12.625184 0.423747
v -8.308128 12.162675 0.626543
v -10.855089 11.526279 0.818617
v -13.216324 10.726887 0.996685
v -15.351421 9.778174 1.157700
v -17.223841 8.696376 1.298904
v -18.801563 7.500000 1.417886
v -20.057594 6.209518 1.512607
v -20.970425 4.847010 1.581446
v -21.524454 3.435788 1.623227
v -21.710178 2.000000 1.637234
v -22.500000 9.630669 8.130669
v -17.231634 2.372149 -14.551020
v -17.883801 2.324435 -15.607020
v 9.086144 18.630312 -5.381674
v -19.130669 12.569331 1.300000
v -17.619558 2.973801 -14.494776
v -18.023623 2.541292 -15.586748
v 8.830893 19.026201 -5.344667
v 19.130669 12.569331 1.300000
v -17.880024 3.575454 -14.787702
v -18.117502 2.758147 -15.692327
v -2.867365 12.905893 -0.071513
v -5.685669 12.625184 -0.141803
v -8.406691 12.162675 -0.209666
v -10.983865 11.526279 -0.273942
v -13.373111 10.726887 -0.333532
v -15.533539 9.778174 -0.387413
v -17.428169 8.696376 -0.434668
v -19.024611 7.500000 -0.474482
v -20.295542 6.209518 -0.506181
v -21.219200 4.847010 -0.529217
v -21.779804 3.435788 -0.543199
v -21.967730 2.000000 -0.547885
v 8.659506 19.422083 -5.537409
v 20.000000 13.430669 -0.430669
v -17.943241 4.015894 -15.351305
v -18.140293 2.916896 -15.895470
v 8.617909 19.711891 -5.908257
v 9.852173 19.458710 -5.943563
v -17.792274 4.177105 -16.034573
v -18.085871 2.975008 -16.141743
v 8.717243 19.817968 -6.357846
v 20.000000 13.430669 0.430669
v -17.467569 4.015894 -16.654419
v -2.766908 12.905893 -0.353385
v -5.486473 12.625184 -0.700724
v -8.112164 12.162675 -1.036071
v -10.599048 11.526279 -1.353693
v -12.904587 10.726887 -1.648153
v -14.989325 9.778174 -1.914411
v -16.817577 8.696376 -2.147914
v -18.358088 7.500000 -2.344664
v -19.584492 6.209518 -2.501300
v -20.475788 4.847010 -2.615135
v -21.016752 3.435788 -2.684226
v -21.198095 2.000000 -2.707385
v -17.968843 2.916895 -16.365162
v 8.930898 19.711889 -6.765702
v 19.130669 13.430669 -1.300000
v -17.056133 3.575454 -17.044762
v -17.820543 2.758152 -16.505850
v 8.843286 18.340506 4.503736
v 8.857574 18.630312 4.876637
v -17.010223 2.916899 18.392391
v -17.159334 2.975005 18.188976
v -15.422182 1.931708 18.030331
v -17.249939 2.916900 17.953602
v -2.537072 12.905893 -0.618733
v -5.030735 12.625184 -1.226879
v -7.438322 12.162675 -1.814031
v -9.718630 11.526279 -2.370146
v -11.832659 10.726887 -2.885708
v -13.744227 9.778174 -3.351894
v -15.420612 8.696376 -3.760727
v -16.833160 7.500000 -4.105213
v -17.957691 6.209518 -4.379460
v -18.774952 4.847010 -4.578772
v -19.270981 3.435788 -4.699741
v -19.437260 2.000000 -4.740292
v -16.471357 4.015894 18.603498
v -16.006210 3.575454 18.927969
v 8.152931 19.711891 4.880879
v 7.880728 19.817966 4.509528
v 8.405675 18.340506 3.702694
v 8.677879 18.234428 4.074042
v -21.630669 1.500000 -8.130669
v -21.630669 10.500000 -8.130669
v 7.841691 19.026199 3.490742
v 8.099608 18.630312 3.489191
v -21.630669 10.500000 8.130669
v -2.188607 12.905893 -0.855149
v -4.339766 12.625184 -1.695666
v -6.416673 12.162675 -2.507169
v -8.383781 11.526279 -3.275773
v -10.207448 10.726887 -3.988331
v -11.856465 9.778174 -4.632646
v -13.302597 8.696376 -5.197692
v -14.521133 7.500000 -5.673806
v -15.491211 6.209518 -6.052843
v -16.196220 4.847010 -6.328310
v -16.624121 3.435788 -6.495502
v -16.767563 2.000000 -6.551547
v -20.369331 9.630669 9.000000
v 9.456875 19.026199 -7.059553
v -16.632065 2.165684 18.185804
v -16.624237 2.324437 18.390070
v -17.257767 2.758149 17.749334
v -17.618467 2.107579 -15.971128
v -17.735504 2.165683 -15.747714
v -16.701292 2.541291 18.508497
v -16.842569 2.758148 18.509344
v 9.570522 18.234428 -6.046374
v 9.356868 18.340506 -5.638516
v -1.737804 12.905893 -1.051579
v -3.445873 12.625184 -2.085166
v -5.094986 12.162675 -3.083075
v -6.656915 11.526279 -4.028229
v -8.104948 10.726887 -4.904464
v -9.414308 9.778174 -5.696780
v -10.562568 8.696376 -6.391619
v -11.530115 7.500000 -6.977098
v -12.300378 6.209518 -7.443201
v -12.860171 4.847010 -7.781943
v -13.199934 3.435788 -7.987540
v -13.313830 2.000000 -8.056458
v -20.369331 1.500000 -8.130669
v -16.344524 1.931709 -16.244476
v -16.407743 2.372148 -16.808077
v -17.180717 2.541292 17.630911
v -17.039434 2.324435 17.630058
v -19.130669 14.300000 -0.430669
v -19.130669 14.300000 0.430669
v 9.628262 18.630312 -6.866811
v 9.669858 18.340506 -6.495959
v -15.673563 1.770496 17.377296
v -16.087250 1.931710 16.812931
v -1.205744 12.905893 -1.198839
v -2.390856 12.625184 -2.377166
v -3.535064 12.162675 -3.514819
v -4.618780 11.526279 -4.592330
v -5.623471 10.726887 -5.591269
v -6.531946 9.778174 -6.494540
v -7.328644 8.696376 -7.286681
v -7.999959 7.500000 -7.954149
v -8.534392 6.209518 -8.485523
v -8.922795 4.847010 -8.871702
v -9.158533 3.435788 -9.106091
v -9.237559 2.000000 -9.184660
v -20.369331 10.500000 8.130669
v -20.369331 10.500000 -8.130669
v -20.369331 1.500000 8.130669
v -21.630669 1.500000 8.130669
v -21.630669 9.630669 -9.000000
v -20.369331 9.630669 -9.000000
v -20.369331 2.369331 -9.000000
v -21.630669 2.369331 -9.000000
v -22.500000 9.630669 -8.130669
v 9.201624 19.422083 -7.022544
v 19.130669 12.569331 -1.300000
v -0.617304 12.905893 -1.290043
v -1.224046 12.625184 -2.558012
v -1.809847 12.162675 -3.782215
v -2.364675 11.526279 -4.941699
v -2.879046 10.726887 -6.016634
v -3.344159 9.778174 -6.988622
v -3.752042 8.696376 -7.841027
v -4.095737 7.500000 -8.559272
v -4.369349 6.209518 -9.131071
v -4.568200 4.847010 -9.546630
v -4.688890 3.435788 -9.798849
v -4.729351 2.000000 -9.883397
v -22.500000 2.369331 -8.130669
v 19.130669 13.430669 1.300000
v -19.130669 13.430669 1.300000
v 20.000000 12.569331 0.430669
v -19.130669 13.430669 -1.300000
v -16.552397 2.372147 16.488459
v -16.944372 2.973803 16.490818
v -21.630669 9.630669 9.000000
v 19.130669 11.700000 0.430669
v -19.130669 11.700000 0.430669
v 19.130669 14.300000 0.430669
v 0.000000 12.625184 -2.619249
v -0.000002 12.162675 -3.872758
v -0.000001 11.526279 -5.059999
v 0.000000 10.726887 -6.160666
v -0.000002 9.778174 -7.155924
v 0.000002 8.696376 -8.028733
v -0.000001 7.500000 -8.764174
v 0.000001 3.435788 -10.033425
v -0.000003 2.000000 -10.119998
v 19.130669 14.300000 -0.430669
v 20.000000 12.569331 -0.430669
v -19.130669 12.569331 -1.300000
v -16.871778 2.165683 17.747013
v -16.722672 2.107578 17.950428
vn -0.0000 1.0000 -0.0000
vn -0.0000 0.9896 -0.1438
vn -0.0000 0.3557 -0.9346
vn -0.0000 0.2390 -0.9710
vn 0.0135 0.9899 -0.1409
vn 0.0273 0.9609 -0.2757
vn 0.0404 0.9139 -0.4040
vn 0.0528 0.8506 -0.5232
vn 0.0640 0.7729 -0.6313
vn 0.0740 0.6831 -0.7266
vn 0.0826 0.5833 -0.8081
vn 0.0897 0.4755 -0.8751
vn 0.0952 0.3616 -0.9275
vn 0.0992 0.2434 -0.9648
vn 0.1016 0.1224 -0.9873
vn 0.1022 0.0614 -0.9929
vn 0.0267 0.9909 -0.1322
vn 0.0537 0.9646 -0.2583
vn 0.0799 0.9217 -0.3796
vn 0.1047 0.8631 -0.4941
vn 0.1277 0.7899 -0.5998
vn 0.1487 0.7034 -0.6951
vn 0.1671 0.6051 -0.7784
vn 0.1828 0.4967 -0.8485
vn 0.1953 0.3800 -0.9041
vn 0.2044 0.2569 -0.9446
vn 0.2100 0.1296 -0.9691
vn 0.2114 0.0650 -0.9752
vn 0.0392 0.9923 -0.1176
vn 0.0785 0.9702 -0.2294
vn 0.1171 0.9336 -0.3387
vn 0.1546 0.8824 -0.4443
vn 0.1905 0.8166 -0.5448
vn 0.2242 0.7362 -0.6385
vn 0.2552 0.6415 -0.7235
vn 0.2824 0.5331 -0.7975
vn 0.3050 0.4123 -0.8584
vn 0.3221 0.2812 -0.9040
vn 0.3328 0.1426 -0.9322
vn 0.3355 0.0717 -0.9393
vn 0.0504 0.9940 -0.0975
vn 0.1004 0.9767 -0.1895
vn 0.1505 0.9477 -0.2814
vn 0.2006 0.9060 -0.3727
vn 0.2504 0.8503 -0.4629
vn 0.2993 0.7792 -0.5507
vn 0.3465 0.6911 -0.6343
vn 0.3903 0.5849 -0.7110
vn 0.4288 0.4603 -0.7773
vn 0.4593 0.3185 -0.8292
vn 0.4791 0.1631 -0.8625
vn 0.4844 0.0824 -0.8710
vn 0.0598 0.9956 -0.0723
vn 0.1185 0.9831 -0.1398
vn 0.1784 0.9616 -0.2084
vn 0.2400 0.9299 -0.2787
vn 0.3037 0.8858 -0.3508
vn 0.3694 0.8266 -0.4245
vn 0.4365 0.7489 -0.4987
vn 0.5030 0.6487 -0.5711
vn 0.5657 0.5227 -0.6378
vn 0.6188 0.3694 -0.6933
vn 0.6553 0.1920 -0.7306
vn 0.6652 0.0979 -0.7402
vn 0.0669 0.9969 -0.0424
vn 0.1316 0.9880 -0.0814
vn 0.1986 0.9725 -0.1217
vn 0.2692 0.9490 -0.1639
vn 0.3445 0.9153 -0.2086
vn 0.4255 0.8679 -0.2562
vn 0.5126 0.8020 -0.3067
vn 0.6046 0.7111 -0.3588
vn 0.6975 0.5876 -0.4101
vn 0.7821 0.4255 -0.4553
vn 0.8437 0.2252 -0.4873
vn 0.8607 0.1167 -0.4956
vn 0.0706 0.9975 -0.0088
vn 0.1379 0.9903 -0.0167
vn 0.2083 0.9778 -0.0249
vn 0.2832 0.9585 -0.0337
vn 0.3645 0.9302 -0.0431
vn 0.4539 0.8894 -0.0534
vn 0.5528 0.8308 -0.0646
vn 0.6610 0.7465 -0.0765
vn 0.7745 0.6263 -0.0887
vn 0.8821 0.4603 -0.0997
vn 0.9632 0.2464 -0.1077
vn 0.9855 0.1294 -0.1098
vn -0.4554 0.8746 -0.1662
vn -0.2213 0.7584 -0.6130
vn 0.0752 0.4410 -0.8944
vn -0.6263 -0.6589 0.4166
vn -0.7453 0.1703 -0.6446
vn -0.5642 0.7584 0.3263
vn 0.0693 0.9973 0.0260
vn 0.1358 0.9895 0.0496
vn 0.2050 0.9760 0.0742
vn 0.2784 0.9552 0.1001
vn 0.3576 0.9251 0.1279
vn 0.4441 0.8820 0.1579
vn 0.5387 0.8207 0.1903
vn 0.6410 0.7339 0.2245
vn 0.7469 0.6124 0.2588
vn 0.8459 0.4477 0.2898
vn 0.9196 0.2387 0.3120
vn 0.9400 0.1247 0.3177
vn -0.9534 -0.0519 0.2972
vn -0.8220 -0.3554 0.4449
vn -0.3309 0.0073 0.9436
vn -0.5186 0.4410 0.7325
vn -0.9091 0.2516 -0.3319
vn -0.9853 0.1703 0.0128
vn -0.0513 -0.4263 0.9031
vn -0.5378 -0.0519 -0.8415
vn 0.0637 0.9963 0.0579
vn 0.1257 0.9858 0.1115
vn 0.1896 0.9676 0.1666
vn 0.2562 0.9404 0.2237
vn 0.3261 0.9019 0.2833
vn 0.4000 0.8489 0.3455
vn 0.4775 0.7772 0.4099
vn 0.5570 0.6815 0.4748
vn 0.6346 0.5563 0.5366
vn 0.7029 0.3980 0.5895
vn 0.7512 0.2088 0.6262
vn 0.7645 0.1073 0.6357
vn -0.3421 -0.3554 -0.8699
vn -0.9762 0.1703 0.1345
vn -0.6066 0.7584 -0.2383
vn -0.6223 0.4410 -0.6468
vn -0.8493 0.2516 0.4640
vn -0.9871 -0.0519 -0.1514
vn 0.0554 0.9948 0.0855
vn 0.1100 0.9800 0.1658
vn 0.1653 0.9549 0.2468
vn 0.2213 0.9182 0.3285
vn 0.2782 0.8683 0.4107
vn 0.3354 0.8029 0.4928
vn 0.3922 0.7196 0.5731
vn 0.4467 0.6159 0.6490
vn 0.4961 0.4901 0.7168
vn 0.5366 0.3424 0.7712
vn 0.5636 0.1765 0.8070
vn 0.5708 0.0895 0.8162
vn -0.1004 -0.6589 0.7455
vn 0.4906 0.0073 0.8714
vn 0.2080 0.4410 0.8731
vn -0.4187 -0.8811 0.2196
vn -0.2549 -0.9625 -0.0931
vn -0.2082 -0.3554 0.9112
vn -1.0000 -0.0000 -0.0000
vn -0.0000 -0.0000 1.0000
vn -0.0000 -1.0000 -0.0000
vn 0.0450 0.9931 0.1082
vn 0.0899 0.9734 0.2108
vn 0.1344 0.9405 0.3121
vn 0.1782 0.8939 0.4113
vn 0.2210 0.8329 0.5075
vn 0.2620 0.7567 0.5990
vn 0.3005 0.6648 0.6839
vn 0.3353 0.5572 0.7597
vn 0.3650 0.4343 0.8235
vn 0.3879 0.2981 0.8722
vn 0.4024 0.1518 0.9028
vn 0.4062 0.0765 0.9106
vn -0.0000 -0.0000 -1.0000
vn 1.0000 -0.0000 -0.0000
vn 0.0331 0.9915 0.1256
vn 0.0664 0.9672 0.2452
vn 0.0988 0.9272 0.3612
vn 0.1300 0.8720 0.4719
vn 0.1593 0.8022 0.5755
vn 0.1864 0.7183 0.6703
vn 0.2107 0.6215 0.7546
vn 0.2316 0.5129 0.8266
vn 0.2486 0.3943 0.8847
vn 0.2612 0.2676 0.9274
vn 0.2690 0.1353 0.9536
vn 0.2710 0.0679 0.9602
vn 0.0202 0.9903 0.1373
vn 0.0407 0.9624 0.2684
vn 0.0603 0.9172 0.3939
vn 0.0789 0.8559 0.5112
vn 0.0959 0.7801 0.6183
vn 0.1112 0.6916 0.7137
vn 0.1245 0.5923 0.7960
vn 0.1356 0.4843 0.8644
vn 0.1443 0.3692 0.9181
vn 0.1507 0.2489 0.9567
vn 0.1545 0.1253 0.9800
vn 0.1555 0.0628 0.9858
vn 0.0068 0.9897 0.1430
vn 0.0137 0.9599 0.2800
vn 0.0203 0.9118 0.4101
vn 0.0264 0.8473 0.5304
vn 0.0320 0.7686 0.6389
vn 0.0369 0.6780 0.7341
vn 0.0412 0.5778 0.8151
vn 0.0446 0.4703 0.8814
vn 0.0473 0.3571 0.9329
vn 0.0492 0.2401 0.9695
vn 0.0504 0.1207 0.9914
vn 0.0507 0.0605 0.9969
vn -0.4682 0.0073 -0.8836
vn -0.0068 0.9897 0.1430
vn -0.0137 0.9599 0.2800
vn -0.0203 0.9118 0.4101
vn -0.0264 0.8473 0.5304
vn -0.0320 0.7686 0.6389
vn -0.0369 0.6780 0.7341
vn -0.0412 0.5778 0.8151
vn -0.0446 0.4703 0.8814
vn -0.0473 0.3571 0.9329
vn -0.0492 0.2401 0.9695
vn -0.0504 0.1207 0.9914
vn -0.0507 0.0605 0.9969
vn -0.7612 -0.4976 0.4159
vn 0.2206 0.3603 -0.9064
vn -0.4606 -0.4606 0.7588
vn -0.1857 -0.4263 -0.8853
vn -0.7613 -0.4976 0.4158
vn 0.4155 0.0612 -0.9075
vn 0.4606 -0.4606 0.7588
vn 0.1496 -0.7438 -0.6514
vn 0.6467 -0.1577 -0.7462
vn 0.7588 0.4606 -0.4606
vn -0.0202 0.9903 0.1373
vn -0.0407 0.9624 0.2684
vn -0.0603 0.9172 0.3939
vn -0.0789 0.8559 0.5112
vn -0.0959 0.7801 0.6183
vn -0.1112 0.6916 0.7137
vn -0.1245 0.5923 0.7960
vn -0.1356 0.4843 0.8644
vn -0.1443 0.3692 0.9181
vn -0.1507 0.2489 0.9567
vn -0.1545 0.1253 0.9800
vn -0.1555 0.0628 0.9858
vn 0.4478 -0.8600 -0.2446
vn 0.8524 -0.2379 -0.4657
vn 0.7588 0.4606 0.4606
vn 0.6290 -0.7438 0.2261
vn 0.9774 -0.1577 -0.1410
vn 0.7588 -0.4606 0.4606
vn 0.6446 -0.4263 0.6346
vn 0.9882 0.0612 0.1407
vn -0.0331 0.9915 0.1256
vn -0.0664 0.9672 0.2452
vn -0.0988 0.9272 0.3612
vn -0.1300 0.8720 0.4719
vn -0.1593 0.8022 0.5755
vn -0.1864 0.7183 0.6703
vn -0.2107 0.6215 0.7546
vn -0.2316 0.5129 0.8266
vn -0.2486 0.3943 0.8847
vn -0.2612 0.2676 0.9274
vn -0.2690 0.1353 0.9536
vn -0.2710 0.0679 0.9602
vn 0.7588 -0.4606 -0.4606
vn 0.8819 0.3603 0.3040
vn -0.2107 -0.6589 -0.7221
vn 0.6870 0.6594 0.3052
vn -0.1788 -0.8811 -0.4378
vn -0.1272 0.7584 0.6392
vn -0.0450 0.9931 0.1082
vn -0.0899 0.9734 0.2108
vn -0.1344 0.9405 0.3121
vn -0.1782 0.8939 0.4113
vn -0.2210 0.8329 0.5075
vn -0.2620 0.7567 0.5990
vn -0.3005 0.6648 0.6839
vn -0.3353 0.5572 0.7597
vn -0.3650 0.4343 0.8235
vn -0.3879 0.2981 0.8722
vn -0.4024 0.1518 0.9028
vn -0.4062 0.0765 0.9106
vn 0.4558 0.8784 0.1439
vn -0.7588 0.4606 -0.4606
vn -0.4254 0.8746 0.2324
vn 0.2501 0.9585 -0.1366
vn -0.7588 0.4606 0.4606
vn 0.1252 0.8784 -0.4613
vn -0.7588 -0.4606 -0.4606
vn -0.0554 0.9948 0.0855
vn -0.1100 0.9800 0.1658
vn -0.1653 0.9549 0.2468
vn -0.2213 0.9182 0.3285
vn -0.2782 0.8683 0.4107
vn -0.3354 0.8029 0.4928
vn -0.3922 0.7196 0.5731
vn -0.4467 0.6159 0.6490
vn -0.4961 0.4901 0.7168
vn -0.5366 0.3424 0.7712
vn -0.5636 0.1765 0.8070
vn -0.5708 0.0895 0.8162
vn 0.1144 0.6594 -0.7430
vn 0.7612 0.4976 -0.4159
vn 0.3548 0.0073 -0.9349
vn -0.8148 -0.4976 -0.2975
vn 0.8265 0.3603 -0.4324
vn -0.7588 -0.4606 0.4606
vn 0.5426 -0.4263 -0.7238
vn 0.9560 0.0612 -0.2868
vn -0.4606 -0.7588 -0.4606
vn -0.0637 0.9963 0.0579
vn -0.1257 0.9858 0.1115
vn -0.1896 0.9676 0.1666
vn -0.2562 0.9404 0.2237
vn -0.3261 0.9019 0.2833
vn -0.4000 0.8489 0.3455
vn -0.4775 0.7772 0.4099
vn -0.5570 0.6815 0.4748
vn -0.6345 0.5563 0.5366
vn -0.7029 0.3980 0.5895
vn -0.7512 0.2088 0.6262
vn -0.7645 0.1073 0.6357
vn 0.5882 -0.7438 -0.3175
vn -0.8148 -0.4976 -0.2974
vn 0.9875 -0.1577 -0.0066
vn 0.4606 -0.7588 -0.4606
vn 0.4793 -0.8600 0.1750
vn 0.9124 -0.2379 0.3331
vn 0.2453 -0.7438 0.6218
vn 0.7510 -0.1577 0.6412
vn -0.0693 0.9973 0.0260
vn -0.1358 0.9895 0.0496
vn -0.2050 0.9760 0.0742
vn -0.2784 0.9552 0.1001
vn -0.3576 0.9251 0.1279
vn -0.4441 0.8820 0.1579
vn -0.5387 0.8207 0.1903
vn -0.6410 0.7339 0.2245
vn -0.7469 0.6124 0.2588
vn -0.8459 0.4477 0.2898
vn -0.9196 0.2387 0.3120
vn -0.9400 0.1247 0.3177
vn 0.5465 0.0612 0.8352
vn 0.3536 0.3603 0.8632
vn -0.8149 -0.4976 -0.2974
vn -0.0706 0.9975 -0.0088
vn -0.1379 0.9903 -0.0167
vn -0.2083 0.9778 -0.0249
vn -0.2832 0.9585 -0.0337
vn -0.3645 0.9302 -0.0431
vn -0.4539 0.8894 -0.0534
vn -0.5528 0.8308 -0.0646
vn -0.6610 0.7465 -0.0765
vn -0.7745 0.6263 -0.0887
vn -0.8821 0.4603 -0.0997
vn -0.9632 0.2464 -0.1077
vn -0.9855 0.1293 -0.1098
vn 0.2241 0.6594 0.7176
vn 0.1927 0.8784 0.4374
vn 0.8148 0.4976 0.2974
vn -0.8149 -0.4974 -0.2975
vn 0.2677 0.9585 0.0977
vn -0.0669 0.9969 -0.0424
vn -0.1316 0.9880 -0.0814
vn -0.1986 0.9725 -0.1217
vn -0.2692 0.9490 -0.1639
vn -0.3445 0.9153 -0.2086
vn -0.4255 0.8679 -0.2562
vn -0.5126 0.8020 -0.3067
vn -0.6046 0.7111 -0.3588
vn -0.6975 0.5876 -0.4101
vn -0.7821 0.4255 -0.4553
vn -0.8437 0.2252 -0.4873
vn -0.8607 0.1167 -0.4956
vn 0.4292 0.8784 -0.2104
vn 0.4606 0.4606 -0.7588
vn -0.8148 -0.4975 -0.2975
vn -0.6406 0.1703 0.7487
vn -0.1113 -0.8811 0.4596
vn -0.9762 0.1703 0.1346
vn -0.0598 0.9956 -0.0723
vn -0.1185 0.9831 -0.1398
vn -0.1784 0.9616 -0.2084
vn -0.2400 0.9299 -0.2787
vn -0.3037 0.8858 -0.3508
vn -0.3694 0.8266 -0.4245
vn -0.4365 0.7489 -0.4987
vn -0.5030 0.6487 -0.5711
vn -0.5657 0.5227 -0.6378
vn -0.6188 0.3694 -0.6933
vn -0.6553 0.1920 -0.7306
vn -0.6652 0.0979 -0.7402
vn -0.4060 -0.0519 0.9124
vn -0.4606 0.7588 -0.4606
vn -0.1856 -0.4263 -0.8853
vn -0.4606 0.7588 0.4606
vn -0.0504 0.9940 -0.0975
vn -0.1004 0.9767 -0.1895
vn -0.1505 0.9477 -0.2814
vn -0.2006 0.9060 -0.3727
vn -0.2504 0.8503 -0.4629
vn -0.2993 0.7792 -0.5507
vn -0.3465 0.6911 -0.6343
vn -0.3903 0.5849 -0.7110
vn -0.4288 0.4603 -0.7773
vn -0.4593 0.3185 -0.8292
vn -0.4791 0.1631 -0.8625
vn -0.4844 0.0824 -0.8710
vn 0.4606 0.4606 0.7588
vn -0.0392 0.9923 -0.1176
vn -0.0785 0.9702 -0.2294
vn -0.1171 0.9336 -0.3387
vn -0.1546 0.8824 -0.4443
vn -0.1905 0.8166 -0.5448
vn -0.2242 0.7362 -0.6385
vn -0.2552 0.6415 -0.7235
vn -0.2824 0.5331 -0.7975
vn -0.3050 0.4123 -0.8584
vn -0.3221 0.2812 -0.9040
vn -0.3328 0.1426 -0.9322
vn -0.3355 0.0717 -0.9393
vn -0.8793 -0.3554 -0.3171
vn -0.6815 -0.6589 -0.3183
vn -0.2382 -0.9625 0.1301
vn -0.4469 -0.8811 -0.1546
vn -0.0267 0.9909 -0.1322
vn -0.0537 0.9646 -0.2583
vn -0.0799 0.9217 -0.3796
vn -0.1047 0.8631 -0.4941
vn -0.1277 0.7899 -0.5998
vn -0.1487 0.7034 -0.6951
vn -0.1671 0.6051 -0.7784
vn -0.1828 0.4967 -0.8485
vn -0.1953 0.3800 -0.9041
vn -0.2044 0.2569 -0.9446
vn -0.2100 0.1296 -0.9691
vn -0.2114 0.0650 -0.9752
vn 0.4606 0.7588 0.4606
vn 0.4606 0.7588 -0.4606
vn 0.4606 -0.7588 0.4606
vn -0.4606 -0.7588 0.4606
vn -0.4606 0.4606 -0.7588
vn 0.4606 -0.4606 -0.7588
vn -0.4606 -0.4606 -0.7588
vn 0.6337 0.6594 -0.4045
vn -0.0135 0.9899 -0.1409
vn -0.0273 0.9609 -0.2757
vn -0.0404 0.9139 -0.4040
vn -0.0528 0.8506 -0.5232
vn -0.0640 0.7729 -0.6313
vn -0.0740 0.6831 -0.7266
vn -0.0826 0.5833 -0.8081
vn -0.0897 0.4755 -0.8751
vn -0.0952 0.3616 -0.9275
vn -0.0992 0.2434 -0.9648
vn -0.1016 0.1224 -0.9873
vn -0.1022 0.0613 -0.9929
vn -0.4606 0.4606 0.7588
vn -0.0000 0.9596 -0.2815
vn -0.0000 0.9111 -0.4121
vn -0.0000 0.8462 -0.5328
vn -0.0000 0.7671 -0.6415
vn -0.0000 0.6763 -0.7366
vn -0.0000 0.5760 -0.8174
vn -0.0000 0.4685 -0.8835
vn -0.0000 0.1201 -0.9928
vn -0.0000 0.0602 -0.9982
vt 0.000000 0.434819
vt 0.167208 0.488909
vt 0.187602 0.434819
vt -0.000000 0.375000
vt 0.204787 0.375000
vt 0.000000 0.066046
vt 0.000000 0.000000
vt 0.030865 0.064502
vt 0.000000 0.310476
vt 0.218467 0.310476
vt 0.000000 0.130962
vt 0.061202 0.127901
vt 0.000000 0.242350
vt 0.228410 0.242350
vt -0.000000 0.193638
vt 0.090492 0.189111
vt 0.000000 0.171789
vt 0.234444 0.171789
vt -0.000000 0.253000
vt 0.118234 0.247085
vt -0.000000 0.100000
vt 0.236467 0.100000
vt 0.000000 0.308033
vt 0.143952 0.300832
vt -0.000000 0.357796
vt 0.167208 0.349431
vt 0.230939 0.229617
vt 0.281174 0.279563
vt 0.326597 0.324727
vt 0.326597 0.488909
vt 0.366432 0.434819
vt 0.399998 0.375000
vt 0.060287 0.059942
vt 0.426720 0.310476
vt 0.119543 0.118858
vt 0.446140 0.242350
vt 0.176753 0.175741
vt 0.457927 0.171789
vt 0.461878 0.100000
vt 0.528129 0.434819
vt 0.576506 0.375000
vt 0.086890 0.052579
vt 0.615019 0.310476
vt 0.172294 0.104258
vt 0.643009 0.242350
vt 0.254749 0.154154
vt 0.659997 0.171789
vt 0.332846 0.201412
vt 0.665692 0.100000
vt 0.405247 0.245223
vt 0.470715 0.284839
vt 0.470715 0.488909
vt 0.809811 0.242350
vt 0.831206 0.171789
vt 0.320834 0.125358
vt 0.419189 0.163789
vt 0.838378 0.100000
vt 0.510372 0.199417
vt 0.592823 0.231632
vt 0.528129 0.319581
vt 0.665130 0.259885
vt 0.665130 0.434819
vt 0.726057 0.375000
vt 0.109430 0.042757
vt 0.774561 0.310476
vt 0.216988 0.084783
vt 0.591633 0.144285
vt 0.687211 0.167595
vt 0.771031 0.188036
vt 0.726057 0.283690
vt 0.841658 0.205261
vt 0.126854 0.030937
vt 0.841658 0.375000
vt 0.897885 0.310476
vt 0.251537 0.061344
vt 0.938748 0.242350
vt 0.371916 0.090702
vt 0.963549 0.171789
vt 0.485932 0.118507
vt 0.971863 0.100000
vt 0.897885 0.218973
vt 0.917904 0.117233
vt 0.979225 0.125065
vt 0.138345 0.017669
vt 0.274324 0.035036
vt 0.228939 0.242350
vt 0.125065 0.310476
vt 0.130757 0.242350
vt 0.405608 0.051804
vt 0.234987 0.171789
vt 0.134211 0.171789
vt 0.529952 0.067685
vt 0.237015 0.100000
vt 0.135369 0.100000
vt 0.645229 0.082408
vt 0.749466 0.095721
vt 0.840879 0.107396
vt 0.027160 0.171789
vt 0.027394 0.100000
vt 0.549193 0.013697
vt 0.668656 0.016677
vt 0.776677 0.019371
vt 0.871409 0.021733
vt 0.951231 0.023724
vt 0.143368 0.003576
vt 0.023724 0.375000
vt 0.025309 0.310476
vt 0.284283 0.007090
vt 0.026461 0.242350
vt 0.420334 0.010483
vt 0.861192 -0.064945
vt 0.940078 -0.070894
vt 0.141687 -0.010685
vt -0.075630 0.310476
vt 0.280950 -0.021187
vt -0.079072 0.242350
vt 0.415406 -0.031327
vt -0.081161 0.171789
vt 0.542755 -0.040931
vt -0.081862 0.100000
vt 0.660816 -0.049834
vt 0.767571 -0.057885
vt -0.180908 0.242350
vt 0.391054 -0.071673
vt -0.185688 0.171789
vt 0.510937 -0.093645
vt -0.187290 0.100000
vt 0.622078 -0.114015
vt 0.722574 -0.132434
vt 0.810707 -0.148587
vt 0.884969 -0.162198
vt 0.133381 -0.024446
vt 0.944089 -0.173033
vt 1.002880 -0.075630
vt 0.264481 -0.048474
vt 0.643791 -0.200790
vt 0.722315 -0.225281
vt 0.788479 -0.245917
vt 0.118839 -0.037064
vt 0.884969 0.375000
vt 0.841153 0.310476
vt 0.944089 0.310476
vt 0.235644 -0.073494
vt 0.879435 0.242350
vt 0.987055 0.242350
vt 0.348417 -0.108667
vt 0.902669 0.171789
vt 1.013132 0.171789
vt 0.455229 -0.141980
vt 0.910458 0.100000
vt 1.021874 0.100000
vt 0.554252 -0.172864
vt 0.722315 0.434819
vt 0.655122 0.375000
vt 0.788479 0.375000
vt 0.098739 -0.047949
vt 0.698887 0.310476
vt 0.195789 -0.095078
vt 0.730693 0.242350
vt 0.289488 -0.140580
vt 0.749998 0.171789
vt 0.378235 -0.183677
vt 0.756469 0.100000
vt 0.460509 -0.223631
vt 0.534905 -0.259758
vt 0.600147 -0.291441
vt 0.562258 0.171789
vt 0.283555 -0.216785
vt 0.567109 0.100000
vt 0.345234 -0.263941
vt 0.401007 -0.306580
vt 0.449918 -0.343974
vt 0.600147 0.434819
vt 0.491131 0.375000
vt 0.074023 -0.056592
vt 0.523941 0.310476
vt 0.146779 -0.112216
vt 0.547785 0.242350
vt 0.217023 -0.165920
vt 0.401007 0.488909
vt 0.278651 0.434819
vt 0.449918 0.434819
vt 0.304175 0.375000
vt 0.045845 -0.062589
vt 0.324496 0.310476
vt 0.090905 -0.124107
vt 0.339264 0.242350
vt 0.134411 -0.183502
vt 0.348227 0.171789
vt 0.175616 -0.239756
vt 0.351232 0.100000
vt 0.213816 -0.291909
vt 0.248358 -0.339067
vt 0.109878 0.310476
vt 0.030782 -0.130195
vt -0.956533 0.671533
vt 0.956533 0.628467
vt -0.956533 0.628467
vt 0.114878 0.242350
vt 0.045513 -0.192503
vt 0.956533 0.021533
vt -0.956533 -0.021533
vt 0.956533 -0.021533
vt 0.117913 0.171789
vt 0.059465 -0.251517
vt -0.406533 0.481533
vt 0.406533 0.118467
vt -0.406533 0.118467
vt 0.118931 0.100000
vt 0.072401 -0.306228
vt -1.018467 0.481533
vt -1.081533 0.118467
vt -1.018467 0.118467
vt -0.021533 0.671533
vt 0.021533 0.628467
vt -0.021533 0.628467
vt 0.084097 -0.355699
vt -1.018467 0.406533
vt -1.081533 -0.406533
vt -1.081533 0.406533
vt 0.956533 0.671533
vt 0.248358 0.488909
vt 0.094354 0.434819
vt 0.406533 0.481533
vt -0.956533 0.021533
vt 0.956533 -0.021533
vt -0.956533 -0.021533
vt 0.102997 0.375000
vt -1.081533 0.481533
vt 0.015524 -0.065659
vt 0.021533 0.671533
vt -0.021533 0.628467
vt 0.021533 0.628467
vt -0.118931 0.100000
vt -0.072401 -0.306228
vt -0.780712 0.148690
vt 0.422950 0.971104
vt -0.800310 0.178773
vt -1.018467 -0.406533
vt -0.084097 -0.355699
vt 0.407647 0.985595
vt -0.823568 0.200795
vt 0.392085 0.951310
vt -0.827620 0.118607
vt -0.847219 0.148690
vt -0.084097 0.488909
vt -0.094354 0.434819
vt -0.823568 -0.930175
vt 0.394036 -0.225476
vt -0.844252 -0.901957
vt 0.420284 0.917025
vt -0.804362 0.096585
vt -0.102997 0.375000
vt 0.385766 -0.203992
vt -0.856821 -0.869305
vt -0.015524 -0.065659
vt -0.804362 -0.840647
vt 0.433894 -0.203702
vt -0.783678 -0.868865
vt -0.109878 0.310476
vt -0.030782 -0.130195
vt 0.442164 -0.225187
vt -0.771109 -0.901517
vt -0.114878 0.242350
vt -0.045513 -0.192503
vt -0.901517 0.096585
vt -0.243832 0.931516
vt -0.929853 0.118607
vt -0.117914 0.171789
vt -0.059465 -0.251517
vt 0.442879 0.931516
vt -0.770023 0.118607
vt 0.454307 0.931516
vt -0.880978 0.148690
vt -0.861582 0.118607
vt -0.203992 0.985594
vt -0.840969 0.178773
vt -0.869305 0.200795
vt -0.278651 0.434819
vt -0.304175 0.375000
vt 0.441545 0.951310
vt -0.894001 0.178773
vt -0.045845 -0.062589
vt -0.324496 0.310476
vt -0.090905 -0.124107
vt 0.472844 0.951310
vt -0.820387 0.118607
vt -0.833411 0.148690
vt -0.339264 0.242350
vt -0.134411 -0.183502
vt -0.820387 0.840404
vt 0.483493 0.324798
vt -0.817226 0.812224
vt -0.348227 0.171789
vt -0.175616 -0.239756
vt 0.478526 0.302319
vt -0.824775 0.778060
vt -0.351232 0.100000
vt -0.213816 -0.291909
vt 0.467843 0.281926
vt -0.841010 0.747068
vt -0.881546 0.127065
vt -0.909290 0.108284
vt -0.919620 0.145845
vt -0.248358 -0.339067
vt 0.467843 0.917025
vt -0.841010 0.096585
vt -0.857907 0.178773
vt -0.248358 0.488909
vt -0.523941 0.310476
vt -0.547785 0.242350
vt -0.146779 -0.112216
vt -0.217023 -0.165920
vt -0.873378 0.200795
vt 0.460081 0.971104
vt -0.852807 0.178773
vt -0.562258 0.171789
vt -0.283555 -0.216785
vt -0.567109 0.100000
vt -0.345234 -0.263941
vt 1.000000 0.628467
vt 1.000000 0.671533
vt -0.894001 0.739385
vt 0.430895 0.295413
vt -0.897162 0.767565
vt -0.401007 -0.306580
vt 1.000000 0.021533
vt -0.889614 0.801729
vt -0.401007 0.488909
vt -0.449918 0.434819
vt 0.956533 0.585000
vt -0.956533 0.585000
vt 0.435862 0.317892
vt -0.873378 0.832721
vt -0.491131 0.375000
vt -0.450000 0.481533
vt -0.450000 0.118467
vt -0.074023 -0.056592
vt 0.810870 0.108284
vt 0.779337 0.127065
vt 0.818258 0.145845
vt -0.460509 -0.223631
vt -0.534905 -0.259758
vt -1.081533 -0.450000
vt -1.000000 0.021533
vt -0.449918 -0.343974
vt -0.600147 -0.291441
vt -0.843589 -0.887351
vt -1.000000 0.628467
vt -0.600147 0.434819
vt -0.655121 0.375000
vt 0.324798 0.917025
vt 0.343341 0.931516
vt 0.297178 0.972935
vt -0.098739 -0.047949
vt -0.956533 0.021533
vt -1.000000 -0.021533
vt -0.698887 0.310476
vt -0.195789 -0.095078
vt -0.878203 0.810870
vt -0.879342 0.821027
vt -0.730693 0.242350
vt -0.289488 -0.140580
vt -0.975000 -0.406533
vt -0.749998 0.171789
vt -0.378235 -0.183677
vt 0.281926 0.917025
vt 0.302319 0.911721
vt -0.756469 0.100000
vt -0.975000 0.406533
vt -1.081533 0.450000
vt -0.118839 -0.037064
vt 0.956533 0.021533
vt 1.000000 -0.021533
vt -0.788479 0.375000
vt -0.841153 0.310476
vt -0.235644 -0.073494
vt -0.879435 0.242350
vt -0.348417 -0.108667
vt -0.956533 0.715000
vt 0.956533 0.715000
vt -0.902669 0.171789
vt -0.455229 -0.141980
vt -1.125000 0.406533
vt -0.910458 0.100000
vt -0.554252 -0.172864
vt -1.125000 -0.406533
vt -0.824541 0.148690
vt -0.881503 0.116222
vt -0.643791 -0.200791
vt 0.450000 0.118467
vt 0.450000 0.481533
vt -1.000000 0.671533
vt -0.722315 -0.225281
vt -1.018467 0.450000
vt -0.722315 0.434819
vt -0.987055 0.242350
vt -1.013132 0.171789
vt -0.391054 -0.071673
vt -0.510937 -0.093645
vt 0.352978 0.951310
vt -1.021874 0.100000
vt -0.622078 -0.114015
vt -0.722574 -0.132434
vt -1.018467 -0.450000
vt -0.842128 0.137907
vt -0.835065 0.127065
vt -0.810707 -0.148587
vt 0.404980 0.931516
vt 0.447050 0.972935
vt -0.886775 0.787386
vt -0.880923 0.798556
vt -0.788479 -0.245917
vt -0.884969 -0.162198
vt -0.851972 -0.881503
vt -0.827620 -0.824423
vt -0.133381 -0.024446
vt -0.254719 0.971104
vt -0.254641 0.951310
vt -0.196515 0.972935
vt -0.884969 0.375000
vt -0.944089 0.310476
vt -0.264481 -0.048474
vt -0.770023 -0.929853
vt -0.831603 -0.909290
vt -0.225187 0.917025
vt -0.203702 0.911721
vt -0.185135 0.917025
vt -0.767571 -0.057885
vt -0.861192 -0.064945
vt 0.407647 -0.244044
vt 0.447050 -0.196515
vt -0.940078 -0.070894
vt -0.831212 0.116222
vt -0.141687 -0.010685
vt -0.850511 0.145845
vt -0.944089 -0.173033
vt -1.002880 -0.075630
vt -0.280950 -0.021187
vt -0.897680 0.145845
vt -0.180908 0.242350
vt -0.079072 0.242350
vt -0.415406 -0.031327
vt 0.385052 -0.185347
vt -0.185688 0.171789
vt -0.081161 0.171789
vt -0.542754 -0.040931
vt -0.901957 0.208855
vt -0.930175 0.200795
vt -0.187290 0.100000
vt -0.081862 0.100000
vt -0.660816 -0.049834
vt -0.887467 0.137907
vt -0.836134 -0.897521
vt -0.143368 0.003576
vt -0.284283 0.007090
vt 0.432975 0.971104
vt 0.492609 0.972935
vt 0.025309 0.310476
vt 0.026461 0.242350
vt -0.420335 0.010483
vt 0.724739 0.148690
vt 0.784616 0.137907
vt 0.027160 0.171789
vt -0.549193 0.013697
vt 0.422950 -0.254719
vt 0.027394 0.100000
vt -0.668656 0.016677
vt -0.884036 0.127064
vt -0.776677 0.019371
vt -0.871408 0.021733
vt -0.909449 0.148750
vt -0.951231 0.023724
vt 0.767565 0.200795
vt 0.807087 0.148750
vt 0.794773 0.145845
vt 0.023724 0.375000
vt 0.135369 0.100000
vt -0.645229 0.082408
vt 0.385052 0.971104
vt -0.749466 0.095721
vt -0.894190 0.780351
vt -0.840879 0.107396
vt -0.891027 0.137908
vt -0.898442 0.145845
vt -0.917904 0.117233
vt -0.138345 0.017669
vt 0.460081 0.351127
vt 0.446545 0.338285
vt 0.492609 0.297178
vt -0.274324 0.035036
vt -0.405608 0.051804
vt 0.727551 0.118607
vt 0.780351 0.116222
vt 0.134211 0.171789
vt -0.529952 0.067685
vt -0.841658 0.205261
vt -0.126854 0.030937
vt -0.897885 0.218973
vt -0.979225 0.125065
vt -0.251537 0.061344
vt 0.228939 0.242350
vt -0.371916 0.090702
vt 0.234987 0.171789
vt -0.485931 0.118507
vt 0.237015 0.100000
vt -0.591633 0.144285
vt -0.687211 0.167595
vt -0.771031 0.188036
vt -0.320834 0.125358
vt -0.938748 0.242350
vt -0.831206 0.171789
vt -0.963549 0.171789
vt -0.419189 0.163789
vt -0.838378 0.100000
vt -0.971863 0.100000
vt -0.510372 0.199417
vt 0.739385 0.178773
vt -0.592823 0.231632
vt -0.665130 0.259885
vt -0.726057 0.283690
vt -0.109430 0.042757
vt -0.841658 0.375000
vt -0.774561 0.310476
vt -0.897885 0.310476
vt -0.216988 0.084783
vt -0.809811 0.242350
vt -0.470715 0.284839
vt -0.528128 0.319581
vt -0.665130 0.434819
vt -0.576506 0.375000
vt -0.726057 0.375000
vt -0.086890 0.052579
vt -0.615019 0.310476
vt -0.172294 0.104258
vt -0.643009 0.242350
vt -0.254749 0.154154
vt 0.432975 0.276870
vt -0.659997 0.171789
vt -0.332846 0.201411
vt -0.665691 0.100000
vt -0.405247 0.245223
vt 0.351127 0.971104
vt -0.060287 0.059942
vt -0.426720 0.310476
vt -0.119543 0.118858
vt -0.446140 0.242350
vt -0.176753 0.175741
vt -0.457927 0.171789
vt -0.230939 0.229616
vt -0.461878 0.100000
vt -0.281174 0.279563
vt -0.326597 0.324727
vt -0.470715 0.488909
vt -0.366432 0.434819
vt -0.528128 0.434819
vt -0.399998 0.375000
vt -0.118234 0.247085
vt -0.236468 0.100000
vt -0.143952 0.300832
vt -0.167208 0.349431
vt 0.832721 0.200795
vt 0.801729 0.208855
vt -0.326597 0.488909
vt -0.187602 0.434819
vt -0.204787 0.375000
vt -0.030865 0.064502
vt -0.218467 0.310476
vt -0.061202 0.127901
vt -0.228410 0.242350
vt -0.090492 0.189111
vt -0.234444 0.171789
vt -0.167208 0.488909
vt -0.000000 0.488909
vt 0.218973 0.310476
vt 0.117233 0.375000
vt -0.070894 0.375000
vt -0.173033 0.310476
vt 0.021533 0.671533
vt 0.084097 0.488909
vt -0.021533 0.671533
vt 0.435846 0.951310
vt 0.420284 -0.185135
vt -0.185347 0.971104
vt 0.481413 0.931516
vt 0.481413 0.343341
vt -0.887351 0.108284
vt -0.897521 0.105379
vt -0.919504 0.116222
vt -0.925425 0.127065
vt -0.925467 0.137907
vt 0.446545 0.985594
vt 1.000000 -0.021533
vt 0.825292 0.137908
vt 0.826306 0.127064
vt 0.821027 0.116222
vt 0.798556 0.105379
vt 0.787386 0.108284
vt -1.000000 -0.021533
vt -1.000000 0.021533
vt 1.000000 0.021533
vt -0.824423 0.118607
vt -0.831212 -0.919504
vt -0.879342 0.116222
vt -0.070894 0.375000
vt -0.861582 0.727551
vt 0.117233 0.375000
s 1
f 583/1/458 10/2/10 11/3/11
f 584/4/459 11/3/11 12/5/12
f 2/6/2 1/7/1 5/8/5
f 3/9/3 12/5/12 13/10/13
f 578/11/453 5/8/5 6/12/6
f 4/13/4 13/10/13 14/14/14
f 579/15/454 6/12/6 7/16/7
f 585/17/460 14/14/14 15/18/15
f 580/19/455 7/16/7 8/20/8
f 586/21/461 15/18/15 16/22/16
f 581/23/456 8/20/8 9/24/9
f 582/25/457 9/24/9 10/26/10
f 9/24/9 20/27/20 21/28/21
f 10/26/10 21/28/21 22/29/22
f 11/3/11 22/30/22 23/31/23
f 12/5/12 23/31/23 24/32/24
f 5/8/5 1/7/1 17/33/17
f 13/10/13 24/32/24 25/34/25
f 6/12/6 17/33/17 18/35/18
f 14/14/14 25/34/25 26/36/26
f 7/16/7 18/35/18 19/37/19
f 15/18/15 26/36/26 27/38/27
f 8/20/8 19/37/19 20/27/20
f 16/22/16 27/38/27 28/39/28
f 24/32/24 35/40/35 36/41/36
f 17/33/17 1/7/1 29/42/29
f 25/34/25 36/41/36 37/43/37
f 18/35/18 29/42/29 30/44/30
f 26/36/26 37/43/37 38/45/38
f 19/37/19 30/44/30 31/46/31
f 27/38/27 38/45/38 39/47/39
f 20/27/20 31/46/31 32/48/32
f 28/39/28 39/47/39 40/49/40
f 21/28/21 32/48/32 33/50/33
f 22/29/22 33/50/33 34/51/34
f 23/31/23 34/52/34 35/40/35
f 39/47/39 50/53/50 51/54/51
f 32/48/32 43/55/43 44/56/44
f 40/49/40 51/54/51 52/57/52
f 33/50/33 44/56/44 45/58/45
f 34/51/34 45/58/45 46/59/46
f 35/60/35 46/59/46 47/61/47
f 36/41/36 47/62/47 48/63/48
f 29/42/29 1/7/1 41/64/41
f 37/43/37 48/63/48 49/65/49
f 30/44/30 41/64/41 42/66/42
f 38/45/38 49/65/49 50/53/50
f 31/46/31 42/66/42 43/55/43
f 46/59/46 57/67/57 58/68/58
f 47/61/47 58/68/58 59/69/59
f 48/70/48 59/69/59 60/71/60
f 41/64/41 1/7/1 53/72/53
f 49/65/49 60/73/60 61/74/61
f 42/66/42 53/72/53 54/75/54
f 50/53/50 61/74/61 62/76/62
f 43/55/43 54/75/54 55/77/55
f 51/54/51 62/76/62 63/78/63
f 44/56/44 55/77/55 56/79/56
f 52/57/52 63/78/63 64/80/64
f 45/58/45 56/79/56 57/67/57
f 61/81/61 72/82/72 73/83/73
f 54/75/54 65/84/65 66/85/66
f 62/86/62 73/87/73 74/88/74
f 55/77/55 66/85/66 67/89/67
f 63/90/63 74/88/74 75/91/75
f 56/79/56 67/89/67 68/92/68
f 64/93/64 75/91/75 76/94/76
f 57/67/57 68/92/68 69/95/69
f 58/68/58 69/95/69 70/96/70
f 59/69/59 70/96/70 71/97/71
f 60/71/60 71/97/71 72/82/72
f 53/72/53 1/7/1 65/84/65
f 76/94/76 87/98/87 88/99/88
f 69/95/69 80/100/80 81/101/81
f 70/96/70 81/101/81 82/102/82
f 71/97/71 82/102/82 83/103/83
f 72/82/72 83/103/83 84/104/84
f 65/84/65 1/7/1 77/105/77
f 73/87/73 84/106/84 85/107/85
f 66/85/66 77/105/77 78/108/78
f 74/88/74 85/107/85 86/109/86
f 67/89/67 78/108/78 79/110/79
f 75/91/75 86/109/86 87/98/87
f 68/92/68 79/110/79 80/100/80
f 82/102/82 101/111/101 83/103/83
f 83/103/83 102/112/102 84/104/84
f 77/105/77 1/7/1 95/113/95
f 84/106/84 103/114/103 85/107/85
f 77/105/77 96/115/96 78/108/78
f 85/107/85 104/116/104 86/109/86
f 78/108/78 97/117/97 79/110/79
f 86/109/86 105/118/105 87/98/87
f 79/110/79 98/119/98 80/100/80
f 87/98/87 106/120/106 88/99/88
f 80/100/80 99/121/99 81/101/81
f 81/101/81 100/122/100 82/102/82
f 103/114/103 127/123/124 104/116/104
f 96/115/96 120/124/117 97/117/97
f 104/116/104 128/125/125 105/118/105
f 97/117/97 121/126/118 98/119/98
f 105/118/105 129/127/126 106/120/106
f 98/119/98 122/128/119 99/121/99
f 99/121/99 123/129/120 100/122/100
f 100/122/100 124/130/121 101/111/101
f 101/111/101 125/131/122 102/112/102
f 95/113/95 1/7/1 118/132/115
f 102/112/102 126/133/123 103/134/103
f 95/113/95 119/135/116 96/115/96
f 122/128/119 146/136/138 123/129/120
f 123/129/120 147/137/139 124/130/121
f 124/130/121 148/138/140 125/131/122
f 118/132/115 1/7/1 141/139/133
f 125/140/122 149/141/141 126/142/123
f 118/132/115 142/143/134 119/135/116
f 126/142/123 150/144/142 127/145/124
f 119/135/116 143/146/135 120/124/117
f 127/145/124 151/147/143 128/148/125
f 120/124/117 144/149/136 121/126/118
f 128/148/125 152/150/144 129/151/126
f 121/126/118 145/152/137 122/128/119
f 147/153/139 171/154/161 148/155/140
f 141/139/133 1/7/1 164/156/154
f 148/155/140 172/157/162 149/141/141
f 141/139/133 165/158/155 142/143/134
f 149/141/141 173/159/163 150/144/142
f 142/143/134 166/160/156 143/146/135
f 150/144/142 174/161/164 151/147/143
f 143/146/135 167/162/157 144/149/136
f 151/147/143 175/163/165 152/150/144
f 144/149/136 168/164/158 145/152/137
f 145/152/137 169/165/159 146/136/138
f 146/136/138 170/166/160 147/137/139
f 173/159/163 197/167/178 174/161/164
f 166/160/156 190/168/171 167/162/157
f 174/161/164 198/169/179 175/163/165
f 167/162/157 191/170/172 168/164/158
f 168/164/158 192/171/173 169/165/159
f 169/165/159 193/172/174 170/166/160
f 170/173/160 194/174/175 171/154/161
f 164/156/154 1/7/1 187/175/168
f 171/154/161 195/176/176 172/157/162
f 164/156/154 188/177/169 165/158/155
f 172/157/162 196/178/177 173/159/163
f 165/158/155 189/179/170 166/160/156
f 192/180/173 216/181/186 193/182/174
f 193/182/174 217/183/187 194/174/175
f 187/175/168 1/7/1 210/184/180
f 194/174/175 218/185/188 195/176/176
f 187/175/168 211/186/181 188/177/169
f 195/176/176 219/187/189 196/178/177
f 188/177/169 212/188/182 189/179/170
f 196/178/177 220/189/190 197/167/178
f 189/179/170 213/190/183 190/168/171
f 197/167/178 221/191/191 198/169/179
f 190/168/171 214/192/184 191/170/172
f 191/170/172 215/193/185 192/171/173
f 217/183/187 241/194/200 218/185/188
f 210/184/180 234/195/193 211/186/181
f 181/196/166 202/197/166 177/198/166
f 218/185/188 242/199/201 219/187/189
f 211/186/181 235/200/194 212/188/182
f 206/201/1 163/202/1 200/203/1
f 219/187/189 243/204/202 220/189/190
f 212/188/182 236/205/195 213/190/183
f 222/206/151 226/207/151 207/208/151
f 220/189/190 244/209/203 221/191/191
f 213/190/183 237/210/196 214/192/184
f 247/211/152 208/212/152 231/213/152
f 162/214/151 178/215/151 159/216/151
f 214/192/184 238/217/197 215/193/185
f 251/218/153 209/219/153 227/220/153
f 199/221/152 160/198/152 183/197/152
f 215/222/185 239/223/198 216/181/186
f 253/224/167 232/208/167 249/207/167
f 179/225/153 185/226/153 161/227/153
f 216/181/186 240/228/199 217/183/187
f 229/229/166 250/213/166 225/212/166
f 210/184/180 1/7/1 233/230/192
f 205/231/167 184/232/167 201/233/167
f 243/204/202 267/234/216 244/209/203
f 236/205/195 260/235/209 237/210/196
f 315/236/146 155/237/147 319/238/147
f 230/220/1 248/239/1 254/218/1
f 237/210/196 261/240/210 238/217/197
f 319/238/147 477/241/264 323/242/264
f 483/243/204 271/244/220 255/245/204
f 239/223/198 261/246/210 262/247/211
f 323/248/264 478/249/279 339/250/279
f 271/244/220 479/251/224 275/252/224
f 239/223/198 263/253/212 240/228/199
f 339/250/279 137/254/129 343/255/129
f 233/230/192 1/7/1 256/256/205
f 275/257/224 480/258/239 291/259/239
f 241/194/200 263/253/212 264/260/213
f 233/230/192 257/261/206 234/195/193
f 291/259/239 457/262/242 295/263/242
f 241/194/200 265/264/214 242/199/201
f 234/195/193 258/265/207 235/200/194
f 295/266/242 458/267/245 299/268/245
f 243/204/202 265/264/214 266/269/215
f 236/205/195 258/265/207 259/270/208
f 458/271/245 315/236/146 299/272/245
f 113/273/113 411/274/109 407/275/113
f 137/276/129 347/277/130 343/278/129
f 263/253/212 285/279/233 286/280/234
f 109/281/109 415/282/110 411/274/109
f 256/256/205 1/7/1 279/283/227
f 264/260/213 286/280/234 287/284/235
f 257/261/206 279/283/227 280/285/228
f 499/286/298 367/287/302 363/288/298
f 265/264/214 287/284/235 288/289/236
f 258/265/207 280/285/228 281/290/229
f 367/291/302 529/292/317 383/293/317
f 266/269/215 288/289/236 289/294/237
f 259/270/208 281/290/229 282/295/230
f 383/293/317 507/296/321 387/297/321
f 267/234/216 289/294/237 290/298/238
f 260/235/209 282/295/230 283/299/231
f 387/297/321 508/300/323 391/301/323
f 268/302/217 296/303/217 324/304/217
f 261/240/210 283/299/231 284/305/232
f 508/306/323 407/275/113 391/307/323
f 347/308/130 483/243/204 255/245/204
f 262/247/211 284/309/232 285/279/233
f 288/289/236 310/310/255 311/311/256
f 281/290/229 303/312/248 304/313/249
f 439/314/90 91/315/91 455/316/91
f 289/294/237 311/311/256 312/317/257
f 282/295/230 304/313/249 305/318/250
f 290/298/238 312/317/257 313/319/258
f 283/299/231 305/318/250 306/320/251
f 588/321/259 454/221/370 430/322/226
f 415/323/110 94/324/94 431/325/94
f 284/305/232 306/320/251 307/326/252
f 577/203/432 430/327/226 587/201/433
f 94/324/94 435/328/89 431/325/94
f 285/279/233 307/329/252 308/330/253
f 575/331/434 410/198/219 576/332/435
f 89/333/89 439/334/90 435/328/89
f 286/280/234 308/330/253 309/335/254
f 574/336/452 390/208/301 270/337/219
f 279/283/227 1/7/1 302/338/247
f 384/339/318 412/340/318 452/341/318
f 287/284/235 309/335/254 310/310/255
f 280/285/228 302/338/247 303/312/248
f 91/315/91 363/288/298 455/316/91
f 370/332/304 554/197/437 386/331/320
f 307/326/252 329/342/269 330/343/270
f 546/239/434 270/344/219 547/219/435
f 576/227/435 346/345/283 370/225/304
f 308/346/253 330/343/270 331/347/271
f 530/259/418 590/348/419 531/257/419
f 569/196/452 366/349/301 410/198/219
f 309/335/254 331/350/271 332/351/272
f 385/352/319 369/353/303 434/354/354
f 302/338/247 1/7/1 325/355/265
f 526/356/388 342/357/281 527/202/390
f 310/310/255 332/351/272 333/358/273
f 303/312/248 325/355/265 326/359/266
f 523/291/261 322/360/263 318/361/261
f 311/311/256 333/358/273 334/362/274
f 304/313/249 326/359/266 327/363/267
f 521/218/320 298/364/244 546/239/434
f 312/317/257 334/362/274 335/365/275
f 305/318/250 327/363/267 328/366/268
f 393/367/324 389/368/322 434/354/354
f 313/319/258 335/365/275 336/369/276
f 306/320/251 328/366/268 329/342/269
f 544/239/432 278/370/226 545/218/433
f 545/218/433 548/371/436 482/220/388
f 325/355/265 1/7/1 348/372/284
f 386/373/320 570/374/244 575/226/434
f 333/358/273 355/375/291 356/376/292
f 326/359/266 348/372/284 349/377/285
f 414/197/223 438/322/241 568/221/403
f 334/362/274 356/376/292 357/378/293
f 327/363/267 349/377/285 350/379/286
f 527/380/390 568/221/403 577/381/432
f 335/365/275 357/378/293 358/382/294
f 328/366/268 350/379/286 351/383/287
f 547/219/435 567/384/283 481/220/304
f 336/369/276 358/382/294 359/385/295
f 329/342/269 351/383/287 352/386/288
f 482/220/388 406/387/281 485/219/390
f 573/388/416 525/389/417 524/302/416
f 330/343/270 352/386/288 353/390/289
f 551/391/438 552/224/278 548/392/436
f 589/198/438 338/393/278 571/196/436
f 331/347/271 353/390/289 354/394/290
f 481/220/304 550/395/437 521/218/320
f 587/381/433 571/196/436 526/380/388
f 332/351/272 354/396/290 355/375/291
f 358/382/294 380/397/314 381/398/315
f 351/383/287 373/399/307 374/400/308
f 369/353/303 365/401/300 434/354/354
f 359/385/295 381/398/315 382/402/316
f 352/386/288 374/400/308 375/403/309
f 274/337/223 294/206/241 498/336/403
f 314/207/259 549/392/370 278/224/226
f 353/390/289 375/403/309 376/404/310
f 485/219/390 498/405/403 544/239/432
f 158/236/150 506/406/387 505/407/150
f 354/394/290 376/404/310 377/408/311
f 273/409/222 269/243/218 362/410/297
f 157/297/149 504/411/148 503/412/149
f 355/413/291 377/408/311 378/414/312
f 531/257/419 525/415/417 572/416/417
f 348/372/284 1/7/1 371/417/305
f 321/418/262 317/419/260 362/420/297
f 356/376/292 378/421/312 379/422/313
f 349/377/285 371/417/305 372/423/306
f 153/424/145 500/425/373 461/263/373
f 357/378/293 379/422/313 380/397/314
f 350/379/286 372/423/306 373/399/307
f 301/267/246 297/426/243 362/420/297
f 293/427/240 277/428/225 362/420/297
f 377/408/311 399/429/330 400/430/331
f 297/426/243 293/427/240 362/420/297
f 341/249/280 337/431/277 362/432/297
f 378/414/312 400/430/331 401/433/332
f 158/236/150 501/434/145 153/272/145
f 371/417/305 1/7/1 394/435/325
f 476/238/387 459/436/372 506/406/387
f 379/437/313 401/433/332 402/438/333
f 372/423/306 394/435/325 395/439/326
f 140/277/132 462/440/374 136/278/128
f 380/441/314 402/114/333 403/442/334
f 373/399/307 395/439/326 396/443/327
f 361/444/296 345/254/282 362/432/297
f 381/445/315 403/442/334 404/446/335
f 374/400/308 396/443/327 397/447/328
f 139/448/131 459/304/372 475/449/372
f 382/450/316 404/446/335 405/451/336
f 375/403/309 397/447/328 398/452/329
f 573/388/416 502/453/132 140/277/132
f 277/251/225 273/409/222 362/410/297
f 376/404/310 398/452/329 399/429/330
f 530/259/418 500/425/373 591/454/418
f 395/439/326 417/455/340 418/456/341
f 429/457/352 413/281/338 434/458/354
f 403/442/334 425/459/348 426/460/349
f 396/443/327 418/456/341 419/461/342
f 108/462/108 133/463/107 132/340/108
f 404/446/335 426/460/349 427/464/350
f 397/447/328 419/461/342 420/465/343
f 337/431/277 321/466/262 362/432/297
f 405/451/336 427/464/350 428/467/351
f 398/452/329 420/465/343 421/468/344
f 523/287/261 131/469/127 130/288/127
f 317/419/260 301/267/246 362/420/297
f 399/429/330 421/468/344 422/470/345
f 522/293/263 503/412/149 322/360/263
f 389/368/322 385/352/319 434/354/354
f 400/430/331 422/470/345 423/471/346
f 139/448/131 462/440/374 460/472/131
f 409/273/337 393/306/324 434/458/354
f 401/433/332 423/471/346 424/473/347
f 345/254/282 341/249/280 362/432/297
f 394/435/325 1/7/1 417/455/340
f 112/474/112 135/475/111 134/476/112
f 402/114/333 424/477/347 425/459/348
f 427/464/350 451/478/368 428/467/351
f 420/465/343 444/479/361 421/468/344
f 269/243/218 361/480/296 362/410/297
f 421/468/344 445/481/362 422/470/345
f 413/281/338 409/273/337 434/458/354
f 156/301/148 92/482/92 504/411/148
f 422/470/345 446/483/363 423/471/346
f 386/331/320 554/197/437 588/321/259
f 93/314/93 116/484/114 115/485/93
f 423/471/346 447/486/364 424/473/347
f 417/455/340 1/7/1 440/487/357
f 553/488/439 453/489/369 434/490/354
f 424/477/347 448/87/365 425/459/348
f 417/455/340 441/491/358 418/456/341
f 130/288/127 116/484/114 114/316/114
f 425/459/348 449/88/366 426/460/349
f 418/456/341 442/492/359 419/461/342
f 117/493/92 132/340/108 92/494/92
f 426/460/349 450/495/367 427/464/350
f 419/461/342 443/496/360 420/465/343
f 446/483/363 470/497/382 447/486/364
f 440/487/357 1/7/1 463/498/375
f 526/380/388 571/196/436 338/393/278
f 447/486/364 471/499/383 448/500/365
f 440/487/357 464/501/376 441/491/358
f 521/218/320 550/395/437 314/370/259
f 448/87/365 472/502/384 449/88/366
f 441/491/358 465/503/377 442/492/359
f 449/88/366 473/504/385 450/495/367
f 442/492/359 466/505/378 443/496/360
f 370/332/304 346/349/283 589/198/438
f 450/495/367 474/506/386 451/478/368
f 443/496/360 467/507/379 444/479/361
f 544/239/432 498/405/403 294/364/241
f 444/479/361 468/508/380 445/481/362
f 545/218/433 278/370/226 549/395/370
f 445/481/362 469/509/381 446/483/363
f 464/501/376 488/510/393 465/503/377
f 472/511/384 496/512/401 473/513/385
f 465/503/377 489/514/394 466/505/378
f 574/344/452 485/219/390 406/387/281
f 473/513/385 497/515/402 474/516/386
f 466/505/378 490/517/395 467/507/379
f 112/474/112 133/463/107 107/518/107
f 569/196/452 527/380/390 342/393/281
f 467/507/379 491/519/396 468/508/380
f 547/219/435 270/344/219 390/387/301
f 468/508/380 492/520/397 469/509/381
f 453/489/369 437/333/356 434/490/354
f 469/509/381 493/521/398 470/497/382
f 463/498/375 1/7/1 486/522/391
f 470/523/382 494/524/399 471/525/383
f 463/498/375 487/526/392 464/501/376
f 577/381/432 568/221/403 438/322/241
f 471/525/383 495/527/400 472/511/384
f 490/517/395 514/528/409 491/519/396
f 491/519/396 515/529/410 492/520/397
f 575/331/434 570/321/244 414/197/223
f 492/530/397 516/531/411 493/532/398
f 486/522/391 1/7/1 509/533/404
f 493/532/398 517/534/412 494/524/399
f 486/522/391 510/535/405 487/526/392
f 481/220/304 567/384/283 551/371/438
f 494/524/399 518/536/413 495/527/400
f 487/526/392 511/537/406 488/510/393
f 433/324/353 429/538/352 434/490/354
f 495/527/400 519/539/414 496/512/401
f 488/510/393 512/540/407 489/514/394
f 496/512/401 520/541/415 497/515/402
f 489/514/394 513/542/408 490/517/395
f 365/401/300 553/543/439 434/354/354
f 509/533/404 1/7/1 532/544/420
f 437/333/356 433/324/353 434/490/354
f 516/531/411 540/545/428 517/534/412
f 509/533/404 533/546/421 510/535/405
f 517/534/412 541/547/429 518/536/413
f 510/535/405 534/548/422 511/537/406
f 576/332/435 410/198/219 366/349/301
f 518/536/413 542/549/430 519/539/414
f 511/537/406 535/550/423 512/540/407
f 519/539/414 543/551/431 520/541/415
f 512/540/407 536/552/424 513/542/408
f 587/381/433 430/322/226 454/221/370
f 513/542/408 537/553/425 514/528/409
f 514/554/409 538/555/426 515/556/410
f 482/220/388 548/371/436 552/384/278
f 515/556/410 539/557/427 516/531/411
f 534/548/422 558/558/443 535/550/423
f 542/549/430 566/559/451 543/551/431
f 535/550/423 559/560/444 536/552/424
f 546/239/434 298/364/244 274/405/223
f 536/552/424 560/561/445 537/553/425
f 93/562/93 135/475/111 111/563/111
f 537/564/425 561/565/446 538/555/426
f 538/555/426 562/566/447 539/557/427
f 532/544/420 1/7/1 555/567/440
f 539/557/427 563/568/448 540/545/428
f 532/544/420 556/569/441 533/546/421
f 540/545/428 564/570/449 541/547/429
f 533/546/421 557/571/442 534/548/422
f 541/547/429 565/572/450 542/549/430
f 560/573/445 583/1/458 561/565/446
f 561/565/446 584/4/459 562/566/447
f 555/567/440 1/7/1 2/6/2
f 562/566/447 3/9/3 563/568/448
f 555/567/440 578/11/453 556/569/441
f 563/568/448 4/13/4 564/570/449
f 556/569/441 579/15/454 557/571/442
f 564/570/449 585/17/460 565/572/450
f 557/571/442 580/19/455 558/558/443
f 565/572/450 586/21/461 566/559/451
f 558/558/443 581/23/456 559/560/444
f 559/560/444 582/25/457 560/561/445
f 583/1/458 582/574/457 10/2/10
f 584/4/459 583/1/458 11/3/11
f 3/9/3 584/4/459 12/5/12
f 578/11/453 2/6/2 5/8/5
f 4/13/4 3/9/3 13/10/13
f 579/15/454 578/11/453 6/12/6
f 585/17/460 4/13/4 14/14/14
f 580/19/455 579/15/454 7/16/7
f 586/21/461 585/17/460 15/18/15
f 581/23/456 580/19/455 8/20/8
f 582/25/457 581/23/456 9/24/9
f 9/24/9 8/20/8 20/27/20
f 10/26/10 9/24/9 21/28/21
f 11/3/11 10/2/10 22/30/22
f 12/5/12 11/3/11 23/31/23
f 13/10/13 12/5/12 24/32/24
f 6/12/6 5/8/5 17/33/17
f 14/14/14 13/10/13 25/34/25
f 7/16/7 6/12/6 18/35/18
f 15/18/15 14/14/14 26/36/26
f 8/20/8 7/16/7 19/37/19
f 16/22/16 15/18/15 27/38/27
f 24/32/24 23/31/23 35/40/35
f 25/34/25 24/32/24 36/41/36
f 18/35/18 17/33/17 29/42/29
f 26/36/26 25/34/25 37/43/37
f 19/37/19 18/35/18 30/44/30
f 27/38/27 26/36/26 38/45/38
f 20/27/20 19/37/19 31/46/31
f 28/39/28 27/38/27 39/47/39
f 21/28/21 20/27/20 32/48/32
f 22/29/22 21/28/21 33/50/33
f 23/31/23 22/30/22 34/52/34
f 39/47/39 38/45/38 50/53/50
f 32/48/32 31/46/31 43/55/43
f 40/49/40 39/47/39 51/54/51
f 33/50/33 32/48/32 44/56/44
f 34/51/34 33/50/33 45/58/45
f 35/60/35 34/51/34 46/59/46
f 36/41/36 35/40/35 47/62/47
f 37/43/37 36/41/36 48/63/48
f 30/44/30 29/42/29 41/64/41
f 38/45/38 37/43/37 49/65/49
f 31/46/31 30/44/30 42/66/42
f 46/59/46 45/58/45 57/67/57
f 47/61/47 46/59/46 58/68/58
f 48/70/48 47/61/47 59/69/59
f 49/65/49 48/63/48 60/73/60
f 42/66/42 41/64/41 53/72/53
f 50/53/50 49/65/49 61/74/61
f 43/55/43 42/66/42 54/75/54
f 51/54/51 50/53/50 62/76/62
f 44/56/44 43/55/43 55/77/55
f 52/57/52 51/54/51 63/78/63
f 45/58/45 44/56/44 56/79/56
f 61/81/61 60/71/60 72/82/72
f 54/75/54 53/72/53 65/84/65
f 62/86/62 61/575/61 73/87/73
f 55/77/55 54/75/54 66/85/66
f 63/90/63 62/86/62 74/88/74
f 56/79/56 55/77/55 67/89/67
f 64/93/64 63/90/63 75/91/75
f 57/67/57 56/79/56 68/92/68
f 58/68/58 57/67/57 69/95/69
f 59/69/59 58/68/58 70/96/70
f 60/71/60 59/69/59 71/97/71
f 76/94/76 75/91/75 87/98/87
f 69/95/69 68/92/68 80/100/80
f 70/96/70 69/95/69 81/101/81
f 71/97/71 70/96/70 82/102/82
f 72/82/72 71/97/71 83/103/83
f 73/87/73 72/576/72 84/106/84
f 66/85/66 65/84/65 77/105/77
f 74/88/74 73/87/73 85/107/85
f 67/89/67 66/85/66 78/108/78
f 75/91/75 74/88/74 86/109/86
f 68/92/68 67/89/67 79/110/79
f 82/102/82 100/122/100 101/111/101
f 83/103/83 101/111/101 102/112/102
f 84/106/84 102/577/102 103/114/103
f 77/105/77 95/113/95 96/115/96
f 85/107/85 103/114/103 104/116/104
f 78/108/78 96/115/96 97/117/97
f 86/109/86 104/116/104 105/118/105
f 79/110/79 97/117/97 98/119/98
f 87/98/87 105/118/105 106/120/106
f 80/100/80 98/119/98 99/121/99
f 81/101/81 99/121/99 100/122/100
f 103/114/103 126/578/123 127/123/124
f 96/115/96 119/135/116 120/124/117
f 104/116/104 127/123/124 128/125/125
f 97/117/97 120/124/117 121/126/118
f 105/118/105 128/125/125 129/127/126
f 98/119/98 121/126/118 122/128/119
f 99/121/99 122/128/119 123/129/120
f 100/122/100 123/129/120 124/130/121
f 101/111/101 124/130/121 125/131/122
f 102/112/102 125/131/122 126/133/123
f 95/113/95 118/132/115 119/135/116
f 122/128/119 145/152/137 146/136/138
f 123/129/120 146/136/138 147/137/139
f 124/130/121 147/137/139 148/138/140
f 125/140/122 148/155/140 149/141/141
f 118/132/115 141/139/133 142/143/134
f 126/142/123 149/141/141 150/144/142
f 119/135/116 142/143/134 143/146/135
f 127/145/124 150/144/142 151/147/143
f 120/124/117 143/146/135 144/149/136
f 128/148/125 151/147/143 152/150/144
f 121/126/118 144/149/136 145/152/137
f 147/153/139 170/173/160 171/154/161
f 148/155/140 171/154/161 172/157/162
f 141/139/133 164/156/154 165/158/155
f 149/141/141 172/157/162 173/159/163
f 142/143/134 165/158/155 166/160/156
f 150/144/142 173/159/163 174/161/164
f 143/146/135 166/160/156 167/162/157
f 151/147/143 174/161/164 175/163/165
f 144/149/136 167/162/157 168/164/158
f 145/152/137 168/164/158 169/165/159
f 146/136/138 169/165/159 170/166/160
f 173/159/163 196/178/177 197/167/178
f 166/160/156 189/179/170 190/168/171
f 174/161/164 197/167/178 198/169/179
f 167/162/157 190/168/171 191/170/172
f 168/164/158 191/170/172 192/171/173
f 169/165/159 192/171/173 193/172/174
f 170/173/160 193/182/174 194/174/175
f 171/154/161 194/174/175 195/176/176
f 164/156/154 187/175/168 188/177/169
f 172/157/162 195/176/176 196/178/177
f 165/158/155 188/177/169 189/179/170
f 192/180/173 215/222/185 216/181/186
f 193/182/174 216/181/186 217/183/187
f 194/174/175 217/183/187 218/185/188
f 187/175/168 210/184/180 211/186/181
f 195/176/176 218/185/188 219/187/189
f 188/177/169 211/186/181 212/188/182
f 196/178/177 219/187/189 220/189/190
f 189/179/170 212/188/182 213/190/183
f 197/167/178 220/189/190 221/191/191
f 190/168/171 213/190/183 214/192/184
f 191/170/172 214/192/184 215/193/185
f 217/183/187 240/228/199 241/194/200
f 210/184/180 233/230/192 234/195/193
f 181/196/166 204/221/166 202/197/166
f 218/185/188 241/194/200 242/199/201
f 211/186/181 234/195/193 235/200/194
f 206/201/1 182/356/1 163/202/1
f 219/187/189 242/199/201 243/204/202
f 212/188/182 235/200/194 236/205/195
f 222/206/151 228/224/151 226/207/151
f 220/189/190 243/204/202 244/209/203
f 213/190/183 236/205/195 237/210/196
f 247/211/152 224/229/152 208/212/152
f 162/214/151 180/579/151 178/215/151
f 214/192/184 237/210/196 238/217/197
f 251/218/153 245/239/153 209/219/153
f 199/221/152 176/196/152 160/198/152
f 215/222/185 238/580/197 239/223/198
f 253/224/167 246/206/167 232/208/167
f 179/225/153 203/373/153 185/226/153
f 216/181/186 239/223/198 240/228/199
f 229/229/166 252/211/166 250/213/166
f 205/231/167 186/581/167 184/232/167
f 243/204/202 266/269/215 267/234/216
f 236/205/195 259/270/208 260/235/209
f 315/236/146 154/582/146 155/237/147
f 230/220/1 223/219/1 248/239/1
f 237/210/196 260/235/209 261/240/210
f 319/238/147 155/237/147 477/241/264
f 483/243/204 484/409/389 271/244/220
f 239/223/198 238/580/197 261/246/210
f 323/248/264 477/431/264 478/249/279
f 271/244/220 484/409/389 479/251/224
f 239/223/198 262/247/211 263/253/212
f 339/250/279 478/249/279 137/254/129
f 275/257/224 479/583/224 480/258/239
f 241/194/200 240/228/199 263/253/212
f 233/230/192 256/256/205 257/261/206
f 291/259/239 480/258/239 457/262/242
f 241/194/200 264/260/213 265/264/214
f 234/195/193 257/261/206 258/265/207
f 295/266/242 457/426/242 458/267/245
f 243/204/202 242/199/201 265/264/214
f 236/205/195 235/200/194 258/265/207
f 458/271/245 154/582/146 315/236/146
f 113/273/113 109/281/109 411/274/109
f 137/276/129 138/584/130 347/277/130
f 263/253/212 262/247/211 285/279/233
f 109/281/109 110/457/110 415/282/110
f 264/260/213 263/253/212 286/280/234
f 257/261/206 256/256/205 279/283/227
f 499/286/298 528/585/302 367/287/302
f 265/264/214 264/260/213 287/284/235
f 258/265/207 257/261/206 280/285/228
f 367/291/302 528/586/302 529/292/317
f 266/269/215 265/264/214 288/289/236
f 259/270/208 258/265/207 281/290/229
f 383/293/317 529/292/317 507/296/321
f 267/234/216 266/269/215 289/294/237
f 260/235/209 259/270/208 282/295/230
f 387/297/321 507/296/321 508/300/323
f 324/304/217 340/472/217 344/440/217
f 344/440/217 360/453/217 268/302/217
f 268/302/217 272/389/221 276/587/217
f 276/587/217 292/588/217 296/303/217
f 296/303/217 300/589/217 316/590/217
f 316/590/217 320/591/217 324/304/217
f 324/304/217 344/440/217 268/302/217
f 268/302/217 276/587/217 296/303/217
f 296/303/217 316/590/217 324/304/217
f 261/240/210 260/235/209 283/299/231
f 508/306/323 113/273/113 407/275/113
f 347/308/130 138/480/130 483/243/204
f 262/247/211 261/246/210 284/309/232
f 288/289/236 287/284/235 310/310/255
f 281/290/229 280/285/228 303/312/248
f 439/314/90 90/592/90 91/315/91
f 289/294/237 288/289/236 311/311/256
f 282/295/230 281/290/229 304/313/249
f 290/298/238 289/294/237 312/317/257
f 283/299/231 282/295/230 305/318/250
f 588/321/259 554/197/437 454/221/370
f 415/323/110 110/538/110 94/324/94
f 284/305/232 283/299/231 306/320/251
f 577/203/432 438/593/241 430/327/226
f 94/324/94 89/333/89 435/328/89
f 285/279/233 284/309/232 307/329/252
f 575/331/434 414/197/223 410/198/219
f 89/333/89 90/489/90 439/334/90
f 286/280/234 285/279/233 308/330/253
f 574/336/452 406/206/281 390/208/301
f 452/341/318 456/594/371 364/595/299
f 364/595/299 368/596/299 384/339/318
f 384/339/318 388/597/318 392/598/318
f 392/598/318 408/494/299 412/340/318
f 412/340/318 416/463/339 432/476/318
f 432/476/318 436/475/355 452/341/318
f 452/341/318 364/595/299 384/339/318
f 384/339/318 392/598/318 412/340/318
f 412/340/318 432/476/318 452/341/318
f 287/284/235 286/280/234 309/335/254
f 280/285/228 279/283/227 302/338/247
f 91/315/91 499/286/298 363/288/298
f 370/332/304 589/198/438 554/197/437
f 307/326/252 306/320/251 329/342/269
f 546/239/434 274/405/223 270/344/219
f 576/227/435 366/599/301 346/345/283
f 308/346/253 307/326/252 330/343/270
f 530/259/418 591/454/418 590/348/419
f 569/196/452 342/393/281 366/349/301
f 309/335/254 308/330/253 331/350/271
f 526/356/388 338/600/278 342/357/281
f 310/310/255 309/335/254 332/351/272
f 303/312/248 302/338/247 325/355/265
f 523/291/261 522/293/263 322/360/263
f 311/311/256 310/310/255 333/358/273
f 304/313/249 303/312/248 326/359/266
f 521/218/320 314/370/259 298/364/244
f 312/317/257 311/311/256 334/362/274
f 305/318/250 304/313/249 327/363/267
f 313/319/258 312/317/257 335/365/275
f 306/320/251 305/318/250 328/366/268
f 544/239/432 294/364/241 278/370/226
f 545/218/433 549/395/370 548/371/436
f 386/373/320 588/601/259 570/374/244
f 333/358/273 332/351/272 355/375/291
f 326/359/266 325/355/265 348/372/284
f 414/197/223 570/321/244 438/322/241
f 334/362/274 333/358/273 356/376/292
f 327/363/267 326/359/266 349/377/285
f 527/380/390 569/196/452 568/221/403
f 335/365/275 334/362/274 357/378/293
f 328/366/268 327/363/267 350/379/286
f 547/219/435 390/387/301 567/384/283
f 336/369/276 335/365/275 358/382/294
f 329/342/269 328/366/268 351/383/287
f 482/220/388 552/384/278 406/387/281
f 573/388/416 572/602/417 525/389/417
f 330/343/270 329/342/269 352/386/288
f 551/391/438 567/207/283 552/224/278
f 589/198/438 346/349/283 338/393/278
f 331/347/271 330/343/270 353/390/289
f 481/220/304 551/371/438 550/395/437
f 587/381/433 454/221/370 571/196/436
f 332/351/272 331/350/271 354/396/290
f 358/382/294 357/378/293 380/397/314
f 351/383/287 350/379/286 373/399/307
f 359/385/295 358/382/294 381/398/315
f 352/386/288 351/383/287 374/400/308
f 274/337/223 298/208/244 294/206/241
f 314/207/259 550/391/437 549/392/370
f 353/390/289 352/386/288 375/403/309
f 485/219/390 574/344/452 498/405/403
f 158/236/150 476/238/387 506/406/387
f 354/394/290 353/390/289 376/404/310
f 157/297/149 156/301/148 504/411/148
f 355/413/291 354/394/290 377/408/311
f 531/257/419 590/348/419 525/415/417
f 356/376/292 355/375/291 378/421/312
f 349/377/285 348/372/284 371/417/305
f 153/424/145 501/603/145 500/425/373
f 357/378/293 356/376/292 379/422/313
f 350/379/286 349/377/285 372/423/306
f 377/408/311 376/404/310 399/429/330
f 378/414/312 377/408/311 400/430/331
f 158/236/150 505/407/150 501/434/145
f 476/238/387 475/242/372 459/436/372
f 379/437/313 378/414/312 401/433/332
f 372/423/306 371/417/305 394/435/325
f 140/277/132 502/453/132 462/440/374
f 380/441/314 379/578/313 402/114/333
f 373/399/307 372/423/306 395/439/326
f 381/445/315 380/441/314 403/442/334
f 374/400/308 373/399/307 396/443/327
f 139/448/131 460/472/131 459/304/372
f 382/450/316 381/445/315 404/446/335
f 375/403/309 374/400/308 397/447/328
f 573/388/416 524/302/416 502/453/132
f 376/404/310 375/403/309 398/452/329
f 530/259/418 461/263/373 500/425/373
f 395/439/326 394/435/325 417/455/340
f 403/442/334 402/114/333 425/459/348
f 396/443/327 395/439/326 418/456/341
f 108/462/108 107/518/107 133/463/107
f 404/446/335 403/442/334 426/460/349
f 397/447/328 396/443/327 419/461/342
f 405/451/336 404/446/335 427/464/350
f 398/452/329 397/447/328 420/465/343
f 523/287/261 318/604/261 131/469/127
f 399/429/330 398/452/329 421/468/344
f 522/293/263 157/297/149 503/412/149
f 400/430/331 399/429/330 422/470/345
f 139/448/131 136/278/128 462/440/374
f 401/433/332 400/430/331 423/471/346
f 112/474/112 111/563/111 135/475/111
f 402/114/333 401/605/332 424/477/347
f 427/464/350 450/495/367 451/478/368
f 420/465/343 443/496/360 444/479/361
f 421/468/344 444/479/361 445/481/362
f 156/301/148 117/606/92 92/482/92
f 422/470/345 445/481/362 446/483/363
f 93/314/93 114/316/114 116/484/114
f 423/471/346 446/483/363 447/486/364
f 424/477/347 447/607/364 448/87/365
f 417/455/340 440/487/357 441/491/358
f 130/288/127 131/469/127 116/484/114
f 425/459/348 448/87/365 449/88/366
f 418/456/341 441/491/358 442/492/359
f 117/493/92 108/462/108 132/340/108
f 426/460/349 449/88/366 450/495/367
f 419/461/342 442/492/359 443/496/360
f 446/483/363 469/509/381 470/497/382
f 447/486/364 470/497/382 471/499/383
f 440/487/357 463/498/375 464/501/376
f 448/87/365 471/575/383 472/502/384
f 441/491/358 464/501/376 465/503/377
f 449/88/366 472/502/384 473/504/385
f 442/492/359 465/503/377 466/505/378
f 450/495/367 473/504/385 474/506/386
f 443/496/360 466/505/378 467/507/379
f 444/479/361 467/507/379 468/508/380
f 445/481/362 468/508/380 469/509/381
f 464/501/376 487/526/392 488/510/393
f 472/511/384 495/527/400 496/512/401
f 465/503/377 488/510/393 489/514/394
f 473/513/385 496/512/401 497/515/402
f 466/505/378 489/514/394 490/517/395
f 112/474/112 134/476/112 133/463/107
f 467/507/379 490/517/395 491/519/396
f 468/508/380 491/519/396 492/520/397
f 469/509/381 492/520/397 493/521/398
f 470/523/382 493/532/398 494/524/399
f 463/498/375 486/522/391 487/526/392
f 471/525/383 494/524/399 495/527/400
f 490/517/395 513/542/408 514/528/409
f 491/519/396 514/528/409 515/529/410
f 492/530/397 515/556/410 516/531/411
f 493/532/398 516/531/411 517/534/412
f 486/522/391 509/533/404 510/535/405
f 494/524/399 517/534/412 518/536/413
f 487/526/392 510/535/405 511/537/406
f 495/527/400 518/536/413 519/539/414
f 488/510/393 511/537/406 512/540/407
f 496/512/401 519/539/414 520/541/415
f 489/514/394 512/540/407 513/542/408
f 516/531/411 539/557/427 540/545/428
f 509/533/404 532/544/420 533/546/421
f 517/534/412 540/545/428 541/547/429
f 510/535/405 533/546/421 534/548/422
f 518/536/413 541/547/429 542/549/430
f 511/537/406 534/548/422 535/550/423
f 519/539/414 542/549/430 543/551/431
f 512/540/407 535/550/423 536/552/424
f 513/542/408 536/552/424 537/553/425
f 514/554/409 537/564/425 538/555/426
f 515/556/410 538/555/426 539/557/427
f 534/548/422 557/571/442 558/558/443
f 542/549/430 565/572/450 566/559/451
f 535/550/423 558/558/443 559/560/444
f 536/552/424 559/560/444 560/561/445
f 93/562/93 115/341/93 135/475/111
f 537/564/425 560/573/445 561/565/446
f 538/555/426 561/565/446 562/566/447
f 539/557/427 562/566/447 563/568/448
f 532/544/420 555/567/440 556/569/441
f 540/545/428 563/568/448 564/570/449
f 533/546/421 556/569/441 557/571/442
f 541/547/429 564/570/449 565/572/450
f 560/573/445 582/574/457 583/1/458
f 561/565/446 583/1/458 584/4/459
f 562/566/447 584/4/459 3/9/3
f 555/567/440 2/6/2 578/11/453
f 563/568/448 3/9/3 4/13/4
f 556/569/441 578/11/453 579/15/454
f 564/570/449 4/13/4 585/17/460
f 557/571/442 579/15/454 580/19/455
f 565/572/450 585/17/460 586/21/461
f 558/558/443 580/19/455 581/23/456
f 559/560/444 581/23/456 582/25/457
