# Blender 5.2.0 LTS
# www.blender.org
o Backdrop_MushroomFountain
v 0.000000 0.450000 -5.000000
v 0.000000 0.000000 -4.526842
v -23.596975 30.000000 9.774189
v -24.020866 30.450001 9.949770
v 23.717199 3.000000 -23.717199
v 12.835656 3.000000 -30.988012
v 13.011237 2.550000 -31.411903
v 24.041630 2.550000 -24.041630
v -18.060345 34.000000 18.060345
v -18.384775 33.549999 18.384775
v -18.060345 30.000000 18.060345
v -18.384775 30.450001 18.384775
v -9.774189 34.000000 23.596975
v -9.949770 33.549999 24.020866
v -9.774189 30.000000 23.596975
v -9.949770 30.450001 24.020866
v -0.000000 34.000000 25.541185
v 0.000000 33.549999 26.000000
v 0.000000 30.000000 25.541185
v 0.000000 30.450001 26.000000
v 30.988012 3.000000 12.835656
v 33.541183 3.000000 0.000000
v 34.000000 2.550000 0.000000
v 31.411903 2.550000 13.011237
v 9.774189 34.000000 23.596975
v 9.949770 33.549999 24.020866
v 30.988012 0.000000 12.835656
v 23.717199 0.000000 23.717199
v 24.041630 0.450000 24.041630
v 31.411903 0.450000 13.011237
v 9.774189 30.000000 23.596975
v 9.949770 30.450001 24.020866
v 18.060345 34.000000 18.060345
v 18.384775 33.549999 18.384775
v 10.156873 25.500000 -24.520855
v 10.250276 25.897669 -24.746351
v 18.060345 30.000000 18.060345
v 18.384775 30.450001 18.384775
v 23.596975 34.000000 9.774189
v 24.020866 33.549999 9.949770
v 23.596975 30.000000 9.774189
v 24.020866 30.450001 9.949770
v -2.938926 29.549999 -4.045085
v -2.660811 0.000000 -3.662292
v -2.938926 0.450000 -4.045085
v -4.305283 30.000000 -1.398871
v -4.755283 29.549999 -1.545085
v 12.835656 0.000000 -30.988012
v 23.717199 0.000000 -23.717199
v 24.041630 0.450000 -24.041630
v 13.011237 0.450000 -31.411903
v -4.305283 0.000000 -1.398871
v -4.755283 0.450000 -1.545085
v -4.305283 30.000000 1.398871
v -4.755283 29.549999 1.545085
v -4.305283 0.000000 1.398871
v -4.755283 0.450000 1.545085
v -2.660811 30.000000 3.662292
v -2.938926 29.549999 4.045085
v -2.660811 0.000000 3.662292
v -2.938926 0.450000 4.045085
v 0.000000 30.000000 4.526842
v 0.000000 29.549999 5.000000
v 18.767452 25.500000 -18.767452
v 24.520855 25.500000 -10.156873
v 24.746351 25.897669 -10.250276
v 18.940037 25.897669 -18.940037
v 0.000000 0.000000 4.526842
v 0.000000 0.450000 5.000000
v 2.938926 29.549999 4.045085
v 0.000000 34.000000 -25.541185
v 0.000000 33.549999 -26.000000
v 2.660811 0.000000 3.662292
v 4.305283 0.000000 1.398871
v -2.660811 30.000000 -3.662292
v 2.660811 30.000000 3.662292
v 0.000000 30.450001 -26.000000
v 9.774189 34.000000 -23.596975
v 0.000000 29.549999 -5.000000
v 25.541185 34.000000 0.000000
v 26.000000 30.450001 0.000000
v 24.020866 30.450001 -9.949770
v 4.305283 30.000000 1.398871
v 26.785259 25.897669 0.000000
v 0.000000 30.000000 -4.526842
v 10.250276 25.897669 24.746351
v 25.541185 30.000000 -0.000000
v 26.000000 33.549999 0.000000
v 9.949770 33.549999 -24.020866
v 2.938926 0.450000 4.045085
v 2.938926 0.450000 -4.045085
v 0.000000 0.450000 -5.000000
v 23.596975 30.000000 -9.774189
v 4.305283 0.000000 -1.398871
v -0.000000 30.000000 -25.541185
v 10.156873 25.500000 24.520855
v 26.541185 25.500000 0.000000
v 0.000000 0.000000 -4.526842
v 2.660811 0.000000 -3.662292
v 4.755283 29.549999 1.545085
v 2.938926 29.549999 -4.045085
v 4.755283 29.549999 -1.545085
v 24.520855 25.500000 10.156873
v 18.767452 25.500000 18.767452
v 9.774189 30.000000 -23.596975
v 18.060345 30.000000 -18.060345
v 4.755283 0.450000 1.545085
v 4.755283 0.450000 -1.545085
v 18.384775 33.549999 -18.384775
v 24.020866 33.549999 -9.949770
v 18.940037 25.897669 18.940037
v 24.746351 25.897669 10.250276
v 4.305283 30.000000 -1.398871
v 2.660811 30.000000 -3.662292
v 23.596975 34.000000 -9.774189
v 18.060345 34.000000 -18.060345
v 18.384775 30.450001 -18.384775
v 9.949770 30.450001 -24.020866
v 0.000000 30.000000 -4.526842
v 0.000000 29.549999 -5.000000
v 2.660811 0.000000 -3.662292
v 2.938926 0.450000 -4.045085
v 2.660811 30.000000 -3.662292
v 2.938926 29.549999 -4.045085
v 4.305283 0.000000 -1.398871
v 4.755283 0.450000 -1.545085
v 4.305283 30.000000 -1.398871
v 4.755283 29.549999 -1.545085
v 4.305283 0.000000 1.398871
v 4.755283 0.450000 1.545085
v 4.305283 30.000000 1.398871
v 4.755283 29.549999 1.545085
v 2.660811 0.000000 3.662292
v 2.938926 0.450000 4.045085
v 2.660811 30.000000 3.662292
v 2.938926 29.549999 4.045085
v 0.000000 0.000000 4.526842
v 0.000000 0.450000 5.000000
v 0.000000 30.000000 4.526842
v 0.000000 29.549999 5.000000
v -2.660811 0.000000 3.662292
v -2.938926 0.450000 4.045085
v -2.660811 30.000000 3.662292
v -2.938926 29.549999 4.045085
v -4.305283 0.000000 1.398871
v -4.755283 0.450000 1.545085
v -4.305283 30.000000 1.398871
v -4.755283 29.549999 1.545085
v -4.305283 0.000000 -1.398871
v -4.755283 0.450000 -1.545085
v -4.305283 30.000000 -1.398871
v -4.755283 29.549999 -1.545085
v -2.660811 0.000000 -3.662292
v -2.938926 0.450000 -4.045085
v -2.660811 30.000000 -3.662292
v -2.938926 29.549999 -4.045085
v -0.000000 30.000000 -25.541185
v 0.000000 30.450001 -26.000000
v 0.000000 34.000000 -25.541185
v 0.000000 33.549999 -26.000000
v 9.774189 30.000000 -23.596975
v 9.949770 30.450001 -24.020866
v 9.774189 34.000000 -23.596975
v 9.949770 33.549999 -24.020866
v 18.060345 30.000000 -18.060345
v 18.384775 30.450001 -18.384775
v 18.060345 34.000000 -18.060345
v 18.384775 33.549999 -18.384775
v 23.596975 30.000000 -9.774189
v 24.020866 30.450001 -9.949770
v 23.596975 34.000000 -9.774189
v 24.020866 33.549999 -9.949770
v 25.541185 30.000000 -0.000000
v 26.000000 30.450001 0.000000
v 25.541185 34.000000 0.000000
v 26.000000 33.549999 0.000000
v 23.596975 30.000000 9.774189
v 24.020866 30.450001 9.949770
v 23.596975 34.000000 9.774189
v 24.020866 33.549999 9.949770
v 18.060345 30.000000 18.060345
v 18.384775 30.450001 18.384775
v 18.060345 34.000000 18.060345
v 18.384775 33.549999 18.384775
v 9.774189 30.000000 23.596975
v 9.949770 30.450001 24.020866
v 9.774189 34.000000 23.596975
v 9.949770 33.549999 24.020866
v 0.000000 30.000000 25.541185
v 0.000000 30.450001 26.000000
v -0.000000 34.000000 25.541185
v 0.000000 33.549999 26.000000
v -9.774189 30.000000 23.596975
v -9.949770 30.450001 24.020866
v -9.774189 34.000000 23.596975
v -9.949770 33.549999 24.020866
v -18.060345 30.000000 18.060345
v -18.384775 30.450001 18.384775
v -18.060345 34.000000 18.060345
v -18.384775 33.549999 18.384775
v -23.596975 30.000000 9.774189
v -24.020866 30.450001 9.949770
v -23.596975 34.000000 9.774189
v -24.020866 33.549999 9.949770
v -25.541185 30.000000 0.000000
v -26.000000 30.450001 0.000000
v -25.541185 34.000000 -0.000000
v -26.000000 33.549999 0.000000
v -23.596975 30.000000 -9.774189
v -24.020866 30.450001 -9.949770
v -23.596975 34.000000 -9.774189
v -24.020866 33.549999 -9.949770
v -18.060345 30.000000 -18.060345
v -18.384775 30.450001 -18.384775
v -18.060345 34.000000 -18.060345
v -18.384775 33.549999 -18.384775
v -9.774189 30.000000 -23.596975
v -9.949770 30.450001 -24.020866
v -9.774189 34.000000 -23.596975
v -9.949770 33.549999 -24.020866
v 0.000000 25.500000 -26.541185
v 0.000000 25.897669 -26.785259
v -0.000000 32.500000 -22.761185
v -0.000000 32.102329 -23.434740
v 10.156873 25.500000 -24.520855
v 10.250276 25.897669 -24.746351
v 8.710328 32.500000 -21.028591
v 8.968088 32.102329 -21.650877
v 18.767452 25.500000 -18.767452
v 18.940037 25.897669 -18.940037
v 16.094585 32.500000 -16.094585
v 16.570864 32.102329 -16.570864
v 24.520855 25.500000 -10.156873
v 24.746351 25.897669 -10.250276
v 21.028591 32.500000 -8.710329
v 21.650877 32.102329 -8.968088
v 26.541185 25.500000 0.000000
v 26.785259 25.897669 0.000000
v 22.761185 32.500000 -0.000000
v 23.434740 32.102329 -0.000000
v 24.520855 25.500000 10.156873
v 24.746351 25.897669 10.250276
v 21.028591 32.500000 8.710328
v 21.650877 32.102329 8.968088
v 18.767452 25.500000 18.767452
v 18.940037 25.897669 18.940037
v 16.094585 32.500000 16.094585
v 16.570864 32.102329 16.570864
v 10.156873 25.500000 24.520855
v 10.250276 25.897669 24.746351
v 8.710329 32.500000 21.028591
v 8.968088 32.102329 21.650877
v 0.000000 25.500000 26.541185
v 0.000000 25.897669 26.785259
v 0.000000 32.500000 22.761185
v 0.000000 32.102329 23.434740
v -10.156873 25.500000 24.520855
v -10.250276 25.897669 24.746351
v -8.710328 32.500000 21.028591
v -8.968088 32.102329 21.650877
v -18.767452 25.500000 18.767452
v -18.940037 25.897669 18.940037
v -16.094585 32.500000 16.094585
v -16.570864 32.102329 16.570864
v -24.520855 25.500000 10.156873
v -24.746351 25.897669 10.250276
v -21.028591 32.500000 8.710329
v -21.650877 32.102329 8.968088
v -26.541185 25.500000 0.000000
v -26.785259 25.897669 0.000000
v -22.761185 32.500000 0.000000
v -23.434740 32.102329 0.000000
v -24.520855 25.500000 -10.156873
v -24.746351 25.897669 -10.250276
v -21.028591 32.500000 -8.710328
v -21.650877 32.102329 -8.968088
v -18.767452 25.500000 -18.767452
v -18.940037 25.897669 -18.940037
v -16.094585 32.500000 -16.094585
v -16.570864 32.102329 -16.570864
v -10.156873 25.500000 -24.520855
v -10.250276 25.897669 -24.746351
v -8.710329 32.500000 -21.028591
v -8.968088 32.102329 -21.650877
v 0.000000 0.000000 -33.541183
v 0.000000 0.450000 -34.000000
v 0.000000 3.000000 -33.541183
v 0.000000 2.550000 -34.000000
v 12.835656 0.000000 -30.988012
v 13.011237 0.450000 -31.411903
v 12.835656 3.000000 -30.988012
v 13.011237 2.550000 -31.411903
v 23.717199 0.000000 -23.717199
v 24.041630 0.450000 -24.041630
v 23.717199 3.000000 -23.717199
v 24.041630 2.550000 -24.041630
v 30.988012 0.000000 -12.835656
v 31.411903 0.450000 -13.011237
v 30.988012 3.000000 -12.835656
v 31.411903 2.550000 -13.011237
v 33.541183 0.000000 0.000000
v 34.000000 0.450000 0.000000
v 33.541183 3.000000 0.000000
v 34.000000 2.550000 0.000000
v 30.988012 0.000000 12.835656
v 31.411903 0.450000 13.011237
v 30.988012 3.000000 12.835656
v 31.411903 2.550000 13.011237
v 23.717199 0.000000 23.717199
v 24.041630 0.450000 24.041630
v 23.717199 3.000000 23.717199
v 24.041630 2.550000 24.041630
v 12.835656 0.000000 30.988012
v 13.011237 0.450000 31.411903
v 12.835656 3.000000 30.988012
v 13.011237 2.550000 31.411903
v 0.000000 0.000000 33.541183
v 0.000000 0.450000 34.000000
v 0.000000 3.000000 33.541183
v 0.000000 2.550000 34.000000
v -12.835656 0.000000 30.988012
v -13.011237 0.450000 31.411903
v -12.835656 3.000000 30.988012
v -13.011237 2.550000 31.411903
v -23.717199 0.000000 23.717199
v -24.041630 0.450000 24.041630
v -23.717199 3.000000 23.717199
v -24.041630 2.550000 24.041630
v -30.988012 0.000000 12.835656
v -31.411903 0.450000 13.011237
v -30.988012 3.000000 12.835656
v -31.411903 2.550000 13.011237
v -33.541183 0.000000 0.000000
v -34.000000 0.450000 0.000000
v -33.541183 3.000000 0.000000
v -34.000000 2.550000 0.000000
v -30.988012 0.000000 -12.835656
v -31.411903 0.450000 -13.011237
v -30.988012 3.000000 -12.835656
v -31.411903 2.550000 -13.011237
v -23.717199 0.000000 -23.717199
v -24.041630 0.450000 -24.041630
v -23.717199 3.000000 -23.717199
v -24.041630 2.550000 -24.041630
v -12.835656 0.000000 -30.988012
v -13.011237 0.450000 -31.411903
v -12.835656 3.000000 -30.988012
v -13.011237 2.550000 -31.411903
v 31.411903 0.450000 -13.011237
v 30.988012 0.000000 -12.835656
v -24.020866 33.549999 9.949770
v -23.596975 34.000000 9.774189
v -26.000000 30.450001 0.000000
v -25.541185 30.000000 0.000000
v -26.000000 33.549999 0.000000
v -25.541185 34.000000 -0.000000
v -24.020866 30.450001 -9.949770
v -23.596975 30.000000 -9.774189
v 0.000000 25.897669 -26.785259
v 0.000000 25.500000 -26.541185
v -24.020866 33.549999 -9.949770
v -23.596975 34.000000 -9.774189
v -18.384775 30.450001 -18.384775
v -18.060345 30.000000 -18.060345
v -18.384775 33.549999 -18.384775
v -18.060345 34.000000 -18.060345
v -9.949770 30.450001 -24.020866
v -9.774189 30.000000 -23.596975
v 24.041630 2.550000 24.041630
v 23.717199 3.000000 23.717199
v -9.949770 33.549999 -24.020866
v -9.774189 34.000000 -23.596975
v 34.000000 0.450000 0.000000
v 33.541183 0.000000 0.000000
v 0.000000 25.897669 26.785259
v 0.000000 25.500000 26.541185
v -10.250276 25.897669 24.746351
v -10.156873 25.500000 24.520855
v 31.411903 2.550000 -13.011237
v 30.988012 3.000000 -12.835656
v -18.940037 25.897669 18.940037
v -18.767452 25.500000 18.767452
v 0.000000 2.550000 -34.000000
v 0.000000 3.000000 -33.541183
v -24.746351 25.897669 10.250276
v -24.520855 25.500000 10.156873
v -26.785259 25.897669 0.000000
v -26.541185 25.500000 0.000000
v -24.746351 25.897669 -10.250276
v -24.520855 25.500000 -10.156873
v 0.000000 0.450000 -34.000000
v 0.000000 0.000000 -33.541183
v -18.940037 25.897669 -18.940037
v -18.767452 25.500000 -18.767452
v -10.250276 25.897669 -24.746351
v -10.156873 25.500000 -24.520855
v 13.011237 0.450000 31.411903
v 12.835656 0.000000 30.988012
v 13.011237 2.550000 31.411903
v 12.835656 3.000000 30.988012
v 0.000000 0.450000 34.000000
v 0.000000 0.000000 33.541183
v 0.000000 2.550000 34.000000
v 0.000000 3.000000 33.541183
v -13.011237 0.450000 31.411903
v -12.835656 0.000000 30.988012
v -13.011237 2.550000 31.411903
v -12.835656 3.000000 30.988012
v -24.041630 0.450000 24.041630
v -23.717199 0.000000 23.717199
v -24.041630 2.550000 24.041630
v -23.717199 3.000000 23.717199
v -31.411903 0.450000 13.011237
v -30.988012 0.000000 12.835656
v -31.411903 2.550000 13.011237
v -30.988012 3.000000 12.835656
v -34.000000 0.450000 0.000000
v -33.541183 0.000000 0.000000
v -34.000000 2.550000 0.000000
v -33.541183 3.000000 0.000000
v -31.411903 0.450000 -13.011237
v -30.988012 0.000000 -12.835656
v -31.411903 2.550000 -13.011237
v -30.988012 3.000000 -12.835656
v -24.041630 0.450000 -24.041630
v -23.717199 0.000000 -23.717199
v -24.041630 2.550000 -24.041630
v -23.717199 3.000000 -23.717199
v -13.011237 0.450000 -31.411903
v -12.835656 0.000000 -30.988012
v -13.011237 2.550000 -31.411903
v -12.835656 3.000000 -30.988012
vn -0.0000 -0.0000 -1.0000
vn -0.0000 -1.0000 -0.0000
vn -0.6469 -0.7139 0.2680
vn 0.4951 0.7139 -0.4951
vn 0.2680 0.7139 -0.6469
vn -0.4951 0.7139 0.4951
vn -0.4951 -0.7139 0.4951
vn -0.2680 0.7139 0.6469
vn -0.2680 -0.7139 0.6469
vn -0.0000 0.7139 0.7002
vn -0.0000 -0.7139 0.7002
vn 0.6469 0.7139 0.2680
vn 0.7002 0.7139 -0.0000
vn 0.2680 0.7139 0.6469
vn 0.6469 -0.7139 0.2680
vn 0.4951 -0.7139 0.4951
vn 0.2680 -0.7139 0.6469
vn 0.4951 0.7139 0.4951
vn 0.3262 -0.5231 -0.7874
vn -0.4051 0.7246 -0.5575
vn -0.4051 -0.7246 -0.5575
vn -0.6554 0.7246 -0.2130
vn 0.2680 -0.7139 -0.6469
vn 0.4951 -0.7139 -0.4951
vn -0.6554 -0.7246 -0.2130
vn -0.6554 0.7246 0.2130
vn -0.6554 -0.7246 0.2130
vn -0.4051 0.7246 0.5575
vn -0.4051 -0.7246 0.5575
vn -0.0000 0.7246 0.6892
vn 0.6027 -0.5231 -0.6026
vn 0.7874 -0.5231 -0.3262
vn 0.7874 -0.5231 -0.3261
vn -0.0000 -0.7246 0.6892
vn 0.4051 0.7246 0.5575
vn -0.0000 0.7139 -0.7002
vn 0.4051 -0.7246 0.5575
vn 0.6554 -0.7246 0.2130
vn -0.0000 -0.7139 -0.7002
vn -0.0000 0.7246 -0.6892
vn 0.7002 -0.7139 -0.0000
vn 0.6469 -0.7139 -0.2680
vn 0.6554 0.7246 0.2130
vn 0.8523 -0.5231 -0.0000
vn 0.3261 -0.5231 0.7874
vn 0.4051 -0.7246 -0.5575
vn -0.0000 -0.7246 -0.6892
vn 0.6554 -0.7246 -0.2130
vn 0.3262 -0.5231 0.7874
vn 0.4051 0.7246 -0.5575
vn 0.6554 0.7246 -0.2130
vn 0.7874 -0.5231 0.3261
vn 0.6027 -0.5231 0.6027
vn 0.6469 0.7139 -0.2680
vn 0.7874 -0.5231 0.3262
vn -0.0000 1.0000 -0.0000
vn 0.5878 -0.0000 -0.8090
vn 0.9511 -0.0000 -0.3090
vn 0.9511 -0.0000 0.3090
vn 0.5878 -0.0000 0.8090
vn -0.0000 -0.0000 1.0000
vn -0.5878 -0.0000 0.8090
vn -0.9511 -0.0000 0.3090
vn -0.9511 -0.0000 -0.3090
vn -0.5878 -0.0000 -0.8090
vn 0.3827 -0.0000 -0.9239
vn 0.7071 -0.0000 -0.7071
vn 0.9239 -0.0000 -0.3827
vn 1.0000 -0.0000 -0.0000
vn 0.9239 -0.0000 0.3827
vn 0.7071 -0.0000 0.7071
vn 0.3827 -0.0000 0.9239
vn -0.3827 -0.0000 0.9239
vn -0.7071 -0.0000 0.7071
vn -0.9239 -0.0000 0.3827
vn -1.0000 -0.0000 -0.0000
vn -0.9239 -0.0000 -0.3827
vn -0.7071 -0.0000 -0.7071
vn -0.3827 -0.0000 -0.9239
vn -0.0000 0.4751 -0.8799
vn -0.0000 0.9559 -0.2936
vn -0.0000 0.6772 -0.7358
vn 0.3367 0.4751 -0.8129
vn 0.1124 0.9559 -0.2713
vn 0.2816 0.6772 -0.6798
vn 0.6222 0.4751 -0.6222
vn 0.2076 0.9559 -0.2076
vn 0.5203 0.6772 -0.5203
vn 0.8129 0.4751 -0.3367
vn 0.2713 0.9559 -0.1124
vn 0.6798 0.6772 -0.2816
vn 0.8799 0.4751 -0.0000
vn 0.2936 0.9559 -0.0000
vn 0.7358 0.6772 -0.0000
vn 0.8129 0.4751 0.3367
vn 0.2713 0.9559 0.1124
vn 0.6798 0.6772 0.2816
vn 0.6222 0.4751 0.6222
vn 0.2076 0.9559 0.2076
vn 0.5203 0.6772 0.5203
vn 0.3367 0.4751 0.8129
vn 0.1124 0.9559 0.2713
vn 0.2816 0.6772 0.6798
vn -0.0000 0.4751 0.8799
vn -0.0000 0.9559 0.2936
vn -0.0000 0.6772 0.7358
vn -0.3367 0.4751 0.8129
vn -0.1124 0.9559 0.2713
vn -0.2816 0.6772 0.6798
vn -0.6222 0.4751 0.6222
vn -0.2076 0.9559 0.2076
vn -0.5203 0.6772 0.5203
vn -0.8129 0.4751 0.3367
vn -0.2713 0.9559 0.1124
vn -0.6798 0.6772 0.2816
vn -0.8799 0.4751 -0.0000
vn -0.2936 0.9559 -0.0000
vn -0.7358 0.6772 -0.0000
vn -0.8129 0.4751 -0.3367
vn -0.2713 0.9559 -0.1124
vn -0.6798 0.6772 -0.2816
vn -0.6222 0.4751 -0.6222
vn -0.2076 0.9559 -0.2076
vn -0.5203 0.6772 -0.5203
vn -0.3367 0.4751 -0.8129
vn -0.1124 0.9559 -0.2713
vn -0.2816 0.6772 -0.6798
vn -0.6469 0.7139 0.2680
vn -0.7002 -0.7139 -0.0000
vn -0.7002 0.7139 -0.0000
vn -0.6469 -0.7139 -0.2680
vn -0.0000 -0.5231 -0.8523
vn -0.6469 0.7139 -0.2680
vn -0.4951 -0.7139 -0.4951
vn -0.4951 0.7139 -0.4951
vn -0.2680 -0.7139 -0.6469
vn -0.2680 0.7139 -0.6469
vn -0.0000 -0.5231 0.8523
vn -0.3262 -0.5231 0.7874
vn -0.6027 -0.5231 0.6026
vn -0.7874 -0.5231 0.3261
vn -0.7874 -0.5231 0.3262
vn -0.8523 -0.5231 -0.0000
vn -0.7874 -0.5231 -0.3262
vn -0.7874 -0.5231 -0.3261
vn -0.6027 -0.5231 -0.6027
vn -0.3261 -0.5231 -0.7874
vn -0.3262 -0.5231 -0.7874
vt -0.237764 -0.077254
vt -0.133041 -0.183115
vt -0.215264 -0.069944
vt 0.919239 0.919239
vt 1.179849 0.488709
vt 1.201043 0.497488
vt -0.146946 0.202254
vt -0.215264 0.069944
vt -0.237764 0.077254
vt 0.237764 -0.077254
vt 0.133041 -0.183115
vt 0.146946 -0.202254
vt 0.077254 0.022500
vt -0.069944 0.000000
vt -0.077254 0.022500
vt 1.082544 -0.448404
vt 0.804729 -0.804729
vt 0.828543 -0.828543
vt 0.215264 -0.069944
vt 0.488709 1.179849
vt 0.903017 0.903017
vt 0.237764 0.077254
vt 0.133041 0.183115
vt 0.146946 0.202254
vt -0.077254 1.477500
vt 0.069944 1.500000
vt 0.077254 1.477500
vt 0.000000 0.250000
vt 0.000000 1.300000
vt 0.497488 1.201043
vt 0.215264 0.069944
vt -0.133041 0.183115
vt -0.077254 0.022500
vt 0.069944 0.000000
vt 0.077254 0.022500
vt 0.512514 1.294883
vt 0.938373 1.275000
vt 0.947002 1.294883
vt 1.202081 1.202081
vt 0.641783 1.549401
vt 0.650562 1.570595
vt 0.000000 0.226342
vt 0.000000 -0.226342
vt -0.000000 1.277059
vt -0.069944 1.500000
vt -0.146946 -0.202254
vt -0.947002 1.294883
vt -0.507844 1.275000
vt -0.512514 1.294883
vt 0.000000 -0.250000
vt 1.300000 0.000000
vt 0.448404 1.082544
vt 0.804729 0.804729
vt 0.828543 0.828543
vt 1.277059 -0.000000
vt 1.138059 0.000000
vt 1.051430 -0.435516
vt 1.201043 -0.497488
vt 1.277059 0.000000
vt 1.179849 -0.488709
vt 0.919239 -0.919239
vt 0.507844 1.275000
vt 0.903017 -0.903017
vt 0.000000 1.275000
vt 0.000000 1.294883
vt 0.497488 -1.201043
vt 1.202081 -1.202081
vt 1.549401 -0.641783
vt 1.570595 -0.650562
vt 0.488709 -1.179849
vt 1.700000 0.000000
vt 0.000000 -1.300000
vt -0.000000 -1.277059
vt -0.497488 -1.201043
vt 0.000000 -1.277059
vt -0.488709 -1.179849
vt 1.082544 0.448404
vt 1.171737 0.000000
vt -0.919239 -0.919239
vt -0.000000 1.138059
vt 0.435516 1.051430
vt -0.903017 -0.903017
vt 1.185860 1.185860
vt -1.201043 -0.497488
vt 1.549401 0.641783
vt -1.179849 -0.488709
vt -1.300000 0.000000
vt -1.277059 0.000000
vt -1.201043 0.497488
vt -1.277059 -0.000000
vt -1.179849 0.488709
vt -0.919239 0.919239
vt -0.903017 0.903017
vt 1.051430 0.435516
vt -0.497488 1.201043
vt 1.185860 -1.185860
vt -0.488709 1.179849
vt 0.000000 1.277059
vt 1.677059 0.000000
vt 0.435516 -1.051430
vt 0.448404 -1.082544
vt 0.000000 -1.138059
vt 0.000000 -1.171737
vt -0.448404 -1.082544
vt -0.435516 -1.051430
vt 1.570595 0.650562
vt 0.000000 1.700000
vt -0.804729 -0.804729
vt -0.828543 -0.828543
vt -0.938373 1.275000
vt -1.051430 -0.435516
vt -1.082544 -0.448404
vt -1.138059 -0.000000
vt -1.171737 -0.000000
vt 0.000000 1.677059
vt -1.082544 0.448404
vt -1.051430 0.435516
vt -0.804729 0.804729
vt -0.828543 0.828543
vt -0.435516 1.051430
vt -0.448404 1.082544
vt -0.000000 1.171737
vt 0.641783 -1.549401
vt 0.650562 -1.570595
vt 0.000000 -1.700000
vt 0.000000 -1.677059
vt -0.650562 -1.570595
vt -0.641783 -1.549401
vt -1.202081 -1.202081
vt -1.185860 -1.185860
vt -1.549401 -0.641783
vt -1.570595 -0.650562
vt -1.700000 0.000000
vt -1.677059 0.000000
vt -1.570595 0.650562
vt -1.549401 0.641783
vt -1.202081 1.202081
vt -1.185860 1.185860
vt -0.641783 1.549401
vt -0.650562 1.570595
vt 0.000000 1.477500
vt 0.146946 0.022500
vt 0.000000 0.022500
vt -0.146946 1.477500
vt -0.146946 0.022500
vt 0.202254 1.477500
vt 0.202254 0.022500
vt -0.202254 0.022500
vt 0.146946 1.477500
vt -0.202254 1.477500
vt 0.000000 1.677500
vt 0.497488 1.522500
vt 0.000000 1.522500
vt -0.497488 1.677500
vt -0.497488 1.522500
vt 0.497488 1.677500
vt 0.919239 1.522500
vt 0.919239 1.677500
vt -0.919239 1.522500
vt -0.919239 1.677500
vt -1.226043 -0.507844
vt -0.507844 1.226043
vt 1.226043 0.507844
vt -0.000000 1.605116
vt -0.448404 1.605116
vt 0.448404 1.605116
vt 0.000000 1.605116
vt 0.000000 0.127500
vt 0.650562 0.022500
vt -0.650562 0.127500
vt -0.650562 0.022500
vt 0.650562 0.127500
vt 1.202081 0.022500
vt 1.202081 0.127500
vt -1.202081 0.022500
vt -1.202081 0.127500
vt 1.327059 0.000000
vt 1.226043 -0.507844
vt 0.938373 -0.938373
vt 0.507844 -1.226043
vt 0.000000 -1.327059
vt -0.507844 -1.226043
vt -0.938373 -0.938373
vt -1.327059 0.000000
vt -1.226043 0.507844
vt -0.938373 0.938373
vt 0.000000 1.327059
vt 0.507844 1.226043
vt 0.938373 0.938373
vt 0.828543 1.605116
vt -0.828543 1.605116
s 1
f 55/1/26 58/2/28 54/3/26
f 109/4/4 115/5/54 110/6/54
f 45/7/21 52/8/25 53/9/25
f 100/10/43 76/11/35 70/12/35
f 53/13/25 56/14/27 57/15/27
f 244/16/97 247/17/99 248/18/100
f 90/12/37 74/19/38 107/10/38
f 109/4/4 78/20/5 116/21/4
f 108/22/48 99/23/46 91/24/46
f 55/25/26 46/26/22 47/27/22
f 79/28/40 114/23/50 101/24/50
f 72/29/36 78/20/5 89/30/5
f 102/22/51 114/23/50 113/31/51
f 47/9/22 75/32/20 43/7/20
f 107/33/38 94/34/48 108/35/48
f 66/36/33 64/37/31 67/38/31
f 50/39/24 48/40/23 51/41/23
f 45/7/21 98/42/47 44/32/21
f 90/12/37 68/43/34 73/11/37
f 118/30/23 95/44/39 77/29/39
f 102/27/51 83/45/43 100/25/43
f 57/1/27 60/2/29 61/46/29
f 111/47/53 103/48/52 112/49/55
f 63/50/30 58/2/28 59/46/28
f 117/4/24 105/20/23 118/30/23
f 61/46/29 68/43/34 69/50/34
f 91/24/46 98/42/47 92/28/47
f 70/12/35 62/43/30 63/50/30
f 81/51/41 93/5/42 82/6/42
f 82/6/42 106/21/24 117/4/24
f 43/7/20 85/42/40 79/28/40
f 228/52/85 231/53/87 232/54/88
f 110/6/54 80/55/13 88/51/13
f 244/16/97 239/56/93 243/57/96
f 42/58/15 87/59/41 81/51/41
f 88/51/13 39/60/12 40/58/12
f 38/61/16 41/60/15 42/58/15
f 67/38/31 35/62/19 36/36/19
f 34/61/18 39/60/12 33/63/18
f 112/49/55 97/64/44 84/65/44
f 32/66/17 37/63/16 38/61/16
f 29/67/16 27/68/15 30/69/15
f 34/61/18 25/70/14 26/66/14
f 23/71/13 21/68/12 24/69/12
f 20/72/11 31/70/17 32/66/17
f 26/66/14 17/73/10 18/72/10
f 16/74/9 19/75/11 20/72/11
f 18/72/10 13/76/8 14/74/8
f 236/77/91 239/56/93 240/78/94
f 12/79/7 15/76/9 16/74/9
f 228/52/85 223/80/81 227/81/84
f 10/79/6 13/76/8 9/82/6
f 8/39/4 6/40/5 5/83/4
f 4/84/3 11/82/7 12/79/7
f 50/39/24 350/85/42 49/83/24
f 10/79/6 352/86/128 351/84/128
f 84/65/44 65/62/32 66/36/33
f 353/87/129 3/86/3 4/84/3
f 351/84/128 356/88/130 355/87/130
f 357/89/131 354/90/129 353/87/129
f 36/36/19 360/64/132 359/65/132
f 355/87/130 362/91/133 361/89/133
f 363/92/134 358/91/131 357/89/131
f 365/92/135 362/91/133 366/93/135
f 232/54/88 235/94/90 236/77/91
f 367/95/136 364/93/134 363/92/134
f 369/67/18 21/68/12 370/96/18
f 365/92/135 372/97/137 371/95/137
f 77/29/39 368/97/136 367/95/136
f 371/95/137 71/98/36 72/29/36
f 30/69/15 374/99/41 373/71/41
f 86/36/45 104/37/53 111/38/53
f 248/18/100 251/100/102 252/101/103
f 375/65/138 96/62/49 86/36/45
f 252/101/103 255/102/105 256/103/106
f 377/49/139 376/64/138 375/65/138
f 260/104/109 255/102/105 259/105/108
f 379/106/54 22/99/13 23/71/13
f 381/47/140 378/48/139 377/49/139
f 383/107/36 6/40/5 7/41/5
f 260/104/109 263/108/111 264/109/112
f 385/49/141 382/110/140 381/47/140
f 264/109/112 267/111/114 268/112/115
f 373/71/41 350/85/42 349/106/42
f 387/65/143 386/48/142 385/49/141
f 268/112/115 271/113/117 272/114/118
f 389/36/144 388/64/143 387/65/143
f 51/41/23 392/115/39 391/107/39
f 276/116/121 271/113/117 275/117/120
f 393/38/146 390/62/145 389/36/144
f 276/116/121 279/118/123 280/119/124
f 8/39/4 380/85/54 379/106/54
f 395/49/147 394/110/146 393/47/146
f 280/119/124 283/120/126 284/121/127
f 359/65/132 396/48/148 395/49/147
f 284/121/127 223/80/81 224/122/82
f 29/67/16 398/123/17 28/96/16
f 369/67/18 400/123/14 399/124/14
f 401/125/11 398/123/17 397/124/17
f 399/124/14 404/126/10 403/125/10
f 405/127/9 402/126/11 401/125/11
f 403/125/10 408/128/8 407/127/8
f 409/129/7 406/128/9 405/127/9
f 411/129/6 408/128/8 412/130/6
f 409/129/7 414/131/3 410/130/7
f 411/129/6 416/131/128 415/132/128
f 417/133/129 414/131/3 413/132/3
f 415/132/128 420/134/130 419/133/130
f 421/135/131 418/134/129 417/133/129
f 419/133/130 424/136/133 423/135/133
f 425/137/134 422/136/131 421/135/131
f 427/137/135 424/136/133 428/138/135
f 425/137/134 430/139/136 426/138/134
f 427/137/135 432/139/137 431/140/137
f 391/107/39 430/139/136 429/140/136
f 431/140/137 384/115/36 383/107/36
f 129/19/2 145/3/2 153/32/2
f 120/141/1 122/142/57 1/143/1
f 156/144/65 1/143/1 154/145/65
f 151/8/56 135/11/56 127/31/56
f 124/146/57 126/35/58 122/147/57
f 128/27/58 130/33/59 126/35/58
f 132/25/59 134/148/60 130/33/59
f 136/149/60 138/143/61 134/142/60
f 140/141/61 142/145/62 138/143/61
f 144/150/62 146/15/63 142/148/62
f 148/25/63 150/13/64 146/15/63
f 152/27/64 154/147/65 150/13/64
f 209/91/2 161/20/2 177/60/2
f 160/151/1 162/152/66 158/153/1
f 220/154/79 158/153/1 218/155/79
f 207/88/56 191/73/56 175/55/56
f 164/156/66 166/157/67 162/152/66
f 168/158/67 170/152/68 166/157/67
f 172/156/68 174/153/69 170/152/68
f 176/151/69 178/155/70 174/153/69
f 180/154/70 182/159/71 178/155/70
f 184/158/71 186/152/72 182/157/71
f 188/156/72 190/153/61 186/152/72
f 192/151/61 194/155/73 190/153/61
f 196/154/73 198/159/74 194/155/73
f 200/160/74 202/155/75 198/159/74
f 204/154/75 206/153/76 202/155/75
f 208/151/76 210/152/77 206/153/76
f 212/156/77 214/157/78 210/152/77
f 216/160/78 218/155/79 214/159/78
f 265/161/2 281/162/2 233/163/2
f 224/164/82 226/36/83 222/65/80
f 284/165/127 222/65/80 282/49/125
f 275/117/120 259/105/108 243/57/96
f 228/166/85 230/38/86 226/36/83
f 230/38/86 236/166/91 234/36/89
f 236/166/91 238/65/92 234/36/89
f 240/167/94 242/49/95 238/65/92
f 244/165/97 246/47/98 242/49/95
f 246/38/98 252/166/103 250/36/101
f 252/166/103 254/65/104 250/36/101
f 256/167/106 258/49/107 254/65/104
f 260/165/109 262/47/110 258/49/107
f 262/47/110 268/165/115 266/49/113
f 268/165/115 270/65/116 266/49/113
f 272/164/118 274/36/119 270/65/116
f 276/166/121 278/38/122 274/36/119
f 278/47/122 284/165/127 282/49/125
f 341/138/2 293/83/2 309/96/2
f 288/168/1 290/169/66 286/143/1
f 348/170/79 286/143/1 346/171/79
f 295/83/56 343/138/56 327/130/56
f 292/172/66 294/173/67 290/169/66
f 296/174/67 298/169/68 294/173/67
f 300/172/68 302/143/69 298/169/68
f 304/168/69 306/171/70 302/143/69
f 308/170/70 310/175/71 306/171/70
f 312/174/71 314/169/72 310/173/71
f 316/172/72 318/143/61 314/169/72
f 320/168/61 322/171/73 318/143/61
f 324/170/73 326/175/74 322/171/73
f 328/176/74 330/171/75 326/175/74
f 332/170/75 334/143/76 330/171/75
f 336/168/76 338/169/77 334/143/76
f 340/172/77 342/173/78 338/169/77
f 344/176/78 346/171/79 342/175/78
f 55/1/26 59/46/28 58/2/28
f 109/4/4 116/21/4 115/5/54
f 45/7/21 44/32/21 52/8/25
f 100/10/43 83/19/43 76/11/35
f 53/13/25 52/34/25 56/14/27
f 244/16/97 243/57/96 247/17/99
f 90/12/37 73/11/37 74/19/38
f 109/4/4 89/30/5 78/20/5
f 108/22/48 94/31/48 99/23/46
f 55/25/26 54/45/26 46/26/22
f 79/28/40 85/42/40 114/23/50
f 72/29/36 71/98/36 78/20/5
f 102/22/51 101/24/50 114/23/50
f 47/9/22 46/8/22 75/32/20
f 107/33/38 74/14/38 94/34/48
f 66/36/33 65/62/32 64/37/31
f 50/39/24 49/83/24 48/40/23
f 45/7/21 92/28/47 98/42/47
f 90/12/37 69/50/34 68/43/34
f 118/30/23 105/20/23 95/44/39
f 102/27/51 113/26/51 83/45/43
f 57/1/27 56/3/27 60/2/29
f 111/47/53 104/110/53 103/48/52
f 63/50/30 62/43/30 58/2/28
f 117/4/24 106/21/24 105/20/23
f 61/46/29 60/2/29 68/43/34
f 91/24/46 99/23/46 98/42/47
f 70/12/35 76/11/35 62/43/30
f 81/51/41 87/59/41 93/5/42
f 82/6/42 93/5/42 106/21/24
f 43/7/20 75/32/20 85/42/40
f 228/52/85 227/81/84 231/53/87
f 110/6/54 115/5/54 80/55/13
f 244/16/97 240/78/94 239/56/93
f 42/58/15 41/60/15 87/59/41
f 88/51/13 80/55/13 39/60/12
f 38/61/16 37/63/16 41/60/15
f 67/38/31 64/37/31 35/62/19
f 34/61/18 40/58/12 39/60/12
f 112/49/55 103/48/52 97/64/44
f 32/66/17 31/70/17 37/63/16
f 29/67/16 28/96/16 27/68/15
f 34/61/18 33/63/18 25/70/14
f 23/71/13 22/99/13 21/68/12
f 20/72/11 19/75/11 31/70/17
f 26/66/14 25/70/14 17/73/10
f 16/74/9 15/76/9 19/75/11
f 18/72/10 17/73/10 13/76/8
f 236/77/91 235/94/90 239/56/93
f 12/79/7 11/82/7 15/76/9
f 228/52/85 224/122/82 223/80/81
f 10/79/6 14/74/8 13/76/8
f 8/39/4 7/41/5 6/40/5
f 4/84/3 3/86/3 11/82/7
f 50/39/24 349/106/42 350/85/42
f 10/79/6 9/82/6 352/86/128
f 84/65/44 97/64/44 65/62/32
f 353/87/129 354/90/129 3/86/3
f 351/84/128 352/86/128 356/88/130
f 357/89/131 358/91/131 354/90/129
f 36/36/19 35/62/19 360/64/132
f 355/87/130 356/88/130 362/91/133
f 363/92/134 364/93/134 358/91/131
f 365/92/135 361/89/133 362/91/133
f 232/54/88 231/53/87 235/94/90
f 367/95/136 368/97/136 364/93/134
f 369/67/18 24/69/12 21/68/12
f 365/92/135 366/93/135 372/97/137
f 77/29/39 95/44/39 368/97/136
f 371/95/137 372/97/137 71/98/36
f 30/69/15 27/68/15 374/99/41
f 86/36/45 96/62/49 104/37/53
f 248/18/100 247/17/99 251/100/102
f 375/65/138 376/64/138 96/62/49
f 252/101/103 251/100/102 255/102/105
f 377/49/139 378/48/139 376/64/138
f 260/104/109 256/103/106 255/102/105
f 379/106/54 380/85/54 22/99/13
f 381/47/140 382/110/140 378/48/139
f 383/107/36 384/115/36 6/40/5
f 260/104/109 259/105/108 263/108/111
f 385/49/141 386/48/142 382/110/140
f 264/109/112 263/108/111 267/111/114
f 373/71/41 374/99/41 350/85/42
f 387/65/143 388/64/143 386/48/142
f 268/112/115 267/111/114 271/113/117
f 389/36/144 390/62/145 388/64/143
f 51/41/23 48/40/23 392/115/39
f 276/116/121 272/114/118 271/113/117
f 393/38/146 394/37/146 390/62/145
f 276/116/121 275/117/120 279/118/123
f 8/39/4 5/83/4 380/85/54
f 395/49/147 396/48/148 394/110/146
f 280/119/124 279/118/123 283/120/126
f 359/65/132 360/64/132 396/48/148
f 284/121/127 283/120/126 223/80/81
f 29/67/16 397/124/17 398/123/17
f 369/67/18 370/96/18 400/123/14
f 401/125/11 402/126/11 398/123/17
f 399/124/14 400/123/14 404/126/10
f 405/127/9 406/128/9 402/126/11
f 403/125/10 404/126/10 408/128/8
f 409/129/7 410/130/7 406/128/9
f 411/129/6 407/127/8 408/128/8
f 409/129/7 413/132/3 414/131/3
f 411/129/6 412/130/6 416/131/128
f 417/133/129 418/134/129 414/131/3
f 415/132/128 416/131/128 420/134/130
f 421/135/131 422/136/131 418/134/129
f 419/133/130 420/134/130 424/136/133
f 425/137/134 426/138/134 422/136/131
f 427/137/135 423/135/133 424/136/133
f 425/137/134 429/140/136 430/139/136
f 427/137/135 428/138/135 432/139/137
f 391/107/39 392/115/39 430/139/136
f 431/140/137 432/139/137 384/115/36
f 153/32/2 2/42/2 121/23/2
f 121/23/2 125/31/2 129/19/2
f 129/19/2 133/11/2 137/43/2
f 137/43/2 141/2/2 145/3/2
f 145/3/2 149/8/2 153/32/2
f 153/32/2 121/23/2 129/19/2
f 129/19/2 137/43/2 145/3/2
f 120/141/1 124/149/57 122/142/57
f 156/144/65 120/141/1 1/143/1
f 127/31/56 123/23/56 119/42/56
f 119/42/56 155/32/56 151/8/56
f 151/8/56 147/3/56 143/2/56
f 143/2/56 139/43/56 135/11/56
f 135/11/56 131/19/56 127/31/56
f 127/31/56 119/42/56 151/8/56
f 151/8/56 143/2/56 135/11/56
f 124/146/57 128/27/58 126/35/58
f 128/27/58 132/25/59 130/33/59
f 132/25/59 136/150/60 134/148/60
f 136/149/60 140/141/61 138/143/61
f 140/141/61 144/144/62 142/145/62
f 144/150/62 148/25/63 146/15/63
f 148/25/63 152/27/64 150/13/64
f 152/27/64 156/146/65 154/147/65
f 177/60/2 181/63/2 185/70/2
f 185/70/2 189/75/2 193/76/2
f 193/76/2 197/82/2 201/86/2
f 201/86/2 205/90/2 209/91/2
f 209/91/2 213/93/2 217/97/2
f 217/97/2 157/44/2 161/20/2
f 161/20/2 165/21/2 169/5/2
f 169/5/2 173/59/2 177/60/2
f 177/60/2 185/70/2 193/76/2
f 193/76/2 201/86/2 209/91/2
f 209/91/2 217/97/2 161/20/2
f 161/20/2 169/5/2 177/60/2
f 177/60/2 193/76/2 209/91/2
f 160/151/1 164/156/66 162/152/66
f 220/154/79 160/151/1 158/153/1
f 175/55/56 171/5/56 167/21/56
f 167/21/56 163/20/56 159/98/56
f 159/98/56 219/97/56 215/93/56
f 215/93/56 211/91/56 207/88/56
f 207/88/56 203/86/56 199/82/56
f 199/82/56 195/76/56 191/73/56
f 191/73/56 187/70/56 183/63/56
f 183/63/56 179/60/56 175/55/56
f 175/55/56 167/21/56 159/98/56
f 159/98/56 215/93/56 207/88/56
f 207/88/56 199/82/56 191/73/56
f 191/73/56 183/63/56 175/55/56
f 175/55/56 159/98/56 207/88/56
f 164/156/66 168/158/67 166/157/67
f 168/158/67 172/156/68 170/152/68
f 172/156/68 176/151/69 174/153/69
f 176/151/69 180/154/70 178/155/70
f 180/154/70 184/160/71 182/159/71
f 184/158/71 188/156/72 186/152/72
f 188/156/72 192/151/61 190/153/61
f 192/151/61 196/154/73 194/155/73
f 196/154/73 200/160/74 198/159/74
f 200/160/74 204/154/75 202/155/75
f 204/154/75 208/151/76 206/153/76
f 208/151/76 212/156/77 210/152/77
f 212/156/77 216/158/78 214/157/78
f 216/160/78 220/154/79 218/155/79
f 233/163/2 237/177/2 241/178/2
f 241/178/2 245/179/2 249/180/2
f 249/180/2 253/181/2 257/182/2
f 257/182/2 261/183/2 265/161/2
f 265/161/2 269/184/2 273/185/2
f 273/185/2 277/186/2 281/162/2
f 281/162/2 221/187/2 225/188/2
f 225/188/2 229/189/2 233/163/2
f 233/163/2 241/178/2 249/180/2
f 249/180/2 257/182/2 265/161/2
f 265/161/2 273/185/2 281/162/2
f 281/162/2 225/188/2 233/163/2
f 233/163/2 249/180/2 265/161/2
f 224/164/82 228/166/85 226/36/83
f 284/165/127 224/164/82 222/65/80
f 243/57/96 239/56/93 235/94/90
f 235/94/90 231/53/87 227/81/84
f 227/81/84 223/80/81 283/120/126
f 283/120/126 279/118/123 275/117/120
f 275/117/120 271/113/117 267/111/114
f 267/111/114 263/108/111 259/105/108
f 259/105/108 255/102/105 251/100/102
f 251/100/102 247/17/99 243/57/96
f 243/57/96 235/94/90 227/81/84
f 227/81/84 283/120/126 275/117/120
f 275/117/120 267/111/114 259/105/108
f 259/105/108 251/100/102 243/57/96
f 243/57/96 227/81/84 275/117/120
f 228/166/85 232/190/88 230/38/86
f 230/38/86 232/190/88 236/166/91
f 236/166/91 240/167/94 238/65/92
f 240/167/94 244/165/97 242/49/95
f 244/165/97 248/191/100 246/47/98
f 246/38/98 248/190/100 252/166/103
f 252/166/103 256/167/106 254/65/104
f 256/167/106 260/165/109 258/49/107
f 260/165/109 264/191/112 262/47/110
f 262/47/110 264/191/112 268/165/115
f 268/165/115 272/164/118 270/65/116
f 272/164/118 276/166/121 274/36/119
f 276/166/121 280/190/124 278/38/122
f 278/47/122 280/191/124 284/165/127
f 309/96/2 313/123/2 317/126/2
f 317/126/2 321/128/2 325/130/2
f 325/130/2 329/131/2 333/134/2
f 333/134/2 337/136/2 341/138/2
f 341/138/2 345/139/2 285/115/2
f 285/115/2 289/40/2 293/83/2
f 293/83/2 297/85/2 301/99/2
f 301/99/2 305/68/2 309/96/2
f 309/96/2 317/126/2 325/130/2
f 325/130/2 333/134/2 341/138/2
f 341/138/2 285/115/2 293/83/2
f 293/83/2 301/99/2 309/96/2
f 309/96/2 325/130/2 341/138/2
f 288/168/1 292/172/66 290/169/66
f 348/170/79 288/168/1 286/143/1
f 327/130/56 323/128/56 319/126/56
f 319/126/56 315/123/56 311/96/56
f 311/96/56 307/68/56 303/99/56
f 303/99/56 299/85/56 295/83/56
f 295/83/56 291/40/56 287/115/56
f 287/115/56 347/139/56 343/138/56
f 343/138/56 339/136/56 335/134/56
f 335/134/56 331/131/56 327/130/56
f 327/130/56 319/126/56 311/96/56
f 311/96/56 303/99/56 295/83/56
f 295/83/56 287/115/56 343/138/56
f 343/138/56 335/134/56 327/130/56
f 327/130/56 311/96/56 295/83/56
f 292/172/66 296/174/67 294/173/67
f 296/174/67 300/172/68 298/169/68
f 300/172/68 304/168/69 302/143/69
f 304/168/69 308/170/70 306/171/70
f 308/170/70 312/176/71 310/175/71
f 312/174/71 316/172/72 314/169/72
f 316/172/72 320/168/61 318/143/61
f 320/168/61 324/170/73 322/171/73
f 324/170/73 328/176/74 326/175/74
f 328/176/74 332/170/75 330/171/75
f 332/170/75 336/168/76 334/143/76
f 336/168/76 340/172/77 338/169/77
f 340/172/77 344/174/78 342/173/78
f 344/176/78 348/170/79 346/171/79
