# Blender 5.2.0 LTS
# www.blender.org
o Backdrop_BeachFlags_Detail
v 26.091789 29.805408 2.950138
v 29.284098 29.805408 3.678762
v 31.844133 29.805408 1.637202
v 31.844133 29.805408 -1.637202
v 18.980679 28.500000 2.950138
v 22.172987 28.500000 3.678762
v 29.284098 29.805408 -3.678762
v 24.733023 28.500000 1.637202
v 24.671078 29.805408 -0.000000
v 26.091789 29.805408 -2.950138
v -31.795813 40.400002 0.195812
v -31.795813 40.195812 0.400000
v 24.733023 28.500000 -1.637202
v 11.869565 27.435822 2.950138
v 15.061875 27.435822 3.678762
v 17.559967 28.500000 -0.000000
v 17.621910 27.435822 1.637203
v 18.980679 28.500000 -2.950138
v 22.172987 28.500000 -3.678762
v 17.621910 27.435822 -1.637202
v 4.758454 26.741230 2.950138
v 7.950764 26.741230 3.678762
v 10.448853 27.435822 -0.000000
v 10.510798 26.741230 1.637204
v 11.869565 27.435822 -2.950138
v 15.061876 27.435822 -3.678762
v 10.510798 26.741230 -1.637203
v -2.352657 26.500000 2.950138
v 0.839653 26.500000 3.678762
v 7.950765 26.741230 -3.678762
v 3.399687 26.500000 1.637204
v 3.337743 26.741230 -0.000000
v 4.758455 26.741230 -2.950138
v 3.399688 26.500000 -1.637203
v -9.463768 26.741230 2.950138
v -6.271459 26.741230 3.678762
v -3.773368 26.500000 -0.000000
v -3.711424 26.741230 1.637204
v -2.352657 26.500000 -2.950138
v 0.839654 26.500000 -3.678762
v -3.711424 26.741230 -1.637203
v -16.574881 27.435822 2.950138
v -13.382569 27.435822 3.678762
v -10.884479 26.741230 -0.000001
v -10.822536 27.435822 1.637204
v -9.463768 26.741230 -2.950138
v -6.271457 26.741230 -3.678762
v -10.822536 27.435822 -1.637203
v -23.685989 28.500000 2.950138
v -20.493681 28.500000 3.678762
v -13.382568 27.435822 -3.678762
v -17.933645 28.500000 1.637202
v -17.995590 27.435822 -0.000000
v -16.574877 27.435822 -2.950138
v -17.933645 28.500000 -1.637202
v -30.797102 29.805408 2.950138
v -27.604792 29.805408 3.678762
v -20.493681 28.500000 -3.678762
v -25.044756 29.805408 1.637202
v -25.106701 28.500000 -0.000000
v -23.685989 28.500000 -2.950138
v 31.483437 42.000000 -1.072658
v 31.392563 41.795811 -1.261356
v -32.217812 29.805408 -0.000000
v 31.483437 0.000000 -1.072658
v 31.392563 0.204188 -1.261356
v 31.069181 42.000000 -0.742302
v 30.905436 41.795811 -0.872886
v 31.069181 0.000000 -0.742302
v 30.905436 0.204188 -0.872886
v -32.000000 39.804188 0.195812
v 30.839289 42.000000 -0.264923
v 30.635101 41.795811 -0.311529
v 30.839289 0.000000 -0.264923
v 30.635101 0.204188 -0.311529
v -32.000000 40.195812 0.195812
v 30.839289 42.000000 0.264923
v 30.635101 41.795811 0.311529
v 30.839289 0.000000 0.264923
v 30.635101 0.204188 0.311529
v -32.000000 40.195812 -0.195812
v -32.000000 39.804188 -0.195812
v 31.069181 42.000000 0.742302
v 30.905436 41.795811 0.872886
v 30.905436 0.204188 0.872886
v -31.795813 39.804188 -0.400000
v -31.795813 39.599998 -0.195812
v 31.483437 42.000000 1.072658
v 31.392563 41.795811 1.261356
v 31.069181 0.000000 0.742302
v 31.483437 0.000000 1.072658
v 31.392563 0.204188 1.261356
v -31.795813 40.195812 -0.400000
v -31.795813 40.400002 -0.195812
v 32.000000 42.000000 1.190561
v 32.000000 41.795811 1.400000
v 32.000000 0.000000 1.190561
v 32.000000 0.204188 1.400000
v 31.795813 40.195812 -0.400000
v 31.795813 39.804188 -0.400000
v 32.516567 42.000000 1.072657
v 32.607437 41.795811 1.261356
v -30.797102 29.805408 -2.950138
v 32.516567 0.000000 1.072657
v 32.607437 0.204188 1.261356
v 32.000000 39.804188 -0.195812
v 31.795813 39.599998 -0.195812
v -32.516567 42.000000 -1.072657
v -32.607437 41.795811 -1.261356
v -32.516567 0.000000 -1.072657
v -32.607437 0.204188 -1.261356
v -32.930813 42.000000 -0.742305
v -33.094563 41.795811 -0.872886
v -32.930813 0.000000 -0.742305
v -33.094563 0.204188 -0.872886
v -33.160709 42.000000 -0.264926
v -33.364899 41.795811 -0.311529
v 32.000000 0.000000 -1.190561
v 32.000000 0.204188 -1.400000
v -33.160709 0.000000 -0.264926
v -33.364899 0.204188 -0.311529
v -33.160709 42.000000 0.264926
v -33.364899 41.795811 0.311529
v -33.160709 0.000000 0.264926
v -33.364899 0.204188 0.311529
v -32.930813 42.000000 0.742305
v -33.094563 41.795811 0.872886
v -27.604792 29.805408 -3.678762
v -25.044756 29.805408 -1.637202
v -32.930813 0.000000 0.742305
v -33.094563 0.204188 0.872886
v 32.000000 39.804188 0.195812
v -32.516567 42.000000 1.072657
v -32.607437 41.795811 1.261356
v 32.000000 42.000000 -1.190561
v 32.000000 41.795811 -1.400000
v -32.516567 0.000000 1.072657
v -32.607437 0.204188 1.261356
v -32.000000 40.195812 0.195812
v -31.795813 39.599998 0.195812
v -31.795813 39.804188 0.400000
v -32.000000 39.804188 0.195812
v -32.000000 0.000000 -1.190561
v -32.000000 0.204188 -1.400000
v -32.000000 42.000000 -1.190561
v -32.000000 41.795811 -1.400000
v -31.483437 0.000000 -1.072658
v -31.392563 0.204188 -1.261356
v -31.483437 42.000000 -1.072658
v -31.392563 41.795811 -1.261356
v -31.069181 0.000000 -0.742302
v -30.905436 0.204188 -0.872886
v -31.069181 42.000000 -0.742302
v -30.905436 41.795811 -0.872886
v -30.839289 0.000000 -0.264923
v -30.635101 0.204188 -0.311529
v -30.839289 42.000000 -0.264923
v -30.635101 41.795811 -0.311529
v -30.839289 0.000000 0.264923
v -30.635101 0.204188 0.311529
v -30.839289 42.000000 0.264923
v -30.635101 41.795811 0.311529
v -31.069181 0.000000 0.742302
v -30.905436 0.204188 0.872886
v -31.069181 42.000000 0.742302
v -30.905436 41.795811 0.872886
v -31.483437 0.000000 1.072658
v -31.392563 0.204188 1.261356
v -31.483437 42.000000 1.072658
v -31.392563 41.795811 1.261356
v -32.000000 0.000000 1.190561
v -32.000000 0.204188 1.400000
v -32.000000 42.000000 1.190561
v -32.000000 41.795811 1.400000
v -32.516567 0.000000 1.072657
v -32.607437 0.204188 1.261356
v -32.516567 42.000000 1.072657
v -32.607437 41.795811 1.261356
v -32.930813 0.000000 0.742305
v -33.094563 0.204188 0.872886
v -32.930813 42.000000 0.742305
v -33.094563 41.795811 0.872886
v -33.160709 0.000000 0.264926
v -33.364899 0.204188 0.311529
v -33.160709 42.000000 0.264926
v -33.364899 41.795811 0.311529
v -33.160709 0.000000 -0.264926
v -33.364899 0.204188 -0.311529
v -33.160709 42.000000 -0.264926
v -33.364899 41.795811 -0.311529
v -32.930813 0.000000 -0.742305
v -33.094563 0.204188 -0.872886
v -32.930813 42.000000 -0.742305
v -33.094563 41.795811 -0.872886
v -32.516567 0.000000 -1.072657
v -32.607437 0.204188 -1.261356
v -32.516567 42.000000 -1.072657
v -32.607437 41.795811 -1.261356
v 32.000000 0.000000 -1.190561
v 32.000000 0.204188 -1.400000
v 32.000000 42.000000 -1.190561
v 32.000000 41.795811 -1.400000
v 32.516567 0.000000 -1.072657
v 32.607437 0.204188 -1.261356
v 32.516567 42.000000 -1.072657
v 32.607437 41.795811 -1.261356
v 32.930813 0.000000 -0.742305
v 33.094563 0.204188 -0.872886
v 32.930813 42.000000 -0.742305
v 33.094563 41.795811 -0.872886
v 33.160709 0.000000 -0.264926
v 33.364899 0.204188 -0.311529
v 33.160709 42.000000 -0.264926
v 33.364899 41.795811 -0.311529
v 33.160709 0.000000 0.264926
v 33.364899 0.204188 0.311529
v 33.160709 42.000000 0.264926
v 33.364899 41.795811 0.311529
v 32.930813 0.000000 0.742305
v 33.094563 0.204188 0.872886
v 32.930813 42.000000 0.742305
v 33.094563 41.795811 0.872886
v 32.516567 0.000000 1.072657
v 32.607437 0.204188 1.261356
v 32.516567 42.000000 1.072657
v 32.607437 41.795811 1.261356
v 32.000000 0.000000 1.190561
v 32.000000 0.204188 1.400000
v 32.000000 42.000000 1.190561
v 32.000000 41.795811 1.400000
v 31.483437 0.000000 1.072658
v 31.392563 0.204188 1.261356
v 31.483437 42.000000 1.072658
v 31.392563 41.795811 1.261356
v 31.069181 0.000000 0.742302
v 30.905436 0.204188 0.872886
v 31.069181 42.000000 0.742302
v 30.905436 41.795811 0.872886
v 30.839289 0.000000 0.264923
v 30.635101 0.204188 0.311529
v 30.839289 42.000000 0.264923
v 30.635101 41.795811 0.311529
v 30.839289 0.000000 -0.264923
v 30.635101 0.204188 -0.311529
v 30.839289 42.000000 -0.264923
v 30.635101 41.795811 -0.311529
v 31.069181 0.000000 -0.742302
v 30.905436 0.204188 -0.872886
v 31.069181 42.000000 -0.742302
v 30.905436 41.795811 -0.872886
v 31.483437 0.000000 -1.072658
v 31.392563 0.204188 -1.261356
v 31.483437 42.000000 -1.072658
v 31.392563 41.795811 -1.261356
v -31.795813 39.599998 -0.195812
v -32.000000 39.804188 -0.195812
v -31.795813 39.804188 -0.400000
v -31.795813 40.400002 -0.195812
v -31.795813 40.195812 -0.400000
v -32.000000 40.195812 -0.195812
v 31.795813 39.599998 0.195812
v 32.000000 39.804188 0.195812
v 31.795813 39.804188 0.400000
v 31.795813 40.400002 0.195812
v 31.795813 40.195812 0.400000
v 32.000000 40.195812 0.195812
v 31.795813 39.599998 -0.195812
v 31.795813 39.804188 -0.400000
v 32.000000 39.804188 -0.195812
v 31.795813 40.400002 -0.195812
v 32.000000 40.195812 -0.195812
v 31.795813 40.195812 -0.400000
v -32.217812 29.805408 -0.000000
v -32.277836 29.997503 0.186402
v -32.277840 29.997503 -0.186403
v -28.617811 38.805408 -0.000000
v 33.160709 0.000000 -0.264926
v -28.831516 38.613316 0.186403
v -30.797102 29.805408 -2.950138
v -30.980263 29.997503 -2.880849
v -30.688791 29.997503 -3.113289
v -28.552538 38.805408 -0.135545
v 33.364899 0.204188 -0.311529
v -28.831514 38.613316 -0.186403
v -27.604792 29.805408 -3.678762
v -27.773165 29.997503 -3.778762
v -27.409706 29.997503 -3.695805
v -28.405867 38.805408 -0.169021
v -32.000000 42.000000 1.190561
v -28.540043 38.613316 -0.418845
v -25.044756 29.805408 -1.637202
v -25.071550 29.997503 -1.831191
v -24.909798 29.997503 -1.495304
v -28.288244 38.805408 -0.075221
v -32.000000 41.795811 1.400000
v -28.176582 38.613316 -0.335887
v -25.044756 29.805408 1.637202
v -24.909798 29.997503 1.495305
v -25.071550 29.997503 1.831191
v -28.288244 38.805408 0.075221
v -32.000000 0.000000 1.190561
v -28.014828 38.613316 0.000000
v -27.604792 29.805408 3.678762
v -27.409706 29.997503 3.695806
v -27.773165 29.997503 3.778762
v -28.405867 38.805408 0.169021
v -32.000000 0.204188 1.400000
v -28.176582 38.613316 0.335887
v -30.797102 29.805408 2.950138
v -30.688791 29.997503 3.113289
v -30.980263 29.997503 2.880848
v -28.552538 38.805408 0.135545
v -31.483437 42.000000 1.072658
v -28.540043 38.613316 0.418845
v -25.106701 28.500000 -0.000000
v -25.166729 28.692095 0.186403
v -25.166729 28.692095 -0.186403
v -21.506701 37.500000 -0.000000
v -31.392563 41.795811 1.261356
v -21.720406 37.307907 0.186403
v -23.685989 28.500000 -2.950138
v -23.869154 28.692095 -2.880849
v -23.577681 28.692095 -3.113289
v -21.441427 37.500000 -0.135545
v -31.483437 0.000000 1.072658
v -21.720404 37.307907 -0.186403
v -20.493681 28.500000 -3.678762
v -20.662054 28.692095 -3.778762
v -20.298595 28.692095 -3.695805
v -21.294756 37.500000 -0.169021
v -31.392563 0.204188 1.261356
v -21.428932 37.307907 -0.418845
v -17.933645 28.500000 -1.637202
v -17.960440 28.692095 -1.831191
v -17.798687 28.692095 -1.495304
v -21.177134 37.500000 -0.075221
v 33.160709 42.000000 -0.264926
v -21.065472 37.307907 -0.335887
v -17.933645 28.500000 1.637202
v -17.798687 28.692095 1.495305
v -17.960440 28.692095 1.831191
v -21.177134 37.500000 0.075221
v 33.364899 41.795811 -0.311529
v -20.903717 37.307907 0.000000
v -20.493681 28.500000 3.678762
v -20.298595 28.692095 3.695806
v -20.662054 28.692095 3.778762
v -21.294756 37.500000 0.169021
v -31.069181 42.000000 0.742302
v -21.065472 37.307907 0.335887
v -23.685989 28.500000 2.950138
v -23.577681 28.692095 3.113289
v -23.869152 28.692095 2.880848
v -21.441427 37.500000 0.135545
v -30.905436 41.795811 0.872886
v -21.428932 37.307907 0.418845
v -17.995590 27.435822 -0.000000
v -18.055616 27.627916 0.186403
v -18.055616 27.627916 -0.186403
v -14.395590 36.435822 -0.000000
v 31.795813 40.195812 0.400000
v -14.609293 36.243729 0.186403
v -16.574877 27.435822 -2.950138
v -16.758041 27.627916 -2.880849
v -16.466568 27.627916 -3.113289
v -14.330316 36.435822 -0.135545
v -31.795813 40.195812 0.400000
v -14.609293 36.243729 -0.186403
v -13.382568 27.435822 -3.678762
v -13.550941 27.627916 -3.778763
v -13.187482 27.627916 -3.695805
v -14.183644 36.435822 -0.169022
v -31.795813 40.400002 0.195812
v -14.317822 36.243729 -0.418845
v -10.822536 27.435822 -1.637203
v -10.849331 27.627916 -1.831191
v -10.687576 27.627916 -1.495304
v -14.066023 36.435822 -0.075222
v -31.069181 0.000000 0.742302
v -13.954361 36.243729 -0.335887
v -10.822536 27.435822 1.637204
v -10.687575 27.627916 1.495305
v -10.849331 27.627916 1.831191
v -14.066023 36.435822 0.075222
v -30.905436 0.204188 0.872886
v -13.792606 36.243729 0.000000
v -13.382569 27.435822 3.678762
v -13.187483 27.627916 3.695806
v -13.550942 27.627916 3.778762
v -14.183644 36.435822 0.169022
v -30.839289 42.000000 0.264923
v -13.954361 36.243729 0.335887
v -16.574881 27.435822 2.950138
v -16.466570 27.627916 3.113289
v -16.758041 27.627916 2.880848
v -14.330316 36.435822 0.135545
v -30.635101 41.795811 0.311529
v -14.317822 36.243729 0.418845
v -10.884479 26.741230 -0.000001
v -10.944507 26.933325 0.186403
v -10.944506 26.933325 -0.186403
v -7.284480 35.741230 -0.000000
v 32.516567 0.000000 -1.072657
v -7.498182 35.549137 0.186403
v -9.463768 26.741230 -2.950138
v -9.646930 26.933325 -2.880849
v -9.355457 26.933325 -3.113289
v -7.219204 35.741230 -0.135545
v 32.930813 0.000000 -0.742305
v -7.498182 35.549137 -0.186403
v -6.271457 26.741230 -3.678762
v -6.439829 26.933325 -3.778763
v -6.076370 26.933325 -3.695805
v -7.072533 35.741230 -0.169022
v 33.094563 0.204188 -0.872886
v -7.206710 35.549137 -0.418845
v -3.711424 26.741230 -1.637203
v -3.738219 26.933325 -1.831191
v -3.576464 26.933325 -1.495304
v -6.954912 35.741230 -0.075221
v 32.607437 0.204188 -1.261356
v -6.843250 35.549137 -0.335887
v -3.711424 26.741230 1.637204
v -3.576464 26.933325 1.495305
v -3.738219 26.933325 1.831191
v -6.954912 35.741230 0.075222
v -30.839289 0.000000 0.264923
v -6.681496 35.549137 0.000000
v -6.271459 26.741230 3.678762
v -6.076371 26.933325 3.695805
v -6.439830 26.933325 3.778762
v -7.072533 35.741230 0.169022
v -30.635101 0.204188 0.311529
v -6.843250 35.549137 0.335887
v -9.463768 26.741230 2.950138
v -9.355458 26.933325 3.113289
v -9.646930 26.933325 2.880848
v -7.219204 35.741230 0.135545
v 32.000000 40.195812 -0.195812
v -7.206710 35.549137 0.418845
v -3.773368 26.500000 -0.000000
v -3.833395 26.692095 0.186403
v -3.833395 26.692095 -0.186403
v -0.173368 35.500000 0.000000
v 32.000000 40.195812 0.195812
v -0.387071 35.307907 0.186403
v -2.352657 26.500000 -2.950138
v -2.535819 26.692095 -2.880849
v -2.244347 26.692095 -3.113289
v -0.108093 35.500000 -0.135545
v 31.795813 40.400002 0.195812
v -0.387071 35.307907 -0.186403
v 0.839654 26.500000 -3.678762
v 0.671281 26.692095 -3.778763
v 1.034741 26.692095 -3.695805
v 0.038578 35.500000 -0.169022
v 31.795813 40.400002 -0.195812
v -0.095599 35.307907 -0.418845
v 3.399688 26.500000 -1.637203
v 3.372893 26.692095 -1.831191
v 3.534647 26.692095 -1.495304
v 0.156199 35.500000 -0.075222
v -30.839289 42.000000 -0.264923
v 0.267861 35.307907 -0.335887
v 3.399687 26.500000 1.637204
v 3.534647 26.692095 1.495305
v 3.372892 26.692095 1.831191
v 0.156199 35.500000 0.075222
v -30.635101 41.795811 -0.311529
v 0.429616 35.307907 0.000000
v 0.839653 26.500000 3.678762
v 1.034740 26.692095 3.695805
v 0.671281 26.692095 3.778762
v 0.038578 35.500000 0.169022
v -30.839289 0.000000 -0.264923
v 0.267861 35.307907 0.335887
v -2.352657 26.500000 2.950138
v -2.244347 26.692095 3.113289
v -2.535819 26.692095 2.880848
v -0.108093 35.500000 0.135545
v -30.635101 0.204188 -0.311529
v -0.095599 35.307907 0.418845
v 3.337743 26.741230 -0.000000
v 3.277716 26.933325 0.186403
v 3.277716 26.933325 -0.186403
v 6.937743 35.741230 -0.000000
v 33.160709 0.000000 0.264926
v 6.724041 35.549137 0.186403
v 4.758455 26.741230 -2.950138
v 4.575293 26.933325 -2.880849
v 4.866765 26.933325 -3.113289
v 7.003018 35.741230 -0.135545
v 32.930813 0.000000 0.742305
v 6.724041 35.549137 -0.186403
v 7.950765 26.741230 -3.678762
v 7.782393 26.933325 -3.778763
v 8.145851 26.933325 -3.695805
v 7.149689 35.741230 -0.169022
v 33.094563 0.204188 0.872886
v 7.015512 35.549137 -0.418845
v 10.510798 26.741230 -1.637203
v 10.484003 26.933325 -1.831191
v 10.645758 26.933325 -1.495304
v 7.267311 35.741230 -0.075221
v 33.364899 0.204188 0.311529
v 7.378972 35.549137 -0.335887
v 10.510798 26.741230 1.637204
v 10.645759 26.933325 1.495305
v 10.484003 26.933325 1.831191
v 7.267311 35.741230 0.075222
v -31.069181 42.000000 -0.742302
v 7.540727 35.549137 0.000000
v 7.950764 26.741230 3.678762
v 8.145851 26.933325 3.695805
v 7.782393 26.933325 3.778762
v 7.149689 35.741230 0.169022
v -30.905436 41.795811 -0.872886
v 7.378972 35.549137 0.335887
v 4.758454 26.741230 2.950138
v 4.866764 26.933325 3.113289
v 4.575292 26.933325 2.880848
v 7.003018 35.741230 0.135545
v 32.930813 42.000000 -0.742305
v 7.015512 35.549137 0.418845
v 10.448853 27.435822 -0.000000
v 10.388826 27.627916 0.186403
v 10.388827 27.627916 -0.186403
v 14.048855 36.435822 -0.000000
v 32.516567 42.000000 -1.072657
v 13.835152 36.243729 0.186403
v 11.869565 27.435822 -2.950138
v 11.686403 27.627916 -2.880849
v 11.977876 27.627916 -3.113289
v 14.114129 36.435822 -0.135545
v 32.607437 41.795811 -1.261356
v 13.835152 36.243729 -0.186403
v 15.061876 27.435822 -3.678762
v 14.893503 27.627916 -3.778763
v 15.256963 27.627916 -3.695805
v 14.260800 36.435822 -0.169022
v 33.094563 41.795811 -0.872886
v 14.126623 36.243729 -0.418845
v 17.621910 27.435822 -1.637202
v 17.595116 27.627916 -1.831191
v 17.756868 27.627916 -1.495304
v 14.378422 36.435822 -0.075222
v -31.069181 0.000000 -0.742302
v 14.490084 36.243729 -0.335887
v 17.621910 27.435822 1.637203
v 17.756868 27.627916 1.495305
v 17.595116 27.627916 1.831191
v 14.378422 36.435822 0.075222
v -30.905436 0.204188 -0.872886
v 14.651838 36.243729 0.000000
v 15.061875 27.435822 3.678762
v 15.256962 27.627916 3.695806
v 14.893502 27.627916 3.778762
v 14.260800 36.435822 0.169022
v -31.483437 42.000000 -1.072658
v 14.490084 36.243729 0.335887
v 11.869565 27.435822 2.950138
v 11.977876 27.627916 3.113289
v 11.686404 27.627916 2.880848
v 14.114129 36.435822 0.135545
v -32.000000 42.000000 -1.190561
v 14.126623 36.243729 0.418845
v 17.559967 28.500000 -0.000000
v 17.499939 28.692095 0.186403
v 17.499939 28.692095 -0.186403
v 21.159967 37.500000 -0.000000
v -32.000000 41.795811 -1.400000
v 20.946262 37.307907 0.186403
v 18.980679 28.500000 -2.950138
v 18.797514 28.692095 -2.880849
v 19.088987 28.692095 -3.113289
v 21.225241 37.500000 -0.135545
v -31.392563 41.795811 -1.261356
v 20.946264 37.307907 -0.186403
v 22.172987 28.500000 -3.678762
v 22.004614 28.692095 -3.778762
v 22.368073 28.692095 -3.695805
v 21.371912 37.500000 -0.169021
v -31.795813 39.804188 0.400000
v 21.237736 37.307907 -0.418845
v 24.733023 28.500000 -1.637202
v 24.706228 28.692095 -1.831191
v 24.867981 28.692095 -1.495304
v 21.489534 37.500000 -0.075221
v 31.795813 39.804188 0.400000
v 21.601196 37.307907 -0.335887
v 24.733023 28.500000 1.637202
v 24.867981 28.692095 1.495305
v 24.706228 28.692095 1.831191
v 21.489534 37.500000 0.075221
v 31.795813 39.599998 0.195812
v 21.762951 37.307907 0.000000
v 22.172987 28.500000 3.678762
v 22.368073 28.692095 3.695806
v 22.004614 28.692095 3.778762
v 21.371912 37.500000 0.169021
v -31.795813 39.599998 0.195812
v 21.601196 37.307907 0.335887
v 18.980679 28.500000 2.950138
v 19.088987 28.692095 3.113289
v 18.797516 28.692095 2.880848
v 21.225241 37.500000 0.135545
v -32.000000 0.000000 -1.190561
v 21.237736 37.307907 0.418845
v 24.671078 29.805408 -0.000000
v 24.611050 29.997503 0.186403
v 24.611050 29.997503 -0.186403
v 28.271078 38.805408 -0.000000
v -31.483437 0.000000 -1.072658
v 28.057373 38.613316 0.186403
v 26.091789 29.805408 -2.950138
v 25.908627 29.997503 -2.880849
v 26.200098 29.997503 -3.113289
v 28.336351 38.805408 -0.135545
v -31.392563 0.204188 -1.261356
v 28.057375 38.613316 -0.186403
v 29.284098 29.805408 -3.678762
v 29.115725 29.997503 -3.778762
v 29.479183 29.997503 -3.695805
v 28.483023 38.805408 -0.169021
v -32.000000 0.204188 -1.400000
v 28.348846 38.613316 -0.418845
v 31.844133 29.805408 -1.637202
v 31.817339 29.997503 -1.831191
v 31.979092 29.997503 -1.495304
v 28.600645 38.805408 -0.075221
v 32.930813 42.000000 0.742305
v 28.712307 38.613316 -0.335887
v 31.844133 29.805408 1.637202
v 31.979092 29.997503 1.495305
v 31.817339 29.997503 1.831191
v 28.600645 38.805408 0.075221
v 33.160709 42.000000 0.264926
v 28.874062 38.613316 0.000000
v 29.284098 29.805408 3.678762
v 29.479183 29.997503 3.695806
v 29.115725 29.997503 3.778762
v 28.483023 38.805408 0.169021
v 33.364899 41.795811 0.311529
v 28.712307 38.613316 0.335887
v 26.091789 29.805408 2.950138
v 26.200098 29.997503 3.113289
v 25.908627 29.997503 2.880848
v 28.336351 38.805408 0.135545
v 33.094563 41.795811 0.872886
v 28.348846 38.613316 0.418845
vn -0.5456 -0.4840 0.6841
vn 0.1947 -0.4840 0.8531
vn 0.7884 -0.4840 0.3797
vn 0.7884 -0.4840 -0.3797
vn 0.1947 -0.4840 -0.8531
vn -0.8751 -0.4840 -0.0000
vn -0.5456 -0.4840 -0.6841
vn -0.0000 1.0000 -0.0000
vn -0.0000 -0.0000 1.0000
vn -0.8750 -0.4840 -0.0000
vn -0.3029 0.7160 -0.6289
vn -0.3029 -0.7160 -0.6289
vn -0.5458 0.7160 -0.4352
vn -0.5458 -0.7160 -0.4352
vn -0.7588 -0.4606 0.4606
vn -0.6806 0.7160 -0.1553
vn -0.6806 -0.7160 -0.1553
vn -0.7588 0.4606 0.4606
vn -0.6806 0.7160 0.1553
vn -0.6806 -0.7160 0.1553
vn -0.7588 0.4606 -0.4606
vn -0.7588 -0.4606 -0.4606
vn -0.5458 0.7160 0.4352
vn -0.5458 -0.7160 0.4352
vn -0.4606 -0.4606 -0.7588
vn -0.4606 -0.7588 -0.4606
vn -0.3029 0.7160 0.6289
vn -0.3029 -0.7160 0.6289
vn -0.4606 0.4606 -0.7588
vn -0.4606 0.7588 -0.4606
vn -0.0000 0.7160 0.6981
vn -0.0000 -0.7160 0.6981
vn 0.4606 0.4606 -0.7588
vn 0.4606 -0.4606 -0.7588
vn 0.3029 0.7160 0.6289
vn 0.3029 -0.7160 0.6289
vn 0.7588 -0.4606 -0.4606
vn 0.4606 -0.7588 -0.4606
vn -0.0000 -0.7160 -0.6981
vn 0.7588 -0.4606 0.4606
vn -0.0000 0.7160 -0.6981
vn -1.0000 -0.0000 -0.0000
vn -0.0000 -1.0000 -0.0000
vn -0.0000 -0.0000 -1.0000
vn 0.4339 -0.0000 -0.9010
vn 0.7818 -0.0000 -0.6235
vn 0.9749 -0.0000 -0.2225
vn 0.9749 -0.0000 0.2225
vn 0.7818 -0.0000 0.6235
vn 0.4339 -0.0000 0.9010
vn -0.4339 -0.0000 0.9010
vn -0.7818 -0.0000 0.6235
vn -0.9749 -0.0000 0.2225
vn -0.9749 -0.0000 -0.2225
vn -0.7818 -0.0000 -0.6235
vn -0.4339 -0.0000 -0.9010
vn 1.0000 -0.0000 -0.0000
vn -0.9637 -0.0772 0.2556
vn -0.9637 -0.0772 -0.2556
vn -0.3780 0.9258 -0.0000
vn 0.6806 -0.7160 -0.1553
vn -0.7342 0.5796 0.3536
vn -0.8007 -0.0772 -0.5940
vn -0.4010 -0.0772 -0.9128
vn -0.2357 0.9258 -0.2955
vn -0.7342 0.5796 -0.3536
vn -0.0348 -0.0772 -0.9964
vn 0.4637 -0.0772 -0.8826
vn 0.0841 0.9258 -0.3685
vn -0.1813 0.5796 -0.7945
vn 0.7573 -0.0772 -0.6485
vn 0.9792 -0.0772 -0.1878
vn 0.3405 0.9258 -0.1640
vn 0.5081 0.5796 -0.6371
vn 0.9792 -0.0772 0.1878
vn 0.7573 -0.0772 0.6485
vn 0.3406 0.9258 0.1640
vn 0.8149 0.5796 -0.0000
vn 0.4637 -0.0772 0.8826
vn -0.0348 -0.0772 0.9964
vn 0.0841 0.9258 0.3685
vn 0.5081 0.5796 0.6371
vn -0.4010 -0.0772 0.9128
vn -0.8007 -0.0772 0.5940
vn -0.2357 0.9258 0.2955
vn -0.1813 0.5796 0.7945
vn 0.6806 0.7160 -0.1553
vn 0.5458 0.7160 0.4352
vn 0.4606 0.4606 0.7588
vn -0.4606 0.4606 0.7588
vn -0.4606 0.7588 0.4606
vn 0.3406 0.9258 -0.1640
vn 0.5458 -0.7160 0.4352
vn 0.6806 0.7160 0.1553
vn 0.3029 -0.7160 -0.6289
vn 0.5458 -0.7160 -0.4352
vn 0.3405 0.9258 0.1640
vn 0.6806 -0.7160 0.1553
vn 0.7588 0.4606 -0.4606
vn 0.7588 0.4606 0.4606
vn 0.4606 0.7588 0.4606
vn 0.4606 0.7588 -0.4606
vn 0.5458 0.7160 -0.4352
vn -0.9637 -0.0772 -0.2557
vn 0.3029 0.7160 -0.6289
vn -0.4606 -0.4606 0.7588
vn 0.4606 -0.4606 0.7588
vn 0.4606 -0.7588 0.4606
vn -0.4606 -0.7588 0.4606
vt 0.000000 1.490270
vt -0.009320 1.499875
vt 0.009320 1.499875
vt -0.009791 2.020000
vt -0.020000 2.009791
vt -0.009791 2.009791
vt 0.009791 1.980000
vt 0.009791 1.990209
vt 0.020000 1.990209
vt -1.430891 0.000000
vt -1.441576 0.009320
vt -1.441576 -0.009320
vt -1.380240 1.490270
vt -1.388658 1.499875
vt -1.370485 1.499875
vt 0.009791 2.020000
vt 0.020000 2.009791
vt 0.009791 2.009791
vt -1.427627 0.006777
vt -1.427002 0.020942
vt -0.009791 1.980000
vt -0.009791 1.990209
vt -0.020000 1.990209
vt -1.539855 1.490270
vt -1.549013 1.499875
vt -1.534440 1.499875
vt -1.420293 0.008451
vt -1.408829 0.016794
vt 0.081860 1.490270
vt 0.091560 1.499875
vt 0.074765 1.499875
vt -1.414412 0.003761
vt -1.400741 -0.000000
vt -0.081860 1.490270
vt -0.074765 1.499875
vt -0.091560 1.499875
vt -1.414412 -0.003761
vt -1.408829 -0.016794
vt -1.420293 -0.008451
vt -1.427002 -0.020942
vt -1.427627 -0.006777
vt 0.000000 1.425000
vt -0.009320 1.434605
vt 0.009320 1.434605
vt -1.075335 0.000000
vt -1.086020 0.009320
vt -1.086020 -0.009320
vt -1.184299 1.425000
vt -1.193458 1.434605
vt -1.178884 1.434605
vt -1.072071 0.006777
vt -1.071447 0.020942
vt -1.024684 1.425000
vt -1.033103 1.434605
vt -1.014930 1.434605
vt -1.064738 0.008451
vt -1.053274 0.016794
vt 0.081860 1.425000
vt 0.091560 1.434605
vt 0.074765 1.434605
vt -1.058857 0.003761
vt -1.045186 -0.000000
vt -0.081860 1.425000
vt -0.074765 1.434605
vt -0.091560 1.434605
vt -1.058857 -0.003761
vt -1.053274 -0.016794
vt -1.064738 -0.008451
vt -1.071447 -0.020942
vt -1.193458 1.434605
vt -1.072071 -0.006777
vt 0.000000 1.371791
vt -0.009320 1.381396
vt 0.009320 1.381396
vt -0.719779 0.000000
vt -0.730465 0.009320
vt -0.730465 -0.009320
vt -0.828744 1.371791
vt -0.837902 1.381396
vt -0.823328 1.381396
vt -0.716516 0.006777
vt -0.715891 0.020942
vt -0.669128 1.371791
vt -0.677547 1.381396
vt -0.659374 1.381396
vt -0.709182 0.008451
vt -0.697718 0.016794
vt 0.081860 1.371791
vt 0.091560 1.381396
vt 0.074765 1.381396
vt -0.703301 0.003761
vt -0.689630 -0.000000
vt -0.081860 1.371791
vt -0.074765 1.381396
vt -0.091560 1.381396
vt -0.703301 -0.003761
vt -0.697718 -0.016794
vt -0.669128 1.371791
vt -0.709182 -0.008451
vt -0.715891 -0.020942
vt -0.828744 1.371791
vt -0.823328 1.381396
vt -0.716516 -0.006777
vt 0.000000 1.337062
vt -0.009320 1.346666
vt 0.009320 1.346666
vt -0.364224 0.000000
vt -0.374909 0.009320
vt -0.374909 -0.009320
vt -0.473188 1.337062
vt -0.482346 1.346666
vt -0.467773 1.346666
vt -0.360960 0.006777
vt -0.360335 0.020942
vt -0.313573 1.337062
vt -0.321991 1.346666
vt -0.303819 1.346666
vt -0.353627 0.008451
vt -0.342163 0.016794
vt 0.081860 1.337062
vt 0.091560 1.346666
vt 0.074765 1.346666
vt -0.347746 0.003761
vt -0.334075 -0.000000
vt -0.081860 1.337062
vt -0.074765 1.346666
vt -0.091560 1.346666
vt -0.347746 -0.003761
vt -0.342163 -0.016794
vt -0.313573 1.337062
vt -0.303819 1.346666
vt -0.321992 1.346666
vt -0.353627 -0.008451
vt -0.360335 -0.020942
vt -0.467773 1.346666
vt -0.360960 -0.006777
vt 0.000000 1.325000
vt -0.009320 1.334605
vt 0.009320 1.334605
vt -0.008668 0.000000
vt -0.019354 0.009320
vt -0.019354 -0.009320
vt -0.117633 1.325000
vt -0.126791 1.334605
vt -0.112217 1.334605
vt -0.005405 0.006777
vt -0.004780 0.020942
vt 0.041983 1.325000
vt 0.033564 1.334605
vt 0.051737 1.334605
vt 0.001929 0.008451
vt 0.013393 0.016794
vt 0.081860 1.325000
vt 0.091560 1.334605
vt 0.074765 1.334605
vt 0.007810 0.003761
vt 0.021481 -0.000000
vt -0.081860 1.325000
vt -0.074765 1.334605
vt -0.091560 1.334605
vt 0.007810 -0.003761
vt 0.013393 -0.016794
vt 0.041983 1.325000
vt 0.051737 1.334605
vt 0.033564 1.334605
vt 0.001929 -0.008451
vt -0.004780 -0.020942
vt -0.117633 1.325000
vt -0.112217 1.334605
vt -0.126791 1.334605
vt -0.005405 -0.006777
vt 0.000000 1.337062
vt -0.009320 1.346666
vt 0.009320 1.346666
vt 0.346887 0.000000
vt 0.336202 0.009320
vt 0.336202 -0.009320
vt 0.237923 1.337062
vt 0.228765 1.346666
vt 0.243338 1.346666
vt 0.350151 0.006777
vt 0.350776 0.020942
vt 0.397538 1.337062
vt 0.389120 1.346666
vt 0.407293 1.346666
vt 0.357484 0.008451
vt 0.368949 0.016794
vt 0.081860 1.337062
vt 0.091560 1.346666
vt 0.363366 0.003761
vt 0.377036 -0.000000
vt -0.081860 1.337062
vt 0.363366 -0.003761
vt 0.368949 -0.016794
vt 0.397538 1.337062
vt 0.357484 -0.008451
vt 0.350776 -0.020942
vt 0.237923 1.337062
vt 0.243338 1.346666
vt 0.228765 1.346666
vt 0.350151 -0.006777
vt 0.000000 1.371791
vt -0.009320 1.381396
vt 0.702443 0.000000
vt 0.691758 0.009320
vt 0.691758 -0.009320
vt 0.593478 1.371791
vt 0.584320 1.381396
vt 0.598894 1.381396
vt 0.705706 0.006777
vt 0.706331 0.020942
vt 0.753094 1.371791
vt 0.744675 1.381396
vt 0.762848 1.381396
vt 0.713040 0.008451
vt 0.724504 0.016794
vt 0.081860 1.371791
vt 0.091560 1.381396
vt 0.074765 1.381396
vt 0.718921 0.003761
vt 0.732592 -0.000000
vt -0.081860 1.371791
vt 0.718921 -0.003761
vt 0.724504 -0.016794
vt 0.753094 1.371791
vt 0.762848 1.381396
vt 0.744675 1.381396
vt 0.713040 -0.008451
vt 0.706331 -0.020942
vt 0.705706 -0.006777
vt 1.057998 0.000000
vt 1.047313 0.009320
vt 1.047313 -0.009320
vt 0.949034 1.425000
vt 0.939876 1.434605
vt 0.954449 1.434605
vt 1.061262 0.006777
vt 1.061887 0.020942
vt 1.108649 1.425000
vt 1.100231 1.434605
vt 1.118404 1.434605
vt 1.068596 0.008451
vt 1.080060 0.016794
vt 1.074477 0.003761
vt 1.088148 -0.000000
vt 1.074477 -0.003761
vt 1.080060 -0.016794
vt 1.068596 -0.008451
vt 1.061887 -0.020942
vt 0.939876 1.434605
vt 1.061262 -0.006777
vt 0.000000 1.490270
vt -0.009320 1.499875
vt 0.009320 1.499875
vt 1.413554 0.000000
vt 1.402869 0.009320
vt 1.402869 -0.009320
vt 1.304590 1.490270
vt 1.295431 1.499875
vt 1.310005 1.499875
vt 1.416818 0.006777
vt 1.417442 0.020942
vt 1.464205 1.490270
vt 1.455786 1.499875
vt 1.473959 1.499875
vt 1.424151 0.008451
vt 1.435615 0.016794
vt 0.074765 1.499875
vt 1.430032 0.003761
vt 1.443703 -0.000000
vt -0.074765 1.499875
vt 1.430032 -0.003761
vt 1.435615 -0.016794
vt 1.424151 -0.008451
vt 1.417442 -0.020942
vt 1.416818 -0.006777
vt 1.654728 -0.043644
vt 1.658036 -0.013246
vt 1.646541 -0.037115
vt -1.600000 0.070000
vt -1.574172 0.053633
vt -1.600000 0.059528
vt 1.589791 1.980000
vt -1.589791 1.990209
vt -1.589791 1.980000
vt -1.569628 0.063068
vt -1.553459 0.037115
vt 1.630372 0.063068
vt 1.646541 0.037115
vt 1.654728 0.043644
vt -1.545272 0.043644
vt 1.668245 -0.015576
vt -1.531755 0.015576
vt 0.350776 1.777457
vt 0.368949 1.777457
vt -1.541964 0.013246
vt -0.015576 0.010209
vt 0.013246 0.000000
vt 0.015576 0.010209
vt 1.625828 0.053633
vt 0.015576 2.089791
vt -0.013246 2.100000
vt -0.015576 2.089791
vt -1.531755 -0.015576
vt -1.553459 -0.037115
vt -1.541964 -0.013246
vt -1.589791 2.020000
vt 1.589791 2.009791
vt 1.589791 2.020000
vt -1.545272 -0.043644
vt 1.668245 0.015576
vt -1.569628 -0.063068
vt -1.574172 -0.053633
vt -1.600000 -0.070000
vt -1.600000 -0.059528
vt 1.658036 0.013246
vt -1.630372 -0.063068
vt 1.600000 0.059528
vt -1.625828 -0.053633
vt -1.646541 -0.037115
vt -1.252238 1.490270
vt -1.654728 -0.043644
vt -1.658036 -0.013246
vt -1.668245 -0.015576
vt -1.668245 0.015576
vt 1.600000 0.070000
vt -1.658036 0.013246
vt -1.427002 1.930666
vt -1.408829 1.930666
vt -1.654728 0.043644
vt -0.009320 1.865395
vt -1.646541 0.037115
vt -1.630372 0.063068
vt -1.625828 0.053633
vt 1.630372 -0.063068
vt 1.625828 -0.053633
vt 1.600000 -0.059528
vt -0.715891 1.812186
vt -0.697718 1.812186
vt 1.600000 -0.070000
vt -1.589791 2.009791
vt 1.574172 -0.053633
vt -1.441576 1.930666
vt 1.569628 -0.063068
vt 1.589791 1.990209
vt 1.553459 -0.037115
vt 0.009320 1.930666
vt 1.545272 -0.043644
vt 1.531755 -0.015576
vt 1.541964 -0.013246
vt -0.013246 0.000000
vt -1.071447 1.865395
vt -1.053274 1.865395
vt 0.013246 2.100000
vt 1.531755 0.015576
vt 1.553459 0.037115
vt 1.541964 0.013246
vt -0.009320 1.777457
vt 1.545272 0.043644
vt 1.569628 0.063068
vt 0.147507 1.490270
vt 1.574172 0.053633
vt 0.016794 1.930666
vt -0.000000 1.930666
vt 0.147507 1.425000
vt -0.016794 1.930666
vt -1.253577 1.499875
vt -0.009320 1.812186
vt -1.086020 1.865395
vt -0.144042 1.499875
vt -0.147507 1.490270
vt -0.898022 1.434605
vt 0.016794 1.865395
vt -0.000000 1.865395
vt 0.144042 1.381396
vt -0.016794 1.865395
vt -0.360335 1.777457
vt -0.342163 1.777457
vt -0.896682 1.425000
vt -0.730465 1.812186
vt -0.144042 1.434605
vt -0.147507 1.425000
vt -0.542467 1.381396
vt -0.009320 1.765395
vt -0.000000 1.812186
vt 0.016794 1.812186
vt 0.144042 1.346666
vt -0.016794 1.812186
vt -0.541127 1.371791
vt -0.004780 1.765395
vt 0.013393 1.765395
vt -0.374909 1.777457
vt -0.147507 1.371791
vt -0.144042 1.381396
vt -0.186911 1.346666
vt 1.417442 1.930666
vt 1.435615 1.930666
vt 0.016794 1.777457
vt -0.000000 1.777457
vt 0.144042 1.334605
vt -0.016794 1.777457
vt -0.186911 1.346666
vt -0.185571 1.337062
vt -0.019354 1.765395
vt -0.144042 1.346666
vt -0.147507 1.337062
vt 0.168645 1.334605
vt 0.016794 1.765395
vt -0.000000 1.765395
vt -0.016794 1.765395
vt 0.706331 1.812186
vt 0.724504 1.812186
vt 0.169984 1.325000
vt 0.168645 1.334605
vt 0.013393 1.765395
vt -0.004780 1.765395
vt 0.336202 1.777457
vt -0.019354 1.765395
vt -0.147507 1.325000
vt -0.144042 1.334605
vt 0.524200 1.346666
vt -0.000000 1.777457
vt 0.144042 1.381396
vt 0.525540 1.337062
vt 1.061887 1.865395
vt 1.080060 1.865395
vt 0.691758 1.812186
vt 0.879756 1.381396
vt 0.144042 1.434605
vt 0.881096 1.371791
vt 1.047313 1.865395
vt -0.009320 1.930666
vt 1.235311 1.434605
vt 0.144042 1.499875
vt 1.236651 1.425000
vt 1.402869 1.930666
vt 1.047313 1.865395
vt 1.592207 1.490270
vt 1.590867 1.499875
vt 1.402869 1.930666
vt -1.589791 0.009791
vt 1.589791 -0.009791
vt 1.589791 0.009791
vt -1.589791 -0.009791
vt -1.600000 2.089791
vt -1.569628 0.010209
vt -1.600000 0.010209
vt -1.630372 2.089791
vt -1.630372 0.010209
vt -1.569628 2.089791
vt -1.545272 0.010209
vt 0.043644 2.089791
vt 0.043644 0.010209
vt -0.043644 0.010209
vt -1.545272 2.089791
vt -1.654728 0.010209
vt -0.043644 2.089791
vt -1.654728 2.089791
vt 1.600000 2.089791
vt 1.630372 0.010209
vt 1.600000 0.010209
vt 1.569628 2.089791
vt 1.569628 0.010209
vt 1.630372 2.089791
vt 1.654728 0.010209
vt 1.654728 2.089791
vt 1.545272 0.010209
vt 1.545272 2.089791
vt -1.380240 -0.183938
vt -1.610891 0.000000
vt -1.380240 0.183938
vt -0.896682 0.081860
vt -1.024684 -0.183938
vt -1.255335 0.000000
vt 0.009320 1.865395
vt -0.669128 0.183938
vt -0.541127 -0.081860
vt -0.828744 -0.147507
vt 0.009320 1.812186
vt -0.313573 -0.183938
vt -0.544224 0.000000
vt -0.313573 0.183938
vt 0.009320 1.777457
vt 0.041983 -0.183938
vt -0.188668 0.000000
vt 0.041983 0.183938
vt 0.009320 1.765395
vt 0.525540 -0.081860
vt 0.237923 -0.147507
vt 0.237923 0.147507
vt 0.881096 -0.081860
vt 0.593478 -0.147507
vt 0.593478 0.147507
vt 0.009320 1.812186
vt 1.108649 -0.183938
vt 0.877998 0.000000
vt 1.108649 0.183938
vt 1.592207 -0.081860
vt 1.304590 -0.147507
vt 1.304590 0.147507
vt 0.009320 1.930666
vt 0.147507 1.371791
vt 0.147507 1.337062
vt -0.185571 1.337062
vt 0.147507 1.325000
vt 0.169984 1.325000
vt -1.252238 0.081860
vt -1.252238 -0.081860
vt -1.539855 -0.147507
vt -1.539855 0.147507
vt -1.184299 0.147507
vt -1.024684 0.183938
vt -0.896682 -0.081860
vt -1.184299 -0.147507
vt -0.899779 0.000000
vt -0.828744 0.147507
vt -0.541127 0.081860
vt -0.669128 -0.183938
vt -0.185571 0.081860
vt -0.185571 -0.081860
vt -0.473188 -0.147507
vt -0.473188 0.147507
vt 0.169984 0.081860
vt 0.169984 -0.081860
vt -0.117633 -0.147507
vt -0.117633 0.147507
vt 0.397538 0.183938
vt 0.525540 0.081860
vt 0.397538 -0.183938
vt 0.166887 0.000000
vt 0.753094 0.183938
vt 0.881096 0.081860
vt 0.753094 -0.183938
vt 0.522443 0.000000
vt 1.236651 0.081860
vt 1.236651 -0.081860
vt 0.949034 -0.147507
vt 0.949034 0.147507
vt 1.464205 0.183938
vt 1.592207 0.081860
vt 1.464205 -0.183938
vt 1.233554 0.000000
s 1
f 64/1/6 274/2/58 275/3/59
f 451/4/101 361/5/89 445/6/100
f 87/7/26 82/8/22 86/9/25
f 276/10/60 284/11/66 278/12/62
f 128/13/5 286/14/67 287/15/68
f 94/16/30 93/17/29 81/18/21
f 282/19/65 290/20/70 284/11/66
f 595/21/108 132/22/40 589/23/107
f 457/16/102 439/18/99 99/17/33
f 601/21/109 583/23/106 71/22/15
f 367/5/90 373/4/91 76/6/18
f 103/24/7 280/25/63 281/26/64
f 107/7/38 100/9/34 106/8/37
f 288/27/69 296/28/74 290/20/70
f 129/29/4 292/30/71 293/31/72
f 294/32/73 302/33/78 296/28/74
f 59/34/3 298/35/75 299/36/76
f 300/37/77 308/38/82 302/33/78
f 57/13/2 304/15/79 305/14/80
f 306/39/81 314/40/86 308/38/82
f 56/24/1 310/26/83 311/25/84
f 312/41/85 278/12/62 314/40/86
f 60/42/10 316/43/58 317/44/59
f 318/45/60 326/46/66 320/47/62
f 61/48/7 322/49/63 323/50/64
f 324/51/65 332/52/70 326/46/66
f 58/53/5 328/54/67 329/55/68
f 330/56/69 338/57/74 332/52/70
f 55/58/4 334/59/71 335/60/72
f 336/61/73 344/62/78 338/57/74
f 52/63/3 340/64/75 341/65/76
f 342/66/77 350/67/82 344/62/78
f 50/53/2 346/55/79 347/54/80
f 348/68/81 356/69/86 350/67/82
f 49/48/1 352/50/83 353/70/84
f 354/71/85 320/47/62 356/69/86
f 53/72/6 358/73/58 359/74/59
f 360/75/60 368/76/66 362/77/62
f 54/78/7 364/79/63 365/80/64
f 366/81/65 374/82/70 368/76/66
f 51/83/5 370/84/67 371/85/68
f 372/86/69 380/87/74 374/82/70
f 48/88/4 376/89/71 377/90/72
f 378/91/92 386/92/78 380/87/74
f 45/93/3 382/94/75 383/95/76
f 384/96/77 392/97/82 386/92/78
f 43/98/2 388/85/79 389/84/80
f 390/99/81 398/100/86 392/97/82
f 42/101/1 394/102/83 395/79/84
f 396/103/85 362/77/62 398/100/86
f 44/104/6 400/105/58 401/106/59
f 402/107/60 410/108/66 404/109/62
f 46/110/7 406/111/63 407/112/64
f 408/113/65 416/114/70 410/108/66
f 47/115/5 412/116/67 413/117/68
f 414/118/69 422/119/74 416/114/70
f 41/120/4 418/121/71 419/122/72
f 420/123/73 428/124/78 422/119/74
f 38/125/3 424/126/75 425/127/76
f 426/128/97 434/129/82 428/124/78
f 36/130/2 430/131/79 431/132/80
f 432/133/81 440/134/86 434/129/82
f 35/110/1 436/135/83 437/111/84
f 438/136/85 404/109/62 440/134/86
f 37/137/6 442/138/58 443/139/59
f 444/140/60 452/141/66 446/142/62
f 39/143/7 448/144/63 449/145/64
f 450/146/65 458/147/70 452/141/66
f 40/148/5 454/149/67 455/150/68
f 456/151/69 464/152/74 458/147/70
f 34/153/4 460/154/71 461/155/72
f 462/156/73 470/157/78 464/152/74
f 31/158/3 466/159/75 467/160/76
f 468/161/97 476/162/82 470/157/78
f 29/163/2 472/164/79 473/165/80
f 474/166/81 482/167/86 476/162/82
f 28/168/1 478/169/83 479/170/84
f 480/171/85 446/142/62 482/167/86
f 32/172/6 484/173/58 485/174/59
f 486/175/60 494/176/66 488/177/62
f 33/178/7 490/179/63 491/180/64
f 492/181/65 500/182/70 494/176/66
f 30/183/5 496/184/67 497/185/68
f 498/186/69 506/187/74 500/182/70
f 27/188/4 502/189/71 503/122/72
f 504/190/73 512/191/78 506/187/74
f 24/192/3 508/126/75 509/127/76
f 510/193/77 518/194/82 512/191/78
f 22/195/2 514/185/79 515/184/80
f 516/196/81 524/197/86 518/194/82
f 21/198/1 520/199/83 521/200/84
f 522/201/85 488/177/62 524/197/86
f 23/202/6 526/203/58 527/74/104
f 528/204/60 536/205/66 530/206/62
f 25/207/7 532/208/63 533/209/64
f 534/210/65 542/211/70 536/205/66
f 26/212/5 538/213/67 539/214/68
f 540/215/69 548/216/74 542/211/70
f 20/217/4 544/218/71 545/219/72
f 546/220/73 554/221/78 548/216/74
f 17/222/3 550/94/75 551/95/76
f 552/223/97 560/224/82 554/221/78
f 15/225/2 556/226/79 557/227/80
f 558/228/81 566/229/86 560/224/82
f 14/207/1 562/209/83 563/208/84
f 564/230/85 530/206/62 566/229/86
f 16/42/10 568/43/58 569/44/59
f 570/231/60 578/232/66 572/233/62
f 18/234/7 574/235/63 575/236/64
f 576/237/65 584/238/70 578/232/66
f 19/239/5 580/240/67 581/241/68
f 582/242/69 590/243/74 584/238/70
f 13/58/4 586/59/71 587/60/72
f 588/244/73 596/245/78 590/243/74
f 8/63/3 592/64/75 593/65/76
f 594/246/97 602/247/82 596/245/78
f 6/239/2 598/241/79 599/240/80
f 600/248/81 608/249/86 602/247/82
f 5/234/1 604/236/83 605/250/84
f 606/251/85 572/233/62 608/249/86
f 9/252/6 610/253/58 611/254/59
f 612/255/60 620/256/66 614/257/62
f 10/258/7 616/259/63 617/260/64
f 618/261/65 626/262/70 620/256/66
f 7/263/5 622/264/67 623/265/68
f 624/266/69 632/267/74 626/262/70
f 4/29/4 628/30/71 629/268/72
f 630/269/73 638/270/78 632/267/74
f 3/34/3 634/271/75 635/36/76
f 636/272/77 644/273/82 638/270/78
f 2/263/2 640/265/79 641/264/80
f 642/274/81 650/275/86 644/273/82
f 1/258/1 646/260/83 647/259/84
f 648/276/85 614/257/62 650/275/86
f 649/277/88 637/278/94 631/279/88
f 625/280/39 613/281/95 607/282/39
f 595/283/108 583/284/106 601/285/109
f 571/280/41 559/281/105 577/286/105
f 332/52/70 324/51/65 330/56/69
f 619/286/95 547/287/96 613/281/95
f 535/288/105 523/289/103 541/290/103
f 577/286/105 511/287/103 517/291/103
f 499/277/93 487/278/98 505/292/98
f 481/293/61 547/287/96 553/291/96
f 497/185/68 500/294/70 506/295/74
f 469/293/87 511/287/103 463/296/87
f 451/4/101 439/18/99 457/16/102
f 433/297/98 475/298/61 481/299/61
f 421/288/95 409/289/96 403/300/95
f 469/301/87 391/302/94 397/303/94
f 433/304/98 379/305/93 427/306/98
f 373/307/91 361/308/89 451/309/101
f 397/304/94 349/305/88 355/310/88
f 343/311/87 637/278/94 643/292/94
f 331/312/36 379/305/93 385/310/93
f 319/312/35 349/305/88 313/313/35
f 290/20/70 282/19/65 288/27/69
f 307/314/32 325/313/36 331/312/36
f 295/314/31 313/313/35 289/315/31
f 505/292/98 277/316/61 283/311/61
f 138/317/28 301/315/32 307/314/32
f 535/288/105 135/318/41 529/300/105
f 134/317/27 289/315/31 133/319/27
f 589/23/107 445/6/100 361/5/89
f 138/317/28 130/320/24 137/319/28
f 287/15/68 129/321/4 128/13/5
f 134/317/27 126/320/23 127/322/23
f 131/322/24 124/323/20 130/320/24
f 374/82/70 366/81/65 372/86/69
f 127/322/23 122/323/19 123/324/19
f 541/290/103 337/316/87 343/311/87
f 121/325/17 124/323/20 125/324/20
f 421/288/95 118/318/39 119/326/39
f 123/324/19 116/327/16 117/325/16
f 287/15/68 290/328/70 296/329/74
f 115/330/14 120/327/17 121/325/17
f 320/331/62 317/44/59 316/43/58
f 113/330/13 116/327/16 112/332/13
f 415/290/96 277/316/61 409/289/96
f 111/333/12 114/332/14 115/330/14
f 326/46/66 318/45/60 324/51/65
f 109/333/11 112/332/13 108/334/11
f 111/333/12 607/282/39 110/334/12
f 109/333/11 565/282/41 571/280/41
f 107/7/38 132/22/40 595/21/108
f 105/335/36 493/279/93 499/277/93
f 286/14/67 103/24/7 281/26/64
f 102/335/35 631/279/88 101/336/35
f 106/8/37 99/17/33 439/18/99
f 105/335/36 97/337/32 104/336/36
f 371/85/68 374/338/70 380/339/74
f 102/335/35 95/337/31 96/340/31
f 457/309/102 93/341/29 94/307/30
f 98/340/32 91/342/28 97/337/32
f 281/26/64 284/343/66 290/328/70
f 96/340/31 88/342/27 89/344/27
f 87/285/26 100/345/34 107/283/38
f 92/344/28 90/346/24 91/342/28
f 274/2/58 284/347/66 275/3/59
f 89/344/27 83/346/23 84/348/23
f 86/9/25 81/18/21 93/17/29
f 80/349/20 90/346/24 85/348/24
f 284/11/66 276/10/60 282/19/65
f 78/349/19 83/346/23 77/350/19
f 94/16/30 76/6/18 373/4/91
f 75/299/17 79/351/20 80/297/20
f 329/55/68 332/352/70 338/353/74
f 78/303/19 72/354/16 73/301/16
f 367/5/90 71/22/15 583/23/106
f 75/355/17 69/356/14 74/357/17
f 404/358/62 401/106/59 400/105/58
f 73/355/16 67/356/13 68/359/13
f 601/21/109 82/8/22 87/7/26
f 66/360/12 69/356/14 70/359/14
f 275/3/59 103/361/7 64/1/6
f 63/360/11 67/356/13 62/362/11
f 119/326/39 65/362/12 66/360/12
f 136/326/41 62/362/11 135/318/41
f 296/28/74 288/27/69 294/32/73
f 293/31/72 296/363/74 302/364/78
f 317/44/59 61/365/7 60/42/10
f 298/35/75 129/29/4 293/31/72
f 323/50/64 58/53/5 61/48/7
f 302/33/78 294/32/73 300/37/77
f 308/366/82 298/35/75 302/364/78
f 368/76/66 360/75/60 366/81/65
f 299/367/76 57/13/2 59/321/3
f 410/108/66 402/107/60 408/113/65
f 308/38/82 300/37/77 306/39/81
f 314/328/86 304/15/79 308/329/82
f 362/368/62 359/74/59 358/73/58
f 310/26/83 57/13/2 305/14/80
f 323/50/64 326/369/66 332/352/70
f 314/40/86 306/39/81 312/41/85
f 311/25/84 314/328/86 278/343/62
f 311/370/84 64/1/6 56/371/1
f 278/12/62 312/41/85 276/10/60
f 334/372/71 58/53/5 329/55/68
f 452/141/66 444/140/60 450/146/65
f 338/57/74 330/56/69 336/61/73
f 335/60/72 338/373/74 344/374/78
f 364/375/63 53/72/6 359/74/59
f 340/64/75 55/58/4 335/60/72
f 370/84/67 54/78/7 365/80/64
f 344/62/78 336/61/73 342/66/77
f 341/65/76 344/374/78 350/376/82
f 413/117/68 416/377/70 422/378/74
f 341/372/76 50/53/2 52/379/3
f 416/114/70 408/113/65 414/118/69
f 350/67/82 342/66/77 348/68/81
f 347/54/80 350/353/82 356/352/86
f 500/182/70 492/181/65 498/186/69
f 352/50/83 50/53/2 347/54/80
f 365/80/64 368/380/66 374/338/70
f 356/69/86 348/68/81 354/71/85
f 353/70/84 356/352/86 320/369/62
f 353/381/84 60/42/10 49/382/1
f 320/47/62 354/71/85 318/45/60
f 376/383/71 51/83/5 371/85/68
f 446/384/62 443/139/59 442/138/58
f 380/87/74 372/86/69 378/91/92
f 386/385/78 376/89/71 380/386/74
f 412/116/67 46/110/7 407/112/64
f 377/90/72 45/93/3 48/88/4
f 406/387/63 44/104/6 401/106/59
f 386/92/78 378/91/92 384/96/77
f 392/388/82 382/94/75 386/385/78
f 458/147/70 450/146/65 456/151/69
f 388/85/79 45/389/3 383/383/76
f 455/150/68 458/390/70 464/391/74
f 392/97/82 384/96/77 390/99/81
f 389/84/80 392/339/82 398/338/86
f 407/112/64 410/392/66 416/377/70
f 394/102/83 43/98/2 389/84/80
f 530/368/62 527/74/104 526/203/58
f 398/100/86 390/99/81 396/103/85
f 395/79/84 398/338/86 362/380/62
f 358/73/58 42/393/1 395/394/84
f 362/77/62 396/103/85 360/75/60
f 418/395/71 47/115/5 413/117/68
f 623/265/68 626/396/70 632/397/74
f 422/119/74 414/118/69 420/123/73
f 419/122/72 422/398/74 428/399/78
f 454/149/67 39/143/7 449/145/64
f 419/122/72 38/125/3 41/120/4
f 448/400/63 37/137/6 443/139/59
f 428/124/78 420/123/73 426/128/97
f 425/127/76 428/399/78 434/401/82
f 536/205/66 528/204/60 534/210/65
f 425/402/76 36/130/2 38/403/3
f 494/176/66 486/175/60 492/181/65
f 434/129/82 426/128/97 432/133/81
f 431/132/80 434/378/82 440/377/86
f 449/145/64 452/404/66 458/390/70
f 436/135/83 36/130/2 431/132/80
f 488/358/62 485/174/59 484/173/58
f 440/134/86 432/133/81 438/136/85
f 437/111/84 440/377/86 404/392/62
f 437/405/84 44/104/6 35/406/1
f 404/109/62 438/136/85 402/107/60
f 460/407/71 40/148/5 455/150/68
f 578/232/66 570/231/60 576/237/65
f 464/152/74 456/151/69 462/156/73
f 461/155/72 464/408/74 470/409/78
f 490/387/63 32/172/6 485/174/59
f 466/159/75 34/153/4 461/155/72
f 491/180/64 30/183/5 33/178/7
f 470/157/78 462/156/73 468/161/97
f 467/160/76 470/409/78 476/410/82
f 539/214/68 542/411/70 548/412/74
f 472/164/79 31/413/3 467/414/76
f 542/211/70 534/210/65 540/215/69
f 476/162/82 468/161/97 474/166/81
f 473/165/80 476/415/82 482/416/86
f 626/262/70 618/261/65 624/266/69
f 478/169/83 29/163/2 473/165/80
f 491/180/64 494/417/66 500/294/70
f 482/167/86 474/166/81 480/171/85
f 479/170/84 482/416/86 446/418/62
f 442/138/58 28/419/1 479/420/84
f 446/142/62 480/171/85 444/140/60
f 502/421/71 30/183/5 497/185/68
f 572/331/62 569/44/59 568/43/58
f 506/187/74 498/186/69 504/190/73
f 503/122/72 506/398/74 512/422/78
f 538/213/67 25/207/7 533/209/64
f 503/122/72 24/192/3 27/188/4
f 532/423/63 23/202/6 527/74/104
f 512/191/78 504/190/73 510/193/77
f 509/127/76 512/422/78 518/401/82
f 584/238/70 576/237/65 582/242/69
f 514/185/79 24/424/3 509/421/76
f 581/241/68 584/425/70 590/426/74
f 518/194/82 510/193/77 516/196/81
f 515/184/80 518/295/82 524/294/86
f 533/209/64 536/427/66 542/411/70
f 520/199/83 22/195/2 515/184/80
f 524/197/86 516/196/81 522/201/85
f 521/200/84 524/294/86 488/417/62
f 521/405/84 32/172/6 21/406/1
f 488/177/62 522/201/85 486/175/60
f 544/428/71 26/212/5 539/214/68
f 548/216/74 540/215/69 546/220/73
f 545/219/72 548/386/74 554/385/78
f 580/240/67 18/234/7 575/236/64
f 545/219/72 17/222/3 20/217/4
f 574/429/63 16/42/10 569/44/59
f 554/221/78 546/220/73 552/223/97
f 560/388/82 550/94/75 554/385/78
f 551/428/76 15/225/2 17/430/3
f 620/256/66 612/255/60 618/261/65
f 560/224/82 552/223/97 558/228/81
f 557/227/80 560/412/82 566/411/86
f 575/236/64 578/431/66 584/425/70
f 562/209/83 15/225/2 557/227/80
f 614/432/62 611/254/59 610/253/58
f 566/229/86 558/228/81 564/230/85
f 563/208/84 566/411/86 530/427/62
f 526/203/58 14/393/1 563/394/84
f 530/206/62 564/230/85 528/204/60
f 586/433/71 19/239/5 581/241/68
f 590/243/74 582/242/69 588/244/73
f 587/60/72 590/373/74 596/374/78
f 616/434/63 9/252/6 611/254/59
f 592/64/75 13/58/4 587/60/72
f 617/260/64 7/263/5 10/258/7
f 596/245/78 588/244/73 594/246/97
f 593/65/76 596/374/78 602/376/82
f 593/433/76 6/239/2 8/435/3
f 602/247/82 594/246/97 600/248/81
f 608/425/86 598/241/79 602/426/82
f 599/240/80 5/234/1 6/239/2
f 626/396/70 616/259/63 620/436/66
f 608/249/86 600/248/81 606/251/85
f 605/250/84 608/425/86 572/437/62
f 568/43/58 5/382/1 605/381/84
f 572/233/62 606/251/85 570/231/60
f 623/265/68 4/438/4 7/263/5
f 632/267/74 624/266/69 630/269/73
f 629/268/72 632/363/74 638/364/78
f 629/268/72 3/34/3 4/29/4
f 638/270/78 630/269/73 636/272/77
f 635/36/76 638/364/78 644/366/82
f 640/265/79 3/438/3 635/439/76
f 644/273/82 636/272/77 642/274/81
f 641/264/80 644/397/82 650/396/86
f 646/260/83 2/263/2 641/264/80
f 650/275/86 642/274/81 648/276/85
f 647/259/84 650/396/86 614/440/62
f 647/370/84 9/252/6 1/371/1
f 614/257/62 648/276/85 612/255/60
f 265/308/9 141/284/9 263/345/9
f 139/6/42 256/8/42 142/22/42
f 258/441/8 264/442/8 270/443/8
f 267/443/43 140/444/43 255/441/43
f 155/296/43 171/315/43 187/327/43
f 146/445/44 148/446/45 144/447/44
f 198/448/56 144/447/44 196/449/56
f 193/332/8 177/319/8 161/306/8
f 150/450/45 152/451/46 148/446/45
f 154/452/46 156/299/47 152/453/46
f 158/301/47 160/297/48 156/299/47
f 162/303/48 164/454/49 160/297/48
f 166/455/49 168/446/50 164/451/49
f 170/450/50 172/447/9 168/446/50
f 174/445/9 176/449/51 172/447/9
f 178/448/51 180/456/52 176/449/51
f 182/457/52 184/297/53 180/454/52
f 186/303/53 188/299/54 184/297/53
f 190/301/54 192/453/55 188/299/54
f 194/458/55 196/449/56 192/456/55
f 227/337/43 243/357/43 203/300/43
f 202/459/44 204/460/45 200/461/44
f 254/462/56 200/461/44 252/463/56
f 225/336/8 209/289/8 249/356/8
f 206/464/45 208/465/46 204/460/45
f 210/452/46 212/299/47 208/453/46
f 214/301/47 216/297/48 212/299/47
f 218/303/48 220/454/49 216/297/48
f 222/466/49 224/460/50 220/465/49
f 226/464/50 228/461/9 224/460/50
f 230/459/9 232/463/51 228/461/9
f 234/462/51 236/467/52 232/463/51
f 238/457/52 240/297/53 236/454/52
f 242/303/53 244/299/54 240/297/53
f 246/301/54 248/453/55 244/299/54
f 250/468/55 252/463/56 248/467/55
f 259/341/44 268/345/44 257/284/44
f 271/18/57 262/22/57 269/8/57
f 303/469/43 273/470/43 285/471/43
f 275/3/59 284/347/66 280/434/63
f 311/370/84 278/432/62 274/2/58
f 306/39/81 294/32/73 282/19/65
f 281/26/64 290/328/70 286/14/67
f 287/15/68 296/329/74 292/367/71
f 293/31/72 302/364/78 298/35/75
f 299/367/76 308/329/82 304/15/79
f 305/14/80 314/328/86 310/26/83
f 333/472/43 345/473/43 315/474/43
f 317/44/59 326/475/66 322/429/63
f 353/381/84 320/331/62 316/43/58
f 318/45/60 348/68/81 336/61/73
f 323/50/64 332/352/70 328/54/67
f 329/55/68 338/353/74 334/372/71
f 335/60/72 344/374/78 340/64/75
f 341/372/76 350/353/82 346/55/79
f 347/54/80 356/352/86 352/50/83
f 369/476/43 381/477/43 393/478/43
f 359/74/59 368/479/66 364/375/63
f 395/394/84 362/368/62 358/73/58
f 378/91/92 366/81/65 396/103/85
f 365/80/64 374/338/70 370/84/67
f 371/85/68 380/339/74 376/383/71
f 377/90/72 386/385/78 382/94/75
f 383/383/76 392/339/82 388/85/79
f 389/84/80 398/338/86 394/102/83
f 429/480/43 399/481/43 411/482/43
f 401/106/59 410/483/66 406/387/63
f 437/405/84 404/358/62 400/105/58
f 408/113/65 438/136/85 426/128/97
f 407/112/64 416/377/70 412/116/67
f 413/117/68 422/378/74 418/395/71
f 419/122/72 428/399/78 424/126/75
f 425/402/76 434/378/82 430/131/79
f 431/132/80 440/377/86 436/135/83
f 471/484/43 441/485/43 453/486/43
f 443/139/59 452/487/66 448/400/63
f 479/420/84 446/384/62 442/138/58
f 456/151/69 444/140/60 474/166/81
f 449/145/64 458/390/70 454/149/67
f 455/150/68 464/391/74 460/407/71
f 461/155/72 470/409/78 466/159/75
f 467/414/76 476/415/82 472/164/79
f 473/165/80 482/416/86 478/169/83
f 507/488/43 519/489/43 489/490/43
f 485/174/59 494/483/66 490/387/63
f 521/405/84 488/358/62 484/173/58
f 486/175/60 516/196/81 504/190/73
f 491/180/64 500/294/70 496/184/67
f 497/185/68 506/295/74 502/421/71
f 503/122/72 512/422/78 508/126/75
f 509/421/76 518/295/82 514/185/79
f 515/184/80 524/294/86 520/199/83
f 549/491/43 561/492/43 531/493/43
f 527/74/104 536/494/66 532/423/63
f 563/394/84 530/368/62 526/203/58
f 534/210/65 564/230/85 552/223/97
f 533/209/64 542/411/70 538/213/67
f 539/214/68 548/412/74 544/428/71
f 545/219/72 554/385/78 550/94/75
f 551/428/76 560/412/82 556/226/79
f 557/227/80 566/411/86 562/209/83
f 597/495/43 567/496/43 579/497/43
f 569/44/59 578/475/66 574/429/63
f 605/381/84 572/331/62 568/43/58
f 582/242/69 570/231/60 600/248/81
f 575/236/64 584/425/70 580/240/67
f 581/241/68 590/426/74 586/433/71
f 587/60/72 596/374/78 592/64/75
f 593/433/76 602/426/82 598/241/79
f 599/240/80 608/425/86 604/236/83
f 633/498/43 645/499/43 615/500/43
f 611/254/59 620/501/66 616/434/63
f 647/370/84 614/432/62 610/253/58
f 612/255/60 642/274/81 630/269/73
f 617/260/64 626/396/70 622/264/67
f 623/265/68 632/397/74 628/439/71
f 629/268/72 638/364/78 634/271/75
f 635/439/76 644/397/82 640/265/79
f 641/264/80 650/396/86 646/260/83
f 649/277/88 643/292/94 637/278/94
f 625/280/39 619/286/95 613/281/95
f 595/283/108 589/345/107 583/284/106
f 571/280/41 565/282/41 559/281/105
f 619/286/95 553/291/96 547/287/96
f 535/288/105 529/300/105 523/289/103
f 577/286/105 559/281/105 511/287/103
f 499/277/93 493/279/93 487/278/98
f 481/293/61 475/296/61 547/287/96
f 497/185/68 496/184/67 500/294/70
f 469/293/87 517/291/103 511/287/103
f 451/4/101 445/6/100 439/18/99
f 433/297/98 427/351/98 475/298/61
f 421/288/95 415/290/96 409/289/96
f 469/301/87 463/354/87 391/302/94
f 433/304/98 385/310/93 379/305/93
f 373/307/91 367/341/90 361/308/89
f 397/304/94 391/306/94 349/305/88
f 343/311/87 337/316/87 637/278/94
f 331/312/36 325/313/36 379/305/93
f 319/312/35 355/310/88 349/305/88
f 307/314/32 301/315/32 325/313/36
f 295/314/31 319/312/35 313/313/35
f 505/292/98 487/278/98 277/316/61
f 138/317/28 137/319/28 301/315/32
f 535/288/105 136/326/41 135/318/41
f 134/317/27 295/314/31 289/315/31
f 589/23/107 132/22/40 445/6/100
f 138/317/28 131/322/24 130/320/24
f 287/15/68 292/367/71 129/321/4
f 134/317/27 133/319/27 126/320/23
f 131/322/24 125/324/20 124/323/20
f 127/322/23 126/320/23 122/323/19
f 541/290/103 523/289/103 337/316/87
f 121/325/17 120/327/17 124/323/20
f 421/288/95 403/300/95 118/318/39
f 123/324/19 122/323/19 116/327/16
f 287/15/68 286/14/67 290/328/70
f 115/330/14 114/332/14 120/327/17
f 320/331/62 326/475/66 317/44/59
f 113/330/13 117/325/16 116/327/16
f 415/290/96 283/311/61 277/316/61
f 111/333/12 110/334/12 114/332/14
f 109/333/11 113/330/13 112/332/13
f 111/333/12 625/280/39 607/282/39
f 109/333/11 108/334/11 565/282/41
f 107/7/38 106/8/37 132/22/40
f 105/335/36 104/336/36 493/279/93
f 286/14/67 128/13/5 103/24/7
f 102/335/35 649/277/88 631/279/88
f 106/8/37 100/9/34 99/17/33
f 105/335/36 98/340/32 97/337/32
f 371/85/68 370/84/67 374/338/70
f 102/335/35 101/336/35 95/337/31
f 457/309/102 99/308/33 93/341/29
f 98/340/32 92/344/28 91/342/28
f 281/26/64 280/25/63 284/343/66
f 96/340/31 95/337/31 88/342/27
f 87/285/26 86/284/25 100/345/34
f 92/344/28 85/348/24 90/346/24
f 274/2/58 278/432/62 284/347/66
f 89/344/27 88/342/27 83/346/23
f 86/9/25 82/8/22 81/18/21
f 80/349/20 79/350/20 90/346/24
f 78/349/19 84/348/23 83/346/23
f 94/16/30 81/18/21 76/6/18
f 75/299/17 74/298/17 79/351/20
f 329/55/68 328/54/67 332/352/70
f 78/303/19 77/302/19 72/354/16
f 367/5/90 76/6/18 71/22/15
f 75/355/17 70/359/14 69/356/14
f 404/358/62 410/483/66 401/106/59
f 73/355/16 72/357/16 67/356/13
f 601/21/109 71/22/15 82/8/22
f 66/360/12 65/362/12 69/356/14
f 275/3/59 280/434/63 103/361/7
f 63/360/11 68/359/13 67/356/13
f 119/326/39 118/318/39 65/362/12
f 136/326/41 63/360/11 62/362/11
f 293/31/72 292/30/71 296/363/74
f 317/44/59 322/429/63 61/365/7
f 298/35/75 59/34/3 129/29/4
f 323/50/64 328/54/67 58/53/5
f 308/366/82 299/36/76 298/35/75
f 299/367/76 304/15/79 57/13/2
f 314/328/86 305/14/80 304/15/79
f 362/368/62 368/479/66 359/74/59
f 310/26/83 56/24/1 57/13/2
f 323/50/64 322/49/63 326/369/66
f 311/25/84 310/26/83 314/328/86
f 311/370/84 274/2/58 64/1/6
f 334/372/71 55/379/4 58/53/5
f 335/60/72 334/59/71 338/373/74
f 364/375/63 54/502/7 53/72/6
f 340/64/75 52/63/3 55/58/4
f 370/84/67 51/83/5 54/78/7
f 341/65/76 340/64/75 344/374/78
f 413/117/68 412/116/67 416/377/70
f 341/372/76 346/55/79 50/53/2
f 347/54/80 346/55/79 350/353/82
f 352/50/83 49/48/1 50/53/2
f 365/80/64 364/79/63 368/380/66
f 353/70/84 352/50/83 356/352/86
f 353/381/84 316/43/58 60/42/10
f 376/383/71 48/389/4 51/83/5
f 446/384/62 452/487/66 443/139/59
f 386/385/78 377/90/72 376/89/71
f 412/116/67 47/115/5 46/110/7
f 377/90/72 382/94/75 45/93/3
f 406/387/63 46/503/7 44/104/6
f 392/388/82 383/95/76 382/94/75
f 388/85/79 43/98/2 45/389/3
f 455/150/68 454/149/67 458/390/70
f 389/84/80 388/85/79 392/339/82
f 407/112/64 406/111/63 410/392/66
f 394/102/83 42/101/1 43/98/2
f 530/368/62 536/494/66 527/74/104
f 395/79/84 394/102/83 398/338/86
f 358/73/58 53/72/6 42/393/1
f 418/395/71 41/504/4 47/115/5
f 623/265/68 622/264/67 626/396/70
f 419/122/72 418/121/71 422/398/74
f 454/149/67 40/148/5 39/143/7
f 419/122/72 424/126/75 38/125/3
f 448/400/63 39/505/7 37/137/6
f 425/127/76 424/126/75 428/399/78
f 425/402/76 430/131/79 36/130/2
f 431/132/80 430/131/79 434/378/82
f 449/145/64 448/144/63 452/404/66
f 436/135/83 35/110/1 36/130/2
f 488/358/62 494/483/66 485/174/59
f 437/111/84 436/135/83 440/377/86
f 437/405/84 400/105/58 44/104/6
f 460/407/71 34/506/4 40/148/5
f 461/155/72 460/154/71 464/408/74
f 490/387/63 33/503/7 32/172/6
f 466/159/75 31/158/3 34/153/4
f 491/180/64 496/184/67 30/183/5
f 467/160/76 466/159/75 470/409/78
f 539/214/68 538/213/67 542/411/70
f 472/164/79 29/163/2 31/413/3
f 473/165/80 472/164/79 476/415/82
f 478/169/83 28/168/1 29/163/2
f 491/180/64 490/179/63 494/417/66
f 479/170/84 478/169/83 482/416/86
f 442/138/58 37/137/6 28/419/1
f 502/421/71 27/424/4 30/183/5
f 572/331/62 578/475/66 569/44/59
f 503/122/72 502/189/71 506/398/74
f 538/213/67 26/212/5 25/207/7
f 503/122/72 508/126/75 24/192/3
f 532/423/63 25/502/7 23/202/6
f 509/127/76 508/126/75 512/422/78
f 514/185/79 22/195/2 24/424/3
f 581/241/68 580/240/67 584/425/70
f 515/184/80 514/185/79 518/295/82
f 533/209/64 532/208/63 536/427/66
f 520/199/83 21/198/1 22/195/2
f 521/200/84 520/199/83 524/294/86
f 521/405/84 484/173/58 32/172/6
f 544/428/71 20/430/4 26/212/5
f 545/219/72 544/218/71 548/386/74
f 580/240/67 19/239/5 18/234/7
f 545/219/72 550/94/75 17/222/3
f 574/429/63 18/365/7 16/42/10
f 560/388/82 551/95/76 550/94/75
f 551/428/76 556/226/79 15/225/2
f 557/227/80 556/226/79 560/412/82
f 575/236/64 574/235/63 578/431/66
f 562/209/83 14/207/1 15/225/2
f 614/432/62 620/501/66 611/254/59
f 563/208/84 562/209/83 566/411/86
f 526/203/58 23/202/6 14/393/1
f 586/433/71 13/435/4 19/239/5
f 587/60/72 586/59/71 590/373/74
f 616/434/63 10/361/7 9/252/6
f 592/64/75 8/63/3 13/58/4
f 617/260/64 622/264/67 7/263/5
f 593/65/76 592/64/75 596/374/78
f 593/433/76 598/241/79 6/239/2
f 608/425/86 599/240/80 598/241/79
f 599/240/80 604/236/83 5/234/1
f 626/396/70 617/260/64 616/259/63
f 605/250/84 604/236/83 608/425/86
f 568/43/58 16/42/10 5/382/1
f 623/265/68 628/439/71 4/438/4
f 629/268/72 628/30/71 632/363/74
f 629/268/72 634/271/75 3/34/3
f 635/36/76 634/271/75 638/364/78
f 640/265/79 2/263/2 3/438/3
f 641/264/80 640/265/79 644/397/82
f 646/260/83 1/258/1 2/263/2
f 647/259/84 646/260/83 650/396/86
f 647/370/84 610/253/58 9/252/6
f 265/308/9 12/341/9 141/284/9
f 139/6/42 260/18/42 256/8/42
f 258/441/8 11/444/8 264/442/8
f 267/443/43 261/442/43 140/444/43
f 195/334/43 143/282/43 147/281/43
f 147/281/43 151/287/43 155/296/43
f 155/296/43 159/306/43 163/305/43
f 163/305/43 167/313/43 171/315/43
f 171/315/43 175/319/43 179/320/43
f 179/320/43 183/323/43 187/327/43
f 187/327/43 191/332/43 195/334/43
f 195/334/43 147/281/43 155/296/43
f 155/296/43 163/305/43 171/315/43
f 171/315/43 179/320/43 187/327/43
f 187/327/43 195/334/43 155/296/43
f 146/445/44 150/450/45 148/446/45
f 198/448/56 146/445/44 144/447/44
f 153/287/8 149/281/8 145/282/8
f 145/282/8 197/334/8 193/332/8
f 193/332/8 189/327/8 185/323/8
f 185/323/8 181/320/8 177/319/8
f 177/319/8 173/315/8 169/313/8
f 169/313/8 165/305/8 161/306/8
f 161/306/8 157/296/8 153/287/8
f 153/287/8 145/282/8 193/332/8
f 193/332/8 185/323/8 177/319/8
f 177/319/8 169/313/8 161/306/8
f 161/306/8 153/287/8 193/332/8
f 150/450/45 154/455/46 152/451/46
f 154/452/46 158/301/47 156/299/47
f 158/301/47 162/303/48 160/297/48
f 162/303/48 166/457/49 164/454/49
f 166/455/49 170/450/50 168/446/50
f 170/450/50 174/445/9 172/447/9
f 174/445/9 178/448/51 176/449/51
f 178/448/51 182/458/52 180/456/52
f 182/457/52 186/303/53 184/297/53
f 186/303/53 190/301/54 188/299/54
f 190/301/54 194/452/55 192/453/55
f 194/458/55 198/448/56 196/449/56
f 211/316/43 215/278/43 219/279/43
f 219/279/43 223/336/43 227/337/43
f 227/337/43 231/342/43 235/346/43
f 235/346/43 239/350/43 243/357/43
f 243/357/43 247/356/43 251/362/43
f 251/362/43 199/318/43 203/300/43
f 203/300/43 207/289/43 211/316/43
f 211/316/43 219/279/43 227/337/43
f 227/337/43 235/346/43 243/357/43
f 243/357/43 251/362/43 203/300/43
f 203/300/43 211/316/43 227/337/43
f 202/459/44 206/464/45 204/460/45
f 254/462/56 202/459/44 200/461/44
f 241/350/8 237/346/8 233/342/8
f 233/342/8 229/337/8 225/336/8
f 225/336/8 221/279/8 217/278/8
f 217/278/8 213/316/8 209/289/8
f 209/289/8 205/300/8 201/318/8
f 201/318/8 253/362/8 249/356/8
f 249/356/8 245/357/8 241/350/8
f 241/350/8 233/342/8 225/336/8
f 225/336/8 217/278/8 209/289/8
f 209/289/8 201/318/8 249/356/8
f 249/356/8 241/350/8 225/336/8
f 206/464/45 210/466/46 208/465/46
f 210/452/46 214/301/47 212/299/47
f 214/301/47 218/303/48 216/297/48
f 218/303/48 222/457/49 220/454/49
f 222/466/49 226/464/50 224/460/50
f 226/464/50 230/459/9 228/461/9
f 230/459/9 234/462/51 232/463/51
f 234/462/51 238/468/52 236/467/52
f 238/457/52 242/303/53 240/297/53
f 242/303/53 246/301/54 244/299/54
f 246/301/54 250/452/55 248/453/55
f 250/468/55 254/462/56 252/463/56
f 259/341/44 272/308/44 268/345/44
f 271/18/57 266/6/57 262/22/57
f 291/507/43 297/508/43 303/469/43
f 303/469/43 309/509/43 273/470/43
f 273/470/43 279/510/43 285/471/43
f 285/471/43 291/507/43 303/469/43
f 276/10/60 312/41/85 306/39/81
f 306/39/81 300/37/77 294/32/73
f 294/32/73 288/27/69 282/19/65
f 282/19/65 276/10/60 306/39/81
f 321/511/43 327/512/43 333/472/43
f 333/472/43 339/513/43 345/473/43
f 345/473/43 351/514/43 315/474/43
f 315/474/43 321/511/43 333/472/43
f 330/56/69 324/51/65 318/45/60
f 318/45/60 354/71/85 348/68/81
f 348/68/81 342/66/77 336/61/73
f 336/61/73 330/56/69 318/45/60
f 357/515/43 363/516/43 369/476/43
f 369/476/43 375/517/43 381/477/43
f 381/477/43 387/518/43 393/478/43
f 393/478/43 357/515/43 369/476/43
f 390/99/81 384/96/77 378/91/92
f 378/91/92 372/86/69 366/81/65
f 366/81/65 360/75/60 396/103/85
f 396/103/85 390/99/81 378/91/92
f 417/519/43 423/520/43 429/480/43
f 429/480/43 435/521/43 399/481/43
f 399/481/43 405/522/43 411/482/43
f 411/482/43 417/519/43 429/480/43
f 420/123/73 414/118/69 408/113/65
f 408/113/65 402/107/60 438/136/85
f 438/136/85 432/133/81 426/128/97
f 426/128/97 420/123/73 408/113/65
f 459/523/43 465/524/43 471/484/43
f 471/484/43 477/525/43 441/485/43
f 441/485/43 447/526/43 453/486/43
f 453/486/43 459/523/43 471/484/43
f 468/161/97 462/156/73 456/151/69
f 456/151/69 450/146/65 444/140/60
f 444/140/60 480/171/85 474/166/81
f 474/166/81 468/161/97 456/151/69
f 495/527/43 501/528/43 507/488/43
f 507/488/43 513/529/43 519/489/43
f 519/489/43 483/530/43 489/490/43
f 489/490/43 495/527/43 507/488/43
f 498/186/69 492/181/65 486/175/60
f 486/175/60 522/201/85 516/196/81
f 516/196/81 510/193/77 504/190/73
f 504/190/73 498/186/69 486/175/60
f 537/531/43 543/532/43 549/491/43
f 549/491/43 555/533/43 561/492/43
f 561/492/43 525/534/43 531/493/43
f 531/493/43 537/531/43 549/491/43
f 546/220/73 540/215/69 534/210/65
f 534/210/65 528/204/60 564/230/85
f 564/230/85 558/228/81 552/223/97
f 552/223/97 546/220/73 534/210/65
f 585/535/43 591/536/43 597/495/43
f 597/495/43 603/537/43 567/496/43
f 567/496/43 573/538/43 579/497/43
f 579/497/43 585/535/43 597/495/43
f 594/246/97 588/244/73 582/242/69
f 582/242/69 576/237/65 570/231/60
f 570/231/60 606/251/85 600/248/81
f 600/248/81 594/246/97 582/242/69
f 621/539/43 627/540/43 633/498/43
f 633/498/43 639/541/43 645/499/43
f 645/499/43 609/542/43 615/500/43
f 615/500/43 621/539/43 633/498/43
f 624/266/69 618/261/65 612/255/60
f 612/255/60 648/276/85 642/274/81
f 642/274/81 636/272/77 630/269/73
f 630/269/73 624/266/69 612/255/60
