# Blender 5.2.0 LTS
# www.blender.org
o Backdrop_RockFall_Detail
v 43.158909 3.000000 11.447472
v 40.797329 3.000000 14.038005
v 38.474464 3.500000 -27.037699
v 38.837250 2.500000 -27.974167
v 45.004269 5.000000 -8.467122
v 43.158909 5.000000 -11.447472
v 43.960342 4.000000 -12.052693
v 45.903267 4.000000 -8.914767
v 38.474464 0.500000 -27.037699
v 38.837250 1.500000 -27.974167
v 33.327953 3.500000 -28.502007
v 28.000000 3.500000 -28.995714
v 28.000000 2.500000 -30.000000
v 33.512486 2.500000 -29.489193
v 28.000000 0.500000 -28.995714
v 33.327953 0.500000 -28.502007
v 33.512486 1.500000 -29.489193
v 28.000000 1.500000 -30.000000
v 40.797329 5.000000 14.038005
v 43.158909 5.000000 11.447472
v 43.960342 4.000000 12.052693
v 41.473911 4.000000 14.780178
v 34.000000 50.500000 15.000000
v 34.000000 51.500000 15.000000
v 35.000000 51.500000 14.000000
v 34.000000 52.500000 14.000000
v 35.000000 50.500000 14.000000
v 34.000000 49.500000 14.000000
v 35.000000 50.500000 -14.000000
v 35.000000 51.500000 -14.000000
v 34.000000 51.500000 -15.000000
v 34.000000 52.500000 -14.000000
v 34.000000 50.500000 -15.000000
v 34.000000 49.500000 -14.000000
v 22.000000 50.500000 -15.000000
v 22.000000 51.500000 -15.000000
v 21.000000 51.500000 -14.000000
v 22.000000 52.500000 -14.000000
v 22.000000 52.500000 14.000000
v 21.000000 51.500000 14.000000
v 22.000000 51.500000 15.000000
v 22.000000 50.500000 15.000000
v 21.000000 50.500000 -14.000000
v 21.000000 50.500000 14.000000
v 22.000000 49.500000 14.000000
v 22.000000 49.500000 -14.000000
v 30.200001 1.000000 13.000000
v 30.200001 51.000000 13.000000
v 31.200001 51.000000 12.000000
v 30.200001 52.000000 12.000000
v 31.200001 1.000000 12.000000
v 30.200001 0.000000 12.000000
v 31.200001 1.000000 -12.000000
v 31.200001 51.000000 -12.000000
v 30.200001 51.000000 -13.000000
v 30.200001 52.000000 -12.000000
v 30.200001 1.000000 -13.000000
v 30.200001 0.000000 -12.000000
v 29.799999 1.000000 -13.000000
v 29.799999 51.000000 -13.000000
v 28.799999 51.000000 -12.000000
v 29.799999 52.000000 -12.000000
v 29.799999 52.000000 12.000000
v 28.799999 51.000000 12.000000
v 29.799999 51.000000 13.000000
v 29.799999 1.000000 13.000000
v 28.799999 1.000000 -12.000000
v 28.799999 1.000000 12.000000
v 29.799999 0.000000 12.000000
v 29.799999 0.000000 -12.000000
v 2.596316 39.351513 15.199745
v 4.723626 53.072441 16.991552
v -20.948936 0.989411 24.325521
v -20.501213 1.976638 25.233776
v 6.117439 52.873772 16.858086
v 5.519794 54.052509 16.354696
v 3.990130 39.152843 15.066279
v 3.088583 38.371445 14.306917
v 16.874485 39.152843 -0.230562
v 19.001793 52.873772 1.561246
v 18.896416 53.072441 0.165027
v 18.404148 54.052509 1.057856
v 16.769108 39.351513 -1.626781
v 15.972939 38.371445 -0.989925
v 3.276374 42.927559 -12.991553
v 5.403683 56.648487 -11.199745
v 4.009870 56.847157 -11.066280
v 4.911417 57.628555 -10.306917
v -7.972939 57.628555 4.989925
v -8.874486 56.847157 4.230563
v -8.769107 56.648487 5.626781
v -10.896416 42.927559 3.834973
v 1.882560 43.126228 -12.858088
v -11.001795 43.126228 2.438755
v -10.404149 41.947491 2.942144
v 2.480206 41.947491 -12.354698
v -14.095038 -1.626059 17.763531
v -8.119242 14.953038 14.099739
v -7.856701 14.563620 12.765787
v -8.309940 15.874099 13.043671
v -13.832498 -2.015478 16.429581
v -14.949714 -2.547121 17.114552
v -21.150118 -2.015478 4.494237
v -15.174322 14.563620 0.830444
v -16.482237 14.953038 0.459347
v -15.627561 15.874099 1.108327
v -22.458033 -1.626059 4.123139
v -22.267334 -2.547120 5.179208
v -31.880756 3.046962 9.900261
v -25.904963 19.626060 6.236468
v -26.167501 20.015478 7.570420
v -25.050285 20.547121 6.885449
v -17.732666 20.547121 18.820793
v -18.849882 20.015478 19.505764
v -17.541967 19.626060 19.876862
v -23.517763 3.046963 23.540653
v -32.143299 3.436381 11.234211
v -24.825678 3.436381 23.169556
v -24.372440 2.125901 22.891674
v -31.690060 2.125900 10.956328
v 12.664226 11.876011 -24.970245
v 8.910916 38.625431 -17.595894
v 8.453046 38.920952 -18.900892
v 7.885663 39.580769 -17.786119
v 12.206354 12.171531 -26.275244
v 11.907065 10.920674 -25.687212
v -2.052963 12.171532 -33.532780
v -5.806271 38.920952 -26.158428
v -7.130816 38.625431 -25.760622
v -6.373655 39.580769 -25.043655
v -3.377506 11.876011 -33.134972
v -2.352253 10.920674 -32.944748
v -12.910916 5.374568 -14.404108
v -16.664227 32.123989 -7.029755
v -16.206356 31.828468 -5.724757
v -15.907065 33.079327 -6.312790
v -1.647747 33.079327 0.944745
v -1.947037 31.828470 1.532779
v -0.622493 32.123989 1.134972
v 3.130816 5.374568 -6.239380
v -12.453046 5.079047 -13.099109
v 1.806272 5.079047 -5.841573
v 2.373655 4.419231 -6.956346
v -11.885662 4.419231 -14.213881
v 15.482932 -1.980952 24.503994
v 23.327080 20.645161 26.094082
v 24.449711 20.311674 25.301311
v 23.852589 21.587915 25.180269
v 16.605564 -2.314439 23.711224
v 15.354762 -2.923707 23.457674
v 20.181612 -2.314439 6.070025
v 28.025759 20.311674 7.660113
v 27.300467 20.645161 6.492750
v 27.428637 21.587915 7.539070
v 19.456320 -1.980952 4.902662
v 18.930811 -2.923707 5.816475
v 4.672921 3.354840 1.905919
v 12.517069 25.980953 3.496006
v 11.394437 26.314440 4.288777
v 12.645239 26.923708 4.542326
v 9.069190 26.923708 22.183525
v 7.818388 26.314440 21.929976
v 8.543681 25.980953 23.097338
v 0.699534 3.354840 21.507250
v 3.550289 3.688327 2.698689
v -0.025759 3.688327 20.339888
v 0.571364 2.412085 20.460930
v 4.147412 2.412085 2.819732
v -3.969149 -2.101498 -7.163538
v 2.577173 30.574387 -13.903881
v 2.529390 30.298031 -15.290007
v 2.052355 31.535442 -14.798833
v -4.016931 -2.377854 -8.549664
v -4.879044 -3.062554 -7.661999
v -19.798765 -2.377853 -23.877213
v -13.252444 30.298031 -30.617556
v -14.639374 30.574387 -30.624844
v -13.729479 31.535442 -30.126383
v -21.185696 -2.101498 -23.884499
v -20.660879 -3.062554 -22.989548
v -34.577171 3.425613 -10.096119
v -28.030849 36.101498 -16.836464
v -27.983068 36.377853 -15.450337
v -27.120955 37.062553 -16.338001
v -11.339123 37.062553 -1.010452
v -12.201236 36.377853 -0.122788
v -10.814306 36.101498 -0.115500
v -17.360626 3.425613 6.624844
v -34.529388 3.701969 -8.709992
v -18.747557 3.701969 6.617556
v -18.270521 2.464558 6.126382
v -34.052353 2.464558 -9.201167
v 19.271238 3.511858 13.881903
v 8.267000 58.162109 8.566247
v 9.580710 58.380341 8.090282
v 8.505462 59.138008 7.570879
v 20.584948 3.730088 13.405937
v 19.902708 2.535961 13.076378
v 31.024122 3.730088 -8.204792
v 20.019884 58.380341 -13.520447
v 19.576105 58.162109 -14.845375
v 18.944635 59.138008 -14.039851
v 30.580343 3.511858 -9.529720
v 30.341883 2.535961 -8.534352
v 7.733000 -2.162114 -20.566248
v -3.271238 52.488144 -25.881901
v -4.584948 52.269913 -25.405935
v -3.902709 53.464043 -25.076376
v -14.341882 53.464043 -3.465648
v -15.024121 52.269913 -3.795208
v -21.739868 2.135957 24.570187
v -14.108704 43.440186 23.256340
v -14.252021 44.427414 22.253923
v -15.347358 43.599503 22.592751
v -29.814541 0.989411 -4.334574
v -30.605473 2.135957 -4.089910
v -29.957859 1.976638 -5.336993
v -23.117626 44.427414 -6.406172
v -23.565350 43.440186 -7.314427
v -24.212963 43.599503 -6.067345
v 11.117627 -4.427411 14.406172
v 12.212964 -3.599502 14.067345
v 11.565350 -3.440184 15.314426
v 17.814541 39.010590 12.334574
v 17.957859 38.023361 13.336992
v 18.605473 37.864044 12.089911
v 2.252021 -4.427411 -14.253923
v 2.108704 -3.440184 -15.256342
v 3.347358 -3.599502 -14.592751
v 8.948936 39.010590 -16.325521
v 9.739867 37.864044 -16.570187
v 8.501213 38.023361 -17.233776
v -2.944635 -3.138011 2.039850
v -3.576105 -2.162114 2.845375
v -4.019883 -2.380344 1.520446
v -14.580343 52.488144 -2.470279
v -14.341882 53.464043 -3.465648
v -15.024121 52.269913 -3.795208
v 7.494538 -3.138011 -19.570877
v 6.419290 -2.380344 -20.090282
v 7.733000 -2.162114 -20.566248
v -3.902709 53.464043 -25.076376
v -3.271238 52.488144 -25.881901
v -4.584948 52.269913 -25.405935
v 19.902708 2.535961 13.076378
v 20.584948 3.730088 13.405937
v 19.271238 3.511858 13.881903
v 8.505462 59.138008 7.570879
v 8.267000 58.162109 8.566247
v 9.580710 58.380341 8.090282
v 30.341883 2.535961 -8.534352
v 30.580343 3.511858 -9.529720
v 31.024122 3.730088 -8.204792
v 18.944635 59.138008 -14.039851
v 20.019884 58.380341 -13.520447
v 19.576105 58.162109 -14.845375
v -18.270521 2.464558 6.126382
v -17.360626 3.425613 6.624844
v -18.747557 3.701969 6.617556
v -10.814306 36.101498 -0.115500
v -11.339123 37.062553 -1.010452
v -12.201236 36.377853 -0.122788
v -34.052353 2.464558 -9.201167
v -34.529388 3.701969 -8.709992
v -34.577171 3.425613 -10.096119
v -27.120955 37.062553 -16.338001
v -28.030849 36.101498 -16.836464
v -27.983068 36.377853 -15.450337
v -4.879044 -3.062554 -7.661999
v -4.016931 -2.377854 -8.549664
v -3.969149 -2.101498 -7.163538
v 2.052355 31.535442 -14.798833
v 2.577173 30.574387 -13.903881
v 2.529390 30.298031 -15.290007
v -20.660879 -3.062554 -22.989548
v -21.185696 -2.101498 -23.884499
v -19.798765 -2.377853 -23.877213
v -13.729479 31.535442 -30.126383
v -13.252444 30.298031 -30.617556
v -14.639374 30.574387 -30.624844
v 0.571364 2.412085 20.460930
v 0.699534 3.354840 21.507250
v -0.025759 3.688327 20.339888
v 8.543681 25.980953 23.097338
v 9.069190 26.923708 22.183525
v 7.818388 26.314440 21.929976
v 4.147412 2.412085 2.819732
v 3.550289 3.688327 2.698689
v 4.672921 3.354840 1.905919
v 12.645239 26.923708 4.542326
v 12.517069 25.980953 3.496006
v 11.394437 26.314440 4.288777
v 15.354762 -2.923707 23.457674
v 16.605564 -2.314439 23.711224
v 15.482932 -1.980952 24.503994
v 23.852589 21.587915 25.180269
v 23.327080 20.645161 26.094082
v 24.449711 20.311674 25.301311
v 18.930811 -2.923707 5.816475
v 19.456320 -1.980952 4.902662
v 20.181612 -2.314439 6.070025
v 27.428637 21.587915 7.539070
v 28.025759 20.311674 7.660113
v 27.300467 20.645161 6.492750
v 2.373655 4.419231 -6.956346
v 3.130816 5.374568 -6.239380
v 1.806272 5.079047 -5.841573
v -0.622493 32.123989 1.134972
v -1.647747 33.079327 0.944745
v -1.947037 31.828470 1.532779
v -11.885662 4.419231 -14.213881
v -12.453046 5.079047 -13.099109
v -12.910916 5.374568 -14.404108
v -15.907065 33.079327 -6.312790
v -16.664227 32.123989 -7.029755
v -16.206356 31.828468 -5.724757
v 11.907065 10.920674 -25.687212
v 12.206354 12.171531 -26.275244
v 12.664226 11.876011 -24.970245
v 7.885663 39.580769 -17.786119
v 8.910916 38.625431 -17.595894
v 8.453046 38.920952 -18.900892
v -2.352253 10.920674 -32.944748
v -3.377506 11.876011 -33.134972
v -2.052963 12.171532 -33.532780
v -6.373655 39.580769 -25.043655
v -5.806271 38.920952 -26.158428
v -7.130816 38.625431 -25.760622
v -24.372440 2.125901 22.891674
v -23.517763 3.046963 23.540653
v -24.825678 3.436381 23.169556
v -17.541967 19.626060 19.876862
v -17.732666 20.547121 18.820793
v -18.849882 20.015478 19.505764
v -31.690060 2.125900 10.956328
v -32.143299 3.436381 11.234211
v -31.880756 3.046962 9.900261
v -25.050285 20.547121 6.885449
v -25.904963 19.626060 6.236468
v -26.167501 20.015478 7.570420
v -14.949714 -2.547121 17.114552
v -13.832498 -2.015478 16.429581
v -14.095038 -1.626059 17.763531
v -8.309940 15.874099 13.043671
v -8.119242 14.953038 14.099739
v -7.856701 14.563620 12.765787
v -22.267334 -2.547120 5.179208
v -22.458033 -1.626059 4.123139
v -21.150118 -2.015478 4.494237
v -15.627561 15.874099 1.108327
v -15.174322 14.563620 0.830444
v -16.482237 14.953038 0.459347
v -10.404149 41.947491 2.942144
v -10.896416 42.927559 3.834973
v -11.001795 43.126228 2.438755
v -8.769107 56.648487 5.626781
v -7.972939 57.628555 4.989925
v -8.874486 56.847157 4.230563
v 2.480206 41.947491 -12.354698
v 1.882560 43.126228 -12.858088
v 3.276374 42.927559 -12.991553
v 4.911417 57.628555 -10.306917
v 5.403683 56.648487 -11.199745
v 4.009870 56.847157 -11.066280
v 3.088583 38.371445 14.306917
v 3.990130 39.152843 15.066279
v 2.596316 39.351513 15.199745
v 5.519794 54.052509 16.354696
v 4.723626 53.072441 16.991552
v 6.117439 52.873772 16.858086
v 15.972939 38.371445 -0.989925
v 16.769108 39.351513 -1.626781
v 16.874485 39.152843 -0.230562
v 18.404148 54.052509 1.057856
v 19.001793 52.873772 1.561246
v 18.896416 53.072441 0.165027
v 29.799999 0.000000 12.000000
v 29.799999 1.000000 13.000000
v 28.799999 1.000000 12.000000
v 29.799999 51.000000 13.000000
v 29.799999 52.000000 12.000000
v 28.799999 51.000000 12.000000
v 29.799999 0.000000 -12.000000
v 28.799999 1.000000 -12.000000
v 29.799999 1.000000 -13.000000
v 29.799999 52.000000 -12.000000
v 29.799999 51.000000 -13.000000
v 28.799999 51.000000 -12.000000
v 30.200001 0.000000 12.000000
v 31.200001 1.000000 12.000000
v 30.200001 1.000000 13.000000
v 30.200001 52.000000 12.000000
v 30.200001 51.000000 13.000000
v 31.200001 51.000000 12.000000
v 30.200001 0.000000 -12.000000
v 30.200001 1.000000 -13.000000
v 31.200001 1.000000 -12.000000
v 30.200001 52.000000 -12.000000
v 31.200001 51.000000 -12.000000
v 30.200001 51.000000 -13.000000
v 22.000000 49.500000 14.000000
v 22.000000 50.500000 15.000000
v 21.000000 50.500000 14.000000
v 22.000000 51.500000 15.000000
v 22.000000 52.500000 14.000000
v 21.000000 51.500000 14.000000
v 22.000000 49.500000 -14.000000
v 21.000000 50.500000 -14.000000
v 22.000000 50.500000 -15.000000
v 22.000000 52.500000 -14.000000
v 22.000000 51.500000 -15.000000
v 21.000000 51.500000 -14.000000
v 34.000000 49.500000 14.000000
v 35.000000 50.500000 14.000000
v 34.000000 50.500000 15.000000
v 34.000000 52.500000 14.000000
v 34.000000 51.500000 15.000000
v 35.000000 51.500000 14.000000
v 34.000000 49.500000 -14.000000
v 34.000000 50.500000 -15.000000
v 35.000000 50.500000 -14.000000
v 34.000000 52.500000 -14.000000
v 35.000000 51.500000 -14.000000
v 34.000000 51.500000 -15.000000
v 28.000000 0.500000 -28.995714
v 28.000000 1.500000 -30.000000
v 28.000000 3.500000 -28.995714
v 28.000000 2.500000 -30.000000
v 33.327953 0.500000 -28.502007
v 33.512486 1.500000 -29.489193
v 33.327953 3.500000 -28.502007
v 33.512486 2.500000 -29.489193
v 38.474464 0.500000 -27.037699
v 38.837250 1.500000 -27.974167
v 38.474464 3.500000 -27.037699
v 38.837250 2.500000 -27.974167
v 43.264278 0.500000 -24.652655
v 43.792965 1.500000 -25.506514
v 43.264278 3.500000 -24.652655
v 43.792965 2.500000 -25.506514
v 47.534286 0.500000 -21.428091
v 48.210869 1.500000 -22.170267
v 47.534286 3.500000 -21.428091
v 48.210869 2.500000 -22.170267
v 51.139080 0.500000 -17.473820
v 51.940514 1.500000 -18.079041
v 51.139080 3.500000 -17.473820
v 51.940514 2.500000 -18.079041
v 53.955894 0.500000 -12.924510
v 54.854897 1.500000 -13.372151
v 53.955894 3.500000 -12.924510
v 54.854897 2.500000 -13.372151
v 55.888821 0.500000 -7.935062
v 56.854771 1.500000 -8.209889
v 55.888821 3.500000 -7.935062
v 56.854771 2.500000 -8.209889
v 56.872025 0.500000 -2.675378
v 57.872025 1.500000 -2.768051
v 56.872025 3.500000 -2.675378
v 57.872025 2.500000 -2.768051
v 56.872025 0.500000 2.675378
v 57.872025 1.500000 2.768051
v 56.872025 3.500000 2.675378
v 57.872025 2.500000 2.768051
v 55.888821 0.500000 7.935062
v 56.854771 1.500000 8.209889
v 55.888821 3.500000 7.935062
v 56.854771 2.500000 8.209889
v 53.955894 0.500000 12.924510
v 54.854897 1.500000 13.372151
v 53.955894 3.500000 12.924510
v 54.854897 2.500000 13.372151
v 51.139080 0.500000 17.473820
v 51.940514 1.500000 18.079041
v 51.139080 3.500000 17.473820
v 51.940514 2.500000 18.079041
v 47.534286 0.500000 21.428091
v 48.210869 1.500000 22.170267
v 47.534286 3.500000 21.428091
v 48.210869 2.500000 22.170267
v 43.264278 0.500000 24.652655
v 43.792965 1.500000 25.506514
v 43.264278 3.500000 24.652655
v 43.792965 2.500000 25.506514
v 38.474464 0.500000 27.037699
v 38.837250 1.500000 27.974167
v 38.474464 3.500000 27.037699
v 38.837250 2.500000 27.974167
v 33.327953 0.500000 28.502007
v 33.512486 1.500000 29.489193
v 33.327953 3.500000 28.502007
v 33.512486 2.500000 29.489193
v 28.000000 0.500000 28.995714
v 28.000000 1.500000 30.000000
v 28.000000 3.500000 28.995714
v 28.000000 2.500000 30.000000
v 22.672049 0.500000 28.502008
v 22.487514 1.500000 29.489193
v 22.672049 3.500000 28.502008
v 22.487514 2.500000 29.489193
v 17.525532 0.500000 27.037697
v 17.162750 1.500000 27.974167
v 17.525532 3.500000 27.037697
v 17.162750 2.500000 27.974167
v 12.735724 0.500000 24.652657
v 12.207035 1.500000 25.506514
v 12.735724 3.500000 24.652657
v 12.207035 2.500000 25.506514
v 8.465715 0.500000 21.428093
v 7.789131 1.500000 22.170267
v 8.465715 3.500000 21.428093
v 7.789131 2.500000 22.170267
v 4.860918 0.500000 17.473820
v 4.059484 1.500000 18.079041
v 4.860918 3.500000 17.473820
v 4.059484 2.500000 18.079041
v 2.044101 0.500000 12.924505
v 1.145102 1.500000 13.372151
v 2.044101 3.500000 12.924505
v 1.145102 2.500000 13.372151
v 0.111176 0.500000 7.935054
v -0.854771 1.500000 8.209889
v 0.111176 3.500000 7.935054
v -0.854771 2.500000 8.209889
v -0.872025 0.500000 2.675387
v -1.872025 1.500000 2.768051
v -0.872025 3.500000 2.675387
v -1.872025 2.500000 2.768051
v -0.872025 0.500000 -2.675387
v -1.872025 1.500000 -2.768051
v -0.872025 3.500000 -2.675387
v -1.872025 2.500000 -2.768051
v 0.111176 0.500000 -7.935054
v -0.854771 1.500000 -8.209889
v 0.111176 3.500000 -7.935054
v -0.854771 2.500000 -8.209889
v 2.044101 0.500000 -12.924505
v 1.145102 1.500000 -13.372151
v 2.044101 3.500000 -12.924505
v 1.145102 2.500000 -13.372151
v 4.860918 0.500000 -17.473820
v 4.059484 1.500000 -18.079041
v 4.860918 3.500000 -17.473820
v 4.059484 2.500000 -18.079041
v 8.465715 0.500000 -21.428093
v 7.789131 1.500000 -22.170267
v 8.465715 3.500000 -21.428093
v 7.789131 2.500000 -22.170267
v 12.735724 0.500000 -24.652657
v 12.207035 1.500000 -25.506514
v 12.735724 3.500000 -24.652657
v 12.207035 2.500000 -25.506514
v 17.525532 0.500000 -27.037697
v 17.162750 1.500000 -27.974167
v 17.525532 3.500000 -27.037697
v 17.162750 2.500000 -27.974167
v 22.672049 0.500000 -28.502008
v 22.487514 1.500000 -29.489193
v 22.672049 3.500000 -28.502008
v 22.487514 2.500000 -29.489193
v 28.000000 3.000000 -18.995716
v 28.000000 4.000000 -20.000000
v 28.000000 5.000000 -18.995716
v -14.580343 52.488144 -2.470279
v 31.490446 3.000000 -18.672279
v -3.576105 -2.162114 2.845375
v 31.490446 5.000000 -18.672279
v 31.674990 4.000000 -19.659462
v 34.862049 3.000000 -17.712976
v 6.419290 -2.380344 -20.090282
v 34.862049 5.000000 -17.712976
v 35.224834 4.000000 -18.649445
v 37.999954 3.000000 -16.150482
v -4.019883 -2.380344 1.520446
v 37.999954 5.000000 -16.150482
v 38.528641 4.000000 -17.004341
v 40.797329 3.000000 -14.038005
v -2.944635 -3.138011 2.039850
v 40.797329 5.000000 -14.038005
v 41.473911 4.000000 -14.780178
v 43.158909 3.000000 -11.447472
v 7.494538 -3.138011 -19.570877
v 43.158909 5.000000 -11.447472
v 43.960342 4.000000 -12.052693
v 45.004269 3.000000 -8.467122
v 11.565350 -3.440184 15.314426
v 45.004269 5.000000 -8.467122
v 45.903267 4.000000 -8.914767
v 46.270561 3.000000 -5.198436
v 17.957859 38.023361 13.336992
v 46.270561 5.000000 -5.198436
v 47.236511 4.000000 -5.473260
v 46.914680 3.000000 -1.752694
v 18.605473 37.864044 12.089911
v 46.914680 5.000000 -1.752694
v 47.914680 4.000000 -1.845367
v 46.914680 3.000000 1.752694
v 17.814541 39.010590 12.334574
v 46.914680 5.000000 1.752694
v 47.914680 4.000000 1.845367
v 46.270561 3.000000 5.198436
v 12.212964 -3.599502 14.067345
v 46.270561 5.000000 5.198436
v 47.236511 4.000000 5.473260
v 45.004269 3.000000 8.467122
v 11.117627 -4.427411 14.406172
v 45.004269 5.000000 8.467122
v 45.903267 4.000000 8.914767
v 43.158909 3.000000 11.447472
v 3.347358 -3.599502 -14.592751
v 43.158909 5.000000 11.447472
v 43.960342 4.000000 12.052693
v 40.797329 3.000000 14.038005
v 9.739867 37.864044 -16.570187
v 40.797329 5.000000 14.038005
v 41.473911 4.000000 14.780178
v 37.999954 3.000000 16.150482
v 8.501213 38.023361 -17.233776
v 37.999954 5.000000 16.150482
v 38.528641 4.000000 17.004341
v 34.862049 3.000000 17.712976
v 8.948936 39.010590 -16.325521
v 34.862049 5.000000 17.712976
v 35.224834 4.000000 18.649445
v 31.490446 3.000000 18.672279
v 2.108704 -3.440184 -15.256342
v 31.490446 5.000000 18.672279
v 31.674990 4.000000 19.659462
v 28.000000 3.000000 18.995716
v 2.252021 -4.427411 -14.253923
v 28.000000 5.000000 18.995716
v 28.000000 4.000000 20.000000
v 24.509554 3.000000 18.672279
v -29.957859 1.976638 -5.336993
v 24.509554 5.000000 18.672279
v 24.325010 4.000000 19.659462
v 21.137953 3.000000 17.712976
v -23.565350 43.440186 -7.314427
v 21.137953 5.000000 17.712976
v 20.775166 4.000000 18.649445
v 18.000046 3.000000 16.150482
v -24.212963 43.599503 -6.067345
v 18.000046 5.000000 16.150482
v 17.471357 4.000000 17.004341
v 15.202669 3.000000 14.038002
v -23.117626 44.427414 -6.406172
v 15.202669 5.000000 14.038002
v 14.526088 4.000000 14.780178
v 12.841090 3.000000 11.447475
v -14.252021 44.427414 22.253923
v 12.841090 5.000000 11.447475
v 12.039656 4.000000 12.052693
v 10.995731 3.000000 8.467120
v -15.347358 43.599503 22.592751
v 10.995731 5.000000 8.467120
v 10.096733 4.000000 8.914767
v 9.729433 3.000000 5.198425
v -14.108704 43.440186 23.256340
v 9.729433 5.000000 5.198425
v 8.763487 4.000000 5.473260
v 9.085318 3.000000 1.752704
v -20.501213 1.976638 25.233776
v 9.085318 5.000000 1.752704
v 8.085318 4.000000 1.845367
v 9.085318 3.000000 -1.752704
v -30.605473 2.135957 -4.089910
v 9.085318 5.000000 -1.752704
v 8.085318 4.000000 -1.845367
v 9.729433 3.000000 -5.198425
v -21.739868 2.135957 24.570187
v 9.729433 5.000000 -5.198425
v 8.763487 4.000000 -5.473260
v 10.995731 3.000000 -8.467120
v -20.948936 0.989411 24.325521
v 10.995731 5.000000 -8.467120
v 10.096733 4.000000 -8.914767
v 12.841090 3.000000 -11.447475
v -29.814541 0.989411 -4.334574
v 12.841090 5.000000 -11.447475
v 12.039656 4.000000 -12.052693
v 15.202669 3.000000 -14.038002
v 28.000000 4.000000 -20.000000
v 15.202669 5.000000 -14.038002
v 14.526088 4.000000 -14.780178
v 18.000046 3.000000 -16.150482
v 31.674990 4.000000 -19.659462
v 18.000046 5.000000 -16.150482
v 17.471357 4.000000 -17.004341
v 21.137953 3.000000 -17.712976
v 24.325010 4.000000 -19.659462
v 21.137953 5.000000 -17.712976
v 20.775166 4.000000 -18.649445
v 24.509554 3.000000 -18.672279
v 24.325010 4.000000 -19.659462
v 24.509554 5.000000 -18.672279
v 20.775166 4.000000 -18.649445
v 43.792965 1.500000 -25.506514
v 43.264278 0.500000 -24.652655
v 43.792965 2.500000 -25.506514
v 43.264278 3.500000 -24.652655
v 48.210869 1.500000 -22.170267
v 47.534286 0.500000 -21.428091
v 45.004269 3.000000 -8.467122
v 43.158909 3.000000 -11.447472
v 48.210869 2.500000 -22.170267
v 47.534286 3.500000 -21.428091
v 51.940514 1.500000 -18.079041
v 51.139080 0.500000 -17.473820
v 51.940514 2.500000 -18.079041
v 51.139080 3.500000 -17.473820
v 45.903267 4.000000 8.914767
v 45.004269 5.000000 8.467122
v 54.854897 1.500000 -13.372151
v 53.955894 0.500000 -12.924510
v 54.854897 2.500000 -13.372151
v 53.955894 3.500000 -12.924510
v 56.854771 1.500000 -8.209889
v 55.888821 0.500000 -7.935062
v 41.473911 4.000000 -14.780178
v 40.797329 5.000000 -14.038005
v 56.854771 2.500000 -8.209889
v 55.888821 3.500000 -7.935062
v 45.004269 3.000000 8.467122
v 57.872025 1.500000 -2.768051
v 56.872025 0.500000 -2.675378
v 57.872025 2.500000 -2.768051
v 56.872025 3.500000 -2.675378
v 57.872025 1.500000 2.768051
v 56.872025 0.500000 2.675378
v 40.797329 3.000000 -14.038005
v 57.872025 2.500000 2.768051
v 56.872025 3.500000 2.675378
v 56.854771 1.500000 8.209889
v 55.888821 0.500000 7.935062
v 56.854771 2.500000 8.209889
v 55.888821 3.500000 7.935062
v 47.236511 4.000000 5.473260
v 46.270561 5.000000 5.198436
v 54.854897 1.500000 13.372151
v 53.955894 0.500000 12.924510
v 54.854897 2.500000 13.372151
v 53.955894 3.500000 12.924510
v 51.940514 1.500000 18.079041
v 51.139080 0.500000 17.473820
v 38.528641 4.000000 -17.004341
v 37.999954 5.000000 -16.150482
v 51.940514 2.500000 18.079041
v 51.139080 3.500000 17.473820
v 46.270561 3.000000 5.198436
v 48.210869 1.500000 22.170267
v 47.534286 0.500000 21.428091
v 48.210869 2.500000 22.170267
v 47.534286 3.500000 21.428091
v 43.792965 1.500000 25.506514
v 43.264278 0.500000 24.652655
v 37.999954 3.000000 -16.150482
v 43.792965 2.500000 25.506514
v 43.264278 3.500000 24.652655
v 38.837250 1.500000 27.974167
v 38.474464 0.500000 27.037699
v 38.837250 2.500000 27.974167
v 38.474464 3.500000 27.037699
v 47.914680 4.000000 1.845367
v 46.914680 5.000000 1.752694
v 33.512486 1.500000 29.489193
v 33.327953 0.500000 28.502007
v 33.512486 2.500000 29.489193
v 33.327953 3.500000 28.502007
v 28.000000 1.500000 30.000000
v 28.000000 0.500000 28.995714
v 35.224834 4.000000 -18.649445
v 34.862049 5.000000 -17.712976
v 28.000000 2.500000 30.000000
v 28.000000 3.500000 28.995714
v 46.914680 3.000000 1.752694
v 22.487514 1.500000 29.489193
v 22.672049 0.500000 28.502008
v 22.487514 2.500000 29.489193
v 22.672049 3.500000 28.502008
v 17.162750 1.500000 27.974167
v 17.525532 0.500000 27.037697
v 34.862049 3.000000 -17.712976
v 17.162750 2.500000 27.974167
v 17.525532 3.500000 27.037697
v 12.207035 1.500000 25.506514
v 12.735724 0.500000 24.652657
v 12.207035 2.500000 25.506514
v 12.735724 3.500000 24.652657
v 47.914680 4.000000 -1.845367
v 46.914680 5.000000 -1.752694
v 7.789131 1.500000 22.170267
v 8.465715 0.500000 21.428093
v 7.789131 2.500000 22.170267
v 8.465715 3.500000 21.428093
v 4.059484 1.500000 18.079041
v 4.860918 0.500000 17.473820
v 31.490446 5.000000 -18.672279
v 4.059484 2.500000 18.079041
v 4.860918 3.500000 17.473820
v 46.914680 3.000000 -1.752694
v 1.145102 1.500000 13.372151
v 2.044101 0.500000 12.924505
v 1.145102 2.500000 13.372151
v 2.044101 3.500000 12.924505
v -0.854771 1.500000 8.209889
v 0.111176 0.500000 7.935054
v 31.490446 3.000000 -18.672279
v -0.854771 2.500000 8.209889
v 0.111176 3.500000 7.935054
v -1.872025 1.500000 2.768051
v -0.872025 0.500000 2.675387
v -1.872025 2.500000 2.768051
v -0.872025 3.500000 2.675387
v 47.236511 4.000000 -5.473260
v 46.270561 5.000000 -5.198436
v -1.872025 1.500000 -2.768051
v -0.872025 0.500000 -2.675387
v -1.872025 2.500000 -2.768051
v -0.872025 3.500000 -2.675387
v -0.854771 1.500000 -8.209889
v 0.111176 0.500000 -7.935054
v -0.854771 2.500000 -8.209889
v 0.111176 3.500000 -7.935054
v 46.270561 3.000000 -5.198436
v 1.145102 1.500000 -13.372151
v 2.044101 0.500000 -12.924505
v 28.000000 5.000000 -18.995716
v 1.145102 2.500000 -13.372151
v 2.044101 3.500000 -12.924505
v 4.059484 1.500000 -18.079041
v 4.860918 0.500000 -17.473820
v 4.059484 2.500000 -18.079041
v 4.860918 3.500000 -17.473820
v 7.789131 1.500000 -22.170267
v 8.465715 0.500000 -21.428093
v 7.789131 2.500000 -22.170267
v 8.465715 3.500000 -21.428093
v 12.207035 1.500000 -25.506514
v 12.735724 0.500000 -24.652657
v 28.000000 3.000000 -18.995716
v 12.207035 2.500000 -25.506514
v 12.735724 3.500000 -24.652657
v 17.162750 1.500000 -27.974167
v 17.525532 0.500000 -27.037697
v 17.162750 2.500000 -27.974167
v 17.525532 3.500000 -27.037697
v 22.487514 1.500000 -29.489193
v 22.672049 0.500000 -28.502008
v 22.487514 2.500000 -29.489193
v 22.672049 3.500000 -28.502008
v 37.999954 3.000000 16.150482
v 38.528641 4.000000 17.004341
v 37.999954 5.000000 16.150482
v 34.862049 3.000000 17.712976
v 35.224834 4.000000 18.649445
v 34.862049 5.000000 17.712976
v 31.490446 3.000000 18.672279
v 31.674990 4.000000 19.659462
v 31.490446 5.000000 18.672279
v 28.000000 3.000000 18.995716
v 28.000000 4.000000 20.000000
v 28.000000 5.000000 18.995716
v 24.509554 3.000000 18.672279
v 24.325010 4.000000 19.659462
v 24.509554 5.000000 18.672279
v 21.137953 3.000000 17.712976
v 20.775166 4.000000 18.649445
v 21.137953 5.000000 17.712976
v 18.000046 3.000000 16.150482
v 17.471357 4.000000 17.004341
v 18.000046 5.000000 16.150482
v 15.202669 3.000000 14.038002
v 14.526088 4.000000 14.780178
v 15.202669 5.000000 14.038002
v 12.841090 3.000000 11.447475
v 12.039656 4.000000 12.052693
v 12.841090 5.000000 11.447475
v 10.995731 3.000000 8.467120
v 10.096733 4.000000 8.914767
v 10.995731 5.000000 8.467120
v 9.729433 3.000000 5.198425
v 8.763487 4.000000 5.473260
v 9.729433 5.000000 5.198425
v 9.085318 3.000000 1.752704
v 8.085318 4.000000 1.845367
v 9.085318 5.000000 1.752704
v 9.085318 3.000000 -1.752704
v 8.085318 4.000000 -1.845367
v 9.085318 5.000000 -1.752704
v 9.729433 3.000000 -5.198425
v 8.763487 4.000000 -5.473260
v 9.729433 5.000000 -5.198425
v 10.995731 3.000000 -8.467120
v 10.096733 4.000000 -8.914767
v 10.995731 5.000000 -8.467120
v 12.841090 3.000000 -11.447475
v 12.039656 4.000000 -12.052693
v 12.841090 5.000000 -11.447475
v 15.202669 3.000000 -14.038002
v 14.526088 4.000000 -14.780178
v 15.202669 5.000000 -14.038002
v 18.000046 3.000000 -16.150482
v 17.471357 4.000000 -17.004341
v 18.000046 5.000000 -16.150482
v 21.137953 3.000000 -17.712976
v 21.137953 5.000000 -17.712976
v 24.509554 3.000000 -18.672279
v 24.509554 5.000000 -18.672279
vn -0.0000 -1.0000 -0.0000
vn 0.2549 0.7086 -0.6579
vn 0.6316 0.7086 -0.3145
vn 0.5631 0.7086 -0.4252
vn 0.2549 -0.7086 -0.6579
vn 0.1297 0.7086 -0.6936
vn -0.0000 0.7086 -0.7056
vn -0.0000 -0.7086 -0.7056
vn 0.1297 -0.7086 -0.6936
vn 0.4754 0.7086 0.5214
vn 0.5631 0.7086 0.4252
vn 0.4606 -0.4606 0.7588
vn 0.4606 0.4606 0.7588
vn 0.7588 0.4606 0.4606
vn 0.4606 0.7588 0.4606
vn 0.7588 -0.4606 0.4606
vn 0.4606 -0.7588 0.4606
vn 0.7588 -0.4606 -0.4606
vn 0.7588 0.4606 -0.4606
vn 0.4606 0.4606 -0.7588
vn 0.4606 0.7588 -0.4606
vn 0.4606 -0.4606 -0.7588
vn 0.4606 -0.7588 -0.4606
vn -0.4606 -0.4606 -0.7588
vn -0.4606 0.4606 -0.7588
vn -0.7588 0.4606 -0.4606
vn -0.4606 0.7588 -0.4606
vn -0.4606 0.7588 0.4606
vn -0.7588 0.4606 0.4606
vn -0.4606 0.4606 0.7588
vn -0.4606 -0.4606 0.7588
vn -0.7588 -0.4606 -0.4606
vn -0.7588 -0.4606 0.4606
vn -0.4606 -0.7588 0.4606
vn -0.4606 -0.7588 -0.4606
vn -0.2136 -0.5429 0.8122
vn -0.0736 0.3599 0.9301
vn -0.1522 -0.9872 0.0471
vn 0.2955 -0.0000 0.9553
vn 0.3421 0.3006 0.8903
vn 0.1638 0.6522 0.7402
vn 0.2021 -0.6021 0.7724
vn -0.0668 -0.8352 0.5459
vn 0.7955 -0.6021 0.0679
vn 0.9355 0.3006 0.1858
vn 0.9040 0.3599 -0.2306
vn 0.7572 0.6522 0.0356
vn 0.7641 -0.5429 -0.3485
vn 0.5266 -0.8352 -0.1586
vn 0.0736 -0.3599 -0.9301
vn 0.2136 0.5429 -0.8122
vn -0.2021 0.6021 -0.7724
vn 0.0668 0.8352 -0.5459
vn -0.5266 0.8352 0.1586
vn -0.7955 0.6021 -0.0679
vn -0.7641 0.5429 0.3485
vn -0.9040 -0.3599 0.2306
vn -0.3421 -0.3006 -0.8903
vn -0.9355 -0.3006 -0.1858
vn -0.7572 -0.6522 -0.0356
vn -0.1638 -0.6522 -0.7402
vn 0.6054 -0.6036 0.5189
vn 0.9112 0.2449 0.3314
vn 0.9895 0.1287 -0.0664
vn 0.8543 0.5195 0.0165
vn 0.6837 -0.7197 0.1211
vn 0.3505 -0.8782 0.3254
vn 0.2022 -0.7197 -0.6642
vn 0.5080 0.1287 -0.8517
vn 0.1179 0.2449 -0.9624
vn 0.3728 0.5195 -0.7688
vn -0.1879 -0.6036 -0.7749
vn -0.1310 -0.8782 -0.4599
vn -0.9112 -0.2449 -0.3314
vn -0.6054 0.6036 -0.5189
vn -0.6837 0.7197 -0.1211
vn -0.3505 0.8782 -0.3254
vn 0.1310 0.8782 0.4599
vn -0.2022 0.7197 0.6642
vn 0.1879 0.6036 0.7749
vn -0.1179 -0.2449 0.9624
vn -0.9895 -0.1287 0.0664
vn -0.5080 -0.1287 0.8517
vn -0.3728 -0.5195 0.7688
vn -0.8543 -0.5195 -0.0165
vn 0.9376 -0.3039 -0.1692
vn 0.8141 0.5761 0.0734
vn 0.6775 0.6642 -0.3158
vn 0.5083 0.8610 0.0166
vn 0.8010 -0.2158 -0.5584
vn 0.7117 -0.5888 -0.3831
vn -0.0199 -0.2157 -0.9762
vn -0.1434 0.6642 -0.7336
vn -0.5384 0.5761 -0.6150
vn -0.3126 0.8610 -0.4012
vn -0.4149 -0.3039 -0.8576
vn -0.1092 -0.5888 -0.8009
vn -0.8141 -0.5761 -0.0734
vn -0.9376 0.3039 0.1692
vn -0.8010 0.2158 0.5584
vn -0.7117 0.5888 0.3831
vn 0.1092 0.5888 0.8009
vn 0.0199 0.2158 0.9762
vn 0.4149 0.3039 0.8576
vn 0.5384 -0.5761 0.6150
vn -0.6775 -0.6642 0.3158
vn 0.1434 -0.6642 0.7337
vn 0.3126 -0.8610 0.4012
vn -0.5083 -0.8610 -0.0166
vn 0.1243 -0.5878 0.7994
vn 0.4253 0.2806 0.8604
vn 0.7601 0.1811 0.6240
vn 0.5820 0.5618 0.5879
vn 0.4591 -0.6872 0.5630
vn 0.0860 -0.8689 0.4874
vn 0.6421 -0.6872 -0.3398
vn 0.9431 0.1811 -0.2787
vn 0.7268 0.2806 -0.6269
vn 0.7650 0.5618 -0.3148
vn 0.4258 -0.5878 -0.6879
vn 0.2690 -0.8689 -0.4154
vn -0.4253 -0.2806 -0.8604
vn -0.1243 0.5878 -0.7994
vn -0.4591 0.6872 -0.5630
vn -0.0860 0.8689 -0.4874
vn -0.2690 0.8689 0.4154
vn -0.6421 0.6872 0.3398
vn -0.4258 0.5878 0.6879
vn -0.7268 -0.2806 0.6269
vn -0.7601 -0.1811 -0.6240
vn -0.9431 -0.1811 0.2788
vn -0.7650 -0.5618 0.3148
vn -0.5820 -0.5618 -0.5879
vn 0.7640 -0.5699 0.3024
vn 0.9414 0.3154 0.1198
vn 0.9271 0.2329 -0.2936
vn 0.7849 0.6020 -0.1471
vn 0.7498 -0.6523 -0.1109
vn 0.4927 -0.8565 0.1538
vn 0.0890 -0.6523 -0.7527
vn 0.2664 0.2329 -0.9353
vn -0.1473 0.3153 -0.9375
vn 0.1241 0.6020 -0.7888
vn -0.3246 -0.5699 -0.7549
vn -0.1681 -0.8565 -0.4880
vn -0.9414 -0.3153 -0.1198
vn -0.7640 0.5699 -0.3024
vn -0.7498 0.6523 0.1109
vn -0.4927 0.8565 -0.1538
vn 0.1681 0.8565 0.4880
vn -0.0890 0.6523 0.7527
vn 0.3246 0.5699 0.7549
vn 0.1473 -0.3153 0.9375
vn -0.9271 -0.2329 0.2936
vn -0.2664 -0.2329 0.9353
vn -0.1241 -0.6020 0.7888
vn -0.7849 -0.6020 0.1471
vn 0.1652 -0.3490 0.9225
vn -0.0158 0.5500 0.8350
vn 0.3760 0.6151 0.6931
vn 0.0553 0.8410 0.5382
vn 0.5570 -0.2839 0.7805
vn 0.3535 -0.6400 0.6822
vn 0.9576 -0.2839 -0.0489
vn 0.7766 0.6151 -0.1363
vn 0.6443 0.5500 -0.5315
vn 0.4559 0.8410 -0.2912
vn 0.8253 -0.3490 -0.4440
vn 0.7542 -0.6400 -0.1472
vn 0.0158 -0.5500 -0.8350
vn -0.1652 0.3490 -0.9225
vn -0.5570 0.2839 -0.7805
vn -0.3535 0.6400 -0.6822
vn -0.7541 0.6400 0.1472
vn -0.9576 0.2839 0.0489
vn -0.9431 0.1593 0.2917
vn 0.1522 0.9872 -0.0471
vn -0.2955 -0.0000 -0.9553
vn 0.9431 -0.1593 -0.2917
vn 0.1965 -0.9759 0.0949
vn -0.4350 -0.0000 0.9004
vn -0.8787 -0.2182 -0.4245
vn -0.1965 0.9759 -0.0949
vn 0.4350 -0.0000 -0.9004
vn 0.8787 0.2182 0.4245
vn -0.1925 -0.9611 0.1982
vn 0.7174 -0.0000 0.6967
vn -0.6696 0.2764 0.6894
vn 0.1925 0.9611 -0.1982
vn -0.7174 -0.0000 -0.6967
vn 0.6696 -0.2764 -0.6894
vn -0.3268 -0.9428 -0.0663
vn -0.1987 -0.0000 0.9801
vn -0.9240 0.3335 -0.1873
vn 0.3268 0.9428 0.0663
vn 0.1987 -0.0000 -0.9801
vn 0.9240 -0.3335 0.1873
vn 0.1340 -0.9553 -0.2634
vn 0.8912 -0.0000 0.4536
vn -0.4333 -0.2955 0.8514
vn -0.1340 0.9553 0.2634
vn -0.8912 -0.0000 -0.4536
vn 0.4333 0.2955 -0.8514
vn -0.3320 -0.9211 0.2035
vn 0.5227 -0.0000 0.8525
vn -0.7852 0.3894 0.4814
vn 0.3320 0.9211 -0.2035
vn -0.5227 -0.0000 -0.8525
vn 0.7852 -0.3894 -0.4814
vn -0.1520 -0.9801 -0.1280
vn -0.6442 -0.0000 0.7648
vn -0.7496 0.1987 -0.6314
vn 0.1520 0.9801 0.1280
vn 0.6442 -0.0000 -0.7648
vn 0.7496 -0.1987 0.6314
vn -0.0000 -0.0000 1.0000
vn -1.0000 -0.0000 -0.0000
vn -0.0000 1.0000 -0.0000
vn -0.0000 -0.0000 -1.0000
vn 1.0000 -0.0000 -0.0000
vn 0.1838 -0.0000 -0.9830
vn 0.1837 -0.0000 -0.9830
vn 0.3612 -0.0000 -0.9325
vn 0.5264 -0.0000 -0.8502
vn 0.6737 -0.0000 -0.7390
vn 0.7980 -0.0000 -0.6026
vn 0.8952 -0.0000 -0.4457
vn 0.9618 -0.0000 -0.2737
vn 0.9957 -0.0000 -0.0923
vn 0.9957 -0.0000 0.0923
vn 0.9618 -0.0000 0.2737
vn 0.8952 -0.0000 0.4457
vn 0.7980 -0.0000 0.6026
vn 0.6737 -0.0000 0.7390
vn 0.5264 -0.0000 0.8502
vn 0.3612 -0.0000 0.9325
vn 0.1837 -0.0000 0.9830
vn 0.1838 -0.0000 0.9830
vn -0.1838 -0.0000 0.9830
vn -0.1837 -0.0000 0.9830
vn -0.3612 -0.0000 0.9325
vn -0.5264 -0.0000 0.8502
vn -0.6737 -0.0000 0.7390
vn -0.7980 -0.0000 0.6026
vn -0.8952 -0.0000 0.4457
vn -0.9618 -0.0000 0.2737
vn -0.9957 -0.0000 0.0923
vn -0.9957 -0.0000 -0.0923
vn -0.9618 -0.0000 -0.2737
vn -0.8952 -0.0000 -0.4457
vn -0.7980 -0.0000 -0.6026
vn -0.6737 -0.0000 -0.7390
vn -0.5264 -0.0000 -0.8502
vn -0.3612 -0.0000 -0.9325
vn -0.1837 -0.0000 -0.9830
vn -0.1838 -0.0000 -0.9830
vn -0.8253 0.3490 0.4440
vn -0.6443 -0.5500 0.5315
vn -0.3760 -0.6151 -0.6931
vn 0.3714 -0.7086 -0.5999
vn -0.7766 -0.6151 0.1363
vn 0.4754 -0.7086 -0.5214
vn -0.4559 -0.8410 0.2912
vn 0.5631 -0.7086 -0.4252
vn -0.0553 -0.8410 -0.5382
vn 0.6316 -0.7086 -0.3145
vn 0.5885 -0.5281 0.6122
vn 0.6787 -0.7086 -0.1931
vn 0.7287 0.3813 0.5689
vn 0.7026 -0.7086 -0.0651
vn 0.9218 0.3338 0.1969
vn 0.7026 -0.7086 0.0651
vn 0.6860 0.6757 0.2699
vn 0.6787 -0.7086 0.1931
vn 0.7816 -0.5756 0.2403
vn 0.6316 -0.7086 0.3145
vn 0.4550 -0.8225 0.3414
vn 0.5631 -0.7086 0.4252
vn 0.5094 -0.5756 -0.6397
vn 0.4754 -0.7086 0.5214
vn 0.6496 0.3338 -0.6830
vn 0.3714 -0.7086 0.5999
vn 0.2802 0.3813 -0.8810
vn 0.2549 -0.7086 0.6579
vn 0.4138 0.6757 -0.6101
vn 0.1297 -0.7086 0.6936
vn 0.1400 -0.5281 -0.8376
vn -0.0000 -0.7086 0.7056
vn 0.1828 -0.8225 -0.5386
vn -0.1297 -0.7086 0.6936
vn -0.7287 -0.3813 -0.5689
vn -0.2549 -0.7086 0.6579
vn -0.5885 0.5281 -0.6122
vn -0.3714 -0.7086 0.5999
vn -0.7817 0.5756 -0.2403
vn -0.4754 -0.7086 0.5214
vn -0.4550 0.8225 -0.3413
vn -0.5631 -0.7086 0.4252
vn -0.1828 0.8225 0.5386
vn -0.6316 -0.7086 0.3145
vn -0.5094 0.5756 0.6397
vn -0.6787 -0.7086 0.1931
vn -0.1400 0.5281 0.8376
vn -0.7026 -0.7086 0.0651
vn -0.2802 -0.3813 0.8810
vn -0.7026 -0.7086 -0.0651
vn -0.9218 -0.3338 -0.1969
vn -0.6787 -0.7086 -0.1931
vn -0.6496 -0.3338 0.6831
vn -0.6316 -0.7086 -0.3145
vn -0.4138 -0.6757 0.6101
vn -0.5631 -0.7086 -0.4252
vn -0.6860 -0.6757 -0.2699
vn -0.4754 -0.7086 -0.5214
vn -0.3714 -0.7086 -0.5999
vn -0.2549 -0.7086 -0.6579
vn -0.1297 -0.7086 -0.6936
vn -0.1297 0.7086 -0.6936
vn -0.2549 0.7086 -0.6579
vn 0.3714 0.7086 -0.5999
vn 0.4754 0.7086 -0.5214
vn 0.6316 0.7086 0.3145
vn 0.6787 0.7086 -0.1931
vn 0.7026 0.7086 -0.0651
vn 0.7026 0.7086 0.0651
vn 0.6787 0.7086 0.1931
vn 0.3714 0.7086 0.5999
vn 0.2549 0.7086 0.6579
vn 0.1297 0.7086 0.6936
vn -0.0000 0.7086 0.7056
vn -0.1297 0.7086 0.6936
vn -0.2549 0.7086 0.6579
vn -0.3714 0.7086 0.5999
vn -0.4754 0.7086 0.5214
vn -0.5631 0.7086 0.4252
vn -0.6316 0.7086 0.3145
vn -0.6787 0.7086 0.1931
vn -0.7026 0.7086 0.0651
vn -0.7026 0.7086 -0.0651
vn -0.6787 0.7086 -0.1931
vn -0.6316 0.7086 -0.3145
vn -0.5631 0.7086 -0.4252
vn -0.4754 0.7086 -0.5214
vn -0.3714 0.7086 -0.5999
vt -1.252514 -0.344272
vt -1.295248 -0.311823
vt -1.308375 -0.378521
vt -1.033044 1.149477
vt -1.059285 1.194225
vt -0.989938 1.193861
vt -0.747486 -0.855728
vt -0.691625 -0.821479
vt -0.704752 -0.888177
vt -0.052893 2.702626
vt -0.078062 2.643689
vt -0.008251 2.653622
vt 0.995135 0.126798
vt 1.029247 0.186504
vt 0.963562 0.175593
vt -0.686474 1.576772
vt -0.662622 1.514902
vt -0.731969 1.528719
vt -0.652184 0.793705
vt -0.704987 0.747652
vt -0.638289 0.728181
vt 1.490000 -0.600000
vt 1.490000 -0.650000
vt 1.440000 -0.600000
vt 0.425273 2.956900
vt 0.413350 2.908105
vt 0.479036 2.919017
vt -1.023046 0.120604
vt -1.075362 0.167742
vt -1.016994 0.184416
vt -1.113367 -0.258960
vt -1.122902 -0.206157
vt -1.057506 -0.224712
vt 0.426718 0.126798
vt 0.476486 0.175593
vt 0.410240 0.186504
vt 0.427184 -1.154867
vt 0.453460 -1.109176
vt 0.390919 -1.096499
vt -0.781378 0.793705
vt -0.758716 0.728181
vt -0.824112 0.747652
vt 1.490000 0.600000
vt 1.440000 0.600000
vt 1.490000 0.650000
vt 0.947232 0.701993
vt 1.000994 0.676022
vt 0.978805 0.742269
vt 0.207371 0.120604
vt 0.177514 0.184416
vt 0.233646 0.167742
vt -0.147107 2.097374
vt -0.191749 2.146378
vt -0.121938 2.156312
vt -0.913526 0.123228
vt -0.868031 0.171281
vt -0.937378 0.185098
vt 0.632262 -0.227116
vt 0.625853 -0.174800
vt 0.569722 -0.214439
vt -0.281339 2.832424
vt -0.249496 2.881428
vt -0.211528 2.842358
vt 1.510000 -0.600000
vt 1.560000 -0.600000
vt 1.510000 -0.650000
vt -0.540715 0.005775
vt -0.566956 0.050523
vt -0.610062 0.006139
vt 0.767738 -1.172884
vt 0.830278 -1.185561
vt 0.774147 -1.225200
vt 0.124010 2.097374
vt 0.094128 2.156312
vt 0.163819 2.146378
vt 0.460058 0.123228
vt 0.435500 0.185098
vt 0.504806 0.171281
vt 1.192629 1.079396
vt 1.166354 1.032258
vt 1.222486 1.015584
vt 0.245571 2.881428
vt 0.270184 2.832424
vt 0.200493 2.842358
vt 1.510000 0.600000
vt 1.510000 0.650000
vt 1.560000 0.600000
vt -1.356048 0.816900
vt -1.401542 0.841823
vt -1.399153 0.772517
vt 0.946541 -0.290824
vt 0.972816 -0.245133
vt 1.009081 -0.303501
vt 0.154429 1.918572
vt 0.199506 1.957642
vt 0.129816 1.967576
vt -0.243952 0.383100
vt -0.200847 0.427483
vt -0.198457 0.358177
vt -0.376953 1.079396
vt -0.383006 1.015584
vt -0.324637 1.032258
vt 0.275990 2.702626
vt 0.236181 2.653622
vt 0.305872 2.643689
vt 1.100000 0.700000
vt 1.050000 0.700000
vt 1.100000 0.750000
vt 0.739942 1.576772
vt 0.695194 1.528719
vt 0.764500 1.514902
vt 0.118683 0.347817
vt 0.156541 0.311969
vt 0.090314 0.292079
vt 1.100000 -0.750000
vt 1.100000 -0.700000
vt 1.050000 -0.700000
vt -0.195135 2.673202
vt -0.163562 2.624407
vt -0.229247 2.613496
vt 0.049496 1.918572
vt 0.081339 1.967576
vt 0.011528 1.957642
vt 0.374727 -0.156901
vt 0.320964 -0.119017
vt 0.386650 -0.108106
vt -0.547816 0.106295
vt -0.561711 0.171819
vt -0.495013 0.152348
vt 0.123514 2.624407
vt 0.173282 2.673202
vt 0.189760 2.613496
vt -0.877098 -0.993843
vt -0.886633 -0.941040
vt -0.942494 -0.975288
vt -0.147232 -0.101993
vt -0.178805 -0.142269
vt -0.200994 -0.076022
vt -1.218622 0.106295
vt -1.175888 0.152348
vt -1.241284 0.171819
vt 0.447447 1.950529
vt 0.486993 1.893202
vt 0.425061 1.901168
vt -0.318683 1.252183
vt -0.290314 1.307921
vt -0.356541 1.288031
vt 0.112601 -0.221371
vt 0.105435 -0.172009
vt 0.167368 -0.179975
vt -0.117613 0.546034
vt -0.168875 0.593801
vt -0.102648 0.608577
vt -0.616729 1.950529
vt -0.666850 1.901168
vt -0.604496 1.893202
vt 0.394283 0.889306
vt 0.445546 0.879795
vt 0.422652 0.945045
vt 0.555881 -0.720309
vt 0.610648 -0.703367
vt 0.578267 -0.765721
vt 1.284361 0.546034
vt 1.313762 0.608577
vt 1.248512 0.593801
vt -1.155881 0.320309
vt -1.178267 0.365721
vt -1.210648 0.303367
vt 0.315639 1.653966
vt 0.351488 1.606200
vt 0.286238 1.591423
vt 0.216729 0.049471
vt 0.204496 0.106798
vt 0.266850 0.098832
vt -0.594283 0.710694
vt -0.622652 0.654955
vt -0.645546 0.720205
vt -0.705435 2.172009
vt -0.712601 2.221371
vt -0.767368 2.179975
vt -1.047447 0.049471
vt -1.025061 0.098832
vt -1.086993 0.106798
vt -0.031125 1.606200
vt -0.082387 1.653966
vt -0.097352 1.591424
vt 1.700000 -0.700000
vt 1.750000 -0.700000
vt 1.700000 -0.750000
vt 1.700000 0.700000
vt 1.700000 0.750000
vt 1.750000 0.700000
vt -1.216276 0.049471
vt -0.767368 -1.129637
vt -0.712601 -1.112696
vt 0.303367 2.179975
vt 0.365721 2.172009
vt 0.112601 0.712696
vt -1.497893 0.266850
vt 0.105435 0.762817
vt -1.178267 2.172009
vt -1.155881 2.221371
vt 0.828509 1.893202
vt 0.816276 1.950529
vt -0.765721 -0.172009
vt 0.578267 -0.172009
vt 0.890727 -0.616729
vt -0.705435 -1.162817
vt 0.897893 -0.666850
vt 0.320964 1.004514
vt 0.374727 0.978544
vt -0.076022 -0.119017
vt -0.142269 -0.108106
vt 1.253819 2.673202
vt 1.529017 0.476486
vt 1.517094 0.426718
vt 0.947232 2.956900
vt 0.742269 2.908105
vt 0.676022 2.919017
vt -0.670297 0.186504
vt -0.653819 0.126798
vt 0.425273 -0.378544
vt -0.178805 -0.108106
vt -0.147232 -0.156901
vt -0.717094 0.173282
vt 0.413350 -0.428312
vt -1.726469 0.185098
vt -1.702618 0.123228
vt -0.610062 1.818893
vt 0.772517 1.818893
vt 0.841823 1.805075
vt -1.702618 0.460058
vt -0.686474 1.506319
vt -0.989938 -0.118893
vt 0.126470 1.514902
vt 0.358177 -0.105075
vt -0.868031 -0.331242
vt -0.913526 -0.306319
vt 0.128859 0.695194
vt 0.102618 0.739942
vt -0.134934 0.184416
vt -0.140987 0.120604
vt -1.154867 1.299048
vt 0.625853 1.299048
vt 0.569722 1.315722
vt 0.946541 -0.146185
vt 0.972816 -0.099048
vt 1.371432 -0.376953
vt -0.245133 -0.099048
vt -1.259013 1.079396
vt 0.774147 -0.099048
vt 0.034977 -1.075362
vt 0.028568 -1.023046
vt 0.453460 1.346185
vt 0.090314 0.253952
vt 0.156541 0.268728
vt -0.795353 1.653966
vt 0.720205 0.268728
vt -0.168875 1.656749
vt -0.117613 1.647237
vt 1.288031 1.931272
vt -0.356541 1.931272
vt -0.290314 1.946048
vt 0.610318 0.608577
vt 0.595353 0.546034
vt 0.879795 1.931272
vt 0.945045 1.946048
vt 0.347817 0.220962
vt 0.311969 0.268728
vt -0.082387 -0.047237
vt -1.144584 0.106295
vt -0.942494 1.000774
vt -0.311823 0.981303
vt -0.378521 1.000774
vt -1.594038 -0.495013
vt -1.252514 1.027356
vt -1.295248 0.981303
vt -1.057506 -0.100774
vt -0.041522 0.728181
vt -0.055416 0.793705
vt -0.821479 -0.100774
vt -0.704752 -0.081303
vt -0.415497 -0.652184
vt -0.405962 -0.704987
vt 0.642904 2.156312
vt 0.617735 2.097374
vt 0.245571 0.515346
vt -0.443724 -0.211528
vt -0.398647 -0.249496
vt 0.124010 0.617735
vt 0.838455 0.081339
vt 0.798647 0.049496
vt 0.920207 -0.052893
vt 0.270184 0.559987
vt 0.199506 -0.753314
vt 0.154429 -0.715346
vt -0.817735 2.702626
vt -0.544821 -0.191749
vt -0.520207 -0.147107
vt 0.275990 -0.817735
vt -0.438455 -0.281339
vt 0.236181 -0.849578
vt -0.650000 2.550000
vt -0.600000 0.050000
vt -0.650000 0.050000
vt 0.650000 0.050000
vt 0.600000 2.550000
vt 0.650000 2.550000
vt 0.600000 0.050000
vt -0.600000 2.550000
vt -0.750000 2.575000
vt -0.700000 2.525000
vt -0.750000 2.525000
vt 0.750000 2.525000
vt 0.700000 2.575000
vt 0.750000 2.575000
vt 0.700000 2.525000
vt -0.700000 2.575000
vt 2.198017 -0.602635
vt 2.039866 -0.701900
vt 2.073696 -0.739009
vt 1.675624 1.474460
vt 1.400000 1.449786
vt 1.400000 1.500000
vt 1.666398 1.425100
vt 1.941862 1.398708
vt 2.295163 0.445738
vt 2.157945 0.572374
vt 2.250213 0.423356
vt 1.923723 1.351885
vt 2.157945 -0.572374
vt 2.189648 1.275326
vt 2.163214 1.232633
vt 2.410543 1.108513
vt 2.198017 0.602635
vt 2.376714 1.071405
vt 2.597026 0.903952
vt 2.556954 0.873691
vt 2.295163 -0.445738
vt 2.697795 0.646226
vt 2.742745 0.668608
vt 2.794441 0.396753
vt 2.039866 0.701900
vt 2.842739 0.410494
vt 2.250213 -0.423356
vt 2.893601 0.138403
vt 2.843601 0.133769
vt 2.893601 -0.138403
vt 2.073696 0.739009
vt 2.843601 -0.133769
vt 2.794441 -0.396753
vt 2.842739 -0.410494
vt 2.313528 -0.259922
vt 2.742745 -0.668608
vt 2.697795 -0.646226
vt 2.597026 -0.903952
vt 1.926432 0.850217
vt 2.556954 -0.873691
vt 2.361825 -0.273663
vt 2.376714 -1.071405
vt 2.410543 -1.108513
vt 2.163214 -1.232633
vt 1.899998 0.807524
vt 2.189648 -1.275326
vt 1.923723 -1.351885
vt 1.941862 -1.398708
vt 2.345734 -0.087635
vt 1.666398 -1.425100
vt 1.675624 -1.474460
vt 1.400000 -1.449786
vt 1.743102 0.885649
vt 1.400000 -1.500000
vt 2.395734 -0.092268
vt 1.124376 -1.474460
vt 1.133602 -1.425100
vt 0.858137 -1.398708
vt 1.761242 0.932472
vt 0.876277 -1.351885
vt 0.610352 -1.275326
vt 0.636786 -1.232633
vt 2.395734 0.092268
vt 0.423286 -1.071405
vt 0.389457 -1.108513
vt 0.202974 -0.903952
vt 1.583750 0.982973
vt 0.243046 -0.873691
vt 2.345734 0.087635
vt 0.057255 -0.668608
vt 0.102205 -0.646225
vt 0.005559 -0.396753
vt 1.574522 0.933614
vt 0.005559 -0.396753
vt -0.042739 -0.410494
vt -0.093601 -0.138403
vt -0.043601 -0.133769
vt 2.361825 0.273663
vt -0.093601 0.138403
vt -0.043601 0.133769
vt -0.042739 0.410494
vt 0.005559 0.396753
vt 2.313528 0.259922
vt 0.057255 0.668608
vt 0.005559 0.396753
vt 1.400000 1.000000
vt 0.102205 0.646225
vt 0.202974 0.903952
vt 0.243046 0.873691
vt 0.423286 1.071405
vt 0.389457 1.108513
vt 0.610352 1.275326
vt 1.400000 0.949786
vt 0.636786 1.232633
vt 0.876277 1.351885
vt 0.858137 1.398708
vt 1.133602 1.425100
vt 1.124376 1.474460
vt 1.926432 -0.850217
vt 1.899998 -0.807524
vt 1.743102 -0.885649
vt 1.761242 -0.932472
vt 1.583750 -0.982973
vt 1.574522 -0.933614
vt 1.400000 -1.000000
vt 1.400000 -0.949786
vt 1.225478 -0.933614
vt 1.216251 -0.982973
vt 1.056898 -0.885649
vt 1.038758 -0.932472
vt 0.873568 -0.850217
vt 0.900002 -0.807524
vt 0.760133 -0.701900
vt 0.726304 -0.739009
vt 0.601983 -0.602635
vt 0.642054 -0.572374
vt 0.504837 -0.445738
vt 0.549787 -0.423356
vt 0.486472 -0.259921
vt 0.438174 -0.273663
vt 0.404266 -0.092268
vt 0.454266 -0.087635
vt 0.404266 0.092268
vt 0.454266 0.087635
vt 0.438174 0.273663
vt 0.486472 0.259921
vt 0.504837 0.445738
vt 0.549787 0.423356
vt 0.642054 0.572374
vt 0.601983 0.602635
vt 0.760133 0.701900
vt 0.726304 0.739009
vt 0.873568 0.850217
vt 0.900002 0.807524
vt 1.056898 0.885649
vt 1.038758 0.932472
vt 1.216251 0.982973
vt 1.225478 0.933614
vt -1.047447 -1.216276
vt -1.490727 0.216729
vt -1.129637 2.179975
vt -1.228509 0.106798
vt 0.897893 1.901168
vt 0.447447 0.816276
vt -1.497893 0.098832
vt -0.703367 -0.179975
vt 0.729638 -0.179975
vt 0.995135 -0.653819
vt 1.004514 -0.119017
vt -0.195135 1.253819
vt 1.529017 0.175593
vt -0.331242 0.171281
vt 1.531242 1.528719
vt 1.194225 -0.105075
vt -0.200847 -0.118893
vt 0.207371 -0.140987
vt -1.096499 1.315722
vt 0.427184 1.299048
vt 0.034977 0.167742
vt 1.192629 -1.259013
vt -0.303501 -0.115722
vt -1.265066 1.015584
vt -1.185561 -0.115722
vt -0.810318 1.591423
vt -0.622652 0.253952
vt -0.795353 0.315639
vt 1.656749 0.593801
vt -1.584503 -0.547816
vt -1.218622 -1.144584
vt -0.975288 1.000774
vt -1.158478 0.171819
vt -0.405962 0.747652
vt -0.781378 -0.055416
vt -1.594038 0.152348
vt -1.122902 -0.081303
vt -0.224712 -0.100774
vt -0.438455 2.832424
vt -0.544821 2.146378
vt 0.838455 1.967576
vt -0.753314 1.957642
vt 1.510000 2.550000
vt 1.490000 0.050000
vt 1.510000 0.050000
vt 1.490000 2.550000
vt 1.700000 2.575000
vt 1.100000 2.525000
vt 1.700000 2.525000
vt 1.100000 2.575000
vt 1.400000 0.125000
vt 1.675624 0.075000
vt 1.400000 0.075000
vt 1.124376 0.125000
vt 1.124376 0.075000
vt 1.675624 0.125000
vt 1.941862 0.075000
vt 1.941862 0.125000
vt 2.189648 0.075000
vt 2.189648 0.125000
vt 2.410543 0.075000
vt 1.108513 0.125000
vt 0.903952 0.075000
vt 1.108513 0.075000
vt 0.903952 0.125000
vt 0.668608 0.075000
vt 0.668608 0.125000
vt 0.410494 0.075000
vt 0.410494 0.125000
vt 0.138403 0.075000
vt 0.138403 0.125000
vt -0.138403 0.075000
vt -0.138403 0.125000
vt -0.410494 0.075000
vt -0.410494 0.125000
vt -0.668608 0.075000
vt -0.668608 0.125000
vt -0.903952 0.075000
vt -0.903952 0.125000
vt -1.108513 0.075000
vt 2.410543 0.125000
vt 0.858137 0.075000
vt 0.858137 0.125000
vt 0.610352 0.075000
vt 0.610352 0.125000
vt 0.389457 0.075000
vt -1.108513 0.125000
vt 0.389457 0.125000
vt 0.167368 0.729638
vt 0.555881 -0.221371
vt 1.270297 2.613496
vt 0.386650 1.028312
vt 0.978805 2.908105
vt 0.479036 -0.404514
vt -0.729017 0.123514
vt -0.540715 1.805075
vt -1.728859 0.504806
vt -0.731969 1.531242
vt -1.059285 -0.105075
vt 0.102618 1.576772
vt 0.427483 -0.118893
vt 1.365023 -0.324637
vt 0.830278 -0.115722
vt 0.654955 0.253952
vt 1.252183 1.979038
vt -0.031125 -0.056749
vt -0.877098 0.981303
vt -0.888177 -0.081303
vt -0.747486 -0.127356
vt 0.200493 0.553314
vt 0.163819 0.649578
vt 0.944821 -0.008251
vt 0.843724 0.011528
vt -0.842904 2.643689
vt 0.129816 -0.759987
vt -0.729017 2.624407
vt -0.404514 2.919017
vt -1.399153 1.818893
vt 0.005775 1.805075
vt -0.214439 1.315722
vt 1.365023 1.032258
vt 0.595353 1.284361
vt -0.056749 1.606200
vt 0.422652 1.946048
vt 0.553314 2.842358
vt 0.944821 2.653622
s 1
f 112/1/77 110/2/75 111/3/76
f 180/4/145 179/5/144 175/6/140
f 102/7/67 101/8/66 97/9/62
f 82/10/47 80/11/45 81/12/46
f 198/13/163 197/14/162 193/15/158
f 178/16/143 176/17/141 177/18/142
f 100/19/65 98/20/63 99/21/64
f 69/22/34 66/23/31 68/24/33
f 196/25/161 194/26/159 195/27/160
f 167/28/132 164/29/129 166/30/131
f 108/31/73 107/32/72 103/33/68
f 65/23/30 63/22/28 64/24/29
f 204/34/169 203/35/168 199/36/164
f 163/37/128 161/38/126 162/39/127
f 106/40/71 104/41/69 105/42/70
f 70/43/35 67/44/32 59/45/24
f 202/46/167 200/47/165 201/48/166
f 168/49/133 165/50/130 157/51/122
f 95/52/60 92/53/57 94/54/59
f 62/43/27 60/45/25 61/44/26
f 191/55/156 188/56/153 190/57/155
f 160/58/125 158/59/123 159/60/124
f 91/61/56 89/62/54 90/63/55
f 52/64/17 51/65/16 47/66/12
f 187/67/152 185/68/150 186/69/151
f 150/70/115 149/71/114 145/72/110
f 96/73/61 93/74/58 85/75/50
f 50/64/15 48/66/13 49/65/14
f 192/76/157 189/77/154 181/78/146
f 148/79/113 146/80/111 147/81/112
f 88/82/53 86/83/51 87/84/52
f 58/85/23 57/86/22 53/87/18
f 184/88/149 182/89/147 183/90/148
f 156/91/121 155/92/120 151/93/116
f 78/94/43 77/95/42 71/96/36
f 56/85/21 54/87/19 55/86/20
f 174/97/139 173/98/138 169/99/134
f 154/100/119 152/101/117 153/102/118
f 76/103/41 72/104/37 75/105/40
f 46/106/35 43/107/32 35/108/24
f 172/109/137 170/110/135 171/111/136
f 143/112/108 140/113/105 142/114/107
f 41/115/30 39/116/28 40/117/29
f 208/118/173 206/119/171 207/120/172
f 84/121/49 83/122/48 79/123/44
f 582/124/265 570/125/259 205/126/170
f 120/127/85 117/128/82 109/129/74
f 564/130/257 209/131/174 210/132/175
f 115/133/80 113/134/78 114/135/79
f 578/136/263 566/137/258 574/138/261
f 119/139/84 116/140/81 118/141/83
f 622/142/285 614/143/281 618/144/283
f 130/145/95 128/146/93 129/147/94
f 630/148/289 626/149/287 610/150/279
f 132/151/97 131/152/96 127/153/92
f 598/154/273 590/155/269 594/156/271
f 124/157/89 122/158/87 123/159/88
f 606/160/277 602/161/275 586/162/267
f 126/163/91 125/164/90 121/165/86
f 646/166/297 638/167/293 642/168/295
f 136/169/101 134/170/99 135/171/100
f 678/172/313 666/173/307 634/174/291
f 144/175/109 141/176/106 133/177/98
f 658/178/303 650/179/299 654/180/301
f 674/181/311 662/182/305 670/183/309
f 45/116/34 42/115/31 44/117/33
f 139/184/104 137/185/102 138/186/103
f 38/106/27 36/108/25 37/107/26
f 28/187/17 27/188/16 23/189/12
f 26/187/15 24/189/13 25/188/14
f 34/190/23 33/191/22 29/192/18
f 32/190/21 30/192/19 31/191/20
f 674/193/311 666/173/307 678/172/313
f 658/178/303 670/183/309 662/182/305
f 646/166/297 654/194/301 650/195/299
f 634/174/291 642/196/295 638/197/293
f 630/198/289 634/199/291 626/200/287
f 622/142/285 638/201/293 646/202/297
f 610/150/279 618/144/283 614/143/281
f 630/198/289 602/161/275 606/160/277
f 598/154/273 614/203/281 622/204/285
f 586/205/267 594/156/271 590/155/269
f 674/181/311 586/206/267 662/182/305
f 598/207/273 658/208/303 590/209/269
f 578/136/263 570/210/259 582/211/265
f 564/130/257 574/212/261 566/213/258
f 208/214/173 210/132/175 209/131/174
f 206/119/171 570/125/259 207/120/172
f 582/211/265 203/215/168 204/216/169
f 202/217/167 206/119/171 208/118/173
f 199/36/164 201/218/166 200/219/165
f 204/34/169 197/220/162 198/221/163
f 196/222/161 200/47/165 202/46/167
f 193/15/158 195/27/160 194/26/159
f 198/13/163 566/223/258 578/224/263
f 209/225/174 194/226/159 196/222/161
f 191/55/156 189/227/154 192/228/157
f 188/56/153 186/229/151 190/57/155
f 184/88/149 186/69/151 185/68/150
f 181/78/146 183/230/148 182/231/147
f 192/232/157 179/5/144 180/4/145
f 178/233/143 182/89/147 184/88/149
f 175/234/140 177/18/142 176/17/141
f 180/4/145 173/98/138 174/97/139
f 178/16/143 171/235/136 176/17/141
f 169/236/134 171/111/136 170/110/135
f 174/97/139 188/237/153 191/238/156
f 185/68/150 170/239/135 172/240/137
f 167/28/132 165/241/130 168/242/133
f 163/243/128 166/30/131 164/29/129
f 160/58/125 162/39/127 161/38/126
f 158/244/123 165/50/130 159/245/124
f 156/246/121 157/51/122 155/247/120
f 154/248/119 158/59/123 160/58/125
f 152/101/117 155/249/120 153/102/118
f 156/91/121 149/71/114 150/70/115
f 148/250/113 152/101/117 154/100/119
f 145/251/110 147/81/112 146/80/111
f 150/70/115 164/252/129 167/253/132
f 161/254/126 146/80/111 148/79/113
f 143/112/108 141/176/106 144/175/109
f 139/184/104 142/255/107 140/256/105
f 136/257/101 138/186/103 137/185/102
f 133/258/98 135/171/100 134/170/99
f 144/175/109 131/259/96 132/260/97
f 136/169/101 129/261/94 134/170/99
f 127/153/92 129/262/94 128/263/93
f 132/151/97 125/264/90 126/265/91
f 124/157/89 128/146/93 130/145/95
f 122/266/87 125/164/90 123/267/88
f 143/268/108 121/165/86 140/269/105
f 137/270/102 122/158/87 124/157/89
f 119/271/84 117/128/82 120/127/85
f 116/140/81 114/272/79 118/141/83
f 112/1/77 114/135/79 113/134/78
f 110/273/75 117/128/82 111/274/76
f 108/31/73 109/275/74 107/32/72
f 112/276/77 105/42/70 110/277/75
f 103/278/68 105/42/70 104/41/69
f 108/31/73 101/8/66 102/7/67
f 100/19/65 104/279/69 106/280/71
f 98/20/63 101/281/66 99/21/64
f 119/139/84 97/282/62 116/140/81
f 100/283/65 115/133/80 98/284/63
f 95/52/60 93/285/58 96/286/61
f 92/53/57 90/63/55 94/54/59
f 88/287/53 90/288/55 89/289/54
f 85/75/50 87/84/52 86/83/51
f 96/290/61 83/291/48 84/292/49
f 82/293/47 86/294/51 88/287/53
f 79/123/44 81/12/46 80/11/45
f 84/292/49 77/295/42 78/296/43
f 76/297/41 80/11/45 82/10/47
f 71/96/36 75/105/40 72/104/37
f 78/296/43 92/298/57 95/299/60
f 76/300/41 91/301/56 72/302/37
f 69/22/34 67/44/32 70/43/35
f 65/303/30 68/304/33 66/305/31
f 62/43/27 64/24/29 63/22/28
f 59/306/24 61/307/26 60/308/25
f 70/43/35 57/86/22 58/85/23
f 56/85/21 60/45/25 62/43/27
f 53/309/18 55/308/20 54/307/19
f 58/85/23 51/65/16 52/64/17
f 50/64/15 54/87/19 56/85/21
f 47/305/12 49/310/14 48/303/13
f 52/64/17 66/23/31 69/22/34
f 63/22/28 48/66/13 50/64/15
f 45/116/34 43/107/32 46/106/35
f 41/311/30 44/312/33 42/313/31
f 38/106/27 40/117/29 39/116/28
f 35/314/24 37/315/26 36/316/25
f 46/106/35 33/191/22 34/190/23
f 32/190/21 36/108/25 38/106/27
f 29/317/18 31/316/20 30/315/19
f 34/190/23 27/188/16 28/187/17
f 26/187/15 30/192/19 32/190/21
f 23/313/12 25/318/14 24/311/13
f 28/187/17 42/115/31 45/116/34
f 39/116/28 24/189/13 26/187/15
f 21/319/11 19/320/10 22/321/10
f 17/322/9 15/323/8 18/324/8
f 14/322/6 12/323/7 11/325/6
f 10/326/5 16/325/9 17/322/9
f 8/327/3 6/328/4 5/329/3
f 4/326/2 11/325/6 3/330/2
f 612/319/278 613/320/280 609/331/278
f 697/332/260 9/330/5 10/326/5
f 699/332/320 3/330/2 700/333/320
f 701/334/262 698/333/260 697/332/260
f 588/327/266 581/328/264 584/335/264
f 705/334/321 700/333/320 706/336/321
f 707/337/264 702/336/262 701/334/262
f 709/337/4 706/336/321 710/338/4
f 711/339/322 20/331/11 21/319/11
f 707/337/264 714/340/266 708/338/264
f 709/337/4 716/340/3 715/341/3
f 713/341/266 718/342/268 714/340/266
f 7/335/4 720/343/321 6/328/4
f 715/341/3 722/342/323 721/344/323
f 608/339/276 609/331/278 605/345/276
f 724/346/270 718/342/268 717/344/268
f 726/346/324 722/342/323 727/347/324
f 728/348/272 725/347/270 724/346/270
f 584/335/264 577/343/262 580/349/262
f 726/346/324 732/350/325 731/348/325
f 728/348/272 734/351/274 729/350/272
f 731/348/325 736/351/326 735/352/326
f 711/339/322 738/353/326 712/345/322
f 739/354/276 734/351/274 733/352/274
f 741/354/322 736/351/326 742/355/322
f 743/356/278 740/355/276 739/354/276
f 745/357/320 720/343/321 719/349/321
f 747/356/11 742/355/322 748/358/11
f 608/339/276 601/353/274 604/359/274
f 743/356/278 751/360/280 744/358/278
f 747/356/11 753/360/10 752/361/10
f 750/361/280 755/362/282 751/360/280
f 580/349/262 573/363/260 576/357/260
f 752/361/10 758/362/327 757/364/327
f 754/364/282 760/365/284 755/362/282
f 757/364/327 762/365/328 761/366/328
f 737/359/326 764/367/325 738/353/326
f 759/366/284 766/368/286 760/365/284
f 761/366/328 768/368/329 767/369/329
f 765/369/286 770/370/288 766/368/286
f 745/357/320 772/371/2 746/363/320
f 767/369/329 774/370/330 773/372/330
f 604/359/274 597/367/272 600/373/272
f 776/374/290 770/370/288 769/372/288
f 778/374/331 774/370/330 779/375/331
f 780/376/292 777/375/290 776/374/290
f 576/357/260 569/371/5 572/377/5
f 783/376/332 779/375/331 784/378/332
f 785/379/294 781/378/292 780/376/292
f 787/379/333 784/378/332 788/380/333
f 789/381/324 764/367/325 763/373/325
f 785/379/294 792/382/296 786/380/294
f 787/379/333 794/382/334 793/383/334
f 795/384/298 792/382/296 791/383/296
f 686/385/6 772/371/2 771/377/2
f 798/384/335 794/382/334 799/386/335
f 600/373/272 593/387/270 596/381/270
f 801/388/300 796/386/298 795/384/298
f 798/384/335 804/389/336 803/388/336
f 801/388/300 806/390/302 802/389/300
f 568/385/9 569/371/5 565/391/9
f 803/388/336 809/392/337 808/393/337
f 810/394/304 806/390/302 805/393/302
f 808/393/337 813/395/338 812/394/338
f 814/396/323 790/387/324 789/381/324
f 816/397/306 811/395/304 810/394/304
f 812/394/338 819/398/339 818/397/339
f 820/399/308 817/398/306 816/397/306
f 818/397/339 823/400/340 822/399/340
f 592/396/268 593/387/270 589/401/268
f 825/402/310 821/403/308 820/399/308
f 562/404/7 797/391/6 686/385/6
f 828/402/341 823/400/340 829/405/341
f 830/406/312 826/405/310 825/402/310
f 828/402/341 833/407/342 832/406/342
f 830/406/312 835/408/314 831/407/312
f 832/406/342 837/408/343 836/409/343
f 8/327/3 815/401/323 814/396/323
f 838/410/315 835/408/314 834/409/314
f 682/404/8 565/391/9 840/411/8
f 841/410/344 837/408/343 842/412/344
f 838/410/315 844/413/316 839/412/315
f 841/410/344 846/413/319 845/414/319
f 588/327/266 589/401/268 585/329/266
f 843/414/316 848/415/317 844/413/316
f 845/414/319 850/415/318 849/416/318
f 847/416/317 15/323/8 848/415/317
f 849/416/318 12/323/7 13/324/7
f 620/417/282 613/320/280 616/321/280
f 22/321/10 853/418/327 852/417/327
f 620/417/282 621/419/284 617/418/282
f 852/417/327 856/419/328 855/420/328
f 628/421/286 621/419/284 624/420/284
f 858/421/329 856/419/328 859/422/329
f 632/423/288 625/422/286 628/421/286
f 861/423/330 859/422/329 862/424/330
f 632/423/288 633/425/290 629/424/288
f 861/423/330 865/425/331 864/426/331
f 636/426/290 637/427/292 633/425/290
f 864/426/331 868/427/332 867/428/332
f 644/429/294 637/427/292 640/428/292
f 870/429/333 868/427/332 871/430/333
f 644/429/294 645/431/296 641/430/294
f 870/429/333 874/431/334 873/432/334
f 652/433/298 645/431/296 648/432/296
f 876/433/335 874/431/334 877/434/335
f 656/435/300 649/434/298 652/433/298
f 879/435/336 877/434/335 880/436/336
f 656/435/300 657/437/302 653/436/300
f 879/435/336 883/437/337 882/438/337
f 664/439/304 657/437/302 660/438/302
f 882/438/337 886/440/338 885/439/338
f 668/441/306 661/440/304 664/439/304
f 888/441/339 886/440/338 889/442/339
f 672/443/308 665/442/306 668/441/306
f 888/441/339 892/444/340 891/443/340
f 676/445/310 669/444/308 672/443/308
f 894/445/341 892/444/340 895/446/341
f 676/445/310 677/447/312 673/446/310
f 894/445/341 898/447/342 897/448/342
f 680/448/312 681/449/314 677/447/312
f 897/448/342 901/449/343 900/450/343
f 688/451/315 681/449/314 684/450/314
f 903/451/344 901/449/343 904/452/344
f 688/451/315 689/453/316 685/452/315
f 903/451/344 906/453/319 696/454/319
f 690/455/317 689/453/316 692/454/316
f 694/455/318 906/453/319 695/456/318
f 682/404/8 907/456/317 690/455/317
f 562/404/7 695/456/318 563/411/7
f 227/198/38 73/457/38 215/458/38
f 214/459/176 216/173/176 211/460/176
f 225/461/39 74/182/39 223/206/39
f 218/166/177 224/207/177 230/462/177
f 217/463/178 232/144/178 228/149/178
f 231/203/179 222/464/179 229/465/179
f 239/211/180 245/466/180 233/136/180
f 238/132/182 240/467/182 235/212/182
f 249/26/181 234/223/181 247/15/181
f 242/468/183 248/222/183 254/46/183
f 243/119/184 252/469/184 241/126/184
f 255/219/185 246/220/185 253/36/185
f 275/4/186 257/238/186 263/232/186
f 262/229/188 264/227/188 259/57/188
f 273/110/187 258/470/187 271/236/187
f 266/88/189 272/240/189 278/233/189
f 265/78/190 280/471/190 276/472/190
f 279/17/191 270/473/191 277/234/191
f 299/91/192 281/253/192 287/474/192
f 286/475/194 288/241/194 283/30/194
f 295/251/193 284/476/193 282/477/193
f 302/248/195 285/38/195 296/478/195
f 291/244/196 300/247/196 289/51/196
f 301/479/197 298/480/197 294/481/197
f 323/260/198 305/112/198 311/175/198
f 307/255/200 316/482/200 312/483/200
f 321/266/199 306/269/199 319/165/199
f 314/484/201 320/157/201 326/145/201
f 315/170/202 324/485/202 313/258/202
f 327/263/203 318/264/203 325/153/203
f 335/486/204 341/7/204 329/487/204
f 334/488/206 336/128/206 331/489/206
f 345/490/205 330/140/205 343/282/205
f 350/491/207 333/134/207 344/283/207
f 337/492/208 352/42/208 348/493/208
f 349/494/209 346/21/209 342/281/209
f 359/290/210 365/296/210 353/299/210
f 358/63/212 360/285/212 355/54/212
f 367/96/211 356/495/211 354/496/211
f 362/287/213 368/300/213 374/293/213
f 363/83/214 372/497/214 361/75/214
f 375/11/215 366/498/215 373/123/215
f 395/85/1 377/22/1 383/43/1
f 382/310/217 384/309/217 379/304/217
f 393/499/216 378/500/216 391/501/216
f 386/43/218 392/64/218 398/85/218
f 387/502/219 396/501/219 385/500/219
f 399/307/220 390/304/220 397/309/220
f 419/190/1 401/116/1 407/106/1
f 406/318/217 408/317/217 403/312/217
f 417/503/216 402/504/216 415/505/216
f 410/106/218 416/187/218 422/190/218
f 411/506/219 420/505/219 409/504/219
f 423/315/220 414/312/220 421/317/220
f 437/333/1 501/378/1 533/403/1
f 428/507/219 430/508/221 426/509/219
f 560/510/256 426/509/219 558/511/255
f 555/413/218 491/368/218 459/347/218
f 432/512/222 434/513/223 430/508/221
f 436/514/223 438/515/224 434/513/223
f 440/516/224 442/517/225 438/515/224
f 444/518/225 446/519/226 442/520/225
f 448/521/226 450/522/227 446/519/226
f 452/523/227 454/524/228 450/522/227
f 456/525/228 458/526/229 454/524/228
f 460/527/229 462/528/230 458/526/229
f 464/529/230 466/530/231 462/528/230
f 468/531/231 470/532/232 466/530/231
f 472/533/232 474/534/233 470/532/232
f 476/535/233 478/536/234 474/534/233
f 480/537/234 482/515/235 478/517/234
f 484/516/235 486/513/236 482/515/235
f 488/514/236 490/508/237 486/513/236
f 492/512/238 494/509/216 490/508/237
f 496/507/216 498/511/239 494/509/216
f 500/510/240 502/538/241 498/511/239
f 504/539/241 506/540/242 502/538/241
f 508/541/242 510/542/243 506/540/242
f 512/543/243 514/534/244 510/536/243
f 516/535/244 518/532/245 514/534/244
f 520/533/245 522/530/246 518/532/245
f 524/531/246 526/528/247 522/530/246
f 528/529/247 530/526/248 526/528/247
f 532/527/248 534/524/249 530/526/248
f 536/525/249 538/522/250 534/524/249
f 540/523/250 542/519/251 538/522/250
f 544/521/251 546/520/252 542/519/251
f 548/544/252 550/540/253 546/542/252
f 552/541/253 554/538/254 550/540/253
f 556/539/254 558/511/255 554/538/254
f 884/440/1 824/401/1 854/419/1
f 595/387/218 667/442/218 635/425/218
f 674/193/311 670/460/309 666/173/307
f 658/178/303 654/180/301 670/183/309
f 646/166/297 642/168/295 654/194/301
f 634/174/291 666/173/307 642/196/295
f 630/198/289 678/458/313 634/199/291
f 622/142/285 618/144/283 638/201/293
f 610/150/279 626/149/287 618/144/283
f 630/198/289 610/545/279 602/161/275
f 598/154/273 594/156/271 614/203/281
f 586/205/267 602/464/275 594/156/271
f 674/181/311 606/546/277 586/206/267
f 598/207/273 650/195/299 658/208/303
f 578/136/263 574/138/261 570/210/259
f 564/130/257 210/132/175 574/212/261
f 208/214/173 207/547/172 210/132/175
f 206/119/171 205/126/170 570/125/259
f 582/211/265 205/548/170 203/215/168
f 202/217/167 201/549/166 206/119/171
f 199/36/164 203/35/168 201/218/166
f 204/34/169 199/36/164 197/220/162
f 196/222/161 195/550/160 200/47/165
f 193/15/158 197/14/162 195/27/160
f 198/13/163 193/15/158 566/223/258
f 209/225/174 564/551/257 194/226/159
f 191/55/156 190/57/155 189/227/154
f 188/56/153 187/552/152 186/229/151
f 184/88/149 183/90/148 186/69/151
f 181/78/146 189/77/154 183/230/148
f 192/232/157 181/553/146 179/5/144
f 178/233/143 177/554/142 182/89/147
f 175/234/140 179/555/144 177/18/142
f 180/4/145 175/6/140 173/98/138
f 178/16/143 172/556/137 171/235/136
f 169/236/134 173/557/138 171/111/136
f 174/97/139 169/99/134 188/237/153
f 185/68/150 187/67/152 170/239/135
f 167/28/132 166/30/131 165/241/130
f 163/243/128 162/475/127 166/30/131
f 160/58/125 159/60/124 162/39/127
f 158/244/123 157/51/122 165/50/130
f 156/246/121 168/49/133 157/51/122
f 154/248/119 153/558/118 158/59/123
f 152/101/117 151/479/116 155/249/120
f 156/91/121 151/93/116 149/71/114
f 148/250/113 147/480/112 152/101/117
f 145/251/110 149/559/114 147/81/112
f 150/70/115 145/72/110 164/252/129
f 161/254/126 163/476/128 146/80/111
f 143/112/108 142/114/107 141/176/106
f 139/184/104 138/186/103 142/255/107
f 136/257/101 135/482/100 138/186/103
f 133/258/98 141/560/106 135/171/100
f 144/175/109 133/177/98 131/259/96
f 136/169/101 130/561/95 129/261/94
f 127/153/92 131/152/96 129/262/94
f 132/151/97 127/153/92 125/264/90
f 124/157/89 123/159/88 128/146/93
f 122/266/87 121/165/86 125/164/90
f 143/268/108 126/163/91 121/165/86
f 137/270/102 139/562/104 122/158/87
f 119/271/84 118/489/83 117/128/82
f 116/140/81 115/563/80 114/272/79
f 112/1/77 111/3/76 114/135/79
f 110/273/75 109/129/74 117/128/82
f 108/31/73 120/486/85 109/275/74
f 112/276/77 106/40/71 105/42/70
f 103/278/68 107/493/72 105/42/70
f 108/31/73 103/33/68 101/8/66
f 100/19/65 99/21/64 104/279/69
f 98/20/63 97/564/62 101/281/66
f 119/139/84 102/565/67 97/282/62
f 100/283/65 113/134/78 115/133/80
f 95/52/60 94/54/59 93/285/58
f 92/53/57 91/61/56 90/63/55
f 88/287/53 87/566/52 90/288/55
f 85/75/50 93/74/58 87/84/52
f 96/290/61 85/567/50 83/291/48
f 82/293/47 81/568/46 86/294/51
f 79/123/44 83/122/48 81/12/46
f 84/292/49 79/569/44 77/295/42
f 76/297/41 75/570/40 80/11/45
f 71/96/36 77/95/42 75/105/40
f 78/296/43 71/571/36 92/298/57
f 76/300/41 89/289/54 91/301/56
f 69/22/34 68/24/33 67/44/32
f 65/303/30 64/310/29 68/304/33
f 62/43/27 61/44/26 64/24/29
f 59/306/24 67/309/32 61/307/26
f 70/43/35 59/45/24 57/86/22
f 56/85/21 55/86/20 60/45/25
f 53/309/18 57/306/22 55/308/20
f 58/85/23 53/87/18 51/65/16
f 50/64/15 49/65/14 54/87/19
f 47/305/12 51/304/16 49/310/14
f 52/64/17 47/66/12 66/23/31
f 63/22/28 65/23/30 48/66/13
f 45/116/34 44/117/33 43/107/32
f 41/311/30 40/318/29 44/312/33
f 38/106/27 37/107/26 40/117/29
f 35/314/24 43/317/32 37/315/26
f 46/106/35 35/108/24 33/191/22
f 32/190/21 31/191/20 36/108/25
f 29/317/18 33/314/22 31/316/20
f 34/190/23 29/192/18 27/188/16
f 26/187/15 25/188/14 30/192/19
f 23/313/12 27/312/16 25/318/14
f 28/187/17 23/189/12 42/115/31
f 39/116/28 41/115/30 24/189/13
f 21/319/11 20/331/11 19/320/10
f 17/322/9 16/325/9 15/323/8
f 14/322/6 13/324/7 12/323/7
f 10/326/5 9/330/5 16/325/9
f 8/327/3 7/335/4 6/328/4
f 4/326/2 14/322/6 11/325/6
f 612/319/278 616/321/280 613/320/280
f 697/332/260 698/333/260 9/330/5
f 699/332/320 4/326/2 3/330/2
f 701/334/262 702/336/262 698/333/260
f 588/327/266 585/329/266 581/328/264
f 705/334/321 699/332/320 700/333/320
f 707/337/264 708/338/264 702/336/262
f 709/337/4 705/334/321 706/336/321
f 711/339/322 712/345/322 20/331/11
f 707/337/264 713/341/266 714/340/266
f 709/337/4 710/338/4 716/340/3
f 713/341/266 717/344/268 718/342/268
f 7/335/4 719/349/321 720/343/321
f 715/341/3 716/340/3 722/342/323
f 608/339/276 612/319/278 609/331/278
f 724/346/270 725/347/270 718/342/268
f 726/346/324 721/344/323 722/342/323
f 728/348/272 729/350/272 725/347/270
f 584/335/264 581/328/264 577/343/262
f 726/346/324 727/347/324 732/350/325
f 728/348/272 733/352/274 734/351/274
f 731/348/325 732/350/325 736/351/326
f 711/339/322 737/359/326 738/353/326
f 739/354/276 740/355/276 734/351/274
f 741/354/322 735/352/326 736/351/326
f 743/356/278 744/358/278 740/355/276
f 745/357/320 746/363/320 720/343/321
f 747/356/11 741/354/322 742/355/322
f 608/339/276 605/345/276 601/353/274
f 743/356/278 750/361/280 751/360/280
f 747/356/11 748/358/11 753/360/10
f 750/361/280 754/364/282 755/362/282
f 580/349/262 577/343/262 573/363/260
f 752/361/10 753/360/10 758/362/327
f 754/364/282 759/366/284 760/365/284
f 757/364/327 758/362/327 762/365/328
f 737/359/326 763/373/325 764/367/325
f 759/366/284 765/369/286 766/368/286
f 761/366/328 762/365/328 768/368/329
f 765/369/286 769/372/288 770/370/288
f 745/357/320 771/377/2 772/371/2
f 767/369/329 768/368/329 774/370/330
f 604/359/274 601/353/274 597/367/272
f 776/374/290 777/375/290 770/370/288
f 778/374/331 773/372/330 774/370/330
f 780/376/292 781/378/292 777/375/290
f 576/357/260 573/363/260 569/371/5
f 783/376/332 778/374/331 779/375/331
f 785/379/294 786/380/294 781/378/292
f 787/379/333 783/376/332 784/378/332
f 789/381/324 790/387/324 764/367/325
f 785/379/294 791/383/296 792/382/296
f 787/379/333 788/380/333 794/382/334
f 795/384/298 796/386/298 792/382/296
f 686/385/6 797/391/6 772/371/2
f 798/384/335 793/383/334 794/382/334
f 600/373/272 597/367/272 593/387/270
f 801/388/300 802/389/300 796/386/298
f 798/384/335 799/386/335 804/389/336
f 801/388/300 805/393/302 806/390/302
f 568/385/9 572/377/5 569/371/5
f 803/388/336 804/389/336 809/392/337
f 810/394/304 811/395/304 806/390/302
f 808/393/337 809/392/337 813/395/338
f 814/396/323 815/401/323 790/387/324
f 816/397/306 817/398/306 811/395/304
f 812/394/338 813/395/338 819/398/339
f 820/399/308 821/403/308 817/398/306
f 818/397/339 819/398/339 823/400/340
f 592/396/268 596/381/270 593/387/270
f 825/402/310 826/405/310 821/403/308
f 562/404/7 563/411/7 797/391/6
f 828/402/341 822/399/340 823/400/340
f 830/406/312 831/407/312 826/405/310
f 828/402/341 829/405/341 833/407/342
f 830/406/312 834/409/314 835/408/314
f 832/406/342 833/407/342 837/408/343
f 8/327/3 5/329/3 815/401/323
f 838/410/315 839/412/315 835/408/314
f 682/404/8 568/385/9 565/391/9
f 841/410/344 836/409/343 837/408/343
f 838/410/315 843/414/316 844/413/316
f 841/410/344 842/412/344 846/413/319
f 588/327/266 592/396/268 589/401/268
f 843/414/316 847/416/317 848/415/317
f 845/414/319 846/413/319 850/415/318
f 847/416/317 18/324/8 15/323/8
f 849/416/318 850/415/318 12/323/7
f 620/417/282 617/418/282 613/320/280
f 22/321/10 19/320/10 853/418/327
f 620/417/282 624/420/284 621/419/284
f 852/417/327 853/418/327 856/419/328
f 628/421/286 625/422/286 621/419/284
f 858/421/329 855/420/328 856/419/328
f 632/423/288 629/424/288 625/422/286
f 861/423/330 858/421/329 859/422/329
f 632/423/288 636/426/290 633/425/290
f 861/423/330 862/424/330 865/425/331
f 636/426/290 640/428/292 637/427/292
f 864/426/331 865/425/331 868/427/332
f 644/429/294 641/430/294 637/427/292
f 870/429/333 867/428/332 868/427/332
f 644/429/294 648/432/296 645/431/296
f 870/429/333 871/430/333 874/431/334
f 652/433/298 649/434/298 645/431/296
f 876/433/335 873/432/334 874/431/334
f 656/435/300 653/436/300 649/434/298
f 879/435/336 876/433/335 877/434/335
f 656/435/300 660/438/302 657/437/302
f 879/435/336 880/436/336 883/437/337
f 664/439/304 661/440/304 657/437/302
f 882/438/337 883/437/337 886/440/338
f 668/441/306 665/442/306 661/440/304
f 888/441/339 885/439/338 886/440/338
f 672/443/308 669/444/308 665/442/306
f 888/441/339 889/442/339 892/444/340
f 676/445/310 673/446/310 669/444/308
f 894/445/341 891/443/340 892/444/340
f 676/445/310 680/448/312 677/447/312
f 894/445/341 895/446/341 898/447/342
f 680/448/312 684/450/314 681/449/314
f 897/448/342 898/447/342 901/449/343
f 688/451/315 685/452/315 681/449/314
f 903/451/344 900/450/343 901/449/343
f 688/451/315 692/454/316 689/453/316
f 903/451/344 904/452/344 906/453/319
f 690/455/317 907/456/317 689/453/316
f 694/455/318 696/454/319 906/453/319
f 682/404/8 840/411/8 907/456/317
f 562/404/7 694/455/318 695/456/318
f 227/198/38 221/160/38 73/457/38
f 214/459/176 220/196/176 216/173/176
f 225/461/39 212/178/39 74/182/39
f 218/166/177 213/195/177 224/207/177
f 217/463/178 219/201/178 232/144/178
f 231/203/179 226/156/179 222/464/179
f 239/211/180 251/216/180 245/466/180
f 238/132/182 244/547/182 240/467/182
f 249/26/181 236/572/181 234/223/181
f 242/468/183 237/225/183 248/222/183
f 243/119/184 256/549/184 252/469/184
f 255/219/185 250/573/185 246/220/185
f 275/4/186 269/97/186 257/238/186
f 262/229/188 268/574/188 264/227/188
f 273/110/187 260/575/187 258/470/187
f 266/88/189 261/68/189 272/240/189
f 265/78/190 267/231/190 280/471/190
f 279/17/191 274/235/191 270/473/191
f 299/91/192 293/70/192 281/253/192
f 286/475/194 292/576/194 288/241/194
f 295/251/193 297/80/193 284/476/193
f 302/248/195 290/58/195 285/38/195
f 291/244/196 304/577/196 300/247/196
f 301/479/197 303/101/197 298/480/197
f 323/260/198 317/578/198 305/112/198
f 307/255/200 310/186/200 316/482/200
f 321/266/199 308/579/199 306/269/199
f 314/484/201 309/270/201 320/157/201
f 315/170/202 328/261/202 324/485/202
f 327/263/203 322/580/203 318/264/203
f 335/486/204 347/31/204 341/7/204
f 334/488/206 340/274/206 336/128/206
f 345/490/205 332/563/205 330/140/205
f 350/491/207 338/1/207 333/134/207
f 337/492/208 339/277/208 352/42/208
f 349/494/209 351/279/209 346/21/209
f 359/290/210 371/292/210 365/296/210
f 358/63/212 364/581/212 360/285/212
f 367/96/211 369/104/211 356/495/211
f 362/287/213 357/289/213 368/300/213
f 363/83/214 376/582/214 372/497/214
f 375/11/215 370/570/215 366/498/215
f 395/85/1 389/64/1 377/22/1
f 382/310/217 388/307/217 384/309/217
f 393/499/216 380/502/216 378/500/216
f 386/43/218 381/22/218 392/64/218
f 387/502/219 400/499/219 396/501/219
f 399/307/220 394/310/220 390/304/220
f 419/190/1 413/187/1 401/116/1
f 406/318/217 412/315/217 408/317/217
f 417/503/216 404/506/216 402/504/216
f 410/106/218 405/116/218 416/187/218
f 411/506/219 424/503/219 420/505/219
f 423/315/220 418/318/220 414/312/220
f 557/415/1 425/323/1 429/325/1
f 429/325/1 433/330/1 437/333/1
f 437/333/1 441/336/1 445/338/1
f 445/338/1 449/340/1 453/342/1
f 453/342/1 457/347/1 461/350/1
f 461/350/1 465/351/1 469/355/1
f 469/355/1 473/358/1 477/360/1
f 477/360/1 481/362/1 485/365/1
f 485/365/1 489/368/1 493/370/1
f 493/370/1 497/375/1 501/378/1
f 501/378/1 505/380/1 509/382/1
f 509/382/1 513/386/1 517/389/1
f 517/389/1 521/390/1 525/395/1
f 525/395/1 529/398/1 533/403/1
f 533/403/1 537/405/1 541/407/1
f 541/407/1 545/408/1 549/412/1
f 549/412/1 553/413/1 557/415/1
f 557/415/1 429/325/1 437/333/1
f 437/333/1 445/338/1 453/342/1
f 453/342/1 461/350/1 469/355/1
f 469/355/1 477/360/1 485/365/1
f 485/365/1 493/370/1 501/378/1
f 501/378/1 509/382/1 517/389/1
f 517/389/1 525/395/1 533/403/1
f 533/403/1 541/407/1 549/412/1
f 549/412/1 557/415/1 437/333/1
f 437/333/1 453/342/1 469/355/1
f 469/355/1 485/365/1 501/378/1
f 501/378/1 517/389/1 533/403/1
f 533/403/1 549/412/1 437/333/1
f 437/333/1 469/355/1 501/378/1
f 428/507/219 432/512/222 430/508/221
f 560/510/256 428/507/219 426/509/219
f 435/330/218 431/325/218 427/323/218
f 427/323/218 559/415/218 555/413/218
f 555/413/218 551/412/218 547/408/218
f 547/408/218 543/407/218 539/405/218
f 539/405/218 535/400/218 531/398/218
f 531/398/218 527/395/218 523/392/218
f 523/392/218 519/389/218 515/386/218
f 515/386/218 511/382/218 507/380/218
f 507/380/218 503/378/218 499/375/218
f 499/375/218 495/370/218 491/368/218
f 491/368/218 487/365/218 483/362/218
f 483/362/218 479/360/218 475/358/218
f 475/358/218 471/355/218 467/351/218
f 467/351/218 463/350/218 459/347/218
f 459/347/218 455/342/218 451/340/218
f 451/340/218 447/338/218 443/336/218
f 443/336/218 439/333/218 435/330/218
f 435/330/218 427/323/218 555/413/218
f 555/413/218 547/408/218 539/405/218
f 539/405/218 531/398/218 523/392/218
f 523/392/218 515/386/218 507/380/218
f 507/380/218 499/375/218 491/368/218
f 491/368/218 483/362/218 475/358/218
f 475/358/218 467/351/218 459/347/218
f 459/347/218 451/340/218 443/336/218
f 443/336/218 435/330/218 555/413/218
f 555/413/218 539/405/218 523/392/218
f 523/392/218 507/380/218 491/368/218
f 491/368/218 475/358/218 459/347/218
f 459/347/218 443/336/218 555/413/218
f 555/413/218 523/392/218 491/368/218
f 432/512/222 436/514/223 434/513/223
f 436/514/223 440/516/224 438/515/224
f 440/516/224 444/537/225 442/517/225
f 444/518/225 448/521/226 446/519/226
f 448/521/226 452/523/227 450/522/227
f 452/523/227 456/525/228 454/524/228
f 456/525/228 460/527/229 458/526/229
f 460/527/229 464/529/230 462/528/230
f 464/529/230 468/531/231 466/530/231
f 468/531/231 472/533/232 470/532/232
f 472/533/232 476/535/233 474/534/233
f 476/535/233 480/543/234 478/536/234
f 480/537/234 484/516/235 482/515/235
f 484/516/235 488/514/236 486/513/236
f 488/514/236 492/512/238 490/508/237
f 492/512/238 496/507/216 494/509/216
f 496/507/216 500/510/240 498/511/239
f 500/510/240 504/539/241 502/538/241
f 504/539/241 508/541/242 506/540/242
f 508/541/242 512/544/243 510/542/243
f 512/543/243 516/535/244 514/534/244
f 516/535/244 520/533/245 518/532/245
f 520/533/245 524/531/246 522/530/246
f 524/531/246 528/529/247 526/528/247
f 528/529/247 532/527/248 530/526/248
f 532/527/248 536/525/249 534/524/249
f 536/525/249 540/523/250 538/522/250
f 540/523/250 544/521/251 542/519/251
f 544/521/251 548/518/252 546/520/252
f 548/544/252 552/541/253 550/540/253
f 552/541/253 556/539/254 554/538/254
f 556/539/254 560/510/256 558/511/255
f 872/431/1 875/434/1 878/436/1
f 878/436/1 881/437/1 884/440/1
f 884/440/1 887/442/1 890/444/1
f 890/444/1 893/446/1 896/447/1
f 896/447/1 899/449/1 902/452/1
f 902/452/1 905/453/1 693/456/1
f 693/456/1 561/411/1 807/391/1
f 807/391/1 782/371/1 756/363/1
f 756/363/1 730/343/1 704/328/1
f 704/328/1 703/329/1 824/401/1
f 824/401/1 800/387/1 775/367/1
f 775/367/1 749/353/1 723/345/1
f 723/345/1 1/331/1 2/320/1
f 2/320/1 851/418/1 854/419/1
f 854/419/1 857/422/1 860/424/1
f 860/424/1 863/425/1 866/427/1
f 866/427/1 869/430/1 872/431/1
f 872/431/1 878/436/1 884/440/1
f 884/440/1 890/444/1 896/447/1
f 896/447/1 902/452/1 693/456/1
f 693/456/1 807/391/1 756/363/1
f 756/363/1 704/328/1 824/401/1
f 824/401/1 775/367/1 723/345/1
f 723/345/1 2/320/1 854/419/1
f 854/419/1 860/424/1 866/427/1
f 866/427/1 872/431/1 884/440/1
f 884/440/1 896/447/1 693/456/1
f 693/456/1 756/363/1 824/401/1
f 824/401/1 723/345/1 854/419/1
f 854/419/1 866/427/1 884/440/1
f 884/440/1 693/456/1 824/401/1
f 611/331/218 607/345/218 603/353/218
f 603/353/218 599/367/218 595/387/218
f 595/387/218 591/401/218 587/329/218
f 587/329/218 583/328/218 579/343/218
f 579/343/218 575/363/218 571/371/218
f 571/371/218 567/391/218 827/411/218
f 827/411/218 908/456/218 691/453/218
f 691/453/218 687/452/218 683/449/218
f 683/449/218 679/447/218 675/446/218
f 675/446/218 671/444/218 667/442/218
f 667/442/218 663/440/218 659/437/218
f 659/437/218 655/436/218 651/434/218
f 651/434/218 647/431/218 643/430/218
f 643/430/218 639/427/218 635/425/218
f 635/425/218 631/424/218 627/422/218
f 627/422/218 623/419/218 619/418/218
f 619/418/218 615/320/218 611/331/218
f 611/331/218 603/353/218 595/387/218
f 595/387/218 587/329/218 579/343/218
f 579/343/218 571/371/218 827/411/218
f 827/411/218 691/453/218 683/449/218
f 683/449/218 675/446/218 667/442/218
f 667/442/218 659/437/218 651/434/218
f 651/434/218 643/430/218 635/425/218
f 635/425/218 627/422/218 619/418/218
f 619/418/218 611/331/218 595/387/218
f 595/387/218 579/343/218 827/411/218
f 827/411/218 683/449/218 667/442/218
f 667/442/218 651/434/218 635/425/218
f 635/425/218 619/418/218 595/387/218
f 595/387/218 827/411/218 667/442/218
