# Blender 5.2.0 LTS
# www.blender.org
o Backdrop_Island_Detail
v 0.000000 11.000000 0.000000
v 7.382655 -11.105401 27.552425
v 0.000000 10.724207 -6.675629
v 7.241756 -12.000000 27.026604
v 5.977585 -0.894599 22.308666
v 5.590490 0.000000 20.863998
v 0.000000 8.600146 -18.704697
v -0.000000 -11.105401 28.524372
v 0.000000 -12.000000 27.980000
v -0.000000 -0.894598 23.095631
v 0.000000 4.772721 -27.029066
v 0.000000 0.000000 21.600000
v 0.000000 2.447731 -29.247837
v 0.000000 1.231609 -29.811365
v 0.000000 0.000000 -30.000000
v 8.838221 -12.000000 -2.368194
v 22.101511 -33.117718 -0.000000
v 21.580000 -34.000000 0.000000
v 10.668489 -12.882280 0.000000
v -7.382655 -11.105401 27.552425
v -7.241756 -12.000000 27.026604
v 9.150000 -12.000000 0.000000
v 21.348421 -33.117718 5.720291
v 20.844679 -34.000000 5.585315
v -5.977585 -0.894599 22.308666
v 10.304969 -12.882280 2.761206
v 8.838221 -12.000000 2.368194
v 19.140467 -33.117718 11.050759
v 18.688828 -34.000000 10.790002
v -5.590490 0.000000 20.863998
v 0.869356 10.930834 -3.244482
v 1.727780 10.724207 -6.448162
v 2.564476 10.382716 -9.570753
v 3.368921 9.910657 -12.572986
v 4.131001 9.313966 -15.417107
v 4.841132 8.600146 -18.067348
v 5.490381 7.778174 -20.490379
v 6.070586 6.858388 -22.655735
v 6.574450 5.852354 -24.536180
v 6.995637 4.772721 -26.108072
v 7.328849 3.633070 -27.351637
v 7.569898 2.447731 -28.251242
v 7.715749 1.231609 -28.795568
v 7.764571 0.000000 -28.977774
v 9.239182 -12.882280 5.334244
v 7.924130 -12.000000 4.575002
v 15.628128 -33.117718 15.628128
v 15.259365 -34.000000 15.259365
v 7.543760 -12.882280 7.543760
v 6.470027 -12.000000 6.470027
v 11.050758 -33.117718 19.140467
v 10.790002 -34.000000 18.688828
v 5.334243 -12.882280 9.239182
v 4.575002 -12.000000 7.924130
v 5.720290 -33.117718 21.348419
v 5.585315 -34.000000 20.844679
v 2.761206 -12.882280 10.304969
v -14.262184 -11.105400 24.702833
v -13.990000 -12.000000 24.231390
v 1.679467 10.930834 -2.908922
v 3.337814 10.724207 -5.781264
v 4.954186 10.382716 -8.580902
v 6.508256 9.910657 -11.272631
v 7.980482 9.313966 -13.822599
v 9.352348 8.600146 -16.198742
v 10.606601 7.778174 -18.371172
v 11.727470 6.858388 -20.312576
v 12.700862 5.852354 -21.998537
v 13.514533 4.772721 -23.407856
v 14.158250 3.633070 -24.522806
v 14.623919 2.447731 -25.329369
v 14.905683 1.231609 -25.817398
v 15.000000 0.000000 -25.980762
v 2.368194 -12.000000 8.838221
v 0.000000 -33.117718 22.101511
v 0.000000 -34.000000 21.580000
v -0.000000 -12.882280 10.668489
v -0.000000 -12.000000 9.150000
v -5.720291 -33.117718 21.348421
v -5.585315 -34.000000 20.844679
v -2.761206 -12.882280 10.304969
v -2.368194 -12.000000 8.838221
v -11.050759 -33.117718 19.140467
v -10.790002 -34.000000 18.688828
v -5.334244 -12.882280 9.239182
v -4.575002 -12.000000 7.924130
v -11.547818 -0.894598 20.001402
v -10.800002 0.000000 18.706148
v 2.375125 10.930834 -2.375125
v 4.720382 10.724207 -4.720382
v 7.006278 10.382716 -7.006277
v 9.204063 9.910657 -9.204064
v 11.286105 9.313966 -11.286104
v 13.226217 8.600146 -13.226216
v 14.999998 7.778174 -14.999999
v 16.585148 6.858388 -16.585148
v 17.961731 5.852354 -17.961731
v 19.112434 4.772721 -19.112434
v 20.022787 3.633070 -20.022787
v 20.681345 2.447731 -20.681343
v 21.079819 1.231609 -21.079817
v 21.213203 0.000000 -21.213202
v -15.628128 -33.117718 15.628128
v -15.259365 -34.000000 15.259365
v -7.543760 -12.882280 7.543760
v -6.470027 -12.000000 6.470027
v -19.140467 -33.117718 11.050758
v -18.688828 -34.000000 10.790002
v -9.239182 -12.882280 5.334243
v -7.924130 -12.000000 4.575002
v -21.348419 -33.117718 5.720290
v -20.844679 -34.000000 5.585315
v -10.304969 -12.882280 2.761206
v -8.838221 -12.000000 2.368194
v -22.101511 -33.117718 0.000000
v -20.169773 -11.105402 20.169773
v -19.784847 -12.000000 19.784847
v 2.908922 10.930834 -1.679467
v 5.781264 10.724207 -3.337814
v 8.580902 10.382716 -4.954186
v 11.272630 9.910657 -6.508257
v 13.822598 9.313966 -7.980481
v 16.198742 8.600146 -9.352347
v 18.371170 7.778174 -10.606601
v 20.312574 6.858388 -11.727470
v 21.998537 5.852354 -12.700861
v 23.407856 4.772721 -13.514532
v 24.522804 3.633070 -14.158248
v 25.329369 2.447731 -14.623917
v 25.817398 1.231609 -14.905681
v 25.980761 0.000000 -14.999997
v -21.580000 -34.000000 0.000000
v -10.668489 -12.882280 -0.000000
v -9.150000 -12.000000 -0.000000
v -21.348421 -33.117718 -5.720291
v -20.844679 -34.000000 -5.585315
v -10.304969 -12.882280 -2.761206
v -8.838221 -12.000000 -2.368194
v -19.140467 -33.117718 -11.050759
v -18.688828 -34.000000 -10.790002
v -9.239182 -12.882280 -5.334244
v -7.924130 -12.000000 -4.575002
v -15.628128 -33.117718 -15.628128
v -15.259365 -34.000000 -15.259365
v -16.331078 -0.894598 16.331078
v -15.273507 0.000000 15.273507
v 3.244481 10.930834 -0.869356
v 6.448162 10.724207 -1.727780
v 9.570753 10.382716 -2.564475
v 12.572986 9.910657 -3.368922
v 15.417105 9.313966 -4.131001
v 18.067347 8.600146 -4.841131
v 20.490377 7.778174 -5.490380
v 22.655733 6.858388 -6.070585
v 24.536179 5.852354 -6.574449
v 26.108072 4.772721 -6.995636
v 27.351633 3.633070 -7.328848
v 28.251240 2.447731 -7.569896
v 28.795567 1.231609 -7.715748
v 28.977772 0.000000 -7.764569
v -7.543760 -12.882280 -7.543760
v -6.470027 -12.000000 -6.470027
v -11.050758 -33.117718 -19.140467
v -10.790002 -34.000000 -18.688828
v -5.334243 -12.882280 -9.239182
v -4.575002 -12.000000 -7.924130
v -5.720290 -33.117718 -21.348419
v -5.585315 -34.000000 -20.844679
v -2.761206 -12.882280 -10.304969
v -2.368194 -12.000000 -8.838221
v 0.000000 -59.045517 -9.862993
v 0.000000 -60.000000 -9.179999
v 0.000000 -34.954483 -1.357006
v -24.702829 -11.105402 14.262182
v -24.231390 -12.000000 13.990000
v 3.358934 10.930834 0.000000
v 6.675629 10.724207 0.000000
v 9.908373 10.382716 0.000000
v 13.016513 9.910657 -0.000001
v 15.960962 9.313966 0.000000
v 18.704695 8.600146 0.000000
v 21.213200 7.778174 -0.000000
v 23.454939 6.858388 0.000000
v 25.401722 5.852354 0.000001
v 27.029064 4.772721 0.000001
v 28.316494 3.633070 0.000000
v 29.247835 2.447731 0.000001
v 29.811361 1.231609 0.000001
v 29.999994 0.000000 0.000001
v -27.026604 -12.000000 7.241756
v 2.552732 -59.045517 -9.526919
v 2.375958 -60.000000 -8.867198
v 0.351219 -34.954483 -1.310767
v 24.702833 -11.105400 14.262184
v 4.931497 -59.045517 -8.541603
v 4.590000 -60.000000 -7.950112
v 0.678503 -34.954483 -1.175202
v 19.140467 -33.117718 -11.050758
v 6.974190 -59.045517 -6.974190
v 6.491240 -60.000000 -6.491240
v 0.959548 -34.954483 -0.959548
v 15.628128 -33.117718 -15.628128
v -20.001402 -0.894598 11.547818
v -18.706148 0.000000 10.800002
v 3.244481 10.930834 0.869356
v 6.448162 10.724207 1.727780
v 9.570753 10.382716 2.564476
v 12.572986 9.910657 3.368921
v 15.417105 9.313966 4.131001
v 18.067347 8.600146 4.841132
v 20.490376 7.778174 5.490379
v 22.655731 6.858388 6.070585
v 24.536177 5.852354 6.574450
v 26.108070 4.772721 6.995637
v 27.351631 3.633070 7.328848
v 28.251240 2.447731 7.569898
v 28.795565 1.231609 7.715749
v 28.977770 0.000000 7.764570
v 8.541604 -59.045517 -4.931497
v 7.950112 -60.000000 -4.590000
v 1.175202 -34.954483 -0.678503
v 4.590000 -60.000000 -7.950112
v 9.526920 -59.045517 -2.552732
v 8.867198 -60.000000 -2.375958
v 1.310767 -34.954483 -0.351219
v 6.491240 -60.000000 -6.491240
v 9.862993 -59.045517 0.000000
v 9.179999 -60.000000 0.000000
v 1.357006 -34.954483 0.000000
v 7.950112 -60.000000 -4.590000
v 9.526919 -59.045517 2.552732
v -27.552425 -11.105401 7.382655
v -27.026604 -12.000000 7.241756
v 2.908922 10.930834 1.679467
v 5.781264 10.724207 3.337814
v 8.580902 10.382716 4.954186
v 11.272631 9.910657 6.508255
v 13.822598 9.313966 7.980482
v 16.198740 8.600146 9.352348
v 18.371168 7.778174 10.606599
v 20.312572 6.858388 11.727468
v 21.998535 5.852354 12.700861
v 23.407854 4.772721 13.514533
v 24.522800 3.633070 14.158246
v 25.329367 2.447731 14.623919
v 25.817396 1.231609 14.905681
v 25.980757 0.000000 14.999998
v 8.867198 -60.000000 2.375958
v 1.310767 -34.954483 0.351219
v 0.000000 -12.000000 -27.980000
v 8.541603 -59.045517 4.931497
v 7.950112 -60.000000 4.590000
v 1.175202 -34.954483 0.678503
v 7.241756 -12.000000 -27.026604
v 6.974190 -59.045517 6.974190
v 6.491240 -60.000000 6.491240
v 0.959548 -34.954483 0.959548
v 7.382655 -11.105401 27.552425
v 4.931497 -59.045517 8.541604
v 4.590000 -60.000000 7.950112
v -22.308666 -0.894599 5.977585
v -20.863998 0.000000 5.590490
v 2.375125 10.930834 2.375125
v 4.720382 10.724207 4.720382
v 7.006277 10.382716 7.006278
v 9.204064 9.910657 9.204062
v 11.286102 9.313966 11.286105
v 13.226215 8.600146 13.226217
v 14.999995 7.778174 14.999995
v 16.585146 6.858388 16.585146
v 17.961727 5.852354 17.961727
v 19.112432 4.772721 19.112434
v 20.022783 3.633070 20.022783
v 20.681341 2.447731 20.681343
v 21.079813 1.231609 21.079817
v 21.213198 0.000000 21.213200
v 0.678503 -34.954483 1.175202
v 14.262182 -11.105402 24.702829
v 2.552732 -59.045517 9.526920
v 2.375958 -60.000000 8.867198
v 0.351219 -34.954483 1.310767
v 6.974190 -59.045517 6.974190
v -0.000000 -59.045517 9.862993
v 0.000000 -60.000000 9.179999
v 0.000000 -34.954483 1.357006
v 8.541603 -59.045517 4.931497
v -2.552732 -59.045517 9.526919
v -2.375958 -60.000000 8.867198
v -0.351219 -34.954483 1.310767
v -28.524372 -11.105401 -0.000000
v -27.980000 -12.000000 0.000000
v 1.679466 10.930834 2.908922
v 3.337814 10.724207 5.781264
v 4.954186 10.382716 8.580902
v 6.508257 9.910657 11.272629
v 7.980479 9.313966 13.822598
v 9.352345 8.600146 16.198742
v 10.606599 7.778174 18.371166
v 11.727468 6.858388 20.312572
v 12.700859 5.852354 21.998533
v 13.514530 4.772721 23.407856
v 14.158246 3.633070 24.522802
v 14.623915 2.447731 25.329367
v 14.905678 1.231609 25.817396
v 14.999994 0.000000 25.980757
v 7.950112 -60.000000 4.590000
v -4.931497 -59.045517 8.541603
v -4.590000 -60.000000 7.950112
v -0.678503 -34.954483 1.175202
v 6.491240 -60.000000 6.491240
v -6.974190 -59.045517 6.974190
v -6.491240 -60.000000 6.491240
v -0.959548 -34.954483 0.959548
v 0.000000 -34.000000 0.000000
v -8.541604 -59.045517 4.931497
v -7.950112 -60.000000 4.590000
v -1.175202 -34.954483 0.678503
v 19.140467 -33.117718 11.050759
v -23.095631 -0.894598 -0.000000
v -21.600000 0.000000 0.000000
v 0.869355 10.930834 3.244481
v 1.727780 10.724207 6.448162
v 2.564475 10.382716 9.570753
v 3.368922 9.910657 12.572984
v 4.130999 9.313966 15.417103
v 4.841129 8.600146 18.067347
v 5.490379 7.778174 20.490374
v 6.070585 6.858388 22.655729
v 6.574448 5.852354 24.536175
v 6.995634 4.772721 26.108072
v 7.328846 3.633070 27.351631
v 7.569895 2.447731 28.251238
v 7.715745 1.231609 28.795561
v 7.764568 0.000000 28.977768
v -9.526920 -59.045517 2.552732
v -8.867198 -60.000000 2.375958
v -1.310767 -34.954483 0.351219
v 21.348421 -33.117718 5.720291
v -9.862993 -59.045517 -0.000000
v -9.179999 -60.000000 0.000000
v -1.357006 -34.954483 0.000000
v 27.552425 -11.105401 7.382655
v -9.526919 -59.045517 -2.552732
v -8.867198 -60.000000 -2.375958
v -1.310767 -34.954483 -0.351219
v 28.524372 -11.105401 0.000000
v -8.541603 -59.045517 -4.931497
v -27.552425 -11.105401 -7.382655
v -27.026604 -12.000000 -7.241756
v -0.000001 10.930834 3.358934
v 0.000000 10.724207 6.675629
v -0.000000 10.382716 9.908373
v 0.000001 9.910657 13.016511
v -0.000002 9.313966 15.960958
v -0.000002 8.600146 18.704695
v 0.000001 7.778174 21.213194
v 0.000000 6.858388 23.454937
v 0.000000 5.852354 25.401716
v -0.000003 4.772721 27.029064
v -0.000001 3.633070 28.316492
v -0.000002 2.447731 29.247833
v -0.000002 1.231609 29.811357
v -0.000002 0.000000 29.999990
v -7.950112 -60.000000 -4.590000
v -1.175202 -34.954483 -0.678503
v 27.552425 -11.105401 -7.382655
v -6.974190 -59.045517 -6.974190
v -6.491240 -60.000000 -6.491240
v -0.959548 -34.954483 -0.959548
v 24.702829 -11.105402 -14.262182
v -4.931497 -59.045517 -8.541604
v -4.590000 -60.000000 -7.950112
v -0.678503 -34.954483 -1.175202
v 15.259365 -34.000000 -15.259365
v -2.552732 -59.045517 -9.526920
v -2.375958 -60.000000 -8.867198
v -22.308666 -0.894599 -5.977585
v -20.863998 0.000000 -5.590490
v -0.869357 10.930834 3.244481
v -1.727780 10.724207 6.448162
v -2.564476 10.382716 9.570753
v -3.368920 9.910657 12.572984
v -4.131002 9.313966 15.417101
v -4.841133 8.600146 18.067347
v -5.490378 7.778174 20.490372
v -6.070584 6.858388 22.655729
v -6.574448 5.852354 24.536173
v -6.995639 4.772721 26.108070
v -7.328848 3.633070 27.351629
v -7.569899 2.447731 28.251238
v -7.715749 1.231609 28.795559
v -7.764570 0.000000 28.977766
v -24.702833 -11.105400 -14.262184
v -24.231390 -12.000000 -13.990000
v -1.679467 10.930834 2.908921
v -3.337814 10.724207 5.781264
v -4.954186 10.382716 8.580902
v -6.508254 9.910657 11.272629
v -7.980481 9.313966 13.822595
v -9.352349 8.600146 16.198740
v -10.606595 7.778174 18.371162
v -11.727468 6.858388 20.312571
v -12.700857 5.852354 21.998531
v -13.514535 4.772721 23.407852
v -14.158246 3.633070 24.522799
v -14.623919 2.447731 25.329365
v -14.905680 1.231609 25.817390
v -14.999996 0.000000 25.980753
v 6.974190 -59.045517 -6.974190
v -4.590000 -60.000000 -7.950112
v -2.375958 -60.000000 -8.867198
v -20.001402 -0.894598 -11.547818
v -18.706148 0.000000 -10.800002
v -2.375125 10.930834 2.375124
v -4.720382 10.724207 4.720382
v -7.006278 10.382716 7.006277
v -9.204062 9.910657 9.204062
v -11.286103 9.313966 11.286100
v -13.226217 8.600146 13.226214
v -14.999991 7.778174 14.999991
v -16.585144 6.858388 16.585144
v -17.961723 5.852354 17.961723
v -19.112436 4.772721 19.112431
v -20.022783 3.633070 20.022781
v -20.681343 2.447731 20.681339
v -21.079813 1.231609 21.079809
v -21.213198 0.000000 21.213194
v -4.931497 -59.045517 -8.541604
v -2.552732 -59.045517 -9.526920
v -9.179999 -60.000000 0.000000
v -8.867198 -60.000000 -2.375958
v -7.950112 -60.000000 4.590000
v -8.867198 -60.000000 2.375958
v -6.974190 -59.045517 -6.974190
v -8.541603 -59.045517 -4.931497
v 2.375958 -60.000000 8.867198
v -9.526919 -59.045517 -2.552732
v -9.862993 -59.045517 -0.000000
v 0.000000 -59.045517 -9.862993
v 0.000000 -60.000000 -9.179999
v -20.169773 -11.105402 -20.169773
v -19.784847 -12.000000 -19.784847
v -2.908922 10.930834 1.679466
v -5.781264 10.724207 3.337814
v -8.580902 10.382716 4.954186
v -11.272628 9.910657 6.508255
v -13.822597 9.313966 7.980478
v -16.198740 8.600146 9.352345
v -18.371161 7.778174 10.606595
v -20.312571 6.858388 11.727468
v -21.998528 5.852354 12.700856
v -23.407856 4.772721 13.514528
v -24.522800 3.633070 14.158244
v -25.329365 2.447731 14.623913
v -25.817392 1.231609 14.905675
v -25.980753 0.000000 14.999991
v -4.590000 -60.000000 7.950112
v -6.491240 -60.000000 6.491240
v 8.541604 -59.045517 -4.931497
v -9.526920 -59.045517 2.552732
v -8.541604 -59.045517 4.931497
v 13.990000 -12.000000 -24.231390
v -7.950112 -60.000000 -4.590000
v -6.491240 -60.000000 -6.491240
v 2.552732 -59.045517 9.526920
v 4.931497 -59.045517 8.541604
v 14.262184 -11.105400 -24.702833
v 4.590000 -60.000000 7.950112
v -2.552732 -59.045517 9.526919
v -16.331078 -0.894598 -16.331078
v -15.273507 0.000000 -15.273507
v -3.244481 10.930834 0.869355
v -6.448162 10.724207 1.727780
v -9.570753 10.382716 2.564475
v -12.572983 9.910657 3.368921
v -15.417103 9.313966 4.130999
v -18.067345 8.600146 4.841128
v -20.490368 7.778174 5.490378
v -22.655727 6.858388 6.070583
v -24.536169 5.852354 6.574447
v -26.108070 4.772721 6.995633
v -27.351629 3.633070 7.328845
v -28.251236 2.447731 7.569893
v -28.795557 1.231609 7.715744
v -28.977762 0.000000 7.764564
v -0.000000 -59.045517 9.862993
v 0.000000 -60.000000 9.179999
v -2.375958 -60.000000 8.867198
v -6.974190 -59.045517 6.974190
v -4.931497 -59.045517 8.541603
v -18.688828 -34.000000 -10.790002
v -15.259365 -34.000000 -15.259365
v -10.790002 -34.000000 -18.688828
v -5.585315 -34.000000 -20.844679
v -15.628128 -33.117718 15.628128
v -15.628128 -33.117718 -15.628128
v -19.140467 -33.117718 -11.050759
v 8.867198 -60.000000 -2.375958
v -14.262182 -11.105402 -24.702829
v -13.990000 -12.000000 -24.231390
v -3.358933 10.930834 -0.000001
v -6.675629 10.724207 0.000000
v -9.908373 10.382716 -0.000000
v -13.016509 9.910657 0.000000
v -15.960958 9.313966 -0.000002
v -18.704693 8.600146 -0.000002
v -21.213188 7.778174 0.000001
v -23.454935 6.858388 -0.000000
v -25.401711 5.852354 0.000000
v -27.029062 4.772721 -0.000004
v -28.316488 3.633070 -0.000002
v -29.247829 2.447731 -0.000003
v -29.811354 1.231609 -0.000003
v -29.999985 0.000000 -0.000004
v -21.348419 -33.117718 5.720290
v -19.140467 -33.117718 11.050758
v -5.720290 -33.117718 -21.348419
v -11.050758 -33.117718 -19.140467
v -10.790002 -34.000000 18.688828
v -15.259365 -34.000000 15.259365
v -11.050759 -33.117718 19.140467
v 9.179999 -60.000000 0.000000
v -21.348421 -33.117718 -5.720291
v -22.101511 -33.117718 0.000000
v 18.688828 -34.000000 10.790002
v 9.862993 -59.045517 0.000000
v 9.526920 -59.045517 -2.552732
v -11.547818 -0.894598 -20.001402
v -10.800002 0.000000 -18.706148
v -3.244480 10.930834 -0.869356
v -6.448162 10.724207 -1.727780
v -9.570753 10.382716 -2.564476
v -12.572982 9.910657 -3.368920
v -15.417101 9.313966 -4.131002
v -18.067345 8.600146 -4.841133
v -20.490368 7.778174 -5.490376
v -22.655727 6.858388 -6.070584
v -24.536167 5.852354 -6.574447
v -26.108067 4.772721 -6.995640
v -27.351625 3.633070 -7.328848
v -28.251234 2.447731 -7.569899
v -28.795555 1.231609 -7.715749
v -28.977757 0.000000 -7.764570
v -18.688828 -34.000000 10.790002
v -20.844679 -34.000000 5.585315
v -0.000000 -33.117718 -22.101511
v 0.000000 -34.000000 -21.580000
v -5.720291 -33.117718 21.348421
v 0.000000 -33.117718 22.101511
v -21.580000 -34.000000 0.000000
v -20.844679 -34.000000 -5.585315
v 5.585315 -34.000000 20.844679
v 15.259365 -34.000000 15.259365
v 10.790002 -34.000000 18.688828
v -27.552425 -11.105401 -7.382655
v 4.931497 -59.045517 -8.541603
v -7.382655 -11.105401 -27.552425
v -7.241756 -12.000000 -27.026604
v -2.908921 10.930834 -1.679467
v -5.781264 10.724207 -3.337814
v -8.580902 10.382716 -4.954186
v -11.272627 9.910657 -6.508254
v -13.822595 9.313966 -7.980482
v -16.198738 8.600146 -9.352348
v -18.371159 7.778174 -10.606593
v -20.312569 6.858388 -11.727468
v -21.998526 5.852354 -12.700855
v -23.407848 4.772721 -13.514534
v -24.522797 3.633070 -14.158246
v -25.329363 2.447731 -14.623918
v -25.817387 1.231609 -14.905680
v -25.980745 0.000000 -14.999994
v 2.552732 -59.045517 -9.526919
v 2.375958 -60.000000 -8.867198
v 0.000000 -34.000000 21.580000
v -5.585315 -34.000000 20.844679
v 5.720290 -33.117718 21.348419
v -20.169773 -11.105402 -20.169773
v -24.702833 -11.105400 -14.262184
v 11.050759 -33.117718 -19.140467
v 5.720291 -33.117718 -21.348421
v 5.585315 -34.000000 -20.844679
v 10.790002 -34.000000 -18.688828
v 11.050758 -33.117718 19.140467
v 15.628128 -33.117718 15.628128
v -5.977585 -0.894599 -22.308666
v -5.590490 0.000000 -20.863998
v -2.375124 10.930834 -2.375124
v -4.720382 10.724207 -4.720382
v -7.006277 10.382716 -7.006278
v -9.204062 9.910657 -9.204062
v -11.286100 9.313966 -11.286104
v -13.226213 8.600146 -13.226216
v -14.999989 7.778174 -14.999990
v -16.585142 6.858388 -16.585142
v -17.961720 5.852354 -17.961720
v -19.112427 4.772721 -19.112434
v -20.022779 3.633070 -20.022781
v -20.681337 2.447731 -20.681341
v -21.079805 1.231609 -21.079811
v -21.213188 0.000000 -21.213194
v -27.980000 -12.000000 0.000000
v -27.026604 -12.000000 -7.241756
v -28.524372 -11.105401 -0.000000
v 9.526919 -59.045517 2.552732
v -14.262182 -11.105402 -24.702829
v 7.382655 -11.105401 -27.552425
v 0.000000 -11.105401 -28.524372
v -7.382655 -11.105401 -27.552425
v -13.990000 -12.000000 -24.231390
v -7.241756 -12.000000 -27.026604
v -24.231390 -12.000000 -13.990000
v -19.784847 -12.000000 -19.784847
v 20.844679 -34.000000 5.585315
v -0.000000 -33.117718 -22.101511
v 0.000000 -34.000000 -21.580000
v -1.679466 10.930834 -2.908921
v -3.337814 10.724207 -5.781264
v -4.954186 10.382716 -8.580902
v -6.508254 9.910657 -11.272626
v -7.980477 9.313966 -13.822598
v -9.352344 8.600146 -16.198740
v -10.606592 7.778174 -18.371159
v -11.727468 6.858388 -20.312567
v -12.700853 5.852354 -21.998524
v -13.514524 4.772721 -23.407854
v -14.158243 3.633070 -24.522799
v -14.623911 2.447731 -25.329365
v -14.905672 1.231609 -25.817389
v -14.999990 0.000000 -25.980749
v -20.169773 -11.105402 20.169773
v -7.241756 -12.000000 27.026604
v 20.844679 -34.000000 -5.585315
v 21.580000 -34.000000 0.000000
v -27.552425 -11.105401 7.382655
v -24.702829 -11.105402 14.262182
v -0.000000 -11.105401 28.524372
v 0.000000 -12.000000 27.980000
v 20.169773 -11.105402 20.169773
v 19.784847 -12.000000 19.784847
v 8.867198 -60.000000 2.375958
v 20.169773 -11.105402 -20.169773
v 19.784847 -12.000000 -19.784847
v 0.000000 -12.882280 -10.668489
v 0.000000 -12.000000 -9.150000
v -0.869355 10.930834 -3.244480
v -1.727780 10.724207 -6.448162
v -2.564475 10.382716 -9.570753
v -3.368921 9.910657 -12.572981
v -4.130997 9.313966 -15.417103
v -4.841127 8.600146 -18.067345
v -5.490376 7.778174 -20.490364
v -6.070584 6.858388 -22.655724
v -6.574446 5.852354 -24.536163
v -6.995629 4.772721 -26.108068
v -7.328845 3.633070 -27.351627
v -7.569891 2.447731 -28.251234
v -7.715742 1.231609 -28.795551
v -7.764564 0.000000 -28.977760
v 24.231390 -12.000000 -13.990000
v 13.990000 -12.000000 24.231390
v 7.241756 -12.000000 27.026604
v 27.026604 -12.000000 7.241756
v 24.231390 -12.000000 13.990000
v 27.026604 -12.000000 -7.241756
v 27.980000 -12.000000 0.000000
v -13.990000 -12.000000 24.231390
v -19.784847 -12.000000 19.784847
v -14.262184 -11.105400 24.702833
v -7.382655 -11.105401 27.552425
v 22.101511 -33.117718 -0.000000
v 21.348419 -33.117718 -5.720290
v 5.720291 -33.117718 -21.348421
v 5.585315 -34.000000 -20.844679
v 0.000001 10.930834 -3.358932
v 2.761206 -12.882280 -10.304969
v 0.000000 10.382716 -9.908373
v -0.000000 9.910657 -13.016507
v 0.000004 9.313966 -15.960958
v 2.368194 -12.000000 -8.838221
v 0.000000 7.778174 -21.213184
v -0.000001 6.858388 -23.454931
v -0.000000 5.852354 -25.401705
v 11.050759 -33.117718 -19.140467
v 0.000002 3.633070 -28.316486
v 10.790002 -34.000000 -18.688828
v 5.334244 -12.882280 -9.239182
v 4.575002 -12.000000 -7.924130
v 15.628128 -33.117718 -15.628128
v 15.259365 -34.000000 -15.259365
v 7.543760 -12.882280 -7.543760
v 6.470027 -12.000000 -6.470027
v -24.231390 -12.000000 13.990000
v 18.688828 -34.000000 -10.790002
v 19.140467 -33.117718 -11.050758
v 18.688828 -34.000000 -10.790002
v 9.239182 -12.882280 -5.334243
v -0.351219 -34.954483 -1.310767
v 7.924130 -12.000000 -4.575002
v 21.348419 -33.117718 -5.720290
v 20.844679 -34.000000 -5.585315
v 10.304969 -12.882280 -2.761206
v 10.800002 0.000000 18.706148
v 11.547818 -0.894598 20.001402
v 13.990000 -12.000000 24.231390
v 14.262182 -11.105402 24.702829
v 15.273507 0.000000 15.273507
v 16.331078 -0.894598 16.331078
v 19.784847 -12.000000 19.784847
v 20.169773 -11.105402 20.169773
v 18.706148 0.000000 10.800002
v 20.001402 -0.894598 11.547818
v 24.231390 -12.000000 13.990000
v 24.702833 -11.105400 14.262184
v 20.863998 0.000000 5.590490
v 22.308666 -0.894599 5.977585
v 27.026604 -12.000000 7.241756
v 27.552425 -11.105401 7.382655
v 21.600000 0.000000 0.000000
v 23.095631 -0.894598 0.000000
v 27.980000 -12.000000 0.000000
v 28.524372 -11.105401 0.000000
v 20.863998 0.000000 -5.590490
v 22.308666 -0.894599 -5.977585
v 27.026604 -12.000000 -7.241756
v 27.552425 -11.105401 -7.382655
v 18.706148 0.000000 -10.800002
v 20.001402 -0.894598 -11.547818
v 24.231390 -12.000000 -13.990000
v 24.702829 -11.105402 -14.262182
v 15.273507 0.000000 -15.273507
v 16.331078 -0.894598 -16.331078
v 19.784847 -12.000000 -19.784847
v 20.169773 -11.105402 -20.169773
v 10.800002 0.000000 -18.706148
v 11.547818 -0.894598 -20.001402
v 13.990000 -12.000000 -24.231390
v 14.262184 -11.105400 -24.702833
v 5.590490 0.000000 -20.863998
v 5.977585 -0.894599 -22.308666
v 7.241756 -12.000000 -27.026604
v 7.382655 -11.105401 -27.552425
v 0.000000 0.000000 -21.600000
v 0.000000 -0.894598 -23.095631
v 0.000000 -12.000000 -27.980000
v 0.000000 -11.105401 -28.524372
vn -0.0000 1.0000 -0.0000
vn 0.2285 0.4694 0.8529
vn -0.0000 0.9963 -0.0854
vn -0.0000 -1.0000 -0.0000
vn 0.1902 0.6781 0.7099
vn 0.0742 0.9580 0.2769
vn -0.0000 0.9588 -0.2841
vn -0.0000 0.4694 0.8830
vn -0.0000 0.6781 0.7350
vn -0.0000 0.7902 -0.6129
vn -0.0000 0.9580 0.2866
vn -0.0000 0.5184 -0.8551
vn -0.0000 0.2856 -0.9583
vn -0.0000 0.1514 -0.9885
vn 0.2706 0.9600 -0.0725
vn 0.8706 0.4919 -0.0000
vn 0.7218 0.6921 -0.0000
vn -0.2285 0.4694 0.8529
vn 0.2801 0.9600 -0.0000
vn 0.8410 0.4919 0.2253
vn -0.1902 0.6781 0.7099
vn 0.6972 0.6921 0.1868
vn 0.2706 0.9600 0.0725
vn 0.7540 0.4919 0.4353
vn -0.0742 0.9580 0.2769
vn 0.0112 0.9991 -0.0417
vn 0.0221 0.9963 -0.0825
vn 0.0335 0.9916 -0.1251
vn 0.0457 0.9843 -0.1704
vn 0.0589 0.9738 -0.2197
vn 0.0735 0.9588 -0.2744
vn 0.0902 0.9374 -0.3365
vn 0.1094 0.9063 -0.4083
vn 0.1320 0.8601 -0.4927
vn 0.1586 0.7902 -0.5920
vn 0.1892 0.6824 -0.7061
vn 0.2213 0.5184 -0.8260
vn 0.2480 0.2856 -0.9257
vn 0.2558 0.1514 -0.9548
vn 0.6251 0.6921 0.3609
vn 0.2426 0.9600 0.1401
vn 0.6156 0.4919 0.6156
vn 0.5104 0.6921 0.5104
vn 0.1981 0.9600 0.1981
vn 0.4353 0.4919 0.7540
vn 0.3609 0.6921 0.6251
vn 0.1401 0.9600 0.2426
vn 0.2253 0.4919 0.8410
vn 0.1868 0.6921 0.6972
vn -0.4415 0.4694 0.7647
vn 0.0216 0.9991 -0.0373
vn 0.0427 0.9963 -0.0740
vn 0.0648 0.9916 -0.1121
vn 0.0882 0.9843 -0.1528
vn 0.1137 0.9738 -0.1970
vn 0.1420 0.9588 -0.2460
vn 0.1742 0.9374 -0.3017
vn 0.2114 0.9063 -0.3661
vn 0.2550 0.8601 -0.4417
vn 0.3065 0.7902 -0.5308
vn 0.3655 0.6824 -0.6331
vn 0.4276 0.5184 -0.7406
vn 0.4792 0.2856 -0.8300
vn 0.4942 0.1514 -0.8560
vn 0.0725 0.9600 0.2706
vn -0.0000 0.4919 0.8706
vn -0.0000 0.6921 0.7218
vn -0.0000 0.9600 0.2801
vn -0.2253 0.4919 0.8410
vn -0.1868 0.6921 0.6972
vn -0.0725 0.9600 0.2706
vn -0.4353 0.4919 0.7540
vn -0.3609 0.6921 0.6251
vn -0.1401 0.9600 0.2426
vn -0.3675 0.6781 0.6365
vn -0.1433 0.9580 0.2482
vn 0.0305 0.9991 -0.0305
vn 0.0604 0.9963 -0.0604
vn 0.0916 0.9916 -0.0916
vn 0.1247 0.9843 -0.1247
vn 0.1608 0.9738 -0.1608
vn 0.2009 0.9588 -0.2009
vn 0.2463 0.9374 -0.2463
vn 0.2989 0.9063 -0.2989
vn 0.3607 0.8601 -0.3607
vn 0.4334 0.7902 -0.4334
vn 0.5169 0.6824 -0.5169
vn 0.6047 0.5184 -0.6047
vn 0.6777 0.2856 -0.6777
vn 0.6990 0.1514 -0.6990
vn -0.6156 0.4919 0.6156
vn -0.5104 0.6921 0.5104
vn -0.1981 0.9600 0.1981
vn -0.7540 0.4919 0.4353
vn -0.6251 0.6921 0.3609
vn -0.2426 0.9600 0.1401
vn -0.8410 0.4919 0.2253
vn -0.6972 0.6921 0.1868
vn -0.2706 0.9600 0.0725
vn -0.8706 0.4919 -0.0000
vn -0.6243 0.4694 0.6243
vn 0.0373 0.9991 -0.0216
vn 0.0740 0.9963 -0.0427
vn 0.1121 0.9916 -0.0647
vn 0.1528 0.9843 -0.0882
vn 0.1970 0.9738 -0.1137
vn 0.2460 0.9588 -0.1420
vn 0.3017 0.9374 -0.1742
vn 0.3661 0.9063 -0.2114
vn 0.4417 0.8601 -0.2550
vn 0.5308 0.7902 -0.3065
vn 0.6331 0.6824 -0.3655
vn 0.7406 0.5184 -0.4276
vn 0.8300 0.2856 -0.4792
vn 0.8560 0.1514 -0.4942
vn -0.7218 0.6921 -0.0000
vn -0.2801 0.9600 -0.0000
vn -0.8410 0.4919 -0.2253
vn -0.6972 0.6921 -0.1868
vn -0.2706 0.9600 -0.0725
vn -0.7540 0.4919 -0.4353
vn -0.6251 0.6921 -0.3609
vn -0.2426 0.9600 -0.1401
vn -0.6156 0.4919 -0.6156
vn -0.5197 0.6781 0.5197
vn -0.2027 0.9580 0.2027
vn 0.0417 0.9991 -0.0112
vn 0.0825 0.9963 -0.0221
vn 0.1251 0.9916 -0.0335
vn 0.1704 0.9843 -0.0457
vn 0.2197 0.9738 -0.0589
vn 0.2744 0.9588 -0.0735
vn 0.3365 0.9374 -0.0902
vn 0.4083 0.9063 -0.1094
vn 0.4927 0.8601 -0.1320
vn 0.5920 0.7902 -0.1586
vn 0.7061 0.6824 -0.1892
vn 0.8260 0.5184 -0.2213
vn 0.9257 0.2856 -0.2480
vn 0.9548 0.1514 -0.2558
vn -0.5104 0.6921 -0.5104
vn -0.1981 0.9600 -0.1981
vn -0.4353 0.4919 -0.7540
vn -0.3609 0.6921 -0.6251
vn -0.1401 0.9600 -0.2426
vn -0.2253 0.4919 -0.8410
vn -0.1868 0.6921 -0.6972
vn -0.0725 0.9600 -0.2706
vn -0.0000 0.3329 -0.9430
vn -0.0000 0.5922 -0.8058
vn -0.7647 0.4694 0.4415
vn 0.0431 0.9991 -0.0000
vn 0.0854 0.9963 -0.0000
vn 0.1295 0.9916 -0.0000
vn 0.1764 0.9843 -0.0000
vn 0.2274 0.9738 -0.0000
vn 0.2841 0.9588 -0.0000
vn 0.3484 0.9374 -0.0000
vn 0.4227 0.9063 -0.0000
vn 0.5101 0.8601 -0.0000
vn 0.6129 0.7902 -0.0000
vn 0.7310 0.6824 -0.0000
vn 0.8551 0.5184 -0.0000
vn 0.9583 0.2856 -0.0000
vn 0.9885 0.1514 -0.0000
vn -0.8252 -0.5198 0.2211
vn 0.2441 0.3329 -0.9108
vn 0.2086 0.5922 -0.7783
vn 0.7398 -0.5198 0.4271
vn 0.4715 0.3329 -0.8166
vn 0.4029 0.5922 -0.6978
vn 0.7455 -0.5088 -0.4304
vn 0.6668 0.3329 -0.6668
vn 0.5698 0.5922 -0.5698
vn 0.6087 -0.5088 -0.6087
vn -0.6365 0.6781 0.3675
vn -0.2482 0.9580 0.1433
vn 0.0417 0.9991 0.0112
vn 0.0825 0.9963 0.0221
vn 0.1251 0.9916 0.0335
vn 0.1704 0.9843 0.0457
vn 0.2197 0.9738 0.0589
vn 0.2744 0.9588 0.0735
vn 0.3365 0.9374 0.0902
vn 0.4083 0.9063 0.1094
vn 0.4927 0.8601 0.1320
vn 0.5920 0.7902 0.1586
vn 0.7061 0.6824 0.1892
vn 0.8260 0.5184 0.2213
vn 0.9257 0.2856 0.2480
vn 0.9548 0.1514 0.2558
vn 0.8166 0.3329 -0.4715
vn 0.6978 0.5922 -0.4029
vn 0.4066 -0.5819 -0.7043
vn 0.9108 0.3329 -0.2441
vn 0.7783 0.5922 -0.2086
vn 0.5750 -0.5819 -0.5750
vn 0.9430 0.3329 -0.0000
vn 0.8058 0.5922 -0.0000
vn 0.7043 -0.5819 -0.4066
vn 0.9108 0.3329 0.2441
vn -0.8529 0.4694 0.2285
vn 0.0373 0.9991 0.0216
vn 0.0740 0.9963 0.0427
vn 0.1121 0.9916 0.0647
vn 0.1528 0.9843 0.0882
vn 0.1970 0.9738 0.1137
vn 0.2460 0.9588 0.1420
vn 0.3017 0.9374 0.1742
vn 0.3661 0.9063 0.2114
vn 0.4417 0.8601 0.2550
vn 0.5308 0.7902 0.3065
vn 0.6331 0.6824 0.3655
vn 0.7406 0.5184 0.4276
vn 0.8300 0.2856 0.4792
vn 0.8560 0.1514 0.4942
vn 0.7783 0.5922 0.2086
vn -0.0000 -0.5198 -0.8543
vn 0.8166 0.3329 0.4715
vn 0.6978 0.5922 0.4029
vn 0.2211 -0.5198 -0.8252
vn 0.6668 0.3329 0.6668
vn 0.5698 0.5922 0.5698
vn 0.2211 -0.5198 0.8252
vn 0.4715 0.3329 0.8166
vn -0.7099 0.6781 0.1902
vn -0.2769 0.9580 0.0742
vn 0.0305 0.9991 0.0305
vn 0.0604 0.9963 0.0604
vn 0.0916 0.9916 0.0916
vn 0.1248 0.9843 0.1247
vn 0.1608 0.9738 0.1608
vn 0.2009 0.9588 0.2009
vn 0.2463 0.9374 0.2463
vn 0.2989 0.9063 0.2989
vn 0.3607 0.8601 0.3607
vn 0.4334 0.7902 0.4334
vn 0.5169 0.6824 0.5169
vn 0.6047 0.5184 0.6047
vn 0.6777 0.2856 0.6777
vn 0.6990 0.1514 0.6990
vn 0.4029 0.5922 0.6978
vn 0.4271 -0.5198 0.7398
vn 0.2441 0.3329 0.9108
vn 0.2086 0.5922 0.7783
vn 0.5750 -0.5819 0.5750
vn -0.0000 0.3329 0.9430
vn -0.0000 0.5922 0.8058
vn 0.7043 -0.5819 0.4066
vn -0.2441 0.3329 0.9108
vn -0.2086 0.5922 0.7783
vn -0.8830 0.4694 -0.0000
vn 0.0216 0.9991 0.0373
vn 0.0427 0.9963 0.0740
vn 0.0647 0.9916 0.1122
vn 0.0882 0.9843 0.1528
vn 0.1137 0.9738 0.1970
vn 0.1420 0.9588 0.2460
vn 0.1742 0.9374 0.3017
vn 0.2114 0.9063 0.3661
vn 0.2550 0.8601 0.4417
vn 0.3065 0.7902 0.5308
vn 0.3655 0.6824 0.6331
vn 0.4276 0.5184 0.7406
vn 0.4792 0.2856 0.8300
vn 0.4942 0.1514 0.8560
vn -0.4715 0.3329 0.8166
vn -0.4029 0.5922 0.6978
vn -0.6668 0.3329 0.6668
vn -0.5698 0.5922 0.5698
vn -0.8166 0.3329 0.4715
vn -0.6978 0.5922 0.4029
vn 0.7455 -0.5088 0.4304
vn -0.7350 0.6781 -0.0000
vn -0.2866 0.9580 -0.0000
vn 0.0112 0.9991 0.0417
vn 0.0221 0.9963 0.0825
vn 0.0335 0.9916 0.1251
vn 0.0457 0.9843 0.1704
vn 0.0589 0.9738 0.2197
vn 0.0735 0.9588 0.2744
vn 0.0902 0.9374 0.3365
vn 0.1094 0.9063 0.4083
vn 0.1320 0.8601 0.4927
vn 0.1586 0.7902 0.5920
vn 0.1892 0.6824 0.7061
vn 0.2213 0.5184 0.8260
vn 0.2480 0.2856 0.9257
vn 0.2558 0.1514 0.9548
vn -0.9108 0.3329 0.2441
vn -0.7783 0.5922 0.2086
vn 0.8315 -0.5088 0.2228
vn -0.9430 0.3329 -0.0000
vn -0.8058 0.5922 -0.0000
vn 0.8252 -0.5198 0.2211
vn -0.9108 0.3329 -0.2441
vn -0.7783 0.5922 -0.2086
vn 0.8543 -0.5198 -0.0000
vn -0.8166 0.3329 -0.4715
vn -0.8529 0.4694 -0.2285
vn -0.0000 0.9991 0.0431
vn -0.0000 0.9963 0.0854
vn -0.0000 0.9916 0.1295
vn -0.0000 0.9843 0.1764
vn -0.0000 0.9738 0.2274
vn -0.0000 0.9588 0.2841
vn -0.0000 0.9374 0.3484
vn -0.0000 0.9063 0.4227
vn -0.0000 0.8601 0.5101
vn -0.0000 0.7902 0.6129
vn -0.0000 0.6824 0.7310
vn -0.0000 0.5184 0.8551
vn -0.0000 0.2856 0.9583
vn -0.0000 0.1514 0.9885
vn -0.6978 0.5922 -0.4029
vn 0.8252 -0.5198 -0.2211
vn -0.6668 0.3329 -0.6668
vn -0.5698 0.5922 -0.5698
vn 0.7398 -0.5198 -0.4271
vn -0.4715 0.3329 -0.8166
vn -0.4029 0.5922 -0.6978
vn -0.2441 0.3329 -0.9108
vn -0.7099 0.6781 -0.1902
vn -0.2769 0.9580 -0.0742
vn -0.0112 0.9991 0.0417
vn -0.0221 0.9963 0.0825
vn -0.0335 0.9916 0.1251
vn -0.0457 0.9843 0.1704
vn -0.0589 0.9738 0.2197
vn -0.0735 0.9588 0.2744
vn -0.0902 0.9374 0.3365
vn -0.1094 0.9063 0.4083
vn -0.1320 0.8601 0.4927
vn -0.1586 0.7902 0.5920
vn -0.1892 0.6824 0.7061
vn -0.2213 0.5184 0.8260
vn -0.2480 0.2856 0.9257
vn -0.2558 0.1514 0.9548
vn -0.7647 0.4694 -0.4415
vn -0.0216 0.9991 0.0373
vn -0.0427 0.9963 0.0740
vn -0.0647 0.9916 0.1121
vn -0.0882 0.9843 0.1528
vn -0.1137 0.9738 0.1970
vn -0.1420 0.9588 0.2460
vn -0.1742 0.9374 0.3017
vn -0.2114 0.9063 0.3661
vn -0.2550 0.8601 0.4417
vn -0.3065 0.7902 0.5308
vn -0.3655 0.6824 0.6331
vn -0.4276 0.5184 0.7406
vn -0.4792 0.2856 0.8300
vn -0.4942 0.1514 0.8560
vn -0.4066 -0.5819 -0.7043
vn -0.2105 -0.5819 -0.7855
vn -0.6365 0.6781 -0.3675
vn -0.2482 0.9580 -0.1433
vn -0.0305 0.9991 0.0305
vn -0.0604 0.9963 0.0604
vn -0.0916 0.9916 0.0916
vn -0.1247 0.9843 0.1248
vn -0.1608 0.9738 0.1608
vn -0.2009 0.9588 0.2009
vn -0.2463 0.9374 0.2463
vn -0.2989 0.9063 0.2989
vn -0.3607 0.8601 0.3607
vn -0.4334 0.7902 0.4334
vn -0.5169 0.6824 0.5169
vn -0.6047 0.5184 0.6047
vn -0.6777 0.2856 0.6777
vn -0.6990 0.1514 0.6990
vn -0.8132 -0.5819 -0.0000
vn -0.7855 -0.5819 -0.2105
vn -0.7043 -0.5819 0.4066
vn -0.7855 -0.5819 0.2105
vn -0.5750 -0.5819 -0.5750
vn -0.7043 -0.5819 -0.4066
vn 0.2105 -0.5819 0.7855
vn -0.0000 -0.5819 -0.8132
vn -0.6243 0.4694 -0.6243
vn -0.0373 0.9991 0.0216
vn -0.0740 0.9963 0.0427
vn -0.1122 0.9916 0.0647
vn -0.1528 0.9843 0.0882
vn -0.1970 0.9738 0.1137
vn -0.2460 0.9588 0.1420
vn -0.3017 0.9374 0.1742
vn -0.3661 0.9063 0.2114
vn -0.4417 0.8601 0.2550
vn -0.5308 0.7902 0.3065
vn -0.6331 0.6824 0.3655
vn -0.7406 0.5184 0.4276
vn -0.8300 0.2856 0.4792
vn -0.8560 0.1514 0.4942
vn -0.4066 -0.5819 0.7043
vn -0.5750 -0.5819 0.5750
vn 0.4271 -0.5198 -0.7398
vn 0.4066 -0.5819 0.7043
vn -0.2105 -0.5819 0.7855
vn -0.5197 0.6781 -0.5197
vn -0.2027 0.9580 -0.2027
vn -0.0417 0.9991 0.0112
vn -0.0825 0.9963 0.0221
vn -0.1251 0.9916 0.0335
vn -0.1704 0.9843 0.0457
vn -0.2197 0.9738 0.0589
vn -0.2744 0.9588 0.0735
vn -0.3365 0.9374 0.0902
vn -0.4083 0.9063 0.1094
vn -0.4927 0.8601 0.1320
vn -0.5920 0.7902 0.1586
vn -0.7061 0.6824 0.1892
vn -0.8260 0.5184 0.2213
vn -0.9257 0.2856 0.2480
vn -0.9548 0.1514 0.2558
vn -0.0000 -0.5819 0.8132
vn -0.7455 -0.5088 -0.4304
vn -0.6087 -0.5088 -0.6087
vn -0.4304 -0.5088 -0.7455
vn -0.2228 -0.5088 -0.8315
vn -0.6087 -0.5088 0.6087
vn 0.7855 -0.5819 -0.2105
vn -0.4415 0.4694 -0.7647
vn -0.0431 0.9991 -0.0000
vn -0.0854 0.9963 -0.0000
vn -0.1295 0.9916 -0.0000
vn -0.1764 0.9843 -0.0000
vn -0.2274 0.9738 -0.0000
vn -0.2841 0.9588 -0.0000
vn -0.3484 0.9374 -0.0000
vn -0.4227 0.9063 -0.0000
vn -0.5101 0.8601 -0.0000
vn -0.6129 0.7902 -0.0000
vn -0.7310 0.6824 -0.0000
vn -0.8551 0.5184 -0.0000
vn -0.9583 0.2856 -0.0000
vn -0.9885 0.1514 -0.0000
vn -0.8315 -0.5088 0.2228
vn -0.7455 -0.5088 0.4304
vn -0.4304 -0.5088 0.7455
vn 0.8132 -0.5819 -0.0000
vn -0.8315 -0.5088 -0.2228
vn -0.8609 -0.5088 -0.0000
vn -0.3675 0.6781 -0.6365
vn -0.1433 0.9580 -0.2482
vn -0.0417 0.9991 -0.0112
vn -0.0825 0.9963 -0.0221
vn -0.1251 0.9916 -0.0335
vn -0.1704 0.9843 -0.0457
vn -0.2197 0.9738 -0.0589
vn -0.2744 0.9588 -0.0735
vn -0.3365 0.9374 -0.0902
vn -0.4083 0.9063 -0.1094
vn -0.4927 0.8601 -0.1320
vn -0.5920 0.7902 -0.1586
vn -0.7061 0.6824 -0.1892
vn -0.8260 0.5184 -0.2213
vn -0.9257 0.2856 -0.2480
vn -0.9548 0.1514 -0.2558
vn -0.0000 -0.5088 -0.8609
vn -0.2228 -0.5088 0.8315
vn -0.0000 -0.5088 0.8609
vn 0.2228 -0.5088 0.8315
vn 0.6087 -0.5088 0.6087
vn 0.4304 -0.5088 0.7455
vn -0.8252 -0.5198 -0.2211
vn -0.2285 0.4694 -0.8529
vn -0.0373 0.9991 -0.0216
vn -0.0740 0.9963 -0.0427
vn -0.1121 0.9916 -0.0647
vn -0.1528 0.9843 -0.0882
vn -0.1970 0.9738 -0.1137
vn -0.2460 0.9588 -0.1420
vn -0.3017 0.9374 -0.1742
vn -0.3661 0.9063 -0.2114
vn -0.4417 0.8601 -0.2550
vn -0.5308 0.7902 -0.3064
vn -0.6331 0.6824 -0.3655
vn -0.7406 0.5184 -0.4276
vn -0.8300 0.2856 -0.4792
vn -0.8560 0.1514 -0.4942
vn 0.2105 -0.5819 -0.7855
vn -0.6041 -0.5198 -0.6041
vn -0.7398 -0.5198 -0.4271
vn 0.4304 -0.5088 -0.7455
vn 0.2228 -0.5088 -0.8315
vn -0.1902 0.6781 -0.7099
vn -0.0742 0.9580 -0.2769
vn -0.0305 0.9991 -0.0305
vn -0.0604 0.9963 -0.0604
vn -0.0916 0.9916 -0.0916
vn -0.1248 0.9843 -0.1248
vn -0.1608 0.9738 -0.1608
vn -0.2009 0.9588 -0.2009
vn -0.2463 0.9374 -0.2463
vn -0.2989 0.9063 -0.2989
vn -0.3607 0.8601 -0.3607
vn -0.4334 0.7902 -0.4334
vn -0.5169 0.6824 -0.5169
vn -0.6047 0.5184 -0.6047
vn -0.6777 0.2856 -0.6777
vn -0.6990 0.1514 -0.6990
vn -0.8543 -0.5198 -0.0000
vn 0.7855 -0.5819 0.2105
vn -0.4271 -0.5198 -0.7398
vn -0.2211 -0.5198 -0.8252
vn -0.0000 0.4919 -0.8706
vn -0.0216 0.9991 -0.0373
vn -0.0427 0.9963 -0.0740
vn -0.0647 0.9916 -0.1122
vn -0.0882 0.9843 -0.1528
vn -0.1137 0.9738 -0.1970
vn -0.1420 0.9588 -0.2460
vn -0.1742 0.9374 -0.3017
vn -0.2114 0.9063 -0.3661
vn -0.2550 0.8601 -0.4417
vn -0.3065 0.7902 -0.5308
vn -0.3655 0.6824 -0.6331
vn -0.4276 0.5184 -0.7406
vn -0.4792 0.2856 -0.8300
vn -0.4942 0.1514 -0.8560
vn -0.6041 -0.5198 0.6041
vn -0.2211 -0.5198 0.8252
vn 0.8315 -0.5088 -0.2228
vn 0.8609 -0.5088 -0.0000
vn -0.7398 -0.5198 0.4271
vn -0.0000 -0.5198 0.8543
vn 0.6041 -0.5198 0.6041
vn 0.6041 -0.5198 -0.6041
vn -0.0000 0.6921 -0.7218
vn -0.0000 0.9600 -0.2801
vn -0.0112 0.9991 -0.0417
vn -0.0221 0.9963 -0.0825
vn -0.0335 0.9916 -0.1251
vn -0.0457 0.9843 -0.1704
vn -0.0589 0.9738 -0.2197
vn -0.0735 0.9588 -0.2744
vn -0.0902 0.9374 -0.3365
vn -0.1094 0.9063 -0.4083
vn -0.1320 0.8601 -0.4927
vn -0.1586 0.7902 -0.5920
vn -0.1892 0.6824 -0.7061
vn -0.2213 0.5184 -0.8260
vn -0.2480 0.2856 -0.9257
vn -0.2558 0.1514 -0.9548
vn -0.4271 -0.5198 0.7398
vn 0.2253 0.4919 -0.8410
vn -0.0000 0.9991 -0.0431
vn 0.1868 0.6921 -0.6972
vn -0.0000 0.9916 -0.1295
vn -0.0000 0.9843 -0.1764
vn -0.0000 0.9738 -0.2274
vn 0.0725 0.9600 -0.2706
vn -0.0000 0.9374 -0.3484
vn -0.0000 0.9063 -0.4227
vn -0.0000 0.8601 -0.5101
vn 0.4353 0.4919 -0.7540
vn -0.0000 0.6824 -0.7310
vn 0.3609 0.6921 -0.6251
vn 0.1401 0.9600 -0.2426
vn 0.6156 0.4919 -0.6156
vn 0.5104 0.6921 -0.5104
vn 0.1981 0.9600 -0.1981
vn 0.7540 0.4919 -0.4353
vn 0.6251 0.6921 -0.3609
vn -0.2086 0.5922 -0.7783
vn 0.2426 0.9600 -0.1401
vn 0.8410 0.4919 -0.2253
vn 0.6972 0.6921 -0.1868
vn 0.1433 0.9580 0.2482
vn 0.3675 0.6781 0.6365
vn 0.4415 0.4694 0.7647
vn 0.2027 0.9580 0.2027
vn 0.5197 0.6781 0.5197
vn 0.6243 0.4694 0.6243
vn 0.2482 0.9580 0.1433
vn 0.6365 0.6781 0.3675
vn 0.7647 0.4694 0.4415
vn 0.2769 0.9580 0.0742
vn 0.7099 0.6781 0.1902
vn 0.8529 0.4694 0.2285
vn 0.2866 0.9580 -0.0000
vn 0.7350 0.6781 -0.0000
vn 0.8830 0.4694 -0.0000
vn 0.2769 0.9580 -0.0742
vn 0.7099 0.6781 -0.1902
vn 0.8529 0.4694 -0.2285
vn 0.2482 0.9580 -0.1433
vn 0.6365 0.6781 -0.3675
vn 0.7647 0.4694 -0.4415
vn 0.2027 0.9580 -0.2027
vn 0.5197 0.6781 -0.5197
vn 0.6243 0.4694 -0.6243
vn 0.1433 0.9580 -0.2482
vn 0.3675 0.6781 -0.6365
vn 0.4415 0.4694 -0.7647
vn 0.0742 0.9580 -0.2769
vn 0.1902 0.6781 -0.7099
vn 0.2285 0.4694 -0.8529
vn -0.0000 0.9580 -0.2866
vn -0.0000 0.6781 -0.7350
vn -0.0000 0.4694 -0.8830
vt -0.000000 1.172747
vt 0.274519 1.024519
vt 0.303529 1.132787
vt -0.000000 1.270085
vt 0.328723 1.226809
vt 0.000000 1.351453
vt 0.349782 1.305404
vt 0.000000 1.415824
vt 0.366442 1.367582
vt 0.000000 0.181653
vt 0.378495 0.122387
vt 0.000000 0.122387
vt 0.385787 0.061580
vt 0.000000 0.061580
vt 0.388229 0.000000
vt 0.000000 0.000000
vt 0.000000 0.167947
vt 0.043468 0.162224
vt 0.000000 0.333781
vt 0.086389 0.322408
vt 0.128224 0.478538
vt 0.000000 0.495419
vt -0.000000 0.650825
vt 0.168446 0.628649
vt 0.000000 0.798048
vt 0.206550 0.770855
vt 0.242057 0.903367
vt 0.000000 0.935235
vt -0.298879 -0.044730
vt 0.000000 -0.555270
vt -0.369133 -0.555270
vt 0.000000 1.060659
vt 0.530330 0.918559
vt 0.298879 -0.044730
vt 0.713109 -0.555270
vt 0.369133 -0.555270
vt 0.586374 1.015629
vt 0.577391 -0.044730
vt 1.008489 -0.555270
vt 0.635043 1.099927
vt -1.008489 -0.555270
vt -0.577391 -0.044730
vt -0.713109 -0.555270
vt 0.675727 1.170393
vt 1.399000 0.000000
vt -0.699500 -1.211570
vt -0.699500 1.211570
vt 0.707913 1.226140
vt 0.366442 0.181653
vt 0.731196 0.122387
vt 0.745284 0.061580
vt -1.043200 -0.279525
vt 0.763675 -0.763675
vt 0.279525 1.043200
vt 0.750000 0.000000
vt 0.083973 0.145446
vt -0.000000 -0.555270
vt 0.166891 0.289063
vt -0.713109 -0.555270
vt 0.247709 0.429045
vt 0.325413 0.563632
vt 0.399024 0.691130
vt 0.467617 0.809937
vt 0.266712 -0.644114
vt 0.781406 -1.655886
vt 0.552538 -1.655886
vt 0.460203 0.460203
vt 0.377188 -0.644114
vt 0.552538 -1.655886
vt 0.564305 0.564305
vt 0.266712 -0.644114
vt 0.286014 -1.655886
vt 0.661311 0.661311
vt 0.138060 -0.644114
vt 0.000000 -1.655886
vt 0.750000 0.750000
vt -0.000000 -0.644114
vt -0.286015 -1.655886
vt 0.829257 0.829257
vt -0.138060 -0.644114
vt -0.552538 -1.655886
vt 0.898087 0.898087
vt -0.266712 -0.644114
vt -0.781406 -1.655886
vt 0.955622 0.955622
vt 1.001139 1.001139
vt 1.001139 0.181653
vt 1.034067 0.122387
vt 1.053991 0.061580
vt 1.060660 0.000000
vt 0.118756 0.118756
vt 0.000000 -0.644114
vt 0.286015 -1.655886
vt -0.000000 -1.655886
vt 0.236019 0.236019
vt 0.138060 -0.644114
vt 0.350314 0.350314
vt -0.441911 -0.118410
vt 0.323501 -0.323501
vt 0.118410 0.441911
vt 0.745284 0.061580
vt 0.750000 0.000000
vt 0.145446 0.083973
vt 0.289063 0.166891
vt 0.429045 0.247709
vt -0.377188 -0.644114
vt -0.552538 -1.655886
vt 0.563631 0.325413
vt -0.266712 -0.644114
vt -0.286014 -1.655886
vt 0.691130 0.399024
vt -0.138060 -0.644114
vt 0.809937 0.467617
vt 0.918558 0.530330
vt 1.015629 0.586374
vt 1.099927 0.635043
vt 1.170393 0.675727
vt 1.042234 0.279266
vt -0.279266 -1.042234
vt -0.762968 0.762968
vt 1.226140 0.707912
vt 0.731196 0.122387
vt 1.034067 0.122387
vt 1.053991 0.061580
vt 1.226809 0.328722
vt 1.305404 0.349782
vt 0.047977 -1.747724
vt 0.246575 -2.952276
vt 0.348710 -2.952276
vt 1.367582 0.366442
vt 0.033925 -1.747724
vt 0.127637 -2.952276
vt 0.366442 0.181653
vt 0.378495 0.122387
vt 0.017561 -1.747724
vt -0.000000 -2.952276
vt 0.385787 0.061580
vt 0.000000 -1.747724
vt -0.127637 -2.952276
vt 0.388228 0.000000
vt 0.162224 0.043468
vt 0.000000 -2.952276
vt 0.322408 0.086389
vt 0.246575 -2.952276
vt 0.478538 0.128224
vt 0.628649 0.168446
vt 0.770855 0.206550
vt 0.903367 0.242057
vt 1.024519 0.274519
vt 1.132787 0.303529
vt -0.017561 -1.747724
vt -0.246575 -2.952276
vt -0.033925 -1.747724
vt -0.348710 -2.952276
vt 1.060660 0.000000
vt 1.172747 0.000000
vt 1.270086 -0.000000
vt -0.047977 -1.747724
vt -0.246575 -2.952276
vt 1.351453 -0.000000
vt 0.459000 0.000000
vt -0.229500 -0.397506
vt -0.229500 0.397506
vt 1.415825 0.000000
vt 0.000000 0.181653
vt -0.000000 0.122387
vt -0.000000 0.061580
vt -0.000000 0.000000
vt 0.167947 -0.000000
vt 0.333781 0.000000
vt 0.495419 -0.000000
vt 0.650826 0.000000
vt 0.798048 -0.000000
vt 0.935235 -0.000000
vt 0.762968 -1.700000
vt 0.628649 -0.168446
vt 0.699500 -0.600000
vt 0.713109 -0.555270
vt 0.770855 -0.206550
vt 1.000070 0.577391
vt 1.043200 0.279525
vt 1.115433 0.298879
vt 0.903367 -0.242057
vt 0.461959 -0.266712
vt 0.441911 -0.118410
vt 0.396207 -0.228750
vt 1.024519 -0.274519
vt -0.362088 -0.600000
vt 0.000000 -0.600000
vt 1.132787 -0.303529
vt 1.115433 -0.298879
vt 1.080000 0.000000
vt 1.043200 -0.279525
vt 1.226809 -0.328723
vt -0.539500 -1.700000
vt -0.279266 -1.700000
vt 1.305403 -0.349782
vt 0.362088 -0.600000
vt 1.367582 -0.366442
vt 0.377188 -0.377188
vt -0.366442 0.181653
vt -0.378495 0.122387
vt 0.298879 1.115433
vt 0.000000 1.080000
vt -0.385787 0.061580
vt -0.388229 0.000000
vt 0.162224 -0.043468
vt 0.377188 0.377188
vt 0.396207 0.228750
vt 0.461959 0.266712
vt 0.322408 -0.086389
vt 0.229500 -3.000000
vt 0.478538 -0.128224
vt -0.745284 0.061580
vt -0.750000 0.000000
vt 0.145446 -0.083973
vt 0.577391 1.000070
vt 0.540000 0.935307
vt 0.289063 -0.166891
vt 0.324562 -3.000000
vt 0.429045 -0.247709
vt 0.563632 -0.325413
vt -0.762968 -1.700000
vt 0.691130 -0.399024
vt 0.763675 0.763675
vt 0.816554 0.816554
vt 0.809937 -0.467617
vt 0.047977 0.047977
vt 0.033925 0.058760
vt 0.918558 -0.530330
vt 1.015629 -0.586373
vt -0.298879 -1.115433
vt 0.000000 -1.080000
vt -0.279525 -1.043200
vt 1.099927 -0.635043
vt 0.539500 -1.700000
vt 1.170393 -0.675727
vt -0.699500 -0.600000
vt 1.226140 -0.707912
vt 1.000070 -0.577391
vt 0.816554 -0.816554
vt -0.731196 0.122387
vt -0.229500 -3.000000
vt 0.898086 -0.898086
vt 0.955622 -0.955622
vt 0.515248 0.138060
vt 0.457500 -0.000000
vt 0.533424 -0.000000
vt 1.001139 -1.001139
vt -1.001139 0.181653
vt -1.034067 0.122387
vt -1.000070 -0.577391
vt -1.115433 -0.298879
vt -1.053991 0.061580
vt 0.138060 0.515248
vt 0.000000 0.457500
vt -1.060660 0.000000
vt 0.118756 -0.118756
vt 0.266712 0.461959
vt 0.228750 0.396207
vt 0.236019 -0.236019
vt 0.577391 -1.000070
vt 0.279525 -1.043200
vt 0.298879 -1.115433
vt 0.350314 -0.350314
vt 0.989242 -0.600000
vt 0.460203 -0.460203
vt 0.935307 0.540000
vt 0.564305 -0.564305
vt 0.661311 -0.661311
vt 1.154782 -0.000000
vt 0.750000 -0.750000
vt 0.323501 0.323501
vt 0.829257 -0.829257
vt 0.935307 -0.540000
vt 0.530330 -0.918558
vt 0.540000 -0.935307
vt 0.586373 -1.015629
vt 0.515248 -0.138060
vt 0.635043 -1.099927
vt 0.675727 -1.170393
vt -0.000000 -1.154782
vt 0.707912 -1.226140
vt 0.058760 0.033925
vt 1.001139 0.181653
vt 0.731196 0.122387
vt 1.034067 0.122387
vt 0.000000 -1.700000
vt 1.053991 0.061580
vt 0.745284 0.061580
vt 0.279266 -1.700000
vt 0.750000 0.000000
vt 1.060660 0.000000
vt 0.083973 -0.145446
vt 0.166891 -0.289063
vt 0.247709 -0.429045
vt 0.325413 -0.563631
vt -0.577391 -1.000070
vt -0.763675 -0.763675
vt -0.816554 -0.816554
vt 0.399024 -0.691130
vt -0.118798 -3.000000
vt 0.467617 -0.809937
vt 0.128224 -0.478538
vt 0.047977 -0.047977
vt 0.058760 -0.033925
vt 0.168446 -0.628649
vt 0.206550 -0.770855
vt -0.577391 1.000070
vt -0.279525 1.043200
vt -0.298879 1.115433
vt 0.242056 -0.903367
vt 0.274519 -1.024519
vt 0.065538 -0.017561
vt 0.303529 -1.132787
vt -1.115433 0.298879
vt -1.080000 0.000000
vt -1.043200 0.279525
vt 0.328722 -1.226809
vt -0.540000 -0.935307
vt 0.349782 -1.305404
vt -0.989242 -0.600000
vt 0.366442 -1.367582
vt -0.935307 -0.540000
vt 0.366442 0.181653
vt 0.378495 0.122387
vt 0.385787 0.061580
vt -1.154782 0.000000
vt 0.388228 0.000000
vt 0.043468 -0.162224
vt 0.086389 -0.322408
vt -1.000070 0.577391
vt -0.763675 0.763675
vt -0.816554 0.816554
vt -0.000000 0.061580
vt -0.000000 0.000000
vt -0.000000 -0.167947
vt 0.000000 -0.333781
vt -0.000000 -0.495419
vt 0.000000 -0.650826
vt 0.266712 -0.461959
vt 0.118410 -0.441911
vt 0.138060 -0.515248
vt -0.000000 -0.798048
vt 0.017561 0.065538
vt -0.000000 -0.935235
vt 0.000000 -1.060660
vt -0.138060 -0.515248
vt -0.000000 -0.457500
vt -0.118410 -0.441911
vt 0.000000 -1.172747
vt 0.118798 -3.000000
vt 0.000000 -1.270086
vt -0.000000 -1.351453
vt -0.935307 0.540000
vt -0.000000 -1.415825
vt -0.000000 0.122387
vt 0.441911 0.118410
vt -0.461959 -0.266712
vt -0.515248 -0.138060
vt -0.328722 -1.226809
vt -0.349782 -1.305403
vt 0.000000 0.067850
vt -0.366442 -1.367581
vt 0.000000 -3.000000
vt -0.366442 0.181653
vt -0.378495 0.122387
vt 0.228750 -0.396207
vt 0.067850 0.000000
vt -0.043468 -0.162224
vt -0.540000 0.935307
vt -0.086389 -0.322408
vt -0.128224 -0.478538
vt 0.000000 1.154782
vt -0.168446 -0.628649
vt -0.206550 -0.770855
vt -0.515248 0.138060
vt -0.457500 0.000000
vt -0.441911 0.118410
vt -0.242057 -0.903367
vt -0.377188 -0.377188
vt -0.228750 -0.396207
vt -0.323501 -0.323501
vt -0.274519 -1.024519
vt 0.065538 0.017561
vt -0.303529 -1.132787
vt -0.530330 -0.918558
vt -0.586373 -1.015629
vt -0.635043 -1.099927
vt -0.675727 -1.170393
vt -0.707912 -1.226140
vt -0.707912 0.181653
vt -0.745284 0.061580
vt -0.017561 0.065538
vt -0.750000 0.000000
vt -0.083973 -0.145446
vt -0.166891 -0.289063
vt -0.000000 -0.533424
vt -0.247709 -0.429045
vt -0.325413 -0.563631
vt -0.399024 -0.691130
vt -0.266712 -0.461959
vt -0.467617 -0.809937
vt -0.236019 -0.236019
vt -0.350314 -0.350314
vt -0.033925 0.058760
vt -0.047977 0.047977
vt -0.460203 -0.460203
vt -0.564305 -0.564305
vt -0.138060 0.515248
vt 0.000000 0.533424
vt -0.661311 -0.661311
vt -0.324562 -3.000000
vt -0.750000 -0.750000
vt -0.829257 -0.829257
vt -0.898086 -0.898086
vt -0.058760 0.033925
vt -0.955622 -0.955622
vt -1.001139 -1.001139
vt -0.377188 0.377188
vt -0.228750 0.396207
vt -0.266712 0.461959
vt -0.065538 0.017561
vt -1.053991 0.061580
vt -1.060660 0.000000
vt -0.118756 -0.118756
vt -1.053990 0.061580
vt -0.731196 0.122387
vt -0.745284 0.061580
vt -1.060660 0.000000
vt -0.750000 0.000000
vt -0.145446 -0.083973
vt -0.289063 -0.166891
vt -0.429045 -0.247709
vt -0.563631 -0.325413
vt -0.691130 -0.399024
vt -0.067850 0.000000
vt -0.065538 -0.017561
vt -0.809937 -0.467617
vt -0.918558 -0.530330
vt -1.015629 -0.586373
vt -1.099926 -0.635043
vt -1.170393 -0.675726
vt -1.226140 -0.707912
vt -1.001139 0.181653
vt -1.034067 0.122387
vt -1.226808 -0.328722
vt -1.305403 -0.349782
vt -1.367581 -0.366442
vt -0.707912 0.181653
vt -0.378495 0.122387
vt -0.385787 0.061580
vt -0.388228 0.000000
vt -0.162224 -0.043468
vt -0.322408 -0.086389
vt -0.118410 0.441911
vt -0.478538 -0.128224
vt 0.000000 -0.067850
vt 0.017561 -0.065538
vt -0.628649 -0.168446
vt -0.770855 -0.206550
vt -0.903367 -0.242056
vt -0.533424 0.000000
vt -1.024518 -0.274519
vt -1.132786 -0.303529
vt 0.033925 -0.058760
vt -0.935235 0.000000
vt -1.060659 -0.000000
vt -1.172747 0.000000
vt -1.270086 0.000000
vt -0.461959 0.266712
vt -0.396207 0.228750
vt -1.351453 0.000000
vt -1.415824 0.000000
vt -0.366442 0.181653
vt 0.000000 0.122387
vt 0.000000 0.061580
vt 0.000000 0.000000
vt -0.167947 0.000000
vt -0.333781 0.000000
vt -0.495419 0.000000
vt -0.650825 -0.000000
vt -0.058760 -0.033925
vt -0.047977 -0.047977
vt -0.798048 0.000000
vt -0.322408 0.086389
vt -0.478538 0.128224
vt -0.628649 0.168446
vt -0.770855 0.206550
vt -0.903367 0.242057
vt -1.024518 0.274519
vt -1.132786 0.303529
vt -1.226808 0.328722
vt -1.305403 0.349782
vt -1.367581 0.366442
vt 0.366442 0.181653
vt 0.378495 0.122387
vt 0.388229 0.000000
vt -0.162224 0.043468
vt 0.731196 0.122387
vt 0.745284 0.061580
vt -0.145446 0.083973
vt -0.323501 0.323501
vt -0.289063 0.166891
vt -0.429045 0.247709
vt -0.563631 0.325413
vt -0.691130 0.399024
vt -0.809937 0.467617
vt -0.918558 0.530330
vt -1.015628 0.586373
vt -1.099926 0.635043
vt -1.170392 0.675727
vt -1.226140 0.707912
vt -0.898086 0.898086
vt -0.955621 0.955622
vt -1.001139 1.001139
vt 1.001139 0.181653
vt 1.060660 0.000000
vt -0.118756 0.118756
vt -0.236019 0.236019
vt -0.350314 0.350314
vt -0.017561 -0.065538
vt -0.460203 0.460203
vt -0.396207 -0.228750
vt -0.564305 0.564305
vt -0.661311 0.661311
vt -0.749999 0.749999
vt -0.829257 0.829257
vt -0.467617 0.809937
vt -0.033925 -0.058760
vt -0.530330 0.918558
vt -0.586373 1.015628
vt -0.635043 1.099926
vt -0.675726 1.170393
vt -0.707912 1.226140
vt -0.707912 0.181653
vt -0.731196 0.122387
vt -0.745284 0.061580
vt -1.053990 0.061580
vt -0.749999 0.000000
vt -1.060659 0.000000
vt -0.083973 0.145446
vt -0.166891 0.289063
vt -0.247709 0.429045
vt -0.325413 0.563631
vt -0.399024 0.691130
vt -0.128224 0.478538
vt -0.168446 0.628649
vt -0.206550 0.770855
vt -0.242056 0.903367
vt -0.274519 1.024518
vt -0.303529 1.132786
vt -0.328722 1.226808
vt -0.349781 1.305403
vt -0.366442 1.367581
vt -0.366442 0.181653
vt -0.378495 0.122387
vt -0.385787 0.061580
vt -0.043468 0.162224
vt -0.086389 0.322408
vt 0.000000 -0.044730
vt 0.816554 -0.044730
vt -0.816554 -0.044730
vt -0.362088 1.351330
vt 0.000000 1.399000
vt 0.362088 1.351330
vt 0.699500 1.211570
vt 0.989242 0.989242
vt 1.211570 0.699500
vt 1.351330 0.362088
vt 1.351330 -0.362088
vt 1.211570 -0.699500
vt 0.989242 -0.989242
vt 0.699500 -1.211570
vt 0.362088 -1.351330
vt 0.000000 -1.399000
vt -0.362088 -1.351330
vt -0.989242 -0.989242
vt -1.211570 -0.699500
vt -1.351330 -0.362088
vt -1.399000 0.000000
vt -1.351330 0.362088
vt -1.211570 0.699500
vt -0.989242 0.989242
vt 0.707913 0.181653
vt -0.000000 -0.044730
vt -0.539500 0.934441
vt -0.279266 1.042234
vt 0.000000 1.079000
vt 0.279266 1.042234
vt 0.539500 0.934441
vt 0.762968 0.762968
vt 0.934441 0.539500
vt 1.079000 0.000000
vt 1.042234 -0.279266
vt 0.934441 -0.539500
vt 0.762968 -0.762968
vt 0.539500 -0.934441
vt 0.279266 -1.042234
vt 0.000000 -1.079000
vt -0.539500 -0.934441
vt -0.762968 -0.762968
vt -0.934441 -0.539500
vt -1.042234 -0.279266
vt -1.079000 0.000000
vt -1.042234 0.279266
vt -0.934441 0.539500
vt 0.707912 0.181653
vt -0.118798 0.443360
vt 0.000000 0.459000
vt 0.118798 0.443360
vt 0.229500 0.397506
vt 0.324562 0.324562
vt 0.397506 0.229500
vt 0.443360 0.118798
vt 0.443360 -0.118798
vt 0.397506 -0.229500
vt 0.324562 -0.324562
vt 0.229500 -0.397506
vt 0.118798 -0.443360
vt 0.000000 -0.459000
vt -0.118798 -0.443360
vt -0.324562 -0.324562
vt -0.397506 -0.229500
vt -0.443360 -0.118798
vt -0.459000 0.000000
vt -0.443360 0.118798
vt -0.397506 0.229500
vt -0.324562 0.324562
vt 0.707912 0.181653
vt -0.000000 0.181653
vt -1.001139 0.181653
s 1
f 682/1/555 37/2/32 38/3/33
f 683/4/556 38/3/33 39/5/34
f 11/6/10 39/5/34 40/7/35
f 685/8/558 40/7/35 41/9/36
f 685/10/558 42/11/37 13/12/12
f 13/12/12 43/13/38 14/14/13
f 14/14/13 44/15/39 15/16/14
f 675/17/548 1/16/1 31/18/26
f 3/19/3 31/18/26 32/20/27
f 3/19/3 33/21/28 677/22/550
f 678/23/551 33/21/28 34/24/29
f 679/25/552 34/24/29 35/26/30
f 679/25/552 36/27/31 7/28/7
f 261/29/226 290/30/252 232/31/202
f 681/32/554 36/27/31 37/2/32
f 36/27/31 66/33/57 37/2/32
f 377/34/323 393/35/339 348/36/300
f 37/2/32 67/37/58 38/3/33
f 412/38/356 441/39/380 393/35/339
f 39/5/34 67/37/58 68/40/59
f 441/41/380 528/42/444 499/43/423
f 39/5/34 69/44/60 40/7/35
f 721/45/4 59/46/4 500/47/4
f 40/7/35 70/48/61 41/9/36
f 586/29/487 746/30/602 557/31/467
f 41/49/36 71/50/62 42/11/37
f 528/42/444 557/31/467 499/43/423
f 42/11/37 72/51/63 43/13/38
f 262/52/227 707/53/573 739/54/597
f 44/15/39 72/51/63 73/55/64
f 31/18/26 1/16/1 60/56/51
f 8/57/8 25/29/21 20/31/18
f 31/18/26 61/58/52 32/20/27
f 25/29/21 58/59/50 20/31/18
f 32/20/27 62/60/53 33/21/28
f 87/42/75 116/41/101 58/59/50
f 33/21/28 63/61/54 34/24/29
f 116/41/101 203/42/176 174/43/151
f 35/26/30 63/61/54 64/62/55
f 203/42/176 232/31/202 174/43/151
f 35/26/30 65/63/56 36/27/31
f 290/30/252 377/34/323 348/36/300
f 687/64/559 689/65/561 684/66/557
f 62/60/53 92/67/80 63/61/54
f 691/68/562 695/69/564 689/65/561
f 63/61/54 93/70/81 64/62/55
f 697/71/565 700/72/568 695/69/564
f 64/62/55 94/73/82 65/63/56
f 702/74/569 17/75/16 700/72/568
f 65/63/56 95/76/83 66/33/57
f 19/77/17 23/78/20 17/75/16
f 67/37/58 95/76/83 96/79/84
f 26/80/22 28/81/24 23/78/20
f 68/40/59 96/79/84 97/82/85
f 45/83/40 47/84/42 28/81/24
f 68/40/59 98/85/86 69/44/60
f 49/68/43 51/69/45 47/65/42
f 69/44/60 99/86/87 70/48/61
f 53/71/46 55/72/48 51/69/45
f 71/50/62 99/87/87 100/88/88
f 57/74/49 75/75/66 55/72/48
f 71/50/62 101/89/89 72/51/63
f 77/77/67 79/78/69 75/75/66
f 72/51/63 102/90/90 73/55/64
f 60/56/51 1/16/1 89/91/77
f 644/92/530 673/93/547 615/94/507
f 61/58/52 89/91/77 90/95/78
f 676/96/549 684/66/557 673/93/547
f 62/60/53 90/95/78 91/97/79
f 114/98/99 50/99/44 680/100/553
f 102/90/90 130/101/114 131/102/115
f 89/91/77 1/16/1 118/103/102
f 81/80/70 83/81/72 79/78/69
f 89/91/77 119/104/103 90/95/78
f 85/83/73 103/84/91 83/81/72
f 90/95/78 120/105/104 91/97/79
f 105/106/92 107/107/94 103/84/91
f 91/97/79 121/108/105 92/67/80
f 109/109/95 111/110/97 107/107/94
f 93/70/81 121/108/105 122/111/106
f 113/112/98 115/94/100 111/110/97
f 93/70/81 123/113/107 94/73/82
f 133/92/116 135/93/118 115/94/100
f 94/73/82 124/114/108 95/76/83
f 137/96/119 139/66/121 135/93/118
f 96/79/84 124/114/108 125/115/109
f 141/64/122 143/65/124 139/66/121
f 96/79/84 126/116/110 97/82/85
f 161/106/141 163/107/143 143/84/124
f 97/82/85 127/117/111 98/85/86
f 701/118/4 80/119/4 144/120/4
f 98/85/86 128/121/112 99/86/87
f 169/112/147 615/94/507 167/110/146
f 99/87/87 129/122/113 100/123/88
f 165/109/144 167/110/146 163/107/143
f 101/124/89 129/122/113 130/101/114
f 127/117/111 155/125/135 156/126/136
f 257/127/223 259/128/225 255/129/222
f 127/117/111 157/130/137 128/121/112
f 277/131/242 279/132/244 259/128/225
f 129/122/113 157/133/137 158/134/138
f 281/135/245 283/136/247 279/132/244
f 129/122/113 159/137/139 130/101/114
f 285/138/248 287/139/250 283/136/247
f 131/102/115 159/137/139 160/140/140
f 118/103/102 1/16/1 147/141/127
f 173/138/150 191/132/167 171/142/149
f 118/103/102 148/143/128 119/104/103
f 193/135/168 195/144/170 191/132/167
f 119/104/103 149/145/129 120/105/104
f 197/131/171 199/129/173 195/144/170
f 120/105/104 150/146/130 121/108/105
f 201/127/174 219/128/192 199/129/173
f 122/111/106 150/146/130 151/147/131
f 221/131/193 223/132/195 219/128/192
f 122/111/106 152/148/132 123/113/107
f 225/135/196 227/136/198 223/132/195
f 123/113/107 153/149/133 124/114/108
f 229/138/199 231/139/201 227/136/198
f 125/115/109 153/149/133 154/150/134
f 249/151/217 251/152/219 231/139/201
f 125/115/109 155/125/135 126/116/110
f 253/153/220 255/154/222 251/152/219
f 341/138/294 343/132/296 339/142/293
f 152/148/132 182/155/158 153/149/133
f 345/135/297 347/144/299 343/132/296
f 154/150/134 182/155/158 183/156/159
f 365/131/315 367/129/317 347/144/299
f 154/150/134 184/157/160 155/125/135
f 369/158/318 371/159/320 367/154/317
f 155/125/135 185/160/161 156/126/136
f 228/161/4 308/162/4 372/163/4
f 156/126/136 186/164/162 157/130/137
f 698/151/566 171/142/149 375/139/322
f 158/134/138 186/165/162 187/166/163
f 373/153/321 375/139/322 371/159/320
f 158/134/138 188/167/164 159/137/139
f 159/137/139 189/168/165 160/140/140
f 147/141/127 1/16/1 176/169/152
f 289/151/251 307/152/267 287/139/250
f 148/143/128 176/169/152 177/170/153
f 309/153/268 311/154/269 307/152/267
f 148/143/128 178/171/154 149/145/129
f 313/158/270 315/159/271 311/154/269
f 149/145/129 179/172/155 150/146/130
f 317/153/272 335/139/290 315/159/271
f 151/147/131 179/172/155 180/173/156
f 337/151/291 339/142/293 335/139/290
f 151/147/131 181/174/157 152/148/132
f 198/69/172 374/175/175 202/65/175
f 178/171/154 208/176/181 179/172/155
f 366/36/316 660/177/319 370/178/319
f 180/173/156 208/176/181 209/179/182
f 728/180/589 723/181/585 724/182/586
f 180/173/156 210/183/183 181/174/157
f 45/184/40 27/185/23 46/186/41
f 181/174/157 211/187/184 182/155/158
f 346/57/298 663/188/295 666/189/298
f 182/155/158 212/190/185 183/156/159
f 716/191/580 719/192/582 715/193/579
f 183/156/159 213/194/186 184/157/160
f 338/78/292 525/195/273 614/196/292
f 184/157/160 214/197/187 185/160/161
f 608/30/218 254/198/221 250/189/218
f 185/160/161 215/199/188 186/164/162
f 49/200/43 46/186/41 50/99/44
f 187/166/163 215/201/188 216/202/189
f 740/203/598 743/204/600 739/54/597
f 187/166/163 217/205/190 188/167/164
f 607/36/221 462/177/397 254/198/221
f 188/167/164 218/206/191 189/168/165
f 176/169/152 1/16/1 205/207/178
f 691/208/562 699/209/567 697/210/565
f 176/169/152 206/211/179 177/170/153
f 409/129/197 222/212/194 556/144/194
f 178/171/154 206/211/179 207/213/180
f 258/36/224 661/177/243 278/178/243
f 218/206/191 246/214/215 247/215/216
f 205/207/178 1/16/1 234/216/203
f 736/217/595 739/54/597 735/218/594
f 205/207/178 235/219/204 206/211/179
f 409/129/197 230/212/200 226/220/197
f 207/213/180 235/219/204 236/221/205
f 642/39/529 462/177/397 467/35/397
f 207/213/180 237/222/206 208/176/181
f 318/81/273 553/223/464 525/195/273
f 209/179/182 237/222/206 238/224/207
f 736/217/595 731/225/591 732/226/592
f 209/179/182 239/227/208 210/183/183
f 201/228/174 197/229/171 314/16/1
f 210/183/183 240/230/209 211/187/184
f 637/57/527 632/188/523 638/189/527
f 211/187/184 241/231/210 212/190/185
f 25/232/21 12/233/11 30/234/25
f 213/194/186 241/231/210 242/235/211
f 580/66/485 374/175/175 583/236/485
f 213/194/186 243/237/212 214/197/187
f 639/41/528 664/238/169 194/59/169
f 214/197/187 244/239/213 215/199/188
f 712/240/577 707/53/573 708/241/574
f 215/201/188 245/242/214 216/202/189
f 282/154/246 306/243/249 286/152/249
f 216/202/189 246/214/215 217/205/190
f 243/237/212 271/244/236 272/245/237
f 702/246/569 22/247/19 19/248/17
f 243/237/212 273/249/238 244/239/213
f 635/31/166 693/238/526 636/43/526
f 245/242/214 273/250/238 274/251/239
f 203/252/176 262/52/227 261/253/226
f 245/242/214 275/254/240 246/214/215
f 676/255/549 645/256/531 680/100/553
f 247/215/216 275/254/240 276/257/241
f 234/216/203 1/16/1 263/258/228
f 687/259/559 680/100/553 688/260/560
f 234/216/203 264/261/229 235/219/204
f 704/262/571 6/263/6 5/264/5
f 236/221/205 264/261/229 265/265/230
f 642/39/529 660/177/319 643/266/529
f 236/221/205 266/267/231 237/222/206
f 728/180/589 731/225/591 727/268/588
f 238/224/207 266/267/231 267/269/232
f 346/57/298 665/198/316 366/36/316
f 238/224/207 268/270/233 239/227/208
f 724/182/586 719/192/582 720/271/583
f 239/227/208 269/272/234 240/230/209
f 691/208/562 688/260/560 692/273/563
f 240/230/209 270/274/235 241/231/210
f 342/31/295 664/238/169 663/188/295
f 242/235/211 270/274/235 271/244/236
f 712/240/577 715/193/579 711/275/576
f 639/39/528 661/177/243 640/266/528
f 268/270/233 298/276/259 269/272/234
f 704/262/571 707/53/573 703/277/570
f 270/274/235 298/276/259 299/278/260
f 26/279/22 22/247/19 27/185/23
f 270/274/235 300/280/261 271/244/236
f 637/57/527 662/198/224 258/36/224
f 272/245/237 300/280/261 301/281/262
f 5/264/5 12/233/11 10/282/9
f 272/245/237 302/283/263 273/249/238
f 221/284/193 201/228/174 314/16/1
f 273/285/238 303/286/264 274/287/239
f 338/78/292 634/288/525 671/75/525
f 275/289/240 303/286/264 304/290/265
f 581/93/486 583/236/485 582/291/486
f 275/289/240 305/292/266 276/293/241
f 263/258/228 1/16/1 292/294/253
f 672/72/524 634/288/525 633/291/524
f 263/258/228 293/295/254 264/261/229
f 670/31/523 667/238/546 632/188/523
f 264/261/229 294/296/255 265/265/230
f 631/41/522 667/238/546 669/59/546
f 265/265/230 295/297/256 266/267/231
f 87/298/75 146/299/126 145/300/125
f 267/269/232 295/297/256 296/301/257
f 605/139/504 306/243/249 641/302/504
f 267/269/232 297/303/258 268/270/233
f 293/295/254 323/304/278 294/296/255
f 257/305/223 253/306/220 314/16/1
f 294/296/255 324/307/279 295/297/256
f 609/31/506 610/238/505 606/43/505
f 296/301/257 324/307/279 325/308/280
f 528/309/444 587/310/488 586/311/487
f 296/301/257 326/312/281 297/303/258
f 608/30/218 611/188/506 609/31/506
f 297/303/258 327/313/282 298/276/259
f 253/306/220 249/314/217 314/16/1
f 298/276/259 328/315/283 299/278/260
f 377/316/323 320/317/275 378/318/324
f 300/280/261 328/315/283 329/319/284
f 87/298/75 30/234/25 88/320/76
f 301/281/262 329/319/284 330/321/285
f 631/41/522 693/238/526 668/322/522
f 301/281/262 331/323/286 302/283/263
f 203/252/176 146/299/126 204/324/177
f 303/286/264 331/325/286 332/326/287
f 604/30/503 190/188/166 635/31/166
f 304/290/265 332/326/287 333/327/288
f 261/253/226 320/317/275 319/328/274
f 304/290/265 334/329/289 305/292/266
f 292/294/253 1/16/1 321/330/276
f 578/39/483 612/177/484 579/35/484
f 292/294/253 322/331/277 293/295/254
f 412/332/356 471/333/401 470/334/400
f 332/326/287 362/335/313 333/327/288
f 578/41/483 610/238/505 613/322/483
f 334/329/289 362/335/313 363/336/314
f 321/330/276 1/16/1 350/337/301
f 746/30/602 740/34/598 742/36/599
f 604/30/503 603/198/466 602/189/503
f 321/330/276 351/338/302 322/331/277
f 584/69/465 553/175/464 585/65/464
f 322/331/277 352/339/303 323/304/278
f 577/72/463 554/236/465 584/69/465
f 323/304/278 353/340/304 324/307/279
f 53/341/46 74/342/65 57/343/49
f 325/308/280 353/340/304 354/344/305
f 197/229/171 193/345/168 314/16/1
f 326/312/281 354/344/305 355/346/306
f 548/78/461 575/288/462 549/75/462
f 326/312/281 356/347/307 327/313/282
f 81/348/70 78/349/68 82/350/71
f 327/313/282 357/351/308 328/315/283
f 573/132/482 222/212/194 574/352/482
f 329/319/284 357/351/308 358/353/309
f 555/36/466 612/177/484 603/198/466
f 330/321/285 358/353/309 359/354/310
f 412/332/356 378/318/324 413/355/357
f 330/321/285 360/356/311 331/323/286
f 581/93/486 547/288/460 546/94/460
f 331/325/286 361/357/312 332/326/287
f 697/210/565 16/358/15 702/246/569
f 109/359/95 114/98/99 113/360/98
f 359/354/310 387/361/333 388/362/334
f 193/345/168 173/363/150 314/16/1
f 359/354/310 389/364/335 360/356/311
f 527/132/422 522/365/441 498/352/422
f 361/357/312 389/366/335 390/367/336
f 49/200/43 54/368/47 53/341/46
f 361/357/312 391/205/337 362/335/313
f 249/314/217 229/369/199 314/16/1
f 362/335/313 392/206/338 363/336/314
f 350/337/301 1/16/1 379/370/325
f 740/34/598 738/35/596 742/36/599
f 528/309/444 471/333/401 529/371/445
f 350/337/301 380/372/326 351/338/302
f 672/72/524 694/236/172 198/69/172
f 352/339/303 380/372/326 381/373/327
f 586/311/487 743/204/600 744/374/601
f 352/339/303 382/375/328 353/340/304
f 523/93/442 550/288/443 524/94/443
f 354/344/305 382/375/328 383/376/329
f 137/377/119 134/378/117 138/379/120
f 354/344/305 384/380/330 355/346/306
f 105/381/92 86/382/74 106/383/93
f 355/346/306 385/384/331 356/347/307
f 229/369/199 225/385/196 314/16/1
f 356/347/307 386/386/332 357/351/308
f 515/110/438 544/195/439 516/107/439
f 357/351/308 387/361/333 358/353/309
f 521/81/440 520/223/421 519/195/440
f 384/380/330 401/387/346 385/384/331
f 385/384/331 402/388/347 386/386/332
f 387/361/333 402/388/347 403/389/348
f 517/110/420 493/195/419 518/107/419
f 388/362/334 403/389/348 404/390/349
f 434/129/376 463/212/377 435/144/377
f 388/362/334 405/391/350 389/364/335
f 390/367/336 405/392/350 406/242/351
f 390/367/336 407/393/352 391/205/337
f 173/363/150 698/394/566 314/16/1
f 391/205/337 408/395/353 392/206/338
f 379/370/325 1/16/1 395/396/340
f 736/38/595 734/39/593 738/35/596
f 577/72/463 575/288/462 552/291/463
f 379/370/325 396/397/341 380/372/326
f 57/343/49 78/349/68 77/398/67
f 381/373/327 396/397/341 397/399/342
f 526/136/441 641/302/504 522/365/441
f 381/373/327 398/400/343 382/375/328
f 548/78/461 519/195/440 576/196/461
f 383/376/329 398/400/343 399/401/344
f 85/402/73 82/350/71 86/382/74
f 384/380/330 399/401/344 400/403/345
f 397/399/342 415/404/359 416/405/360
f 373/406/321 369/407/318 314/16/1
f 397/399/342 417/408/361 398/400/343
f 399/401/344 417/408/361 418/409/362
f 169/410/147 645/256/531 644/411/530
f 399/401/344 419/412/363 400/403/345
f 434/154/376 410/243/354 464/413/376
f 400/403/345 420/414/364 401/387/346
f 401/387/346 421/415/365 402/388/347
f 527/132/422 230/212/200 459/128/200
f 402/388/347 422/416/366 403/389/348
f 369/407/318 365/417/315 314/16/1
f 404/390/349 422/416/366 423/418/367
f 404/390/349 424/419/368 405/391/350
f 161/420/141 166/421/145 165/422/144
f 406/242/351 424/250/368 425/251/369
f 365/417/315 345/423/297 314/16/1
f 406/242/351 426/424/370 407/393/352
f 407/393/352 427/425/371 408/395/353
f 395/396/340 1/16/1 414/426/358
f 734/39/593 728/38/589 730/178/590
f 395/396/340 415/404/359 396/397/341
f 282/129/246 468/212/398 310/220/246
f 426/427/370 454/428/392 455/429/393
f 427/430/371 455/429/393 456/431/394
f 414/426/358 1/16/1 443/432/381
f 728/38/589 726/36/587 730/178/590
f 518/107/419 492/223/418 496/84/418
f 414/426/358 444/433/382 415/404/359
f 437/132/373 463/212/377 431/352/373
f 415/404/359 445/434/383 416/405/360
f 416/405/360 446/435/384 417/408/361
f 439/142/379 574/352/482 440/365/379
f 418/409/362 446/435/384 447/436/385
f 341/437/294 337/438/291 314/16/1
f 418/409/362 448/439/386 419/412/363
f 419/412/363 449/440/387 420/414/364
f 420/414/364 450/441/388 421/415/365
f 421/415/365 451/442/389 422/416/366
f 423/418/367 451/442/389 452/443/390
f 423/418/367 453/444/391 424/419/368
f 424/445/368 454/428/392 425/446/369
f 465/132/378 468/212/398 466/128/398
f 452/443/390 480/447/410 481/448/411
f 452/443/390 482/449/412 453/444/391
f 517/110/420 547/288/460 494/196/420
f 453/450/391 483/451/413 454/428/392
f 469/139/399 457/243/395 488/302/399
f 454/428/392 484/452/414 455/429/393
f 455/429/393 485/453/415 456/431/394
f 443/432/381 1/16/1 472/454/402
f 724/34/586 722/57/584 726/36/587
f 443/432/381 473/455/403 444/433/382
f 165/422/144 170/456/148 169/410/147
f 444/433/382 474/457/404 445/434/383
f 285/458/248 281/459/245 314/16/1
f 445/434/383 475/460/405 446/435/384
f 447/436/385 475/460/405 476/461/406
f 447/436/385 477/462/407 448/439/386
f 113/360/98 134/378/117 133/463/116
f 448/439/386 478/464/408 449/440/387
f 449/440/387 479/465/409 450/441/388
f 277/466/242 257/305/223 314/16/1
f 450/441/388 480/447/410 451/442/389
f 476/461/406 506/467/429 477/462/407
f 477/462/407 507/468/430 478/464/408
f 479/465/409 507/468/430 508/469/431
f 479/465/409 509/470/432 480/447/410
f 141/471/122 138/379/120 142/472/123
f 481/448/411 509/470/432 510/473/433
f 481/448/411 511/474/434 482/449/412
f 482/475/412 512/476/435 483/451/413
f 483/451/413 513/477/436 484/452/414
f 460/139/375 430/365/372 433/302/375
f 484/452/414 514/478/437 485/453/415
f 472/454/402 1/16/1 501/479/424
f 722/57/584 716/29/580 718/31/581
f 472/454/402 502/480/425 473/455/403
f 523/93/442 491/236/417 551/291/442
f 473/455/403 503/481/426 474/457/404
f 474/457/404 504/482/427 475/460/405
f 317/483/272 313/484/270 314/16/1
f 476/461/406 504/482/427 505/485/428
f 489/154/396 457/243/395 490/152/395
f 503/481/426 531/486/447 532/487/448
f 515/110/438 550/288/443 545/196/438
f 503/481/426 533/488/449 504/482/427
f 505/485/428 533/488/449 534/489/450
f 505/485/428 535/490/451 506/467/429
f 506/467/429 536/491/452 507/468/430
f 508/469/431 536/491/452 537/492/453
f 508/469/431 538/493/454 509/470/432
f 225/385/196 221/284/193 314/16/1
f 510/473/433 538/493/454 539/494/455
f 510/473/433 540/495/456 511/474/434
f 429/139/355 410/243/354 428/159/354
f 512/476/435 540/496/456 541/497/457
f 465/132/378 487/365/416 436/352/378
f 512/476/435 542/13/458 513/477/436
f 513/477/436 543/498/459 514/478/437
f 501/479/424 1/16/1 530/499/446
f 716/29/580 714/59/578 718/31/581
f 501/479/424 531/486/447 502/480/425
f 542/13/458 570/500/479 571/501/480
f 542/13/458 572/292/481 543/498/459
f 530/499/446 1/16/1 559/502/468
f 712/42/577 710/41/575 714/59/578
f 161/420/141 142/472/123 162/503/142
f 530/499/446 560/504/469 531/486/447
f 532/487/448 560/504/469 561/505/470
f 532/487/448 562/506/471 533/488/449
f 534/489/450 562/506/471 563/507/472
f 281/459/245 277/466/242 314/16/1
f 535/490/451 563/507/472 564/508/473
f 535/490/451 565/509/474 536/491/452
f 536/491/452 566/510/475 537/492/453
f 537/492/453 567/511/476 538/493/454
f 539/494/455 567/511/476 568/512/477
f 337/438/291 317/483/272 314/16/1
f 539/494/455 569/513/478 540/495/456
f 540/496/456 570/500/479 541/497/457
f 568/512/477 596/514/497 597/515/498
f 568/512/477 598/516/499 569/513/478
f 570/500/479 598/517/499 599/287/500
f 489/154/396 432/243/374 458/413/396
f 571/501/480 599/287/500 600/289/501
f 345/423/297 341/437/294 314/16/1
f 571/501/480 601/518/502 572/292/481
f 559/502/468 1/16/1 588/519/489
f 710/39/575 704/38/571 706/178/572
f 429/139/355 440/365/379 411/302/355
f 559/502/468 589/520/490 560/504/469
f 561/505/470 589/520/490 590/521/491
f 289/522/251 285/458/248 314/16/1
f 562/506/471 590/521/491 591/523/492
f 105/381/92 110/524/96 109/359/95
f 563/507/472 591/523/492 592/525/493
f 563/507/472 593/526/494 564/508/473
f 564/508/473 594/527/495 565/509/474
f 565/509/474 595/528/496 566/510/475
f 566/510/475 596/514/497 567/511/476
f 592/525/493 622/529/513 593/526/494
f 313/484/270 309/530/268 314/16/1
f 593/526/494 623/531/514 594/527/495
f 594/527/495 624/532/515 595/528/496
f 596/514/497 624/532/515 625/533/516
f 597/515/498 625/533/516 626/534/517
f 597/515/498 627/535/518 598/516/499
f 460/139/375 432/243/374 461/159/374
f 599/446/500 627/536/518 628/537/519
f 599/446/500 629/538/520 600/539/501
f 600/539/501 630/540/521 601/541/502
f 588/519/489 1/16/1 617/542/508
f 704/38/571 2/36/2 706/178/572
f 588/519/489 618/543/509 589/520/490
f 497/66/417 492/175/418 491/236/417
f 589/520/490 619/544/510 590/521/491
f 590/521/491 620/545/511 591/523/492
f 592/525/493 620/545/511 621/546/512
f 698/394/566 373/406/321 314/16/1
f 618/543/509 648/547/534 619/544/510
f 619/544/510 649/548/535 620/545/511
f 486/136/416 488/302/399 487/365/416
f 621/546/512 649/548/535 650/549/536
f 516/107/439 520/223/421 495/84/421
f 621/546/512 651/550/537 622/529/513
f 622/529/513 652/551/538 623/531/514
f 623/531/514 653/552/539 624/532/515
f 625/533/516 653/552/539 654/553/540
f 626/534/517 654/553/540 655/554/541
f 626/534/517 656/555/542 627/535/518
f 628/537/519 656/556/542 657/557/543
f 628/537/519 658/558/544 629/538/520
f 309/530/268 289/522/251 314/16/1
f 629/538/520 659/453/545 630/540/521
f 617/542/508 1/16/1 646/559/532
f 5/34/5 8/57/8 2/36/2
f 617/542/508 647/560/533 618/543/509
f 658/558/544 13/12/12 14/14/13
f 658/558/544 15/16/14 659/453/545
f 646/559/532 1/16/1 675/17/548
f 646/559/532 3/19/3 647/560/533
f 647/560/533 677/22/550 648/547/534
f 648/547/534 678/23/551 649/548/535
f 650/549/536 678/23/551 679/25/552
f 650/549/536 7/28/7 651/550/537
f 438/142/372 431/352/373 430/365/372
f 652/551/538 7/28/7 681/32/554
f 652/551/538 682/1/555 653/552/539
f 653/552/539 683/4/556 654/553/540
f 655/554/541 683/4/556 11/6/10
f 655/554/541 685/8/558 656/555/542
f 657/557/543 685/10/558 13/12/12
f 682/1/555 681/32/554 37/2/32
f 683/4/556 682/1/555 38/3/33
f 11/6/10 683/4/556 39/5/34
f 685/8/558 11/6/10 40/7/35
f 685/10/558 41/49/36 42/11/37
f 13/12/12 42/11/37 43/13/38
f 14/14/13 43/13/38 44/15/39
f 3/19/3 675/17/548 31/18/26
f 3/19/3 32/20/27 33/21/28
f 678/23/551 677/22/550 33/21/28
f 679/25/552 678/23/551 34/24/29
f 679/25/552 35/26/30 36/27/31
f 261/29/226 319/561/274 290/30/252
f 681/32/554 7/28/7 36/27/31
f 36/27/31 65/63/56 66/33/57
f 377/34/323 412/38/356 393/35/339
f 37/2/32 66/33/57 67/37/58
f 412/38/356 470/562/400 441/39/380
f 39/5/34 38/3/33 67/37/58
f 441/41/380 470/563/400 528/42/444
f 39/5/34 68/40/59 69/44/60
f 500/47/4 558/564/4 745/565/4
f 745/565/4 741/566/4 737/567/4
f 737/567/4 733/568/4 729/569/4
f 729/569/4 725/570/4 721/45/4
f 721/45/4 717/571/4 713/572/4
f 713/572/4 709/573/4 705/574/4
f 705/574/4 4/575/4 9/576/4
f 9/576/4 21/577/4 59/46/4
f 59/46/4 117/578/4 175/579/4
f 175/579/4 233/580/4 291/581/4
f 291/581/4 349/582/4 394/583/4
f 394/583/4 442/584/4 500/47/4
f 500/47/4 745/565/4 737/567/4
f 737/567/4 729/569/4 721/45/4
f 721/45/4 713/572/4 705/574/4
f 705/574/4 9/576/4 59/46/4
f 59/46/4 175/579/4 291/581/4
f 291/581/4 394/583/4 500/47/4
f 500/47/4 737/567/4 721/45/4
f 721/45/4 705/574/4 59/46/4
f 59/46/4 291/581/4 500/47/4
f 40/7/35 69/44/60 70/48/61
f 586/29/487 744/561/601 746/30/602
f 41/49/36 70/585/61 71/50/62
f 528/42/444 586/29/487 557/31/467
f 42/11/37 71/50/62 72/51/63
f 739/54/597 743/204/600 587/310/488
f 587/310/488 529/371/445 471/333/401
f 471/333/401 413/355/357 378/318/324
f 378/318/324 320/317/275 262/52/227
f 262/52/227 204/324/177 146/299/126
f 146/299/126 88/320/76 30/234/25
f 30/234/25 12/233/11 6/263/6
f 6/263/6 703/277/570 707/53/573
f 707/53/573 711/275/576 715/193/579
f 715/193/579 719/192/582 723/181/585
f 723/181/585 727/268/588 731/225/591
f 731/225/591 735/218/594 739/54/597
f 739/54/597 587/310/488 471/333/401
f 471/333/401 378/318/324 262/52/227
f 262/52/227 146/299/126 30/234/25
f 30/234/25 6/263/6 707/53/573
f 707/53/573 715/193/579 723/181/585
f 723/181/585 731/225/591 739/54/597
f 739/54/597 471/333/401 262/52/227
f 262/52/227 30/234/25 707/53/573
f 707/53/573 723/181/585 739/54/597
f 44/15/39 43/13/38 72/51/63
f 8/57/8 10/586/9 25/29/21
f 31/18/26 60/56/51 61/58/52
f 25/29/21 87/42/75 58/59/50
f 32/20/27 61/58/52 62/60/53
f 87/42/75 145/563/125 116/41/101
f 33/21/28 62/60/53 63/61/54
f 116/41/101 145/563/125 203/42/176
f 35/26/30 34/24/29 63/61/54
f 203/42/176 261/29/226 232/31/202
f 35/26/30 64/62/55 65/63/56
f 290/30/252 319/561/274 377/34/323
f 687/64/559 691/68/562 689/65/561
f 62/60/53 91/97/79 92/67/80
f 691/68/562 697/71/565 695/69/564
f 63/61/54 92/67/80 93/70/81
f 697/71/565 702/74/569 700/72/568
f 64/62/55 93/70/81 94/73/82
f 702/74/569 19/77/17 17/75/16
f 65/63/56 94/73/82 95/76/83
f 19/77/17 26/80/22 23/78/20
f 67/37/58 66/33/57 95/76/83
f 26/80/22 45/83/40 28/81/24
f 68/40/59 67/37/58 96/79/84
f 45/83/40 49/106/43 47/84/42
f 68/40/59 97/82/85 98/85/86
f 49/68/43 53/71/46 51/69/45
f 69/44/60 98/85/86 99/86/87
f 53/71/46 57/74/49 55/72/48
f 71/50/62 70/585/61 99/87/87
f 57/74/49 77/77/67 75/75/66
f 71/50/62 100/88/88 101/89/89
f 77/77/67 81/80/70 79/78/69
f 72/51/63 101/89/89 102/90/90
f 644/92/530 676/96/549 673/93/547
f 61/58/52 60/56/51 89/91/77
f 676/96/549 687/64/559 684/66/557
f 62/60/53 61/58/52 90/95/78
f 680/100/553 645/256/531 170/456/148
f 170/456/148 166/421/145 162/503/142
f 162/503/142 142/472/123 138/379/120
f 138/379/120 134/378/117 114/98/99
f 114/98/99 110/524/96 106/383/93
f 106/383/93 86/382/74 82/350/71
f 82/350/71 78/349/68 74/342/65
f 74/342/65 54/368/47 50/99/44
f 50/99/44 46/186/41 27/185/23
f 27/185/23 22/247/19 16/358/15
f 16/358/15 699/209/567 692/273/563
f 692/273/563 688/260/560 680/100/553
f 680/100/553 170/456/148 162/503/142
f 162/503/142 138/379/120 114/98/99
f 114/98/99 106/383/93 82/350/71
f 82/350/71 74/342/65 50/99/44
f 50/99/44 27/185/23 16/358/15
f 16/358/15 692/273/563 680/100/553
f 680/100/553 162/503/142 114/98/99
f 114/98/99 82/350/71 50/99/44
f 50/99/44 16/358/15 680/100/553
f 102/90/90 101/124/89 130/101/114
f 81/80/70 85/83/73 83/81/72
f 89/91/77 118/103/102 119/104/103
f 85/83/73 105/106/92 103/84/91
f 90/95/78 119/104/103 120/105/104
f 105/106/92 109/109/95 107/107/94
f 91/97/79 120/105/104 121/108/105
f 109/109/95 113/112/98 111/110/97
f 93/70/81 92/67/80 121/108/105
f 113/112/98 133/92/116 115/94/100
f 93/70/81 122/111/106 123/113/107
f 133/92/116 137/96/119 135/93/118
f 94/73/82 123/113/107 124/114/108
f 137/96/119 141/64/122 139/66/121
f 96/79/84 95/76/83 124/114/108
f 141/64/122 161/68/141 143/65/124
f 96/79/84 125/115/109 126/116/110
f 161/106/141 165/109/144 163/107/143
f 97/82/85 126/116/110 127/117/111
f 144/120/4 164/587/4 168/588/4
f 168/588/4 616/589/4 674/590/4
f 674/590/4 686/591/4 690/592/4
f 690/592/4 696/593/4 701/118/4
f 701/118/4 18/594/4 24/595/4
f 24/595/4 29/596/4 48/597/4
f 48/597/4 52/598/4 56/599/4
f 56/599/4 76/600/4 80/119/4
f 80/119/4 84/601/4 104/602/4
f 104/602/4 108/603/4 112/604/4
f 112/604/4 132/605/4 136/606/4
f 136/606/4 140/607/4 144/120/4
f 144/120/4 168/588/4 674/590/4
f 674/590/4 690/592/4 701/118/4
f 701/118/4 24/595/4 48/597/4
f 48/597/4 56/599/4 80/119/4
f 80/119/4 104/602/4 112/604/4
f 112/604/4 136/606/4 144/120/4
f 144/120/4 674/590/4 701/118/4
f 701/118/4 48/597/4 80/119/4
f 80/119/4 112/604/4 144/120/4
f 98/85/86 127/117/111 128/121/112
f 169/112/147 644/92/530 615/94/507
f 99/87/87 128/608/112 129/122/113
f 165/109/144 169/112/147 167/110/146
f 101/124/89 100/123/88 129/122/113
f 127/117/111 126/116/110 155/125/135
f 257/127/223 277/131/242 259/128/225
f 127/117/111 156/126/136 157/130/137
f 277/131/242 281/135/245 279/132/244
f 129/122/113 128/608/112 157/133/137
f 281/135/245 285/138/248 283/136/247
f 129/122/113 158/134/138 159/137/139
f 285/138/248 289/151/251 287/139/250
f 131/102/115 130/101/114 159/137/139
f 173/138/150 193/135/168 191/132/167
f 118/103/102 147/141/127 148/143/128
f 193/135/168 197/131/171 195/144/170
f 119/104/103 148/143/128 149/145/129
f 197/131/171 201/127/174 199/129/173
f 120/105/104 149/145/129 150/146/130
f 201/127/174 221/131/193 219/128/192
f 122/111/106 121/108/105 150/146/130
f 221/131/193 225/135/196 223/132/195
f 122/111/106 151/147/131 152/148/132
f 225/135/196 229/138/199 227/136/198
f 123/113/107 152/148/132 153/149/133
f 229/138/199 249/151/217 231/139/201
f 125/115/109 124/114/108 153/149/133
f 249/151/217 253/153/220 251/152/219
f 125/115/109 154/150/134 155/125/135
f 253/153/220 257/158/223 255/154/222
f 341/138/294 345/135/297 343/132/296
f 152/148/132 181/174/157 182/155/158
f 345/135/297 365/131/315 347/144/299
f 154/150/134 153/149/133 182/155/158
f 365/131/315 369/127/318 367/129/317
f 154/150/134 183/156/159 184/157/160
f 369/158/318 373/153/321 371/159/320
f 155/125/135 184/157/160 185/160/161
f 372/163/4 376/609/4 172/610/4
f 172/610/4 192/611/4 196/612/4
f 196/612/4 200/613/4 220/614/4
f 220/614/4 224/615/4 228/161/4
f 228/161/4 248/616/4 252/617/4
f 252/617/4 256/618/4 260/619/4
f 260/619/4 280/620/4 284/621/4
f 284/621/4 288/622/4 308/162/4
f 308/162/4 312/623/4 316/624/4
f 316/624/4 336/625/4 340/626/4
f 340/626/4 344/627/4 364/628/4
f 364/628/4 368/629/4 372/163/4
f 372/163/4 172/610/4 196/612/4
f 196/612/4 220/614/4 228/161/4
f 228/161/4 252/617/4 260/619/4
f 260/619/4 284/621/4 308/162/4
f 308/162/4 316/624/4 340/626/4
f 340/626/4 364/628/4 372/163/4
f 372/163/4 196/612/4 228/161/4
f 228/161/4 260/619/4 308/162/4
f 308/162/4 340/626/4 372/163/4
f 156/126/136 185/160/161 186/164/162
f 698/151/566 173/138/150 171/142/149
f 158/134/138 157/133/137 186/165/162
f 373/153/321 698/151/566 375/139/322
f 158/134/138 187/166/163 188/167/164
f 159/137/139 188/167/164 189/168/165
f 289/151/251 309/153/268 307/152/267
f 148/143/128 147/141/127 176/169/152
f 309/153/268 313/158/270 311/154/269
f 148/143/128 177/170/153 178/171/154
f 313/158/270 317/153/272 315/159/271
f 149/145/129 178/171/154 179/172/155
f 317/153/272 337/151/291 335/139/290
f 151/147/131 150/146/130 179/172/155
f 337/151/291 341/138/294 339/142/293
f 151/147/131 180/173/156 181/174/157
f 198/69/172 694/236/172 374/175/175
f 178/171/154 207/213/180 208/176/181
f 366/36/316 665/198/316 660/177/319
f 180/173/156 179/172/155 208/176/181
f 728/180/589 727/268/588 723/181/585
f 180/173/156 209/179/182 210/183/183
f 45/184/40 26/279/22 27/185/23
f 181/174/157 210/183/183 211/187/184
f 346/57/298 342/31/295 663/188/295
f 182/155/158 211/187/184 212/190/185
f 716/191/580 720/271/583 719/192/582
f 183/156/159 212/190/185 213/194/186
f 338/78/292 318/81/273 525/195/273
f 184/157/160 213/194/186 214/197/187
f 608/30/218 607/36/221 254/198/221
f 185/160/161 214/197/187 215/199/188
f 49/200/43 45/184/40 46/186/41
f 187/166/163 186/165/162 215/201/188
f 740/203/598 744/374/601 743/204/600
f 187/166/163 216/202/189 217/205/190
f 607/36/221 467/35/397 462/177/397
f 188/167/164 217/205/190 218/206/191
f 691/208/562 692/273/563 699/209/567
f 176/169/152 205/207/178 206/211/179
f 409/129/197 226/220/197 222/212/194
f 178/171/154 177/170/153 206/211/179
f 258/36/224 662/198/224 661/177/243
f 218/206/191 217/205/190 246/214/215
f 736/217/595 740/203/598 739/54/597
f 205/207/178 234/216/203 235/219/204
f 409/129/197 459/128/200 230/212/200
f 207/213/180 206/211/179 235/219/204
f 642/39/529 643/266/529 462/177/397
f 207/213/180 236/221/205 237/222/206
f 318/81/273 585/84/464 553/223/464
f 209/179/182 208/176/181 237/222/206
f 736/217/595 735/218/594 731/225/591
f 209/179/182 238/224/207 239/227/208
f 210/183/183 239/227/208 240/230/209
f 637/57/527 670/31/523 632/188/523
f 211/187/184 240/230/209 241/231/210
f 25/232/21 10/282/9 12/233/11
f 213/194/186 212/190/185 241/231/210
f 580/66/485 202/65/175 374/175/175
f 213/194/186 242/235/211 243/237/212
f 639/41/528 640/322/528 664/238/169
f 214/197/187 243/237/212 244/239/213
f 712/240/577 711/275/576 707/53/573
f 215/201/188 244/392/213 245/242/214
f 282/154/246 310/413/246 306/243/249
f 216/202/189 245/242/214 246/214/215
f 243/237/212 242/235/211 271/244/236
f 702/246/569 16/358/15 22/247/19
f 243/237/212 272/245/237 273/249/238
f 635/31/166 190/188/166 693/238/526
f 245/242/214 244/392/213 273/250/238
f 203/252/176 204/324/177 262/52/227
f 245/242/214 274/251/239 275/254/240
f 676/255/549 644/411/530 645/256/531
f 247/215/216 246/214/215 275/254/240
f 687/259/559 676/255/549 680/100/553
f 234/216/203 263/258/228 264/261/229
f 704/262/571 703/277/570 6/263/6
f 236/221/205 235/219/204 264/261/229
f 642/39/529 370/178/319 660/177/319
f 236/221/205 265/265/230 266/267/231
f 728/180/589 732/226/592 731/225/591
f 238/224/207 237/222/206 266/267/231
f 346/57/298 666/189/298 665/198/316
f 238/224/207 267/269/232 268/270/233
f 724/182/586 723/181/585 719/192/582
f 239/227/208 268/270/233 269/272/234
f 691/208/562 687/259/559 688/260/560
f 240/230/209 269/272/234 270/274/235
f 342/31/295 194/59/169 664/238/169
f 242/235/211 241/231/210 270/274/235
f 712/240/577 716/191/580 715/193/579
f 639/39/528 278/178/243 661/177/243
f 268/270/233 297/303/258 298/276/259
f 704/262/571 708/241/574 707/53/573
f 270/274/235 269/272/234 298/276/259
f 26/279/22 19/248/17 22/247/19
f 270/274/235 299/278/260 300/280/261
f 637/57/527 638/189/527 662/198/224
f 272/245/237 271/244/236 300/280/261
f 5/264/5 6/263/6 12/233/11
f 272/245/237 301/281/262 302/283/263
f 273/285/238 302/630/263 303/286/264
f 338/78/292 614/196/292 634/288/525
f 275/289/240 274/287/239 303/286/264
f 581/93/486 580/66/485 583/236/485
f 275/289/240 304/290/265 305/292/266
f 672/72/524 671/75/525 634/288/525
f 263/258/228 292/294/253 293/295/254
f 670/31/523 669/59/546 667/238/546
f 264/261/229 293/295/254 294/296/255
f 631/41/522 668/322/522 667/238/546
f 265/265/230 294/296/255 295/297/256
f 87/298/75 88/320/76 146/299/126
f 267/269/232 266/267/231 295/297/256
f 605/139/504 286/152/249 306/243/249
f 267/269/232 296/301/257 297/303/258
f 293/295/254 322/331/277 323/304/278
f 294/296/255 323/304/278 324/307/279
f 609/31/506 611/188/506 610/238/505
f 296/301/257 295/297/256 324/307/279
f 528/309/444 529/371/445 587/310/488
f 296/301/257 325/308/280 326/312/281
f 608/30/218 250/189/218 611/188/506
f 297/303/258 326/312/281 327/313/282
f 298/276/259 327/313/282 328/315/283
f 377/316/323 319/328/274 320/317/275
f 300/280/261 299/278/260 328/315/283
f 87/298/75 25/232/21 30/234/25
f 301/281/262 300/280/261 329/319/284
f 631/41/522 636/43/526 693/238/526
f 301/281/262 330/321/285 331/323/286
f 203/252/176 145/300/125 146/299/126
f 303/286/264 302/630/263 331/325/286
f 604/30/503 602/189/503 190/188/166
f 304/290/265 303/286/264 332/326/287
f 261/253/226 262/52/227 320/317/275
f 304/290/265 333/327/288 334/329/289
f 578/39/483 613/266/483 612/177/484
f 292/294/253 321/330/276 322/331/277
f 412/332/356 413/355/357 471/333/401
f 332/326/287 361/357/312 362/335/313
f 578/41/483 606/43/505 610/238/505
f 334/329/289 333/327/288 362/335/313
f 746/30/602 744/561/601 740/34/598
f 604/30/503 555/36/466 603/198/466
f 321/330/276 350/337/301 351/338/302
f 584/69/465 554/236/465 553/175/464
f 322/331/277 351/338/302 352/339/303
f 577/72/463 552/291/463 554/236/465
f 323/304/278 352/339/303 353/340/304
f 53/341/46 54/368/47 74/342/65
f 325/308/280 324/307/279 353/340/304
f 326/312/281 325/308/280 354/344/305
f 548/78/461 576/196/461 575/288/462
f 326/312/281 355/346/306 356/347/307
f 81/348/70 77/398/67 78/349/68
f 327/313/282 356/347/307 357/351/308
f 573/132/482 556/144/194 222/212/194
f 329/319/284 328/315/283 357/351/308
f 555/36/466 579/35/484 612/177/484
f 330/321/285 329/319/284 358/353/309
f 412/332/356 377/316/323 378/318/324
f 330/321/285 359/354/310 360/356/311
f 581/93/486 582/291/486 547/288/460
f 331/325/286 360/631/311 361/357/312
f 697/210/565 699/209/567 16/358/15
f 109/359/95 110/524/96 114/98/99
f 359/354/310 358/353/309 387/361/333
f 359/354/310 388/362/334 389/364/335
f 527/132/422 526/136/441 522/365/441
f 361/357/312 360/631/311 389/366/335
f 49/200/43 50/99/44 54/368/47
f 361/357/312 390/367/336 391/205/337
f 362/335/313 391/205/337 392/206/338
f 740/34/598 736/38/595 738/35/596
f 528/309/444 470/334/400 471/333/401
f 350/337/301 379/370/325 380/372/326
f 672/72/524 633/291/524 694/236/172
f 352/339/303 351/338/302 380/372/326
f 586/311/487 587/310/488 743/204/600
f 352/339/303 381/373/327 382/375/328
f 523/93/442 551/291/442 550/288/443
f 354/344/305 353/340/304 382/375/328
f 137/377/119 133/463/116 134/378/117
f 354/344/305 383/376/329 384/380/330
f 105/381/92 85/402/73 86/382/74
f 355/346/306 384/380/330 385/384/331
f 356/347/307 385/384/331 386/386/332
f 515/110/438 545/196/438 544/195/439
f 357/351/308 386/386/332 387/361/333
f 521/81/440 495/84/421 520/223/421
f 384/380/330 400/403/345 401/387/346
f 385/384/331 401/387/346 402/388/347
f 387/361/333 386/386/332 402/388/347
f 517/110/420 494/196/420 493/195/419
f 388/362/334 387/361/333 403/389/348
f 434/129/376 464/220/376 463/212/377
f 388/362/334 404/390/349 405/391/350
f 390/367/336 389/366/335 405/392/350
f 390/367/336 406/242/351 407/393/352
f 391/205/337 407/393/352 408/395/353
f 736/38/595 732/562/592 734/39/593
f 577/72/463 549/75/462 575/288/462
f 379/370/325 395/396/340 396/397/341
f 57/343/49 74/342/65 78/349/68
f 381/373/327 380/372/326 396/397/341
f 526/136/441 605/139/504 641/302/504
f 381/373/327 397/399/342 398/400/343
f 548/78/461 521/81/440 519/195/440
f 383/376/329 382/375/328 398/400/343
f 85/402/73 81/348/70 82/350/71
f 384/380/330 383/376/329 399/401/344
f 397/399/342 396/397/341 415/404/359
f 397/399/342 416/405/360 417/408/361
f 399/401/344 398/400/343 417/408/361
f 169/410/147 170/456/148 645/256/531
f 399/401/344 418/409/362 419/412/363
f 434/154/376 428/159/354 410/243/354
f 400/403/345 419/412/363 420/414/364
f 401/387/346 420/414/364 421/415/365
f 527/132/422 498/352/422 230/212/200
f 402/388/347 421/415/365 422/416/366
f 404/390/349 403/389/348 422/416/366
f 404/390/349 423/418/367 424/419/368
f 161/420/141 162/503/142 166/421/145
f 406/242/351 405/392/350 424/250/368
f 406/242/351 425/251/369 426/424/370
f 407/393/352 426/424/370 427/425/371
f 734/39/593 732/562/592 728/38/589
f 395/396/340 414/426/358 415/404/359
f 282/129/246 466/128/398 468/212/398
f 426/427/370 425/446/369 454/428/392
f 427/430/371 426/427/370 455/429/393
f 728/38/589 724/34/586 726/36/587
f 518/107/419 493/195/419 492/223/418
f 414/426/358 443/432/381 444/433/382
f 437/132/373 435/144/377 463/212/377
f 415/404/359 444/433/382 445/434/383
f 416/405/360 445/434/383 446/435/384
f 439/142/379 573/132/482 574/352/482
f 418/409/362 417/408/361 446/435/384
f 418/409/362 447/436/385 448/439/386
f 419/412/363 448/439/386 449/440/387
f 420/414/364 449/440/387 450/441/388
f 421/415/365 450/441/388 451/442/389
f 423/418/367 422/416/366 451/442/389
f 423/418/367 452/443/390 453/444/391
f 424/445/368 453/450/391 454/428/392
f 465/132/378 436/352/378 468/212/398
f 452/443/390 451/442/389 480/447/410
f 452/443/390 481/448/411 482/449/412
f 517/110/420 546/94/460 547/288/460
f 453/450/391 482/475/412 483/451/413
f 469/139/399 490/152/395 457/243/395
f 454/428/392 483/451/413 484/452/414
f 455/429/393 484/452/414 485/453/415
f 724/34/586 720/586/583 722/57/584
f 443/432/381 472/454/402 473/455/403
f 165/422/144 166/421/145 170/456/148
f 444/433/382 473/455/403 474/457/404
f 445/434/383 474/457/404 475/460/405
f 447/436/385 446/435/384 475/460/405
f 447/436/385 476/461/406 477/462/407
f 113/360/98 114/98/99 134/378/117
f 448/439/386 477/462/407 478/464/408
f 449/440/387 478/464/408 479/465/409
f 450/441/388 479/465/409 480/447/410
f 476/461/406 505/485/428 506/467/429
f 477/462/407 506/467/429 507/468/430
f 479/465/409 478/464/408 507/468/430
f 479/465/409 508/469/431 509/470/432
f 141/471/122 137/377/119 138/379/120
f 481/448/411 480/447/410 509/470/432
f 481/448/411 510/473/433 511/474/434
f 482/475/412 511/10/434 512/476/435
f 483/451/413 512/476/435 513/477/436
f 460/139/375 438/142/372 430/365/372
f 484/452/414 513/477/436 514/478/437
f 722/57/584 720/586/583 716/29/580
f 472/454/402 501/479/424 502/480/425
f 523/93/442 497/66/417 491/236/417
f 473/455/403 502/480/425 503/481/426
f 474/457/404 503/481/426 504/482/427
f 476/461/406 475/460/405 504/482/427
f 489/154/396 458/413/396 457/243/395
f 503/481/426 502/480/425 531/486/447
f 515/110/438 524/94/443 550/288/443
f 503/481/426 532/487/448 533/488/449
f 505/485/428 504/482/427 533/488/449
f 505/485/428 534/489/450 535/490/451
f 506/467/429 535/490/451 536/491/452
f 508/469/431 507/468/430 536/491/452
f 508/469/431 537/492/453 538/493/454
f 510/473/433 509/470/432 538/493/454
f 510/473/433 539/494/455 540/495/456
f 429/139/355 411/302/355 410/243/354
f 512/476/435 511/10/434 540/496/456
f 465/132/378 486/136/416 487/365/416
f 512/476/435 541/497/457 542/13/458
f 513/477/436 542/13/458 543/498/459
f 716/29/580 712/42/577 714/59/578
f 501/479/424 530/499/446 531/486/447
f 542/13/458 541/497/457 570/500/479
f 542/13/458 571/501/480 572/292/481
f 712/42/577 708/563/574 710/41/575
f 161/420/141 141/471/122 142/472/123
f 530/499/446 559/502/468 560/504/469
f 532/487/448 531/486/447 560/504/469
f 532/487/448 561/505/470 562/506/471
f 534/489/450 533/488/449 562/506/471
f 535/490/451 534/489/450 563/507/472
f 535/490/451 564/508/473 565/509/474
f 536/491/452 565/509/474 566/510/475
f 537/492/453 566/510/475 567/511/476
f 539/494/455 538/493/454 567/511/476
f 539/494/455 568/512/477 569/513/478
f 540/496/456 569/630/478 570/500/479
f 568/512/477 567/511/476 596/514/497
f 568/512/477 597/515/498 598/516/499
f 570/500/479 569/630/478 598/517/499
f 489/154/396 461/159/374 432/243/374
f 571/501/480 570/500/479 599/287/500
f 571/501/480 600/289/501 601/518/502
f 710/39/575 708/562/574 704/38/571
f 429/139/355 439/142/379 440/365/379
f 559/502/468 588/519/489 589/520/490
f 561/505/470 560/504/469 589/520/490
f 562/506/471 561/505/470 590/521/491
f 105/381/92 106/383/93 110/524/96
f 563/507/472 562/506/471 591/523/492
f 563/507/472 592/525/493 593/526/494
f 564/508/473 593/526/494 594/527/495
f 565/509/474 594/527/495 595/528/496
f 566/510/475 595/528/496 596/514/497
f 592/525/493 621/546/512 622/529/513
f 593/526/494 622/529/513 623/531/514
f 594/527/495 623/531/514 624/532/515
f 596/514/497 595/528/496 624/532/515
f 597/515/498 596/514/497 625/533/516
f 597/515/498 626/534/517 627/535/518
f 460/139/375 433/302/375 432/243/374
f 599/446/500 598/632/499 627/536/518
f 599/446/500 628/537/519 629/538/520
f 600/539/501 629/538/520 630/540/521
f 704/38/571 5/34/5 2/36/2
f 588/519/489 617/542/508 618/543/509
f 497/66/417 496/65/418 492/175/418
f 589/520/490 618/543/509 619/544/510
f 590/521/491 619/544/510 620/545/511
f 592/525/493 591/523/492 620/545/511
f 618/543/509 647/560/533 648/547/534
f 619/544/510 648/547/534 649/548/535
f 486/136/416 469/139/399 488/302/399
f 621/546/512 620/545/511 649/548/535
f 516/107/439 544/195/439 520/223/421
f 621/546/512 650/549/536 651/550/537
f 622/529/513 651/550/537 652/551/538
f 623/531/514 652/551/538 653/552/539
f 625/533/516 624/532/515 653/552/539
f 626/534/517 625/533/516 654/553/540
f 626/534/517 655/554/541 656/555/542
f 628/537/519 627/536/518 656/556/542
f 628/537/519 657/557/543 658/558/544
f 629/538/520 658/558/544 659/453/545
f 5/34/5 10/586/9 8/57/8
f 617/542/508 646/559/532 647/560/533
f 658/558/544 657/557/543 13/12/12
f 658/558/544 14/14/13 15/16/14
f 646/559/532 675/17/548 3/19/3
f 647/560/533 3/19/3 677/22/550
f 648/547/534 677/22/550 678/23/551
f 650/549/536 649/548/535 678/23/551
f 650/549/536 679/25/552 7/28/7
f 438/142/372 437/132/373 431/352/373
f 652/551/538 651/550/537 7/28/7
f 652/551/538 681/32/554 682/1/555
f 653/552/539 682/1/555 683/4/556
f 655/554/541 654/553/540 683/4/556
f 655/554/541 11/6/10 685/8/558
f 657/557/543 656/556/542 685/10/558
