# Blender 5.2.0 LTS
# www.blender.org
o Backdrop_WaterCannon_Detail
v -1.897208 24.500000 3.505735
v -2.379737 25.500000 4.397369
v -0.656103 29.500000 3.931807
v -0.822973 28.500000 4.931807
v -0.656103 24.500000 3.931807
v -0.822973 25.500000 4.931807
v 0.656103 29.500000 3.931807
v 0.822973 28.500000 4.931807
v 0.656103 24.500000 3.931807
v 0.822973 25.500000 4.931807
v 1.897208 29.500000 3.505735
v 2.379737 28.500000 4.397369
v 1.897208 24.500000 3.505735
v 2.379737 25.500000 4.397369
v 20.276508 47.468426 -1.389717
v 19.409981 46.971367 -2.446106
v -1.103978 1.000000 -3.215779
v -1.465618 26.000000 -1.883026
v -2.088323 25.000000 -2.683078
v -1.465618 0.000000 -1.883026
v -2.088323 1.000000 -2.683078
v -1.997624 26.000000 -1.305113
v -2.846366 25.000000 -1.859624
v 0.000000 24.500000 -3.986173
v 0.000000 25.500000 -5.000000
v -1.997624 0.000000 -1.305113
v -2.846366 1.000000 -1.859624
v -2.313157 26.000000 -0.585771
v -3.295961 25.000000 -0.834651
v -0.774789 0.000000 -2.256883
v -2.313157 0.000000 -0.585771
v -3.295961 1.000000 -0.834651
v -2.378023 26.000000 0.197049
v -3.388387 25.000000 0.280770
v -1.409982 35.028633 -3.553894
v -2.378023 0.000000 0.197049
v -3.388387 1.000000 0.280770
v -2.185194 26.000000 0.958515
v -3.113629 25.000000 1.365765
v 0.000000 29.500000 -3.986173
v 0.000000 28.500000 -5.000000
v -2.185194 0.000000 0.958515
v -3.113629 1.000000 1.365765
v 3.864197 24.500000 -0.978548
v 4.847002 25.500000 -1.227427
v -1.755564 26.000000 1.616111
v -2.501461 25.000000 2.302758
v -1.755564 0.000000 1.616111
v -2.501461 1.000000 2.302758
v -0.073577 32.698853 -2.327302
v -1.135692 26.000000 2.098577
v -1.618221 25.000000 2.990211
v -1.135692 0.000000 2.098577
v -1.618221 1.000000 2.990211
v 3.864197 29.500000 -0.978548
v 4.847002 28.500000 -1.227427
v -0.392752 26.000000 2.353629
v -0.559622 25.000000 3.353629
v 20.650330 46.816692 -1.169107
v 20.471313 47.128803 -1.333424
v 19.752880 46.373589 -2.347022
v 20.068003 45.824234 -2.057793
v -0.392752 0.000000 2.353629
v -0.559622 1.000000 3.353629
v 0.392752 26.000000 2.353629
v 0.559622 25.000000 3.353629
v 1.294308 24.500000 -3.770191
v 1.623497 25.500000 -4.729086
v 0.392752 0.000000 2.353629
v 0.559622 1.000000 3.353629
v 1.135692 26.000000 2.098577
v 1.618221 25.000000 2.990211
v -1.302662 32.833881 -1.695910
v -2.276507 34.531574 -2.589717
v 1.135692 0.000000 2.098577
v 1.618221 1.000000 2.990211
v 3.972558 24.500000 0.329175
v 4.982923 25.500000 0.412897
v 1.755564 26.000000 1.616111
v 2.501461 25.000000 2.302758
v 1.294308 29.500000 -3.770191
v 1.623497 28.500000 -4.729086
v 1.755564 0.000000 1.616111
v 2.501461 1.000000 2.302758
v 2.185194 26.000000 0.958515
v 3.113629 25.000000 1.365765
v 2.185194 0.000000 0.958515
v 3.113629 1.000000 1.365765
v 3.972558 29.500000 0.329175
v 4.982923 28.500000 0.412897
v 2.378023 26.000000 0.197049
v 3.388387 25.000000 0.280770
v 0.000000 38.500000 5.000000
v 0.000000 38.500000 5.000000
v 2.378023 0.000000 0.197049
v 3.388387 1.000000 0.280770
v 2.313157 26.000000 -0.585771
v 3.295961 25.000000 -0.834651
v 2.448358 24.500000 -3.145650
v 3.337090 24.500000 -2.180230
v 4.185833 25.500000 -2.734741
v 3.071064 25.500000 -3.945702
v 2.313157 0.000000 -0.585771
v 3.295961 1.000000 -0.834651
v 1.997624 26.000000 -1.305113
v 2.846366 25.000000 -1.859624
v -1.103978 25.000000 -3.215779
v 1.997624 0.000000 -1.305113
v 2.846366 1.000000 -1.859624
v 3.650430 24.500000 1.601228
v 2.932722 24.500000 2.699762
v 3.678619 25.500000 3.386408
v 4.578866 25.500000 2.008477
v 2.088323 25.000000 -2.683078
v 3.337090 29.500000 -2.180230
v 2.448358 29.500000 -3.145650
v 3.071064 28.500000 -3.945702
v 4.185833 28.500000 -2.734741
v 1.465618 0.000000 -1.883026
v 2.088323 1.000000 -2.683078
v -0.774789 26.000000 -2.256883
v 1.465618 26.000000 -1.883026
v 0.774789 26.000000 -2.256883
v 0.000000 26.000000 -2.386173
v 0.000000 25.000000 -3.400000
v 1.103978 25.000000 -3.215779
v -1.913465 33.898701 -2.484815
v -1.579851 33.317089 -2.178607
v -0.453961 33.361980 -2.989726
v -0.911789 34.160122 -3.409936
v -0.000000 0.000000 -2.386173
v 0.774789 0.000000 -2.256883
v 1.103978 1.000000 -3.215779
v 0.000000 1.000000 -3.400000
v 2.932722 29.500000 2.699762
v 3.650430 29.500000 1.601228
v 4.578866 28.500000 2.008477
v 3.678619 28.500000 3.386408
v -1.000000 28.500000 5.000000
v -0.000000 37.500000 6.000000
v 0.000000 38.500000 5.000000
v -0.000000 28.500000 -6.000000
v -0.000000 0.000000 -2.386173
v 0.000000 1.000000 -3.400000
v 0.000000 26.000000 -2.386173
v 0.000000 25.000000 -3.400000
v 0.774789 0.000000 -2.256883
v 1.103978 1.000000 -3.215779
v 0.774789 26.000000 -2.256883
v 1.103978 25.000000 -3.215779
v 1.465618 0.000000 -1.883026
v 2.088323 1.000000 -2.683078
v 1.465618 26.000000 -1.883026
v 2.088323 25.000000 -2.683078
v 1.997624 0.000000 -1.305113
v 2.846366 1.000000 -1.859624
v 1.997624 26.000000 -1.305113
v 2.846366 25.000000 -1.859624
v 2.313157 0.000000 -0.585771
v 3.295961 1.000000 -0.834651
v 2.313157 26.000000 -0.585771
v 3.295961 25.000000 -0.834651
v 2.378023 0.000000 0.197049
v 3.388387 1.000000 0.280770
v 2.378023 26.000000 0.197049
v 3.388387 25.000000 0.280770
v 2.185194 0.000000 0.958515
v 3.113629 1.000000 1.365765
v 2.185194 26.000000 0.958515
v 3.113629 25.000000 1.365765
v 1.755564 0.000000 1.616111
v 2.501461 1.000000 2.302758
v 1.755564 26.000000 1.616111
v 2.501461 25.000000 2.302758
v 1.135692 0.000000 2.098577
v 1.618221 1.000000 2.990211
v 1.135692 26.000000 2.098577
v 1.618221 25.000000 2.990211
v 0.392752 0.000000 2.353629
v 0.559622 1.000000 3.353629
v 0.392752 26.000000 2.353629
v 0.559622 25.000000 3.353629
v -0.392752 0.000000 2.353629
v -0.559622 1.000000 3.353629
v -0.392752 26.000000 2.353629
v -0.559622 25.000000 3.353629
v -1.135692 0.000000 2.098577
v -1.618221 1.000000 2.990211
v -1.135692 26.000000 2.098577
v -1.618221 25.000000 2.990211
v -1.755564 0.000000 1.616111
v -2.501461 1.000000 2.302758
v -1.755564 26.000000 1.616111
v -2.501461 25.000000 2.302758
v -2.185194 0.000000 0.958515
v -3.113629 1.000000 1.365765
v -2.185194 26.000000 0.958515
v -3.113629 25.000000 1.365765
v -2.378023 0.000000 0.197049
v -3.388387 1.000000 0.280770
v -2.378023 26.000000 0.197049
v -3.388387 25.000000 0.280770
v -2.313157 0.000000 -0.585771
v -3.295961 1.000000 -0.834651
v -2.313157 26.000000 -0.585771
v -3.295961 25.000000 -0.834651
v -1.997624 0.000000 -1.305113
v -2.846366 1.000000 -1.859624
v -1.997624 26.000000 -1.305113
v -2.846366 25.000000 -1.859624
v -1.465618 0.000000 -1.883026
v -2.088323 1.000000 -2.683078
v -1.465618 26.000000 -1.883026
v -2.088323 25.000000 -2.683078
v -0.774789 0.000000 -2.256883
v -1.103978 1.000000 -3.215779
v -0.774789 26.000000 -2.256883
v -1.103978 25.000000 -3.215779
v 0.000000 24.500000 -3.986173
v 0.000000 25.500000 -5.000000
v 0.000000 29.500000 -3.986173
v 0.000000 28.500000 -5.000000
v 1.294308 24.500000 -3.770191
v 1.623497 25.500000 -4.729086
v 1.294308 29.500000 -3.770191
v 1.623497 28.500000 -4.729086
v 2.448358 24.500000 -3.145650
v 3.071064 25.500000 -3.945702
v 2.448358 29.500000 -3.145650
v 3.071064 28.500000 -3.945702
v 3.337090 24.500000 -2.180230
v 4.185833 25.500000 -2.734741
v 3.337090 29.500000 -2.180230
v 4.185833 28.500000 -2.734741
v 3.864197 24.500000 -0.978548
v 4.847002 25.500000 -1.227427
v 3.864197 29.500000 -0.978548
v 4.847002 28.500000 -1.227427
v 3.972558 24.500000 0.329175
v 4.982923 25.500000 0.412897
v 3.972558 29.500000 0.329175
v 4.982923 28.500000 0.412897
v 3.650430 24.500000 1.601228
v 4.578866 25.500000 2.008477
v 3.650430 29.500000 1.601228
v 4.578866 28.500000 2.008477
v 2.932722 24.500000 2.699762
v 3.678619 25.500000 3.386408
v 2.932722 29.500000 2.699762
v 3.678619 28.500000 3.386408
v 1.897208 24.500000 3.505735
v 2.379737 25.500000 4.397369
v 1.897208 29.500000 3.505735
v 2.379737 28.500000 4.397369
v 0.656103 24.500000 3.931807
v 0.822973 25.500000 4.931807
v 0.656103 29.500000 3.931807
v 0.822973 28.500000 4.931807
v -0.656103 24.500000 3.931807
v -0.822973 25.500000 4.931807
v -0.656103 29.500000 3.931807
v -0.822973 28.500000 4.931807
v -1.897208 24.500000 3.505735
v -2.379737 25.500000 4.397369
v -1.897208 29.500000 3.505735
v -2.379737 28.500000 4.397369
v -2.932722 24.500000 2.699762
v -3.678619 25.500000 3.386408
v -2.932722 29.500000 2.699762
v -3.678619 28.500000 3.386408
v -3.650430 24.500000 1.601228
v -4.578866 25.500000 2.008477
v -3.650430 29.500000 1.601228
v -4.578866 28.500000 2.008477
v -3.972558 24.500000 0.329175
v -4.982923 25.500000 0.412897
v -3.972558 29.500000 0.329175
v -4.982923 28.500000 0.412897
v -3.864197 24.500000 -0.978548
v -4.847002 25.500000 -1.227427
v -3.864197 29.500000 -0.978548
v -4.847002 28.500000 -1.227427
v -3.337090 24.500000 -2.180230
v -4.185833 25.500000 -2.734741
v -3.337090 29.500000 -2.180230
v -4.185833 28.500000 -2.734741
v -2.448358 24.500000 -3.145650
v -3.071064 25.500000 -3.945702
v -2.448358 29.500000 -3.145650
v -3.071064 28.500000 -3.945702
v -1.294308 24.500000 -3.770191
v -1.623497 25.500000 -4.729086
v -1.294308 29.500000 -3.770191
v -1.623497 28.500000 -4.729086
v 0.000000 37.500000 -6.000000
v -1.000000 37.500000 -5.000000
v -0.000000 28.500000 4.000000
v 0.000000 38.500000 5.000000
v -1.000000 28.500000 -5.000000
v -1.000000 37.500000 5.000000
v -0.000000 37.500000 -4.000000
v 1.000000 28.500000 -5.000000
v 0.000000 28.500000 6.000000
v 0.000000 28.500000 6.000000
v -0.000000 37.500000 6.000000
v 1.000000 37.500000 5.000000
v 0.000000 27.500000 5.000000
v 1.000000 37.500000 5.000000
v 1.000000 28.500000 5.000000
v 0.000000 37.500000 4.000000
v -0.000000 28.500000 4.000000
v 0.000000 37.500000 4.000000
v -1.000000 37.500000 5.000000
v -1.000000 28.500000 5.000000
v -1.000000 28.500000 -5.000000
v -0.000000 37.500000 -4.000000
v 0.000000 27.500000 -5.000000
v 0.000000 27.500000 -5.000000
v 0.000000 27.500000 -5.000000
v 0.000000 28.500000 -4.000000
v -0.000000 28.500000 -6.000000
v 0.000000 38.500000 -5.000000
v 0.000000 38.500000 -5.000000
v -1.000000 37.500000 -5.000000
v 0.000000 27.500000 -5.000000
v 0.000000 38.500000 -5.000000
v 0.000000 28.500000 -4.000000
v 0.000000 38.500000 -5.000000
v 1.000000 37.500000 -5.000000
v 1.000000 37.500000 -5.000000
v 0.000000 27.500000 5.000000
v 0.000000 27.500000 5.000000
v 1.000000 28.500000 -5.000000
v 0.000000 27.500000 5.000000
v 1.000000 28.500000 5.000000
v 0.000000 37.500000 -6.000000
v -2.276507 34.531574 -2.589717
v -1.409982 35.028633 -3.553894
v 20.276508 47.468426 -1.389717
v 19.409981 46.971367 -2.446106
v -1.913465 33.898701 -2.484815
v -0.911789 34.160122 -3.409936
v 20.471313 47.128803 -1.333424
v 19.752880 46.373589 -2.347022
v -1.579851 33.317089 -2.178607
v -0.453961 33.361980 -2.989726
v 20.650330 46.816692 -1.169107
v 20.068003 45.824234 -2.057793
v -1.302662 32.833881 -1.695910
v -0.073577 32.698853 -2.327302
v 20.799103 46.557396 -0.910071
v 20.329813 45.367813 -1.601857
v -1.104385 32.488194 -1.075805
v 0.198533 32.224480 -1.476344
v 20.905489 46.371880 -0.577303
v 20.517103 45.041313 -1.016155
v -1.001047 32.308060 -0.368544
v 0.340335 31.977274 -0.505768
v 20.960951 46.275223 -0.197770
v 20.614702 44.871159 -0.348112
v -1.001046 32.308060 0.368544
v 0.340334 31.977276 0.505768
v 20.960949 46.275223 0.197770
v 20.614708 44.871159 0.348112
v -1.104384 32.488194 1.075806
v 0.198534 32.224480 1.476344
v 20.905489 46.371880 0.577303
v 20.517105 45.041309 1.016156
v -1.302664 32.833881 1.695910
v -0.073578 32.698853 2.327302
v 20.799103 46.557396 0.910071
v 20.329813 45.367813 1.601858
v -1.579850 33.317089 2.178607
v -0.453960 33.361980 2.989727
v 20.650331 46.816696 1.169107
v 20.068003 45.824234 2.057794
v -1.913464 33.898701 2.484815
v -0.911790 34.160122 3.409935
v 20.471313 47.128803 1.333423
v 19.752882 46.373589 2.347022
v -2.276507 34.531574 2.589717
v -1.409983 35.028633 3.553895
v 20.276510 47.468426 1.389717
v 19.409983 46.971371 2.446105
v -2.639533 35.164455 2.484815
v -1.908174 35.897137 3.409936
v 20.081686 47.808041 1.333424
v 19.067081 47.569157 2.347023
v -2.973159 35.746063 2.178607
v -2.366004 36.695278 2.989727
v 19.902662 48.120152 1.169105
v 18.751963 48.118507 2.057794
v -3.250330 36.229275 1.695908
v -2.746383 37.358395 2.327309
v 19.753906 48.379459 0.910070
v 18.490150 48.574932 1.601856
v -3.448628 36.574955 1.075801
v -3.018500 37.832779 1.476344
v 19.647503 48.564960 0.577308
v 18.302858 48.901436 1.016158
v -3.551953 36.755089 0.368558
v -3.160301 38.079983 0.505769
v 19.592060 48.661629 0.197783
v 18.205259 49.071583 0.348112
v -3.551953 36.755089 -0.368558
v -3.160299 38.079979 -0.505768
v 19.592062 48.661629 -0.197783
v 18.205256 49.071587 -0.348113
v -3.448629 36.574955 -1.075801
v -3.018499 37.832775 -1.476341
v 19.647505 48.564960 -0.577308
v 18.302864 48.901432 -1.016154
v -3.250329 36.229275 -1.695908
v -2.746386 37.358398 -2.327311
v 19.753908 48.379459 -0.910070
v 18.490150 48.574932 -1.601857
v -2.973160 35.746063 -2.178607
v -2.366004 36.695278 -2.989727
v 19.902662 48.120152 -1.169105
v 18.751963 48.118507 -2.057796
v -2.639534 35.164455 -2.484815
v -1.908174 35.897137 -3.409937
v 20.081686 47.808041 -1.333424
v 19.067081 47.569157 -2.347021
v -2.379737 28.500000 4.397369
v -1.897208 29.500000 3.505735
v -3.678619 25.500000 3.386408
v -2.932722 24.500000 2.699762
v -3.678619 28.500000 3.386408
v -2.932722 29.500000 2.699762
v -4.578866 25.500000 2.008477
v -3.650430 24.500000 1.601228
v -4.578866 28.500000 2.008477
v -3.650430 29.500000 1.601228
v -4.982923 25.500000 0.412897
v -3.972558 24.500000 0.329175
v -4.982923 28.500000 0.412897
v -3.972558 29.500000 0.329175
v -4.847002 25.500000 -1.227427
v -3.864197 24.500000 -0.978548
v -4.847002 28.500000 -1.227427
v -3.864197 29.500000 -0.978548
v -4.185833 25.500000 -2.734741
v -3.337090 24.500000 -2.180230
v -4.185833 28.500000 -2.734741
v -3.337090 29.500000 -2.180230
v -3.071064 25.500000 -3.945702
v -2.448358 24.500000 -3.145650
v -3.071064 28.500000 -3.945702
v -2.448358 29.500000 -3.145650
v -1.623497 25.500000 -4.729086
v -1.294308 24.500000 -3.770191
v -1.623497 28.500000 -4.729086
v -1.294308 29.500000 -3.770191
v 20.329813 45.367813 -1.601857
v 20.799103 46.557396 -0.910071
v 0.198533 32.224480 -1.476344
v -1.104385 32.488194 -1.075805
v 20.517103 45.041313 -1.016155
v 20.905489 46.371880 -0.577303
v 0.340335 31.977274 -0.505768
v -1.001047 32.308060 -0.368544
v 20.614702 44.871159 -0.348112
v 20.960951 46.275223 -0.197770
v 0.340334 31.977276 0.505768
v -1.001046 32.308060 0.368544
v 20.614708 44.871159 0.348112
v 20.960949 46.275223 0.197770
v 0.198534 32.224480 1.476344
v -1.104384 32.488194 1.075806
v 20.517105 45.041309 1.016156
v 20.905489 46.371880 0.577303
v -0.073578 32.698853 2.327302
v -1.302664 32.833881 1.695910
v 20.329813 45.367813 1.601858
v 20.799103 46.557396 0.910071
v -0.453960 33.361980 2.989727
v -1.579850 33.317089 2.178607
v 20.068003 45.824234 2.057794
v 20.650331 46.816696 1.169107
v -0.911790 34.160122 3.409935
v -1.913464 33.898701 2.484815
v 19.752882 46.373589 2.347022
v 20.471313 47.128803 1.333423
v -1.409983 35.028633 3.553895
v -2.276507 34.531574 2.589717
v 19.409983 46.971371 2.446105
v 20.276510 47.468426 1.389717
v -1.908174 35.897137 3.409936
v -2.639533 35.164455 2.484815
v 19.067081 47.569157 2.347023
v 20.081686 47.808041 1.333424
v -2.366004 36.695278 2.989727
v -2.973159 35.746063 2.178607
v 18.751963 48.118507 2.057794
v 19.902662 48.120152 1.169105
v -2.746383 37.358395 2.327309
v -3.250330 36.229275 1.695908
v 18.490150 48.574932 1.601856
v 19.753906 48.379459 0.910070
v -3.018500 37.832779 1.476344
v -3.448628 36.574955 1.075801
v 18.302858 48.901436 1.016158
v 19.647503 48.564960 0.577308
v -3.160301 38.079983 0.505769
v -3.551953 36.755089 0.368558
v 18.205259 49.071583 0.348112
v 19.592060 48.661629 0.197783
v -3.160299 38.079979 -0.505768
v -3.551953 36.755089 -0.368558
v 18.205256 49.071587 -0.348113
v 19.592062 48.661629 -0.197783
v -3.018499 37.832775 -1.476341
v -3.448629 36.574955 -1.075801
v 18.302864 48.901432 -1.016154
v 19.647505 48.564960 -0.577308
v -2.746386 37.358398 -2.327311
v -3.250329 36.229275 -1.695908
v 18.490150 48.574932 -1.601857
v 19.753908 48.379459 -0.910070
v -2.366004 36.695278 -2.989727
v -2.973160 35.746063 -2.178607
v 18.751963 48.118507 -2.057796
v 19.902662 48.120152 -1.169105
v -1.908174 35.897137 -3.409937
v -2.639534 35.164455 -2.484815
v 19.067081 47.569157 -2.347021
v 20.081686 47.808041 -1.333424
vn -0.3342 -0.7119 0.6176
vn -0.1156 0.7119 0.6927
vn -0.1156 -0.7119 0.6927
vn 0.1156 0.7119 0.6927
vn 0.1156 -0.7119 0.6927
vn 0.3342 0.7119 0.6176
vn 0.3342 -0.7119 0.6176
vn 0.6302 0.3615 -0.6871
vn 0.6303 0.3615 -0.6871
vn -0.2280 -0.7119 -0.6642
vn -0.4313 0.7119 -0.5542
vn -0.4313 -0.7119 -0.5542
vn -0.5879 0.7119 -0.3841
vn -0.0000 -0.7119 -0.7022
vn -0.5879 -0.7119 -0.3841
vn -0.6807 0.7119 -0.1724
vn -0.6807 -0.7119 -0.1724
vn -0.6998 0.7119 0.0580
vn -0.6024 -0.3455 -0.7195
vn -0.6998 -0.7119 0.0580
vn -0.6431 0.7119 0.2821
vn -0.0000 0.7119 -0.7022
vn -0.6431 -0.7119 0.2821
vn 0.6807 -0.7119 -0.1724
vn -0.5166 0.7119 0.4756
vn -0.5167 -0.7119 0.4756
vn -0.3318 -0.8172 -0.4712
vn -0.3342 0.7119 0.6176
vn 0.6807 0.7119 -0.1724
vn 0.8151 0.0393 -0.5780
vn 0.7266 0.1936 -0.6592
vn 0.2280 -0.7119 -0.6642
vn -0.6024 -0.3456 -0.7195
vn 0.6998 -0.7119 0.0580
vn 0.5167 0.7119 0.4756
vn 0.2280 0.7119 -0.6642
vn 0.5166 -0.7119 0.4756
vn 0.6431 0.7119 0.2821
vn 0.6431 -0.7119 0.2821
vn 0.6998 0.7119 0.0580
vn 0.5774 0.5774 0.5774
vn 0.5774 0.5774 -0.5774
vn 0.4313 -0.7119 -0.5542
vn 0.5879 -0.7119 -0.3841
vn 0.5879 0.7119 -0.3841
vn -0.2280 0.7119 -0.6642
vn 0.5167 -0.7119 0.4756
vn 0.4313 0.7119 -0.5542
vn -0.5015 -0.5214 -0.6904
vn -0.4088 -0.6830 -0.6053
vn 0.5166 0.7119 0.4756
vn -0.6861 -0.2418 0.6861
vn -0.6861 0.2418 0.6861
vn -0.5774 0.5774 -0.5774
vn 0.6861 -0.2418 -0.6861
vn -0.0000 -1.0000 -0.0000
vn -0.0000 -0.0000 -1.0000
vn -0.0000 1.0000 -0.0000
vn 0.3247 -0.0000 -0.9458
vn 0.6142 -0.0000 -0.7891
vn 0.8372 -0.0000 -0.5469
vn 0.9694 -0.0000 -0.2455
vn 0.9966 -0.0000 0.0826
vn 0.9158 -0.0000 0.4017
vn 0.7357 -0.0000 0.6773
vn 0.4759 -0.0000 0.8795
vn 0.1646 -0.0000 0.9864
vn -0.1646 -0.0000 0.9864
vn -0.4759 -0.0000 0.8795
vn -0.7357 -0.0000 0.6773
vn -0.9158 -0.0000 0.4017
vn -0.9966 -0.0000 0.0826
vn -0.9694 -0.0000 -0.2455
vn -0.8372 -0.0000 -0.5469
vn -0.6142 -0.0000 -0.7891
vn -0.3247 -0.0000 -0.9458
vn -0.6861 0.2418 -0.6861
vn -0.6861 -0.2418 -0.6861
vn -0.5774 0.5774 0.5774
vn 0.6861 0.2418 0.6861
vn 0.6861 -0.2418 0.6861
vn 0.6861 0.2418 -0.6861
vn -0.5774 -0.5774 0.5774
vn -0.5774 -0.5774 -0.5774
vn 0.5774 -0.5774 -0.5774
vn 0.5774 -0.5774 0.5774
vn -0.8674 -0.4976 0.0001
vn 0.0400 0.0229 -0.9989
vn 0.8674 0.4976 -0.0000
vn -0.8674 -0.4976 -0.0000
vn 0.1800 -0.2212 -0.9585
vn 0.8674 0.4975 -0.0000
vn -0.8674 -0.4975 0.0001
vn 0.3087 -0.4455 -0.8404
vn 0.4156 -0.6319 -0.6542
vn 0.8672 0.4979 0.0003
vn -0.8675 -0.4975 -0.0000
vn 0.4921 -0.7653 -0.4150
vn 0.5320 -0.8347 -0.1422
vn 0.8673 0.4977 -0.0000
vn 0.5320 -0.8347 0.1422
vn 0.4921 -0.7653 0.4150
vn 0.8676 0.4973 0.0001
vn 0.4156 -0.6319 0.6542
vn 0.3087 -0.4455 0.8404
vn 0.8675 0.4974 0.0003
vn 0.1800 -0.2212 0.9585
vn 0.0400 0.0229 0.9989
vn 0.8674 0.4976 -0.0002
vn -0.8674 -0.4975 -0.0000
vn -0.1000 0.2671 0.9585
vn -0.2287 0.4914 0.8404
vn 0.8675 0.4975 -0.0001
vn -0.3356 0.6778 0.6542
vn -0.4121 0.8111 0.4150
vn -0.4520 0.8806 0.1422
vn -0.4520 0.8806 -0.1422
vn 0.8675 0.4975 -0.0000
vn -0.4121 0.8111 -0.4150
vn -0.3356 0.6778 -0.6542
vn 0.8674 0.4977 -0.0001
vn -0.2287 0.4914 -0.8404
vn -0.1000 0.2671 -0.9585
vn -0.5167 0.7119 0.4756
vn 0.8886 -0.0889 -0.4499
vn 0.8886 -0.0889 -0.4500
vn -0.2767 -0.9133 -0.2989
vn 0.9412 -0.1806 -0.2854
vn -0.2480 -0.9633 -0.1024
vn 0.9686 -0.2284 -0.0978
vn -0.2480 -0.9633 0.1024
vn 0.9686 -0.2284 0.0978
vn -0.2767 -0.9133 0.2989
vn 0.9412 -0.1806 0.2854
vn -0.3318 -0.8172 0.4712
vn 0.8886 -0.0889 0.4499
vn -0.4088 -0.6830 0.6053
vn 0.8151 0.0393 0.5780
vn -0.5015 -0.5214 0.6904
vn 0.7266 0.1936 0.6593
vn 0.7266 0.1936 0.6592
vn -0.6024 -0.3455 0.7195
vn 0.6303 0.3615 0.6871
vn -0.7033 -0.1697 0.6904
vn 0.5339 0.5294 0.6592
vn -0.7960 -0.0081 0.6053
vn 0.4454 0.6837 0.5780
vn -0.8730 0.1261 0.4712
vn 0.3719 0.8119 0.4499
vn -0.9281 0.2222 0.2989
vn 0.3193 0.9037 0.2854
vn -0.9568 0.2722 0.1024
vn 0.2919 0.9514 0.0978
vn -0.9568 0.2722 -0.1024
vn 0.2919 0.9515 -0.0978
vn 0.2919 0.9514 -0.0978
vn -0.9281 0.2222 -0.2989
vn 0.3193 0.9037 -0.2854
vn -0.8730 0.1261 -0.4712
vn 0.3719 0.8119 -0.4499
vn -0.7960 -0.0081 -0.6053
vn 0.4454 0.6837 -0.5780
vn -0.7033 -0.1697 -0.6904
vn 0.5339 0.5294 -0.6592
vt 0.080911 -0.149511
vt 0.087778 -0.080806
vt 0.125073 -0.115138
vt 0.109260 -0.047926
vt 0.155681 -0.068288
vt 0.169419 -0.014038
vt 0.228943 -0.100424
vt 0.146636 -0.134988
vt 0.183931 -0.169320
vt 0.000000 0.250000
vt -0.000000 0.300000
vt 0.050000 0.250000
vt 0.118901 -0.009852
vt 0.000000 0.170000
vt 0.038739 0.112844
vt 0.055199 0.160789
vt 0.000000 0.300000
vt 0.249146 -0.020645
vt 0.182522 -0.080061
vt -0.000000 0.119309
vt 0.081175 0.236454
vt 0.122418 0.157283
vt 0.153553 0.197285
vt -0.022698 1.668099
vt -0.095673 1.694935
vt -0.045589 1.708006
vt -0.000000 0.200000
vt 0.000000 0.200000
vt 0.164798 0.041733
vt -0.050000 0.250000
vt 0.115658 0.029289
vt 0.099881 0.065256
vt 0.115658 0.029289
vt 0.209292 0.136737
vt 0.142318 0.092981
vt 0.000000 -0.250000
vt 0.050000 -0.250000
vt 0.000000 -0.200000
vt 0.104416 0.134154
vt -0.000000 -0.200000
vt 0.300000 1.425000
vt 0.250000 1.875000
vt 0.300000 1.875000
vt -0.000000 -0.300000
vt 0.073281 0.094151
vt 0.000000 -0.300000
vt -0.050000 -0.250000
vt 0.166855 0.109012
vt 0.198628 -0.016459
vt 0.038739 0.112844
vt 0.056785 -0.104929
vt 0.019638 -0.117681
vt 0.064715 0.188510
vt 0.027981 -0.167681
vt -0.027981 -0.167681
vt 0.117351 2.318679
vt 0.058455 2.340835
vt 0.102890 2.291212
vt -0.019638 -0.117681
vt 0.242350 0.061371
vt 0.198628 -0.016459
vt -0.080911 -0.149511
vt -0.056785 -0.104929
vt 0.200000 1.875000
vt 0.250000 1.425000
vt 0.200000 1.425000
vt -0.087778 -0.080806
vt -0.125073 -0.115138
vt 0.193210 0.048927
vt -0.155681 -0.068288
vt -0.109260 -0.047926
vt -0.169419 -0.014038
vt -0.118901 -0.009852
vt -0.115658 0.029289
vt -0.115658 0.029289
vt -0.164798 0.041733
vt -0.142318 0.092981
vt 0.000000 0.199309
vt -0.099881 0.065256
vt -0.104416 0.134154
vt -0.073281 0.094151
vt -0.055199 0.160789
vt -0.038739 0.112844
vt -0.038739 0.112844
vt 0.000000 0.119309
vt 0.970499 2.348568
vt 1.023566 2.356440
vt 0.987644 2.318679
vt 0.118987 -0.219868
vt 0.094860 -0.175287
vt 0.041149 -0.246590
vt -0.300000 1.425000
vt -0.250000 1.875000
vt -0.300000 1.875000
vt 0.032805 -0.196590
vt -0.041149 -0.246590
vt -0.032805 -0.196590
vt -0.070499 1.751432
vt -0.113825 1.726579
vt -0.118987 -0.219868
vt -0.094860 -0.175287
vt -0.146636 -0.134988
vt -0.250000 1.425000
vt -0.200000 1.875000
vt -0.183931 -0.169320
vt -0.228943 -0.100424
vt -0.182522 -0.080061
vt -0.249146 -0.020645
vt -0.198628 -0.016459
vt -0.242350 0.061371
vt -0.198628 -0.016459
vt -0.200000 1.425000
vt -0.193210 0.048927
vt -0.209292 0.136737
vt -0.166855 0.109012
vt -0.153553 0.197285
vt -0.122418 0.157283
vt -0.081175 0.236454
vt -0.064715 0.188510
vt -0.022698 0.149486
vt -0.065133 0.084795
vt -0.078993 0.108930
vt 0.080093 2.268391
vt 0.045504 2.327870
vt 0.009927 0.073817
vt -0.003679 0.116365
vt 0.028865 2.318594
vt 0.050808 2.252066
vt -0.050052 0.018427
vt -0.055219 0.053790
vt 0.017406 2.243558
vt 0.009889 2.313761
vt 0.017017 -0.025288
vt 0.017017 0.025288
vt -0.017406 2.243558
vt -0.009889 2.313761
vt 0.009927 -0.073817
vt -0.050052 -0.018427
vt -0.028865 2.318594
vt -0.050808 2.252065
vt -0.065133 -0.084795
vt -0.055219 -0.053790
vt -0.080093 2.268391
vt -0.045504 2.327870
vt -0.022698 -0.149486
vt -0.003679 -0.116365
vt -0.058455 2.340835
vt -0.102890 2.291212
vt -0.022698 1.668099
vt -0.095673 1.694935
vt -0.078993 1.665854
vt -0.117351 2.318679
vt -0.066671 2.356440
vt -0.070499 1.751432
vt -0.045590 1.708006
vt 0.970499 2.348568
vt 1.013826 2.373421
vt -0.131977 1.758223
vt -0.113825 1.726579
vt 1.004084 2.390402
vt 0.953354 2.378458
vt -0.149486 1.834764
vt -0.124241 1.758223
vt -0.170497 1.794857
vt 0.937598 2.405925
vt 0.995133 2.406008
vt -0.116365 1.867920
vt -0.108930 1.787303
vt 0.937598 -0.102890
vt 0.987695 -0.045504
vt 0.924507 -0.080093
vt -0.073817 1.891639
vt -0.084795 1.811464
vt 0.915143 -0.050808
vt 0.982375 -0.028865
vt -0.018428 1.837754
vt -0.053790 1.828748
vt 0.910263 -0.017406
vt 0.979603 -0.009889
vt 0.025288 1.903999
vt -0.025288 1.903999
vt 0.979603 0.009889
vt 0.910263 0.017406
vt 0.073817 1.891639
vt 0.018428 1.837754
vt 0.915143 0.050808
vt 0.982375 0.028865
vt 0.084795 1.811464
vt 0.053790 1.828748
vt 0.987695 0.045504
vt 0.924507 0.080093
vt 0.149486 1.834764
vt 0.116366 1.867920
vt 0.937598 0.102890
vt 0.995133 0.058455
vt 0.124241 1.758223
vt 0.108930 1.787303
vt -0.131977 1.758223
vt -0.095409 1.794857
vt 1.013825 2.373421
vt 0.000000 1.250000
vt 0.055199 0.050000
vt 0.000000 0.050000
vt -0.055199 1.250000
vt -0.055199 0.050000
vt 0.055199 1.250000
vt 0.104416 0.050000
vt 0.134154 1.250000
vt 0.092981 0.050000
vt 0.134154 0.050000
vt 0.092981 1.250000
vt 0.041733 0.050000
vt 0.041733 1.250000
vt -0.014038 0.050000
vt -0.014038 1.250000
vt -0.068288 0.050000
vt -0.068288 1.250000
vt -0.115138 0.050000
vt 0.125073 1.250000
vt 0.080911 0.050000
vt 0.125073 0.050000
vt 0.080911 1.250000
vt 0.027981 0.050000
vt 0.027981 1.250000
vt -0.027981 0.050000
vt -0.027981 1.250000
vt -0.080911 0.050000
vt -0.080911 1.250000
vt -0.125073 0.050000
vt -0.115138 1.250000
vt -0.068288 0.050000
vt -0.014038 0.050000
vt 0.134154 0.050000
vt -0.104416 1.250000
vt -0.104416 0.050000
vt 0.000000 1.425000
vt 0.081175 1.275000
vt 0.000000 1.275000
vt -0.081175 1.425000
vt -0.081175 1.275000
vt 0.081175 1.425000
vt 0.153553 1.275000
vt 0.197285 1.425000
vt 0.136737 1.275000
vt 0.197285 1.275000
vt 0.136737 1.425000
vt 0.061371 1.275000
vt 0.061371 1.425000
vt -0.020645 1.275000
vt -0.020645 1.425000
vt -0.100424 1.275000
vt -0.100424 1.425000
vt -0.169320 1.275000
vt 0.183931 1.425000
vt 0.118987 1.275000
vt 0.183931 1.275000
vt 0.118987 1.425000
vt 0.041149 1.275000
vt 0.041149 1.425000
vt -0.041149 1.275000
vt -0.041149 1.425000
vt -0.118987 1.275000
vt -0.118987 1.425000
vt -0.183931 1.275000
vt -0.169320 1.425000
vt -0.153553 1.425000
vt -0.153553 1.275000
vt 0.084795 1.641694
vt -0.129486 1.726579
vt 0.058455 2.406008
vt -0.066671 2.390402
vt 1.003400 2.291212
vt -0.003679 1.634943
vt 1.025855 0.050808
vt 1.030735 0.017406
vt 1.025855 -0.050808
vt 1.016491 -0.080093
vt 1.016491 2.268391
vt -0.003679 1.634943
vt 0.987644 2.318679
vt -0.095409 1.794857
vt -0.118300 1.834764
vt -0.137319 1.867920
vt -0.150925 -0.073817
vt -0.137319 -0.116365
vt -0.158015 -0.025288
vt -0.158015 0.025288
vt -0.150925 0.073817
vt -0.137319 0.116366
vt 0.924507 2.428747
vt -0.118300 1.834764
vt -0.137319 1.867920
vt -0.078993 1.665854
vt 0.066671 2.356440
vt -0.078993 -0.108930
vt 0.995133 -0.058455
vt 0.170497 1.794857
vt 0.104416 1.250000
vt -0.125073 1.250000
vt 0.153553 1.425000
vt -0.183931 1.425000
vt 0.129486 1.726579
vt 0.124241 1.694935
vt 0.108930 1.665854
vt 0.053790 1.624410
vt 0.018427 1.615403
vt -0.018427 1.615403
vt -0.053790 1.624410
vt -0.084795 1.641694
vt -0.108930 1.665854
vt -0.124241 1.694935
vt 0.069486 2.373421
vt 0.066671 2.390402
vt 0.045504 2.418973
vt 0.028865 2.428248
vt 0.009889 2.433081
vt -0.009889 2.433081
vt -0.028865 2.428248
vt -0.045504 2.418973
vt -0.058455 2.406008
vt -0.069486 2.373421
vt 1.016491 0.080093
vt 1.030735 -0.017406
s 1
f 76/1/7 83/2/37 84/3/37
f 84/3/37 87/4/39 88/5/39
f 92/6/40 85/4/38 86/5/38
f 137/7/38 135/8/35 138/9/51
f 318/10/85 142/11/55 302/12/55
f 96/6/34 87/4/39 95/13/34
f 125/14/22 123/15/36 126/16/36
f 326/10/42 329/12/82 336/17/82
f 90/18/40 136/19/38 137/7/38
f 133/16/32 131/20/14 134/14/14
f 82/21/36 116/22/48 117/23/48
f 129/24/50 127/25/49 130/26/49
f 323/10/41 301/27/80 330/12/80
f 86/5/38 79/2/35 80/3/35
f 319/10/86 333/12/81 320/28/81
f 98/29/29 91/13/40 92/6/40
f 322/10/54 295/17/77 296/30/77
f 96/6/34 103/31/24 104/29/24
f 317/10/84 299/30/78 321/11/78
f 98/29/29 105/32/45 97/33/29
f 316/27/53 328/10/79 324/30/53
f 101/34/44 99/22/43 102/23/43
f 325/10/83 327/28/52 315/30/52
f 109/35/44 103/31/24 108/32/44
f 94/36/42 306/37/82 310/38/82
f 114/39/48 105/32/45 106/35/45
f 334/36/85 311/40/55 335/37/55
f 321/41/78 296/42/77 295/43/77
f 93/36/41 305/44/80 308/37/80
f 109/35/44 119/45/43 120/39/43
f 332/36/86 309/37/81 304/46/81
f 113/7/39 111/8/47 110/19/39
f 141/36/54 312/38/77 313/47/77
f 126/16/36 122/45/48 114/39/48
f 331/36/84 314/47/78 297/40/78
f 117/23/48 115/48/45 118/34/45
f 140/44/53 298/36/79 300/47/53
f 307/36/83 303/46/52 139/47/52
f 113/7/39 77/49/34 78/18/34
f 120/39/43 132/50/32 133/16/32
f 72/1/6 79/2/35 71/51/6
f 76/1/7 69/52/5 75/51/7
f 102/23/43 67/53/32 68/21/32
f 72/1/6 65/52/4 66/54/4
f 64/55/3 69/52/5 70/54/5
f 61/56/31 59/57/30 62/58/30
f 66/54/4 57/59/2 58/55/2
f 56/60/29 89/61/40 90/18/40
f 54/62/1 63/59/3 64/55/3
f 52/62/28 57/59/2 51/63/28
f 316/64/53 315/65/52 327/66/52
f 54/62/1 48/67/26 53/63/1
f 52/62/28 46/67/25 47/68/25
f 78/18/34 44/69/24 45/60/24
f 43/70/23 48/67/26 49/68/26
f 41/10/22 81/53/36 82/21/36
f 47/68/25 38/71/21 39/70/21
f 37/72/20 42/71/23 43/70/23
f 39/70/21 33/73/18 34/72/18
f 37/72/20 31/74/17 36/73/20
f 302/65/55 336/43/82 329/42/82
f 34/72/18 28/75/16 29/76/16
f 118/34/45 55/69/29 56/60/29
f 27/77/15 31/74/17 32/76/17
f 68/21/32 24/78/14 25/10/14
f 29/76/16 22/79/13 23/77/13
f 21/80/12 26/79/15 27/77/15
f 23/77/13 18/81/11 19/80/11
f 45/60/24 100/48/44 101/34/44
f 17/82/10 20/81/12 21/80/12
f 19/80/11 121/83/46 107/82/46
f 134/14/14 30/84/10 17/82/10
f 107/82/46 124/85/22 125/14/22
f 16/86/9 60/87/31 61/88/31
f 14/89/7 111/8/47 112/9/47
f 138/9/51 11/90/6 12/89/6
f 10/91/5 13/90/7 14/89/7
f 304/92/81 308/93/80 305/94/80
f 12/89/6 7/95/4 8/91/4
f 6/96/3 9/95/5 10/91/5
f 8/91/4 3/97/2 4/96/2
f 35/98/19 127/25/49 74/99/33
f 2/100/1 5/97/3 6/96/3
f 4/96/2 426/101/28 425/100/28
f 2/100/1 428/102/26 1/101/1
f 335/103/55 310/104/82 306/93/82
f 425/100/28 430/102/124 429/105/124
f 431/106/23 428/102/26 427/105/26
f 433/106/21 430/102/124 434/107/21
f 435/108/20 432/107/23 431/106/23
f 437/108/18 434/107/21 438/109/18
f 439/110/17 436/111/20 435/108/20
f 297/112/78 313/93/77 312/104/77
f 441/110/16 438/109/18 442/113/16
f 320/66/81 330/42/80 301/64/80
f 443/114/15 440/113/17 439/110/17
f 445/114/13 442/113/16 446/115/13
f 447/116/12 444/115/15 443/114/15
f 140/94/53 139/103/52 303/92/52
f 445/114/13 450/117/11 449/116/11
f 451/118/10 448/117/12 447/116/12
f 449/116/11 454/119/46 453/118/46
f 25/10/14 452/119/10 451/118/10
f 453/118/46 40/78/22 41/10/22
f 129/120/50 73/121/27 128/122/50
f 455/123/125 59/57/30 456/124/126
f 457/125/127 73/121/27 50/126/27
f 455/123/125 460/127/128 459/128/128
f 457/125/127 462/129/129 458/130/127
f 463/131/130 460/127/128 464/132/130
f 465/133/131 462/129/129 461/134/129
f 467/135/132 464/132/130 468/136/132
f 469/137/133 466/138/131 465/133/131
f 467/135/132 472/139/134 471/140/134
f 469/137/133 474/141/135 470/142/133
f 475/143/136 472/139/134 476/144/136
f 477/145/137 474/141/135 473/146/135
f 475/143/136 480/147/138 479/148/138
f 477/149/137 482/150/139 478/151/137
f 483/152/140 480/147/138 484/153/141
f 485/154/142 482/150/139 481/155/139
f 487/156/143 484/87/141 488/157/143
f 485/154/142 490/158/144 486/159/142
f 487/156/143 492/160/145 491/161/145
f 493/162/146 490/163/144 489/164/144
f 495/165/147 492/160/145 496/166/147
f 497/167/148 494/168/146 493/162/146
f 495/169/147 500/170/149 499/171/149
f 501/172/150 498/173/148 497/167/148
f 503/174/151 500/170/149 504/175/151
f 501/172/150 506/176/152 502/177/150
f 507/178/153 504/175/151 508/179/153
f 509/180/154 506/176/152 505/181/152
f 507/178/153 512/182/156 511/183/155
f 513/184/157 510/185/154 509/180/154
f 515/186/158 512/182/156 516/187/158
f 513/184/157 518/188/159 514/189/157
f 515/186/158 520/190/160 519/191/160
f 521/192/161 518/188/159 517/193/159
f 523/194/162 520/190/160 524/195/162
f 521/192/161 526/196/163 522/197/161
f 523/165/162 528/160/164 527/161/164
f 35/98/19 526/198/163 525/199/163
f 16/86/9 528/160/164 15/200/8
f 163/13/56 195/71/56 211/81/56
f 146/201/57 148/202/59 144/203/57
f 218/204/76 144/203/57 216/205/76
f 205/75/58 173/2/58 157/32/58
f 150/206/59 152/207/60 148/202/59
f 154/208/60 156/209/61 152/210/60
f 158/211/61 160/212/62 156/209/61
f 162/213/62 164/214/63 160/212/62
f 166/215/63 168/216/64 164/214/63
f 170/217/64 172/218/65 168/216/64
f 174/219/65 176/220/66 172/221/65
f 178/222/66 180/223/67 176/220/66
f 182/224/67 184/225/68 180/223/67
f 186/226/68 188/227/69 184/225/68
f 190/228/69 192/229/70 188/227/69
f 194/230/70 196/231/71 192/218/70
f 198/217/71 200/232/72 196/231/71
f 202/215/72 204/212/73 200/232/72
f 206/213/73 208/209/74 204/212/73
f 210/211/74 212/233/75 208/209/74
f 214/234/75 216/205/76 212/235/75
f 287/117/56 243/19/56 259/97/56
f 222/236/57 224/237/59 220/238/57
f 294/239/76 220/238/57 292/240/76
f 225/53/58 269/102/58 253/90/58
f 226/241/59 228/242/60 224/237/59
f 230/243/60 232/244/61 228/245/60
f 234/246/61 236/247/62 232/244/61
f 238/248/62 240/249/63 236/247/62
f 242/250/63 244/251/64 240/249/63
f 246/252/64 248/253/65 244/251/64
f 250/254/65 252/255/66 248/256/65
f 254/257/66 256/258/67 252/255/66
f 258/259/67 260/260/68 256/258/67
f 262/261/68 264/262/69 260/260/68
f 266/263/69 268/264/70 264/262/69
f 270/265/70 272/251/71 268/253/70
f 274/252/71 276/249/72 272/251/71
f 278/250/72 280/247/73 276/249/72
f 282/248/73 284/244/74 280/247/73
f 286/246/74 288/245/75 284/244/74
f 290/266/75 292/240/76 288/267/75
f 349/268/90 381/269/90 413/188/90
f 340/86/88 342/26/91 338/98/88
f 422/199/123 340/86/88 338/98/88
f 419/270/89 387/271/89 355/127/89
f 344/88/91 346/24/94 342/26/91
f 348/272/94 350/273/95 346/24/94
f 350/126/95 356/274/98 354/125/98
f 354/125/98 360/275/99 358/134/99
f 360/275/99 362/133/101 358/134/99
f 362/133/101 368/276/102 366/137/102
f 366/137/102 372/277/104 370/146/104
f 372/278/104 374/149/105 370/279/104
f 374/149/105 380/280/107 378/155/107
f 378/155/107 384/156/108 382/154/108
f 382/154/108 388/161/111 386/281/111
f 388/161/111 390/282/112 386/281/111
f 392/165/112 394/283/114 390/282/112
f 396/171/114 398/284/115 394/285/114
f 400/174/115 402/286/116 398/284/115
f 404/178/116 406/287/117 402/286/116
f 408/183/117 410/288/119 406/287/117
f 412/186/119 414/289/120 410/288/119
f 416/290/120 418/291/122 414/292/120
f 418/291/122 424/161/123 422/199/123
f 76/1/7 75/51/7 83/2/37
f 84/3/37 83/2/37 87/4/39
f 92/6/40 91/13/40 85/4/38
f 137/7/38 136/19/38 135/8/35
f 96/6/34 88/5/39 87/4/39
f 125/14/22 124/85/22 123/15/36
f 90/18/40 89/61/40 136/19/38
f 133/16/32 132/50/32 131/20/14
f 82/21/36 81/53/36 116/22/48
f 129/24/50 128/293/50 127/25/49
f 86/5/38 85/4/38 79/2/35
f 98/29/29 97/33/29 91/13/40
f 96/6/34 95/13/34 103/31/24
f 98/29/29 106/35/45 105/32/45
f 101/34/44 100/48/44 99/22/43
f 109/35/44 104/29/24 103/31/24
f 114/39/48 122/45/48 105/32/45
f 321/41/78 299/65/78 296/42/77
f 109/35/44 108/32/44 119/45/43
f 113/7/39 112/9/47 111/8/47
f 126/16/36 123/15/36 122/45/48
f 117/23/48 116/22/48 115/48/45
f 113/7/39 110/19/39 77/49/34
f 120/39/43 119/45/43 132/50/32
f 72/1/6 80/3/35 79/2/35
f 76/1/7 70/54/5 69/52/5
f 102/23/43 99/22/43 67/53/32
f 72/1/6 71/51/6 65/52/4
f 64/55/3 63/59/3 69/52/5
f 61/56/31 60/294/31 59/57/30
f 66/54/4 65/52/4 57/59/2
f 56/60/29 55/69/29 89/61/40
f 54/62/1 53/63/1 63/59/3
f 52/62/28 58/55/2 57/59/2
f 316/64/53 324/42/53 315/65/52
f 54/62/1 49/68/26 48/67/26
f 52/62/28 51/63/28 46/67/25
f 78/18/34 77/49/34 44/69/24
f 43/70/23 42/71/23 48/67/26
f 41/10/22 40/78/22 81/53/36
f 47/68/25 46/67/25 38/71/21
f 37/72/20 36/73/20 42/71/23
f 39/70/21 38/71/21 33/73/18
f 37/72/20 32/76/17 31/74/17
f 302/65/55 142/41/55 336/43/82
f 34/72/18 33/73/18 28/75/16
f 118/34/45 115/48/45 55/69/29
f 27/77/15 26/79/15 31/74/17
f 68/21/32 67/53/32 24/78/14
f 29/76/16 28/75/16 22/79/13
f 21/80/12 20/81/12 26/79/15
f 23/77/13 22/79/13 18/81/11
f 45/60/24 44/69/24 100/48/44
f 17/82/10 30/84/10 20/81/12
f 19/80/11 18/81/11 121/83/46
f 134/14/14 131/20/14 30/84/10
f 107/82/46 121/83/46 124/85/22
f 16/86/9 15/200/8 60/87/31
f 14/89/7 13/90/7 111/8/47
f 138/9/51 135/8/35 11/90/6
f 10/91/5 9/95/5 13/90/7
f 304/92/81 309/103/81 308/93/80
f 12/89/6 11/90/6 7/95/4
f 6/96/3 5/97/3 9/95/5
f 8/91/4 7/95/4 3/97/2
f 35/98/19 130/26/49 127/25/49
f 2/100/1 1/101/1 5/97/3
f 4/96/2 3/97/2 426/101/28
f 2/100/1 427/105/26 428/102/26
f 335/103/55 311/112/55 310/104/82
f 425/100/28 426/101/28 430/102/124
f 431/106/23 432/107/23 428/102/26
f 433/106/21 429/105/124 430/102/124
f 435/108/20 436/111/20 432/107/23
f 437/108/18 433/106/21 434/107/21
f 439/110/17 440/113/17 436/111/20
f 297/112/78 314/103/78 313/93/77
f 441/110/16 437/108/18 438/109/18
f 320/66/81 333/65/81 330/42/80
f 443/114/15 444/115/15 440/113/17
f 445/114/13 441/110/16 442/113/16
f 447/116/12 448/117/12 444/115/15
f 140/94/53 300/93/53 139/103/52
f 445/114/13 446/115/13 450/117/11
f 451/118/10 452/119/10 448/117/12
f 449/116/11 450/117/11 454/119/46
f 25/10/14 24/78/14 452/119/10
f 453/118/46 454/119/46 40/78/22
f 129/120/50 50/126/27 73/121/27
f 455/123/125 62/58/30 59/57/30
f 457/125/127 458/130/127 73/121/27
f 455/123/125 456/124/126 460/127/128
f 457/125/127 461/134/129 462/129/129
f 463/131/130 459/128/128 460/127/128
f 465/133/131 466/138/131 462/129/129
f 467/135/132 463/131/130 464/132/130
f 469/137/133 470/142/133 466/138/131
f 467/135/132 468/136/132 472/139/134
f 469/137/133 473/146/135 474/141/135
f 475/143/136 471/140/134 472/139/134
f 477/145/137 478/295/137 474/141/135
f 475/143/136 476/144/136 480/147/138
f 477/149/137 481/155/139 482/150/139
f 483/152/140 479/148/138 480/147/138
f 485/154/142 486/159/142 482/150/139
f 487/156/143 483/280/140 484/87/141
f 485/154/142 489/281/144 490/158/144
f 487/156/143 488/157/143 492/160/145
f 493/162/146 494/168/146 490/163/144
f 495/165/147 491/161/145 492/160/145
f 497/167/148 498/173/148 494/168/146
f 495/169/147 496/296/147 500/170/149
f 501/172/150 502/177/150 498/173/148
f 503/174/151 499/171/149 500/170/149
f 501/172/150 505/181/152 506/176/152
f 507/178/153 503/174/151 504/175/151
f 509/180/154 510/185/154 506/176/152
f 507/178/153 508/179/153 512/182/156
f 513/184/157 514/189/157 510/185/154
f 515/186/158 511/183/155 512/182/156
f 513/184/157 517/193/159 518/188/159
f 515/186/158 516/187/158 520/190/160
f 521/192/161 522/197/161 518/188/159
f 523/194/162 519/191/160 520/190/160
f 521/192/161 525/297/163 526/196/163
f 523/165/162 524/166/162 528/160/164
f 35/98/19 74/99/33 526/198/163
f 16/86/9 527/161/164 528/160/164
f 215/84/56 143/20/56 147/50/56
f 147/50/56 151/45/56 155/32/56
f 155/32/56 159/31/56 163/13/56
f 163/13/56 167/4/56 171/2/56
f 171/2/56 175/51/56 179/52/56
f 179/52/56 183/59/56 187/63/56
f 187/63/56 191/67/56 195/71/56
f 195/71/56 199/73/56 203/74/56
f 203/74/56 207/79/56 211/81/56
f 211/81/56 215/84/56 147/50/56
f 147/50/56 155/32/56 163/13/56
f 163/13/56 171/2/56 179/52/56
f 179/52/56 187/63/56 195/71/56
f 195/71/56 203/74/56 211/81/56
f 211/81/56 147/50/56 163/13/56
f 163/13/56 179/52/56 195/71/56
f 146/201/57 150/206/59 148/202/59
f 218/204/76 146/201/57 144/203/57
f 153/45/58 149/15/58 145/85/58
f 145/85/58 217/83/58 213/81/58
f 213/81/58 209/79/58 205/75/58
f 205/75/58 201/73/58 197/71/58
f 197/71/58 193/67/58 189/63/58
f 189/63/58 185/59/58 181/52/58
f 181/52/58 177/51/58 173/2/58
f 173/2/58 169/4/58 165/13/58
f 165/13/58 161/33/58 157/32/58
f 157/32/58 153/45/58 145/85/58
f 145/85/58 213/81/58 205/75/58
f 205/75/58 197/71/58 189/63/58
f 189/63/58 181/52/58 173/2/58
f 173/2/58 165/13/58 157/32/58
f 157/32/58 145/85/58 205/75/58
f 205/75/58 189/63/58 173/2/58
f 150/206/59 154/298/60 152/207/60
f 154/208/60 158/211/61 156/209/61
f 158/211/61 162/213/62 160/212/62
f 162/213/62 166/215/63 164/214/63
f 166/215/63 170/217/64 168/216/64
f 170/217/64 174/230/65 172/218/65
f 174/219/65 178/222/66 176/220/66
f 178/222/66 182/224/67 180/223/67
f 182/224/67 186/226/68 184/225/68
f 186/226/68 190/228/69 188/227/69
f 190/228/69 194/299/70 192/229/70
f 194/230/70 198/217/71 196/231/71
f 198/217/71 202/215/72 200/232/72
f 202/215/72 206/213/73 204/212/73
f 206/213/73 210/211/74 208/209/74
f 210/211/74 214/208/75 212/233/75
f 214/234/75 218/204/76 216/205/76
f 263/101/56 267/102/56 271/107/56
f 271/107/56 275/111/56 279/113/56
f 279/113/56 283/115/56 287/117/56
f 287/117/56 291/119/56 219/78/56
f 219/78/56 223/53/56 227/22/56
f 227/22/56 231/48/56 235/69/56
f 235/69/56 239/49/56 243/19/56
f 243/19/56 247/8/56 251/90/56
f 251/90/56 255/95/56 259/97/56
f 259/97/56 263/101/56 271/107/56
f 271/107/56 279/113/56 287/117/56
f 287/117/56 219/78/56 227/22/56
f 227/22/56 235/69/56 243/19/56
f 243/19/56 251/90/56 259/97/56
f 259/97/56 271/107/56 287/117/56
f 287/117/56 227/22/56 243/19/56
f 222/236/57 226/241/59 224/237/59
f 294/239/76 222/236/57 220/238/57
f 249/8/58 245/19/58 241/61/58
f 241/61/58 237/69/58 233/48/58
f 233/48/58 229/22/58 225/53/58
f 225/53/58 221/78/58 293/119/58
f 293/119/58 289/117/58 285/115/58
f 285/115/58 281/113/58 277/109/58
f 277/109/58 273/107/58 269/102/58
f 269/102/58 265/101/58 261/97/58
f 261/97/58 257/95/58 253/90/58
f 253/90/58 249/8/58 241/61/58
f 241/61/58 233/48/58 225/53/58
f 225/53/58 293/119/58 285/115/58
f 285/115/58 277/109/58 269/102/58
f 269/102/58 261/97/58 253/90/58
f 253/90/58 241/61/58 225/53/58
f 225/53/58 285/115/58 269/102/58
f 226/241/59 230/300/60 228/242/60
f 230/243/60 234/246/61 232/244/61
f 234/246/61 238/248/62 236/247/62
f 238/248/62 242/250/63 240/249/63
f 242/250/63 246/252/64 244/251/64
f 246/252/64 250/265/65 248/253/65
f 250/254/65 254/257/66 252/255/66
f 254/257/66 258/259/67 256/258/67
f 258/259/67 262/261/68 260/260/68
f 262/261/68 266/263/69 264/262/69
f 266/263/69 270/301/70 268/264/70
f 270/265/70 274/252/71 272/251/71
f 274/252/71 278/250/72 276/249/72
f 278/250/72 282/248/73 280/247/73
f 282/248/73 286/246/74 284/244/74
f 286/246/74 290/243/75 288/245/75
f 290/266/75 294/239/76 292/240/76
f 421/196/90 337/302/87 341/303/90
f 341/303/90 345/304/93 349/268/90
f 349/268/90 353/305/97 357/306/90
f 357/306/90 361/307/90 365/308/90
f 365/308/90 369/309/87 373/310/90
f 373/310/90 377/311/87 381/269/90
f 381/269/90 385/163/110 389/168/90
f 389/168/90 393/173/97 397/177/90
f 397/177/90 401/176/90 405/185/90
f 405/185/90 409/189/90 413/188/90
f 413/188/90 417/197/87 421/196/90
f 421/196/90 341/303/90 349/268/90
f 349/268/90 357/306/90 365/308/90
f 365/308/90 373/310/90 381/269/90
f 381/269/90 389/168/90 397/177/90
f 397/177/90 405/185/90 413/188/90
f 413/188/90 421/196/90 349/268/90
f 349/268/90 365/308/90 381/269/90
f 381/269/90 397/177/90 413/188/90
f 340/86/88 344/88/91 342/26/91
f 422/199/123 424/161/123 340/86/88
f 347/57/89 343/294/92 339/312/89
f 339/312/89 423/313/109 419/270/89
f 419/270/89 415/314/121 411/315/89
f 411/315/89 407/316/118 403/317/89
f 403/317/89 399/318/89 395/319/89
f 395/319/89 391/320/113 387/271/89
f 387/271/89 383/321/109 379/153/89
f 379/153/89 375/147/106 371/144/89
f 371/144/89 367/139/103 363/136/89
f 363/136/89 359/132/100 355/127/89
f 355/127/89 351/124/96 347/57/89
f 347/57/89 339/312/89 419/270/89
f 419/270/89 411/315/89 403/317/89
f 403/317/89 395/319/89 387/271/89
f 387/271/89 379/153/89 371/144/89
f 371/144/89 363/136/89 355/127/89
f 355/127/89 347/57/89 419/270/89
f 419/270/89 403/317/89 387/271/89
f 387/271/89 371/144/89 355/127/89
f 344/88/91 348/272/94 346/24/94
f 348/272/94 352/278/95 350/273/95
f 350/126/95 352/322/95 356/274/98
f 354/125/98 356/274/98 360/275/99
f 360/275/99 364/323/101 362/133/101
f 362/133/101 364/323/101 368/276/102
f 366/137/102 368/276/102 372/277/104
f 372/278/104 376/272/105 374/149/105
f 374/149/105 376/272/105 380/280/107
f 378/155/107 380/280/107 384/156/108
f 382/154/108 384/156/108 388/161/111
f 388/161/111 392/165/112 390/282/112
f 392/165/112 396/290/114 394/283/114
f 396/171/114 400/174/115 398/284/115
f 400/174/115 404/178/116 402/286/116
f 404/178/116 408/183/117 406/287/117
f 408/183/117 412/186/119 410/288/119
f 412/186/119 416/191/120 414/289/120
f 416/290/120 420/165/122 418/291/122
f 418/291/122 420/165/122 424/161/123
