# Blender 5.2.0 LTS
# www.blender.org
o Backdrop_Sandcastle
v 0.000000 0.000000 -29.534126
v 0.000000 0.450000 -30.000000
v -16.970562 37.000000 -11.457638
v -16.970562 7.000000 -11.457638
v -13.072336 37.000000 -13.072336
v -12.727921 36.549999 -12.727921
v -12.727921 36.549999 -12.727921
v 12.365229 37.000000 -21.575893
v 12.174951 37.402424 -21.766174
v 12.174951 37.402424 -21.766174
v -10.457638 37.000000 16.970562
v -12.365229 37.000000 21.575893
v -12.174951 37.402424 21.766174
v -12.174951 37.402424 21.766174
v -10.188542 37.402424 16.970562
v -10.188542 37.402424 16.970562
v -10.457638 37.000000 -16.970562
v -12.365230 37.000000 -12.365230
v -12.174950 37.402424 -12.174949
v -12.174950 37.402424 -12.174949
v -10.188542 37.402424 -16.970562
v -10.188542 37.402424 -16.970562
v 10.457638 37.000000 -16.970562
v 10.188542 37.402424 -16.970562
v 10.188542 37.402424 -16.970562
v -16.970562 7.000000 -22.483484
v -13.072335 7.000000 -20.868788
v -16.970562 7.450000 -22.970562
v -16.970562 7.450000 -22.970562
v 12.365230 37.000000 -12.365230
v 12.174949 37.402424 -12.174950
v 12.174949 37.402424 -12.174950
v 16.970562 37.000000 -10.457638
v 16.970562 37.402424 -10.188542
v 16.970562 37.402424 -10.188542
v -11.457638 37.000000 -16.970562
v 13.072335 37.000000 -20.868788
v 13.072335 7.000000 -20.868788
v -11.457638 7.000000 16.970562
v -13.072335 7.000000 20.868788
v 11.457638 37.000000 -16.970562
v 11.457638 7.000000 -16.970562
v -11.457638 7.000000 -16.970562
v -13.072336 7.000000 -13.072336
v -12.727921 7.450000 -12.727921
v -12.727921 7.450000 -12.727921
v 13.072336 37.000000 -13.072336
v 12.727921 36.549999 -12.727921
v 12.727921 36.549999 -12.727921
v -13.072335 37.000000 -20.868788
v -16.970562 37.000000 -22.483484
v -16.970562 36.549999 -22.970562
v -16.970562 36.549999 -22.970562
v 13.072336 7.000000 -13.072336
v 12.727921 7.450000 -12.727921
v 12.727921 7.450000 -12.727921
v -7.767062 34.000000 -13.452948
v -8.000000 33.549999 -13.856406
v -7.767062 24.000000 -13.452948
v -8.000000 24.450001 -13.856406
v -13.452948 34.000000 -7.767062
v -13.856406 33.549999 -8.000000
v -13.452948 24.000000 -7.767062
v -13.856406 24.450001 -8.000000
v -15.534125 34.000000 -0.000000
v -16.000000 33.549999 0.000000
v -15.534125 24.000000 0.000000
v -16.000000 24.450001 0.000000
v 16.970562 7.000000 -22.483484
v 16.970562 7.450000 -22.970562
v 16.970562 7.450000 -22.970562
v -13.452948 34.000000 7.767062
v -13.856406 33.549999 8.000000
v -13.452948 24.000000 7.767062
v -13.856406 24.450001 8.000000
v -7.767062 34.000000 13.452948
v -8.000000 33.549999 13.856406
v -7.767062 24.000000 13.452948
v -8.000000 24.450001 13.856406
v 23.483484 37.000000 -16.970562
v 21.575893 37.000000 -12.365229
v 21.766174 37.402424 -12.174949
v 21.766174 37.402424 -12.174949
v 23.752579 37.402420 -16.970560
v 23.752579 37.402420 -16.970560
v -0.000000 34.000000 15.534125
v 0.000000 33.549999 16.000000
v 0.000000 24.000000 15.534125
v 0.000000 24.450001 16.000000
v 16.970562 37.000000 -22.483484
v 16.970562 36.549999 -22.970562
v 16.970562 36.549999 -22.970562
v 7.767062 34.000000 13.452948
v 8.000000 33.549999 13.856406
v 7.767062 24.000000 13.452948
v 8.000000 24.450001 13.856406
v -11.267065 25.000000 -19.515125
v -11.500000 24.549999 -19.918585
v 22.483484 37.000000 -16.970562
v 20.868788 37.000000 -20.868788
v 22.970562 36.549999 -16.970562
v 22.970562 36.549999 -16.970562
v -11.267065 13.000000 -19.515125
v -11.500000 13.450000 -19.918585
v -19.515125 25.000000 -11.267065
v -19.918585 24.549999 -11.500000
v -19.515125 13.000000 -11.267065
v -19.918585 13.450000 -11.500000
v -22.534126 25.000000 -0.000000
v -23.000000 24.549999 0.000000
v -0.000000 24.000000 -15.534125
v 0.000000 24.450001 -16.000000
v -22.534126 13.000000 0.000000
v -23.000000 13.450000 0.000000
v -19.515125 25.000000 11.267065
v -19.918585 24.549999 11.500000
v 16.970562 37.000000 -23.483484
v 21.575893 37.000000 -21.575893
v 21.766174 37.402424 -21.766172
v 21.766174 37.402424 -21.766172
v 16.970564 37.402424 -23.752581
v 16.970564 37.402424 -23.752581
v -19.515125 13.000000 11.267065
v -19.918585 13.450000 11.500000
v -11.267065 25.000000 19.515125
v -11.500000 24.549999 19.918585
v -11.267065 13.000000 19.515125
v -11.500000 13.450000 19.918585
v -0.000000 25.000000 22.534126
v 0.000000 24.549999 23.000000
v 0.000000 34.000000 -15.534125
v 0.000000 33.549999 -16.000000
v 0.000000 13.000000 22.534126
v 0.000000 13.450000 23.000000
v 11.267065 25.000000 19.515125
v 11.500000 24.549999 19.918585
v 11.267065 13.000000 19.515125
v 11.500000 13.450000 19.918585
v -14.767062 14.000000 -25.577305
v -15.000000 13.550000 -25.980762
v -14.767062 0.000000 -25.577305
v -15.000000 0.450000 -25.980762
v -25.577305 14.000000 -14.767062
v -25.980762 13.550000 -15.000000
v -25.577305 0.000000 -14.767062
v -25.980762 0.450000 -15.000000
v 20.868788 7.000000 -13.072335
v 16.970562 7.000000 -11.457638
v -29.534126 14.000000 0.000000
v -30.000000 13.550000 0.000000
v -0.000000 13.000000 -22.534126
v 0.000000 13.450000 -23.000000
v -29.534126 0.000000 0.000000
v -30.000000 0.450000 0.000000
v -25.577305 14.000000 14.767062
v -25.980762 13.550000 15.000000
v 13.452948 34.000000 -7.767062
v 7.767062 34.000000 -13.452948
v 8.000000 33.549999 -13.856406
v 13.856406 33.549999 -8.000000
v -25.577305 0.000000 14.767062
v -25.980762 0.450000 15.000000
v 20.868788 7.000000 -20.868788
v 22.483484 7.000000 -16.970562
v 22.970562 7.450000 -16.970562
v 22.970562 7.450000 -16.970562
v -14.767062 14.000000 25.577305
v -15.000000 13.550000 25.980762
v 16.970562 37.000000 -11.457638
v 20.868788 37.000000 -13.072335
v -14.767062 0.000000 25.577305
v -15.000000 0.450000 25.980762
v 0.000000 14.000000 29.534126
v 0.000000 13.550000 30.000000
v 0.000000 25.000000 -22.534126
v 0.000000 24.549999 -23.000000
v 0.000000 0.000000 29.534126
v 0.000000 0.450000 30.000000
v 14.767062 14.000000 25.577305
v 15.000000 13.550000 25.980762
v 14.767062 0.000000 25.577305
v 15.000000 0.450000 25.980762
v 15.534125 24.000000 -0.000000
v 13.452948 24.000000 7.767062
v 13.856406 24.450001 8.000000
v 16.000000 24.450001 0.000000
v 25.577305 14.000000 14.767062
v 25.980762 13.550000 15.000000
v 25.577305 0.000000 14.767062
v 25.980762 0.450000 15.000000
v 22.534126 13.000000 -0.000000
v 19.515125 13.000000 11.267065
v 19.918585 13.450000 11.500000
v 23.000000 13.450000 0.000000
v 29.534126 14.000000 0.000000
v 30.000000 13.550000 0.000000
v 13.452948 34.000000 7.767062
v 15.534125 34.000000 0.000000
v 16.000000 33.549999 0.000000
v 13.856406 33.549999 8.000000
v 29.534126 0.000000 0.000000
v 30.000000 0.450000 0.000000
v 25.577305 14.000000 -14.767062
v 25.980762 13.550000 -15.000000
v 11.267065 13.000000 -19.515125
v 19.515125 13.000000 -11.267065
v 19.918585 13.450000 -11.500000
v 11.500000 13.450000 -19.918585
v 25.577305 0.000000 -14.767062
v 25.980762 0.450000 -15.000000
v 19.515125 25.000000 11.267065
v 22.534126 25.000000 0.000000
v 23.000000 24.549999 0.000000
v 19.918585 24.549999 11.500000
v 14.767062 14.000000 -25.577305
v 0.000000 14.000000 -29.534126
v 0.000000 13.550000 -30.000000
v 15.000000 13.550000 -25.980762
v 7.767062 24.000000 -13.452948
v 13.452948 24.000000 -7.767062
v 13.856406 24.450001 -8.000000
v 8.000000 24.450001 -13.856406
v 19.515125 25.000000 -11.267065
v 11.267065 25.000000 -19.515125
v 11.500000 24.549999 -19.918585
v 19.918585 24.549999 -11.500000
v 0.000000 0.000000 -29.534126
v 14.767062 0.000000 -25.577305
v 15.000000 0.450000 -25.980762
v 0.000000 0.450000 -30.000000
v 0.000000 14.000000 -29.534126
v 0.000000 13.550000 -30.000000
v 14.767062 0.000000 -25.577305
v 15.000000 0.450000 -25.980762
v 14.767062 14.000000 -25.577305
v 15.000000 13.550000 -25.980762
v 25.577305 0.000000 -14.767062
v 25.980762 0.450000 -15.000000
v 25.577305 14.000000 -14.767062
v 25.980762 13.550000 -15.000000
v 29.534126 0.000000 0.000000
v 30.000000 0.450000 0.000000
v 29.534126 14.000000 0.000000
v 30.000000 13.550000 0.000000
v 25.577305 0.000000 14.767062
v 25.980762 0.450000 15.000000
v 25.577305 14.000000 14.767062
v 25.980762 13.550000 15.000000
v 14.767062 0.000000 25.577305
v 15.000000 0.450000 25.980762
v 14.767062 14.000000 25.577305
v 15.000000 13.550000 25.980762
v 0.000000 0.000000 29.534126
v 0.000000 0.450000 30.000000
v 0.000000 14.000000 29.534126
v 0.000000 13.550000 30.000000
v -14.767062 0.000000 25.577305
v -15.000000 0.450000 25.980762
v -14.767062 14.000000 25.577305
v -15.000000 13.550000 25.980762
v -25.577305 0.000000 14.767062
v -25.980762 0.450000 15.000000
v -25.577305 14.000000 14.767062
v -25.980762 13.550000 15.000000
v -29.534126 0.000000 0.000000
v -30.000000 0.450000 0.000000
v -29.534126 14.000000 0.000000
v -30.000000 13.550000 0.000000
v -25.577305 0.000000 -14.767062
v -25.980762 0.450000 -15.000000
v -25.577305 14.000000 -14.767062
v -25.980762 13.550000 -15.000000
v -14.767062 0.000000 -25.577305
v -15.000000 0.450000 -25.980762
v -14.767062 14.000000 -25.577305
v -15.000000 13.550000 -25.980762
v -0.000000 13.000000 -22.534126
v 0.000000 13.450000 -23.000000
v 0.000000 25.000000 -22.534126
v 0.000000 24.549999 -23.000000
v 11.267065 13.000000 -19.515125
v 11.500000 13.450000 -19.918585
v 11.267065 25.000000 -19.515125
v 11.500000 24.549999 -19.918585
v 19.515125 13.000000 -11.267065
v 19.918585 13.450000 -11.500000
v 19.515125 25.000000 -11.267065
v 19.918585 24.549999 -11.500000
v 22.534126 13.000000 -0.000000
v 23.000000 13.450000 0.000000
v 22.534126 25.000000 0.000000
v 23.000000 24.549999 0.000000
v 19.515125 13.000000 11.267065
v 19.918585 13.450000 11.500000
v 19.515125 25.000000 11.267065
v 19.918585 24.549999 11.500000
v 11.267065 13.000000 19.515125
v 11.500000 13.450000 19.918585
v 11.267065 25.000000 19.515125
v 11.500000 24.549999 19.918585
v 0.000000 13.000000 22.534126
v 0.000000 13.450000 23.000000
v -0.000000 25.000000 22.534126
v 0.000000 24.549999 23.000000
v -11.267065 13.000000 19.515125
v -11.500000 13.450000 19.918585
v -11.267065 25.000000 19.515125
v -11.500000 24.549999 19.918585
v -19.515125 13.000000 11.267065
v -19.918585 13.450000 11.500000
v -19.515125 25.000000 11.267065
v -19.918585 24.549999 11.500000
v -22.534126 13.000000 0.000000
v -23.000000 13.450000 0.000000
v -22.534126 25.000000 -0.000000
v -23.000000 24.549999 0.000000
v -19.515125 13.000000 -11.267065
v -19.918585 13.450000 -11.500000
v -19.515125 25.000000 -11.267065
v -19.918585 24.549999 -11.500000
v -11.267065 13.000000 -19.515125
v -11.500000 13.450000 -19.918585
v -11.267065 25.000000 -19.515125
v -11.500000 24.549999 -19.918585
v -0.000000 24.000000 -15.534125
v 0.000000 24.450001 -16.000000
v 0.000000 34.000000 -15.534125
v 0.000000 33.549999 -16.000000
v 7.767062 24.000000 -13.452948
v 8.000000 24.450001 -13.856406
v 7.767062 34.000000 -13.452948
v 8.000000 33.549999 -13.856406
v 13.452948 24.000000 -7.767062
v 13.856406 24.450001 -8.000000
v 13.452948 34.000000 -7.767062
v 13.856406 33.549999 -8.000000
v 15.534125 24.000000 -0.000000
v 16.000000 24.450001 0.000000
v 15.534125 34.000000 0.000000
v 16.000000 33.549999 0.000000
v 13.452948 24.000000 7.767062
v 13.856406 24.450001 8.000000
v 13.452948 34.000000 7.767062
v 13.856406 33.549999 8.000000
v 7.767062 24.000000 13.452948
v 8.000000 24.450001 13.856406
v 7.767062 34.000000 13.452948
v 8.000000 33.549999 13.856406
v 0.000000 24.000000 15.534125
v 0.000000 24.450001 16.000000
v -0.000000 34.000000 15.534125
v 0.000000 33.549999 16.000000
v -7.767062 24.000000 13.452948
v -8.000000 24.450001 13.856406
v -7.767062 34.000000 13.452948
v -8.000000 33.549999 13.856406
v -13.452948 24.000000 7.767062
v -13.856406 24.450001 8.000000
v -13.452948 34.000000 7.767062
v -13.856406 33.549999 8.000000
v -15.534125 24.000000 0.000000
v -16.000000 24.450001 0.000000
v -15.534125 34.000000 -0.000000
v -16.000000 33.549999 0.000000
v -13.452948 24.000000 -7.767062
v -13.856406 24.450001 -8.000000
v -13.452948 34.000000 -7.767062
v -13.856406 33.549999 -8.000000
v -7.767062 24.000000 -13.452948
v -8.000000 24.450001 -13.856406
v -7.767062 34.000000 -13.452948
v -8.000000 33.549999 -13.856406
v 16.970562 7.000000 -22.483484
v 16.970562 7.450000 -22.970562
v 16.970562 37.000000 -22.483484
v 16.970562 36.549999 -22.970562
v 20.868788 7.000000 -20.868788
v 20.797457 7.450000 -21.385410
v 21.385410 7.450000 -20.797457
v 20.868788 37.000000 -20.868788
v 21.385410 36.549999 -20.797457
v 20.797457 36.549999 -21.385410
v 22.483484 7.000000 -16.970562
v 22.970562 7.450000 -16.970562
v 22.483484 37.000000 -16.970562
v 22.970562 36.549999 -16.970562
v 20.868788 7.000000 -13.072335
v 21.385410 7.450000 -13.143667
v 20.797457 7.450000 -12.555714
v 20.868788 37.000000 -13.072335
v 20.797457 36.549999 -12.555714
v 21.385410 36.549999 -13.143667
v 16.970562 7.000000 -11.457638
v 17.386309 7.450000 -11.142770
v 16.554815 7.450000 -11.142770
v 16.970562 37.000000 -11.457638
v 16.554815 36.549999 -11.142770
v 17.386309 36.549999 -11.142770
v 13.072336 7.000000 -13.072336
v 12.727921 7.450000 -12.727921
v 13.072336 37.000000 -13.072336
v 12.727921 36.549999 -12.727921
v 11.457638 7.000000 -16.970562
v 11.142770 7.450000 -16.554815
v 11.142770 7.450000 -17.386309
v 11.457638 37.000000 -16.970562
v 11.142770 36.549999 -17.386309
v 11.142770 36.549999 -16.554815
v 13.072335 7.000000 -20.868788
v 12.555714 7.450000 -20.797457
v 13.143667 7.450000 -21.385410
v 13.072335 37.000000 -20.868788
v 13.143667 36.549999 -21.385410
v 12.555714 36.549999 -20.797457
v 16.970562 37.000000 -23.483484
v 16.970564 37.402424 -23.752581
v 16.970562 49.000000 -16.983484
v 16.970562 48.597576 -17.688540
v 21.575893 37.000000 -21.575893
v 21.766174 37.402424 -21.766172
v 16.979700 49.000000 -16.979700
v 17.478251 48.597576 -17.478251
v 23.483484 37.000000 -16.970562
v 23.752579 37.402420 -16.970560
v 16.983484 49.000000 -16.970562
v 17.688543 48.597576 -16.970560
v 21.575893 37.000000 -12.365229
v 21.766174 37.402424 -12.174949
v 16.979700 49.000000 -16.961424
v 17.478251 48.597576 -16.462873
v 16.970562 37.000000 -10.457638
v 16.970562 37.402424 -10.188542
v 16.970562 49.000000 -16.957640
v 16.970562 48.597576 -16.252583
v 12.365230 37.000000 -12.365230
v 12.174949 37.402424 -12.174950
v 16.961424 49.000000 -16.961424
v 16.462873 48.597576 -16.462873
v 10.457638 37.000000 -16.970562
v 10.188542 37.402424 -16.970562
v 16.957640 49.000000 -16.970562
v 16.252581 48.597576 -16.970564
v 12.365229 37.000000 -21.575893
v 12.174951 37.402424 -21.766174
v 16.961424 49.000000 -16.979700
v 16.462873 48.597576 -17.478251
v -16.970562 7.000000 -22.483484
v -16.970562 7.450000 -22.970562
v -16.970562 37.000000 -22.483484
v -16.970562 36.549999 -22.970562
v -13.072335 7.000000 -20.868788
v -13.143667 7.450000 -21.385410
v -12.555714 7.450000 -20.797457
v -13.072335 37.000000 -20.868788
v -12.555714 36.549999 -20.797457
v -13.143667 36.549999 -21.385410
v -11.457638 7.000000 -16.970562
v -11.142770 7.450000 -17.386309
v -11.142770 7.450000 -16.554815
v -11.457638 37.000000 -16.970562
v -11.142770 36.549999 -16.554815
v -11.142770 36.549999 -17.386309
v -13.072336 7.000000 -13.072336
v -12.727921 7.450000 -12.727921
v -13.072336 37.000000 -13.072336
v -12.727921 36.549999 -12.727921
v -16.970562 7.000000 -11.457638
v -16.554815 7.450000 -11.142770
v -17.386309 7.450000 -11.142770
v -16.970562 37.000000 -11.457638
v -17.386309 36.549999 -11.142770
v -16.554815 36.549999 -11.142770
v -20.868788 7.000000 -13.072335
v -20.797457 7.450000 -12.555714
v -21.385410 7.450000 -13.143667
v -20.868788 37.000000 -13.072335
v -21.385410 36.549999 -13.143667
v -20.797457 36.549999 -12.555714
v -22.483484 7.000000 -16.970562
v -22.970562 7.450000 -16.970562
v -22.483484 37.000000 -16.970562
v -22.970562 36.549999 -16.970562
v -20.868788 7.000000 -20.868788
v -21.385410 7.450000 -20.797457
v -20.797457 7.450000 -21.385410
v -20.868788 37.000000 -20.868788
v -20.797457 36.549999 -21.385410
v -21.385410 36.549999 -20.797457
v -16.970562 37.000000 -23.483484
v -16.970560 37.402420 -23.752579
v -16.970562 49.000000 -16.983484
v -16.970560 48.597576 -17.688543
v -12.365229 37.000000 -21.575893
v -12.174949 37.402424 -21.766174
v -16.961424 49.000000 -16.979700
v -16.462873 48.597576 -17.478251
v -10.457638 37.000000 -16.970562
v -10.188542 37.402424 -16.970562
v -16.957640 49.000000 -16.970562
v -16.252583 48.597576 -16.970562
v -12.365230 37.000000 -12.365230
v -12.174950 37.402424 -12.174949
v -16.961424 49.000000 -16.961424
v -16.462873 48.597576 -16.462873
v -16.970562 37.000000 -10.457638
v -16.970562 37.402424 -10.188542
v -16.970562 49.000000 -16.957640
v -16.970564 48.597576 -16.252581
v -21.575893 37.000000 -12.365229
v -21.766174 37.402424 -12.174951
v -16.979700 49.000000 -16.961424
v -17.478251 48.597576 -16.462873
v -23.483484 37.000000 -16.970562
v -23.752581 37.402424 -16.970564
v -16.983484 49.000000 -16.970562
v -17.688540 48.597576 -16.970562
v -21.575893 37.000000 -21.575893
v -21.766172 37.402424 -21.766174
v -16.979700 49.000000 -16.979700
v -17.478251 48.597576 -17.478251
v -16.970562 7.000000 11.457638
v -17.386309 7.450000 11.142770
v -16.554815 7.450000 11.142770
v -16.970562 37.000000 11.457638
v -16.554815 36.549999 11.142770
v -17.386309 36.549999 11.142770
v -13.072336 7.000000 13.072336
v -12.727921 7.450000 12.727921
v -13.072336 37.000000 13.072336
v -12.727921 36.549999 12.727921
v -11.457638 7.000000 16.970562
v -11.142770 7.450000 16.554815
v -11.142770 7.450000 17.386309
v -11.457638 37.000000 16.970562
v -11.142770 36.549999 17.386309
v -11.142770 36.549999 16.554815
v -13.072335 7.000000 20.868788
v -12.555714 7.450000 20.797457
v -13.143667 7.450000 21.385410
v -13.072335 37.000000 20.868788
v -13.143667 36.549999 21.385410
v -12.555714 36.549999 20.797457
v -16.970562 7.000000 22.483484
v -16.970562 7.450000 22.970562
v -16.970562 37.000000 22.483484
v -16.970562 36.549999 22.970562
v -20.868788 7.000000 20.868788
v -20.797457 7.450000 21.385410
v -21.385410 7.450000 20.797457
v -20.868788 37.000000 20.868788
v -21.385410 36.549999 20.797457
v -20.797457 36.549999 21.385410
v -22.483484 7.000000 16.970562
v -22.970562 7.450000 16.970562
v -22.483484 37.000000 16.970562
v -22.970562 36.549999 16.970562
v -20.868788 7.000000 13.072335
v -21.385410 7.450000 13.143667
v -20.797457 7.450000 12.555714
v -20.868788 37.000000 13.072335
v -20.797457 36.549999 12.555714
v -21.385410 36.549999 13.143667
v -16.970562 37.000000 10.457638
v -16.970562 37.402424 10.188542
v -16.970562 49.000000 16.957640
v -16.970562 48.597576 16.252583
v -12.365230 37.000000 12.365230
v -12.174949 37.402424 12.174950
v -16.961424 49.000000 16.961424
v -16.462873 48.597576 16.462873
v -10.457638 37.000000 16.970562
v -10.188542 37.402424 16.970562
v -16.957640 49.000000 16.970562
v -16.252581 48.597576 16.970564
v -12.365229 37.000000 21.575893
v -12.174951 37.402424 21.766174
v -16.961424 49.000000 16.979700
v -16.462873 48.597576 17.478251
v -16.970562 37.000000 23.483484
v -16.970564 37.402424 23.752581
v -16.970562 49.000000 16.983484
v -16.970562 48.597576 17.688540
v -21.575893 37.000000 21.575893
v -21.766174 37.402424 21.766172
v -16.979700 49.000000 16.979700
v -17.478251 48.597576 17.478251
v -23.483484 37.000000 16.970562
v -23.752579 37.402420 16.970560
v -16.983484 49.000000 16.970562
v -17.688543 48.597576 16.970560
v -21.575893 37.000000 12.365229
v -21.766174 37.402424 12.174949
v -16.979700 49.000000 16.961424
v -17.478251 48.597576 16.462873
v 16.970562 7.000000 11.457638
v 16.554815 7.450000 11.142770
v 17.386309 7.450000 11.142770
v 16.970562 37.000000 11.457638
v 17.386309 36.549999 11.142770
v 16.554815 36.549999 11.142770
v 20.868788 7.000000 13.072335
v 20.797457 7.450000 12.555714
v 21.385410 7.450000 13.143667
v 20.868788 37.000000 13.072335
v 21.385410 36.549999 13.143667
v 20.797457 36.549999 12.555714
v 22.483484 7.000000 16.970562
v 22.970562 7.450000 16.970562
v 22.483484 37.000000 16.970562
v 22.970562 36.549999 16.970562
v 20.868788 7.000000 20.868788
v 21.385410 7.450000 20.797457
v 20.797457 7.450000 21.385410
v 20.868788 37.000000 20.868788
v 20.797457 36.549999 21.385410
v 21.385410 36.549999 20.797457
v 16.970562 7.000000 22.483484
v 16.970562 7.450000 22.970562
v 16.970562 37.000000 22.483484
v 16.970562 36.549999 22.970562
v 13.072335 7.000000 20.868788
v 13.143667 7.450000 21.385410
v 12.555714 7.450000 20.797457
v 13.072335 37.000000 20.868788
v 12.555714 36.549999 20.797457
v 13.143667 36.549999 21.385410
v 11.457638 7.000000 16.970562
v 11.142770 7.450000 17.386309
v 11.142770 7.450000 16.554815
v 11.457638 37.000000 16.970562
v 11.142770 36.549999 16.554815
v 11.142770 36.549999 17.386309
v 13.072336 7.000000 13.072336
v 12.727921 7.450000 12.727921
v 13.072336 37.000000 13.072336
v 12.727921 36.549999 12.727921
v 16.970562 37.000000 10.457638
v 16.970562 37.402424 10.188542
v 16.970562 49.000000 16.957640
v 16.970564 48.597576 16.252581
v 21.575893 37.000000 12.365229
v 21.766174 37.402424 12.174951
v 16.979700 49.000000 16.961424
v 17.478251 48.597576 16.462873
v 23.483484 37.000000 16.970562
v 23.752581 37.402424 16.970564
v 16.983484 49.000000 16.970562
v 17.688540 48.597576 16.970562
v 21.575893 37.000000 21.575893
v 21.766172 37.402424 21.766174
v 16.979700 49.000000 16.979700
v 17.478251 48.597576 17.478251
v 16.970562 37.000000 23.483484
v 16.970560 37.402420 23.752579
v 16.970562 49.000000 16.983484
v 16.970560 48.597576 17.688543
v 12.365229 37.000000 21.575893
v 12.174949 37.402424 21.766174
v 16.961424 49.000000 16.979700
v 16.462873 48.597576 17.478251
v 10.457638 37.000000 16.970562
v 10.188542 37.402424 16.970562
v 16.957640 49.000000 16.970562
v 16.252583 48.597576 16.970562
v 12.365230 37.000000 12.365230
v 12.174950 37.402424 12.174949
v 16.961424 49.000000 16.961424
v 16.462873 48.597576 16.462873
v 0.000000 -0.500000 -45.538429
v 0.000000 -0.050000 -46.000000
v 0.000000 2.500000 -45.538429
v 0.000000 2.050000 -46.000000
v 19.758379 -0.500000 -41.028709
v 19.958652 -0.050000 -41.444569
v 19.758379 2.500000 -41.028709
v 19.958652 2.050000 -41.444569
v 35.603371 -0.500000 -28.392750
v 35.964245 -0.050000 -28.680534
v 35.603371 2.500000 -28.392750
v 35.964245 2.050000 -28.680534
v 44.396683 -0.500000 -10.133253
v 44.846684 -0.050000 -10.235964
v 44.396683 2.500000 -10.133253
v 44.846684 2.050000 -10.235964
v 44.396683 -0.500000 10.133253
v 44.846684 -0.050000 10.235964
v 44.396683 2.500000 10.133253
v 44.846684 2.050000 10.235964
v 35.603371 -0.500000 28.392750
v 35.964245 -0.050000 28.680534
v 35.603371 2.500000 28.392750
v 35.964245 2.050000 28.680534
v 19.758379 -0.500000 41.028709
v 19.958652 -0.050000 41.444569
v 19.758379 2.500000 41.028709
v 19.958652 2.050000 41.444569
v 0.000000 -0.500000 45.538429
v 0.000000 -0.050000 46.000000
v 0.000000 2.500000 45.538429
v 0.000000 2.050000 46.000000
v -19.758379 -0.500000 41.028709
v -19.958652 -0.050000 41.444569
v -19.758379 2.500000 41.028709
v -19.958652 2.050000 41.444569
v -35.603371 -0.500000 28.392750
v -35.964245 -0.050000 28.680534
v -35.603371 2.500000 28.392750
v -35.964245 2.050000 28.680534
v -44.396683 -0.500000 10.133253
v -44.846684 -0.050000 10.235964
v -44.396683 2.500000 10.133253
v -44.846684 2.050000 10.235964
v -44.396683 -0.500000 -10.133253
v -44.846684 -0.050000 -10.235964
v -44.396683 2.500000 -10.133253
v -44.846684 2.050000 -10.235964
v -35.603371 -0.500000 -28.392750
v -35.964245 -0.050000 -28.680534
v -35.603371 2.500000 -28.392750
v -35.964245 2.050000 -28.680534
v -19.758379 -0.500000 -41.028709
v -19.958652 -0.050000 -41.444569
v -19.758379 2.500000 -41.028709
v -19.958652 2.050000 -41.444569
v 22.970562 7.450000 16.970562
v 22.970562 7.450000 16.970562
v 20.868788 7.000000 20.868788
v 22.483484 7.000000 16.970562
v -20.868788 7.000000 -13.072335
v -16.970560 37.402420 -23.752579
v -16.970560 37.402420 -23.752579
v -12.174949 37.402424 -21.766174
v -12.174949 37.402424 -21.766174
v -12.365229 37.000000 -21.575893
v -16.970562 37.000000 -23.483484
v -20.868788 37.000000 -13.072335
v -22.970562 7.450000 -16.970562
v -22.970562 7.450000 -16.970562
v -22.483484 7.000000 -16.970562
v -22.970562 36.549999 -16.970562
v -22.970562 36.549999 -16.970562
v -22.483484 37.000000 -16.970562
v -12.727921 36.549999 12.727921
v -12.727921 36.549999 12.727921
v -16.970562 37.000000 11.457638
v -13.072336 37.000000 13.072336
v -20.868788 7.000000 -20.868788
v -20.868788 37.000000 -20.868788
v -16.970562 37.402424 -10.188542
v -16.970562 37.402424 -10.188542
v -16.970562 37.000000 -10.457638
v -11.457638 37.000000 16.970562
v -12.727921 7.450000 12.727921
v -12.727921 7.450000 12.727921
v -13.072336 7.000000 13.072336
v -16.970562 7.000000 11.457638
v -21.766174 37.402424 -12.174951
v -21.766174 37.402424 -12.174951
v -21.575893 37.000000 -12.365229
v 23.752581 37.402424 16.970564
v 23.752581 37.402424 16.970564
v 21.766172 37.402424 21.766174
v 21.766172 37.402424 21.766174
v 21.575893 37.000000 21.575893
v 23.483484 37.000000 16.970562
v -23.752581 37.402424 -16.970564
v -23.752581 37.402424 -16.970564
v -23.483484 37.000000 -16.970562
v -21.766172 37.402424 -21.766174
v -21.766172 37.402424 -21.766174
v -21.575893 37.000000 -21.575893
v -13.072335 37.000000 20.868788
v -16.970562 7.450000 22.970562
v -16.970562 7.450000 22.970562
v -16.970562 7.000000 22.483484
v -16.970562 36.549999 22.970562
v -16.970562 36.549999 22.970562
v -16.970562 37.000000 22.483484
v -16.970562 37.402424 10.188542
v -16.970562 37.402424 10.188542
v -12.174949 37.402424 12.174950
v -12.174949 37.402424 12.174950
v -12.365230 37.000000 12.365230
v -16.970562 37.000000 10.457638
v -20.868788 7.000000 20.868788
v 35.964245 -0.050000 -28.680534
v 44.846684 -0.050000 -10.235964
v 44.396683 -0.500000 -10.133253
v 35.603371 -0.500000 -28.392750
v -20.868788 37.000000 20.868788
v -22.970562 7.450000 16.970562
v -22.970562 7.450000 16.970562
v -22.483484 7.000000 16.970562
v -22.970562 36.549999 16.970562
v -22.970562 36.549999 16.970562
v -22.483484 37.000000 16.970562
v -20.868788 7.000000 13.072335
v 16.970562 37.000000 11.457638
v 20.868788 37.000000 13.072335
v -20.868788 37.000000 13.072335
v -16.970564 37.402424 23.752581
v -16.970564 37.402424 23.752581
v -16.970562 37.000000 23.483484
v 22.970562 36.549999 16.970562
v 22.970562 36.549999 16.970562
v 22.483484 37.000000 16.970562
v 20.868788 7.000000 13.072335
v 16.970562 7.000000 11.457638
v -21.766174 37.402424 21.766172
v -21.766174 37.402424 21.766172
v -21.575893 37.000000 21.575893
v -23.752579 37.402420 16.970560
v -23.752579 37.402420 16.970560
v -23.483484 37.000000 16.970562
v -21.766174 37.402424 12.174949
v -21.766174 37.402424 12.174949
v -21.575893 37.000000 12.365229
v 20.868788 37.000000 20.868788
v 16.970562 7.450000 22.970562
v 16.970562 7.450000 22.970562
v 16.970562 7.000000 22.483484
v 16.970562 36.549999 22.970562
v 16.970562 36.549999 22.970562
v 16.970562 37.000000 22.483484
v 16.970562 37.402424 10.188542
v 16.970562 37.402424 10.188542
v 21.766174 37.402424 12.174951
v 21.766174 37.402424 12.174951
v 21.575893 37.000000 12.365229
v 16.970562 37.000000 10.457638
v 13.072335 7.000000 20.868788
v 13.072335 37.000000 20.868788
v 11.457638 7.000000 16.970562
v 11.457638 37.000000 16.970562
v 12.727921 7.450000 12.727921
v 12.727921 7.450000 12.727921
v 13.072336 7.000000 13.072336
v 19.958652 2.050000 -41.444569
v 0.000000 2.050000 -46.000000
v 0.000000 2.500000 -45.538429
v 19.758379 2.500000 -41.028709
v 12.727921 36.549999 12.727921
v 12.727921 36.549999 12.727921
v 13.072336 37.000000 13.072336
v 16.970560 37.402420 23.752579
v 16.970560 37.402420 23.752579
v 16.970562 37.000000 23.483484
v 35.964245 2.050000 -28.680534
v 35.603371 2.500000 -28.392750
v 0.000000 -0.050000 -46.000000
v 19.958652 -0.050000 -41.444569
v 19.758379 -0.500000 -41.028709
v 0.000000 -0.500000 -45.538429
v 12.174949 37.402424 21.766174
v 12.174949 37.402424 21.766174
v 12.365229 37.000000 21.575893
v 10.188542 37.402424 16.970562
v 10.188542 37.402424 16.970562
v 10.457638 37.000000 16.970562
v 12.174950 37.402424 12.174949
v 12.174950 37.402424 12.174949
v 12.365230 37.000000 12.365230
v 44.846684 2.050000 -10.235964
v 44.396683 2.500000 -10.133253
v 44.846684 -0.050000 10.235964
v 44.396683 -0.500000 10.133253
v 44.846684 2.050000 10.235964
v 44.396683 2.500000 10.133253
v 35.964245 -0.050000 28.680534
v 35.603371 -0.500000 28.392750
v 35.964245 2.050000 28.680534
v 35.603371 2.500000 28.392750
v 19.958652 -0.050000 41.444569
v 19.758379 -0.500000 41.028709
v 19.958652 2.050000 41.444569
v 19.758379 2.500000 41.028709
v 0.000000 -0.050000 46.000000
v 0.000000 -0.500000 45.538429
v 0.000000 2.050000 46.000000
v 0.000000 2.500000 45.538429
v -19.958652 -0.050000 41.444569
v -19.758379 -0.500000 41.028709
v -19.958652 2.050000 41.444569
v -19.758379 2.500000 41.028709
v -35.964245 -0.050000 28.680534
v -35.603371 -0.500000 28.392750
v -35.964245 2.050000 28.680534
v -35.603371 2.500000 28.392750
v -44.846684 -0.050000 10.235964
v -44.396683 -0.500000 10.133253
v -44.846684 2.050000 10.235964
v -44.396683 2.500000 10.133253
v -44.846684 -0.050000 -10.235964
v -44.396683 -0.500000 -10.133253
v -44.846684 2.050000 -10.235964
v -44.396683 2.500000 -10.133253
v -35.964245 -0.050000 -28.680534
v -35.603371 -0.500000 -28.392750
v -35.964245 2.050000 -28.680534
v -35.603371 2.500000 -28.392750
v -19.958652 -0.050000 -41.444569
v -19.758379 -0.500000 -41.028709
v -19.958652 2.050000 -41.444569
v -19.758379 2.500000 -41.028709
vn -0.0000 -1.0000 -0.0000
vn -0.0000 -0.0000 -1.0000
vn -0.0000 0.6795 0.7337
vn -0.0000 -0.6795 0.7337
vn 0.4798 0.7345 0.4798
vn 0.9239 -0.0000 0.3827
vn -0.5878 -0.5559 -0.5878
vn -0.3422 0.4475 -0.8262
vn 0.8313 -0.5559 -0.0000
vn 0.5878 -0.5559 0.5878
vn 0.8262 0.4475 0.3422
vn 0.8262 0.4475 -0.3422
vn -0.8313 -0.5559 -0.0000
vn -0.8262 0.4475 0.3422
vn -0.0000 -0.7345 -0.6786
vn 0.5188 -0.6795 -0.5188
vn 0.3827 -0.0000 -0.9239
vn -0.5878 -0.5559 0.5878
vn -0.3422 0.4475 0.8262
vn -0.0000 -0.5559 0.8313
vn 0.3422 0.4475 0.8262
vn 0.7337 0.6795 -0.0000
vn -0.5188 0.6795 -0.5188
vn -0.5188 -0.6795 -0.5188
vn 0.7337 -0.6795 -0.0000
vn 0.5188 -0.6795 0.5188
vn -0.7337 0.6795 -0.0000
vn -0.7337 -0.6795 -0.0000
vn 0.4798 -0.7345 0.4798
vn -0.4798 0.7345 0.4798
vn -0.3827 -0.0000 0.9239
vn 0.5188 0.6795 -0.5188
vn -0.0000 0.7345 -0.6786
vn -0.4798 -0.7345 0.4798
vn -0.3474 0.7193 -0.6017
vn -0.3474 -0.7193 -0.6017
vn -0.6017 0.7193 -0.3474
vn -0.6017 -0.7193 -0.3474
vn -0.6947 0.7193 -0.0000
vn -0.6947 -0.7193 -0.0000
vn -0.6017 0.7193 0.3474
vn -0.6017 -0.7193 0.3474
vn -0.3474 0.7193 0.6017
vn -0.3474 -0.7193 0.6017
vn -0.0000 0.7193 0.6947
vn -0.0000 -0.7193 0.6947
vn 0.3474 0.7193 0.6017
vn 0.3474 -0.7193 0.6017
vn 0.6786 0.7345 -0.0000
vn 0.9239 -0.0000 -0.3827
vn -0.6948 0.7193 -0.0000
vn -0.0000 -0.7193 -0.6947
vn -0.0000 -0.5559 -0.8313
vn 0.5878 -0.5559 -0.5878
vn 0.3422 0.4475 -0.8262
vn -0.0000 0.7193 -0.6947
vn 0.6017 0.7193 -0.3474
vn 0.3474 0.7193 -0.6017
vn 0.6786 -0.7345 -0.0000
vn 0.5188 0.6795 0.5188
vn 0.6947 -0.7193 -0.0000
vn 0.6017 -0.7193 0.3474
vn 0.6017 0.7193 0.3474
vn 0.6947 0.7193 -0.0000
vn 0.3474 -0.7193 -0.6017
vn 0.6017 -0.7193 -0.3474
vn 0.6948 0.7193 -0.0000
vn -0.0000 1.0000 -0.0000
vn 0.5000 -0.0000 -0.8660
vn 0.8660 -0.0000 -0.5000
vn 1.0000 -0.0000 -0.0000
vn 0.8660 -0.0000 0.5000
vn 0.5000 -0.0000 0.8660
vn -0.0000 -0.0000 1.0000
vn -0.5000 -0.0000 0.8660
vn -0.8660 -0.0000 0.5000
vn -1.0000 -0.0000 -0.0000
vn -0.8660 -0.0000 -0.5000
vn -0.5000 -0.0000 -0.8660
vn -0.3827 -0.0000 -0.9239
vn 0.5024 -0.3468 -0.7920
vn 0.7920 -0.3468 -0.5024
vn 0.7920 0.3468 -0.5024
vn 0.5024 0.3468 -0.7920
vn 0.7920 -0.3468 0.5024
vn 0.5024 -0.3468 0.7920
vn 0.5024 0.3468 0.7920
vn 0.7920 0.3468 0.5024
vn 0.2048 -0.3468 0.9153
vn -0.2048 -0.3468 0.9153
vn -0.2048 0.3468 0.9153
vn 0.2048 0.3468 0.9153
vn -0.9239 -0.0000 0.3827
vn -0.9153 -0.3468 0.2048
vn -0.9153 -0.3468 -0.2048
vn -0.9153 0.3468 -0.2048
vn -0.9153 0.3468 0.2048
vn -0.7920 -0.3468 -0.5024
vn -0.5024 -0.3468 -0.7920
vn -0.5024 0.3468 -0.7920
vn -0.7920 0.3468 -0.5024
vn -0.0000 0.9494 -0.3142
vn -0.0000 0.6670 -0.7450
vn 0.2220 0.9494 -0.2221
vn 0.5268 0.6670 -0.5268
vn 0.3141 0.9494 -0.0000
vn 0.7450 0.6670 -0.0000
vn 0.2222 0.9494 0.2221
vn 0.5268 0.6670 0.5268
vn -0.0000 0.9494 0.3141
vn -0.0000 0.6670 0.7450
vn -0.2222 0.9494 0.2221
vn -0.5268 0.6670 0.5268
vn -0.8262 0.4475 -0.3422
vn -0.3141 0.9494 -0.0000
vn -0.7450 0.6670 -0.0000
vn -0.2220 0.9494 -0.2221
vn -0.5268 0.6670 -0.5268
vn 0.9153 -0.3468 -0.2048
vn 0.9153 -0.3468 0.2048
vn 0.9153 0.3468 0.2048
vn 0.9153 0.3468 -0.2048
vn 0.3827 -0.0000 0.9239
vn -0.5024 -0.3468 0.7920
vn -0.7920 -0.3468 0.5024
vn -0.7920 0.3468 0.5024
vn -0.5024 0.3468 0.7920
vn -0.9239 -0.0000 -0.3827
vn -0.0000 0.9494 -0.3141
vn 0.2222 0.9494 -0.2221
vn 0.2221 0.9494 0.2221
vn -0.0001 0.9494 0.3141
vn -0.2222 0.9494 -0.2221
vn -0.2048 -0.3468 -0.9153
vn 0.2048 -0.3468 -0.9153
vn 0.2048 0.3468 -0.9153
vn -0.2048 0.3468 -0.9153
vn 0.2220 0.9494 0.2221
vn -0.0000 0.9494 0.3142
vn -0.2220 0.9494 0.2221
vn 0.0001 0.9494 -0.3141
vn -0.2221 0.9494 -0.2221
vn 0.4339 -0.0000 -0.9010
vn 0.7818 -0.0000 -0.6235
vn 0.9749 -0.0000 -0.2225
vn 0.9749 -0.0000 0.2225
vn 0.7818 -0.0000 0.6235
vn 0.4339 -0.0000 0.9010
vn -0.4339 -0.0000 0.9010
vn -0.7818 -0.0000 0.6235
vn -0.9749 -0.0000 0.2225
vn -0.9749 -0.0000 -0.2225
vn -0.7818 -0.0000 -0.6235
vn -0.4339 -0.0000 -0.9010
vn -0.5188 -0.6795 0.5188
vn -0.5188 0.6795 0.5188
vn -0.6786 -0.7345 -0.0000
vn -0.6786 0.7345 -0.0000
vn 0.4798 0.7345 -0.4798
vn -0.0000 0.6795 -0.7337
vn 0.4798 -0.7345 -0.4798
vn -0.0000 -0.6795 -0.7337
vn -0.0000 -0.7345 0.6786
vn -0.0000 0.7345 0.6786
vn 0.5458 -0.7160 -0.4352
vn 0.6806 -0.7160 -0.1553
vn -0.4798 -0.7345 -0.4798
vn 0.3029 0.7160 -0.6289
vn -0.0000 0.7160 -0.6981
vn -0.4798 0.7345 -0.4798
vn 0.5458 0.7160 -0.4352
vn -0.0000 -0.7160 -0.6981
vn 0.3029 -0.7160 -0.6289
vn 0.6806 0.7160 -0.1553
vn 0.6806 -0.7160 0.1553
vn 0.6806 0.7160 0.1553
vn 0.5458 -0.7160 0.4352
vn 0.5458 0.7160 0.4352
vn 0.3029 -0.7160 0.6289
vn 0.3029 0.7160 0.6289
vn -0.0000 -0.7160 0.6981
vn -0.0000 0.7160 0.6981
vn -0.3029 -0.7160 0.6289
vn -0.3029 0.7160 0.6289
vn -0.5458 -0.7160 0.4352
vn -0.5458 0.7160 0.4352
vn -0.6806 -0.7160 0.1553
vn -0.6806 0.7160 0.1553
vn -0.6806 -0.7160 -0.1553
vn -0.6806 0.7160 -0.1553
vn -0.5458 -0.7160 -0.4352
vn -0.5458 0.7160 -0.4352
vn -0.3029 -0.7160 -0.6289
vn -0.3029 0.7160 -0.6289
vt -0.848528 0.350000
vt -0.827741 0.372500
vt -0.869315 0.372500
vt -0.848528 1.850000
vt -0.869315 1.827500
vt -0.827741 1.827500
vt 0.848528 1.850000
vt 0.827741 1.827500
vt 0.869315 1.827500
vt 1.043439 0.350000
vt 1.039873 0.372500
vt 1.069270 0.372500
vt 1.043439 1.850000
vt 1.069270 1.827500
vt 1.039873 1.827500
vt -1.043439 0.350000
vt -1.039873 0.372500
vt -1.069270 0.372500
vt -1.043439 1.850000
vt -1.069270 1.827500
vt -1.039873 1.827500
vt 0.848528 0.350000
vt 0.869315 0.372500
vt 0.827741 0.372500
vt 0.653617 1.850000
vt 0.657183 1.827500
vt 0.627786 1.827500
vt 0.653617 0.350000
vt 0.627786 0.372500
vt 0.657183 0.372500
vt -0.653617 0.350000
vt -0.657183 0.372500
vt -0.627786 0.372500
vt -0.653617 1.850000
vt -0.627786 1.827500
vt -0.657183 1.827500
vt 0.000000 1.500000
vt 0.738353 1.278865
vt 0.000000 1.476706
vt 0.575000 0.995929
vt 0.975756 0.563353
vt 0.995929 0.575000
vt 0.692820 0.400000
vt 0.388353 0.672647
vt 0.400000 0.692820
vt 0.750000 1.299038
vt 0.995929 -0.575000
vt 1.126706 -0.000000
vt 0.975756 -0.563353
vt 1.299038 0.750000
vt 0.563353 0.975756
vt 1.278865 0.738353
vt 1.500000 0.000000
vt 0.800000 0.000000
vt 0.672647 -0.388353
vt 0.692820 -0.400000
vt 1.476706 0.000000
vt 1.126706 0.000000
vt 1.150000 0.000000
vt 1.278865 -0.738353
vt 1.299038 -0.750000
vt 0.776706 0.000000
vt 0.750000 -1.299038
vt 0.738353 -1.278865
vt 0.000000 -1.500000
vt 0.000000 1.126706
vt 0.000000 -1.476706
vt -0.738353 -1.278865
vt 0.869315 0.557139
vt 1.043439 0.653617
vt 0.848528 0.572882
vt -0.750000 -1.299038
vt 1.069270 1.039873
vt 1.124174 0.848528
vt 1.043439 1.043439
vt -1.299038 -0.750000
vt 0.672647 0.388353
vt -1.278865 -0.738353
vt -1.500000 0.000000
vt -0.000000 1.126706
vt 0.000000 1.150000
vt -1.476706 0.000000
vt 1.039873 0.627786
vt -1.278865 0.738353
vt -1.299038 0.750000
vt -0.750000 1.299038
vt -0.738353 1.278865
vt 0.575000 -0.995929
vt 0.563353 -0.975756
vt 0.000000 -1.126706
vt 0.000000 0.800000
vt -0.000000 -1.126706
vt 0.000000 -1.150000
vt 0.776706 -0.000000
vt -0.575000 -0.995929
vt -0.563353 -0.975756
vt 0.884427 0.848528
vt 0.848985 0.848985
vt 0.849174 0.848528
vt -0.995929 -0.575000
vt 0.848528 1.870121
vt 1.078795 1.850000
vt -0.975756 -0.563353
vt -1.126706 -0.000000
vt -0.000000 0.776706
vt -1.126706 0.000000
vt -1.150000 0.000000
vt 0.848528 0.884427
vt 0.873913 0.873913
vt -0.995929 0.575000
vt -0.975756 0.563353
vt -0.575000 0.995929
vt 1.148528 0.848528
vt -0.563353 0.975756
vt 0.400000 -0.692820
vt 0.388353 -0.672647
vt 1.039873 1.069270
vt 0.848528 1.124174
vt 0.000000 -0.800000
vt -0.000000 -0.776706
vt 0.848528 1.870121
vt 0.618261 1.850000
vt -0.388353 -0.672647
vt 0.000000 -0.776706
vt 1.069270 0.657183
vt -0.400000 -0.692820
vt -0.692820 -0.400000
vt -0.672647 -0.388353
vt 0.848528 1.148528
vt -0.800000 0.000000
vt -0.776706 0.000000
vt -0.672647 0.388353
vt -0.776706 -0.000000
vt -0.692820 0.400000
vt -0.400000 0.692820
vt -0.388353 0.672647
vt 0.000000 0.776706
vt 0.827741 0.557139
vt 0.653617 0.653617
vt -0.657183 1.069270
vt -0.848528 1.124174
vt -0.653617 1.043439
vt 0.636396 0.636396
vt -0.557139 0.827741
vt -0.653617 0.653617
vt -0.572882 0.848528
vt 0.557139 0.827741
vt 1.088309 1.870121
vt 0.572882 0.848528
vt -0.557139 -0.869315
vt -0.653617 -1.043439
vt -0.572882 -0.848528
vt 0.557139 0.869315
vt 0.653617 1.043439
vt 0.627786 1.039873
vt 0.657183 1.069270
vt 0.848985 0.848071
vt 0.873913 0.823144
vt -0.557139 0.869315
vt 1.088309 1.870121
vt 0.848528 0.812629
vt 0.848528 0.847882
vt -0.848528 0.884427
vt -0.848071 0.848985
vt -0.823144 0.873913
vt 0.848528 1.870121
vt -0.848528 1.148528
vt 0.848071 0.848071
vt 0.823144 0.823144
vt -0.627786 1.039873
vt 0.608747 1.870121
vt 0.847882 0.848528
vt 0.812629 0.848528
vt -0.848528 1.870121
vt -1.078795 1.850000
vt 0.848071 0.848985
vt 0.823144 0.873913
vt 0.608748 1.870121
vt 0.848528 0.849174
vt -0.636396 0.636396
vt -0.812629 0.848528
vt -0.847882 0.848528
vt -0.827741 0.557139
vt -0.848528 0.572882
vt 1.069270 -1.039873
vt 1.124174 -0.848528
vt 1.148528 -0.848528
vt -0.869315 0.557139
vt -1.043439 0.653617
vt -0.848528 1.870121
vt -0.618261 1.850000
vt -1.039873 0.627786
vt -1.069270 0.657183
vt -1.124174 0.848528
vt -1.148528 0.848528
vt -0.827741 -0.557139
vt -0.653617 -0.653617
vt -0.636396 -0.636396
vt -1.069270 1.039873
vt -1.043439 1.043439
vt -1.039873 1.069270
vt -0.848071 0.848071
vt -0.823144 0.823144
vt -0.608747 1.870121
vt -0.557139 -0.827741
vt -0.848528 0.847882
vt -0.848528 0.812629
vt -0.848528 -0.572882
vt -0.848528 1.870121
vt -0.848985 0.848071
vt -0.873913 0.823144
vt -0.884427 0.848528
vt -0.849174 0.848528
vt -0.848528 -0.812629
vt -0.848071 -0.848071
vt -0.823144 -0.823144
vt -0.848985 0.848985
vt -0.873913 0.873913
vt -1.088309 1.870121
vt -0.848528 0.849174
vt -0.627786 -1.039873
vt -0.657183 -1.069270
vt -0.848528 -1.124174
vt -0.847882 -0.848528
vt -0.812629 -0.848528
vt -0.848528 -1.148528
vt -1.039873 -1.069270
vt 2.242334 0.511798
vt 1.780169 1.419637
vt 1.798212 1.434027
vt -1.043439 -1.043439
vt -1.069270 -1.039873
vt -1.124174 -0.848528
vt -1.148528 -0.848528
vt -1.069270 -0.657183
vt 0.869315 -0.557139
vt 1.043439 -0.653617
vt 1.039873 -0.627786
vt -1.043439 -0.653617
vt -0.869315 -0.557139
vt -1.039873 -0.627786
vt -0.848071 -0.848985
vt -0.823144 -0.873913
vt -0.608748 1.870121
vt 1.069270 -0.657183
vt -0.848528 -0.884427
vt -0.848528 -0.849174
vt 0.848528 -0.572882
vt -0.848985 -0.848985
vt -0.873913 -0.873913
vt -0.884427 -0.848528
vt -0.849174 -0.848528
vt 0.848528 -0.812629
vt 0.848985 -0.848071
vt 0.873913 -0.823144
vt -0.848985 -0.848071
vt -0.873913 -0.823144
vt -1.088309 1.870121
vt -0.848528 -0.847882
vt 1.043439 -1.043439
vt 1.039873 -1.069270
vt 0.848528 -1.124174
vt 0.884427 -0.848528
vt 0.849174 -0.848528
vt 0.848528 -1.148528
vt 0.657183 -1.069270
vt 0.653617 -1.043439
vt 0.557139 -0.869315
vt 0.627786 -1.039873
vt 0.572882 -0.848528
vt 0.557139 -0.827741
vt 0.653617 -0.653617
vt 0.000000 2.300000
vt 0.987919 2.051435
vt 0.997933 2.072228
vt 0.636396 -0.636396
vt 0.827741 -0.557139
vt 0.848985 -0.848985
vt 0.873913 -0.873913
vt 0.848528 -0.884427
vt 0.848528 -0.849174
vt 0.000000 2.276922
vt 0.848071 -0.848985
vt 0.823144 -0.873913
vt 0.812629 -0.848528
vt 0.847882 -0.848528
vt 0.848071 -0.848071
vt 0.823144 -0.823144
vt 0.848528 -0.847882
vt 2.219834 0.506663
vt 2.242334 -0.511798
vt 2.219834 -0.506663
vt 1.798212 -1.434027
vt 1.780169 -1.419637
vt 0.997933 -2.072228
vt 0.987919 -2.051435
vt 0.000000 -2.300000
vt 0.000000 -2.276922
vt -0.987919 -2.051435
vt -0.997933 -2.072228
vt -1.780169 -1.419637
vt -1.798212 -1.434027
vt -2.242334 -0.511798
vt -2.219834 -0.506663
vt -2.242334 0.511798
vt -2.219834 0.506663
vt -1.798212 1.434027
vt -1.780169 1.419637
vt -0.997933 2.072228
vt -0.987919 2.051435
vt 0.000000 0.677500
vt 0.750000 0.022500
vt 0.000000 0.022500
vt -0.750000 0.677500
vt -0.750000 0.022500
vt 1.299038 0.677500
vt 1.299038 0.022500
vt 0.750000 0.677500
vt -1.299038 0.022500
vt -1.299038 0.677500
vt 0.000000 1.227500
vt 0.575000 0.672500
vt 0.000000 0.672500
vt -0.575000 1.227500
vt -0.575000 0.672500
vt 0.995929 1.227500
vt 0.995929 0.672500
vt 0.575000 1.227500
vt -0.995929 0.672500
vt -0.995929 1.227500
vt 0.000000 1.677500
vt 0.400000 1.222500
vt 0.000000 1.222500
vt -0.400000 1.677500
vt -0.400000 1.222500
vt 0.692820 1.677500
vt 0.692820 1.222500
vt 0.400000 1.677500
vt -0.692820 1.222500
vt -0.692820 1.677500
vt 0.848528 1.827500
vt 0.848528 0.372500
vt 0.636396 0.372500
vt 0.636396 1.827500
vt 0.618261 1.078795
vt 1.078795 1.078795
vt 1.078795 0.618261
vt 0.873913 2.429879
vt 0.823144 2.429879
vt 0.608747 1.870121
vt 0.848528 2.429879
vt 0.848528 2.429879
vt -0.848528 1.827500
vt -0.848528 0.372500
vt -0.636396 1.827500
vt -0.636396 0.372500
vt -0.848528 0.522882
vt -1.174174 0.848528
vt -0.848528 1.174174
vt -0.823144 2.429879
vt -0.608747 1.870121
vt -0.873913 2.429879
vt -0.848528 2.429879
vt -1.078795 -0.618261
vt -0.618261 -0.618261
vt -0.618261 -1.078795
vt -0.848528 2.429879
vt 0.848528 -1.174174
vt 0.522882 -0.848528
vt 0.848528 -0.522882
vt 0.000000 0.102500
vt 0.997933 -0.002500
vt 0.000000 -0.002500
vt -0.997933 0.102500
vt -0.997933 -0.002500
vt 0.997933 0.102500
vt 1.798212 -0.002500
vt 1.434027 0.102500
vt 0.511798 -0.002500
vt 1.434027 -0.002500
vt 0.511798 0.102500
vt -0.511798 -0.002500
vt -0.511798 0.102500
vt -1.434027 -0.002500
vt 1.798212 0.102500
vt -1.798212 -0.002500
vt -1.434027 0.102500
vt -1.798212 0.102500
vt 0.848528 0.522882
vt 0.618261 0.618261
vt 0.522882 0.848528
vt 0.848528 1.174174
vt 1.174174 0.848528
vt 0.848528 2.429879
vt -0.618261 1.078795
vt -0.522882 0.848528
vt -0.618261 0.618261
vt -1.078795 0.618261
vt -1.078795 1.078795
vt -0.848528 2.429879
vt -0.848528 -1.174174
vt -1.078795 -1.078795
vt -1.174174 -0.848528
vt -0.848528 -0.522882
vt -0.522882 -0.848528
vt 1.078795 -0.618261
vt 1.174174 -0.848528
vt 1.078795 -1.078795
vt 0.618261 -1.078795
vt 0.618261 -0.618261
s 1
f 39/1/25 532/2/119 533/3/120
f 752/4/22 535/5/121 536/6/122
f 36/7/22 461/8/121 462/9/122
f 38/10/24 410/11/98 411/12/99
f 37/13/23 413/14/100 414/15/101
f 40/16/26 538/17/85 539/18/86
f 745/4/160 525/6/136 526/5/137
f 27/10/16 452/12/81 453/11/82
f 772/19/60 541/20/87 542/21/88
f 43/22/25 458/23/119 459/24/120
f 41/7/27 407/9/96 408/8/97
f 756/1/162 522/3/134 523/2/135
f 42/22/28 404/24/94 405/23/95
f 748/13/23 487/14/100 488/15/101
f 169/7/3 397/8/91 398/9/92
f 747/10/24 484/11/98 485/12/99
f 148/22/4 394/23/89 395/24/90
f 736/25/156 477/26/126 478/27/127
f 170/25/60 391/27/87 392/26/88
f 729/28/155 474/29/124 475/30/125
f 147/28/26 388/30/85 389/29/86
f 3/4/3 471/5/91 472/6/92
f 100/13/32 381/15/83 382/14/84
f 4/1/4 468/2/89 469/3/90
f 163/10/16 378/12/81 379/11/82
f 50/13/32 455/15/83 456/14/84
f 785/16/155 548/18/124 549/17/125
f 790/19/156 551/21/126 552/20/127
f 797/31/24 558/32/98 559/33/99
f 800/34/23 561/35/100 562/36/101
f 808/22/162 596/24/134 597/23/135
f 798/7/160 599/9/136 600/8/137
f 807/31/16 602/33/81 603/32/82
f 799/34/32 605/36/83 606/35/84
f 727/16/26 612/17/85 613/18/86
f 818/19/60 615/20/87 616/21/88
f 831/16/155 622/18/124 623/17/125
f 832/19/156 625/21/126 626/20/127
f 833/1/28 628/3/94 629/2/95
f 834/4/27 631/6/96 632/5/97
f 379/11/82 382/14/84 381/15/83
f 230/37/52 228/38/65 227/39/52
f 225/40/58 223/41/57 226/42/57
f 221/43/66 219/44/65 222/45/65
f 217/37/56 215/38/58 218/46/58
f 214/47/63 212/48/67 211/49/63
f 210/50/66 228/38/65 229/46/65
f 207/42/66 205/51/65 208/40/65
f 204/50/57 215/38/58 203/52/57
f 202/53/61 209/52/66 210/50/66
f 199/54/64 197/55/63 200/56/63
f 204/50/57 195/57/64 196/53/64
f 193/47/62 191/58/61 194/59/61
f 202/53/61 189/60/62 201/57/61
f 196/53/64 187/60/63 188/61/63
f 186/54/61 184/55/62 183/62/61
f 182/63/48 189/60/62 190/61/62
f 180/63/47 187/60/63 179/64/47
f 178/65/46 181/64/48 182/63/48
f 225/40/58 175/66/56 224/51/58
f 180/63/47 173/67/45 174/65/45
f 226/42/57 212/48/67 213/59/67
f 178/65/46 171/68/44 177/67/46
f 398/69/92 170/70/60 169/71/3
f 174/65/45 167/68/43 168/72/43
f 379/73/82 164/74/59 163/75/16
f 162/76/42 171/68/44 172/72/44
f 160/43/57 158/44/58 157/77/57
f 156/76/41 167/68/43 155/78/41
f 207/42/66 191/58/61 206/41/66
f 154/79/40 161/78/42 162/76/42
f 208/40/65 151/80/52 152/81/52
f 156/76/41 149/82/39 150/79/39
f 394/69/89 147/70/26 389/83/86
f 154/79/40 145/84/38 153/82/40
f 150/79/39 143/84/37 144/85/37
f 142/86/36 145/84/38 146/85/38
f 140/86/35 143/84/37 139/87/35
f 230/37/52 141/87/36 142/86/36
f 140/86/35 216/39/56 217/37/56
f 138/88/48 192/49/62 193/47/62
f 214/47/63 135/89/47 136/88/47
f 138/88/48 133/90/46 137/89/48
f 132/91/56 158/44/58 159/45/58
f 136/88/47 129/92/45 130/93/45
f 199/54/64 157/77/57 198/94/64
f 128/95/44 133/90/46 134/93/46
f 395/24/90 398/9/92 397/8/91
f 126/95/43 129/92/45 125/96/43
f 426/97/107 421/98/104 425/99/106
f 124/100/42 127/96/44 128/95/44
f 122/101/53 118/102/54 117/7/53
f 126/95/43 115/103/41 116/100/41
f 186/54/61 220/77/66 221/43/66
f 124/100/42 113/104/40 123/103/42
f 112/91/52 219/44/65 111/105/52
f 116/100/41 109/106/51 110/107/51
f 418/108/103 421/98/104 422/109/105
f 108/110/38 113/104/40 114/107/40
f 459/24/120 462/9/122 461/8/121
f 106/110/37 109/106/51 105/111/37
f 104/112/36 107/111/38 108/110/38
f 381/73/83 99/74/49 102/113/49
f 106/110/37 97/114/35 98/112/35
f 104/112/36 151/80/52 103/114/36
f 98/112/35 175/66/56 176/81/56
f 96/115/48 184/55/62 185/56/62
f 453/11/82 456/14/84 455/15/83
f 94/115/47 197/55/63 93/116/47
f 382/117/84 90/118/33 100/75/32
f 89/119/46 95/116/48 96/115/48
f 389/29/86 392/26/88 391/27/87
f 87/119/45 93/116/47 86/120/45
f 85/121/9 81/122/10 80/7/9
f 89/119/46 78/123/44 88/124/46
f 392/125/88 99/74/49 170/70/60
f 87/119/45 76/123/43 77/126/43
f 75/127/42 78/123/44 79/126/44
f 73/127/41 76/123/43 72/128/41
f 378/117/81 69/118/15 71/129/15
f 68/130/40 74/128/42 75/127/42
f 388/125/85 164/74/59 166/113/59
f 66/130/39 72/128/41 65/131/39
f 68/130/40 63/132/38 67/133/40
f 66/130/39 61/132/37 62/134/37
f 60/135/36 63/132/38 64/134/38
f 58/135/35 61/132/37 57/136/35
f 112/91/52 59/136/36 60/135/36
f 132/91/56 57/136/35 131/137/56
f 395/138/90 54/139/34 148/71/4
f 456/140/84 51/141/33 50/142/32
f 397/138/91 47/139/30 49/143/30
f 459/144/120 44/145/29 43/146/25
f 404/147/94 54/139/34 56/143/34
f 120/148/54 80/7/9 118/102/54
f 408/147/97 47/139/30 41/149/27
f 405/23/95 408/8/97 407/9/96
f 533/150/120 40/151/26 39/152/25
f 405/153/95 38/154/24 42/149/28
f 407/153/96 37/154/23 414/155/101
f 411/12/99 414/15/101 413/14/100
f 411/156/99 69/118/15 38/154/24
f 413/156/100 90/118/33 92/129/33
f 426/97/107 429/157/108 430/158/109
f 462/159/122 50/142/32 36/146/22
f 83/160/10 33/7/20 81/102/10
f 434/161/111 429/157/108 433/162/110
f 492/163/103 495/164/130 496/165/105
f 35/166/20 30/122/18 33/7/20
f 452/140/81 26/141/15 29/167/15
f 434/161/111 437/168/112 438/169/113
f 458/159/119 27/142/16 453/170/82
f 32/171/18 23/7/13 30/122/18
f 22/166/9 18/122/10 17/7/9
f 438/169/113 441/172/115 442/173/116
f 16/174/9 12/175/10 11/4/9
f 25/166/13 8/102/7 23/7/13
f 533/3/120 536/6/122 535/5/121
f 442/173/116 445/176/117 446/177/118
f 10/178/7 117/7/53 8/122/7
f 418/108/103 445/176/117 417/179/102
f 461/144/121 5/145/5 7/180/5
f 500/181/107 495/164/130 499/182/106
f 468/183/89 44/145/29 46/180/29
f 472/183/92 5/145/5 3/184/3
f 469/3/90 472/6/92 471/5/91
f 612/185/85 728/186/59 725/187/59
f 469/188/90 729/189/155 4/184/4
f 730/190/53 734/191/54 735/4/53
f 471/188/91 736/189/156 478/192/127
f 475/30/125 478/27/127 477/26/126
f 732/160/54 17/7/9 734/102/54
f 475/193/125 739/194/157 729/189/155
f 526/5/137 523/2/135 522/3/134
f 477/193/126 742/194/158 740/195/158
f 525/196/136 746/197/159 743/198/159
f 484/199/98 739/194/157 737/195/157
f 488/199/101 742/194/158 748/200/23
f 485/12/99 488/15/101 487/14/100
f 485/201/99 26/141/15 747/200/24
f 487/201/100 51/141/33 53/167/33
f 500/181/107 503/202/131 504/203/109
f 20/204/10 751/4/20 18/191/10
f 536/205/122 746/197/159 752/152/22
f 504/203/109 507/206/132 508/207/111
f 523/196/135 755/197/161 756/208/162
f 749/174/20 759/175/18 751/4/20
f 760/209/9 764/175/10 765/4/9
f 508/207/111 511/210/112 512/211/113
f 757/178/18 768/7/13 759/122/18
f 532/205/119 755/197/161 753/198/161
f 516/212/116 511/210/112 515/213/115
f 766/101/13 771/102/7 768/7/13
f 566/214/103 569/215/130 570/216/105
f 516/212/116 519/217/133 520/218/118
f 769/219/7 735/4/53 771/175/7
f 492/163/103 519/217/133 491/220/129
f 535/150/121 772/151/60 542/221/88
f 539/18/86 542/21/88 541/20/87
f 539/222/86 775/223/163 40/151/26
f 570/216/105 573/224/106 574/225/107
f 541/222/87 778/223/164 776/226/164
f 779/174/53 783/191/54 784/4/53
f 548/227/124 775/223/163 773/226/163
f 787/228/166 789/229/165 786/230/165
f 552/227/127 778/223/164 790/231/156
f 549/17/125 552/20/127 551/21/126
f 600/8/137 597/23/135 596/24/134
f 549/232/125 793/233/157 785/231/155
f 781/204/54 11/4/9 783/191/54
f 551/232/126 796/233/158 794/234/158
f 603/32/82 606/35/84 605/36/83
f 558/235/98 793/233/157 791/234/157
f 599/236/136 799/237/32 606/238/84
f 562/235/101 796/233/158 800/239/23
f 559/33/99 562/36/101 561/35/100
f 522/240/134 797/239/24 559/241/99
f 526/240/137 800/239/23 745/208/160
f 574/225/107 577/242/138 578/243/109
f 14/244/10 803/4/20 12/191/10
f 605/245/83 806/186/49 804/187/49
f 582/246/111 577/242/138 581/247/139
f 597/236/135 807/237/16 808/248/162
f 801/209/20 811/175/18 803/4/20
f 582/246/111 585/249/140 586/250/113
f 809/219/18 814/4/13 811/175/18
f 603/245/82 728/186/59 807/237/16
f 590/251/116 585/249/140 589/252/115
f 812/190/13 817/191/7 814/4/13
f 640/253/103 643/254/130 644/255/105
f 590/251/116 593/256/133 594/257/118
f 815/258/7 784/4/53 817/175/7
f 566/214/103 593/256/133 565/259/129
f 616/185/88 806/186/49 818/260/60
f 613/18/86 616/21/88 615/20/87
f 613/261/86 821/262/163 727/260/26
f 648/263/107 643/254/130 647/264/106
f 615/261/87 824/262/164 822/265/164
f 825/166/53 829/102/54 830/7/53
f 622/266/124 821/262/163 819/265/163
f 626/266/127 824/262/164 832/267/156
f 623/17/125 626/20/127 625/21/126
f 628/268/94 831/267/155 623/269/125
f 827/244/54 765/4/9 829/191/54
f 632/268/97 832/267/156 834/270/27
f 629/2/95 632/5/97 631/6/96
f 629/271/95 837/272/167 833/270/28
f 839/273/169 841/274/168 838/275/168
f 631/271/96 844/272/170 842/276/170
f 596/277/134 837/272/167 835/276/167
f 600/277/137 844/272/170 798/248/160
f 648/263/107 651/278/108 652/279/109
f 762/148/10 847/7/20 764/102/10
f 838/275/168 849/229/171 848/230/171
f 656/280/111 651/278/108 655/281/110
f 850/273/172 852/274/173 853/282/172
f 845/121/20 856/122/18 847/7/20
f 656/280/111 659/283/112 660/284/113
f 854/258/18 859/4/13 856/175/18
f 851/275/173 789/229/165 852/274/173
f 664/285/116 659/283/112 663/286/115
f 857/174/13 862/191/7 859/4/13
f 664/285/116 667/287/142 668/288/118
f 860/171/7 830/7/53 862/122/7
f 668/288/118 639/289/141 640/253/103
f 848/230/171 864/290/174 863/228/174
f 865/291/175 788/290/166 787/228/166
f 863/228/174 868/292/176 867/291/176
f 869/293/177 866/292/175 865/291/175
f 867/291/176 872/294/178 871/293/178
f 873/295/179 870/294/177 869/293/177
f 875/295/180 872/294/178 876/296/180
f 877/297/181 874/296/179 873/295/179
f 879/297/182 876/296/180 880/298/182
f 877/297/181 882/299/183 878/298/181
f 879/297/182 884/299/184 883/300/184
f 881/300/183 886/301/185 882/299/183
f 883/300/184 888/301/186 887/302/186
f 889/303/187 886/301/185 885/302/185
f 887/302/186 892/304/188 891/303/188
f 893/305/189 890/304/187 889/303/187
f 891/303/188 896/306/190 895/305/190
f 897/307/191 894/306/189 893/305/189
f 895/305/190 900/308/192 899/307/192
f 901/309/193 898/308/191 897/307/191
f 903/309/194 900/308/192 904/310/194
f 850/273/172 902/310/193 901/309/193
f 839/273/169 904/310/194 840/282/169
f 241/57/1 257/68/1 273/87/1
f 232/311/2 234/312/69 2/313/2
f 276/314/79 2/313/2 274/315/79
f 271/84/68 255/67/68 239/52/68
f 236/316/69 238/312/70 234/317/69
f 240/318/70 242/313/71 238/312/70
f 244/311/71 246/315/72 242/313/71
f 248/314/72 250/319/73 246/315/72
f 252/318/73 254/313/74 250/312/73
f 256/311/74 258/315/75 254/313/74
f 260/320/75 262/315/76 258/319/75
f 264/314/76 266/313/77 262/315/76
f 268/311/77 270/312/78 266/313/77
f 272/318/78 274/317/79 270/312/78
f 317/111/1 285/41/1 301/90/1
f 280/321/2 282/322/69 278/323/2
f 324/324/79 278/323/2 322/325/79
f 283/51/68 315/106/68 299/89/68
f 284/326/69 286/322/70 282/327/69
f 288/328/70 290/323/71 286/322/70
f 292/321/71 294/325/72 290/323/71
f 296/324/72 298/329/73 294/325/72
f 300/328/73 302/323/74 298/322/73
f 304/321/74 306/325/75 302/323/74
f 308/330/75 310/325/76 306/329/75
f 312/324/76 314/323/77 310/325/76
f 316/321/77 318/322/78 314/323/77
f 320/328/78 322/327/79 318/322/78
f 341/55/1 357/128/1 325/105/1
f 328/331/2 330/332/69 326/333/2
f 372/334/79 326/333/2 370/335/79
f 327/137/68 359/128/68 343/55/68
f 332/336/69 334/332/70 330/337/69
f 336/338/70 338/333/71 334/332/70
f 340/331/71 342/335/72 338/333/71
f 344/334/72 346/339/73 342/335/72
f 348/338/73 350/333/74 346/332/73
f 352/331/74 354/335/75 350/333/74
f 356/340/75 358/335/76 354/339/75
f 360/334/76 362/333/77 358/335/76
f 364/331/77 366/332/78 362/333/77
f 368/338/78 370/337/79 366/332/78
f 373/118/1 383/74/1 393/71/1
f 91/341/17 378/11/81 70/342/17
f 413/26/100 374/342/80 411/30/99
f 396/71/68 385/74/68 375/118/68
f 381/15/83 165/342/50 379/11/82
f 386/341/6 388/30/85 384/342/6
f 391/15/87 394/23/89 389/11/86
f 397/8/91 55/343/31 395/24/90
f 402/344/93 404/24/94 400/343/93
f 407/9/96 410/11/98 405/23/95
f 443/345/1 419/346/1 427/347/1
f 121/101/55 422/348/105 119/160/55
f 446/349/118 416/101/8 9/178/8
f 441/172/115 433/162/110 425/99/106
f 422/348/105 84/121/12 420/148/12
f 424/121/11 430/349/109 82/350/11
f 430/348/109 34/166/21 428/160/21
f 434/351/111 31/350/19 432/166/19
f 438/349/113 24/166/14 436/171/14
f 442/352/116 444/160/114 440/166/114
f 479/194/1 447/141/1 457/146/1
f 52/353/17 452/32/81 28/354/17
f 487/21/100 448/354/80 485/17/99
f 460/146/68 449/141/68 481/194/68
f 455/15/83 458/23/119 453/11/82
f 461/8/121 45/343/6 459/24/120
f 466/355/123 468/2/89 464/356/123
f 471/5/91 474/17/124 469/3/90
f 477/26/126 738/342/93 475/30/125
f 482/341/128 484/11/98 480/342/128
f 505/357/1 513/358/1 489/359/1
f 731/190/55 496/360/105 733/361/55
f 520/362/118 490/190/8 770/219/8
f 495/164/130 519/217/133 511/210/112
f 496/348/105 21/166/12 494/160/12
f 500/351/107 19/350/11 498/166/11
f 504/360/109 750/174/21 502/204/21
f 508/363/111 758/258/19 506/174/19
f 512/349/113 767/101/14 510/178/14
f 514/101/114 520/348/118 518/160/114
f 553/233/1 521/208/1 531/152/1
f 525/6/136 754/356/17 523/2/135
f 561/21/100 522/3/134 559/17/99
f 529/197/68 560/239/68 550/231/68
f 530/355/50 532/2/119 528/356/50
f 535/5/121 538/17/85 533/3/120
f 541/36/87 774/354/123 539/32/86
f 546/353/31 548/17/124 544/354/31
f 551/21/126 792/354/93 549/17/125
f 556/353/128 558/32/98 554/354/128
f 591/364/1 567/365/1 575/366/1
f 566/367/103 782/361/55 780/174/55
f 594/362/118 564/174/8 816/258/8
f 569/215/130 593/256/133 585/249/140
f 570/360/105 15/174/12 568/204/12
f 574/363/107 13/258/11 572/174/11
f 578/360/109 802/209/21 576/244/21
f 580/209/19 586/362/113 810/258/19
f 586/362/113 813/190/14 584/219/14
f 588/190/114 594/360/118 592/361/114
f 617/262/1 627/270/1 595/248/1
f 599/9/136 602/11/81 597/23/135
f 843/344/80 596/24/134 836/343/80
f 604/237/68 635/272/68 624/267/68
f 605/36/83 726/354/50 603/32/82
f 610/353/6 612/17/85 608/354/6
f 615/15/87 820/342/123 613/11/86
f 620/341/31 622/30/124 618/342/31
f 625/21/126 628/3/94 623/17/125
f 631/6/96 634/356/128 629/2/95
f 653/368/1 661/369/1 637/370/1
f 640/352/103 828/160/55 826/166/55
f 668/349/118 638/166/8 861/171/8
f 643/254/130 667/287/142 659/283/112
f 644/360/105 761/209/12 642/244/12
f 646/209/11 652/362/109 763/258/11
f 652/348/109 846/121/21 650/148/21
f 654/121/19 660/349/113 855/350/19
f 660/362/113 858/174/14 658/258/14
f 664/367/116 666/361/114 662/174/114
f 685/292/1 701/299/1 717/308/1
f 672/371/2 674/372/143 670/373/2
f 724/374/154 670/373/2 722/375/154
f 675/274/68 715/306/68 699/298/68
f 676/376/143 678/377/144 674/372/143
f 680/378/144 682/379/145 678/380/144
f 684/381/145 686/382/146 682/379/145
f 688/383/146 690/384/147 686/382/146
f 692/385/147 694/372/148 690/377/147
f 696/376/148 698/373/74 694/372/148
f 700/371/74 702/375/149 698/373/74
f 704/374/149 706/386/150 702/375/149
f 708/387/150 710/382/151 706/384/150
f 712/383/151 714/379/152 710/382/151
f 716/381/152 718/380/153 714/379/152
f 720/388/153 722/375/154 718/386/153
f 379/11/82 378/12/81 382/14/84
f 230/37/52 229/46/65 228/38/65
f 225/40/58 224/51/58 223/41/57
f 221/43/66 220/77/66 219/44/65
f 217/37/56 216/39/56 215/38/58
f 214/47/63 213/59/67 212/48/67
f 210/50/66 209/52/66 228/38/65
f 207/42/66 206/41/66 205/51/65
f 204/50/57 218/46/58 215/38/58
f 202/53/61 201/57/61 209/52/66
f 199/54/64 198/94/64 197/55/63
f 204/50/57 203/52/57 195/57/64
f 193/47/62 192/49/62 191/58/61
f 202/53/61 190/61/62 189/60/62
f 196/53/64 195/57/64 187/60/63
f 186/54/61 185/56/62 184/55/62
f 182/63/48 181/64/48 189/60/62
f 180/63/47 188/61/63 187/60/63
f 178/65/46 177/67/46 181/64/48
f 225/40/58 176/81/56 175/66/56
f 180/63/47 179/64/47 173/67/45
f 226/42/57 223/41/57 212/48/67
f 178/65/46 172/72/44 171/68/44
f 398/69/92 391/83/87 170/70/60
f 174/65/45 173/67/45 167/68/43
f 379/73/82 166/113/59 164/74/59
f 162/76/42 161/78/42 171/68/44
f 160/43/57 159/45/58 158/44/58
f 156/76/41 168/72/43 167/68/43
f 207/42/66 194/59/61 191/58/61
f 154/79/40 153/82/40 161/78/42
f 208/40/65 205/51/65 151/80/52
f 156/76/41 155/78/41 149/82/39
f 394/69/89 148/71/4 147/70/26
f 154/79/40 146/85/38 145/84/38
f 150/79/39 149/82/39 143/84/37
f 142/86/36 141/87/36 145/84/38
f 140/86/35 144/85/37 143/84/37
f 230/37/52 227/39/52 141/87/36
f 140/86/35 139/87/35 216/39/56
f 138/88/48 137/89/48 192/49/62
f 214/47/63 211/49/63 135/89/47
f 138/88/48 134/93/46 133/90/46
f 132/91/56 131/137/56 158/44/58
f 136/88/47 135/89/47 129/92/45
f 199/54/64 160/43/57 157/77/57
f 128/95/44 127/96/44 133/90/46
f 395/24/90 394/23/89 398/9/92
f 126/95/43 130/93/45 129/92/45
f 426/97/107 422/109/105 421/98/104
f 124/100/42 123/103/42 127/96/44
f 122/101/53 120/160/54 118/102/54
f 126/95/43 125/96/43 115/103/41
f 186/54/61 183/62/61 220/77/66
f 124/100/42 114/107/40 113/104/40
f 112/91/52 222/45/65 219/44/65
f 116/100/41 115/103/41 109/106/51
f 418/108/103 417/179/102 421/98/104
f 108/110/38 107/111/38 113/104/40
f 459/24/120 458/23/119 462/9/122
f 106/110/37 110/107/51 109/106/51
f 104/112/36 103/114/36 107/111/38
f 381/73/83 100/75/32 99/74/49
f 106/110/37 105/111/37 97/114/35
f 104/112/36 152/81/52 151/80/52
f 98/112/35 97/114/35 175/66/56
f 96/115/48 95/116/48 184/55/62
f 453/11/82 452/12/81 456/14/84
f 94/115/47 200/56/63 197/55/63
f 382/117/84 92/129/33 90/118/33
f 89/119/46 88/124/46 95/116/48
f 389/29/86 388/30/85 392/26/88
f 87/119/45 94/115/47 93/116/47
f 85/121/9 83/350/10 81/122/10
f 89/119/46 79/126/44 78/123/44
f 392/125/88 102/113/49 99/74/49
f 87/119/45 86/120/45 76/123/43
f 75/127/42 74/128/42 78/123/44
f 73/127/41 77/126/43 76/123/43
f 378/117/81 163/75/16 69/118/15
f 68/130/40 67/133/40 74/128/42
f 388/125/85 147/70/26 164/74/59
f 66/130/39 73/127/41 72/128/41
f 68/130/40 64/134/38 63/132/38
f 66/130/39 65/131/39 61/132/37
f 60/135/36 59/136/36 63/132/38
f 58/135/35 62/134/37 61/132/37
f 112/91/52 111/105/52 59/136/36
f 132/91/56 58/135/35 57/136/35
f 395/138/90 56/143/34 54/139/34
f 456/140/84 53/167/33 51/141/33
f 397/138/91 169/71/3 47/139/30
f 459/144/120 46/180/29 44/145/29
f 404/147/94 42/149/28 54/139/34
f 120/148/54 85/121/9 80/7/9
f 408/147/97 49/143/30 47/139/30
f 405/23/95 404/24/94 408/8/97
f 533/150/120 538/221/85 40/151/26
f 405/153/95 410/155/98 38/154/24
f 407/153/96 41/149/27 37/154/23
f 411/12/99 410/11/98 414/15/101
f 411/156/99 71/129/15 69/118/15
f 413/156/100 37/154/23 90/118/33
f 426/97/107 425/99/106 429/157/108
f 462/159/122 455/170/83 50/142/32
f 83/160/10 35/166/20 33/7/20
f 434/161/111 430/158/109 429/157/108
f 492/163/103 491/220/129 495/164/130
f 35/166/20 32/350/18 30/122/18
f 452/140/81 27/142/16 26/141/15
f 434/161/111 433/162/110 437/168/112
f 458/159/119 43/146/25 27/142/16
f 32/171/18 25/166/13 23/7/13
f 22/166/9 20/350/10 18/122/10
f 438/169/113 437/168/112 441/172/115
f 16/174/9 14/258/10 12/175/10
f 25/166/13 10/160/7 8/102/7
f 533/3/120 532/2/119 536/6/122
f 442/173/116 441/172/115 445/176/117
f 10/178/7 122/101/53 117/7/53
f 418/108/103 446/177/118 445/176/117
f 461/144/121 36/146/22 5/145/5
f 500/181/107 496/165/105 495/164/130
f 468/183/89 4/184/4 44/145/29
f 472/183/92 7/180/5 5/145/5
f 469/3/90 468/2/89 472/6/92
f 612/185/85 727/260/26 728/186/59
f 469/188/90 474/192/124 729/189/155
f 730/190/53 732/361/54 734/191/54
f 471/188/91 3/184/3 736/189/156
f 475/30/125 474/29/124 478/27/127
f 732/160/54 22/166/9 17/7/9
f 475/193/125 737/195/157 739/194/157
f 526/5/137 525/6/136 523/2/135
f 477/193/126 736/189/156 742/194/158
f 525/196/136 745/208/160 746/197/159
f 484/199/98 747/200/24 739/194/157
f 488/199/101 740/195/158 742/194/158
f 485/12/99 484/11/98 488/15/101
f 485/201/99 29/167/15 26/141/15
f 487/201/100 748/200/23 51/141/33
f 500/181/107 499/182/106 503/202/131
f 20/204/10 749/174/20 751/4/20
f 536/205/122 743/198/159 746/197/159
f 504/203/109 503/202/131 507/206/132
f 523/196/135 753/198/161 755/197/161
f 749/174/20 757/258/18 759/175/18
f 760/209/9 762/258/10 764/175/10
f 508/207/111 507/206/132 511/210/112
f 757/178/18 766/101/13 768/7/13
f 532/205/119 39/152/25 755/197/161
f 516/212/116 512/211/113 511/210/112
f 766/101/13 769/160/7 771/102/7
f 566/214/103 565/259/129 569/215/130
f 516/212/116 515/213/115 519/217/133
f 769/219/7 730/190/53 735/4/53
f 492/163/103 520/218/118 519/217/133
f 535/150/121 752/152/22 772/151/60
f 539/18/86 538/17/85 542/21/88
f 539/222/86 773/226/163 775/223/163
f 570/216/105 569/215/130 573/224/106
f 541/222/87 772/151/60 778/223/164
f 779/174/53 781/361/54 783/191/54
f 548/227/124 785/231/155 775/223/163
f 787/228/166 788/290/166 789/229/165
f 552/227/127 776/226/164 778/223/164
f 549/17/125 548/18/124 552/20/127
f 600/8/137 599/9/136 597/23/135
f 549/232/125 791/234/157 793/233/157
f 781/204/54 16/174/9 11/4/9
f 551/232/126 790/231/156 796/233/158
f 603/32/82 602/33/81 606/35/84
f 558/235/98 797/239/24 793/233/157
f 599/236/136 798/248/160 799/237/32
f 562/235/101 794/234/158 796/233/158
f 559/33/99 558/32/98 562/36/101
f 522/240/134 756/208/162 797/239/24
f 526/240/137 561/241/100 800/239/23
f 574/225/107 573/224/106 577/242/138
f 14/244/10 801/209/20 803/4/20
f 605/245/83 799/237/32 806/186/49
f 582/246/111 578/243/109 577/242/138
f 597/236/135 602/238/81 807/237/16
f 801/209/20 809/258/18 811/175/18
f 582/246/111 581/247/139 585/249/140
f 809/219/18 812/190/13 814/4/13
f 603/245/82 725/187/59 728/186/59
f 590/251/116 586/250/113 585/249/140
f 812/190/13 815/361/7 817/191/7
f 640/253/103 639/289/141 643/254/130
f 590/251/116 589/252/115 593/256/133
f 815/258/7 779/174/53 784/4/53
f 566/214/103 594/257/118 593/256/133
f 616/185/88 804/187/49 806/186/49
f 613/18/86 612/17/85 616/21/88
f 613/261/86 819/265/163 821/262/163
f 648/263/107 644/255/105 643/254/130
f 615/261/87 818/260/60 824/262/164
f 825/166/53 827/160/54 829/102/54
f 622/266/124 831/267/155 821/262/163
f 626/266/127 822/265/164 824/262/164
f 623/17/125 622/18/124 626/20/127
f 628/268/94 833/270/28 831/267/155
f 827/244/54 760/209/9 765/4/9
f 632/268/97 625/269/126 832/267/156
f 629/2/95 628/3/94 632/5/97
f 629/271/95 835/276/167 837/272/167
f 839/273/169 840/282/169 841/274/168
f 631/271/96 834/270/27 844/272/170
f 596/277/134 808/248/162 837/272/167
f 600/277/137 842/276/170 844/272/170
f 648/263/107 647/264/106 651/278/108
f 762/148/10 845/121/20 847/7/20
f 838/275/168 841/274/168 849/229/171
f 656/280/111 652/279/109 651/278/108
f 850/273/172 851/275/173 852/274/173
f 845/121/20 854/350/18 856/122/18
f 656/280/111 655/281/110 659/283/112
f 854/258/18 857/174/13 859/4/13
f 851/275/173 786/230/165 789/229/165
f 664/285/116 660/284/113 659/283/112
f 857/174/13 860/361/7 862/191/7
f 664/285/116 663/286/115 667/287/142
f 860/171/7 825/166/53 830/7/53
f 668/288/118 667/287/142 639/289/141
f 848/230/171 849/229/171 864/290/174
f 865/291/175 866/292/175 788/290/166
f 863/228/174 864/290/174 868/292/176
f 869/293/177 870/294/177 866/292/175
f 867/291/176 868/292/176 872/294/178
f 873/295/179 874/296/179 870/294/177
f 875/295/180 871/293/178 872/294/178
f 877/297/181 878/298/181 874/296/179
f 879/297/182 875/295/180 876/296/180
f 877/297/181 881/300/183 882/299/183
f 879/297/182 880/298/182 884/299/184
f 881/300/183 885/302/185 886/301/185
f 883/300/184 884/299/184 888/301/186
f 889/303/187 890/304/187 886/301/185
f 887/302/186 888/301/186 892/304/188
f 893/305/189 894/306/189 890/304/187
f 891/303/188 892/304/188 896/306/190
f 897/307/191 898/308/191 894/306/189
f 895/305/190 896/306/190 900/308/192
f 901/309/193 902/310/193 898/308/191
f 903/309/194 899/307/192 900/308/192
f 850/273/172 853/282/172 902/310/193
f 839/273/169 903/309/194 904/310/194
f 273/87/1 1/39/1 233/38/1
f 233/38/1 237/52/1 241/57/1
f 241/57/1 245/60/1 249/64/1
f 249/64/1 253/67/1 257/68/1
f 257/68/1 261/78/1 265/82/1
f 265/82/1 269/84/1 273/87/1
f 273/87/1 233/38/1 241/57/1
f 241/57/1 249/64/1 257/68/1
f 257/68/1 265/82/1 273/87/1
f 232/311/2 236/318/69 234/312/69
f 276/314/79 232/311/2 2/313/2
f 239/52/68 235/38/68 231/39/68
f 231/39/68 275/87/68 271/84/68
f 271/84/68 267/82/68 263/78/68
f 263/78/68 259/68/68 255/67/68
f 255/67/68 251/64/68 247/60/68
f 247/60/68 243/57/68 239/52/68
f 239/52/68 231/39/68 271/84/68
f 271/84/68 263/78/68 255/67/68
f 255/67/68 247/60/68 239/52/68
f 236/316/69 240/318/70 238/312/70
f 240/318/70 244/311/71 242/313/71
f 244/311/71 248/314/72 246/315/72
f 248/314/72 252/320/73 250/319/73
f 252/318/73 256/311/74 254/313/74
f 256/311/74 260/314/75 258/315/75
f 260/320/75 264/314/76 262/315/76
f 264/314/76 268/311/77 266/313/77
f 268/311/77 272/318/78 270/312/78
f 272/318/78 276/316/79 274/317/79
f 301/90/1 305/96/1 309/103/1
f 309/103/1 313/104/1 317/111/1
f 317/111/1 321/114/1 277/80/1
f 277/80/1 281/51/1 285/41/1
f 285/41/1 289/58/1 293/49/1
f 293/49/1 297/89/1 301/90/1
f 301/90/1 309/103/1 317/111/1
f 317/111/1 277/80/1 285/41/1
f 285/41/1 293/49/1 301/90/1
f 280/321/2 284/328/69 282/322/69
f 324/324/79 280/321/2 278/323/2
f 299/89/68 295/49/68 291/48/68
f 291/48/68 287/41/68 283/51/68
f 283/51/68 279/66/68 323/114/68
f 323/114/68 319/111/68 315/106/68
f 315/106/68 311/103/68 307/96/68
f 307/96/68 303/92/68 299/89/68
f 299/89/68 291/48/68 283/51/68
f 283/51/68 323/114/68 315/106/68
f 315/106/68 307/96/68 299/89/68
f 284/326/69 288/328/70 286/322/70
f 288/328/70 292/321/71 290/323/71
f 292/321/71 296/324/72 294/325/72
f 296/324/72 300/330/73 298/329/73
f 300/328/73 304/321/74 302/323/74
f 304/321/74 308/324/75 306/325/75
f 308/330/75 312/324/76 310/325/76
f 312/324/76 316/321/77 314/323/77
f 316/321/77 320/328/78 318/322/78
f 320/328/78 324/326/79 322/327/79
f 325/105/1 329/44/1 333/77/1
f 333/77/1 337/62/1 341/55/1
f 341/55/1 345/116/1 349/124/1
f 349/124/1 353/123/1 357/128/1
f 357/128/1 361/133/1 365/132/1
f 365/132/1 369/136/1 325/105/1
f 325/105/1 333/77/1 341/55/1
f 341/55/1 349/124/1 357/128/1
f 357/128/1 365/132/1 325/105/1
f 328/331/2 332/338/69 330/332/69
f 372/334/79 328/331/2 326/333/2
f 343/55/68 339/94/68 335/77/68
f 335/77/68 331/44/68 327/137/68
f 327/137/68 371/136/68 367/132/68
f 367/132/68 363/131/68 359/128/68
f 359/128/68 355/123/68 351/120/68
f 351/120/68 347/116/68 343/55/68
f 343/55/68 335/77/68 327/137/68
f 327/137/68 367/132/68 359/128/68
f 359/128/68 351/120/68 343/55/68
f 332/336/69 336/338/70 334/332/70
f 336/338/70 340/331/71 338/333/71
f 340/331/71 344/334/72 342/335/72
f 344/334/72 348/340/73 346/339/73
f 348/338/73 352/331/74 350/333/74
f 352/331/74 356/334/75 354/335/75
f 356/340/75 360/334/76 358/335/76
f 360/334/76 364/331/77 362/333/77
f 364/331/77 368/338/78 366/332/78
f 368/338/78 372/336/79 370/337/79
f 393/71/1 399/139/1 403/149/1
f 403/149/1 409/154/1 373/118/1
f 373/118/1 377/75/1 383/74/1
f 383/74/1 387/70/1 393/71/1
f 393/71/1 403/149/1 373/118/1
f 91/341/17 382/15/84 378/11/81
f 413/26/100 376/341/80 374/342/80
f 375/118/68 412/154/68 406/149/68
f 406/149/68 401/139/68 396/71/68
f 396/71/68 390/70/68 385/74/68
f 385/74/68 380/75/68 375/118/68
f 375/118/68 406/149/68 396/71/68
f 381/15/83 101/341/50 165/342/50
f 386/341/6 392/26/88 388/30/85
f 391/15/87 398/9/92 394/23/89
f 397/8/91 48/344/31 55/343/31
f 402/344/93 408/8/97 404/24/94
f 407/9/96 414/15/101 410/11/98
f 427/347/1 431/389/1 435/390/1
f 435/390/1 439/391/1 443/345/1
f 443/345/1 415/392/1 419/346/1
f 419/346/1 423/393/1 427/347/1
f 427/347/1 435/390/1 443/345/1
f 121/101/55 418/351/103 422/348/105
f 446/349/118 418/351/103 416/101/8
f 425/99/106 421/98/104 417/179/102
f 417/179/102 445/176/117 441/172/115
f 441/172/115 437/168/112 433/162/110
f 433/162/110 429/157/108 425/99/106
f 425/99/106 417/179/102 441/172/115
f 422/348/105 426/394/107 84/121/12
f 424/121/11 426/394/107 430/349/109
f 430/348/109 434/351/111 34/166/21
f 434/351/111 438/349/113 31/350/19
f 438/349/113 442/352/116 24/166/14
f 442/352/116 446/348/118 444/160/114
f 457/146/1 463/145/1 467/184/1
f 467/184/1 473/189/1 479/194/1
f 479/194/1 483/200/1 447/141/1
f 447/141/1 451/142/1 457/146/1
f 457/146/1 467/184/1 479/194/1
f 52/353/17 456/36/84 452/32/81
f 487/21/100 450/353/80 448/354/80
f 481/194/68 476/189/68 470/184/68
f 470/184/68 465/145/68 460/146/68
f 460/146/68 454/142/68 449/141/68
f 449/141/68 486/200/68 481/194/68
f 481/194/68 470/184/68 460/146/68
f 455/15/83 462/9/122 458/23/119
f 461/8/121 6/344/6 45/343/6
f 466/355/123 472/6/92 468/2/89
f 471/5/91 478/21/127 474/17/124
f 477/26/126 741/341/93 738/342/93
f 482/341/128 488/15/101 484/11/98
f 489/359/1 493/395/1 497/396/1
f 497/396/1 501/397/1 505/357/1
f 505/357/1 509/398/1 513/358/1
f 513/358/1 517/399/1 489/359/1
f 489/359/1 497/396/1 505/357/1
f 731/190/55 492/400/103 496/360/105
f 520/362/118 492/400/103 490/190/8
f 511/210/112 507/206/132 503/202/131
f 503/202/131 499/182/106 495/164/130
f 495/164/130 491/220/129 519/217/133
f 519/217/133 515/213/115 511/210/112
f 511/210/112 503/202/131 495/164/130
f 496/348/105 500/351/107 21/166/12
f 500/351/107 504/349/109 19/350/11
f 504/360/109 508/363/111 750/174/21
f 508/363/111 512/362/113 758/258/19
f 512/349/113 516/351/116 767/101/14
f 514/101/114 516/351/116 520/348/118
f 531/152/1 537/151/1 543/223/1
f 543/223/1 547/231/1 553/233/1
f 553/233/1 557/239/1 521/208/1
f 521/208/1 527/197/1 531/152/1
f 531/152/1 543/223/1 553/233/1
f 525/6/136 744/355/17 754/356/17
f 561/21/100 526/5/137 522/3/134
f 550/231/68 545/223/68 540/151/68
f 540/151/68 534/152/68 529/197/68
f 529/197/68 524/208/68 560/239/68
f 560/239/68 555/233/68 550/231/68
f 550/231/68 540/151/68 529/197/68
f 530/355/50 536/6/122 532/2/119
f 535/5/121 542/21/88 538/17/85
f 541/36/87 777/353/123 774/354/123
f 546/353/31 552/21/127 548/17/124
f 551/21/126 795/353/93 792/354/93
f 556/353/128 562/36/101 558/32/98
f 575/366/1 579/401/1 583/402/1
f 583/402/1 587/403/1 591/364/1
f 591/364/1 563/404/1 567/365/1
f 567/365/1 571/405/1 575/366/1
f 575/366/1 583/402/1 591/364/1
f 566/367/103 570/360/105 782/361/55
f 594/362/118 566/367/103 564/174/8
f 585/249/140 581/247/139 577/242/138
f 577/242/138 573/224/106 569/215/130
f 569/215/130 565/259/129 593/256/133
f 593/256/133 589/252/115 585/249/140
f 585/249/140 577/242/138 569/215/130
f 570/360/105 574/363/107 15/174/12
f 574/363/107 578/362/109 13/258/11
f 578/360/109 582/367/111 802/209/21
f 580/209/19 582/367/111 586/362/113
f 586/362/113 590/400/116 813/190/14
f 588/190/114 590/400/116 594/360/118
f 595/248/1 601/237/1 607/186/1
f 607/186/1 611/260/1 617/262/1
f 617/262/1 621/267/1 627/270/1
f 627/270/1 633/272/1 595/248/1
f 595/248/1 607/186/1 617/262/1
f 599/9/136 606/15/84 602/11/81
f 843/344/80 600/8/137 596/24/134
f 624/267/68 619/262/68 614/260/68
f 614/260/68 609/186/68 604/237/68
f 604/237/68 598/248/68 635/272/68
f 635/272/68 630/270/68 624/267/68
f 624/267/68 614/260/68 604/237/68
f 605/36/83 805/353/50 726/354/50
f 610/353/6 616/21/88 612/17/85
f 615/15/87 823/341/123 820/342/123
f 620/341/31 626/26/127 622/30/124
f 625/21/126 632/5/97 628/3/94
f 631/6/96 636/355/128 634/356/128
f 637/370/1 641/406/1 645/407/1
f 645/407/1 649/408/1 653/368/1
f 653/368/1 657/409/1 661/369/1
f 661/369/1 665/410/1 637/370/1
f 637/370/1 645/407/1 653/368/1
f 640/352/103 644/348/105 828/160/55
f 668/349/118 640/352/103 638/166/8
f 659/283/112 655/281/110 651/278/108
f 651/278/108 647/264/106 643/254/130
f 643/254/130 639/289/141 667/287/142
f 667/287/142 663/286/115 659/283/112
f 659/283/112 651/278/108 643/254/130
f 644/360/105 648/367/107 761/209/12
f 646/209/11 648/367/107 652/362/109
f 652/348/109 656/394/111 846/121/21
f 654/121/19 656/394/111 660/349/113
f 660/362/113 664/367/116 858/174/14
f 664/367/116 668/360/118 666/361/114
f 669/282/1 673/274/1 677/229/1
f 677/229/1 681/290/1 685/292/1
f 685/292/1 689/294/1 693/296/1
f 693/296/1 697/298/1 701/299/1
f 701/299/1 705/301/1 709/304/1
f 709/304/1 713/306/1 717/308/1
f 717/308/1 721/310/1 669/282/1
f 669/282/1 677/229/1 685/292/1
f 685/292/1 693/296/1 701/299/1
f 701/299/1 709/304/1 717/308/1
f 717/308/1 669/282/1 685/292/1
f 672/371/2 676/376/143 674/372/143
f 724/374/154 672/371/2 670/373/2
f 691/294/68 687/292/68 683/290/68
f 683/290/68 679/229/68 675/274/68
f 675/274/68 671/282/68 723/310/68
f 723/310/68 719/308/68 715/306/68
f 715/306/68 711/304/68 707/301/68
f 707/301/68 703/299/68 699/298/68
f 699/298/68 695/296/68 691/294/68
f 691/294/68 683/290/68 675/274/68
f 675/274/68 723/310/68 715/306/68
f 715/306/68 707/301/68 699/298/68
f 699/298/68 691/294/68 675/274/68
f 676/376/143 680/385/144 678/377/144
f 680/378/144 684/381/145 682/379/145
f 684/381/145 688/383/146 686/382/146
f 688/383/146 692/387/147 690/384/147
f 692/385/147 696/376/148 694/372/148
f 696/376/148 700/371/74 698/373/74
f 700/371/74 704/374/149 702/375/149
f 704/374/149 708/388/150 706/386/150
f 708/387/150 712/383/151 710/382/151
f 712/383/151 716/381/152 714/379/152
f 716/381/152 720/378/153 718/380/153
f 720/388/153 724/374/154 722/375/154
