# Blender 5.2.0 LTS
# www.blender.org
o Backdrop_LifeguardChair_Detail
v 9.000000 40.299999 -9.000000
v 9.000000 39.700001 -9.000000
v 10.000000 39.700001 -8.000000
v 10.000000 40.299999 -8.000000
v -6.064003 0.201411 -10.202797
v -7.082645 1.002249 -9.576054
v -7.700000 41.000000 8.000000
v -7.700000 41.000000 -8.000000
v -8.700000 40.000000 -8.000000
v -8.700000 40.000000 8.000000
v -10.971816 39.528896 -4.778941
v -11.355453 38.362938 -4.027170
v -5.786455 0.201093 -9.920547
v -6.429359 1.001530 -8.911695
v -10.592681 39.564770 -4.670925
v -10.463046 38.447361 -3.772926
v 10.592681 39.564770 4.670925
v 10.463046 38.447361 3.772926
v -5.407319 0.236968 -9.812531
v -5.536954 1.085953 -8.657451
v -10.213544 39.627193 -4.766090
v -9.570640 38.594311 -3.996921
v -5.028184 0.299397 -9.907695
v -4.644548 1.232901 -8.881448
v -10.971816 39.528896 4.778941
v -11.355453 38.362938 4.027169
v -5.786455 0.201093 9.920547
v -6.429359 1.001530 8.911695
v -11.249363 39.529198 5.061193
v -12.008739 38.363659 4.691527
v -6.064003 0.201411 10.202797
v -7.082646 1.002249 9.576053
v 6.165590 0.237796 -10.583655
v 6.064003 0.201411 -10.202797
v 7.082646 1.002249 -9.576053
v 7.321766 1.087924 -10.472512
v -11.350952 39.565609 5.442047
v -12.247858 38.449329 5.587986
v -5.407321 0.435239 -11.329074
v -5.536953 1.552636 -12.227075
v -6.165590 0.237796 10.583655
v -7.321766 1.087924 10.472512
v -11.249362 39.628334 5.819462
v -12.008739 38.597000 6.476339
v 11.249363 39.529202 5.061193
v 10.971816 39.528896 4.778941
v 11.355453 38.362938 4.027170
v 12.008738 38.363659 4.691528
v -6.064003 0.300547 10.961067
v -7.082646 1.235590 11.360867
v 5.786455 0.372796 -11.233912
v 6.064003 0.300547 -10.961067
v 7.082646 1.235590 -11.360867
v 6.429360 1.405690 -12.003079
v -10.971816 39.700600 6.092305
v -11.355453 38.767097 7.118554
v 11.249363 39.529198 -5.061193
v 11.350952 39.565609 -5.442047
v 12.247858 38.449329 -5.587986
v 12.008739 38.363659 -4.691527
v -5.786455 0.372796 11.233912
v -6.429360 1.405690 12.003079
v -10.592682 39.763042 6.187467
v -10.463046 38.914043 7.342548
v -10.592681 39.763042 -6.187467
v -10.463045 38.914043 -7.342548
v -5.407321 0.435239 11.329074
v -5.536953 1.552636 12.227074
v -10.213545 39.798897 6.079455
v -9.570641 38.998470 7.088304
v -5.028183 0.471100 11.221060
v -4.644548 1.637061 11.972831
v 6.165590 0.237796 10.583655
v 6.064003 0.300547 10.961067
v 7.082645 1.235590 11.360866
v 7.321765 1.087924 10.472512
v -9.935999 39.798592 5.797204
v -8.917354 38.997749 6.423946
v -4.750638 0.470796 10.938810
v -3.991261 1.636340 11.308473
v -4.649048 0.434397 -10.557952
v -4.750638 0.371661 -10.180538
v -3.991261 1.402999 -9.523661
v -3.752142 1.550667 -10.412014
v -9.834410 39.762203 5.416345
v -8.678235 38.912075 5.527488
v 11.249363 39.628338 5.819462
v 11.350952 39.565609 5.442048
v 12.247858 38.449329 5.587986
v 12.008739 38.597000 6.476340
v -4.649048 0.434397 10.557952
v -3.752142 1.550667 10.412014
v -9.935997 39.699459 5.038933
v -8.917355 38.764408 4.639134
v -5.028183 0.471100 -11.221060
v -4.750638 0.470797 -10.938809
v -3.991262 1.636340 -11.308473
v -4.644547 1.637061 -11.972832
v -4.750638 0.371661 10.180538
v -3.991262 1.402998 9.523662
v -9.935997 39.699455 -5.038933
v -9.834410 39.762203 -5.416345
v -8.678234 38.912075 -5.527487
v -8.917355 38.764408 -4.639134
v -10.213544 39.627193 4.766090
v -10.592682 39.564774 4.670925
v -10.463045 38.447361 3.772926
v -9.570641 38.594311 3.996922
v 5.786455 0.201093 9.920547
v 6.064003 0.201411 10.202797
v 7.082645 1.002249 9.576054
v 6.429359 1.001530 8.911695
v -9.935999 39.798592 -5.797204
v -10.213544 39.798897 -6.079454
v -9.570640 38.998470 -7.088305
v -8.917354 38.997749 -6.423946
v -5.407319 0.236968 9.812531
v -5.028184 0.299397 9.907695
v -4.644547 1.232901 8.881446
v -5.536954 1.085953 8.657453
v -9.000000 38.700001 8.000000
v -9.000000 39.700001 9.000000
v -10.000000 39.700001 8.000000
v -9.000000 40.299999 9.000000
v -9.000000 41.299999 8.000000
v -10.000000 40.299999 8.000000
v -5.407319 0.236968 9.812531
v -5.536954 1.085953 8.657453
v -10.592682 39.564774 4.670925
v -10.463045 38.447361 3.772926
v -5.028184 0.299397 9.907695
v -4.644547 1.232901 8.881446
v -10.213544 39.627193 4.766090
v -9.570641 38.594311 3.996922
v -4.750638 0.371661 10.180538
v -3.991262 1.402998 9.523662
v -9.935997 39.699459 5.038933
v -8.917355 38.764408 4.639134
v -4.649048 0.434397 10.557952
v -3.752142 1.550667 10.412014
v -9.834410 39.762203 5.416345
v -8.678235 38.912075 5.527488
v -4.750638 0.470796 10.938810
v -3.991261 1.636340 11.308473
v -9.935999 39.798592 5.797204
v -8.917354 38.997749 6.423946
v -5.028183 0.471100 11.221060
v -4.644548 1.637061 11.972831
v -10.213545 39.798897 6.079455
v -9.570641 38.998470 7.088304
v -5.407321 0.435239 11.329074
v -5.536953 1.552636 12.227074
v -10.592682 39.763042 6.187467
v -10.463046 38.914043 7.342548
v -5.786455 0.372796 11.233912
v -6.429360 1.405690 12.003079
v -10.971816 39.700600 6.092305
v -11.355453 38.767097 7.118554
v -6.064003 0.300547 10.961067
v -7.082646 1.235590 11.360867
v -11.249362 39.628334 5.819462
v -12.008739 38.597000 6.476339
v -6.165590 0.237796 10.583655
v -7.321766 1.087924 10.472512
v -11.350952 39.565609 5.442047
v -12.247858 38.449329 5.587986
v -6.064003 0.201411 10.202797
v -7.082646 1.002249 9.576053
v -11.249363 39.529198 5.061193
v -12.008739 38.363659 4.691527
v -5.786455 0.201093 9.920547
v -6.429359 1.001530 8.911695
v -10.971816 39.528896 4.778941
v -11.355453 38.362938 4.027169
v -5.407321 0.435239 -11.329074
v -5.536953 1.552636 -12.227075
v -10.592681 39.763042 -6.187467
v -10.463045 38.914043 -7.342548
v -5.028183 0.471100 -11.221060
v -4.644547 1.637061 -11.972832
v -10.213544 39.798897 -6.079454
v -9.570640 38.998470 -7.088305
v -4.750638 0.470797 -10.938809
v -3.991262 1.636340 -11.308473
v -9.935999 39.798592 -5.797204
v -8.917354 38.997749 -6.423946
v -4.649048 0.434397 -10.557952
v -3.752142 1.550667 -10.412014
v -9.834410 39.762203 -5.416345
v -8.678234 38.912075 -5.527487
v -4.750638 0.371661 -10.180538
v -3.991261 1.402999 -9.523661
v -9.935997 39.699455 -5.038933
v -8.917355 38.764408 -4.639134
v -5.028184 0.299397 -9.907695
v -4.644548 1.232901 -8.881448
v -10.213544 39.627193 -4.766090
v -9.570640 38.594311 -3.996921
v -5.407319 0.236968 -9.812531
v -5.536954 1.085953 -8.657451
v -10.592681 39.564770 -4.670925
v -10.463046 38.447361 -3.772926
v -5.786455 0.201093 -9.920547
v -6.429359 1.001530 -8.911695
v -10.971816 39.528896 -4.778941
v -11.355453 38.362938 -4.027170
v -6.064003 0.201411 -10.202797
v -7.082645 1.002249 -9.576054
v -11.249363 39.529202 -5.061193
v -12.008738 38.363659 -4.691528
v -6.165590 0.237796 -10.583655
v -7.321765 1.087924 -10.472512
v -11.350952 39.565609 -5.442048
v -12.247858 38.449329 -5.587986
v -6.064003 0.300547 -10.961067
v -7.082645 1.235590 -11.360866
v -11.249363 39.628338 -5.819462
v -12.008739 38.597000 -6.476340
v -5.786455 0.372796 -11.233912
v -6.429360 1.405690 -12.003078
v -10.971816 39.700600 -6.092305
v -11.355452 38.767097 -7.118554
v 5.407319 0.236968 9.812531
v 5.536954 1.085953 8.657451
v 10.592681 39.564770 4.670925
v 10.463046 38.447361 3.772926
v 5.786455 0.201093 9.920547
v 6.429359 1.001530 8.911695
v 10.971816 39.528896 4.778941
v 11.355453 38.362938 4.027170
v 6.064003 0.201411 10.202797
v 7.082645 1.002249 9.576054
v 11.249363 39.529202 5.061193
v 12.008738 38.363659 4.691528
v 6.165590 0.237796 10.583655
v 7.321765 1.087924 10.472512
v 11.350952 39.565609 5.442048
v 12.247858 38.449329 5.587986
v 6.064003 0.300547 10.961067
v 7.082645 1.235590 11.360866
v 11.249363 39.628338 5.819462
v 12.008739 38.597000 6.476340
v 5.786455 0.372796 11.233912
v 6.429360 1.405690 12.003078
v 10.971816 39.700600 6.092305
v 11.355452 38.767097 7.118554
v 5.407321 0.435239 11.329074
v 5.536953 1.552636 12.227075
v 10.592681 39.763042 6.187467
v 10.463045 38.914043 7.342548
v 5.028183 0.471100 11.221060
v 4.644547 1.637061 11.972832
v 10.213544 39.798897 6.079454
v 9.570640 38.998470 7.088305
v 4.750638 0.470797 10.938809
v 3.991262 1.636340 11.308473
v 9.935999 39.798592 5.797204
v 8.917354 38.997749 6.423946
v 4.649048 0.434397 10.557952
v 3.752142 1.550667 10.412014
v 9.834410 39.762203 5.416345
v 8.678234 38.912075 5.527487
v 4.750638 0.371661 10.180538
v 3.991261 1.402999 9.523661
v 9.935997 39.699455 5.038933
v 8.917355 38.764408 4.639134
v 5.028184 0.299397 9.907695
v 4.644548 1.232901 8.881448
v 10.213544 39.627193 4.766090
v 9.570640 38.594311 3.996921
v 5.407321 0.435239 -11.329074
v 5.536953 1.552636 -12.227074
v 10.592682 39.763042 -6.187467
v 10.463046 38.914043 -7.342548
v 5.786455 0.372796 -11.233912
v 6.429360 1.405690 -12.003079
v 10.971816 39.700600 -6.092305
v 11.355453 38.767097 -7.118554
v 6.064003 0.300547 -10.961067
v 7.082646 1.235590 -11.360867
v 11.249362 39.628334 -5.819462
v 12.008739 38.597000 -6.476339
v 6.165590 0.237796 -10.583655
v 7.321766 1.087924 -10.472512
v 11.350952 39.565609 -5.442047
v 12.247858 38.449329 -5.587986
v 6.064003 0.201411 -10.202797
v 7.082646 1.002249 -9.576053
v 11.249363 39.529198 -5.061193
v 12.008739 38.363659 -4.691527
v 5.786455 0.201093 -9.920547
v 6.429359 1.001530 -8.911695
v 10.971816 39.528896 -4.778941
v 11.355453 38.362938 -4.027169
v 5.407319 0.236968 -9.812531
v 5.536954 1.085953 -8.657453
v 10.592682 39.564774 -4.670925
v 10.463045 38.447361 -3.772926
v 5.028184 0.299397 -9.907695
v 4.644547 1.232901 -8.881446
v 10.213544 39.627193 -4.766090
v 9.570641 38.594311 -3.996922
v 4.750638 0.371661 -10.180538
v 3.991262 1.402998 -9.523662
v 9.935997 39.699459 -5.038933
v 8.917355 38.764408 -4.639134
v 4.649048 0.434397 -10.557952
v 3.752142 1.550667 -10.412014
v 9.834410 39.762203 -5.416345
v 8.678235 38.912075 -5.527488
v 4.750638 0.470796 -10.938810
v 3.991261 1.636340 -11.308473
v 9.935999 39.798592 -5.797204
v 8.917354 38.997749 -6.423946
v 5.028183 0.471100 -11.221060
v 4.644548 1.637061 -11.972831
v 10.213545 39.798897 -6.079455
v 9.570641 38.998470 -7.088304
v -9.000000 38.700001 -8.000000
v -10.000000 39.700001 -8.000000
v -9.000000 39.700001 -9.000000
v -9.000000 41.299999 -8.000000
v -9.000000 40.299999 -9.000000
v -10.000000 40.299999 -8.000000
v 9.000000 38.700001 8.000000
v 10.000000 39.700001 8.000000
v 9.000000 39.700001 9.000000
v 9.000000 41.299999 8.000000
v 9.000000 40.299999 9.000000
v 10.000000 40.299999 8.000000
v 9.000000 38.700001 -8.000000
v 9.000000 39.700001 -9.000000
v 10.000000 39.700001 -8.000000
v 9.000000 41.299999 -8.000000
v 10.000000 40.299999 -8.000000
v 9.000000 40.299999 -9.000000
v -9.300000 40.000000 8.000000
v -9.300000 41.000000 9.000000
v -10.300000 41.000000 8.000000
v -9.300000 55.000000 9.000000
v -9.300000 56.000000 8.000000
v -10.300000 55.000000 8.000000
v -9.300000 40.000000 -8.000000
v -10.300000 41.000000 -8.000000
v -9.300000 41.000000 -9.000000
v -9.300000 56.000000 -8.000000
v -9.300000 55.000000 -9.000000
v -10.300000 55.000000 -8.000000
v -8.700000 40.000000 8.000000
v -7.700000 41.000000 8.000000
v -8.700000 41.000000 9.000000
v -8.700000 56.000000 8.000000
v -8.700000 55.000000 9.000000
v -7.700000 55.000000 8.000000
v -8.700000 40.000000 -8.000000
v -8.700000 41.000000 -9.000000
v -7.700000 41.000000 -8.000000
v -8.700000 56.000000 -8.000000
v -7.700000 55.000000 -8.000000
v -8.700000 55.000000 -9.000000
v -8.000000 59.000000 9.000000
v -8.000000 60.000000 10.000000
v -9.000000 60.000000 -9.000000
v -9.000000 60.000000 9.000000
v -8.000000 61.000000 9.000000
v -9.000000 60.000000 9.000000
v -8.000000 59.000000 -9.000000
v -9.000000 60.000000 -9.000000
v 12.000000 60.000000 -10.000000
v -8.000000 61.000000 -9.000000
v -8.000000 60.000000 -10.000000
v -8.000000 60.000000 -10.000000
v 12.000000 59.000000 9.000000
v 13.000000 60.000000 9.000000
v 13.000000 60.000000 9.000000
v 12.000000 61.000000 9.000000
v 12.000000 60.000000 10.000000
v 13.000000 60.000000 -9.000000
v 12.000000 59.000000 -9.000000
v 12.000000 60.000000 -10.000000
v -8.000000 60.000000 10.000000
v 12.000000 61.000000 -9.000000
v 13.000000 60.000000 -9.000000
v 12.000000 60.000000 10.000000
v -12.008738 38.363659 -4.691528
v -11.249363 39.529202 -5.061193
v -7.321765 1.087924 -10.472512
v -6.165590 0.237796 -10.583655
v 5.536954 1.085953 8.657451
v 5.407319 0.236968 9.812531
v -12.247858 38.449329 -5.587986
v -11.350952 39.565609 -5.442048
v 9.000000 40.299999 9.000000
v 9.000000 39.700001 9.000000
v 10.000000 39.700001 8.000000
v 10.000000 40.299999 8.000000
v -7.082645 1.235590 -11.360866
v -6.064003 0.300547 -10.961067
v -8.700000 55.000000 9.000000
v -8.700000 41.000000 9.000000
v -7.700000 55.000000 8.000000
v -12.008739 38.597000 -6.476340
v -11.249363 39.628338 -5.819462
v -6.429360 1.405690 -12.003078
v -5.786455 0.372796 -11.233912
v 12.008739 38.597000 -6.476339
v 11.355453 38.767097 -7.118554
v 10.971816 39.700600 -6.092305
v 11.249362 39.628334 -5.819462
v -11.355452 38.767097 -7.118554
v -10.971816 39.700600 -6.092305
v 6.429360 1.405690 12.003078
v 5.786455 0.372796 11.233912
v 9.000000 38.700001 8.000000
v 9.000000 38.700001 -8.000000
v 11.355452 38.767097 7.118554
v 10.971816 39.700600 6.092305
v 10.463046 38.914043 -7.342548
v 10.592682 39.763042 -6.187467
v 5.536953 1.552636 12.227075
v 5.407321 0.435239 11.329074
v 10.463045 38.914043 7.342548
v 10.592681 39.763042 6.187467
v -9.300000 40.000000 8.000000
v -9.300000 41.000000 9.000000
v 4.644547 1.637061 11.972832
v 5.028183 0.471100 11.221060
v 9.570640 38.998470 7.088305
v 10.213544 39.798897 6.079454
v -8.700000 56.000000 8.000000
v -9.300000 56.000000 8.000000
v -9.300000 55.000000 9.000000
v 3.991262 1.636340 11.308473
v 4.750638 0.470797 10.938809
v -8.700000 56.000000 -8.000000
v -7.700000 55.000000 -8.000000
v 8.917354 38.997749 6.423946
v 9.935999 39.798592 5.797204
v 5.536953 1.552636 -12.227074
v 5.407321 0.435239 -11.329074
v 3.752142 1.550667 10.412014
v 4.649048 0.434397 10.557952
v 8.678234 38.912075 5.527487
v 9.834410 39.762203 5.416345
v -9.000000 38.700001 8.000000
v -9.000000 39.700001 9.000000
v 3.991261 1.402999 9.523661
v 4.750638 0.371661 10.180538
v 9.000000 41.299999 -8.000000
v 9.000000 41.299999 8.000000
v 8.917355 38.764408 4.639134
v 9.935997 39.699455 5.038933
v -9.000000 41.299999 8.000000
v -9.000000 40.299999 9.000000
v 4.644548 1.232901 8.881448
v 5.028184 0.299397 9.907695
v 9.570640 38.594311 3.996921
v 10.213544 39.627193 4.766090
v 6.429359 1.001530 -8.911695
v 5.786455 0.201093 -9.920547
v -8.700000 41.000000 -9.000000
v -8.700000 55.000000 -9.000000
v 11.355453 38.362938 -4.027169
v 10.971816 39.528896 -4.778941
v -9.000000 41.299999 -8.000000
v -9.000000 40.299999 -9.000000
v 5.536954 1.085953 -8.657453
v 5.407319 0.236968 -9.812531
v -9.300000 56.000000 -8.000000
v -9.300000 55.000000 -9.000000
v 10.463045 38.447361 -3.772926
v 10.592682 39.564774 -4.670925
v -9.000000 38.700001 -8.000000
v -9.000000 39.700001 -9.000000
v 4.644547 1.232901 -8.881446
v 5.028184 0.299397 -9.907695
v -9.300000 40.000000 -8.000000
v -9.300000 41.000000 -9.000000
v 9.570641 38.594311 -3.996922
v 10.213544 39.627193 -4.766090
v -10.000000 39.700001 -8.000000
v -10.000000 40.299999 -8.000000
v 3.991262 1.402998 -9.523662
v 4.750638 0.371661 -10.180538
v -10.300000 41.000000 -8.000000
v -10.300000 55.000000 -8.000000
v 8.917355 38.764408 -4.639134
v 9.935997 39.699459 -5.038933
v -10.000000 40.299999 8.000000
v 3.752142 1.550667 -10.412014
v 4.649048 0.434397 -10.557952
v -10.300000 55.000000 8.000000
v 8.678235 38.912075 -5.527488
v 9.834410 39.762203 -5.416345
v -10.000000 39.700001 8.000000
v 3.991261 1.636340 -11.308473
v 4.750638 0.470796 -10.938810
v -10.300000 41.000000 8.000000
v 8.917354 38.997749 -6.423946
v 9.935999 39.798592 -5.797204
v 4.644548 1.637061 -11.972831
v 5.028183 0.471100 -11.221060
v 9.570641 38.998470 -7.088304
v 10.213545 39.798897 -6.079455
v -8.000000 59.000000 -9.000000
v -8.000000 59.000000 9.000000
v -8.000000 61.000000 9.000000
v -8.000000 61.000000 -9.000000
v 12.000000 59.000000 -9.000000
v 12.000000 61.000000 -9.000000
v 12.000000 59.000000 9.000000
v 12.000000 61.000000 9.000000
vn 0.4606 0.4606 -0.7588
vn 0.4606 -0.4606 -0.7588
vn 0.7588 -0.4606 -0.4606
vn 0.7588 0.4606 -0.4606
vn -0.5034 -0.8295 0.2419
vn -0.5033 -0.8295 0.2419
vn 0.7588 -0.4606 0.4606
vn 0.4606 -0.7588 -0.4606
vn 0.4606 -0.7588 0.4606
vn -0.4377 0.5845 0.6832
vn -0.2512 -0.8298 0.4983
vn -0.0932 0.6171 0.7813
vn 0.0932 0.6171 -0.7813
vn 0.0932 -0.7972 0.5964
vn 0.2512 0.6738 0.6949
vn 0.4377 -0.7405 0.5100
vn -0.4377 0.5845 -0.6832
vn -0.2512 -0.8298 -0.4983
vn -0.6898 0.5848 -0.4268
vn -0.5034 -0.8295 -0.2419
vn -0.5033 -0.8295 -0.2419
vn 0.5956 -0.7965 -0.1041
vn 0.5034 -0.8295 0.2419
vn 0.5033 -0.8295 0.2419
vn -0.7821 0.6179 -0.0808
vn 0.0932 -0.6171 -0.7813
vn -0.5956 -0.7965 0.1041
vn -0.6898 0.6749 0.2621
vn 0.6898 0.5848 -0.4268
vn 0.4377 0.5845 -0.6832
vn -0.5034 -0.7395 0.4470
vn -0.5033 -0.7395 0.4470
vn 0.2512 -0.6738 -0.6949
vn 0.5034 -0.7395 -0.4470
vn 0.5033 -0.7395 -0.4470
vn -0.4377 0.7405 0.5100
vn 0.6898 0.5848 0.4268
vn 0.7821 0.6179 0.0808
vn -0.2512 -0.6738 0.6949
vn -0.0932 0.7972 0.5964
vn -0.0932 0.7972 -0.5964
vn 0.0932 -0.6171 0.7813
vn 0.2512 0.8298 0.4983
vn 0.4377 -0.5845 0.6832
vn 0.5956 -0.7965 0.1041
vn 0.5034 -0.7395 0.4470
vn 0.5033 -0.7395 0.4470
vn 0.5034 0.8295 0.2419
vn 0.6898 -0.5848 0.4268
vn 0.7821 -0.6179 -0.0808
vn 0.6898 -0.6749 0.2621
vn 0.5956 0.7965 -0.1041
vn 0.6898 0.6749 0.2621
vn 0.7821 0.6179 -0.0808
vn 0.7821 -0.6179 0.0808
vn 0.5034 0.7395 -0.4470
vn 0.4377 -0.5845 -0.6832
vn 0.6898 -0.5848 -0.4268
vn 0.6898 -0.6749 -0.2621
vn 0.5034 0.7395 0.4470
vn 0.5956 0.7965 0.1041
vn 0.5033 0.7395 0.4470
vn 0.2512 0.6738 -0.6949
vn -0.0932 0.6171 -0.7813
vn 0.2512 -0.8298 -0.4983
vn 0.5034 -0.8295 -0.2419
vn 0.5033 -0.8295 -0.2419
vn 0.5034 0.8295 -0.2419
vn 0.2512 0.8298 -0.4983
vn 0.0932 -0.7972 -0.5964
vn 0.4377 -0.7405 -0.5100
vn -0.0000 -1.0000 -0.0000
vn -0.0000 -0.0000 1.0000
vn -1.0000 -0.0000 -0.0000
vn -0.0000 1.0000 -0.0000
vn 0.1296 -0.9832 0.1285
vn -0.0000 -0.1296 -0.9916
vn -0.1296 0.9832 -0.1285
vn 0.4958 -0.0480 -0.8671
vn -0.1296 0.9832 -0.1286
vn 0.8587 0.0465 -0.5103
vn 0.9916 0.1285 -0.0168
vn -0.1297 0.9832 -0.1285
vn 0.1297 -0.9832 0.1285
vn 0.8587 0.1761 0.4812
vn 0.1296 -0.9832 0.1286
vn 0.4958 0.1765 0.8503
vn -0.0000 0.1296 0.9916
vn -0.4958 0.0480 0.8671
vn 0.1295 -0.9832 0.1286
vn -0.8587 -0.0465 0.5103
vn -0.9916 -0.1285 0.0168
vn 0.1295 -0.9832 0.1285
vn -0.8587 -0.1761 -0.4812
vn -0.4958 -0.1765 -0.8503
vn -0.1297 0.9832 -0.1286
vn 0.1296 -0.9832 -0.1285
vn -0.0000 0.1296 -0.9916
vn -0.1296 0.9832 0.1287
vn 0.4958 0.1765 -0.8503
vn -0.1296 0.9832 0.1285
vn 0.8587 0.1761 -0.4812
vn 0.9916 0.1285 0.0168
vn -0.1297 0.9832 0.1285
vn 0.8587 0.0465 0.5103
vn -0.1296 0.9832 0.1286
vn 0.4958 -0.0480 0.8671
vn 0.1296 -0.9832 -0.1286
vn -0.0000 -0.1296 0.9916
vn 0.1297 -0.9832 -0.1286
vn -0.4958 -0.1765 0.8503
vn -0.8587 -0.1761 0.4812
vn -0.1297 0.9832 0.1286
vn 0.1298 -0.9832 -0.1285
vn -0.9916 -0.1285 -0.0168
vn -0.8587 -0.0465 -0.5103
vn 0.1297 -0.9832 -0.1284
vn -0.4958 0.0480 -0.8671
vn -0.1296 -0.9832 0.1286
vn 0.1296 0.9832 -0.1285
vn -0.1297 -0.9832 0.1286
vn 0.4958 -0.1765 -0.8503
vn 0.1297 0.9832 -0.1286
vn 0.8587 -0.1761 -0.4812
vn -0.1298 -0.9832 0.1285
vn 0.9916 -0.1285 0.0168
vn 0.1295 0.9832 -0.1285
vn -0.1296 -0.9832 0.1285
vn 0.8587 -0.0465 0.5103
vn -0.1297 -0.9832 0.1284
vn 0.4958 0.0480 0.8671
vn 0.1297 0.9832 -0.1285
vn 0.1296 0.9832 -0.1286
vn -0.4958 0.1765 0.8503
vn -0.8587 0.1761 0.4812
vn -0.9916 0.1285 -0.0168
vn -0.8587 0.0465 -0.5103
vn -0.4958 -0.0480 -0.8671
vn -0.1296 -0.9832 -0.1285
vn 0.1296 0.9832 0.1285
vn -0.1297 -0.9832 -0.1284
vn 0.4958 0.0480 -0.8671
vn 0.1297 0.9832 0.1285
vn 0.8587 -0.0465 -0.5103
vn -0.1298 -0.9832 -0.1285
vn 0.9916 -0.1285 -0.0168
vn -0.1296 -0.9832 -0.1286
vn 0.8587 -0.1761 0.4812
vn -0.1297 -0.9832 -0.1286
vn 0.4958 -0.1765 0.8503
vn 0.1297 0.9832 0.1286
vn -0.4958 -0.0480 0.8671
vn 0.1296 0.9832 0.1286
vn -0.8587 0.0465 0.5103
vn -0.9916 0.1285 0.0168
vn -0.8587 0.1761 -0.4812
vn -0.4958 0.1765 -0.8503
vn -0.0000 -0.0000 -1.0000
vn 1.0000 -0.0000 -0.0000
vn -0.2418 0.6861 0.6861
vn -0.6861 -0.6861 -0.2418
vn -0.6861 0.6861 0.2418
vn -0.6861 -0.6861 0.2418
vn -0.6861 0.6861 -0.2418
vn 0.2418 -0.6861 -0.6861
vn -0.2418 -0.6861 -0.6861
vn -0.2418 0.6861 -0.6861
vn 0.6861 0.6861 0.2418
vn 0.6861 -0.6861 0.2418
vn 0.2418 -0.6861 0.6861
vn 0.6861 0.6861 -0.2418
vn 0.2418 0.6861 -0.6861
vn -0.2418 -0.6861 0.6861
vn 0.6861 -0.6861 -0.2418
vn 0.2418 0.6861 0.6861
vn -0.6898 0.5848 0.4268
vn -0.5956 -0.7965 -0.1041
vn -0.0932 -0.7972 -0.5964
vn -0.7821 0.6179 0.0808
vn 0.4606 0.4606 0.7588
vn 0.4606 -0.4606 0.7588
vn 0.7588 0.4606 0.4606
vn -0.5033 -0.7395 -0.4470
vn -0.5034 -0.7395 -0.4470
vn -0.6898 0.6749 -0.2621
vn -0.2512 -0.6738 -0.6949
vn 0.6898 0.6749 -0.2621
vn 0.4377 0.7405 -0.5100
vn -0.4377 0.7405 -0.5100
vn 0.2512 -0.6738 0.6949
vn 0.4377 0.7405 0.5100
vn 0.0932 0.7972 -0.5964
vn -0.0932 -0.6171 0.7813
vn 0.0932 0.7972 0.5964
vn -0.4606 -0.7588 0.4606
vn -0.4606 -0.4606 0.7588
vn -0.4377 -0.5845 0.6832
vn -0.2512 0.8298 0.4983
vn 0.4606 0.7588 0.4606
vn -0.4606 0.7588 0.4606
vn -0.4606 0.4606 0.7588
vn -0.6898 -0.5848 0.4268
vn 0.4606 0.7588 -0.4606
vn -0.5034 0.8295 0.2419
vn -0.0932 -0.6171 -0.7813
vn -0.7821 -0.6179 0.0808
vn -0.5956 0.7965 -0.1041
vn -0.6898 -0.6749 -0.2621
vn -0.5033 0.7395 -0.4470
vn -0.5034 0.7395 -0.4470
vn -0.4377 -0.7405 -0.5100
vn -0.2512 0.6738 -0.6949
vn 0.2512 -0.8298 0.4983
vn 0.4377 0.5845 0.6832
vn -0.4606 0.7588 -0.4606
vn -0.4606 0.4606 -0.7588
vn -0.0932 -0.7972 0.5964
vn 0.0932 0.6171 0.7813
vn -0.4606 -0.7588 -0.4606
vn -0.4606 -0.4606 -0.7588
vn -0.4377 -0.7405 0.5100
vn -0.2512 0.6738 0.6949
vn -0.7588 -0.4606 -0.4606
vn -0.7588 0.4606 -0.4606
vn -0.6898 -0.6749 0.2621
vn -0.5034 0.7395 0.4470
vn -0.7588 0.4606 0.4606
vn -0.7821 -0.6179 -0.0808
vn -0.5956 0.7965 0.1041
vn -0.7588 -0.4606 0.4606
vn -0.6898 -0.5848 -0.4268
vn -0.5034 0.8295 -0.2419
vn -0.4377 -0.5845 -0.6832
vn -0.2512 0.8298 -0.4983
vt -0.450000 0.400000
vt -0.500000 0.400000
vt -0.450000 0.450000
vt -0.450000 -0.450000
vt -0.450000 -0.400000
vt -0.500000 -0.400000
vt 0.450000 -0.400000
vt 0.500000 -0.400000
vt 0.450000 -0.450000
vt 0.450000 0.400000
vt 0.450000 0.450000
vt 0.500000 0.400000
vt -0.465000 -0.400000
vt -0.465000 -0.450000
vt -0.515000 -0.400000
vt -0.465000 0.400000
vt -0.515000 0.400000
vt -0.465000 0.450000
vt -0.435000 -0.400000
vt -0.385000 -0.400000
vt -0.435000 -0.450000
vt -0.435000 0.400000
vt -0.435000 0.450000
vt -0.385000 0.400000
vt -0.400000 -0.450000
vt -0.400000 -0.500000
vt -0.400000 0.450000
vt -0.400000 0.500000
vt 0.600000 -0.450000
vt 0.650000 -0.450000
vt 0.600000 -0.500000
vt 0.600000 0.450000
vt 0.600000 0.500000
vt 0.650000 0.450000
vt -0.232227 -0.444072
vt -0.270366 -0.490627
vt -0.276848 -0.432873
vt -0.445868 0.321197
vt -0.510677 0.303973
vt -0.496800 0.289860
vt 0.321468 -0.445585
vt 0.303200 -0.510140
vt 0.289323 -0.496027
vt -0.523152 1.922368
vt -0.510677 1.981360
vt -0.478532 1.929716
vt -0.433912 0.276374
vt -0.496800 0.251947
vt -0.445868 0.231957
vt -0.199563 -0.476183
vt -0.251409 -0.495385
vt 0.598642 0.081853
vt 0.546940 0.023540
vt 0.561053 0.023555
vt -0.445868 -0.231957
vt -0.510677 -0.238304
vt -0.496800 -0.251947
vt -0.476183 0.070150
vt -0.527898 0.021720
vt -0.509027 0.018583
vt -0.279399 1.922467
vt -0.290973 1.981417
vt -0.323817 1.929850
vt -0.433912 -0.276374
vt -0.491720 -0.270817
vt 0.476183 0.070150
vt 0.527898 0.021720
vt 0.520601 0.077533
vt -0.520601 0.077533
vt -0.546941 0.023540
vt -0.496800 -0.289860
vt -0.445868 -0.321197
vt 0.366088 -0.523626
vt 0.303200 -0.548053
vt 0.308279 -0.529183
vt -0.598642 0.081853
vt -0.565424 0.081817
vt -0.510677 -0.303973
vt -0.478532 -0.354415
vt -0.232227 0.081853
vt -0.270366 0.021762
vt -0.251409 0.023555
vt -0.523152 0.367127
vt -0.478532 0.354415
vt -0.523152 -0.367127
vt -0.529634 -0.309373
vt -0.491720 0.270817
vt -0.321468 0.070285
vt -0.276848 0.077632
vt 0.279399 1.922467
vt 0.253060 1.976460
vt 0.234576 1.918183
vt -0.548591 -0.304615
vt -0.567773 -0.355928
vt 0.321468 0.600154
vt 0.303200 0.548053
vt 0.289323 0.561696
vt -0.321468 -0.600154
vt -0.303200 -0.548053
vt -0.289323 -0.561696
vt -0.201358 1.918147
vt -0.253060 1.976460
vt -0.234576 1.918183
vt -0.600437 -0.323817
vt -0.562468 -0.290973
vt 0.565424 0.081817
vt -0.366088 -0.523626
vt -0.354132 -0.568043
vt -0.232227 0.081853
vt -0.276848 0.077632
vt -0.290973 1.981417
vt -0.272102 1.978280
vt 0.366088 0.523626
vt 0.303200 0.510140
vt 0.308279 0.529183
vt -0.303200 -0.510140
vt -0.308279 -0.529183
vt -0.253060 1.976460
vt -0.234576 1.918183
vt -0.321468 -0.445585
vt -0.354132 -0.478803
vt -0.201358 1.918147
vt -0.238947 1.976445
vt -0.289323 -0.496027
vt -0.548591 1.976445
vt -0.529634 1.978239
vt -0.199563 0.476183
vt -0.251409 0.495385
vt -0.237532 0.509027
vt -0.478532 0.199846
vt -0.510677 0.238304
vt -0.232227 0.444072
vt -0.270366 0.490627
vt 0.523152 1.922368
vt 0.548591 1.976445
vt 0.567773 1.918147
vt -0.523152 1.922368
vt -0.529634 1.978238
vt -0.272102 1.978280
vt -0.321468 0.445585
vt -0.276848 0.432873
vt -0.567773 1.918147
vt -0.303200 0.510140
vt -0.289323 0.496027
vt 0.400000 1.985000
vt 0.450000 2.015000
vt 0.400000 2.015000
vt 0.201358 1.918147
vt 0.253060 1.976460
vt 0.234576 1.918183
vt 0.354132 -0.478803
vt -0.366088 0.523626
vt -0.354132 0.478803
vt 0.270366 -0.490627
vt 0.276848 -0.432873
vt 0.272102 1.978280
vt -0.450000 1.985000
vt -0.400000 2.015000
vt -0.450000 2.015000
vt -0.303200 0.548053
vt -0.308279 0.529183
vt -0.450000 2.050000
vt -0.400000 2.750000
vt -0.450000 2.750000
vt 0.290973 1.981417
vt 0.323817 1.929850
vt -0.321468 0.600154
vt -0.354132 0.568043
vt 0.600437 0.323817
vt 0.548591 0.304615
vt 0.562468 0.290973
vt -0.600437 0.323817
vt -0.548591 0.304615
vt -0.567773 0.355928
vt -0.321468 0.070284
vt -0.289323 0.018640
vt -0.529634 0.309373
vt 0.321468 -0.600154
vt 0.354132 -0.568043
vt 0.600437 -0.323817
vt 0.548591 -0.304615
vt 0.567773 -0.355928
vt 0.523152 0.367127
vt 0.567773 0.355928
vt 0.321468 0.070284
vt 0.270366 0.021762
vt 0.289323 0.018640
vt 0.523152 -0.367127
vt 0.529634 -0.309373
vt 0.232227 0.081853
vt 0.276848 0.077632
vt 0.290973 1.981417
vt 0.272102 1.978280
vt 0.510677 -0.303973
vt 0.478532 -0.354415
vt -0.598642 0.081853
vt -0.546940 0.023540
vt -0.561053 0.023555
vt 0.445868 -0.321197
vt 0.496800 -0.289860
vt 0.321468 0.070285
vt 0.276848 0.077632
vt 0.354132 0.568043
vt 0.433912 -0.276374
vt 0.491720 -0.270817
vt -0.476183 0.070150
vt -0.527898 0.021720
vt 0.496800 -0.251947
vt 0.445868 -0.231957
vt 0.199563 -0.476183
vt 0.251409 -0.495385
vt 0.237532 -0.509027
vt 0.478532 -0.199846
vt 0.510677 -0.238304
vt 0.232227 -0.444072
vt 0.510677 1.981360
vt 0.529634 1.978238
vt 0.321468 0.445585
vt 0.354132 0.478803
vt 0.400000 2.050000
vt 0.450000 2.750000
vt 0.400000 2.750000
vt 0.201358 1.918147
vt 0.238947 1.976445
vt 0.270366 0.490627
vt 0.289323 0.496027
vt 0.523152 1.922368
vt 0.529634 1.978239
vt 0.232227 0.444072
vt 0.276848 0.432873
vt 0.478532 1.929716
vt 0.450000 1.985000
vt 0.199563 0.476183
vt 0.251409 0.495385
vt 0.450000 2.050000
vt 0.445868 0.231957
vt 0.510677 0.238304
vt 0.496800 0.251947
vt 0.476183 0.070150
vt 0.527898 0.021720
vt 0.509027 0.018583
vt 0.433912 0.276374
vt 0.491720 0.270817
vt -0.400000 1.985000
vt 0.546941 0.023540
vt -0.400000 2.050000
vt 0.496800 0.289860
vt 0.445868 0.321197
vt 0.598642 0.081853
vt 0.510677 0.303973
vt 0.478532 0.354415
vt 0.232227 0.081853
vt 0.251409 0.023555
vt 0.529634 0.309373
vt -0.232452 -0.527898
vt -0.232227 0.061645
vt -0.276848 0.054298
vt -0.321468 0.050077
vt -0.562468 -0.253060
vt -0.199563 0.070150
vt -0.276374 1.945604
vt -0.321197 1.949888
vt -0.523152 1.945702
vt -0.567773 1.938355
vt -0.354132 0.061780
vt -0.568043 0.061780
vt -0.523626 0.054396
vt -0.478803 0.050112
vt -0.445585 0.050077
vt -0.237532 0.546940
vt -0.523152 1.945702
vt -0.567773 1.938355
vt -0.567548 0.272102
vt 0.354415 1.949924
vt 0.321197 1.949888
vt 0.276374 1.945604
vt -0.199563 0.070150
vt -0.478532 1.929716
vt -0.232227 0.061645
vt -0.276848 0.054298
vt -0.321468 0.050077
vt 0.478803 0.050112
vt 0.445585 0.050077
vt 0.523626 0.054396
vt 0.568043 0.061780
vt -0.600437 1.929850
vt -0.354132 0.061780
vt 0.237532 -0.546940
vt 0.276848 0.054298
vt 0.321468 0.050077
vt 0.478532 1.929716
vt 0.232227 0.061645
vt 0.529634 -0.233546
vt 0.562468 -0.290973
vt -0.478803 0.050112
vt -0.445585 0.050077
vt -0.523626 0.054396
vt -0.568043 0.061780
vt 0.600437 1.929850
vt 0.354132 0.061780
vt 0.567773 1.938355
vt 0.523152 1.945702
vt -0.354415 1.949924
vt -0.321197 1.949888
vt -0.276374 1.945604
vt 0.199563 0.070150
vt 0.237532 0.509027
vt 0.270366 0.566454
vt 0.523152 1.945702
vt 0.562468 0.253060
vt 0.567773 1.938355
vt 0.354132 0.061780
vt 0.568043 0.061780
vt 0.523626 0.054396
vt 0.478803 0.050112
vt 0.445585 0.050077
vt 0.276848 0.054298
vt 0.321468 0.050077
vt 0.232227 0.061645
vt 0.199563 0.070150
vt 0.276374 1.945604
vt 0.321197 1.949888
vt -0.435000 2.750000
vt -0.465000 2.050000
vt -0.435000 2.050000
vt -0.465000 2.750000
vt -0.237532 -0.509027
vt -0.478532 -0.199846
vt 0.509027 0.018583
vt -0.289323 0.018640
vt -0.323817 1.929850
vt -0.289323 0.561696
vt -0.562468 0.290973
vt 0.289323 -0.561696
vt 0.323817 1.929850
vt 0.289323 0.018640
vt -0.509027 0.018583
vt 0.478532 0.199846
vt -0.237532 -0.546941
vt -0.251409 -0.561053
vt -0.270366 -0.566454
vt -0.529634 -0.233546
vt -0.548591 -0.238947
vt -0.567548 -0.272102
vt -0.445868 1.938220
vt -0.231957 1.938220
vt -0.354415 1.949924
vt -0.478532 1.949924
vt -0.600437 1.929850
vt -0.270366 0.566454
vt -0.251409 0.561053
vt -0.232452 0.527898
vt -0.478532 1.949924
vt -0.562468 0.253060
vt -0.548591 0.238947
vt -0.529634 0.233546
vt 0.231957 1.938220
vt 0.270366 -0.566454
vt 0.251409 -0.561053
vt 0.232452 -0.527898
vt 0.567548 -0.272102
vt 0.562468 -0.253060
vt 0.548591 -0.238947
vt 0.478532 1.949924
vt 0.445868 1.938220
vt 0.232452 0.527898
vt 0.237532 0.546941
vt 0.251409 0.561053
vt 0.478532 1.949924
vt 0.529634 0.233546
vt 0.548591 0.238947
vt 0.567548 0.272102
vt 0.600437 1.929850
vt 0.354415 1.949924
s 1
f 473/1/219 481/2/223 474/3/220
f 454/4/201 453/5/200 489/6/227
f 445/5/195 446/4/196 495/6/230
f 465/1/215 466/3/216 482/2/224
f 414/7/9 395/8/7 394/9/181
f 450/7/199 393/9/180 396/8/182
f 415/10/8 2/11/2 3/12/3
f 449/10/203 4/12/4 1/11/1
f 424/13/195 425/14/196 498/15/230
f 432/14/201 431/13/200 492/15/227
f 477/16/219 485/17/223 478/18/220
f 469/16/215 470/18/216 486/17/224
f 10/19/9 7/20/7 400/21/181
f 430/19/199 399/21/180 401/20/182
f 9/22/8 461/23/2 8/24/3
f 435/22/203 436/24/4 462/23/1
f 506/25/195 381/26/173 366/4/163
f 362/26/160 507/25/200 364/4/162
f 505/27/219 363/3/161 371/28/166
f 508/27/215 372/28/167 368/3/164
f 511/29/9 375/30/169 377/31/170
f 512/29/199 384/31/175 374/30/168
f 509/32/8 369/33/165 383/34/174
f 510/32/203 378/34/171 380/33/172
f 119/35/71 117/36/70 120/37/70
f 116/38/68 114/39/69 113/40/68
f 112/41/65 110/42/66 109/43/65
f 107/44/64 105/45/63 108/46/63
f 103/47/61 101/48/60 104/49/62
f 100/50/59 118/51/71 119/35/71
f 98/52/57 96/53/58 95/54/57
f 94/55/56 105/56/63 93/57/56
f 100/58/59 91/59/55 99/60/59
f 89/61/54 87/62/53 90/63/53
f 86/64/52 93/57/56 85/65/52
f 83/66/51 81/67/50 84/68/50
f 92/69/55 79/70/49 91/59/55
f 86/64/52 77/71/48 78/72/48
f 76/73/45 74/74/46 73/75/45
f 72/76/44 79/70/49 80/77/49
f 78/72/48 69/78/43 70/79/43
f 72/80/44 67/81/42 71/82/44
f 66/83/41 114/39/69 115/84/69
f 64/85/40 69/78/43 63/86/40
f 103/47/61 113/40/68 102/87/61
f 62/88/39 67/81/42 68/89/42
f 59/90/38 57/91/37 60/92/37
f 64/85/40 55/93/36 56/94/36
f 54/95/33 52/96/34 51/97/33
f 62/98/39 49/99/31 61/100/39
f 47/101/30 45/102/29 48/103/29
f 44/104/28 55/93/36 43/105/28
f 84/68/50 96/53/58 97/106/58
f 42/107/27 49/99/31 50/108/32
f 98/109/57 39/81/26 40/110/26
f 38/61/25 43/111/28 37/112/25
f 36/113/22 34/114/23 33/115/22
f 42/107/27 31/116/20 41/117/27
f 38/61/25 29/118/19 30/119/19
f 28/120/18 31/116/20 32/121/21
f 26/122/17 29/118/19 25/123/17
f 28/120/18 117/36/70 27/124/18
f 107/44/64 25/125/17 106/126/64
f 83/127/51 23/128/16 82/129/51
f 22/130/15 101/48/60 21/131/15
f 24/132/16 19/133/14 23/128/16
f 18/134/13 46/135/30 47/136/30
f 16/137/12 21/45/15 15/138/12
f 89/61/54 45/102/29 88/139/54
f 14/140/11 19/133/14 20/141/14
f 16/137/12 11/125/10 12/142/10
f 9/22/8 7/20/7 10/19/9
f 14/140/11 5/143/5 13/144/11
f 3/145/3 1/146/1 4/147/4
f 12/148/10 386/149/176 385/150/176
f 76/73/45 110/42/66 111/151/67
f 387/152/177 5/143/5 6/153/6
f 112/41/65 390/154/178 389/155/178
f 391/90/179 386/149/176 392/156/179
f 394/157/181 396/158/182 393/159/180
f 387/152/177 398/160/184 388/161/177
f 400/162/181 401/163/182 399/164/180
f 391/90/179 403/165/185 402/166/185
f 404/167/186 398/160/184 397/168/183
f 406/169/187 408/170/188 409/171/187
f 402/172/185 411/173/189 410/174/189
f 404/175/186 39/81/26 405/176/186
f 66/83/41 411/173/189 65/177/41
f 412/178/190 74/74/46 75/179/47
f 415/10/8 395/8/7 414/7/9
f 90/180/53 417/181/191 416/182/191
f 418/183/192 408/170/188 407/184/188
f 412/185/190 421/186/193 413/187/190
f 422/188/194 417/181/191 423/189/194
f 10/19/9 425/14/196 424/13/195
f 426/190/197 421/186/193 420/191/193
f 59/90/38 409/192/187 58/193/38
f 422/188/194 429/194/198 428/195/198
f 431/13/200 399/21/180 430/19/199
f 426/196/197 434/197/202 427/198/197
f 430/19/199 436/24/4 435/22/203
f 437/199/204 429/194/198 438/200/204
f 54/201/33 440/186/205 439/202/205
f 441/69/206 434/197/202 433/77/202
f 36/113/22 52/96/34 53/203/35
f 443/204/207 438/200/204 444/205/207
f 414/7/9 446/4/196 445/5/195
f 447/206/208 442/207/206 441/69/206
f 450/7/199 4/12/4 449/10/203
f 443/204/207 452/208/210 451/209/209
f 453/5/200 393/9/180 450/7/199
f 447/210/208 456/211/211 448/212/208
f 457/213/212 452/208/210 458/214/212
f 455/215/211 390/154/178 456/211/211
f 18/134/13 458/216/212 17/217/13
f 459/218/213 34/114/23 35/219/24
f 8/220/3 462/221/1 436/222/4
f 463/223/214 57/91/37 464/224/214
f 449/10/203 466/3/216 465/1/215
f 459/218/213 468/225/217 460/226/213
f 435/22/203 470/18/216 469/16/215
f 471/227/218 464/135/214 472/228/218
f 473/1/219 2/11/2 415/10/8
f 475/229/221 468/225/217 467/230/217
f 477/16/219 461/23/2 9/22/8
f 471/227/218 480/216/222 479/231/222
f 474/232/220 482/147/224 466/146/216
f 483/233/225 476/234/221 475/229/221
f 478/235/220 486/222/224 470/221/216
f 487/236/226 480/237/222 488/238/226
f 465/1/215 489/6/227 453/5/200
f 483/239/225 491/240/228 484/241/225
f 469/16/215 492/15/227 431/13/200
f 493/242/229 488/238/226 494/243/229
f 454/159/201 495/244/230 446/157/196
f 490/68/228 497/245/231 491/240/228
f 432/164/201 498/246/230 425/162/196
f 493/242/229 500/247/232 499/248/232
f 445/5/195 481/2/223 473/1/219
f 501/249/233 497/245/231 496/106/231
f 424/13/195 485/17/223 477/16/219
f 499/248/232 504/250/234 503/251/234
f 501/252/233 440/186/205 502/253/233
f 418/183/192 504/250/234 419/254/192
f 506/25/195 363/3/161 505/27/219
f 508/27/215 364/4/162 507/25/200
f 505/27/219 369/33/165 509/32/8
f 510/32/203 372/28/167 508/27/215
f 509/32/8 375/30/169 511/29/9
f 512/29/199 378/34/171 510/32/203
f 511/29/9 381/26/173 506/25/195
f 507/25/200 384/31/175 512/29/199
f 331/10/72 121/5/72 319/1/72
f 126/158/74 320/145/74 123/244/74
f 329/146/73 122/157/73 327/232/73
f 322/1/75 328/7/75 334/10/75
f 139/255/76 155/100/86 171/124/76
f 130/44/77 132/256/79 128/257/77
f 174/142/95 128/257/77 172/258/95
f 169/259/78 153/86/78 137/57/78
f 134/46/79 136/260/81 132/256/79
f 136/58/81 142/261/82 140/69/82
f 142/261/82 144/77/85 140/69/82
f 146/262/85 148/76/87 144/77/85
f 148/80/87 154/263/88 152/89/88
f 154/263/88 156/88/89 152/89/88
f 158/264/89 160/265/91 156/88/89
f 160/266/91 166/61/92 164/267/92
f 166/61/92 168/268/94 164/267/92
f 170/119/94 172/269/95 168/268/94
f 215/160/97 183/270/97 199/133/108
f 178/271/98 180/109/100 176/110/98
f 222/272/118 176/110/98 220/175/118
f 181/39/101 213/273/101 197/131/101
f 182/274/100 184/106/102 180/52/100
f 186/275/102 188/68/103 184/106/102
f 190/276/103 192/66/105 188/68/103
f 192/277/105 198/278/107 196/279/107
f 198/278/107 200/280/109 196/279/107
f 200/280/109 206/142/111 204/281/111
f 206/148/111 208/282/112 204/283/111
f 208/282/112 214/90/115 212/284/115
f 212/284/115 218/166/116 216/285/116
f 218/286/116 220/175/118 216/287/116
f 239/74/128 255/288/128 223/154/119
f 224/289/77 230/136/122 228/290/122
f 270/291/138 224/289/77 268/292/138
f 225/293/120 257/200/120 241/294/120
f 230/101/122 232/295/124 228/296/122
f 232/295/124 238/61/126 236/297/126
f 236/297/126 242/63/129 240/298/129
f 242/299/129 244/185/131 240/300/129
f 246/301/131 248/191/88 244/185/131
f 250/302/88 252/190/134 248/191/88
f 254/303/134 256/77/135 252/196/134
f 258/304/135 260/69/136 256/77/135
f 262/305/136 264/206/137 260/69/136
f 264/306/137 270/291/138 268/292/138
f 303/307/139 271/308/139 287/114/147
f 274/309/98 276/201/142 272/202/98
f 316/252/157 274/309/98 272/202/98
f 289/310/140 273/254/140 305/238/140
f 278/311/142 280/312/144 276/201/142
f 280/313/144 286/90/146 284/314/146
f 286/90/146 288/315/148 284/314/146
f 290/92/148 292/316/150 288/315/148
f 294/136/150 296/317/109 292/318/150
f 298/227/109 300/319/152 296/317/109
f 302/231/152 304/320/154 300/319/152
f 304/239/154 310/321/155 308/68/155
f 310/321/155 312/106/156 308/68/155
f 314/322/156 316/249/157 312/106/156
f 323/159/158 332/232/158 321/157/158
f 335/147/159 326/244/159 333/145/159
f 355/22/72 337/13/72 343/16/72
f 342/163/74 344/220/74 339/246/74
f 353/323/73 338/324/73 351/325/73
f 346/16/75 352/19/75 358/22/75
f 347/326/158 356/325/158 345/324/158
f 359/222/159 350/246/159 357/220/159
f 379/32/72 361/25/72 367/27/72
f 370/27/75 376/29/75 382/32/75
f 119/35/71 118/51/71 117/36/70
f 116/38/68 115/84/69 114/39/69
f 112/41/65 111/151/67 110/42/66
f 107/44/64 106/126/64 105/45/63
f 103/47/61 102/87/61 101/48/60
f 100/50/59 99/327/59 118/51/71
f 98/52/57 97/106/58 96/53/58
f 94/55/56 108/328/63 105/56/63
f 100/58/59 92/69/55 91/59/55
f 89/61/54 88/139/54 87/62/53
f 86/64/52 94/55/56 93/57/56
f 83/66/51 82/329/51 81/67/50
f 92/69/55 80/77/49 79/70/49
f 86/64/52 85/65/52 77/71/48
f 76/73/45 75/179/47 74/74/46
f 72/76/44 71/198/44 79/70/49
f 78/72/48 77/71/48 69/78/43
f 72/80/44 68/89/42 67/81/42
f 66/83/41 65/177/41 114/39/69
f 64/85/40 70/79/43 69/78/43
f 103/47/61 116/38/68 113/40/68
f 62/88/39 61/330/39 67/81/42
f 59/90/38 58/193/38 57/91/37
f 64/85/40 63/86/40 55/93/36
f 54/95/33 53/203/35 52/96/34
f 62/98/39 50/108/32 49/99/31
f 47/101/30 46/123/30 45/102/29
f 44/104/28 56/94/36 55/93/36
f 84/68/50 81/67/50 96/53/58
f 42/107/27 41/117/27 49/99/31
f 98/109/57 95/82/57 39/81/26
f 38/61/25 44/331/28 43/111/28
f 36/113/22 35/219/24 34/114/23
f 42/107/27 32/121/21 31/116/20
f 38/61/25 37/112/25 29/118/19
f 28/120/18 27/124/18 31/116/20
f 26/122/17 30/119/19 29/118/19
f 28/120/18 120/37/70 117/36/70
f 107/44/64 26/142/17 25/125/17
f 83/127/51 24/132/16 23/128/16
f 22/130/15 104/49/62 101/48/60
f 24/132/16 20/141/14 19/133/14
f 18/134/13 17/217/13 46/135/30
f 16/137/12 22/278/15 21/45/15
f 89/61/54 48/103/29 45/102/29
f 14/140/11 13/144/11 19/133/14
f 16/137/12 15/138/12 11/125/10
f 9/22/8 8/24/3 7/20/7
f 14/140/11 6/153/6 5/143/5
f 3/145/3 2/232/2 1/146/1
f 12/148/10 11/224/10 386/149/176
f 76/73/45 73/75/45 110/42/66
f 387/152/177 388/161/177 5/143/5
f 112/41/65 109/43/65 390/154/178
f 391/90/179 385/150/176 386/149/176
f 394/157/181 395/244/7 396/158/182
f 387/152/177 397/168/183 398/160/184
f 400/162/181 7/246/7 401/163/182
f 391/90/179 392/156/179 403/165/185
f 404/167/186 405/332/186 398/160/184
f 406/169/187 407/184/188 408/170/188
f 402/172/185 403/333/185 411/173/189
f 404/175/186 40/110/26 39/81/26
f 66/83/41 410/174/189 411/173/189
f 412/178/190 413/334/190 74/74/46
f 415/10/8 3/12/3 395/8/7
f 90/180/53 87/294/53 417/181/191
f 418/183/192 419/254/192 408/170/188
f 412/185/190 420/191/193 421/186/193
f 422/188/194 416/182/191 417/181/191
f 10/19/9 400/21/181 425/14/196
f 426/190/197 427/253/197 421/186/193
f 59/90/38 406/335/187 409/192/187
f 422/188/194 423/189/194 429/194/198
f 431/13/200 432/14/201 399/21/180
f 426/196/197 433/77/202 434/197/202
f 430/19/199 401/20/182 436/24/4
f 437/199/204 428/195/198 429/194/198
f 54/201/33 51/336/33 440/186/205
f 441/69/206 442/207/206 434/197/202
f 36/113/22 33/115/22 52/96/34
f 443/204/207 437/199/204 438/200/204
f 414/7/9 394/9/181 446/4/196
f 447/206/208 448/337/208 442/207/206
f 450/7/199 396/8/182 4/12/4
f 443/204/207 444/205/207 452/208/210
f 453/5/200 454/4/201 393/9/180
f 447/210/208 455/215/211 456/211/211
f 457/213/212 451/209/209 452/208/210
f 455/215/211 389/155/178 390/154/178
f 18/134/13 457/291/212 458/216/212
f 459/218/213 460/226/213 34/114/23
f 8/220/3 461/235/2 462/221/1
f 463/223/214 60/92/37 57/91/37
f 449/10/203 1/11/1 466/3/216
f 459/218/213 467/230/217 468/225/217
f 435/22/203 462/23/1 470/18/216
f 471/227/218 463/136/214 464/135/214
f 473/1/219 474/3/220 2/11/2
f 475/229/221 476/234/221 468/225/217
f 477/16/219 478/18/220 461/23/2
f 471/227/218 472/228/218 480/216/222
f 474/232/220 481/145/223 482/147/224
f 483/233/225 484/307/225 476/234/221
f 478/235/220 485/220/223 486/222/224
f 487/236/226 479/338/222 480/237/222
f 465/1/215 482/2/224 489/6/227
f 483/239/225 490/68/228 491/240/228
f 469/16/215 486/17/224 492/15/227
f 493/242/229 487/236/226 488/238/226
f 454/159/201 489/158/227 495/244/230
f 490/68/228 496/106/231 497/245/231
f 432/164/201 492/163/227 498/246/230
f 493/242/229 494/243/229 500/247/232
f 445/5/195 495/6/230 481/2/223
f 501/249/233 502/54/233 497/245/231
f 424/13/195 498/15/230 485/17/223
f 499/248/232 500/247/232 504/250/234
f 501/252/233 439/202/205 440/186/205
f 418/183/192 503/251/234 504/250/234
f 506/25/195 366/4/163 363/3/161
f 508/27/215 368/3/164 364/4/162
f 505/27/219 371/28/166 369/33/165
f 510/32/203 380/33/172 372/28/167
f 509/32/8 383/34/174 375/30/169
f 512/29/199 374/30/168 378/34/171
f 511/29/9 377/31/170 381/26/173
f 507/25/200 362/26/160 384/31/175
f 331/10/72 325/7/72 121/5/72
f 126/158/74 324/147/74 320/145/74
f 329/146/73 124/159/73 122/157/73
f 322/1/75 125/5/75 328/7/75
f 171/124/76 127/36/76 131/51/76
f 131/51/76 135/327/76 139/255/76
f 139/255/76 143/339/84 147/340/86
f 147/340/86 151/341/86 155/100/86
f 155/100/86 159/99/90 163/117/76
f 163/117/76 167/116/93 171/124/76
f 171/124/76 131/51/76 139/255/76
f 139/255/76 147/340/86 155/100/86
f 155/100/86 163/117/76 171/124/76
f 130/44/77 134/46/79 132/256/79
f 174/142/95 130/44/77 128/257/77
f 137/57/78 133/56/80 129/342/78
f 129/342/78 173/343/96 169/259/78
f 169/259/78 165/344/78 161/105/78
f 161/105/78 157/93/83 153/86/78
f 153/86/78 149/78/78 145/71/78
f 145/71/78 141/65/83 137/57/78
f 137/57/78 129/342/78 169/259/78
f 169/259/78 161/105/78 153/86/78
f 153/86/78 145/71/78 137/57/78
f 134/46/79 138/345/81 136/260/81
f 136/58/81 138/346/81 142/261/82
f 142/261/82 146/262/85 144/77/85
f 146/262/85 150/347/87 148/76/87
f 148/80/87 150/348/87 154/263/88
f 154/263/88 158/264/89 156/88/89
f 158/264/89 162/349/91 160/265/91
f 160/266/91 162/331/91 166/61/92
f 166/61/92 170/119/94 168/268/94
f 170/119/94 174/122/95 172/269/95
f 199/133/108 203/144/110 207/143/108
f 207/143/108 211/161/114 215/160/97
f 215/160/97 219/332/117 175/350/97
f 175/350/97 179/351/97 183/270/97
f 183/270/97 187/352/97 191/129/97
f 191/129/97 195/128/97 199/133/108
f 199/133/108 207/143/108 215/160/97
f 215/160/97 175/350/97 183/270/97
f 183/270/97 191/129/97 199/133/108
f 178/271/98 182/353/100 180/109/100
f 222/272/118 178/271/98 176/110/98
f 197/131/101 193/48/106 189/87/104
f 189/87/104 185/40/101 181/39/101
f 181/39/101 177/177/99 221/173/101
f 221/173/101 217/333/104 213/273/101
f 213/273/101 209/354/113 205/355/101
f 205/355/101 201/356/101 197/131/101
f 197/131/101 189/87/104 181/39/101
f 181/39/101 221/173/101 213/273/101
f 213/273/101 205/355/101 197/131/101
f 182/274/100 186/275/102 184/106/102
f 186/275/102 190/276/103 188/68/103
f 190/276/103 194/357/105 192/66/105
f 192/277/105 194/345/105 198/278/107
f 198/278/107 202/137/109 200/280/109
f 200/280/109 202/137/109 206/142/111
f 206/148/111 210/150/112 208/282/112
f 208/282/112 210/150/112 214/90/115
f 212/284/115 214/90/115 218/166/116
f 218/286/116 222/272/118 220/175/118
f 223/154/119 227/43/121 231/42/119
f 231/42/119 235/75/125 239/74/128
f 239/74/128 243/334/130 247/358/128
f 247/358/128 251/359/128 255/288/128
f 255/288/128 259/360/128 263/212/128
f 263/212/128 267/211/128 223/154/119
f 223/154/119 231/42/119 239/74/128
f 239/74/128 247/358/128 255/288/128
f 255/288/128 263/212/128 223/154/119
f 224/289/77 226/134/77 230/136/122
f 270/291/138 226/134/77 224/289/77
f 241/294/120 237/361/127 233/362/120
f 233/362/120 229/363/123 225/293/120
f 225/293/120 269/214/133 265/208/120
f 265/208/120 261/205/132 257/200/120
f 257/200/120 253/194/120 249/189/133
f 249/189/133 245/181/132 241/294/120
f 241/294/120 233/362/120 225/293/120
f 225/293/120 265/208/120 257/200/120
f 257/200/120 249/189/133 241/294/120
f 230/101/122 234/103/124 232/295/124
f 232/295/124 234/103/124 238/61/126
f 236/297/126 238/61/126 242/63/129
f 242/299/129 246/301/131 244/185/131
f 246/301/131 250/302/88 248/191/88
f 250/302/88 254/364/134 252/190/134
f 254/303/134 258/304/135 256/77/135
f 258/304/135 262/305/136 260/69/136
f 262/305/136 266/346/137 264/206/137
f 264/306/137 266/365/137 270/291/138
f 287/114/147 291/226/149 295/225/139
f 295/225/139 299/234/139 303/307/139
f 303/307/139 307/366/139 311/367/139
f 311/367/139 315/368/139 271/308/139
f 271/308/139 275/97/141 279/96/139
f 279/96/139 283/115/145 287/114/147
f 287/114/147 295/225/139 303/307/139
f 303/307/139 311/367/139 271/308/139
f 271/308/139 279/96/139 287/114/147
f 274/309/98 278/311/142 276/201/142
f 316/252/157 318/369/157 274/309/98
f 305/238/140 301/237/153 297/370/140
f 297/370/140 293/371/151 289/310/140
f 289/310/140 285/372/140 281/171/140
f 281/171/140 277/170/143 273/254/140
f 273/254/140 317/250/140 313/247/140
f 313/247/140 309/243/143 305/238/140
f 305/238/140 297/370/140 289/310/140
f 289/310/140 281/171/140 273/254/140
f 273/254/140 313/247/140 305/238/140
f 278/311/142 282/373/144 280/312/144
f 280/313/144 282/335/144 286/90/146
f 286/90/146 290/92/148 288/315/148
f 290/92/148 294/223/150 292/316/150
f 294/136/150 298/227/109 296/317/109
f 298/227/109 302/231/152 300/319/152
f 302/231/152 306/365/154 304/320/154
f 304/239/154 306/357/154 310/321/155
f 310/321/155 314/322/156 312/106/156
f 314/322/156 318/374/157 316/249/157
f 323/159/158 336/146/158 332/232/158
f 335/147/159 330/158/159 326/244/159
f 355/22/72 349/19/72 337/13/72
f 342/163/74 348/222/74 344/220/74
f 353/323/73 340/326/73 338/324/73
f 346/16/75 341/13/75 352/19/75
f 347/326/158 360/323/158 356/325/158
f 359/222/159 354/163/159 350/246/159
f 379/32/72 373/29/72 361/25/72
f 370/27/75 365/25/75 376/29/75
