# Blender 5.2.0 LTS
# www.blender.org
o Backdrop_HoneyDipper
v 0.000000 38.000000 0.000000
v 5.599738 48.500000 -7.707377
v 0.000000 48.500000 -9.526842
v 0.000000 48.049999 -10.000000
v 5.877852 48.049999 -8.090170
v -3.542489 53.500000 4.875818
v -3.820604 53.049999 5.258611
v 5.731868 48.500000 1.862396
v 3.542489 48.500000 4.875818
v 3.820604 48.950001 5.258611
v 6.181868 48.950001 2.008610
v 0.000000 58.500000 -9.526842
v 0.000000 58.049999 -10.000000
v -5.731868 48.500000 1.862396
v -6.181868 48.950001 2.008610
v 3.542489 43.500000 4.875818
v 3.820604 43.049999 5.258611
v 9.060566 43.500000 -2.943956
v 9.060566 43.500000 2.943956
v 9.510566 43.950001 3.090170
v 9.510566 43.950001 -3.090170
v 9.060566 58.500000 -2.943956
v 5.599738 58.500000 -7.707377
v 5.877852 58.049999 -8.090170
v 9.510566 58.049999 -3.090170
v -5.731868 38.500000 -1.862396
v -6.181868 38.950001 -2.008610
v -5.731868 38.500000 1.862396
v -6.181868 38.950001 2.008610
v -5.731868 53.500000 1.862396
v -6.181868 53.049999 2.008610
v -3.542489 43.500000 4.875818
v -0.000000 43.500000 6.026842
v 0.000000 43.049999 6.500000
v -3.820604 43.049999 5.258611
v 3.542489 58.500000 -4.875818
v 3.820604 58.950001 -5.258611
v 0.000000 38.500000 6.026842
v -3.542489 38.500000 4.875818
v -3.820604 38.950001 5.258611
v 0.000000 38.950001 6.500000
v -5.731868 48.500000 -1.862396
v -6.181868 48.950001 -2.008610
v -12.767062 32.500000 -22.113203
v -12.767062 27.500000 -22.113203
v -13.000000 27.950001 -22.516661
v -22.113203 32.500000 -12.767062
v -22.516661 32.049999 -13.000000
v -5.731868 53.500000 -1.862396
v -6.181868 53.049999 -2.008610
v 0.000000 35.949749 -16.263456
v -22.113203 27.500000 -12.767062
v 0.000000 31.000000 -23.000000
v -22.516661 27.950001 -13.000000
v -25.534126 32.500000 0.000000
v -26.000000 32.049999 0.000000
v -25.534126 27.500000 -0.000000
v -26.000000 27.950001 0.000000
v 4.400860 37.467155 -7.622513
v 8.131728 35.949749 -14.084565
v 10.624615 33.678783 -18.402372
v 11.500000 31.000000 -19.918585
v -22.113203 32.500000 12.767062
v -22.516661 32.049999 13.000000
v -3.542489 48.500000 -4.875818
v -0.000000 48.500000 -6.026842
v 0.000000 48.950001 -6.500000
v 7.622513 37.467155 -4.400859
v 14.084565 35.949749 -8.131727
v 18.402372 33.678783 -10.624614
v 19.918585 31.000000 -11.500000
v -3.820604 48.950001 -5.258611
v -22.113203 27.500000 12.767062
v -22.516661 27.950001 13.000000
v 0.000000 53.500000 -6.026842
v -3.542489 53.500000 -4.875818
v 8.801719 37.467155 0.000000
v 16.263454 35.949749 0.000001
v 21.249228 33.678783 0.000001
v 23.000000 31.000000 0.000000
v -3.820604 53.049999 -5.258611
v 0.000000 53.049999 -6.500000
v -12.767062 32.500000 22.113203
v -13.000000 32.049999 22.516661
v 1.494062 104.000000 1.494062
v 7.622512 37.467155 4.400860
v 14.084564 35.949749 8.131728
v 18.402370 33.678783 10.624615
v 19.918585 31.000000 11.500000
v 2.112923 104.000000 -0.000000
v 1.838477 103.550003 1.838477
v 1.838477 103.550003 1.838477
v -12.767062 27.500000 22.113203
v -13.000000 27.950001 22.516661
v 4.400859 37.467155 7.622512
v 8.131725 35.949749 14.084565
v 10.624614 33.678783 18.402370
v 11.500000 31.000000 19.918585
v 9.060566 58.500000 2.943956
v 9.510566 58.049999 3.090170
v 0.000000 32.049999 26.000000
v -0.000000 27.500000 25.534126
v 0.000000 27.950001 26.000000
v 0.000000 37.467155 8.801719
v -0.000001 35.949749 16.263454
v 0.000000 33.678783 21.249228
v 0.000000 31.000000 23.000000
v 13.000000 32.049999 22.516661
v 5.599738 53.500000 7.707377
v 5.877852 53.950001 8.090170
v 12.767062 27.500000 22.113203
v 13.000000 27.950001 22.516661
v -4.400859 37.467155 7.622512
v -8.131728 35.949749 14.084562
v -10.624614 33.678783 18.402370
v -11.500000 31.000000 19.918585
v -12.157063 28.000000 -21.056652
v -12.359878 27.553778 -21.407940
v 5.731868 58.500000 -1.862396
v 5.731868 58.500000 1.862396
v 6.181868 58.950001 2.008610
v -7.622512 37.467155 4.400860
v -14.084565 35.949749 8.131724
v -18.402370 33.678783 10.624615
v -19.918585 31.000000 11.500000
v 6.181868 58.950001 -2.008610
v -10.267062 0.000000 -17.783075
v -10.530122 0.446222 -18.238701
v -21.056652 28.000000 -12.157063
v -21.407940 27.553778 -12.359878
v -8.801720 37.467155 0.000000
v -16.263454 35.949749 -0.000003
v -21.249229 33.678783 0.000001
v -23.000000 31.000000 0.000000
v -17.783075 0.000000 -10.267062
v -18.238703 0.446222 -10.530123
v 0.000000 58.500000 9.526842
v 5.599737 58.500000 7.707377
v 5.877852 58.049999 8.090170
v -7.622513 37.467155 -4.400859
v -14.084562 35.949749 -8.131729
v -18.402372 33.678783 -10.624614
v -19.918585 31.000000 -11.500000
v 0.000000 58.049999 10.000000
v -24.314127 28.000000 -0.000000
v -24.719761 27.553778 0.000000
v 0.000000 27.500000 -25.534126
v 0.000000 27.950001 -26.000000
v -4.400860 37.467155 -7.622512
v -8.131724 35.949749 -14.084565
v -10.624615 33.678783 -18.402370
v -11.500000 31.000000 -19.918585
v -20.534126 0.000000 0.000000
v -21.060240 0.446222 0.000000
v -21.056652 28.000000 12.157063
v -21.407940 27.553778 12.359878
v -17.783075 0.000000 10.267062
v -0.000000 37.467155 -8.801720
v -18.238701 0.446222 10.530122
v -0.000001 33.678783 -21.249229
v -12.157063 28.000000 21.056652
v -12.359878 27.553778 21.407940
v 0.000000 107.330124 -2.100000
v 0.000000 108.000000 0.000000
v -5.731868 43.500000 -1.862396
v -5.731868 43.500000 1.862396
v -6.181868 43.049999 2.008610
v -6.181868 43.049999 -2.008610
v -10.530123 0.446222 18.238703
v -0.000000 28.000000 24.314127
v 0.000000 27.553778 24.719761
v -0.000000 32.500000 -25.534126
v 12.767062 32.500000 -22.113203
v 0.000000 27.553778 -24.719761
v 0.000000 103.000000 -4.200000
v 0.000000 28.000000 -24.314127
v 26.000000 32.049999 0.000000
v 22.516661 32.049999 13.000000
v 0.000000 0.446222 -21.060240
v 10.530123 0.446222 -18.238703
v 22.516661 27.950001 -13.000000
v 13.000000 27.950001 -22.516661
v 12.767062 27.500000 -22.113203
v 22.113203 27.500000 -12.767062
v 12.359878 27.553778 -21.407940
v 12.157063 28.000000 -21.056652
v 18.238701 0.446222 -10.530122
v -2.969848 103.000000 -2.969848
v 17.783075 0.000000 -10.267062
v -5.877852 53.950001 8.090170
v 0.000000 53.950001 10.000000
v -4.199999 103.000000 0.000000
v 0.000000 53.500000 9.526842
v -5.599737 53.500000 7.707377
v 21.407940 27.553778 -12.359878
v -2.969848 103.000000 2.969848
v 21.056652 28.000000 -12.157063
v 22.516661 27.950001 13.000000
v 26.000000 27.950001 0.000000
v 0.000000 103.000000 4.199999
v 25.534126 27.500000 0.000000
v 22.113203 27.500000 12.767062
v 21.060240 0.446222 0.000000
v 2.969848 103.000000 2.969848
v 24.719761 27.553778 0.000000
v 24.314127 28.000000 0.000000
v 4.199999 103.000000 0.000000
v 1.838477 64.449997 1.838477
v 1.838477 64.449997 1.838477
v 1.494062 64.000000 1.494062
v -0.000000 64.000000 2.112923
v 20.534126 0.000000 0.000000
v 0.000000 32.500000 25.534126
v 22.516661 32.049999 -13.000000
v 0.000000 0.000000 -20.534126
v 10.267062 0.000000 -17.783075
v -13.000000 32.049999 -22.516661
v 22.113203 32.500000 -12.767062
v 2.969848 103.000000 -2.969848
v 12.767062 32.500000 22.113203
v -10.267062 0.000000 17.783075
v 17.783075 0.000000 10.267062
v 18.238703 0.446222 10.530123
v 21.407940 27.553778 12.359878
v 12.359878 27.553778 21.407940
v 12.157063 28.000000 21.056652
v 21.056652 28.000000 12.157063
v 0.000000 0.446222 21.060240
v 10.530122 0.446222 18.238701
v 10.267062 0.000000 17.783075
v 0.000000 0.000000 20.534126
v 22.113203 32.500000 12.767062
v 25.534126 32.500000 -0.000000
v 0.000000 32.049999 -26.000000
v 13.000000 32.049999 -22.516661
v -21.407940 27.553778 12.359878
v 0.000000 103.000000 -4.200000
v -21.056652 28.000000 12.157063
v 24.314127 28.000000 0.000000
v 21.060240 0.446222 0.000000
v 1.484924 107.330124 -1.484924
v -18.238701 0.446222 10.530122
v 2.571964 105.500000 -2.571964
v 2.969848 103.000000 -2.969848
v 20.534126 0.000000 0.000000
v 21.407940 27.553778 -12.359878
v -17.783075 0.000000 10.267062
v 2.100000 107.330124 0.000000
v -12.359878 27.553778 21.407940
v 3.637306 105.500000 0.000000
v 4.199999 103.000000 0.000000
v 21.056652 28.000000 -12.157063
v 18.238701 0.446222 -10.530122
v -12.157063 28.000000 21.056652
v 1.484924 107.330124 1.484924
v -10.530123 0.446222 18.238703
v 2.571964 105.500000 2.571964
v 2.969848 103.000000 2.969848
v 17.783075 0.000000 -10.267062
v 12.359878 27.553778 -21.407940
v -10.267062 0.000000 17.783075
v 0.000000 107.330124 2.100000
v 0.000000 27.553778 24.719761
v 0.000000 105.500000 3.637306
v 0.000000 103.000000 4.199999
v 12.157063 28.000000 -21.056652
v 10.530123 0.446222 -18.238703
v -0.000000 28.000000 24.314127
v -1.484924 107.330124 1.484924
v 0.000000 0.446222 21.060240
v -2.571964 105.500000 2.571964
v -2.969848 103.000000 2.969848
v 10.267062 0.000000 -17.783075
v 0.000000 27.553778 -24.719761
v 0.000000 0.000000 20.534126
v -2.100000 107.330124 0.000000
v 12.359878 27.553778 21.407940
v -3.637306 105.500000 0.000000
v -4.199999 103.000000 0.000000
v 0.000000 28.000000 -24.314127
v 0.000000 0.446222 -21.060240
v 12.157063 28.000000 21.056652
v -1.484924 107.330124 -1.484924
v 10.530122 0.446222 18.238701
v -2.571964 105.500000 -2.571964
v -2.969848 103.000000 -2.969848
v 0.000000 0.000000 -20.534126
v 6.181868 53.049999 -2.008610
v 10.267062 0.000000 17.783075
v 21.407940 27.553778 12.359878
v 21.056652 28.000000 12.157063
v 0.000000 105.500000 -3.637306
v 18.238703 0.446222 10.530123
v 5.731868 53.500000 -1.862396
v 17.783075 0.000000 10.267062
v 24.719761 27.553778 0.000000
v -20.534126 0.000000 0.000000
v -21.060240 0.446222 0.000000
v -24.314127 28.000000 -0.000000
v -24.719761 27.553778 0.000000
v -17.783075 0.000000 -10.267062
v -18.238703 0.446222 -10.530123
v -21.056652 28.000000 -12.157063
v -21.407940 27.553778 -12.359878
v -10.267062 0.000000 -17.783075
v -10.530122 0.446222 -18.238701
v -12.157063 28.000000 -21.056652
v -12.359878 27.553778 -21.407940
v 0.000000 27.500000 -25.534126
v 0.000000 27.950001 -26.000000
v -0.000000 32.500000 -25.534126
v 0.000000 32.049999 -26.000000
v 12.767062 27.500000 -22.113203
v 13.000000 27.950001 -22.516661
v 12.767062 32.500000 -22.113203
v 13.000000 32.049999 -22.516661
v 22.113203 27.500000 -12.767062
v 22.516661 27.950001 -13.000000
v 22.113203 32.500000 -12.767062
v 22.516661 32.049999 -13.000000
v 25.534126 27.500000 0.000000
v 26.000000 27.950001 0.000000
v 25.534126 32.500000 -0.000000
v 26.000000 32.049999 0.000000
v 22.113203 27.500000 12.767062
v 22.516661 27.950001 13.000000
v 22.113203 32.500000 12.767062
v 22.516661 32.049999 13.000000
v 12.767062 27.500000 22.113203
v 13.000000 27.950001 22.516661
v 12.767062 32.500000 22.113203
v 13.000000 32.049999 22.516661
v -0.000000 27.500000 25.534126
v 0.000000 27.950001 26.000000
v 0.000000 32.500000 25.534126
v 0.000000 32.049999 26.000000
v -12.767062 27.500000 22.113203
v -13.000000 27.950001 22.516661
v -12.767062 32.500000 22.113203
v -13.000000 32.049999 22.516661
v -22.113203 27.500000 12.767062
v -22.516661 27.950001 13.000000
v -22.113203 32.500000 12.767062
v -22.516661 32.049999 13.000000
v -25.534126 27.500000 -0.000000
v -26.000000 27.950001 0.000000
v -25.534126 32.500000 0.000000
v -26.000000 32.049999 0.000000
v -22.113203 27.500000 -12.767062
v -22.516661 27.950001 -13.000000
v -22.113203 32.500000 -12.767062
v -22.516661 32.049999 -13.000000
v -12.767062 27.500000 -22.113203
v -13.000000 27.950001 -22.516661
v -12.767062 32.500000 -22.113203
v -13.000000 32.049999 -22.516661
v 5.731868 48.500000 -1.862396
v 6.181868 48.950001 -2.008610
v 3.542489 53.500000 -4.875818
v 3.820604 53.049999 -5.258611
v 3.542489 48.500000 -4.875818
v 3.820604 48.950001 -5.258611
v 0.000000 53.500000 -6.026842
v 0.000000 53.049999 -6.500000
v -5.731868 38.500000 1.862396
v -6.181868 38.950001 2.008610
v -0.000000 48.500000 -6.026842
v 0.000000 48.950001 -6.500000
v -3.542489 43.500000 4.875818
v -3.820604 43.049999 5.258611
v -3.542489 38.500000 4.875818
v -3.820604 38.950001 5.258611
v -0.000000 43.500000 6.026842
v 0.000000 43.049999 6.500000
v -5.599737 48.500000 -7.707377
v -5.877852 48.049999 -8.090170
v -5.599738 43.500000 -7.707377
v -5.877852 43.950001 -8.090170
v 0.000000 38.500000 6.026842
v 0.000000 38.950001 6.500000
v 3.542489 43.500000 4.875818
v 3.820604 43.049999 5.258611
v 3.542489 38.500000 4.875818
v 3.820604 38.950001 5.258611
v -9.060566 48.500000 -2.943956
v -9.510566 48.049999 -3.090170
v -9.060566 43.500000 -2.943956
v -9.510566 43.950001 -3.090170
v 5.731868 43.500000 1.862396
v 6.181868 43.049999 2.008610
v 5.731868 38.500000 1.862396
v 6.181868 38.950001 2.008610
v 5.731868 43.500000 -1.862396
v 6.181868 43.049999 -2.008610
v -9.060566 48.500000 2.943956
v -9.510566 48.049999 3.090170
v -9.060566 43.500000 2.943956
v -9.510566 43.950001 3.090170
v 5.731868 38.500000 -1.862396
v 6.181868 38.950001 -2.008610
v 3.542489 43.500000 -4.875818
v 3.820604 43.049999 -5.258611
v 3.542489 38.500000 -4.875818
v 3.820604 38.950001 -5.258611
v -5.599738 48.500000 7.707377
v -5.877852 48.049999 8.090170
v -5.599737 43.500000 7.707377
v -5.877852 43.950001 8.090170
v 0.000000 43.500000 -6.026842
v 0.000000 43.049999 -6.500000
v -0.000000 38.500000 -6.026842
v 0.000000 38.950001 -6.500000
v -5.599737 38.500000 -7.707377
v -5.877852 38.049999 -8.090170
v 0.000000 48.500000 9.526842
v 0.000000 48.049999 10.000000
v 0.000000 43.500000 9.526842
v 0.000000 43.950001 10.000000
v -5.599738 33.500000 -7.707377
v -5.877852 33.950001 -8.090170
v -9.060566 38.500000 -2.943956
v -9.510566 38.049999 -3.090170
v -9.060566 33.500000 -2.943956
v -9.510566 33.950001 -3.090170
v 5.599737 48.500000 7.707377
v 5.877852 48.049999 8.090170
v 5.599738 43.500000 7.707377
v 5.877852 43.950001 8.090170
v -9.060566 38.500000 2.943956
v -9.510566 38.049999 3.090170
v -9.060566 33.500000 2.943956
v -9.510566 33.950001 3.090170
v -5.599738 38.500000 7.707377
v -5.877852 38.049999 8.090170
v 9.060566 48.500000 2.943956
v 9.510566 48.049999 3.090170
v 9.060566 43.500000 2.943956
v 9.510566 43.950001 3.090170
v -5.599737 33.500000 7.707377
v -5.877852 33.950001 8.090170
v 0.000000 38.500000 9.526842
v 0.000000 38.049999 10.000000
v 0.000000 33.500000 9.526842
v 0.000000 33.950001 10.000000
v 9.060566 48.500000 -2.943956
v 9.510566 48.049999 -3.090170
v 9.060566 43.500000 -2.943956
v 9.510566 43.950001 -3.090170
v 5.599737 38.500000 7.707377
v 5.877852 38.049999 8.090170
v 5.599738 33.500000 7.707377
v 5.877852 33.950001 8.090170
v 9.060566 38.500000 2.943956
v 9.510566 38.049999 3.090170
v 5.599738 48.500000 -7.707377
v 5.877852 48.049999 -8.090170
v 5.599737 43.500000 -7.707377
v 5.877852 43.950001 -8.090170
v 9.060566 33.500000 2.943956
v 9.510566 33.950001 3.090170
v 9.060566 38.500000 -2.943956
v 9.510566 38.049999 -3.090170
v 9.060566 33.500000 -2.943956
v 9.510566 33.950001 -3.090170
v 0.000000 48.500000 -9.526842
v 0.000000 48.049999 -10.000000
v 0.000000 43.500000 -9.526842
v 0.000000 43.950001 -10.000000
v 5.599738 38.500000 -7.707377
v 5.877852 38.049999 -8.090170
v 5.599737 33.500000 -7.707377
v 5.877852 33.950001 -8.090170
v 0.000000 38.500000 -9.526842
v 0.000000 38.049999 -10.000000
v -3.542489 43.500000 -4.875818
v -3.820604 43.049999 -5.258611
v -3.542489 38.500000 -4.875818
v -3.820604 38.950001 -5.258611
v -5.731868 43.500000 -1.862396
v -6.181868 43.049999 -2.008610
v -5.731868 38.500000 -1.862396
v -6.181868 38.950001 -2.008610
v 0.000000 33.500000 -9.526842
v 0.000000 33.950001 -10.000000
v -5.731868 43.500000 1.862396
v -6.181868 43.049999 2.008610
v 5.731868 48.500000 1.862396
v 6.181868 48.950001 2.008610
v 5.731868 53.500000 1.862396
v 6.181868 53.049999 2.008610
v 3.542489 48.500000 4.875818
v 3.820604 48.950001 5.258611
v 3.542489 53.500000 4.875818
v 3.820604 53.049999 5.258611
v 0.000000 48.500000 6.026842
v 0.000000 48.950001 6.500000
v -0.000000 53.500000 6.026842
v 0.000000 53.049999 6.500000
v -3.542489 48.500000 4.875818
v -3.820604 48.950001 5.258611
v -3.542489 53.500000 4.875818
v -3.820604 53.049999 5.258611
v -5.731868 48.500000 1.862396
v -6.181868 48.950001 2.008610
v -5.731868 53.500000 1.862396
v -6.181868 53.049999 2.008610
v -5.731868 48.500000 -1.862396
v -6.181868 48.950001 -2.008610
v -5.731868 53.500000 -1.862396
v -6.181868 53.049999 -2.008610
v -3.542489 48.500000 -4.875818
v -3.820604 48.950001 -5.258611
v -3.542489 53.500000 -4.875818
v -3.820604 53.049999 -5.258611
v 0.000000 53.500000 -9.526842
v 0.000000 53.950001 -10.000000
v 0.000000 58.500000 -9.526842
v 0.000000 58.049999 -10.000000
v 5.599737 53.500000 -7.707377
v 5.877852 53.950001 -8.090170
v 5.599738 58.500000 -7.707377
v 5.877852 58.049999 -8.090170
v 9.060566 53.500000 -2.943956
v 9.510566 53.950001 -3.090170
v 9.060566 58.500000 -2.943956
v 9.510566 58.049999 -3.090170
v 9.060566 53.500000 2.943956
v 9.510566 53.950001 3.090170
v 9.060566 58.500000 2.943956
v 9.510566 58.049999 3.090170
v 5.599738 53.500000 7.707377
v 5.877852 53.950001 8.090170
v 5.599737 58.500000 7.707377
v 5.877852 58.049999 8.090170
v 0.000000 53.500000 9.526842
v 0.000000 53.950001 10.000000
v 0.000000 58.500000 9.526842
v 0.000000 58.049999 10.000000
v -5.599737 53.500000 7.707377
v -5.877852 53.950001 8.090170
v -5.599738 58.500000 7.707377
v -5.877852 58.049999 8.090170
v -9.060566 53.500000 2.943956
v -9.510566 53.950001 3.090170
v -9.060566 58.500000 2.943956
v -9.510566 58.049999 3.090170
v -9.060566 53.500000 -2.943956
v -9.510566 53.950001 -3.090170
v -9.060566 58.500000 -2.943956
v -9.510566 58.049999 -3.090170
v -5.599738 53.500000 -7.707377
v -5.877852 53.950001 -8.090170
v -5.599737 58.500000 -7.707377
v -5.877852 58.049999 -8.090170
v -0.000000 58.500000 -6.026842
v 0.000000 58.950001 -6.500000
v 0.000000 63.500000 -6.026842
v 0.000000 63.049999 -6.500000
v 3.542489 58.500000 -4.875818
v 3.820604 58.950001 -5.258611
v 3.542489 63.500000 -4.875818
v 3.820604 63.049999 -5.258611
v 5.731868 58.500000 -1.862396
v 6.181868 58.950001 -2.008610
v 5.731868 63.500000 -1.862396
v 6.181868 63.049999 -2.008610
v 5.731868 58.500000 1.862396
v 6.181868 58.950001 2.008610
v 5.731868 63.500000 1.862396
v 6.181868 63.049999 2.008610
v 3.542489 58.500000 4.875818
v 3.820604 58.950001 5.258611
v 3.542489 63.500000 4.875818
v 3.820604 63.049999 5.258611
v 0.000000 58.500000 6.026842
v 0.000000 58.950001 6.500000
v -0.000000 63.500000 6.026842
v 0.000000 63.049999 6.500000
v -3.542489 58.500000 4.875818
v -3.820604 58.950001 5.258611
v -3.542489 63.500000 4.875818
v -3.820604 63.049999 5.258611
v -5.731868 58.500000 1.862396
v -6.181868 58.950001 2.008610
v -5.731868 63.500000 1.862396
v -6.181868 63.049999 2.008610
v -5.731868 58.500000 -1.862396
v -6.181868 58.950001 -2.008610
v -5.731868 63.500000 -1.862396
v -6.181868 63.049999 -2.008610
v -3.542489 58.500000 -4.875818
v -3.820604 58.950001 -5.258611
v -3.542489 63.500000 -4.875818
v -3.820604 63.049999 -5.258611
v 0.000000 64.000000 -2.112923
v -0.415746 64.449997 -2.427792
v 0.415746 64.449997 -2.427792
v -0.000000 104.000000 -2.112923
v 0.415746 103.550003 -2.427792
v -0.415746 103.550003 -2.427792
v 1.494062 64.000000 -1.494062
v 1.838477 64.449997 -1.838477
v 1.494062 104.000000 -1.494062
v 1.838477 103.550003 -1.838477
v 2.112923 64.000000 0.000000
v 2.427792 64.449997 -0.415746
v 2.427792 64.449997 0.415746
v 2.112923 104.000000 -0.000000
v 2.427792 103.550003 0.415746
v 2.427792 103.550003 -0.415746
v 1.494062 64.000000 1.494062
v 1.838477 64.449997 1.838477
v 1.494062 104.000000 1.494062
v 1.838477 103.550003 1.838477
v -0.000000 64.000000 2.112923
v 0.415746 64.449997 2.427792
v -0.415746 64.449997 2.427792
v 0.000000 104.000000 2.112923
v -0.415746 103.550003 2.427792
v 0.415746 103.550003 2.427792
v -1.494062 64.000000 1.494062
v -1.838477 64.449997 1.838477
v -1.494062 104.000000 1.494062
v -1.838477 103.550003 1.838477
v -2.112923 64.000000 -0.000000
v -2.427792 64.449997 0.415746
v -2.427792 64.449997 -0.415746
v -2.112923 104.000000 0.000000
v -2.427792 103.550003 -0.415746
v -2.427792 103.550003 0.415746
v -1.494062 64.000000 -1.494062
v -1.838477 64.449997 -1.838477
v -1.494062 104.000000 -1.494062
v -1.838477 103.550003 -1.838477
v 0.000000 38.049999 -10.000000
v -5.877852 38.049999 -8.090170
v -5.599737 38.500000 -7.707377
v 0.000000 38.500000 -9.526842
v -3.820604 48.950001 5.258611
v -3.542489 48.500000 4.875818
v 0.000000 53.950001 -10.000000
v 5.877852 53.950001 -8.090170
v 5.599737 53.500000 -7.707377
v 0.000000 53.500000 -9.526842
v 6.181868 43.049999 2.008610
v 5.731868 43.500000 1.862396
v 3.820604 38.950001 5.258611
v 3.542489 38.500000 4.875818
v -9.510566 38.049999 -3.090170
v -9.510566 38.049999 3.090170
v -9.060566 38.500000 2.943956
v -9.060566 38.500000 -2.943956
v -9.510566 33.950001 -3.090170
v -5.877852 33.950001 -8.090170
v -5.599738 33.500000 -7.707377
v -9.060566 33.500000 -2.943956
v 0.000000 53.049999 6.500000
v -0.000000 53.500000 6.026842
v 0.000000 48.950001 6.500000
v 0.000000 48.500000 6.026842
v 3.820604 58.950001 5.258611
v 3.542489 58.500000 4.875818
v 5.877852 43.950001 8.090170
v 5.599738 43.500000 7.707377
v 0.000000 33.950001 -10.000000
v 0.000000 33.500000 -9.526842
v 0.000000 38.950001 -6.500000
v 3.820604 38.950001 -5.258611
v 3.542489 38.500000 -4.875818
v -0.000000 38.500000 -6.026842
v 6.181868 43.049999 -2.008610
v 3.820604 43.049999 -5.258611
v 3.542489 43.500000 -4.875818
v 5.731868 43.500000 -1.862396
v 3.820604 53.049999 5.258611
v 3.542489 53.500000 4.875818
v 3.820604 53.049999 -5.258611
v 3.542489 53.500000 -4.875818
v 9.510566 53.950001 -3.090170
v 9.510566 53.950001 3.090170
v 9.060566 53.500000 2.943956
v 9.060566 53.500000 -2.943956
v -9.510566 33.950001 3.090170
v -9.060566 33.500000 2.943956
v 0.000000 33.950001 10.000000
v -5.877852 33.950001 8.090170
v -5.599737 33.500000 7.707377
v 0.000000 33.500000 9.526842
v 1.838477 103.550003 -1.838477
v 1.838477 103.550003 -1.838477
v -0.000000 104.000000 -2.112923
v 1.494062 104.000000 -1.494062
v -5.877852 38.049999 8.090170
v 0.000000 38.049999 10.000000
v 0.000000 38.500000 9.526842
v -5.599738 38.500000 7.707377
v 6.181868 53.049999 2.008610
v 5.731868 53.500000 1.862396
v 6.181868 63.049999 2.008610
v 6.181868 63.049999 -2.008610
v 5.731868 63.500000 -1.862396
v 5.731868 63.500000 1.862396
v 6.181868 38.950001 -2.008610
v 6.181868 38.950001 2.008610
v 5.731868 38.500000 1.862396
v 5.731868 38.500000 -1.862396
v 5.877852 38.049999 8.090170
v 5.599737 38.500000 7.707377
v -5.877852 48.049999 -8.090170
v -5.599737 48.500000 -7.707377
v -5.877852 43.950001 -8.090170
v 0.000000 43.950001 -10.000000
v 0.000000 43.500000 -9.526842
v -5.599738 43.500000 -7.707377
v -9.510566 48.049999 -3.090170
v -9.060566 48.500000 -2.943956
v 9.510566 48.049999 3.090170
v 9.510566 48.049999 -3.090170
v 9.060566 48.500000 -2.943956
v 9.060566 48.500000 2.943956
v 5.877852 43.950001 -8.090170
v 5.599737 43.500000 -7.707377
v 0.000000 43.049999 -6.500000
v 0.000000 43.500000 -6.026842
v 9.510566 33.950001 3.090170
v 5.877852 33.950001 8.090170
v 5.599738 33.500000 7.707377
v 9.060566 33.500000 2.943956
v -9.510566 43.950001 -3.090170
v -9.060566 43.500000 -2.943956
v 9.510566 38.049999 3.090170
v 9.060566 38.500000 2.943956
v 9.510566 38.049999 -3.090170
v 5.877852 38.049999 -8.090170
v 5.599738 38.500000 -7.707377
v 9.060566 38.500000 -2.943956
v 9.510566 33.950001 -3.090170
v 9.060566 33.500000 -2.943956
v -9.510566 48.049999 3.090170
v -9.060566 48.500000 2.943956
v 6.181868 53.049999 -2.008610
v 5.731868 53.500000 -1.862396
v -9.510566 43.950001 3.090170
v -9.060566 43.500000 2.943956
v -5.877852 48.049999 8.090170
v -5.599738 48.500000 7.707377
v -5.877852 43.950001 8.090170
v -5.599737 43.500000 7.707377
v 5.877852 33.950001 -8.090170
v 5.599737 33.500000 -7.707377
v 3.820604 48.950001 -5.258611
v 3.542489 48.500000 -4.875818
v 0.000000 48.049999 10.000000
v 0.000000 48.500000 9.526842
v 0.000000 43.950001 10.000000
v 0.000000 43.500000 9.526842
v 5.877852 48.049999 8.090170
v 5.599737 48.500000 7.707377
v 6.181868 48.950001 -2.008610
v 5.731868 48.500000 -1.862396
v 3.820604 63.049999 -5.258611
v 0.000000 63.049999 -6.500000
v 0.000000 63.500000 -6.026842
v 3.542489 63.500000 -4.875818
v -3.820604 43.049999 -5.258611
v -3.542489 43.500000 -4.875818
v -3.820604 38.950001 -5.258611
v -3.542489 38.500000 -4.875818
v -5.877852 58.049999 8.090170
v -5.599738 58.500000 7.707377
v 0.000000 58.950001 -6.500000
v -0.000000 58.500000 -6.026842
v -9.510566 53.950001 3.090170
v -9.060566 53.500000 2.943956
v -9.510566 58.049999 3.090170
v -9.060566 58.500000 2.943956
v -9.510566 53.950001 -3.090170
v -9.060566 53.500000 -2.943956
v -9.510566 58.049999 -3.090170
v -9.060566 58.500000 -2.943956
v 1.838477 64.449997 -1.838477
v 1.838477 64.449997 -1.838477
v 2.112923 64.000000 0.000000
v 1.494062 64.000000 -1.494062
v -5.877852 53.950001 -8.090170
v -5.599738 53.500000 -7.707377
v -5.877852 58.049999 -8.090170
v -5.599737 58.500000 -7.707377
v 3.820604 63.049999 5.258611
v 3.542489 63.500000 4.875818
v 0.000000 58.950001 6.500000
v 0.000000 58.500000 6.026842
v 0.000000 63.049999 6.500000
v -0.000000 63.500000 6.026842
v -3.820604 58.950001 5.258611
v -3.542489 58.500000 4.875818
v -3.820604 63.049999 5.258611
v -3.542489 63.500000 4.875818
v 0.000000 64.000000 -2.112923
v -6.181868 58.950001 2.008610
v -5.731868 58.500000 1.862396
v -6.181868 63.049999 2.008610
v -5.731868 63.500000 1.862396
v -6.181868 58.950001 -2.008610
v -5.731868 58.500000 -1.862396
v -6.181868 63.049999 -2.008610
v -5.731868 63.500000 -1.862396
v -3.820604 58.950001 -5.258611
v -3.542489 58.500000 -4.875818
v -3.820604 63.049999 -5.258611
v -3.542489 63.500000 -4.875818
v 0.000000 104.000000 2.112923
v -1.838477 64.449997 1.838477
v -1.838477 64.449997 1.838477
v -1.494062 64.000000 1.494062
v -1.838477 103.550003 1.838477
v -1.838477 103.550003 1.838477
v -1.494062 104.000000 1.494062
v -2.112923 64.000000 -0.000000
v -2.112923 104.000000 0.000000
v -1.838477 64.449997 -1.838477
v -1.838477 64.449997 -1.838477
v -1.494062 64.000000 -1.494062
v -1.838477 103.550003 -1.838477
v -1.838477 103.550003 -1.838477
v -1.494062 104.000000 -1.494062
vn -0.0000 1.0000 -0.0000
vn 0.4051 0.7246 -0.5575
vn -0.0000 0.7246 -0.6892
vn -0.4051 0.7246 0.5575
vn 0.6554 -0.7246 0.2130
vn 0.4051 -0.7246 0.5575
vn -0.6554 -0.7246 0.2130
vn 0.4051 0.7246 0.5575
vn 0.6554 -0.7246 -0.2130
vn 0.6554 0.7246 -0.2130
vn -0.6554 -0.7246 -0.2130
vn -0.6554 0.7246 0.2130
vn -0.0000 0.7246 0.6892
vn 0.4051 -0.7246 -0.5575
vn -0.0000 -0.7246 0.6892
vn -0.4051 -0.7246 0.5575
vn -0.3474 0.7193 -0.6017
vn -0.3474 -0.7193 -0.6017
vn -0.6017 0.7193 -0.3474
vn -0.6554 0.7246 -0.2130
vn -0.0000 0.9455 -0.3257
vn -0.6017 -0.7193 -0.3474
vn -0.0000 0.5471 -0.8371
vn -0.6947 0.7193 -0.0000
vn -0.6947 -0.7193 -0.0000
vn 0.0708 0.9899 -0.1226
vn 0.1629 0.9455 -0.2821
vn 0.3383 0.7363 -0.5860
vn 0.4185 0.5471 -0.7249
vn -0.6017 0.7193 0.3474
vn -0.4051 -0.7246 -0.5575
vn -0.0000 -0.7246 -0.6892
vn 0.1226 0.9899 -0.0708
vn 0.2821 0.9455 -0.1629
vn 0.5860 0.7363 -0.3383
vn 0.7249 0.5471 -0.4185
vn -0.6017 -0.7193 0.3474
vn -0.4051 0.7246 -0.5575
vn 0.1416 0.9899 -0.0000
vn 0.3257 0.9455 -0.0000
vn 0.6766 0.7363 -0.0000
vn 0.8371 0.5471 -0.0000
vn -0.3474 0.7193 0.6017
vn 0.4798 0.7345 0.4798
vn 0.1226 0.9899 0.0708
vn 0.2821 0.9455 0.1629
vn 0.5860 0.7363 0.3383
vn 0.7249 0.5471 0.4185
vn 0.7337 0.6795 -0.0000
vn 0.9239 -0.0000 0.3827
vn -0.3474 -0.7193 0.6017
vn 0.0708 0.9899 0.1226
vn 0.1629 0.9455 0.2821
vn 0.3383 0.7363 0.5860
vn 0.4185 0.5471 0.7249
vn 0.6554 0.7246 0.2130
vn -0.0000 0.7193 0.6947
vn -0.0000 -0.7193 0.6947
vn -0.0000 0.9899 0.1416
vn -0.0000 0.9455 0.3257
vn -0.0000 0.7363 0.6766
vn -0.0000 0.5471 0.8371
vn 0.3474 0.7193 0.6017
vn 0.3474 -0.7193 0.6017
vn -0.0708 0.9899 0.1226
vn -0.1629 0.9455 0.2821
vn -0.3383 0.7363 0.5860
vn -0.4185 0.5471 0.7249
vn -0.3700 0.6726 -0.6408
vn -0.1226 0.9899 0.0708
vn -0.2821 0.9455 0.1629
vn -0.5860 0.7363 0.3383
vn -0.7249 0.5471 0.4185
vn -0.3234 -0.7626 -0.5602
vn -0.6408 0.6726 -0.3700
vn -0.1416 0.9899 -0.0000
vn -0.3257 0.9455 -0.0000
vn -0.6766 0.7363 -0.0000
vn -0.8371 0.5471 -0.0000
vn -0.5602 -0.7626 -0.3234
vn -0.1226 0.9899 -0.0708
vn -0.2821 0.9455 -0.1629
vn -0.5860 0.7363 -0.3383
vn -0.7249 0.5471 -0.4185
vn -0.7400 0.6727 -0.0000
vn -0.0000 -0.7193 -0.6947
vn -0.0708 0.9899 -0.1226
vn -0.1629 0.9455 -0.2821
vn -0.3383 0.7363 -0.5860
vn -0.4185 0.5471 -0.7249
vn -0.6468 -0.7626 -0.0000
vn -0.6408 0.6727 0.3700
vn -0.5602 -0.7626 0.3234
vn -0.0000 0.9899 -0.1416
vn -0.0000 0.7363 -0.6766
vn -0.3700 0.6727 0.6408
vn -0.0000 0.7994 -0.6008
vn -0.3234 -0.7626 0.5602
vn -0.0000 0.6726 0.7400
vn -0.0000 0.7193 -0.6947
vn 0.3474 0.7193 -0.6017
vn -0.0000 0.6726 -0.7400
vn 0.3747 0.2036 -0.9045
vn 0.6947 0.7193 -0.0000
vn 0.6017 0.7193 0.3474
vn -0.0000 -0.7626 -0.6468
vn 0.3234 -0.7626 -0.5602
vn 0.6017 -0.7193 -0.3474
vn 0.3474 -0.7193 -0.6017
vn 0.3700 0.6727 -0.6408
vn 0.5602 -0.7626 -0.3234
vn -0.9045 0.2036 -0.3747
vn -0.9045 0.2036 0.3747
vn 0.6408 0.6727 -0.3700
vn -0.3747 0.2036 0.9045
vn 0.6017 -0.7193 0.3474
vn 0.6947 -0.7193 -0.0000
vn 0.3747 0.2036 0.9045
vn 0.6468 -0.7626 -0.0000
vn 0.9045 0.2036 0.3747
vn 0.7400 0.6727 -0.0000
vn 0.9045 0.2036 -0.3747
vn 0.4798 -0.7345 0.4798
vn -0.0000 -0.6795 0.7337
vn 0.6017 0.7193 -0.3474
vn 0.5602 -0.7626 0.3234
vn 0.6408 0.6726 0.3700
vn 0.3700 0.6726 0.6408
vn -0.0000 -0.7626 0.6468
vn 0.3234 -0.7626 0.5602
vn -0.8582 -0.1338 0.4955
vn -0.3747 0.2036 -0.9045
vn 0.9910 -0.1338 -0.0000
vn 0.4248 0.7994 -0.4248
vn 0.6409 0.4225 -0.6409
vn -0.0000 -1.0000 -0.0000
vn 0.8582 -0.1338 -0.4955
vn 0.6008 0.7994 -0.0000
vn -0.4955 -0.1338 0.8582
vn 0.9064 0.4225 -0.0000
vn 0.4248 0.7994 0.4248
vn 0.6409 0.4225 0.6409
vn 0.4955 -0.1338 -0.8582
vn -0.0000 0.7994 0.6008
vn -0.0000 -0.1338 0.9910
vn -0.0000 0.4225 0.9064
vn -0.4248 0.7994 0.4248
vn -0.6409 0.4225 0.6409
vn -0.0000 -0.1338 -0.9910
vn -0.6008 0.7994 -0.0000
vn 0.4955 -0.1338 0.8582
vn -0.9064 0.4225 -0.0000
vn -0.4248 0.7994 -0.4248
vn -0.6409 0.4225 -0.6409
vn 0.9511 -0.0000 -0.3090
vn 0.8582 -0.1338 0.4955
vn -0.0000 0.4225 -0.9064
vn -0.9910 -0.1338 -0.0000
vn -0.8582 -0.1338 -0.4955
vn -0.4955 -0.1338 -0.8582
vn -0.0000 -0.0000 -1.0000
vn 0.5000 -0.0000 -0.8660
vn 0.8660 -0.0000 -0.5000
vn 1.0000 -0.0000 -0.0000
vn 0.8660 -0.0000 0.5000
vn 0.5000 -0.0000 0.8660
vn -0.0000 -0.0000 1.0000
vn -0.5000 -0.0000 0.8660
vn -0.8660 -0.0000 0.5000
vn -1.0000 -0.0000 -0.0000
vn -0.8660 -0.0000 -0.5000
vn -0.5000 -0.0000 -0.8660
vn 0.5878 -0.0000 -0.8090
vn -0.9511 -0.0000 0.3090
vn -0.5878 -0.0000 0.8090
vn -0.5878 -0.0000 -0.8090
vn 0.5878 -0.0000 0.8090
vn -0.9511 -0.0000 -0.3090
vn 0.9511 -0.0000 0.3090
vn -0.2048 -0.3468 -0.9153
vn 0.2048 -0.3468 -0.9153
vn 0.2048 0.3468 -0.9153
vn -0.2048 0.3468 -0.9153
vn 0.9239 -0.0000 -0.3827
vn 0.9153 -0.3468 -0.2048
vn 0.9153 -0.3468 0.2048
vn 0.9153 0.3468 0.2048
vn 0.9153 0.3468 -0.2048
vn 0.3827 -0.0000 0.9239
vn 0.2048 -0.3468 0.9153
vn -0.2048 -0.3468 0.9153
vn -0.2048 0.3468 0.9153
vn 0.2048 0.3468 0.9153
vn -0.9239 -0.0000 0.3827
vn -0.9153 -0.3468 0.2048
vn -0.9153 -0.3468 -0.2048
vn -0.9153 0.3468 -0.2048
vn -0.9153 0.3468 0.2048
vn -0.9239 -0.0000 -0.3827
vn 0.4798 0.7345 -0.4798
vn 0.3827 -0.0000 -0.9239
vn -0.0000 0.6795 -0.7337
vn 0.4798 -0.7345 -0.4798
vn 0.7337 -0.6795 -0.0000
vn -0.0000 -0.6795 -0.7337
vn -0.0000 0.6795 0.7337
vn -0.4798 -0.7345 0.4798
vn -0.3827 -0.0000 0.9239
vn -0.4798 0.7345 0.4798
vn -0.7337 -0.6795 -0.0000
vn -0.7337 0.6795 -0.0000
vn -0.4798 -0.7345 -0.4798
vn -0.3827 -0.0000 -0.9239
vn -0.4798 0.7345 -0.4798
vt 0.000000 0.813173
vt 0.531231 0.920119
vt -0.000000 1.062461
vt 0.920119 1.683939
vt 0.575000 1.550000
vt 0.995929 1.550000
vt 0.920119 0.531231
vt 0.813173 -0.000000
vt 1.062461 -0.000000
vt 0.381126 0.220043
vt 0.704228 0.406586
vt 0.220043 0.381126
vt 0.000000 0.000000
vt -0.000000 0.440086
vt 0.406586 0.704228
vt -0.000000 1.683939
vt 0.000000 1.550000
vt 0.440086 -0.000000
vt 0.531231 1.683939
vt 0.920119 -0.531231
vt 0.381126 -0.220043
vt -0.575000 1.550000
vt 0.704228 -0.406586
vt 0.220043 -0.381126
vt -0.531231 1.683939
vt -0.995929 1.550000
vt 0.406586 -0.704228
vt 0.531231 -0.920119
vt 0.000000 -0.440086
vt -0.000000 -0.813173
vt 0.000000 -1.062461
vt -0.531231 -0.920119
vt -0.220043 -0.381126
vt 1.300000 0.000000
vt 1.105660 -0.638353
vt 1.125833 -0.650000
vt 0.000000 1.683939
vt -0.406586 -0.704228
vt -0.920119 -0.531231
vt -0.381126 -0.220043
vt 1.125833 0.650000
vt 0.638353 1.105660
vt 0.650000 1.125833
vt 0.911935 0.526506
vt 0.513353 0.889154
vt 0.526506 0.911935
vt -0.920119 1.683939
vt -0.704228 -0.406586
vt -0.440086 -0.000000
vt -0.813173 0.000000
vt -1.062461 -0.000000
vt -0.381126 0.220043
vt -0.704228 0.406586
vt -0.920119 0.531231
vt 0.000000 5.275000
vt -0.148492 5.150000
vt 0.000000 5.150000
vt -0.531231 0.920119
vt -0.220043 0.381126
vt -0.406586 0.704228
vt 0.020787 -0.121390
vt 0.074703 -0.074703
vt 0.091924 -0.091924
vt 0.000000 0.105000
vt 0.074246 0.074246
vt 0.128598 5.275000
vt 0.148492 5.150000
vt 0.074246 5.366506
vt 0.105000 0.000000
vt 0.074246 -0.074246
vt 1.276706 -0.000000
vt 0.000000 1.377689
vt -0.607853 1.400000
vt -0.617994 1.377689
vt 0.607853 1.400000
vt 0.617994 1.377689
vt 1.105660 0.638353
vt -0.074246 5.366506
vt -0.128598 5.275000
vt -0.000000 1.400000
vt 0.148492 5.150000
vt 0.000000 -0.105000
vt 0.000000 1.053012
vt 0.000000 1.026706
vt -0.000000 5.200000
vt 0.020787 5.177500
vt -0.020787 5.177500
vt 0.074246 5.366506
vt -0.293893 -0.404509
vt 0.000000 -0.476342
vt 0.000000 -0.500000
vt -0.074246 -0.074246
vt 0.000000 3.200000
vt -0.020787 3.222500
vt 0.020787 3.222500
vt 0.000000 5.200000
vt -0.020787 5.177500
vt 0.020787 5.177500
vt 1.053012 0.000000
vt 0.889154 0.513353
vt -0.105000 0.000000
vt -0.000000 3.200000
vt 0.020787 3.222500
vt -0.020787 3.222500
vt 0.617994 1.070397
vt 1.052833 0.607853
vt 1.070397 0.617994
vt -0.074246 0.074246
vt 0.889154 -0.513353
vt 1.026706 0.000000
vt 0.526506 -0.911935
vt 0.911935 -0.526506
vt 1.070397 -0.617994
vt 0.607853 -1.052833
vt 0.617994 -1.070397
vt 0.000000 -1.053012
vt 0.513353 -0.889154
vt 0.000000 1.300000
vt 1.276706 0.000000
vt -0.513353 -0.889154
vt 0.000000 -1.026706
vt 0.100431 2.152500
vt -0.093120 2.175000
vt 0.093120 2.175000
vt -0.911935 -0.526506
vt -0.526506 -0.911935
vt -0.617994 -1.070397
vt -1.052833 -0.607853
vt -1.070397 -0.617994
vt -1.053012 0.000000
vt -0.889154 -0.513353
vt 0.000000 1.276706
vt 0.000000 1.400000
vt 0.293893 -0.404509
vt -0.889154 0.513353
vt -1.026706 0.000000
vt -0.526506 0.911935
vt -0.911935 0.526506
vt 0.100431 2.947500
vt -0.093120 2.925000
vt 0.093120 2.925000
vt -1.070397 0.617994
vt -0.607853 1.052833
vt -0.617994 1.070397
vt -0.513353 0.889154
vt 0.650000 -1.125833
vt 0.279987 -0.385369
vt 0.638353 -1.105660
vt 0.000000 -1.300000
vt 0.000000 -1.276706
vt 0.475528 -0.154509
vt 0.279987 -0.385369
vt -0.650000 -1.125833
vt -0.000000 -1.276706
vt 0.121390 -0.020787
vt -0.638353 -1.105660
vt -0.191030 0.262931
vt 0.000000 0.301342
vt 0.000000 0.325000
vt -1.125833 -0.650000
vt -0.177124 0.243791
vt -1.105660 -0.638353
vt -1.300000 0.000000
vt -1.276706 -0.000000
vt -1.125833 0.650000
vt -1.276706 0.000000
vt -0.309093 0.100431
vt -1.105660 0.638353
vt -0.650000 1.125833
vt -0.638353 1.105660
vt -0.000000 1.276706
vt -0.286593 0.093120
vt -0.191030 -0.262931
vt 0.000000 -0.301342
vt 0.000000 -0.325000
vt 0.309093 0.100431
vt 0.177124 0.243791
vt 0.191030 0.262931
vt -0.000000 -0.301342
vt -0.177124 -0.243791
vt 0.100431 2.652500
vt -0.093120 2.675000
vt 0.093120 2.675000
vt -0.309093 -0.100431
vt -0.286593 -0.093120
vt 0.100431 1.947500
vt -0.093120 1.925000
vt -0.100431 1.947500
vt 0.293893 0.404509
vt 0.453028 0.147198
vt 0.475528 0.154509
vt -0.154509 2.197500
vt 0.147198 2.175000
vt 0.154509 2.197500
vt 0.191030 -0.262931
vt -0.100431 2.447500
vt 0.093120 2.425000
vt -0.093120 2.425000
vt 0.000000 0.500000
vt 0.279987 0.385369
vt 0.309093 -0.100431
vt 0.177124 -0.243791
vt 0.286593 -0.093120
vt -0.279987 0.385369
vt 0.000000 0.476342
vt -0.154509 1.902500
vt 0.147198 1.925000
vt 0.154509 1.902500
vt -0.475528 0.154509
vt -0.279987 0.385369
vt -0.453028 0.147198
vt 0.453028 -0.147198
vt -0.293893 0.404509
vt -0.000000 0.301342
vt 0.286593 0.093120
vt -0.154509 2.697500
vt 0.147198 2.675000
vt 0.154509 2.697500
vt 0.154509 1.697500
vt -0.147198 1.675000
vt -0.154509 1.697500
vt 0.020787 0.121390
vt 0.074703 0.074703
vt 0.091924 0.091924
vt -0.279987 -0.385369
vt -0.475528 -0.154509
vt -0.453028 -0.147198
vt -0.279987 -0.385369
vt -0.100431 3.152500
vt 0.093120 3.175000
vt -0.093120 3.175000
vt 0.093120 1.925000
vt 0.154509 2.402500
vt -0.147198 2.425000
vt -0.154509 2.402500
vt 0.279987 0.385369
vt 0.147198 1.675000
vt 0.147198 2.425000
vt -0.100431 2.152500
vt -0.147198 1.925000
vt -0.147198 2.175000
vt 0.100431 2.447500
vt -0.100431 2.652500
vt 0.154509 2.902500
vt -0.147198 2.925000
vt -0.154509 2.902500
vt -0.147198 2.675000
vt 0.147198 2.925000
vt 0.121390 0.020787
vt 0.121390 -0.020787
vt 0.105646 -0.000000
vt 0.020787 0.121390
vt 0.000000 0.105646
vt -0.100431 2.947500
vt 0.121390 0.020787
vt 0.105646 0.000000
vt 0.100431 3.152500
vt 0.020787 -0.121390
vt 0.000000 -0.105646
vt -0.020787 -0.121390
vt -0.074703 -0.074703
vt -0.000000 -0.105646
vt -0.020787 -0.121390
vt -0.091924 -0.091924
vt -0.121390 -0.020787
vt -0.121390 -0.020787
vt -0.105646 -0.000000
vt -0.121390 0.020787
vt -0.074703 0.074703
vt -0.105646 0.000000
vt -0.121390 0.020787
vt -0.091924 0.091924
vt -0.020787 0.121390
vt -0.020787 0.121390
vt -0.000000 0.105646
vt 0.262931 2.652500
vt 0.262931 2.447500
vt 0.526506 0.022311
vt 0.000000 0.022311
vt -0.526506 0.022311
vt -1.052833 0.607853
vt -0.000000 -1.215706
vt 1.070397 1.377689
vt 0.526506 0.022311
vt 0.911935 0.022311
vt -0.526506 0.022311
vt -1.070397 1.377689
vt -0.911935 0.022311
vt 0.000000 1.602500
vt 0.650000 1.397500
vt 0.000000 1.397500
vt -0.650000 1.602500
vt -0.650000 1.397500
vt 1.125833 1.602500
vt 1.125833 1.397500
vt 0.650000 1.602500
vt -1.125833 1.397500
vt -1.125833 1.602500
vt 0.000000 2.652500
vt 0.191030 2.447500
vt 0.000000 2.447500
vt -0.191030 2.652500
vt -0.191030 2.447500
vt -0.262931 2.152500
vt -0.262931 1.947500
vt 0.000000 2.152500
vt -0.191030 1.947500
vt 0.000000 1.947500
vt 0.191030 2.152500
vt 0.191030 1.947500
vt 0.404509 2.197500
vt -0.293893 2.402500
vt 0.000000 2.197500
vt -0.293893 2.197500
vt 0.262931 2.152500
vt 0.262931 1.947500
vt -0.404509 2.402500
vt -0.404509 2.197500
vt 0.000000 2.402500
vt -0.191030 2.152500
vt 0.404509 1.697500
vt -0.293893 1.902500
vt 0.000000 1.697500
vt -0.293893 1.697500
vt 0.293893 2.402500
vt 0.293893 2.197500
vt -0.404509 1.902500
vt -0.404509 1.697500
vt 0.000000 1.902500
vt 0.293893 1.902500
vt 0.293893 1.697500
vt 0.404509 2.402500
vt 0.404509 1.902500
vt -0.262931 2.447500
vt 0.191030 2.652500
vt -0.262931 2.652500
vt 0.000000 2.902500
vt 0.293893 2.697500
vt 0.000000 2.697500
vt -0.293893 2.902500
vt -0.293893 2.697500
vt 0.404509 2.902500
vt 0.404509 2.697500
vt -0.404509 2.697500
vt 0.293893 2.902500
vt -0.404509 2.902500
vt 0.000000 3.152500
vt 0.191030 2.947500
vt 0.000000 2.947500
vt -0.191030 3.152500
vt -0.191030 2.947500
vt 0.262931 3.152500
vt 0.262931 2.947500
vt -0.262931 2.947500
vt 0.191030 3.152500
vt -0.262931 3.152500
vt 0.091924 3.222500
vt -0.091924 5.177500
vt -0.091924 3.222500
vt 0.091924 5.177500
vt 0.531231 1.683939
vt -0.531231 1.683939
vt 0.920119 1.683939
vt 0.000000 5.366506
vt 0.607853 1.052833
vt 1.052833 -0.607853
vt -0.607853 -1.052833
vt 0.000000 1.215706
vt -1.215706 0.000000
vt 1.215706 -0.000000
s 1
f 51/1/21 61/2/28 160/3/95
f 61/4/28 71/5/36 62/6/29
f 70/7/35 78/8/40 79/9/41
f 68/10/33 78/8/40 69/11/34
f 59/12/26 1/13/1 68/10/33
f 158/14/94 60/15/27 51/1/21
f 60/15/27 70/7/35 61/2/28
f 160/16/95 62/5/29 53/17/23
f 158/14/94 1/13/1 59/12/26
f 68/10/33 1/13/1 77/18/39
f 59/12/26 69/11/34 60/15/27
f 70/19/35 80/17/42 71/5/36
f 78/8/40 88/20/47 79/9/41
f 77/18/39 1/13/1 86/21/45
f 79/16/41 89/22/48 80/17/42
f 77/18/39 87/23/46 78/8/40
f 86/21/45 1/13/1 95/24/52
f 88/25/47 98/26/55 89/22/48
f 86/21/45 96/27/53 87/23/46
f 87/23/46 97/28/54 88/20/47
f 97/19/54 107/17/62 98/5/55
f 96/27/53 104/29/59 105/30/60
f 96/27/53 106/31/61 97/28/54
f 95/24/52 1/13/1 104/29/59
f 105/30/60 115/32/67 106/31/61
f 104/29/59 1/13/1 113/33/65
f 177/34/104 232/35/105 178/36/105
f 106/37/61 116/22/68 107/17/62
f 105/30/60 113/33/65 114/38/66
f 114/38/66 124/39/72 115/32/67
f 113/33/65 1/13/1 122/40/70
f 181/41/108 183/42/109 182/43/109
f 187/44/111 216/45/107 180/46/107
f 115/47/67 125/22/73 116/26/68
f 114/38/66 122/40/70 123/48/71
f 124/25/72 134/17/79 125/22/73
f 123/48/71 131/49/76 132/50/77
f 123/48/71 133/51/78 124/39/72
f 122/40/70 1/13/1 131/49/76
f 133/16/78 143/5/84 134/17/79
f 132/50/77 140/52/81 141/53/82
f 132/50/77 142/54/83 133/51/78
f 131/49/76 1/13/1 140/52/81
f 250/55/140 204/56/120 251/57/120
f 141/53/82 151/58/89 142/54/83
f 140/52/81 1/13/1 149/59/87
f 142/19/83 152/6/90 143/5/84
f 141/53/82 149/59/87 150/60/88
f 616/61/190 210/62/123 209/63/123
f 150/60/88 160/3/95 151/58/89
f 149/59/87 1/13/1 158/14/94
f 151/25/89 53/17/23 152/22/90
f 150/60/88 158/14/94 51/1/21
f 163/64/97 164/13/1 241/65/134
f 243/66/135 207/57/122 219/67/122
f 292/55/157 241/68/134 243/66/135
f 248/69/138 164/13/1 255/70/141
f 198/36/116 201/71/117 199/34/117
f 241/68/134 250/55/140 243/66/135
f 241/65/134 164/13/1 248/69/138
f 175/57/103 243/66/135 244/67/103
f 205/72/121 227/73/127 224/74/127
f 174/72/102 186/75/110 185/76/110
f 235/43/101 218/77/125 214/41/125
f 250/55/140 255/78/141 257/79/142
f 195/76/114 206/80/121 205/72/121
f 257/66/142 200/57/118 258/81/118
f 255/70/141 164/13/1 262/82/144
f 179/83/106 216/45/107 215/84/106
f 820/85/211 629/86/197 630/87/198
f 255/88/141 264/55/146 257/66/142
f 190/89/16 193/90/15 191/91/15
f 264/55/146 196/56/115 265/57/115
f 262/82/144 164/13/1 269/92/147
f 819/93/210 626/94/195 627/95/196
f 812/96/206 619/97/192 620/98/193
f 264/55/146 269/78/147 271/79/148
f 203/99/119 189/100/111 187/44/111
f 269/92/147 164/13/1 276/101/150
f 211/102/124 616/103/190 617/104/191
f 90/96/49 609/97/187 610/98/188
f 269/78/147 278/55/152 271/79/148
f 596/94/180 599/86/182 597/95/181
f 271/79/148 192/57/113 272/56/113
f 783/102/204 606/103/185 607/104/186
f 691/85/202 599/86/182 600/87/183
f 278/55/152 283/88/153 285/66/154
f 185/105/110 197/106/114 195/107/114
f 278/55/152 188/81/112 279/57/112
f 276/101/150 164/13/1 283/108/153
f 203/99/119 222/109/126 212/110/119
f 283/78/153 292/55/157 285/79/154
f 229/111/130 222/109/126 223/112/126
f 285/79/154 237/57/132 286/56/132
f 283/108/153 164/13/1 163/64/97
f 799/93/205 596/94/180 597/95/181
f 224/113/127 226/114/128 225/115/128
f 228/116/129 230/117/130 229/111/130
f 234/118/100 173/42/101 235/43/101
f 225/76/128 170/80/99 171/72/99
f 214/41/125 233/119/104 177/34/104
f 228/116/129 221/120/98 231/121/129
f 168/122/20 166/123/12 165/124/20
f 171/72/99 161/73/96 162/74/96
f 159/125/93 221/120/98 169/126/98
f 162/127/96 155/128/92 156/129/92
f 199/34/117 184/77/108 181/41/108
f 154/130/91 157/131/93 159/125/93
f 182/43/109 147/132/86 148/118/86
f 156/74/92 145/133/85 146/72/85
f 139/134/8 137/90/13 144/91/13
f 154/130/91 135/135/80 153/136/91
f 146/72/85 129/75/75 130/76/75
f 128/137/74 135/135/80 136/138/80
f 126/139/9 120/140/5 119/141/9
f 130/142/75 117/143/69 118/144/69
f 179/83/106 127/145/74 128/137/74
f 118/74/69 176/133/102 174/72/102
f 112/146/64 202/35/116 198/36/116
f 191/91/15 109/147/6 110/134/6
f 178/36/105 220/148/63 108/146/63
f 103/149/58 111/148/64 112/146/64
f 108/146/63 213/150/57 101/149/57
f 100/151/56 138/152/8 139/134/8
f 94/153/51 102/154/58 103/149/58
f 609/155/187 85/62/44 92/63/44
f 101/149/57 83/156/43 84/153/43
f 81/157/38 75/158/3 82/159/3
f 74/160/37 93/156/51 94/153/51
f 67/159/32 65/161/31 72/157/31
f 84/153/43 63/162/30 64/160/30
f 58/163/25 73/162/37 74/160/37
f 64/160/30 55/164/24 56/163/24
f 54/165/22 57/166/25 58/163/25
f 50/167/20 76/161/38 81/157/38
f 56/163/24 47/168/19 48/165/19
f 46/169/18 52/168/22 54/165/22
f 48/165/19 44/170/17 217/169/17
f 148/118/86 45/170/18 46/169/18
f 217/169/17 172/171/100 234/118/100
f 43/167/11 65/161/31 42/172/11
f 40/173/16 38/174/15 41/175/15
f 126/176/9 36/177/14 37/178/14
f 35/173/4 33/179/13 32/180/4
f 50/181/20 30/182/12 49/183/20
f 29/184/7 39/180/16 40/173/16
f 35/173/4 166/185/12 167/184/12
f 27/186/11 28/187/7 29/188/7
f 24/189/2 22/190/10 25/191/10
f 20/192/5 18/193/9 21/194/9
f 17/195/8 33/179/13 34/175/13
f 15/196/7 42/197/11 14/198/7
f 13/199/3 23/200/2 24/189/2
f 11/201/5 9/202/6 8/203/5
f 31/184/12 6/180/4 30/185/12
f 4/199/3 2/200/2 5/189/2
f 635/199/3 637/204/38 638/205/3
f 15/184/7 640/180/16 639/173/16
f 642/189/14 644/205/32 641/199/32
f 645/201/56 16/202/8 17/195/8
f 647/195/6 38/174/15 648/202/6
f 650/206/12 652/207/20 649/208/20
f 653/209/11 655/210/31 656/211/11
f 657/175/13 6/180/4 7/173/4
f 639/173/16 660/174/15 659/175/15
f 121/201/5 662/202/6 120/203/5
f 663/134/6 19/212/5 20/151/5
f 649/209/20 637/204/38 636/213/38
f 665/199/32 655/210/31 654/213/31
f 668/178/14 670/214/32 667/159/32
f 672/178/2 674/215/10 671/176/10
f 675/195/8 658/179/13 657/175/13
f 82/159/3 678/177/2 677/178/2
f 680/216/5 682/217/9 679/218/9
f 659/175/15 9/202/6 10/195/6
f 653/219/11 684/220/7 683/221/7
f 686/89/16 688/90/15 685/91/15
f 599/222/182 692/223/200 689/224/200
f 694/91/13 696/225/4 693/89/4
f 650/226/12 696/225/4 651/227/12
f 683/226/7 687/228/16 686/89/16
f 697/201/56 676/202/8 675/195/8
f 699/229/56 701/230/10 702/231/56
f 704/188/5 706/232/9 703/186/9
f 694/91/13 708/152/8 695/90/13
f 709/213/38 3/205/3 4/199/3
f 712/199/32 714/210/31 711/213/31
f 715/209/20 710/204/38 709/213/38
f 718/233/10 720/234/56 717/235/56
f 21/191/9 722/236/14 721/189/14
f 672/178/2 724/158/3 673/177/2
f 725/151/5 727/147/6 728/212/5
f 711/213/31 730/211/11 729/209/11
f 679/191/9 643/236/14 642/189/14
f 731/151/56 708/152/8 707/134/8
f 685/91/15 727/147/6 726/134/6
f 733/191/10 735/200/2 736/190/10
f 725/221/5 738/237/9 737/219/9
f 739/235/12 716/238/20 715/233/20
f 645/239/56 674/124/10 646/123/56
f 741/176/10 678/177/2 742/215/10
f 733/208/10 732/240/56 731/206/56
f 729/194/11 744/241/7 743/192/7
f 635/199/3 735/200/2 734/189/2
f 739/226/12 746/225/4 740/227/12
f 743/226/7 748/228/16 747/89/16
f 737/191/9 750/236/14 749/189/14
f 704/201/5 648/202/6 705/203/5
f 749/189/14 666/205/32 665/199/32
f 751/178/14 66/214/32 67/159/32
f 753/91/13 746/225/4 745/89/4
f 747/89/16 756/90/15 755/91/15
f 110/134/6 681/212/5 680/151/5
f 757/134/8 754/90/13 753/91/13
f 759/242/9 8/198/5 760/197/9
f 703/176/9 669/177/14 668/178/14
f 755/91/15 664/147/6 663/134/6
f 762/159/3 764/177/2 761/178/2
f 721/189/14 713/205/32 712/199/32
f 697/243/56 742/183/10 698/182/56
f 718/191/10 2/200/2 719/190/10
f 717/151/56 758/152/8 757/134/8
f 25/244/10 99/245/56 100/246/56
f 765/157/38 724/158/3 723/159/3
f 767/157/31 670/214/32 768/161/31
f 168/167/20 766/161/38 765/157/38
f 759/176/9 752/177/14 751/178/14
f 27/167/11 768/161/31 26/172/11
f 144/91/13 770/225/4 769/89/4
f 37/178/14 772/214/32 771/159/32
f 773/226/7 194/228/16 190/89/16
f 769/89/4 776/227/12 775/226/12
f 777/218/11 774/247/7 773/216/7
f 700/176/10 764/177/2 701/215/10
f 775/246/12 780/248/20 779/244/20
f 606/249/185 784/223/203 781/224/203
f 785/213/31 778/211/11 777/209/11
f 779/209/20 788/204/38 787/213/38
f 641/199/32 786/210/31 785/213/31
f 787/213/38 12/205/3 13/199/3
f 699/201/56 790/202/8 789/195/8
f 791/175/15 662/202/6 661/195/6
f 607/250/186 210/62/123 783/251/204
f 789/195/8 794/179/13 793/175/13
f 795/173/16 792/174/15 791/175/15
f 793/175/13 798/180/4 797/173/4
f 597/252/181 784/223/203 799/253/205
f 800/184/7 796/180/16 795/173/16
f 609/97/187 606/103/185 610/98/188
f 802/184/12 798/180/4 803/185/12
f 800/254/7 805/141/11 801/140/7
f 610/255/188 692/223/200 90/256/49
f 806/257/20 803/231/12 807/230/20
f 804/167/11 809/161/31 805/172/11
f 806/167/20 811/161/38 810/157/38
f 771/159/32 809/161/31 808/157/31
f 810/157/38 763/158/3 762/159/3
f 620/258/193 85/62/44 812/259/206
f 619/97/192 616/103/190 620/98/193
f 617/260/191 815/261/207 211/262/124
f 619/263/192 818/261/209 816/264/209
f 626/265/195 815/261/207 813/264/207
f 630/266/198 818/261/209 820/267/211
f 629/86/197 626/94/195 630/87/198
f 627/268/196 823/269/212 819/270/210
f 629/271/197 826/269/214 824/272/214
f 596/273/180 823/269/212 821/272/212
f 600/274/183 826/269/214 691/275/202
f 359/177/1 505/185/1 497/179/1
f 360/276/173 358/242/155 362/277/173
f 288/181/155 488/196/179 358/242/155
f 245/110/136 261/120/136 305/145/136
f 274/72/149 267/278/143 281/279/149
f 308/74/160 281/279/149 306/280/160
f 303/281/1 268/282/1 252/106/1
f 260/283/143 253/284/137 267/285/143
f 246/76/137 240/279/133 253/284/137
f 296/72/133 293/286/156 240/279/133
f 290/283/156 284/284/151 293/285/156
f 277/76/151 270/279/145 284/284/151
f 263/72/145 256/286/139 270/279/145
f 249/287/139 242/280/131 256/288/139
f 236/74/131 298/279/158 242/280/131
f 300/72/158 302/278/159 298/279/158
f 304/287/159 306/280/160 302/288/159
f 349/168/136 317/77/136 333/154/136
f 312/289/161 314/290/162 310/291/161
f 356/292/172 310/291/161 354/293/172
f 315/42/1 347/164/1 331/148/1
f 316/294/162 318/290/163 314/295/162
f 320/296/163 322/291/164 318/290/163
f 324/289/164 326/293/165 322/291/164
f 328/292/165 330/297/166 326/293/165
f 332/296/166 334/291/167 330/290/166
f 336/289/167 338/293/168 334/291/167
f 340/298/168 342/293/169 338/297/168
f 344/292/169 346/291/170 342/293/169
f 348/289/170 350/290/171 346/291/170
f 352/296/171 354/295/172 350/290/171
f 499/180/136 367/214/136 357/215/136
f 364/299/161 362/300/173 368/301/161
f 514/302/176 368/301/161 512/303/176
f 411/214/136 383/202/136 371/180/136
f 370/304/175 366/188/174 372/305/175
f 486/239/174 482/186/178 366/188/174
f 389/203/1 475/161/1 485/185/1
f 374/306/167 372/307/175 380/308/167
f 382/309/177 380/308/167 384/310/177
f 455/200/1 395/227/1 415/90/1
f 386/233/178 378/311/176 388/194/178
f 376/312/176 468/313/161 378/314/176
f 467/205/136 427/147/136 407/228/136
f 390/239/179 384/305/177 392/188/179
f 396/235/174 388/194/178 398/192/174
f 394/122/155 392/188/179 400/186/155
f 402/315/173 400/186/155 404/316/173
f 406/317/175 398/192/174 408/318/175
f 410/306/161 404/310/173 412/308/161
f 416/319/167 408/314/175 418/313/167
f 476/320/176 412/308/161 478/307/176
f 429/227/1 453/212/1 469/200/1
f 422/208/178 420/321/176 424/219/178
f 414/322/176 484/323/161 420/324/176
f 426/325/177 418/313/167 428/326/177
f 463/190/136 439/228/136 423/211/136
f 430/206/174 424/219/178 432/221/174
f 436/235/179 428/318/177 438/192/179
f 434/327/175 432/221/174 440/328/175
f 442/329/167 440/324/175 444/323/167
f 446/233/155 438/192/179 448/194/155
f 450/330/177 444/323/167 452/331/177
f 456/332/173 448/194/155 458/311/173
f 454/206/179 452/328/177 460/221/179
f 462/208/155 460/221/179 464/219/155
f 466/319/161 458/326/173 468/313/161
f 470/333/173 464/219/155 472/321/173
f 474/329/161 472/331/173 484/323/161
f 480/122/178 478/316/176 482/186/178
f 490/243/179 492/334/177 488/196/179
f 494/335/177 496/301/167 492/300/177
f 498/299/167 500/303/175 496/301/167
f 502/336/175 504/196/174 500/334/175
f 506/243/174 508/242/178 504/196/174
f 510/181/178 512/277/176 508/242/178
f 543/227/136 519/236/136 527/212/136
f 518/337/161 520/338/173 516/339/161
f 554/340/176 516/339/161 552/341/176
f 525/190/1 549/211/1 541/225/1
f 522/342/173 524/218/155 520/343/173
f 526/244/155 528/216/179 524/218/155
f 530/246/179 532/344/177 528/216/179
f 534/345/177 536/339/167 532/338/177
f 538/337/167 540/341/175 536/339/167
f 542/346/175 544/216/174 540/344/175
f 546/246/174 548/218/178 544/216/174
f 550/244/178 552/343/176 548/218/178
f 579/180/136 555/214/136 563/215/136
f 558/347/161 560/348/173 556/349/161
f 594/350/176 556/349/161 592/351/176
f 565/215/1 589/172/1 581/180/1
f 562/352/173 564/139/155 560/353/173
f 566/257/155 568/254/179 564/139/155
f 570/229/179 572/354/177 568/254/179
f 574/355/177 576/349/167 572/348/177
f 578/347/167 580/351/175 576/349/167
f 582/356/175 584/254/174 580/354/175
f 586/229/174 588/139/178 584/254/174
f 590/257/178 592/353/176 588/139/178
f 631/269/136 601/223/136 611/62/136
f 599/86/182 782/357/201 597/95/181
f 825/358/213 596/94/180 822/359/213
f 608/256/1 598/275/1 628/267/1
f 604/360/184 606/103/185 602/357/184
f 609/97/187 208/359/50 607/104/186
f 614/360/189 616/103/190 612/357/189
f 619/97/192 814/359/208 617/104/191
f 624/358/194 626/94/195 622/359/194
f 629/86/197 632/357/199 627/95/196
f 51/1/21 60/15/27 61/2/28
f 61/4/28 70/19/35 71/5/36
f 70/7/35 69/11/34 78/8/40
f 68/10/33 77/18/39 78/8/40
f 158/14/94 59/12/26 60/15/27
f 60/15/27 69/11/34 70/7/35
f 160/16/95 61/361/28 62/5/29
f 59/12/26 68/10/33 69/11/34
f 70/19/35 79/16/41 80/17/42
f 78/8/40 87/23/46 88/20/47
f 79/16/41 88/25/47 89/22/48
f 77/18/39 86/21/45 87/23/46
f 88/25/47 97/47/54 98/26/55
f 86/21/45 95/24/52 96/27/53
f 87/23/46 96/27/53 97/28/54
f 97/19/54 106/37/61 107/17/62
f 96/27/53 95/24/52 104/29/59
f 96/27/53 105/30/60 106/31/61
f 105/30/60 114/38/66 115/32/67
f 177/34/104 233/119/104 232/35/105
f 106/37/61 115/362/67 116/22/68
f 105/30/60 104/29/59 113/33/65
f 114/38/66 123/48/71 124/39/72
f 181/41/108 184/77/108 183/42/109
f 187/44/111 189/100/111 216/45/107
f 115/47/67 124/25/72 125/22/73
f 114/38/66 113/33/65 122/40/70
f 124/25/72 133/16/78 134/17/79
f 123/48/71 122/40/70 131/49/76
f 123/48/71 132/50/77 133/51/78
f 133/16/78 142/19/83 143/5/84
f 132/50/77 131/49/76 140/52/81
f 132/50/77 141/53/82 142/54/83
f 250/55/140 257/79/142 204/56/120
f 141/53/82 150/60/88 151/58/89
f 142/19/83 151/363/89 152/6/90
f 141/53/82 140/52/81 149/59/87
f 616/61/190 211/262/124 210/62/123
f 150/60/88 51/1/21 160/3/95
f 151/25/89 160/16/95 53/17/23
f 150/60/88 149/59/87 158/14/94
f 243/66/135 250/55/140 207/57/122
f 292/55/157 163/364/97 241/68/134
f 198/36/116 202/35/116 201/71/117
f 241/68/134 248/364/138 250/55/140
f 175/57/103 292/55/157 243/66/135
f 205/72/121 206/80/121 227/73/127
f 174/72/102 176/133/102 186/75/110
f 235/43/101 173/42/101 218/77/125
f 250/55/140 248/364/138 255/78/141
f 195/76/114 197/75/114 206/80/121
f 257/66/142 264/55/146 200/57/118
f 179/83/106 180/46/107 216/45/107
f 255/88/141 262/364/144 264/55/146
f 190/89/16 194/228/16 193/90/15
f 264/55/146 271/79/148 196/56/115
f 264/55/146 262/364/144 269/78/147
f 203/99/119 212/110/119 189/100/111
f 269/78/147 276/364/150 278/55/152
f 596/94/180 600/87/183 599/86/182
f 271/79/148 278/55/152 192/57/113
f 278/55/152 276/364/150 283/88/153
f 185/105/110 186/365/110 197/106/114
f 278/55/152 285/66/154 188/81/112
f 203/99/119 223/112/126 222/109/126
f 283/78/153 163/364/97 292/55/157
f 229/111/130 230/117/130 222/109/126
f 285/79/154 292/55/157 237/57/132
f 224/113/127 227/366/127 226/114/128
f 228/116/129 231/121/129 230/117/130
f 234/118/100 172/171/100 173/42/101
f 225/76/128 226/75/128 170/80/99
f 214/41/125 218/77/125 233/119/104
f 228/116/129 169/126/98 221/120/98
f 168/122/20 167/239/12 166/123/12
f 171/72/99 170/80/99 161/73/96
f 159/125/93 157/131/93 221/120/98
f 162/127/96 161/367/96 155/128/92
f 199/34/117 201/71/117 184/77/108
f 154/130/91 153/136/91 157/131/93
f 182/43/109 183/42/109 147/132/86
f 156/74/92 155/73/92 145/133/85
f 139/134/8 138/152/8 137/90/13
f 154/130/91 136/138/80 135/135/80
f 146/72/85 145/133/85 129/75/75
f 128/137/74 127/145/74 135/135/80
f 126/139/9 121/254/5 120/140/5
f 130/142/75 129/281/75 117/143/69
f 179/83/106 215/84/106 127/145/74
f 118/74/69 117/73/69 176/133/102
f 112/146/64 111/148/64 202/35/116
f 191/91/15 193/90/15 109/147/6
f 178/36/105 232/35/105 220/148/63
f 103/149/58 102/154/58 111/148/64
f 108/146/63 220/148/63 213/150/57
f 100/151/56 99/212/56 138/152/8
f 94/153/51 93/156/51 102/154/58
f 609/155/187 90/256/49 85/62/44
f 101/149/57 213/150/57 83/156/43
f 81/157/38 76/161/38 75/158/3
f 74/160/37 73/162/37 93/156/51
f 67/159/32 66/214/32 65/161/31
f 84/153/43 83/156/43 63/162/30
f 58/163/25 57/166/25 73/162/37
f 64/160/30 63/162/30 55/164/24
f 54/165/22 52/168/22 57/166/25
f 50/167/20 49/172/20 76/161/38
f 56/163/24 55/164/24 47/168/19
f 46/169/18 45/170/18 52/168/22
f 48/165/19 47/168/19 44/170/17
f 148/118/86 147/132/86 45/170/18
f 217/169/17 44/170/17 172/171/100
f 43/167/11 72/157/31 65/161/31
f 40/173/16 39/180/16 38/174/15
f 126/176/9 119/215/9 36/177/14
f 35/173/4 34/175/13 33/179/13
f 50/181/20 31/243/12 30/182/12
f 29/184/7 28/185/7 39/180/16
f 35/173/4 32/180/4 166/185/12
f 27/186/11 26/232/11 28/187/7
f 24/189/2 23/200/2 22/190/10
f 20/192/5 19/241/5 18/193/9
f 17/195/8 16/202/8 33/179/13
f 15/196/7 43/242/11 42/197/11
f 13/199/3 12/205/3 23/200/2
f 11/201/5 10/195/6 9/202/6
f 31/184/12 7/173/4 6/180/4
f 4/199/3 3/205/3 2/200/2
f 635/199/3 636/213/38 637/204/38
f 15/184/7 14/185/7 640/180/16
f 642/189/14 643/236/14 644/205/32
f 645/201/56 646/203/56 16/202/8
f 647/195/6 41/175/15 38/174/15
f 650/206/12 651/240/12 652/207/20
f 653/209/11 654/213/31 655/210/31
f 657/175/13 658/179/13 6/180/4
f 639/173/16 640/180/16 660/174/15
f 121/201/5 661/195/6 662/202/6
f 663/134/6 664/147/6 19/212/5
f 649/209/20 652/211/20 637/204/38
f 665/199/32 666/205/32 655/210/31
f 668/178/14 669/177/14 670/214/32
f 672/178/2 673/177/2 674/215/10
f 675/195/8 676/202/8 658/179/13
f 82/159/3 75/158/3 678/177/2
f 680/216/5 681/247/5 682/217/9
f 659/175/15 660/174/15 9/202/6
f 653/219/11 656/237/11 684/220/7
f 686/89/16 687/228/16 688/90/15
f 599/222/182 691/275/202 692/223/200
f 694/91/13 695/90/13 696/225/4
f 650/226/12 693/89/4 696/225/4
f 683/226/7 684/227/7 687/228/16
f 697/201/56 698/203/56 676/202/8
f 699/229/56 700/257/10 701/230/10
f 704/188/5 705/187/5 706/232/9
f 694/91/13 707/134/8 708/152/8
f 709/213/38 710/204/38 3/205/3
f 712/199/32 713/205/32 714/210/31
f 715/209/20 716/211/20 710/204/38
f 718/233/10 719/238/10 720/234/56
f 21/191/9 18/190/9 722/236/14
f 672/178/2 723/159/3 724/158/3
f 725/151/5 726/134/6 727/147/6
f 711/213/31 714/210/31 730/211/11
f 679/191/9 682/190/9 643/236/14
f 731/151/56 732/212/56 708/152/8
f 685/91/15 688/90/15 727/147/6
f 733/191/10 734/189/2 735/200/2
f 725/221/5 728/220/5 738/237/9
f 739/235/12 740/234/12 716/238/20
f 645/239/56 671/122/10 674/124/10
f 741/176/10 677/178/2 678/177/2
f 733/208/10 736/207/10 732/240/56
f 729/194/11 730/193/11 744/241/7
f 635/199/3 638/205/3 735/200/2
f 739/226/12 745/89/4 746/225/4
f 743/226/7 744/227/7 748/228/16
f 737/191/9 738/190/9 750/236/14
f 704/201/5 647/195/6 648/202/6
f 749/189/14 750/236/14 666/205/32
f 751/178/14 752/177/14 66/214/32
f 753/91/13 754/90/13 746/225/4
f 747/89/16 748/228/16 756/90/15
f 110/134/6 109/147/6 681/212/5
f 757/134/8 758/152/8 754/90/13
f 759/242/9 11/196/5 8/198/5
f 703/176/9 706/215/9 669/177/14
f 755/91/15 756/90/15 664/147/6
f 762/159/3 763/158/3 764/177/2
f 721/189/14 722/236/14 713/205/32
f 697/243/56 741/181/10 742/183/10
f 718/191/10 5/189/2 2/200/2
f 717/151/56 720/212/56 758/152/8
f 25/244/10 22/248/10 99/245/56
f 765/157/38 766/161/38 724/158/3
f 767/157/31 667/159/32 670/214/32
f 168/167/20 165/172/20 766/161/38
f 759/176/9 760/215/9 752/177/14
f 27/167/11 767/157/31 768/161/31
f 144/91/13 137/90/13 770/225/4
f 37/178/14 36/177/14 772/214/32
f 773/226/7 774/227/7 194/228/16
f 769/89/4 770/225/4 776/227/12
f 777/218/11 778/217/11 774/247/7
f 700/176/10 761/178/2 764/177/2
f 775/246/12 776/245/12 780/248/20
f 606/249/185 783/251/204 784/223/203
f 785/213/31 786/210/31 778/211/11
f 779/209/20 780/211/20 788/204/38
f 641/199/32 644/205/32 786/210/31
f 787/213/38 788/204/38 12/205/3
f 699/201/56 702/203/56 790/202/8
f 791/175/15 792/174/15 662/202/6
f 607/250/186 209/63/123 210/62/123
f 789/195/8 790/202/8 794/179/13
f 795/173/16 796/180/16 792/174/15
f 793/175/13 794/179/13 798/180/4
f 597/252/181 781/224/203 784/223/203
f 800/184/7 801/185/7 796/180/16
f 609/97/187 607/104/186 606/103/185
f 802/184/12 797/173/4 798/180/4
f 800/254/7 804/139/11 805/141/11
f 610/255/188 689/224/200 692/223/200
f 806/257/20 802/229/12 803/231/12
f 804/167/11 808/157/31 809/161/31
f 806/167/20 807/172/20 811/161/38
f 771/159/32 772/214/32 809/161/31
f 810/157/38 811/161/38 763/158/3
f 620/258/193 92/63/44 85/62/44
f 619/97/192 617/104/191 616/103/190
f 617/260/191 813/264/207 815/261/207
f 619/263/192 812/259/206 818/261/209
f 626/265/195 819/270/210 815/261/207
f 630/266/198 816/264/209 818/261/209
f 629/86/197 627/95/196 626/94/195
f 627/268/196 821/272/212 823/269/212
f 629/271/197 820/267/211 826/269/214
f 596/273/180 799/253/205 823/269/212
f 600/274/183 824/272/214 826/269/214
f 497/179/1 493/202/1 489/203/1
f 489/203/1 294/215/1 359/177/1
f 359/177/1 363/158/1 513/161/1
f 513/161/1 509/172/1 505/185/1
f 505/185/1 501/180/1 497/179/1
f 497/179/1 489/203/1 359/177/1
f 359/177/1 513/161/1 505/185/1
f 360/276/173 288/181/155 358/242/155
f 288/181/155 490/243/179 488/196/179
f 305/145/136 287/84/136 273/45/136
f 273/45/136 259/100/136 245/110/136
f 245/110/136 295/109/136 289/117/136
f 289/117/136 275/121/136 261/120/136
f 261/120/136 247/131/136 297/136/136
f 297/136/136 301/135/136 305/145/136
f 305/145/136 273/45/136 245/110/136
f 245/110/136 289/117/136 261/120/136
f 261/120/136 297/136/136 305/145/136
f 274/72/149 260/76/143 267/278/143
f 308/74/160 274/72/149 281/279/149
f 252/106/1 266/365/1 280/368/1
f 280/368/1 307/143/1 303/281/1
f 303/281/1 299/369/1 238/128/1
f 238/128/1 254/367/1 268/282/1
f 268/282/1 282/114/1 291/366/1
f 291/366/1 239/370/1 252/106/1
f 252/106/1 280/368/1 303/281/1
f 303/281/1 238/128/1 268/282/1
f 268/282/1 291/366/1 252/106/1
f 260/283/143 246/76/137 253/284/137
f 246/76/137 296/72/133 240/279/133
f 296/72/133 290/74/156 293/286/156
f 290/283/156 277/76/151 284/284/151
f 277/76/151 263/72/145 270/279/145
f 263/72/145 249/74/139 256/286/139
f 249/287/139 236/74/131 242/280/131
f 236/74/131 300/72/158 298/279/158
f 300/72/158 304/76/159 302/278/159
f 304/287/159 308/74/160 306/280/160
f 333/154/136 337/156/136 341/162/136
f 341/162/136 345/166/136 349/168/136
f 349/168/136 353/170/136 309/132/136
f 309/132/136 313/42/136 317/77/136
f 317/77/136 321/71/136 325/35/136
f 325/35/136 329/148/136 333/154/136
f 333/154/136 341/162/136 349/168/136
f 349/168/136 309/132/136 317/77/136
f 317/77/136 325/35/136 333/154/136
f 312/289/161 316/296/162 314/290/162
f 356/292/172 312/289/161 310/291/161
f 331/148/1 327/35/1 323/119/1
f 323/119/1 319/77/1 315/42/1
f 315/42/1 311/171/1 355/170/1
f 355/170/1 351/168/1 347/164/1
f 347/164/1 343/162/1 339/156/1
f 339/156/1 335/150/1 331/148/1
f 331/148/1 323/119/1 315/42/1
f 315/42/1 355/170/1 347/164/1
f 347/164/1 339/156/1 331/148/1
f 316/294/162 320/296/163 318/290/163
f 320/296/163 324/289/164 322/291/164
f 324/289/164 328/292/165 326/293/165
f 328/292/165 332/298/166 330/297/166
f 332/296/166 336/289/167 334/291/167
f 336/289/167 340/292/168 338/293/168
f 340/298/168 344/292/169 342/293/169
f 344/292/169 348/289/170 346/291/170
f 348/289/170 352/296/171 350/290/171
f 352/296/171 356/294/172 354/295/172
f 357/215/136 487/203/136 491/202/136
f 491/202/136 495/174/136 499/180/136
f 499/180/136 503/185/136 507/172/136
f 507/172/136 511/161/136 367/214/136
f 367/214/136 361/177/136 357/215/136
f 357/215/136 491/202/136 499/180/136
f 499/180/136 507/172/136 367/214/136
f 364/299/161 360/335/173 362/300/173
f 514/302/176 364/299/161 368/301/161
f 371/180/136 365/185/136 481/172/136
f 481/172/136 477/161/136 411/214/136
f 411/214/136 403/177/136 399/215/136
f 399/215/136 391/203/136 383/202/136
f 383/202/136 379/174/136 371/180/136
f 371/180/136 481/172/136 411/214/136
f 411/214/136 399/215/136 383/202/136
f 370/304/175 486/239/174 366/188/174
f 486/239/174 480/122/178 482/186/178
f 485/185/1 369/180/1 373/179/1
f 373/179/1 381/202/1 389/203/1
f 389/203/1 393/215/1 401/177/1
f 401/177/1 409/158/1 475/161/1
f 475/161/1 479/172/1 485/185/1
f 485/185/1 373/179/1 389/203/1
f 389/203/1 401/177/1 475/161/1
f 374/306/167 370/320/175 372/307/175
f 382/309/177 374/306/167 380/308/167
f 415/90/1 425/152/1 435/212/1
f 435/212/1 445/190/1 455/200/1
f 455/200/1 465/205/1 375/204/1
f 375/204/1 385/211/1 395/227/1
f 395/227/1 405/225/1 415/90/1
f 415/90/1 435/212/1 455/200/1
f 455/200/1 375/204/1 395/227/1
f 386/233/178 376/332/176 378/311/176
f 376/312/176 466/319/161 468/313/161
f 407/228/136 397/227/136 387/211/136
f 387/211/136 377/210/136 467/205/136
f 467/205/136 457/236/136 447/190/136
f 447/190/136 437/212/136 427/147/136
f 427/147/136 417/90/136 407/228/136
f 407/228/136 387/211/136 467/205/136
f 467/205/136 447/190/136 427/147/136
f 390/239/179 382/304/177 384/305/177
f 396/235/174 386/233/178 388/194/178
f 394/122/155 390/239/179 392/188/179
f 402/315/173 394/122/155 400/186/155
f 406/317/175 396/235/174 398/192/174
f 410/306/161 402/309/173 404/310/173
f 416/319/167 406/312/175 408/314/175
f 476/320/176 410/306/161 412/308/161
f 469/200/1 473/205/1 413/204/1
f 413/204/1 421/211/1 429/227/1
f 429/227/1 433/225/1 441/90/1
f 441/90/1 449/152/1 453/212/1
f 453/212/1 461/190/1 469/200/1
f 469/200/1 413/204/1 429/227/1
f 429/227/1 441/90/1 453/212/1
f 422/208/178 414/333/176 420/321/176
f 414/322/176 474/329/161 484/323/161
f 426/325/177 416/319/167 418/313/167
f 423/211/136 419/210/136 483/205/136
f 483/205/136 471/236/136 463/190/136
f 463/190/136 459/212/136 451/147/136
f 451/147/136 443/90/136 439/228/136
f 439/228/136 431/227/136 423/211/136
f 423/211/136 483/205/136 463/190/136
f 463/190/136 451/147/136 439/228/136
f 430/206/174 422/208/178 424/219/178
f 436/235/179 426/317/177 428/318/177
f 434/327/175 430/206/174 432/221/174
f 442/329/167 434/322/175 440/324/175
f 446/233/155 436/235/179 438/192/179
f 450/330/177 442/329/167 444/323/167
f 456/332/173 446/233/155 448/194/155
f 454/206/179 450/327/177 452/328/177
f 462/208/155 454/206/179 460/221/179
f 466/319/161 456/325/173 458/326/173
f 470/333/173 462/208/155 464/219/155
f 474/329/161 470/330/173 472/331/173
f 480/122/178 476/315/176 478/316/176
f 490/243/179 494/336/177 492/334/177
f 494/335/177 498/299/167 496/301/167
f 498/299/167 502/302/175 500/303/175
f 502/336/175 506/243/174 504/196/174
f 506/243/174 510/181/178 508/242/178
f 510/181/178 514/276/176 512/277/176
f 527/212/136 531/147/136 535/90/136
f 535/90/136 539/228/136 543/227/136
f 543/227/136 547/211/136 551/210/136
f 551/210/136 515/205/136 519/236/136
f 519/236/136 523/190/136 527/212/136
f 527/212/136 535/90/136 543/227/136
f 543/227/136 551/210/136 519/236/136
f 518/337/161 522/345/173 520/338/173
f 554/340/176 518/337/161 516/339/161
f 541/225/1 537/90/1 533/152/1
f 533/152/1 529/212/1 525/190/1
f 525/190/1 521/200/1 517/205/1
f 517/205/1 553/204/1 549/211/1
f 549/211/1 545/227/1 541/225/1
f 541/225/1 533/152/1 525/190/1
f 525/190/1 517/205/1 549/211/1
f 522/342/173 526/244/155 524/218/155
f 526/244/155 530/246/179 528/216/179
f 530/246/179 534/346/177 532/344/177
f 534/345/177 538/337/167 536/339/167
f 538/337/167 542/340/175 540/341/175
f 542/346/175 546/246/174 544/216/174
f 546/246/174 550/244/178 548/218/178
f 550/244/178 554/342/176 552/343/176
f 563/215/136 567/203/136 571/202/136
f 571/202/136 575/174/136 579/180/136
f 579/180/136 583/185/136 587/172/136
f 587/172/136 591/161/136 555/214/136
f 555/214/136 559/177/136 563/215/136
f 563/215/136 571/202/136 579/180/136
f 579/180/136 587/172/136 555/214/136
f 558/347/161 562/355/173 560/348/173
f 594/350/176 558/347/161 556/349/161
f 581/180/1 577/179/1 573/202/1
f 573/202/1 569/203/1 565/215/1
f 565/215/1 561/177/1 557/158/1
f 557/158/1 593/161/1 589/172/1
f 589/172/1 585/185/1 581/180/1
f 581/180/1 573/202/1 565/215/1
f 565/215/1 557/158/1 589/172/1
f 562/352/173 566/257/155 564/139/155
f 566/257/155 570/229/179 568/254/179
f 570/229/179 574/356/177 572/354/177
f 574/355/177 578/347/167 576/349/167
f 578/347/167 582/350/175 580/351/175
f 582/356/175 586/229/174 584/254/174
f 586/229/174 590/257/178 588/139/178
f 590/257/178 594/352/176 592/353/176
f 611/62/136 615/262/136 621/261/136
f 621/261/136 625/270/136 631/269/136
f 631/269/136 595/253/136 601/223/136
f 601/223/136 605/251/136 611/62/136
f 611/62/136 621/261/136 631/269/136
f 599/86/182 690/360/201 782/357/201
f 825/358/213 600/87/183 596/94/180
f 628/267/1 623/261/1 618/259/1
f 618/259/1 613/62/1 608/256/1
f 608/256/1 603/223/1 598/275/1
f 598/275/1 633/269/1 628/267/1
f 628/267/1 618/259/1 608/256/1
f 604/360/184 610/98/188 606/103/185
f 609/97/187 91/358/50 208/359/50
f 614/360/189 620/98/193 616/103/190
f 619/97/192 817/358/208 814/359/208
f 624/358/194 630/87/198 626/94/195
f 629/86/197 634/360/199 632/357/199
