# Blender 5.2.0 LTS
# www.blender.org
o Backdrop_Candle
v 0.000000 68.500000 -15.000000
v 0.000000 64.610916 -10.606602
v 0.000000 63.736862 -7.500000
v 0.000000 63.000000 0.000000
v 17.000000 35.500000 0.000000
v -0.781802 67.449997 -0.318198
v -0.781802 76.550003 -0.318198
v 8.816778 68.500000 -12.135255
v 8.516355 67.076492 -11.721756
v 7.635554 65.750000 -10.509439
v 6.234404 64.610916 -8.580921
v 4.408389 63.736862 -6.067627
v 2.281950 63.187408 -3.140835
v 0.318198 76.550003 0.781802
v 10.567369 20.500000 -13.316558
v 0.000000 67.000000 -0.463604
v 0.318198 67.449997 -0.781802
v -0.318198 76.550003 -0.781802
v -0.318198 67.449997 -0.781802
v 0.781802 67.449997 -0.318198
v 14.265848 68.500000 -4.635255
v 13.779751 67.076492 -4.477313
v 12.354586 65.750000 -4.014248
v 10.087477 64.610916 -3.277621
v 7.132924 63.736862 -2.317628
v 3.692273 63.187408 -1.199692
v 0.781802 76.550003 0.318198
v 0.463604 77.000000 -0.000000
v -0.000000 77.000000 -0.463604
v 0.318198 76.550003 -0.781802
v 0.781802 76.550003 -0.318198
v -0.463604 67.000000 -0.000000
v -0.781802 67.449997 0.318198
v 14.265849 68.500000 4.635254
v 13.779752 67.076492 4.477311
v 12.354586 65.750000 4.014248
v 10.087477 64.610916 3.277619
v 7.132925 63.736862 2.317627
v 3.692273 63.187408 1.199692
v -0.318198 67.449997 0.781802
v -0.463604 77.000000 0.000000
v 0.000000 77.000000 0.463604
v -0.318198 76.550003 0.781802
v -0.781802 76.550003 0.318198
v 8.036762 65.000000 14.808658
v -12.340849 43.000000 14.572409
v 8.816780 68.500000 12.135256
v 8.516356 67.076492 11.721756
v 7.635553 65.750000 10.509438
v 6.234404 64.610916 8.580920
v 4.408390 63.736862 6.067628
v 2.281950 63.187408 3.140835
v -10.729709 65.000000 12.622217
v 6.425622 20.000000 18.619234
v 0.463604 67.000000 0.000000
v -0.000000 67.000000 0.463604
v 0.318198 67.449997 0.781802
v 0.781802 67.449997 0.318198
v 6.425622 65.000000 17.599236
v 0.000001 68.500000 15.000002
v 0.000001 67.076492 14.488888
v 0.000000 65.750000 12.990380
v 0.000000 64.610916 10.606601
v 0.000000 63.736862 7.500001
v 0.000000 63.187408 3.882286
v 8.036762 65.000000 16.669043
v 6.425622 65.000000 13.878465
v 6.425622 20.000000 12.858465
v 3.931135 20.000000 17.179043
v 3.931135 20.000000 14.298657
v -10.729709 65.000000 10.761831
v -16.017780 32.000000 -2.814414
v -8.816778 68.500000 12.135258
v -8.516354 67.076492 11.721758
v -7.635553 65.750000 10.509439
v -6.234403 64.610916 8.580920
v -4.408389 63.736862 6.067629
v -2.281950 63.187408 3.140835
v -14.406640 65.000000 -4.764606
v -12.340849 65.000000 13.552409
v 8.920108 20.000000 14.298657
v 8.920108 20.000000 17.179043
v -12.340849 65.000000 9.831639
v -12.340849 43.000000 8.811640
v -14.835336 43.000000 13.132216
v -14.265849 68.500000 4.635257
v -13.779751 67.076492 4.477314
v -12.354586 65.750000 4.014249
v -10.087477 64.610916 3.277620
v -7.132925 63.736862 2.317629
v -3.692273 63.187408 1.199692
v -14.835336 43.000000 10.251832
v 4.814481 65.000000 14.808657
v 4.814481 65.000000 16.669043
v 19.494486 39.000000 -1.440193
v 19.494486 39.000000 1.440193
v 17.000000 39.000000 -2.880385
v 14.505513 39.000000 -1.440192
v -14.265851 68.500000 -4.635254
v -13.779753 67.076492 -4.477311
v -12.354586 65.750000 -4.014248
v -10.087477 64.610916 -3.277620
v -7.132926 63.736862 -2.317627
v -3.692273 63.187408 -1.199692
v 17.000000 39.000000 2.880385
v 14.505513 39.000000 1.440192
v -9.846362 43.000000 10.251832
v -9.846362 43.000000 13.132216
v 18.611139 65.000000 0.930193
v 18.611139 65.000000 -0.930193
v 13.061856 24.000000 -14.756750
v -8.816781 68.500000 -12.135256
v -8.516357 67.076492 -11.721756
v -7.635553 65.750000 -10.509438
v -6.234403 64.610916 -8.580920
v -4.408391 63.736862 -6.067628
v -2.281950 63.187408 -3.140835
v 17.000000 65.000000 -1.860385
v 15.388860 65.000000 -0.930192
v 15.388860 65.000000 0.930192
v 17.000000 65.000000 1.860385
v -3.862436 48.000000 -13.675026
v 12.178510 65.000000 -14.246750
v -16.017780 32.000000 -8.575184
v 13.061856 24.000000 -11.876366
v -0.000002 67.076492 -14.488889
v -0.000000 65.750000 -12.990380
v -2.251295 65.000000 -15.625217
v -1.367949 48.000000 -17.995604
v -0.000000 63.187408 -3.882286
v -3.862436 44.500000 -16.555410
v -1.367949 48.000000 -15.115218
v -13.523293 32.000000 -7.134991
v -13.523293 32.000000 -4.254607
v 8.072883 24.000000 -14.756750
v 10.567369 24.000000 -16.196943
v 10.567369 65.000000 -11.456173
v 12.178510 65.000000 -12.386366
v -2.251295 65.000000 -17.485603
v -3.862436 65.000000 -18.415794
v 10.567369 24.000000 -10.436172
v 8.072883 24.000000 -11.876366
v 10.567369 65.000000 -15.176943
v -17.628920 65.000000 -6.624991
v 8.956229 65.000000 -14.246750
v 8.956229 65.000000 -12.386366
v -3.862436 65.000000 -14.695025
v -17.628920 65.000000 -4.764606
v -16.017780 65.000000 -3.834414
v -18.512266 32.000000 -4.254606
v -18.512266 32.000000 -7.134991
v -3.862435 48.000000 -19.435795
v -5.473577 65.000000 -17.485603
v -5.473577 65.000000 -15.625217
v -10.595912 69.500000 -14.584023
v -10.874027 69.050003 -14.966815
v -16.017780 28.500000 -5.694798
v -10.595912 64.500000 -14.584022
v -10.874027 64.949997 -14.966815
v -6.356922 48.000000 -15.115218
v -6.356922 48.000000 -17.995604
v -17.144545 69.500000 -5.570602
v -17.594545 69.050003 -5.716815
v -17.144545 64.500000 -5.570602
v -17.594545 64.949997 -5.716815
v -14.406640 65.000000 -6.624990
v -16.017780 65.000000 -7.555183
v -17.144545 69.500000 5.570602
v -17.594545 69.050003 5.716815
v -13.951989 65.000000 10.761831
v -13.951989 65.000000 12.622217
v -17.144545 64.500000 5.570602
v -17.594545 64.949997 5.716815
v -10.595912 69.500000 14.584022
v -10.874027 69.050003 14.966815
v -10.595912 64.500000 14.584023
v -10.874027 64.949997 14.966815
v 0.000000 69.500000 18.026842
v 0.000000 69.050003 18.500000
v -0.000000 64.500000 18.026842
v 0.000000 64.949997 18.500000
v 10.595912 69.500000 14.584023
v 10.874027 69.050003 14.966815
v -10.302019 66.000000 -14.179513
v -10.580134 65.550003 -14.562306
v -10.302019 0.000000 -14.179513
v -10.580134 0.450000 -14.562306
v -12.340849 39.500000 11.692024
v -16.669018 66.000000 -5.416093
v -17.119019 65.550003 -5.562306
v -16.669018 0.000000 -5.416093
v -17.119019 0.450000 -5.562306
v -16.669018 66.000000 5.416093
v -17.119019 65.550003 5.562306
v 0.000000 64.500000 -18.026842
v 0.000000 64.949997 -18.500000
v -16.669018 0.000000 5.416093
v -17.119019 0.450000 5.562306
v -10.302019 66.000000 14.179513
v -10.580134 65.550003 14.562306
v -10.302019 0.000000 14.179513
v -10.580134 0.450000 14.562306
v 0.000000 66.000000 17.526842
v -6.393684 48.449394 -18.467030
v 0.000000 65.550003 18.000000
v -6.783571 48.449394 -17.791727
v 0.000000 0.000000 17.526842
v 0.000000 0.450000 18.000000
v 10.302019 66.000000 14.179513
v 10.580134 65.550003 14.562306
v 10.595912 69.500000 -14.584022
v -0.000000 69.500000 -18.026842
v 0.000000 69.050003 -18.500000
v 10.874027 69.050003 -14.966815
v 10.302019 0.000000 14.179513
v 10.580134 0.450000 14.562306
v 16.669018 66.000000 5.416093
v 17.119019 65.550003 5.562306
v 16.669018 0.000000 5.416093
v 6.425622 16.500000 15.738850
v 17.119019 0.450000 5.562306
v 17.144545 69.500000 5.570602
v 17.144545 69.500000 -5.570602
v -6.356922 48.000000 -17.995604
v 17.594545 69.050003 -5.716815
v 17.594545 69.050003 5.716815
v 10.302019 0.000000 14.179513
v 17.119019 65.550003 5.562306
v 16.669018 66.000000 -5.416093
v 17.119019 65.550003 -5.562306
v 16.669018 0.000000 -5.416093
v 16.669018 66.000000 5.416093
v 17.119019 0.450000 -5.562306
v 10.302019 66.000000 -14.179513
v 17.119019 0.450000 5.562306
v 0.000000 66.000000 -17.526842
v 16.669018 0.000000 5.416093
v 0.000000 65.550003 -18.000000
v 10.580134 65.550003 -14.562306
v 10.595912 64.500000 -14.584023
v 17.144545 64.500000 -5.570602
v 17.119019 65.550003 -5.562306
v 17.594545 64.949997 -5.716815
v 16.669018 66.000000 -5.416093
v 10.874027 64.949997 -14.966815
v 0.000000 0.000000 -17.526842
v 10.302019 0.000000 -14.179513
v 10.580134 0.450000 -14.562306
v 17.119019 0.450000 -5.562306
v 0.000000 0.450000 -18.000000
v 16.669018 0.000000 -5.416093
v 17.144545 64.500000 5.570602
v 10.595912 64.500000 14.584022
v 10.874027 64.949997 14.966815
v 14.834936 39.000000 -0.798000
v 10.580134 65.550003 -14.562306
v 15.226380 39.000000 -1.476001
v 10.302019 66.000000 -14.179513
v 10.580134 0.450000 -14.562306
v 10.302019 0.000000 -14.179513
v 17.594545 64.949997 5.716815
v 0.000000 65.550003 -18.000000
v 0.000000 66.000000 -17.526842
v 0.000000 0.450000 -18.000000
v 0.000000 0.000000 -17.526842
v 10.580134 0.450000 14.562306
v 10.302019 66.000000 14.179513
v 10.580134 65.550003 14.562306
v 0.000000 0.000000 17.526842
v 0.000000 0.450000 18.000000
v 0.000000 66.000000 17.526842
v 0.000000 65.550003 18.000000
v -10.302019 0.000000 14.179513
v -10.580134 0.450000 14.562306
v -10.302019 66.000000 14.179513
v -10.580134 65.550003 14.562306
v -16.669018 0.000000 5.416093
v -17.119019 0.450000 5.562306
v -16.669018 66.000000 5.416093
v -17.119019 65.550003 5.562306
v -16.669018 0.000000 -5.416093
v -17.119019 0.450000 -5.562306
v -16.669018 66.000000 -5.416093
v -17.119019 65.550003 -5.562306
v -10.302019 0.000000 -14.179513
v -10.580134 0.450000 -14.562306
v -10.302019 66.000000 -14.179513
v -10.580134 65.550003 -14.562306
v 0.000000 64.500000 -18.026842
v 0.000000 64.949997 -18.500000
v -0.000000 69.500000 -18.026842
v 0.000000 69.050003 -18.500000
v 10.595912 64.500000 -14.584023
v 10.874027 64.949997 -14.966815
v 10.595912 69.500000 -14.584022
v 10.874027 69.050003 -14.966815
v 17.144545 64.500000 -5.570602
v 17.594545 64.949997 -5.716815
v 17.144545 69.500000 -5.570602
v 17.594545 69.050003 -5.716815
v 17.144545 64.500000 5.570602
v 17.594545 64.949997 5.716815
v 17.144545 69.500000 5.570602
v 17.594545 69.050003 5.716815
v 10.595912 64.500000 14.584022
v 10.874027 64.949997 14.966815
v 10.595912 69.500000 14.584023
v 10.874027 69.050003 14.966815
v -0.000000 64.500000 18.026842
v 0.000000 64.949997 18.500000
v 0.000000 69.500000 18.026842
v 0.000000 69.050003 18.500000
v -10.595912 64.500000 14.584023
v -10.874027 64.949997 14.966815
v -10.595912 69.500000 14.584022
v -10.874027 69.050003 14.966815
v -17.144545 64.500000 5.570602
v -17.594545 64.949997 5.716815
v -17.144545 69.500000 5.570602
v -17.594545 69.050003 5.716815
v -17.144545 64.500000 -5.570602
v -17.594545 64.949997 -5.716815
v -17.144545 69.500000 -5.570602
v -17.594545 69.050003 -5.716815
v -10.595912 64.500000 -14.584022
v -10.874027 64.949997 -14.966815
v -10.595912 69.500000 -14.584023
v -10.874027 69.050003 -14.966815
v 15.519433 37.268135 -1.313729
v 15.121996 37.268135 -0.625344
v 15.917468 35.968910 -0.154702
v 16.324759 35.968910 -0.860150
v 16.282351 35.810856 -0.414335
v -5.473577 65.000000 -15.625217
v -5.946928 64.550606 -15.802131
v -5.557041 64.550606 -15.126827
v -6.356922 48.000000 -15.115218
v -6.393684 48.449394 -14.643791
v -6.783570 48.449394 -15.319095
v 8.793750 24.000000 -14.792560
v 8.402306 24.000000 -14.114558
v 8.402306 24.000000 -12.518559
v 8.793750 24.000000 -11.840557
v -3.862436 65.000000 -14.695025
v -4.252322 64.550606 -14.373548
v -3.472549 64.550606 -14.373548
v -3.862436 48.000000 -13.675026
v -3.472549 48.449394 -13.407475
v -4.252322 48.449394 -13.407475
v 12.340989 24.000000 -11.840557
v 12.732433 24.000000 -12.518559
v 16.324759 35.968910 0.860149
v 15.917467 35.968910 0.154702
v 16.282351 35.810856 0.414335
v 15.121996 37.268135 0.625343
v 15.519433 37.268135 1.313729
v 14.834936 39.000000 0.797999
v 15.226380 39.000000 1.476000
v -2.779904 44.968910 -16.400709
v -3.187193 44.968910 -15.695260
v -3.144787 44.810856 -16.141075
v 8.072883 24.000000 -14.756750
v 7.632576 24.449896 -14.560926
v 8.022317 24.449896 -15.235979
v 8.956229 65.000000 -12.386366
v 8.496536 64.550102 -12.570997
v 8.886277 64.550102 -11.895945
v 8.072883 24.000000 -11.876366
v 8.022317 24.449896 -11.397137
v 7.632576 24.449896 -12.072189
v 10.567369 65.000000 -11.456173
v 10.177628 64.550102 -11.150383
v 10.957111 64.550102 -11.150383
v -2.251295 65.000000 -15.625217
v -2.167830 64.550606 -15.126827
v -1.777944 64.550606 -15.802131
v 9.892128 20.968910 -12.456409
v 9.484838 20.968910 -13.161857
v 9.849720 20.810858 -12.902223
v 9.086802 22.268135 -12.002828
v 8.689363 22.268135 -12.691214
v 10.567369 24.000000 -10.436172
v 10.957111 24.449896 -10.152767
v 10.177628 24.449896 -10.152767
v 16.608555 39.000000 2.273999
v 17.391445 39.000000 2.274000
v 16.602560 37.268135 1.939072
v 17.397440 37.268135 1.939072
v 17.407291 35.968910 1.014850
v 16.592709 35.968910 1.014852
v 17.000000 35.810856 0.828670
v -1.367949 48.000000 -15.115218
v -0.941300 48.449394 -15.319095
v -1.331187 48.449394 -14.643791
v 10.169929 22.268135 -11.377483
v 10.964809 22.268135 -11.377485
v 10.974660 20.968910 -12.301707
v 10.160079 20.968910 -12.301707
v 10.567369 20.810858 -12.487888
v -2.381870 46.268135 -15.241682
v -1.984430 46.268135 -15.930066
v 18.082531 35.968910 0.154702
v 17.675241 35.968910 0.860150
v 17.717648 35.810856 0.414335
v 18.480566 37.268139 1.313730
v 18.878006 37.268135 0.625343
v 18.773619 39.000000 1.476001
v 19.165064 39.000000 0.797999
v 12.178510 65.000000 -12.386366
v 12.248461 64.550102 -11.895945
v 12.638203 64.550102 -12.570997
v -2.088817 48.000000 -15.079410
v -1.697372 48.000000 -15.757411
v -18.512266 32.000000 -7.134991
v -18.950226 32.449841 -6.937792
v -18.560467 32.449841 -7.612873
v -17.628920 65.000000 -4.764606
v -18.090961 64.550163 -4.947900
v -17.701204 64.550163 -4.272820
v 13.061856 24.000000 -11.876366
v 13.502163 24.449896 -12.072189
v 13.112422 24.449896 -11.397137
v 12.178510 65.000000 -14.246750
v 12.638203 64.550102 -14.062119
v 12.248462 64.550102 -14.737171
v -2.251295 65.000000 -17.485603
v -1.777944 64.550606 -17.308691
v -2.167830 64.550606 -17.983994
v 13.061856 24.000000 -14.756750
v 13.112422 24.449896 -15.235979
v 13.502163 24.449896 -14.560926
v -1.367949 48.000000 -17.995604
v -1.331187 48.449394 -18.467030
v -0.941300 48.449394 -17.791727
v -3.862436 65.000000 -18.415794
v -3.472549 64.550606 -18.737272
v -4.252322 64.550606 -18.737272
v 19.165064 39.000000 -0.797999
v 18.773621 39.000000 -1.476001
v 18.878006 37.268135 -0.625343
v 18.480566 37.268139 -1.313729
v 17.675241 35.968910 -0.860149
v 18.082533 35.968910 -0.154702
v 17.717648 35.810856 -0.414335
v -3.862435 48.000000 -19.435795
v -4.252322 48.449394 -19.703344
v -3.472549 48.449394 -19.703346
v 12.732433 24.000000 -14.114557
v 12.340989 24.000000 -14.792559
v 10.175925 24.000000 -11.042559
v 10.958814 24.000000 -11.042559
v -1.697372 48.000000 -17.353411
v -2.088816 48.000000 -18.031412
v 16.592709 35.968910 -1.014850
v 17.407291 35.968910 -1.014852
v 17.000000 35.810856 -0.828670
v 17.397440 37.268135 -1.939072
v 16.602560 37.268135 -1.939072
v 17.391445 39.000000 -2.273999
v 16.608555 39.000000 -2.274000
v 10.567369 65.000000 -15.176943
v 10.957111 64.550102 -15.482733
v 10.177628 64.550102 -15.482733
v 15.388860 65.000000 -0.930192
v 15.313366 64.550262 -1.423865
v 14.923580 64.550262 -0.748735
v 11.649901 20.968910 -13.161857
v 11.242611 20.968910 -12.456409
v 11.285019 20.810858 -12.902223
v 12.445375 22.268135 -12.691214
v 12.047936 22.268135 -12.002828
v 14.505513 39.000000 -1.440192
v 14.070793 39.449741 -1.241092
v 14.460580 39.449741 -1.916221
v 15.388860 65.000000 0.930192
v 14.923580 64.550262 0.748735
v 15.313366 64.550262 1.423865
v 14.505513 39.000000 1.440192
v 14.460580 39.449741 1.916222
v 14.070793 39.449741 1.241092
v 17.000000 65.000000 1.860385
v 16.610214 64.550262 2.172601
v 17.389786 64.550262 2.172601
v 17.000000 39.000000 2.880385
v 17.389786 39.449741 3.157313
v 16.610214 39.449741 3.157313
v 12.047935 22.268135 -14.630286
v 12.445375 22.268135 -13.941902
v 11.242611 20.968910 -14.176707
v 11.649901 20.968910 -13.471259
v 11.285019 20.810858 -13.730893
v 18.611139 65.000000 0.930193
v 18.686634 64.550262 1.423865
v 19.076420 64.550262 0.748735
v 19.494486 39.000000 1.440193
v 19.929207 39.449741 1.241092
v 19.539421 39.449741 1.916221
v 18.611139 65.000000 -0.930193
v 19.076420 64.550262 -0.748735
v 18.686634 64.550262 -1.423865
v 19.494486 39.000000 -1.440193
v 19.539421 39.449741 -1.916221
v 19.929207 39.449741 -1.241092
v 17.000000 65.000000 -1.860385
v 17.389786 64.550262 -2.172601
v 16.610214 64.550262 -2.172601
v -1.984429 46.268139 -17.180752
v -2.381869 46.268135 -17.869139
v -3.187194 44.968910 -17.415560
v -2.779903 44.968910 -16.710112
v -3.144787 44.810856 -16.969746
v 17.000000 39.000000 -2.880385
v 16.610214 39.449741 -3.157313
v 17.389786 39.449741 -3.157313
v 10.160079 20.968910 -14.331409
v 10.974660 20.968910 -14.331409
v 10.567369 20.810858 -14.145227
v 10.964808 22.268137 -15.255630
v 10.169930 22.268137 -15.255631
v 10.958814 24.000000 -15.590557
v 10.175925 24.000000 -15.590558
v 10.567369 24.000000 -16.196943
v 10.177628 24.449896 -16.480349
v 10.957111 24.449896 -16.480349
v -18.512266 32.000000 -4.254606
v -18.560467 32.449841 -3.776724
v -18.950226 32.449841 -4.451804
v -16.017780 65.000000 -3.834414
v -16.407537 64.550163 -3.525920
v -15.628022 64.550163 -3.525921
v 8.956229 65.000000 -14.246750
v 8.886278 64.550102 -14.737171
v 8.496536 64.550102 -14.062119
v -14.935248 28.968910 -5.540097
v -15.342539 28.968910 -4.834649
v -15.300131 28.810858 -5.280464
v 9.484838 20.968910 -13.471259
v 9.892128 20.968910 -14.176707
v 9.849720 20.810858 -13.730893
v 9.086803 22.268135 -14.630287
v 8.689363 22.268135 -13.941902
v -16.017780 32.000000 -2.814414
v -15.628022 32.449841 -2.533730
v -16.407537 32.449841 -2.533729
v -14.139774 30.268135 -5.069455
v -14.537214 30.268135 -4.381070
v -4.269726 44.968910 -17.570261
v -3.455145 44.968910 -17.570263
v -3.862436 44.810856 -17.384081
v -4.259874 46.268135 -18.494484
v -3.464997 46.268135 -18.494482
v -14.244161 32.000000 -4.218798
v -13.852716 32.000000 -4.896800
v -14.406640 65.000000 -4.764606
v -14.334357 64.550163 -4.272820
v -13.944599 64.550163 -4.947900
v -5.473577 65.000000 -17.485603
v -5.557041 64.550606 -17.983994
v -5.946927 64.550606 -17.308691
v -14.835336 43.000000 10.251832
v -15.267282 43.449638 10.452569
v -14.877466 43.449638 9.777388
v -13.951989 65.000000 12.622217
v -14.420043 64.550362 12.442327
v -14.030227 64.550362 13.117509
v -13.523293 32.000000 -4.254607
v -13.085335 32.449841 -4.451804
v -13.475093 32.449841 -3.776724
v -3.455146 44.968910 -15.540560
v -4.269726 44.968910 -15.540559
v -3.862436 44.810856 -15.726741
v -3.464996 46.268135 -14.616338
v -4.259875 46.268135 -14.616338
v -4.253881 48.000000 -14.281411
v -3.470992 48.000000 -14.281411
v -14.406640 65.000000 -6.624990
v -13.944599 64.550163 -6.441697
v -14.334357 64.550163 -7.116777
v -13.852716 32.000000 -6.492797
v -14.244161 32.000000 -7.170799
v -14.139774 30.268135 -6.320142
v -14.537214 30.268135 -7.008527
v -13.523293 32.000000 -7.134991
v -13.475093 32.449841 -7.612874
v -13.085335 32.449841 -6.937792
v -4.537677 44.968910 -15.695261
v -4.944968 44.968910 -16.400709
v -4.580084 44.810856 -16.141075
v -5.740441 46.268135 -15.930067
v -5.343001 46.268135 -15.241683
v -6.027499 48.000000 -15.757411
v -5.636055 48.000000 -15.079410
v -16.017780 65.000000 -7.555183
v -15.628022 64.550163 -7.863677
v -16.407537 64.550163 -7.863676
v -15.342539 28.968910 -6.554948
v -14.935248 28.968910 -5.849500
v -15.300131 28.810858 -6.109133
v -16.017780 32.000000 -8.575184
v -16.407537 32.449841 -8.855867
v -15.628022 32.449841 -8.855867
v -4.944967 44.968910 -16.710110
v -4.537678 44.968910 -17.415560
v -4.580084 44.810856 -16.969746
v -5.740442 46.268143 -17.180756
v -5.343002 46.268135 -17.869141
v -5.636055 48.000000 -18.031410
v -6.027499 48.000000 -17.353411
v -14.835336 43.000000 13.132216
v -14.877466 43.449638 13.606661
v -15.267282 43.449638 12.931479
v -12.340849 65.000000 13.552409
v -12.730665 64.550362 13.867811
v -11.951033 64.550362 13.867810
v -12.340849 43.000000 14.572409
v -11.951033 43.449638 14.846116
v -12.730665 43.449638 14.846116
v -11.258317 39.968910 11.846726
v -11.665606 39.968910 12.552175
v -11.623199 39.810856 12.106359
v -10.462845 41.268135 12.317369
v -10.860283 41.268135 13.005754
v -16.425072 28.968910 -6.709649
v -15.610490 28.968910 -6.709649
v -16.017780 28.810858 -6.523468
v -3.470991 48.000000 -18.829411
v -4.253879 48.000000 -18.829411
v -16.415220 30.268135 -7.633871
v -15.620340 30.268135 -7.633871
v -10.567229 43.000000 13.168025
v -10.175785 43.000000 12.490024
v -10.729709 65.000000 12.622217
v -10.651471 64.550362 13.117509
v -10.261656 64.550362 12.442327
v -17.628920 65.000000 -6.624991
v -17.701204 64.550163 -7.116778
v -18.090963 64.550163 -6.441697
v 3.931135 20.000000 14.298657
v 3.489967 20.449913 14.493978
v 3.879703 20.449913 13.818934
v 4.814481 65.000000 16.669043
v 4.355649 64.550087 16.483921
v 4.745386 64.550087 17.158964
v -9.846362 43.000000 13.132216
v -9.414416 43.449638 12.931479
v -9.804232 43.449638 13.606661
v -15.610490 28.968910 -4.679948
v -16.425072 28.968910 -4.679948
v -16.017780 28.810858 -4.866129
v -16.415220 30.268135 -3.755726
v -15.620340 30.268135 -3.755726
v -16.409225 32.000000 -3.420799
v -15.626336 32.000000 -3.420799
v -10.729709 65.000000 10.761831
v -10.261655 64.550362 10.941721
v -10.651471 64.550362 10.266540
v -10.175785 43.000000 10.894025
v -10.567229 43.000000 10.216023
v -10.462845 41.268135 11.066680
v -10.860283 41.268135 10.378296
v -9.846362 43.000000 10.251832
v -9.804232 43.449638 9.777388
v -9.414416 43.449638 10.452569
v -16.693020 28.968910 -4.834649
v -17.100311 28.968910 -5.540097
v -16.735428 28.810858 -5.280464
v -17.498346 30.268137 -4.381070
v -17.895788 30.268137 -5.069455
v -18.182844 32.000000 -4.896800
v -17.791401 32.000000 -4.218799
v -12.340849 65.000000 9.831639
v -11.951033 64.550362 9.516237
v -12.730665 64.550362 9.516238
v -11.665607 39.968910 10.831875
v -11.258316 39.968910 11.537322
v -11.623199 39.810856 11.277689
v -12.340849 43.000000 8.811640
v -12.730665 43.449638 8.537932
v -11.951033 43.449638 8.537932
v -17.100311 28.968910 -5.849500
v -16.693020 28.968910 -6.554948
v -16.735428 28.810858 -6.109134
v -17.895786 30.268133 -6.320142
v -17.498346 30.268133 -7.008529
v -17.791399 32.000000 -7.170800
v -18.182844 32.000000 -6.492798
v 3.931135 20.000000 17.179043
v 3.879704 20.449913 17.658766
v 3.489967 20.449913 16.983723
v 6.425622 65.000000 17.599236
v 6.035885 64.550087 17.904034
v 6.815358 64.550087 17.904034
v 7.508153 16.968910 15.893551
v 7.100863 16.968910 16.598999
v 7.143270 16.810858 16.153185
v 6.425622 20.000000 18.619234
v 6.815358 20.449913 18.903637
v 6.035885 20.449913 18.903637
v 8.303627 18.268137 16.364193
v 7.906188 18.268137 17.052576
v -12.748139 39.968910 10.677174
v -11.933558 39.968910 10.677173
v -12.340849 39.810856 10.863355
v -15.626336 32.000000 -7.968798
v -16.409225 32.000000 -7.968798
v -12.738289 41.268135 9.752952
v -11.943410 41.268135 9.752954
v 8.199241 20.000000 17.214849
v 8.590685 20.000000 16.536848
v 8.036762 65.000000 16.669043
v 8.105857 64.550087 17.158964
v 8.495594 64.550087 16.483921
v -13.951989 65.000000 10.761831
v -14.030227 64.550362 10.266540
v -14.420042 64.550362 10.941721
v 8.920108 20.000000 17.179043
v 9.361276 20.449913 16.983723
v 8.971539 20.449913 17.658766
v -11.933558 39.968910 12.706875
v -12.748139 39.968910 12.706876
v -12.340849 39.810856 12.520694
v -12.738288 41.268135 13.631096
v -11.943409 41.268135 13.631097
v -12.732293 43.000000 13.966023
v -11.949405 43.000000 13.966023
v 8.036762 65.000000 14.808658
v 8.495594 64.550087 14.993779
v 8.105858 64.550087 14.318736
v 8.590685 20.000000 14.940850
v 8.199241 20.000000 14.262849
v 8.920108 20.000000 14.298657
v 8.971539 20.449913 13.818934
v 9.361276 20.449913 14.493978
v 8.303627 18.268135 15.113505
v 7.906187 18.268135 14.425120
v -13.016090 39.968910 12.552174
v -13.423382 39.968910 11.846726
v -13.058498 39.810856 12.106359
v -13.821415 41.268135 13.005753
v -14.218855 41.268135 12.317368
v -14.505913 43.000000 12.490024
v -14.114469 43.000000 13.168025
v 6.425622 65.000000 13.878465
v 6.815358 64.550087 13.573666
v 6.035885 64.550087 13.573666
v 7.100863 16.968910 14.878700
v 7.508153 16.968910 15.584148
v 7.143270 16.810858 15.324514
v 6.425622 20.000000 12.858465
v 6.035885 20.449913 12.574062
v 6.815358 20.449913 12.574063
v -13.423381 39.968910 11.537322
v -13.016091 39.968910 10.831874
v -13.058498 39.810856 11.277689
v -14.218855 41.268135 11.066680
v -13.821416 41.268135 10.378294
v -14.114469 43.000000 10.216023
v -14.505913 43.000000 10.894024
v -0.463604 77.000000 0.000000
v -0.781802 76.550003 -0.318198
v -0.781802 76.550003 0.318198
v -0.463604 67.000000 -0.000000
v -0.781802 67.449997 0.318198
v -0.781802 67.449997 -0.318198
v 6.018331 16.968910 14.723999
v 6.832912 16.968910 14.723999
v 6.425622 16.810858 14.910180
v -11.949404 43.000000 9.418025
v -12.732292 43.000000 9.418024
v 6.028181 18.268135 13.799775
v 6.823061 18.268137 13.799776
v 0.000000 77.000000 0.463604
v -0.318198 76.550003 0.781802
v 0.318198 76.550003 0.781802
v 4.814481 65.000000 14.808657
v 4.745386 64.550087 14.318736
v 4.355649 64.550087 14.993779
v -0.000000 67.000000 0.463604
v 0.318198 67.449997 0.781802
v -0.318198 67.449997 0.781802
v 6.832912 16.968910 16.753700
v 6.018331 16.968910 16.753700
v 6.425622 16.810858 16.567520
v 6.028183 18.268135 17.677923
v 6.823061 18.268135 17.677923
v 6.034177 20.000000 18.012850
v 6.817065 20.000000 18.012850
v 0.463604 77.000000 -0.000000
v 0.781802 76.550003 0.318198
v 0.781802 76.550003 -0.318198
v 0.463604 67.000000 0.000000
v 0.781802 67.449997 -0.318198
v 0.781802 67.449997 0.318198
v 5.750380 16.968910 16.598999
v 5.343090 16.968910 15.893551
v 5.707973 16.810858 16.153185
v 4.945053 18.268137 17.052578
v 4.547615 18.268137 16.364193
v 4.260558 20.000000 16.536848
v 4.652002 20.000000 17.214849
v -0.000000 77.000000 -0.463604
v 0.318198 76.550003 -0.781802
v -0.318198 76.550003 -0.781802
v 0.000000 67.000000 -0.463604
v -0.318198 67.449997 -0.781802
v 0.318198 67.449997 -0.781802
v 5.343090 16.968910 15.584148
v 5.750381 16.968910 14.878700
v 5.707973 16.810858 15.324514
v 4.945055 18.268135 14.425119
v 4.547616 18.268135 15.113505
v 4.652002 20.000000 14.262849
v 4.260559 20.000000 14.940849
v 6.817067 20.000000 13.464850
v 6.034178 20.000000 13.464849
vn -0.0000 0.3379 0.9412
vn -0.0000 0.9302 0.3671
vn -0.0000 0.9749 0.2226
vn -0.0000 1.0000 -0.0000
vn -0.0000 -1.0000 -0.0000
vn -0.8622 -0.4606 -0.2109
vn -0.8622 0.4606 -0.2109
vn -0.5532 0.3379 0.7614
vn -0.4950 0.5392 0.6813
vn -0.3356 0.8210 0.4619
vn -0.2158 0.9302 0.2970
vn -0.1309 0.9749 0.1801
vn -0.0643 0.9940 0.0885
vn 0.2109 0.4606 0.8622
vn -0.0000 -0.7588 -0.6513
vn 0.2109 -0.4606 -0.8622
vn -0.2109 0.4606 -0.8622
vn -0.2109 -0.4606 -0.8622
vn 0.8622 -0.4606 -0.2109
vn -0.8951 0.3379 0.2908
vn -0.8009 0.5392 0.2602
vn -0.5430 0.8210 0.1764
vn -0.3491 0.9302 0.1134
vn -0.2117 0.9749 0.0688
vn -0.1041 0.9940 0.0338
vn 0.8622 0.4606 0.2109
vn 0.6513 0.7588 -0.0000
vn -0.0000 0.7588 -0.6513
vn 0.2109 0.4606 -0.8622
vn 0.8622 0.4606 -0.2109
vn -0.6513 -0.7588 -0.0000
vn -0.8622 -0.4606 0.2109
vn -0.8951 0.3379 -0.2908
vn -0.8009 0.5392 -0.2602
vn -0.5430 0.8210 -0.1764
vn -0.3491 0.9302 -0.1134
vn -0.2117 0.9749 -0.0688
vn -0.1041 0.9940 -0.0338
vn -0.2109 -0.4606 0.8622
vn -0.6513 0.7588 -0.0000
vn -0.0000 0.7588 0.6513
vn -0.2109 0.4606 0.8622
vn -0.8622 0.4606 0.2109
vn 0.6188 0.6996 -0.3573
vn -0.0000 -0.6708 0.7416
vn -0.5532 0.3379 -0.7614
vn -0.4950 0.5392 -0.6813
vn -0.3356 0.8210 -0.4619
vn -0.2158 0.9302 -0.2970
vn -0.1309 0.9749 -0.1801
vn -0.0643 0.9940 -0.0885
vn 0.6108 0.7090 0.3526
vn -0.0000 -0.6809 0.7323
vn 0.6513 -0.7588 -0.0000
vn -0.0000 -0.7588 0.6513
vn 0.2109 -0.4606 0.8622
vn 0.8622 -0.4606 0.2109
vn -0.0000 0.6996 0.7146
vn -0.0000 0.3379 -0.9412
vn -0.0000 0.5392 -0.8422
vn -0.0000 0.8210 -0.5710
vn -0.0000 0.9302 -0.3671
vn -0.0000 0.9749 -0.2226
vn -0.0000 0.9940 -0.1094
vn 0.6188 0.6996 0.3573
vn -0.0000 0.6996 -0.7146
vn -0.0000 -0.6809 -0.7323
vn -0.6342 -0.6809 0.3662
vn -0.6342 -0.6809 -0.3662
vn 0.6108 0.7090 -0.3526
vn -0.0000 -0.6774 0.7356
vn 0.5532 0.3379 -0.7614
vn 0.4950 0.5392 -0.6813
vn 0.3356 0.8210 -0.4619
vn 0.2158 0.9302 -0.2970
vn 0.1309 0.9749 -0.1801
vn 0.0643 0.9940 -0.0885
vn 0.6160 0.7029 0.3557
vn -0.0000 0.7090 0.7053
vn 0.6342 -0.6809 -0.3662
vn 0.6342 -0.6809 0.3662
vn -0.0000 0.7090 -0.7053
vn -0.0000 -0.6708 -0.7416
vn -0.6423 -0.6708 0.3708
vn 0.8951 0.3379 -0.2908
vn 0.8009 0.5392 -0.2602
vn 0.5430 0.8210 -0.1764
vn 0.3491 0.9302 -0.1134
vn 0.2117 0.9749 -0.0688
vn 0.1041 0.9940 -0.0338
vn -0.6423 -0.6708 -0.3708
vn -0.6188 0.6996 -0.3573
vn -0.6188 0.6996 0.3573
vn 0.6399 -0.6739 -0.3694
vn 0.6399 -0.6739 0.3694
vn -0.0000 -0.6739 -0.7388
vn -0.6399 -0.6739 -0.3694
vn 0.8951 0.3379 0.2908
vn 0.8009 0.5392 0.2602
vn 0.5430 0.8210 0.1764
vn 0.3491 0.9302 0.1134
vn 0.2117 0.9749 0.0688
vn 0.1041 0.9940 0.0338
vn -0.0000 -0.6739 0.7388
vn -0.6399 -0.6739 0.3694
vn 0.6423 -0.6708 -0.3708
vn 0.6423 -0.6708 0.3708
vn 0.6132 0.7062 0.3540
vn 0.6132 0.7062 -0.3540
vn 0.6350 -0.6800 -0.3666
vn 0.5532 0.3379 0.7614
vn 0.4950 0.5392 0.6813
vn 0.3356 0.8210 0.4619
vn 0.2158 0.9302 0.2970
vn 0.1309 0.9749 0.1801
vn 0.0643 0.9940 0.0885
vn -0.0000 0.7062 -0.7081
vn -0.6132 0.7062 -0.3540
vn -0.6132 0.7062 0.3540
vn -0.0000 0.7062 0.7081
vn -0.0000 -0.6649 0.7470
vn 0.6181 0.7005 -0.3568
vn -0.0000 -0.6774 -0.7356
vn 0.6350 -0.6800 0.3666
vn -0.0000 0.5392 0.8422
vn -0.0000 0.8210 0.5710
vn 0.6061 0.7142 0.3500
vn 0.6469 -0.6649 -0.3735
vn -0.0000 0.9940 0.1094
vn 0.6469 -0.6649 0.3735
vn 0.6370 -0.6774 -0.3678
vn 0.6370 -0.6774 0.3678
vn -0.6350 -0.6800 -0.3666
vn -0.0000 -0.6800 -0.7332
vn -0.0000 0.7005 0.7137
vn 0.6181 0.7005 0.3568
vn 0.6061 0.7142 -0.3500
vn -0.0000 0.7142 -0.6999
vn -0.0000 -0.6800 0.7332
vn -0.6350 -0.6800 0.3666
vn -0.0000 0.7005 -0.7137
vn -0.6160 0.7029 -0.3557
vn -0.6181 0.7005 -0.3568
vn -0.6181 0.7005 0.3568
vn -0.0000 0.7142 0.6999
vn -0.6160 0.7029 0.3557
vn -0.0000 0.7029 0.7113
vn -0.6370 -0.6774 0.3678
vn -0.6370 -0.6774 -0.3678
vn -0.0000 -0.6649 -0.7470
vn -0.6061 0.7142 -0.3500
vn -0.6061 0.7142 0.3500
vn -0.4051 0.7246 -0.5575
vn -0.4051 -0.7246 -0.5575
vn -0.6469 -0.6649 0.3735
vn -0.6469 -0.6649 -0.3735
vn -0.6554 0.7246 -0.2130
vn -0.6554 -0.7246 -0.2130
vn 0.6160 0.7029 -0.3557
vn -0.0000 0.7029 -0.7113
vn -0.6554 0.7246 0.2130
vn -0.6108 0.7090 -0.3526
vn -0.6108 0.7090 0.3526
vn -0.6554 -0.7246 0.2130
vn -0.4051 0.7246 0.5575
vn -0.4051 -0.7246 0.5575
vn -0.0000 0.7246 0.6891
vn -0.0000 -0.7246 0.6891
vn 0.4051 0.7246 0.5575
vn -0.0000 -0.7246 -0.6891
vn -0.0000 0.7246 0.6892
vn -0.6558 -0.2998 -0.6929
vn -0.9279 -0.2998 -0.2215
vn -0.0000 -0.7246 0.6892
vn 0.4051 0.7246 -0.5575
vn -0.0000 0.7246 -0.6891
vn 0.4051 -0.7246 0.5575
vn 0.6554 0.7246 0.2130
vn 0.6554 -0.7246 0.2130
vn 0.6554 0.7246 -0.2130
vn 0.9511 -0.0000 0.3090
vn 0.6554 -0.7246 -0.2130
vn -0.0000 0.7246 -0.6892
vn 0.4051 -0.7246 -0.5575
vn 0.9511 -0.0000 -0.3090
vn -0.0000 -0.7246 -0.6892
vn -0.9474 -0.1832 -0.2623
vn 0.5878 -0.0000 -0.8090
vn -0.7009 -0.1832 -0.6894
vn -0.0000 -0.0000 -1.0000
vn 0.5878 -0.0000 0.8090
vn -0.0000 -0.0000 1.0000
vn -0.5878 -0.0000 0.8090
vn -0.9511 -0.0000 0.3090
vn -0.9511 -0.0000 -0.3090
vn -0.5878 -0.0000 -0.8090
vn -0.6594 -0.3717 -0.6535
vn -0.8956 -0.3717 -0.2443
vn -0.6639 -0.7347 -0.1398
vn -0.4530 -0.7347 -0.5050
vn -0.3956 -0.8896 -0.2284
vn -0.8997 0.3796 0.2156
vn -0.6366 0.3796 0.6713
vn -0.6558 -0.2998 0.6929
vn -0.9279 -0.2998 0.2215
vn -0.9474 -0.1832 0.2623
vn -0.7009 -0.1832 0.6894
vn -0.2631 0.3796 0.8870
vn 0.2631 0.3796 0.8870
vn 0.2721 -0.2998 0.9144
vn -0.2721 -0.2998 0.9144
vn 0.7009 -0.1832 0.6894
vn 0.9474 -0.1832 0.2623
vn -0.4530 -0.7347 0.5050
vn -0.6639 -0.7347 0.1398
vn -0.3956 -0.8896 0.2284
vn -0.8956 -0.3717 0.2443
vn -0.6594 -0.3717 0.6535
vn 0.6639 -0.7347 0.1398
vn 0.4530 -0.7347 0.5050
vn 0.3956 -0.8896 0.2284
vn -0.9203 -0.3234 -0.2201
vn -0.6507 -0.3234 -0.6870
vn -0.9086 0.3565 0.2176
vn -0.6428 0.3565 0.6781
vn -0.6507 -0.3234 0.6870
vn -0.9203 -0.3234 0.2201
vn -0.2658 0.3565 0.8957
vn 0.2658 0.3565 0.8957
vn 0.6366 0.3796 0.6713
vn 0.8997 0.3796 0.2156
vn 0.2696 -0.3234 0.9071
vn -0.2696 -0.3234 0.9071
vn -0.2466 -0.1832 0.9517
vn 0.2466 -0.1832 0.9517
vn -0.2362 -0.3717 0.8978
vn 0.2362 -0.3717 0.8978
vn 0.2108 -0.7347 0.6448
vn -0.2108 -0.7347 0.6448
vn -0.0000 -0.8896 0.4568
vn 0.9279 -0.2998 0.2215
vn 0.6558 -0.2998 0.6929
vn 0.6594 -0.3717 0.6535
vn 0.8956 -0.3717 0.2443
vn 0.6428 0.3565 0.6781
vn 0.9086 0.3565 0.2176
vn -0.9217 -0.3193 -0.2203
vn -0.6516 -0.3193 -0.6880
vn -0.9071 0.3605 0.2173
vn -0.6417 0.3605 0.6769
vn 0.9203 -0.3234 0.2201
vn 0.6507 -0.3234 0.6870
vn 0.9086 0.3565 -0.2176
vn 0.6428 0.3565 -0.6781
vn 0.8997 0.3796 -0.2156
vn 0.6366 0.3796 -0.6713
vn 0.6507 -0.3234 -0.6870
vn 0.9203 -0.3234 -0.2201
vn 0.6558 -0.2998 -0.6929
vn 0.9279 -0.2998 -0.2215
vn 0.2631 0.3796 -0.8870
vn -0.2631 0.3796 -0.8870
vn 0.9474 -0.1832 -0.2623
vn 0.7009 -0.1832 -0.6894
vn 0.8956 -0.3717 -0.2443
vn 0.6594 -0.3717 -0.6535
vn 0.4530 -0.7347 -0.5050
vn 0.6639 -0.7347 -0.1398
vn 0.3956 -0.8896 -0.2284
vn -0.2721 -0.2998 -0.9144
vn 0.2721 -0.2998 -0.9144
vn -0.2108 -0.7347 -0.6448
vn 0.2108 -0.7347 -0.6448
vn -0.0000 -0.8896 -0.4568
vn 0.2362 -0.3717 -0.8978
vn -0.2362 -0.3717 -0.8978
vn 0.2466 -0.1832 -0.9517
vn -0.2466 -0.1832 -0.9517
vn 0.2658 0.3565 -0.8957
vn -0.2658 0.3565 -0.8957
vn -0.6403 0.3660 -0.6754
vn -0.9050 0.3660 -0.2168
vn -0.9235 -0.3138 -0.2207
vn -0.6529 -0.3138 -0.6894
vn -0.9050 0.3660 0.2168
vn -0.6403 0.3660 0.6754
vn -0.6529 -0.3138 0.6894
vn -0.9235 -0.3138 0.2207
vn -0.2647 0.3660 0.8922
vn 0.2647 0.3660 0.8922
vn 0.2706 -0.3138 0.9101
vn -0.2706 -0.3138 0.9101
vn 0.6403 0.3660 0.6754
vn 0.9050 0.3660 0.2168
vn 0.9235 -0.3138 0.2207
vn 0.6529 -0.3138 0.6894
vn 0.9050 0.3660 -0.2168
vn 0.6403 0.3660 -0.6754
vn 0.6529 -0.3138 -0.6894
vn 0.9235 -0.3138 -0.2207
vn 0.2647 0.3660 -0.8922
vn -0.2647 0.3660 -0.8922
vn -0.2706 -0.3138 -0.9101
vn 0.2706 -0.3138 -0.9101
vn -0.2696 -0.3234 -0.9071
vn 0.2696 -0.3234 -0.9071
vn -0.6516 -0.3193 0.6880
vn -0.9217 -0.3194 0.2203
vn -0.2654 0.3605 0.8942
vn 0.2654 0.3605 0.8942
vn -0.6428 0.3565 -0.6781
vn -0.9086 0.3565 -0.2176
vn 0.2700 -0.3193 0.9084
vn -0.2700 -0.3193 0.9084
vn 0.6417 0.3605 0.6769
vn 0.9071 0.3605 0.2173
vn -0.6366 0.3796 -0.6713
vn -0.8997 0.3796 -0.2156
vn -0.9250 -0.3090 -0.2210
vn -0.6539 -0.3090 -0.6906
vn -0.9032 0.3706 0.2164
vn -0.6390 0.3706 0.6740
vn 0.9217 -0.3194 0.2203
vn 0.6516 -0.3194 0.6880
vn 0.9071 0.3605 -0.2173
vn 0.6417 0.3605 -0.6769
vn 0.6516 -0.3193 -0.6880
vn 0.9217 -0.3193 -0.2203
vn 0.2654 0.3605 -0.8942
vn -0.2654 0.3605 -0.8942
vn -0.2700 -0.3193 -0.9084
vn 0.2700 -0.3194 -0.9084
vn -0.6539 -0.3090 0.6906
vn -0.9250 -0.3090 0.2210
vn -0.2642 0.3706 0.8904
vn 0.2642 0.3706 0.8904
vn 0.2712 -0.3090 0.9116
vn -0.2712 -0.3090 0.9116
vn 0.6390 0.3706 0.6740
vn 0.9032 0.3706 0.2164
vn -0.6417 0.3605 -0.6769
vn -0.9071 0.3605 -0.2173
vn -0.9198 -0.3249 -0.2200
vn -0.6504 -0.3249 -0.6866
vn -0.9091 0.3550 0.2177
vn -0.6431 0.3550 0.6785
vn 0.9250 -0.3090 0.2210
vn 0.6539 -0.3090 0.6906
vn 0.9032 0.3706 -0.2164
vn 0.6390 0.3706 -0.6740
vn 0.6539 -0.3090 -0.6906
vn 0.9250 -0.3090 -0.2210
vn 0.2642 0.3706 -0.8904
vn -0.2642 0.3706 -0.8904
vn -0.2712 -0.3090 -0.9116
vn 0.2712 -0.3090 -0.9116
vn -0.6504 -0.3249 0.6866
vn -0.9198 -0.3249 0.2200
vn -0.2660 0.3550 0.8962
vn 0.2660 0.3550 0.8962
vn 0.2694 -0.3249 0.9066
vn -0.2694 -0.3249 0.9066
vn 0.6431 0.3550 0.6785
vn 0.9091 0.3550 0.2177
vn -0.6390 0.3706 -0.6740
vn -0.9032 0.3706 -0.2164
vn 0.9198 -0.3249 0.2200
vn 0.6504 -0.3249 0.6866
vn 0.9091 0.3550 -0.2177
vn 0.6431 0.3550 -0.6785
vn 0.6504 -0.3249 -0.6866
vn 0.9198 -0.3249 -0.2200
vn 0.2660 0.3550 -0.8962
vn -0.2660 0.3550 -0.8962
vn -0.2694 -0.3249 -0.9066
vn 0.2694 -0.3249 -0.9066
vn -0.7071 -0.0000 -0.7071
vn -0.7071 -0.0000 0.7071
vn 0.7071 -0.0000 0.7071
vn -0.6431 0.3550 -0.6785
vn -0.9091 0.3550 -0.2177
vn 0.7071 -0.0000 -0.7071
vt 0.220419 0.303381
vt 0.000000 0.530330
vt 0.000000 0.375000
vt 0.114097 0.157042
vt -0.000000 0.194114
vt 0.504374 0.163881
vt 0.381778 0.525472
vt 0.311720 0.429046
vt 0.425818 3.353825
vt 0.000000 3.425000
vt -0.000000 3.353825
vt 0.184614 0.059985
vt -0.000000 0.649519
vt -0.000000 0.724444
vt 0.617729 0.200712
vt 0.425818 0.586088
vt 0.000000 0.000000
vt 0.223866 3.353825
vt 0.606763 3.425000
vt 0.586088 3.353825
vt 0.356646 0.115881
vt 0.356646 -0.115881
vt 0.504374 -0.163881
vt 0.184614 -0.059985
vt 0.617729 -0.200712
vt 0.688988 0.223866
vt -0.223866 3.353825
vt 0.231763 3.425000
vt 0.114098 -0.157042
vt 0.220419 -0.303381
vt 0.311720 -0.429046
vt 0.425818 -0.586088
vt 0.688988 -0.223866
vt -0.586088 3.353825
vt -0.231763 3.425000
vt 0.000000 -0.530330
vt 0.381778 -0.525472
vt 0.000000 -0.375000
vt 0.000000 -0.649519
vt 0.000000 3.353825
vt 0.440839 3.425000
vt 0.425818 3.353825
vt 0.000000 -0.194114
vt -0.220419 -0.303381
vt -0.311720 -0.429046
vt -0.114097 -0.157042
vt -0.381778 -0.525472
vt 0.000000 -0.724444
vt -0.425818 3.353825
vt 0.000000 3.425000
vt -0.223866 3.353825
vt -0.606763 3.425000
vt -0.586088 3.353825
vt -0.184614 -0.059985
vt -0.356646 -0.115881
vt -0.504374 -0.163881
vt -0.688988 -0.223866
vt -0.425818 -0.586088
vt -0.617729 0.200712
vt -0.617729 -0.200712
vt -0.356646 0.115881
vt -0.688988 0.223866
vt 0.223866 3.353825
vt -0.231763 3.425000
vt -0.184614 0.059985
vt -0.114098 0.157042
vt -0.220420 0.303381
vt -0.504374 0.163881
vt -0.311720 0.429046
vt -0.425818 0.586088
vt 0.231763 3.425000
vt -0.381778 0.525472
vt -0.440839 3.425000
vt -0.425818 3.353825
vt -0.138995 0.820035
vt -0.159360 0.784763
vt -0.157239 0.807054
vt 0.737837 1.200000
vt 0.728046 1.222495
vt 0.761799 1.222495
vt 0.816238 -0.043007
vt 0.795873 -0.007735
vt 0.814118 -0.020717
vt 0.593818 1.200000
vt 0.569857 1.222495
vt 0.603609 1.222495
vt 0.528368 3.250000
vt 0.508881 3.227505
vt 0.547856 3.227505
vt 0.619318 3.250000
vt 0.628550 3.227505
vt 0.594797 3.227505
vt 0.755761 2.400000
vt 0.732190 2.422470
vt 0.765955 2.422470
vt 0.795873 0.007735
vt 0.816238 0.043008
vt 0.814118 0.020717
vt 0.899780 2.400000
vt 0.889586 2.422470
vt 0.923351 2.422470
vt 0.781261 3.250000
vt 0.790107 3.227530
vt 0.756341 3.227530
vt -0.193122 2.400000
vt -0.173627 2.422470
vt -0.212616 2.422470
vt -0.193122 3.250000
vt -0.212616 3.227530
vt -0.173627 3.227530
vt 0.494606 0.622820
vt 0.474242 0.658093
vt 0.492486 0.645111
vt 0.528368 1.200000
vt 0.547856 1.222495
vt 0.508881 1.222495
vt 0.870365 -0.050743
vt 0.829635 -0.050743
vt 0.850000 -0.041433
vt 0.548733 0.615085
vt 0.508004 0.615085
vt 0.528368 0.624394
vt 0.904127 -0.007735
vt 0.883762 -0.043008
vt 0.885882 -0.020717
vt 0.356750 1.600000
vt 0.346890 1.622492
vt 0.380644 1.622492
vt 0.238230 3.250000
vt 0.247395 3.227508
vt 0.213641 3.227508
vt 0.712337 3.250000
vt 0.703106 3.227505
vt 0.736859 3.227505
vt 0.874280 3.250000
vt 0.865435 3.227530
vt 0.899200 3.227530
vt -0.193122 3.250000
vt -0.173627 3.227530
vt -0.212616 3.227530
vt 0.883762 0.043007
vt 0.904127 0.007735
vt 0.885882 0.020717
vt -0.193122 2.400000
vt -0.212616 2.422470
vt -0.173627 2.422470
vt 0.829635 0.050743
vt 0.870365 0.050743
vt 0.850000 0.041433
vt 0.046510 3.250000
vt 0.071193 3.227513
vt 0.037437 3.227513
vt 0.582495 0.658093
vt 0.562131 0.622820
vt 0.564251 0.645111
vt 0.072010 1.950000
vt 0.062055 1.972487
vt 0.095811 1.972487
vt -0.046510 3.250000
vt -0.037437 3.227513
vt -0.071193 3.227513
vt -0.072010 1.950000
vt -0.095811 1.972487
vt -0.062055 1.972487
vt 0.850000 3.250000
vt 0.830511 3.227513
vt 0.869489 3.227513
vt 0.850000 1.950000
vt 0.869489 1.972487
vt 0.830511 1.972487
vt 0.562131 0.708835
vt 0.582495 0.673563
vt 0.564251 0.686545
vt -0.046510 3.250000
vt -0.071193 3.227513
vt -0.072010 1.950000
vt -0.095811 1.972487
vt 0.046510 3.250000
vt 0.071193 3.227513
vt 0.072010 1.950000
vt 0.095811 1.972487
vt -0.159360 0.870778
vt -0.138995 0.835506
vt -0.157239 0.848487
vt 0.508004 0.716570
vt 0.548733 0.716570
vt 0.528368 0.707261
vt 0.212730 1.600000
vt 0.188836 1.622492
vt 0.222590 1.622492
vt -0.800889 3.250000
vt -0.820377 3.227508
vt -0.781401 3.227508
vt -0.746762 0.277005
vt -0.767127 0.241732
vt -0.765007 0.264023
vt 0.474242 0.673563
vt 0.494606 0.708835
vt 0.492486 0.686545
vt -0.800889 1.600000
vt -0.781401 1.622492
vt -0.820377 1.622492
vt -0.213486 0.878513
vt -0.172757 0.878513
vt -0.193122 0.869204
vt 0.238230 3.250000
vt -0.512592 2.150000
vt -0.522628 2.172482
vt -0.488869 2.172482
vt -0.631111 3.250000
vt -0.622116 3.227518
vt -0.655875 3.227518
vt 0.212730 1.600000
vt 0.188836 1.622492
vt -0.172757 0.777028
vt -0.213486 0.777028
vt -0.193122 0.786337
vt 0.331250 3.250000
vt 0.322085 3.227508
vt 0.355839 3.227508
vt 0.356750 1.600000
vt -0.226884 0.784763
vt -0.247248 0.820035
vt -0.229004 0.807054
vt -0.767127 0.327747
vt -0.746762 0.292475
vt -0.765007 0.305457
vt -0.247248 0.835505
vt -0.226884 0.870778
vt -0.229004 0.848487
vt -0.656611 2.150000
vt -0.680333 2.172482
vt -0.646574 2.172482
vt -0.617042 3.250000
vt -0.636533 3.227518
vt -0.597552 3.227518
vt -0.617042 2.150000
vt -0.597552 2.172482
vt -0.636533 2.172482
vt -0.562916 -0.592336
vt -0.583280 -0.627609
vt -0.581160 -0.605318
vt -0.821254 0.335482
vt -0.780524 0.335482
vt -0.800889 0.326173
vt 0.331250 3.250000
vt 0.355839 3.227508
vt -0.714933 1.000000
vt -0.724699 1.022496
vt -0.690947 1.022496
vt -0.833452 3.250000
vt -0.824196 3.227504
vt -0.857948 3.227504
vt -0.780524 0.233997
vt -0.821254 0.233997
vt -0.800889 0.243306
vt -0.538092 3.250000
vt -0.547086 3.227518
vt -0.513327 3.227518
vt -0.834651 0.241732
vt -0.855016 0.277005
vt -0.836771 0.264023
vt -0.583280 -0.541594
vt -0.562916 -0.576866
vt -0.581160 -0.563884
vt -0.855016 0.292475
vt -0.834651 0.327747
vt -0.836771 0.305457
vt -0.858952 1.000000
vt -0.882938 1.022496
vt -0.849186 1.022496
vt 0.321281 3.250000
vt 0.301794 3.227504
vt 0.340768 3.227504
vt 0.375408 -0.794678
vt 0.355043 -0.829950
vt 0.357163 -0.807659
vt 0.321281 1.000000
vt 0.340768 1.022496
vt 0.301794 1.022496
vt -0.637407 -0.533859
vt -0.596678 -0.533859
vt -0.617042 -0.543168
vt -0.596678 -0.635344
vt -0.637407 -0.635344
vt -0.617042 -0.626035
vt -0.740433 3.250000
vt -0.749689 3.227504
vt -0.715937 3.227504
vt -0.650805 -0.627609
vt -0.671169 -0.592336
vt -0.652925 -0.605318
vt 0.301794 3.227504
vt 0.355043 -0.743935
vt 0.375408 -0.779207
vt 0.357164 -0.766226
vt -0.671169 -0.576866
vt -0.650805 -0.541594
vt -0.652925 -0.563884
vt -0.000000 3.850000
vt 0.015910 3.827500
vt -0.015910 3.827500
vt 0.000000 3.350000
vt -0.015910 3.372500
vt 0.015910 3.372500
vt 0.300917 -0.736200
vt 0.341646 -0.736200
vt 0.321281 -0.745509
vt 0.000000 3.850000
vt -0.015910 3.827500
vt 0.015910 3.827500
vt -0.000000 3.350000
vt 0.015910 3.372500
vt -0.015910 3.372500
vt 0.341646 -0.837685
vt 0.300917 -0.837685
vt 0.321281 -0.828376
vt 0.287519 -0.829950
vt 0.267154 -0.794678
vt 0.285399 -0.807659
vt 0.267155 -0.779207
vt 0.287519 -0.743935
vt 0.285399 -0.766226
vt 0.543701 -0.748341
vt 0.857227 -0.278530
vt 0.879727 -0.285841
vt 0.529007 0.728115
vt 0.000000 0.876342
vt 0.000000 0.900000
vt 0.543701 0.748341
vt 0.857227 0.278530
vt 0.529796 0.729201
vt 0.515101 0.708976
vt 0.833451 0.270805
vt 0.855951 0.278115
vt 0.879727 0.285841
vt 0.855951 -0.278115
vt 0.833451 -0.270805
vt 0.529007 -0.728115
vt -0.000000 0.901342
vt 0.529796 0.729201
vt 0.515101 -0.708976
vt 0.000000 -0.900000
vt 0.000000 -0.876342
vt -0.529007 -0.728115
vt -0.515101 -0.708976
vt -0.833451 -0.270805
vt 0.000000 0.901342
vt 0.000000 0.925000
vt -0.855951 -0.278115
vt -0.855951 0.278115
vt -0.833451 0.270805
vt 0.820035 2.248446
vt 0.762084 2.313407
vt 0.796503 2.313407
vt -0.529007 0.728115
vt -0.515101 0.708976
vt 0.529796 -0.729201
vt -0.000000 -0.901342
vt 0.529796 -0.729201
vt 0.277005 1.448446
vt 0.219053 1.513407
vt 0.253473 1.513407
vt 0.000000 -0.901342
vt 0.000000 -0.925000
vt -0.543701 -0.748341
vt -0.592336 1.998446
vt -0.650288 2.063407
vt -0.615868 2.063407
vt -0.529796 -0.729201
vt -0.857227 -0.278530
vt -0.529796 -0.729201
vt -0.721002 -0.622116
vt -0.697599 -0.538092
vt -0.721002 -0.547086
vt -0.879727 -0.285841
vt -0.716718 0.355839
vt -0.800889 0.377759
vt -0.720332 0.331250
vt -0.879727 0.285841
vt 0.787871 2.400000
vt 0.753971 2.400000
vt -0.857227 0.278530
vt -0.543701 0.748341
vt 0.859038 2.313407
vt 0.901571 2.400000
vt 0.867671 2.400000
vt -0.529796 0.729201
vt -0.529796 0.729201
vt -0.297346 0.790107
vt -0.273679 0.874280
vt -0.297346 0.865435
vt -0.212616 0.985167
vt -0.317846 0.899780
vt -0.319684 0.923351
vt 0.548240 1.113407
vt 0.508004 1.048445
vt 0.508496 1.113407
vt -0.820377 0.176296
vt -0.881446 0.238230
vt -0.885060 0.213641
vt 0.548240 1.113407
vt 0.508496 1.113407
vt -0.212616 0.718677
vt -0.273679 0.781261
vt -0.277852 0.756341
vt 0.547941 1.200000
vt 0.508796 1.200000
vt -0.172757 2.248446
vt -0.212994 2.313407
vt -0.173250 2.313407
vt 0.424827 0.628550
vt 0.447811 0.712337
vt 0.424827 0.703106
vt 0.292475 1.448446
vt 0.350426 1.513407
vt 0.316007 1.513407
vt -0.031267 1.863407
vt -0.073800 1.950000
vt -0.039900 1.950000
vt -0.904548 0.247395
vt -0.881446 0.331250
vt -0.904548 0.322085
vt 0.508881 0.774137
vt 0.528368 0.758847
vt -0.043007 1.798445
vt -0.065686 1.863407
vt 0.065686 1.863407
vt 0.039900 1.950000
vt 0.073800 1.950000
vt 0.043008 1.798445
vt 0.031267 1.863407
vt 0.401116 0.569857
vt 0.528368 0.521809
vt 0.508881 0.507638
vt -0.173627 0.936864
vt -0.112565 0.874280
vt -0.108392 0.899200
vt -0.212994 2.313407
vt -0.173550 2.400000
vt -0.212694 2.400000
vt 0.830128 1.863407
vt 0.869572 1.950000
vt 0.830428 1.950000
vt -0.826842 1.000000
vt -0.852629 0.913407
vt -0.860742 1.000000
vt 0.547856 0.557519
vt 0.608925 0.619318
vt 0.528368 0.572809
vt -0.794678 0.848446
vt -0.818210 0.913407
vt 0.673563 1.048445
vt 0.731514 1.113407
vt 0.697095 1.113407
vt 0.508881 0.824017
vt 0.403644 0.737837
vt 0.401116 0.761799
vt -0.213486 2.248446
vt -0.173250 2.313407
vt 0.739628 1.200000
vt 0.705728 1.200000
vt 0.829635 1.798445
vt 0.869872 1.863407
vt -0.088897 0.790107
vt -0.112565 0.781261
vt 0.547856 0.507638
vt 0.653093 0.593818
vt 0.655621 0.569857
vt 0.784763 2.248446
vt 0.796503 2.313407
vt -0.928023 0.380644
vt -0.800889 0.428759
vt -0.925613 0.356750
vt -0.065687 1.863407
vt -0.039900 1.950000
vt -0.073800 1.950000
vt 0.631910 0.703106
vt 0.631910 0.628550
vt -0.043008 1.798445
vt -0.319684 0.732190
vt -0.193122 0.683751
vt -0.212616 0.670374
vt -0.820761 1.513407
vt -0.780524 1.448446
vt -0.781017 1.513407
vt 0.765668 -0.071193
vt 0.850000 -0.093019
vt 0.769443 -0.046510
vt -0.781317 1.600000
vt -0.820461 1.600000
vt 0.765668 0.071193
vt 0.850000 0.093019
vt 0.830511 0.108630
vt 0.708835 1.048445
vt 0.953821 0.037437
vt 0.930557 -0.046510
vt 0.953821 -0.037437
vt 0.705728 1.200000
vt 0.723029 -0.095811
vt 0.850000 -0.144019
vt 0.830511 -0.157866
vt 0.358540 1.600000
vt 0.324640 1.600000
vt 0.746179 -0.037437
vt 0.769443 0.046510
vt 0.746179 0.037437
vt 0.723029 0.095811
vt 0.850000 0.144019
vt 0.725276 0.072010
vt -0.885060 0.355839
vt -0.820377 0.393184
vt 0.547856 0.774137
vt 0.608925 0.712337
vt 0.612423 0.736859
vt 0.869489 0.108630
vt 0.930557 0.046510
vt 0.934332 0.071193
vt 0.600141 1.113407
vt 0.625928 1.200000
vt 0.592028 1.200000
vt -0.212616 0.936864
vt -0.193122 0.920790
vt -0.173627 0.670374
vt -0.068397 0.755761
vt -0.066559 0.732190
vt 0.869489 -0.108630
vt 0.869489 -0.157866
vt 0.974724 -0.072010
vt 0.976971 -0.095811
vt 0.031267 1.863407
vt 0.073800 1.950000
vt 0.039900 1.950000
vt 0.835506 2.248446
vt 0.893457 2.313407
vt -0.108392 0.756341
vt -0.193122 0.734751
vt -0.173627 0.718677
vt 0.634561 1.113407
vt 0.622820 1.048445
vt 0.547856 0.824017
vt 0.653093 0.737837
vt 0.528368 0.809847
vt 0.658093 1.048445
vt 0.869489 0.157866
vt 0.974724 0.072010
vt 0.870365 1.798445
vt 0.508881 0.557519
vt 0.447811 0.619318
vt 0.444314 0.594797
vt 0.007735 1.798445
vt 0.065686 1.863407
vt -0.173627 0.985167
vt -0.068397 0.899780
vt -0.193122 0.971790
vt 0.217782 -0.749689
vt 0.240724 -0.833452
vt 0.240724 -0.740433
vt 0.893457 2.313407
vt 0.835505 2.248446
vt 0.859038 2.313407
vt -0.637407 1.998446
vt -0.597170 2.063407
vt -0.636914 2.063407
vt 0.901570 2.400000
vt -0.673755 0.380644
vt -0.781401 0.442793
vt -0.576866 1.998446
vt -0.518915 2.063407
vt -0.553334 2.063407
vt -0.636615 2.150000
vt -0.597470 2.150000
vt -0.636533 -0.426897
vt -0.741767 -0.512592
vt -0.743873 -0.488869
vt -0.701511 -0.513327
vt -0.617042 -0.491582
vt -0.636533 -0.475812
vt 0.219054 1.513407
vt 0.244840 1.600000
vt 0.210940 1.600000
vt 0.241732 1.448446
vt 0.253473 1.513407
vt -0.779207 0.848446
vt -0.721256 0.913407
vt -0.755675 0.913407
vt -0.701511 -0.655875
vt -0.617042 -0.677620
vt -0.697599 -0.631111
vt -0.510801 2.150000
vt -0.544701 2.150000
vt -0.212694 2.400000
vt -0.173550 2.400000
vt -0.716718 0.213641
vt -0.800889 0.191721
vt -0.781401 0.176296
vt -0.781401 0.126686
vt -0.676165 0.212730
vt -0.673755 0.188836
vt -0.697230 0.322085
vt -0.720332 0.238230
vt -0.697230 0.247395
vt -0.928023 0.188836
vt -0.800889 0.140721
vt -0.820377 0.126686
vt 0.210940 1.600000
vt 0.244840 1.600000
vt -0.597552 -0.475812
vt -0.536485 -0.538092
vt -0.532574 -0.513327
vt -0.636914 2.063407
vt 0.327747 1.448446
vt 0.316007 1.513407
vt 0.350426 1.513407
vt 0.358540 1.600000
vt 0.324640 1.600000
vt 0.300917 0.848446
vt 0.341153 0.913407
vt 0.301409 0.913407
vt -0.490212 -0.488869
vt -0.617042 -0.440582
vt -0.597552 -0.426897
vt 0.301794 -0.628703
vt 0.196557 -0.714933
vt 0.193985 -0.690947
vt 0.237269 -0.715937
vt 0.321281 -0.693923
vt 0.301794 -0.678683
vt 0.340853 1.000000
vt 0.301709 1.000000
vt -0.650288 2.063407
vt -0.624501 2.150000
vt -0.658401 2.150000
vt -0.615868 2.063407
vt 0.405293 -0.857948
vt 0.321281 -0.879962
vt 0.340768 -0.895202
vt -0.713142 1.000000
vt -0.747043 1.000000
vt 0.015910 -0.039090
vt 0.023180 -0.000000
vt 0.039090 -0.015910
vt 0.340768 -0.945182
vt 0.446005 -0.858952
vt 0.448577 -0.882938
vt -0.532574 -0.655875
vt -0.597552 -0.693390
vt -0.597552 -0.742306
vt -0.492318 -0.656611
vt -0.490212 -0.680333
vt -0.636533 -0.742306
vt -0.741767 -0.656611
vt -0.617042 -0.728620
vt -0.513083 -0.547086
vt -0.536485 -0.631111
vt -0.513083 -0.622116
vt 0.340768 -0.678683
vt 0.401838 -0.740433
vt 0.405293 -0.715937
vt 0.341646 0.848446
vt 0.301409 0.913407
vt 0.341153 0.913407
vt -0.541594 1.998446
vt -0.518915 2.063407
vt 0.340768 -0.628703
vt 0.446005 -0.714933
vt 0.321281 -0.642923
vt -0.852629 0.913407
vt -0.015910 -0.039090
vt -0.023180 -0.000000
vt -0.039090 -0.015910
vt -0.636615 2.150000
vt -0.597470 2.150000
vt 0.237269 -0.857948
vt -0.039090 -0.015910
vt -0.000000 -0.023180
vt -0.015910 -0.039090
vt 0.193985 -0.882938
vt 0.321281 -0.930962
vt 0.301794 -0.945182
vt 0.424780 -0.749689
vt 0.401838 -0.833452
vt 0.424780 -0.824196
vt 0.015910 0.039090
vt 0.023180 0.000000
vt 0.039090 0.015910
vt -0.721256 0.913407
vt -0.747042 1.000000
vt -0.743935 0.848446
vt 0.039090 0.015910
vt 0.000000 0.023180
vt 0.015910 0.039090
vt 0.301709 1.000000
vt 0.340853 1.000000
vt -0.039090 0.015910
vt -0.000000 0.023180
vt -0.015910 0.039090
vt -0.015910 0.039090
vt -0.023180 0.000000
vt -0.039090 0.015910
vt 0.039090 -0.015910
vt 0.000000 -0.023180
vt 0.015910 -0.039090
vt 0.761319 1.950000
vt 0.775972 1.863407
vt -0.317846 0.755761
vt -0.277852 3.227530
vt -0.319684 2.422470
vt 0.000000 3.277500
vt 0.529007 0.022500
vt 0.000000 0.022500
vt -0.529007 3.277500
vt -0.529007 0.022500
vt 0.728115 3.277500
vt 0.278115 0.022500
vt 0.728115 0.022500
vt 0.278115 3.277500
vt -0.278115 0.022500
vt -0.278115 3.277500
vt -0.728115 0.022500
vt 0.529007 3.277500
vt -0.728115 3.277500
vt 0.000000 3.452500
vt 0.543701 3.247500
vt 0.000000 3.247500
vt -0.543701 3.452500
vt -0.543701 3.247500
vt 0.748341 3.452500
vt 0.285841 3.247500
vt 0.748341 3.247500
vt 0.285841 3.452500
vt -0.285841 3.247500
vt -0.285841 3.452500
vt -0.748341 3.247500
vt 0.543701 3.452500
vt -0.748341 3.452500
vt -0.007735 1.798445
vt 0.007735 1.798445
vt 0.816238 1.798445
vt 0.439687 1.200000
vt 0.454340 1.113407
vt 0.454340 1.113407
vt -0.108392 3.227530
vt -0.066559 2.422470
vt 0.617049 1.200000
vt 0.602397 1.113407
vt -0.159360 2.248446
vt -0.172757 2.248446
vt 0.444314 3.227505
vt 0.401116 1.222495
vt 0.612423 3.227505
vt 0.655621 1.222495
vt 0.494606 1.048445
vt 0.924028 1.863407
vt 0.883762 1.798445
vt 0.562131 1.048445
vt 0.548733 1.048445
vt -0.119094 2.313407
vt -0.007735 1.798445
vt -0.676165 0.356750
vt -0.885060 3.227508
vt -0.928023 1.622492
vt -0.066559 2.422470
vt 0.602397 1.113407
vt -0.104441 2.400000
vt -0.119093 2.313407
vt 0.765668 3.227513
vt 0.723029 1.972487
vt 0.725276 -0.072010
vt 0.934332 3.227513
vt 0.976971 1.972487
vt -0.159360 2.248446
vt -0.716718 3.227508
vt -0.673755 1.622492
vt -0.726861 1.513407
vt -0.767127 1.448446
vt -0.267150 2.313407
vt -0.213486 2.248446
vt -0.226884 2.248446
vt -0.281803 2.400000
vt -0.492318 -0.512592
vt -0.701511 3.227518
vt -0.743873 2.172482
vt -0.267150 2.313407
vt -0.226884 2.248446
vt -0.712208 1.600000
vt -0.532574 3.227518
vt -0.490212 2.172482
vt -0.583280 1.998446
vt -0.596678 1.998446
vt -0.543014 2.063407
vt -0.834651 1.448446
vt -0.821254 1.448446
vt -0.874917 1.513407
vt 0.237269 3.227504
vt 0.193985 1.022496
vt 0.193985 1.022496
vt -0.874917 1.513407
vt -0.583280 1.998446
vt 0.405293 3.227504
vt 0.448577 1.022496
vt 0.395309 0.913407
vt 0.355043 0.848446
vt 0.409962 1.000000
vt -0.691071 2.063407
vt -0.650805 1.998446
vt -0.705723 2.150000
vt -0.650805 1.998446
vt -0.691071 2.063407
vt 0.395309 0.913407
vt 0.355043 0.848446
vt -0.039090 3.827500
vt -0.039090 3.372500
vt 0.039090 3.372500
vt 0.247253 0.913407
vt 0.287519 0.848446
vt 0.232600 1.000000
vt -0.039090 3.372500
vt 0.287519 0.848446
vt 0.247253 0.913407
vt 0.039090 3.827500
vt 0.039090 3.372500
vt 0.440839 3.425000
vt -0.606763 3.425000
vt -0.440839 3.425000
vt 0.784763 2.248446
vt -0.627609 1.998446
vt -0.781401 0.393184
vt 0.444314 0.736859
vt 0.403644 0.593818
vt 0.612423 0.594797
vt -0.829950 0.848446
vt -0.088897 0.865435
vt -0.820377 0.442793
vt 0.830511 -0.108630
vt 0.830511 0.157866
vt -0.277852 0.899200
vt 0.934332 -0.071193
vt 0.870778 2.248446
vt 0.655621 0.761799
vt 0.976971 0.095811
vt 0.043007 1.798445
vt -0.066559 0.923351
vt 0.217782 -0.824196
vt -0.541594 1.998446
vt -0.636533 -0.693391
vt -0.925613 0.212730
vt -0.627609 1.998446
vt -0.743873 -0.680333
vt 0.448577 -0.690947
vt 0.301794 -0.895202
vt 0.196557 -0.858952
vt 0.850000 0.000000
vt -0.193122 0.827771
vt 0.444314 3.227505
vt 0.528368 0.665828
vt 0.938681 1.950000
vt -0.104441 2.400000
vt -0.108392 3.227530
vt 0.938681 1.950000
vt -0.800889 0.284740
vt -0.281803 2.400000
vt -0.617042 -0.584601
vt -0.528361 2.150000
vt -0.889570 1.600000
vt -0.889570 1.600000
vt 0.321281 -0.786942
vt 0.405293 3.227504
vt 0.039090 3.827500
vt -0.039090 3.827500
s 1
f 12/1/12 2/2/2 3/3/3
f 13/4/13 3/3/3 130/5/129
f 24/6/23 10/7/10 11/8/11
f 9/9/9 1/10/1 126/11/125
f 26/12/25 12/1/12 13/4/13
f 2/2/2 10/7/10 127/13/126
f 10/7/10 126/14/125 127/13/126
f 23/15/22 9/16/9 10/7/10
f 4/17/4 13/4/13 130/5/129
f 22/18/21 8/19/8 9/20/9
f 4/17/4 26/12/25 13/4/13
f 25/21/24 11/8/11 12/1/12
f 38/22/37 24/6/23 25/21/24
f 37/23/36 23/15/22 24/6/23
f 39/24/38 25/21/24 26/12/25
f 36/25/35 22/26/21 23/15/22
f 35/27/34 21/28/20 22/18/21
f 4/17/4 39/24/38 26/12/25
f 4/17/4 52/29/51 39/24/38
f 51/30/50 37/23/36 38/22/37
f 50/31/49 36/25/35 37/23/36
f 52/29/51 38/22/37 39/24/38
f 36/25/35 48/32/47 35/33/34
f 48/34/47 34/35/33 35/27/34
f 63/36/62 49/37/48 50/31/49
f 52/29/51 64/38/63 51/30/50
f 62/39/61 48/32/47 49/37/48
f 61/40/60 47/41/46 48/42/47
f 4/17/4 65/43/64 52/29/51
f 51/30/50 63/36/62 50/31/49
f 77/44/76 63/36/62 64/38/63
f 76/45/75 62/39/61 63/36/62
f 78/46/77 64/38/63 65/43/64
f 75/47/74 61/48/60 62/39/61
f 74/49/73 60/50/59 61/40/60
f 4/17/4 78/46/77 65/43/64
f 87/51/86 73/52/72 74/53/73
f 4/17/4 91/54/90 78/46/77
f 90/55/89 76/45/75 77/44/76
f 89/56/88 75/47/74 76/45/75
f 91/54/90 77/44/76 78/46/77
f 75/47/74 87/57/86 74/58/73
f 89/56/88 101/59/100 88/60/87
f 91/54/90 103/61/102 90/55/89
f 88/60/87 100/62/99 87/57/86
f 100/63/99 86/64/85 87/51/86
f 4/17/4 104/65/103 91/54/90
f 103/61/102 89/56/88 90/55/89
f 4/17/4 117/66/116 104/65/103
f 116/67/115 102/68/101 103/61/102
f 115/69/114 101/59/100 102/68/101
f 117/66/116 103/61/102 104/65/103
f 101/59/100 113/70/112 100/62/99
f 113/20/112 99/71/98 100/63/99
f 114/72/113 126/14/125 113/70/112
f 126/11/125 112/73/111 113/74/112
f 4/17/4 130/5/129 117/66/116
f 3/3/3 115/69/114 116/67/115
f 2/2/2 114/72/113 115/69/114
f 117/66/116 3/3/3 116/67/115
f 359/75/219 360/76/220 361/77/221
f 135/78/133 363/79/222 364/80/223
f 352/81/214 353/82/215 354/83/216
f 142/84/140 369/85/226 370/86/227
f 137/87/135 372/88/228 373/89/229
f 146/90/144 366/91/224 367/92/225
f 160/93/155 338/94/204 339/95/205
f 331/96/199 332/97/200 333/98/201
f 161/99/156 206/100/173 204/101/172
f 154/102/152 335/103/202 336/104/203
f 122/105/121 348/106/210 349/107/211
f 147/108/145 345/109/208 346/110/209
f 128/102/127 375/104/230 376/103/231
f 377/111/214 378/112/215 379/113/216
f 141/114/139 383/115/232 384/116/233
f 389/117/238 390/118/239 391/119/240
f 132/93/130 393/95/241 394/94/242
f 397/120/238 398/121/239 399/122/240
f 402/123/219 403/124/220 404/125/221
f 138/90/136 410/92/245 411/91/246
f 151/126/149 415/127/247 416/128/248
f 148/129/146 418/130/249 419/131/250
f 125/84/124 421/86/251 422/85/252
f 123/132/122 424/133/253 425/134/254
f 139/135/137 427/136/255 428/137/256
f 111/78/110 430/80/257 431/79/258
f 129/99/128 433/101/259 434/100/260
f 140/138/138 436/139/261 437/140/262
f 442/141/267 443/142/268 444/143/269
f 152/144/150 446/145/270 447/146/271
f 454/147/272 455/148/273 456/149/274
f 143/87/141 462/89/279 463/88/280
f 119/150/118 465/151/281 466/152/282
f 467/153/219 468/154/220 469/155/221
f 98/156/97 473/157/283 474/158/284
f 120/159/119 476/160/285 477/161/286
f 106/162/105 479/163/287 480/164/288
f 121/165/120 482/166/289 483/167/290
f 105/168/104 485/169/291 486/170/292
f 489/171/267 490/172/268 491/173/269
f 109/174/108 493/175/293 494/160/294
f 96/176/95 496/164/295 497/177/296
f 110/178/109 499/152/297 500/179/298
f 95/180/94 502/181/299 503/157/300
f 118/165/117 505/167/301 506/166/302
f 509/182/267 510/183/268 511/184/269
f 97/168/96 513/170/303 514/169/304
f 515/185/272 516/186/273 517/187/274
f 136/114/134 523/116/305 524/115/306
f 150/188/148 526/189/307 527/190/308
f 149/191/147 529/192/309 530/193/310
f 145/132/143 532/134/311 533/133/312
f 534/194/219 535/195/220 536/196/221
f 537/197/199 538/198/200 539/199/201
f 72/200/71 543/201/313 544/202/314
f 547/203/272 548/204/273 549/205/274
f 79/206/78 555/131/315 556/130/316
f 153/135/151 558/137/317 559/136/318
f 92/207/91 561/208/319 562/209/320
f 171/210/163 564/211/321 565/212/322
f 134/213/132 567/190/323 568/214/324
f 569/215/238 570/216/239 571/217/240
f 166/218/159 577/219/325 578/220/326
f 133/221/131 584/128/327 585/127/328
f 586/222/214 587/223/215 588/224/216
f 167/191/160 594/193/329 595/192/330
f 596/225/267 597/226/268 598/227/269
f 124/200/123 600/202/331 601/201/332
f 602/228/199 603/229/200 604/230/201
f 85/231/84 610/232/333 611/233/334
f 80/234/79 613/235/335 614/236/336
f 46/237/45 616/238/337 617/239/338
f 618/240/219 619/241/220 620/242/221
f 623/243/272 624/244/273 625/245/274
f 53/210/52 633/212/339 634/211/340
f 144/246/142 636/247/341 637/219/342
f 70/248/69 639/249/343 640/250/344
f 94/251/93 642/252/345 643/253/346
f 108/231/107 645/233/347 646/232/348
f 647/254/238 648/255/239 649/256/240
f 71/257/70 655/258/349 656/259/350
f 107/207/106 662/209/351 663/208/352
f 664/260/214 665/261/215 666/262/216
f 83/234/82 672/236/353 673/235/354
f 674/263/267 675/264/268 676/265/269
f 84/237/83 678/239/355 679/238/356
f 680/266/199 681/267/200 682/268/201
f 69/269/68 688/270/357 689/271/358
f 59/272/58 691/273/359 692/274/360
f 693/275/219 694/276/220 695/277/221
f 54/278/53 697/279/361 698/280/362
f 701/281/272 702/282/273 703/283/274
f 66/251/65 711/253/363 712/252/364
f 170/257/162 714/259/365 715/258/366
f 82/269/81 717/271/367 718/270/368
f 719/284/238 720/285/239 721/286/240
f 45/287/44 727/288/369 728/289/370
f 81/248/80 732/250/371 733/249/372
f 736/290/214 737/291/215 738/292/216
f 67/272/66 744/274/373 745/293/374
f 746/294/267 747/295/268 748/296/269
f 68/278/67 750/280/375 751/279/376
f 752/297/199 753/298/200 754/299/201
f 41/300/40 7/301/7 44/302/43
f 32/303/31 33/304/32 6/305/6
f 765/306/272 766/307/273 767/308/274
f 42/309/41 43/310/42 14/311/14
f 93/287/92 776/289/380 777/288/381
f 56/312/55 57/313/56 40/314/39
f 781/315/238 782/316/239 783/317/240
f 28/309/27 27/310/26 31/311/30
f 55/312/54 20/313/19 58/314/57
f 794/318/214 795/319/215 796/320/216
f 29/300/28 30/301/29 18/302/17
f 16/303/15 19/304/18 17/305/16
f 807/321/199 808/322/200 809/323/201
f 254/324/177 252/325/179 261/326/179
f 248/327/184 246/328/186 250/329/186
f 245/330/184 241/331/182 240/332/184
f 238/329/183 234/333/175 239/327/175
f 248/327/184 231/334/182 247/333/184
f 239/327/175 229/334/180 230/335/180
f 225/336/180 222/325/178 226/326/178
f 221/337/179 231/334/182 233/335/182
f 230/335/180 217/338/178 218/337/178
f 595/192/330 601/201/332 600/202/331
f 216/339/177 219/338/179 221/337/179
f 214/330/175 212/340/176 211/341/175
f 218/337/178 209/342/169 210/339/169
f 261/326/179 241/331/182 243/336/182
f 208/343/174 215/342/177 216/339/177
f 585/127/328 578/220/326 577/219/325
f 210/339/169 203/344/171 205/343/171
f 202/345/166 207/344/174 208/343/174
f 205/343/171 199/346/165 200/345/165
f 202/345/166 197/347/164 201/346/166
f 245/330/184 195/348/170 196/349/170
f 200/345/165 193/347/161 194/350/161
f 214/330/175 223/331/180 225/336/180
f 192/351/158 197/347/164 198/350/164
f 194/350/161 189/352/157 190/351/157
f 587/353/215 590/354/218 589/355/217
f 187/356/154 191/352/158 192/351/158
f 190/351/157 184/357/153 185/356/153
f 250/329/186 186/357/154 187/356/154
f 185/356/153 236/328/183 238/329/183
f 183/324/169 222/325/178 182/358/169
f 254/324/177 180/359/168 253/360/177
f 665/361/215 667/362/218 668/363/217
f 183/324/169 178/364/167 179/365/167
f 177/366/166 180/359/168 181/365/168
f 737/367/215 739/368/218 740/369/217
f 175/366/165 178/364/167 174/370/165
f 177/366/166 172/371/164 176/372/166
f 564/373/321 170/374/162 715/375/366
f 175/366/165 168/371/161 169/376/161
f 578/377/326 167/378/160 166/379/159
f 165/380/158 172/371/164 173/376/164
f 591/381/206 590/354/218 592/382/207
f 169/376/161 162/383/157 163/380/157
f 206/100/173 160/93/155 339/95/205
f 159/384/154 164/383/158 165/380/158
f 507/385/265 453/386/264 452/387/263
f 156/384/153 162/383/157 155/388/153
f 159/384/154 195/348/170 158/389/154
f 156/384/153 212/340/176 213/349/176
f 335/390/202 153/391/151 559/392/318
f 204/101/172 559/136/318 558/137/317
f 446/393/270 161/394/156 204/395/172
f 364/80/223 533/133/312 532/134/311
f 415/127/247 150/188/148 527/190/308
f 518/396/275 515/397/272 519/398/276
f 529/399/309 148/400/146 419/401/250
f 398/397/239 396/402/237 395/403/236
f 345/404/208 154/405/152 336/406/203
f 395/403/236 451/407/235 450/408/234
f 548/409/273 550/410/276 551/411/275
f 366/412/224 145/413/143 533/414/312
f 597/415/268 582/416/266 581/417/265
f 355/418/217 358/419/207 357/420/206
f 418/421/249 144/422/142 637/423/342
f 463/424/280 145/413/143 143/425/141
f 355/418/217 352/426/214 356/427/218
f 329/428/197 255/429/187 257/430/189
f 332/431/200 330/432/198 329/428/197
f 369/433/226 141/434/139 384/435/233
f 436/436/261 139/437/137 428/438/256
f 573/439/236 575/440/235 574/441/234
f 387/442/236 386/443/235 385/444/234
f 799/445/206 797/446/218 800/447/207
f 384/116/233 373/89/229 372/88/228
f 373/448/229 138/449/136 137/450/135
f 795/451/215 797/446/218 798/452/217
f 490/453/268 487/454/266 488/455/265
f 523/456/305 135/457/133 364/458/223
f 585/127/328 134/213/132 133/221/131
f 570/459/239 572/460/237 573/439/236
f 488/455/265 449/461/264 448/462/263
f 416/128/248 637/219/342 636/247/341
f 434/100/260 132/93/130 129/99/128
f 390/463/239 388/464/237 387/442/236
f 376/465/231 139/437/137 128/466/127
f 383/467/232 125/468/124 422/469/252
f 360/470/220 401/471/244 400/354/243
f 422/85/252 411/91/246 410/92/245
f 416/472/248 124/473/123 151/474/149
f 405/475/243 408/476/213 407/477/212
f 424/478/253 138/449/136 411/479/246
f 394/94/242 376/103/231 375/104/230
f 403/480/220 406/418/244 405/475/243
f 339/95/205 336/104/203 335/103/202
f 338/481/204 122/482/121 349/483/211
f 650/484/236 647/485/238 651/486/237
f 477/487/286 121/488/120 120/489/119
f 650/484/236 653/490/235 652/491/234
f 474/158/284 466/152/282 465/151/281
f 465/492/281 118/493/117 506/494/302
f 463/88/280 524/115/306 523/116/305
f 520/407/277 519/398/276 521/408/278
f 538/495/200 541/455/198 540/454/197
f 421/86/251 111/78/110 431/79/258
f 499/496/297 109/497/108 494/498/294
f 645/233/347 107/207/106 663/208/352
f 486/170/292 483/167/290 482/166/289
f 540/454/197 341/499/187 340/461/189
f 479/500/287 105/501/104 486/502/292
f 581/417/265 580/503/264 579/504/263
f 480/164/288 477/161/286 476/160/285
f 473/157/283 106/162/105 480/164/288
f 476/505/285 119/506/118 466/507/282
f 474/508/284 97/509/96 98/510/97
f 636/511/341 167/378/160 595/512/330
f 462/513/279 123/514/122 425/515/254
f 527/190/308 419/131/250 418/130/249
f 505/516/301 110/517/109 500/518/298
f 471/519/243 351/520/213 350/521/212
f 506/166/302 514/169/304 513/170/303
f 503/157/300 500/179/298 499/152/297
f 437/522/262 153/391/151 140/523/138
f 496/164/295 95/180/94 503/157/300
f 412/382/212 401/471/244 413/381/213
f 348/524/210 132/525/130 394/526/242
f 457/464/275 460/444/278 459/443/277
f 483/527/290 109/497/108 121/488/120
f 431/79/258 425/134/254 424/133/253
f 493/175/293 496/164/295 494/160/294
f 485/528/291 96/529/95 497/530/296
f 440/531/265 439/532/264 438/533/263
f 510/534/268 508/535/266 507/385/265
f 375/536/230 147/537/145 346/538/209
f 349/107/211 346/110/209 345/109/208
f 381/539/217 343/521/207 342/520/206
f 381/539/217 377/540/214 380/519/218
f 524/541/306 111/542/110 136/543/134
f 471/519/243 467/544/219 470/539/244
f 514/545/304 95/546/94 97/509/96
f 455/547/273 458/442/276 457/464/275
f 434/100/260 428/137/256 427/136/255
f 372/548/228 146/549/144 367/550/225
f 370/86/227 367/92/225 366/91/224
f 443/551/268 441/552/266 440/531/265
f 447/553/271 129/554/128 152/555/150
f 777/556/381 94/557/93 93/558/92
f 363/79/222 142/84/140 370/86/227
f 562/209/320 715/258/366 714/259/365
f 689/271/358 643/253/346 642/252/345
f 437/140/262 447/146/271 446/145/270
f 606/559/197 602/560/199 605/561/198
f 624/485/273 628/484/276 629/486/275
f 720/562/239 723/563/237 722/564/236
f 607/565/189 605/561/198 608/387/187
f 561/208/319 85/231/84 611/233/334
f 584/566/327 124/473/123 601/567/332
f 675/568/268 660/569/266 659/570/265
f 724/571/234 723/563/237 725/572/235
f 678/573/355 92/574/91 562/575/320
f 714/576/365 83/577/82 673/578/354
f 546/579/243 553/580/213 552/581/212
f 535/582/220 545/583/244 546/579/243
f 747/584/268 735/585/266 734/586/265
f 717/271/367 81/248/80 733/249/372
f 565/587/322 80/588/79 171/589/163
f 659/570/265 658/590/264 657/591/263
f 611/233/334 565/212/322 564/211/321
f 551/411/275 627/592/278 626/593/277
f 544/202/314 530/193/310 529/192/309
f 555/594/315 149/595/147 530/596/310
f 568/214/324 556/130/316 555/131/315
f 543/597/313 134/598/132 568/599/324
f 577/600/325 79/601/78 556/602/316
f 526/603/307 72/604/71 544/605/314
f 668/363/217 670/606/207 669/607/206
f 672/608/353 71/609/70 656/610/350
f 707/563/275 701/562/272 706/611/276
f 640/250/344 777/288/381 776/289/380
f 663/208/352 656/259/350 655/258/349
f 673/235/354 679/238/356 678/239/355
f 681/612/200 683/613/198 684/614/197
f 685/615/189 683/613/198 686/616/187
f 639/249/343 69/269/68 689/271/358
f 782/617/239 785/618/237 784/619/236
f 662/620/351 84/621/83 679/622/356
f 750/623/375 70/624/69 640/625/344
f 776/626/380 67/627/66 745/628/374
f 784/619/236 787/629/235 786/630/234
f 622/631/243 631/632/213 630/633/212
f 622/631/243 618/367/219 621/634/244
f 711/635/363 59/636/58 692/637/360
f 734/586/265 730/638/264 729/639/263
f 57/640/56 55/641/54 58/642/57
f 704/490/277 628/484/276 705/491/278
f 646/232/348 634/211/340 633/212/339
f 697/643/361 82/644/81 718/645/368
f 613/235/335 616/238/337 614/236/336
f 633/646/339 80/588/79 614/647/336
f 616/648/337 108/649/107 646/650/348
f 617/651/338 85/652/84 46/653/45
f 655/654/349 53/655/52 634/656/340
f 740/369/217 742/633/207 741/632/206
f 744/657/373 45/658/44 728/659/370
f 766/660/273 770/661/276 771/662/275
f 733/249/372 728/289/370 727/288/369
f 745/293/374 751/279/376 750/280/375
f 753/663/200 755/570/198 756/664/197
f 756/664/197 758/591/187 757/590/189
f 751/665/376 81/666/80 68/667/67
f 708/447/212 699/452/244 709/445/213
f 700/668/243 693/451/219 699/452/244
f 43/669/42 41/670/40 44/671/43
f 707/563/275 769/672/278 768/673/277
f 643/674/346 59/636/58 94/557/93
f 33/675/32 56/676/55 40/677/39
f 688/678/357 54/679/53 698/680/362
f 718/270/368 712/252/364 711/253/363
f 698/280/362 692/274/360 691/273/359
f 727/681/369 66/682/65 712/683/364
f 30/684/29 28/685/27 31/686/30
f 58/314/57 31/311/30 27/310/26
f 18/302/17 17/305/16 19/304/18
f 810/687/197 813/688/187 812/638/189
f 808/689/200 811/586/198 810/687/197
f 20/690/19 16/691/15 17/692/16
f 771/662/275 815/693/278 814/694/277
f 40/314/39 14/311/14 43/310/42
f 7/695/7 29/696/28 18/697/17
f 19/698/18 32/699/31 6/700/6
f 6/305/6 44/302/43 7/301/7
f 27/701/26 42/702/41 14/703/14
f 257/704/189 458/442/276 329/705/197
f 357/420/206 330/432/198 355/418/217
f 445/555/5 392/525/5 337/706/5
f 335/103/202 206/100/173 339/95/205
f 558/707/317 446/145/270 204/708/172
f 237/338/5 277/347/5 285/357/5
f 262/709/190 259/710/188 264/711/190
f 288/712/196 264/711/190 286/713/196
f 283/352/4 267/342/4 244/334/4
f 256/714/188 249/715/185 259/716/188
f 242/717/185 235/718/181 249/715/185
f 228/719/181 266/720/191 235/718/181
f 268/721/191 270/711/192 266/710/191
f 272/709/192 274/713/193 270/711/192
f 276/722/193 278/718/194 274/720/193
f 280/719/194 282/715/195 278/718/194
f 284/717/195 286/716/196 282/715/195
f 325/389/5 301/325/5 309/359/5
f 292/723/190 294/724/188 290/725/190
f 328/726/196 290/725/190 326/727/196
f 291/340/4 315/370/4 307/358/4
f 296/728/188 298/729/185 294/730/188
f 300/731/185 302/732/181 298/729/185
f 304/733/181 306/734/191 302/732/181
f 308/735/191 310/725/192 306/724/191
f 312/723/192 314/727/193 310/725/192
f 316/736/193 318/732/194 314/734/193
f 320/733/194 322/729/195 318/732/194
f 324/731/195 326/730/196 322/729/195
f 353/737/215 330/432/198 331/738/199
f 332/739/200 458/442/276 454/463/272
f 354/83/216 331/96/199 333/98/201
f 333/98/201 454/147/272 456/149/274
f 426/437/4 557/391/4 344/537/4
f 345/109/208 338/708/204 349/107/211
f 340/740/189 519/398/276 540/741/197
f 342/520/206 541/455/198 381/539/217
f 395/403/236 343/740/207 380/742/218
f 375/743/230 348/106/210 394/744/242
f 350/745/212 396/402/237 471/746/243
f 448/462/263 470/539/244 488/455/265
f 390/463/239 356/705/218 352/739/214
f 391/119/240 352/81/214 354/83/216
f 385/444/234 356/705/218 387/442/236
f 360/747/220 572/460/237 569/748/238
f 507/385/265 359/353/219 510/534/268
f 361/77/221 569/215/238 571/217/240
f 511/184/269 359/75/219 361/77/221
f 429/542/5 382/434/5 362/457/5
f 366/91/224 363/79/222 370/86/227
f 532/749/311 523/116/305 364/750/223
f 461/425/4 365/549/4 409/449/4
f 372/88/228 369/750/226 384/116/233
f 410/751/245 383/115/232 422/752/252
f 427/136/255 393/95/241 434/100/260
f 381/539/217 537/453/199 378/544/215
f 399/122/240 377/111/214 379/113/216
f 398/397/239 380/742/218 377/753/214
f 379/113/216 537/197/199 539/199/201
f 405/754/243 386/443/235 388/464/237
f 403/755/220 388/464/237 389/547/238
f 404/125/221 389/117/238 391/119/240
f 468/756/220 396/402/237 397/757/238
f 469/155/221 397/120/238 399/122/240
f 400/758/243 575/440/235 572/460/237
f 507/385/265 413/381/213 401/471/244
f 443/551/268 406/418/244 402/759/219
f 444/143/269 402/123/219 404/125/221
f 438/533/263 406/418/244 440/531/265
f 424/133/253 421/86/251 431/79/258
f 414/474/5 583/760/5 542/604/5
f 418/130/249 415/127/247 527/190/308
f 636/761/341 600/202/331 416/762/248
f 635/422/4 528/595/4 576/379/4
f 529/192/309 526/762/307 544/202/314
f 462/89/279 430/752/257 524/115/306
f 436/139/261 433/763/259 447/146/271
f 459/443/277 441/754/266 457/464/275
f 457/464/275 442/755/267 455/547/273
f 456/149/274 442/141/267 444/143/269
f 518/396/275 449/745/264 487/764/266
f 551/411/275 453/765/264 508/766/266
f 475/489/4 492/497/4 504/493/4
f 476/160/285 473/157/283 480/164/288
f 465/767/281 513/170/303 474/768/284
f 488/455/265 467/544/219 490/453/268
f 491/173/269 467/153/219 469/155/221
f 512/509/5 495/529/5 478/769/5
f 482/166/289 479/768/287 486/170/292
f 493/770/293 485/169/291 497/771/296
f 516/757/273 487/764/266 489/756/267
f 517/187/274 489/171/267 491/173/269
f 499/152/297 496/164/295 503/157/300
f 505/167/301 502/771/299 514/169/304
f 551/411/275 509/772/267 548/409/273
f 549/205/274 509/182/267 511/184/269
f 540/741/197 515/397/272 538/753/200
f 539/199/201 515/185/272 517/187/274
f 555/773/315 543/201/313 568/774/324
f 546/775/243 647/485/238 535/776/220
f 581/417/265 534/361/219 597/415/268
f 536/196/221 647/254/238 649/256/240
f 598/227/269 534/194/219 536/196/221
f 546/775/243 653/490/235 651/486/237
f 579/504/263 545/583/244 581/417/265
f 606/777/197 547/778/272 603/779/200
f 604/230/201 547/203/272 549/205/274
f 607/780/189 550/410/276 606/777/197
f 577/219/325 567/190/323 585/127/328
f 560/574/5 661/781/5 615/653/5
f 564/211/321 561/208/319 611/233/334
f 714/782/365 678/239/355 562/783/320
f 612/588/4 654/609/4 713/374/4
f 613/235/335 610/783/333 617/239/338
f 570/459/239 590/784/218 586/785/214
f 571/217/240 586/222/214 588/224/216
f 574/441/234 590/784/218 573/439/236
f 594/193/329 584/774/327 601/201/332
f 629/486/275 580/786/264 582/775/266
f 624/485/273 582/775/266 596/776/267
f 589/355/217 602/560/199 587/353/215
f 588/224/216 602/228/199 604/230/201
f 591/381/206 605/561/198 589/355/217
f 625/245/274 596/225/267 598/227/269
f 633/787/339 616/238/337 646/788/348
f 619/789/220 723/563/237 719/790/238
f 659/570/265 618/367/219 675/568/268
f 620/242/221 719/284/238 721/286/240
f 676/265/269 618/240/219 620/242/221
f 622/791/243 725/572/235 723/563/237
f 657/591/263 621/634/244 659/570/265
f 681/792/200 628/484/276 623/793/272
f 682/268/201 623/243/272 625/245/274
f 684/794/197 705/491/278 628/484/276
f 655/258/349 645/233/347 663/208/352
f 638/624/5 731/666/5 696/679/5
f 642/252/345 639/249/343 689/271/358
f 776/795/380 750/280/375 640/796/344
f 775/558/4 690/636/4 726/658/4
f 691/273/359 688/797/357 698/280/362
f 650/484/236 664/792/214 648/793/239
f 649/256/240 664/260/214 666/262/216
f 652/491/234 667/798/218 650/484/236
f 672/236/353 662/788/351 679/238/356
f 768/673/277 660/791/266 707/563/275
f 707/563/275 674/799/267 702/790/273
f 665/361/215 683/613/198 680/415/199
f 666/262/216 680/266/199 682/268/201
f 668/363/217 686/616/187 683/613/198
f 703/283/274 674/263/267 676/265/269
f 711/800/363 697/279/361 718/801/368
f 700/802/243 781/660/238 694/803/220
f 747/584/268 699/452/244 693/451/219
f 695/277/221 781/315/238 783/317/240
f 748/296/269 693/275/219 695/277/221
f 708/804/212 785/618/237 700/802/243
f 729/639/263 699/452/244 734/586/265
f 756/805/197 701/562/272 753/806/200
f 754/299/201 701/281/272 703/283/274
f 757/807/189 706/611/276 756/805/197
f 727/288/369 717/271/367 733/249/372
f 722/564/236 736/808/214 720/562/239
f 721/286/240 736/290/214 738/292/216
f 724/571/234 739/809/218 722/564/236
f 744/274/373 732/801/371 751/279/376
f 771/662/275 730/804/264 735/810/266
f 766/660/273 735/810/266 746/811/267
f 740/369/217 752/568/199 737/367/215
f 738/292/216 752/297/199 754/299/201
f 741/632/206 755/570/198 740/369/217
f 767/308/274 746/294/267 748/296/269
f 772/702/4 801/696/4 759/670/4
f 773/812/378 763/304/378 780/813/378
f 760/301/377 805/814/377 764/305/377
f 778/676/5 804/691/5 791/641/5
f 810/815/197 765/617/272 808/816/200
f 809/323/201 765/306/272 767/308/274
f 812/817/189 770/661/276 810/815/197
f 789/310/379 779/818/379 793/314/379
f 784/619/236 794/819/214 782/617/239
f 783/317/240 794/318/214 796/320/216
f 786/630/234 797/820/218 784/619/236
f 802/821/382 792/313/382 806/822/382
f 798/452/217 807/584/199 795/451/215
f 796/320/216 807/321/199 809/323/201
f 798/452/217 813/688/187 811/586/198
f 12/1/12 11/8/11 2/2/2
f 13/4/13 12/1/12 3/3/3
f 24/6/23 23/15/22 10/7/10
f 9/9/9 8/823/8 1/10/1
f 26/12/25 25/21/24 12/1/12
f 2/2/2 11/8/11 10/7/10
f 10/7/10 9/16/9 126/14/125
f 23/15/22 22/26/21 9/16/9
f 22/18/21 21/28/20 8/19/8
f 25/21/24 24/6/23 11/8/11
f 38/22/37 37/23/36 24/6/23
f 37/23/36 36/25/35 23/15/22
f 39/24/38 38/22/37 25/21/24
f 36/25/35 35/33/34 22/26/21
f 35/27/34 34/35/33 21/28/20
f 51/30/50 50/31/49 37/23/36
f 50/31/49 49/37/48 36/25/35
f 52/29/51 51/30/50 38/22/37
f 36/25/35 49/37/48 48/32/47
f 48/34/47 47/824/46 34/35/33
f 63/36/62 62/39/61 49/37/48
f 52/29/51 65/43/64 64/38/63
f 62/39/61 61/48/60 48/32/47
f 61/40/60 60/50/59 47/41/46
f 51/30/50 64/38/63 63/36/62
f 77/44/76 76/45/75 63/36/62
f 76/45/75 75/47/74 62/39/61
f 78/46/77 77/44/76 64/38/63
f 75/47/74 74/58/73 61/48/60
f 74/49/73 73/825/72 60/50/59
f 87/51/86 86/64/85 73/52/72
f 90/55/89 89/56/88 76/45/75
f 89/56/88 88/60/87 75/47/74
f 91/54/90 90/55/89 77/44/76
f 75/47/74 88/60/87 87/57/86
f 89/56/88 102/68/101 101/59/100
f 91/54/90 104/65/103 103/61/102
f 88/60/87 101/59/100 100/62/99
f 100/63/99 99/71/98 86/64/85
f 103/61/102 102/68/101 89/56/88
f 116/67/115 115/69/114 102/68/101
f 115/69/114 114/72/113 101/59/100
f 117/66/116 116/67/115 103/61/102
f 101/59/100 114/72/113 113/70/112
f 113/20/112 112/19/111 99/71/98
f 114/72/113 127/13/126 126/14/125
f 126/11/125 1/10/1 112/73/111
f 3/3/3 2/2/2 115/69/114
f 2/2/2 127/13/126 114/72/113
f 117/66/116 130/5/129 3/3/3
f 254/324/177 253/360/177 252/325/179
f 248/327/184 247/333/184 246/328/186
f 245/330/184 243/336/182 241/331/182
f 238/329/183 236/328/183 234/333/175
f 248/327/184 233/335/182 231/334/182
f 239/327/175 234/333/175 229/334/180
f 225/336/180 223/331/180 222/325/178
f 221/337/179 219/338/179 231/334/182
f 230/335/180 229/334/180 217/338/178
f 595/192/330 594/193/329 601/201/332
f 216/339/177 215/342/177 219/338/179
f 214/330/175 213/349/176 212/340/176
f 218/337/178 217/338/178 209/342/169
f 261/326/179 252/325/179 241/331/182
f 208/343/174 207/344/174 215/342/177
f 585/127/328 584/128/327 578/220/326
f 210/339/169 209/342/169 203/344/171
f 202/345/166 201/346/166 207/344/174
f 205/343/171 203/344/171 199/346/165
f 202/345/166 198/350/164 197/347/164
f 245/330/184 240/332/184 195/348/170
f 200/345/165 199/346/165 193/347/161
f 214/330/175 211/341/175 223/331/180
f 192/351/158 191/352/158 197/347/164
f 194/350/161 193/347/161 189/352/157
f 587/353/215 586/826/214 590/354/218
f 187/356/154 186/357/154 191/352/158
f 190/351/157 189/352/157 184/357/153
f 250/329/186 246/328/186 186/357/154
f 185/356/153 184/357/153 236/328/183
f 183/324/169 226/326/178 222/325/178
f 254/324/177 181/365/168 180/359/168
f 665/361/215 664/582/214 667/362/218
f 183/324/169 182/358/169 178/364/167
f 177/366/166 176/372/166 180/359/168
f 737/367/215 736/827/214 739/368/218
f 175/366/165 179/365/167 178/364/167
f 177/366/166 173/376/164 172/371/164
f 564/373/321 171/589/163 170/374/162
f 175/366/165 174/370/165 168/371/161
f 578/377/326 594/828/329 167/378/160
f 165/380/158 164/383/158 172/371/164
f 591/381/206 589/355/217 590/354/218
f 169/376/161 168/371/161 162/383/157
f 206/100/173 161/99/156 160/93/155
f 159/384/154 158/389/154 164/383/158
f 507/385/265 508/535/266 453/386/264
f 156/384/153 163/380/157 162/383/157
f 159/384/154 196/349/170 195/348/170
f 156/384/153 155/388/153 212/340/176
f 335/390/202 154/405/152 153/391/151
f 204/101/172 206/100/173 559/136/318
f 446/393/270 152/555/150 161/394/156
f 364/80/223 363/79/222 533/133/312
f 415/127/247 151/126/149 150/188/148
f 518/396/275 516/757/273 515/397/272
f 529/399/309 149/595/147 148/400/146
f 398/397/239 397/757/238 396/402/237
f 345/404/208 147/537/145 154/405/152
f 395/403/236 396/402/237 451/407/235
f 548/409/273 547/778/272 550/410/276
f 366/412/224 146/549/144 145/413/143
f 597/415/268 596/612/267 582/416/266
f 355/418/217 356/427/218 358/419/207
f 418/421/249 148/400/146 144/422/142
f 463/424/280 532/829/311 145/413/143
f 355/418/217 353/737/215 352/426/214
f 329/428/197 330/432/198 255/429/187
f 332/431/200 331/738/199 330/432/198
f 369/433/226 142/830/140 141/434/139
f 436/436/261 140/523/138 139/437/137
f 573/439/236 572/460/237 575/440/235
f 387/442/236 388/464/237 386/443/235
f 799/445/206 798/452/217 797/446/218
f 384/116/233 383/115/232 373/89/229
f 373/448/229 410/831/245 138/449/136
f 795/451/215 794/832/214 797/446/218
f 490/453/268 489/495/267 487/454/266
f 523/456/305 136/543/134 135/457/133
f 585/127/328 567/190/323 134/213/132
f 570/459/239 569/748/238 572/460/237
f 488/455/265 487/454/266 449/461/264
f 416/128/248 415/127/247 637/219/342
f 434/100/260 393/95/241 132/93/130
f 390/463/239 389/547/238 388/464/237
f 376/465/231 427/833/255 139/437/137
f 383/467/232 141/434/139 125/468/124
f 360/470/220 359/353/219 401/471/244
f 422/85/252 421/86/251 411/91/246
f 416/472/248 600/834/331 124/473/123
f 405/475/243 406/418/244 408/476/213
f 424/478/253 123/514/122 138/449/136
f 394/94/242 393/95/241 376/103/231
f 403/480/220 402/759/219 406/418/244
f 339/95/205 338/94/204 336/104/203
f 338/481/204 160/706/155 122/482/121
f 650/484/236 648/793/239 647/485/238
f 477/487/286 482/835/289 121/488/120
f 650/484/236 651/486/237 653/490/235
f 474/158/284 473/157/283 466/152/282
f 465/492/281 119/506/118 118/493/117
f 463/88/280 462/89/279 524/115/306
f 520/407/277 518/396/275 519/398/276
f 538/495/200 537/453/199 541/455/198
f 421/86/251 125/84/124 111/78/110
f 499/496/297 110/517/109 109/497/108
f 645/233/347 108/231/107 107/207/106
f 486/170/292 485/169/291 483/167/290
f 540/454/197 541/455/198 341/499/187
f 479/500/287 106/769/105 105/501/104
f 581/417/265 582/416/266 580/503/264
f 480/164/288 479/163/287 477/161/286
f 473/157/283 98/156/97 106/162/105
f 476/505/285 120/489/119 119/506/118
f 474/508/284 513/836/303 97/509/96
f 636/511/341 144/422/142 167/378/160
f 462/513/279 143/425/141 123/514/122
f 527/190/308 526/189/307 419/131/250
f 505/516/301 118/493/117 110/517/109
f 471/519/243 470/539/244 351/520/213
f 506/166/302 505/167/301 514/169/304
f 503/157/300 502/181/299 500/179/298
f 437/522/262 558/837/317 153/391/151
f 496/164/295 96/176/95 95/180/94
f 412/382/212 400/354/243 401/471/244
f 348/524/210 122/482/121 132/525/130
f 457/464/275 458/442/276 460/444/278
f 483/527/290 493/838/293 109/497/108
f 431/79/258 430/80/257 425/134/254
f 493/175/293 497/177/296 496/164/295
f 485/528/291 105/501/104 96/529/95
f 440/531/265 441/552/266 439/532/264
f 510/534/268 509/839/267 508/535/266
f 375/536/230 128/466/127 147/537/145
f 349/107/211 348/106/210 346/110/209
f 381/539/217 380/519/218 343/521/207
f 381/539/217 378/544/215 377/540/214
f 524/541/306 430/840/257 111/542/110
f 471/519/243 468/540/220 467/544/219
f 514/545/304 502/841/299 95/546/94
f 455/547/273 454/463/272 458/442/276
f 434/100/260 433/101/259 428/137/256
f 372/548/228 137/450/135 146/549/144
f 370/86/227 369/85/226 367/92/225
f 443/551/268 442/842/267 441/552/266
f 447/553/271 433/843/259 129/554/128
f 777/556/381 642/844/345 94/557/93
f 363/79/222 135/78/133 142/84/140
f 562/209/320 561/208/319 715/258/366
f 689/271/358 688/270/357 643/253/346
f 437/140/262 436/139/261 447/146/271
f 606/559/197 603/839/200 602/560/199
f 624/485/273 623/793/272 628/484/276
f 720/562/239 719/790/238 723/563/237
f 607/565/189 606/559/197 605/561/198
f 561/208/319 92/207/91 85/231/84
f 584/566/327 133/760/131 124/473/123
f 675/568/268 674/845/267 660/569/266
f 724/571/234 722/564/236 723/563/237
f 678/573/355 84/621/83 92/574/91
f 714/576/365 170/374/162 83/577/82
f 546/579/243 545/583/244 553/580/213
f 535/582/220 534/361/219 545/583/244
f 747/584/268 746/689/267 735/585/266
f 717/271/367 82/269/81 81/248/80
f 565/587/322 613/846/335 80/588/79
f 659/570/265 660/569/266 658/590/264
f 611/233/334 610/232/333 565/212/322
f 551/411/275 550/410/276 627/592/278
f 544/202/314 543/201/313 530/193/310
f 555/594/315 79/601/78 149/595/147
f 568/214/324 567/190/323 556/130/316
f 543/597/313 72/604/71 134/598/132
f 577/600/325 166/379/159 79/601/78
f 526/603/307 150/847/148 72/604/71
f 668/363/217 667/362/218 670/606/207
f 672/608/353 83/577/82 71/609/70
f 707/563/275 702/790/273 701/562/272
f 640/250/344 639/249/343 777/288/381
f 663/208/352 662/209/351 656/259/350
f 673/235/354 672/236/353 679/238/356
f 681/612/200 680/415/199 683/613/198
f 685/615/189 684/614/197 683/613/198
f 639/249/343 70/248/69 69/269/68
f 782/617/239 781/660/238 785/618/237
f 662/620/351 107/781/106 84/621/83
f 750/623/375 68/667/67 70/624/69
f 776/626/380 93/558/92 67/627/66
f 784/619/236 785/618/237 787/629/235
f 622/631/243 621/634/244 631/632/213
f 622/631/243 619/848/220 618/367/219
f 711/635/363 66/682/65 59/636/58
f 734/586/265 735/585/266 730/638/264
f 57/640/56 56/676/55 55/641/54
f 704/490/277 629/486/275 628/484/276
f 646/232/348 645/233/347 634/211/340
f 697/643/361 54/679/53 82/644/81
f 613/235/335 617/239/338 616/238/337
f 633/646/339 53/655/52 80/588/79
f 616/648/337 46/653/45 108/649/107
f 617/651/338 610/849/333 85/652/84
f 655/654/349 71/609/70 53/655/52
f 740/369/217 739/368/218 742/633/207
f 744/657/373 67/627/66 45/658/44
f 766/660/273 765/617/272 770/661/276
f 733/249/372 732/250/371 728/289/370
f 745/293/374 744/274/373 751/279/376
f 753/663/200 752/568/199 755/570/198
f 756/664/197 755/570/198 758/591/187
f 751/665/376 732/850/371 81/666/80
f 708/447/212 700/668/243 699/452/244
f 700/668/243 694/832/220 693/451/219
f 43/669/42 42/702/41 41/670/40
f 707/563/275 706/611/276 769/672/278
f 643/674/346 691/851/359 59/636/58
f 33/675/32 32/699/31 56/676/55
f 688/678/357 69/852/68 54/679/53
f 718/270/368 717/271/367 712/252/364
f 698/280/362 697/279/361 692/274/360
f 727/681/369 45/658/44 66/682/65
f 30/684/29 29/696/28 28/685/27
f 58/314/57 20/313/19 31/311/30
f 18/302/17 30/301/29 17/305/16
f 810/687/197 811/586/198 813/688/187
f 808/689/200 807/584/199 811/586/198
f 20/690/19 55/641/54 16/691/15
f 771/662/275 770/661/276 815/693/278
f 40/314/39 57/313/56 14/311/14
f 7/695/7 41/670/40 29/696/28
f 19/698/18 16/691/15 32/699/31
f 6/305/6 33/304/32 44/302/43
f 27/701/26 28/685/27 42/702/41
f 257/704/189 460/444/278 458/442/276
f 357/420/206 255/429/187 330/432/198
f 337/706/5 224/394/5 445/555/5
f 445/555/5 432/554/5 392/525/5
f 392/525/5 347/482/5 337/706/5
f 335/103/202 559/136/318 206/100/173
f 558/707/317 437/140/262 446/145/270
f 285/357/5 265/328/5 260/333/5
f 260/333/5 251/334/5 237/338/5
f 237/338/5 227/342/5 269/344/5
f 269/344/5 273/346/5 277/347/5
f 277/347/5 281/352/5 285/357/5
f 285/357/5 260/333/5 237/338/5
f 237/338/5 269/344/5 277/347/5
f 262/709/190 256/721/188 259/710/188
f 288/712/196 262/709/190 264/711/190
f 244/334/4 258/333/4 263/328/4
f 263/328/4 287/357/4 283/352/4
f 283/352/4 279/347/4 275/346/4
f 275/346/4 271/344/4 267/342/4
f 267/342/4 232/338/4 244/334/4
f 244/334/4 263/328/4 283/352/4
f 283/352/4 275/346/4 267/342/4
f 256/714/188 242/717/185 249/715/185
f 242/717/185 228/719/181 235/718/181
f 228/719/181 268/722/191 266/720/191
f 268/721/191 272/709/192 270/711/192
f 272/709/192 276/712/193 274/713/193
f 276/722/193 280/719/194 278/718/194
f 280/719/194 284/717/195 282/715/195
f 284/717/195 288/714/196 286/716/196
f 309/359/5 313/372/5 317/371/5
f 317/371/5 321/383/5 325/389/5
f 325/389/5 289/348/5 293/332/5
f 293/332/5 297/331/5 301/325/5
f 301/325/5 305/360/5 309/359/5
f 309/359/5 317/371/5 325/389/5
f 325/389/5 293/332/5 301/325/5
f 292/723/190 296/735/188 294/724/188
f 328/726/196 292/723/190 290/725/190
f 307/358/4 303/325/4 299/331/4
f 299/331/4 295/341/4 291/340/4
f 291/340/4 327/388/4 323/383/4
f 323/383/4 319/371/4 315/370/4
f 315/370/4 311/364/4 307/358/4
f 307/358/4 299/331/4 291/340/4
f 291/340/4 323/383/4 315/370/4
f 296/728/188 300/731/185 298/729/185
f 300/731/185 304/733/181 302/732/181
f 304/733/181 308/736/191 306/734/191
f 308/735/191 312/723/192 310/725/192
f 312/723/192 316/726/193 314/727/193
f 316/736/193 320/733/194 318/732/194
f 320/733/194 324/731/195 322/729/195
f 324/731/195 328/728/196 326/730/196
f 353/737/215 355/418/217 330/432/198
f 332/739/200 329/705/197 458/442/276
f 333/98/201 5/853/5 354/83/216
f 354/83/216 353/82/215 331/96/199
f 456/149/274 5/853/5 333/98/201
f 333/98/201 332/97/200 454/147/272
f 344/537/4 374/466/4 426/437/4
f 426/437/4 435/523/4 557/391/4
f 557/391/4 334/405/4 344/537/4
f 345/109/208 336/707/203 338/708/204
f 340/740/189 521/408/278 519/398/276
f 342/520/206 341/499/187 541/455/198
f 395/403/236 450/408/234 343/740/207
f 375/743/230 346/110/209 348/106/210
f 350/745/212 451/407/235 396/402/237
f 448/462/263 351/520/213 470/539/244
f 390/463/239 387/442/236 356/705/218
f 354/83/216 5/853/5 391/119/240
f 391/119/240 390/118/239 352/81/214
f 385/444/234 358/704/207 356/705/218
f 360/747/220 400/758/243 572/460/237
f 507/385/265 401/471/244 359/353/219
f 571/217/240 131/854/5 361/77/221
f 361/77/221 360/76/220 569/215/238
f 361/77/221 131/854/5 511/184/269
f 511/184/269 510/183/268 359/75/219
f 362/457/5 522/543/5 429/542/5
f 429/542/5 420/468/5 382/434/5
f 382/434/5 368/830/5 362/457/5
f 366/91/224 533/133/312 363/79/222
f 532/749/311 463/88/280 523/116/305
f 409/449/4 423/514/4 461/425/4
f 461/425/4 531/413/4 365/549/4
f 365/549/4 371/450/4 409/449/4
f 372/88/228 367/855/225 369/750/226
f 410/751/245 373/89/229 383/115/232
f 427/136/255 376/103/231 393/95/241
f 381/539/217 541/455/198 537/453/199
f 379/113/216 15/856/5 399/122/240
f 399/122/240 398/121/239 377/111/214
f 398/397/239 395/403/236 380/742/218
f 539/199/201 15/856/5 379/113/216
f 379/113/216 378/112/215 537/197/199
f 405/754/243 407/857/212 386/443/235
f 403/755/220 405/754/243 388/464/237
f 391/119/240 5/853/5 404/125/221
f 404/125/221 403/124/220 389/117/238
f 468/756/220 471/746/243 396/402/237
f 399/122/240 15/856/5 469/155/221
f 469/155/221 468/154/220 397/120/238
f 400/758/243 412/858/212 575/440/235
f 507/385/265 452/387/263 413/381/213
f 443/551/268 440/531/265 406/418/244
f 404/125/221 5/853/5 444/143/269
f 444/143/269 443/142/268 402/123/219
f 438/533/263 408/476/213 406/418/244
f 424/133/253 411/91/246 421/86/251
f 542/604/5 525/847/5 414/474/5
f 414/474/5 599/473/5 583/760/5
f 583/760/5 566/598/5 542/604/5
f 418/130/249 637/219/342 415/127/247
f 636/761/341 595/192/330 600/202/331
f 576/379/4 593/378/4 635/422/4
f 635/422/4 417/400/4 528/595/4
f 528/595/4 554/601/4 576/379/4
f 529/192/309 419/761/250 526/762/307
f 462/89/279 425/751/254 430/752/257
f 436/139/261 428/859/256 433/763/259
f 459/443/277 439/860/264 441/754/266
f 457/464/275 441/754/266 442/755/267
f 444/143/269 5/853/5 456/149/274
f 456/149/274 455/148/273 442/141/267
f 518/396/275 520/407/277 449/745/264
f 551/411/275 626/593/277 453/765/264
f 504/493/4 464/506/4 475/489/4
f 475/489/4 481/488/4 492/497/4
f 492/497/4 498/517/4 504/493/4
f 476/160/285 466/152/282 473/157/283
f 465/767/281 506/166/302 513/170/303
f 488/455/265 470/539/244 467/544/219
f 469/155/221 15/856/5 491/173/269
f 491/173/269 490/172/268 467/153/219
f 478/769/5 472/510/5 512/509/5
f 512/509/5 501/546/5 495/529/5
f 495/529/5 484/501/5 478/769/5
f 482/166/289 477/767/286 479/768/287
f 493/770/293 483/167/290 485/169/291
f 516/757/273 518/396/275 487/764/266
f 491/173/269 15/856/5 517/187/274
f 517/187/274 516/186/273 489/171/267
f 499/152/297 494/160/294 496/164/295
f 505/167/301 500/770/298 502/771/299
f 551/411/275 508/766/266 509/772/267
f 511/184/269 131/854/5 549/205/274
f 549/205/274 548/204/273 509/182/267
f 540/741/197 519/398/276 515/397/272
f 517/187/274 15/856/5 539/199/201
f 539/199/201 538/198/200 515/185/272
f 555/773/315 530/193/310 543/201/313
f 546/775/243 651/486/237 647/485/238
f 581/417/265 545/583/244 534/361/219
f 649/256/240 157/861/5 536/196/221
f 536/196/221 535/195/220 647/254/238
f 536/196/221 157/861/5 598/227/269
f 598/227/269 597/226/268 534/194/219
f 546/775/243 552/786/212 653/490/235
f 579/504/263 553/580/213 545/583/244
f 606/777/197 550/410/276 547/778/272
f 549/205/274 131/854/5 604/230/201
f 604/230/201 603/229/200 547/203/272
f 607/780/189 627/592/278 550/410/276
f 577/219/325 556/130/316 567/190/323
f 615/653/5 609/652/5 560/574/5
f 560/574/5 677/621/5 661/781/5
f 661/781/5 644/649/5 615/653/5
f 564/211/321 715/258/366 561/208/319
f 714/782/365 673/235/354 678/239/355
f 713/374/4 563/589/4 612/588/4
f 612/588/4 632/655/4 654/609/4
f 654/609/4 671/577/4 713/374/4
f 613/235/335 565/782/322 610/783/333
f 570/459/239 573/439/236 590/784/218
f 588/224/216 131/854/5 571/217/240
f 571/217/240 570/216/239 586/222/214
f 574/441/234 592/862/207 590/784/218
f 594/193/329 578/773/326 584/774/327
f 629/486/275 704/490/277 580/786/264
f 624/485/273 629/486/275 582/775/266
f 589/355/217 605/561/198 602/560/199
f 604/230/201 131/854/5 588/224/216
f 588/224/216 587/223/215 602/228/199
f 591/381/206 608/387/187 605/561/198
f 598/227/269 157/861/5 625/245/274
f 625/245/274 624/244/273 596/225/267
f 633/787/339 614/236/336 616/238/337
f 619/789/220 622/791/243 723/563/237
f 659/570/265 621/634/244 618/367/219
f 721/286/240 188/863/5 620/242/221
f 620/242/221 619/241/220 719/284/238
f 620/242/221 188/863/5 676/265/269
f 676/265/269 675/264/268 618/240/219
f 622/791/243 630/864/212 725/572/235
f 657/591/263 631/632/213 621/634/244
f 681/792/200 684/794/197 628/484/276
f 625/245/274 157/861/5 682/268/201
f 682/268/201 681/267/200 623/243/272
f 684/794/197 685/865/189 705/491/278
f 655/258/349 634/211/340 645/233/347
f 696/679/5 687/852/5 638/624/5
f 638/624/5 749/667/5 731/666/5
f 731/666/5 716/644/5 696/679/5
f 642/252/345 777/288/381 639/249/343
f 776/795/380 745/293/374 750/280/375
f 726/658/4 743/627/4 775/558/4
f 775/558/4 641/557/4 690/636/4
f 690/636/4 710/682/4 726/658/4
f 691/273/359 643/795/346 688/797/357
f 650/484/236 667/798/218 664/792/214
f 666/262/216 157/861/5 649/256/240
f 649/256/240 648/255/239 664/260/214
f 652/491/234 670/866/207 667/798/218
f 672/236/353 656/787/350 662/788/351
f 768/673/277 658/864/264 660/791/266
f 707/563/275 660/791/266 674/799/267
f 665/361/215 668/363/217 683/613/198
f 682/268/201 157/861/5 666/262/216
f 666/262/216 665/261/215 680/266/199
f 668/363/217 669/607/206 686/616/187
f 676/265/269 188/863/5 703/283/274
f 703/283/274 702/282/273 674/263/267
f 711/800/363 692/274/360 697/279/361
f 700/802/243 785/618/237 781/660/238
f 747/584/268 734/586/265 699/452/244
f 783/317/240 220/867/5 695/277/221
f 695/277/221 694/276/220 781/315/238
f 695/277/221 220/867/5 748/296/269
f 748/296/269 747/295/268 693/275/219
f 708/804/212 787/629/235 785/618/237
f 729/639/263 709/445/213 699/452/244
f 756/805/197 706/611/276 701/562/272
f 703/283/274 188/863/5 754/299/201
f 754/299/201 753/298/200 701/281/272
f 757/807/189 769/672/278 706/611/276
f 727/288/369 712/252/364 717/271/367
f 722/564/236 739/809/218 736/808/214
f 738/292/216 188/863/5 721/286/240
f 721/286/240 720/285/239 736/290/214
f 724/571/234 742/807/207 739/809/218
f 744/274/373 728/868/370 732/801/371
f 771/662/275 814/694/277 730/804/264
f 766/660/273 771/662/275 735/810/266
f 740/369/217 755/570/198 752/568/199
f 754/299/201 188/863/5 738/292/216
f 738/292/216 737/291/215 752/297/199
f 741/632/206 758/591/187 755/570/198
f 748/296/269 220/867/5 767/308/274
f 767/308/274 766/307/273 746/294/267
f 772/702/4 788/685/4 801/696/4
f 773/812/378 761/302/378 763/304/378
f 760/301/377 803/869/377 805/814/377
f 778/676/5 762/699/5 804/691/5
f 810/815/197 770/661/276 765/617/272
f 767/308/274 220/867/5 809/323/201
f 809/323/201 808/322/200 765/306/272
f 812/817/189 815/693/278 770/661/276
f 789/310/379 774/870/379 779/818/379
f 784/619/236 797/820/218 794/819/214
f 796/320/216 220/867/5 783/317/240
f 783/317/240 782/316/239 794/318/214
f 786/630/234 800/817/207 797/820/218
f 802/821/382 790/311/382 792/313/382
f 798/452/217 811/586/198 807/584/199
f 809/323/201 220/867/5 796/320/216
f 796/320/216 795/319/215 807/321/199
f 798/452/217 799/445/206 813/688/187
