# Blender 5.2.0 LTS
# www.blender.org
o Backdrop_Hoop
v 16.701515 21.280209 2.240192
v 12.550000 0.450000 -9.000000
v -12.550000 0.000000 -8.550000
v 12.550000 0.000000 -8.550000
v 23.741482 6.229120 4.480384
v -13.000000 11.550000 -8.550000
v -13.000000 0.450000 -8.550000
v -12.550000 0.450000 -9.000000
v -12.550000 11.550000 -9.000000
v 13.667909 18.860991 4.480384
v 19.750696 26.488567 -4.480384
v 12.256078 -0.260270 -2.240193
v 8.660867 15.491411 -2.240193
v 34.307438 19.478409 -4.480384
v 12.256078 -0.260271 2.240193
v 8.660867 15.491411 2.240193
v -12.550000 0.450000 9.000000
v 12.550000 0.000000 8.550000
v -12.550000 0.000000 8.550000
v 8.473233 -1.123678 4.480385
v -12.550000 11.550000 9.000000
v -12.550000 12.000000 8.550000
v 12.550000 12.000000 8.550000
v 4.878023 14.628003 4.480385
v 13.667908 18.860991 -4.480385
v -4.690393 -1.987086 -2.240192
v -1.095176 13.764592 -2.240192
v 23.741482 6.229121 -4.480384
v -4.690393 -1.987086 2.240192
v -1.095176 13.764593 2.240192
v 13.000000 11.550000 8.550000
v 13.000000 0.450000 8.550000
v 12.550000 0.450000 9.000000
v 12.550000 11.550000 9.000000
v -8.473237 -1.123677 4.480385
v 32.623913 15.982536 2.240194
v 32.623913 15.982537 -2.240194
v -4.878019 14.628002 4.480385
v 4.878023 14.628003 -4.480385
v -20.707876 3.809903 -2.240192
v -10.634301 16.441771 -2.240192
v 8.473233 -1.123678 -4.480385
v -20.707876 3.809903 2.240192
v -10.634301 16.441771 2.240192
v 18.067173 22.992693 -2.240192
v 18.067173 22.992693 2.240192
v -23.741482 6.229123 4.480384
v 20.707874 3.809902 2.240192
v 20.707874 3.809901 -2.240192
v -13.667907 18.860989 4.480385
v -4.878019 14.628002 -4.480385
v -32.623913 15.982536 -2.240194
v -18.067173 22.992693 -2.240192
v -8.473237 -1.123677 -4.480385
v -32.623913 15.982537 2.240194
v -18.067173 22.992693 2.240192
v 10.634302 16.441772 -2.240192
v 10.634302 16.441772 2.240192
v -34.307438 19.478409 4.480384
v 4.690390 -1.987086 2.240192
v 4.690390 -1.987085 -2.240192
v -19.750696 26.488567 4.480384
v -13.667907 18.860989 -4.480385
v -38.078381 32.119873 -2.240193
v -21.921619 32.119873 -2.240192
v -23.741482 6.229122 -4.480384
v -38.078381 32.119873 2.240193
v -21.921619 32.119873 2.240192
v 1.095179 13.764595 -2.240192
v 1.095179 13.764595 2.240192
v -38.078381 36.000000 4.480386
v -12.256081 -0.260268 2.240193
v -12.256081 -0.260268 -2.240193
v -21.921619 36.000000 4.480386
v -19.750696 26.488567 -4.480384
v -35.990959 49.025723 -2.240194
v -21.434217 42.015564 -2.240194
v -34.307434 19.478409 -4.480384
v -35.990955 49.025723 2.240194
v -21.434219 42.015564 2.240194
v -8.660863 15.491411 -2.240193
v -8.660863 15.491411 2.240193
v -34.307438 52.521591 4.480385
v -26.775087 8.648341 2.240192
v -26.775087 8.648341 -2.240192
v -19.750696 45.511436 4.480385
v -21.921619 36.000000 -4.480386
v -26.775089 63.351658 -2.240192
v -16.701511 50.719795 -2.240192
v -38.078381 36.000000 -4.480386
v -26.775089 63.351658 2.240192
v -16.701511 50.719795 2.240192
v -16.701513 21.280207 -2.240192
v -16.701513 21.280207 2.240192
v -23.741486 65.770874 4.480385
v -35.990959 22.974283 2.240191
v -35.990959 22.974283 -2.240191
v -13.667906 53.139011 4.480385
v -19.750696 45.511436 -4.480385
v -12.256082 72.260269 -2.240193
v -8.660862 56.508591 -2.240193
v -34.307434 52.521591 -4.480385
v -12.256082 72.260262 2.240193
v -8.660862 56.508591 2.240193
v -21.434219 29.984442 -2.240192
v -21.434219 29.984442 2.240192
v -8.473238 73.123680 4.480385
v -38.078381 39.880127 2.240194
v -38.078381 39.880127 -2.240194
v -4.878019 57.372002 4.480384
v -13.667906 53.139011 -4.480385
v 4.690394 73.987091 -2.240192
v 1.095175 58.235409 -2.240193
v -23.741482 65.770874 -4.480385
v 4.690394 73.987099 2.240192
v 1.095175 58.235409 2.240193
v -21.921619 39.880127 -2.240194
v -21.921619 39.880127 2.240194
v 8.473238 73.123680 4.480385
v -32.623913 56.017464 2.240194
v -32.623913 56.017464 -2.240194
v 4.878018 57.372002 4.480384
v -4.878018 57.372002 -4.480384
v 20.707878 68.190094 -2.240194
v -8.473238 73.123680 -4.480385
v 10.634300 55.558231 -2.240192
v 20.707882 68.190094 2.240194
v -18.067173 49.007305 -2.240194
v -18.067175 49.007305 2.240194
v 10.634300 55.558231 2.240192
v 23.741482 65.770874 4.480385
v 4.878019 57.372002 -4.480384
v 13.667906 53.139011 4.480385
v -20.707878 68.190094 2.240194
v -20.707882 68.190094 -2.240194
v 32.623909 56.017467 -2.240194
v 12.256082 72.260269 2.240193
v 18.067175 49.007305 -2.240194
v 32.623913 56.017467 2.240194
v -1.095175 58.235409 -2.240193
v -1.095175 58.235409 2.240193
v 18.067173 49.007305 2.240194
v 34.307430 52.521595 4.480385
v 13.667906 53.139011 -4.480385
v 19.750698 45.511433 4.480385
v 8.660862 56.508591 -2.240193
v 8.660862 56.508591 2.240193
v 38.078381 39.880127 -2.240194
v 26.775089 63.351658 2.240192
v 21.921619 39.880127 -2.240194
v 38.078381 39.880127 2.240194
v -4.690394 73.987091 2.240192
v -4.690394 73.987099 -2.240192
v 21.921619 39.880127 2.240194
v 38.078381 36.000000 4.480386
v 19.750698 45.511433 -4.480385
v 21.921619 36.000000 4.480386
v 16.701511 50.719795 -2.240192
v 16.701511 50.719795 2.240192
v 38.078381 32.119873 2.240192
v 26.775089 63.351658 -2.240192
v 23.741486 65.770874 -4.480385
v 21.921619 32.119873 2.240193
v 21.434223 42.015560 -2.240194
v 21.434221 42.015560 2.240194
v 38.078381 32.119873 -2.240192
v 38.078381 36.000000 -4.480386
v -10.634300 55.558231 -2.240192
v -10.634300 55.558231 2.240192
v 34.307438 52.521595 -4.480385
v 21.921619 36.000000 -4.480386
v 21.921619 32.119873 -2.240193
v 12.256082 72.260262 -2.240193
v 8.473238 73.123680 -4.480385
v 35.990959 49.025723 2.240194
v 35.990955 49.025723 -2.240194
v -12.550000 11.550000 9.000000
v -12.550000 12.000000 8.550000
v -13.000000 11.550000 8.550000
v -12.550000 0.000000 8.550000
v -12.550000 0.450000 9.000000
v -13.000000 0.450000 8.550000
v 21.921619 36.000000 -4.480386
v 22.371620 36.389713 -4.774999
v 22.371620 35.610287 -4.775000
v 38.078381 36.000000 -4.480386
v 37.628380 35.610287 -4.774999
v 37.628380 36.389713 -4.775000
v 21.921619 32.119873 -2.240193
v 22.371620 32.059586 -2.725001
v 22.371620 31.669872 -2.050000
v 38.078381 32.119873 -2.240192
v 37.628380 31.669874 -2.050000
v 37.628380 32.059586 -2.725000
v 21.921619 32.119873 2.240193
v 22.371620 31.669872 2.050000
v 22.371620 32.059586 2.725000
v 38.078381 32.119873 2.240192
v 37.628380 32.059586 2.725000
v 37.628380 31.669874 2.050000
v 21.921619 36.000000 4.480386
v 22.371620 35.610287 4.774999
v 22.371620 36.389713 4.775000
v 38.078381 36.000000 4.480386
v 37.628380 36.389713 4.774999
v 37.628380 35.610287 4.775000
v 21.921619 39.880127 2.240194
v 22.371620 39.940414 2.725001
v 22.371620 40.330128 2.050000
v 38.078381 39.880127 2.240194
v 37.628380 40.330128 2.050000
v 37.628380 39.940414 2.725000
v 21.921619 39.880127 -2.240194
v 22.371620 40.330128 -2.050000
v 22.371620 39.940414 -2.725000
v 38.078381 39.880127 -2.240194
v 37.628380 39.940414 -2.725001
v 37.628380 40.330128 -2.050000
v 19.750698 45.511433 -4.480385
v 19.987045 46.057796 -4.775001
v 20.325222 45.355564 -4.775000
v 34.307438 52.521595 -4.480385
v 34.071087 51.975231 -4.775000
v 33.732906 52.677464 -4.775000
v 21.434223 42.015560 -2.240194
v 21.865818 42.156487 -2.724999
v 22.034906 41.805370 -2.050000
v 35.990955 49.025723 -2.240194
v 35.780769 48.425037 -2.050000
v 35.611679 48.776154 -2.725000
v 21.434221 42.015560 2.240194
v 22.034906 41.805370 2.050000
v 21.865818 42.156487 2.725000
v 35.990959 49.025723 2.240194
v 35.611679 48.776154 2.724999
v 35.780769 48.425037 2.050000
v 19.750698 45.511433 4.480385
v 20.325222 45.355564 4.775001
v 19.987045 46.057796 4.775000
v 34.307430 52.521595 4.480385
v 33.732906 52.677464 4.775001
v 34.071087 51.975231 4.775000
v 18.067173 49.007305 2.240194
v 18.446449 49.256874 2.724999
v 18.277361 49.607990 2.050000
v 32.623913 56.017467 2.240194
v 32.023224 56.227657 2.050000
v 32.192314 55.876541 2.725000
v 18.067175 49.007305 -2.240194
v 18.277361 49.607990 -2.050000
v 18.446449 49.256874 -2.725000
v 32.623909 56.017467 -2.240194
v 32.192314 55.876541 -2.725000
v 32.023224 56.227657 -2.050000
v 13.667906 53.139011 -4.480385
v 13.643788 53.733818 -4.775001
v 14.253165 53.247856 -4.775000
v 23.741486 65.770874 -4.480385
v 23.765604 65.176071 -4.774999
v 23.156225 65.662033 -4.775000
v 16.701511 50.719795 -2.240192
v 17.029217 51.034031 -2.725000
v 17.333906 50.791050 -2.050000
v 26.775089 63.351658 -2.240192
v 26.846342 62.719261 -2.050000
v 26.541653 62.962242 -2.725000
v 16.701511 50.719795 2.240192
v 17.333906 50.791050 2.050000
v 17.029217 51.034031 2.725000
v 26.775089 63.351658 2.240192
v 26.541653 62.962242 2.725000
v 26.846342 62.719261 2.050000
v 13.667906 53.139011 4.480385
v 14.253165 53.247856 4.775000
v 13.643788 53.733818 4.775000
v 23.741482 65.770874 4.480385
v 23.156225 65.662033 4.775001
v 23.765604 65.176071 4.775000
v 10.634300 55.558231 2.240192
v 10.867736 55.947647 2.725001
v 10.563047 56.190628 2.050000
v 20.707882 68.190094 2.240194
v 20.075483 68.118843 2.050000
v 20.380173 67.875862 2.725000
v 10.634300 55.558231 -2.240192
v 10.563046 56.190628 -2.050000
v 10.867736 55.947647 -2.725000
v 20.707878 68.190094 -2.240194
v 20.380173 67.875862 -2.725001
v 20.075485 68.118843 -2.050000
v 4.878019 57.372002 -4.480384
v 4.598212 57.897438 -4.775000
v 5.358093 57.723999 -4.775000
v 8.473238 73.123680 -4.480385
v 8.753043 72.598244 -4.775001
v 7.993163 72.771675 -4.775000
v 8.660862 56.508591 -2.240193
v 8.819773 56.933891 -2.725001
v 9.199714 56.847172 -2.050000
v 12.256082 72.260262 -2.240193
v 12.594665 71.721413 -2.050000
v 12.214724 71.808128 -2.725000
v 8.660862 56.508591 2.240193
v 9.199715 56.847172 2.050000
v 8.819773 56.933891 2.725000
v 12.256082 72.260269 2.240193
v 12.214725 71.808128 2.725000
v 12.594665 71.721413 2.050000
v 4.878018 57.372002 4.480384
v 5.358093 57.723999 4.775000
v 4.598212 57.897438 4.775000
v 8.473238 73.123680 4.480385
v 7.993163 72.771675 4.775000
v 8.753043 72.598244 4.775000
v 1.095175 58.235409 2.240193
v 1.136532 58.687542 2.725000
v 0.756591 58.774261 2.050000
v 4.690394 73.987099 2.240192
v 4.151542 73.648506 2.050000
v 4.531481 73.561790 2.725000
v 1.095175 58.235409 -2.240193
v 0.756591 58.774261 -2.050000
v 1.136532 58.687542 -2.725000
v 4.690394 73.987091 -2.240192
v 4.531482 73.561790 -2.725000
v 4.151541 73.648506 -2.050000
v -4.878018 57.372002 -4.480384
v -5.358093 57.723999 -4.775000
v -4.598212 57.897438 -4.775000
v -8.473238 73.123680 -4.480385
v -7.993163 72.771675 -4.775000
v -8.753043 72.598244 -4.775000
v -1.095175 58.235409 -2.240193
v -1.136532 58.687542 -2.725000
v -0.756591 58.774261 -2.050000
v -4.690394 73.987099 -2.240192
v -4.151542 73.648506 -2.050000
v -4.531481 73.561790 -2.725000
v -1.095175 58.235409 2.240193
v -0.756591 58.774261 2.050000
v -1.136532 58.687542 2.725000
v -4.690394 73.987091 2.240192
v -4.531482 73.561790 2.725000
v -4.151541 73.648506 2.050000
v -4.878019 57.372002 4.480384
v -4.598212 57.897438 4.775000
v -5.358093 57.723999 4.775000
v -8.473238 73.123680 4.480385
v -8.753043 72.598244 4.775001
v -7.993163 72.771675 4.775000
v -8.660862 56.508591 2.240193
v -8.819773 56.933891 2.725001
v -9.199714 56.847172 2.050000
v -12.256082 72.260262 2.240193
v -12.594665 71.721413 2.050000
v -12.214724 71.808128 2.725000
v -8.660862 56.508591 -2.240193
v -9.199715 56.847172 -2.050000
v -8.819773 56.933891 -2.725000
v -12.256082 72.260269 -2.240193
v -12.214725 71.808128 -2.725000
v -12.594665 71.721413 -2.050000
v -13.667906 53.139011 -4.480385
v -14.253165 53.247856 -4.775000
v -13.643788 53.733818 -4.775000
v -23.741482 65.770874 -4.480385
v -23.156225 65.662033 -4.775001
v -23.765604 65.176071 -4.775000
v -10.634300 55.558231 -2.240192
v -10.867736 55.947647 -2.725001
v -10.563047 56.190628 -2.050000
v -20.707882 68.190094 -2.240194
v -20.075483 68.118843 -2.050000
v -20.380173 67.875862 -2.725000
v -10.634300 55.558231 2.240192
v -10.563046 56.190628 2.050000
v -10.867736 55.947647 2.725000
v -20.707878 68.190094 2.240194
v -20.380173 67.875862 2.725001
v -20.075485 68.118843 2.050000
v -13.667906 53.139011 4.480385
v -13.643788 53.733818 4.775001
v -14.253165 53.247856 4.775000
v -23.741486 65.770874 4.480385
v -23.765604 65.176071 4.774999
v -23.156225 65.662033 4.775000
v -16.701511 50.719795 2.240192
v -17.029217 51.034031 2.725000
v -17.333906 50.791050 2.050000
v -26.775089 63.351658 2.240192
v -26.846342 62.719261 2.050000
v -26.541653 62.962242 2.725000
v -16.701511 50.719795 -2.240192
v -17.333906 50.791050 -2.050000
v -17.029217 51.034031 -2.725000
v -26.775089 63.351658 -2.240192
v -26.541653 62.962242 -2.725000
v -26.846342 62.719261 -2.050000
v -19.750696 45.511436 -4.480385
v -20.325220 45.355568 -4.775001
v -19.987043 46.057800 -4.775000
v -34.307434 52.521591 -4.480385
v -33.732906 52.677460 -4.775001
v -34.071087 51.975227 -4.775000
v -18.067173 49.007305 -2.240194
v -18.446449 49.256874 -2.725000
v -18.277361 49.607990 -2.050000
v -32.623913 56.017464 -2.240194
v -32.023228 56.227654 -2.050000
v -32.192318 55.876537 -2.725000
v -18.067175 49.007305 2.240194
v -18.277361 49.607990 2.050000
v -18.446449 49.256874 2.725000
v -32.623913 56.017464 2.240194
v -32.192318 55.876537 2.725000
v -32.023228 56.227654 2.050000
v -19.750696 45.511436 4.480385
v -19.987043 46.057800 4.775001
v -20.325220 45.355568 4.775000
v -34.307438 52.521591 4.480385
v -34.071087 51.975227 4.775000
v -33.732906 52.677460 4.775000
v -21.434219 42.015564 2.240194
v -21.865814 42.156490 2.724999
v -22.034903 41.805374 2.050000
v -35.990955 49.025723 2.240194
v -35.780769 48.425037 2.050000
v -35.611679 48.776154 2.725000
v -21.434217 42.015564 -2.240194
v -22.034903 41.805374 -2.050000
v -21.865814 42.156490 -2.725000
v -35.990959 49.025723 -2.240194
v -35.611679 48.776154 -2.724999
v -35.780769 48.425037 -2.050000
v -21.921619 36.000000 -4.480386
v -22.371620 35.610287 -4.774999
v -22.371620 36.389713 -4.775000
v -38.078381 36.000000 -4.480386
v -37.628380 36.389713 -4.774999
v -37.628380 35.610287 -4.775000
v -21.921619 39.880127 -2.240194
v -22.371620 39.940414 -2.725001
v -22.371620 40.330128 -2.050000
v -38.078381 39.880127 -2.240194
v -37.628380 40.330128 -2.050000
v -37.628380 39.940414 -2.725000
v -21.921619 39.880127 2.240194
v -22.371620 40.330128 2.050000
v -22.371620 39.940414 2.725000
v -38.078381 39.880127 2.240194
v -37.628380 39.940414 2.725001
v -37.628380 40.330128 2.050000
v -21.921619 36.000000 4.480386
v -22.371620 36.389713 4.774999
v -22.371620 35.610287 4.775000
v -38.078381 36.000000 4.480386
v -37.628380 35.610287 4.774999
v -37.628380 36.389713 4.775000
v -21.921619 32.119873 2.240192
v -22.371620 32.059586 2.725000
v -22.371620 31.669874 2.050000
v -38.078381 32.119873 2.240193
v -37.628380 31.669872 2.050000
v -37.628380 32.059586 2.725000
v -21.921619 32.119873 -2.240192
v -22.371620 31.669874 -2.050000
v -22.371620 32.059586 -2.725000
v -38.078381 32.119873 -2.240193
v -37.628380 32.059586 -2.725001
v -37.628380 31.669872 -2.050000
v -19.750696 26.488567 -4.480384
v -19.987041 25.942202 -4.775000
v -20.325222 26.644438 -4.775000
v -34.307434 19.478409 -4.480384
v -34.071087 20.024775 -4.775000
v -33.732906 19.322538 -4.775000
v -21.434219 29.984442 -2.240192
v -21.865812 29.843512 -2.725000
v -22.034903 30.194630 -2.050000
v -35.990959 22.974283 -2.240191
v -35.780769 23.574966 -2.050000
v -35.611679 23.223848 -2.725000
v -21.434219 29.984442 2.240192
v -22.034903 30.194630 2.050000
v -21.865812 29.843512 2.725000
v -35.990959 22.974283 2.240191
v -35.611679 23.223848 2.725000
v -35.780769 23.574966 2.050000
v -19.750696 26.488567 4.480384
v -20.325222 26.644438 4.775000
v -19.987041 25.942202 4.775000
v -34.307438 19.478409 4.480384
v -33.732906 19.322538 4.775000
v -34.071087 20.024775 4.775000
v -18.067173 22.992693 2.240192
v -18.446451 22.743128 2.725000
v -18.277361 22.392010 2.050000
v -32.623913 15.982537 2.240194
v -32.023228 15.772347 2.050000
v -32.192318 16.123466 2.725000
v -18.067173 22.992693 -2.240192
v -18.277361 22.392010 -2.050000
v -18.446451 22.743128 -2.725000
v -32.623913 15.982536 -2.240194
v -32.192318 16.123466 -2.725001
v -32.023228 15.772348 -2.050000
v -13.667907 18.860989 -4.480385
v -13.643788 18.266184 -4.775000
v -14.253165 18.752146 -4.775000
v -23.741482 6.229122 -4.480384
v -23.765600 6.823928 -4.775000
v -23.156221 6.337965 -4.775000
v -16.701513 21.280207 -2.240192
v -17.029219 20.965973 -2.725001
v -17.333908 21.208954 -2.050000
v -26.775087 8.648341 -2.240192
v -26.846340 9.280735 -2.050000
v -26.541651 9.037754 -2.725000
v -16.701513 21.280207 2.240192
v -17.333908 21.208954 2.050000
v -17.029219 20.965973 2.725000
v -26.775087 8.648341 2.240192
v -26.541651 9.037754 2.725000
v -26.846340 9.280735 2.050000
v -13.667907 18.860989 4.480385
v -14.253165 18.752146 4.775000
v -13.643788 18.266184 4.775000
v -23.741482 6.229123 4.480384
v -23.156221 6.337965 4.775000
v -23.765600 6.823928 4.775000
v -10.634301 16.441771 2.240192
v -10.867736 16.052357 2.725000
v -10.563047 15.809376 2.050000
v -20.707876 3.809903 2.240192
v -20.075481 3.881157 2.050000
v -20.380171 4.124139 2.725000
v -10.634301 16.441771 -2.240192
v -10.563047 15.809376 -2.050000
v -10.867736 16.052357 -2.725000
v -20.707876 3.809903 -2.240192
v -20.380171 4.124139 -2.725001
v -20.075481 3.881158 -2.050000
v -4.878019 14.628002 -4.480385
v -4.598213 14.102566 -4.775000
v -5.358094 14.276003 -4.775000
v -8.473237 -1.123677 -4.480385
v -8.753043 -0.598241 -4.775000
v -7.993162 -0.771679 -4.775000
v -8.660863 15.491411 -2.240193
v -8.819775 15.066109 -2.725000
v -9.199716 15.152827 -2.050000
v -12.256081 -0.260268 -2.240193
v -12.594664 0.278584 -2.050000
v -12.214723 0.191865 -2.725000
v -8.660863 15.491411 2.240193
v -9.199716 15.152827 2.050000
v -8.819775 15.066109 2.725000
v -12.256081 -0.260268 2.240193
v -12.214724 0.191865 2.725000
v -12.594664 0.278584 2.050000
v -4.878019 14.628002 4.480385
v -5.358094 14.276003 4.775000
v -4.598213 14.102566 4.775000
v -8.473237 -1.123677 4.480385
v -7.993162 -0.771679 4.775000
v -8.753043 -0.598241 4.775000
v -1.095176 13.764593 2.240192
v -1.136533 13.312459 2.725000
v -0.756592 13.225740 2.050000
v -4.690393 -1.987086 2.240192
v -4.151541 -1.648503 2.050000
v -4.531482 -1.561784 2.725000
v -1.095176 13.764592 -2.240192
v -0.756592 13.225740 -2.050000
v -1.136533 13.312459 -2.725000
v -4.690393 -1.987086 -2.240192
v -4.531482 -1.561784 -2.725000
v -4.151541 -1.648503 -2.050000
v 4.878023 14.628003 -4.480385
v 5.358098 14.276004 -4.775000
v 4.598217 14.102567 -4.775000
v 8.473233 -1.123678 -4.480385
v 7.993158 -0.771680 -4.775000
v 8.753040 -0.598242 -4.775000
v 1.095179 13.764595 -2.240192
v 1.136536 13.312462 -2.725000
v 0.756595 13.225743 -2.050000
v 4.690390 -1.987085 -2.240192
v 4.151537 -1.648502 -2.050000
v 4.531478 -1.561783 -2.725000
v 1.095179 13.764595 2.240192
v 0.756595 13.225743 2.050000
v 1.136536 13.312462 2.725000
v 4.690390 -1.987086 2.240192
v 4.531478 -1.561783 2.725000
v 4.151537 -1.648502 2.050000
v 4.878023 14.628003 4.480385
v 4.598217 14.102567 4.775000
v 5.358098 14.276004 4.775000
v 8.473233 -1.123678 4.480385
v 8.753040 -0.598242 4.775000
v 7.993158 -0.771680 4.775000
v 8.660867 15.491411 2.240193
v 8.819777 15.066109 2.725000
v 9.199718 15.152827 2.050000
v 12.256078 -0.260271 2.240193
v 12.594662 0.278581 2.050000
v 12.214721 0.191862 2.725000
v 8.660867 15.491411 -2.240193
v 9.199718 15.152827 -2.050000
v 8.819777 15.066109 -2.725000
v 12.256078 -0.260270 -2.240193
v 12.214721 0.191862 -2.725000
v 12.594662 0.278581 -2.050000
v 13.667908 18.860991 -4.480385
v 14.253166 18.752148 -4.775000
v 13.643789 18.266186 -4.775000
v 23.741482 6.229121 -4.480384
v 23.156221 6.337964 -4.775000
v 23.765600 6.823927 -4.775000
v 10.634302 16.441772 -2.240192
v 10.867737 16.052359 -2.725000
v 10.563048 15.809378 -2.050000
v 20.707874 3.809901 -2.240192
v 20.075480 3.881156 -2.050000
v 20.380169 4.124138 -2.725000
v 10.634302 16.441772 2.240192
v 10.563048 15.809378 2.050000
v 10.867737 16.052359 2.725000
v 20.707874 3.809902 2.240192
v 20.380169 4.124138 2.725000
v 20.075480 3.881157 2.050000
v 13.667909 18.860991 4.480384
v 13.643789 18.266186 4.775000
v 14.253166 18.752148 4.775000
v 23.741482 6.229120 4.480384
v 23.765600 6.823926 4.775000
v 23.156221 6.337964 4.775000
v 16.701515 21.280209 2.240192
v 17.029221 20.965975 2.725001
v 17.333910 21.208956 2.050000
v 26.775087 8.648339 2.240192
v 26.846340 9.280734 2.050000
v 26.541653 9.037752 2.725000
v 16.701515 21.280209 -2.240192
v 17.333910 21.208956 -2.050000
v 17.029221 20.965975 -2.725000
v 26.775087 8.648339 -2.240192
v 26.541653 9.037752 -2.725000
v 26.846340 9.280734 -2.050000
v 19.750696 26.488567 -4.480384
v 20.325222 26.644438 -4.775000
v 19.987041 25.942202 -4.775000
v 34.307438 19.478409 -4.480384
v 33.732906 19.322538 -4.775000
v 34.071087 20.024775 -4.775000
v 18.067173 22.992693 -2.240192
v 18.446451 22.743128 -2.725000
v 18.277361 22.392010 -2.050000
v 32.623913 15.982537 -2.240194
v 32.023228 15.772347 -2.050000
v 32.192318 16.123466 -2.725000
v 18.067173 22.992693 2.240192
v 18.277361 22.392010 2.050000
v 18.446451 22.743128 2.725000
v 32.623913 15.982536 2.240194
v 32.192318 16.123466 2.725001
v 32.023228 15.772348 2.050000
v 19.750696 26.488567 4.480384
v 19.987041 25.942202 4.775000
v 20.325222 26.644438 4.775000
v 34.307434 19.478409 4.480384
v 34.071087 20.024775 4.775000
v 33.732906 19.322538 4.775000
v 21.434219 29.984442 2.240192
v 21.865812 29.843512 2.725000
v 22.034903 30.194630 2.050000
v 35.990959 22.974283 2.240191
v 35.780769 23.574966 2.050000
v 35.611679 23.223848 2.725000
v 21.434219 29.984442 -2.240192
v 22.034903 30.194630 -2.050000
v 21.865812 29.843512 -2.725000
v 35.990959 22.974283 -2.240191
v 35.611679 23.223848 -2.725000
v 35.780769 23.574966 -2.050000
v -12.550000 0.000000 -8.550000
v -13.000000 0.450000 -8.550000
v -12.550000 0.450000 -9.000000
v -12.550000 12.000000 -8.550000
v -12.550000 11.550000 -9.000000
v -13.000000 11.550000 -8.550000
v 12.550000 0.000000 8.550000
v 13.000000 0.450000 8.550000
v 12.550000 0.450000 9.000000
v 12.550000 12.000000 8.550000
v 12.550000 11.550000 9.000000
v 13.000000 11.550000 8.550000
v 12.550000 0.000000 -8.550000
v 12.550000 0.450000 -9.000000
v 13.000000 0.450000 -8.550000
v 12.550000 12.000000 -8.550000
v 13.000000 11.550000 -8.550000
v 12.550000 11.550000 -9.000000
v 26.775087 8.648339 2.240192
v -12.550000 12.000000 -8.550000
v 12.550000 12.000000 -8.550000
v 12.550000 11.550000 -9.000000
v 16.701515 21.280209 -2.240192
v 26.775087 8.648339 -2.240192
v -13.000000 11.550000 8.550000
v 19.750696 26.488567 4.480384
v 13.000000 11.550000 -8.550000
v 34.307434 19.478409 4.480384
v -13.000000 0.450000 8.550000
v 21.434219 29.984442 2.240192
v 13.000000 0.450000 -8.550000
v 35.990959 22.974283 2.240191
v 21.434219 29.984442 -2.240192
v 35.990959 22.974283 -2.240191
vn 0.0594 0.9304 0.3617
vn 0.4606 -0.4606 -0.7588
vn -0.4606 -0.7588 -0.4606
vn 0.4606 -0.7588 -0.4606
vn 0.4304 -0.5398 0.7235
vn -0.7588 0.4606 -0.4606
vn -0.7588 -0.4606 -0.4606
vn -0.4606 -0.4606 -0.7588
vn -0.4606 0.4606 -0.7588
vn -0.4304 0.5398 0.7235
vn -0.6220 0.2995 -0.7235
vn 0.7644 -0.5336 -0.3617
vn 0.4572 0.8125 -0.3617
vn 0.6220 -0.2995 -0.7235
vn 0.7644 -0.5336 0.3617
vn 0.4572 0.8125 0.3617
vn -0.4606 -0.4606 0.7588
vn 0.4606 -0.7588 0.4606
vn -0.4606 -0.7588 0.4606
vn 0.1536 -0.6731 0.7235
vn -0.4606 0.4606 0.7588
vn -0.4606 0.7588 0.4606
vn 0.4606 0.7588 0.4606
vn -0.1536 0.6731 0.7235
vn -0.4304 0.5398 -0.7235
vn 0.4572 -0.8125 -0.3617
vn 0.7644 0.5336 -0.3617
vn 0.4304 -0.5398 -0.7235
vn 0.4572 -0.8125 0.3617
vn 0.7644 0.5336 0.3617
vn 0.7588 0.4606 0.4606
vn 0.7588 -0.4606 0.4606
vn 0.4606 -0.4606 0.7588
vn 0.4606 0.4606 0.7588
vn -0.1536 -0.6731 0.7235
vn 0.3502 -0.8640 0.3617
vn 0.3502 -0.8640 -0.3617
vn 0.1536 0.6731 0.7235
vn -0.1536 0.6731 -0.7235
vn 0.0594 -0.9304 -0.3617
vn 0.9203 0.1491 -0.3617
vn 0.1536 -0.6731 -0.7235
vn 0.0594 -0.9304 0.3617
vn 0.9203 0.1491 0.3617
vn -0.8938 -0.2649 -0.3617
vn -0.8938 -0.2649 0.3617
vn -0.4304 -0.5398 0.7235
vn -0.0594 -0.9304 0.3617
vn -0.0594 -0.9304 -0.3617
vn 0.4304 0.5398 0.7235
vn 0.1536 0.6731 -0.7235
vn -0.3502 -0.8640 -0.3617
vn 0.8938 -0.2649 -0.3617
vn -0.1536 -0.6731 -0.7235
vn -0.3502 -0.8640 0.3617
vn 0.8938 -0.2649 0.3617
vn -0.9203 0.1491 -0.3617
vn -0.9203 0.1491 0.3617
vn -0.6220 -0.2995 0.7235
vn -0.4572 -0.8125 0.3617
vn -0.4572 -0.8125 -0.3617
vn 0.6220 0.2995 0.7235
vn 0.4304 0.5398 -0.7235
vn -0.6904 -0.6265 -0.3617
vn 0.6904 -0.6265 -0.3617
vn -0.4304 -0.5398 -0.7235
vn -0.6904 -0.6265 0.3617
vn 0.6904 -0.6265 0.3617
vn -0.7644 0.5336 -0.3617
vn -0.7644 0.5336 0.3617
vn -0.6904 -0.0000 0.7235
vn -0.7644 -0.5336 0.3617
vn -0.7644 -0.5336 -0.3617
vn 0.6904 -0.0000 0.7235
vn 0.6220 0.2995 -0.7235
vn -0.6220 -0.2995 -0.7235
vn -0.4572 0.8125 -0.3617
vn -0.4572 0.8125 0.3617
vn -0.6220 0.2995 0.7235
vn -0.9203 -0.1491 0.3617
vn -0.9203 -0.1491 -0.3617
vn 0.6220 -0.2995 0.7235
vn 0.6904 -0.0000 -0.7235
vn -0.6904 -0.0000 -0.7235
vn -0.0594 0.9304 -0.3617
vn -0.0594 0.9304 0.3617
vn -0.8938 0.2649 0.3617
vn -0.8938 0.2649 -0.3617
vn 0.3502 0.8640 -0.3617
vn 0.3502 0.8640 0.3617
vn -0.6904 0.6265 0.3617
vn -0.6904 0.6265 -0.3617
vn 0.6904 0.6265 -0.3617
vn 0.6904 0.6265 0.3617
vn -0.3502 0.8640 0.3617
vn -0.3502 0.8640 -0.3617
vn 0.8938 0.2649 -0.3617
vn 0.8938 0.2649 0.3617
vn 0.0594 0.9304 -0.3617
vn 0.9203 -0.1491 -0.3617
vn 0.9203 -0.1491 0.3617
vn -0.0000 -0.0000 1.0000
vn -0.0000 1.0000 -0.0000
vn -1.0000 -0.0000 -0.0000
vn -0.0000 -1.0000 -0.0000
vn -0.3400 0.2677 -0.9015
vn -0.3400 -0.2677 -0.9015
vn 1.0000 -0.0000 -0.0000
vn 0.3400 -0.2677 -0.9015
vn 0.3400 0.2677 -0.9015
vn -0.3400 -0.6469 -0.6826
vn -0.3400 -0.9146 -0.2189
vn 0.3400 -0.9146 -0.2189
vn 0.3400 -0.6469 -0.6826
vn -0.3400 -0.9146 0.2189
vn -0.3400 -0.6469 0.6826
vn 0.3400 -0.6469 0.6826
vn 0.3400 -0.9146 0.2189
vn -0.3400 -0.2677 0.9015
vn -0.3400 0.2677 0.9015
vn 0.3400 0.2677 0.9015
vn 0.3400 -0.2677 0.9015
vn -0.3400 0.6469 0.6826
vn -0.3400 0.9146 0.2189
vn 0.3400 0.9146 0.2189
vn 0.3400 0.6469 0.6826
vn -0.3400 0.9146 -0.2189
vn -0.3400 0.6469 -0.6826
vn 0.3400 0.6469 -0.6826
vn 0.3400 0.9146 -0.2189
vn -0.9010 -0.4339 -0.0000
vn -0.4225 0.0937 -0.9015
vn -0.1902 -0.3887 -0.9015
vn 0.9010 0.4339 -0.0000
vn 0.4225 -0.0937 -0.9015
vn 0.1902 0.3887 -0.9015
vn -0.0257 -0.7303 -0.6826
vn 0.0905 -0.9715 -0.2189
vn 0.7031 -0.6765 -0.2189
vn 0.5870 -0.4353 -0.6826
vn 0.0905 -0.9715 0.2189
vn -0.0256 -0.7303 0.6826
vn 0.5870 -0.4353 0.6826
vn 0.7031 -0.6765 0.2189
vn -0.1902 -0.3887 0.9015
vn -0.4225 0.0937 0.9015
vn 0.1902 0.3887 0.9015
vn 0.4225 -0.0937 0.9015
vn -0.5870 0.4353 0.6826
vn -0.7031 0.6765 0.2189
vn -0.0905 0.9715 0.2189
vn 0.0257 0.7303 0.6826
vn -0.7031 0.6765 -0.2189
vn -0.5870 0.4353 -0.6826
vn 0.0257 0.7303 -0.6826
vn -0.0905 0.9715 -0.2189
vn -0.6235 -0.7818 -0.0000
vn -0.4213 -0.0989 -0.9015
vn -0.0027 -0.4327 -0.9015
vn 0.6235 0.7818 -0.0000
vn 0.4213 0.0989 -0.9015
vn 0.0027 0.4327 -0.9015
vn 0.2938 -0.6691 -0.6826
vn 0.5031 -0.8361 -0.2189
vn 0.9270 -0.3044 -0.2189
vn 0.7177 -0.1375 -0.6826
vn 0.5031 -0.8361 0.2189
vn 0.2938 -0.6691 0.6826
vn 0.7177 -0.1375 0.6826
vn 0.9270 -0.3044 0.2189
vn -0.0027 -0.4327 0.9015
vn -0.4213 -0.0989 0.9015
vn 0.0027 0.4327 0.9015
vn 0.4213 0.0989 0.9015
vn -0.7177 0.1375 0.6826
vn -0.9270 0.3044 0.2189
vn -0.5031 0.8361 0.2189
vn -0.2938 0.6691 0.6826
vn -0.9270 0.3044 -0.2189
vn -0.7177 0.1375 -0.6826
vn -0.2938 0.6691 -0.6826
vn -0.5031 0.8361 -0.2189
vn -0.2225 -0.9749 -0.0000
vn -0.3367 -0.2719 -0.9015
vn 0.1854 -0.3910 -0.9015
vn 0.2225 0.9749 -0.0000
vn 0.3367 0.2719 -0.9015
vn -0.1854 0.3910 -0.9015
vn 0.5550 -0.4754 -0.6826
vn 0.8160 -0.5350 -0.2189
vn 0.9673 0.1279 -0.2189
vn 0.7063 0.1875 -0.6826
vn 0.8160 -0.5350 0.2189
vn 0.5550 -0.4754 0.6826
vn 0.7063 0.1875 0.6826
vn 0.9673 0.1279 0.2189
vn 0.1854 -0.3910 0.9015
vn -0.3367 -0.2719 0.9015
vn -0.1854 0.3910 0.9015
vn 0.3367 0.2719 0.9015
vn -0.7063 -0.1875 0.6826
vn -0.9673 -0.1279 0.2189
vn -0.8160 0.5350 0.2189
vn -0.5550 0.4754 0.6826
vn -0.9673 -0.1279 -0.2189
vn -0.7063 -0.1875 -0.6826
vn -0.5550 0.4754 -0.6826
vn -0.8160 0.5350 -0.2189
vn 0.2225 -0.9749 -0.0000
vn -0.1854 -0.3910 -0.9015
vn 0.3367 -0.2719 -0.9015
vn -0.2225 0.9749 -0.0000
vn 0.1854 0.3910 -0.9015
vn -0.3367 0.2719 -0.9015
vn 0.7063 -0.1875 -0.6826
vn 0.9673 -0.1279 -0.2189
vn 0.8160 0.5350 -0.2189
vn 0.5550 0.4754 -0.6826
vn 0.9673 -0.1279 0.2189
vn 0.7063 -0.1875 0.6826
vn 0.5550 0.4754 0.6826
vn 0.8160 0.5350 0.2189
vn 0.3367 -0.2719 0.9015
vn -0.1854 -0.3910 0.9015
vn -0.3367 0.2719 0.9015
vn 0.1854 0.3910 0.9015
vn -0.5550 -0.4754 0.6826
vn -0.8160 -0.5350 0.2189
vn -0.9673 0.1279 0.2189
vn -0.7063 0.1875 0.6826
vn -0.8160 -0.5350 -0.2189
vn -0.5550 -0.4754 -0.6826
vn -0.7063 0.1875 -0.6826
vn -0.9673 0.1279 -0.2189
vn 0.6235 -0.7818 -0.0000
vn 0.0027 -0.4327 -0.9015
vn 0.4213 -0.0989 -0.9015
vn -0.6235 0.7818 -0.0000
vn -0.0027 0.4327 -0.9015
vn -0.4213 0.0989 -0.9015
vn 0.7177 0.1375 -0.6826
vn 0.9270 0.3044 -0.2189
vn 0.5031 0.8361 -0.2189
vn 0.2938 0.6691 -0.6826
vn 0.9270 0.3044 0.2189
vn 0.7177 0.1375 0.6826
vn 0.2938 0.6691 0.6826
vn 0.5031 0.8361 0.2189
vn 0.4213 -0.0989 0.9015
vn 0.0027 -0.4327 0.9015
vn -0.4213 0.0989 0.9015
vn -0.0027 0.4327 0.9015
vn -0.2938 -0.6691 0.6826
vn -0.5031 -0.8361 0.2189
vn -0.9270 -0.3044 0.2189
vn -0.7177 -0.1375 0.6826
vn -0.5031 -0.8361 -0.2189
vn -0.2938 -0.6691 -0.6826
vn -0.7177 -0.1375 -0.6826
vn -0.9270 -0.3044 -0.2189
vn 0.9010 -0.4339 -0.0000
vn 0.1902 -0.3887 -0.9015
vn 0.4225 0.0937 -0.9015
vn -0.9010 0.4339 -0.0000
vn -0.1902 0.3887 -0.9015
vn -0.4225 -0.0937 -0.9015
vn 0.5870 0.4353 -0.6826
vn 0.7031 0.6765 -0.2189
vn 0.0905 0.9715 -0.2189
vn -0.0256 0.7303 -0.6826
vn 0.7031 0.6765 0.2189
vn 0.5870 0.4353 0.6826
vn -0.0257 0.7303 0.6826
vn 0.0905 0.9715 0.2189
vn 0.4225 0.0937 0.9015
vn 0.1902 -0.3887 0.9015
vn -0.4225 -0.0937 0.9015
vn -0.1902 0.3887 0.9015
vn 0.0257 -0.7303 0.6826
vn -0.0905 -0.9715 0.2189
vn -0.7031 -0.6765 0.2189
vn -0.5870 -0.4353 0.6826
vn -0.0905 -0.9715 -0.2189
vn 0.0257 -0.7303 -0.6826
vn -0.5870 -0.4353 -0.6826
vn -0.7031 -0.6765 -0.2189
vn -0.7032 0.6765 -0.2189
vn -0.0257 -0.7303 0.6826
vn -0.0256 -0.7303 -0.6826
vn 0.9673 -0.1280 0.2189
vn 0.0256 -0.7303 0.6826
vn 0.7032 0.6765 0.2189
vn -0.0257 0.7303 -0.6826
vn -0.0000 -0.0000 -1.0000
vn -0.4606 0.7588 -0.4606
vn 0.4606 0.7588 -0.4606
vn 0.4606 0.4606 -0.7588
vn -0.7588 0.4606 0.4606
vn 0.7588 0.4606 -0.4606
vn -0.7588 -0.4606 0.4606
vn 0.7588 -0.4606 -0.4606
vt -0.427500 0.000000
vt -0.450000 0.022500
vt -0.427500 0.022500
vt 1.903919 1.800000
vt 1.881419 1.780514
vt 1.881419 1.819486
vt 1.096081 1.800000
vt 1.118581 1.819486
vt 1.118581 1.780514
vt -0.627500 -0.450000
vt -0.627500 -0.427500
vt -0.650000 -0.427500
vt 1.096081 0.112010
vt 1.118581 0.136250
vt 1.118581 0.102500
vt 1.903919 0.112010
vt 1.881419 0.102500
vt 1.881419 0.136250
vt 1.096081 -0.112010
vt 1.118581 -0.102500
vt 1.118581 -0.136250
vt 1.903919 -0.112010
vt 1.881419 -0.136250
vt 1.881419 -0.102500
vt 1.096081 -0.112010
vt 1.118581 -0.136250
vt 1.903919 -0.112010
vt 1.881419 -0.136250
vt 1.096081 0.112010
vt 1.118581 0.136250
vt 1.903919 0.112010
vt 1.881419 0.136250
vt 0.987535 2.275572
vt 0.999352 2.302890
vt 1.016261 2.267778
vt 1.715372 2.626080
vt 1.703554 2.598762
vt 1.686645 2.633873
vt 1.071711 0.112010
vt 1.093291 0.136250
vt 1.101745 0.102500
vt 0.112010 2.451286
vt 0.102500 2.421252
vt 0.136250 2.438808
vt 1.071711 -0.112010
vt 1.101745 -0.102500
vt 1.093291 -0.136250
vt -0.112010 2.451286
vt -0.136250 2.438808
vt -0.102500 2.421252
vt 1.715371 2.626080
vt -0.112010 2.450365
vt -0.136250 2.462844
vt -0.102500 2.480400
vt 1.631196 -0.112010
vt 1.601161 -0.102500
vt 1.609616 -0.136250
vt 0.112010 2.450365
vt 0.102500 2.480400
vt 0.136250 2.462844
vt 1.631195 0.112010
vt 1.609616 0.136250
vt 1.601161 0.102500
vt 0.683395 2.656950
vt 0.682189 2.686691
vt 0.712658 2.662393
vt 1.187074 3.288544
vt 1.188280 3.258804
vt 1.157811 3.283102
vt 0.835076 0.112010
vt 0.851461 0.136250
vt 0.866695 0.102500
vt 0.112010 3.167583
vt 0.102500 3.135963
vt 0.136250 3.148112
vt 0.835076 -0.112010
vt 0.866695 -0.102500
vt 0.851461 -0.136250
vt -0.112010 3.167583
vt -0.136250 3.148112
vt -0.102500 3.135963
vt 1.187074 3.288544
vt -0.112010 2.777912
vt -0.136250 2.797382
vt -0.102500 2.809531
vt 1.035394 -0.112010
vt 1.003774 -0.102500
vt 1.019009 -0.136250
vt 0.112010 2.777912
vt 0.102500 2.809531
vt 0.136250 2.797382
vt 1.035394 0.112010
vt 1.019009 0.136250
vt 1.003774 0.102500
vt 0.243901 2.868600
vt 0.229911 2.894872
vt 0.267905 2.886200
vt 0.423662 3.656184
vt 0.437652 3.629912
vt 0.399658 3.638584
vt 0.433043 0.112010
vt 0.440989 0.136250
vt 0.459986 0.102500
vt 0.112010 3.613013
vt 0.102500 3.586071
vt 0.136250 3.590406
vt 0.433043 -0.112010
vt 0.459986 -0.102500
vt 0.440989 -0.136250
vt -0.112010 3.613014
vt -0.136250 3.590406
vt -0.102500 3.586071
vt 0.243901 2.868600
vt -0.112010 2.911770
vt -0.136250 2.934377
vt -0.102500 2.938713
vt 0.234520 -0.112010
vt 0.207577 -0.102500
vt 0.226574 -0.136250
vt 0.112010 2.911770
vt 0.102500 2.938713
vt 0.136250 2.934377
vt 0.234520 0.112010
vt 0.226574 0.136250
vt 0.207577 0.102500
vt -0.243901 2.868600
vt -0.267905 2.886200
vt -0.229911 2.894872
vt -0.423662 3.656184
vt -0.399658 3.638584
vt -0.437652 3.629912
vt -0.234520 0.112010
vt -0.207577 0.102500
vt -0.226574 0.136250
vt -0.234520 -0.112010
vt -0.226574 -0.136250
vt -0.207577 -0.102500
vt -0.243901 2.868600
vt -0.433043 -0.112010
vt -0.440989 -0.136250
vt -0.459986 -0.102500
vt -0.112010 3.613013
vt -0.433043 0.112010
vt -0.459986 0.102500
vt -0.440989 0.136250
vt 0.112010 3.613014
vt -0.683395 2.656950
vt -0.712658 2.662393
vt -0.682189 2.686691
vt -1.187074 3.288544
vt -1.157811 3.283102
vt -1.188280 3.258804
vt 0.136250 2.797382
vt -1.035394 0.112010
vt -1.003774 0.102500
vt -1.019009 0.136250
vt -0.136250 2.797382
vt -1.035394 -0.112010
vt -1.019009 -0.136250
vt -1.003774 -0.102500
vt -1.187074 3.288544
vt -0.835076 -0.112010
vt -0.851461 -0.136250
vt -0.866695 -0.102500
vt -0.112010 3.167583
vt -0.136250 3.148112
vt -0.835076 0.112010
vt -0.866695 0.102500
vt -0.851461 0.136250
vt 0.112010 3.167583
vt 0.136250 3.148112
vt -0.987535 2.275572
vt -1.016261 2.267778
vt -0.999352 2.302890
vt -1.715372 2.626080
vt -1.686645 2.633873
vt -1.703554 2.598761
vt -1.631196 0.112010
vt -1.601161 0.102500
vt -1.609616 0.136250
vt -0.136250 2.462844
vt -1.631196 -0.112010
vt -1.609616 -0.136250
vt -1.601161 -0.102500
vt -1.715372 2.626080
vt -1.071711 -0.112010
vt -1.093291 -0.136250
vt -1.101745 -0.102500
vt -0.136250 2.438808
vt -1.071711 0.112010
vt -1.101745 0.102500
vt -1.093291 0.136250
vt 0.136250 2.438808
vt -1.096081 1.800000
vt -1.118581 1.780514
vt -1.118581 1.819486
vt -1.903919 1.800000
vt -1.881419 1.819486
vt -1.881419 1.780514
vt -1.096081 0.112010
vt -1.118581 0.136250
vt -1.118581 0.102500
vt -1.903919 0.112010
vt -1.881419 0.102500
vt -1.881419 0.136250
vt -1.096081 -0.112010
vt -1.118581 -0.102500
vt -1.118581 -0.136250
vt -1.903919 -0.112010
vt -1.881419 -0.136250
vt -1.881419 -0.102500
vt -1.096081 -0.112010
vt -1.118581 -0.136250
vt -1.903919 -0.112010
vt -1.881419 -0.136250
vt -1.096081 0.112010
vt -1.118581 0.136250
vt -1.903919 0.112010
vt -1.881419 0.136250
vt -0.987535 1.324428
vt -0.999352 1.297110
vt -1.016261 1.332222
vt -1.715372 0.973920
vt -1.703554 1.001239
vt -1.686645 0.966127
vt -1.071711 0.112010
vt -1.093291 0.136250
vt 0.112010 1.148714
vt 0.102500 1.178748
vt 0.136250 1.161192
vt -1.071711 -0.112010
vt -1.093291 -0.136250
vt -0.112010 1.148714
vt -0.136250 1.161192
vt -0.102500 1.178748
vt -1.715372 0.973920
vt -0.112010 1.149635
vt -0.136250 1.137156
vt -0.102500 1.119601
vt -1.631196 -0.112010
vt -1.609616 -0.136250
vt 0.112010 1.149635
vt 0.102500 1.119601
vt 0.136250 1.137156
vt -1.631196 0.112010
vt -1.609616 0.136250
vt -0.683395 0.943049
vt -0.682189 0.913309
vt -0.712658 0.937607
vt -1.187074 0.311456
vt -1.188280 0.341196
vt -1.157811 0.316898
vt -0.835076 0.112010
vt -0.851461 0.136250
vt -0.866695 0.102500
vt 0.112010 0.432417
vt 0.102500 0.464037
vt 0.136250 0.451888
vt -0.835076 -0.112010
vt -0.866695 -0.102500
vt -0.851461 -0.136250
vt -0.112010 0.432417
vt -0.136250 0.451888
vt -0.102500 0.464037
vt -1.187074 0.311456
vt -0.112010 0.822089
vt -0.136250 0.802618
vt -0.102500 0.790469
vt -1.035394 -0.112010
vt -1.003774 -0.102500
vt -1.019009 -0.136250
vt 0.112010 0.822089
vt 0.102500 0.790469
vt 0.136250 0.802618
vt -1.035394 0.112010
vt -1.019009 0.136250
vt -1.003774 0.102500
vt -0.243901 0.731400
vt -0.229911 0.705128
vt -0.267905 0.713800
vt -0.423662 -0.056184
vt -0.437652 -0.029912
vt -0.399658 -0.038584
vt -0.433043 0.112010
vt -0.440989 0.136250
vt -0.459986 0.102500
vt 0.112010 -0.013013
vt 0.102500 0.013929
vt 0.136250 0.009593
vt -0.433043 -0.112010
vt -0.459986 -0.102500
vt -0.440989 -0.136250
vt -0.112010 -0.013013
vt -0.136250 0.009593
vt -0.102500 0.013929
vt -0.423662 -0.056184
vt -0.437652 -0.029912
vt -0.112010 0.688230
vt -0.136250 0.665623
vt -0.102500 0.661287
vt -0.234520 -0.112010
vt 0.112010 0.688230
vt 0.102500 0.661287
vt 0.136250 0.665623
vt -0.234520 0.112010
vt -0.226574 0.136250
vt -0.207577 0.102500
vt 0.243901 0.731400
vt 0.267905 0.713800
vt 0.229911 0.705128
vt 0.423662 -0.056184
vt 0.399658 -0.038584
vt 0.437652 -0.029912
vt 0.112010 0.688230
vt 0.136250 0.665623
vt 0.102500 0.661287
vt 0.234519 0.112010
vt 0.207577 0.102500
vt 0.226574 0.136250
vt -0.112010 0.688230
vt -0.102500 0.661287
vt -0.136250 0.665623
vt 0.234519 -0.112010
vt 0.226574 -0.136250
vt 0.207577 -0.102500
vt 0.423662 -0.056184
vt 0.433043 -0.112010
vt 0.440989 -0.136250
vt 0.459986 -0.102500
vt -0.112010 -0.013014
vt -0.102500 0.013929
vt -0.136250 0.009593
vt 0.433043 0.112010
vt 0.459986 0.102500
vt 0.440989 0.136250
vt 0.112010 -0.013014
vt 0.136250 0.009593
vt 0.102500 0.013929
vt 0.683395 0.943050
vt 0.712658 0.937607
vt 0.682189 0.913309
vt 1.187074 0.311456
vt 1.157811 0.316898
vt 1.188280 0.341196
vt 0.112010 0.822089
vt 0.136250 0.802618
vt 0.102500 0.790469
vt 1.035394 0.112010
vt 1.003774 0.102500
vt 1.019008 0.136250
vt -0.112010 0.822089
vt -0.102500 0.790469
vt -0.136250 0.802618
vt 1.035394 -0.112010
vt 1.019008 -0.136250
vt 1.003774 -0.102500
vt 0.683395 0.943050
vt 1.187074 0.311456
vt 1.188280 0.341196
vt 0.835076 -0.112010
vt 0.851461 -0.136250
vt 0.866696 -0.102500
vt -0.112010 0.432417
vt -0.102500 0.464037
vt -0.136250 0.451888
vt 0.835076 0.112010
vt 0.866696 0.102500
vt 0.851461 0.136250
vt 0.112010 0.432417
vt 0.136250 0.451888
vt 0.102500 0.464037
vt 0.987535 1.324428
vt 1.016261 1.332222
vt 0.999352 1.297110
vt 1.715372 0.973920
vt 1.686645 0.966127
vt 1.703554 1.001239
vt 0.136250 1.137156
vt 1.631196 0.112010
vt 1.601161 0.102500
vt 1.609616 0.136250
vt -0.136250 1.137156
vt 1.631196 -0.112010
vt 1.609616 -0.136250
vt 1.601161 -0.102500
vt 1.715372 0.973920
vt 1.071711 -0.112010
vt 1.093291 -0.136250
vt 1.101745 -0.102500
vt -0.112010 1.148714
vt 1.071711 0.112010
vt 1.101745 0.102500
vt 1.093291 0.136250
vt 0.112010 1.148714
vt 0.427500 0.000000
vt 0.427500 0.022500
vt 0.450000 0.022500
vt -0.627500 0.427500
vt -0.627500 0.450000
vt -0.650000 0.427500
vt 0.627500 -0.427500
vt 0.627500 -0.450000
vt 0.650000 -0.427500
vt 0.627500 0.427500
vt 0.650000 0.427500
vt 0.627500 0.450000
vt 0.612804 3.613013
vt 0.610736 3.590406
vt 0.238750 1.780514
vt 0.112010 1.605994
vt 0.224019 1.800000
vt 0.238750 2.598762
vt 0.136250 1.602979
vt 0.112010 1.605994
vt 0.238750 3.258804
vt -0.238750 1.780514
vt -0.112010 1.605994
vt -0.136250 1.602979
vt 1.016261 0.238750
vt 0.987535 0.224019
vt -0.136250 1.602979
vt -0.224019 1.800000
vt -0.238750 1.780514
vt 1.789038 0.102500
vt 1.780584 0.136250
vt -0.238750 1.819486
vt -0.112010 1.994006
vt -0.238750 1.819486
vt -0.136250 1.997021
vt 0.238750 1.819486
vt 0.112010 1.994006
vt 0.136250 1.997021
vt 0.238750 1.819486
vt 1.780584 -0.136250
vt 1.789038 -0.102500
vt 0.987535 -0.224019
vt 0.683395 0.224019
vt 0.712658 0.238750
vt -0.224019 2.626080
vt -0.238750 2.598762
vt 0.102500 2.539552
vt -0.238750 2.302890
vt -0.224019 2.275572
vt 1.686645 -0.238750
vt 0.913868 -0.102500
vt 0.922322 0.136250
vt 0.238750 2.302890
vt 1.686645 0.238750
vt 1.715372 0.224019
vt -0.136250 2.551702
vt 0.683395 -0.224019
vt 0.267905 0.238750
vt 0.243901 0.224019
vt -0.238750 3.258804
vt -0.224019 3.288544
vt 0.102500 2.842359
vt -0.238750 2.686691
vt -0.224019 2.656950
vt 1.157811 -0.238750
vt -0.136250 3.393793
vt -0.102500 3.405942
vt -0.423662 0.224019
vt 0.136250 3.393793
vt 0.102500 3.405942
vt 0.238750 2.686691
vt 1.157811 0.238750
vt 1.187074 0.224019
vt -0.102500 2.842359
vt -0.056827 2.934377
vt 0.267905 -0.238750
vt 0.612804 3.613014
vt 0.056827 2.934377
vt 0.136250 3.678090
vt 0.102500 3.682425
vt 0.423662 -0.224019
vt -0.136250 3.678090
vt -0.102500 3.682425
vt -1.157811 0.238750
vt 0.054759 2.911770
vt 0.056827 2.934377
vt 0.423662 0.224019
vt 0.399658 0.238750
vt 0.238750 2.686691
vt 0.224019 2.656950
vt -0.054759 2.911770
vt -0.056827 2.934377
vt -0.423662 -0.224019
vt -0.399658 -0.238750
vt -0.267905 -0.238750
vt -0.243901 -0.224019
vt 0.136250 3.393793
vt -0.612804 3.613013
vt -0.610736 3.590406
vt -1.715372 0.224019
vt -0.267905 0.238750
vt -0.612804 3.613014
vt -0.136250 3.393793
vt 0.238750 2.302890
vt 0.224019 2.275572
vt -0.238750 2.686691
vt -1.157811 -0.238750
vt -1.187074 -0.224019
vt -0.683395 -0.224019
vt -0.712658 -0.238750
vt -0.913868 0.102500
vt -0.238750 3.258804
vt -0.102500 2.539552
vt 0.136250 2.551702
vt -0.683395 0.224019
vt 0.238750 3.258804
vt 0.224019 3.288544
vt -0.922322 -0.136250
vt -0.238750 2.302890
vt -1.686645 -0.238750
vt -1.715372 -0.224019
vt -1.016261 -0.238750
vt -0.987535 -0.224019
vt -0.238750 2.598761
vt -1.780584 -0.136250
vt -1.789038 -0.102500
vt 0.238750 1.001239
vt -1.789038 0.102500
vt -1.780584 0.136250
vt -1.016261 0.238750
vt 0.238750 2.598761
vt 0.224019 2.626080
vt -1.016261 0.238750
vt -0.987535 0.224019
vt -1.780584 0.136250
vt 0.224019 0.311456
vt 0.238750 1.780514
vt -1.780584 -0.136250
vt -0.683395 0.224019
vt -0.712658 0.238750
vt -1.016261 -0.238750
vt -0.224019 0.973920
vt -0.238750 1.001239
vt -0.224019 1.324428
vt -0.238750 1.297110
vt 0.102500 1.060448
vt -0.913868 -0.102500
vt -0.612804 -0.013013
vt -0.610736 0.009593
vt -0.922323 0.136250
vt 0.238750 1.297110
vt -1.715372 0.224019
vt -1.686645 0.238750
vt -0.136250 1.048299
vt -0.243901 0.224019
vt -0.267905 0.238750
vt -0.224019 0.311456
vt -0.238750 0.341196
vt -0.238750 0.913309
vt -0.224019 0.943049
vt 0.136250 0.753305
vt -1.187074 -0.224019
vt -0.136250 0.206207
vt -0.102500 0.194058
vt 0.399658 0.238750
vt 0.102500 0.194058
vt 0.136250 0.206207
vt 0.224019 0.943049
vt -1.187074 0.224019
vt -1.157811 0.238750
vt -0.102500 0.757641
vt 0.056827 0.665623
vt -0.267905 -0.238750
vt -0.610736 0.009593
vt -0.427500 0.577500
vt -0.450000 0.577500
vt -0.056827 0.665623
vt 0.102500 -0.082425
vt 0.136250 -0.078089
vt -0.399658 -0.238750
vt -0.136250 -0.078089
vt -0.102500 -0.082425
vt 1.187074 0.224019
vt 0.102500 -0.082425
vt 0.136250 -0.078089
vt -0.054759 0.688230
vt -0.423662 0.224019
vt -0.399658 0.238750
vt -0.102500 -0.082425
vt -0.136250 -0.078089
vt 0.238750 0.913309
vt 0.224019 0.943050
vt 0.054759 0.688230
vt 0.423662 -0.224019
vt 0.399658 -0.238750
vt 0.627500 0.000000
vt -0.627500 0.022500
vt -0.627500 0.000000
vt 0.267905 -0.238750
vt 0.243901 -0.224019
vt 0.136250 0.206207
vt 0.102500 0.194058
vt 0.610736 0.009593
vt 0.612804 -0.013014
vt 0.136250 0.753305
vt 0.243901 0.224019
vt 0.610736 0.009593
vt -0.102500 0.194058
vt -0.136250 0.206207
vt 0.224019 1.324428
vt 0.238750 1.297110
vt -0.238750 0.913309
vt 0.427500 0.577500
vt 0.450000 0.577500
vt 1.187074 -0.224019
vt 1.157811 -0.238750
vt 0.627500 0.022500
vt 0.683395 -0.224019
vt 0.712658 -0.238750
vt 0.913868 0.102500
vt -0.224019 0.311456
vt -0.136250 1.048299
vt 0.102500 1.060448
vt 0.238750 0.341196
vt 0.224019 0.311456
vt 0.922323 -0.136250
vt -0.238750 1.297110
vt 1.715372 -0.224019
vt 1.686645 -0.238750
vt 1.016261 -0.238750
vt 0.987535 -0.224019
vt -0.238750 1.001239
vt 1.780584 -0.136250
vt 1.016261 0.238750
vt 0.224019 0.973920
vt 0.238750 1.001239
vt 0.627500 0.577500
vt 1.118581 1.602979
vt 1.881419 1.997021
vt 1.118581 1.997021
vt -0.112010 1.605994
vt 1.881419 1.602979
vt 0.224019 2.275572
vt -0.112010 2.100778
vt 1.780584 2.438808
vt 1.093291 2.107824
vt 0.922322 2.462844
vt 0.112010 2.800873
vt 0.531715 0.112010
vt 0.851461 2.551702
vt 1.019009 3.393793
vt 0.543387 2.797382
vt 1.338754 -0.112010
vt 0.054759 -0.112010
vt 0.440989 2.846694
vt 0.612804 -0.112010
vt 0.610736 3.590406
vt -0.054759 0.112010
vt -0.610736 3.590406
vt -0.440989 2.846694
vt -0.612804 -0.112010
vt -0.531715 -0.112010
vt -1.019009 3.393793
vt -0.543387 2.797382
vt -0.851461 2.551702
vt -1.187074 0.224019
vt -1.338754 -0.112010
vt -0.922322 2.462844
vt -1.780584 2.438808
vt -1.093291 2.107825
vt -0.112010 2.800873
vt -1.118581 1.997021
vt -1.881419 1.602979
vt -1.118581 1.602979
vt -1.881419 1.997021
vt -0.112010 1.499222
vt -1.780584 1.161192
vt -1.093291 1.492176
vt -0.922323 1.137156
vt -0.112010 0.799127
vt -0.851461 1.048299
vt -1.019009 0.206207
vt -0.543387 0.802618
vt -1.338754 -0.112010
vt -0.102500 1.060448
vt -1.327083 0.451888
vt -0.054759 -0.112010
vt -0.440989 0.753305
vt 0.102500 0.757641
vt 0.054759 -0.112010
vt 0.440989 0.753305
vt 0.423662 0.224019
vt 0.612804 -0.112010
vt 0.226574 -0.078089
vt 0.683395 0.224019
vt 0.531715 -0.112010
vt 0.543387 0.802618
vt 1.327083 0.451888
vt 0.851461 1.048299
vt 1.338754 -0.112010
vt 1.019008 0.206207
vt -0.102500 1.060448
vt -0.112010 1.499222
vt 0.922323 1.137156
vt 1.780584 1.161192
vt 1.093291 1.492176
vt -0.112010 0.799127
vt -0.627500 0.577500
vt 0.136250 1.602979
vt 0.224019 2.626080
vt -0.136250 1.997021
vt 0.136250 1.997021
vt 1.016261 -0.238750
vt 1.715371 -0.224019
vt 0.922322 -0.136250
vt 0.712658 -0.238750
vt 0.136250 2.846694
vt 1.187074 -0.224019
vt -0.399658 0.238750
vt -0.136250 2.846694
vt -0.054759 2.911770
vt 0.243901 -0.224019
vt 0.054759 2.911770
vt 0.399658 -0.238750
vt -0.136250 2.846694
vt -1.686645 0.238750
vt 0.136250 2.846694
vt -0.243901 0.224019
vt -0.922322 0.136250
vt -0.712658 0.238750
vt -0.224019 2.275572
vt -0.224019 2.626080
vt -0.987535 0.224019
vt 0.238750 0.341196
vt -0.987535 -0.224019
vt 0.136250 1.048299
vt -1.715372 -0.224019
vt -0.922323 -0.136250
vt -0.683395 -0.224019
vt -1.157811 -0.238750
vt 0.238750 0.913309
vt -0.136250 0.753305
vt -0.243901 -0.224019
vt -0.612804 -0.013013
vt -0.054759 0.688230
vt -0.423662 -0.224019
vt 1.157811 0.238750
vt -0.136250 0.753305
vt 1.715372 0.224019
vt 0.267905 0.238750
vt 0.612804 -0.013014
vt -0.224019 0.943050
vt 0.922323 0.136250
vt -0.238750 0.341196
vt 0.136250 1.048299
vt 0.987535 0.224019
vt 0.112010 2.100778
vt 1.609616 2.793827
vt 0.531715 -0.112010
vt 1.327083 3.148112
vt 1.338754 0.112010
vt 0.054759 0.112010
vt 0.226574 3.678090
vt 0.612804 0.112010
vt 0.226574 3.678090
vt -0.054759 -0.112010
vt -0.226574 3.678090
vt -0.612804 0.112010
vt -0.226574 3.678090
vt -0.531715 0.112010
vt -1.327083 3.148112
vt -1.338754 0.112010
vt -1.609616 2.793827
vt 0.112010 1.499222
vt -1.609616 0.806173
vt 0.112010 0.799127
vt -1.338754 0.112010
vt -0.054759 0.112010
vt -0.226574 -0.078089
vt 0.054759 0.112010
vt 0.612804 0.112010
vt 0.531715 0.112010
vt 1.019008 0.206207
vt 1.338754 0.112010
vt 0.112010 1.499222
vt 1.609616 0.806173
vt 0.112010 0.799127
s 1
f 19/1/19 17/2/17 715/3/300
f 167/4/83 187/5/109 188/6/110
f 171/7/84 184/8/106 185/9/107
f 21/10/21 22/11/22 711/12/298
f 172/13/64 190/14/111 191/15/112
f 166/16/65 193/17/113 194/18/114
f 163/19/67 196/20/115 197/21/116
f 160/22/68 199/23/117 200/24/118
f 157/7/71 202/9/119 203/8/120
f 155/4/74 205/6/121 206/5/122
f 154/25/91 208/26/123 209/20/124
f 151/27/94 211/24/125 212/28/126
f 150/29/92 214/15/127 215/30/128
f 148/31/93 217/32/129 218/17/130
f 156/33/76 220/34/132 221/35/133
f 170/36/75 223/37/135 224/38/136
f 164/39/52 226/40/137 227/41/138
f 176/42/53 229/43/139 230/44/140
f 165/45/55 232/46/141 233/47/142
f 175/48/56 235/49/143 236/50/144
f 145/33/59 238/35/145 239/34/146
f 143/51/62 241/38/147 242/37/148
f 142/52/87 244/53/149 245/54/150
f 139/55/90 247/56/151 248/57/152
f 138/58/88 250/59/153 251/60/154
f 136/61/89 253/62/155 254/63/156
f 144/64/66 256/65/158 257/66/159
f 162/67/63 259/68/161 260/69/162
f 158/70/40 262/71/163 263/72/164
f 161/73/41 265/74/165 266/75/166
f 159/76/43 268/77/167 269/78/168
f 149/79/44 271/80/169 272/81/170
f 133/64/47 274/66/171 275/65/172
f 131/82/50 277/69/173 278/68/174
f 130/83/80 280/84/175 281/85/176
f 127/86/86 283/87/177 284/88/178
f 126/89/81 286/90/179 287/91/180
f 124/92/85 289/93/181 290/94/182
f 132/95/54 292/96/184 293/97/185
f 174/98/51 295/99/187 296/100/188
f 146/101/26 298/102/189 299/103/190
f 173/104/27 301/105/191 302/106/192
f 147/107/29 304/108/193 305/109/194
f 137/110/30 307/111/195 308/112/196
f 122/113/35 310/97/197 311/96/198
f 119/98/38 313/100/199 314/99/200
f 116/114/72 316/115/201 317/116/202
f 115/117/78 319/118/203 320/119/204
f 113/120/73 322/121/205 323/122/206
f 112/123/77 325/124/207 326/125/208
f 123/126/42 328/127/210 329/128/211
f 125/129/39 331/130/213 332/131/214
f 140/120/12 334/122/215 335/121/216
f 153/132/13 337/133/217 338/134/218
f 141/114/15 340/116/219 341/115/220
f 152/135/16 343/136/221 344/137/222
f 110/138/20 346/128/223 347/127/224
f 107/129/24 349/131/225 350/130/226
f 104/139/60 352/140/227 353/141/228
f 103/142/70 355/112/229 356/111/230
f 101/143/61 358/144/231 359/145/232
f 100/146/69 361/106/233 362/105/234
f 111/147/28 364/148/236 365/149/237
f 114/150/25 367/151/239 368/152/240
f 168/89/100 370/153/241 371/90/242
f 135/154/99 373/155/243 374/156/244
f 169/83/101 376/85/245 377/157/246
f 134/158/1 379/159/247 380/160/248
f 98/147/5 382/149/249 383/148/250
f 95/161/10 385/152/251 386/151/252
f 92/162/48 388/163/253 389/164/254
f 91/165/58 391/81/255 392/166/256
f 89/167/49 394/168/257 395/169/258
f 88/170/57 397/171/259 398/74/260
f 99/172/14 400/173/262 401/174/263
f 102/175/11 403/176/265 404/177/266
f 128/58/97 406/60/267 407/59/268
f 121/178/96 409/179/269 410/180/270
f 129/52/98 412/54/271 413/181/272
f 120/182/95 415/183/273 416/184/274
f 86/172/82 418/174/275 419/173/276
f 83/185/79 421/177/277 422/176/278
f 80/186/36 424/187/279 425/188/280
f 79/48/46 427/50/281 428/189/282
f 77/190/37 430/191/283 431/192/284
f 76/42/45 433/193/285 434/43/286
f 87/194/83 436/195/109 437/196/110
f 90/197/84 439/198/106 440/199/107
f 117/200/93 442/201/129 443/202/130
f 109/203/92 445/204/127 446/205/128
f 118/206/94 448/207/125 449/208/126
f 108/209/91 451/210/123 452/211/124
f 74/194/74 454/196/121 455/195/122
f 71/197/71 457/199/119 458/198/120
f 68/212/68 460/213/117 461/207/118
f 67/214/67 463/211/115 464/215/116
f 65/216/65 466/202/113 467/217/114
f 64/218/64 469/219/111 470/204/112
f 75/220/75 472/221/135 473/222/136
f 78/223/76 475/224/132 476/225/133
f 105/226/89 478/227/155 479/191/156
f 97/228/88 481/229/287 482/230/154
f 106/231/90 484/188/151 485/232/152
f 96/233/87 487/234/149 488/235/150
f 62/220/62 490/222/147 491/221/148
f 59/236/59 493/225/145 494/224/146
f 56/237/56 496/238/143 497/239/144
f 55/240/55 499/184/141 500/241/288
f 53/242/53 502/243/139 503/244/140
f 52/245/52 505/246/289 506/179/138
f 63/247/63 508/248/161 509/249/162
f 66/250/66 511/251/158 512/252/159
f 93/253/85 514/254/181 515/255/182
f 85/256/81 517/257/179 518/258/180
f 94/259/86 520/260/177 521/261/178
f 84/262/80 523/263/175 524/264/176
f 50/247/50 526/249/173 527/248/174
f 47/265/47 529/252/171 530/251/172
f 44/266/44 532/267/169 533/268/170
f 43/269/43 535/270/167 536/271/168
f 41/272/41 538/273/165 539/274/166
f 40/275/40 541/276/163 542/277/164
f 51/278/51 544/279/187 545/280/188
f 54/281/54 547/282/184 548/283/185
f 81/284/77 550/285/207 551/286/208
f 73/287/73 553/288/205 554/289/206
f 82/290/78 556/291/203 557/292/204
f 72/293/72 559/294/201 560/295/202
f 38/278/38 562/280/199 563/279/200
f 35/296/35 565/283/197 566/297/198
f 30/298/30 568/299/195 569/300/196
f 29/301/29 571/137/193 572/136/194
f 27/302/27 574/303/191 575/304/192
f 26/305/26 577/306/189 578/307/190
f 39/308/39 580/309/213 581/310/214
f 42/311/42 583/312/210 584/313/211
f 69/314/69 586/315/233 587/316/234
f 61/317/61 589/318/231 590/319/232
f 70/320/70 592/321/229 593/322/230
f 60/323/60 595/324/227 596/325/228
f 24/308/24 598/310/225 599/309/226
f 20/326/20 601/313/223 602/312/224
f 16/327/16 604/328/221 605/329/222
f 15/330/15 607/331/290 608/332/220
f 13/333/13 610/334/217 611/335/218
f 12/336/12 613/337/215 614/338/216
f 25/339/25 616/340/239 617/341/240
f 28/342/28 619/343/236 620/344/237
f 57/345/57 622/346/259 623/347/260
f 49/348/49 625/349/257 626/350/258
f 58/351/58 628/352/255 629/353/256
f 48/354/48 631/355/253 632/356/254
f 10/357/10 634/341/251 635/340/252
f 5/358/5 637/359/249 638/343/250
f 1/360/1 640/361/247 641/362/248
f 705/363/101 643/364/245 644/365/246
f 709/366/99 646/367/243 647/368/244
f 710/369/100 649/370/241 650/371/242
f 11/372/11 652/373/265 653/374/266
f 14/375/14 655/376/262 656/377/263
f 45/242/45 658/378/285 659/243/286
f 37/379/37 661/380/283 662/381/284
f 46/237/46 664/239/281 665/382/282
f 36/383/36 667/384/291 668/385/280
f 712/372/79 670/374/277 671/373/278
f 714/386/82 673/377/275 674/376/276
f 716/387/95 676/388/273 677/389/274
f 718/390/98 679/235/292 680/234/272
f 719/391/96 682/392/269 683/393/293
f 720/394/97 685/230/267 686/229/268
f 3/395/3 7/396/7 8/397/8
f 706/398/295 9/399/9 6/400/6
f 18/1/18 32/3/32 33/2/33
f 23/401/23 34/402/34 31/403/31
f 4/395/4 2/397/2 717/396/301
f 707/404/296 713/405/299 708/406/297
f 229/43/139 175/48/56 236/50/144
f 295/99/187 173/407/27 302/408/192
f 185/409/107 172/410/64 171/411/84
f 223/412/135 176/42/53 230/44/140
f 376/85/245 168/89/100 371/90/242
f 194/413/114 167/411/83 166/414/65
f 188/6/110 185/9/107 184/8/106
f 191/15/112 194/18/114 193/17/113
f 232/46/141 164/39/52 227/41/138
f 196/20/115 172/13/64 191/15/112
f 259/415/161 161/73/41 266/75/166
f 193/17/113 160/22/68 200/24/118
f 197/21/116 200/24/118 199/23/117
f 268/77/167 158/70/40 263/72/164
f 202/416/119 163/417/67 197/418/116
f 221/419/133 164/39/52 156/420/76
f 199/421/117 155/422/74 206/423/122
f 203/8/120 206/5/122 205/6/121
f 229/424/139 226/40/137 230/425/140
f 203/426/120 154/427/91 157/422/71
f 344/137/222 153/132/13 152/135/16
f 205/428/121 151/427/94 212/429/126
f 209/20/124 212/28/126 211/24/125
f 220/34/132 223/37/135 221/35/133
f 214/15/127 154/25/91 209/20/124
f 272/81/170 161/73/41 149/79/44
f 211/24/125 148/31/93 218/17/130
f 215/30/128 218/17/130 217/32/129
f 184/430/106 150/431/92 215/432/128
f 188/433/110 148/431/93 167/411/83
f 235/434/143 232/46/141 236/435/144
f 299/103/190 147/107/29 146/101/26
f 233/47/142 145/436/59 165/45/55
f 262/71/163 144/437/66 257/438/159
f 235/49/143 143/439/62 242/440/148
f 239/34/146 242/37/148 241/38/147
f 263/441/164 266/75/166 265/74/165
f 239/442/146 142/52/87 145/443/59
f 340/116/219 140/120/12 335/121/216
f 241/444/147 139/55/90 248/57/152
f 245/445/150 248/57/152 247/56/151
f 256/65/158 259/68/161 257/66/159
f 250/59/153 142/52/87 245/54/150
f 301/105/191 137/110/30 308/112/196
f 247/56/151 136/61/89 254/63/156
f 251/446/154 254/63/156 253/62/155
f 220/447/132 138/58/88 251/60/154
f 224/448/136 136/61/89 170/449/75
f 269/450/168 272/81/170 271/80/169
f 380/160/248 135/154/99 134/158/1
f 269/78/168 133/451/47 159/76/43
f 293/452/185 146/101/26 132/453/54
f 278/454/174 149/79/44 131/455/50
f 275/65/172 278/68/174 277/69/173
f 299/456/190 302/106/192 301/105/191
f 275/457/172 130/83/80 133/458/47
f 412/54/271 128/58/97 407/59/268
f 277/459/173 127/86/86 284/88/178
f 281/85/176 284/460/178 283/461/177
f 296/100/188 293/97/185 292/96/184
f 286/90/179 130/83/80 281/85/176
f 338/134/218 125/462/39 153/132/13
f 290/94/182 127/86/86 124/92/85
f 289/463/181 286/90/179 290/464/182
f 256/465/158 126/89/81 287/91/180
f 260/466/162 124/92/85 162/467/63
f 307/111/195 304/468/193 308/112/196
f 334/469/215 123/126/42 329/128/211
f 310/470/197 147/107/29 305/109/194
f 409/179/269 120/182/95 416/184/274
f 314/99/200 137/471/30 119/98/38
f 313/100/199 310/97/197 314/99/200
f 448/207/125 117/200/93 443/202/130
f 316/472/201 122/113/35 311/96/198
f 335/121/216 338/473/218 337/474/217
f 320/119/204 119/475/38 115/117/78
f 317/116/202 320/476/204 319/477/203
f 367/478/239 135/154/99 374/156/244
f 322/121/205 116/114/72 317/116/202
f 328/127/210 331/130/213 329/128/211
f 326/125/208 115/117/78 112/123/77
f 323/122/206 326/474/208 325/473/207
f 292/96/184 113/479/73 323/480/206
f 325/124/207 174/481/51 296/482/188
f 341/115/220 344/477/222 343/476/221
f 365/483/237 168/89/100 111/484/28
f 346/128/223 141/485/15 341/486/220
f 445/204/127 108/209/91 452/211/124
f 343/136/221 107/487/24 350/488/226
f 347/127/224 350/130/226 349/131/225
f 479/191/156 106/231/90 105/226/89
f 347/489/224 104/139/60 110/490/20
f 371/90/242 374/491/244 373/464/243
f 349/131/225 103/492/70 356/493/230
f 353/468/228 356/111/230 355/112/229
f 410/180/270 102/494/11 121/178/96
f 353/141/228 101/143/61 104/139/60
f 364/148/236 367/151/239 365/149/237
f 355/112/229 100/146/69 362/105/234
f 361/106/233 358/456/231 362/105/234
f 328/495/210 101/143/61 359/145/232
f 332/131/214 100/496/69 125/129/39
f 379/497/247 376/85/245 380/461/248
f 401/498/263 128/58/97 99/499/14
f 382/500/249 169/83/101 377/157/246
f 488/235/150 97/228/88 96/233/87
f 386/501/252 134/158/1 95/502/10
f 385/152/251 382/149/249 386/151/252
f 520/260/177 93/253/85 515/255/182
f 388/163/253 98/503/5 383/504/250
f 407/505/268 410/180/270 409/179/269
f 385/506/251 91/165/58 392/166/256
f 389/507/254 392/166/256 391/81/255
f 439/430/106 109/431/92 446/432/128
f 394/168/257 92/162/48 389/164/254
f 400/173/262 403/176/265 401/174/263
f 398/74/260 91/165/58 88/170/57
f 395/508/258 398/74/260 397/171/259
f 395/169/258 111/509/28 89/167/49
f 368/510/240 88/170/57 114/511/25
f 413/512/272 416/184/274 415/183/273
f 437/433/110 117/431/93 87/411/83
f 418/513/275 129/52/98 413/181/272
f 517/257/179 84/262/80 524/264/176
f 422/514/278 120/182/95 83/515/79
f 421/177/277 418/174/275 422/176/278
f 556/291/203 81/284/77 551/286/208
f 419/516/276 80/186/36 86/517/82
f 443/202/130 446/205/128 445/204/127
f 421/518/277 79/48/46 428/189/282
f 425/188/280 428/519/282 427/520/281
f 475/521/132 97/228/88 482/230/154
f 430/191/283 80/186/36 425/188/280
f 440/199/107 437/196/110 436/195/109
f 427/50/281 76/42/45 434/43/286
f 431/192/284 434/522/286 433/523/285
f 400/524/262 77/190/37 431/192/284
f 404/525/266 76/42/45 102/526/11
f 449/208/126 452/211/124 451/210/123
f 473/527/136 105/226/89 75/528/75
f 454/428/121 118/427/94 449/429/126
f 553/288/205 72/293/72 560/295/202
f 458/426/120 108/427/91 71/422/71
f 455/195/122 458/198/120 457/199/119
f 592/321/229 69/314/69 587/316/234
f 460/421/117 74/422/74 455/423/122
f 479/191/156 482/529/154 481/522/287
f 457/416/119 67/417/67 464/418/116
f 461/207/118 464/215/116 463/211/115
f 518/258/180 66/530/66 85/256/81
f 466/202/113 68/212/68 461/207/118
f 476/225/133 473/222/136 472/221/135
f 463/211/115 64/218/64 470/204/112
f 467/217/114 470/204/112 469/219/111
f 436/531/109 65/414/65 467/413/114
f 440/409/107 64/410/64 90/411/84
f 485/232/152 488/520/150 487/532/149
f 514/254/181 63/533/63 509/534/162
f 490/535/147 106/231/90 485/232/152
f 589/318/231 60/323/60 596/325/228
f 487/234/149 59/536/59 494/537/146
f 493/225/145 490/222/147 494/224/146
f 628/352/255 57/345/57 623/347/260
f 496/238/143 62/538/62 491/539/148
f 515/540/182 518/258/180 517/257/179
f 493/514/145 55/240/55 500/241/288
f 497/541/144 500/241/288 499/184/141
f 547/282/184 73/542/73 554/543/206
f 502/243/139 56/237/56 497/239/144
f 512/252/159 509/249/162 508/248/161
f 506/179/138 55/240/55 52/245/52
f 503/544/140 506/179/138 505/246/289
f 472/545/135 53/242/53 503/244/140
f 505/246/289 78/546/76 476/547/133
f 521/548/178 524/264/176 523/263/175
f 550/285/207 51/549/51 545/550/188
f 526/504/173 94/259/86 521/261/178
f 625/349/257 48/354/48 632/356/254
f 523/263/175 47/551/47 530/552/172
f 529/252/171 526/249/173 530/251/172
f 664/239/281 45/242/45 659/243/286
f 527/553/174 44/266/44 50/554/50
f 553/288/205 550/555/207 554/289/206
f 536/271/168 47/556/47 43/269/43
f 533/268/170 536/557/168 535/558/167
f 583/559/210 61/317/61 590/319/232
f 538/273/165 44/266/44 533/268/170
f 548/283/185 545/280/188 544/279/187
f 535/270/167 40/275/40 542/277/164
f 539/274/166 542/560/164 541/561/163
f 539/274/166 63/562/63 41/272/41
f 541/276/163 66/563/66 512/564/159
f 559/294/201 556/565/203 560/295/202
f 586/566/233 39/308/39 581/310/214
f 562/567/199 82/290/78 557/292/204
f 668/385/280 37/379/37 36/383/36
f 559/568/201 35/296/35 566/297/198
f 563/279/200 566/297/198 565/283/197
f 33/2/33 31/569/31 34/570/34
f 568/571/195 38/278/38 563/279/200
f 589/572/231 586/315/233 590/573/232
f 565/574/197 29/301/29 572/136/194
f 569/300/196 572/575/194 571/576/193
f 626/350/258 28/577/28 49/348/49
f 574/303/191 30/298/30 569/300/196
f 584/313/211 581/310/214 580/309/213
f 571/137/193 26/305/26 578/307/190
f 575/304/192 578/578/190 577/579/189
f 544/279/187 27/580/27 575/571/192
f 577/306/189 54/581/54 548/582/185
f 593/322/230 596/583/228 595/584/227
f 617/585/240 57/345/57 25/586/25
f 598/310/225 70/587/70 593/566/230
f 22/11/22 34/402/34 23/401/23
f 595/324/227 20/588/20 602/589/224
f 599/309/226 602/312/224 601/313/223
f 18/590/18 17/591/17 19/592/19
f 599/593/226 16/327/16 24/594/24
f 623/347/260 626/595/258 625/596/257
f 608/597/220 20/326/20 15/598/15
f 605/565/222 608/332/220 607/331/290
f 655/448/262 37/379/37 662/381/284
f 610/334/217 16/327/16 605/329/222
f 620/344/237 617/341/240 616/340/239
f 614/338/216 15/330/15 12/336/12
f 611/599/218 614/338/216 613/337/215
f 611/335/218 39/600/39 13/333/13
f 613/601/215 42/311/42 584/313/211
f 629/353/256 632/602/254 631/603/253
f 658/378/285 11/604/11 653/605/266
f 634/606/251 58/351/58 629/353/256
f 8/397/8 6/607/6 9/608/9
f 631/355/253 5/609/5 638/610/250
f 635/340/252 638/343/250 637/359/249
f 3/592/3 2/611/2 4/590/4
f 640/361/247 10/612/10 635/613/252
f 659/614/286 662/381/284 661/380/283
f 644/365/246 5/615/5 705/363/101
f 643/364/245 640/616/247 644/365/246
f 707/404/296 9/399/9 706/398/295
f 646/367/243 1/360/1 641/362/248
f 652/373/265 655/376/262 653/374/266
f 643/364/245 710/369/100 650/371/242
f 649/370/241 646/617/243 650/371/242
f 616/438/239 709/366/99 647/368/244
f 620/618/237 710/369/100 28/619/28
f 665/620/282 668/385/280 667/384/291
f 706/398/295 711/12/298 22/11/22
f 670/621/277 46/237/46 665/382/282
f 23/401/23 713/405/299 707/404/296
f 667/384/291 714/622/82 674/623/276
f 671/373/278 674/376/276 673/377/275
f 21/570/21 715/3/300 17/2/17
f 671/624/278 716/387/95 712/625/79
f 4/395/4 32/3/32 18/1/18
f 673/626/275 718/390/98 680/234/272
f 677/389/274 680/627/272 679/435/292
f 19/1/19 7/396/7 3/395/3
f 677/389/274 719/391/96 716/387/95
f 717/396/301 708/608/297 713/607/299
f 686/229/268 718/390/98 720/394/97
f 683/393/293 686/424/268 685/425/267
f 652/628/265 719/391/96 683/393/293
f 685/230/267 14/629/14 656/630/263
f 697/631/102 181/591/102 695/611/102
f 179/569/104 688/396/104 182/3/104
f 690/398/103 696/401/103 702/404/103
f 699/404/105 180/11/105 687/398/105
f 189/410/104 201/422/104 213/431/104
f 187/5/109 190/632/111 185/9/107
f 217/633/129 184/8/106 215/634/128
f 186/411/108 210/427/108 198/635/108
f 193/17/113 196/20/115 191/15/112
f 199/636/117 202/9/119 197/632/116
f 205/6/121 208/634/123 203/8/120
f 211/24/125 214/15/127 209/20/124
f 243/52/131 219/637/131 231/638/131
f 221/35/133 230/639/140 226/640/137
f 251/641/154 224/38/136 220/34/132
f 228/42/134 252/642/134 240/439/134
f 229/424/139 232/46/141 227/41/138
f 235/639/143 238/35/145 233/640/142
f 241/38/147 244/641/149 239/34/146
f 247/56/151 250/614/153 245/445/150
f 273/451/157 285/643/157 261/70/157
f 259/68/161 262/644/163 257/66/159
f 289/645/181 256/65/158 287/646/180
f 258/467/160 282/86/160 270/647/160
f 265/74/165 268/507/167 263/441/164
f 269/644/168 278/68/174 274/66/171
f 275/65/172 284/645/178 280/646/175
f 283/461/177 286/90/179 281/85/176
f 303/107/183 315/648/183 291/453/183
f 293/97/185 302/408/192 298/649/189
f 323/480/206 296/100/188 292/96/184
f 306/650/186 294/481/186 318/117/186
f 301/105/191 304/468/193 299/456/190
f 307/651/195 310/97/197 305/649/194
f 313/100/199 316/472/201 311/96/198
f 319/477/203 322/121/205 317/116/202
f 345/490/209 357/143/209 333/652/209
f 331/130/213 334/469/215 329/128/211
f 361/653/233 328/127/210 359/654/232
f 342/135/212 330/462/212 354/655/212
f 337/474/217 340/116/219 335/121/216
f 341/486/220 350/130/226 346/128/223
f 347/127/224 356/493/230 352/654/227
f 355/112/229 358/456/231 353/468/228
f 387/162/235 363/509/235 375/656/235
f 365/149/237 374/657/244 370/658/241
f 395/659/258 368/152/240 364/148/236
f 378/158/238 366/660/238 390/661/238
f 373/464/243 376/85/245 371/90/242
f 379/657/247 382/149/249 377/658/246
f 385/152/251 388/659/253 383/148/250
f 391/81/255 394/441/257 389/507/254
f 423/638/261 399/499/261 411/52/261
f 403/176/265 406/662/267 401/174/263
f 433/663/285 400/173/262 431/664/284
f 414/665/264 402/526/264 426/48/264
f 409/179/269 412/541/271 407/505/268
f 413/662/272 422/176/278 418/174/275
f 419/173/276 428/663/282 424/664/279
f 427/520/281 430/191/283 425/188/280
f 459/635/108 435/411/108 447/427/108
f 439/198/106 442/666/129 437/196/110
f 469/667/111 436/195/109 467/668/114
f 450/427/104 438/411/104 462/417/104
f 445/204/127 448/207/125 443/202/130
f 451/669/123 454/196/121 449/666/126
f 457/199/119 460/668/117 455/195/122
f 463/211/115 466/202/113 461/207/118
f 495/237/134 471/604/134 483/670/134
f 473/222/136 482/671/154 478/672/155
f 503/673/140 476/225/133 472/221/135
f 486/233/131 474/629/131 498/674/131
f 481/522/287 484/188/151 479/191/156
f 487/671/149 490/222/147 485/672/152
f 493/225/145 496/673/143 491/221/148
f 499/184/141 502/505/139 497/541/144
f 531/656/160 507/533/160 519/259/160
f 511/251/158 514/675/181 509/249/162
f 541/676/163 508/248/161 539/677/166
f 522/678/157 510/563/157 534/269/157
f 517/257/179 520/679/177 515/540/182
f 523/680/175 526/249/173 521/675/178
f 529/252/171 532/677/169 527/248/174
f 535/558/167 538/273/165 533/268/170
f 567/681/186 543/549/186 555/290/186
f 547/282/184 550/682/207 545/280/188
f 575/571/192 548/283/185 544/279/187
f 558/655/183 546/581/183 570/301/183
f 553/288/205 556/565/203 551/683/208
f 559/568/201 562/280/199 557/682/204
f 565/283/197 568/571/195 563/279/200
f 571/576/193 574/303/191 569/300/196
f 603/327/212 579/600/212 591/684/212
f 583/312/210 586/566/233 581/310/214
f 613/601/215 580/309/213 611/685/218
f 594/323/209 582/686/209 606/687/209
f 589/572/231 592/321/229 587/316/234
f 595/688/227 598/310/225 593/566/230
f 599/309/226 608/597/220 604/685/221
f 607/331/290 610/683/217 605/565/222
f 639/360/238 615/689/238 627/690/238
f 619/343/236 622/691/259 617/341/240
f 649/692/241 616/340/239 647/693/244
f 630/354/235 618/577/235 642/694/235
f 625/596/257 628/352/255 623/347/260
f 631/695/253 634/341/251 629/691/256
f 637/359/249 640/693/247 635/340/252
f 643/364/245 646/617/243 641/696/248
f 675/697/264 651/604/264 663/237/264
f 655/376/262 658/698/285 653/374/266
f 685/699/267 652/373/265 683/700/293
f 666/701/261 654/629/261 678/390/261
f 661/380/283 664/445/281 659/614/286
f 665/698/282 674/376/276 670/374/277
f 671/373/278 680/699/272 676/700/273
f 679/435/292 682/392/269 677/389/274
f 691/702/294 700/611/294 689/591/294
f 703/607/108 694/3/108 701/396/108
f 229/43/139 176/42/53 175/48/56
f 295/99/187 174/98/51 173/407/27
f 185/409/107 190/703/111 172/410/64
f 223/412/135 170/704/75 176/42/53
f 376/85/245 169/83/101 168/89/100
f 194/413/114 187/531/109 167/411/83
f 188/6/110 187/5/109 185/9/107
f 191/15/112 190/14/111 194/18/114
f 232/46/141 165/45/55 164/39/52
f 196/20/115 163/19/67 172/13/64
f 259/415/161 162/511/63 161/73/41
f 193/17/113 166/16/65 160/22/68
f 197/21/116 196/20/115 200/24/118
f 268/77/167 159/76/43 158/70/40
f 202/416/119 157/422/71 163/417/67
f 221/419/133 226/40/137 164/39/52
f 199/421/117 160/635/68 155/422/74
f 203/8/120 202/9/119 206/5/122
f 229/424/139 227/41/138 226/40/137
f 203/426/120 208/705/123 154/427/91
f 344/137/222 337/133/217 153/132/13
f 205/428/121 155/422/74 151/427/94
f 209/20/124 208/26/123 212/28/126
f 220/34/132 224/38/136 223/37/135
f 214/15/127 150/29/92 154/25/91
f 272/81/170 265/74/165 161/73/41
f 211/24/125 151/27/94 148/31/93
f 215/30/128 214/15/127 218/17/130
f 184/430/106 171/411/84 150/431/92
f 188/433/110 217/706/129 148/431/93
f 235/434/143 233/47/142 232/46/141
f 299/103/190 304/108/193 147/107/29
f 233/47/142 238/707/145 145/436/59
f 262/71/163 158/70/40 144/437/66
f 235/49/143 175/48/56 143/439/62
f 239/34/146 238/35/145 242/37/148
f 263/441/164 262/508/163 266/75/166
f 239/442/146 244/53/149 142/52/87
f 340/116/219 141/114/15 140/120/12
f 241/444/147 143/708/62 139/55/90
f 245/445/150 244/709/149 248/57/152
f 256/65/158 260/69/162 259/68/161
f 250/59/153 138/58/88 142/52/87
f 301/105/191 173/104/27 137/110/30
f 247/56/151 139/55/90 136/61/89
f 251/446/154 250/614/153 254/63/156
f 220/447/132 156/637/76 138/58/88
f 224/448/136 253/62/155 136/61/89
f 269/450/168 268/507/167 272/81/170
f 380/160/248 373/155/243 135/154/99
f 269/78/168 274/710/171 133/451/47
f 293/452/185 298/102/189 146/101/26
f 278/454/174 271/80/169 149/79/44
f 275/65/172 274/66/171 278/68/174
f 299/456/190 298/711/189 302/106/192
f 275/457/172 280/84/175 130/83/80
f 412/54/271 129/52/98 128/58/97
f 277/459/173 131/712/50 127/86/86
f 281/85/176 280/84/175 284/460/178
f 296/100/188 295/99/187 293/97/185
f 286/90/179 126/89/81 130/83/80
f 338/134/218 331/713/213 125/462/39
f 290/94/182 283/87/177 127/86/86
f 289/463/181 287/91/180 286/90/179
f 256/465/158 144/484/66 126/89/81
f 260/466/162 289/93/181 124/92/85
f 307/111/195 305/714/194 304/468/193
f 334/469/215 140/715/12 123/126/42
f 310/470/197 122/716/35 147/107/29
f 409/179/269 121/178/96 120/182/95
f 314/99/200 307/651/195 137/471/30
f 313/100/199 311/96/198 310/97/197
f 448/207/125 118/206/94 117/200/93
f 316/472/201 116/717/72 122/113/35
f 335/121/216 334/122/215 338/473/218
f 320/119/204 313/718/199 119/475/38
f 317/116/202 316/115/201 320/476/204
f 367/478/239 114/660/25 135/154/99
f 322/121/205 113/120/73 116/114/72
f 328/127/210 332/131/214 331/130/213
f 326/125/208 319/118/203 115/117/78
f 323/122/206 322/121/205 326/474/208
f 292/96/184 132/95/54 113/479/73
f 325/124/207 112/123/77 174/481/51
f 341/115/220 340/116/219 344/477/222
f 365/483/237 370/153/241 168/89/100
f 346/128/223 110/138/20 141/485/15
f 445/204/127 109/203/92 108/209/91
f 343/136/221 152/135/16 107/487/24
f 347/127/224 346/128/223 350/130/226
f 479/191/156 484/188/151 106/231/90
f 347/489/224 352/140/227 104/139/60
f 371/90/242 370/153/241 374/491/244
f 349/131/225 107/129/24 103/492/70
f 353/468/228 352/719/227 356/111/230
f 410/180/270 403/720/265 102/494/11
f 353/141/228 358/144/231 101/143/61
f 364/148/236 368/152/240 367/151/239
f 355/112/229 103/142/70 100/146/69
f 361/106/233 359/721/232 358/456/231
f 328/495/210 123/722/42 101/143/61
f 332/131/214 361/653/233 100/496/69
f 379/497/247 377/157/246 376/85/245
f 401/498/263 406/60/267 128/58/97
f 382/500/249 98/458/5 169/83/101
f 488/235/150 481/229/287 97/228/88
f 386/501/252 379/159/247 134/158/1
f 385/152/251 383/148/250 382/149/249
f 520/260/177 94/259/86 93/253/85
f 388/163/253 92/162/48 98/503/5
f 407/505/268 406/723/267 410/180/270
f 385/506/251 95/455/10 91/165/58
f 389/507/254 388/450/253 392/166/256
f 439/430/106 90/411/84 109/431/92
f 394/168/257 89/167/49 92/162/48
f 400/173/262 404/177/266 403/176/265
f 398/74/260 391/81/255 91/165/58
f 395/508/258 394/441/257 398/74/260
f 395/169/258 364/724/236 111/509/28
f 368/510/240 397/171/259 88/170/57
f 413/512/272 412/541/271 416/184/274
f 437/433/110 442/706/129 117/431/93
f 418/513/275 86/725/82 129/52/98
f 517/257/179 85/256/81 84/262/80
f 422/514/278 415/183/273 120/182/95
f 421/177/277 419/173/276 418/174/275
f 556/291/203 82/290/78 81/284/77
f 419/516/276 424/187/279 80/186/36
f 443/202/130 442/201/129 446/205/128
f 421/518/277 83/726/79 79/48/46
f 425/188/280 424/187/279 428/519/282
f 475/521/132 78/629/76 97/228/88
f 430/191/283 77/190/37 80/186/36
f 440/199/107 439/198/106 437/196/110
f 427/50/281 79/48/46 76/42/45
f 431/192/284 430/191/283 434/522/286
f 400/524/262 99/727/14 77/190/37
f 404/525/266 433/193/285 76/42/45
f 449/208/126 448/207/125 452/211/124
f 473/527/136 478/227/155 105/226/89
f 454/428/121 74/422/74 118/427/94
f 553/288/205 73/287/73 72/293/72
f 458/426/120 451/705/123 108/427/91
f 455/195/122 454/196/121 458/198/120
f 592/321/229 70/320/70 69/314/69
f 460/421/117 68/635/68 74/422/74
f 479/191/156 478/227/155 482/529/154
f 457/416/119 71/422/71 67/417/67
f 461/207/118 460/213/117 464/215/116
f 518/258/180 511/728/158 66/530/66
f 466/202/113 65/216/65 68/212/68
f 476/225/133 475/224/132 473/222/136
f 463/211/115 67/214/67 64/218/64
f 467/217/114 466/202/113 470/204/112
f 436/531/109 87/411/83 65/414/65
f 440/409/107 469/703/111 64/410/64
f 485/232/152 484/188/151 488/520/150
f 514/254/181 93/253/85 63/533/63
f 490/535/147 62/729/62 106/231/90
f 589/318/231 61/317/61 60/323/60
f 487/234/149 96/233/87 59/536/59
f 493/225/145 491/221/148 490/222/147
f 628/352/255 58/351/58 57/345/57
f 496/238/143 56/237/56 62/538/62
f 515/540/182 514/730/181 518/258/180
f 493/514/145 59/731/59 55/240/55
f 497/541/144 496/732/143 500/241/288
f 547/282/184 54/281/54 73/542/73
f 502/243/139 53/242/53 56/237/56
f 512/252/159 511/251/158 509/249/162
f 506/179/138 499/184/141 55/240/55
f 503/544/140 502/505/139 506/179/138
f 472/545/135 75/604/75 53/242/53
f 505/246/289 52/245/52 78/546/76
f 521/548/178 520/679/177 524/264/176
f 550/285/207 81/284/77 51/549/51
f 526/504/173 50/733/50 94/259/86
f 625/349/257 49/348/49 48/354/48
f 523/263/175 84/262/80 47/551/47
f 529/252/171 527/248/174 526/249/173
f 664/239/281 46/237/46 45/242/45
f 527/553/174 532/267/169 44/266/44
f 553/288/205 551/683/208 550/555/207
f 536/271/168 529/734/171 47/556/47
f 533/268/170 532/267/169 536/557/168
f 583/559/210 42/686/42 61/317/61
f 538/273/165 41/272/41 44/266/44
f 548/283/185 547/282/184 545/280/188
f 535/270/167 43/269/43 40/275/40
f 539/274/166 538/273/165 542/560/164
f 539/274/166 508/735/161 63/562/63
f 541/276/163 40/275/40 66/563/66
f 559/294/201 557/736/204 556/565/203
f 586/566/233 69/587/69 39/308/39
f 562/567/199 38/737/38 82/290/78
f 668/385/280 661/380/283 37/379/37
f 559/568/201 72/738/72 35/296/35
f 563/279/200 562/280/199 566/297/198
f 33/2/33 32/3/32 31/569/31
f 568/571/195 30/739/30 38/278/38
f 589/572/231 587/316/234 586/315/233
f 565/574/197 35/740/35 29/301/29
f 569/300/196 568/299/195 572/575/194
f 626/350/258 619/741/236 28/577/28
f 574/303/191 27/302/27 30/298/30
f 584/313/211 583/312/210 581/310/214
f 571/137/193 29/301/29 26/305/26
f 575/304/192 574/303/191 578/578/190
f 544/279/187 51/278/51 27/580/27
f 577/306/189 26/305/26 54/581/54
f 593/322/230 592/321/229 596/583/228
f 617/585/240 622/346/259 57/345/57
f 598/310/225 24/308/24 70/587/70
f 22/11/22 21/10/21 34/402/34
f 595/324/227 60/323/60 20/588/20
f 599/309/226 598/310/225 602/312/224
f 18/590/18 33/611/33 17/591/17
f 599/593/226 604/328/221 16/327/16
f 623/347/260 622/346/259 626/595/258
f 608/597/220 601/313/223 20/326/20
f 605/565/222 604/742/221 608/332/220
f 655/448/262 14/743/14 37/379/37
f 610/334/217 13/333/13 16/327/16
f 620/344/237 619/343/236 617/341/240
f 614/338/216 607/331/290 15/330/15
f 611/599/218 610/683/217 614/338/216
f 611/335/218 580/744/213 39/600/39
f 613/601/215 12/745/12 42/311/42
f 629/353/256 628/352/255 632/602/254
f 658/378/285 45/242/45 11/604/11
f 634/606/251 10/746/10 58/351/58
f 8/397/8 7/396/7 6/607/6
f 631/355/253 48/354/48 5/609/5
f 635/340/252 634/341/251 638/343/250
f 3/592/3 8/591/8 2/611/2
f 640/361/247 1/360/1 10/612/10
f 659/614/286 658/747/285 662/381/284
f 644/365/246 637/748/249 5/615/5
f 643/364/245 641/696/248 640/616/247
f 707/404/296 708/406/297 9/399/9
f 646/367/243 709/366/99 1/360/1
f 652/373/265 656/377/263 655/376/262
f 643/364/245 705/363/101 710/369/100
f 649/370/241 647/749/244 646/617/243
f 616/438/239 25/689/25 709/366/99
f 620/618/237 649/370/241 710/369/100
f 665/620/282 664/445/281 668/385/280
f 706/398/295 6/400/6 711/12/298
f 670/621/277 712/538/79 46/237/46
f 23/401/23 31/403/31 713/405/299
f 667/384/291 36/383/36 714/622/82
f 671/373/278 670/374/277 674/376/276
f 21/570/21 711/569/298 715/3/300
f 671/624/278 676/388/273 716/387/95
f 4/395/4 717/396/301 32/3/32
f 673/626/275 714/536/82 718/390/98
f 677/389/274 676/388/273 680/627/272
f 19/1/19 715/3/300 7/396/7
f 677/389/274 682/392/269 719/391/96
f 717/396/301 2/397/2 708/608/297
f 686/229/268 679/235/292 718/390/98
f 683/393/293 682/392/269 686/424/268
f 652/628/265 11/750/11 719/391/96
f 685/230/267 720/394/97 14/629/14
f 697/631/102 177/702/102 181/591/102
f 179/569/104 692/607/104 688/396/104
f 690/398/103 178/11/103 696/401/103
f 699/404/105 693/401/105 180/11/105
f 213/431/104 183/411/104 189/410/104
f 189/410/104 195/417/104 201/422/104
f 201/422/104 207/427/104 213/431/104
f 187/5/109 194/636/114 190/632/111
f 217/633/129 188/6/110 184/8/106
f 198/635/108 192/414/108 186/411/108
f 186/411/108 216/431/108 210/427/108
f 210/427/108 204/422/108 198/635/108
f 193/17/113 200/24/118 196/20/115
f 199/636/117 206/5/122 202/9/119
f 205/6/121 212/633/126 208/634/123
f 211/24/125 218/17/130 214/15/127
f 231/638/131 237/443/131 243/52/131
f 243/52/131 249/58/131 219/637/131
f 219/637/131 225/751/131 231/638/131
f 221/35/133 223/37/135 230/639/140
f 251/641/154 253/752/155 224/38/136
f 240/439/134 234/48/134 228/42/134
f 228/42/134 222/704/134 252/642/134
f 252/642/134 246/665/134 240/439/134
f 229/424/139 236/435/144 232/46/141
f 235/639/143 242/37/148 238/35/145
f 241/38/147 248/752/152 244/641/149
f 247/56/151 254/63/156 250/614/153
f 261/70/157 267/76/157 273/451/157
f 273/451/157 279/753/157 285/643/157
f 285/643/157 255/437/157 261/70/157
f 259/68/161 266/754/166 262/644/163
f 289/645/181 260/69/162 256/65/158
f 270/647/160 264/755/160 258/467/160
f 258/467/160 288/92/160 282/86/160
f 282/86/160 276/712/160 270/647/160
f 265/74/165 272/81/170 268/507/167
f 269/644/168 271/754/169 278/68/174
f 275/65/172 277/69/173 284/645/178
f 283/461/177 290/464/182 286/90/179
f 291/453/183 297/101/183 303/107/183
f 303/107/183 309/716/183 315/648/183
f 315/648/183 321/756/183 291/453/183
f 293/97/185 295/99/187 302/408/192
f 323/480/206 325/757/207 296/100/188
f 318/117/186 312/475/186 306/650/186
f 306/650/186 300/758/186 294/481/186
f 294/481/186 324/123/186 318/117/186
f 301/105/191 308/112/196 304/468/193
f 307/651/195 314/99/200 310/97/197
f 313/100/199 320/759/204 316/472/201
f 319/477/203 326/474/208 322/121/205
f 333/652/209 339/760/209 345/490/209
f 345/490/209 351/139/209 357/143/209
f 357/143/209 327/722/209 333/652/209
f 331/130/213 338/761/218 334/469/215
f 361/653/233 332/131/214 328/127/210
f 354/655/212 348/487/212 342/135/212
f 342/135/212 336/132/212 330/462/212
f 330/462/212 360/762/212 354/655/212
f 337/474/217 344/477/222 340/116/219
f 341/486/220 343/763/221 350/130/226
f 347/127/224 349/131/225 356/493/230
f 355/112/229 362/105/234 358/456/231
f 375/656/235 381/503/235 387/162/235
f 387/162/235 393/167/235 363/509/235
f 363/509/235 369/764/235 375/656/235
f 365/149/237 367/151/239 374/657/244
f 395/659/258 397/765/259 368/152/240
f 390/661/238 384/502/238 378/158/238
f 378/158/238 372/154/238 366/660/238
f 366/660/238 396/766/238 390/661/238
f 373/464/243 380/461/248 376/85/245
f 379/657/247 386/151/252 382/149/249
f 385/152/251 392/765/256 388/659/253
f 391/81/255 398/74/260 394/441/257
f 411/52/261 417/725/261 423/638/261
f 423/638/261 429/751/261 399/499/261
f 399/499/261 405/58/261 411/52/261
f 403/176/265 410/767/270 406/662/267
f 433/663/285 404/177/266 400/173/262
f 426/48/264 420/726/264 414/665/264
f 414/665/264 408/642/264 402/526/264
f 402/526/264 432/42/264 426/48/264
f 409/179/269 416/184/274 412/541/271
f 413/662/272 415/767/273 422/176/278
f 419/173/276 421/177/277 428/663/282
f 427/520/281 434/522/286 430/191/283
f 447/427/108 453/422/108 459/635/108
f 459/635/108 465/414/108 435/411/108
f 435/411/108 441/431/108 447/427/108
f 439/198/106 446/669/128 442/666/129
f 469/667/111 440/199/107 436/195/109
f 462/417/104 456/422/104 450/427/104
f 450/427/104 444/431/104 438/411/104
f 438/411/104 468/410/104 462/417/104
f 445/204/127 452/211/124 448/207/125
f 451/669/123 458/198/120 454/196/121
f 457/199/119 464/667/116 460/668/117
f 463/211/115 470/204/112 466/202/113
f 483/670/134 489/538/134 495/237/134
f 495/237/134 501/242/134 471/604/134
f 471/604/134 477/768/134 483/670/134
f 473/222/136 475/224/132 482/671/154
f 503/673/140 505/769/289 476/225/133
f 498/674/131 492/536/131 486/233/131
f 486/233/131 480/228/131 474/629/131
f 474/629/131 504/770/131 498/674/131
f 481/522/287 488/520/150 484/188/151
f 487/671/149 494/224/146 490/222/147
f 493/225/145 500/769/288 496/673/143
f 499/184/141 506/179/138 502/505/139
f 519/259/160 525/733/160 531/656/160
f 531/656/160 537/764/160 507/533/160
f 507/533/160 513/253/160 519/259/160
f 511/251/158 518/680/180 514/675/181
f 541/676/163 512/252/159 508/248/161
f 534/269/157 528/556/157 522/678/157
f 522/678/157 516/771/157 510/563/157
f 510/563/157 540/275/157 534/269/157
f 517/257/179 524/264/176 520/679/177
f 523/680/175 530/251/172 526/249/173
f 529/252/171 536/676/168 532/677/169
f 535/558/167 542/560/164 538/273/165
f 555/290/186 561/737/186 567/681/186
f 567/681/186 573/772/186 543/549/186
f 543/549/186 549/284/186 555/290/186
f 547/282/184 554/543/206 550/682/207
f 575/571/192 577/773/189 548/283/185
f 570/301/183 564/740/183 558/655/183
f 558/655/183 552/762/183 546/581/183
f 546/581/183 576/305/183 570/301/183
f 553/288/205 560/295/202 556/565/203
f 559/568/201 566/297/198 562/280/199
f 565/283/197 572/773/194 568/571/195
f 571/576/193 578/578/190 574/303/191
f 591/684/212 597/594/212 603/327/212
f 603/327/212 609/333/212 579/600/212
f 579/600/212 585/774/212 591/684/212
f 583/312/210 590/688/232 586/566/233
f 613/601/215 584/313/211 580/309/213
f 606/687/209 600/588/209 594/323/209
f 594/323/209 588/317/209 582/686/209
f 582/686/209 612/775/209 606/687/209
f 589/572/231 596/583/228 592/321/229
f 595/688/227 602/312/224 598/310/225
f 599/309/226 601/313/223 608/597/220
f 607/331/290 614/338/216 610/683/217
f 627/690/238 633/612/238 639/360/238
f 639/360/238 645/366/238 615/689/238
f 615/689/238 621/776/238 627/690/238
f 619/343/236 626/777/258 622/691/259
f 649/692/241 620/344/237 616/340/239
f 642/694/235 636/609/235 630/354/235
f 630/354/235 624/348/235 618/577/235
f 618/577/235 648/778/235 642/694/235
f 625/596/257 632/602/254 628/352/255
f 631/695/253 638/343/250 634/341/251
f 637/359/249 644/692/246 640/693/247
f 643/364/245 650/371/242 646/617/243
f 663/237/264 669/538/264 675/697/264
f 675/697/264 681/779/264 651/604/264
f 651/604/264 657/242/264 663/237/264
f 655/376/262 662/780/284 658/698/285
f 685/699/267 656/377/263 652/373/265
f 678/390/261 672/536/261 666/701/261
f 666/701/261 660/781/261 654/629/261
f 654/629/261 684/394/261 678/390/261
f 661/380/283 668/385/280 664/445/281
f 665/698/282 667/780/291 674/376/276
f 671/373/278 673/377/275 680/699/272
f 679/435/292 686/424/268 682/392/269
f 691/702/294 704/631/294 700/611/294
f 703/607/108 698/569/108 694/3/108
