# Blender 5.2.0 LTS
# www.blender.org
o Backdrop_Cabana
v -13.750000 39.000000 12.750000
v -14.200000 38.549999 12.750000
v -13.750000 38.549999 13.200000
v -13.750000 27.450001 13.200000
v -14.200000 27.450001 11.250000
v -14.200000 27.450001 12.750000
v -13.750000 27.000000 12.750000
v -13.750000 27.000000 11.250000
v 14.550000 25.950001 14.000000
v 14.550000 28.049999 14.000000
v 15.000000 28.049999 13.550000
v 14.550000 28.500000 13.550000
v 15.000000 25.950001 13.550000
v 14.550000 25.500000 13.550000
v 15.000000 25.950001 -13.550000
v 15.000000 28.049999 -13.550000
v 14.550000 28.049999 -14.000000
v 14.550000 28.500000 -13.550000
v 14.550000 25.950001 -14.000000
v 14.550000 25.500000 -13.550000
v -14.550000 25.950001 -14.000000
v -14.550000 28.049999 -14.000000
v -15.000000 28.049999 -13.550000
v -14.550000 28.500000 -13.550000
v -14.550000 28.500000 13.550000
v -15.000000 28.049999 13.550000
v -14.550000 28.049999 14.000000
v -14.550000 25.950001 14.000000
v -15.000000 25.950001 -13.550000
v -15.000000 25.950001 13.550000
v -14.550000 25.500000 13.550000
v -14.550000 25.500000 -13.550000
v 10.550000 0.450000 10.000000
v 10.550000 25.549999 10.000000
v 11.000000 25.549999 9.550000
v 10.550000 26.000000 9.550000
v 11.000000 0.450000 9.550000
v 10.550000 0.000000 9.550000
v 11.000000 0.450000 -9.550000
v 11.000000 25.549999 -9.550000
v 10.550000 25.549999 -10.000000
v 10.550000 26.000000 -9.550000
v 10.550000 0.450000 -10.000000
v 10.550000 0.000000 -9.550000
v -10.550000 0.450000 -10.000000
v -10.550000 25.549999 -10.000000
v -11.000000 25.549999 -9.550000
v -10.550000 26.000000 -9.550000
v -10.550000 26.000000 9.550000
v -11.000000 25.549999 9.550000
v -10.550000 25.549999 10.000000
v -10.550000 0.450000 10.000000
v -11.000000 0.450000 -9.550000
v -11.000000 0.450000 9.550000
v -10.550000 0.000000 9.550000
v -10.550000 0.000000 -9.550000
v -10.550000 0.000000 9.550000
v -10.550000 0.450000 10.000000
v -11.000000 0.450000 9.550000
v -10.550000 25.549999 10.000000
v -10.550000 26.000000 9.550000
v -11.000000 25.549999 9.550000
v -10.550000 0.000000 -9.550000
v -11.000000 0.450000 -9.550000
v -10.550000 0.450000 -10.000000
v -10.550000 26.000000 -9.550000
v -10.550000 25.549999 -10.000000
v -11.000000 25.549999 -9.550000
v 10.550000 0.000000 9.550000
v 11.000000 0.450000 9.550000
v 10.550000 0.450000 10.000000
v 10.550000 26.000000 9.550000
v 10.550000 25.549999 10.000000
v 11.000000 25.549999 9.550000
v 10.550000 0.000000 -9.550000
v 10.550000 0.450000 -10.000000
v 11.000000 0.450000 -9.550000
v 10.550000 26.000000 -9.550000
v 11.000000 25.549999 -9.550000
v 10.550000 25.549999 -10.000000
v -14.550000 25.500000 13.550000
v -14.550000 25.950001 14.000000
v -15.000000 25.950001 13.550000
v -14.550000 28.049999 14.000000
v -14.550000 28.500000 13.550000
v -15.000000 28.049999 13.550000
v -14.550000 25.500000 -13.550000
v -15.000000 25.950001 -13.550000
v -14.550000 25.950001 -14.000000
v -14.550000 28.500000 -13.550000
v -14.550000 28.049999 -14.000000
v -15.000000 28.049999 -13.550000
v 14.550000 25.500000 13.550000
v 15.000000 25.950001 13.550000
v 14.550000 25.950001 14.000000
v 14.550000 28.500000 13.550000
v 14.550000 28.049999 14.000000
v 15.000000 28.049999 13.550000
v 14.550000 25.500000 -13.550000
v 14.550000 25.950001 -14.000000
v 15.000000 25.950001 -13.550000
v 14.550000 28.500000 -13.550000
v 15.000000 28.049999 -13.550000
v 14.550000 28.049999 -14.000000
v -13.750000 27.000000 12.750000
v -13.750000 27.450001 13.200000
v -14.200000 27.450001 12.750000
v -13.750000 38.549999 13.200000
v -13.750000 39.000000 12.750000
v -14.200000 38.549999 12.750000
v -13.750000 27.000000 11.250000
v -14.200000 27.450001 11.250000
v -13.750000 27.450001 10.800000
v -13.750000 39.000000 11.250000
v -13.750000 38.549999 10.800000
v -14.200000 38.549999 11.250000
v -12.250000 27.000000 12.750000
v -11.800000 27.450001 12.750000
v -12.250000 27.450001 13.200000
v -12.250000 39.000000 12.750000
v -12.250000 38.549999 13.200000
v -11.800000 38.549999 12.750000
v -12.250000 27.000000 11.250000
v -12.250000 27.450001 10.800000
v -11.800000 27.450001 11.250000
v -12.250000 39.000000 11.250000
v -11.800000 38.549999 11.250000
v -12.250000 38.549999 10.800000
v 12.250000 27.000000 12.750000
v 12.250000 27.450001 13.200000
v 11.800000 27.450001 12.750000
v 12.250000 38.549999 13.200000
v 12.250000 39.000000 12.750000
v 11.800000 38.549999 12.750000
v 12.250000 27.000000 11.250000
v 11.800000 27.450001 11.250000
v 12.250000 27.450001 10.800000
v 12.250000 39.000000 11.250000
v 12.250000 38.549999 10.800000
v 11.800000 38.549999 11.250000
v 13.750000 27.000000 12.750000
v 14.200000 27.450001 12.750000
v 13.750000 27.450001 13.200000
v 13.750000 39.000000 12.750000
v 13.750000 38.549999 13.200000
v 14.200000 38.549999 12.750000
v 13.750000 27.000000 11.250000
v 13.750000 27.450001 10.800000
v 14.200000 27.450001 11.250000
v 13.750000 39.000000 11.250000
v 14.200000 38.549999 11.250000
v 13.750000 38.549999 10.800000
v -13.750000 27.000000 -11.250000
v -13.750000 27.450001 -10.800000
v -14.200000 27.450001 -11.250000
v -13.750000 38.549999 -10.800000
v -13.750000 39.000000 -11.250000
v -14.200000 38.549999 -11.250000
v -13.750000 27.000000 -12.750000
v -14.200000 27.450001 -12.750000
v -13.750000 27.450001 -13.200000
v -13.750000 39.000000 -12.750000
v -13.750000 38.549999 -13.200000
v -14.200000 38.549999 -12.750000
v -12.250000 27.000000 -11.250000
v -11.800000 27.450001 -11.250000
v -12.250000 27.450001 -10.800000
v -12.250000 39.000000 -11.250000
v -12.250000 38.549999 -10.800000
v -11.800000 38.549999 -11.250000
v -12.250000 27.000000 -12.750000
v -12.250000 27.450001 -13.200000
v -11.800000 27.450001 -12.750000
v -12.250000 39.000000 -12.750000
v -11.800000 38.549999 -12.750000
v -12.250000 38.549999 -13.200000
v 12.250000 27.000000 -11.250000
v 12.250000 27.450001 -10.800000
v 11.800000 27.450001 -11.250000
v 12.250000 38.549999 -10.800000
v 12.250000 39.000000 -11.250000
v 11.800000 38.549999 -11.250000
v 12.250000 27.000000 -12.750000
v 11.800000 27.450001 -12.750000
v 12.250000 27.450001 -13.200000
v 12.250000 39.000000 -12.750000
v 12.250000 38.549999 -13.200000
v 11.800000 38.549999 -12.750000
v 13.750000 27.000000 -11.250000
v 14.200000 27.450001 -11.250000
v 13.750000 27.450001 -10.800000
v 13.750000 39.000000 -11.250000
v 13.750000 38.549999 -10.800000
v 14.200000 38.549999 -11.250000
v 13.750000 27.000000 -12.750000
v 13.750000 27.450001 -13.200000
v 14.200000 27.450001 -12.750000
v 13.750000 39.000000 -12.750000
v 14.200000 38.549999 -12.750000
v 13.750000 38.549999 -13.200000
v -16.549999 38.799999 15.550000
v -16.549999 39.250000 16.000000
v -17.000000 39.250000 15.550000
v -16.549999 40.750000 16.000000
v -16.549999 41.200001 15.550000
v -17.000000 40.750000 15.550000
v -16.549999 38.799999 -15.550000
v -17.000000 39.250000 -15.550000
v -16.549999 39.250000 -16.000000
v -16.549999 41.200001 -15.550000
v -16.549999 40.750000 -16.000000
v -17.000000 40.750000 -15.550000
v 16.549999 38.799999 15.550000
v 17.000000 39.250000 15.550000
v 16.549999 39.250000 16.000000
v 16.549999 41.200001 15.550000
v 16.549999 40.750000 16.000000
v 17.000000 40.750000 15.550000
v 16.549999 38.799999 -15.550000
v 16.549999 39.250000 -16.000000
v 17.000000 39.250000 -15.550000
v 16.549999 41.200001 -15.550000
v 17.000000 40.750000 -15.550000
v 16.549999 40.750000 -16.000000
v -13.750000 39.000000 11.250000
v -14.200000 38.549999 11.250000
v -13.750000 38.549999 10.800000
v -13.750000 27.450001 10.800000
v -12.250000 27.000000 11.250000
v -12.250000 27.450001 10.800000
v -12.250000 39.000000 11.250000
v -12.250000 38.549999 10.800000
v -11.800000 38.549999 11.250000
v -11.800000 27.450001 11.250000
v -12.250000 27.000000 12.750000
v -11.800000 27.450001 12.750000
v -12.250000 39.000000 12.750000
v -11.800000 38.549999 12.750000
v -12.250000 38.549999 13.200000
v -12.250000 27.450001 13.200000
v 12.250000 27.000000 11.250000
v 12.250000 27.000000 12.750000
v 11.800000 27.450001 12.750000
v 11.800000 27.450001 11.250000
v 12.250000 27.450001 13.200000
v 12.250000 38.549999 13.200000
v 11.800000 38.549999 12.750000
v 12.250000 39.000000 12.750000
v 12.250000 39.000000 11.250000
v 11.800000 38.549999 11.250000
v 12.250000 38.549999 10.800000
v 12.250000 27.450001 10.800000
v 13.750000 27.000000 11.250000
v 13.750000 27.450001 10.800000
v 13.750000 39.000000 11.250000
v 13.750000 38.549999 10.800000
v 14.200000 38.549999 11.250000
v 14.200000 27.450001 11.250000
v 13.750000 27.000000 12.750000
v 14.200000 27.450001 12.750000
v 13.750000 39.000000 12.750000
v 14.200000 38.549999 12.750000
v 13.750000 38.549999 13.200000
v 13.750000 27.450001 13.200000
v -13.750000 27.000000 -12.750000
v -13.750000 27.000000 -11.250000
v -14.200000 27.450001 -11.250000
v -14.200000 27.450001 -12.750000
v -13.750000 27.450001 -10.800000
v -13.750000 38.549999 -10.800000
v -14.200000 38.549999 -11.250000
v -13.750000 39.000000 -11.250000
v -13.750000 39.000000 -12.750000
v -14.200000 38.549999 -12.750000
v -13.750000 38.549999 -13.200000
v -13.750000 27.450001 -13.200000
v -12.250000 27.000000 -12.750000
v -12.250000 27.450001 -13.200000
v -12.250000 39.000000 -12.750000
v -12.250000 38.549999 -13.200000
v -11.800000 38.549999 -12.750000
v -11.800000 27.450001 -12.750000
v -12.250000 27.000000 -11.250000
v -11.800000 27.450001 -11.250000
v -12.250000 39.000000 -11.250000
v -11.800000 38.549999 -11.250000
v -12.250000 38.549999 -10.800000
v -12.250000 27.450001 -10.800000
v 12.250000 27.000000 -12.750000
v 12.250000 27.000000 -11.250000
v 11.800000 27.450001 -11.250000
v 11.800000 27.450001 -12.750000
v 12.250000 27.450001 -10.800000
v 12.250000 38.549999 -10.800000
v 11.800000 38.549999 -11.250000
v 12.250000 39.000000 -11.250000
v 12.250000 39.000000 -12.750000
v 11.800000 38.549999 -12.750000
v 12.250000 38.549999 -13.200000
v 12.250000 27.450001 -13.200000
v 13.750000 27.000000 -12.750000
v 13.750000 27.450001 -13.200000
v 13.750000 39.000000 -12.750000
v 13.750000 38.549999 -13.200000
v 14.200000 38.549999 -12.750000
v 14.200000 27.450001 -12.750000
v 13.750000 27.000000 -11.250000
v 14.200000 27.450001 -11.250000
v 13.750000 39.000000 -11.250000
v 14.200000 38.549999 -11.250000
v 13.750000 38.549999 -10.800000
v 13.750000 27.450001 -10.800000
v -16.549999 38.799999 -15.550000
v -16.549999 38.799999 15.550000
v -17.000000 39.250000 15.550000
v -17.000000 39.250000 -15.550000
v -16.549999 39.250000 16.000000
v -16.549999 40.750000 16.000000
v -17.000000 40.750000 15.550000
v -16.549999 41.200001 15.550000
v -16.549999 41.200001 -15.550000
v -17.000000 40.750000 -15.550000
v -16.549999 40.750000 -16.000000
v -16.549999 39.250000 -16.000000
v 16.549999 38.799999 -15.550000
v 16.549999 39.250000 -16.000000
v 16.549999 41.200001 -15.550000
v 16.549999 40.750000 -16.000000
v 17.000000 40.750000 -15.550000
v 17.000000 39.250000 -15.550000
v 16.549999 38.799999 15.550000
v 17.000000 39.250000 15.550000
v 16.549999 41.200001 15.550000
v 17.000000 40.750000 15.550000
v 16.549999 40.750000 16.000000
v 16.549999 39.250000 16.000000
vn -0.4606 0.7588 0.4606
vn -0.7588 0.4606 0.4606
vn -0.4606 0.4606 0.7588
vn -0.4606 -0.4606 0.7588
vn -0.7588 -0.4606 -0.4606
vn -0.7588 -0.4606 0.4606
vn -0.4606 -0.7588 0.4606
vn -0.4606 -0.7588 -0.4606
vn 0.4606 -0.4606 0.7588
vn 0.4606 0.4606 0.7588
vn 0.7588 0.4606 0.4606
vn 0.4606 0.7588 0.4606
vn 0.7588 -0.4606 0.4606
vn 0.4606 -0.7588 0.4606
vn 0.7588 -0.4606 -0.4606
vn 0.7588 0.4606 -0.4606
vn 0.4606 0.4606 -0.7588
vn 0.4606 0.7588 -0.4606
vn 0.4606 -0.4606 -0.7588
vn 0.4606 -0.7588 -0.4606
vn -0.4606 -0.4606 -0.7588
vn -0.4606 0.4606 -0.7588
vn -0.7588 0.4606 -0.4606
vn -0.4606 0.7588 -0.4606
vn -0.0000 -1.0000 -0.0000
vn -0.0000 -0.0000 1.0000
vn -1.0000 -0.0000 -0.0000
vn -0.0000 1.0000 -0.0000
vn -0.0000 -0.0000 -1.0000
vn 1.0000 -0.0000 -0.0000
vt -0.477500 0.000000
vt -0.500000 0.022500
vt -0.477500 0.022500
vt -0.500000 1.277500
vt -0.477500 1.300000
vt -0.477500 1.277500
vt 0.477500 0.000000
vt 0.477500 0.022500
vt 0.500000 0.022500
vt 0.477500 1.300000
vt 0.500000 1.277500
vt 0.477500 1.277500
vt -0.477500 0.022500
vt 0.477500 0.022500
vt -0.677500 1.275000
vt -0.700000 1.297500
vt -0.677500 1.297500
vt -0.700000 1.402500
vt -0.677500 1.425000
vt -0.677500 1.402500
vt 0.677500 1.275000
vt 0.677500 1.297500
vt 0.700000 1.297500
vt 0.677500 1.425000
vt 0.700000 1.402500
vt 0.677500 1.402500
vt -0.637500 1.350000
vt -0.660000 1.372500
vt -0.637500 1.372500
vt -0.660000 1.927500
vt -0.637500 1.950000
vt -0.637500 1.927500
vt -0.562500 1.350000
vt -0.562500 1.372500
vt -0.540000 1.372500
vt -0.562500 1.950000
vt -0.540000 1.927500
vt -0.562500 1.927500
vt 0.562500 1.350000
vt 0.540000 1.372500
vt 0.562500 1.372500
vt 0.540000 1.927500
vt 0.562500 1.950000
vt 0.562500 1.927500
vt 0.637500 1.350000
vt 0.637500 1.372500
vt 0.660000 1.372500
vt 0.637500 1.950000
vt 0.660000 1.927500
vt 0.637500 1.927500
vt -0.827500 1.940000
vt -0.827500 1.962500
vt -0.850000 1.962500
vt -0.827500 2.037500
vt -0.827500 2.060000
vt -0.850000 2.037500
vt 0.827500 1.940000
vt 0.850000 1.962500
vt 0.827500 1.962500
vt 0.827500 2.060000
vt 0.827500 2.037500
vt 0.850000 2.037500
vt -0.527500 0.000000
vt 0.527500 0.022500
vt 0.527500 0.000000
vt 0.527500 1.300000
vt -0.527500 1.277500
vt -0.527500 1.300000
vt -0.527500 0.022500
vt 0.527500 1.277500
vt -0.727500 1.275000
vt 0.727500 1.297500
vt 0.727500 1.275000
vt 0.727500 1.425000
vt -0.727500 1.402500
vt -0.727500 1.425000
vt -0.727500 1.297500
vt 0.727500 1.402500
vt -0.687500 1.350000
vt -0.612500 1.372500
vt -0.612500 1.350000
vt -0.612500 1.950000
vt -0.687500 1.927500
vt -0.687500 1.950000
vt -0.687500 1.372500
vt -0.612500 1.927500
vt 0.612500 1.350000
vt 0.687500 1.372500
vt 0.687500 1.350000
vt 0.687500 1.950000
vt 0.612500 1.927500
vt 0.612500 1.950000
vt 0.612500 1.372500
vt 0.687500 1.927500
vt -0.827500 -0.777500
vt -0.850000 0.777500
vt -0.827500 0.777500
vt -0.850000 -0.777500
vt 0.827500 0.777500
vt 0.850000 -0.777500
vt 0.827500 -0.777500
vt 0.850000 0.777500
vt 0.527500 0.477500
vt -0.527500 -0.477500
vt -0.527500 0.477500
vt 0.527500 -0.477500
vt 0.727500 0.677500
vt -0.727500 -0.677500
vt -0.727500 0.677500
vt 0.727500 -0.677500
vt -0.612500 -0.562500
vt -0.687500 -0.637500
vt -0.687500 -0.562500
vt -0.612500 -0.637500
vt 0.687500 -0.562500
vt 0.612500 -0.637500
vt 0.612500 -0.562500
vt 0.687500 -0.637500
vt -0.612500 0.637500
vt -0.687500 0.562500
vt -0.687500 0.637500
vt -0.612500 0.562500
vt 0.687500 0.637500
vt 0.612500 0.562500
vt 0.612500 0.637500
vt 0.687500 0.562500
vt -0.777500 2.037500
vt 0.777500 1.962500
vt -0.777500 1.962500
vt 0.777500 2.037500
s 1
f 55/1/7 52/2/4 54/3/6
f 51/4/3 49/5/1 50/6/2
f 56/7/8 53/8/5 45/9/21
f 48/10/24 46/11/22 47/12/23
f 38/1/14 37/13/13 33/2/9
f 36/5/12 34/4/10 35/6/11
f 44/7/20 43/9/19 39/14/15
f 42/10/18 40/12/16 41/11/17
f 31/15/7 28/16/4 30/17/6
f 27/18/3 25/19/1 26/20/2
f 32/21/8 29/22/5 21/23/21
f 24/24/24 22/25/22 23/26/23
f 14/15/14 13/17/13 9/16/9
f 12/19/12 10/18/10 11/20/11
f 20/21/20 19/23/19 15/22/15
f 18/24/18 16/26/16 17/25/17
f 7/27/7 4/28/4 6/29/6
f 3/30/3 1/31/1 2/32/2
f 8/33/8 5/34/5 228/35/21
f 225/36/24 227/37/22 226/38/23
f 235/27/14 236/29/13 240/28/9
f 237/31/12 239/30/10 238/32/11
f 229/33/20 230/35/19 234/34/15
f 231/36/18 233/38/16 232/37/17
f 242/27/7 245/28/4 243/29/6
f 246/30/3 248/31/1 247/32/2
f 241/33/8 244/34/5 252/35/21
f 249/36/24 251/37/22 250/38/23
f 259/27/14 260/29/13 264/28/9
f 261/31/12 263/30/10 262/32/11
f 253/33/20 254/35/19 258/34/15
f 255/36/18 257/38/16 256/37/17
f 266/39/7 269/40/4 267/41/6
f 270/42/3 272/43/1 271/44/2
f 265/45/8 268/46/5 276/47/21
f 273/48/24 275/49/22 274/50/23
f 283/39/14 284/41/13 288/40/9
f 285/43/12 287/42/10 286/44/11
f 277/45/20 278/47/19 282/46/15
f 279/48/18 281/50/16 280/49/17
f 290/39/7 293/40/4 291/41/6
f 294/42/3 296/43/1 295/44/2
f 289/45/8 292/46/5 300/47/21
f 297/48/24 299/49/22 298/50/23
f 307/39/14 308/41/13 312/40/9
f 309/43/12 311/42/10 310/44/11
f 301/45/20 302/47/19 306/46/15
f 303/48/18 305/50/16 304/49/17
f 314/51/7 317/52/4 315/53/6
f 318/54/3 320/55/1 319/56/2
f 313/51/8 316/53/5 324/52/21
f 321/55/24 323/54/22 322/56/23
f 331/57/14 332/58/13 336/59/9
f 333/60/12 335/61/10 334/62/11
f 325/57/20 326/59/19 330/58/15
f 327/60/18 329/62/16 328/61/17
f 55/1/7 53/8/5 56/7/8
f 51/4/3 54/3/6 52/2/4
f 48/10/24 50/6/2 49/5/1
f 45/9/21 47/12/23 46/11/22
f 56/63/8 43/64/19 44/65/20
f 42/66/18 46/67/22 48/68/24
f 39/14/15 41/11/17 40/12/16
f 44/7/20 37/13/13 38/1/14
f 36/5/12 40/12/16 42/10/18
f 33/2/9 35/6/11 34/4/10
f 38/65/14 52/69/4 55/63/7
f 49/68/1 34/70/10 36/66/12
f 31/15/7 29/22/5 32/21/8
f 27/18/3 30/17/6 28/16/4
f 24/24/24 26/20/2 25/19/1
f 21/23/21 23/26/23 22/25/22
f 32/71/8 19/72/19 20/73/20
f 18/74/18 22/75/22 24/76/24
f 15/22/15 17/25/17 16/26/16
f 20/21/20 13/17/13 14/15/14
f 12/19/12 16/26/16 18/24/18
f 9/16/9 11/20/11 10/18/10
f 14/73/14 28/77/4 31/71/7
f 25/76/1 10/78/10 12/74/12
f 7/27/7 5/34/5 8/33/8
f 3/30/3 6/29/6 4/28/4
f 225/36/24 2/32/2 1/31/1
f 228/35/21 226/38/23 227/37/22
f 8/79/8 230/80/19 229/81/20
f 231/82/18 227/83/22 225/84/24
f 234/34/15 232/37/17 233/38/16
f 229/33/20 236/29/13 235/27/14
f 237/31/12 233/38/16 231/36/18
f 240/28/9 238/32/11 239/30/10
f 235/81/14 4/85/4 7/79/7
f 1/84/1 239/86/10 237/82/12
f 242/27/7 244/34/5 241/33/8
f 246/30/3 243/29/6 245/28/4
f 249/36/24 247/32/2 248/31/1
f 252/35/21 250/38/23 251/37/22
f 241/87/8 254/88/19 253/89/20
f 255/90/18 251/91/22 249/92/24
f 258/34/15 256/37/17 257/38/16
f 253/33/20 260/29/13 259/27/14
f 261/31/12 257/38/16 255/36/18
f 264/28/9 262/32/11 263/30/10
f 259/89/14 245/93/4 242/87/7
f 248/92/1 263/94/10 261/90/12
f 266/39/7 268/46/5 265/45/8
f 270/42/3 267/41/6 269/40/4
f 273/48/24 271/44/2 272/43/1
f 276/47/21 274/50/23 275/49/22
f 265/79/8 278/80/19 277/81/20
f 279/82/18 275/83/22 273/84/24
f 282/46/15 280/49/17 281/50/16
f 277/45/20 284/41/13 283/39/14
f 285/43/12 281/50/16 279/48/18
f 288/40/9 286/44/11 287/42/10
f 283/81/14 269/85/4 266/79/7
f 272/84/1 287/86/10 285/82/12
f 290/39/7 292/46/5 289/45/8
f 294/42/3 291/41/6 293/40/4
f 297/48/24 295/44/2 296/43/1
f 300/47/21 298/50/23 299/49/22
f 289/87/8 302/88/19 301/89/20
f 303/90/18 299/91/22 297/92/24
f 306/46/15 304/49/17 305/50/16
f 301/45/20 308/41/13 307/39/14
f 309/43/12 305/50/16 303/48/18
f 312/40/9 310/44/11 311/42/10
f 307/89/14 293/93/4 290/87/7
f 296/92/1 311/94/10 309/90/12
f 314/95/7 316/96/5 313/97/8
f 318/54/3 315/53/6 317/52/4
f 321/97/24 319/98/2 320/95/1
f 324/52/21 322/56/23 323/54/22
f 313/51/8 326/59/19 325/57/20
f 327/60/18 323/54/22 321/55/24
f 330/58/15 328/61/17 329/62/16
f 325/99/20 332/100/13 331/101/14
f 333/101/12 329/102/16 327/99/18
f 336/59/9 334/62/11 335/61/10
f 331/57/14 317/52/4 314/51/7
f 320/55/1 335/61/10 333/60/12
f 75/103/25 57/104/25 63/105/25
f 62/6/27 64/8/27 59/3/27
f 73/70/26 58/69/26 71/64/26
f 66/105/28 72/106/28 78/103/28
f 67/67/29 76/64/29 65/69/29
f 79/12/30 70/13/30 77/14/30
f 99/107/25 81/108/25 87/109/25
f 86/20/27 88/22/27 83/17/27
f 97/78/26 82/77/26 95/72/26
f 90/109/28 96/110/28 102/107/28
f 91/75/29 100/72/29 89/77/29
f 103/26/30 94/17/30 101/22/30
f 123/111/25 105/112/25 111/113/25
f 110/32/27 112/34/27 107/29/27
f 121/86/26 106/85/26 119/80/26
f 114/113/28 120/114/28 126/111/28
f 115/83/29 124/80/29 113/85/29
f 127/38/30 118/29/30 125/34/30
f 147/115/25 129/116/25 135/117/25
f 134/32/27 136/34/27 131/29/27
f 145/94/26 130/93/26 143/88/26
f 138/117/28 144/118/28 150/115/28
f 139/91/29 148/88/29 137/93/29
f 151/38/30 142/29/30 149/34/30
f 171/119/25 153/120/25 159/121/25
f 158/44/27 160/46/27 155/41/27
f 169/86/26 154/85/26 167/80/26
f 162/121/28 168/122/28 174/119/28
f 163/83/29 172/80/29 161/85/29
f 175/50/30 166/41/30 173/46/30
f 195/123/25 177/124/25 183/125/25
f 182/44/27 184/46/27 179/41/27
f 193/94/26 178/93/26 191/88/26
f 186/125/28 192/126/28 198/123/28
f 187/91/29 196/88/29 185/93/29
f 199/50/30 190/41/30 197/46/30
f 219/99/25 201/95/25 207/97/25
f 206/127/27 208/128/27 203/129/27
f 217/61/26 202/52/26 215/59/26
f 210/97/28 216/101/28 222/99/28
f 211/54/29 220/59/29 209/52/29
f 223/130/30 214/129/30 221/128/30
f 55/1/7 54/3/6 53/8/5
f 51/4/3 50/6/2 54/3/6
f 48/10/24 47/12/23 50/6/2
f 45/9/21 53/8/5 47/12/23
f 56/63/8 45/69/21 43/64/19
f 42/66/18 41/70/17 46/67/22
f 39/14/15 43/9/19 41/11/17
f 44/7/20 39/14/15 37/13/13
f 36/5/12 35/6/11 40/12/16
f 33/2/9 37/13/13 35/6/11
f 38/65/14 33/64/9 52/69/4
f 49/68/1 51/67/3 34/70/10
f 31/15/7 30/17/6 29/22/5
f 27/18/3 26/20/2 30/17/6
f 24/24/24 23/26/23 26/20/2
f 21/23/21 29/22/5 23/26/23
f 32/71/8 21/77/21 19/72/19
f 18/74/18 17/78/17 22/75/22
f 15/22/15 19/23/19 17/25/17
f 20/21/20 15/22/15 13/17/13
f 12/19/12 11/20/11 16/26/16
f 9/16/9 13/17/13 11/20/11
f 14/73/14 9/72/9 28/77/4
f 25/76/1 27/75/3 10/78/10
f 7/27/7 6/29/6 5/34/5
f 3/30/3 2/32/2 6/29/6
f 225/36/24 226/38/23 2/32/2
f 228/35/21 5/34/5 226/38/23
f 8/79/8 228/85/21 230/80/19
f 231/82/18 232/86/17 227/83/22
f 234/34/15 230/35/19 232/37/17
f 229/33/20 234/34/15 236/29/13
f 237/31/12 238/32/11 233/38/16
f 240/28/9 236/29/13 238/32/11
f 235/81/14 240/80/9 4/85/4
f 1/84/1 3/83/3 239/86/10
f 242/27/7 243/29/6 244/34/5
f 246/30/3 247/32/2 243/29/6
f 249/36/24 250/38/23 247/32/2
f 252/35/21 244/34/5 250/38/23
f 241/87/8 252/93/21 254/88/19
f 255/90/18 256/94/17 251/91/22
f 258/34/15 254/35/19 256/37/17
f 253/33/20 258/34/15 260/29/13
f 261/31/12 262/32/11 257/38/16
f 264/28/9 260/29/13 262/32/11
f 259/89/14 264/88/9 245/93/4
f 248/92/1 246/91/3 263/94/10
f 266/39/7 267/41/6 268/46/5
f 270/42/3 271/44/2 267/41/6
f 273/48/24 274/50/23 271/44/2
f 276/47/21 268/46/5 274/50/23
f 265/79/8 276/85/21 278/80/19
f 279/82/18 280/86/17 275/83/22
f 282/46/15 278/47/19 280/49/17
f 277/45/20 282/46/15 284/41/13
f 285/43/12 286/44/11 281/50/16
f 288/40/9 284/41/13 286/44/11
f 283/81/14 288/80/9 269/85/4
f 272/84/1 270/83/3 287/86/10
f 290/39/7 291/41/6 292/46/5
f 294/42/3 295/44/2 291/41/6
f 297/48/24 298/50/23 295/44/2
f 300/47/21 292/46/5 298/50/23
f 289/87/8 300/93/21 302/88/19
f 303/90/18 304/94/17 299/91/22
f 306/46/15 302/47/19 304/49/17
f 301/45/20 306/46/15 308/41/13
f 309/43/12 310/44/11 305/50/16
f 312/40/9 308/41/13 310/44/11
f 307/89/14 312/88/9 293/93/4
f 296/92/1 294/91/3 311/94/10
f 314/95/7 315/98/6 316/96/5
f 318/54/3 319/56/2 315/53/6
f 321/97/24 322/96/23 319/98/2
f 324/52/21 316/53/5 322/56/23
f 313/51/8 324/52/21 326/59/19
f 327/60/18 328/61/17 323/54/22
f 330/58/15 326/59/19 328/61/17
f 325/99/20 330/102/15 332/100/13
f 333/101/12 334/100/11 329/102/16
f 336/59/9 332/58/13 334/62/11
f 331/57/14 336/59/9 317/52/4
f 320/55/1 318/54/3 335/61/10
f 75/103/25 69/106/25 57/104/25
f 62/6/27 68/12/27 64/8/27
f 73/70/26 60/67/26 58/69/26
f 66/105/28 61/104/28 72/106/28
f 67/67/29 80/70/29 76/64/29
f 79/12/30 74/6/30 70/13/30
f 99/107/25 93/110/25 81/108/25
f 86/20/27 92/26/27 88/22/27
f 97/78/26 84/75/26 82/77/26
f 90/109/28 85/108/28 96/110/28
f 91/75/29 104/78/29 100/72/29
f 103/26/30 98/20/30 94/17/30
f 123/111/25 117/114/25 105/112/25
f 110/32/27 116/38/27 112/34/27
f 121/86/26 108/83/26 106/85/26
f 114/113/28 109/112/28 120/114/28
f 115/83/29 128/86/29 124/80/29
f 127/38/30 122/32/30 118/29/30
f 147/115/25 141/118/25 129/116/25
f 134/32/27 140/38/27 136/34/27
f 145/94/26 132/91/26 130/93/26
f 138/117/28 133/116/28 144/118/28
f 139/91/29 152/94/29 148/88/29
f 151/38/30 146/32/30 142/29/30
f 171/119/25 165/122/25 153/120/25
f 158/44/27 164/50/27 160/46/27
f 169/86/26 156/83/26 154/85/26
f 162/121/28 157/120/28 168/122/28
f 163/83/29 176/86/29 172/80/29
f 175/50/30 170/44/30 166/41/30
f 195/123/25 189/126/25 177/124/25
f 182/44/27 188/50/27 184/46/27
f 193/94/26 180/91/26 178/93/26
f 186/125/28 181/124/28 192/126/28
f 187/91/29 200/94/29 196/88/29
f 199/50/30 194/44/30 190/41/30
f 219/99/25 213/101/25 201/95/25
f 206/127/27 212/130/27 208/128/27
f 217/61/26 204/54/26 202/52/26
f 210/97/28 205/95/28 216/101/28
f 211/54/29 224/61/29 220/59/29
f 223/130/30 218/127/30 214/129/30
