# Blender 5.2.0 LTS
# www.blender.org
o Backdrop_Mushroom
v 2.190583 0.000000 -3.015078
v 0.000000 38.000000 0.000000
v -4.975776 25.550331 -1.616728
v -2.807758 26.000000 3.864546
v -4.543047 26.000000 -1.476125
v -4.543047 26.000000 1.476125
v -3.544437 0.000000 1.151658
v -3.544437 0.000000 -1.151658
v 0.000000 26.000000 4.776842
v 2.807758 26.000000 3.864546
v 0.000000 26.000000 -4.776842
v -2.807758 26.000000 -3.864546
v -3.075198 25.550331 -4.232647
v -0.000000 25.550331 -5.231840
v -0.000000 0.449668 4.218160
v 2.479372 0.449668 3.412562
v 4.975776 25.550331 1.616728
v 3.075198 25.550331 4.232647
v -2.190583 0.000000 3.015078
v 3.544437 0.000000 1.151658
v 2.190583 0.000000 3.015078
v 0.000000 0.000000 3.726842
v 0.000000 36.258331 -10.000000
v 0.000000 34.192387 -14.142136
v 4.975776 25.550331 -1.616728
v 3.544437 0.000000 -1.151658
v 0.000000 25.000000 -20.000000
v 4.011708 0.449668 1.303483
v 4.011708 0.449668 -1.303483
v 4.543047 26.000000 1.476125
v 4.543047 26.000000 -1.476125
v 0.000000 25.550331 5.231840
v -3.075199 25.550331 4.232648
v 3.042600 37.557037 -4.187780
v -2.479372 0.449668 3.412563
v 5.877852 36.258331 -8.090170
v 8.312538 34.192387 -11.441229
v 10.180739 31.500000 -14.012585
v 11.355139 28.364647 -15.629007
v 11.755705 25.000000 -16.180340
v -4.975776 25.550331 1.616728
v 18.070076 25.000000 5.871323
v 17.454351 23.964724 5.671261
v 15.649141 23.000000 5.084714
v 12.777471 22.171574 4.151651
v -3.075198 25.550331 -4.232647
v 4.923031 37.557037 -1.599590
v -2.807758 26.000000 -3.864546
v 9.510566 36.258331 -3.090170
v 13.449969 34.192387 -4.370161
v 16.472780 31.500000 -5.352331
v 18.373001 28.364647 -5.969750
v 19.021132 25.000000 -6.180341
v 9.035038 21.535898 2.935661
v 4.676879 21.136297 1.519610
v 0.000000 21.000000 0.000000
v 4.676879 21.136297 -1.519610
v -2.479372 0.449668 -3.412562
v 4.923031 37.557037 1.599589
v 0.000001 25.000000 19.000002
v 9.510566 36.258331 3.090170
v 13.449969 34.192387 4.370159
v 16.472780 31.500000 5.352330
v 18.373001 28.364647 5.969748
v 19.021132 25.000000 6.180339
v 9.035037 21.535898 -2.935662
v 12.777471 22.171574 -4.151653
v 15.649141 23.000000 -5.084715
v 17.454351 23.964724 -5.671263
v 18.070074 25.000000 -5.871324
v 0.000001 23.964724 18.352592
v 3.042600 37.557037 4.187780
v 0.000001 23.000000 16.454481
v 5.877853 36.258331 8.090171
v 8.312538 34.192387 11.441227
v 10.180738 31.500000 14.012584
v 11.355141 28.364647 15.629007
v 11.755707 25.000000 16.180342
v -2.190583 0.000000 -3.015078
v -4.975776 25.550331 -1.616728
v -4.543047 26.000000 -1.476125
v -4.011708 0.449668 -1.303483
v -3.544437 0.000000 -1.151658
v 0.000000 22.171574 13.435027
v 0.000000 37.557037 5.176381
v 0.000001 21.535898 9.500001
v 0.000001 36.258331 10.000001
v 0.000000 34.192387 14.142134
v 0.000001 31.500000 17.320507
v 0.000001 28.364647 19.318518
v 0.000001 25.000000 20.000002
v -4.975776 25.550331 1.616728
v -4.543047 26.000000 1.476125
v -4.011708 0.449668 1.303483
v -3.544437 0.000000 1.151658
v 0.000000 21.136297 4.917562
v -3.042600 37.557037 4.187780
v -5.877852 36.258331 8.090172
v -8.312538 34.192387 11.441227
v -10.180738 31.500000 14.012585
v -11.355138 28.364647 15.629010
v -11.755705 25.000000 16.180344
v -3.075199 25.550331 4.232648
v -2.807758 26.000000 3.864546
v 11.167919 25.000000 -15.371323
v 10.787382 23.964724 -14.847557
v 9.671702 23.000000 -13.311955
v -4.923031 37.557037 1.599590
v -9.510566 36.258331 3.090172
v -13.449969 34.192387 4.370160
v -16.472780 31.500000 5.352332
v -18.373001 28.364647 5.969752
v -19.021132 25.000000 6.180343
v 7.896911 22.171574 -10.869167
v 5.583960 21.535898 -7.685661
v 2.890470 21.136297 -3.978391
v -4.923031 37.557037 -1.599589
v 2.890471 21.136297 3.978391
v -9.510567 36.258331 -3.090169
v -13.449969 34.192387 -4.370160
v -16.472780 31.500000 -5.352330
v -18.373003 28.364647 -5.969748
v -19.021133 25.000000 -6.180339
v 0.000000 21.535898 -9.500000
v 0.000000 22.171574 -13.435029
v 5.583961 21.535898 7.685662
v -3.042600 37.557037 -4.187780
v 7.896911 22.171574 10.869165
v -5.877854 36.258331 -8.090171
v -8.312538 34.192387 -11.441227
v -10.180738 31.500000 -14.012584
v -11.355143 28.364647 -15.629007
v -11.755709 25.000000 -16.180342
v 0.000000 25.000000 -19.000000
v -2.479372 0.449668 3.412563
v -2.190583 0.000000 3.015078
v 9.671701 23.000000 13.311954
v -0.000000 37.557037 -5.176381
v 10.787383 23.964724 14.847557
v 11.167922 25.000000 15.371325
v 0.000000 25.550331 5.231840
v -0.000001 31.500000 -17.320507
v -0.000003 28.364647 -19.318520
v 0.000000 26.000000 4.776842
v -0.000000 0.449668 4.218160
v 0.000000 0.000000 3.726842
v 3.075198 25.550331 4.232647
v 2.807758 26.000000 3.864546
v -11.167919 25.000000 15.371326
v -10.787381 23.964724 14.847560
v -9.671701 23.000000 13.311955
v -7.896911 22.171574 10.869165
v -5.583960 21.535898 7.685663
v -2.890470 21.136297 3.978391
v 2.479372 0.449668 3.412562
v 2.190583 0.000000 3.015078
v 4.975776 25.550331 1.616728
v 4.543047 26.000000 1.476125
v 4.011708 0.449668 1.303483
v -18.070076 25.000000 5.871326
v -17.454351 23.964724 5.671265
v -15.649141 23.000000 5.084715
v -12.777471 22.171574 4.151652
v -9.035038 21.535898 2.935663
v -4.676879 21.136297 1.519610
v 3.544437 0.000000 1.151658
v 4.975776 25.550331 -1.616728
v 4.543047 26.000000 -1.476125
v 4.011708 0.449668 -1.303483
v 3.544437 0.000000 -1.151658
v -18.070078 25.000000 -5.871322
v -17.454353 23.964724 -5.671260
v -15.649141 23.000000 -5.084714
v -12.777471 22.171574 -4.151652
v -9.035039 21.535898 -2.935661
v -4.676879 21.136297 -1.519610
v 3.075199 25.550331 -4.232648
v 2.807758 26.000000 -3.864546
v 2.479372 0.449668 -3.412563
v 2.190583 0.000000 -3.015078
v -0.000000 25.550331 -5.231840
v -11.167923 25.000000 -15.371325
v -10.787386 23.964724 -14.847557
v -9.671701 23.000000 -13.311954
v -7.896911 22.171574 -10.869165
v -5.583961 21.535898 -7.685662
v -2.890471 21.136297 -3.978391
v -4.011708 0.449668 1.303483
v -4.011708 0.449668 -1.303483
v 0.000000 26.000000 -4.776842
v -2.479372 0.449668 -3.412562
v -2.190583 0.000000 -3.015078
v 0.000000 0.449668 -4.218160
v -0.000000 0.000000 -3.726842
v 0.000000 0.449668 -4.218160
v -0.000003 23.964724 -18.352592
v -0.000001 23.000000 -16.454481
v 2.807758 26.000000 -3.864546
v 2.479372 0.449668 -3.412563
v -0.000000 21.136297 -4.917562
v 3.075199 25.550331 -4.232648
v -0.000000 0.000000 -3.726842
vn 0.3968 -0.7377 -0.5462
vn -0.0000 1.0000 -0.0000
vn -0.6685 0.7113 -0.2172
vn -0.4132 0.7113 0.5687
vn -0.6685 0.7113 0.2172
vn -0.6421 -0.7377 0.2086
vn -0.6421 -0.7377 -0.2086
vn -0.0000 0.7113 0.7029
vn 0.4132 0.7113 0.5687
vn -0.0000 0.7113 -0.7029
vn -0.4132 0.7113 -0.5687
vn -0.0000 -0.7377 0.6751
vn 0.3968 -0.7377 0.5462
vn 0.6685 0.7113 0.2172
vn -0.3968 -0.7377 0.5462
vn 0.6421 -0.7377 0.2086
vn -0.0000 0.9282 -0.3721
vn -0.0000 0.8241 -0.5665
vn 0.6685 0.7113 -0.2172
vn 0.6421 -0.7377 -0.2086
vn -0.0000 0.1985 -0.9801
vn 0.1119 0.9817 -0.1540
vn 0.2187 0.9282 -0.3010
vn 0.3330 0.8241 -0.4583
vn 0.4500 0.6433 -0.6194
vn 0.5479 0.3623 -0.7540
vn 0.5761 0.1985 -0.7929
vn 0.8064 -0.5302 0.2620
vn 0.6677 -0.7121 0.2169
vn 0.3595 -0.9258 0.1168
vn 0.2117 -0.9749 0.0688
vn -0.5873 -0.0404 -0.8084
vn 0.1811 0.9817 -0.0588
vn 0.3539 0.9282 -0.1150
vn 0.5388 0.8241 -0.1751
vn 0.7281 0.6433 -0.2366
vn 0.8864 0.3623 -0.2880
vn 0.9321 0.1985 -0.3029
vn 0.1241 -0.9915 0.0403
vn 0.0601 -0.9980 0.0195
vn -0.0000 -1.0000 -0.0000
vn 0.0601 -0.9980 -0.0195
vn 0.1811 0.9817 0.0588
vn -0.0000 -0.5302 0.8479
vn 0.3538 0.9282 0.1150
vn 0.5388 0.8241 0.1751
vn 0.7281 0.6433 0.2366
vn 0.8864 0.3623 0.2880
vn 0.9321 0.1985 0.3029
vn 0.1241 -0.9915 -0.0403
vn 0.2117 -0.9749 -0.0688
vn 0.3595 -0.9258 -0.1168
vn 0.6677 -0.7121 -0.2169
vn 0.8064 -0.5302 -0.2620
vn -0.0000 -0.7121 0.7020
vn 0.1119 0.9817 0.1540
vn -0.0000 -0.9258 0.3780
vn 0.2187 0.9282 0.3010
vn 0.3330 0.8241 0.4583
vn 0.4500 0.6433 0.6194
vn 0.5478 0.3623 0.7541
vn 0.5761 0.1985 0.7929
vn -0.9503 -0.0404 -0.3088
vn -0.0000 -0.9749 0.2226
vn -0.0000 0.9817 0.1904
vn -0.0000 -0.9915 0.1304
vn -0.0000 0.9282 0.3721
vn -0.0000 0.8241 0.5665
vn -0.0000 0.6433 0.7656
vn -0.0000 0.3623 0.9321
vn -0.0000 0.1985 0.9801
vn -0.9503 -0.0404 0.3088
vn -0.0000 -0.9980 0.0632
vn -0.1119 0.9817 0.1540
vn -0.2187 0.9282 0.3010
vn -0.3330 0.8241 0.4583
vn -0.4500 0.6433 0.6194
vn -0.5479 0.3623 0.7540
vn -0.5761 0.1985 0.7929
vn -0.5873 -0.0404 0.8084
vn 0.4984 -0.5302 -0.6859
vn 0.4126 -0.7121 -0.5680
vn 0.2222 -0.9258 -0.3058
vn -0.1811 0.9817 0.0588
vn -0.3538 0.9282 0.1150
vn -0.5388 0.8241 0.1751
vn -0.7281 0.6433 0.2366
vn -0.8864 0.3623 0.2880
vn -0.9321 0.1985 0.3029
vn 0.1308 -0.9749 -0.1800
vn 0.0767 -0.9915 -0.1055
vn 0.0372 -0.9980 -0.0511
vn -0.1811 0.9817 -0.0588
vn 0.0372 -0.9980 0.0511
vn -0.3538 0.9282 -0.1150
vn -0.5388 0.8241 -0.1751
vn -0.7281 0.6433 -0.2366
vn -0.8864 0.3623 -0.2880
vn -0.9321 0.1985 -0.3029
vn -0.0000 -0.9915 -0.1304
vn -0.0000 -0.9749 -0.2226
vn 0.0767 -0.9915 0.1055
vn -0.1119 0.9817 -0.1540
vn 0.1308 -0.9749 0.1801
vn -0.2187 0.9282 -0.3010
vn -0.3330 0.8241 -0.4583
vn -0.4500 0.6433 -0.6194
vn -0.5478 0.3623 -0.7541
vn -0.5761 0.1985 -0.7929
vn -0.0000 -0.5302 -0.8479
vn 0.2222 -0.9258 0.3058
vn -0.0000 0.9817 -0.1904
vn 0.4126 -0.7121 0.5680
vn 0.4984 -0.5302 0.6859
vn -0.0000 -0.0404 0.9992
vn -0.0000 0.6433 -0.7656
vn -0.0000 0.3623 -0.9321
vn 0.5873 -0.0404 0.8084
vn -0.4984 -0.5302 0.6859
vn -0.4126 -0.7121 0.5680
vn -0.2222 -0.9258 0.3058
vn -0.1308 -0.9749 0.1800
vn -0.0767 -0.9915 0.1055
vn -0.0372 -0.9980 0.0511
vn 0.9503 -0.0404 0.3088
vn -0.8064 -0.5302 0.2620
vn -0.6677 -0.7121 0.2169
vn -0.3595 -0.9258 0.1168
vn -0.2117 -0.9749 0.0688
vn -0.1241 -0.9915 0.0403
vn -0.0601 -0.9980 0.0195
vn 0.9503 -0.0404 -0.3088
vn -0.8064 -0.5302 -0.2620
vn -0.6677 -0.7121 -0.2169
vn -0.3595 -0.9258 -0.1168
vn -0.2117 -0.9749 -0.0688
vn -0.1241 -0.9915 -0.0403
vn -0.0601 -0.9980 -0.0195
vn 0.5873 -0.0404 -0.8084
vn -0.0000 -0.0404 -0.9992
vn -0.4984 -0.5302 -0.6859
vn -0.4126 -0.7121 -0.5680
vn -0.2222 -0.9258 -0.3058
vn -0.1308 -0.9749 -0.1801
vn -0.0767 -0.9915 -0.1055
vn -0.0372 -0.9980 -0.0511
vn -0.3968 -0.7377 -0.5462
vn -0.0000 -0.7377 -0.6751
vn -0.0000 -0.7121 -0.7020
vn -0.0000 -0.9258 -0.3780
vn 0.4132 0.7113 -0.5687
vn -0.0000 -0.9980 -0.0632
vt -0.000000 0.866025
vt 0.415627 0.572061
vt 0.509037 0.700629
vt 0.700629 1.575000
vt 0.298488 1.418232
vt 0.781450 1.418232
vt -0.000000 0.258819
vt 0.293893 0.404509
vt 0.000000 0.500000
vt 0.782457 -0.254236
vt 0.539369 -0.742378
vt 0.483585 -0.665598
vt 0.394846 -0.543458
vt 0.638874 -0.207583
vt 0.475528 0.154509
vt 0.672498 0.218508
vt -0.000000 1.575000
vt 0.567757 1.418232
vt -0.000000 1.418232
vt 0.246152 0.079979
vt 0.000000 0.707107
vt -0.293566 1.250000
vt -0.742378 1.198236
vt -0.283563 1.198236
vt 0.000000 0.000000
vt 0.152130 0.209389
vt 0.000000 1.250000
vt 0.587785 1.250000
vt 0.558396 1.250000
vt 0.000000 1.198236
vt 0.539369 1.198236
vt 0.823639 0.267617
vt 0.279198 -0.384283
vt 0.451752 -0.146783
vt 0.309017 1.250000
vt 0.809017 1.250000
vt 0.823639 -0.267617
vt 0.080836 1.277517
vt 0.170628 0.022483
vt 0.065174 0.022483
vt 0.233844 0.075981
vt 0.233844 -0.075980
vt 0.267617 1.575000
vt -0.298487 1.418232
vt 0.475528 -0.154508
vt -0.309017 1.250000
vt 0.672498 -0.218508
vt 0.144524 -0.198920
vt 0.246152 -0.079979
vt 0.293566 1.250000
vt 0.283563 1.198236
vt 0.415627 -0.572061
vt 0.451752 0.146783
vt 0.152130 -0.209389
vt 0.509037 -0.700629
vt 0.000000 -0.822724
vt 0.782457 0.254236
vt 0.638874 0.207583
vt -0.267617 1.575000
vt -0.781450 1.418232
vt 0.293893 -0.404509
vt -0.809017 1.250000
vt 0.509037 1.575000
vt 0.000000 1.418232
vt 0.567757 1.418232
vt 0.000000 -0.500000
vt 0.000000 1.250000
vt 0.587785 1.250000
vt 0.483585 0.665598
vt 0.394846 0.543458
vt 0.000000 -0.707107
vt 0.144524 0.198920
vt 0.872718 -0.283563
vt 0.000000 -0.258819
vt 0.000000 -0.866025
vt 0.000000 -0.671751
vt -0.152130 -0.209389
vt -0.509037 -0.700629
vt 0.000000 1.277517
vt -0.123969 0.022483
vt -0.000000 0.022483
vt 0.000000 1.575000
vt -0.567757 1.418232
vt -0.293893 -0.404509
vt -0.065174 0.022483
vt -0.587785 1.250000
vt 0.065174 0.022483
vt -0.080836 1.277517
vt -0.065174 0.022483
vt -0.415627 -0.572061
vt -0.211632 1.277517
vt -0.170628 0.022483
vt -0.170628 0.022483
vt -0.781451 1.418232
vt -0.309017 1.250000
vt -0.809017 1.250000
vt 0.279198 0.384283
vt -0.475528 -0.154509
vt -0.672498 -0.218508
vt 0.539369 0.742378
vt 0.768566 1.250000
vt 0.742378 1.198236
vt -0.246152 -0.079979
vt -0.823639 -0.267617
vt -0.700629 1.575000
vt -0.298488 1.418232
vt 0.153760 1.277517
vt 0.123969 0.022483
vt -0.267617 1.575000
vt 0.298487 1.418232
vt -0.475528 0.154508
vt -0.000000 0.245878
vt 0.309017 1.250000
vt -0.248789 0.080836
vt -0.140388 0.193227
vt -0.153760 0.211632
vt -0.672498 0.218508
vt -0.000000 0.822724
vt -0.123969 0.170628
vt -0.177222 0.057583
vt -0.200585 0.065174
vt -0.246152 0.079979
vt -0.823639 0.267617
vt 0.000000 0.475000
vt 0.000000 0.671751
vt -0.152130 0.209389
vt -0.509037 0.700629
vt 0.267617 1.575000
vt -0.293893 0.404509
vt 0.000000 0.210908
vt -0.109529 0.150754
vt 0.809017 1.250000
vt -0.000000 0.261592
vt 0.000000 0.238842
vt -0.415627 0.572061
vt -0.227152 0.073806
vt 0.140388 -0.193227
vt 0.227152 0.073806
vt -0.567757 1.418232
vt -0.587785 1.250000
vt 0.000000 -0.475000
vt 0.000000 -0.245878
vt 0.539369 1.198236
vt -0.000000 1.198236
vt 0.177222 -0.057583
vt -0.177222 -0.057583
vt -0.509037 1.575000
vt -0.394846 -0.543458
vt -0.279198 -0.384283
vt -0.144524 -0.198920
vt 0.000000 1.250000
vt -0.539369 1.198236
vt -0.539369 -0.742378
vt -0.483585 -0.665598
vt -0.768566 1.250000
vt -0.283563 1.198236
vt -0.742378 1.198236
vt -0.233844 -0.075981
vt -0.123969 -0.170628
vt -0.109529 -0.150754
vt -0.872718 -0.283563
vt -0.782457 -0.254236
vt -0.451752 -0.146783
vt -0.638874 -0.207583
vt -0.153760 -0.211632
vt 0.000000 -0.238842
vt -0.140388 -0.193227
vt 0.211632 1.277517
vt 0.170628 0.022483
vt -0.451752 0.146783
vt -0.233844 0.075980
vt -0.293566 1.250000
vt 0.283563 1.198236
vt -0.782457 0.254236
vt 0.248789 -0.080836
vt 0.153760 -0.211632
vt -0.638874 0.207583
vt 0.000000 -0.261592
vt -0.000000 -0.210908
vt 0.109529 -0.150754
vt 0.123969 -0.170628
vt 0.000000 -0.186342
vt -0.394846 0.543458
vt 0.293566 1.250000
vt 0.200585 -0.065174
vt 0.248789 0.080836
vt 0.140388 0.193227
vt -0.279198 0.384283
vt -0.144524 0.198920
vt -0.000000 1.277517
vt 0.123969 0.022483
vt 0.000000 0.022483
vt -0.539369 0.742378
vt -0.483585 0.665598
vt 0.177222 0.057583
vt 0.200585 0.065174
vt -0.073806 1.300000
vt 0.123969 0.170628
vt 0.109529 0.150754
vt -0.200585 -0.065174
vt -0.000000 0.186342
vt -0.558396 1.250000
vt -0.539369 1.198236
vt 0.153760 0.211632
vt -0.248789 -0.080836
vt -0.227152 -0.073806
vt -0.153760 1.277517
vt -0.123969 0.022483
vt -0.000000 0.917630
vt 0.073806 1.300000
vt 0.509037 1.575000
vt -0.768566 1.250000
vt 0.211632 1.277517
vt 0.000000 -0.917630
vt -0.700629 1.575000
vt 0.872718 0.283563
vt -0.211632 1.277517
vt 0.700629 1.575000
vt 0.227152 -0.073806
vt 0.558396 1.250000
vt -0.558396 1.250000
vt -0.872718 0.283563
vt 0.768566 1.250000
s 1
f 142/1/116 37/2/24 38/3/25
f 38/4/25 52/5/37 39/6/26
f 138/7/112 36/8/23 23/9/17
f 44/10/30 139/11/113 137/12/111
f 44/10/30 128/13/104 45/14/31
f 37/2/24 49/15/34 50/16/35
f 142/17/116 39/18/26 143/19/117
f 36/8/23 47/20/33 49/15/34
f 23/9/17 37/2/24 24/21/18
f 42/22/28 139/23/113 43/24/29
f 138/7/112 2/25/2 34/26/22
f 27/27/21 39/18/26 40/28/27
f 140/29/114 71/30/55 139/31/113
f 37/2/24 51/32/36 38/3/25
f 34/26/22 2/25/2 47/20/33
f 45/14/31 126/33/102 54/34/39
f 39/6/26 53/35/38 40/36/27
f 50/16/35 63/37/47 51/32/36
f 80/38/63 58/39/32 82/40/63
f 56/25/41 57/41/42 55/42/40
f 51/43/36 64/44/48 52/5/37
f 47/20/33 61/45/45 49/15/34
f 52/5/37 65/46/49 53/35/38
f 50/16/35 61/45/45 62/47/46
f 56/25/41 55/42/40 118/48/94
f 47/20/33 2/25/2 59/49/43
f 70/50/54 43/24/29 69/51/53
f 61/45/45 75/52/59 62/47/46
f 66/53/50 55/42/40 57/41/42
f 59/49/43 2/25/2 72/54/56
f 62/47/46 76/55/60 63/37/47
f 139/11/113 73/56/57 137/12/111
f 68/57/52 45/14/31 67/58/51
f 63/59/47 77/60/61 64/44/48
f 61/45/45 72/54/56 74/61/58
f 65/46/49 77/60/61 78/62/62
f 76/63/60 90/64/70 77/65/61
f 72/54/56 87/66/67 74/61/58
f 67/58/51 54/34/39 66/53/50
f 77/65/61 91/67/71 78/68/62
f 107/69/83 67/58/51 114/70/90
f 74/61/58 88/71/68 75/52/59
f 56/25/41 116/72/92 57/41/42
f 68/57/52 43/73/29 44/10/30
f 72/54/56 2/25/2 85/74/65
f 75/52/59 89/75/69 76/55/60
f 137/12/111 84/76/64 128/13/104
f 85/74/65 2/25/2 97/77/74
f 88/71/68 100/78/77 89/75/69
f 54/34/39 118/48/94 55/42/40
f 141/79/115 135/80/80 145/81/115
f 89/82/69 101/83/78 90/64/70
f 85/74/65 98/84/75 87/66/67
f 94/85/72 80/38/63 82/40/63
f 90/64/70 102/86/79 91/67/71
f 169/87/132 157/88/125 159/89/125
f 88/71/68 98/84/75 99/90/76
f 103/91/80 94/85/72 135/92/80
f 157/88/125 155/93/118 159/89/125
f 101/94/78 113/95/89 102/96/79
f 114/70/90 66/53/50 115/97/91
f 99/90/76 109/98/85 110/99/86
f 106/100/82 68/57/52 107/69/83
f 105/101/81 69/51/53 106/102/82
f 97/77/74 2/25/2 108/103/84
f 99/90/76 111/104/87 100/78/77
f 115/97/91 57/41/42 116/72/92
f 100/105/77 112/106/88 101/94/78
f 97/77/74 109/98/85 98/84/75
f 147/107/118 145/81/115 155/108/118
f 111/109/87 122/110/98 112/106/88
f 108/103/84 119/111/95 109/98/85
f 56/25/41 200/112/152 116/72/92
f 112/106/88 123/113/99 113/95/89
f 3/114/3 12/115/11 13/116/11
f 110/99/86 119/111/95 120/117/96
f 197/118/150 106/100/82 107/69/83
f 191/119/147 8/120/7 189/121/7
f 108/103/84 2/25/2 117/122/93
f 110/99/86 121/123/97 111/104/87
f 124/124/100 114/70/90 115/97/91
f 197/118/150 114/70/90 125/125/101
f 117/122/93 2/25/2 127/126/103
f 120/117/96 131/127/107 121/123/97
f 124/124/100 116/72/92 200/112/152
f 121/128/97 132/6/108 122/110/98
f 117/122/93 129/129/105 119/111/95
f 195/130/148 192/131/147 191/119/147
f 123/113/99 132/6/108 133/132/109
f 14/133/10 12/115/11 11/134/10
f 120/117/96 129/129/105 130/135/106
f 81/136/2 148/137/2 168/138/2
f 132/139/108 27/27/21 133/140/109
f 128/13/104 86/141/66 126/33/102
f 129/129/105 24/21/18 130/135/106
f 56/25/41 118/48/94 96/142/73
f 134/27/110 106/143/82 196/144/149
f 127/126/103 2/25/2 138/7/112
f 130/135/106 142/1/116 131/127/107
f 126/33/102 96/142/73 118/48/94
f 166/145/41 95/146/41 79/131/41
f 131/147/107 143/19/117 132/139/108
f 127/126/103 23/9/17 129/129/105
f 73/56/57 152/148/122 84/76/64
f 96/142/73 153/149/123 154/150/124
f 60/151/44 150/152/120 71/30/55
f 73/56/57 150/153/120 151/154/121
f 56/25/41 96/142/73 154/150/124
f 84/76/64 153/149/123 86/141/66
f 149/155/119 161/156/127 150/157/120
f 56/25/41 154/150/124 165/158/131
f 35/159/15 7/146/6 19/160/15
f 151/154/121 161/161/127 162/162/128
f 152/148/122 164/163/130 153/149/123
f 151/154/121 163/164/129 152/148/122
f 153/149/123 165/158/131 154/150/124
f 33/165/4 9/166/8 4/167/4
f 177/168/139 169/87/132 179/169/139
f 165/158/131 175/170/137 176/171/138
f 160/172/126 172/173/134 161/156/127
f 161/161/127 173/174/135 162/162/128
f 17/175/14 10/137/9 18/176/9
f 56/25/41 165/158/131 176/171/138
f 162/162/128 174/177/136 163/164/129
f 32/178/8 10/137/9 9/166/8
f 163/164/129 175/170/137 164/163/130
f 15/179/12 21/180/13 16/181/13
f 35/159/15 22/182/12 15/179/12
f 173/174/135 185/183/144 174/177/136
f 171/184/133 183/102/142 172/173/134
f 16/181/13 20/145/16 28/185/16
f 25/186/19 198/187/151 31/138/19
f 176/171/138 186/188/145 187/189/146
f 181/190/140 179/191/139 193/192/140
f 173/174/135 183/193/142 184/194/143
f 28/185/16 26/195/20 29/196/20
f 56/25/41 176/171/138 187/189/146
f 174/177/136 186/188/145 175/170/137
f 25/38/19 30/197/14 17/88/14
f 199/198/1 26/195/20 1/199/1
f 185/183/144 124/124/100 186/188/145
f 189/121/7 7/146/6 188/200/6
f 199/198/1 202/201/148 195/130/148
f 184/194/143 125/125/101 185/183/144
f 182/202/141 196/144/149 183/203/142
f 201/204/151 11/134/10 198/187/151
f 41/205/5 4/167/4 6/206/5
f 187/189/146 124/124/100 200/112/152
f 46/207/32 193/192/140 58/208/32
f 184/194/143 196/209/149 197/118/150
f 41/88/5 5/210/3 3/38/3
f 56/25/41 187/189/146 200/112/152
f 142/1/116 24/21/18 37/2/24
f 38/4/25 51/43/36 52/5/37
f 138/7/112 34/26/22 36/8/23
f 44/10/30 43/73/29 139/11/113
f 44/10/30 137/12/111 128/13/104
f 37/2/24 36/8/23 49/15/34
f 142/17/116 38/211/25 39/18/26
f 36/8/23 34/26/22 47/20/33
f 23/9/17 36/8/23 37/2/24
f 42/22/28 140/212/114 139/23/113
f 27/27/21 143/19/117 39/18/26
f 140/29/114 60/151/44 71/30/55
f 37/2/24 50/16/35 51/32/36
f 45/14/31 128/13/104 126/33/102
f 39/6/26 52/5/37 53/35/38
f 50/16/35 62/47/46 63/37/47
f 80/38/63 46/213/32 58/39/32
f 51/43/36 63/59/47 64/44/48
f 47/20/33 59/49/43 61/45/45
f 52/5/37 64/44/48 65/46/49
f 50/16/35 49/15/34 61/45/45
f 70/50/54 42/22/28 43/24/29
f 61/45/45 74/61/58 75/52/59
f 66/53/50 54/34/39 55/42/40
f 62/47/46 75/52/59 76/55/60
f 139/11/113 71/214/55 73/56/57
f 68/57/52 44/10/30 45/14/31
f 63/59/47 76/215/60 77/60/61
f 61/45/45 59/49/43 72/54/56
f 65/46/49 64/44/48 77/60/61
f 76/63/60 89/82/69 90/64/70
f 72/54/56 85/74/65 87/66/67
f 67/58/51 45/14/31 54/34/39
f 77/65/61 90/64/70 91/67/71
f 107/69/83 68/57/52 67/58/51
f 74/61/58 87/66/67 88/71/68
f 68/57/52 69/216/53 43/73/29
f 75/52/59 88/71/68 89/75/69
f 137/12/111 73/56/57 84/76/64
f 88/71/68 99/90/76 100/78/77
f 54/34/39 126/33/102 118/48/94
f 141/79/115 103/207/80 135/80/80
f 89/82/69 100/147/77 101/83/78
f 85/74/65 97/77/74 98/84/75
f 94/85/72 92/88/72 80/38/63
f 90/64/70 101/83/78 102/86/79
f 169/87/132 167/38/132 157/88/125
f 88/71/68 87/66/67 98/84/75
f 103/91/80 92/88/72 94/85/72
f 157/88/125 147/217/118 155/93/118
f 101/94/78 112/106/88 113/95/89
f 114/70/90 67/58/51 66/53/50
f 99/90/76 98/84/75 109/98/85
f 106/100/82 69/216/53 68/57/52
f 105/101/81 70/50/54 69/51/53
f 99/90/76 110/99/86 111/104/87
f 115/97/91 66/53/50 57/41/42
f 100/105/77 111/109/87 112/106/88
f 97/77/74 108/103/84 109/98/85
f 147/107/118 141/79/115 145/81/115
f 111/109/87 121/128/97 122/110/98
f 108/103/84 117/122/93 119/111/95
f 112/106/88 122/110/98 123/113/99
f 3/114/3 5/136/3 12/115/11
f 110/99/86 109/98/85 119/111/95
f 197/118/150 196/209/149 106/100/82
f 191/119/147 192/131/147 8/120/7
f 110/99/86 120/117/96 121/123/97
f 124/124/100 125/125/101 114/70/90
f 197/118/150 107/69/83 114/70/90
f 120/117/96 130/135/106 131/127/107
f 124/124/100 115/97/91 116/72/92
f 121/128/97 131/218/107 132/6/108
f 117/122/93 127/126/103 129/129/105
f 195/130/148 202/201/148 192/131/147
f 123/113/99 122/110/98 132/6/108
f 14/133/10 13/116/11 12/115/11
f 120/117/96 119/111/95 129/129/105
f 168/138/2 178/187/2 190/134/2
f 190/134/2 48/115/2 81/136/2
f 81/136/2 93/206/2 104/167/2
f 104/167/2 144/166/2 148/137/2
f 148/137/2 158/219/2 168/138/2
f 168/138/2 190/134/2 81/136/2
f 81/136/2 104/167/2 148/137/2
f 132/139/108 143/19/117 27/27/21
f 128/13/104 84/76/64 86/141/66
f 129/129/105 23/9/17 24/21/18
f 134/27/110 105/220/81 106/143/82
f 130/135/106 24/21/18 142/1/116
f 126/33/102 86/141/66 96/142/73
f 79/131/41 194/201/41 180/199/41
f 180/199/41 170/195/41 166/145/41
f 166/145/41 156/180/41 146/182/41
f 146/182/41 136/160/41 95/146/41
f 95/146/41 83/120/41 79/131/41
f 79/131/41 180/199/41 166/145/41
f 166/145/41 146/182/41 95/146/41
f 131/147/107 142/17/116 143/19/117
f 127/126/103 138/7/112 23/9/17
f 73/56/57 151/154/121 152/148/122
f 96/142/73 86/141/66 153/149/123
f 60/151/44 149/221/119 150/152/120
f 73/56/57 71/214/55 150/153/120
f 84/76/64 152/148/122 153/149/123
f 149/155/119 160/172/126 161/156/127
f 35/159/15 188/200/6 7/146/6
f 151/154/121 150/153/120 161/161/127
f 152/148/122 163/164/129 164/163/130
f 151/154/121 162/162/128 163/164/129
f 153/149/123 164/163/130 165/158/131
f 33/165/4 32/178/8 9/166/8
f 177/168/139 167/38/132 169/87/132
f 165/158/131 164/163/130 175/170/137
f 160/172/126 171/184/133 172/173/134
f 161/161/127 172/222/134 173/174/135
f 17/175/14 30/219/14 10/137/9
f 162/162/128 173/174/135 174/177/136
f 32/178/8 18/176/9 10/137/9
f 163/164/129 174/177/136 175/170/137
f 15/179/12 22/182/12 21/180/13
f 35/159/15 19/160/15 22/182/12
f 173/174/135 184/194/143 185/183/144
f 171/184/133 182/223/141 183/102/142
f 16/181/13 21/180/13 20/145/16
f 25/186/19 201/204/151 198/187/151
f 176/171/138 175/170/137 186/188/145
f 181/190/140 177/107/139 179/191/139
f 173/174/135 172/222/134 183/193/142
f 28/185/16 20/145/16 26/195/20
f 174/177/136 185/183/144 186/188/145
f 25/38/19 31/210/19 30/197/14
f 199/198/1 29/196/20 26/195/20
f 185/183/144 125/125/101 124/124/100
f 189/121/7 8/120/7 7/146/6
f 199/198/1 1/199/1 202/201/148
f 184/194/143 197/118/150 125/125/101
f 182/202/141 134/27/110 196/144/149
f 201/204/151 14/133/10 11/134/10
f 41/205/5 33/165/4 4/167/4
f 187/189/146 186/188/145 124/124/100
f 46/207/32 181/190/140 193/192/140
f 184/194/143 183/193/142 196/209/149
f 41/88/5 6/197/5 5/210/3
