# Blender 5.2.0 LTS
# www.blender.org
o ButterWax_Tile
v -1.600000 0.000000 1.600000
v -1.460870 0.000000 1.600000
v -1.321739 0.000000 1.600000
v -1.182609 0.000000 1.600000
v -1.043478 0.000000 1.600000
v -0.904348 0.000000 1.600000
v -0.765217 0.000000 1.600000
v -0.626087 0.000000 1.600000
v -0.486957 0.000000 1.600000
v -0.347826 0.000000 1.600000
v -0.208696 0.000000 1.600000
v -0.069565 0.000000 1.600000
v 0.069565 0.000000 1.600000
v 0.208696 0.000000 1.600000
v 0.347826 0.000000 1.600000
v 0.486957 0.000000 1.600000
v 0.626087 0.000000 1.600000
v 0.765217 0.000000 1.600000
v 0.904348 0.000000 1.600000
v 1.043478 0.000000 1.600000
v 1.182609 0.000000 1.600000
v 1.321739 0.000000 1.600000
v 1.460870 0.000000 1.600000
v 1.600000 0.000000 1.600000
v -1.600000 0.000000 1.460870
v -1.460870 0.653297 1.460870
v -1.321739 0.642753 1.460870
v -1.182609 0.641565 1.460870
v -1.043478 0.639245 1.460870
v -0.904348 0.632845 1.460870
v -0.765217 0.631347 1.460870
v -0.626087 0.629219 1.460870
v -0.486957 0.642477 1.460870
v -0.347826 0.642573 1.460870
v -0.208696 0.624479 1.460870
v -0.069565 0.610967 1.460870
v 0.069565 0.612264 1.460870
v 0.208696 0.630270 1.460870
v 0.347826 0.655839 1.460870
v 0.486957 0.687896 1.460870
v 0.626087 0.717278 1.460870
v 0.765217 0.745754 1.460870
v 0.904348 0.774045 1.460870
v 1.043478 0.811641 1.460870
v 1.182609 0.854899 1.460870
v 1.321739 0.890740 1.460870
v 1.460870 0.926446 1.460870
v 1.600000 0.000000 1.460870
v -1.600000 0.000000 1.321739
v -1.460870 0.665026 1.321739
v -1.321739 0.668119 1.321739
v -1.182609 0.664457 1.321739
v -1.043478 0.652688 1.321739
v -0.904348 0.642401 1.321739
v -0.765217 0.638204 1.321739
v -0.626087 0.643200 1.321739
v -0.486957 0.645679 1.321739
v -0.347826 0.639276 1.321739
v -0.208696 0.640209 1.321739
v -0.069565 0.632399 1.321739
v 0.069565 0.634299 1.321739
v 0.208696 0.645689 1.321739
v 0.347826 0.643624 1.321739
v 0.486957 0.675117 1.321739
v 0.626087 0.713275 1.321739
v 0.765217 0.743471 1.321739
v 0.904348 0.752283 1.321739
v 1.043478 0.770372 1.321739
v 1.182609 0.809299 1.321739
v 1.321739 0.857982 1.321739
v 1.460870 0.900895 1.321739
v 1.600000 0.000000 1.321739
v -1.600000 0.000000 1.182609
v -1.460870 0.659678 1.182609
v -1.321739 0.655402 1.182609
v -1.182609 0.662539 1.182609
v -1.043478 0.674736 1.182609
v -0.904348 0.679536 1.182609
v -0.765217 0.667616 1.182609
v -0.626087 0.677892 1.182609
v -0.486957 0.674474 1.182609
v -0.347826 0.664036 1.182609
v -0.208696 0.659688 1.182609
v -0.069565 0.661088 1.182609
v 0.069565 0.657247 1.182609
v 0.208696 0.643474 1.182609
v 0.347826 0.641689 1.182609
v 0.486957 0.653935 1.182609
v 0.626087 0.683685 1.182609
v 0.765217 0.727174 1.182609
v 0.904348 0.719753 1.182609
v 1.043478 0.716348 1.182609
v 1.182609 0.743759 1.182609
v 1.321739 0.810901 1.182609
v 1.460870 0.865643 1.182609
v 1.600000 0.000000 1.182609
v -1.600000 0.000000 1.043478
v -1.460870 0.672498 1.043478
v -1.321739 0.676473 1.043478
v -1.182609 0.681359 1.043478
v -1.043478 0.688063 1.043478
v -0.904348 0.689402 1.043478
v -0.765217 0.674372 1.043478
v -0.626087 0.680471 1.043478
v -0.486957 0.677447 1.043478
v -0.347826 0.671709 1.043478
v -0.208696 0.667696 1.043478
v -0.069565 0.666719 1.043478
v 0.069565 0.665802 1.043478
v 0.208696 0.661794 1.043478
v 0.347826 0.653433 1.043478
v 0.486957 0.658456 1.043478
v 0.626087 0.673846 1.043478
v 0.765217 0.695744 1.043478
v 0.904348 0.691991 1.043478
v 1.043478 0.689224 1.043478
v 1.182609 0.713755 1.043478
v 1.321739 0.782864 1.043478
v 1.460870 0.839458 1.043478
v 1.600000 0.000000 1.043478
v -1.600000 0.000000 0.904348
v -1.460870 0.687943 0.904348
v -1.321739 0.690485 0.904348
v -1.182609 0.687669 0.904348
v -1.043478 0.692657 0.904348
v -0.904348 0.694924 0.904348
v -0.765217 0.682148 0.904348
v -0.626087 0.678469 0.904348
v -0.486957 0.667172 0.904348
v -0.347826 0.662038 0.904348
v -0.208696 0.662436 0.904348
v -0.069565 0.663378 0.904348
v 0.069565 0.665446 0.904348
v 0.208696 0.673764 0.904348
v 0.347826 0.668386 0.904348
v 0.486957 0.666432 0.904348
v 0.626087 0.659143 0.904348
v 0.765217 0.654001 0.904348
v 0.904348 0.659048 0.904348
v 1.043478 0.666194 0.904348
v 1.182609 0.692066 0.904348
v 1.321739 0.756123 0.904348
v 1.460870 0.813035 0.904348
v 1.600000 0.000000 0.904348
v -1.600000 0.000000 0.765217
v -1.460870 0.695945 0.765217
v -1.321739 0.681437 0.765217
v -1.182609 0.663779 0.765217
v -1.043478 0.675808 0.765217
v -0.904348 0.687271 0.765217
v -0.765217 0.686964 0.765217
v -0.626087 0.674082 0.765217
v -0.486957 0.657038 0.765217
v -0.347826 0.651831 0.765217
v -0.208696 0.658744 0.765217
v -0.069565 0.663698 0.765217
v 0.069565 0.662714 0.765217
v 0.208696 0.664862 0.765217
v 0.347826 0.663668 0.765217
v 0.486957 0.659555 0.765217
v 0.626087 0.639180 0.765217
v 0.765217 0.610818 0.765217
v 0.904348 0.624022 0.765217
v 1.043478 0.639744 0.765217
v 1.182609 0.668268 0.765217
v 1.321739 0.712156 0.765217
v 1.460870 0.767056 0.765217
v 1.600000 0.000000 0.765217
v -1.600000 0.000000 0.626087
v -1.460870 0.669913 0.626087
v -1.321739 0.655621 0.626087
v -1.182609 0.651037 0.626087
v -1.043478 0.656982 0.626087
v -0.904348 0.666874 0.626087
v -0.765217 0.667285 0.626087
v -0.626087 0.664831 0.626087
v -0.486957 0.653162 0.626087
v -0.347826 0.648666 0.626087
v -0.208696 0.669954 0.626087
v -0.069565 0.671587 0.626087
v 0.069565 0.673656 0.626087
v 0.208696 0.684072 0.626087
v 0.347826 0.676837 0.626087
v 0.486957 0.655354 0.626087
v 0.626087 0.624589 0.626087
v 0.765217 0.615451 0.626087
v 0.904348 0.616476 0.626087
v 1.043478 0.630131 0.626087
v 1.182609 0.654317 0.626087
v 1.321739 0.694203 0.626087
v 1.460870 0.723879 0.626087
v 1.600000 0.000000 0.626087
v -1.600000 0.000000 0.486957
v -1.460870 0.650854 0.486957
v -1.321739 0.624401 0.486957
v -1.182609 0.614919 0.486957
v -1.043478 0.612884 0.486957
v -0.904348 0.624934 0.486957
v -0.765217 0.635709 0.486957
v -0.626087 0.646663 0.486957
v -0.486957 0.653723 0.486957
v -0.347826 0.661461 0.486957
v -0.208696 0.687097 0.486957
v -0.069565 0.689892 0.486957
v 0.069565 0.689107 0.486957
v 0.208696 0.687442 0.486957
v 0.347826 0.676095 0.486957
v 0.486957 0.652924 0.486957
v 0.626087 0.621065 0.486957
v 0.765217 0.612647 0.486957
v 0.904348 0.615026 0.486957
v 1.043478 0.630674 0.486957
v 1.182609 0.645962 0.486957
v 1.321739 0.663935 0.486957
v 1.460870 0.674620 0.486957
v 1.600000 0.000000 0.486957
v -1.600000 0.000000 0.347826
v -1.460870 0.636245 0.347826
v -1.321739 0.602427 0.347826
v -1.182609 0.586320 0.347826
v -1.043478 0.575537 0.347826
v -0.904348 0.586195 0.347826
v -0.765217 0.606507 0.347826
v -0.626087 0.624953 0.347826
v -0.486957 0.646678 0.347826
v -0.347826 0.667346 0.347826
v -0.208696 0.694038 0.347826
v -0.069565 0.702977 0.347826
v 0.069565 0.700160 0.347826
v 0.208696 0.687472 0.347826
v 0.347826 0.678181 0.347826
v 0.486957 0.656890 0.347826
v 0.626087 0.625989 0.347826
v 0.765217 0.614489 0.347826
v 0.904348 0.615954 0.347826
v 1.043478 0.627863 0.347826
v 1.182609 0.632259 0.347826
v 1.321739 0.628384 0.347826
v 1.460870 0.629730 0.347826
v 1.600000 0.000000 0.347826
v -1.600000 0.000000 0.208696
v -1.460870 0.628962 0.208696
v -1.321739 0.608591 0.208696
v -1.182609 0.570599 0.208696
v -1.043478 0.567750 0.208696
v -0.904348 0.579358 0.208696
v -0.765217 0.599066 0.208696
v -0.626087 0.605469 0.208696
v -0.486957 0.637990 0.208696
v -0.347826 0.671161 0.208696
v -0.208696 0.678311 0.208696
v -0.069565 0.706490 0.208696
v 0.069565 0.710055 0.208696
v 0.208696 0.691942 0.208696
v 0.347826 0.683759 0.208696
v 0.486957 0.657402 0.208696
v 0.626087 0.631168 0.208696
v 0.765217 0.626308 0.208696
v 0.904348 0.602428 0.208696
v 1.043478 0.600864 0.208696
v 1.182609 0.603596 0.208696
v 1.321739 0.581433 0.208696
v 1.460870 0.591204 0.208696
v 1.600000 0.000000 0.208696
v -1.600000 0.000000 0.069565
v -1.460870 0.601351 0.069565
v -1.321739 0.586615 0.069565
v -1.182609 0.574970 0.069565
v -1.043478 0.555684 0.069565
v -0.904348 0.548526 0.069565
v -0.765217 0.563584 0.069565
v -0.626087 0.581064 0.069565
v -0.486957 0.623924 0.069565
v -0.347826 0.665274 0.069565
v -0.208696 0.667107 0.069565
v -0.069565 0.687361 0.069565
v 0.069565 0.692106 0.069565
v 0.208696 0.682268 0.069565
v 0.347826 0.657666 0.069565
v 0.486957 0.644368 0.069565
v 0.626087 0.637851 0.069565
v 0.765217 0.624839 0.069565
v 0.904348 0.613088 0.069565
v 1.043478 0.589997 0.069565
v 1.182609 0.566947 0.069565
v 1.321739 0.553783 0.069565
v 1.460870 0.553056 0.069565
v 1.600000 0.000000 0.069565
v -1.600000 0.000000 -0.069565
v -1.460870 0.597323 -0.069565
v -1.321739 0.584926 -0.069565
v -1.182609 0.578535 -0.069565
v -1.043478 0.555081 -0.069565
v -0.904348 0.544889 -0.069565
v -0.765217 0.560749 -0.069565
v -0.626087 0.582844 -0.069565
v -0.486957 0.625644 -0.069565
v -0.347826 0.666942 -0.069565
v -0.208696 0.673574 -0.069565
v -0.069565 0.686430 -0.069565
v 0.069565 0.687975 -0.069565
v 0.208696 0.677289 -0.069565
v 0.347826 0.648895 -0.069565
v 0.486957 0.642643 -0.069565
v 0.626087 0.642877 -0.069565
v 0.765217 0.625016 -0.069565
v 0.904348 0.616554 -0.069565
v 1.043478 0.589791 -0.069565
v 1.182609 0.561303 -0.069565
v 1.321739 0.556535 -0.069565
v 1.460870 0.551630 -0.069565
v 1.600000 0.000000 -0.069565
v -1.600000 0.000000 -0.208696
v -1.460870 0.602995 -0.208696
v -1.321739 0.603446 -0.208696
v -1.182609 0.593081 -0.208696
v -1.043478 0.577531 -0.208696
v -0.904348 0.577526 -0.208696
v -0.765217 0.597857 -0.208696
v -0.626087 0.616788 -0.208696
v -0.486957 0.645442 -0.208696
v -0.347826 0.676289 -0.208696
v -0.208696 0.696486 -0.208696
v -0.069565 0.698317 -0.208696
v 0.069565 0.690623 -0.208696
v 0.208696 0.667649 -0.208696
v 0.347826 0.646399 -0.208696
v 0.486957 0.648019 -0.208696
v 0.626087 0.654250 -0.208696
v 0.765217 0.639599 -0.208696
v 0.904348 0.624695 -0.208696
v 1.043478 0.605422 -0.208696
v 1.182609 0.585349 -0.208696
v 1.321739 0.584381 -0.208696
v 1.460870 0.573350 -0.208696
v 1.600000 0.000000 -0.208696
v -1.600000 0.000000 -0.347826
v -1.460870 0.600287 -0.347826
v -1.321739 0.606971 -0.347826
v -1.182609 0.612220 -0.347826
v -1.043478 0.615483 -0.347826
v -0.904348 0.626221 -0.347826
v -0.765217 0.634606 -0.347826
v -0.626087 0.647680 -0.347826
v -0.486957 0.660549 -0.347826
v -0.347826 0.676784 -0.347826
v -0.208696 0.685407 -0.347826
v -0.069565 0.694624 -0.347826
v 0.069565 0.689573 -0.347826
v 0.208696 0.663274 -0.347826
v 0.347826 0.658413 -0.347826
v 0.486957 0.656506 -0.347826
v 0.626087 0.660168 -0.347826
v 0.765217 0.655474 -0.347826
v 0.904348 0.656536 -0.347826
v 1.043478 0.644196 -0.347826
v 1.182609 0.621686 -0.347826
v 1.321739 0.600711 -0.347826
v 1.460870 0.583723 -0.347826
v 1.600000 0.000000 -0.347826
v -1.600000 0.000000 -0.486957
v -1.460870 0.621642 -0.486957
v -1.321739 0.646068 -0.486957
v -1.182609 0.659593 -0.486957
v -1.043478 0.662463 -0.486957
v -0.904348 0.670836 -0.486957
v -0.765217 0.678800 -0.486957
v -0.626087 0.677783 -0.486957
v -0.486957 0.677664 -0.486957
v -0.347826 0.679928 -0.486957
v -0.208696 0.671466 -0.486957
v -0.069565 0.678480 -0.486957
v 0.069565 0.675500 -0.486957
v 0.208696 0.655589 -0.486957
v 0.347826 0.658311 -0.486957
v 0.486957 0.661113 -0.486957
v 0.626087 0.671238 -0.486957
v 0.765217 0.684351 -0.486957
v 0.904348 0.674907 -0.486957
v 1.043478 0.666155 -0.486957
v 1.182609 0.654779 -0.486957
v 1.321739 0.629470 -0.486957
v 1.460870 0.614577 -0.486957
v 1.600000 0.000000 -0.486957
v -1.600000 0.000000 -0.626087
v -1.460870 0.656172 -0.626087
v -1.321739 0.692145 -0.626087
v -1.182609 0.706743 -0.626087
v -1.043478 0.708049 -0.626087
v -0.904348 0.712295 -0.626087
v -0.765217 0.718761 -0.626087
v -0.626087 0.707842 -0.626087
v -0.486957 0.697004 -0.626087
v -0.347826 0.684660 -0.626087
v -0.208696 0.660678 -0.626087
v -0.069565 0.660774 -0.626087
v 0.069565 0.660430 -0.626087
v 0.208696 0.654936 -0.626087
v 0.347826 0.666864 -0.626087
v 0.486957 0.676612 -0.626087
v 0.626087 0.692063 -0.626087
v 0.765217 0.716448 -0.626087
v 0.904348 0.698906 -0.626087
v 1.043478 0.689563 -0.626087
v 1.182609 0.685035 -0.626087
v 1.321739 0.665380 -0.626087
v 1.460870 0.660868 -0.626087
v 1.600000 0.000000 -0.626087
v -1.600000 0.000000 -0.765217
v -1.460870 0.686326 -0.765217
v -1.321739 0.726794 -0.765217
v -1.182609 0.733262 -0.765217
v -1.043478 0.738811 -0.765217
v -0.904348 0.742651 -0.765217
v -0.765217 0.743968 -0.765217
v -0.626087 0.735371 -0.765217
v -0.486957 0.708037 -0.765217
v -0.347826 0.674153 -0.765217
v -0.208696 0.649934 -0.765217
v -0.069565 0.639012 -0.765217
v 0.069565 0.642062 -0.765217
v 0.208696 0.656086 -0.765217
v 0.347826 0.666986 -0.765217
v 0.486957 0.690910 -0.765217
v 0.626087 0.715806 -0.765217
v 0.765217 0.732801 -0.765217
v 0.904348 0.729515 -0.765217
v 1.043478 0.714984 -0.765217
v 1.182609 0.699378 -0.765217
v 1.321739 0.690970 -0.765217
v 1.460870 0.695077 -0.765217
v 1.600000 0.000000 -0.765217
v -1.600000 0.000000 -0.904348
v -1.460870 0.710308 -0.904348
v -1.321739 0.739582 -0.904348
v -1.182609 0.764815 -0.904348
v -1.043478 0.780558 -0.904348
v -0.904348 0.783961 -0.904348
v -0.765217 0.763026 -0.904348
v -0.626087 0.734698 -0.904348
v -0.486957 0.706684 -0.904348
v -0.347826 0.678030 -0.904348
v -0.208696 0.658214 -0.904348
v -0.069565 0.623689 -0.904348
v 0.069565 0.621096 -0.904348
v 0.208696 0.643171 -0.904348
v 0.347826 0.653772 -0.904348
v 0.486957 0.679569 -0.904348
v 0.626087 0.706302 -0.904348
v 0.765217 0.719352 -0.904348
v 0.904348 0.733594 -0.904348
v 1.043478 0.734213 -0.904348
v 1.182609 0.730097 -0.904348
v 1.321739 0.721387 -0.904348
v 1.460870 0.707439 -0.904348
v 1.600000 0.000000 -0.904348
v -1.600000 0.000000 -1.043478
v -1.460870 0.741506 -1.043478
v -1.321739 0.759555 -1.043478
v -1.182609 0.785996 -1.043478
v -1.043478 0.793667 -1.043478
v -0.904348 0.793549 -1.043478
v -0.765217 0.775085 -1.043478
v -0.626087 0.738465 -1.043478
v -0.486957 0.710089 -1.043478
v -0.347826 0.682512 -1.043478
v -0.208696 0.655041 -1.043478
v -0.069565 0.607810 -1.043478
v 0.069565 0.602602 -1.043478
v 0.208696 0.628631 -1.043478
v 0.347826 0.648003 -1.043478
v 0.486957 0.673087 -1.043478
v 0.626087 0.701975 -1.043478
v 0.765217 0.726150 -1.043478
v 0.904348 0.742004 -1.043478
v 1.043478 0.750452 -1.043478
v 1.182609 0.748566 -1.043478
v 1.321739 0.734646 -1.043478
v 1.460870 0.705547 -1.043478
v 1.600000 0.000000 -1.043478
v -1.600000 0.000000 -1.182609
v -1.460870 0.779748 -1.182609
v -1.321739 0.784191 -1.182609
v -1.182609 0.801740 -1.182609
v -1.043478 0.791993 -1.182609
v -0.904348 0.784665 -1.182609
v -0.765217 0.778269 -1.182609
v -0.626087 0.739953 -1.182609
v -0.486957 0.713298 -1.182609
v -0.347826 0.688088 -1.182609
v -0.208696 0.658841 -1.182609
v -0.069565 0.614786 -1.182609
v 0.069565 0.608846 -1.182609
v 0.208696 0.630628 -1.182609
v 0.347826 0.658716 -1.182609
v 0.486957 0.681309 -1.182609
v 0.626087 0.711104 -1.182609
v 0.765217 0.751985 -1.182609
v 0.904348 0.757855 -1.182609
v 1.043478 0.763241 -1.182609
v 1.182609 0.756564 -1.182609
v 1.321739 0.745538 -1.182609
v 1.460870 0.714352 -1.182609
v 1.600000 0.000000 -1.182609
v -1.600000 0.000000 -1.321739
v -1.460870 0.827587 -1.321739
v -1.321739 0.820401 -1.321739
v -1.182609 0.792359 -1.321739
v -1.043478 0.780972 -1.321739
v -0.904348 0.767963 -1.321739
v -0.765217 0.741479 -1.321739
v -0.626087 0.722850 -1.321739
v -0.486957 0.702981 -1.321739
v -0.347826 0.684854 -1.321739
v -0.208696 0.674019 -1.321739
v -0.069565 0.651721 -1.321739
v 0.069565 0.644967 -1.321739
v 0.208696 0.647148 -1.321739
v 0.347826 0.672357 -1.321739
v 0.486957 0.698544 -1.321739
v 0.626087 0.725997 -1.321739
v 0.765217 0.748302 -1.321739
v 0.904348 0.755369 -1.321739
v 1.043478 0.767386 -1.321739
v 1.182609 0.765606 -1.321739
v 1.321739 0.753842 -1.321739
v 1.460870 0.722370 -1.321739
v 1.600000 0.000000 -1.321739
v -1.600000 0.000000 -1.460870
v -1.460870 0.851278 -1.460870
v -1.321739 0.816797 -1.460870
v -1.182609 0.793739 -1.460870
v -1.043478 0.768518 -1.460870
v -0.904348 0.746722 -1.460870
v -0.765217 0.726063 -1.460870
v -0.626087 0.705545 -1.460870
v -0.486957 0.688367 -1.460870
v -0.347826 0.677253 -1.460870
v -0.208696 0.680403 -1.460870
v -0.069565 0.674588 -1.460870
v 0.069565 0.672613 -1.460870
v 0.208696 0.673952 -1.460870
v 0.347826 0.688365 -1.460870
v 0.486957 0.699971 -1.460870
v 0.626087 0.713415 -1.460870
v 0.765217 0.733429 -1.460870
v 0.904348 0.758481 -1.460870
v 1.043478 0.779607 -1.460870
v 1.182609 0.778654 -1.460870
v 1.321739 0.765755 -1.460870
v 1.460870 0.733258 -1.460870
v 1.600000 0.000000 -1.460870
v -1.600000 0.000000 -1.600000
v -1.460870 0.000000 -1.600000
v -1.321739 0.000000 -1.600000
v -1.182609 0.000000 -1.600000
v -1.043478 0.000000 -1.600000
v -0.904348 0.000000 -1.600000
v -0.765217 0.000000 -1.600000
v -0.626087 0.000000 -1.600000
v -0.486957 0.000000 -1.600000
v -0.347826 0.000000 -1.600000
v -0.208696 0.000000 -1.600000
v -0.069565 0.000000 -1.600000
v 0.069565 0.000000 -1.600000
v 0.208696 0.000000 -1.600000
v 0.347826 0.000000 -1.600000
v 0.486957 0.000000 -1.600000
v 0.626087 0.000000 -1.600000
v 0.765217 0.000000 -1.600000
v 0.904348 0.000000 -1.600000
v 1.043478 0.000000 -1.600000
v 1.182609 0.000000 -1.600000
v 1.321739 0.000000 -1.600000
v 1.460870 0.000000 -1.600000
v 1.600000 0.000000 -1.600000
v -1.600000 0.000000 1.600000
v -1.460870 0.000000 1.600000
v -1.321739 0.000000 1.600000
v -1.182609 0.000000 1.600000
v -1.043478 0.000000 1.600000
v -0.904348 0.000000 1.600000
v -0.765217 0.000000 1.600000
v -0.626087 0.000000 1.600000
v -0.486957 0.000000 1.600000
v -0.347826 0.000000 1.600000
v -0.208696 0.000000 1.600000
v -0.069565 0.000000 1.600000
v 0.069565 0.000000 1.600000
v 0.208696 0.000000 1.600000
v 0.347826 0.000000 1.600000
v 0.486957 0.000000 1.600000
v 0.626087 0.000000 1.600000
v 0.765217 0.000000 1.600000
v 0.904348 0.000000 1.600000
v 1.043478 0.000000 1.600000
v 1.182609 0.000000 1.600000
v 1.321739 0.000000 1.600000
v 1.460870 0.000000 1.600000
v 1.600000 0.000000 1.600000
v 1.600000 0.000000 1.460870
v 1.600000 0.000000 1.321739
v 1.600000 0.000000 1.182609
v 1.600000 0.000000 1.043478
v 1.600000 0.000000 0.904348
v 1.600000 0.000000 0.765217
v 1.600000 0.000000 0.626087
v 1.600000 0.000000 0.486957
v 1.600000 0.000000 0.347826
v 1.600000 0.000000 0.208696
v 1.600000 0.000000 0.069565
v 1.600000 0.000000 -0.069565
v 1.600000 0.000000 -0.208696
v 1.600000 0.000000 -0.347826
v 1.600000 0.000000 -0.486957
v 1.600000 0.000000 -0.626087
v 1.600000 0.000000 -0.765217
v 1.600000 0.000000 -0.904348
v 1.600000 0.000000 -1.043478
v 1.600000 0.000000 -1.182609
v 1.600000 0.000000 -1.321739
v 1.600000 0.000000 -1.460870
v 1.600000 0.000000 -1.600000
v 1.460870 0.000000 -1.600000
v 1.321739 0.000000 -1.600000
v 1.182609 0.000000 -1.600000
v 1.043478 0.000000 -1.600000
v 0.904348 0.000000 -1.600000
v 0.765217 0.000000 -1.600000
v 0.626087 0.000000 -1.600000
v 0.486957 0.000000 -1.600000
v 0.347826 0.000000 -1.600000
v 0.208696 0.000000 -1.600000
v 0.069565 0.000000 -1.600000
v -0.069565 0.000000 -1.600000
v -0.208696 0.000000 -1.600000
v -0.347826 0.000000 -1.600000
v -0.486957 0.000000 -1.600000
v -0.626087 0.000000 -1.600000
v -0.765217 0.000000 -1.600000
v -0.904348 0.000000 -1.600000
v -1.043478 0.000000 -1.600000
v -1.182609 0.000000 -1.600000
v -1.321739 0.000000 -1.600000
v -1.460870 0.000000 -1.600000
v -1.600000 0.000000 -1.600000
v -1.600000 0.000000 -1.460870
v -1.600000 0.000000 -1.321739
v -1.600000 0.000000 -1.182609
v -1.600000 0.000000 -1.043478
v -1.600000 0.000000 -0.904348
v -1.600000 0.000000 -0.765217
v -1.600000 0.000000 -0.626087
v -1.600000 0.000000 -0.486957
v -1.600000 0.000000 -0.347826
v -1.600000 0.000000 -0.208696
v -1.600000 0.000000 -0.069565
v -1.600000 0.000000 0.069565
v -1.600000 0.000000 0.208696
v -1.600000 0.000000 0.347826
v -1.600000 0.000000 0.486957
v -1.600000 0.000000 0.626087
v -1.600000 0.000000 0.765217
v -1.600000 0.000000 0.904348
v -1.600000 0.000000 1.043478
v -1.600000 0.000000 1.182609
v -1.600000 0.000000 1.321739
v -1.600000 0.000000 1.460870
v 0.000000 0.000000 0.000000
vn -0.3278 0.4393 0.8364
vn -0.8367 0.4378 0.3289
vn -0.0000 1.0000 -0.0000
vn 0.0320 0.7132 0.7002
vn -0.5115 0.6570 0.5538
vn 0.0001 0.2117 0.9773
vn 0.0193 0.7308 0.6823
vn 0.0002 0.2123 0.9772
vn 0.0277 0.7517 0.6589
vn 0.0007 0.2136 0.9769
vn 0.0240 0.7554 0.6548
vn 0.0002 0.2149 0.9766
vn 0.0099 0.7641 0.6451
vn 0.0002 0.2155 0.9765
vn -0.0366 0.7408 0.6708
vn -0.0014 0.2135 0.9769
vn -0.0000 0.2159 0.9764
vn 0.0019 0.2142 0.9768
vn -0.0244 0.7720 0.6351
vn 0.0759 0.7334 0.6756
vn 0.0354 0.7808 0.6238
vn 0.0015 0.2194 0.9756
vn 0.0308 0.7214 0.6919
vn -0.0001 0.2218 0.9751
vn -0.0000 0.2220 0.9750
vn -0.0019 0.2182 0.9759
vn -0.0491 0.7179 0.6944
vn -0.0026 0.2110 0.9775
vn -0.1052 0.7276 0.6779
vn -0.0030 0.2023 0.9793
vn -0.1259 0.7747 0.6197
vn -0.0025 0.1938 0.9810
vn -0.1802 0.7777 0.6023
vn -0.0022 0.1865 0.9825
vn -0.1592 0.7635 0.6259
vn -0.0021 0.1798 0.9837
vn -0.1331 0.7737 0.6194
vn -0.0025 0.1725 0.9850
vn -0.1646 0.8019 0.5743
vn -0.0027 0.1644 0.9864
vn -0.2300 0.8144 0.5327
vn -0.0020 0.1572 0.9876
vn -0.2448 0.8130 0.5283
vn 0.3394 0.3914 0.8554
vn -0.2127 0.7965 0.5659
vn 0.8555 0.3906 0.3400
vn 0.4464 0.7634 0.4668
vn -0.9783 0.2070 0.0006
vn 0.0110 0.9988 0.0487
vn -0.6275 0.7784 0.0177
vn 0.0529 0.9957 0.0765
vn 0.0356 0.9913 0.1269
vn 0.0544 0.9856 0.1603
vn 0.0011 0.9906 0.1369
vn -0.0357 0.9877 0.1523
vn 0.0118 0.9945 0.1042
vn 0.0333 0.9926 0.1167
vn 0.0242 0.9972 0.0713
vn 0.0315 0.9854 0.1676
vn -0.0310 0.9908 0.1317
vn -0.0581 0.9981 0.0223
vn -0.2343 0.9642 -0.1245
vn -0.0865 0.9940 -0.0675
vn -0.2404 0.9643 -0.1110
vn -0.1216 0.9892 -0.0818
vn -0.0932 0.9769 -0.1920
vn -0.1971 0.9298 -0.3110
vn -0.3003 0.8927 -0.3359
vn -0.3005 0.9168 -0.2631
vn 0.5312 0.8262 -0.1873
vn -0.6432 0.7654 0.0211
vn -0.9785 0.2064 -0.0000
vn -0.0358 0.9966 0.0739
vn -0.0102 0.9995 0.0295
vn 0.0439 0.9874 0.1518
vn -0.0555 0.9899 0.1306
vn 0.0037 0.9902 0.1399
vn 0.0399 0.9918 0.1215
vn -0.0208 0.9907 0.1346
vn 0.0488 0.9917 0.1192
vn 0.0059 0.9947 0.1029
vn 0.0163 0.9929 0.1182
vn 0.0488 0.9909 0.1256
vn 0.0390 0.9965 0.0742
vn -0.1460 0.9882 -0.0470
vn -0.0374 0.9987 0.0351
vn -0.2398 0.9598 -0.1461
vn -0.1103 0.9779 -0.1778
vn 0.0208 0.9794 -0.2010
vn -0.0967 0.9606 -0.2605
vn -0.3108 0.9044 -0.2922
vn -0.3760 0.8911 -0.2539
vn 0.5148 0.8337 -0.1996
vn 0.9879 0.1554 -0.0019
vn -0.9789 0.2042 0.0012
vn -0.0250 0.9928 0.1170
vn -0.6447 0.7606 0.0764
vn -0.0394 0.9950 0.0917
vn -0.0304 0.9976 0.0626
vn 0.0253 0.9984 0.0512
vn 0.0460 0.9974 0.0563
vn 0.0392 0.9990 -0.0191
vn -0.0023 0.9999 0.0109
vn 0.0387 0.9992 -0.0119
vn 0.0121 0.9999 0.0035
vn 0.0203 0.9994 0.0268
vn 0.0024 1.0000 0.0092
vn 0.0392 0.9951 0.0911
vn -0.0005 0.9955 0.0949
vn -0.1212 0.9877 -0.0985
vn -0.0466 0.9984 0.0308
vn -0.0860 0.9708 -0.2240
vn 0.0149 0.9788 -0.2041
vn -0.3055 0.9360 -0.1747
vn -0.0772 0.9814 -0.1755
vn -0.4034 0.8975 -0.1780
vn 0.4921 0.8552 -0.1628
vn 0.9870 0.1608 -0.0015
vn -0.9798 0.2001 0.0014
vn -0.6362 0.7690 0.0625
vn 0.0094 0.9996 0.0261
vn -0.0024 0.9990 -0.0446
vn -0.0334 0.9988 -0.0346
vn 0.0493 0.9987 0.0150
vn 0.0376 0.9993 -0.0076
vn 0.0463 0.9985 -0.0303
vn 0.0645 0.9956 -0.0673
vn 0.0151 0.9980 -0.0614
vn -0.0067 0.9996 -0.0268
vn -0.0180 0.9998 -0.0082
vn -0.0081 0.9999 -0.0136
vn 0.0190 0.9995 0.0239
vn -0.0105 0.9999 0.0109
vn 0.0358 0.9951 -0.0918
vn 0.0351 0.9994 0.0059
vn -0.0095 0.9698 -0.2436
vn -0.0425 0.9705 -0.2372
vn -0.1093 0.9775 -0.1804
vn -0.2815 0.9440 -0.1722
vn -0.3904 0.8930 -0.2238
vn 0.4760 0.8526 -0.2156
vn 0.9862 0.1658 -0.0017
vn -0.9798 0.2002 -0.0016
vn -0.5817 0.8103 -0.0718
vn 0.1004 0.9855 -0.1365
vn -0.0757 0.9880 -0.1344
vn 0.0135 0.9891 -0.1469
vn -0.0209 0.9951 -0.0964
vn 0.0842 0.9949 -0.0550
vn 0.0471 0.9975 -0.0527
vn 0.0745 0.9957 -0.0549
vn -0.0497 0.9987 0.0082
vn -0.0067 0.9988 -0.0486
vn -0.0077 0.9996 0.0289
vn -0.0097 0.9995 0.0294
vn -0.0072 0.9994 0.0332
vn 0.0327 0.9994 0.0127
vn 0.0757 0.9958 -0.0513
vn 0.1600 0.9781 -0.1329
vn -0.0932 0.9830 -0.1580
vn 0.0456 0.9863 -0.1587
vn -0.1438 0.9800 -0.1378
vn -0.2430 0.9605 -0.1358
vn -0.3221 0.9237 -0.2073
vn 0.4927 0.8300 -0.2614
vn 0.9849 0.1730 -0.0031
vn -0.5966 0.7925 -0.1269
vn -0.9786 0.2058 -0.0018
vn 0.0887 0.9800 -0.1782
vn -0.0628 0.9753 -0.2116
vn 0.0063 0.9846 -0.1747
vn -0.0462 0.9773 -0.2068
vn 0.0055 0.9870 -0.1608
vn 0.0552 0.9941 -0.0930
vn 0.0418 0.9987 -0.0280
vn -0.0576 0.9977 0.0360
vn -0.0882 0.9916 0.0942
vn -0.0115 0.9954 0.0953
vn -0.0346 0.9940 0.1042
vn 0.0968 0.9941 0.0497
vn 0.0033 0.9962 0.0876
vn 0.1617 0.9867 -0.0157
vn 0.1586 0.9863 -0.0458
vn -0.0652 0.9977 -0.0195
vn 0.0273 0.9996 0.0071
vn -0.1284 0.9910 -0.0382
vn -0.2078 0.9737 -0.0931
vn -0.2258 0.9576 -0.1790
vn 0.5328 0.8133 -0.2339
vn 0.9831 0.1830 -0.0033
vn -0.5668 0.8162 -0.1126
vn -0.9775 0.2110 -0.0015
vn 0.1276 0.9746 -0.1838
vn -0.0323 0.9629 -0.2678
vn 0.0461 0.9743 -0.2204
vn -0.0850 0.9587 -0.2713
vn -0.0737 0.9738 -0.2152
vn -0.0486 0.9911 -0.1240
vn -0.0537 0.9986 -0.0007
vn -0.1146 0.9909 0.0704
vn -0.1003 0.9913 0.0856
vn -0.0134 0.9947 0.1022
vn 0.0079 0.9972 0.0742
vn 0.1161 0.9932 0.0086
vn 0.0448 0.9989 0.0140
vn 0.1922 0.9813 0.0053
vn 0.1454 0.9894 0.0028
vn -0.0591 0.9982 -0.0056
vn 0.0217 0.9998 -0.0035
vn -0.0990 0.9949 -0.0196
vn -0.1069 0.9902 -0.0901
vn -0.1113 0.9696 -0.2179
vn 0.5920 0.7707 -0.2354
vn 0.9809 0.1945 -0.0042
vn -0.5419 0.8371 -0.0742
vn -0.9767 0.2146 -0.0008
vn 0.1575 0.9848 -0.0726
vn 0.1070 0.9837 -0.1447
vn -0.1095 0.9814 -0.1577
vn -0.0076 0.9865 -0.1638
vn -0.1176 0.9820 -0.1478
vn -0.1444 0.9793 -0.1421
vn -0.1484 0.9872 -0.0579
vn -0.1385 0.9903 0.0067
vn -0.1377 0.9904 -0.0081
vn 0.0528 0.9964 0.0662
vn -0.0219 0.9980 0.0594
vn 0.0679 0.9973 0.0270
vn 0.1154 0.9931 0.0210
vn 0.1817 0.9832 0.0182
vn 0.1448 0.9886 0.0410
vn 0.0323 0.9982 0.0508
vn -0.0600 0.9928 -0.1036
vn -0.0132 0.9993 -0.0345
vn -0.0117 0.9900 -0.1403
vn -0.0016 0.9698 -0.2439
vn 0.6203 0.7549 -0.2130
vn 0.9781 0.2079 -0.0044
vn -0.5443 0.8345 -0.0856
vn -0.9755 0.2200 -0.0030
vn 0.1797 0.9806 -0.0786
vn 0.1263 0.9904 -0.0555
vn -0.1060 0.9848 -0.1375
vn 0.0002 0.9973 -0.0732
vn -0.1021 0.9849 -0.1396
vn -0.1558 0.9786 -0.1345
vn -0.2267 0.9705 -0.0817
vn -0.1264 0.9917 -0.0230
vn -0.1350 0.9872 -0.0849
vn -0.0901 0.9938 -0.0652
vn 0.0819 0.9964 -0.0212
vn 0.0516 0.9983 -0.0285
vn 0.1373 0.9888 -0.0579
vn 0.1697 0.9842 -0.0513
vn 0.1045 0.9944 0.0136
vn 0.0750 0.9970 0.0193
vn 0.0033 0.9946 -0.1034
vn 0.0901 0.9959 -0.0101
vn 0.0718 0.9729 -0.2197
vn 0.6001 0.7694 -0.2188
vn 0.0434 0.9610 -0.2730
vn 0.9752 0.2215 -0.0043
vn -0.5950 0.7995 -0.0828
vn -0.9741 0.2260 -0.0005
vn 0.1107 0.9922 -0.0577
vn 0.0995 0.9950 0.0101
vn -0.0422 0.9940 -0.1014
vn 0.0942 0.9945 -0.0452
vn -0.1233 0.9844 -0.1255
vn -0.1991 0.9760 -0.0883
vn -0.2808 0.9584 -0.0513
vn -0.1438 0.9894 -0.0220
vn -0.0876 0.9960 -0.0164
vn -0.0869 0.9944 -0.0607
vn 0.0267 0.9970 -0.0727
vn 0.1086 0.9919 -0.0661
vn 0.1485 0.9831 -0.1075
vn 0.0762 0.9965 -0.0353
vn 0.0784 0.9969 0.0056
vn 0.0742 0.9965 0.0376
vn 0.1191 0.9927 0.0173
vn 0.1408 0.9881 -0.0623
vn 0.1399 0.9810 -0.1342
vn 0.6374 0.7648 -0.0941
vn 0.0456 0.9941 -0.0989
vn 0.9719 0.2354 -0.0048
vn -0.6017 0.7984 0.0223
vn -0.9739 0.2269 -0.0000
vn 0.1039 0.9923 0.0669
vn 0.0707 0.9959 0.0563
vn 0.1038 0.9908 0.0871
vn -0.1371 0.9840 0.1139
vn -0.0199 0.9947 0.1012
vn -0.2167 0.9687 0.1208
vn -0.2767 0.9571 0.0861
vn -0.1543 0.9866 0.0525
vn -0.0881 0.9924 0.0856
vn 0.0292 0.9996 -0.0032
vn -0.0335 0.9986 0.0409
vn 0.1459 0.9883 -0.0442
vn 0.1156 0.9928 -0.0329
vn 0.0607 0.9969 0.0502
vn 0.0216 0.9997 0.0131
vn 0.0953 0.9941 0.0510
vn 0.1214 0.9916 0.0451
vn 0.1793 0.9820 0.0601
vn 0.1211 0.9898 0.0754
vn 0.6428 0.7638 0.0586
vn 0.0399 0.9939 0.1030
vn 0.9697 0.2442 -0.0002
vn -0.9741 0.2261 0.0003
vn 0.0272 0.9968 0.0756
vn -0.6181 0.7861 0.0083
vn 0.0718 0.9876 0.1399
vn 0.0615 0.9771 0.2039
vn -0.0656 0.9620 0.2650
vn -0.1275 0.9567 0.2618
vn -0.1716 0.9610 0.2167
vn -0.2028 0.9710 0.1266
vn -0.1451 0.9882 0.0494
vn -0.0945 0.9948 0.0383
vn 0.0878 0.9961 0.0008
vn 0.0210 0.9993 0.0293
vn 0.1517 0.9881 -0.0259
vn -0.0157 0.9987 0.0481
vn 0.0728 0.9969 0.0307
vn 0.0937 0.9884 0.1196
vn 0.0233 0.9970 0.0731
vn 0.1089 0.9823 0.1522
vn 0.1464 0.9727 0.1802
vn 0.0982 0.9776 0.1860
vn 0.0511 0.9877 0.1477
vn 0.6373 0.7649 0.0939
vn 0.9709 0.2395 0.0028
vn -0.6545 0.7540 0.0560
vn -0.9742 0.2258 -0.0000
vn -0.0229 0.9774 0.2100
vn -0.0579 0.9893 0.1336
vn -0.0223 0.9582 0.2851
vn -0.0732 0.9481 0.3093
vn -0.0786 0.9586 0.2737
vn -0.0924 0.9730 0.2117
vn -0.1049 0.9880 0.1130
vn -0.0722 0.9941 -0.0810
vn -0.0612 0.9981 0.0102
vn -0.0058 0.9972 -0.0751
vn 0.1061 0.9926 -0.0585
vn 0.0322 0.9993 0.0212
vn 0.1050 0.9933 -0.0487
vn -0.0160 0.9989 0.0436
vn 0.0155 0.9920 0.1250
vn -0.0021 0.9985 0.0552
vn 0.0504 0.9848 0.1661
vn 0.1172 0.9697 0.2144
vn 0.1516 0.9594 0.2377
vn 0.1136 0.9775 0.1778
vn 0.6763 0.7281 0.1118
vn 0.9723 0.2335 0.0013
vn -0.9751 0.2216 0.0024
vn -0.6866 0.7094 0.1591
vn -0.1323 0.9486 0.2875
vn -0.0569 0.9457 0.3199
vn -0.0390 0.9484 0.3148
vn -0.0528 0.9531 0.2981
vn -0.0260 0.9623 0.2708
vn 0.0020 0.9816 0.1910
vn -0.0072 0.9945 0.1046
vn 0.0101 0.9978 -0.0656
vn 0.0222 0.9994 0.0283
vn -0.0145 0.9930 -0.1169
vn 0.0846 0.9913 -0.1005
vn 0.0551 0.9978 -0.0359
vn -0.0239 0.9994 0.0263
vn -0.0466 0.9964 0.0714
vn -0.0715 0.9896 0.1245
vn 0.0557 0.9857 0.1589
vn -0.0157 0.9802 0.1975
vn 0.0683 0.9842 0.1634
vn 0.1319 0.9676 0.2153
vn 0.1262 0.9633 0.2367
vn 0.6748 0.7125 0.1921
vn 0.9742 0.2255 0.0036
vn -0.9772 0.2122 0.0035
vn -0.7106 0.6829 0.1692
vn -0.1740 0.9468 0.2708
vn -0.0490 0.9645 0.2595
vn -0.0264 0.9660 0.2570
vn -0.0382 0.9679 0.2485
vn 0.0824 0.9771 0.1962
vn 0.0180 0.9722 0.2334
vn 0.0924 0.9908 0.0985
vn 0.1024 0.9945 -0.0210
vn 0.0038 0.9929 -0.1193
vn 0.0849 0.9934 -0.0767
vn 0.0164 0.9959 -0.0892
vn -0.0148 0.9998 0.0100
vn -0.0705 0.9968 0.0382
vn -0.0976 0.9904 0.0981
vn -0.1382 0.9777 0.1581
vn 0.0916 0.9767 0.1941
vn -0.0298 0.9815 0.1891
vn 0.0583 0.9848 0.1634
vn 0.0810 0.9837 0.1608
vn 0.0818 0.9726 0.2176
vn 0.6406 0.7415 0.1997
vn 0.9772 0.2124 0.0047
vn -0.9793 0.2025 0.0028
vn -0.7280 0.6723 0.1343
vn -0.1580 0.9733 0.1664
vn -0.0551 0.9800 0.1914
vn -0.0418 0.9692 0.2428
vn -0.0030 0.9740 0.2265
vn 0.1285 0.9874 0.0919
vn 0.0435 0.9893 0.1395
vn 0.1963 0.9791 0.0537
vn 0.1816 0.9834 -0.0012
vn 0.1150 0.9932 -0.0187
vn -0.0648 0.9886 -0.1356
vn 0.0542 0.9918 -0.1160
vn -0.0722 0.9955 -0.0606
vn -0.1132 0.9930 -0.0324
vn -0.1662 0.9859 0.0205
vn -0.1513 0.9877 0.0395
vn 0.0620 0.9905 0.1230
vn -0.0644 0.9976 0.0260
vn 0.0915 0.9808 0.1722
vn 0.0750 0.9829 0.1682
vn 0.0409 0.9843 0.1717
vn 0.6133 0.7810 0.1182
vn 0.9797 0.2005 0.0031
vn -0.9808 0.1950 0.0021
vn -0.7225 0.6806 0.1217
vn -0.1644 0.9762 0.1415
vn -0.1351 0.9721 0.1919
vn -0.0601 0.9785 0.1973
vn 0.1609 0.9794 0.1221
vn 0.0620 0.9814 0.1816
vn 0.1811 0.9831 0.0274
vn 0.1826 0.9830 0.0182
vn 0.1986 0.9800 0.0082
vn 0.1746 0.9846 -0.0062
vn -0.0748 0.9888 -0.1292
vn 0.1410 0.9850 -0.0995
vn -0.1165 0.9885 -0.0968
vn -0.1286 0.9894 -0.0677
vn -0.1854 0.9807 -0.0626
vn -0.1395 0.9889 -0.0508
vn -0.1109 0.9934 -0.0301
vn -0.0390 0.9989 0.0277
vn 0.0170 0.9940 0.1080
vn 0.0601 0.9855 0.1589
vn 0.0935 0.9856 0.1408
vn 0.6516 0.7570 0.0490
vn 0.9809 0.1946 0.0009
vn -0.9822 0.1878 0.0025
vn -0.6972 0.6987 0.1603
vn -0.1427 0.9751 0.1695
vn -0.1039 0.9878 0.1159
vn -0.0302 0.9988 0.0377
vn 0.1861 0.9818 0.0392
vn 0.0726 0.9973 0.0090
vn 0.2188 0.9754 0.0271
vn 0.1947 0.9805 0.0257
vn 0.1964 0.9800 0.0329
vn 0.2389 0.9710 0.0008
vn 0.1783 0.9834 -0.0341
vn -0.1538 0.9871 -0.0441
vn -0.0732 0.9964 -0.0433
vn -0.1575 0.9875 0.0018
vn -0.1887 0.9820 0.0090
vn -0.1766 0.9840 0.0240
vn -0.1548 0.9827 0.1015
vn -0.0707 0.9922 0.1025
vn 0.0557 0.9939 0.0949
vn -0.0164 0.9946 0.1022
vn 0.1490 0.9849 0.0883
vn 0.7090 0.7044 0.0329
vn -0.9837 0.1795 0.0028
vn -0.6611 0.7248 0.1938
vn -0.0461 0.9850 0.1665
vn 0.0406 0.9986 -0.0348
vn -0.0276 0.9994 0.0225
vn 0.0650 0.9950 -0.0755
vn 0.2087 0.9754 -0.0705
vn 0.1716 0.9804 -0.0970
vn 0.1788 0.9834 -0.0326
vn 0.1720 0.9850 0.0160
vn 0.2338 0.9684 0.0865
vn 0.1739 0.9737 0.1473
vn -0.0598 0.9877 0.1446
vn -0.1509 0.9844 0.0904
vn -0.1782 0.9802 0.0861
vn -0.1864 0.9786 0.0870
vn -0.2285 0.9684 0.1000
vn -0.1552 0.9842 0.0847
vn -0.0431 0.9981 0.0450
vn 0.0597 0.9961 0.0646
vn -0.0058 0.9982 0.0591
vn 0.1517 0.9863 0.0652
vn 0.7153 0.6974 0.0440
vn 0.9814 0.1922 0.0007
vn -0.9854 0.1702 0.0032
vn 0.1135 0.9859 0.1228
vn -0.5907 0.7900 0.1642
vn 0.0938 0.9956 0.0060
vn 0.0943 0.9926 -0.0765
vn 0.1288 0.9812 -0.1437
vn 0.1692 0.9711 -0.1686
vn 0.1438 0.9830 -0.1138
vn 0.1387 0.9867 -0.0845
vn 0.1070 0.9923 0.0624
vn 0.0972 0.9943 -0.0450
vn 0.1166 0.9740 0.1942
vn -0.0018 0.9783 0.2073
vn -0.0979 0.9837 0.1509
vn -0.1679 0.9788 0.1171
vn -0.1661 0.9840 0.0641
vn -0.1899 0.9817 -0.0105
vn -0.0614 0.9981 0.0071
vn -0.1203 0.9915 -0.0498
vn 0.0538 0.9958 0.0736
vn -0.0456 0.9976 0.0513
vn 0.1527 0.9857 0.0714
vn 0.7202 0.6922 0.0468
vn 0.9818 0.1900 0.0007
vn -0.8516 0.4014 -0.3372
vn 0.1292 0.7562 -0.6415
vn -0.4460 0.7631 -0.4678
vn 0.1135 0.7537 -0.6474
vn 0.1111 0.7223 -0.6826
vn 0.1141 0.7128 -0.6920
vn 0.1043 0.7259 -0.6798
vn 0.1001 0.7245 -0.6820
vn 0.0816 0.7356 -0.6725
vn 0.0369 0.7556 -0.6540
vn 0.0424 0.8121 -0.5819
vn 0.0076 0.7939 -0.6080
vn 0.0067 0.8290 -0.5592
vn -0.0588 0.8168 -0.5739
vn -0.0913 0.7970 -0.5970
vn -0.1037 0.7393 -0.6654
vn -0.0688 0.7718 -0.6322
vn -0.1186 0.7240 -0.6796
vn -0.0942 0.7666 -0.6352
vn 0.0405 0.8010 -0.5972
vn -0.0573 0.8040 -0.5919
vn 0.1259 0.7952 -0.5931
vn 0.5915 0.6213 -0.5139
vn 0.8438 0.4212 -0.3326
vn -0.3365 0.4023 -0.8514
vn 0.0015 0.1700 -0.9854
vn 0.0018 0.1751 -0.9846
vn 0.0016 0.1804 -0.9836
vn 0.0016 0.1854 -0.9827
vn 0.0017 0.1905 -0.9817
vn 0.0015 0.1955 -0.9807
vn 0.0010 0.1995 -0.9799
vn 0.0002 0.2015 -0.9795
vn -0.0000 0.2012 -0.9795
vn 0.0002 0.2022 -0.9793
vn -0.0001 0.2023 -0.9793
vn -0.0000 0.2026 -0.9793
vn -0.0013 0.1999 -0.9798
vn -0.0010 0.1963 -0.9805
vn -0.0011 0.1930 -0.9812
vn -0.0016 0.1886 -0.9821
vn -0.0019 0.1831 -0.9831
vn -0.0014 0.1779 -0.9841
vn 0.0009 0.1772 -0.9842
vn 0.0024 0.1821 -0.9833
vn 0.3335 0.4200 -0.8440
vn -0.0000 -1.0000 -0.0000
vn 0.9696 0.2446 -0.0000
vn 0.9811 0.1935 -0.0000
s 1
f 2//1 25//2 1//3
f 2//1 27//4 26//5
f 3//6 28//7 27//4
f 4//8 29//9 28//7
f 5//10 30//11 29//9
f 6//12 31//13 30//11
f 7//14 32//15 31//13
f 9//16 32//15 8//17
f 10//18 33//19 9//16
f 10//18 35//20 34//21
f 11//22 36//23 35//20
f 13//24 36//23 12//25
f 14//26 37//27 13//24
f 15//28 38//29 14//26
f 16//30 39//31 15//28
f 17//32 40//33 16//30
f 18//34 41//35 17//32
f 19//36 42//37 18//34
f 20//38 43//39 19//36
f 21//40 44//41 20//38
f 22//42 45//43 21//40
f 23//44 46//45 22//42
f 23//44 48//46 47//47
f 26//5 49//48 25//2
f 26//5 51//49 50//50
f 27//4 52//51 51//49
f 28//7 53//52 52//51
f 29//9 54//53 53//52
f 30//11 55//54 54//53
f 32//15 55//54 31//13
f 33//19 56//55 32//15
f 34//21 57//56 33//19
f 34//21 59//57 58//58
f 35//20 60//59 59//57
f 37//27 60//59 36//23
f 38//29 61//60 37//27
f 39//31 62//61 38//29
f 39//31 64//62 63//63
f 40//33 65//64 64//62
f 41//35 66//65 65//64
f 42//37 67//66 66//65
f 43//39 68//67 67//66
f 44//41 69//68 68//67
f 45//43 70//69 69//68
f 46//45 71//70 70//69
f 48//46 71//70 47//47
f 49//48 74//71 73//72
f 51//49 74//71 50//50
f 51//49 76//73 75//74
f 53//52 76//73 52//51
f 53//52 78//75 77//76
f 54//53 79//77 78//75
f 56//55 79//77 55//54
f 56//55 81//78 80//79
f 57//56 82//80 81//78
f 58//58 83//81 82//80
f 59//57 84//82 83//81
f 60//59 85//83 84//82
f 61//60 86//84 85//83
f 63//63 86//84 62//61
f 63//63 88//85 87//86
f 64//62 89//87 88//85
f 65//64 90//88 89//87
f 66//65 91//89 90//88
f 67//66 92//90 91//89
f 68//67 93//91 92//90
f 69//68 94//92 93//91
f 70//69 95//93 94//92
f 72//94 95//93 71//70
f 74//71 97//95 73//72
f 74//71 99//96 98//97
f 76//73 99//96 75//74
f 77//76 100//98 76//73
f 78//75 101//99 77//76
f 78//75 103//100 102//101
f 80//79 103//100 79//77
f 80//79 105//102 104//103
f 81//78 106//104 105//102
f 82//80 107//105 106//104
f 84//82 107//105 83//81
f 84//82 109//106 108//107
f 85//83 110//108 109//106
f 86//84 111//109 110//108
f 88//85 111//109 87//86
f 88//85 113//110 112//111
f 89//87 114//112 113//110
f 91//89 114//112 90//88
f 92//90 115//113 91//89
f 92//90 117//114 116//115
f 93//91 118//116 117//114
f 94//92 119//117 118//116
f 96//118 119//117 95//93
f 98//97 121//119 97//95
f 99//96 122//120 98//97
f 100//98 123//121 99//96
f 101//99 124//122 100//98
f 102//101 125//123 101//99
f 102//101 127//124 126//125
f 104//103 127//124 103//100
f 105//102 128//126 104//103
f 106//104 129//127 105//102
f 107//105 130//128 106//104
f 108//107 131//129 107//105
f 108//107 133//130 132//131
f 110//108 133//130 109//106
f 110//108 135//132 134//133
f 112//111 135//132 111//109
f 112//111 137//134 136//135
f 113//110 138//136 137//134
f 114//112 139//137 138//136
f 115//113 140//138 139//137
f 116//115 141//139 140//138
f 117//114 142//140 141//139
f 118//116 143//141 142//140
f 120//142 143//141 119//117
f 122//120 145//143 121//119
f 123//121 146//144 122//120
f 124//122 147//145 123//121
f 124//122 149//146 148//147
f 125//123 150//148 149//146
f 127//124 150//148 126//125
f 127//124 152//149 151//150
f 129//127 152//149 128//126
f 130//128 153//151 129//127
f 130//128 155//152 154//153
f 131//129 156//154 155//152
f 132//131 157//155 156//154
f 133//130 158//156 157//155
f 135//132 158//156 134//133
f 136//135 159//157 135//132
f 137//134 160//158 136//135
f 138//136 161//159 137//134
f 138//136 163//160 162//161
f 139//137 164//162 163//160
f 140//138 165//163 164//162
f 141//139 166//164 165//163
f 142//140 167//165 166//164
f 144//166 167//165 143//141
f 145//143 170//167 169//168
f 147//145 170//167 146//144
f 148//147 171//169 147//145
f 148//147 173//170 172//171
f 149//146 174//172 173//170
f 150//148 175//173 174//172
f 152//149 175//173 151//150
f 153//151 176//174 152//149
f 154//153 177//175 153//151
f 155//152 178//176 154//153
f 156//154 179//177 155//152
f 157//155 180//178 156//154
f 158//156 181//179 157//155
f 158//156 183//180 182//181
f 159//157 184//182 183//180
f 161//159 184//182 160//158
f 162//161 185//183 161//159
f 162//161 187//184 186//185
f 163//160 188//186 187//184
f 164//162 189//187 188//186
f 165//163 190//188 189//187
f 166//164 191//189 190//188
f 168//190 191//189 167//165
f 169//168 194//191 193//192
f 171//169 194//191 170//167
f 172//171 195//193 171//169
f 172//171 197//194 196//195
f 173//170 198//196 197//194
f 174//172 199//197 198//196
f 175//173 200//198 199//197
f 177//175 200//198 176//174
f 178//176 201//199 177//175
f 179//177 202//200 178//176
f 180//178 203//201 179//177
f 181//179 204//202 180//178
f 182//181 205//203 181//179
f 182//181 207//204 206//205
f 184//182 207//204 183//180
f 185//183 208//206 184//182
f 186//185 209//207 185//183
f 186//185 211//208 210//209
f 187//184 212//210 211//208
f 188//186 213//211 212//210
f 189//187 214//212 213//211
f 190//188 215//213 214//212
f 192//214 215//213 191//189
f 193//192 218//215 217//216
f 195//193 218//215 194//191
f 196//195 219//217 195//193
f 197//194 220//218 196//195
f 197//194 222//219 221//220
f 198//196 223//221 222//219
f 199//197 224//222 223//221
f 200//198 225//223 224//222
f 201//199 226//224 225//223
f 203//201 226//224 202//200
f 204//202 227//225 203//201
f 204//202 229//226 228//227
f 205//203 230//228 229//226
f 206//205 231//229 230//228
f 207//204 232//230 231//229
f 208//206 233//231 232//230
f 209//207 234//232 233//231
f 211//208 234//232 210//209
f 211//208 236//233 235//234
f 212//210 237//235 236//233
f 213//211 238//236 237//235
f 214//212 239//237 238//236
f 216//238 239//237 215//213
f 217//216 242//239 241//240
f 219//217 242//239 218//215
f 220//218 243//241 219//217
f 221//220 244//242 220//218
f 221//220 246//243 245//244
f 222//219 247//245 246//243
f 223//221 248//246 247//245
f 224//222 249//247 248//246
f 225//223 250//248 249//247
f 226//224 251//249 250//248
f 227//225 252//250 251//249
f 229//226 252//250 228//227
f 229//226 254//251 253//252
f 230//228 255//253 254//251
f 231//229 256//254 255//253
f 232//230 257//255 256//254
f 233//231 258//256 257//255
f 235//234 258//256 234//232
f 235//234 260//257 259//258
f 236//233 261//259 260//257
f 238//236 261//259 237//235
f 238//236 263//260 262//261
f 240//262 263//260 239//237
f 241//240 266//263 265//264
f 243//241 266//263 242//239
f 244//242 267//265 243//241
f 245//244 268//266 244//242
f 245//244 270//267 269//268
f 246//243 271//269 270//267
f 247//245 272//270 271//269
f 248//246 273//271 272//270
f 249//247 274//272 273//271
f 250//248 275//273 274//272
f 251//249 276//274 275//273
f 252//250 277//275 276//274
f 254//251 277//275 253//252
f 255//253 278//276 254//251
f 256//254 279//277 255//253
f 257//255 280//278 256//254
f 257//255 282//279 281//280
f 258//256 283//281 282//279
f 260//257 283//281 259//258
f 261//259 284//282 260//257
f 262//261 285//283 261//259
f 262//261 287//284 286//285
f 264//286 287//284 263//260
f 265//264 290//287 289//288
f 267//265 290//287 266//263
f 267//265 292//289 291//290
f 268//266 293//291 292//289
f 270//267 293//291 269//268
f 270//267 295//292 294//293
f 271//269 296//294 295//292
f 273//271 296//294 272//270
f 274//272 297//295 273//271
f 275//273 298//296 274//272
f 276//274 299//297 275//273
f 276//274 301//298 300//299
f 278//276 301//298 277//275
f 279//277 302//300 278//276
f 280//278 303//301 279//277
f 280//278 305//302 304//303
f 281//280 306//304 305//302
f 282//279 307//305 306//304
f 283//281 308//306 307//305
f 285//283 308//306 284//282
f 286//285 309//307 285//283
f 286//285 311//308 310//309
f 288//310 311//308 287//284
f 290//287 313//311 289//288
f 290//287 315//312 314//313
f 291//290 316//314 315//312
f 292//289 317//315 316//314
f 293//291 318//316 317//315
f 295//292 318//316 294//293
f 296//294 319//317 295//292
f 297//295 320//318 296//294
f 298//296 321//319 297//295
f 299//297 322//320 298//296
f 300//299 323//321 299//297
f 300//299 325//322 324//323
f 302//300 325//322 301//298
f 303//301 326//324 302//300
f 303//301 328//325 327//326
f 305//302 328//325 304//303
f 305//302 330//327 329//328
f 306//304 331//329 330//327
f 307//305 332//330 331//329
f 308//306 333//331 332//330
f 309//307 334//332 333//331
f 310//309 335//333 334//332
f 311//308 336//334 335//333
f 313//311 338//335 337//336
f 315//312 338//335 314//313
f 315//312 340//337 339//338
f 316//314 341//339 340//337
f 318//316 341//339 317//315
f 319//317 342//340 318//316
f 320//318 343//341 319//317
f 321//319 344//342 320//318
f 322//320 345//343 321//319
f 322//320 347//344 346//345
f 323//321 348//346 347//344
f 325//322 348//346 324//323
f 326//324 349//347 325//322
f 326//324 351//348 350//349
f 327//326 352//350 351//348
f 329//328 352//350 328//325
f 329//328 354//351 353//352
f 330//327 355//353 354//351
f 331//329 356//354 355//353
f 332//330 357//355 356//354
f 333//331 358//356 357//355
f 334//332 359//357 358//356
f 335//333 360//358 359//357
f 338//335 361//359 337//336
f 339//338 362//360 338//335
f 340//337 363//361 339//338
f 341//339 364//362 340//337
f 342//340 365//363 341//339
f 343//341 366//364 342//340
f 344//342 367//365 343//341
f 345//343 368//366 344//342
f 346//345 369//367 345//343
f 346//345 371//368 370//369
f 347//344 372//370 371//368
f 349//347 372//370 348//346
f 350//349 373//371 349//347
f 351//348 374//372 350//349
f 352//350 375//373 351//348
f 353//352 376//374 352//350
f 354//351 377//375 353//352
f 354//351 379//376 378//377
f 355//353 380//378 379//376
f 356//354 381//379 380//378
f 357//355 382//380 381//379
f 358//356 383//381 382//380
f 359//357 384//382 383//381
f 362//360 385//383 361//359
f 363//361 386//384 362//360
f 364//362 387//385 363//361
f 365//363 388//386 364//362
f 366//364 389//387 365//363
f 367//365 390//388 366//364
f 367//365 392//389 391//390
f 368//366 393//391 392//389
f 369//367 394//392 393//391
f 371//368 394//392 370//369
f 371//368 396//393 395//394
f 373//371 396//393 372//370
f 374//372 397//395 373//371
f 375//373 398//396 374//372
f 376//374 399//397 375//373
f 377//375 400//398 376//374
f 378//377 401//399 377//375
f 378//377 403//400 402//401
f 379//376 404//402 403//400
f 380//378 405//403 404//402
f 381//379 406//404 405//403
f 382//380 407//405 406//404
f 383//381 408//406 407//405
f 386//384 409//407 385//383
f 387//385 410//408 386//384
f 388//386 411//409 387//385
f 389//387 412//410 388//386
f 390//388 413//411 389//387
f 391//390 414//412 390//388
f 391//390 416//413 415//414
f 392//389 417//415 416//413
f 393//391 418//416 417//415
f 395//394 418//416 394//392
f 396//393 419//417 395//394
f 396//393 421//418 420//419
f 397//395 422//420 421//418
f 399//397 422//420 398//396
f 400//398 423//421 399//397
f 401//399 424//422 400//398
f 402//401 425//423 401//399
f 402//401 427//424 426//425
f 403//400 428//426 427//424
f 404//402 429//427 428//426
f 405//403 430//428 429//427
f 406//404 431//429 430//428
f 407//405 432//430 431//429
f 410//408 433//431 409//407
f 411//409 434//432 410//408
f 412//410 435//433 411//409
f 413//411 436//434 412//410
f 414//412 437//435 413//411
f 414//412 439//436 438//437
f 415//414 440//438 439//436
f 417//415 440//438 416//413
f 417//415 442//439 441//440
f 418//416 443//441 442//439
f 420//419 443//441 419//417
f 420//419 445//442 444//443
f 421//418 446//444 445//442
f 422//420 447//445 446//444
f 423//421 448//446 447//445
f 424//422 449//447 448//446
f 425//423 450//448 449//447
f 426//425 451//449 450//448
f 427//424 452//450 451//449
f 428//426 453//451 452//450
f 429//427 454//452 453//451
f 430//428 455//453 454//452
f 431//429 456//454 455//453
f 434//432 457//455 433//431
f 435//433 458//456 434//432
f 436//434 459//457 435//433
f 437//435 460//458 436//434
f 438//437 461//459 437//435
f 438//437 463//460 462//461
f 439//436 464//462 463//460
f 440//438 465//463 464//462
f 441//440 466//464 465//463
f 442//439 467//465 466//464
f 444//443 467//465 443//441
f 445//442 468//466 444//443
f 445//442 470//467 469//468
f 446//444 471//469 470//467
f 447//445 472//470 471//469
f 448//446 473//471 472//470
f 450//448 473//471 449//447
f 451//449 474//472 450//448
f 452//450 475//473 451//449
f 452//450 477//474 476//475
f 453//451 478//476 477//474
f 454//452 479//477 478//476
f 456//454 479//477 455//453
f 458//456 481//478 457//455
f 459//457 482//479 458//456
f 460//458 483//480 459//457
f 460//458 485//481 484//482
f 462//461 485//481 461//459
f 463//460 486//483 462//461
f 463//460 488//484 487//485
f 464//462 489//486 488//484
f 465//463 490//487 489//486
f 466//464 491//488 490//487
f 467//465 492//489 491//488
f 468//466 493//490 492//489
f 470//467 493//490 469//468
f 471//469 494//491 470//467
f 472//470 495//492 471//469
f 473//471 496//493 472//470
f 474//472 497//494 473//471
f 475//473 498//495 474//472
f 476//475 499//496 475//473
f 476//475 501//497 500//498
f 477//474 502//499 501//497
f 478//476 503//500 502//499
f 479//477 504//501 503//500
f 482//479 505//502 481//478
f 482//479 507//503 506//504
f 483//480 508//505 507//503
f 485//481 508//505 484//482
f 486//483 509//506 485//481
f 487//485 510//507 486//483
f 488//484 511//508 487//485
f 489//486 512//509 488//484
f 490//487 513//510 489//486
f 490//487 515//511 514//512
f 491//488 516//513 515//511
f 492//489 517//514 516//513
f 494//491 517//514 493//490
f 495//492 518//515 494//491
f 496//493 519//516 495//492
f 497//494 520//517 496//493
f 498//495 521//518 497//494
f 498//495 523//519 522//520
f 500//498 523//519 499//496
f 500//498 525//521 524//522
f 501//497 526//523 525//521
f 502//499 527//524 526//523
f 503//500 528//525 527//524
f 506//504 529//526 505//502
f 506//504 531//527 530//528
f 508//505 531//527 507//503
f 509//506 532//529 508//505
f 510//507 533//530 509//506
f 511//508 534//531 510//507
f 512//509 535//532 511//508
f 513//510 536//533 512//509
f 514//512 537//534 513//510
f 515//511 538//535 514//512
f 515//511 540//536 539//537
f 516//513 541//538 540//536
f 518//515 541//538 517//514
f 519//516 542//539 518//515
f 520//517 543//540 519//516
f 520//517 545//541 544//542
f 521//518 546//543 545//541
f 522//520 547//544 546//543
f 524//522 547//544 523//519
f 524//522 549//545 548//546
f 525//521 550//547 549//545
f 526//523 551//548 550//547
f 527//524 552//549 551//548
f 529//526 554//550 553//3
f 531//527 554//550 530//528
f 532//529 555//551 531//527
f 533//530 556//552 532//529
f 534//531 557//553 533//530
f 535//532 558//554 534//531
f 536//533 559//555 535//532
f 537//534 560//556 536//533
f 538//535 561//557 537//534
f 538//535 563//558 562//559
f 540//536 563//558 539//537
f 541//538 564//560 540//536
f 541//538 566//561 565//562
f 542//539 567//563 566//561
f 543//540 568//564 567//563
f 544//542 569//565 568//564
f 545//541 570//566 569//565
f 546//543 571//567 570//566
f 547//544 572//568 571//567
f 549//545 572//568 548//546
f 550//547 573//569 549//545
f 551//548 574//570 550//547
f 552//549 575//571 551//548
s 0
f 1//3 578//3 2//3
f 2//3 579//3 3//3
f 3//3 580//3 4//3
f 4//3 581//3 5//3
f 5//3 582//3 6//3
f 6//3 583//3 7//3
f 7//3 584//3 8//3
f 8//3 585//3 9//3
f 9//3 586//3 10//3
f 10//3 587//3 11//3
f 11//3 588//3 12//3
f 12//3 589//3 13//3
f 13//3 590//3 14//3
f 14//3 591//3 15//3
f 15//3 592//3 16//3
f 16//3 593//3 17//3
f 17//3 594//3 18//3
f 18//3 595//3 19//3
f 19//3 596//3 20//3
f 20//3 597//3 21//3
f 21//3 598//3 22//3
f 22//3 599//3 23//3
f 23//3 600//3 24//3
f 24//3 601//3 48//3
f 48//3 602//3 72//3
f 72//3 603//3 96//3
f 96//3 604//3 120//3
f 120//3 605//3 144//3
f 144//3 606//3 168//3
f 168//3 607//3 192//3
f 192//3 608//3 216//3
f 216//3 609//3 240//3
f 240//3 610//3 264//3
f 264//3 611//3 288//3
f 288//3 612//3 312//3
f 312//3 613//3 336//3
f 336//3 614//3 360//3
f 360//3 615//3 384//3
f 384//3 616//3 408//3
f 408//3 617//3 432//3
f 432//3 618//3 456//3
f 456//3 619//3 480//3
f 480//3 620//3 504//3
f 504//3 621//3 528//3
f 528//3 622//3 552//3
f 552//3 623//3 576//3
f 576//3 624//3 575//3
f 575//3 625//3 574//3
f 574//3 626//3 573//3
f 573//3 627//3 572//3
f 572//3 628//3 571//3
f 571//3 629//3 570//3
f 570//3 630//3 569//3
f 569//3 631//3 568//3
f 568//3 632//3 567//3
f 567//3 633//3 566//3
f 566//3 634//3 565//3
f 565//3 635//3 564//3
f 564//3 636//3 563//3
f 563//3 637//3 562//3
f 562//3 638//3 561//3
f 561//3 639//3 560//3
f 560//3 640//3 559//3
f 559//3 641//3 558//3
f 558//3 642//3 557//3
f 557//3 643//3 556//3
f 556//3 644//3 555//3
f 555//3 645//3 554//3
f 554//3 646//3 553//3
f 553//3 647//3 529//3
f 529//3 648//3 505//3
f 505//3 649//3 481//3
f 481//3 650//3 457//3
f 457//3 651//3 433//3
f 433//3 652//3 409//3
f 409//3 653//3 385//3
f 385//3 654//3 361//3
f 361//3 655//3 337//3
f 337//3 656//3 313//3
f 313//3 657//3 289//3
f 289//3 658//3 265//3
f 265//3 659//3 241//3
f 241//3 660//3 217//3
f 217//3 661//3 193//3
f 193//3 662//3 169//3
f 169//3 663//3 145//3
f 145//3 664//3 121//3
f 121//3 665//3 97//3
f 97//3 666//3 73//3
f 73//3 667//3 49//3
f 49//3 668//3 25//3
f 25//3 577//3 1//3
f 669//572 578//572 577//572
f 669//572 579//572 578//572
f 669//572 580//572 579//572
f 669//572 581//572 580//572
f 669//572 582//572 581//572
f 669//572 583//572 582//572
f 669//572 584//572 583//572
f 669//572 585//572 584//572
f 669//572 586//572 585//572
f 669//572 587//572 586//572
f 669//572 588//572 587//572
f 669//572 589//572 588//572
f 669//572 590//572 589//572
f 669//572 591//572 590//572
f 669//572 592//572 591//572
f 669//572 593//572 592//572
f 669//572 594//572 593//572
f 669//572 595//572 594//572
f 669//572 596//572 595//572
f 669//572 597//572 596//572
f 669//572 598//572 597//572
f 669//572 599//572 598//572
f 669//572 600//572 599//572
f 669//572 601//572 600//572
f 669//572 602//572 601//572
f 669//572 603//572 602//572
f 669//572 604//572 603//572
f 669//572 605//572 604//572
f 669//572 606//572 605//572
f 669//572 607//572 606//572
f 669//572 608//572 607//572
f 669//572 609//572 608//572
f 669//572 610//572 609//572
f 669//572 611//572 610//572
f 669//572 612//572 611//572
f 669//572 613//572 612//572
f 669//572 614//572 613//572
f 669//572 615//572 614//572
f 669//572 616//572 615//572
f 669//572 617//572 616//572
f 669//572 618//572 617//572
f 669//572 619//572 618//572
f 669//572 620//572 619//572
f 669//572 621//572 620//572
f 669//572 622//572 621//572
f 669//572 623//572 622//572
f 669//572 624//572 623//572
f 669//572 625//572 624//572
f 669//572 626//572 625//572
f 669//572 627//572 626//572
f 669//572 628//572 627//572
f 669//572 629//572 628//572
f 669//572 630//572 629//572
f 669//572 631//572 630//572
f 669//572 632//572 631//572
f 669//572 633//572 632//572
f 669//572 634//572 633//572
f 669//572 635//572 634//572
f 669//572 636//572 635//572
f 669//572 637//572 636//572
f 669//572 638//572 637//572
f 669//572 639//572 638//572
f 669//572 640//572 639//572
f 669//572 641//572 640//572
f 669//572 642//572 641//572
f 669//572 643//572 642//572
f 669//572 644//572 643//572
f 669//572 645//572 644//572
f 669//572 646//572 645//572
f 669//572 647//572 646//572
f 669//572 648//572 647//572
f 669//572 649//572 648//572
f 669//572 650//572 649//572
f 669//572 651//572 650//572
f 669//572 652//572 651//572
f 669//572 653//572 652//572
f 669//572 654//572 653//572
f 669//572 655//572 654//572
f 669//572 656//572 655//572
f 669//572 657//572 656//572
f 669//572 658//572 657//572
f 669//572 659//572 658//572
f 669//572 660//572 659//572
f 669//572 661//572 660//572
f 669//572 662//572 661//572
f 669//572 663//572 662//572
f 669//572 664//572 663//572
f 669//572 665//572 664//572
f 669//572 666//572 665//572
f 669//572 667//572 666//572
f 669//572 668//572 667//572
f 669//572 577//572 668//572
s 1
f 2//1 26//5 25//2
f 2//1 3//6 27//4
f 3//6 4//8 28//7
f 4//8 5//10 29//9
f 5//10 6//12 30//11
f 6//12 7//14 31//13
f 7//14 8//17 32//15
f 9//16 33//19 32//15
f 10//18 34//21 33//19
f 10//18 11//22 35//20
f 11//22 12//25 36//23
f 13//24 37//27 36//23
f 14//26 38//29 37//27
f 15//28 39//31 38//29
f 16//30 40//33 39//31
f 17//32 41//35 40//33
f 18//34 42//37 41//35
f 19//36 43//39 42//37
f 20//38 44//41 43//39
f 21//40 45//43 44//41
f 22//42 46//45 45//43
f 23//44 47//47 46//45
f 23//44 24//3 48//46
f 26//5 50//50 49//48
f 26//5 27//4 51//49
f 27//4 28//7 52//51
f 28//7 29//9 53//52
f 29//9 30//11 54//53
f 30//11 31//13 55//54
f 32//15 56//55 55//54
f 33//19 57//56 56//55
f 34//21 58//58 57//56
f 34//21 35//20 59//57
f 35//20 36//23 60//59
f 37//27 61//60 60//59
f 38//29 62//61 61//60
f 39//31 63//63 62//61
f 39//31 40//33 64//62
f 40//33 41//35 65//64
f 41//35 42//37 66//65
f 42//37 43//39 67//66
f 43//39 44//41 68//67
f 44//41 45//43 69//68
f 45//43 46//45 70//69
f 46//45 47//47 71//70
f 48//46 72//94 71//70
f 49//48 50//50 74//71
f 51//49 75//74 74//71
f 51//49 52//51 76//73
f 53//52 77//76 76//73
f 53//52 54//53 78//75
f 54//53 55//54 79//77
f 56//55 80//79 79//77
f 56//55 57//56 81//78
f 57//56 58//58 82//80
f 58//58 59//57 83//81
f 59//57 60//59 84//82
f 60//59 61//60 85//83
f 61//60 62//61 86//84
f 63//63 87//86 86//84
f 63//63 64//62 88//85
f 64//62 65//64 89//87
f 65//64 66//65 90//88
f 66//65 67//66 91//89
f 67//66 68//67 92//90
f 68//67 69//68 93//91
f 69//68 70//69 94//92
f 70//69 71//70 95//93
f 72//94 96//118 95//93
f 74//71 98//97 97//95
f 74//71 75//74 99//96
f 76//73 100//98 99//96
f 77//76 101//99 100//98
f 78//75 102//101 101//99
f 78//75 79//77 103//100
f 80//79 104//103 103//100
f 80//79 81//78 105//102
f 81//78 82//80 106//104
f 82//80 83//81 107//105
f 84//82 108//107 107//105
f 84//82 85//83 109//106
f 85//83 86//84 110//108
f 86//84 87//86 111//109
f 88//85 112//111 111//109
f 88//85 89//87 113//110
f 89//87 90//88 114//112
f 91//89 115//113 114//112
f 92//90 116//115 115//113
f 92//90 93//91 117//114
f 93//91 94//92 118//116
f 94//92 95//93 119//117
f 96//118 120//142 119//117
f 98//97 122//120 121//119
f 99//96 123//121 122//120
f 100//98 124//122 123//121
f 101//99 125//123 124//122
f 102//101 126//125 125//123
f 102//101 103//100 127//124
f 104//103 128//126 127//124
f 105//102 129//127 128//126
f 106//104 130//128 129//127
f 107//105 131//129 130//128
f 108//107 132//131 131//129
f 108//107 109//106 133//130
f 110//108 134//133 133//130
f 110//108 111//109 135//132
f 112//111 136//135 135//132
f 112//111 113//110 137//134
f 113//110 114//112 138//136
f 114//112 115//113 139//137
f 115//113 116//115 140//138
f 116//115 117//114 141//139
f 117//114 118//116 142//140
f 118//116 119//117 143//141
f 120//142 144//166 143//141
f 122//120 146//144 145//143
f 123//121 147//145 146//144
f 124//122 148//147 147//145
f 124//122 125//123 149//146
f 125//123 126//125 150//148
f 127//124 151//150 150//148
f 127//124 128//126 152//149
f 129//127 153//151 152//149
f 130//128 154//153 153//151
f 130//128 131//129 155//152
f 131//129 132//131 156//154
f 132//131 133//130 157//155
f 133//130 134//133 158//156
f 135//132 159//157 158//156
f 136//135 160//158 159//157
f 137//134 161//159 160//158
f 138//136 162//161 161//159
f 138//136 139//137 163//160
f 139//137 140//138 164//162
f 140//138 141//139 165//163
f 141//139 142//140 166//164
f 142//140 143//141 167//165
f 144//166 168//190 167//165
f 145//143 146//144 170//167
f 147//145 171//169 170//167
f 148//147 172//171 171//169
f 148//147 149//146 173//170
f 149//146 150//148 174//172
f 150//148 151//150 175//173
f 152//149 176//174 175//173
f 153//151 177//175 176//174
f 154//153 178//176 177//175
f 155//152 179//177 178//176
f 156//154 180//178 179//177
f 157//155 181//179 180//178
f 158//156 182//181 181//179
f 158//156 159//157 183//180
f 159//157 160//158 184//182
f 161//159 185//183 184//182
f 162//161 186//185 185//183
f 162//161 163//160 187//184
f 163//160 164//162 188//186
f 164//162 165//163 189//187
f 165//163 166//164 190//188
f 166//164 167//165 191//189
f 168//190 192//214 191//189
f 169//168 170//167 194//191
f 171//169 195//193 194//191
f 172//171 196//195 195//193
f 172//171 173//170 197//194
f 173//170 174//172 198//196
f 174//172 175//173 199//197
f 175//173 176//174 200//198
f 177//175 201//199 200//198
f 178//176 202//200 201//199
f 179//177 203//201 202//200
f 180//178 204//202 203//201
f 181//179 205//203 204//202
f 182//181 206//205 205//203
f 182//181 183//180 207//204
f 184//182 208//206 207//204
f 185//183 209//207 208//206
f 186//185 210//209 209//207
f 186//185 187//184 211//208
f 187//184 188//186 212//210
f 188//186 189//187 213//211
f 189//187 190//188 214//212
f 190//188 191//189 215//213
f 192//214 216//238 215//213
f 193//192 194//191 218//215
f 195//193 219//217 218//215
f 196//195 220//218 219//217
f 197//194 221//220 220//218
f 197//194 198//196 222//219
f 198//196 199//197 223//221
f 199//197 200//198 224//222
f 200//198 201//199 225//223
f 201//199 202//200 226//224
f 203//201 227//225 226//224
f 204//202 228//227 227//225
f 204//202 205//203 229//226
f 205//203 206//205 230//228
f 206//205 207//204 231//229
f 207//204 208//206 232//230
f 208//206 209//207 233//231
f 209//207 210//209 234//232
f 211//208 235//234 234//232
f 211//208 212//210 236//233
f 212//210 213//211 237//235
f 213//211 214//212 238//236
f 214//212 215//213 239//237
f 216//238 240//262 239//237
f 217//216 218//215 242//239
f 219//217 243//241 242//239
f 220//218 244//242 243//241
f 221//220 245//244 244//242
f 221//220 222//219 246//243
f 222//219 223//221 247//245
f 223//221 224//222 248//246
f 224//222 225//223 249//247
f 225//223 226//224 250//248
f 226//224 227//225 251//249
f 227//225 228//227 252//250
f 229//226 253//252 252//250
f 229//226 230//228 254//251
f 230//228 231//229 255//253
f 231//229 232//230 256//254
f 232//230 233//231 257//255
f 233//231 234//232 258//256
f 235//234 259//258 258//256
f 235//234 236//233 260//257
f 236//233 237//235 261//259
f 238//236 262//261 261//259
f 238//236 239//237 263//260
f 240//262 264//286 263//260
f 241//240 242//239 266//263
f 243//241 267//265 266//263
f 244//242 268//266 267//265
f 245//244 269//268 268//266
f 245//244 246//243 270//267
f 246//243 247//245 271//269
f 247//245 248//246 272//270
f 248//246 249//247 273//271
f 249//247 250//248 274//272
f 250//248 251//249 275//273
f 251//249 252//250 276//274
f 252//250 253//252 277//275
f 254//251 278//276 277//275
f 255//253 279//277 278//276
f 256//254 280//278 279//277
f 257//255 281//280 280//278
f 257//255 258//256 282//279
f 258//256 259//258 283//281
f 260//257 284//282 283//281
f 261//259 285//283 284//282
f 262//261 286//285 285//283
f 262//261 263//260 287//284
f 264//286 288//310 287//284
f 265//264 266//263 290//287
f 267//265 291//290 290//287
f 267//265 268//266 292//289
f 268//266 269//268 293//291
f 270//267 294//293 293//291
f 270//267 271//269 295//292
f 271//269 272//270 296//294
f 273//271 297//295 296//294
f 274//272 298//296 297//295
f 275//273 299//297 298//296
f 276//274 300//299 299//297
f 276//274 277//275 301//298
f 278//276 302//300 301//298
f 279//277 303//301 302//300
f 280//278 304//303 303//301
f 280//278 281//280 305//302
f 281//280 282//279 306//304
f 282//279 283//281 307//305
f 283//281 284//282 308//306
f 285//283 309//307 308//306
f 286//285 310//309 309//307
f 286//285 287//284 311//308
f 288//310 312//573 311//308
f 290//287 314//313 313//311
f 290//287 291//290 315//312
f 291//290 292//289 316//314
f 292//289 293//291 317//315
f 293//291 294//293 318//316
f 295//292 319//317 318//316
f 296//294 320//318 319//317
f 297//295 321//319 320//318
f 298//296 322//320 321//319
f 299//297 323//321 322//320
f 300//299 324//323 323//321
f 300//299 301//298 325//322
f 302//300 326//324 325//322
f 303//301 327//326 326//324
f 303//301 304//303 328//325
f 305//302 329//328 328//325
f 305//302 306//304 330//327
f 306//304 307//305 331//329
f 307//305 308//306 332//330
f 308//306 309//307 333//331
f 309//307 310//309 334//332
f 310//309 311//308 335//333
f 311//308 312//573 336//334
f 313//311 314//313 338//335
f 315//312 339//338 338//335
f 315//312 316//314 340//337
f 316//314 317//315 341//339
f 318//316 342//340 341//339
f 319//317 343//341 342//340
f 320//318 344//342 343//341
f 321//319 345//343 344//342
f 322//320 346//345 345//343
f 322//320 323//321 347//344
f 323//321 324//323 348//346
f 325//322 349//347 348//346
f 326//324 350//349 349//347
f 326//324 327//326 351//348
f 327//326 328//325 352//350
f 329//328 353//352 352//350
f 329//328 330//327 354//351
f 330//327 331//329 355//353
f 331//329 332//330 356//354
f 332//330 333//331 357//355
f 333//331 334//332 358//356
f 334//332 335//333 359//357
f 335//333 336//334 360//358
f 338//335 362//360 361//359
f 339//338 363//361 362//360
f 340//337 364//362 363//361
f 341//339 365//363 364//362
f 342//340 366//364 365//363
f 343//341 367//365 366//364
f 344//342 368//366 367//365
f 345//343 369//367 368//366
f 346//345 370//369 369//367
f 346//345 347//344 371//368
f 347//344 348//346 372//370
f 349//347 373//371 372//370
f 350//349 374//372 373//371
f 351//348 375//373 374//372
f 352//350 376//374 375//373
f 353//352 377//375 376//374
f 354//351 378//377 377//375
f 354//351 355//353 379//376
f 355//353 356//354 380//378
f 356//354 357//355 381//379
f 357//355 358//356 382//380
f 358//356 359//357 383//381
f 359//357 360//358 384//382
f 362//360 386//384 385//383
f 363//361 387//385 386//384
f 364//362 388//386 387//385
f 365//363 389//387 388//386
f 366//364 390//388 389//387
f 367//365 391//390 390//388
f 367//365 368//366 392//389
f 368//366 369//367 393//391
f 369//367 370//369 394//392
f 371//368 395//394 394//392
f 371//368 372//370 396//393
f 373//371 397//395 396//393
f 374//372 398//396 397//395
f 375//373 399//397 398//396
f 376//374 400//398 399//397
f 377//375 401//399 400//398
f 378//377 402//401 401//399
f 378//377 379//376 403//400
f 379//376 380//378 404//402
f 380//378 381//379 405//403
f 381//379 382//380 406//404
f 382//380 383//381 407//405
f 383//381 384//382 408//406
f 386//384 410//408 409//407
f 387//385 411//409 410//408
f 388//386 412//410 411//409
f 389//387 413//411 412//410
f 390//388 414//412 413//411
f 391//390 415//414 414//412
f 391//390 392//389 416//413
f 392//389 393//391 417//415
f 393//391 394//392 418//416
f 395//394 419//417 418//416
f 396//393 420//419 419//417
f 396//393 397//395 421//418
f 397//395 398//396 422//420
f 399//397 423//421 422//420
f 400//398 424//422 423//421
f 401//399 425//423 424//422
f 402//401 426//425 425//423
f 402//401 403//400 427//424
f 403//400 404//402 428//426
f 404//402 405//403 429//427
f 405//403 406//404 430//428
f 406//404 407//405 431//429
f 407//405 408//406 432//430
f 410//408 434//432 433//431
f 411//409 435//433 434//432
f 412//410 436//434 435//433
f 413//411 437//435 436//434
f 414//412 438//437 437//435
f 414//412 415//414 439//436
f 415//414 416//413 440//438
f 417//415 441//440 440//438
f 417//415 418//416 442//439
f 418//416 419//417 443//441
f 420//419 444//443 443//441
f 420//419 421//418 445//442
f 421//418 422//420 446//444
f 422//420 423//421 447//445
f 423//421 424//422 448//446
f 424//422 425//423 449//447
f 425//423 426//425 450//448
f 426//425 427//424 451//449
f 427//424 428//426 452//450
f 428//426 429//427 453//451
f 429//427 430//428 454//452
f 430//428 431//429 455//453
f 431//429 432//430 456//454
f 434//432 458//456 457//455
f 435//433 459//457 458//456
f 436//434 460//458 459//457
f 437//435 461//459 460//458
f 438//437 462//461 461//459
f 438//437 439//436 463//460
f 439//436 440//438 464//462
f 440//438 441//440 465//463
f 441//440 442//439 466//464
f 442//439 443//441 467//465
f 444//443 468//466 467//465
f 445//442 469//468 468//466
f 445//442 446//444 470//467
f 446//444 447//445 471//469
f 447//445 448//446 472//470
f 448//446 449//447 473//471
f 450//448 474//472 473//471
f 451//449 475//473 474//472
f 452//450 476//475 475//473
f 452//450 453//451 477//474
f 453//451 454//452 478//476
f 454//452 455//453 479//477
f 456//454 480//574 479//477
f 458//456 482//479 481//478
f 459//457 483//480 482//479
f 460//458 484//482 483//480
f 460//458 461//459 485//481
f 462//461 486//483 485//481
f 463//460 487//485 486//483
f 463//460 464//462 488//484
f 464//462 465//463 489//486
f 465//463 466//464 490//487
f 466//464 467//465 491//488
f 467//465 468//466 492//489
f 468//466 469//468 493//490
f 470//467 494//491 493//490
f 471//469 495//492 494//491
f 472//470 496//493 495//492
f 473//471 497//494 496//493
f 474//472 498//495 497//494
f 475//473 499//496 498//495
f 476//475 500//498 499//496
f 476//475 477//474 501//497
f 477//474 478//476 502//499
f 478//476 479//477 503//500
f 479//477 480//574 504//501
f 482//479 506//504 505//502
f 482//479 483//480 507//503
f 483//480 484//482 508//505
f 485//481 509//506 508//505
f 486//483 510//507 509//506
f 487//485 511//508 510//507
f 488//484 512//509 511//508
f 489//486 513//510 512//509
f 490//487 514//512 513//510
f 490//487 491//488 515//511
f 491//488 492//489 516//513
f 492//489 493//490 517//514
f 494//491 518//515 517//514
f 495//492 519//516 518//515
f 496//493 520//517 519//516
f 497//494 521//518 520//517
f 498//495 522//520 521//518
f 498//495 499//496 523//519
f 500//498 524//522 523//519
f 500//498 501//497 525//521
f 501//497 502//499 526//523
f 502//499 503//500 527//524
f 503//500 504//501 528//525
f 506//504 530//528 529//526
f 506//504 507//503 531//527
f 508//505 532//529 531//527
f 509//506 533//530 532//529
f 510//507 534//531 533//530
f 511//508 535//532 534//531
f 512//509 536//533 535//532
f 513//510 537//534 536//533
f 514//512 538//535 537//534
f 515//511 539//537 538//535
f 515//511 516//513 540//536
f 516//513 517//514 541//538
f 518//515 542//539 541//538
f 519//516 543//540 542//539
f 520//517 544//542 543//540
f 520//517 521//518 545//541
f 521//518 522//520 546//543
f 522//520 523//519 547//544
f 524//522 548//546 547//544
f 524//522 525//521 549//545
f 525//521 526//523 550//547
f 526//523 527//524 551//548
f 527//524 528//525 552//549
f 529//526 530//528 554//550
f 531//527 555//551 554//550
f 532//529 556//552 555//551
f 533//530 557//553 556//552
f 534//531 558//554 557//553
f 535//532 559//555 558//554
f 536//533 560//556 559//555
f 537//534 561//557 560//556
f 538//535 562//559 561//557
f 538//535 539//537 563//558
f 540//536 564//560 563//558
f 541//538 565//562 564//560
f 541//538 542//539 566//561
f 542//539 543//540 567//563
f 543//540 544//542 568//564
f 544//542 545//541 569//565
f 545//541 546//543 570//566
f 546//543 547//544 571//567
f 547//544 548//546 572//568
f 549//545 573//569 572//568
f 550//547 574//570 573//569
f 551//548 575//571 574//570
f 552//549 576//3 575//571
s 0
f 1//3 577//3 578//3
f 2//3 578//3 579//3
f 3//3 579//3 580//3
f 4//3 580//3 581//3
f 5//3 581//3 582//3
f 6//3 582//3 583//3
f 7//3 583//3 584//3
f 8//3 584//3 585//3
f 9//3 585//3 586//3
f 10//3 586//3 587//3
f 11//3 587//3 588//3
f 12//3 588//3 589//3
f 13//3 589//3 590//3
f 14//3 590//3 591//3
f 15//3 591//3 592//3
f 16//3 592//3 593//3
f 17//3 593//3 594//3
f 18//3 594//3 595//3
f 19//3 595//3 596//3
f 20//3 596//3 597//3
f 21//3 597//3 598//3
f 22//3 598//3 599//3
f 23//3 599//3 600//3
f 24//3 600//3 601//3
f 48//3 601//3 602//3
f 72//3 602//3 603//3
f 96//3 603//3 604//3
f 120//3 604//3 605//3
f 144//3 605//3 606//3
f 168//3 606//3 607//3
f 192//3 607//3 608//3
f 216//3 608//3 609//3
f 240//3 609//3 610//3
f 264//3 610//3 611//3
f 288//3 611//3 612//3
f 312//3 612//3 613//3
f 336//3 613//3 614//3
f 360//3 614//3 615//3
f 384//3 615//3 616//3
f 408//3 616//3 617//3
f 432//3 617//3 618//3
f 456//3 618//3 619//3
f 480//3 619//3 620//3
f 504//3 620//3 621//3
f 528//3 621//3 622//3
f 552//3 622//3 623//3
f 576//3 623//3 624//3
f 575//3 624//3 625//3
f 574//3 625//3 626//3
f 573//3 626//3 627//3
f 572//3 627//3 628//3
f 571//3 628//3 629//3
f 570//3 629//3 630//3
f 569//3 630//3 631//3
f 568//3 631//3 632//3
f 567//3 632//3 633//3
f 566//3 633//3 634//3
f 565//3 634//3 635//3
f 564//3 635//3 636//3
f 563//3 636//3 637//3
f 562//3 637//3 638//3
f 561//3 638//3 639//3
f 560//3 639//3 640//3
f 559//3 640//3 641//3
f 558//3 641//3 642//3
f 557//3 642//3 643//3
f 556//3 643//3 644//3
f 555//3 644//3 645//3
f 554//3 645//3 646//3
f 553//3 646//3 647//3
f 529//3 647//3 648//3
f 505//3 648//3 649//3
f 481//3 649//3 650//3
f 457//3 650//3 651//3
f 433//3 651//3 652//3
f 409//3 652//3 653//3
f 385//3 653//3 654//3
f 361//3 654//3 655//3
f 337//3 655//3 656//3
f 313//3 656//3 657//3
f 289//3 657//3 658//3
f 265//3 658//3 659//3
f 241//3 659//3 660//3
f 217//3 660//3 661//3
f 193//3 661//3 662//3
f 169//3 662//3 663//3
f 145//3 663//3 664//3
f 121//3 664//3 665//3
f 97//3 665//3 666//3
f 73//3 666//3 667//3
f 49//3 667//3 668//3
f 25//3 668//3 577//3
