# Blender 5.2.0 LTS
# www.blender.org
o Footprint_Sole
v -0.500000 0.000000 0.000000
v -0.500000 0.000000 -0.200000
v -0.500000 0.000000 -0.400000
v -0.500000 0.000000 -0.600000
v -0.500000 0.000000 -0.800000
v -0.500000 0.000000 -1.000000
v -0.500000 0.000000 -1.200000
v -0.492404 0.000000 -1.286824
v -0.469846 0.000000 -1.371010
v -0.433013 0.000000 -1.450000
v -0.383022 0.000000 -1.521394
v -0.321394 0.000000 -1.583022
v -0.250000 0.000000 -1.633013
v -0.171010 0.000000 -1.669846
v -0.086824 0.000000 -1.692404
v 0.000000 0.000000 -1.700000
v 0.086824 0.000000 -1.692404
v 0.171010 0.000000 -1.669846
v 0.250000 0.000000 -1.633013
v 0.321394 0.000000 -1.583022
v 0.383022 0.000000 -1.521394
v 0.433013 0.000000 -1.450000
v 0.469846 0.000000 -1.371010
v 0.492404 0.000000 -1.286824
v 0.500000 0.000000 -1.200000
v 0.500000 0.000000 -1.000000
v 0.500000 0.000000 -0.800000
v 0.500000 0.000000 -0.600000
v 0.500000 0.000000 -0.400000
v 0.500000 0.000000 -0.200000
v 0.500000 0.000000 0.000000
v -0.310000 -0.154000 -0.423087
v -0.310000 -0.154000 -0.547087
v -0.310000 -0.154000 -0.671087
v -0.310000 -0.154000 -0.795087
v -0.310000 -0.154000 -0.919087
v -0.310000 -0.154000 -1.043087
v -0.310000 -0.154000 -1.167087
v -0.305290 -0.154000 -1.220918
v -0.291305 -0.154000 -1.273114
v -0.268468 -0.154000 -1.322087
v -0.237474 -0.154000 -1.366352
v -0.199264 -0.154000 -1.404561
v -0.155000 -0.154000 -1.435555
v -0.106026 -0.154000 -1.458392
v -0.053831 -0.154000 -1.472378
v 0.000000 -0.154000 -1.477087
v 0.053831 -0.154000 -1.472378
v 0.106026 -0.154000 -1.458392
v 0.155000 -0.154000 -1.435555
v 0.199264 -0.154000 -1.404561
v 0.237474 -0.154000 -1.366352
v 0.268468 -0.154000 -1.322087
v 0.291305 -0.154000 -1.273114
v 0.305290 -0.154000 -1.220918
v 0.310000 -0.154000 -1.167087
v 0.310000 -0.154000 -1.043087
v 0.310000 -0.154000 -0.919087
v 0.310000 -0.154000 -0.795087
v 0.310000 -0.154000 -0.671087
v 0.310000 -0.154000 -0.547087
v 0.310000 -0.154000 -0.423087
v -0.140000 -0.240800 -0.801639
v -0.140000 -0.240800 -0.857639
v -0.140000 -0.240800 -0.913639
v -0.140000 -0.240800 -0.969639
v -0.140000 -0.240800 -1.025639
v -0.140000 -0.240800 -1.081639
v -0.140000 -0.240800 -1.137639
v -0.137873 -0.240800 -1.161950
v -0.131557 -0.240800 -1.185522
v -0.121244 -0.240800 -1.207639
v -0.107246 -0.240800 -1.227630
v -0.089990 -0.240800 -1.244886
v -0.070000 -0.240800 -1.258883
v -0.047883 -0.240800 -1.269196
v -0.024311 -0.240800 -1.275512
v 0.000000 -0.240800 -1.277639
v 0.024311 -0.240800 -1.275512
v 0.047883 -0.240800 -1.269196
v 0.070000 -0.240800 -1.258883
v 0.089990 -0.240800 -1.244886
v 0.107246 -0.240800 -1.227630
v 0.121244 -0.240800 -1.207639
v 0.131557 -0.240800 -1.185522
v 0.137873 -0.240800 -1.161950
v 0.140000 -0.240800 -1.137639
v 0.140000 -0.240800 -1.081639
v 0.140000 -0.240800 -1.025639
v 0.140000 -0.240800 -0.969639
v 0.140000 -0.240800 -0.913639
v 0.140000 -0.240800 -0.857639
v 0.140000 -0.240800 -0.801639
v -0.000000 -0.280000 -1.113388
v -0.500000 -0.520000 0.000000
v -0.500000 -0.520000 -0.200000
v -0.500000 -0.520000 -0.400000
v -0.500000 -0.520000 -0.600000
v -0.500000 -0.520000 -0.800000
v -0.500000 -0.520000 -1.000000
v -0.500000 -0.520000 -1.200000
v -0.492404 -0.520000 -1.286824
v -0.469846 -0.520000 -1.371010
v -0.433013 -0.520000 -1.450000
v -0.383022 -0.520000 -1.521394
v -0.321394 -0.520000 -1.583022
v -0.250000 -0.520000 -1.633013
v -0.171010 -0.520000 -1.669846
v -0.086824 -0.520000 -1.692404
v 0.000000 -0.520000 -1.700000
v 0.086824 -0.520000 -1.692404
v 0.171010 -0.520000 -1.669846
v 0.250000 -0.520000 -1.633013
v 0.321394 -0.520000 -1.583022
v 0.383022 -0.520000 -1.521394
v 0.433013 -0.520000 -1.450000
v 0.469846 -0.520000 -1.371010
v 0.492404 -0.520000 -1.286824
v 0.500000 -0.520000 -1.200000
v 0.500000 -0.520000 -1.000000
v 0.500000 -0.520000 -0.800000
v 0.500000 -0.520000 -0.600000
v 0.500000 -0.520000 -0.400000
v 0.500000 -0.520000 -0.200000
v 0.500000 -0.520000 0.000000
v -0.000000 -0.520000 -1.113388
vn 0.3200 0.9338 -0.1604
vn 0.6297 0.7769 -0.0000
vn 0.2069 0.9455 -0.2512
vn 0.5452 0.8383 -0.0000
vn 0.6264 0.7790 0.0290
vn 0.5302 0.8428 0.0926
vn 0.6078 0.7862 0.1114
vn 0.4963 0.8494 0.1797
vn 0.5694 0.7945 0.2113
vn 0.4493 0.8552 0.2585
vn 0.5158 0.8018 0.3018
vn 0.3911 0.8602 0.3273
vn 0.4493 0.8081 0.3809
vn 0.3237 0.8643 0.3850
vn 0.3721 0.8133 0.4472
vn 0.2491 0.8675 0.4306
vn 0.2864 0.8174 0.4997
vn 0.1690 0.8698 0.4635
vn 0.1944 0.8204 0.5377
vn 0.0854 0.8712 0.4834
vn 0.0982 0.8222 0.5607
vn -0.0000 0.8717 0.4901
vn -0.0000 0.8228 0.5684
vn -0.0982 0.8222 0.5607
vn -0.0854 0.8712 0.4834
vn -0.1944 0.8204 0.5377
vn -0.1690 0.8698 0.4635
vn -0.2864 0.8174 0.4997
vn -0.2491 0.8675 0.4306
vn -0.3721 0.8133 0.4472
vn -0.3237 0.8643 0.3850
vn -0.4493 0.8081 0.3809
vn -0.3911 0.8602 0.3273
vn -0.5158 0.8018 0.3018
vn -0.4493 0.8552 0.2585
vn -0.5694 0.7945 0.2113
vn -0.4963 0.8494 0.1797
vn -0.6078 0.7862 0.1114
vn -0.5302 0.8428 0.0926
vn -0.6264 0.7790 0.0290
vn -0.5452 0.8383 -0.0000
vn -0.6297 0.7769 -0.0000
vn -0.3200 0.9338 -0.1604
vn -0.2069 0.9455 -0.2512
vn 0.2203 0.9706 -0.0969
vn 0.3640 0.9314 -0.0000
vn 0.5443 0.8386 0.0235
vn 0.3544 0.9331 0.0614
vn 0.3304 0.9363 0.1192
vn 0.2980 0.9391 0.1710
vn 0.2586 0.9415 0.2160
vn 0.2134 0.9435 0.2534
vn 0.1639 0.9450 0.2829
vn 0.1110 0.9461 0.3041
vn 0.0560 0.9468 0.3169
vn -0.0000 0.9470 0.3212
vn -0.0560 0.9468 0.3169
vn -0.1110 0.9461 0.3041
vn -0.1639 0.9450 0.2829
vn -0.2134 0.9435 0.2534
vn -0.2586 0.9415 0.2160
vn -0.2980 0.9391 0.1710
vn -0.3304 0.9363 0.1192
vn -0.3544 0.9331 0.0614
vn -0.5443 0.8386 0.0235
vn -0.3640 0.9314 -0.0000
vn -0.2203 0.9706 -0.0969
vn -0.0000 0.9987 0.0509
vn 0.3640 0.9313 0.0156
vn -0.3640 0.9313 0.0156
vn -1.0000 -0.0000 -0.0000
vn -0.9962 -0.0000 -0.0872
vn -0.9659 -0.0000 -0.2588
vn -0.9063 -0.0000 -0.4226
vn -0.8192 -0.0000 -0.5736
vn -0.7071 -0.0000 -0.7071
vn -0.5736 -0.0000 -0.8192
vn -0.4226 -0.0000 -0.9063
vn -0.2588 -0.0000 -0.9659
vn -0.0872 -0.0000 -0.9962
vn 0.0872 -0.0000 -0.9962
vn 0.2588 -0.0000 -0.9659
vn 0.4226 -0.0000 -0.9063
vn 0.5736 -0.0000 -0.8192
vn 0.7071 -0.0000 -0.7071
vn 0.8192 -0.0000 -0.5736
vn 0.9063 -0.0000 -0.4226
vn 0.9659 -0.0000 -0.2588
vn 0.9962 -0.0000 -0.0872
vn 1.0000 -0.0000 -0.0000
vn -0.0000 -0.0000 1.0000
vn -0.0000 -1.0000 -0.0000
s 1
f 32//1 2//2 1//3
f 33//4 3//2 2//2
f 34//4 4//2 3//2
f 35//4 5//2 4//2
f 36//4 6//2 5//2
f 37//4 7//5 6//2
f 7//5 39//6 8//7
f 8//7 40//8 9//9
f 9//9 41//10 10//11
f 10//11 42//12 11//13
f 11//13 43//14 12//15
f 12//15 44//16 13//17
f 13//17 45//18 14//19
f 14//19 46//20 15//21
f 15//21 47//22 16//23
f 47//22 17//24 16//23
f 48//25 18//26 17//24
f 49//27 19//28 18//26
f 50//29 20//30 19//28
f 51//31 21//32 20//30
f 52//33 22//34 21//32
f 53//35 23//36 22//34
f 54//37 24//38 23//36
f 55//39 25//40 24//38
f 25//40 57//41 26//42
f 26//42 58//41 27//42
f 27//42 59//41 28//42
f 28//42 60//41 29//42
f 29//42 61//41 30//42
f 30//42 62//43 31//44
f 62//43 1//3 31//44
f 63//45 33//4 32//1
f 64//46 34//4 33//4
f 65//46 35//4 34//4
f 66//46 36//4 35//4
f 67//46 37//4 36//4
f 68//46 38//47 37//4
f 38//47 70//48 39//6
f 39//6 71//49 40//8
f 40//8 72//50 41//10
f 41//10 73//51 42//12
f 42//12 74//52 43//14
f 43//14 75//53 44//16
f 44//16 76//54 45//18
f 45//18 77//55 46//20
f 46//20 78//56 47//22
f 78//56 48//25 47//22
f 79//57 49//27 48//25
f 80//58 50//29 49//27
f 81//59 51//31 50//29
f 82//60 52//33 51//31
f 83//61 53//35 52//33
f 84//62 54//37 53//35
f 85//63 55//39 54//37
f 86//64 56//65 55//39
f 56//65 88//66 57//41
f 57//41 89//66 58//41
f 58//41 90//66 59//41
f 59//41 91//66 60//41
f 60//41 92//66 61//41
f 61//41 93//67 62//43
f 93//67 32//1 62//43
f 94//68 64//46 63//45
f 94//68 65//46 64//46
f 94//68 66//46 65//46
f 94//68 67//46 66//46
f 94//68 68//46 67//46
f 94//68 69//69 68//46
f 94//68 70//48 69//69
f 94//68 71//49 70//48
f 94//68 72//50 71//49
f 94//68 73//51 72//50
f 94//68 74//52 73//51
f 94//68 75//53 74//52
f 94//68 76//54 75//53
f 94//68 77//55 76//54
f 94//68 78//56 77//55
f 94//68 79//57 78//56
f 94//68 80//58 79//57
f 94//68 81//59 80//58
f 94//68 82//60 81//59
f 94//68 83//61 82//60
f 94//68 84//62 83//61
f 94//68 85//63 84//62
f 94//68 86//64 85//63
f 94//68 87//70 86//64
f 94//68 88//66 87//70
f 94//68 89//66 88//66
f 94//68 90//66 89//66
f 94//68 91//66 90//66
f 94//68 92//66 91//66
f 94//68 93//67 92//66
f 94//68 63//45 93//67
s 0
f 2//71 95//71 1//71
f 3//71 96//71 2//71
f 4//71 97//71 3//71
f 5//71 98//71 4//71
f 6//71 99//71 5//71
f 7//71 100//71 6//71
f 8//72 101//72 7//72
f 9//73 102//73 8//73
f 10//74 103//74 9//74
f 11//75 104//75 10//75
f 12//76 105//76 11//76
f 13//77 106//77 12//77
f 14//78 107//78 13//78
f 15//79 108//79 14//79
f 16//80 109//80 15//80
f 17//81 110//81 16//81
f 18//82 111//82 17//82
f 19//83 112//83 18//83
f 20//84 113//84 19//84
f 21//85 114//85 20//85
f 22//86 115//86 21//86
f 23//87 116//87 22//87
f 24//88 117//88 23//88
f 25//89 118//89 24//89
f 26//90 119//90 25//90
f 27//90 120//90 26//90
f 28//90 121//90 27//90
f 29//90 122//90 28//90
f 30//90 123//90 29//90
f 31//90 124//90 30//90
f 1//91 125//91 31//91
f 126//92 95//92 96//92
f 126//92 96//92 97//92
f 126//92 97//92 98//92
f 126//92 98//92 99//92
f 126//92 99//92 100//92
f 126//92 100//92 101//92
f 126//92 101//92 102//92
f 126//92 102//92 103//92
f 126//92 103//92 104//92
f 126//92 104//92 105//92
f 126//92 105//92 106//92
f 126//92 106//92 107//92
f 126//92 107//92 108//92
f 126//92 108//92 109//92
f 126//92 109//92 110//92
f 126//92 110//92 111//92
f 126//92 111//92 112//92
f 126//92 112//92 113//92
f 126//92 113//92 114//92
f 126//92 114//92 115//92
f 126//92 115//92 116//92
f 126//92 116//92 117//92
f 126//92 117//92 118//92
f 126//92 118//92 119//92
f 126//92 119//92 120//92
f 126//92 120//92 121//92
f 126//92 121//92 122//92
f 126//92 122//92 123//92
f 126//92 123//92 124//92
f 126//92 124//92 125//92
f 126//92 125//92 95//92
s 1
f 32//1 33//4 2//2
f 33//4 34//4 3//2
f 34//4 35//4 4//2
f 35//4 36//4 5//2
f 36//4 37//4 6//2
f 37//4 38//47 7//5
f 7//5 38//47 39//6
f 8//7 39//6 40//8
f 9//9 40//8 41//10
f 10//11 41//10 42//12
f 11//13 42//12 43//14
f 12//15 43//14 44//16
f 13//17 44//16 45//18
f 14//19 45//18 46//20
f 15//21 46//20 47//22
f 47//22 48//25 17//24
f 48//25 49//27 18//26
f 49//27 50//29 19//28
f 50//29 51//31 20//30
f 51//31 52//33 21//32
f 52//33 53//35 22//34
f 53//35 54//37 23//36
f 54//37 55//39 24//38
f 55//39 56//65 25//40
f 25//40 56//65 57//41
f 26//42 57//41 58//41
f 27//42 58//41 59//41
f 28//42 59//41 60//41
f 29//42 60//41 61//41
f 30//42 61//41 62//43
f 62//43 32//1 1//3
f 63//45 64//46 33//4
f 64//46 65//46 34//4
f 65//46 66//46 35//4
f 66//46 67//46 36//4
f 67//46 68//46 37//4
f 68//46 69//69 38//47
f 38//47 69//69 70//48
f 39//6 70//48 71//49
f 40//8 71//49 72//50
f 41//10 72//50 73//51
f 42//12 73//51 74//52
f 43//14 74//52 75//53
f 44//16 75//53 76//54
f 45//18 76//54 77//55
f 46//20 77//55 78//56
f 78//56 79//57 48//25
f 79//57 80//58 49//27
f 80//58 81//59 50//29
f 81//59 82//60 51//31
f 82//60 83//61 52//33
f 83//61 84//62 53//35
f 84//62 85//63 54//37
f 85//63 86//64 55//39
f 86//64 87//70 56//65
f 56//65 87//70 88//66
f 57//41 88//66 89//66
f 58//41 89//66 90//66
f 59//41 90//66 91//66
f 60//41 91//66 92//66
f 61//41 92//66 93//67
f 93//67 63//45 32//1
s 0
f 2//71 96//71 95//71
f 3//71 97//71 96//71
f 4//71 98//71 97//71
f 5//71 99//71 98//71
f 6//71 100//71 99//71
f 7//71 101//71 100//71
f 8//72 102//72 101//72
f 9//73 103//73 102//73
f 10//74 104//74 103//74
f 11//75 105//75 104//75
f 12//76 106//76 105//76
f 13//77 107//77 106//77
f 14//78 108//78 107//78
f 15//79 109//79 108//79
f 16//80 110//80 109//80
f 17//81 111//81 110//81
f 18//82 112//82 111//82
f 19//83 113//83 112//83
f 20//84 114//84 113//84
f 21//85 115//85 114//85
f 22//86 116//86 115//86
f 23//87 117//87 116//87
f 24//88 118//88 117//88
f 25//89 119//89 118//89
f 26//90 120//90 119//90
f 27//90 121//90 120//90
f 28//90 122//90 121//90
f 29//90 123//90 122//90
f 30//90 124//90 123//90
f 31//90 125//90 124//90
f 1//91 95//91 125//91
