# Blender 5.2.0 LTS
# www.blender.org
o Footprint_Sand
v -0.650000 0.000000 0.334016
v -0.650000 0.000000 0.074016
v -0.650000 0.000000 -0.185984
v -0.650000 0.000000 -0.445984
v -0.650000 0.000000 -0.705984
v -0.650000 0.000000 -0.965984
v -0.650000 0.000000 -1.225984
v -0.640125 0.000000 -1.338855
v -0.610800 0.000000 -1.448297
v -0.562917 0.000000 -1.550984
v -0.497929 0.000000 -1.643796
v -0.417812 0.000000 -1.723912
v -0.325000 0.000000 -1.788900
v -0.222313 0.000000 -1.836784
v -0.112871 0.000000 -1.866109
v 0.000000 0.000000 -1.875984
v 0.112871 0.000000 -1.866109
v 0.222313 0.000000 -1.836784
v 0.325000 0.000000 -1.788900
v 0.417812 0.000000 -1.723912
v 0.497929 0.000000 -1.643796
v 0.562917 0.000000 -1.550984
v 0.610800 0.000000 -1.448297
v 0.640125 0.000000 -1.338855
v 0.650000 0.000000 -1.225984
v 0.650000 0.000000 -0.965984
v 0.650000 0.000000 -0.705984
v 0.650000 0.000000 -0.445984
v 0.650000 0.000000 -0.185984
v 0.650000 0.000000 0.074016
v 0.650000 0.000000 0.334016
v -0.565000 0.117600 0.144740
v -0.565000 0.117600 -0.081260
v -0.565000 0.117600 -0.307260
v -0.565000 0.117600 -0.533260
v -0.565000 0.117600 -0.759260
v -0.565000 0.117600 -0.985260
v -0.565000 0.117600 -1.211260
v -0.556416 0.117600 -1.309371
v -0.530926 0.117600 -1.404501
v -0.489304 0.117600 -1.493760
v -0.432815 0.117600 -1.574435
v -0.363175 0.117600 -1.644075
v -0.282500 0.117600 -1.700564
v -0.193241 0.117600 -1.742186
v -0.098111 0.117600 -1.767676
v 0.000000 0.117600 -1.776260
v 0.098111 0.117600 -1.767676
v 0.193241 0.117600 -1.742186
v 0.282500 0.117600 -1.700564
v 0.363175 0.117600 -1.644075
v 0.432815 0.117600 -1.574435
v 0.489304 0.117600 -1.493760
v 0.530926 0.117600 -1.404501
v 0.556416 0.117600 -1.309371
v 0.565000 0.117600 -1.211260
v 0.565000 0.117600 -0.985260
v 0.565000 0.117600 -0.759260
v 0.565000 0.117600 -0.533260
v 0.565000 0.117600 -0.307260
v 0.565000 0.117600 -0.081260
v 0.565000 0.117600 0.144740
v -0.500000 0.000000 0.000000
v -0.500000 0.000000 -0.200000
v -0.500000 0.000000 -0.400000
v -0.500000 0.000000 -0.600000
v -0.500000 0.000000 -0.800000
v -0.500000 0.000000 -1.000000
v -0.500000 0.000000 -1.200000
v -0.492404 0.000000 -1.286824
v -0.469846 0.000000 -1.371010
v -0.433013 0.000000 -1.450000
v -0.383022 0.000000 -1.521394
v -0.321394 0.000000 -1.583022
v -0.250000 0.000000 -1.633013
v -0.171010 0.000000 -1.669846
v -0.086824 0.000000 -1.692404
v 0.000000 0.000000 -1.700000
v 0.086824 0.000000 -1.692404
v 0.171010 0.000000 -1.669846
v 0.250000 0.000000 -1.633013
v 0.321394 0.000000 -1.583022
v 0.383022 0.000000 -1.521394
v 0.433013 0.000000 -1.450000
v 0.469846 0.000000 -1.371010
v 0.492404 0.000000 -1.286824
v 0.500000 0.000000 -1.200000
v 0.500000 0.000000 -1.000000
v 0.500000 0.000000 -0.800000
v 0.500000 0.000000 -0.600000
v 0.500000 0.000000 -0.400000
v 0.500000 0.000000 -0.200000
v 0.500000 0.000000 0.000000
v -0.470000 -0.386400 -0.066803
v -0.470000 -0.386400 -0.254803
v -0.470000 -0.386400 -0.442803
v -0.470000 -0.386400 -0.630803
v -0.470000 -0.386400 -0.818803
v -0.470000 -0.386400 -1.006803
v -0.470000 -0.386400 -1.194803
v -0.462860 -0.386400 -1.276418
v -0.441656 -0.386400 -1.355553
v -0.407032 -0.386400 -1.429803
v -0.360041 -0.386400 -1.496913
v -0.302110 -0.386400 -1.554844
v -0.235000 -0.386400 -1.601835
v -0.160749 -0.386400 -1.636459
v -0.081615 -0.386400 -1.657663
v 0.000000 -0.386400 -1.664803
v 0.081615 -0.386400 -1.657663
v 0.160749 -0.386400 -1.636459
v 0.235000 -0.386400 -1.601835
v 0.302110 -0.386400 -1.554844
v 0.360041 -0.386400 -1.496913
v 0.407032 -0.386400 -1.429803
v 0.441656 -0.386400 -1.355553
v 0.462860 -0.386400 -1.276418
v 0.470000 -0.386400 -1.194803
v 0.470000 -0.386400 -1.006803
v 0.470000 -0.386400 -0.818803
v 0.470000 -0.386400 -0.630803
v 0.470000 -0.386400 -0.442803
v 0.470000 -0.386400 -0.254803
v 0.470000 -0.386400 -0.066803
v -0.400000 -0.420000 -0.222678
v -0.400000 -0.420000 -0.382678
v -0.400000 -0.420000 -0.542678
v -0.400000 -0.420000 -0.702678
v -0.400000 -0.420000 -0.862678
v -0.400000 -0.420000 -1.022678
v -0.400000 -0.420000 -1.182678
v -0.393923 -0.420000 -1.252137
v -0.375877 -0.420000 -1.319486
v -0.346410 -0.420000 -1.382678
v -0.306418 -0.420000 -1.439793
v -0.257115 -0.420000 -1.489095
v -0.200000 -0.420000 -1.529088
v -0.136808 -0.420000 -1.558555
v -0.069459 -0.420000 -1.576601
v 0.000000 -0.420000 -1.582678
v 0.069459 -0.420000 -1.576601
v 0.136808 -0.420000 -1.558555
v 0.200000 -0.420000 -1.529088
v 0.257115 -0.420000 -1.489095
v 0.306418 -0.420000 -1.439793
v 0.346410 -0.420000 -1.382678
v 0.375877 -0.420000 -1.319486
v 0.393923 -0.420000 -1.252137
v 0.400000 -0.420000 -1.182678
v 0.400000 -0.420000 -1.022678
v 0.400000 -0.420000 -0.862678
v 0.400000 -0.420000 -0.702678
v 0.400000 -0.420000 -0.542678
v 0.400000 -0.420000 -0.382678
v 0.400000 -0.420000 -0.222678
v -0.000000 -0.420000 -1.113388
v -0.650000 -0.660000 0.334016
v -0.650000 -0.660000 0.074016
v -0.650000 -0.660000 -0.185984
v -0.650000 -0.660000 -0.445984
v -0.650000 -0.660000 -0.705984
v -0.650000 -0.660000 -0.965984
v -0.650000 -0.660000 -1.225984
v -0.640125 -0.660000 -1.338855
v -0.610800 -0.660000 -1.448297
v -0.562917 -0.660000 -1.550984
v -0.497929 -0.660000 -1.643796
v -0.417812 -0.660000 -1.723912
v -0.325000 -0.660000 -1.788900
v -0.222313 -0.660000 -1.836784
v -0.112871 -0.660000 -1.866109
v 0.000000 -0.660000 -1.875984
v 0.112871 -0.660000 -1.866109
v 0.222313 -0.660000 -1.836784
v 0.325000 -0.660000 -1.788900
v 0.417812 -0.660000 -1.723912
v 0.497929 -0.660000 -1.643796
v 0.562917 -0.660000 -1.550984
v 0.610800 -0.660000 -1.448297
v 0.640125 -0.660000 -1.338855
v 0.650000 -0.660000 -1.225984
v 0.650000 -0.660000 -0.965984
v 0.650000 -0.660000 -0.705984
v 0.650000 -0.660000 -0.445984
v 0.650000 -0.660000 -0.185984
v 0.650000 -0.660000 0.074016
v 0.650000 -0.660000 0.334016
v -0.000000 -0.660000 -1.113388
vn -0.2938 0.9544 0.0523
vn -0.8105 0.5858 -0.0000
vn -0.3245 0.8618 0.3897
vn 0.0604 0.9982 -0.0000
vn -0.8077 0.5884 -0.0369
vn 0.0127 0.9999 0.0101
vn -0.7889 0.5975 -0.1434
vn 0.0120 0.9999 0.0119
vn -0.7446 0.6082 -0.2752
vn 0.0110 0.9998 0.0137
vn -0.6791 0.6179 -0.3962
vn 0.0098 0.9998 0.0153
vn -0.5951 0.6264 -0.5034
vn 0.0082 0.9998 0.0167
vn -0.4954 0.6336 -0.5943
vn 0.0064 0.9998 0.0178
vn -0.3828 0.6393 -0.6669
vn 0.0044 0.9998 0.0187
vn -0.2606 0.6434 -0.7198
vn 0.0022 0.9998 0.0192
vn -0.1319 0.6459 -0.7519
vn -0.0000 0.9998 0.0194
vn -0.0000 0.6468 -0.7627
vn 0.1319 0.6459 -0.7519
vn -0.0022 0.9998 0.0192
vn 0.2606 0.6434 -0.7198
vn -0.0044 0.9998 0.0187
vn 0.3828 0.6393 -0.6669
vn -0.0064 0.9998 0.0178
vn 0.4954 0.6336 -0.5943
vn -0.0082 0.9998 0.0167
vn 0.5951 0.6264 -0.5034
vn -0.0098 0.9998 0.0153
vn 0.6791 0.6179 -0.3962
vn -0.0110 0.9998 0.0137
vn 0.7446 0.6082 -0.2752
vn -0.0120 0.9999 0.0119
vn 0.7889 0.5975 -0.1434
vn -0.0127 0.9999 0.0101
vn 0.8077 0.5884 -0.0369
vn -0.0604 0.9982 -0.0000
vn 0.8105 0.5858 -0.0000
vn 0.2938 0.9544 0.0523
vn 0.3245 0.8618 0.3897
vn 0.5858 0.7375 -0.3361
vn 0.8752 0.4837 -0.0000
vn 0.0369 0.9993 0.0046
vn 0.8567 0.4945 0.1469
vn 0.8124 0.5050 0.2916
vn 0.7443 0.5147 0.4256
vn 0.6548 0.5232 0.5454
vn 0.5468 0.5305 0.6477
vn 0.4237 0.5364 0.7299
vn 0.2890 0.5406 0.7901
vn 0.1465 0.5432 0.8267
vn -0.0000 0.5441 0.8390
vn -0.1465 0.5432 0.8267
vn -0.2890 0.5406 0.7901
vn -0.4237 0.5364 0.7299
vn -0.5468 0.5305 0.6477
vn -0.6548 0.5232 0.5454
vn -0.7443 0.5147 0.4256
vn -0.8124 0.5050 0.2916
vn -0.8567 0.4945 0.1469
vn -0.0369 0.9993 0.0046
vn -0.8752 0.4837 -0.0000
vn -0.5858 0.7375 -0.3361
vn 0.9970 0.0774 -0.0000
vn 0.9931 0.0783 0.0869
vn 0.9628 0.0806 0.2580
vn 0.9032 0.0827 0.4212
vn 0.8162 0.0848 0.5715
vn 0.7045 0.0865 0.7045
vn 0.5713 0.0880 0.8160
vn 0.4209 0.0892 0.9027
vn 0.2578 0.0900 0.9620
vn 0.0868 0.0904 0.9921
vn -0.0868 0.0904 0.9921
vn -0.2578 0.0900 0.9620
vn -0.4209 0.0892 0.9027
vn -0.5713 0.0880 0.8160
vn -0.7045 0.0865 0.7045
vn -0.8162 0.0848 0.5715
vn -0.9032 0.0827 0.4212
vn -0.9628 0.0806 0.2580
vn -0.9931 0.0783 0.0869
vn -0.9970 0.0774 -0.0000
vn -0.0000 0.1704 -0.9854
vn 0.4327 0.9015 -0.0000
vn 0.4272 0.9034 0.0374
vn 0.4044 0.9081 0.1084
vn 0.3711 0.9123 0.1731
vn 0.3287 0.9159 0.2302
vn 0.2788 0.9190 0.2788
vn 0.2229 0.9214 0.3183
vn 0.1624 0.9232 0.3483
vn 0.0987 0.9244 0.3684
vn 0.0331 0.9250 0.3785
vn -0.0331 0.9250 0.3785
vn -0.0987 0.9244 0.3684
vn -0.1624 0.9232 0.3483
vn -0.2229 0.9214 0.3183
vn -0.2788 0.9190 0.2788
vn -0.3287 0.9159 0.2302
vn -0.3711 0.9123 0.1731
vn -0.4044 0.9081 0.1084
vn -0.4272 0.9034 0.0374
vn -0.4327 0.9015 -0.0000
vn -0.0000 0.9775 -0.2107
vn -0.0000 1.0000 -0.0000
vn -1.0000 -0.0000 -0.0000
vn -0.9962 -0.0000 -0.0872
vn -0.9659 -0.0000 -0.2588
vn -0.9063 -0.0000 -0.4226
vn -0.8192 -0.0000 -0.5736
vn -0.7071 -0.0000 -0.7071
vn -0.5736 -0.0000 -0.8192
vn -0.4226 -0.0000 -0.9063
vn -0.2588 -0.0000 -0.9659
vn -0.0872 -0.0000 -0.9962
vn 0.0872 -0.0000 -0.9962
vn 0.2588 -0.0000 -0.9659
vn 0.4226 -0.0000 -0.9063
vn 0.5736 -0.0000 -0.8192
vn 0.7071 -0.0000 -0.7071
vn 0.8192 -0.0000 -0.5736
vn 0.9063 -0.0000 -0.4226
vn 0.9659 -0.0000 -0.2588
vn 0.9962 -0.0000 -0.0872
vn 1.0000 -0.0000 -0.0000
vn -0.0000 -0.0000 1.0000
vn -0.0000 -1.0000 -0.0000
vn 0.8731 0.4861 0.0366
vn -0.8731 0.4861 0.0366
vn 0.5714 0.0880 0.8160
vn -0.5714 0.0880 0.8160
s 1
f 32//1 2//2 1//3
f 33//4 3//2 2//2
f 34//4 4//2 3//2
f 35//4 5//2 4//2
f 36//4 6//2 5//2
f 37//4 7//5 6//2
f 7//5 39//6 8//7
f 8//7 40//8 9//9
f 9//9 41//10 10//11
f 10//11 42//12 11//13
f 11//13 43//14 12//15
f 12//15 44//16 13//17
f 13//17 45//18 14//19
f 14//19 46//20 15//21
f 15//21 47//22 16//23
f 47//22 17//24 16//23
f 48//25 18//26 17//24
f 49//27 19//28 18//26
f 50//29 20//30 19//28
f 51//31 21//32 20//30
f 52//33 22//34 21//32
f 53//35 23//36 22//34
f 54//37 24//38 23//36
f 55//39 25//40 24//38
f 25//40 57//41 26//42
f 26//42 58//41 27//42
f 27//42 59//41 28//42
f 28//42 60//41 29//42
f 29//42 61//41 30//42
f 30//42 62//43 31//44
f 62//43 1//3 31//44
f 63//45 33//4 32//1
f 64//46 34//4 33//4
f 65//46 35//4 34//4
f 66//46 36//4 35//4
f 67//46 37//4 36//4
f 68//46 38//47 37//4
f 38//47 70//48 39//6
f 39//6 71//49 40//8
f 40//8 72//50 41//10
f 41//10 73//51 42//12
f 42//12 74//52 43//14
f 43//14 75//53 44//16
f 44//16 76//54 45//18
f 45//18 77//55 46//20
f 46//20 78//56 47//22
f 78//56 48//25 47//22
f 79//57 49//27 48//25
f 80//58 50//29 49//27
f 81//59 51//31 50//29
f 82//60 52//33 51//31
f 83//61 53//35 52//33
f 84//62 54//37 53//35
f 85//63 55//39 54//37
f 86//64 56//65 55//39
f 56//65 88//66 57//41
f 57//41 89//66 58//41
f 58//41 90//66 59//41
f 59//41 91//66 60//41
f 60//41 92//66 61//41
f 61//41 93//67 62//43
f 93//67 32//1 62//43
s 0
f 94//68 64//68 63//68
f 95//68 65//68 64//68
f 96//68 66//68 65//68
f 97//68 67//68 66//68
f 98//68 68//68 67//68
f 99//68 69//68 68//68
f 69//69 101//69 70//69
f 70//70 102//70 71//70
f 71//71 103//71 72//71
f 72//72 104//72 73//72
f 73//73 105//73 74//73
f 74//74 106//74 75//74
f 75//75 107//75 76//75
f 76//76 108//76 77//76
f 77//77 109//77 78//77
f 109//78 79//78 78//78
f 110//79 80//79 79//79
f 111//80 81//80 80//80
f 112//81 82//81 81//81
f 113//82 83//82 82//82
f 114//83 84//83 83//83
f 115//84 85//84 84//84
f 116//85 86//85 85//85
f 117//86 87//86 86//86
f 87//87 119//87 88//87
f 88//87 120//87 89//87
f 89//87 121//87 90//87
f 90//87 122//87 91//87
f 91//87 123//87 92//87
f 92//87 124//87 93//87
f 124//88 63//88 93//88
f 125//89 95//89 94//89
f 126//89 96//89 95//89
f 127//89 97//89 96//89
f 128//89 98//89 97//89
f 129//89 99//89 98//89
f 130//89 100//89 99//89
f 100//90 132//90 101//90
f 101//91 133//91 102//91
f 102//92 134//92 103//92
f 103//93 135//93 104//93
f 104//94 136//94 105//94
f 105//95 137//95 106//95
f 106//96 138//96 107//96
f 107//97 139//97 108//97
f 108//98 140//98 109//98
f 140//99 110//99 109//99
f 141//100 111//100 110//100
f 142//101 112//101 111//101
f 143//102 113//102 112//102
f 144//103 114//103 113//103
f 145//104 115//104 114//104
f 146//105 116//105 115//105
f 147//106 117//106 116//106
f 148//107 118//107 117//107
f 118//108 150//108 119//108
f 119//108 151//108 120//108
f 120//108 152//108 121//108
f 121//108 153//108 122//108
f 122//108 154//108 123//108
f 123//108 155//108 124//108
f 155//109 94//109 124//109
f 156//110 126//110 125//110
f 156//110 127//110 126//110
f 156//110 128//110 127//110
f 156//110 129//110 128//110
f 156//110 130//110 129//110
f 156//110 131//110 130//110
f 156//110 132//110 131//110
f 156//110 133//110 132//110
f 156//110 134//110 133//110
f 156//110 135//110 134//110
f 156//110 136//110 135//110
f 156//110 137//110 136//110
f 156//110 138//110 137//110
f 156//110 139//110 138//110
f 156//110 140//110 139//110
f 156//110 141//110 140//110
f 156//110 142//110 141//110
f 156//110 143//110 142//110
f 156//110 144//110 143//110
f 156//110 145//110 144//110
f 156//110 146//110 145//110
f 156//110 147//110 146//110
f 156//110 148//110 147//110
f 156//110 149//110 148//110
f 156//110 150//110 149//110
f 156//110 151//110 150//110
f 156//110 152//110 151//110
f 156//110 153//110 152//110
f 156//110 154//110 153//110
f 156//110 155//110 154//110
f 156//110 125//110 155//110
f 2//111 157//111 1//111
f 3//111 158//111 2//111
f 4//111 159//111 3//111
f 5//111 160//111 4//111
f 6//111 161//111 5//111
f 7//111 162//111 6//111
f 8//112 163//112 7//112
f 9//113 164//113 8//113
f 10//114 165//114 9//114
f 11//115 166//115 10//115
f 12//116 167//116 11//116
f 13//117 168//117 12//117
f 14//118 169//118 13//118
f 15//119 170//119 14//119
f 16//120 171//120 15//120
f 17//121 172//121 16//121
f 18//122 173//122 17//122
f 19//123 174//123 18//123
f 20//124 175//124 19//124
f 21//125 176//125 20//125
f 22//126 177//126 21//126
f 23//127 178//127 22//127
f 24//128 179//128 23//128
f 25//129 180//129 24//129
f 26//130 181//130 25//130
f 27//130 182//130 26//130
f 28//130 183//130 27//130
f 29//130 184//130 28//130
f 30//130 185//130 29//130
f 31//130 186//130 30//130
f 1//131 187//131 31//131
f 188//132 157//132 158//132
f 188//132 158//132 159//132
f 188//132 159//132 160//132
f 188//132 160//132 161//132
f 188//132 161//132 162//132
f 188//132 162//132 163//132
f 188//132 163//132 164//132
f 188//132 164//132 165//132
f 188//132 165//132 166//132
f 188//132 166//132 167//132
f 188//132 167//132 168//132
f 188//132 168//132 169//132
f 188//132 169//132 170//132
f 188//132 170//132 171//132
f 188//132 171//132 172//132
f 188//132 172//132 173//132
f 188//132 173//132 174//132
f 188//132 174//132 175//132
f 188//132 175//132 176//132
f 188//132 176//132 177//132
f 188//132 177//132 178//132
f 188//132 178//132 179//132
f 188//132 179//132 180//132
f 188//132 180//132 181//132
f 188//132 181//132 182//132
f 188//132 182//132 183//132
f 188//132 183//132 184//132
f 188//132 184//132 185//132
f 188//132 185//132 186//132
f 188//132 186//132 187//132
f 188//132 187//132 157//132
s 1
f 32//1 33//4 2//2
f 33//4 34//4 3//2
f 34//4 35//4 4//2
f 35//4 36//4 5//2
f 36//4 37//4 6//2
f 37//4 38//47 7//5
f 7//5 38//47 39//6
f 8//7 39//6 40//8
f 9//9 40//8 41//10
f 10//11 41//10 42//12
f 11//13 42//12 43//14
f 12//15 43//14 44//16
f 13//17 44//16 45//18
f 14//19 45//18 46//20
f 15//21 46//20 47//22
f 47//22 48//25 17//24
f 48//25 49//27 18//26
f 49//27 50//29 19//28
f 50//29 51//31 20//30
f 51//31 52//33 21//32
f 52//33 53//35 22//34
f 53//35 54//37 23//36
f 54//37 55//39 24//38
f 55//39 56//65 25//40
f 25//40 56//65 57//41
f 26//42 57//41 58//41
f 27//42 58//41 59//41
f 28//42 59//41 60//41
f 29//42 60//41 61//41
f 30//42 61//41 62//43
f 62//43 32//1 1//3
f 63//45 64//46 33//4
f 64//46 65//46 34//4
f 65//46 66//46 35//4
f 66//46 67//46 36//4
f 67//46 68//46 37//4
f 68//46 69//133 38//47
f 38//47 69//133 70//48
f 39//6 70//48 71//49
f 40//8 71//49 72//50
f 41//10 72//50 73//51
f 42//12 73//51 74//52
f 43//14 74//52 75//53
f 44//16 75//53 76//54
f 45//18 76//54 77//55
f 46//20 77//55 78//56
f 78//56 79//57 48//25
f 79//57 80//58 49//27
f 80//58 81//59 50//29
f 81//59 82//60 51//31
f 82//60 83//61 52//33
f 83//61 84//62 53//35
f 84//62 85//63 54//37
f 85//63 86//64 55//39
f 86//64 87//134 56//65
f 56//65 87//134 88//66
f 57//41 88//66 89//66
f 58//41 89//66 90//66
f 59//41 90//66 91//66
f 60//41 91//66 92//66
f 61//41 92//66 93//67
f 93//67 63//45 32//1
s 0
f 94//68 95//68 64//68
f 95//68 96//68 65//68
f 96//68 97//68 66//68
f 97//68 98//68 67//68
f 98//68 99//68 68//68
f 99//68 100//68 69//68
f 69//69 100//69 101//69
f 70//70 101//70 102//70
f 71//71 102//71 103//71
f 72//72 103//72 104//72
f 73//73 104//73 105//73
f 74//135 105//135 106//135
f 75//75 106//75 107//75
f 76//76 107//76 108//76
f 77//77 108//77 109//77
f 109//78 110//78 79//78
f 110//79 111//79 80//79
f 111//80 112//80 81//80
f 112//136 113//136 82//136
f 113//82 114//82 83//82
f 114//83 115//83 84//83
f 115//84 116//84 85//84
f 116//85 117//85 86//85
f 117//86 118//86 87//86
f 87//87 118//87 119//87
f 88//87 119//87 120//87
f 89//87 120//87 121//87
f 90//87 121//87 122//87
f 91//87 122//87 123//87
f 92//87 123//87 124//87
f 124//88 94//88 63//88
f 125//89 126//89 95//89
f 126//89 127//89 96//89
f 127//89 128//89 97//89
f 128//89 129//89 98//89
f 129//89 130//89 99//89
f 130//89 131//89 100//89
f 100//90 131//90 132//90
f 101//91 132//91 133//91
f 102//92 133//92 134//92
f 103//93 134//93 135//93
f 104//94 135//94 136//94
f 105//95 136//95 137//95
f 106//96 137//96 138//96
f 107//97 138//97 139//97
f 108//98 139//98 140//98
f 140//99 141//99 110//99
f 141//100 142//100 111//100
f 142//101 143//101 112//101
f 143//102 144//102 113//102
f 144//103 145//103 114//103
f 145//104 146//104 115//104
f 146//105 147//105 116//105
f 147//106 148//106 117//106
f 148//107 149//107 118//107
f 118//108 149//108 150//108
f 119//108 150//108 151//108
f 120//108 151//108 152//108
f 121//108 152//108 153//108
f 122//108 153//108 154//108
f 123//108 154//108 155//108
f 155//109 125//109 94//109
f 2//111 158//111 157//111
f 3//111 159//111 158//111
f 4//111 160//111 159//111
f 5//111 161//111 160//111
f 6//111 162//111 161//111
f 7//111 163//111 162//111
f 8//112 164//112 163//112
f 9//113 165//113 164//113
f 10//114 166//114 165//114
f 11//115 167//115 166//115
f 12//116 168//116 167//116
f 13//117 169//117 168//117
f 14//118 170//118 169//118
f 15//119 171//119 170//119
f 16//120 172//120 171//120
f 17//121 173//121 172//121
f 18//122 174//122 173//122
f 19//123 175//123 174//123
f 20//124 176//124 175//124
f 21//125 177//125 176//125
f 22//126 178//126 177//126
f 23//127 179//127 178//127
f 24//128 180//128 179//128
f 25//129 181//129 180//129
f 26//130 182//130 181//130
f 27//130 183//130 182//130
f 28//130 184//130 183//130
f 29//130 185//130 184//130
f 30//130 186//130 185//130
f 31//130 187//130 186//130
f 1//131 157//131 187//131
