# Blender 5.2.0 LTS
# www.blender.org
o Honey_Tile_Edge
v -1.600000 0.000000 1.600000
v -1.447619 0.000000 1.600000
v -1.295238 0.000000 1.600000
v -1.142857 0.000000 1.600000
v -0.990476 0.000000 1.600000
v -0.838095 0.000000 1.600000
v -0.685714 0.000000 1.600000
v -0.533333 0.000000 1.600000
v -0.380952 0.000000 1.600000
v -0.228571 0.000000 1.600000
v -0.076190 0.000000 1.600000
v 0.076190 0.000000 1.600000
v 0.228571 0.000000 1.600000
v 0.380952 0.000000 1.600000
v 0.533333 0.000000 1.600000
v 0.685714 0.000000 1.600000
v 0.838095 0.000000 1.600000
v 0.990476 0.000000 1.600000
v 1.142857 0.000000 1.600000
v 1.295238 0.000000 1.600000
v 1.447619 0.000000 1.600000
v 1.600000 0.000000 1.600000
v -1.600000 0.780066 1.447619
v -1.447619 0.786718 1.447619
v -1.295238 0.792821 1.447619
v -1.142857 0.797800 1.447619
v -0.990476 0.801180 1.447619
v -0.838095 0.802664 1.447619
v -0.685714 0.802102 1.447619
v -0.533333 0.799520 1.447619
v -0.380952 0.795067 1.447619
v -0.228571 0.789172 1.447619
v -0.076190 0.782483 1.447619
v 0.076190 0.775755 1.447619
v 0.228571 0.769729 1.447619
v 0.380952 0.764718 1.447619
v 0.533333 0.760932 1.447619
v 0.685714 0.758561 1.447619
v 0.838095 0.757933 1.447619
v 0.990476 0.759273 1.447619
v 1.142857 0.762558 1.447619
v 1.295238 0.767489 1.447619
v 1.447619 0.773519 1.447619
v 1.600000 0.780066 1.447619
v -1.600000 1.493199 1.295238
v -1.447619 1.513150 1.295238
v -1.295238 1.531405 1.295238
v -1.142857 1.546291 1.295238
v -0.990476 1.556364 1.295238
v -0.838095 1.560611 1.295238
v -0.685714 1.558734 1.295238
v -0.533333 1.551079 1.295238
v -0.380952 1.537946 1.295238
v -0.228571 1.520433 1.295238
v -0.076190 1.500499 1.295238
v 0.076190 1.480507 1.295238
v 0.228571 1.462942 1.295238
v 0.380952 1.448496 1.295238
v 0.533333 1.437490 1.295238
v 0.685714 1.430405 1.295238
v 0.838095 1.428409 1.295238
v 0.990476 1.432211 1.295238
v 1.142857 1.441776 1.295238
v 1.295238 1.456246 1.295238
v 1.447619 1.473965 1.295238
v 1.600000 1.493199 1.295238
v -1.600000 1.501217 1.142857
v -1.447619 1.529036 1.142857
v -1.295238 1.554460 1.142857
v -1.142857 1.575192 1.142857
v -0.990476 1.589187 1.142857
v -0.838095 1.594896 1.142857
v -0.685714 1.592055 1.142857
v -0.533333 1.581415 1.142857
v -0.380952 1.563244 1.142857
v -0.228571 1.538906 1.142857
v -0.076190 1.511184 1.142857
v 0.076190 1.483500 1.142857
v 0.228571 1.459575 1.142857
v 0.380952 1.440087 1.142857
v 0.533333 1.425143 1.142857
v 0.685714 1.415303 1.142857
v 0.838095 1.412393 1.142857
v 0.990476 1.417470 1.142857
v 1.142857 1.430534 1.142857
v 1.295238 1.450422 1.142857
v 1.447619 1.474790 1.142857
v 1.600000 1.501217 1.142857
v -1.600000 1.227446 0.990476
v -1.447619 1.260567 0.990476
v -1.295238 1.290817 0.990476
v -1.142857 1.315475 0.990476
v -0.990476 1.332092 0.990476
v -0.838095 1.338760 0.990476
v -0.685714 1.335237 0.990476
v -0.533333 1.322538 0.990476
v -0.380952 1.301031 0.990476
v -0.228571 1.272246 0.990476
v -0.076190 1.239391 0.990476
v 0.076190 1.206434 0.990476
v 0.228571 1.177840 0.990476
v 0.380952 1.154525 0.990476
v 0.533333 1.136713 0.990476
v 0.685714 1.125069 0.990476
v 0.838095 1.121664 0.990476
v 0.990476 1.127741 0.990476
v 1.142857 1.143303 0.990476
v 1.295238 1.167024 0.990476
v 1.447619 1.196048 0.990476
v 1.600000 1.227446 0.990476
v -1.600000 1.046088 0.838095
v -1.447619 1.081479 0.838095
v -1.295238 1.113706 0.838095
v -1.142857 1.139925 0.838095
v -0.990476 1.157524 0.838095
v -0.838095 1.164335 0.838095
v -0.685714 1.160264 0.838095
v -0.533333 1.146695 0.838095
v -0.380952 1.124347 0.838095
v -0.228571 1.094573 0.838095
v -0.076190 1.060214 0.838095
v 0.076190 1.024855 0.838095
v 0.228571 0.993070 0.838095
v 0.380952 0.966699 0.838095
v 0.533333 0.946860 0.838095
v 0.685714 0.934519 0.838095
v 0.838095 0.931268 0.838095
v 0.990476 0.938191 0.838095
v 1.142857 0.955161 0.838095
v 1.295238 0.980948 0.838095
v 1.447619 1.012352 0.838095
v 1.600000 1.046088 0.838095
v -1.600000 1.004170 0.685714
v -1.447619 1.038595 0.685714
v -1.295238 1.069770 0.685714
v -1.142857 1.095043 0.685714
v -0.990476 1.111916 0.685714
v -0.838095 1.118122 0.685714
v -0.685714 1.113809 0.685714
v -0.533333 1.100730 0.685714
v -0.380952 1.079973 0.685714
v -0.228571 1.052427 0.685714
v -0.076190 1.020038 0.685714
v 0.076190 0.985400 0.685714
v 0.228571 0.952717 0.685714
v 0.380952 0.924949 0.685714
v 0.533333 0.904375 0.685714
v 0.685714 0.892308 0.685714
v 0.838095 0.889534 0.685714
v 0.990476 0.896822 0.685714
v 1.142857 0.913887 0.685714
v 1.295238 0.939739 0.685714
v 1.447619 0.970988 0.685714
v 1.600000 1.004170 0.685714
v -1.600000 1.000168 0.533333
v -1.447619 1.030483 0.533333
v -1.295238 1.057701 0.533333
v -1.142857 1.079642 0.533333
v -0.990476 1.094218 0.533333
v -0.838095 1.099338 0.533333
v -0.685714 1.095373 0.533333
v -0.533333 1.084228 0.533333
v -0.380952 1.066952 0.533333
v -0.228571 1.043862 0.533333
v -0.076190 1.016080 0.533333
v 0.076190 0.985298 0.533333
v 0.228571 0.955221 0.533333
v 0.380952 0.929166 0.533333
v 0.533333 0.909859 0.533333
v 0.685714 0.898706 0.533333
v 0.838095 0.896110 0.533333
v 0.990476 0.902756 0.533333
v 1.142857 0.918358 0.533333
v 1.295238 0.942095 0.533333
v 1.447619 0.970502 0.533333
v 1.600000 1.000168 0.533333
v -1.600000 1.000003 0.380952
v -1.447619 1.023412 0.380952
v -1.295238 1.043821 0.380952
v -1.142857 1.059930 0.380952
v -0.990476 1.070878 0.380952
v -0.838095 1.075350 0.380952
v -0.685714 1.073425 0.380952
v -0.533333 1.066030 0.380952
v -0.380952 1.053415 0.380952
v -0.228571 1.035771 0.380952
v -0.076190 1.014103 0.380952
v 0.076190 0.989893 0.380952
v 0.228571 0.965944 0.380952
v 0.380952 0.944880 0.380952
v 0.533333 0.928929 0.380952
v 0.685714 0.919319 0.380952
v 0.838095 0.916632 0.380952
v 0.990476 0.921656 0.380952
v 1.142857 0.934234 0.380952
v 1.295238 0.953566 0.380952
v 1.447619 0.976483 0.380952
v 1.600000 1.000003 0.380952
v -1.600000 1.000000 0.228571
v -1.447619 1.014358 0.228571
v -1.295238 1.025768 0.228571
v -1.142857 1.034126 0.228571
v -0.990476 1.040436 0.228571
v -0.838095 1.044592 0.228571
v -0.685714 1.045967 0.228571
v -0.533333 1.043609 0.228571
v -0.380952 1.036528 0.228571
v -0.228571 1.025185 0.228571
v -0.076190 1.010913 0.228571
v 0.076190 0.995373 0.228571
v 0.228571 0.980012 0.228571
v 0.380952 0.966204 0.228571
v 0.533333 0.955221 0.228571
v 0.685714 0.947952 0.228571
v 0.838095 0.945301 0.228571
v 0.990476 0.948132 0.228571
v 1.142857 0.956455 0.228571
v 1.295238 0.969478 0.228571
v 1.447619 0.984734 0.228571
v 1.600000 1.000000 0.228571
v -1.600000 1.000000 0.076190
v -1.447619 1.004056 0.076190
v -1.295238 1.005497 0.076190
v -1.142857 1.005407 0.076190
v -0.990476 1.006492 0.076190
v -0.838095 1.009767 0.076190
v -0.685714 1.014051 0.076190
v -0.533333 1.016801 0.076190
v -0.380952 1.015927 0.076190
v -0.228571 1.012012 0.076190
v -0.076190 1.006512 0.076190
v 0.076190 1.001045 0.076190
v 0.228571 0.995679 0.076190
v 0.380952 0.990451 0.076190
v 0.533333 0.985574 0.076190
v 0.685714 0.981451 0.076190
v 0.838095 0.979138 0.076190
v 0.990476 0.979515 0.076190
v 1.142857 0.982785 0.076190
v 1.295238 0.988321 0.076190
v 1.447619 0.994497 0.076190
v 1.600000 1.000000 0.076190
v -1.600000 1.000000 -0.076190
v -1.447619 0.993530 -0.076190
v -1.295238 0.985399 -0.076190
v -1.142857 0.977534 -0.076190
v -0.990476 0.973342 -0.076190
v -0.838095 0.974362 -0.076190
v -0.685714 0.979584 -0.076190
v -0.533333 0.986310 -0.076190
v -0.380952 0.992146 -0.076190
v -0.228571 0.997121 -0.076190
v -0.076190 1.001872 -0.076190
v 0.076190 1.007069 -0.076190
v 0.228571 1.011832 -0.076190
v 0.380952 1.015316 -0.076190
v 0.533333 1.016973 -0.076190
v 0.685714 1.016655 -0.076190
v 0.838095 1.015093 -0.076190
v 0.990476 1.013059 -0.076190
v 1.142857 1.010941 -0.076190
v 1.295238 1.008530 -0.076190
v 1.447619 1.005013 -0.076190
v 1.600000 1.000000 -0.076190
v -1.600000 1.000000 -0.228571
v -1.447619 0.983816 -0.228571
v -1.295238 0.967536 -0.228571
v -1.142857 0.953456 -0.228571
v -0.990476 0.944642 -0.228571
v -0.838095 0.942742 -0.228571
v -0.685714 0.947439 -0.228571
v -0.533333 0.956995 -0.228571
v -0.380952 0.969708 -0.228571
v -0.228571 0.984580 -0.228571
v -0.076190 1.000396 -0.228571
v 0.076190 1.015899 -0.228571
v 0.228571 1.029743 -0.228571
v 0.380952 1.040826 -0.228571
v 0.533333 1.048321 -0.228571
v 0.685714 1.051701 -0.228571
v 0.838095 1.051007 -0.228571
v 0.990476 1.046656 -0.228571
v 1.142857 1.039088 -0.228571
v 1.295238 1.028475 -0.228571
v 1.447619 1.015201 -0.228571
v 1.600000 1.000000 -0.228571
v -1.600000 1.000000 -0.380952
v -1.447619 0.975686 -0.380952
v -1.295238 0.952894 -0.380952
v -1.142857 0.934050 -0.380952
v -0.990476 0.921535 -0.380952
v -0.838095 0.916929 -0.380952
v -0.685714 0.920672 -0.380952
v -0.533333 0.932217 -0.380952
v -0.380952 0.950824 -0.380952
v -0.228571 0.974515 -0.380952
v -0.076190 1.000189 -0.380952
v 0.076190 1.024625 -0.380952
v 0.228571 1.046130 -0.380952
v 0.380952 1.063552 -0.380952
v 0.533333 1.075961 -0.380952
v 0.685714 1.082555 -0.380952
v 0.838095 1.082665 -0.380952
v 0.990476 1.076303 -0.380952
v 1.142857 1.063902 -0.380952
v 1.295238 1.045941 -0.380952
v 1.447619 1.024030 -0.380952
v 1.600000 1.000000 -0.380952
v -1.600000 1.000000 -0.533333
v -1.447619 0.969751 -0.533333
v -1.295238 0.942151 -0.533333
v -1.142857 0.919760 -0.533333
v -0.990476 0.904600 -0.533333
v -0.838095 0.898201 -0.533333
v -0.685714 0.901427 -0.533333
v -0.533333 0.914382 -0.533333
v -0.380952 0.936829 -0.533333
v -0.228571 0.966297 -0.533333
v -0.076190 0.998733 -0.533333
v 0.076190 1.029841 -0.533333
v 0.228571 1.057369 -0.533333
v 0.380952 1.079889 -0.533333
v 0.533333 1.096231 -0.533333
v 0.685714 1.105317 -0.533333
v 0.838095 1.106043 -0.533333
v 0.990476 1.098196 -0.533333
v 1.142857 1.082247 -0.533333
v 1.295238 1.058916 -0.533333
v 1.447619 1.030624 -0.533333
v 1.600000 1.000000 -0.533333
v -1.600000 1.000000 -0.685714
v -1.447619 0.966314 -0.685714
v -1.295238 0.935795 -0.685714
v -1.142857 0.911157 -0.685714
v -0.990476 0.894512 -0.685714
v -0.838095 0.887517 -0.685714
v -0.685714 0.890979 -0.685714
v -0.533333 0.904828 -0.685714
v -0.380952 0.928765 -0.685714
v -0.228571 0.960445 -0.685714
v -0.076190 0.995917 -0.685714
v 0.076190 1.030768 -0.685714
v 0.228571 1.061734 -0.685714
v 0.380952 1.087193 -0.685714
v 0.533333 1.105963 -0.685714
v 0.685714 1.116884 -0.685714
v 0.838095 1.118474 -0.685714
v 0.990476 1.110181 -0.685714
v 1.142857 1.092406 -0.685714
v 1.295238 1.066256 -0.685714
v 1.447619 1.034461 -0.685714
v 1.600000 1.000000 -0.685714
v -1.600000 1.000000 -0.838095
v -1.447619 0.965565 -0.838095
v -1.295238 0.934510 -0.838095
v -1.142857 0.909499 -0.838095
v -0.990476 0.892668 -0.838095
v -0.838095 0.885868 -0.838095
v -0.685714 0.889662 -0.838095
v -0.533333 0.903548 -0.838095
v -0.380952 0.927173 -0.838095
v -0.228571 0.958569 -0.838095
v -0.076190 0.994131 -0.838095
v 0.076190 1.029547 -0.838095
v 0.228571 1.060515 -0.838095
v 0.380952 1.085833 -0.838095
v 0.533333 1.104932 -0.838095
v 0.685714 1.116948 -0.838095
v 0.838095 1.119797 -0.838095
v 0.990476 1.112230 -0.838095
v 1.142857 1.094331 -0.838095
v 1.295238 1.067761 -0.838095
v 1.447619 1.035324 -0.838095
v 1.600000 1.000000 -0.838095
v -1.600000 1.000000 -0.990476
v -1.447619 0.967772 -0.990476
v -1.295238 0.938775 -0.990476
v -1.142857 0.915438 -0.990476
v -0.990476 0.899775 -0.990476
v -0.838095 0.893654 -0.990476
v -0.685714 0.897422 -0.990476
v -0.533333 0.910294 -0.990476
v -0.380952 0.931898 -0.990476
v -0.228571 0.960655 -0.990476
v -0.076190 0.993453 -0.990476
v 0.076190 1.026361 -0.990476
v 0.228571 1.054739 -0.990476
v 0.380952 1.077819 -0.990476
v 0.533333 1.095542 -0.990476
v 0.685714 1.107339 -0.990476
v 0.838095 1.110857 -0.990476
v 0.990476 1.104437 -0.990476
v 1.142857 1.087929 -0.990476
v 1.295238 1.063257 -0.990476
v 1.447619 1.033042 -0.990476
v 1.600000 1.000000 -0.990476
v -1.600000 1.000000 -1.142857
v -1.447619 0.972881 -1.142857
v -1.295238 0.948474 -1.142857
v -1.142857 0.928821 -1.142857
v -0.990476 0.915625 -1.142857
v -0.838095 0.910465 -1.142857
v -0.685714 0.913610 -1.142857
v -0.533333 0.924372 -1.142857
v -0.380952 0.942395 -1.142857
v -0.228571 0.966388 -1.142857
v -0.076190 0.993814 -1.142857
v 0.076190 1.021441 -1.142857
v 0.228571 1.045325 -1.142857
v 0.380952 1.064798 -1.142857
v 0.533333 1.079800 -1.142857
v 0.685714 1.089843 -1.142857
v 0.838095 1.092928 -1.142857
v 0.990476 1.087625 -1.142857
v 1.142857 1.073796 -1.142857
v 1.295238 1.053114 -1.142857
v 1.447619 1.027761 -1.142857
v 1.600000 1.000000 -1.142857
v -1.600000 1.000000 -1.295238
v -1.447619 0.980545 -1.295238
v -1.295238 0.962979 -1.295238
v -1.142857 0.948814 -1.295238
v -0.990476 0.939243 -1.295238
v -0.838095 0.935208 -1.295238
v -0.685714 0.937071 -1.295238
v -0.533333 0.944659 -1.295238
v -0.380952 0.957679 -1.295238
v -0.228571 0.975022 -1.295238
v -0.076190 0.994827 -1.295238
v 0.076190 1.014837 -1.295238
v 0.228571 1.032642 -1.295238
v 0.380952 1.047379 -1.295238
v 0.533333 1.058537 -1.295238
v 0.685714 1.065562 -1.295238
v 0.838095 1.067348 -1.295238
v 0.990476 1.063188 -1.295238
v 1.142857 1.053140 -1.295238
v 1.295238 1.038230 -1.295238
v 1.447619 1.019967 -1.295238
v 1.600000 1.000000 -1.295238
v -1.600000 1.000000 -1.447619
v -1.447619 0.989894 -1.447619
v -1.295238 0.980726 -1.447619
v -1.142857 0.973319 -1.447619
v -0.990476 0.968272 -1.447619
v -0.838095 0.965931 -1.447619
v -0.685714 0.966615 -1.447619
v -0.533333 0.970478 -1.447619
v -0.380952 0.977347 -1.447619
v -0.228571 0.986500 -1.447619
v -0.076190 0.996921 -1.447619
v 0.076190 1.007470 -1.447619
v 0.228571 1.017202 -1.447619
v 0.380952 1.025398 -1.447619
v 0.533333 1.031462 -1.447619
v 0.685714 1.034960 -1.447619
v 0.838095 1.035563 -1.447619
v 0.990476 1.033129 -1.447619
v 1.142857 1.027804 -1.447619
v 1.295238 1.019987 -1.447619
v 1.447619 1.010426 -1.447619
v 1.600000 1.000000 -1.447619
v -1.600000 1.000000 -1.600000
v -1.447619 1.000000 -1.600000
v -1.295238 1.000000 -1.600000
v -1.142857 1.000000 -1.600000
v -0.990476 1.000000 -1.600000
v -0.838095 1.000000 -1.600000
v -0.685714 1.000000 -1.600000
v -0.533333 1.000000 -1.600000
v -0.380952 1.000000 -1.600000
v -0.228571 1.000000 -1.600000
v -0.076190 1.000000 -1.600000
v 0.076190 1.000000 -1.600000
v 0.228571 1.000000 -1.600000
v 0.380952 1.000000 -1.600000
v 0.533333 1.000000 -1.600000
v 0.685714 1.000000 -1.600000
v 0.838095 1.000000 -1.600000
v 0.990476 1.000000 -1.600000
v 1.142857 1.000000 -1.600000
v 1.295238 1.000000 -1.600000
v 1.447619 1.000000 -1.600000
v 1.600000 1.000000 -1.600000
v -1.600000 -0.831220 1.600000
v -1.447619 -1.142329 1.600000
v -1.295238 -1.440324 1.600000
v -1.142857 -1.674801 1.600000
v -0.990476 -1.810796 1.600000
v -0.838095 -1.843102 1.600000
v -0.685714 -1.796283 1.600000
v -0.533333 -1.710616 1.600000
v -0.380952 -1.623697 1.600000
v -0.228571 -1.559176 1.600000
v -0.076190 -1.526559 1.600000
v 0.076190 -1.526478 1.600000
v 0.228571 -1.553046 1.600000
v 0.380952 -1.590962 1.600000
v 0.533333 -1.613101 1.600000
v 0.685714 -1.585831 1.600000
v 0.838095 -1.482646 1.600000
v 0.990476 -1.298261 1.600000
v 1.142857 -1.053360 1.600000
v 1.295238 -0.786436 1.600000
v 1.447619 -0.537968 1.600000
v 1.600000 -0.336307 1.600000
v 1.600000 -0.191840 1.447619
v 1.600000 -0.099766 1.295238
v 1.600000 -0.047276 1.142857
v 1.600000 -0.020407 0.990476
v 1.600000 -0.008023 0.838095
v 1.600000 -0.002872 0.685714
v 1.600000 -0.000936 0.533333
v 1.600000 -0.000278 0.380952
v 1.600000 -0.000075 0.228571
v 1.600000 -0.000019 0.076190
v 1.600000 -0.000004 -0.076190
v 1.600000 -0.000001 -0.228571
v 1.600000 -0.000000 -0.380952
v 1.600000 -0.000000 -0.533333
v 1.600000 -0.000000 -0.685714
v 1.600000 -0.000000 -0.838095
v 1.600000 -0.000000 -0.990476
v 1.600000 -0.000000 -1.142857
v 1.600000 -0.000000 -1.295238
v 1.600000 -0.000000 -1.447619
v 1.600000 -0.000000 -1.600000
v 1.447619 -0.000000 -1.600000
v 1.295238 -0.000000 -1.600000
v 1.142857 -0.000000 -1.600000
v 0.990476 -0.000000 -1.600000
v 0.838095 -0.000000 -1.600000
v 0.685714 -0.000000 -1.600000
v 0.533333 -0.000000 -1.600000
v 0.380952 -0.000000 -1.600000
v 0.228571 -0.000000 -1.600000
v 0.076190 -0.000000 -1.600000
v -0.076190 -0.000000 -1.600000
v -0.228571 -0.000000 -1.600000
v -0.380952 -0.000000 -1.600000
v -0.533333 -0.000000 -1.600000
v -0.685714 -0.000000 -1.600000
v -0.838095 -0.000000 -1.600000
v -0.990476 -0.000000 -1.600000
v -1.142857 -0.000000 -1.600000
v -1.295238 -0.000000 -1.600000
v -1.447619 -0.000000 -1.600000
v -1.600000 -0.000000 -1.600000
v -1.600000 -0.000000 -1.447619
v -1.600000 -0.000000 -1.295238
v -1.600000 -0.000000 -1.142857
v -1.600000 -0.000000 -0.990476
v -1.600000 -0.000000 -0.838095
v -1.600000 -0.000000 -0.685714
v -1.600000 -0.000001 -0.533333
v -1.600000 -0.000003 -0.380952
v -1.600000 -0.000014 -0.228571
v -1.600000 -0.000057 -0.076190
v -1.600000 -0.000219 0.076190
v -1.600000 -0.000760 0.228571
v -1.600000 -0.002403 0.380952
v -1.600000 -0.006915 0.533333
v -1.600000 -0.018122 0.685714
v -1.600000 -0.043252 0.838095
v -1.600000 -0.094026 0.990476
v -1.600000 -0.186216 1.142857
v -1.600000 -0.336100 1.295238
v -1.600000 -0.553193 1.447619
v 0.000000 0.000000 0.000000
vn -0.0005 0.1908 0.9816
vn -0.0082 0.1994 0.9799
vn -0.0000 0.1917 0.9814
vn -0.0005 0.1894 0.9819
vn -0.0087 0.1982 0.9801
vn -0.0004 0.1881 0.9821
vn -0.0075 0.1959 0.9806
vn -0.0002 0.1872 0.9823
vn -0.0056 0.1940 0.9810
vn -0.0001 0.1867 0.9824
vn -0.0033 0.1926 0.9813
vn 0.0022 0.1923 0.9813
vn -0.0006 0.1921 0.9814
vn 0.0002 0.1869 0.9824
vn 0.0047 0.1934 0.9811
vn 0.0003 0.1877 0.9822
vn 0.0070 0.1951 0.9808
vn 0.0004 0.1888 0.9820
vn 0.0085 0.1973 0.9803
vn 0.0005 0.1903 0.9817
vn 0.0092 0.1999 0.9798
vn 0.0005 0.1919 0.9814
vn 0.0088 0.2024 0.9793
vn 0.0005 0.1934 0.9811
vn 0.0076 0.2047 0.9788
vn 0.0004 0.1947 0.9809
vn 0.0061 0.2067 0.9784
vn 0.0003 0.1958 0.9806
vn 0.0043 0.2081 0.9781
vn 0.0002 0.1966 0.9805
vn 0.0020 0.2090 0.9779
vn 0.0001 0.1970 0.9804
vn -0.0005 0.2092 0.9779
vn -0.0001 0.1969 0.9804
vn -0.0000 0.1971 0.9804
vn -0.0003 0.1963 0.9805
vn -0.0032 0.2088 0.9780
vn -0.0004 0.1953 0.9807
vn -0.0057 0.2076 0.9782
vn -0.0005 0.1939 0.9810
vn -0.0076 0.2057 0.9786
vn -0.0010 0.1931 0.9812
vn -0.0087 0.2033 0.9791
vn -0.0945 0.7333 0.6733
vn -0.1002 0.7412 0.6638
vn -0.0857 0.7268 0.6815
vn -0.0640 0.7152 0.6960
vn -0.0369 0.7071 0.7061
vn 0.0249 0.7058 0.7079
vn -0.0059 0.7038 0.7103
vn 0.0533 0.7124 0.6997
vn 0.0790 0.7225 0.6868
vn 0.0976 0.7358 0.6701
vn 0.1056 0.7514 0.6513
vn 0.0936 0.7650 0.6372
vn 0.0876 0.7763 0.6243
vn 0.0708 0.7895 0.6096
vn 0.0513 0.7998 0.5980
vn 0.0268 0.8069 0.5901
vn -0.0051 0.8092 0.5876
vn -0.0388 0.8048 0.5922
vn -0.0680 0.7949 0.6029
vn -0.0889 0.7813 0.6178
vn -0.0099 0.2022 0.9793
vn -0.0927 0.7705 0.6307
vn -0.1452 0.8585 -0.4919
vn -0.1482 0.8818 -0.4476
vn -0.1306 0.8960 -0.4243
vn -0.0998 0.9083 -0.4062
vn -0.0577 0.9169 -0.3950
vn 0.0396 0.9182 -0.3942
vn -0.0086 0.9201 -0.3916
vn 0.0833 0.9118 -0.4022
vn 0.1210 0.9007 -0.4172
vn 0.1457 0.8866 -0.4390
vn 0.1525 0.8720 -0.4652
vn 0.1337 0.8573 -0.4972
vn 0.1170 0.8438 -0.5238
vn 0.0920 0.8364 -0.5404
vn 0.0659 0.8304 -0.5532
vn 0.0343 0.8264 -0.5621
vn -0.0488 0.8262 -0.5612
vn -0.0060 0.8251 -0.5650
vn -0.0878 0.8305 -0.5500
vn -0.1182 0.8386 -0.5318
vn -0.1307 0.8535 -0.5044
vn -0.1142 0.7816 0.6133
vn -0.1176 0.5683 -0.8144
vn -0.1265 0.5732 -0.8096
vn -0.1028 0.5743 -0.8122
vn -0.0778 0.5798 -0.8110
vn -0.0439 0.5837 -0.8108
vn -0.0060 0.5853 -0.8108
vn 0.0307 0.5842 -0.8111
vn 0.0645 0.5806 -0.8116
vn 0.0941 0.5759 -0.8121
vn 0.1145 0.5708 -0.8131
vn 0.1215 0.5659 -0.8154
vn 0.1134 0.5616 -0.8196
vn 0.0954 0.5570 -0.8250
vn 0.0752 0.5525 -0.8301
vn 0.0535 0.5494 -0.8339
vn 0.0273 0.5483 -0.8359
vn -0.0394 0.5497 -0.8344
vn -0.0052 0.5486 -0.8360
vn -0.0714 0.5514 -0.8312
vn -0.0961 0.5542 -0.8268
vn -0.1106 0.5581 -0.8224
vn -0.1115 0.5529 -0.8257
vn -0.1814 0.8254 -0.5346
vn -0.1927 0.8367 -0.5127
vn -0.1575 0.8285 -0.5374
vn -0.1187 0.8328 -0.5407
vn -0.0662 0.8365 -0.5439
vn -0.0077 0.8379 -0.5458
vn 0.0483 0.8364 -0.5461
vn 0.0976 0.8331 -0.5444
vn 0.1405 0.8302 -0.5395
vn 0.1721 0.8286 -0.5327
vn 0.1869 0.8287 -0.5276
vn 0.1807 0.8302 -0.5274
vn 0.1578 0.8310 -0.5334
vn 0.1261 0.8314 -0.5411
vn 0.0880 0.8328 -0.5466
vn 0.0424 0.8355 -0.5478
vn -0.0651 0.8366 -0.5439
vn -0.0107 0.8375 -0.5464
vn -0.1160 0.8331 -0.5408
vn -0.1543 0.8291 -0.5374
vn -0.1751 0.8266 -0.5349
vn -0.1783 0.8144 -0.5522
vn -0.2054 0.9652 -0.1620
vn -0.2114 0.9662 -0.1475
vn -0.1775 0.9679 -0.1781
vn -0.1334 0.9723 -0.1921
vn -0.0737 0.9766 -0.2020
vn -0.0067 0.9783 -0.2071
vn 0.0559 0.9768 -0.2066
vn 0.1079 0.9741 -0.1985
vn 0.1530 0.9713 -0.1824
vn 0.1886 0.9687 -0.1615
vn 0.2097 0.9675 -0.1414
vn 0.2081 0.9700 -0.1255
vn 0.1905 0.9745 -0.1184
vn 0.1536 0.9811 -0.1175
vn 0.1049 0.9877 -0.1158
vn 0.0484 0.9924 -0.1129
vn -0.0780 0.9906 -0.1119
vn -0.0147 0.9937 -0.1115
vn -0.1368 0.9839 -0.1148
vn -0.1808 0.9762 -0.1202
vn -0.2001 0.9709 -0.1313
vn -0.2114 0.9666 -0.1450
vn -0.1831 0.9818 -0.0511
vn -0.1842 0.9826 -0.0244
vn -0.1571 0.9839 -0.0853
vn -0.1179 0.9865 -0.1139
vn -0.0652 0.9891 -0.1317
vn -0.0044 0.9905 -0.1377
vn 0.0490 0.9901 -0.1312
vn 0.0920 0.9893 -0.1129
vn 0.1306 0.9877 -0.0863
vn 0.1637 0.9850 -0.0546
vn 0.1817 0.9832 -0.0157
vn 0.1790 0.9828 0.0446
vn 0.1910 0.9814 0.0194
vn 0.1454 0.9872 0.0658
vn 0.0988 0.9919 0.0799
vn 0.0456 0.9952 0.0871
vn -0.0136 0.9961 0.0876
vn -0.0723 0.9941 0.0809
vn -0.1268 0.9897 0.0667
vn -0.1671 0.9849 0.0460
vn -0.1870 0.9824 0.0020
vn -0.1828 0.9829 0.0221
vn -0.1404 0.9886 -0.0541
vn -0.1373 0.9904 -0.0152
vn -0.1176 0.9876 -0.1043
vn -0.0885 0.9853 -0.1461
vn -0.0524 0.9839 -0.1708
vn -0.0071 0.9846 -0.1745
vn 0.0306 0.9867 -0.1595
vn 0.0647 0.9891 -0.1321
vn 0.0982 0.9902 -0.0989
vn 0.1275 0.9900 -0.0609
vn 0.1544 0.9874 0.0343
vn 0.1360 0.9906 -0.0158
vn 0.1447 0.9861 0.0812
vn 0.1197 0.9856 0.1197
vn 0.0835 0.9858 0.1458
vn 0.0410 0.9866 0.1580
vn -0.0090 0.9874 0.1579
vn -0.0577 0.9876 0.1462
vn -0.1034 0.9870 0.1232
vn -0.1361 0.9867 0.0893
vn -0.1492 0.9877 0.0474
vn -0.0833 0.9945 -0.0640
vn -0.0770 0.9969 -0.0168
vn -0.0647 0.9902 -0.1240
vn -0.0494 0.9835 -0.1738
vn -0.0366 0.9784 -0.2036
vn -0.0177 0.9786 -0.2052
vn 0.0032 0.9831 -0.1832
vn 0.0351 0.9873 -0.1549
vn 0.0600 0.9907 -0.1218
vn 0.0835 0.9935 -0.0775
vn 0.0997 0.9943 0.0375
vn 0.0820 0.9963 -0.0238
vn 0.0949 0.9908 0.0967
vn 0.0812 0.9859 0.1465
vn 0.0603 0.9817 0.1809
vn 0.0335 0.9796 0.1980
vn -0.0023 0.9800 0.1991
vn -0.0374 0.9821 0.1849
vn -0.0701 0.9853 0.1559
vn -0.0920 0.9894 0.1127
vn -0.1393 0.9902 0.0128
vn -0.0988 0.9933 0.0594
vn -0.0178 0.9985 -0.0512
vn -0.0266 0.9996 -0.0000
vn -0.0047 0.9933 -0.1156
vn -0.0037 0.9855 -0.1697
vn -0.0122 0.9779 -0.2086
vn -0.0256 0.9745 -0.2231
vn -0.0234 0.9770 -0.2119
vn -0.0023 0.9839 -0.1786
vn 0.0145 0.9913 -0.1310
vn 0.0379 0.9957 -0.0845
vn 0.0355 0.9986 0.0384
vn 0.0188 0.9994 -0.0293
vn 0.0357 0.9941 0.1027
vn 0.0344 0.9869 0.1573
vn 0.0308 0.9800 0.1967
vn 0.0225 0.9757 0.2180
vn 0.0064 0.9757 0.2192
vn -0.0158 0.9788 0.2044
vn -0.0302 0.9842 0.1742
vn -0.0391 0.9913 0.1261
vn -0.0838 0.9964 0.0159
vn -0.0383 0.9971 0.0663
vn 0.0252 0.9995 -0.0173
vn 0.0479 0.9967 -0.0661
vn 0.0524 0.9910 -0.1231
vn 0.0398 0.9851 -0.1671
vn -0.0190 0.9773 -0.2111
vn 0.0139 0.9807 -0.1952
vn -0.0398 0.9765 -0.2119
vn -0.0428 0.9808 -0.1901
vn -0.0377 0.9884 -0.1473
vn -0.0253 0.9965 -0.0795
vn -0.0324 0.9990 0.0315
vn -0.0326 0.9993 -0.0201
vn -0.0261 0.9951 0.0955
vn -0.0158 0.9886 0.1501
vn -0.0038 0.9814 0.1920
vn 0.0054 0.9756 0.2195
vn 0.0139 0.9738 0.2271
vn 0.0115 0.9779 0.2086
vn 0.0149 0.9855 0.1689
vn 0.0194 0.9932 0.1149
vn -0.0188 0.9997 0.0173
vn 0.0277 0.9983 0.0508
vn 0.0898 0.9958 -0.0158
vn 0.1057 0.9927 -0.0582
vn 0.0988 0.9895 -0.1053
vn 0.0743 0.9873 -0.1407
vn 0.0353 0.9854 -0.1667
vn -0.0479 0.9811 -0.1875
vn -0.0061 0.9830 -0.1837
vn -0.0743 0.9823 -0.1718
vn -0.0910 0.9870 -0.1322
vn -0.0999 0.9923 -0.0737
vn -0.0849 0.9964 -0.0061
vn -0.0956 0.9938 0.0574
vn -0.0811 0.9905 0.1114
vn -0.0606 0.9860 0.1556
vn -0.0360 0.9813 0.1889
vn 0.0184 0.9766 0.2141
vn -0.0118 0.9778 0.2094
vn 0.0403 0.9788 0.2010
vn 0.0603 0.9837 0.1693
vn 0.0780 0.9896 0.1211
vn 0.0921 0.9938 0.0628
vn 0.0827 0.9964 0.0166
vn 0.1446 0.9894 -0.0131
vn 0.1521 0.9873 -0.0461
vn 0.1349 0.9874 -0.0822
vn 0.1016 0.9888 -0.1094
vn 0.0555 0.9900 -0.1300
vn -0.0514 0.9878 -0.1471
vn 0.0047 0.9896 -0.1435
vn -0.0990 0.9857 -0.1362
vn -0.1366 0.9849 -0.1064
vn -0.1579 0.9856 -0.0609
vn -0.1472 0.9891 -0.0061
vn -0.1481 0.9879 0.0461
vn -0.1259 0.9880 0.0898
vn -0.0968 0.9873 0.1263
vn -0.0621 0.9861 0.1543
vn 0.0215 0.9843 0.1752
vn -0.0237 0.9850 0.1711
vn 0.0618 0.9843 0.1650
vn 0.0986 0.9854 0.1390
vn 0.1283 0.9867 0.0994
vn 0.1472 0.9878 0.0517
vn 0.1416 0.9898 0.0143
vn 0.1854 0.9826 -0.0095
vn 0.1853 0.9822 -0.0313
vn 0.1610 0.9854 -0.0558
vn 0.1215 0.9898 -0.0747
vn 0.0700 0.9936 -0.0883
vn -0.0538 0.9940 -0.0956
vn 0.0106 0.9954 -0.0953
vn -0.1148 0.9894 -0.0888
vn -0.1661 0.9834 -0.0725
vn -0.1966 0.9793 -0.0475
vn -0.1965 0.9804 -0.0108
vn -0.1841 0.9826 0.0247
vn -0.1604 0.9857 0.0518
vn -0.1252 0.9891 0.0775
vn -0.0826 0.9918 0.0975
vn -0.0329 0.9933 0.1107
vn 0.0776 0.9909 0.1097
vn 0.0228 0.9931 0.1154
vn 0.1266 0.9876 0.0929
vn 0.1651 0.9840 0.0671
vn 0.1876 0.9816 0.0357
vn 0.1867 0.9824 0.0105
vn 0.2105 0.9776 -0.0054
vn 0.2044 0.9788 -0.0152
vn 0.1766 0.9839 -0.0261
vn 0.1331 0.9905 -0.0342
vn 0.0768 0.9963 -0.0393
vn -0.0564 0.9977 -0.0386
vn 0.0111 0.9991 -0.0403
vn -0.1218 0.9919 -0.0362
vn -0.1779 0.9835 -0.0326
vn -0.2134 0.9766 -0.0265
vn -0.2229 0.9747 -0.0167
vn -0.2055 0.9787 -0.0011
vn -0.1795 0.9837 0.0124
vn -0.1418 0.9897 0.0215
vn -0.0962 0.9949 0.0308
vn -0.0402 0.9984 0.0387
vn 0.0847 0.9953 0.0460
vn 0.0203 0.9988 0.0445
vn 0.1412 0.9892 0.0403
vn 0.1849 0.9823 0.0303
vn 0.2103 0.9775 0.0172
vn 0.2146 0.9767 0.0061
vn 0.2158 0.9764 0.0023
vn 0.2080 0.9781 0.0059
vn 0.1792 0.9838 0.0107
vn 0.1348 0.9908 0.0147
vn 0.0768 0.9969 0.0179
vn -0.0575 0.9981 0.0208
vn 0.0098 0.9997 0.0201
vn -0.1211 0.9925 0.0186
vn -0.1761 0.9843 0.0120
vn -0.2127 0.9771 0.0030
vn -0.2227 0.9749 -0.0078
vn -0.2103 0.9775 -0.0166
vn -0.1797 0.9834 -0.0244
vn -0.1431 0.9892 -0.0314
vn -0.1010 0.9943 -0.0344
vn -0.0472 0.9984 -0.0305
vn 0.0828 0.9964 -0.0203
vn 0.0154 0.9996 -0.0249
vn 0.1430 0.9896 -0.0156
vn 0.1881 0.9821 -0.0109
vn 0.2148 0.9766 -0.0058
vn 0.2210 0.9753 -0.0022
vn 0.1950 0.9805 0.0255
vn 0.1989 0.9800 0.0081
vn 0.1677 0.9847 0.0464
vn 0.1259 0.9900 0.0634
vn 0.0712 0.9947 0.0747
vn 0.0082 0.9968 0.0797
vn -0.0546 0.9955 0.0778
vn -0.1119 0.9914 0.0678
vn -0.1619 0.9855 0.0500
vn -0.1963 0.9802 0.0268
vn -0.1954 0.9803 -0.0277
vn -0.2024 0.9793 -0.0009
vn -0.1654 0.9850 -0.0499
vn -0.1319 0.9889 -0.0686
vn -0.0957 0.9920 -0.0821
vn -0.0498 0.9948 -0.0886
vn 0.0110 0.9961 -0.0873
vn 0.0749 0.9940 -0.0799
vn 0.1328 0.9889 -0.0672
vn 0.1755 0.9833 -0.0487
vn 0.2011 0.9792 -0.0264
vn 0.1651 0.9853 0.0428
vn 0.1630 0.9865 0.0123
vn 0.1419 0.9867 0.0791
vn 0.1065 0.9884 0.1081
vn 0.0607 0.9900 0.1270
vn 0.0068 0.9910 0.1337
vn -0.0459 0.9907 0.1281
vn -0.0937 0.9894 0.1112
vn -0.1358 0.9872 0.0837
vn -0.1651 0.9851 0.0475
vn -0.1658 0.9854 -0.0380
vn -0.1657 0.9862 0.0045
vn -0.1402 0.9875 -0.0718
vn -0.1116 0.9888 -0.0989
vn -0.0811 0.9894 -0.1203
vn -0.0430 0.9899 -0.1352
vn 0.0078 0.9901 -0.1399
vn 0.0633 0.9892 -0.1325
vn 0.1119 0.9873 -0.1125
vn 0.1481 0.9856 -0.0817
vn 0.2037 0.9790 -0.0084
vn 0.1700 0.9845 -0.0438
vn 0.1198 0.9912 0.0560
vn 0.1115 0.9936 0.0152
vn 0.1031 0.9892 0.1046
vn 0.0777 0.9866 0.1432
vn 0.0455 0.9847 0.1684
vn 0.0069 0.9842 0.1770
vn -0.0322 0.9850 0.1696
vn -0.0678 0.9866 0.1481
vn -0.0989 0.9887 0.1130
vn -0.1203 0.9906 0.0659
vn -0.1226 0.9914 -0.0459
vn -0.1143 0.9934 0.0101
vn -0.1054 0.9902 -0.0918
vn -0.0837 0.9882 -0.1280
vn -0.0591 0.9860 -0.1560
vn -0.0299 0.9840 -0.1756
vn 0.0075 0.9831 -0.1829
vn 0.0475 0.9836 -0.1741
vn 0.0816 0.9856 -0.1478
vn 0.1076 0.9884 -0.1074
vn 0.1669 0.9859 -0.0125
vn 0.1235 0.9907 -0.0572
vn 0.0632 0.9960 0.0635
vn 0.0496 0.9986 0.0166
vn 0.0548 0.9913 0.1196
vn 0.0417 0.9856 0.1641
vn 0.0256 0.9807 0.1937
vn 0.0057 0.9786 0.2057
vn -0.0171 0.9797 0.1997
vn -0.0365 0.9836 0.1767
vn -0.0531 0.9892 0.1363
vn -0.0641 0.9946 0.0813
vn -0.0661 0.9966 -0.0488
vn -0.0515 0.9985 0.0169
vn -0.0583 0.9926 -0.1064
vn -0.0466 0.9871 -0.1530
vn -0.0321 0.9818 -0.1872
vn -0.0155 0.9780 -0.2079
vn 0.0063 0.9769 -0.2135
vn 0.0268 0.9792 -0.2011
vn 0.0439 0.9844 -0.1702
vn 0.0573 0.9907 -0.1235
vn 0.1145 0.9933 -0.0155
vn 0.0653 0.9957 -0.0653
vn 0.0166 0.9986 0.0496
vn -0.0000 1.0000 -0.0000
vn 0.0149 0.9937 0.1107
vn 0.0119 0.9869 0.1607
vn 0.0080 0.9806 0.1959
vn 0.0026 0.9769 0.2135
vn -0.0061 0.9781 0.2080
vn -0.0110 0.9837 0.1794
vn -0.0148 0.9911 0.1323
vn -0.0170 0.9973 0.0713
vn -0.0173 0.9993 -0.0317
vn -0.0000 0.9998 0.0202
vn -0.0159 0.9952 -0.0964
vn -0.0132 0.9884 -0.1513
vn -0.0097 0.9812 -0.1927
vn -0.0055 0.9759 -0.2182
vn 0.0029 0.9749 -0.2226
vn 0.0084 0.9789 -0.2041
vn 0.0126 0.9859 -0.1671
vn 0.0155 0.9933 -0.1146
vn 0.0512 0.9985 -0.0171
vn 0.0171 0.9985 -0.0512
vn -0.0000 -0.0000 1.0000
vn 1.0000 -0.0000 -0.0000
vn -0.0000 -0.0000 -1.0000
vn -1.0000 -0.0000 -0.0000
vn -0.5962 -0.2920 -0.7479
vn -0.5899 -0.3016 -0.7490
vn -0.5450 -0.3542 -0.7600
vn -0.4146 -0.4646 -0.7825
vn -0.1305 -0.6154 -0.7773
vn 0.2132 -0.6940 -0.6877
vn 0.3885 -0.6911 -0.6094
vn 0.3938 -0.6904 -0.6069
vn 0.2983 -0.7045 -0.6439
vn 0.1538 -0.7186 -0.6782
vn 0.0004 -0.7235 -0.6903
vn -0.1257 -0.7208 -0.6817
vn -0.1788 -0.7186 -0.6720
vn -0.1042 -0.7175 -0.6887
vn 0.1214 -0.6785 -0.7245
vn 0.3846 -0.5679 -0.7277
vn 0.5467 -0.4518 -0.7050
vn 0.6143 -0.3822 -0.6904
vn 0.6307 -0.3600 -0.6875
vn 0.6189 -0.3796 -0.6876
vn 0.5858 -0.4427 -0.6789
vn 0.4721 -0.6398 -0.6065
vn 0.3431 -0.8039 -0.4858
vn 0.2005 -0.9263 -0.3191
vn 0.0945 -0.9804 -0.1729
vn 0.0374 -0.9960 -0.0809
vn 0.0127 -0.9993 -0.0338
vn 0.0036 -0.9999 -0.0127
vn 0.0009 -1.0000 -0.0043
vn 0.0001 -1.0000 -0.0013
vn -0.0000 -1.0000 -0.0004
vn -0.0000 -1.0000 -0.0001
vn -0.0000 -1.0000 -0.0000
vn -0.0000 -1.0000 -0.0003
vn 0.0001 -1.0000 -0.0011
vn -0.0000 -1.0000 -0.0036
vn -0.0011 -0.9999 -0.0108
vn -0.0055 -0.9995 -0.0296
vn -0.0201 -0.9971 -0.0733
vn -0.0585 -0.9850 -0.1624
vn -0.1386 -0.9396 -0.3131
vn -0.2608 -0.8260 -0.4997
vn -0.3856 -0.6578 -0.6470
vn -0.4764 -0.5051 -0.7196
vn -0.5314 -0.4072 -0.7429
vn -0.1521 0.8770 -0.4557
vn 0.0329 0.9995 -0.0000
s 1
f 2//1 23//2 1//3
f 3//4 24//5 2//1
f 4//6 25//7 3//4
f 5//8 26//9 4//6
f 6//10 27//11 5//8
f 6//10 29//12 28//13
f 7//14 30//15 29//12
f 8//16 31//17 30//15
f 9//18 32//19 31//17
f 10//20 33//21 32//19
f 11//22 34//23 33//21
f 12//24 35//25 34//23
f 13//26 36//27 35//25
f 14//28 37//29 36//27
f 15//30 38//31 37//29
f 16//32 39//33 38//31
f 18//34 39//33 17//35
f 19//36 40//37 18//34
f 20//38 41//39 19//36
f 21//40 42//41 20//38
f 22//42 43//43 21//40
f 24//5 45//44 23//2
f 25//7 46//45 24//5
f 26//9 47//46 25//7
f 27//11 48//47 26//9
f 28//13 49//48 27//11
f 28//13 51//49 50//50
f 29//12 52//51 51//49
f 30//15 53//52 52//51
f 31//17 54//53 53//52
f 32//19 55//54 54//53
f 33//21 56//55 55//54
f 34//23 57//56 56//55
f 35//25 58//57 57//56
f 36//27 59//58 58//57
f 37//29 60//59 59//58
f 38//31 61//60 60//59
f 40//37 61//60 39//33
f 41//39 62//61 40//37
f 42//41 63//62 41//39
f 43//43 64//63 42//41
f 44//64 65//65 43//43
f 46//45 67//66 45//44
f 47//46 68//67 46//45
f 48//47 69//68 47//46
f 49//48 70//69 48//47
f 50//50 71//70 49//48
f 50//50 73//71 72//72
f 51//49 74//73 73//71
f 52//51 75//74 74//73
f 53//52 76//75 75//74
f 54//53 77//76 76//75
f 55//54 78//77 77//76
f 57//56 78//77 56//55
f 58//57 79//78 57//56
f 59//58 80//79 58//57
f 60//59 81//80 59//58
f 61//60 82//81 60//59
f 61//60 84//82 83//83
f 62//61 85//84 84//82
f 63//62 86//85 85//84
f 64//63 87//86 86//85
f 66//87 87//86 65//65
f 67//66 90//88 89//89
f 68//67 91//90 90//88
f 69//68 92//91 91//90
f 70//69 93//92 92//91
f 71//70 94//93 93//92
f 73//71 94//93 72//72
f 74//73 95//94 73//71
f 75//74 96//95 74//73
f 76//75 97//96 75//74
f 77//76 98//97 76//75
f 78//77 99//98 77//76
f 79//78 100//99 78//77
f 80//79 101//100 79//78
f 81//80 102//101 80//79
f 82//81 103//102 81//80
f 83//83 104//103 82//81
f 83//83 106//104 105//105
f 84//82 107//106 106//104
f 85//84 108//107 107//106
f 86//85 109//108 108//107
f 87//86 110//109 109//108
f 89//89 112//110 111//111
f 90//88 113//112 112//110
f 91//90 114//113 113//112
f 92//91 115//114 114//113
f 93//92 116//115 115//114
f 95//94 116//115 94//93
f 96//95 117//116 95//94
f 97//96 118//117 96//95
f 98//97 119//118 97//96
f 99//98 120//119 98//97
f 100//99 121//120 99//98
f 101//100 122//121 100//99
f 102//101 123//122 101//100
f 103//102 124//123 102//101
f 104//103 125//124 103//102
f 105//105 126//125 104//103
f 105//105 128//126 127//127
f 106//104 129//128 128//126
f 107//106 130//129 129//128
f 108//107 131//130 130//129
f 109//108 132//131 131//130
f 111//111 134//132 133//133
f 112//110 135//134 134//132
f 113//112 136//135 135//134
f 114//113 137//136 136//135
f 115//114 138//137 137//136
f 117//116 138//137 116//115
f 118//117 139//138 117//116
f 119//118 140//139 118//117
f 120//119 141//140 119//118
f 121//120 142//141 120//119
f 122//121 143//142 121//120
f 123//122 144//143 122//121
f 124//123 145//144 123//122
f 125//124 146//145 124//123
f 126//125 147//146 125//124
f 127//127 148//147 126//125
f 127//127 150//148 149//149
f 128//126 151//150 150//148
f 129//128 152//151 151//150
f 130//129 153//152 152//151
f 131//130 154//153 153//152
f 133//133 156//154 155//155
f 134//132 157//156 156//154
f 135//134 158//157 157//156
f 136//135 159//158 158//157
f 137//136 160//159 159//158
f 139//138 160//159 138//137
f 140//139 161//160 139//138
f 141//140 162//161 140//139
f 142//141 163//162 141//140
f 143//142 164//163 142//141
f 144//143 165//164 143//142
f 144//143 167//165 166//166
f 145//144 168//167 167//165
f 146//145 169//168 168//167
f 147//146 170//169 169//168
f 148//147 171//170 170//169
f 150//148 171//170 149//149
f 151//150 172//171 150//148
f 152//151 173//172 151//150
f 153//152 174//173 152//151
f 153//152 176//174 175//175
f 155//155 178//176 177//177
f 156//154 179//178 178//176
f 157//156 180//179 179//178
f 158//157 181//180 180//179
f 159//158 182//181 181//180
f 161//160 182//181 160//159
f 162//161 183//182 161//160
f 163//162 184//183 162//161
f 164//163 185//184 163//162
f 165//164 186//185 164//163
f 165//164 188//186 187//187
f 166//166 189//188 188//186
f 167//165 190//189 189//188
f 168//167 191//190 190//189
f 169//168 192//191 191//190
f 170//169 193//192 192//191
f 172//171 193//192 171//170
f 173//172 194//193 172//171
f 174//173 195//194 173//172
f 175//175 196//195 174//173
f 176//174 197//196 175//175
f 177//177 200//197 199//198
f 178//176 201//199 200//197
f 179//178 202//200 201//199
f 180//179 203//201 202//200
f 181//180 204//202 203//201
f 183//182 204//202 182//181
f 184//183 205//203 183//182
f 185//184 206//204 184//183
f 186//185 207//205 185//184
f 187//187 208//206 186//185
f 187//187 210//207 209//208
f 188//186 211//209 210//207
f 189//188 212//210 211//209
f 190//189 213//211 212//210
f 191//190 214//212 213//211
f 192//191 215//213 214//212
f 194//193 215//213 193//192
f 195//194 216//214 194//193
f 196//195 217//215 195//194
f 197//196 218//216 196//195
f 198//217 219//218 197//196
f 199//198 222//219 221//220
f 200//197 223//221 222//219
f 201//199 224//222 223//221
f 202//200 225//223 224//222
f 203//201 226//224 225//223
f 204//202 227//225 226//224
f 205//203 228//226 227//225
f 207//205 228//226 206//204
f 208//206 229//227 207//205
f 209//208 230//228 208//206
f 209//208 232//229 231//230
f 210//207 233//231 232//229
f 211//209 234//232 233//231
f 212//210 235//233 234//232
f 213//211 236//234 235//233
f 214//212 237//235 236//234
f 216//214 237//235 215//213
f 217//215 238//236 216//214
f 218//216 239//237 217//215
f 219//218 240//238 218//216
f 220//239 241//240 219//218
f 222//219 243//241 221//220
f 223//221 244//242 222//219
f 224//222 245//243 223//221
f 225//223 246//244 224//222
f 225//223 248//245 247//246
f 226//224 249//247 248//245
f 227//225 250//248 249//247
f 228//226 251//249 250//248
f 229//227 252//250 251//249
f 231//230 252//250 230//228
f 231//230 254//251 253//252
f 232//229 255//253 254//251
f 233//231 256//254 255//253
f 234//232 257//255 256//254
f 235//233 258//256 257//255
f 236//234 259//257 258//256
f 237//235 260//258 259//257
f 239//237 260//258 238//236
f 240//238 261//259 239//237
f 241//240 262//260 240//238
f 242//261 263//262 241//240
f 244//242 265//263 243//241
f 245//243 266//264 244//242
f 246//244 267//265 245//243
f 247//246 268//266 246//244
f 248//245 269//267 247//246
f 248//245 271//268 270//269
f 249//247 272//270 271//268
f 250//248 273//271 272//270
f 251//249 274//272 273//271
f 252//250 275//273 274//272
f 254//251 275//273 253//252
f 255//253 276//274 254//251
f 256//254 277//275 255//253
f 257//255 278//276 256//254
f 258//256 279//277 257//255
f 258//256 281//278 280//279
f 259//257 282//280 281//278
f 260//258 283//281 282//280
f 261//259 284//282 283//281
f 262//260 285//283 284//282
f 263//262 286//284 285//283
f 266//264 287//285 265//263
f 267//265 288//286 266//264
f 268//266 289//287 267//265
f 269//267 290//288 268//266
f 270//269 291//289 269//267
f 270//269 293//290 292//291
f 271//268 294//292 293//290
f 272//270 295//293 294//292
f 273//271 296//294 295//293
f 274//272 297//295 296//294
f 276//274 297//295 275//273
f 277//275 298//296 276//274
f 278//276 299//297 277//275
f 279//277 300//298 278//276
f 280//279 301//299 279//277
f 280//279 303//300 302//301
f 281//278 304//302 303//300
f 282//280 305//303 304//302
f 283//281 306//304 305//303
f 284//282 307//305 306//304
f 285//283 308//306 307//305
f 288//286 309//307 287//285
f 289//287 310//308 288//286
f 290//288 311//309 289//287
f 291//289 312//310 290//288
f 292//291 313//311 291//289
f 292//291 315//312 314//313
f 293//290 316//314 315//312
f 294//292 317//315 316//314
f 295//293 318//316 317//315
f 296//294 319//317 318//316
f 298//296 319//317 297//295
f 299//297 320//318 298//296
f 300//298 321//319 299//297
f 301//299 322//320 300//298
f 302//301 323//321 301//299
f 303//300 324//322 302//301
f 303//300 326//323 325//324
f 304//302 327//325 326//323
f 305//303 328//326 327//325
f 306//304 329//327 328//326
f 307//305 330//328 329//327
f 310//308 331//329 309//307
f 311//309 332//330 310//308
f 312//310 333//331 311//309
f 313//311 334//332 312//310
f 314//313 335//333 313//311
f 314//313 337//334 336//335
f 315//312 338//336 337//334
f 316//314 339//337 338//336
f 317//315 340//338 339//337
f 318//316 341//339 340//338
f 319//317 342//340 341//339
f 321//319 342//340 320//318
f 322//320 343//341 321//319
f 323//321 344//342 322//320
f 324//322 345//343 323//321
f 325//324 346//344 324//322
f 325//324 348//345 347//346
f 326//323 349//347 348//345
f 327//325 350//348 349//347
f 328//326 351//349 350//348
f 329//327 352//350 351//349
f 332//330 353//351 331//329
f 333//331 354//352 332//330
f 334//332 355//353 333//331
f 335//333 356//354 334//332
f 336//335 357//355 335//333
f 336//335 359//356 358//357
f 337//334 360//358 359//356
f 338//336 361//359 360//358
f 339//337 362//360 361//359
f 340//338 363//361 362//360
f 341//339 364//362 363//361
f 342//340 365//363 364//362
f 343//341 366//364 365//363
f 344//342 367//365 366//364
f 345//343 368//366 367//365
f 347//346 368//366 346//344
f 347//346 370//367 369//368
f 348//345 371//369 370//367
f 349//347 372//370 371//369
f 350//348 373//371 372//370
f 351//349 374//372 373//371
f 353//351 376//373 375//374
f 354//352 377//375 376//373
f 355//353 378//376 377//375
f 356//354 379//377 378//376
f 357//355 380//378 379//377
f 359//356 380//378 358//357
f 360//358 381//379 359//356
f 361//359 382//380 360//358
f 362//360 383//381 361//359
f 363//361 384//382 362//360
f 363//361 386//383 385//384
f 364//362 387//385 386//383
f 365//363 388//386 387//385
f 366//364 389//387 388//386
f 367//365 390//388 389//387
f 368//366 391//389 390//388
f 370//367 391//389 369//368
f 371//369 392//390 370//367
f 372//370 393//391 371//369
f 373//371 394//392 372//370
f 374//372 395//393 373//371
f 375//374 398//394 397//395
f 376//373 399//396 398//394
f 377//375 400//397 399//396
f 378//376 401//398 400//397
f 379//377 402//399 401//398
f 381//379 402//399 380//378
f 382//380 403//400 381//379
f 383//381 404//401 382//380
f 384//382 405//402 383//381
f 385//384 406//403 384//382
f 385//384 408//404 407//405
f 386//383 409//406 408//404
f 387//385 410//407 409//406
f 388//386 411//408 410//407
f 389//387 412//409 411//408
f 390//388 413//410 412//409
f 392//390 413//410 391//389
f 393//391 414//411 392//390
f 394//392 415//412 393//391
f 395//393 416//413 394//392
f 396//414 417//415 395//393
f 397//395 420//416 419//417
f 398//394 421//418 420//416
f 399//396 422//419 421//418
f 400//397 423//420 422//419
f 401//398 424//421 423//420
f 403//400 424//421 402//399
f 404//401 425//422 403//400
f 405//402 426//423 404//401
f 406//403 427//424 405//402
f 407//405 428//425 406//403
f 407//405 430//426 429//427
f 408//404 431//428 430//426
f 409//406 432//429 431//428
f 410//407 433//430 432//429
f 411//408 434//431 433//430
f 412//409 435//432 434//431
f 414//411 435//432 413//410
f 415//412 436//433 414//411
f 416//413 437//434 415//412
f 417//415 438//435 416//413
f 418//436 439//437 417//415
f 419//417 442//438 441//439
f 420//416 443//440 442//438
f 421//418 444//441 443//440
f 422//419 445//442 444//441
f 423//420 446//443 445//442
f 425//422 446//443 424//421
f 426//423 447//444 425//422
f 427//424 448//445 426//423
f 428//425 449//446 427//424
f 429//427 450//447 428//425
f 429//427 452//448 451//449
f 430//426 453//450 452//448
f 431//428 454//451 453//450
f 432//429 455//452 454//451
f 433//430 456//453 455//452
f 434//431 457//454 456//453
f 436//433 457//454 435//432
f 437//434 458//455 436//433
f 438//435 459//456 437//434
f 439//437 460//457 438//435
f 440//458 461//459 439//437
f 441//439 464//460 463//461
f 442//438 465//462 464//460
f 443//440 466//463 465//462
f 444//441 467//464 466//463
f 445//442 468//465 467//464
f 447//444 468//465 446//443
f 448//445 469//466 447//444
f 449//446 470//467 448//445
f 450//447 471//468 449//446
f 451//449 472//469 450//447
f 451//449 474//470 473//471
f 452//448 475//472 474//470
f 453//450 476//473 475//472
f 454//451 477//474 476//473
f 455//452 478//475 477//474
f 456//453 479//476 478//475
f 458//455 479//476 457//454
f 459//456 480//477 458//455
f 460//457 481//478 459//456
f 461//459 482//479 460//457
f 462//480 483//481 461//459
s 0
f 485//482 2//482 1//482
f 486//482 3//482 2//482
f 487//482 4//482 3//482
f 488//482 5//482 4//482
f 489//482 6//482 5//482
f 6//482 491//482 7//482
f 7//482 492//482 8//482
f 8//482 493//482 9//482
f 9//482 494//482 10//482
f 10//482 495//482 11//482
f 11//482 496//482 12//482
f 496//482 13//482 12//482
f 497//482 14//482 13//482
f 498//482 15//482 14//482
f 15//482 500//482 16//482
f 16//482 501//482 17//482
f 17//482 502//482 18//482
f 18//482 503//482 19//482
f 19//482 504//482 20//482
f 20//482 505//482 21//482
f 21//482 506//482 22//482
f 22//483 507//483 44//483
f 44//483 508//483 66//483
f 66//483 509//483 88//483
f 509//483 110//483 88//483
f 510//483 132//483 110//483
f 511//483 154//483 132//483
f 512//483 176//483 154//483
f 176//483 514//483 198//483
f 198//483 515//483 220//483
f 220//483 516//483 242//483
f 242//483 517//483 264//483
f 264//483 518//483 286//483
f 286//483 519//483 308//483
f 308//483 520//483 330//483
f 520//483 352//483 330//483
f 521//483 374//483 352//483
f 522//483 396//483 374//483
f 523//483 418//483 396//483
f 524//483 440//483 418//483
f 525//483 462//483 440//483
f 526//483 484//483 462//483
f 527//484 483//484 484//484
f 528//484 482//484 483//484
f 529//484 481//484 482//484
f 530//484 480//484 481//484
f 531//484 479//484 480//484
f 532//484 478//484 479//484
f 533//484 477//484 478//484
f 534//484 476//484 477//484
f 535//484 475//484 476//484
f 536//484 474//484 475//484
f 537//484 473//484 474//484
f 538//484 472//484 473//484
f 539//484 471//484 472//484
f 540//484 470//484 471//484
f 541//484 469//484 470//484
f 542//484 468//484 469//484
f 543//484 467//484 468//484
f 544//484 466//484 467//484
f 545//484 465//484 466//484
f 546//484 464//484 465//484
f 547//484 463//484 464//484
f 548//485 441//485 463//485
f 549//485 419//485 441//485
f 550//485 397//485 419//485
f 551//485 375//485 397//485
f 552//485 353//485 375//485
f 553//485 331//485 353//485
f 554//485 309//485 331//485
f 555//485 287//485 309//485
f 556//485 265//485 287//485
f 557//485 243//485 265//485
f 558//485 221//485 243//485
f 559//485 199//485 221//485
f 560//485 177//485 199//485
f 561//485 155//485 177//485
f 562//485 133//485 155//485
f 133//485 564//485 111//485
f 111//485 565//485 89//485
f 89//485 566//485 67//485
f 566//485 45//485 67//485
f 567//485 23//485 45//485
f 568//485 1//485 23//485
f 569//486 486//486 485//486
f 569//487 487//487 486//487
f 569//488 488//488 487//488
f 569//489 489//489 488//489
f 569//490 490//490 489//490
f 569//491 491//491 490//491
f 569//492 492//492 491//492
f 569//493 493//493 492//493
f 569//494 494//494 493//494
f 569//495 495//495 494//495
f 569//496 496//496 495//496
f 569//497 497//497 496//497
f 569//498 498//498 497//498
f 569//499 499//499 498//499
f 569//500 500//500 499//500
f 569//501 501//501 500//501
f 569//502 502//502 501//502
f 569//503 503//503 502//503
f 569//504 504//504 503//504
f 569//505 505//505 504//505
f 569//506 506//506 505//506
f 569//507 507//507 506//507
f 569//508 508//508 507//508
f 569//509 509//509 508//509
f 569//510 510//510 509//510
f 569//511 511//511 510//511
f 569//512 512//512 511//512
f 569//513 513//513 512//513
f 569//514 514//514 513//514
f 569//515 515//515 514//515
f 569//516 516//516 515//516
f 569//517 517//517 516//517
f 569//518 518//518 517//518
f 569//518 519//518 518//518
f 569//518 520//518 519//518
f 569//518 521//518 520//518
f 569//518 522//518 521//518
f 569//518 523//518 522//518
f 569//518 524//518 523//518
f 569//518 525//518 524//518
f 569//518 526//518 525//518
f 569//518 527//518 526//518
f 569//518 528//518 527//518
f 569//518 529//518 528//518
f 569//518 530//518 529//518
f 569//518 531//518 530//518
f 569//518 532//518 531//518
f 569//518 533//518 532//518
f 569//518 534//518 533//518
f 569//518 535//518 534//518
f 569//518 536//518 535//518
f 569//518 537//518 536//518
f 569//518 538//518 537//518
f 569//518 539//518 538//518
f 569//518 540//518 539//518
f 569//518 541//518 540//518
f 569//518 542//518 541//518
f 569//518 543//518 542//518
f 569//518 544//518 543//518
f 569//518 545//518 544//518
f 569//518 546//518 545//518
f 569//518 547//518 546//518
f 569//518 548//518 547//518
f 569//518 549//518 548//518
f 569//518 550//518 549//518
f 569//518 551//518 550//518
f 569//518 552//518 551//518
f 569//518 553//518 552//518
f 569//518 554//518 553//518
f 569//518 555//518 554//518
f 569//518 556//518 555//518
f 569//517 557//517 556//517
f 569//519 558//519 557//519
f 569//520 559//520 558//520
f 569//521 560//521 559//521
f 569//522 561//522 560//522
f 569//523 562//523 561//523
f 569//524 563//524 562//524
f 569//525 564//525 563//525
f 569//526 565//526 564//526
f 569//527 566//527 565//527
f 569//528 567//528 566//528
f 569//529 568//529 567//529
f 569//530 485//530 568//530
s 1
f 2//1 24//5 23//2
f 3//4 25//7 24//5
f 4//6 26//9 25//7
f 5//8 27//11 26//9
f 6//10 28//13 27//11
f 6//10 7//14 29//12
f 7//14 8//16 30//15
f 8//16 9//18 31//17
f 9//18 10//20 32//19
f 10//20 11//22 33//21
f 11//22 12//24 34//23
f 12//24 13//26 35//25
f 13//26 14//28 36//27
f 14//28 15//30 37//29
f 15//30 16//32 38//31
f 16//32 17//35 39//33
f 18//34 40//37 39//33
f 19//36 41//39 40//37
f 20//38 42//41 41//39
f 21//40 43//43 42//41
f 22//42 44//64 43//43
f 24//5 46//45 45//44
f 25//7 47//46 46//45
f 26//9 48//47 47//46
f 27//11 49//48 48//47
f 28//13 50//50 49//48
f 28//13 29//12 51//49
f 29//12 30//15 52//51
f 30//15 31//17 53//52
f 31//17 32//19 54//53
f 32//19 33//21 55//54
f 33//21 34//23 56//55
f 34//23 35//25 57//56
f 35//25 36//27 58//57
f 36//27 37//29 59//58
f 37//29 38//31 60//59
f 38//31 39//33 61//60
f 40//37 62//61 61//60
f 41//39 63//62 62//61
f 42//41 64//63 63//62
f 43//43 65//65 64//63
f 44//64 66//87 65//65
f 46//45 68//67 67//66
f 47//46 69//68 68//67
f 48//47 70//69 69//68
f 49//48 71//70 70//69
f 50//50 72//72 71//70
f 50//50 51//49 73//71
f 51//49 52//51 74//73
f 52//51 53//52 75//74
f 53//52 54//53 76//75
f 54//53 55//54 77//76
f 55//54 56//55 78//77
f 57//56 79//78 78//77
f 58//57 80//79 79//78
f 59//58 81//80 80//79
f 60//59 82//81 81//80
f 61//60 83//83 82//81
f 61//60 62//61 84//82
f 62//61 63//62 85//84
f 63//62 64//63 86//85
f 64//63 65//65 87//86
f 66//87 88//531 87//86
f 67//66 68//67 90//88
f 68//67 69//68 91//90
f 69//68 70//69 92//91
f 70//69 71//70 93//92
f 71//70 72//72 94//93
f 73//71 95//94 94//93
f 74//73 96//95 95//94
f 75//74 97//96 96//95
f 76//75 98//97 97//96
f 77//76 99//98 98//97
f 78//77 100//99 99//98
f 79//78 101//100 100//99
f 80//79 102//101 101//100
f 81//80 103//102 102//101
f 82//81 104//103 103//102
f 83//83 105//105 104//103
f 83//83 84//82 106//104
f 84//82 85//84 107//106
f 85//84 86//85 108//107
f 86//85 87//86 109//108
f 87//86 88//531 110//109
f 89//89 90//88 112//110
f 90//88 91//90 113//112
f 91//90 92//91 114//113
f 92//91 93//92 115//114
f 93//92 94//93 116//115
f 95//94 117//116 116//115
f 96//95 118//117 117//116
f 97//96 119//118 118//117
f 98//97 120//119 119//118
f 99//98 121//120 120//119
f 100//99 122//121 121//120
f 101//100 123//122 122//121
f 102//101 124//123 123//122
f 103//102 125//124 124//123
f 104//103 126//125 125//124
f 105//105 127//127 126//125
f 105//105 106//104 128//126
f 106//104 107//106 129//128
f 107//106 108//107 130//129
f 108//107 109//108 131//130
f 109//108 110//109 132//131
f 111//111 112//110 134//132
f 112//110 113//112 135//134
f 113//112 114//113 136//135
f 114//113 115//114 137//136
f 115//114 116//115 138//137
f 117//116 139//138 138//137
f 118//117 140//139 139//138
f 119//118 141//140 140//139
f 120//119 142//141 141//140
f 121//120 143//142 142//141
f 122//121 144//143 143//142
f 123//122 145//144 144//143
f 124//123 146//145 145//144
f 125//124 147//146 146//145
f 126//125 148//147 147//146
f 127//127 149//149 148//147
f 127//127 128//126 150//148
f 128//126 129//128 151//150
f 129//128 130//129 152//151
f 130//129 131//130 153//152
f 131//130 132//131 154//153
f 133//133 134//132 156//154
f 134//132 135//134 157//156
f 135//134 136//135 158//157
f 136//135 137//136 159//158
f 137//136 138//137 160//159
f 139//138 161//160 160//159
f 140//139 162//161 161//160
f 141//140 163//162 162//161
f 142//141 164//163 163//162
f 143//142 165//164 164//163
f 144//143 166//166 165//164
f 144//143 145//144 167//165
f 145//144 146//145 168//167
f 146//145 147//146 169//168
f 147//146 148//147 170//169
f 148//147 149//149 171//170
f 150//148 172//171 171//170
f 151//150 173//172 172//171
f 152//151 174//173 173//172
f 153//152 175//175 174//173
f 153//152 154//153 176//174
f 155//155 156//154 178//176
f 156//154 157//156 179//178
f 157//156 158//157 180//179
f 158//157 159//158 181//180
f 159//158 160//159 182//181
f 161//160 183//182 182//181
f 162//161 184//183 183//182
f 163//162 185//184 184//183
f 164//163 186//185 185//184
f 165//164 187//187 186//185
f 165//164 166//166 188//186
f 166//166 167//165 189//188
f 167//165 168//167 190//189
f 168//167 169//168 191//190
f 169//168 170//169 192//191
f 170//169 171//170 193//192
f 172//171 194//193 193//192
f 173//172 195//194 194//193
f 174//173 196//195 195//194
f 175//175 197//196 196//195
f 176//174 198//217 197//196
f 177//177 178//176 200//197
f 178//176 179//178 201//199
f 179//178 180//179 202//200
f 180//179 181//180 203//201
f 181//180 182//181 204//202
f 183//182 205//203 204//202
f 184//183 206//204 205//203
f 185//184 207//205 206//204
f 186//185 208//206 207//205
f 187//187 209//208 208//206
f 187//187 188//186 210//207
f 188//186 189//188 211//209
f 189//188 190//189 212//210
f 190//189 191//190 213//211
f 191//190 192//191 214//212
f 192//191 193//192 215//213
f 194//193 216//214 215//213
f 195//194 217//215 216//214
f 196//195 218//216 217//215
f 197//196 219//218 218//216
f 198//217 220//239 219//218
f 199//198 200//197 222//219
f 200//197 201//199 223//221
f 201//199 202//200 224//222
f 202//200 203//201 225//223
f 203//201 204//202 226//224
f 204//202 205//203 227//225
f 205//203 206//204 228//226
f 207//205 229//227 228//226
f 208//206 230//228 229//227
f 209//208 231//230 230//228
f 209//208 210//207 232//229
f 210//207 211//209 233//231
f 211//209 212//210 234//232
f 212//210 213//211 235//233
f 213//211 214//212 236//234
f 214//212 215//213 237//235
f 216//214 238//236 237//235
f 217//215 239//237 238//236
f 218//216 240//238 239//237
f 219//218 241//240 240//238
f 220//239 242//261 241//240
f 222//219 244//242 243//241
f 223//221 245//243 244//242
f 224//222 246//244 245//243
f 225//223 247//246 246//244
f 225//223 226//224 248//245
f 226//224 227//225 249//247
f 227//225 228//226 250//248
f 228//226 229//227 251//249
f 229//227 230//228 252//250
f 231//230 253//252 252//250
f 231//230 232//229 254//251
f 232//229 233//231 255//253
f 233//231 234//232 256//254
f 234//232 235//233 257//255
f 235//233 236//234 258//256
f 236//234 237//235 259//257
f 237//235 238//236 260//258
f 239//237 261//259 260//258
f 240//238 262//260 261//259
f 241//240 263//262 262//260
f 242//261 264//532 263//262
f 244//242 266//264 265//263
f 245//243 267//265 266//264
f 246//244 268//266 267//265
f 247//246 269//267 268//266
f 248//245 270//269 269//267
f 248//245 249//247 271//268
f 249//247 250//248 272//270
f 250//248 251//249 273//271
f 251//249 252//250 274//272
f 252//250 253//252 275//273
f 254//251 276//274 275//273
f 255//253 277//275 276//274
f 256//254 278//276 277//275
f 257//255 279//277 278//276
f 258//256 280//279 279//277
f 258//256 259//257 281//278
f 259//257 260//258 282//280
f 260//258 261//259 283//281
f 261//259 262//260 284//282
f 262//260 263//262 285//283
f 263//262 264//532 286//284
f 266//264 288//286 287//285
f 267//265 289//287 288//286
f 268//266 290//288 289//287
f 269//267 291//289 290//288
f 270//269 292//291 291//289
f 270//269 271//268 293//290
f 271//268 272//270 294//292
f 272//270 273//271 295//293
f 273//271 274//272 296//294
f 274//272 275//273 297//295
f 276//274 298//296 297//295
f 277//275 299//297 298//296
f 278//276 300//298 299//297
f 279//277 301//299 300//298
f 280//279 302//301 301//299
f 280//279 281//278 303//300
f 281//278 282//280 304//302
f 282//280 283//281 305//303
f 283//281 284//282 306//304
f 284//282 285//283 307//305
f 285//283 286//284 308//306
f 288//286 310//308 309//307
f 289//287 311//309 310//308
f 290//288 312//310 311//309
f 291//289 313//311 312//310
f 292//291 314//313 313//311
f 292//291 293//290 315//312
f 293//290 294//292 316//314
f 294//292 295//293 317//315
f 295//293 296//294 318//316
f 296//294 297//295 319//317
f 298//296 320//318 319//317
f 299//297 321//319 320//318
f 300//298 322//320 321//319
f 301//299 323//321 322//320
f 302//301 324//322 323//321
f 303//300 325//324 324//322
f 303//300 304//302 326//323
f 304//302 305//303 327//325
f 305//303 306//304 328//326
f 306//304 307//305 329//327
f 307//305 308//306 330//328
f 310//308 332//330 331//329
f 311//309 333//331 332//330
f 312//310 334//332 333//331
f 313//311 335//333 334//332
f 314//313 336//335 335//333
f 314//313 315//312 337//334
f 315//312 316//314 338//336
f 316//314 317//315 339//337
f 317//315 318//316 340//338
f 318//316 319//317 341//339
f 319//317 320//318 342//340
f 321//319 343//341 342//340
f 322//320 344//342 343//341
f 323//321 345//343 344//342
f 324//322 346//344 345//343
f 325//324 347//346 346//344
f 325//324 326//323 348//345
f 326//323 327//325 349//347
f 327//325 328//326 350//348
f 328//326 329//327 351//349
f 329//327 330//328 352//350
f 332//330 354//352 353//351
f 333//331 355//353 354//352
f 334//332 356//354 355//353
f 335//333 357//355 356//354
f 336//335 358//357 357//355
f 336//335 337//334 359//356
f 337//334 338//336 360//358
f 338//336 339//337 361//359
f 339//337 340//338 362//360
f 340//338 341//339 363//361
f 341//339 342//340 364//362
f 342//340 343//341 365//363
f 343//341 344//342 366//364
f 344//342 345//343 367//365
f 345//343 346//344 368//366
f 347//346 369//368 368//366
f 347//346 348//345 370//367
f 348//345 349//347 371//369
f 349//347 350//348 372//370
f 350//348 351//349 373//371
f 351//349 352//350 374//372
f 353//351 354//352 376//373
f 354//352 355//353 377//375
f 355//353 356//354 378//376
f 356//354 357//355 379//377
f 357//355 358//357 380//378
f 359//356 381//379 380//378
f 360//358 382//380 381//379
f 361//359 383//381 382//380
f 362//360 384//382 383//381
f 363//361 385//384 384//382
f 363//361 364//362 386//383
f 364//362 365//363 387//385
f 365//363 366//364 388//386
f 366//364 367//365 389//387
f 367//365 368//366 390//388
f 368//366 369//368 391//389
f 370//367 392//390 391//389
f 371//369 393//391 392//390
f 372//370 394//392 393//391
f 373//371 395//393 394//392
f 374//372 396//414 395//393
f 375//374 376//373 398//394
f 376//373 377//375 399//396
f 377//375 378//376 400//397
f 378//376 379//377 401//398
f 379//377 380//378 402//399
f 381//379 403//400 402//399
f 382//380 404//401 403//400
f 383//381 405//402 404//401
f 384//382 406//403 405//402
f 385//384 407//405 406//403
f 385//384 386//383 408//404
f 386//383 387//385 409//406
f 387//385 388//386 410//407
f 388//386 389//387 411//408
f 389//387 390//388 412//409
f 390//388 391//389 413//410
f 392//390 414//411 413//410
f 393//391 415//412 414//411
f 394//392 416//413 415//412
f 395//393 417//415 416//413
f 396//414 418//436 417//415
f 397//395 398//394 420//416
f 398//394 399//396 421//418
f 399//396 400//397 422//419
f 400//397 401//398 423//420
f 401//398 402//399 424//421
f 403//400 425//422 424//421
f 404//401 426//423 425//422
f 405//402 427//424 426//423
f 406//403 428//425 427//424
f 407//405 429//427 428//425
f 407//405 408//404 430//426
f 408//404 409//406 431//428
f 409//406 410//407 432//429
f 410//407 411//408 433//430
f 411//408 412//409 434//431
f 412//409 413//410 435//432
f 414//411 436//433 435//432
f 415//412 437//434 436//433
f 416//413 438//435 437//434
f 417//415 439//437 438//435
f 418//436 440//458 439//437
f 419//417 420//416 442//438
f 420//416 421//418 443//440
f 421//418 422//419 444//441
f 422//419 423//420 445//442
f 423//420 424//421 446//443
f 425//422 447//444 446//443
f 426//423 448//445 447//444
f 427//424 449//446 448//445
f 428//425 450//447 449//446
f 429//427 451//449 450//447
f 429//427 430//426 452//448
f 430//426 431//428 453//450
f 431//428 432//429 454//451
f 432//429 433//430 455//452
f 433//430 434//431 456//453
f 434//431 435//432 457//454
f 436//433 458//455 457//454
f 437//434 459//456 458//455
f 438//435 460//457 459//456
f 439//437 461//459 460//457
f 440//458 462//480 461//459
f 441//439 442//438 464//460
f 442//438 443//440 465//462
f 443//440 444//441 466//463
f 444//441 445//442 467//464
f 445//442 446//443 468//465
f 447//444 469//466 468//465
f 448//445 470//467 469//466
f 449//446 471//468 470//467
f 450//447 472//469 471//468
f 451//449 473//471 472//469
f 451//449 452//448 474//470
f 452//448 453//450 475//472
f 453//450 454//451 476//473
f 454//451 455//452 477//474
f 455//452 456//453 478//475
f 456//453 457//454 479//476
f 458//455 480//477 479//476
f 459//456 481//478 480//477
f 460//457 482//479 481//478
f 461//459 483//481 482//479
f 462//480 484//461 483//481
s 0
f 485//482 486//482 2//482
f 486//482 487//482 3//482
f 487//482 488//482 4//482
f 488//482 489//482 5//482
f 489//482 490//482 6//482
f 6//482 490//482 491//482
f 7//482 491//482 492//482
f 8//482 492//482 493//482
f 9//482 493//482 494//482
f 10//482 494//482 495//482
f 11//482 495//482 496//482
f 496//482 497//482 13//482
f 497//482 498//482 14//482
f 498//482 499//482 15//482
f 15//482 499//482 500//482
f 16//482 500//482 501//482
f 17//482 501//482 502//482
f 18//482 502//482 503//482
f 19//482 503//482 504//482
f 20//482 504//482 505//482
f 21//482 505//482 506//482
f 22//483 506//483 507//483
f 44//483 507//483 508//483
f 66//483 508//483 509//483
f 509//483 510//483 110//483
f 510//483 511//483 132//483
f 511//483 512//483 154//483
f 512//483 513//483 176//483
f 176//483 513//483 514//483
f 198//483 514//483 515//483
f 220//483 515//483 516//483
f 242//483 516//483 517//483
f 264//483 517//483 518//483
f 286//483 518//483 519//483
f 308//483 519//483 520//483
f 520//483 521//483 352//483
f 521//483 522//483 374//483
f 522//483 523//483 396//483
f 523//483 524//483 418//483
f 524//483 525//483 440//483
f 525//483 526//483 462//483
f 526//483 527//483 484//483
f 527//484 528//484 483//484
f 528//484 529//484 482//484
f 529//484 530//484 481//484
f 530//484 531//484 480//484
f 531//484 532//484 479//484
f 532//484 533//484 478//484
f 533//484 534//484 477//484
f 534//484 535//484 476//484
f 535//484 536//484 475//484
f 536//484 537//484 474//484
f 537//484 538//484 473//484
f 538//484 539//484 472//484
f 539//484 540//484 471//484
f 540//484 541//484 470//484
f 541//484 542//484 469//484
f 542//484 543//484 468//484
f 543//484 544//484 467//484
f 544//484 545//484 466//484
f 545//484 546//484 465//484
f 546//484 547//484 464//484
f 547//484 548//484 463//484
f 548//485 549//485 441//485
f 549//485 550//485 419//485
f 550//485 551//485 397//485
f 551//485 552//485 375//485
f 552//485 553//485 353//485
f 553//485 554//485 331//485
f 554//485 555//485 309//485
f 555//485 556//485 287//485
f 556//485 557//485 265//485
f 557//485 558//485 243//485
f 558//485 559//485 221//485
f 559//485 560//485 199//485
f 560//485 561//485 177//485
f 561//485 562//485 155//485
f 562//485 563//485 133//485
f 133//485 563//485 564//485
f 111//485 564//485 565//485
f 89//485 565//485 566//485
f 566//485 567//485 45//485
f 567//485 568//485 23//485
f 568//485 485//485 1//485
