# Blender 5.2.0 LTS
# www.blender.org
o Honey_Tile_Interior
v -1.600000 1.000000 1.600000
v -1.447619 1.000000 1.600000
v -1.295238 1.000000 1.600000
v -1.142857 1.000000 1.600000
v -0.990476 1.000000 1.600000
v -0.838095 1.000000 1.600000
v -0.685714 1.000000 1.600000
v -0.533333 1.000000 1.600000
v -0.380952 1.000000 1.600000
v -0.228571 1.000000 1.600000
v -0.076190 1.000000 1.600000
v 0.076190 1.000000 1.600000
v 0.228571 1.000000 1.600000
v 0.380952 1.000000 1.600000
v 0.533333 1.000000 1.600000
v 0.685714 1.000000 1.600000
v 0.838095 1.000000 1.600000
v 0.990476 1.000000 1.600000
v 1.142857 1.000000 1.600000
v 1.295238 1.000000 1.600000
v 1.447619 1.000000 1.600000
v 1.600000 1.000000 1.600000
v -1.600000 1.000000 1.447619
v -1.447619 1.010375 1.447619
v -1.295238 1.019895 1.447619
v -1.142857 1.027661 1.447619
v -0.990476 1.032932 1.447619
v -0.838095 1.035247 1.447619
v -0.685714 1.034371 1.447619
v -0.533333 1.030344 1.447619
v -0.380952 1.023398 1.447619
v -0.228571 1.014204 1.447619
v -0.076190 1.003770 1.447619
v 0.076190 0.993276 1.447619
v 0.228571 0.983877 1.447619
v 0.380952 0.976062 1.447619
v 0.533333 0.970156 1.447619
v 0.685714 0.966457 1.447619
v 0.838095 0.965479 1.447619
v 0.990476 0.967569 1.447619
v 1.142857 0.972692 1.447619
v 1.295238 0.980384 1.447619
v 1.447619 0.989788 1.447619
v 1.600000 1.000000 1.447619
v -1.600000 1.000000 1.295238
v -1.447619 1.019951 1.295238
v -1.295238 1.038206 1.295238
v -1.142857 1.053091 1.295238
v -0.990476 1.063165 1.295238
v -0.838095 1.067411 1.295238
v -0.685714 1.065534 1.295238
v -0.533333 1.057880 1.295238
v -0.380952 1.044746 1.295238
v -0.228571 1.027234 1.295238
v -0.076190 1.007300 1.295238
v 0.076190 0.987308 1.295238
v 0.228571 0.969743 1.295238
v 0.380952 0.955297 1.295238
v 0.533333 0.944290 1.295238
v 0.685714 0.937205 1.295238
v 0.838095 0.935210 1.295238
v 0.990476 0.939011 1.295238
v 1.142857 0.948576 1.295238
v 1.295238 0.963047 1.295238
v 1.447619 0.980766 1.295238
v 1.600000 1.000000 1.295238
v -1.600000 1.000000 1.142857
v -1.447619 1.027820 1.142857
v -1.295238 1.053243 1.142857
v -1.142857 1.073975 1.142857
v -0.990476 1.087971 1.142857
v -0.838095 1.093679 1.142857
v -0.685714 1.090839 1.142857
v -0.533333 1.080199 1.142857
v -0.380952 1.062028 1.142857
v -0.228571 1.037690 1.142857
v -0.076190 1.009968 1.142857
v 0.076190 0.982283 1.142857
v 0.228571 0.958358 1.142857
v 0.380952 0.938870 1.142857
v 0.533333 0.923926 1.142857
v 0.685714 0.914087 1.142857
v 0.838095 0.911177 1.142857
v 0.990476 0.916253 1.142857
v 1.142857 0.929318 1.142857
v 1.295238 0.949206 1.142857
v 1.447619 0.973573 1.142857
v 1.600000 1.000000 1.142857
v -1.600000 1.000000 0.990476
v -1.447619 1.033121 0.990476
v -1.295238 1.063370 0.990476
v -1.142857 1.088029 0.990476
v -0.990476 1.104645 0.990476
v -0.838095 1.111314 0.990476
v -0.685714 1.107790 0.990476
v -0.533333 1.095092 0.990476
v -0.380952 1.073585 0.990476
v -0.228571 1.044800 0.990476
v -0.076190 1.011944 0.990476
v 0.076190 0.978988 0.990476
v 0.228571 0.950394 0.990476
v 0.380952 0.927079 0.990476
v 0.533333 0.909266 0.990476
v 0.685714 0.897623 0.990476
v 0.838095 0.894217 0.990476
v 0.990476 0.900294 0.990476
v 1.142857 0.915856 0.990476
v 1.295238 0.939577 0.990476
v 1.447619 0.968602 0.990476
v 1.600000 1.000000 0.990476
v -1.600000 1.000000 0.838095
v -1.447619 1.035392 0.838095
v -1.295238 1.067619 0.838095
v -1.142857 1.093838 0.838095
v -0.990476 1.111437 0.838095
v -0.838095 1.118247 0.838095
v -0.685714 1.114176 0.838095
v -0.533333 1.100608 0.838095
v -0.380952 1.078259 0.838095
v -0.228571 1.048486 0.838095
v -0.076190 1.014126 0.838095
v 0.076190 0.978767 0.838095
v 0.228571 0.946982 0.838095
v 0.380952 0.920611 0.838095
v 0.533333 0.900773 0.838095
v 0.685714 0.888432 0.838095
v 0.838095 0.885181 0.838095
v 0.990476 0.892104 0.838095
v 1.142857 0.909074 0.838095
v 1.295238 0.934860 0.838095
v 1.447619 0.966265 0.838095
v 1.600000 1.000000 0.838095
v -1.600000 1.000000 0.685714
v -1.447619 1.034425 0.685714
v -1.295238 1.065600 0.685714
v -1.142857 1.090873 0.685714
v -0.990476 1.107746 0.685714
v -0.838095 1.113952 0.685714
v -0.685714 1.109639 0.685714
v -0.533333 1.096560 0.685714
v -0.380952 1.075802 0.685714
v -0.228571 1.048257 0.685714
v -0.076190 1.015868 0.685714
v 0.076190 0.981230 0.685714
v 0.228571 0.948547 0.685714
v 0.380952 0.920779 0.685714
v 0.533333 0.900205 0.685714
v 0.685714 0.888138 0.685714
v 0.838095 0.885364 0.685714
v 0.990476 0.892652 0.685714
v 1.142857 0.909717 0.685714
v 1.295238 0.935569 0.685714
v 1.447619 0.966818 0.685714
v 1.600000 1.000000 0.685714
v -1.600000 1.000000 0.533333
v -1.447619 1.030315 0.533333
v -1.295238 1.057533 0.533333
v -1.142857 1.079473 0.533333
v -0.990476 1.094049 0.533333
v -0.838095 1.099169 0.533333
v -0.685714 1.095204 0.533333
v -0.533333 1.084059 0.533333
v -0.380952 1.066784 0.533333
v -0.228571 1.043694 0.533333
v -0.076190 1.015911 0.533333
v 0.076190 0.985130 0.533333
v 0.228571 0.955052 0.533333
v 0.380952 0.928998 0.533333
v 0.533333 0.909690 0.533333
v 0.685714 0.898538 0.533333
v 0.838095 0.895941 0.533333
v 0.990476 0.902588 0.533333
v 1.142857 0.918189 0.533333
v 1.295238 0.941927 0.533333
v 1.447619 0.970333 0.533333
v 1.600000 1.000000 0.533333
v -1.600000 1.000000 0.380952
v -1.447619 1.023409 0.380952
v -1.295238 1.043818 0.380952
v -1.142857 1.059927 0.380952
v -0.990476 1.070875 0.380952
v -0.838095 1.075347 0.380952
v -0.685714 1.073422 0.380952
v -0.533333 1.066027 0.380952
v -0.380952 1.053411 0.380952
v -0.228571 1.035768 0.380952
v -0.076190 1.014100 0.380952
v 0.076190 0.989890 0.380952
v 0.228571 0.965941 0.380952
v 0.380952 0.944877 0.380952
v 0.533333 0.928926 0.380952
v 0.685714 0.919316 0.380952
v 0.838095 0.916629 0.380952
v 0.990476 0.921653 0.380952
v 1.142857 0.934231 0.380952
v 1.295238 0.953563 0.380952
v 1.447619 0.976480 0.380952
v 1.600000 1.000000 0.380952
v -1.600000 1.000000 0.228571
v -1.447619 1.014358 0.228571
v -1.295238 1.025768 0.228571
v -1.142857 1.034126 0.228571
v -0.990476 1.040436 0.228571
v -0.838095 1.044592 0.228571
v -0.685714 1.045967 0.228571
v -0.533333 1.043609 0.228571
v -0.380952 1.036528 0.228571
v -0.228571 1.025185 0.228571
v -0.076190 1.010913 0.228571
v 0.076190 0.995373 0.228571
v 0.228571 0.980012 0.228571
v 0.380952 0.966204 0.228571
v 0.533333 0.955221 0.228571
v 0.685714 0.947952 0.228571
v 0.838095 0.945301 0.228571
v 0.990476 0.948132 0.228571
v 1.142857 0.956455 0.228571
v 1.295238 0.969478 0.228571
v 1.447619 0.984734 0.228571
v 1.600000 1.000000 0.228571
v -1.600000 1.000000 0.076190
v -1.447619 1.004056 0.076190
v -1.295238 1.005497 0.076190
v -1.142857 1.005407 0.076190
v -0.990476 1.006492 0.076190
v -0.838095 1.009767 0.076190
v -0.685714 1.014051 0.076190
v -0.533333 1.016801 0.076190
v -0.380952 1.015927 0.076190
v -0.228571 1.012012 0.076190
v -0.076190 1.006512 0.076190
v 0.076190 1.001045 0.076190
v 0.228571 0.995679 0.076190
v 0.380952 0.990451 0.076190
v 0.533333 0.985574 0.076190
v 0.685714 0.981451 0.076190
v 0.838095 0.979138 0.076190
v 0.990476 0.979515 0.076190
v 1.142857 0.982785 0.076190
v 1.295238 0.988321 0.076190
v 1.447619 0.994497 0.076190
v 1.600000 1.000000 0.076190
v -1.600000 1.000000 -0.076190
v -1.447619 0.993530 -0.076190
v -1.295238 0.985399 -0.076190
v -1.142857 0.977534 -0.076190
v -0.990476 0.973342 -0.076190
v -0.838095 0.974362 -0.076190
v -0.685714 0.979584 -0.076190
v -0.533333 0.986310 -0.076190
v -0.380952 0.992146 -0.076190
v -0.228571 0.997121 -0.076190
v -0.076190 1.001872 -0.076190
v 0.076190 1.007069 -0.076190
v 0.228571 1.011832 -0.076190
v 0.380952 1.015316 -0.076190
v 0.533333 1.016973 -0.076190
v 0.685714 1.016655 -0.076190
v 0.838095 1.015093 -0.076190
v 0.990476 1.013059 -0.076190
v 1.142857 1.010941 -0.076190
v 1.295238 1.008530 -0.076190
v 1.447619 1.005013 -0.076190
v 1.600000 1.000000 -0.076190
v -1.600000 1.000000 -0.228571
v -1.447619 0.983816 -0.228571
v -1.295238 0.967536 -0.228571
v -1.142857 0.953456 -0.228571
v -0.990476 0.944642 -0.228571
v -0.838095 0.942742 -0.228571
v -0.685714 0.947439 -0.228571
v -0.533333 0.956995 -0.228571
v -0.380952 0.969708 -0.228571
v -0.228571 0.984580 -0.228571
v -0.076190 1.000396 -0.228571
v 0.076190 1.015899 -0.228571
v 0.228571 1.029743 -0.228571
v 0.380952 1.040826 -0.228571
v 0.533333 1.048321 -0.228571
v 0.685714 1.051701 -0.228571
v 0.838095 1.051007 -0.228571
v 0.990476 1.046656 -0.228571
v 1.142857 1.039088 -0.228571
v 1.295238 1.028475 -0.228571
v 1.447619 1.015201 -0.228571
v 1.600000 1.000000 -0.228571
v -1.600000 1.000000 -0.380952
v -1.447619 0.975686 -0.380952
v -1.295238 0.952894 -0.380952
v -1.142857 0.934050 -0.380952
v -0.990476 0.921535 -0.380952
v -0.838095 0.916929 -0.380952
v -0.685714 0.920672 -0.380952
v -0.533333 0.932217 -0.380952
v -0.380952 0.950824 -0.380952
v -0.228571 0.974515 -0.380952
v -0.076190 1.000189 -0.380952
v 0.076190 1.024625 -0.380952
v 0.228571 1.046130 -0.380952
v 0.380952 1.063552 -0.380952
v 0.533333 1.075961 -0.380952
v 0.685714 1.082555 -0.380952
v 0.838095 1.082665 -0.380952
v 0.990476 1.076303 -0.380952
v 1.142857 1.063902 -0.380952
v 1.295238 1.045941 -0.380952
v 1.447619 1.024030 -0.380952
v 1.600000 1.000000 -0.380952
v -1.600000 1.000000 -0.533333
v -1.447619 0.969751 -0.533333
v -1.295238 0.942151 -0.533333
v -1.142857 0.919760 -0.533333
v -0.990476 0.904600 -0.533333
v -0.838095 0.898201 -0.533333
v -0.685714 0.901427 -0.533333
v -0.533333 0.914382 -0.533333
v -0.380952 0.936829 -0.533333
v -0.228571 0.966297 -0.533333
v -0.076190 0.998733 -0.533333
v 0.076190 1.029841 -0.533333
v 0.228571 1.057369 -0.533333
v 0.380952 1.079889 -0.533333
v 0.533333 1.096231 -0.533333
v 0.685714 1.105317 -0.533333
v 0.838095 1.106043 -0.533333
v 0.990476 1.098196 -0.533333
v 1.142857 1.082247 -0.533333
v 1.295238 1.058916 -0.533333
v 1.447619 1.030624 -0.533333
v 1.600000 1.000000 -0.533333
v -1.600000 1.000000 -0.685714
v -1.447619 0.966314 -0.685714
v -1.295238 0.935795 -0.685714
v -1.142857 0.911157 -0.685714
v -0.990476 0.894512 -0.685714
v -0.838095 0.887517 -0.685714
v -0.685714 0.890979 -0.685714
v -0.533333 0.904828 -0.685714
v -0.380952 0.928765 -0.685714
v -0.228571 0.960445 -0.685714
v -0.076190 0.995917 -0.685714
v 0.076190 1.030768 -0.685714
v 0.228571 1.061734 -0.685714
v 0.380952 1.087193 -0.685714
v 0.533333 1.105963 -0.685714
v 0.685714 1.116884 -0.685714
v 0.838095 1.118474 -0.685714
v 0.990476 1.110181 -0.685714
v 1.142857 1.092406 -0.685714
v 1.295238 1.066256 -0.685714
v 1.447619 1.034461 -0.685714
v 1.600000 1.000000 -0.685714
v -1.600000 1.000000 -0.838095
v -1.447619 0.965565 -0.838095
v -1.295238 0.934510 -0.838095
v -1.142857 0.909499 -0.838095
v -0.990476 0.892668 -0.838095
v -0.838095 0.885868 -0.838095
v -0.685714 0.889662 -0.838095
v -0.533333 0.903548 -0.838095
v -0.380952 0.927173 -0.838095
v -0.228571 0.958569 -0.838095
v -0.076190 0.994131 -0.838095
v 0.076190 1.029547 -0.838095
v 0.228571 1.060515 -0.838095
v 0.380952 1.085833 -0.838095
v 0.533333 1.104932 -0.838095
v 0.685714 1.116948 -0.838095
v 0.838095 1.119797 -0.838095
v 0.990476 1.112230 -0.838095
v 1.142857 1.094331 -0.838095
v 1.295238 1.067761 -0.838095
v 1.447619 1.035324 -0.838095
v 1.600000 1.000000 -0.838095
v -1.600000 1.000000 -0.990476
v -1.447619 0.967772 -0.990476
v -1.295238 0.938775 -0.990476
v -1.142857 0.915438 -0.990476
v -0.990476 0.899775 -0.990476
v -0.838095 0.893654 -0.990476
v -0.685714 0.897422 -0.990476
v -0.533333 0.910294 -0.990476
v -0.380952 0.931898 -0.990476
v -0.228571 0.960655 -0.990476
v -0.076190 0.993453 -0.990476
v 0.076190 1.026361 -0.990476
v 0.228571 1.054739 -0.990476
v 0.380952 1.077819 -0.990476
v 0.533333 1.095542 -0.990476
v 0.685714 1.107339 -0.990476
v 0.838095 1.110857 -0.990476
v 0.990476 1.104437 -0.990476
v 1.142857 1.087929 -0.990476
v 1.295238 1.063257 -0.990476
v 1.447619 1.033042 -0.990476
v 1.600000 1.000000 -0.990476
v -1.600000 1.000000 -1.142857
v -1.447619 0.972881 -1.142857
v -1.295238 0.948474 -1.142857
v -1.142857 0.928821 -1.142857
v -0.990476 0.915625 -1.142857
v -0.838095 0.910465 -1.142857
v -0.685714 0.913610 -1.142857
v -0.533333 0.924372 -1.142857
v -0.380952 0.942395 -1.142857
v -0.228571 0.966388 -1.142857
v -0.076190 0.993814 -1.142857
v 0.076190 1.021441 -1.142857
v 0.228571 1.045325 -1.142857
v 0.380952 1.064798 -1.142857
v 0.533333 1.079800 -1.142857
v 0.685714 1.089843 -1.142857
v 0.838095 1.092928 -1.142857
v 0.990476 1.087625 -1.142857
v 1.142857 1.073796 -1.142857
v 1.295238 1.053114 -1.142857
v 1.447619 1.027761 -1.142857
v 1.600000 1.000000 -1.142857
v -1.600000 1.000000 -1.295238
v -1.447619 0.980545 -1.295238
v -1.295238 0.962979 -1.295238
v -1.142857 0.948814 -1.295238
v -0.990476 0.939243 -1.295238
v -0.838095 0.935208 -1.295238
v -0.685714 0.937071 -1.295238
v -0.533333 0.944659 -1.295238
v -0.380952 0.957679 -1.295238
v -0.228571 0.975022 -1.295238
v -0.076190 0.994827 -1.295238
v 0.076190 1.014837 -1.295238
v 0.228571 1.032642 -1.295238
v 0.380952 1.047379 -1.295238
v 0.533333 1.058537 -1.295238
v 0.685714 1.065562 -1.295238
v 0.838095 1.067348 -1.295238
v 0.990476 1.063188 -1.295238
v 1.142857 1.053140 -1.295238
v 1.295238 1.038230 -1.295238
v 1.447619 1.019967 -1.295238
v 1.600000 1.000000 -1.295238
v -1.600000 1.000000 -1.447619
v -1.447619 0.989894 -1.447619
v -1.295238 0.980726 -1.447619
v -1.142857 0.973319 -1.447619
v -0.990476 0.968272 -1.447619
v -0.838095 0.965931 -1.447619
v -0.685714 0.966615 -1.447619
v -0.533333 0.970478 -1.447619
v -0.380952 0.977347 -1.447619
v -0.228571 0.986500 -1.447619
v -0.076190 0.996921 -1.447619
v 0.076190 1.007470 -1.447619
v 0.228571 1.017202 -1.447619
v 0.380952 1.025398 -1.447619
v 0.533333 1.031462 -1.447619
v 0.685714 1.034960 -1.447619
v 0.838095 1.035563 -1.447619
v 0.990476 1.033129 -1.447619
v 1.142857 1.027804 -1.447619
v 1.295238 1.019987 -1.447619
v 1.447619 1.010426 -1.447619
v 1.600000 1.000000 -1.447619
v -1.600000 1.000000 -1.600000
v -1.447619 1.000000 -1.600000
v -1.295238 1.000000 -1.600000
v -1.142857 1.000000 -1.600000
v -0.990476 1.000000 -1.600000
v -0.838095 1.000000 -1.600000
v -0.685714 1.000000 -1.600000
v -0.533333 1.000000 -1.600000
v -0.380952 1.000000 -1.600000
v -0.228571 1.000000 -1.600000
v -0.076190 1.000000 -1.600000
v 0.076190 1.000000 -1.600000
v 0.228571 1.000000 -1.600000
v 0.380952 1.000000 -1.600000
v 0.533333 1.000000 -1.600000
v 0.685714 1.000000 -1.600000
v 0.838095 1.000000 -1.600000
v 0.990476 1.000000 -1.600000
v 1.142857 1.000000 -1.600000
v 1.295238 1.000000 -1.600000
v 1.447619 1.000000 -1.600000
v 1.600000 1.000000 -1.600000
v -1.600000 0.000000 1.600000
v -1.447619 0.000000 1.600000
v -1.295238 0.000000 1.600000
v -1.142857 0.000000 1.600000
v -0.990476 0.000000 1.600000
v -0.838095 0.000000 1.600000
v -0.685714 0.000000 1.600000
v -0.533333 0.000000 1.600000
v -0.380952 0.000000 1.600000
v -0.228571 0.000000 1.600000
v -0.076190 0.000000 1.600000
v 0.076190 0.000000 1.600000
v 0.228571 0.000000 1.600000
v 0.380952 0.000000 1.600000
v 0.533333 0.000000 1.600000
v 0.685714 0.000000 1.600000
v 0.838095 0.000000 1.600000
v 0.990476 0.000000 1.600000
v 1.142857 0.000000 1.600000
v 1.295238 0.000000 1.600000
v 1.447619 0.000000 1.600000
v 1.600000 0.000000 1.600000
v 1.600000 0.000000 1.447619
v 1.600000 0.000000 1.295238
v 1.600000 0.000000 1.142857
v 1.600000 0.000000 0.990476
v 1.600000 0.000000 0.838095
v 1.600000 0.000000 0.685714
v 1.600000 0.000000 0.533333
v 1.600000 0.000000 0.380952
v 1.600000 0.000000 0.228571
v 1.600000 0.000000 0.076190
v 1.600000 0.000000 -0.076190
v 1.600000 0.000000 -0.228571
v 1.600000 0.000000 -0.380952
v 1.600000 0.000000 -0.533333
v 1.600000 0.000000 -0.685714
v 1.600000 0.000000 -0.838095
v 1.600000 0.000000 -0.990476
v 1.600000 0.000000 -1.142857
v 1.600000 0.000000 -1.295238
v 1.600000 0.000000 -1.447619
v 1.600000 0.000000 -1.600000
v 1.447619 0.000000 -1.600000
v 1.295238 0.000000 -1.600000
v 1.142857 0.000000 -1.600000
v 0.990476 0.000000 -1.600000
v 0.838095 0.000000 -1.600000
v 0.685714 0.000000 -1.600000
v 0.533333 0.000000 -1.600000
v 0.380952 0.000000 -1.600000
v 0.228571 0.000000 -1.600000
v 0.076190 0.000000 -1.600000
v -0.076190 0.000000 -1.600000
v -0.228571 0.000000 -1.600000
v -0.380952 0.000000 -1.600000
v -0.533333 0.000000 -1.600000
v -0.685714 0.000000 -1.600000
v -0.838095 0.000000 -1.600000
v -0.990476 0.000000 -1.600000
v -1.142857 0.000000 -1.600000
v -1.295238 0.000000 -1.600000
v -1.447619 0.000000 -1.600000
v -1.600000 0.000000 -1.600000
v -1.600000 0.000000 -1.447619
v -1.600000 0.000000 -1.295238
v -1.600000 0.000000 -1.142857
v -1.600000 0.000000 -0.990476
v -1.600000 0.000000 -0.838095
v -1.600000 0.000000 -0.685714
v -1.600000 0.000000 -0.533333
v -1.600000 0.000000 -0.380952
v -1.600000 0.000000 -0.228571
v -1.600000 0.000000 -0.076190
v -1.600000 0.000000 0.076190
v -1.600000 0.000000 0.228571
v -1.600000 0.000000 0.380952
v -1.600000 0.000000 0.533333
v -1.600000 0.000000 0.685714
v -1.600000 0.000000 0.838095
v -1.600000 0.000000 0.990476
v -1.600000 0.000000 1.142857
v -1.600000 0.000000 1.295238
v -1.600000 0.000000 1.447619
v 0.000000 0.000000 0.000000
vn -0.0170 0.9986 0.0510
vn -0.0510 0.9986 0.0170
vn -0.0000 1.0000 -0.0000
vn -0.0155 0.9934 0.1141
vn -0.0651 0.9958 0.0652
vn -0.0125 0.9860 0.1663
vn -0.0570 0.9907 0.1234
vn -0.0084 0.9791 0.2030
vn -0.0437 0.9845 0.1699
vn -0.0023 0.9754 0.2204
vn -0.0264 0.9793 0.2009
vn 0.0179 0.9780 0.2080
vn -0.0054 0.9769 0.2137
vn 0.0064 0.9769 0.2138
vn 0.0372 0.9821 0.1847
vn 0.0111 0.9828 0.1844
vn 0.0535 0.9881 0.1439
vn 0.0149 0.9905 0.1370
vn 0.0643 0.9940 0.0886
vn 0.0171 0.9970 0.0758
vn 0.0514 0.9984 0.0239
vn 0.0172 0.9995 -0.0269
vn -0.0000 0.9997 0.0247
vn 0.0153 0.9958 -0.0900
vn 0.0652 0.9970 -0.0415
vn 0.0126 0.9897 -0.1427
vn 0.0564 0.9935 -0.0983
vn 0.0094 0.9831 -0.1829
vn 0.0451 0.9885 -0.1444
vn 0.0059 0.9779 -0.2092
vn 0.0322 0.9834 -0.1785
vn -0.0018 0.9763 -0.2162
vn 0.0170 0.9797 -0.1998
vn -0.0251 0.9806 -0.1943
vn -0.0041 0.9786 -0.2058
vn -0.0081 0.9797 -0.2002
vn -0.0428 0.9854 -0.1649
vn -0.0124 0.9864 -0.1642
vn -0.0562 0.9912 -0.1197
vn -0.0153 0.9935 -0.1125
vn -0.0638 0.9960 -0.0632
vn -0.0167 0.9986 -0.0502
vn -0.0502 0.9986 -0.0167
vn -0.1144 0.9933 0.0156
vn -0.1235 0.9907 0.0575
vn -0.1075 0.9883 0.1081
vn -0.0816 0.9855 0.1489
vn -0.0478 0.9833 0.1758
vn 0.0324 0.9831 0.1804
vn -0.0080 0.9825 0.1863
vn 0.0683 0.9848 0.1598
vn 0.0998 0.9872 0.1246
vn 0.1212 0.9897 0.0767
vn 0.1145 0.9932 0.0202
vn 0.1218 0.9919 -0.0362
vn 0.1039 0.9911 -0.0832
vn 0.0826 0.9892 -0.1207
vn 0.0591 0.9870 -0.1492
vn 0.0308 0.9853 -0.1678
vn -0.0447 0.9854 -0.1643
vn -0.0061 0.9848 -0.1736
vn -0.0787 0.9871 -0.1396
vn -0.1044 0.9894 -0.1013
vn -0.1193 0.9914 -0.0537
vn -0.1106 0.9938 -0.0147
vn -0.1671 0.9859 0.0126
vn -0.1704 0.9844 0.0441
vn -0.1484 0.9855 0.0822
vn -0.1124 0.9872 0.1131
vn -0.0648 0.9889 0.1335
vn 0.0446 0.9897 0.1362
vn -0.0095 0.9900 0.1411
vn 0.0937 0.9883 0.1203
vn 0.1370 0.9861 0.0938
vn 0.1667 0.9843 0.0582
vn 0.1666 0.9859 0.0151
vn 0.1660 0.9857 -0.0279
vn 0.1404 0.9881 -0.0631
vn 0.1117 0.9895 -0.0917
vn 0.0806 0.9902 -0.1137
vn 0.0422 0.9909 -0.1279
vn -0.0599 0.9904 -0.1247
vn -0.0075 0.9912 -0.1320
vn -0.1071 0.9886 -0.1058
vn -0.1426 0.9868 -0.0766
vn -0.1629 0.9858 -0.0408
vn -0.1594 0.9871 -0.0116
vn -0.2041 0.9789 0.0084
vn -0.2015 0.9791 0.0264
vn -0.1754 0.9833 0.0480
vn -0.1329 0.9890 0.0653
vn -0.0759 0.9942 0.0764
vn 0.0531 0.9957 0.0760
vn -0.0099 0.9968 0.0796
vn 0.1101 0.9916 0.0673
vn 0.1606 0.9855 0.0544
vn 0.1957 0.9800 0.0371
vn 0.2048 0.9787 0.0114
vn 0.1942 0.9808 -0.0151
vn 0.1672 0.9852 -0.0373
vn 0.1336 0.9893 -0.0591
vn 0.0961 0.9925 -0.0752
vn 0.0493 0.9953 -0.0835
vn -0.0708 0.9944 -0.0784
vn -0.0095 0.9964 -0.0843
vn -0.1271 0.9897 -0.0661
vn -0.1691 0.9845 -0.0475
vn -0.1926 0.9810 -0.0254
vn -0.1940 0.9810 -0.0079
vn -0.2212 0.9752 0.0021
vn -0.2142 0.9768 0.0049
vn -0.1862 0.9825 0.0077
vn -0.1408 0.9900 0.0094
vn -0.0791 0.9968 0.0097
vn 0.0574 0.9983 0.0067
vn -0.0090 0.9999 0.0086
vn 0.1158 0.9933 0.0051
vn 0.1665 0.9860 0.0066
vn 0.2018 0.9794 0.0117
vn 0.2213 0.9751 0.0143
vn 0.2115 0.9774 0.0058
vn 0.1860 0.9825 -0.0095
vn 0.1481 0.9887 -0.0221
vn 0.1049 0.9940 -0.0295
vn 0.0509 0.9982 -0.0311
vn -0.0776 0.9966 -0.0259
vn -0.0124 0.9995 -0.0294
vn -0.1377 0.9903 -0.0212
vn -0.1827 0.9831 -0.0146
vn -0.2070 0.9783 -0.0075
vn -0.2117 0.9773 -0.0028
vn -0.2080 0.9779 -0.0187
vn -0.2140 0.9768 -0.0065
vn -0.1801 0.9830 -0.0344
vn -0.1356 0.9896 -0.0477
vn -0.0750 0.9956 -0.0570
vn -0.0069 0.9980 -0.0621
vn 0.0569 0.9965 -0.0618
vn 0.1098 0.9925 -0.0541
vn 0.1553 0.9871 -0.0382
vn 0.2097 0.9778 0.0035
vn 0.1893 0.9817 -0.0190
vn 0.2142 0.9766 0.0219
vn 0.1924 0.9809 0.0281
vn 0.1537 0.9877 0.0287
vn 0.1058 0.9939 0.0300
vn 0.0488 0.9982 0.0336
vn -0.0145 0.9993 0.0355
vn -0.0789 0.9963 0.0348
vn -0.1380 0.9900 0.0308
vn -0.1825 0.9829 0.0244
vn -0.2050 0.9786 0.0149
vn -0.1832 0.9824 -0.0377
vn -0.1842 0.9828 -0.0110
vn -0.1572 0.9849 -0.0719
vn -0.1180 0.9879 -0.1005
vn -0.0653 0.9908 -0.1183
vn -0.0044 0.9922 -0.1243
vn 0.0491 0.9918 -0.1178
vn 0.0921 0.9908 -0.0994
vn 0.1307 0.9887 -0.0728
vn 0.1638 0.9856 -0.0411
vn 0.1939 0.9806 0.0297
vn 0.1787 0.9839 -0.0054
vn 0.1789 0.9822 0.0580
vn 0.1453 0.9862 0.0793
vn 0.0987 0.9907 0.0935
vn 0.0456 0.9939 0.1007
vn -0.0136 0.9948 0.1012
vn -0.0723 0.9929 0.0945
vn -0.1267 0.9887 0.0802
vn -0.1670 0.9842 0.0594
vn -0.2073 0.9783 0.0056
vn -0.1855 0.9821 0.0328
vn -0.1404 0.9886 -0.0535
vn -0.1373 0.9904 -0.0146
vn -0.1176 0.9876 -0.1037
vn -0.0885 0.9854 -0.1456
vn -0.0525 0.9840 -0.1702
vn -0.0071 0.9847 -0.1740
vn 0.0306 0.9868 -0.1589
vn 0.0647 0.9892 -0.1315
vn 0.0982 0.9903 -0.0984
vn 0.1275 0.9900 -0.0603
vn 0.1544 0.9874 0.0349
vn 0.1360 0.9906 -0.0153
vn 0.1447 0.9861 0.0817
vn 0.1197 0.9855 0.1203
vn 0.0835 0.9857 0.1463
vn 0.0410 0.9865 0.1586
vn -0.0090 0.9873 0.1585
vn -0.0577 0.9875 0.1467
vn -0.1034 0.9869 0.1237
vn -0.1361 0.9866 0.0899
vn -0.1814 0.9834 0.0098
vn -0.1492 0.9876 0.0479
vn -0.0833 0.9945 -0.0639
vn -0.0770 0.9969 -0.0168
vn -0.0647 0.9902 -0.1240
vn -0.0494 0.9835 -0.1738
vn -0.0366 0.9784 -0.2036
vn -0.0177 0.9786 -0.2052
vn 0.0032 0.9831 -0.1832
vn 0.0351 0.9873 -0.1549
vn 0.0600 0.9907 -0.1217
vn 0.0835 0.9935 -0.0775
vn 0.0997 0.9943 0.0375
vn 0.0820 0.9963 -0.0238
vn 0.0949 0.9908 0.0967
vn 0.0812 0.9859 0.1465
vn 0.0603 0.9816 0.1809
vn 0.0335 0.9796 0.1980
vn -0.0023 0.9800 0.1991
vn -0.0374 0.9820 0.1849
vn -0.0701 0.9853 0.1559
vn -0.0920 0.9894 0.1127
vn -0.1393 0.9902 0.0133
vn -0.0988 0.9933 0.0594
vn -0.0178 0.9985 -0.0512
vn -0.0266 0.9996 -0.0000
vn -0.0047 0.9933 -0.1156
vn -0.0037 0.9855 -0.1697
vn -0.0122 0.9779 -0.2086
vn -0.0256 0.9745 -0.2231
vn -0.0234 0.9770 -0.2119
vn -0.0023 0.9839 -0.1786
vn 0.0145 0.9913 -0.1310
vn 0.0379 0.9957 -0.0845
vn 0.0355 0.9986 0.0384
vn 0.0188 0.9994 -0.0293
vn 0.0357 0.9941 0.1027
vn 0.0344 0.9869 0.1573
vn 0.0308 0.9800 0.1967
vn 0.0225 0.9757 0.2180
vn 0.0064 0.9757 0.2192
vn -0.0158 0.9788 0.2044
vn -0.0302 0.9842 0.1742
vn -0.0391 0.9913 0.1261
vn -0.0838 0.9964 0.0159
vn -0.0383 0.9971 0.0663
vn 0.0252 0.9995 -0.0173
vn 0.0479 0.9967 -0.0661
vn 0.0524 0.9910 -0.1231
vn 0.0398 0.9851 -0.1671
vn -0.0190 0.9773 -0.2111
vn 0.0139 0.9807 -0.1952
vn -0.0398 0.9765 -0.2119
vn -0.0428 0.9808 -0.1901
vn -0.0377 0.9884 -0.1473
vn -0.0253 0.9965 -0.0795
vn -0.0324 0.9990 0.0315
vn -0.0326 0.9993 -0.0201
vn -0.0261 0.9951 0.0955
vn -0.0158 0.9886 0.1501
vn -0.0038 0.9814 0.1920
vn 0.0054 0.9756 0.2195
vn 0.0139 0.9738 0.2271
vn 0.0115 0.9779 0.2086
vn 0.0149 0.9855 0.1689
vn 0.0194 0.9932 0.1149
vn -0.0188 0.9997 0.0173
vn 0.0277 0.9983 0.0508
vn 0.0898 0.9958 -0.0158
vn 0.1057 0.9927 -0.0582
vn 0.0988 0.9895 -0.1053
vn 0.0743 0.9873 -0.1407
vn 0.0353 0.9854 -0.1667
vn -0.0479 0.9811 -0.1875
vn -0.0061 0.9830 -0.1837
vn -0.0743 0.9823 -0.1718
vn -0.0910 0.9870 -0.1322
vn -0.0999 0.9923 -0.0737
vn -0.0849 0.9964 -0.0061
vn -0.0956 0.9938 0.0574
vn -0.0811 0.9905 0.1114
vn -0.0606 0.9860 0.1556
vn -0.0360 0.9813 0.1889
vn 0.0184 0.9766 0.2141
vn -0.0118 0.9778 0.2094
vn 0.0403 0.9788 0.2010
vn 0.0603 0.9837 0.1693
vn 0.0780 0.9896 0.1211
vn 0.0921 0.9938 0.0628
vn 0.0827 0.9964 0.0166
vn 0.1446 0.9894 -0.0131
vn 0.1521 0.9873 -0.0461
vn 0.1349 0.9874 -0.0822
vn 0.1016 0.9888 -0.1094
vn 0.0555 0.9900 -0.1300
vn -0.0514 0.9878 -0.1471
vn 0.0047 0.9896 -0.1435
vn -0.0990 0.9857 -0.1362
vn -0.1366 0.9849 -0.1064
vn -0.1579 0.9856 -0.0609
vn -0.1472 0.9891 -0.0061
vn -0.1481 0.9879 0.0461
vn -0.1259 0.9880 0.0898
vn -0.0968 0.9873 0.1263
vn -0.0621 0.9861 0.1543
vn 0.0215 0.9843 0.1752
vn -0.0237 0.9850 0.1711
vn 0.0618 0.9843 0.1650
vn 0.0986 0.9854 0.1390
vn 0.1283 0.9867 0.0994
vn 0.1472 0.9878 0.0517
vn 0.1416 0.9898 0.0143
vn 0.1854 0.9826 -0.0095
vn 0.1853 0.9822 -0.0313
vn 0.1610 0.9854 -0.0558
vn 0.1215 0.9898 -0.0747
vn 0.0700 0.9936 -0.0883
vn -0.0538 0.9940 -0.0956
vn 0.0106 0.9954 -0.0953
vn -0.1148 0.9894 -0.0888
vn -0.1661 0.9834 -0.0725
vn -0.1966 0.9793 -0.0475
vn -0.1965 0.9804 -0.0108
vn -0.1841 0.9826 0.0247
vn -0.1604 0.9857 0.0518
vn -0.1252 0.9891 0.0775
vn -0.0826 0.9918 0.0975
vn -0.0329 0.9933 0.1107
vn 0.0776 0.9909 0.1097
vn 0.0228 0.9931 0.1154
vn 0.1266 0.9876 0.0929
vn 0.1651 0.9840 0.0671
vn 0.1876 0.9816 0.0357
vn 0.1867 0.9824 0.0105
vn 0.2105 0.9776 -0.0054
vn 0.2044 0.9788 -0.0152
vn 0.1766 0.9839 -0.0261
vn 0.1331 0.9905 -0.0342
vn 0.0768 0.9963 -0.0393
vn -0.0564 0.9977 -0.0386
vn 0.0111 0.9991 -0.0403
vn -0.1218 0.9919 -0.0362
vn -0.1779 0.9835 -0.0326
vn -0.2134 0.9766 -0.0265
vn -0.2229 0.9747 -0.0167
vn -0.2055 0.9787 -0.0011
vn -0.1795 0.9837 0.0124
vn -0.1418 0.9897 0.0215
vn -0.0962 0.9949 0.0308
vn -0.0402 0.9984 0.0387
vn 0.0847 0.9953 0.0460
vn 0.0203 0.9988 0.0445
vn 0.1412 0.9892 0.0403
vn 0.1849 0.9823 0.0303
vn 0.2103 0.9775 0.0172
vn 0.2146 0.9767 0.0061
vn 0.2158 0.9764 0.0023
vn 0.2080 0.9781 0.0059
vn 0.1792 0.9838 0.0107
vn 0.1348 0.9908 0.0147
vn 0.0768 0.9969 0.0179
vn -0.0575 0.9981 0.0208
vn 0.0098 0.9997 0.0201
vn -0.1211 0.9925 0.0186
vn -0.1761 0.9843 0.0120
vn -0.2127 0.9771 0.0030
vn -0.2227 0.9749 -0.0078
vn -0.2103 0.9775 -0.0166
vn -0.1797 0.9834 -0.0244
vn -0.1431 0.9892 -0.0314
vn -0.1010 0.9943 -0.0344
vn -0.0472 0.9984 -0.0305
vn 0.0828 0.9964 -0.0203
vn 0.0154 0.9996 -0.0249
vn 0.1430 0.9896 -0.0156
vn 0.1881 0.9821 -0.0109
vn 0.2148 0.9766 -0.0058
vn 0.2210 0.9753 -0.0022
vn 0.1950 0.9805 0.0255
vn 0.1989 0.9800 0.0081
vn 0.1677 0.9847 0.0464
vn 0.1259 0.9900 0.0634
vn 0.0712 0.9947 0.0747
vn 0.0082 0.9968 0.0797
vn -0.0546 0.9955 0.0778
vn -0.1119 0.9914 0.0678
vn -0.1619 0.9855 0.0500
vn -0.1963 0.9802 0.0268
vn -0.1954 0.9803 -0.0277
vn -0.2024 0.9793 -0.0009
vn -0.1654 0.9850 -0.0499
vn -0.1319 0.9889 -0.0686
vn -0.0957 0.9920 -0.0821
vn -0.0498 0.9948 -0.0886
vn 0.0110 0.9961 -0.0873
vn 0.0749 0.9940 -0.0799
vn 0.1328 0.9889 -0.0672
vn 0.1755 0.9833 -0.0487
vn 0.2011 0.9792 -0.0264
vn 0.1651 0.9853 0.0428
vn 0.1630 0.9865 0.0123
vn 0.1419 0.9867 0.0791
vn 0.1065 0.9884 0.1081
vn 0.0607 0.9900 0.1270
vn 0.0068 0.9910 0.1337
vn -0.0459 0.9907 0.1281
vn -0.0937 0.9894 0.1112
vn -0.1358 0.9872 0.0837
vn -0.1651 0.9851 0.0475
vn -0.1658 0.9854 -0.0380
vn -0.1657 0.9862 0.0045
vn -0.1402 0.9875 -0.0718
vn -0.1116 0.9888 -0.0989
vn -0.0811 0.9894 -0.1203
vn -0.0430 0.9899 -0.1352
vn 0.0078 0.9901 -0.1399
vn 0.0633 0.9892 -0.1325
vn 0.1119 0.9873 -0.1125
vn 0.1481 0.9856 -0.0817
vn 0.2037 0.9790 -0.0084
vn 0.1700 0.9845 -0.0438
vn 0.1198 0.9912 0.0560
vn 0.1115 0.9936 0.0152
vn 0.1031 0.9892 0.1046
vn 0.0777 0.9866 0.1432
vn 0.0455 0.9847 0.1684
vn 0.0069 0.9842 0.1770
vn -0.0322 0.9850 0.1696
vn -0.0678 0.9866 0.1481
vn -0.0989 0.9887 0.1130
vn -0.1203 0.9906 0.0659
vn -0.1226 0.9914 -0.0459
vn -0.1143 0.9934 0.0101
vn -0.1054 0.9902 -0.0918
vn -0.0837 0.9882 -0.1280
vn -0.0591 0.9860 -0.1560
vn -0.0299 0.9840 -0.1756
vn 0.0075 0.9831 -0.1829
vn 0.0475 0.9836 -0.1741
vn 0.0816 0.9856 -0.1478
vn 0.1076 0.9884 -0.1074
vn 0.1669 0.9859 -0.0125
vn 0.1235 0.9907 -0.0572
vn 0.0632 0.9960 0.0635
vn 0.0496 0.9986 0.0166
vn 0.0548 0.9913 0.1196
vn 0.0417 0.9856 0.1641
vn 0.0256 0.9807 0.1937
vn 0.0057 0.9786 0.2057
vn -0.0171 0.9797 0.1997
vn -0.0365 0.9836 0.1767
vn -0.0531 0.9892 0.1363
vn -0.0641 0.9946 0.0813
vn -0.0661 0.9966 -0.0488
vn -0.0515 0.9985 0.0169
vn -0.0583 0.9926 -0.1064
vn -0.0466 0.9871 -0.1530
vn -0.0321 0.9818 -0.1872
vn -0.0155 0.9780 -0.2079
vn 0.0063 0.9769 -0.2135
vn 0.0268 0.9792 -0.2011
vn 0.0439 0.9844 -0.1702
vn 0.0573 0.9907 -0.1235
vn 0.1145 0.9933 -0.0155
vn 0.0653 0.9957 -0.0653
vn 0.0166 0.9986 0.0496
vn 0.0149 0.9937 0.1107
vn 0.0119 0.9869 0.1607
vn 0.0080 0.9806 0.1959
vn 0.0026 0.9769 0.2135
vn -0.0061 0.9781 0.2080
vn -0.0110 0.9837 0.1794
vn -0.0148 0.9911 0.1323
vn -0.0170 0.9973 0.0713
vn -0.0173 0.9993 -0.0317
vn -0.0000 0.9998 0.0202
vn -0.0159 0.9952 -0.0964
vn -0.0132 0.9884 -0.1513
vn -0.0097 0.9812 -0.1927
vn -0.0055 0.9759 -0.2182
vn 0.0029 0.9749 -0.2226
vn 0.0084 0.9789 -0.2041
vn 0.0126 0.9859 -0.1671
vn 0.0155 0.9933 -0.1146
vn 0.0512 0.9985 -0.0171
vn 0.0171 0.9985 -0.0512
vn -0.0000 -0.0000 1.0000
vn 1.0000 -0.0000 -0.0000
vn -0.0000 -0.0000 -1.0000
vn -1.0000 -0.0000 -0.0000
vn -0.0000 -1.0000 -0.0000
vn 0.0329 0.9995 -0.0000
s 1
f 2//1 23//2 1//3
f 3//4 24//5 2//1
f 4//6 25//7 3//4
f 5//8 26//9 4//6
f 6//10 27//11 5//8
f 6//10 29//12 28//13
f 7//14 30//15 29//12
f 8//16 31//17 30//15
f 9//18 32//19 31//17
f 10//20 33//21 32//19
f 12//22 33//21 11//23
f 13//24 34//25 12//22
f 14//26 35//27 13//24
f 15//28 36//29 14//26
f 16//30 37//31 15//28
f 17//32 38//33 16//30
f 17//32 40//34 39//35
f 18//36 41//37 40//34
f 19//38 42//39 41//37
f 20//40 43//41 42//39
f 21//42 44//43 43//41
f 24//5 45//44 23//2
f 25//7 46//45 24//5
f 26//9 47//46 25//7
f 27//11 48//47 26//9
f 28//13 49//48 27//11
f 28//13 51//49 50//50
f 29//12 52//51 51//49
f 30//15 53//52 52//51
f 31//17 54//53 53//52
f 32//19 55//54 54//53
f 34//25 55//54 33//21
f 35//27 56//55 34//25
f 36//29 57//56 35//27
f 37//31 58//57 36//29
f 38//33 59//58 37//31
f 39//35 60//59 38//33
f 39//35 62//60 61//61
f 40//34 63//62 62//60
f 41//37 64//63 63//62
f 42//39 65//64 64//63
f 43//41 66//65 65//64
f 46//45 67//66 45//44
f 47//46 68//67 46//45
f 48//47 69//68 47//46
f 49//48 70//69 48//47
f 50//50 71//70 49//48
f 50//50 73//71 72//72
f 51//49 74//73 73//71
f 52//51 75//74 74//73
f 53//52 76//75 75//74
f 54//53 77//76 76//75
f 56//55 77//76 55//54
f 57//56 78//77 56//55
f 58//57 79//78 57//56
f 59//58 80//79 58//57
f 60//59 81//80 59//58
f 61//61 82//81 60//59
f 61//61 84//82 83//83
f 62//60 85//84 84//82
f 63//62 86//85 85//84
f 64//63 87//86 86//85
f 65//64 88//87 87//86
f 68//67 89//88 67//66
f 69//68 90//89 68//67
f 70//69 91//90 69//68
f 71//70 92//91 70//69
f 72//72 93//92 71//70
f 72//72 95//93 94//94
f 73//71 96//95 95//93
f 74//73 97//96 96//95
f 75//74 98//97 97//96
f 76//75 99//98 98//97
f 78//77 99//98 77//76
f 79//78 100//99 78//77
f 80//79 101//100 79//78
f 81//80 102//101 80//79
f 82//81 103//102 81//80
f 83//83 104//103 82//81
f 83//83 106//104 105//105
f 84//82 107//106 106//104
f 85//84 108//107 107//106
f 86//85 109//108 108//107
f 87//86 110//109 109//108
f 90//89 111//110 89//88
f 91//90 112//111 90//89
f 92//91 113//112 91//90
f 93//92 114//113 92//91
f 94//94 115//114 93//92
f 94//94 117//115 116//116
f 95//93 118//117 117//115
f 96//95 119//118 118//117
f 97//96 120//119 119//118
f 98//97 121//120 120//119
f 99//98 122//121 121//120
f 101//100 122//121 100//99
f 102//101 123//122 101//100
f 103//102 124//123 102//101
f 104//103 125//124 103//102
f 105//105 126//125 104//103
f 105//105 128//126 127//127
f 106//104 129//128 128//126
f 107//106 130//129 129//128
f 108//107 131//130 130//129
f 109//108 132//131 131//130
f 111//110 134//132 133//133
f 112//111 135//134 134//132
f 113//112 136//135 135//134
f 114//113 137//136 136//135
f 115//114 138//137 137//136
f 117//115 138//137 116//116
f 118//117 139//138 117//115
f 119//118 140//139 118//117
f 120//119 141//140 119//118
f 120//119 143//141 142//142
f 121//120 144//143 143//141
f 122//121 145//144 144//143
f 123//122 146//145 145//144
f 125//124 146//145 124//123
f 126//125 147//146 125//124
f 127//127 148//147 126//125
f 128//126 149//148 127//127
f 129//128 150//149 128//126
f 130//129 151//150 129//128
f 131//130 152//151 130//129
f 132//131 153//152 131//130
f 133//133 156//153 155//154
f 134//132 157//155 156//153
f 135//134 158//156 157//155
f 136//135 159//157 158//156
f 137//136 160//158 159//157
f 139//138 160//158 138//137
f 140//139 161//159 139//138
f 141//140 162//160 140//139
f 142//142 163//161 141//140
f 143//141 164//162 142//142
f 143//141 166//163 165//164
f 144//143 167//165 166//163
f 145//144 168//166 167//165
f 146//145 169//167 168//166
f 147//146 170//168 169//167
f 148//147 171//169 170//168
f 150//149 171//169 149//148
f 151//150 172//170 150//149
f 152//151 173//171 151//150
f 153//152 174//172 152//151
f 154//173 175//174 153//152
f 155//154 178//175 177//176
f 156//153 179//177 178//175
f 157//155 180//178 179//177
f 158//156 181//179 180//178
f 159//157 182//180 181//179
f 161//159 182//180 160//158
f 162//160 183//181 161//159
f 163//161 184//182 162//160
f 164//162 185//183 163//161
f 165//164 186//184 164//162
f 165//164 188//185 187//186
f 166//163 189//187 188//185
f 167//165 190//188 189//187
f 168//166 191//189 190//188
f 169//167 192//190 191//189
f 170//168 193//191 192//190
f 172//170 193//191 171//169
f 173//171 194//192 172//170
f 174//172 195//193 173//171
f 175//174 196//194 174//172
f 176//195 197//196 175//174
f 177//176 200//197 199//198
f 178//175 201//199 200//197
f 179//177 202//200 201//199
f 180//178 203//201 202//200
f 181//179 204//202 203//201
f 183//181 204//202 182//180
f 184//182 205//203 183//181
f 185//183 206//204 184//182
f 186//184 207//205 185//183
f 187//186 208//206 186//184
f 187//186 210//207 209//208
f 188//185 211//209 210//207
f 189//187 212//210 211//209
f 190//188 213//211 212//210
f 191//189 214//212 213//211
f 192//190 215//213 214//212
f 194//192 215//213 193//191
f 195//193 216//214 194//192
f 196//194 217//215 195//193
f 197//196 218//216 196//194
f 198//217 219//218 197//196
f 199//198 222//219 221//220
f 200//197 223//221 222//219
f 201//199 224//222 223//221
f 202//200 225//223 224//222
f 203//201 226//224 225//223
f 204//202 227//225 226//224
f 205//203 228//226 227//225
f 207//205 228//226 206//204
f 208//206 229//227 207//205
f 209//208 230//228 208//206
f 209//208 232//229 231//230
f 210//207 233//231 232//229
f 211//209 234//232 233//231
f 212//210 235//233 234//232
f 213//211 236//234 235//233
f 214//212 237//235 236//234
f 216//214 237//235 215//213
f 217//215 238//236 216//214
f 218//216 239//237 217//215
f 219//218 240//238 218//216
f 220//239 241//240 219//218
f 222//219 243//241 221//220
f 223//221 244//242 222//219
f 224//222 245//243 223//221
f 225//223 246//244 224//222
f 225//223 248//245 247//246
f 226//224 249//247 248//245
f 227//225 250//248 249//247
f 228//226 251//249 250//248
f 229//227 252//250 251//249
f 231//230 252//250 230//228
f 231//230 254//251 253//252
f 232//229 255//253 254//251
f 233//231 256//254 255//253
f 234//232 257//255 256//254
f 235//233 258//256 257//255
f 236//234 259//257 258//256
f 237//235 260//258 259//257
f 239//237 260//258 238//236
f 240//238 261//259 239//237
f 241//240 262//260 240//238
f 242//261 263//262 241//240
f 244//242 265//263 243//241
f 245//243 266//264 244//242
f 246//244 267//265 245//243
f 247//246 268//266 246//244
f 248//245 269//267 247//246
f 248//245 271//268 270//269
f 249//247 272//270 271//268
f 250//248 273//271 272//270
f 251//249 274//272 273//271
f 252//250 275//273 274//272
f 254//251 275//273 253//252
f 255//253 276//274 254//251
f 256//254 277//275 255//253
f 257//255 278//276 256//254
f 258//256 279//277 257//255
f 258//256 281//278 280//279
f 259//257 282//280 281//278
f 260//258 283//281 282//280
f 261//259 284//282 283//281
f 262//260 285//283 284//282
f 263//262 286//284 285//283
f 266//264 287//285 265//263
f 267//265 288//286 266//264
f 268//266 289//287 267//265
f 269//267 290//288 268//266
f 270//269 291//289 269//267
f 270//269 293//290 292//291
f 271//268 294//292 293//290
f 272//270 295//293 294//292
f 273//271 296//294 295//293
f 274//272 297//295 296//294
f 276//274 297//295 275//273
f 277//275 298//296 276//274
f 278//276 299//297 277//275
f 279//277 300//298 278//276
f 280//279 301//299 279//277
f 280//279 303//300 302//301
f 281//278 304//302 303//300
f 282//280 305//303 304//302
f 283//281 306//304 305//303
f 284//282 307//305 306//304
f 285//283 308//306 307//305
f 288//286 309//307 287//285
f 289//287 310//308 288//286
f 290//288 311//309 289//287
f 291//289 312//310 290//288
f 292//291 313//311 291//289
f 292//291 315//312 314//313
f 293//290 316//314 315//312
f 294//292 317//315 316//314
f 295//293 318//316 317//315
f 296//294 319//317 318//316
f 298//296 319//317 297//295
f 299//297 320//318 298//296
f 300//298 321//319 299//297
f 301//299 322//320 300//298
f 302//301 323//321 301//299
f 303//300 324//322 302//301
f 303//300 326//323 325//324
f 304//302 327//325 326//323
f 305//303 328//326 327//325
f 306//304 329//327 328//326
f 307//305 330//328 329//327
f 310//308 331//329 309//307
f 311//309 332//330 310//308
f 312//310 333//331 311//309
f 313//311 334//332 312//310
f 314//313 335//333 313//311
f 314//313 337//334 336//335
f 315//312 338//336 337//334
f 316//314 339//337 338//336
f 317//315 340//338 339//337
f 318//316 341//339 340//338
f 319//317 342//340 341//339
f 321//319 342//340 320//318
f 322//320 343//341 321//319
f 323//321 344//342 322//320
f 324//322 345//343 323//321
f 325//324 346//344 324//322
f 325//324 348//345 347//346
f 326//323 349//347 348//345
f 327//325 350//348 349//347
f 328//326 351//349 350//348
f 329//327 352//350 351//349
f 332//330 353//351 331//329
f 333//331 354//352 332//330
f 334//332 355//353 333//331
f 335//333 356//354 334//332
f 336//335 357//355 335//333
f 336//335 359//356 358//357
f 337//334 360//358 359//356
f 338//336 361//359 360//358
f 339//337 362//360 361//359
f 340//338 363//361 362//360
f 341//339 364//362 363//361
f 342//340 365//363 364//362
f 343//341 366//364 365//363
f 344//342 367//365 366//364
f 345//343 368//366 367//365
f 347//346 368//366 346//344
f 347//346 370//367 369//368
f 348//345 371//369 370//367
f 349//347 372//370 371//369
f 350//348 373//371 372//370
f 351//349 374//372 373//371
f 353//351 376//373 375//374
f 354//352 377//375 376//373
f 355//353 378//376 377//375
f 356//354 379//377 378//376
f 357//355 380//378 379//377
f 359//356 380//378 358//357
f 360//358 381//379 359//356
f 361//359 382//380 360//358
f 362//360 383//381 361//359
f 363//361 384//382 362//360
f 363//361 386//383 385//384
f 364//362 387//385 386//383
f 365//363 388//386 387//385
f 366//364 389//387 388//386
f 367//365 390//388 389//387
f 368//366 391//389 390//388
f 370//367 391//389 369//368
f 371//369 392//390 370//367
f 372//370 393//391 371//369
f 373//371 394//392 372//370
f 374//372 395//393 373//371
f 375//374 398//394 397//395
f 376//373 399//396 398//394
f 377//375 400//397 399//396
f 378//376 401//398 400//397
f 379//377 402//399 401//398
f 381//379 402//399 380//378
f 382//380 403//400 381//379
f 383//381 404//401 382//380
f 384//382 405//402 383//381
f 385//384 406//403 384//382
f 385//384 408//404 407//405
f 386//383 409//406 408//404
f 387//385 410//407 409//406
f 388//386 411//408 410//407
f 389//387 412//409 411//408
f 390//388 413//410 412//409
f 392//390 413//410 391//389
f 393//391 414//411 392//390
f 394//392 415//412 393//391
f 395//393 416//413 394//392
f 396//414 417//415 395//393
f 397//395 420//416 419//417
f 398//394 421//418 420//416
f 399//396 422//419 421//418
f 400//397 423//420 422//419
f 401//398 424//421 423//420
f 403//400 424//421 402//399
f 404//401 425//422 403//400
f 405//402 426//423 404//401
f 406//403 427//424 405//402
f 407//405 428//425 406//403
f 407//405 430//426 429//427
f 408//404 431//428 430//426
f 409//406 432//429 431//428
f 410//407 433//430 432//429
f 411//408 434//431 433//430
f 412//409 435//432 434//431
f 414//411 435//432 413//410
f 415//412 436//433 414//411
f 416//413 437//434 415//412
f 417//415 438//435 416//413
f 418//436 439//437 417//415
f 419//417 442//438 441//439
f 420//416 443//440 442//438
f 421//418 444//441 443//440
f 422//419 445//442 444//441
f 423//420 446//443 445//442
f 425//422 446//443 424//421
f 426//423 447//444 425//422
f 427//424 448//445 426//423
f 428//425 449//446 427//424
f 429//427 450//447 428//425
f 429//427 452//448 451//449
f 430//426 453//450 452//448
f 431//428 454//451 453//450
f 432//429 455//452 454//451
f 433//430 456//453 455//452
f 434//431 457//454 456//453
f 436//433 457//454 435//432
f 437//434 458//455 436//433
f 438//435 459//456 437//434
f 439//437 460//457 438//435
f 440//458 461//459 439//437
f 441//439 464//460 463//3
f 442//438 465//461 464//460
f 443//440 466//462 465//461
f 444//441 467//463 466//462
f 445//442 468//464 467//463
f 447//444 468//464 446//443
f 448//445 469//465 447//444
f 449//446 470//466 448//445
f 450//447 471//467 449//446
f 451//449 472//468 450//447
f 451//449 474//469 473//470
f 452//448 475//471 474//469
f 453//450 476//472 475//471
f 454//451 477//473 476//472
f 455//452 478//474 477//473
f 456//453 479//475 478//474
f 458//455 479//475 457//454
f 459//456 480//476 458//455
f 460//457 481//477 459//456
f 461//459 482//478 460//457
f 462//479 483//480 461//459
s 0
f 485//481 2//481 1//481
f 486//481 3//481 2//481
f 487//481 4//481 3//481
f 488//481 5//481 4//481
f 489//481 6//481 5//481
f 490//481 7//481 6//481
f 491//481 8//481 7//481
f 492//481 9//481 8//481
f 493//481 10//481 9//481
f 494//481 11//481 10//481
f 495//481 12//481 11//481
f 496//481 13//481 12//481
f 497//481 14//481 13//481
f 498//481 15//481 14//481
f 499//481 16//481 15//481
f 500//481 17//481 16//481
f 501//481 18//481 17//481
f 502//481 19//481 18//481
f 503//481 20//481 19//481
f 504//481 21//481 20//481
f 505//481 22//481 21//481
f 506//482 44//482 22//482
f 507//482 66//482 44//482
f 508//482 88//482 66//482
f 509//482 110//482 88//482
f 510//482 132//482 110//482
f 511//482 154//482 132//482
f 512//482 176//482 154//482
f 513//482 198//482 176//482
f 514//482 220//482 198//482
f 515//482 242//482 220//482
f 516//482 264//482 242//482
f 517//482 286//482 264//482
f 518//482 308//482 286//482
f 519//482 330//482 308//482
f 520//482 352//482 330//482
f 521//482 374//482 352//482
f 522//482 396//482 374//482
f 523//482 418//482 396//482
f 524//482 440//482 418//482
f 525//482 462//482 440//482
f 526//482 484//482 462//482
f 527//483 483//483 484//483
f 528//483 482//483 483//483
f 529//483 481//483 482//483
f 530//483 480//483 481//483
f 531//483 479//483 480//483
f 532//483 478//483 479//483
f 533//483 477//483 478//483
f 534//483 476//483 477//483
f 535//483 475//483 476//483
f 536//483 474//483 475//483
f 537//483 473//483 474//483
f 538//483 472//483 473//483
f 539//483 471//483 472//483
f 540//483 470//483 471//483
f 541//483 469//483 470//483
f 542//483 468//483 469//483
f 543//483 467//483 468//483
f 544//483 466//483 467//483
f 545//483 465//483 466//483
f 546//483 464//483 465//483
f 547//483 463//483 464//483
f 548//484 441//484 463//484
f 549//484 419//484 441//484
f 550//484 397//484 419//484
f 551//484 375//484 397//484
f 552//484 353//484 375//484
f 553//484 331//484 353//484
f 554//484 309//484 331//484
f 555//484 287//484 309//484
f 556//484 265//484 287//484
f 557//484 243//484 265//484
f 558//484 221//484 243//484
f 559//484 199//484 221//484
f 560//484 177//484 199//484
f 561//484 155//484 177//484
f 562//484 133//484 155//484
f 563//484 111//484 133//484
f 564//484 89//484 111//484
f 565//484 67//484 89//484
f 566//484 45//484 67//484
f 567//484 23//484 45//484
f 568//484 1//484 23//484
f 569//485 486//485 485//485
f 569//485 487//485 486//485
f 569//485 488//485 487//485
f 569//485 489//485 488//485
f 569//485 490//485 489//485
f 569//485 491//485 490//485
f 569//485 492//485 491//485
f 569//485 493//485 492//485
f 569//485 494//485 493//485
f 569//485 495//485 494//485
f 569//485 496//485 495//485
f 569//485 497//485 496//485
f 569//485 498//485 497//485
f 569//485 499//485 498//485
f 569//485 500//485 499//485
f 569//485 501//485 500//485
f 569//485 502//485 501//485
f 569//485 503//485 502//485
f 569//485 504//485 503//485
f 569//485 505//485 504//485
f 569//485 506//485 505//485
f 569//485 507//485 506//485
f 569//485 508//485 507//485
f 569//485 509//485 508//485
f 569//485 510//485 509//485
f 569//485 511//485 510//485
f 569//485 512//485 511//485
f 569//485 513//485 512//485
f 569//485 514//485 513//485
f 569//485 515//485 514//485
f 569//485 516//485 515//485
f 569//485 517//485 516//485
f 569//485 518//485 517//485
f 569//485 519//485 518//485
f 569//485 520//485 519//485
f 569//485 521//485 520//485
f 569//485 522//485 521//485
f 569//485 523//485 522//485
f 569//485 524//485 523//485
f 569//485 525//485 524//485
f 569//485 526//485 525//485
f 569//485 527//485 526//485
f 569//485 528//485 527//485
f 569//485 529//485 528//485
f 569//485 530//485 529//485
f 569//485 531//485 530//485
f 569//485 532//485 531//485
f 569//485 533//485 532//485
f 569//485 534//485 533//485
f 569//485 535//485 534//485
f 569//485 536//485 535//485
f 569//485 537//485 536//485
f 569//485 538//485 537//485
f 569//485 539//485 538//485
f 569//485 540//485 539//485
f 569//485 541//485 540//485
f 569//485 542//485 541//485
f 569//485 543//485 542//485
f 569//485 544//485 543//485
f 569//485 545//485 544//485
f 569//485 546//485 545//485
f 569//485 547//485 546//485
f 569//485 548//485 547//485
f 569//485 549//485 548//485
f 569//485 550//485 549//485
f 569//485 551//485 550//485
f 569//485 552//485 551//485
f 569//485 553//485 552//485
f 569//485 554//485 553//485
f 569//485 555//485 554//485
f 569//485 556//485 555//485
f 569//485 557//485 556//485
f 569//485 558//485 557//485
f 569//485 559//485 558//485
f 569//485 560//485 559//485
f 569//485 561//485 560//485
f 569//485 562//485 561//485
f 569//485 563//485 562//485
f 569//485 564//485 563//485
f 569//485 565//485 564//485
f 569//485 566//485 565//485
f 569//485 567//485 566//485
f 569//485 568//485 567//485
f 569//485 485//485 568//485
s 1
f 2//1 24//5 23//2
f 3//4 25//7 24//5
f 4//6 26//9 25//7
f 5//8 27//11 26//9
f 6//10 28//13 27//11
f 6//10 7//14 29//12
f 7//14 8//16 30//15
f 8//16 9//18 31//17
f 9//18 10//20 32//19
f 10//20 11//23 33//21
f 12//22 34//25 33//21
f 13//24 35//27 34//25
f 14//26 36//29 35//27
f 15//28 37//31 36//29
f 16//30 38//33 37//31
f 17//32 39//35 38//33
f 17//32 18//36 40//34
f 18//36 19//38 41//37
f 19//38 20//40 42//39
f 20//40 21//42 43//41
f 21//42 22//3 44//43
f 24//5 46//45 45//44
f 25//7 47//46 46//45
f 26//9 48//47 47//46
f 27//11 49//48 48//47
f 28//13 50//50 49//48
f 28//13 29//12 51//49
f 29//12 30//15 52//51
f 30//15 31//17 53//52
f 31//17 32//19 54//53
f 32//19 33//21 55//54
f 34//25 56//55 55//54
f 35//27 57//56 56//55
f 36//29 58//57 57//56
f 37//31 59//58 58//57
f 38//33 60//59 59//58
f 39//35 61//61 60//59
f 39//35 40//34 62//60
f 40//34 41//37 63//62
f 41//37 42//39 64//63
f 42//39 43//41 65//64
f 43//41 44//43 66//65
f 46//45 68//67 67//66
f 47//46 69//68 68//67
f 48//47 70//69 69//68
f 49//48 71//70 70//69
f 50//50 72//72 71//70
f 50//50 51//49 73//71
f 51//49 52//51 74//73
f 52//51 53//52 75//74
f 53//52 54//53 76//75
f 54//53 55//54 77//76
f 56//55 78//77 77//76
f 57//56 79//78 78//77
f 58//57 80//79 79//78
f 59//58 81//80 80//79
f 60//59 82//81 81//80
f 61//61 83//83 82//81
f 61//61 62//60 84//82
f 62//60 63//62 85//84
f 63//62 64//63 86//85
f 64//63 65//64 87//86
f 65//64 66//65 88//87
f 68//67 90//89 89//88
f 69//68 91//90 90//89
f 70//69 92//91 91//90
f 71//70 93//92 92//91
f 72//72 94//94 93//92
f 72//72 73//71 95//93
f 73//71 74//73 96//95
f 74//73 75//74 97//96
f 75//74 76//75 98//97
f 76//75 77//76 99//98
f 78//77 100//99 99//98
f 79//78 101//100 100//99
f 80//79 102//101 101//100
f 81//80 103//102 102//101
f 82//81 104//103 103//102
f 83//83 105//105 104//103
f 83//83 84//82 106//104
f 84//82 85//84 107//106
f 85//84 86//85 108//107
f 86//85 87//86 109//108
f 87//86 88//87 110//109
f 90//89 112//111 111//110
f 91//90 113//112 112//111
f 92//91 114//113 113//112
f 93//92 115//114 114//113
f 94//94 116//116 115//114
f 94//94 95//93 117//115
f 95//93 96//95 118//117
f 96//95 97//96 119//118
f 97//96 98//97 120//119
f 98//97 99//98 121//120
f 99//98 100//99 122//121
f 101//100 123//122 122//121
f 102//101 124//123 123//122
f 103//102 125//124 124//123
f 104//103 126//125 125//124
f 105//105 127//127 126//125
f 105//105 106//104 128//126
f 106//104 107//106 129//128
f 107//106 108//107 130//129
f 108//107 109//108 131//130
f 109//108 110//109 132//131
f 111//110 112//111 134//132
f 112//111 113//112 135//134
f 113//112 114//113 136//135
f 114//113 115//114 137//136
f 115//114 116//116 138//137
f 117//115 139//138 138//137
f 118//117 140//139 139//138
f 119//118 141//140 140//139
f 120//119 142//142 141//140
f 120//119 121//120 143//141
f 121//120 122//121 144//143
f 122//121 123//122 145//144
f 123//122 124//123 146//145
f 125//124 147//146 146//145
f 126//125 148//147 147//146
f 127//127 149//148 148//147
f 128//126 150//149 149//148
f 129//128 151//150 150//149
f 130//129 152//151 151//150
f 131//130 153//152 152//151
f 132//131 154//173 153//152
f 133//133 134//132 156//153
f 134//132 135//134 157//155
f 135//134 136//135 158//156
f 136//135 137//136 159//157
f 137//136 138//137 160//158
f 139//138 161//159 160//158
f 140//139 162//160 161//159
f 141//140 163//161 162//160
f 142//142 164//162 163//161
f 143//141 165//164 164//162
f 143//141 144//143 166//163
f 144//143 145//144 167//165
f 145//144 146//145 168//166
f 146//145 147//146 169//167
f 147//146 148//147 170//168
f 148//147 149//148 171//169
f 150//149 172//170 171//169
f 151//150 173//171 172//170
f 152//151 174//172 173//171
f 153//152 175//174 174//172
f 154//173 176//195 175//174
f 155//154 156//153 178//175
f 156//153 157//155 179//177
f 157//155 158//156 180//178
f 158//156 159//157 181//179
f 159//157 160//158 182//180
f 161//159 183//181 182//180
f 162//160 184//182 183//181
f 163//161 185//183 184//182
f 164//162 186//184 185//183
f 165//164 187//186 186//184
f 165//164 166//163 188//185
f 166//163 167//165 189//187
f 167//165 168//166 190//188
f 168//166 169//167 191//189
f 169//167 170//168 192//190
f 170//168 171//169 193//191
f 172//170 194//192 193//191
f 173//171 195//193 194//192
f 174//172 196//194 195//193
f 175//174 197//196 196//194
f 176//195 198//217 197//196
f 177//176 178//175 200//197
f 178//175 179//177 201//199
f 179//177 180//178 202//200
f 180//178 181//179 203//201
f 181//179 182//180 204//202
f 183//181 205//203 204//202
f 184//182 206//204 205//203
f 185//183 207//205 206//204
f 186//184 208//206 207//205
f 187//186 209//208 208//206
f 187//186 188//185 210//207
f 188//185 189//187 211//209
f 189//187 190//188 212//210
f 190//188 191//189 213//211
f 191//189 192//190 214//212
f 192//190 193//191 215//213
f 194//192 216//214 215//213
f 195//193 217//215 216//214
f 196//194 218//216 217//215
f 197//196 219//218 218//216
f 198//217 220//239 219//218
f 199//198 200//197 222//219
f 200//197 201//199 223//221
f 201//199 202//200 224//222
f 202//200 203//201 225//223
f 203//201 204//202 226//224
f 204//202 205//203 227//225
f 205//203 206//204 228//226
f 207//205 229//227 228//226
f 208//206 230//228 229//227
f 209//208 231//230 230//228
f 209//208 210//207 232//229
f 210//207 211//209 233//231
f 211//209 212//210 234//232
f 212//210 213//211 235//233
f 213//211 214//212 236//234
f 214//212 215//213 237//235
f 216//214 238//236 237//235
f 217//215 239//237 238//236
f 218//216 240//238 239//237
f 219//218 241//240 240//238
f 220//239 242//261 241//240
f 222//219 244//242 243//241
f 223//221 245//243 244//242
f 224//222 246//244 245//243
f 225//223 247//246 246//244
f 225//223 226//224 248//245
f 226//224 227//225 249//247
f 227//225 228//226 250//248
f 228//226 229//227 251//249
f 229//227 230//228 252//250
f 231//230 253//252 252//250
f 231//230 232//229 254//251
f 232//229 233//231 255//253
f 233//231 234//232 256//254
f 234//232 235//233 257//255
f 235//233 236//234 258//256
f 236//234 237//235 259//257
f 237//235 238//236 260//258
f 239//237 261//259 260//258
f 240//238 262//260 261//259
f 241//240 263//262 262//260
f 242//261 264//486 263//262
f 244//242 266//264 265//263
f 245//243 267//265 266//264
f 246//244 268//266 267//265
f 247//246 269//267 268//266
f 248//245 270//269 269//267
f 248//245 249//247 271//268
f 249//247 250//248 272//270
f 250//248 251//249 273//271
f 251//249 252//250 274//272
f 252//250 253//252 275//273
f 254//251 276//274 275//273
f 255//253 277//275 276//274
f 256//254 278//276 277//275
f 257//255 279//277 278//276
f 258//256 280//279 279//277
f 258//256 259//257 281//278
f 259//257 260//258 282//280
f 260//258 261//259 283//281
f 261//259 262//260 284//282
f 262//260 263//262 285//283
f 263//262 264//486 286//284
f 266//264 288//286 287//285
f 267//265 289//287 288//286
f 268//266 290//288 289//287
f 269//267 291//289 290//288
f 270//269 292//291 291//289
f 270//269 271//268 293//290
f 271//268 272//270 294//292
f 272//270 273//271 295//293
f 273//271 274//272 296//294
f 274//272 275//273 297//295
f 276//274 298//296 297//295
f 277//275 299//297 298//296
f 278//276 300//298 299//297
f 279//277 301//299 300//298
f 280//279 302//301 301//299
f 280//279 281//278 303//300
f 281//278 282//280 304//302
f 282//280 283//281 305//303
f 283//281 284//282 306//304
f 284//282 285//283 307//305
f 285//283 286//284 308//306
f 288//286 310//308 309//307
f 289//287 311//309 310//308
f 290//288 312//310 311//309
f 291//289 313//311 312//310
f 292//291 314//313 313//311
f 292//291 293//290 315//312
f 293//290 294//292 316//314
f 294//292 295//293 317//315
f 295//293 296//294 318//316
f 296//294 297//295 319//317
f 298//296 320//318 319//317
f 299//297 321//319 320//318
f 300//298 322//320 321//319
f 301//299 323//321 322//320
f 302//301 324//322 323//321
f 303//300 325//324 324//322
f 303//300 304//302 326//323
f 304//302 305//303 327//325
f 305//303 306//304 328//326
f 306//304 307//305 329//327
f 307//305 308//306 330//328
f 310//308 332//330 331//329
f 311//309 333//331 332//330
f 312//310 334//332 333//331
f 313//311 335//333 334//332
f 314//313 336//335 335//333
f 314//313 315//312 337//334
f 315//312 316//314 338//336
f 316//314 317//315 339//337
f 317//315 318//316 340//338
f 318//316 319//317 341//339
f 319//317 320//318 342//340
f 321//319 343//341 342//340
f 322//320 344//342 343//341
f 323//321 345//343 344//342
f 324//322 346//344 345//343
f 325//324 347//346 346//344
f 325//324 326//323 348//345
f 326//323 327//325 349//347
f 327//325 328//326 350//348
f 328//326 329//327 351//349
f 329//327 330//328 352//350
f 332//330 354//352 353//351
f 333//331 355//353 354//352
f 334//332 356//354 355//353
f 335//333 357//355 356//354
f 336//335 358//357 357//355
f 336//335 337//334 359//356
f 337//334 338//336 360//358
f 338//336 339//337 361//359
f 339//337 340//338 362//360
f 340//338 341//339 363//361
f 341//339 342//340 364//362
f 342//340 343//341 365//363
f 343//341 344//342 366//364
f 344//342 345//343 367//365
f 345//343 346//344 368//366
f 347//346 369//368 368//366
f 347//346 348//345 370//367
f 348//345 349//347 371//369
f 349//347 350//348 372//370
f 350//348 351//349 373//371
f 351//349 352//350 374//372
f 353//351 354//352 376//373
f 354//352 355//353 377//375
f 355//353 356//354 378//376
f 356//354 357//355 379//377
f 357//355 358//357 380//378
f 359//356 381//379 380//378
f 360//358 382//380 381//379
f 361//359 383//381 382//380
f 362//360 384//382 383//381
f 363//361 385//384 384//382
f 363//361 364//362 386//383
f 364//362 365//363 387//385
f 365//363 366//364 388//386
f 366//364 367//365 389//387
f 367//365 368//366 390//388
f 368//366 369//368 391//389
f 370//367 392//390 391//389
f 371//369 393//391 392//390
f 372//370 394//392 393//391
f 373//371 395//393 394//392
f 374//372 396//414 395//393
f 375//374 376//373 398//394
f 376//373 377//375 399//396
f 377//375 378//376 400//397
f 378//376 379//377 401//398
f 379//377 380//378 402//399
f 381//379 403//400 402//399
f 382//380 404//401 403//400
f 383//381 405//402 404//401
f 384//382 406//403 405//402
f 385//384 407//405 406//403
f 385//384 386//383 408//404
f 386//383 387//385 409//406
f 387//385 388//386 410//407
f 388//386 389//387 411//408
f 389//387 390//388 412//409
f 390//388 391//389 413//410
f 392//390 414//411 413//410
f 393//391 415//412 414//411
f 394//392 416//413 415//412
f 395//393 417//415 416//413
f 396//414 418//436 417//415
f 397//395 398//394 420//416
f 398//394 399//396 421//418
f 399//396 400//397 422//419
f 400//397 401//398 423//420
f 401//398 402//399 424//421
f 403//400 425//422 424//421
f 404//401 426//423 425//422
f 405//402 427//424 426//423
f 406//403 428//425 427//424
f 407//405 429//427 428//425
f 407//405 408//404 430//426
f 408//404 409//406 431//428
f 409//406 410//407 432//429
f 410//407 411//408 433//430
f 411//408 412//409 434//431
f 412//409 413//410 435//432
f 414//411 436//433 435//432
f 415//412 437//434 436//433
f 416//413 438//435 437//434
f 417//415 439//437 438//435
f 418//436 440//458 439//437
f 419//417 420//416 442//438
f 420//416 421//418 443//440
f 421//418 422//419 444//441
f 422//419 423//420 445//442
f 423//420 424//421 446//443
f 425//422 447//444 446//443
f 426//423 448//445 447//444
f 427//424 449//446 448//445
f 428//425 450//447 449//446
f 429//427 451//449 450//447
f 429//427 430//426 452//448
f 430//426 431//428 453//450
f 431//428 432//429 454//451
f 432//429 433//430 455//452
f 433//430 434//431 456//453
f 434//431 435//432 457//454
f 436//433 458//455 457//454
f 437//434 459//456 458//455
f 438//435 460//457 459//456
f 439//437 461//459 460//457
f 440//458 462//479 461//459
f 441//439 442//438 464//460
f 442//438 443//440 465//461
f 443//440 444//441 466//462
f 444//441 445//442 467//463
f 445//442 446//443 468//464
f 447//444 469//465 468//464
f 448//445 470//466 469//465
f 449//446 471//467 470//466
f 450//447 472//468 471//467
f 451//449 473//470 472//468
f 451//449 452//448 474//469
f 452//448 453//450 475//471
f 453//450 454//451 476//472
f 454//451 455//452 477//473
f 455//452 456//453 478//474
f 456//453 457//454 479//475
f 458//455 480//476 479//475
f 459//456 481//477 480//476
f 460//457 482//478 481//477
f 461//459 483//480 482//478
f 462//479 484//3 483//480
s 0
f 485//481 486//481 2//481
f 486//481 487//481 3//481
f 487//481 488//481 4//481
f 488//481 489//481 5//481
f 489//481 490//481 6//481
f 490//481 491//481 7//481
f 491//481 492//481 8//481
f 492//481 493//481 9//481
f 493//481 494//481 10//481
f 494//481 495//481 11//481
f 495//481 496//481 12//481
f 496//481 497//481 13//481
f 497//481 498//481 14//481
f 498//481 499//481 15//481
f 499//481 500//481 16//481
f 500//481 501//481 17//481
f 501//481 502//481 18//481
f 502//481 503//481 19//481
f 503//481 504//481 20//481
f 504//481 505//481 21//481
f 505//481 506//481 22//481
f 506//482 507//482 44//482
f 507//482 508//482 66//482
f 508//482 509//482 88//482
f 509//482 510//482 110//482
f 510//482 511//482 132//482
f 511//482 512//482 154//482
f 512//482 513//482 176//482
f 513//482 514//482 198//482
f 514//482 515//482 220//482
f 515//482 516//482 242//482
f 516//482 517//482 264//482
f 517//482 518//482 286//482
f 518//482 519//482 308//482
f 519//482 520//482 330//482
f 520//482 521//482 352//482
f 521//482 522//482 374//482
f 522//482 523//482 396//482
f 523//482 524//482 418//482
f 524//482 525//482 440//482
f 525//482 526//482 462//482
f 526//482 527//482 484//482
f 527//483 528//483 483//483
f 528//483 529//483 482//483
f 529//483 530//483 481//483
f 530//483 531//483 480//483
f 531//483 532//483 479//483
f 532//483 533//483 478//483
f 533//483 534//483 477//483
f 534//483 535//483 476//483
f 535//483 536//483 475//483
f 536//483 537//483 474//483
f 537//483 538//483 473//483
f 538//483 539//483 472//483
f 539//483 540//483 471//483
f 540//483 541//483 470//483
f 541//483 542//483 469//483
f 542//483 543//483 468//483
f 543//483 544//483 467//483
f 544//483 545//483 466//483
f 545//483 546//483 465//483
f 546//483 547//483 464//483
f 547//483 548//483 463//483
f 548//484 549//484 441//484
f 549//484 550//484 419//484
f 550//484 551//484 397//484
f 551//484 552//484 375//484
f 552//484 553//484 353//484
f 553//484 554//484 331//484
f 554//484 555//484 309//484
f 555//484 556//484 287//484
f 556//484 557//484 265//484
f 557//484 558//484 243//484
f 558//484 559//484 221//484
f 559//484 560//484 199//484
f 560//484 561//484 177//484
f 561//484 562//484 155//484
f 562//484 563//484 133//484
f 563//484 564//484 111//484
f 564//484 565//484 89//484
f 565//484 566//484 67//484
f 566//484 567//484 45//484
f 567//484 568//484 23//484
f 568//484 485//484 1//484
