# Blender 5.2.0 LTS
# www.blender.org
o KineticSand_Tile
v -1.600000 0.000000 1.600000
v -1.472000 0.000000 1.600000
v -1.344000 0.000000 1.600000
v -1.216000 0.000000 1.600000
v -1.088000 0.000000 1.600000
v -0.960000 0.000000 1.600000
v -0.832000 0.000000 1.600000
v -0.704000 0.000000 1.600000
v -0.576000 0.000000 1.600000
v -0.448000 0.000000 1.600000
v -0.320000 0.000000 1.600000
v -0.192000 0.000000 1.600000
v -0.064000 0.000000 1.600000
v 0.064000 0.000000 1.600000
v 0.192000 0.000000 1.600000
v 0.320000 0.000000 1.600000
v 0.448000 0.000000 1.600000
v 0.576000 0.000000 1.600000
v 0.704000 0.000000 1.600000
v 0.832000 0.000000 1.600000
v 0.960000 0.000000 1.600000
v 1.088000 0.000000 1.600000
v 1.216000 0.000000 1.600000
v 1.344000 0.000000 1.600000
v 1.472000 0.000000 1.600000
v 1.600000 0.000000 1.600000
v -1.600000 0.000000 1.472000
v -1.472000 0.206253 1.472000
v -1.344000 0.211953 1.472000
v -1.216000 0.208312 1.472000
v -1.088000 0.208415 1.472000
v -0.960000 0.210264 1.472000
v -0.832000 0.218270 1.472000
v -0.704000 0.211487 1.472000
v -0.576000 0.214315 1.472000
v -0.448000 0.218977 1.472000
v -0.320000 0.218755 1.472000
v -0.192000 0.218697 1.472000
v -0.064000 0.216192 1.472000
v 0.064000 0.215965 1.472000
v 0.192000 0.221917 1.472000
v 0.320000 0.226666 1.472000
v 0.448000 0.237008 1.472000
v 0.576000 0.246182 1.472000
v 0.704000 0.257158 1.472000
v 0.832000 0.258207 1.472000
v 0.960000 0.267378 1.472000
v 1.088000 0.264113 1.472000
v 1.216000 0.259100 1.472000
v 1.344000 0.254202 1.472000
v 1.472000 0.265086 1.472000
v 1.600000 0.000000 1.472000
v -1.600000 0.000000 1.344000
v -1.472000 0.216198 1.344000
v -1.344000 0.532825 1.344000
v -1.216000 0.550260 1.344000
v -1.088000 0.566540 1.344000
v -0.960000 0.572848 1.344000
v -0.832000 0.558636 1.344000
v -0.704000 0.559562 1.344000
v -0.576000 0.568463 1.344000
v -0.448000 0.578767 1.344000
v -0.320000 0.564782 1.344000
v -0.192000 0.566285 1.344000
v -0.064000 0.580407 1.344000
v 0.064000 0.583217 1.344000
v 0.192000 0.588733 1.344000
v 0.320000 0.631884 1.344000
v 0.448000 0.655625 1.344000
v 0.576000 0.663624 1.344000
v 0.704000 0.675680 1.344000
v 0.832000 0.703570 1.344000
v 0.960000 0.698606 1.344000
v 1.088000 0.695403 1.344000
v 1.216000 0.689849 1.344000
v 1.344000 0.662272 1.344000
v 1.472000 0.262762 1.344000
v 1.600000 0.000000 1.344000
v -1.600000 0.000000 1.216000
v -1.472000 0.210645 1.216000
v -1.344000 0.545363 1.216000
v -1.216000 0.632590 1.216000
v -1.088000 0.650137 1.216000
v -0.960000 0.659115 1.216000
v -0.832000 0.657804 1.216000
v -0.704000 0.657376 1.216000
v -0.576000 0.663093 1.216000
v -0.448000 0.674160 1.216000
v -0.320000 0.685036 1.216000
v -0.192000 0.683189 1.216000
v -0.064000 0.703607 1.216000
v 0.064000 0.707171 1.216000
v 0.192000 0.706526 1.216000
v 0.320000 0.731020 1.216000
v 0.448000 0.756465 1.216000
v 0.576000 0.779612 1.216000
v 0.704000 0.801727 1.216000
v 0.832000 0.819372 1.216000
v 0.960000 0.793820 1.216000
v 1.088000 0.786952 1.216000
v 1.216000 0.778948 1.216000
v 1.344000 0.670795 1.216000
v 1.472000 0.268667 1.216000
v 1.600000 0.000000 1.216000
v -1.600000 0.000000 1.088000
v -1.472000 0.206328 1.088000
v -1.344000 0.551945 1.088000
v -1.216000 0.643209 1.088000
v -1.088000 0.658192 1.088000
v -0.960000 0.669424 1.088000
v -0.832000 0.685956 1.088000
v -0.704000 0.696728 1.088000
v -0.576000 0.700160 1.088000
v -0.448000 0.697162 1.088000
v -0.320000 0.704903 1.088000
v -0.192000 0.715166 1.088000
v -0.064000 0.734658 1.088000
v 0.064000 0.733958 1.088000
v 0.192000 0.723197 1.088000
v 0.320000 0.741861 1.088000
v 0.448000 0.763639 1.088000
v 0.576000 0.806726 1.088000
v 0.704000 0.837168 1.088000
v 0.832000 0.825403 1.088000
v 0.960000 0.806683 1.088000
v 1.088000 0.797059 1.088000
v 1.216000 0.784665 1.088000
v 1.344000 0.684170 1.088000
v 1.472000 0.268314 1.088000
v 1.600000 0.000000 1.088000
v -1.600000 0.000000 0.960000
v -1.472000 0.206870 0.960000
v -1.344000 0.558188 0.960000
v -1.216000 0.656666 0.960000
v -1.088000 0.672613 0.960000
v -0.960000 0.685183 0.960000
v -0.832000 0.709229 0.960000
v -0.704000 0.720739 0.960000
v -0.576000 0.725312 0.960000
v -0.448000 0.719856 0.960000
v -0.320000 0.723098 0.960000
v -0.192000 0.748149 0.960000
v -0.064000 0.760525 0.960000
v 0.064000 0.756041 0.960000
v 0.192000 0.742953 0.960000
v 0.320000 0.759632 0.960000
v 0.448000 0.769589 0.960000
v 0.576000 0.813658 0.960000
v 0.704000 0.844736 0.960000
v 0.832000 0.811307 0.960000
v 0.960000 0.812679 0.960000
v 1.088000 0.803162 0.960000
v 1.216000 0.791077 0.960000
v 1.344000 0.702293 0.960000
v 1.472000 0.266631 0.960000
v 1.600000 0.000000 0.960000
v -1.600000 0.000000 0.832000
v -1.472000 0.223077 0.832000
v -1.344000 0.574644 0.832000
v -1.216000 0.684400 0.832000
v -1.088000 0.694150 0.832000
v -0.960000 0.700458 0.832000
v -0.832000 0.738622 0.832000
v -0.704000 0.738290 0.832000
v -0.576000 0.739260 0.832000
v -0.448000 0.743517 0.832000
v -0.320000 0.755662 0.832000
v -0.192000 0.785623 0.832000
v -0.064000 0.781908 0.832000
v 0.064000 0.783790 0.832000
v 0.192000 0.794385 0.832000
v 0.320000 0.779281 0.832000
v 0.448000 0.789018 0.832000
v 0.576000 0.819027 0.832000
v 0.704000 0.838964 0.832000
v 0.832000 0.815280 0.832000
v 0.960000 0.808278 0.832000
v 1.088000 0.803167 0.832000
v 1.216000 0.806309 0.832000
v 1.344000 0.725334 0.832000
v 1.472000 0.272323 0.832000
v 1.600000 0.000000 0.832000
v -1.600000 0.000000 0.704000
v -1.472000 0.231459 0.704000
v -1.344000 0.616945 0.704000
v -1.216000 0.712303 0.704000
v -1.088000 0.720941 0.704000
v -0.960000 0.729613 0.704000
v -0.832000 0.742643 0.704000
v -0.704000 0.739652 0.704000
v -0.576000 0.752318 0.704000
v -0.448000 0.775725 0.704000
v -0.320000 0.793634 0.704000
v -0.192000 0.794912 0.704000
v -0.064000 0.796761 0.704000
v 0.064000 0.803448 0.704000
v 0.192000 0.814723 0.704000
v 0.320000 0.816380 0.704000
v 0.448000 0.815247 0.704000
v 0.576000 0.829678 0.704000
v 0.704000 0.839531 0.704000
v 0.832000 0.824131 0.704000
v 0.960000 0.820063 0.704000
v 1.088000 0.811687 0.704000
v 1.216000 0.821133 0.704000
v 1.344000 0.745475 0.704000
v 1.472000 0.273164 0.704000
v 1.600000 0.000000 0.704000
v -1.600000 0.000000 0.576000
v -1.472000 0.229503 0.576000
v -1.344000 0.617203 0.576000
v -1.216000 0.725260 0.576000
v -1.088000 0.732397 0.576000
v -0.960000 0.736795 0.576000
v -0.832000 0.757244 0.576000
v -0.704000 0.770459 0.576000
v -0.576000 0.783035 0.576000
v -0.448000 0.800646 0.576000
v -0.320000 0.813358 0.576000
v -0.192000 0.816618 0.576000
v -0.064000 0.821173 0.576000
v 0.064000 0.827509 0.576000
v 0.192000 0.835557 0.576000
v 0.320000 0.832697 0.576000
v 0.448000 0.823545 0.576000
v 0.576000 0.837075 0.576000
v 0.704000 0.852403 0.576000
v 0.832000 0.840347 0.576000
v 0.960000 0.826913 0.576000
v 1.088000 0.820202 0.576000
v 1.216000 0.829074 0.576000
v 1.344000 0.744511 0.576000
v 1.472000 0.271322 0.576000
v 1.600000 0.000000 0.576000
v -1.600000 0.000000 0.448000
v -1.472000 0.227836 0.448000
v -1.344000 0.622131 0.448000
v -1.216000 0.736762 0.448000
v -1.088000 0.738547 0.448000
v -0.960000 0.737864 0.448000
v -0.832000 0.771584 0.448000
v -0.704000 0.809376 0.448000
v -0.576000 0.819036 0.448000
v -0.448000 0.820805 0.448000
v -0.320000 0.826666 0.448000
v -0.192000 0.831286 0.448000
v -0.064000 0.840274 0.448000
v 0.064000 0.847014 0.448000
v 0.192000 0.853392 0.448000
v 0.320000 0.844801 0.448000
v 0.448000 0.834268 0.448000
v 0.576000 0.841324 0.448000
v 0.704000 0.858420 0.448000
v 0.832000 0.859357 0.448000
v 0.960000 0.847879 0.448000
v 1.088000 0.835923 0.448000
v 1.216000 0.832493 0.448000
v 1.344000 0.735744 0.448000
v 1.472000 0.271482 0.448000
v 1.600000 0.000000 0.448000
v -1.600000 0.000000 0.320000
v -1.472000 0.233086 0.320000
v -1.344000 0.652666 0.320000
v -1.216000 0.757978 0.320000
v -1.088000 0.759778 0.320000
v -0.960000 0.760501 0.320000
v -0.832000 0.775866 0.320000
v -0.704000 0.816610 0.320000
v -0.576000 0.828153 0.320000
v -0.448000 0.828602 0.320000
v -0.320000 0.842424 0.320000
v -0.192000 0.828943 0.320000
v -0.064000 0.836028 0.320000
v 0.064000 0.845676 0.320000
v 0.192000 0.861230 0.320000
v 0.320000 0.853063 0.320000
v 0.448000 0.862267 0.320000
v 0.576000 0.868063 0.320000
v 0.704000 0.879100 0.320000
v 0.832000 0.888200 0.320000
v 0.960000 0.880476 0.320000
v 1.088000 0.853253 0.320000
v 1.216000 0.831830 0.320000
v 1.344000 0.727368 0.320000
v 1.472000 0.276161 0.320000
v 1.600000 0.000000 0.320000
v -1.600000 0.000000 0.192000
v -1.472000 0.250232 0.192000
v -1.344000 0.688433 0.192000
v -1.216000 0.802446 0.192000
v -1.088000 0.792528 0.192000
v -0.960000 0.778425 0.192000
v -0.832000 0.798355 0.192000
v -0.704000 0.843423 0.192000
v -0.576000 0.844911 0.192000
v -0.448000 0.828454 0.192000
v -0.320000 0.819121 0.192000
v -0.192000 0.857888 0.192000
v -0.064000 0.858621 0.192000
v 0.064000 0.852335 0.192000
v 0.192000 0.846906 0.192000
v 0.320000 0.848924 0.192000
v 0.448000 0.872662 0.192000
v 0.576000 0.882945 0.192000
v 0.704000 0.889088 0.192000
v 0.832000 0.905846 0.192000
v 0.960000 0.899729 0.192000
v 1.088000 0.859694 0.192000
v 1.216000 0.822612 0.192000
v 1.344000 0.723184 0.192000
v 1.472000 0.266393 0.192000
v 1.600000 0.000000 0.192000
v -1.600000 0.000000 0.064000
v -1.472000 0.257234 0.064000
v -1.344000 0.720084 0.064000
v -1.216000 0.821711 0.064000
v -1.088000 0.815989 0.064000
v -0.960000 0.808741 0.064000
v -0.832000 0.810944 0.064000
v -0.704000 0.838851 0.064000
v -0.576000 0.846020 0.064000
v -0.448000 0.831482 0.064000
v -0.320000 0.812229 0.064000
v -0.192000 0.856646 0.064000
v -0.064000 0.875524 0.064000
v 0.064000 0.872217 0.064000
v 0.192000 0.854567 0.064000
v 0.320000 0.853033 0.064000
v 0.448000 0.879313 0.064000
v 0.576000 0.901029 0.064000
v 0.704000 0.913429 0.064000
v 0.832000 0.922957 0.064000
v 0.960000 0.893350 0.064000
v 1.088000 0.850506 0.064000
v 1.216000 0.803202 0.064000
v 1.344000 0.694677 0.064000
v 1.472000 0.258000 0.064000
v 1.600000 0.000000 0.064000
v -1.600000 0.000000 -0.064000
v -1.472000 0.256458 -0.064000
v -1.344000 0.719056 -0.064000
v -1.216000 0.822503 -0.064000
v -1.088000 0.818301 -0.064000
v -0.960000 0.811710 -0.064000
v -0.832000 0.809808 -0.064000
v -0.704000 0.832969 -0.064000
v -0.576000 0.844359 -0.064000
v -0.448000 0.835548 -0.064000
v -0.320000 0.817816 -0.064000
v -0.192000 0.853357 -0.064000
v -0.064000 0.875063 -0.064000
v 0.064000 0.875680 -0.064000
v 0.192000 0.861123 -0.064000
v 0.320000 0.856429 -0.064000
v 0.448000 0.876982 -0.064000
v 0.576000 0.902380 -0.064000
v 0.704000 0.919688 -0.064000
v 0.832000 0.928974 -0.064000
v 0.960000 0.894352 -0.064000
v 1.088000 0.856652 -0.064000
v 1.216000 0.810834 -0.064000
v 1.344000 0.689787 -0.064000
v 1.472000 0.259293 -0.064000
v 1.600000 0.000000 -0.064000
v -1.600000 0.000000 -0.192000
v -1.472000 0.249491 -0.192000
v -1.344000 0.689082 -0.192000
v -1.216000 0.809813 -0.192000
v -1.088000 0.805623 -0.192000
v -0.960000 0.794662 -0.192000
v -0.832000 0.799268 -0.192000
v -0.704000 0.825701 -0.192000
v -0.576000 0.842279 -0.192000
v -0.448000 0.851232 -0.192000
v -0.320000 0.849994 -0.192000
v -0.192000 0.860520 -0.192000
v -0.064000 0.864372 -0.192000
v 0.064000 0.866999 -0.192000
v 0.192000 0.865704 -0.192000
v 0.320000 0.856337 -0.192000
v 0.448000 0.868025 -0.192000
v 0.576000 0.898406 -0.192000
v 0.704000 0.921231 -0.192000
v 0.832000 0.930699 -0.192000
v 0.960000 0.904608 -0.192000
v 1.088000 0.879577 -0.192000
v 1.216000 0.847778 -0.192000
v 1.344000 0.712652 -0.192000
v 1.472000 0.271212 -0.192000
v 1.600000 0.000000 -0.192000
v -1.600000 0.000000 -0.320000
v -1.472000 0.235488 -0.320000
v -1.344000 0.650465 -0.320000
v -1.216000 0.769364 -0.320000
v -1.088000 0.781943 -0.320000
v -0.960000 0.793203 -0.320000
v -0.832000 0.811074 -0.320000
v -0.704000 0.832832 -0.320000
v -0.576000 0.851456 -0.320000
v -0.448000 0.874943 -0.320000
v -0.320000 0.891566 -0.320000
v -0.192000 0.877856 -0.320000
v -0.064000 0.867956 -0.320000
v 0.064000 0.860711 -0.320000
v 0.192000 0.844848 -0.320000
v 0.320000 0.839261 -0.320000
v 0.448000 0.867171 -0.320000
v 0.576000 0.906341 -0.320000
v 0.704000 0.929142 -0.320000
v 0.832000 0.913125 -0.320000
v 0.960000 0.891080 -0.320000
v 1.088000 0.867939 -0.320000
v 1.216000 0.851593 -0.320000
v 1.344000 0.744954 -0.320000
v 1.472000 0.275715 -0.320000
v 1.600000 0.000000 -0.320000
v -1.600000 0.000000 -0.448000
v -1.472000 0.228019 -0.448000
v -1.344000 0.629869 -0.448000
v -1.216000 0.723644 -0.448000
v -1.088000 0.739164 -0.448000
v -0.960000 0.764549 -0.448000
v -0.832000 0.785413 -0.448000
v -0.704000 0.822199 -0.448000
v -0.576000 0.844214 -0.448000
v -0.448000 0.864016 -0.448000
v -0.320000 0.868242 -0.448000
v -0.192000 0.888760 -0.448000
v -0.064000 0.886301 -0.448000
v 0.064000 0.883569 -0.448000
v 0.192000 0.868624 -0.448000
v 0.320000 0.840059 -0.448000
v 0.448000 0.840930 -0.448000
v 0.576000 0.854967 -0.448000
v 0.704000 0.867658 -0.448000
v 0.832000 0.880750 -0.448000
v 0.960000 0.848992 -0.448000
v 1.088000 0.844845 -0.448000
v 1.216000 0.844060 -0.448000
v 1.344000 0.729225 -0.448000
v 1.472000 0.272281 -0.448000
v 1.600000 0.000000 -0.448000
v -1.600000 0.000000 -0.576000
v -1.472000 0.217221 -0.576000
v -1.344000 0.614093 -0.576000
v -1.216000 0.692192 -0.576000
v -1.088000 0.699000 -0.576000
v -0.960000 0.726976 -0.576000
v -0.832000 0.764603 -0.576000
v -0.704000 0.802006 -0.576000
v -0.576000 0.823391 -0.576000
v -0.448000 0.843232 -0.576000
v -0.320000 0.856222 -0.576000
v -0.192000 0.883878 -0.576000
v -0.064000 0.899163 -0.576000
v 0.064000 0.899036 -0.576000
v 0.192000 0.873209 -0.576000
v 0.320000 0.835595 -0.576000
v 0.448000 0.810966 -0.576000
v 0.576000 0.802792 -0.576000
v 0.704000 0.809236 -0.576000
v 0.832000 0.832807 -0.576000
v 0.960000 0.822159 -0.576000
v 1.088000 0.828689 -0.576000
v 1.216000 0.834384 -0.576000
v 1.344000 0.717712 -0.576000
v 1.472000 0.266286 -0.576000
v 1.600000 0.000000 -0.576000
v -1.600000 0.000000 -0.704000
v -1.472000 0.209103 -0.704000
v -1.344000 0.602882 -0.704000
v -1.216000 0.674582 -0.704000
v -1.088000 0.673989 -0.704000
v -0.960000 0.699132 -0.704000
v -0.832000 0.750648 -0.704000
v -0.704000 0.781719 -0.704000
v -0.576000 0.802604 -0.704000
v -0.448000 0.826133 -0.704000
v -0.320000 0.854080 -0.704000
v -0.192000 0.869806 -0.704000
v -0.064000 0.895126 -0.704000
v 0.064000 0.895825 -0.704000
v 0.192000 0.863034 -0.704000
v 0.320000 0.832857 -0.704000
v 0.448000 0.796778 -0.704000
v 0.576000 0.780891 -0.704000
v 0.704000 0.784869 -0.704000
v 0.832000 0.803829 -0.704000
v 0.960000 0.816398 -0.704000
v 1.088000 0.825045 -0.704000
v 1.216000 0.829308 -0.704000
v 1.344000 0.713058 -0.704000
v 1.472000 0.263680 -0.704000
v 1.600000 0.000000 -0.704000
v -1.600000 0.000000 -0.832000
v -1.472000 0.204910 -0.832000
v -1.344000 0.569888 -0.832000
v -1.216000 0.653047 -0.832000
v -1.088000 0.668984 -0.832000
v -0.960000 0.702154 -0.832000
v -0.832000 0.734164 -0.832000
v -0.704000 0.775110 -0.832000
v -0.576000 0.800424 -0.832000
v -0.448000 0.811343 -0.832000
v -0.320000 0.818199 -0.832000
v -0.192000 0.848530 -0.832000
v -0.064000 0.893324 -0.832000
v 0.064000 0.895333 -0.832000
v 0.192000 0.856941 -0.832000
v 0.320000 0.839354 -0.832000
v 0.448000 0.819703 -0.832000
v 0.576000 0.799189 -0.832000
v 0.704000 0.791727 -0.832000
v 0.832000 0.810380 -0.832000
v 0.960000 0.822841 -0.832000
v 1.088000 0.828099 -0.832000
v 1.216000 0.824357 -0.832000
v 1.344000 0.713318 -0.832000
v 1.472000 0.265121 -0.832000
v 1.600000 0.000000 -0.832000
v -1.600000 0.000000 -0.960000
v -1.472000 0.203221 -0.960000
v -1.344000 0.547741 -0.960000
v -1.216000 0.626478 -0.960000
v -1.088000 0.637038 -0.960000
v -0.960000 0.664211 -0.960000
v -0.832000 0.715033 -0.960000
v -0.704000 0.758402 -0.960000
v -0.576000 0.774848 -0.960000
v -0.448000 0.772966 -0.960000
v -0.320000 0.788088 -0.960000
v -0.192000 0.840577 -0.960000
v -0.064000 0.880378 -0.960000
v 0.064000 0.876383 -0.960000
v 0.192000 0.843635 -0.960000
v 0.320000 0.839883 -0.960000
v 0.448000 0.812391 -0.960000
v 0.576000 0.792217 -0.960000
v 0.704000 0.790374 -0.960000
v 0.832000 0.818155 -0.960000
v 0.960000 0.832081 -0.960000
v 1.088000 0.846358 -0.960000
v 1.216000 0.839441 -0.960000
v 1.344000 0.713988 -0.960000
v 1.472000 0.276948 -0.960000
v 1.600000 0.000000 -0.960000
v -1.600000 0.000000 -1.088000
v -1.472000 0.193965 -1.088000
v -1.344000 0.522719 -1.088000
v -1.216000 0.596715 -1.088000
v -1.088000 0.612467 -1.088000
v -0.960000 0.639447 -1.088000
v -0.832000 0.669104 -1.088000
v -0.704000 0.710927 -1.088000
v -0.576000 0.728337 -1.088000
v -0.448000 0.737311 -1.088000
v -0.320000 0.770678 -1.088000
v -0.192000 0.815238 -1.088000
v -0.064000 0.851655 -1.088000
v 0.064000 0.853577 -1.088000
v 0.192000 0.836388 -1.088000
v 0.320000 0.827145 -1.088000
v 0.448000 0.796666 -1.088000
v 0.576000 0.787750 -1.088000
v 0.704000 0.795565 -1.088000
v 0.832000 0.810361 -1.088000
v 0.960000 0.828258 -1.088000
v 1.088000 0.849500 -1.088000
v 1.216000 0.849104 -1.088000
v 1.344000 0.726086 -1.088000
v 1.472000 0.281801 -1.088000
v 1.600000 0.000000 -1.088000
v -1.600000 0.000000 -1.216000
v -1.472000 0.182187 -1.216000
v -1.344000 0.489875 -1.216000
v -1.216000 0.559839 -1.216000
v -1.088000 0.591644 -1.216000
v -0.960000 0.622483 -1.216000
v -0.832000 0.624491 -1.216000
v -0.704000 0.651540 -1.216000
v -0.576000 0.673325 -1.216000
v -0.448000 0.705393 -1.216000
v -0.320000 0.756024 -1.216000
v -0.192000 0.784488 -1.216000
v -0.064000 0.808122 -1.216000
v 0.064000 0.813072 -1.216000
v 0.192000 0.807859 -1.216000
v 0.320000 0.792215 -1.216000
v 0.448000 0.775129 -1.216000
v 0.576000 0.789586 -1.216000
v 0.704000 0.808434 -1.216000
v 0.832000 0.809073 -1.216000
v 0.960000 0.822069 -1.216000
v 1.088000 0.847777 -1.216000
v 1.216000 0.856286 -1.216000
v 1.344000 0.741697 -1.216000
v 1.472000 0.286800 -1.216000
v 1.600000 0.000000 -1.216000
v -1.600000 0.000000 -1.344000
v -1.472000 0.174542 -1.344000
v -1.344000 0.470330 -1.344000
v -1.216000 0.468139 -1.344000
v -1.088000 0.497981 -1.344000
v -0.960000 0.528451 -1.344000
v -0.832000 0.539577 -1.344000
v -0.704000 0.552355 -1.344000
v -0.576000 0.570618 -1.344000
v -0.448000 0.603112 -1.344000
v -0.320000 0.640685 -1.344000
v -0.192000 0.667215 -1.344000
v -0.064000 0.681403 -1.344000
v 0.064000 0.680656 -1.344000
v 0.192000 0.669352 -1.344000
v 0.320000 0.651622 -1.344000
v 0.448000 0.669725 -1.344000
v 0.576000 0.697893 -1.344000
v 0.704000 0.717023 -1.344000
v 0.832000 0.725119 -1.344000
v 0.960000 0.723480 -1.344000
v 1.088000 0.745081 -1.344000
v 1.216000 0.757986 -1.344000
v 1.344000 0.746236 -1.344000
v 1.472000 0.287612 -1.344000
v 1.600000 0.000000 -1.344000
v -1.600000 0.000000 -1.472000
v -1.472000 0.187456 -1.472000
v -1.344000 0.186832 -1.472000
v -1.216000 0.191781 -1.472000
v -1.088000 0.193139 -1.472000
v -0.960000 0.193773 -1.472000
v -0.832000 0.200109 -1.472000
v -0.704000 0.207608 -1.472000
v -0.576000 0.215625 -1.472000
v -0.448000 0.224909 -1.472000
v -0.320000 0.233752 -1.472000
v -0.192000 0.246033 -1.472000
v -0.064000 0.244457 -1.472000
v 0.064000 0.243294 -1.472000
v 0.192000 0.244129 -1.472000
v 0.320000 0.237009 -1.472000
v 0.448000 0.241545 -1.472000
v 0.576000 0.250254 -1.472000
v 0.704000 0.257344 -1.472000
v 0.832000 0.269112 -1.472000
v 0.960000 0.268085 -1.472000
v 1.088000 0.276529 -1.472000
v 1.216000 0.281993 -1.472000
v 1.344000 0.281127 -1.472000
v 1.472000 0.280492 -1.472000
v 1.600000 0.000000 -1.472000
v -1.600000 0.000000 -1.600000
v -1.472000 0.000000 -1.600000
v -1.344000 0.000000 -1.600000
v -1.216000 0.000000 -1.600000
v -1.088000 0.000000 -1.600000
v -0.960000 0.000000 -1.600000
v -0.832000 0.000000 -1.600000
v -0.704000 0.000000 -1.600000
v -0.576000 0.000000 -1.600000
v -0.448000 0.000000 -1.600000
v -0.320000 0.000000 -1.600000
v -0.192000 0.000000 -1.600000
v -0.064000 0.000000 -1.600000
v 0.064000 0.000000 -1.600000
v 0.192000 0.000000 -1.600000
v 0.320000 0.000000 -1.600000
v 0.448000 0.000000 -1.600000
v 0.576000 0.000000 -1.600000
v 0.704000 0.000000 -1.600000
v 0.832000 0.000000 -1.600000
v 0.960000 0.000000 -1.600000
v 1.088000 0.000000 -1.600000
v 1.216000 0.000000 -1.600000
v 1.344000 0.000000 -1.600000
v 1.472000 0.000000 -1.600000
v 1.600000 0.000000 -1.600000
v -1.600000 0.000000 1.600000
v -1.472000 0.000000 1.600000
v -1.344000 0.000000 1.600000
v -1.216000 0.000000 1.600000
v -1.088000 0.000000 1.600000
v -0.960000 0.000000 1.600000
v -0.832000 0.000000 1.600000
v -0.704000 0.000000 1.600000
v -0.576000 0.000000 1.600000
v -0.448000 0.000000 1.600000
v -0.320000 0.000000 1.600000
v -0.192000 0.000000 1.600000
v -0.064000 0.000000 1.600000
v 0.064000 0.000000 1.600000
v 0.192000 0.000000 1.600000
v 0.320000 0.000000 1.600000
v 0.448000 0.000000 1.600000
v 0.576000 0.000000 1.600000
v 0.704000 0.000000 1.600000
v 0.832000 0.000000 1.600000
v 0.960000 0.000000 1.600000
v 1.088000 0.000000 1.600000
v 1.216000 0.000000 1.600000
v 1.344000 0.000000 1.600000
v 1.472000 0.000000 1.600000
v 1.600000 0.000000 1.600000
v 1.600000 0.000000 1.472000
v 1.600000 0.000000 1.344000
v 1.600000 0.000000 1.216000
v 1.600000 0.000000 1.088000
v 1.600000 0.000000 0.960000
v 1.600000 0.000000 0.832000
v 1.600000 0.000000 0.704000
v 1.600000 0.000000 0.576000
v 1.600000 0.000000 0.448000
v 1.600000 0.000000 0.320000
v 1.600000 0.000000 0.192000
v 1.600000 0.000000 0.064000
v 1.600000 0.000000 -0.064000
v 1.600000 0.000000 -0.192000
v 1.600000 0.000000 -0.320000
v 1.600000 0.000000 -0.448000
v 1.600000 0.000000 -0.576000
v 1.600000 0.000000 -0.704000
v 1.600000 0.000000 -0.832000
v 1.600000 0.000000 -0.960000
v 1.600000 0.000000 -1.088000
v 1.600000 0.000000 -1.216000
v 1.600000 0.000000 -1.344000
v 1.600000 0.000000 -1.472000
v 1.600000 0.000000 -1.600000
v 1.472000 0.000000 -1.600000
v 1.344000 0.000000 -1.600000
v 1.216000 0.000000 -1.600000
v 1.088000 0.000000 -1.600000
v 0.960000 0.000000 -1.600000
v 0.832000 0.000000 -1.600000
v 0.704000 0.000000 -1.600000
v 0.576000 0.000000 -1.600000
v 0.448000 0.000000 -1.600000
v 0.320000 0.000000 -1.600000
v 0.192000 0.000000 -1.600000
v 0.064000 0.000000 -1.600000
v -0.064000 0.000000 -1.600000
v -0.192000 0.000000 -1.600000
v -0.320000 0.000000 -1.600000
v -0.448000 0.000000 -1.600000
v -0.576000 0.000000 -1.600000
v -0.704000 0.000000 -1.600000
v -0.832000 0.000000 -1.600000
v -0.960000 0.000000 -1.600000
v -1.088000 0.000000 -1.600000
v -1.216000 0.000000 -1.600000
v -1.344000 0.000000 -1.600000
v -1.472000 0.000000 -1.600000
v -1.600000 0.000000 -1.600000
v -1.600000 0.000000 -1.472000
v -1.600000 0.000000 -1.344000
v -1.600000 0.000000 -1.216000
v -1.600000 0.000000 -1.088000
v -1.600000 0.000000 -0.960000
v -1.600000 0.000000 -0.832000
v -1.600000 0.000000 -0.704000
v -1.600000 0.000000 -0.576000
v -1.600000 0.000000 -0.448000
v -1.600000 0.000000 -0.320000
v -1.600000 0.000000 -0.192000
v -1.600000 0.000000 -0.064000
v -1.600000 0.000000 0.064000
v -1.600000 0.000000 0.192000
v -1.600000 0.000000 0.320000
v -1.600000 0.000000 0.448000
v -1.600000 0.000000 0.576000
v -1.600000 0.000000 0.704000
v -1.600000 0.000000 0.832000
v -1.600000 0.000000 0.960000
v -1.600000 0.000000 1.088000
v -1.600000 0.000000 1.216000
v -1.600000 0.000000 1.344000
v -1.600000 0.000000 1.472000
v 0.000000 0.000000 0.000000
vn 0.6866 -0.6823 -0.2511
vn 0.2511 -0.6823 -0.6866
vn -0.0000 -1.0000 -0.0000
vn 0.4381 -0.7797 -0.4474
vn 0.0013 -0.5228 -0.8524
vn -0.0018 -0.4422 -0.8969
vn -0.0000 -0.5235 -0.8520
vn 0.0001 -0.5234 -0.8521
vn 0.0050 -0.4347 -0.9006
vn 0.0012 -0.5211 -0.8535
vn 0.0117 -0.4314 -0.9021
vn 0.0008 -0.5149 -0.8572
vn -0.0054 -0.4321 -0.9018
vn -0.0000 -0.5178 -0.8555
vn 0.0017 -0.5145 -0.8575
vn 0.0120 -0.4281 -0.9037
vn 0.0026 -0.5076 -0.8616
vn -0.0004 -0.4276 -0.9040
vn -0.0000 -0.5051 -0.8631
vn -0.0040 -0.4268 -0.9043
vn -0.0015 -0.5066 -0.8622
vn -0.0015 -0.4248 -0.9053
vn -0.0001 -0.5096 -0.8604
vn 0.0081 -0.4213 -0.9069
vn -0.0000 -0.5099 -0.8603
vn 0.0035 -0.5032 -0.8642
vn 0.0159 -0.4145 -0.9099
vn 0.0027 -0.4945 -0.8692
vn 0.0253 -0.4020 -0.9153
vn 0.0056 -0.4811 -0.8767
vn 0.0284 -0.3844 -0.9227
vn 0.0047 -0.4663 -0.8846
vn 0.0267 -0.3757 -0.9264
vn 0.0053 -0.4513 -0.8924
vn 0.0171 -0.3683 -0.9295
vn 0.0005 -0.4447 -0.8957
vn 0.0149 -0.3640 -0.9313
vn 0.0027 -0.4379 -0.8990
vn -0.0110 -0.3604 -0.9327
vn -0.0023 -0.4386 -0.8987
vn -0.0154 -0.3668 -0.9302
vn -0.0023 -0.4454 -0.8953
vn -0.1344 -0.4849 -0.8642
vn -0.0000 -0.4497 -0.8932
vn -0.2707 -0.6199 -0.7365
vn -0.7387 -0.6155 -0.2748
vn 0.8547 -0.5191 -0.0027
vn 0.8262 -0.5406 -0.1587
vn 0.1468 -0.5426 -0.8271
vn 0.5188 -0.6863 -0.5097
vn 0.1497 -0.6581 -0.7379
vn 0.0555 -0.6229 -0.7804
vn -0.0265 -0.5832 -0.8119
vn 0.0033 -0.4266 -0.9044
vn 0.0195 -0.5892 -0.8078
vn 0.0414 -0.5936 -0.8037
vn 0.0062 -0.4240 -0.9057
vn -0.0263 -0.5454 -0.8377
vn 0.0308 -0.5497 -0.8348
vn 0.0400 -0.5476 -0.8358
vn 0.0180 -0.5375 -0.8430
vn 0.0873 -0.5213 -0.8489
vn 0.1317 -0.5610 -0.8172
vn 0.0727 -0.5715 -0.8174
vn 0.0520 -0.5418 -0.8389
vn 0.0817 -0.5111 -0.8556
vn 0.0289 -0.5516 -0.8336
vn 0.0067 -0.3554 -0.9347
vn -0.0218 -0.5829 -0.8122
vn -0.1610 -0.6332 -0.7570
vn -0.5585 -0.6435 -0.5233
vn -0.8594 -0.4844 -0.1641
vn -0.4184 -0.7934 -0.4422
vn 0.8971 -0.4416 0.0125
vn 0.7449 -0.6578 -0.1114
vn 0.3374 -0.8940 -0.2949
vn 0.0927 -0.9440 -0.3168
vn -0.0067 -0.6156 -0.7880
vn 0.0031 -0.9168 -0.3994
vn 0.0311 -0.8938 -0.4473
vn 0.0560 -0.8933 -0.4459
vn 0.0102 -0.5913 -0.8064
vn 0.0135 -0.9057 -0.4237
vn 0.0733 -0.8780 -0.4730
vn 0.0798 -0.8754 -0.4767
vn -0.0006 -0.8883 -0.4592
vn 0.0980 -0.9039 -0.4163
vn 0.1714 -0.9150 -0.3651
vn 0.1597 -0.9179 -0.3633
vn 0.1696 -0.8821 -0.4395
vn 0.1483 -0.8636 -0.4818
vn -0.1049 -0.9207 -0.3760
vn -0.0209 -0.5739 -0.8187
vn -0.0563 -0.9385 -0.3407
vn -0.3366 -0.8932 -0.2982
vn -0.7962 -0.5940 -0.1149
vn -0.9302 -0.3670 -0.0082
vn -0.9013 -0.4332 -0.0025
vn -0.8990 -0.4379 -0.0000
vn 0.8529 -0.5220 0.0027
vn 0.8977 -0.4406 0.0037
vn 0.7926 -0.6089 -0.0327
vn 0.3667 -0.9269 -0.0795
vn 0.1002 -0.9910 -0.0882
vn 0.0304 -0.9448 -0.3262
vn 0.0911 -0.9890 -0.1167
vn 0.1007 -0.9748 -0.1992
vn 0.0565 -0.9701 -0.2361
vn 0.0134 -0.9755 -0.2194
vn 0.0643 -0.9102 -0.4092
vn 0.0212 -0.9847 -0.1727
vn 0.0534 -0.9852 -0.1626
vn 0.1269 -0.9650 -0.2295
vn 0.0645 -0.9744 -0.2155
vn 0.0457 -0.9884 -0.1448
vn 0.1567 -0.9817 -0.1080
vn 0.2143 -0.9735 -0.0799
vn 0.2659 -0.9548 -0.1332
vn 0.0970 -0.9863 -0.1332
vn -0.0508 -0.9145 -0.4014
vn -0.0970 -0.9942 -0.0472
vn -0.0825 -0.9944 -0.0659
vn -0.3596 -0.9314 -0.0569
vn -0.8293 -0.5555 -0.0607
vn -0.9311 -0.3649 0.0013
vn 0.8502 -0.5265 -0.0003
vn 0.8498 -0.5272 -0.0000
vn 0.9002 -0.4349 -0.0239
vn 0.8059 -0.5893 -0.0570
vn 0.3871 -0.9113 -0.1400
vn 0.1024 -0.9841 -0.1455
vn 0.1270 -0.9830 -0.1325
vn 0.1476 -0.9712 -0.1870
vn 0.0492 -0.9838 -0.1722
vn -0.0018 -0.9843 -0.1762
vn 0.1006 -0.9750 -0.1979
vn 0.1509 -0.9560 -0.2515
vn -0.0412 -0.9754 -0.2164
vn -0.0461 -0.9817 -0.1850
vn 0.0175 -0.9647 -0.2626
vn 0.0835 -0.9831 -0.1630
vn 0.2003 -0.9749 -0.0971
vn 0.2575 -0.9650 -0.0493
vn 0.0118 -0.9998 0.0139
vn -0.1388 -0.9903 0.0099
vn -0.1316 -0.9909 0.0280
vn -0.0651 -0.9973 -0.0342
vn -0.3383 -0.9372 -0.0853
vn -0.8173 -0.5706 -0.0810
vn -0.9328 -0.3603 -0.0067
vn -0.9022 -0.4314 0.0007
vn 0.8616 -0.5076 -0.0097
vn 0.9080 -0.4172 -0.0377
vn 0.8231 -0.5535 -0.1269
vn 0.3710 -0.9066 -0.2011
vn 0.0665 -0.9814 -0.1802
vn 0.1543 -0.9718 -0.1785
vn 0.1251 -0.9829 -0.1355
vn 0.0060 -0.9975 -0.0699
vn 0.0025 -0.9866 -0.1633
vn 0.0629 -0.9790 -0.1939
vn 0.1565 -0.9525 -0.2612
vn 0.0899 -0.9771 -0.1928
vn 0.0207 -0.9791 -0.2024
vn 0.0465 -0.9841 -0.1713
vn 0.0071 -0.9726 -0.2322
vn -0.0200 -0.9765 -0.2144
vn 0.1534 -0.9733 -0.1706
vn -0.0147 -0.9997 -0.0177
vn -0.1074 -0.9932 -0.0444
vn -0.0399 -0.9991 -0.0144
vn -0.0547 -0.9981 -0.0298
vn -0.2691 -0.9584 -0.0949
vn -0.8030 -0.5890 -0.0912
vn -0.9364 -0.3508 -0.0104
vn -0.9037 -0.4281 -0.0025
vn -0.9015 -0.4328 -0.0000
vn 0.8718 -0.4899 -0.0036
vn 0.9145 -0.4043 -0.0151
vn 0.8004 -0.5931 -0.0869
vn 0.3505 -0.9266 -0.1363
vn 0.0630 -0.9866 -0.1506
vn 0.1038 -0.9874 -0.1191
vn 0.0436 -0.9917 -0.1210
vn 0.0317 -0.9951 -0.0936
vn 0.1183 -0.9757 -0.1844
vn 0.1444 -0.9634 -0.2259
vn 0.0944 -0.9761 -0.1957
vn 0.0254 -0.9887 -0.1480
vn -0.0071 -0.9901 -0.1401
vn 0.0680 -0.9833 -0.1689
vn -0.0113 -0.9854 -0.1700
vn 0.0665 -0.9908 -0.1182
vn 0.1762 -0.9814 -0.0763
vn 0.1031 -0.9928 -0.0610
vn -0.0924 -0.9925 -0.0799
vn -0.0496 -0.9962 -0.0712
vn 0.0012 -0.9971 -0.0757
vn -0.0077 -0.9994 -0.0332
vn -0.7884 -0.6138 -0.0415
vn -0.9383 -0.3457 -0.0004
vn -0.9049 -0.4256 0.0004
vn 0.9158 -0.4016 0.0051
vn 0.8254 -0.5642 -0.0187
vn 0.3737 -0.9239 -0.0823
vn 0.0438 -0.9966 -0.0696
vn 0.0842 -0.9955 -0.0442
vn 0.0462 -0.9968 -0.0653
vn 0.1267 -0.9853 -0.1145
vn 0.1204 -0.9637 -0.2383
vn 0.1162 -0.9618 -0.2477
vn 0.1055 -0.9775 -0.1824
vn 0.0530 -0.9893 -0.1361
vn 0.0140 -0.9929 -0.1180
vn 0.0289 -0.9895 -0.1418
vn 0.0465 -0.9856 -0.1628
vn 0.0588 -0.9847 -0.1640
vn 0.0423 -0.9866 -0.1574
vn -0.0435 -0.9926 -0.1132
vn 0.0256 -0.9964 -0.0810
vn 0.1003 -0.9933 -0.0568
vn -0.0129 -0.9986 -0.0504
vn -0.0995 -0.9859 -0.1343
vn -0.0738 -0.9910 -0.1113
vn 0.0073 -0.9957 -0.0919
vn -0.2340 -0.9690 -0.0793
vn -0.8088 -0.5881 0.0058
vn -0.9382 -0.3461 0.0027
vn 0.8728 -0.4881 0.0009
vn 0.9159 -0.4014 -0.0054
vn 0.8434 -0.5322 -0.0730
vn 0.3628 -0.9241 -0.1197
vn 0.0093 -0.9948 -0.1011
vn 0.1131 -0.9884 -0.1014
vn 0.2284 -0.9672 -0.1110
vn 0.1818 -0.9693 -0.1654
vn 0.0606 -0.9861 -0.1546
vn 0.0350 -0.9941 -0.1030
vn 0.0296 -0.9956 -0.0889
vn 0.0469 -0.9976 -0.0503
vn 0.0636 -0.9961 -0.0605
vn 0.0527 -0.9963 -0.0686
vn 0.0128 -0.9893 -0.1454
vn -0.0495 -0.9934 -0.1038
vn -0.0056 -0.9896 -0.1436
vn 0.0900 -0.9885 -0.1214
vn 0.0270 -0.9961 -0.0843
vn -0.0416 -0.9851 -0.1671
vn -0.1058 -0.9766 -0.1872
vn -0.0600 -0.9928 -0.1037
vn -0.2651 -0.9626 -0.0552
vn -0.3214 -0.9469 -0.0015
vn -0.8309 -0.5555 0.0309
vn -0.9045 -0.4265 -0.0001
vn -0.9044 -0.4267 -0.0000
vn 0.8749 -0.4844 -0.0029
vn 0.8718 -0.4898 -0.0000
vn 0.9207 -0.3891 -0.0320
vn 0.8323 -0.5388 -0.1306
vn 0.3387 -0.9151 -0.2187
vn -0.0056 -0.9811 -0.1936
vn 0.0797 -0.9871 -0.1387
vn 0.2119 -0.9723 -0.0990
vn 0.1994 -0.9717 -0.1269
vn 0.0216 -0.9955 -0.0926
vn 0.0253 -0.9996 -0.0150
vn 0.0431 -0.9967 -0.0689
vn 0.0608 -0.9951 -0.0785
vn 0.0504 -0.9985 -0.0220
vn 0.0008 -0.9958 -0.0910
vn 0.0136 -0.9999 -0.0057
vn 0.0547 -0.9920 -0.1138
vn 0.0750 -0.9859 -0.1498
vn 0.0639 -0.9920 -0.1092
vn 0.0652 -0.9892 -0.1310
vn -0.1477 -0.9725 -0.1802
vn -0.1714 -0.9795 -0.1056
vn -0.4035 -0.9150 0.0066
vn -0.8358 -0.5482 0.0290
vn -0.9373 -0.3485 -0.0045
vn -0.9041 -0.4274 0.0022
vn 0.8854 -0.4647 -0.0087
vn 0.9293 -0.3678 -0.0349
vn 0.8355 -0.5304 -0.1437
vn -0.0736 -0.9702 -0.2307
vn 0.0319 -0.9788 -0.2024
vn 0.2215 -0.9630 -0.1533
vn 0.1706 -0.9808 -0.0941
vn -0.0838 -0.9961 -0.0276
vn 0.0793 -0.9964 0.0298
vn 0.0013 -0.9996 0.0285
vn 0.1530 -0.9834 -0.0978
vn 0.0143 -0.9923 -0.1226
vn -0.0028 -1.0000 -0.0045
vn 0.0284 -0.9993 0.0250
vn 0.0819 -0.9965 -0.0173
vn 0.1291 -0.9893 -0.0678
vn 0.0794 -0.9906 -0.1116
vn 0.0866 -0.9873 -0.1332
vn 0.0143 -0.9849 -0.1723
vn -0.1745 -0.9835 -0.0470
vn -0.2656 -0.9640 0.0099
vn -0.4621 -0.8827 0.0852
vn -0.8233 -0.5637 0.0660
vn -0.9387 -0.3446 0.0063
vn -0.9354 -0.3528 0.0247
vn 0.8933 -0.4495 -0.0030
vn 0.9333 -0.3589 -0.0110
vn 0.8271 -0.5589 -0.0592
vn 0.3020 -0.9235 -0.2365
vn -0.0537 -0.9939 -0.0959
vn -0.0092 -0.9945 -0.1046
vn 0.1238 -0.9919 -0.0276
vn -0.0285 -0.9996 0.0022
vn -0.0559 -0.9959 -0.0709
vn -0.1217 -0.9924 -0.0175
vn 0.2106 -0.9776 -0.0060
vn -0.0807 -0.9927 -0.0900
vn -0.0573 -0.9942 -0.0909
vn -0.0621 -0.9962 -0.0607
vn 0.0927 -0.9952 -0.0316
vn 0.1713 -0.9845 -0.0366
vn 0.1254 -0.9888 -0.0808
vn 0.0965 -0.9897 -0.1059
vn 0.0109 -0.9929 -0.1189
vn -0.2434 -0.9699 -0.0040
vn -0.3221 -0.9465 0.0193
vn -0.5102 -0.8583 0.0542
vn -0.8460 -0.5291 0.0656
vn -0.9313 -0.3642 0.0090
vn -0.8993 -0.4373 0.0038
vn 0.9331 -0.3594 0.0128
vn 0.8322 -0.5518 0.0545
vn 0.3130 -0.9487 0.0448
vn 0.3043 -0.9496 -0.0747
vn -0.0435 -0.9982 0.0418
vn -0.0277 -0.9984 0.0487
vn 0.1428 -0.9889 0.0412
vn 0.1388 -0.9897 0.0363
vn 0.0059 -0.9998 0.0187
vn -0.0754 -0.9947 -0.0699
vn 0.0721 -0.9885 -0.1327
vn 0.0916 -0.9958 0.0050
vn 0.0853 -0.9954 0.0439
vn 0.0638 -0.9957 -0.0673
vn -0.0579 -0.9980 0.0241
vn -0.0696 -0.9973 -0.0230
vn 0.0613 -0.9981 -0.0019
vn 0.1614 -0.9869 0.0035
vn 0.1034 -0.9942 -0.0300
vn -0.0809 -0.9931 -0.0847
vn -0.2555 -0.9650 -0.0590
vn -0.3004 -0.9468 -0.1157
vn -0.5345 -0.8344 -0.1345
vn -0.8564 -0.5146 -0.0417
vn -0.8964 -0.4433 -0.0006
vn -0.8958 -0.4444 -0.0000
vn 0.8929 -0.4502 0.0033
vn 0.9288 -0.3694 0.0311
vn 0.8449 -0.5169 0.1381
vn 0.3440 -0.9217 0.1793
vn -0.0332 -0.9918 0.1234
vn 0.1256 -0.9920 0.0146
vn 0.0852 -0.9955 0.0423
vn 0.1582 -0.9874 -0.0008
vn 0.0789 -0.9962 -0.0379
vn 0.0381 -0.9790 -0.2003
vn 0.1778 -0.9838 -0.0217
vn 0.0427 -0.9990 0.0102
vn -0.0193 -0.9991 0.0378
vn 0.0331 -0.9982 0.0502
vn 0.1695 -0.9851 0.0290
vn 0.1812 -0.9827 0.0386
vn 0.2070 -0.9783 -0.0021
vn 0.1194 -0.9923 -0.0316
vn -0.0873 -0.9955 -0.0379
vn -0.2000 -0.9795 0.0245
vn -0.2261 -0.9737 -0.0280
vn -0.4737 -0.8724 -0.1209
vn -0.8629 -0.4931 -0.1109
vn -0.9355 -0.3527 -0.0227
vn -0.9313 -0.3638 -0.0160
vn -0.9016 -0.4326 -0.0053
vn 0.8858 -0.4640 0.0071
vn 0.9217 -0.3868 0.0301
vn 0.8383 -0.5285 0.1343
vn 0.3990 -0.8706 0.2879
vn 0.0869 -0.9639 0.2518
vn 0.0808 -0.9893 0.1211
vn -0.0246 -0.9971 0.0717
vn 0.1717 -0.9842 0.0422
vn 0.1570 -0.9876 0.0082
vn 0.1450 -0.9893 -0.0180
vn 0.0439 -0.9894 -0.1381
vn 0.1253 -0.9907 -0.0536
vn -0.0607 -0.9883 -0.1397
vn 0.0426 -0.9957 -0.0818
vn -0.0391 -0.9949 -0.0930
vn -0.0748 -0.9959 -0.0504
vn -0.0555 -0.9973 0.0485
vn -0.1089 -0.9940 0.0078
vn 0.2057 -0.9695 0.1330
vn 0.2209 -0.9614 0.1638
vn 0.0506 -0.9760 0.2118
vn -0.0876 -0.9955 0.0360
vn -0.1213 -0.9696 0.2124
vn -0.1810 -0.9638 0.1958
vn -0.1480 -0.9796 0.1363
vn -0.8392 -0.5435 -0.0205
vn -0.9381 -0.3464 -0.0029
vn -0.9053 -0.4248 -0.0005
vn 0.8763 -0.4818 0.0040
vn 0.9178 -0.3961 0.0268
vn 0.8051 -0.5857 0.0935
vn 0.3708 -0.8916 0.2597
vn 0.1498 -0.9405 0.3050
vn 0.1747 -0.9539 0.2439
vn 0.2132 -0.9609 0.1766
vn 0.2066 -0.9696 0.1312
vn 0.1570 -0.9814 0.1105
vn 0.1043 -0.9884 0.1100
vn 0.1137 -0.9866 0.1168
vn 0.0447 -0.9941 -0.0986
vn 0.0366 -0.9993 0.0097
vn -0.0076 -0.9950 -0.0992
vn -0.0829 -0.9877 -0.1327
vn -0.1752 -0.9796 -0.0984
vn -0.0844 -0.9964 -0.0079
vn 0.0586 -0.9943 0.0886
vn 0.0375 -0.9819 0.1856
vn 0.1144 -0.9272 0.3565
vn 0.0857 -0.9196 0.3834
vn -0.0576 -0.9506 0.3049
vn -0.1195 -0.9612 0.2485
vn -0.0278 -0.9911 0.1303
vn -0.3827 -0.9234 0.0293
vn -0.3539 -0.9328 0.0680
vn -0.8509 -0.5226 0.0532
vn -0.9374 -0.3481 0.0126
vn 0.8684 -0.4959 0.0062
vn 0.9130 -0.4071 0.0272
vn 0.7832 -0.6179 0.0697
vn 0.3003 -0.9376 0.1752
vn 0.1347 -0.9619 0.2377
vn 0.2514 -0.9403 0.2294
vn 0.2573 -0.9544 0.1514
vn 0.2194 -0.9635 0.1534
vn 0.1612 -0.9748 0.1543
vn 0.1403 -0.9814 0.1308
vn 0.1360 -0.9879 0.0744
vn 0.1505 -0.9872 0.0526
vn -0.1018 -0.9938 -0.0446
vn -0.2361 -0.9717 0.0039
vn -0.1966 -0.9792 0.0508
vn 0.0029 -0.9683 0.2498
vn 0.1110 -0.9478 0.2989
vn 0.0399 -0.9656 0.2570
vn 0.0359 -0.9954 0.0886
vn -0.3462 -0.9361 0.0621
vn -0.8524 -0.5219 0.0325
vn -0.9353 -0.3536 0.0107
vn -0.9036 -0.4283 0.0026
vn 0.8586 -0.5127 0.0049
vn 0.9069 -0.4208 0.0212
vn 0.7673 -0.6336 0.0988
vn 0.2683 -0.9553 0.1238
vn 0.1082 -0.9891 0.1000
vn 0.2665 -0.9581 0.1052
vn 0.3000 -0.9469 0.1157
vn 0.2081 -0.9738 0.0919
vn 0.1585 -0.9824 0.0992
vn 0.1718 -0.9744 0.1452
vn 0.1648 -0.9760 0.1421
vn 0.1870 -0.9768 0.1048
vn 0.0919 -0.9953 0.0311
vn 0.0595 -0.9976 -0.0350
vn -0.1167 -0.9929 0.0218
vn -0.2390 -0.9703 0.0376
vn -0.2251 -0.9742 -0.0191
vn -0.1357 -0.9783 0.1568
vn -0.1935 -0.9809 -0.0204
vn 0.0907 -0.9938 0.0643
vn 0.1261 -0.9888 0.0804
vn 0.0600 -0.9980 0.0199
vn -0.0138 -0.9923 0.1230
vn 0.0372 -0.9993 0.0089
vn -0.3436 -0.9385 0.0350
vn -0.8494 -0.5276 0.0119
vn -0.9343 -0.3564 0.0014
vn -0.9007 -0.4345 0.0012
vn 0.8513 -0.5247 0.0027
vn 0.9002 -0.4354 0.0115
vn 0.7864 -0.6041 0.1289
vn 0.3229 -0.9275 0.1884
vn 0.1647 -0.9731 0.1614
vn 0.2546 -0.9599 0.1171
vn 0.2918 -0.9499 0.1119
vn 0.2310 -0.9672 0.1055
vn 0.1221 -0.9850 0.1222
vn 0.0880 -0.9795 0.1814
vn 0.1796 -0.9619 0.2060
vn 0.2606 -0.9570 0.1274
vn 0.1562 -0.9849 0.0743
vn -0.1379 -0.9876 0.0747
vn -0.1427 -0.9898 -0.0016
vn -0.1778 -0.9828 -0.0508
vn -0.1038 -0.9934 -0.0478
vn -0.0569 -0.9981 0.0247
vn 0.0602 -0.9978 -0.0269
vn 0.1293 -0.9905 -0.0466
vn 0.0736 -0.9957 -0.0563
vn -0.3740 -0.9266 -0.0390
vn -0.9349 -0.3546 -0.0156
vn -0.9002 -0.4355 -0.0006
vn -0.8996 -0.4367 -0.0000
vn 0.8474 -0.5309 0.0011
vn 0.8960 -0.4436 0.0209
vn 0.7679 -0.6298 0.1170
vn 0.3138 -0.9292 0.1954
vn 0.1467 -0.9671 0.2081
vn 0.2669 -0.9331 0.2412
vn 0.3164 -0.9155 0.2487
vn 0.2163 -0.9478 0.2343
vn 0.0727 -0.9654 0.2503
vn 0.0788 -0.9653 0.2488
vn 0.2309 -0.9540 0.1912
vn 0.3125 -0.9389 0.1443
vn 0.1429 -0.9769 0.1589
vn -0.1384 -0.9774 0.1597
vn -0.2068 -0.9752 0.0792
vn -0.1373 -0.9873 0.0803
vn -0.1175 -0.9919 0.0491
vn -0.1855 -0.9790 0.0849
vn -0.0797 -0.9956 0.0499
vn 0.0878 -0.9961 -0.0018
vn 0.1624 -0.9867 -0.0052
vn 0.1075 -0.9935 -0.0365
vn 0.0116 -0.9974 -0.0710
vn -0.3957 -0.9137 -0.0928
vn -0.8563 -0.5154 -0.0330
vn -0.8428 -0.5382 -0.0030
vn -0.9375 -0.3475 -0.0205
vn -0.9051 -0.4252 -0.0051
vn 0.8423 -0.5390 0.0062
vn 0.8875 -0.4593 0.0382
vn 0.7499 -0.6450 0.1469
vn 0.3272 -0.9193 0.2187
vn 0.1606 -0.9716 0.1736
vn 0.1870 -0.9651 0.1836
vn 0.2603 -0.9122 0.3164
vn 0.2125 -0.9043 0.3703
vn 0.1154 -0.9307 0.3472
vn 0.1634 -0.9554 0.2461
vn 0.2566 -0.9545 0.1519
vn 0.2904 -0.9337 0.2094
vn 0.1405 -0.9564 0.2559
vn -0.0727 -0.9720 0.2234
vn -0.0850 -0.9844 0.1538
vn -0.1524 -0.9726 0.1757
vn -0.1257 -0.9845 0.1225
vn -0.0137 -0.9999 0.0008
vn 0.1208 -0.9926 0.0136
vn 0.1515 -0.9877 0.0382
vn 0.0738 -0.9973 0.0012
vn 0.0347 -0.9954 -0.0891
vn -0.3664 -0.9291 -0.0501
vn -0.8577 -0.5114 -0.0528
vn -0.9382 -0.3458 -0.0130
vn -0.9095 -0.4158 -0.0020
vn 0.8292 -0.5589 0.0084
vn 0.8762 -0.4808 0.0342
vn 0.7012 -0.6828 0.2052
vn 0.3318 -0.8510 0.4070
vn 0.2033 -0.8970 0.3924
vn 0.1181 -0.9246 0.3622
vn 0.1153 -0.8944 0.4322
vn 0.1723 -0.8468 0.5032
vn 0.1736 -0.8414 0.5118
vn 0.2446 -0.8527 0.4615
vn 0.2478 -0.8778 0.4101
vn 0.1871 -0.8709 0.4544
vn 0.1038 -0.8524 0.5124
vn -0.0154 -0.8561 0.5166
vn -0.0669 -0.8654 0.4965
vn -0.1057 -0.8645 0.4913
vn 0.0886 -0.9467 0.3097
vn 0.0984 -0.9934 -0.0592
vn 0.0920 -0.9611 0.2606
vn 0.1430 -0.9281 0.3438
vn 0.1127 -0.9391 0.3246
vn -0.8068 -0.5890 0.0458
vn -0.9402 -0.3405 -0.0086
vn -0.9122 -0.4098 -0.0020
vn 0.8144 -0.5803 0.0058
vn 0.7977 -0.5910 0.1201
vn 0.4649 -0.7262 0.5065
vn 0.1205 -0.6564 0.7447
vn 0.1390 -0.6072 0.7823
vn 0.0990 -0.6099 0.7863
vn 0.0497 -0.6151 0.7869
vn 0.0806 -0.5938 0.8005
vn 0.1108 -0.5688 0.8150
vn 0.1484 -0.5588 0.8159
vn 0.1445 -0.5431 0.8271
vn 0.0853 -0.5350 0.8405
vn 0.0337 -0.5236 0.8513
vn -0.0173 -0.5069 0.8618
vn -0.0540 -0.4953 0.8670
vn 0.0707 -0.5240 0.8488
vn 0.0009 -0.9105 0.4135
vn 0.0935 -0.5673 0.8182
vn 0.0619 -0.5784 0.8134
vn 0.0091 -0.5916 0.8062
vn 0.0397 -0.9518 0.3041
vn 0.0510 -0.5535 0.8313
vn 0.0772 -0.5524 0.8300
vn -0.1001 -0.6235 0.7754
vn -0.2962 -0.9173 0.2660
vn -0.8755 -0.4508 0.1742
vn -0.9120 -0.4102 0.0025
vn 0.6567 -0.7180 0.2308
vn 0.8064 -0.5914 -0.0000
vn 0.1580 -0.5896 0.7921
vn 0.0100 -0.4865 0.8736
vn 0.0090 -0.4775 0.8786
vn 0.0151 -0.4613 0.8871
vn 0.0224 -0.4466 0.8945
vn 0.0247 -0.4367 0.8993
vn 0.0274 -0.4255 0.9045
vn 0.0296 -0.4101 0.9115
vn 0.0325 -0.3930 0.9190
vn 0.0173 -0.3769 0.9261
vn -0.0020 -0.3758 0.9267
vn -0.0016 -0.3764 0.9264
vn -0.0104 -0.3778 0.9258
vn 0.0003 -0.4780 0.8783
vn 0.0188 -0.3791 0.9251
vn 0.0228 -0.3669 0.9300
vn 0.0247 -0.3574 0.9336
vn 0.0141 -0.3484 0.9372
vn 0.0186 -0.3425 0.9393
vn 0.0058 -0.3385 0.9410
vn -0.5306 -0.6869 0.4967
vn -0.1544 -0.4527 0.8782
vn -0.4616 -0.7486 0.4759
vn 0.2402 -0.7091 0.6629
vn 0.4012 -0.8407 0.3636
vn 0.0035 -0.5585 0.8295
vn 0.0009 -0.5533 0.8330
vn 0.0004 -0.5516 0.8341
vn 0.0043 -0.5430 0.8397
vn 0.0048 -0.5296 0.8482
vn 0.0049 -0.5154 0.8569
vn 0.0054 -0.5002 0.8659
vn 0.0049 -0.4854 0.8743
vn 0.0055 -0.4691 0.8831
vn -0.0006 -0.4645 0.8856
vn -0.0032 -0.4687 0.8834
vn -0.0032 -0.3859 0.9225
vn 0.0023 -0.4707 0.8823
vn 0.0043 -0.4600 0.8879
vn 0.0034 -0.4490 0.8935
vn 0.0048 -0.4358 0.9000
vn 0.0085 -0.3513 0.9362
vn 0.0036 -0.4241 0.9056
vn 0.0019 -0.4162 0.9093
vn -0.0003 -0.4147 0.9100
vn -0.2809 -0.5995 0.7494
vn -0.7494 -0.5995 0.2809
vn -0.0000 1.0000 -0.0000
vn -0.0000 -0.5652 0.8250
vn -0.0000 -0.4656 0.8850
vn -0.0000 -0.4752 0.8799
vn -0.0000 -0.4309 0.9024
s 1
f 27//1 2//2 1//3
f 28//4 3//5 2//2
f 3//5 30//6 4//7
f 30//6 5//8 4//7
f 31//9 6//10 5//8
f 32//11 7//12 6//10
f 7//12 34//13 8//14
f 34//13 9//15 8//14
f 35//16 10//17 9//15
f 10//17 37//18 11//19
f 11//19 38//20 12//21
f 12//21 39//22 13//23
f 13//23 40//24 14//25
f 40//24 15//26 14//25
f 41//27 16//28 15//26
f 42//29 17//30 16//28
f 43//31 18//32 17//30
f 44//33 19//34 18//32
f 45//35 20//36 19//34
f 46//37 21//38 20//36
f 21//38 48//39 22//40
f 22//40 49//41 23//42
f 23//42 50//43 24//44
f 50//43 25//45 24//44
f 25//45 52//46 26//3
f 53//47 28//4 27//1
f 54//48 29//49 28//4
f 55//50 30//6 29//49
f 56//51 31//9 30//6
f 57//52 32//11 31//9
f 32//11 59//53 33//54
f 33//54 60//55 34//13
f 60//55 35//16 34//13
f 61//56 36//57 35//16
f 36//57 63//58 37//18
f 63//58 38//20 37//18
f 64//59 39//22 38//20
f 65//60 40//24 39//22
f 66//61 41//27 40//24
f 67//62 42//29 41//27
f 68//63 43//31 42//29
f 69//64 44//33 43//31
f 70//65 45//35 44//33
f 71//66 46//37 45//35
f 72//67 47//68 46//37
f 47//68 74//69 48//39
f 48//39 75//70 49//41
f 49//41 76//71 50//43
f 50//43 77//72 51//73
f 77//72 52//46 51//73
f 53//47 80//74 54//48
f 80//74 55//50 54//48
f 81//75 56//51 55//50
f 82//76 57//52 56//51
f 83//77 58//78 57//52
f 58//78 85//79 59//53
f 85//79 60//55 59//53
f 86//80 61//56 60//55
f 87//81 62//82 61//56
f 62//82 89//83 63//58
f 63//58 90//84 64//59
f 90//84 65//60 64//59
f 91//85 66//61 65//60
f 92//86 67//62 66//61
f 93//87 68//63 67//62
f 94//88 69//64 68//63
f 95//89 70//65 69//64
f 96//90 71//66 70//65
f 97//91 72//67 71//66
f 72//67 99//92 73//93
f 73//93 100//94 74//69
f 74//69 101//95 75//70
f 75//70 102//96 76//71
f 76//71 103//97 77//72
f 77//72 104//98 78//99
f 79//100 106//101 80//74
f 106//101 81//75 80//74
f 107//102 82//76 81//75
f 108//103 83//77 82//76
f 109//104 84//105 83//77
f 110//106 85//79 84//105
f 111//107 86//80 85//79
f 112//108 87//81 86//80
f 113//109 88//110 87//81
f 114//111 89//83 88//110
f 115//112 90//84 89//83
f 116//113 91//85 90//84
f 117//114 92//86 91//85
f 92//86 119//115 93//87
f 119//115 94//88 93//87
f 120//116 95//89 94//88
f 121//117 96//90 95//89
f 122//118 97//91 96//90
f 123//119 98//120 97//91
f 98//120 125//121 99//92
f 99//92 126//122 100//94
f 100//94 127//123 101//95
f 101//95 128//124 102//96
f 102//96 129//125 103//97
f 129//125 104//98 103//97
f 131//126 106//101 105//127
f 132//128 107//102 106//101
f 133//129 108//103 107//102
f 134//130 109//104 108//103
f 135//131 110//106 109//104
f 136//132 111//107 110//106
f 137//133 112//108 111//107
f 138//134 113//109 112//108
f 113//109 140//135 114//111
f 140//135 115//112 114//111
f 141//136 116//113 115//112
f 142//137 117//114 116//113
f 117//114 144//138 118//139
f 118//139 145//140 119//115
f 145//140 120//116 119//115
f 146//141 121//117 120//116
f 147//142 122//118 121//117
f 148//143 123//119 122//118
f 149//144 124//145 123//119
f 150//146 125//121 124//145
f 125//121 152//147 126//122
f 126//122 153//148 127//123
f 127//123 154//149 128//124
f 128//124 155//150 129//125
f 155//150 130//151 129//125
f 157//152 132//128 131//126
f 158//153 133//129 132//128
f 159//154 134//130 133//129
f 160//155 135//131 134//130
f 161//156 136//132 135//131
f 162//157 137//133 136//132
f 163//158 138//134 137//133
f 164//159 139//160 138//134
f 139//160 166//161 140//135
f 166//161 141//136 140//135
f 167//162 142//137 141//136
f 168//163 143//164 142//137
f 143//164 170//165 144//138
f 144//138 171//166 145//140
f 171//166 146//141 145//140
f 172//167 147//142 146//141
f 173//168 148//143 147//142
f 148//143 175//169 149//144
f 175//169 150//146 149//144
f 176//170 151//171 150//146
f 177//172 152//147 151//171
f 152//147 179//173 153//148
f 153//148 180//174 154//149
f 154//149 181//175 155//150
f 155//150 182//176 156//177
f 183//178 158//153 157//152
f 184//179 159//154 158//153
f 185//180 160//155 159//154
f 186//181 161//156 160//155
f 187//182 162//157 161//156
f 188//183 163//158 162//157
f 163//158 190//184 164//159
f 190//184 165//185 164//159
f 191//186 166//161 165//185
f 192//187 167//162 166//161
f 193//188 168//163 167//162
f 168//163 195//189 169//190
f 195//189 170//165 169//190
f 196//191 171//166 170//165
f 171//166 198//192 172//167
f 198//192 173//168 172//167
f 199//193 174//194 173//168
f 200//195 175//169 174//194
f 175//169 202//196 176//170
f 176//170 203//197 177//172
f 177//172 204//198 178//199
f 204//198 179//173 178//199
f 179//173 206//200 180//174
f 180//174 207//201 181//175
f 181//175 208//202 182//176
f 183//178 210//203 184//179
f 184//179 211//204 185//180
f 211//204 186//181 185//180
f 212//205 187//182 186//181
f 213//206 188//183 187//182
f 214//207 189//208 188//183
f 215//209 190//184 189//208
f 216//210 191//186 190//184
f 217//211 192//187 191//186
f 218//212 193//188 192//187
f 219//213 194//214 193//188
f 220//215 195//189 194//214
f 221//216 196//191 195//189
f 222//217 197//218 196//191
f 197//218 224//219 198//192
f 198//192 225//220 199//193
f 225//220 200//195 199//193
f 226//221 201//222 200//195
f 201//222 228//223 202//196
f 202//196 229//224 203//197
f 203//197 230//225 204//198
f 230//225 205//226 204//198
f 205//226 232//227 206//200
f 232//227 207//201 206//200
f 233//228 208//202 207//201
f 209//229 236//230 210//203
f 236//230 211//204 210//203
f 237//231 212//205 211//204
f 238//232 213//206 212//205
f 239//233 214//207 213//206
f 240//234 215//209 214//207
f 241//235 216//210 215//209
f 242//236 217//211 216//210
f 243//237 218//212 217//211
f 244//238 219//213 218//212
f 245//239 220//215 219//213
f 246//240 221//216 220//215
f 247//241 222//217 221//216
f 248//242 223//243 222//217
f 223//243 250//244 224//219
f 224//219 251//245 225//220
f 251//245 226//221 225//220
f 252//246 227//247 226//221
f 227//247 254//248 228//223
f 228//223 255//249 229//224
f 229//224 256//250 230//225
f 256//250 231//251 230//225
f 257//252 232//227 231//251
f 258//253 233//228 232//227
f 233//228 260//254 234//255
f 261//256 236//230 235//257
f 262//258 237//231 236//230
f 263//259 238//232 237//231
f 264//260 239//233 238//232
f 265//261 240//234 239//233
f 266//262 241//235 240//234
f 267//263 242//236 241//235
f 268//264 243//237 242//236
f 269//265 244//238 243//237
f 270//266 245//239 244//238
f 245//239 272//267 246//240
f 246//240 273//268 247//241
f 247//241 274//269 248//242
f 274//269 249//270 248//242
f 249//270 276//271 250//244
f 250//244 277//272 251//245
f 277//272 252//246 251//245
f 278//273 253//274 252//246
f 279//275 254//248 253//274
f 254//248 281//276 255//249
f 255//249 282//277 256//250
f 256//250 283//278 257//252
f 283//278 258//253 257//252
f 284//279 259//280 258//253
f 259//280 286//281 260//254
f 287//282 262//258 261//256
f 288//283 263//259 262//258
f 289//284 264//260 263//259
f 264//260 291//285 265//261
f 265//261 292//286 266//262
f 292//286 267//263 266//262
f 293//287 268//264 267//263
f 294//288 269//265 268//264
f 269//265 296//289 270//266
f 270//266 297//290 271//291
f 297//290 272//267 271//291
f 298//292 273//268 272//267
f 299//293 274//269 273//268
f 274//269 301//294 275//295
f 301//294 276//271 275//295
f 302//296 277//272 276//271
f 303//297 278//273 277//272
f 304//298 279//275 278//273
f 305//299 280//300 279//275
f 280//300 307//301 281//276
f 281//276 308//302 282//277
f 308//302 283//278 282//277
f 309//303 284//279 283//278
f 310//304 285//305 284//279
f 311//306 286//281 285//305
f 313//307 288//283 287//282
f 314//308 289//284 288//283
f 315//309 290//310 289//284
f 290//310 317//311 291//285
f 291//285 318//312 292//286
f 318//312 293//287 292//286
f 319//313 294//288 293//287
f 294//288 321//314 295//315
f 295//315 322//316 296//289
f 322//316 297//290 296//289
f 297//290 324//317 298//292
f 324//317 299//293 298//292
f 299//293 326//318 300//319
f 300//319 327//320 301//294
f 327//320 302//296 301//294
f 328//321 303//297 302//296
f 329//322 304//298 303//297
f 330//323 305//299 304//298
f 331//324 306//325 305//299
f 306//325 333//326 307//301
f 333//326 308//302 307//301
f 334//327 309//303 308//302
f 335//328 310//304 309//303
f 336//329 311//306 310//304
f 337//330 312//331 311//306
f 313//307 340//332 314//308
f 314//308 341//333 315//309
f 315//309 342//334 316//335
f 316//335 343//336 317//311
f 317//311 344//337 318//312
f 344//337 319//313 318//312
f 319//313 346//338 320//339
f 320//339 347//340 321//314
f 321//314 348//341 322//316
f 322//316 349//342 323//343
f 349//342 324//317 323//343
f 324//317 351//344 325//345
f 325//345 352//346 326//318
f 326//318 353//347 327//320
f 327//320 354//348 328//321
f 354//348 329//322 328//321
f 329//322 356//349 330//323
f 356//349 331//324 330//323
f 357//350 332//351 331//324
f 332//351 359//352 333//326
f 333//326 360//353 334//327
f 334//327 361//354 335//328
f 335//328 362//355 336//329
f 362//355 337//330 336//329
f 337//330 364//356 338//357
f 339//358 366//359 340//332
f 340//332 367//360 341//333
f 341//333 368//361 342//334
f 368//361 343//336 342//334
f 369//362 344//337 343//336
f 344//337 371//363 345//364
f 345//364 372//365 346//338
f 346//338 373//366 347//340
f 373//366 348//341 347//340
f 348//341 375//367 349//342
f 375//367 350//368 349//342
f 350//368 377//369 351//344
f 351//344 378//370 352//346
f 378//370 353//347 352//346
f 353//347 380//371 354//348
f 354//348 381//372 355//373
f 355//373 382//374 356//349
f 356//349 383//375 357//350
f 383//375 358//376 357//350
f 358//376 385//377 359//352
f 359//352 386//378 360//353
f 360//353 387//379 361//354
f 361//354 388//380 362//355
f 362//355 389//381 363//382
f 363//382 390//383 364//356
f 365//384 392//385 366//359
f 366//359 393//386 367//360
f 367//360 394//387 368//361
f 368//361 395//388 369//362
f 369//362 396//389 370//390
f 396//389 371//363 370//390
f 397//391 372//365 371//363
f 398//392 373//366 372//365
f 399//393 374//394 373//366
f 400//395 375//367 374//394
f 375//367 402//396 376//397
f 376//397 403//398 377//369
f 403//398 378//370 377//369
f 404//399 379//400 378//370
f 405//401 380//371 379//400
f 380//371 407//402 381//372
f 407//402 382//374 381//372
f 408//403 383//375 382//374
f 409//404 384//405 383//375
f 410//406 385//377 384//405
f 411//407 386//378 385//377
f 412//408 387//379 386//378
f 387//379 414//409 388//380
f 388//380 415//410 389//381
f 389//381 416//411 390//383
f 391//412 418//413 392//385
f 392//385 419//414 393//386
f 393//386 420//415 394//387
f 394//387 421//416 395//388
f 395//388 422//417 396//389
f 396//389 423//418 397//391
f 397//391 424//419 398//392
f 398//392 425//420 399//393
f 399//393 426//421 400//395
f 400//395 427//422 401//423
f 401//423 428//424 402//396
f 402//396 429//425 403//398
f 403//398 430//426 404//399
f 404//399 431//427 405//401
f 405//401 432//428 406//429
f 406//429 433//430 407//402
f 407//402 434//431 408//403
f 408//403 435//432 409//404
f 435//432 410//406 409//404
f 436//433 411//407 410//406
f 437//434 412//408 411//407
f 438//435 413//436 412//408
f 439//437 414//409 413//436
f 440//438 415//410 414//409
f 441//439 416//411 415//410
f 417//440 444//441 418//413
f 418//413 445//442 419//414
f 419//414 446//443 420//415
f 420//415 447//444 421//416
f 421//416 448//445 422//417
f 422//417 449//446 423//418
f 423//418 450//447 424//419
f 424//419 451//448 425//420
f 425//420 452//449 426//421
f 426//421 453//450 427//422
f 427//422 454//451 428//424
f 454//451 429//425 428//424
f 429//425 456//452 430//426
f 430//426 457//453 431//427
f 431//427 458//454 432//428
f 458//454 433//430 432//428
f 433//430 460//455 434//431
f 434//431 461//456 435//432
f 435//432 462//457 436//433
f 462//457 437//434 436//433
f 437//434 464//458 438//435
f 438//435 465//459 439//437
f 465//459 440//438 439//437
f 466//460 441//439 440//438
f 467//461 442//462 441//439
f 443//463 470//464 444//441
f 444//441 471//465 445//442
f 445//442 472//466 446//443
f 446//443 473//467 447//444
f 447//444 474//468 448//445
f 448//445 475//469 449//446
f 449//446 476//470 450//447
f 450//447 477//471 451//448
f 451//448 478//472 452//449
f 452//449 479//473 453//450
f 453//450 480//474 454//451
f 454//451 481//475 455//476
f 455//476 482//477 456//452
f 482//477 457//453 456//452
f 483//478 458//454 457//453
f 484//479 459//480 458//454
f 485//481 460//455 459//480
f 460//455 487//482 461//456
f 461//456 488//483 462//457
f 462//457 489//484 463//485
f 463//485 490//486 464//458
f 464//458 491//487 465//459
f 491//487 466//460 465//459
f 492//488 467//461 466//460
f 493//489 468//490 467//461
f 469//491 496//492 470//464
f 470//464 497//493 471//465
f 471//465 498//494 472//466
f 472//466 499//495 473//467
f 473//467 500//496 474//468
f 474//468 501//497 475//469
f 475//469 502//498 476//470
f 476//470 503//499 477//471
f 477//471 504//500 478//472
f 478//472 505//501 479//473
f 479//473 506//502 480//474
f 480//474 507//503 481//475
f 481//475 508//504 482//477
f 508//504 483//478 482//477
f 483//478 510//505 484//479
f 484//479 511//506 485//481
f 485//481 512//507 486//508
f 486//508 513//509 487//482
f 513//509 488//483 487//482
f 514//510 489//484 488//483
f 515//511 490//486 489//484
f 490//486 517//512 491//487
f 517//512 492//488 491//487
f 492//488 519//513 493//489
f 493//489 520//514 494//515
f 495//516 522//517 496//492
f 496//492 523//518 497//493
f 497//493 524//519 498//494
f 498//494 525//520 499//495
f 499//495 526//521 500//496
f 500//496 527//522 501//497
f 501//497 528//523 502//498
f 502//498 529//524 503//499
f 503//499 530//525 504//500
f 504//500 531//526 505//501
f 505//501 532//527 506//502
f 506//502 533//528 507//503
f 533//528 508//504 507//503
f 534//529 509//530 508//504
f 535//531 510//505 509//530
f 536//532 511//506 510//505
f 537//533 512//507 511//506
f 538//534 513//509 512//507
f 539//535 514//510 513//509
f 540//536 515//511 514//510
f 541//537 516//538 515//511
f 516//538 543//539 517//512
f 517//512 544//540 518//541
f 518//541 545//542 519//513
f 519//513 546//543 520//514
f 521//544 548//545 522//517
f 522//517 549//546 523//518
f 523//518 550//547 524//519
f 524//519 551//548 525//520
f 525//520 552//549 526//521
f 526//521 553//550 527//522
f 527//522 554//551 528//523
f 528//523 555//552 529//524
f 529//524 556//553 530//525
f 530//525 557//554 531//526
f 531//526 558//555 532//527
f 532//527 559//556 533//528
f 559//556 534//529 533//528
f 560//557 535//531 534//529
f 561//558 536//532 535//531
f 562//559 537//533 536//532
f 563//560 538//534 537//533
f 564//561 539//535 538//534
f 539//535 566//562 540//536
f 540//536 567//563 541//537
f 541//537 568//564 542//565
f 542//565 569//566 543//539
f 543//539 570//567 544//540
f 544//540 571//568 545//542
f 545//542 572//569 546//543
f 547//570 574//571 548//545
f 548//545 575//572 549//546
f 549//546 576//573 550//547
f 550//547 577//574 551//548
f 551//548 578//575 552//549
f 552//549 579//576 553//550
f 553//550 580//577 554//551
f 554//551 581//578 555//552
f 555//552 582//579 556//553
f 556//553 583//580 557//554
f 557//554 584//581 558//555
f 558//555 585//582 559//556
f 559//556 586//583 560//557
f 586//583 561//558 560//557
f 587//584 562//559 561//558
f 588//585 563//560 562//559
f 563//560 590//586 564//561
f 590//586 565//587 564//561
f 591//588 566//562 565//587
f 566//562 593//589 567//563
f 567//563 594//590 568//564
f 594//590 569//566 568//564
f 569//566 596//591 570//567
f 570//567 597//592 571//568
f 571//568 598//593 572//569
f 573//594 600//595 574//571
f 574//571 601//596 575//572
f 575//572 602//597 576//573
f 576//573 603//598 577//574
f 577//574 604//599 578//575
f 578//575 605//600 579//576
f 579//576 606//601 580//577
f 580//577 607//602 581//578
f 581//578 608//603 582//579
f 582//579 609//604 583//580
f 583//580 610//605 584//581
f 584//581 611//606 585//582
f 585//582 612//607 586//583
f 612//607 587//584 586//583
f 613//608 588//585 587//584
f 588//585 615//609 589//610
f 589//610 616//611 590//586
f 590//586 617//612 591//588
f 591//588 618//613 592//614
f 592//614 619//615 593//589
f 593//589 620//616 594//590
f 594//590 621//617 595//618
f 621//617 596//591 595//618
f 596//591 623//619 597//592
f 597//592 624//620 598//593
f 625//621 600//595 599//622
f 600//595 627//623 601//596
f 601//596 628//624 602//597
f 602//597 629//625 603//598
f 603//598 630//626 604//599
f 604//599 631//627 605//600
f 605//600 632//628 606//601
f 606//601 633//629 607//602
f 607//602 634//630 608//603
f 608//603 635//631 609//604
f 609//604 636//632 610//605
f 610//605 637//633 611//606
f 637//633 612//607 611//606
f 638//634 613//608 612//607
f 639//635 614//636 613//608
f 614//636 641//637 615//609
f 615//609 642//638 616//611
f 616//611 643//639 617//612
f 617//612 644//640 618//613
f 644//640 619//615 618//613
f 619//615 646//641 620//616
f 620//616 647//642 621//617
f 647//642 622//643 621//617
f 648//644 623//619 622//643
f 649//645 624//620 623//619
f 625//621 652//646 626//647
f 652//646 627//623 626//647
f 627//623 654//648 628//624
f 628//624 655//649 629//625
f 629//625 656//650 630//626
f 630//626 657//651 631//627
f 631//627 658//652 632//628
f 632//628 659//653 633//629
f 633//629 660//654 634//630
f 634//630 661//655 635//631
f 635//631 662//656 636//632
f 662//656 637//633 636//632
f 663//657 638//634 637//633
f 638//634 665//658 639//635
f 665//658 640//659 639//635
f 640//659 667//660 641//637
f 641//637 668//661 642//638
f 642//638 669//662 643//639
f 643//639 670//663 644//640
f 670//663 645//664 644//640
f 645//664 672//665 646//641
f 646//641 673//666 647//642
f 673//666 648//644 647//642
f 674//667 649//645 648//644
f 675//668 650//669 649//645
s 0
f 1//670 678//670 677//670
f 2//670 679//670 678//670
f 3//670 680//670 679//670
f 4//670 681//670 680//670
f 5//670 682//670 681//670
f 6//670 683//670 682//670
f 7//670 684//670 683//670
f 8//670 685//670 684//670
f 9//670 686//670 685//670
f 10//670 687//670 686//670
f 11//670 688//670 687//670
f 12//670 689//670 688//670
f 13//670 690//670 689//670
f 14//670 691//670 690//670
f 15//670 692//670 691//670
f 16//670 693//670 692//670
f 17//670 694//670 693//670
f 18//670 695//670 694//670
f 19//670 696//670 695//670
f 20//670 697//670 696//670
f 21//670 698//670 697//670
f 22//670 699//670 698//670
f 23//670 700//670 699//670
f 24//670 701//670 700//670
f 25//670 702//670 701//670
f 26//670 703//670 702//670
f 52//670 704//670 703//670
f 78//670 705//670 704//670
f 104//670 706//670 705//670
f 130//670 707//670 706//670
f 156//670 708//670 707//670
f 182//670 709//670 708//670
f 208//670 710//670 709//670
f 234//670 711//670 710//670
f 260//670 712//670 711//670
f 286//670 713//670 712//670
f 312//670 714//670 713//670
f 338//670 715//670 714//670
f 364//670 716//670 715//670
f 390//670 717//670 716//670
f 416//670 718//670 717//670
f 442//670 719//670 718//670
f 468//670 720//670 719//670
f 494//670 721//670 720//670
f 520//670 722//670 721//670
f 546//670 723//670 722//670
f 572//670 724//670 723//670
f 598//670 725//670 724//670
f 624//670 726//670 725//670
f 650//670 727//670 726//670
f 676//670 728//670 727//670
f 675//670 729//670 728//670
f 674//670 730//670 729//670
f 673//670 731//670 730//670
f 672//670 732//670 731//670
f 671//670 733//670 732//670
f 670//670 734//670 733//670
f 669//670 735//670 734//670
f 668//670 736//670 735//670
f 667//670 737//670 736//670
f 666//670 738//670 737//670
f 665//670 739//670 738//670
f 664//670 740//670 739//670
f 663//670 741//670 740//670
f 662//670 742//670 741//670
f 661//670 743//670 742//670
f 660//670 744//670 743//670
f 659//670 745//670 744//670
f 658//670 746//670 745//670
f 657//670 747//670 746//670
f 656//670 748//670 747//670
f 655//670 749//670 748//670
f 654//670 750//670 749//670
f 653//670 751//670 750//670
f 652//670 752//670 751//670
f 651//670 753//670 752//670
f 625//670 754//670 753//670
f 599//670 755//670 754//670
f 573//670 756//670 755//670
f 547//670 757//670 756//670
f 521//670 758//670 757//670
f 495//670 759//670 758//670
f 469//670 760//670 759//670
f 443//670 761//670 760//670
f 417//670 762//670 761//670
f 391//670 763//670 762//670
f 365//670 764//670 763//670
f 339//670 765//670 764//670
f 313//670 766//670 765//670
f 287//670 767//670 766//670
f 261//670 768//670 767//670
f 235//670 769//670 768//670
f 209//670 770//670 769//670
f 183//670 771//670 770//670
f 157//670 772//670 771//670
f 131//670 773//670 772//670
f 105//670 774//670 773//670
f 79//670 775//670 774//670
f 53//670 776//670 775//670
f 27//670 677//670 776//670
f 777//670 677//670 678//670
f 777//670 678//670 679//670
f 777//670 679//670 680//670
f 777//670 680//670 681//670
f 777//670 681//670 682//670
f 777//670 682//670 683//670
f 777//670 683//670 684//670
f 777//670 684//670 685//670
f 777//670 685//670 686//670
f 777//670 686//670 687//670
f 777//670 687//670 688//670
f 777//670 688//670 689//670
f 777//670 689//670 690//670
f 777//670 690//670 691//670
f 777//670 691//670 692//670
f 777//670 692//670 693//670
f 777//670 693//670 694//670
f 777//670 694//670 695//670
f 777//670 695//670 696//670
f 777//670 696//670 697//670
f 777//670 697//670 698//670
f 777//670 698//670 699//670
f 777//670 699//670 700//670
f 777//670 700//670 701//670
f 777//670 701//670 702//670
f 777//670 702//670 703//670
f 777//670 703//670 704//670
f 777//670 704//670 705//670
f 777//670 705//670 706//670
f 777//670 706//670 707//670
f 777//670 707//670 708//670
f 777//670 708//670 709//670
f 777//670 709//670 710//670
f 777//670 710//670 711//670
f 777//670 711//670 712//670
f 777//670 712//670 713//670
f 777//670 713//670 714//670
f 777//670 714//670 715//670
f 777//670 715//670 716//670
f 777//670 716//670 717//670
f 777//670 717//670 718//670
f 777//670 718//670 719//670
f 777//670 719//670 720//670
f 777//670 720//670 721//670
f 777//670 721//670 722//670
f 777//670 722//670 723//670
f 777//670 723//670 724//670
f 777//670 724//670 725//670
f 777//670 725//670 726//670
f 777//670 726//670 727//670
f 777//670 727//670 728//670
f 777//670 728//670 729//670
f 777//670 729//670 730//670
f 777//670 730//670 731//670
f 777//670 731//670 732//670
f 777//670 732//670 733//670
f 777//670 733//670 734//670
f 777//670 734//670 735//670
f 777//670 735//670 736//670
f 777//670 736//670 737//670
f 777//670 737//670 738//670
f 777//670 738//670 739//670
f 777//670 739//670 740//670
f 777//670 740//670 741//670
f 777//670 741//670 742//670
f 777//670 742//670 743//670
f 777//670 743//670 744//670
f 777//670 744//670 745//670
f 777//670 745//670 746//670
f 777//670 746//670 747//670
f 777//670 747//670 748//670
f 777//670 748//670 749//670
f 777//670 749//670 750//670
f 777//670 750//670 751//670
f 777//670 751//670 752//670
f 777//670 752//670 753//670
f 777//670 753//670 754//670
f 777//670 754//670 755//670
f 777//670 755//670 756//670
f 777//670 756//670 757//670
f 777//670 757//670 758//670
f 777//670 758//670 759//670
f 777//670 759//670 760//670
f 777//670 760//670 761//670
f 777//670 761//670 762//670
f 777//670 762//670 763//670
f 777//670 763//670 764//670
f 777//670 764//670 765//670
f 777//670 765//670 766//670
f 777//670 766//670 767//670
f 777//670 767//670 768//670
f 777//670 768//670 769//670
f 777//670 769//670 770//670
f 777//670 770//670 771//670
f 777//670 771//670 772//670
f 777//670 772//670 773//670
f 777//670 773//670 774//670
f 777//670 774//670 775//670
f 777//670 775//670 776//670
f 777//670 776//670 677//670
s 1
f 27//1 28//4 2//2
f 28//4 29//49 3//5
f 3//5 29//49 30//6
f 30//6 31//9 5//8
f 31//9 32//11 6//10
f 32//11 33//54 7//12
f 7//12 33//54 34//13
f 34//13 35//16 9//15
f 35//16 36//57 10//17
f 10//17 36//57 37//18
f 11//19 37//18 38//20
f 12//21 38//20 39//22
f 13//23 39//22 40//24
f 40//24 41//27 15//26
f 41//27 42//29 16//28
f 42//29 43//31 17//30
f 43//31 44//33 18//32
f 44//33 45//35 19//34
f 45//35 46//37 20//36
f 46//37 47//68 21//38
f 21//38 47//68 48//39
f 22//40 48//39 49//41
f 23//42 49//41 50//43
f 50//43 51//73 25//45
f 25//45 51//73 52//46
f 53//47 54//48 28//4
f 54//48 55//50 29//49
f 55//50 56//51 30//6
f 56//51 57//52 31//9
f 57//52 58//78 32//11
f 32//11 58//78 59//53
f 33//54 59//53 60//55
f 60//55 61//56 35//16
f 61//56 62//82 36//57
f 36//57 62//82 63//58
f 63//58 64//59 38//20
f 64//59 65//60 39//22
f 65//60 66//61 40//24
f 66//61 67//62 41//27
f 67//62 68//63 42//29
f 68//63 69//64 43//31
f 69//64 70//65 44//33
f 70//65 71//66 45//35
f 71//66 72//67 46//37
f 72//67 73//93 47//68
f 47//68 73//93 74//69
f 48//39 74//69 75//70
f 49//41 75//70 76//71
f 50//43 76//71 77//72
f 77//72 78//99 52//46
f 53//47 79//100 80//74
f 80//74 81//75 55//50
f 81//75 82//76 56//51
f 82//76 83//77 57//52
f 83//77 84//105 58//78
f 58//78 84//105 85//79
f 85//79 86//80 60//55
f 86//80 87//81 61//56
f 87//81 88//110 62//82
f 62//82 88//110 89//83
f 63//58 89//83 90//84
f 90//84 91//85 65//60
f 91//85 92//86 66//61
f 92//86 93//87 67//62
f 93//87 94//88 68//63
f 94//88 95//89 69//64
f 95//89 96//90 70//65
f 96//90 97//91 71//66
f 97//91 98//120 72//67
f 72//67 98//120 99//92
f 73//93 99//92 100//94
f 74//69 100//94 101//95
f 75//70 101//95 102//96
f 76//71 102//96 103//97
f 77//72 103//97 104//98
f 79//100 105//127 106//101
f 106//101 107//102 81//75
f 107//102 108//103 82//76
f 108//103 109//104 83//77
f 109//104 110//106 84//105
f 110//106 111//107 85//79
f 111//107 112//108 86//80
f 112//108 113//109 87//81
f 113//109 114//111 88//110
f 114//111 115//112 89//83
f 115//112 116//113 90//84
f 116//113 117//114 91//85
f 117//114 118//139 92//86
f 92//86 118//139 119//115
f 119//115 120//116 94//88
f 120//116 121//117 95//89
f 121//117 122//118 96//90
f 122//118 123//119 97//91
f 123//119 124//145 98//120
f 98//120 124//145 125//121
f 99//92 125//121 126//122
f 100//94 126//122 127//123
f 101//95 127//123 128//124
f 102//96 128//124 129//125
f 129//125 130//151 104//98
f 131//126 132//128 106//101
f 132//128 133//129 107//102
f 133//129 134//130 108//103
f 134//130 135//131 109//104
f 135//131 136//132 110//106
f 136//132 137//133 111//107
f 137//133 138//134 112//108
f 138//134 139//160 113//109
f 113//109 139//160 140//135
f 140//135 141//136 115//112
f 141//136 142//137 116//113
f 142//137 143//164 117//114
f 117//114 143//164 144//138
f 118//139 144//138 145//140
f 145//140 146//141 120//116
f 146//141 147//142 121//117
f 147//142 148//143 122//118
f 148//143 149//144 123//119
f 149//144 150//146 124//145
f 150//146 151//171 125//121
f 125//121 151//171 152//147
f 126//122 152//147 153//148
f 127//123 153//148 154//149
f 128//124 154//149 155//150
f 155//150 156//177 130//151
f 157//152 158//153 132//128
f 158//153 159//154 133//129
f 159//154 160//155 134//130
f 160//155 161//156 135//131
f 161//156 162//157 136//132
f 162//157 163//158 137//133
f 163//158 164//159 138//134
f 164//159 165//185 139//160
f 139//160 165//185 166//161
f 166//161 167//162 141//136
f 167//162 168//163 142//137
f 168//163 169//190 143//164
f 143//164 169//190 170//165
f 144//138 170//165 171//166
f 171//166 172//167 146//141
f 172//167 173//168 147//142
f 173//168 174//194 148//143
f 148//143 174//194 175//169
f 175//169 176//170 150//146
f 176//170 177//172 151//171
f 177//172 178//199 152//147
f 152//147 178//199 179//173
f 153//148 179//173 180//174
f 154//149 180//174 181//175
f 155//150 181//175 182//176
f 183//178 184//179 158//153
f 184//179 185//180 159//154
f 185//180 186//181 160//155
f 186//181 187//182 161//156
f 187//182 188//183 162//157
f 188//183 189//208 163//158
f 163//158 189//208 190//184
f 190//184 191//186 165//185
f 191//186 192//187 166//161
f 192//187 193//188 167//162
f 193//188 194//214 168//163
f 168//163 194//214 195//189
f 195//189 196//191 170//165
f 196//191 197//218 171//166
f 171//166 197//218 198//192
f 198//192 199//193 173//168
f 199//193 200//195 174//194
f 200//195 201//222 175//169
f 175//169 201//222 202//196
f 176//170 202//196 203//197
f 177//172 203//197 204//198
f 204//198 205//226 179//173
f 179//173 205//226 206//200
f 180//174 206//200 207//201
f 181//175 207//201 208//202
f 183//178 209//229 210//203
f 184//179 210//203 211//204
f 211//204 212//205 186//181
f 212//205 213//206 187//182
f 213//206 214//207 188//183
f 214//207 215//209 189//208
f 215//209 216//210 190//184
f 216//210 217//211 191//186
f 217//211 218//212 192//187
f 218//212 219//213 193//188
f 219//213 220//215 194//214
f 220//215 221//216 195//189
f 221//216 222//217 196//191
f 222//217 223//243 197//218
f 197//218 223//243 224//219
f 198//192 224//219 225//220
f 225//220 226//221 200//195
f 226//221 227//247 201//222
f 201//222 227//247 228//223
f 202//196 228//223 229//224
f 203//197 229//224 230//225
f 230//225 231//251 205//226
f 205//226 231//251 232//227
f 232//227 233//228 207//201
f 233//228 234//255 208//202
f 209//229 235//257 236//230
f 236//230 237//231 211//204
f 237//231 238//232 212//205
f 238//232 239//233 213//206
f 239//233 240//234 214//207
f 240//234 241//235 215//209
f 241//235 242//236 216//210
f 242//236 243//237 217//211
f 243//237 244//238 218//212
f 244//238 245//239 219//213
f 245//239 246//240 220//215
f 246//240 247//241 221//216
f 247//241 248//242 222//217
f 248//242 249//270 223//243
f 223//243 249//270 250//244
f 224//219 250//244 251//245
f 251//245 252//246 226//221
f 252//246 253//274 227//247
f 227//247 253//274 254//248
f 228//223 254//248 255//249
f 229//224 255//249 256//250
f 256//250 257//252 231//251
f 257//252 258//253 232//227
f 258//253 259//280 233//228
f 233//228 259//280 260//254
f 261//256 262//258 236//230
f 262//258 263//259 237//231
f 263//259 264//260 238//232
f 264//260 265//261 239//233
f 265//261 266//262 240//234
f 266//262 267//263 241//235
f 267//263 268//264 242//236
f 268//264 269//265 243//237
f 269//265 270//266 244//238
f 270//266 271//291 245//239
f 245//239 271//291 272//267
f 246//240 272//267 273//268
f 247//241 273//268 274//269
f 274//269 275//295 249//270
f 249//270 275//295 276//271
f 250//244 276//271 277//272
f 277//272 278//273 252//246
f 278//273 279//275 253//274
f 279//275 280//300 254//248
f 254//248 280//300 281//276
f 255//249 281//276 282//277
f 256//250 282//277 283//278
f 283//278 284//279 258//253
f 284//279 285//305 259//280
f 259//280 285//305 286//281
f 287//282 288//283 262//258
f 288//283 289//284 263//259
f 289//284 290//310 264//260
f 264//260 290//310 291//285
f 265//261 291//285 292//286
f 292//286 293//287 267//263
f 293//287 294//288 268//264
f 294//288 295//315 269//265
f 269//265 295//315 296//289
f 270//266 296//289 297//290
f 297//290 298//292 272//267
f 298//292 299//293 273//268
f 299//293 300//319 274//269
f 274//269 300//319 301//294
f 301//294 302//296 276//271
f 302//296 303//297 277//272
f 303//297 304//298 278//273
f 304//298 305//299 279//275
f 305//299 306//325 280//300
f 280//300 306//325 307//301
f 281//276 307//301 308//302
f 308//302 309//303 283//278
f 309//303 310//304 284//279
f 310//304 311//306 285//305
f 311//306 312//331 286//281
f 313//307 314//308 288//283
f 314//308 315//309 289//284
f 315//309 316//335 290//310
f 290//310 316//335 317//311
f 291//285 317//311 318//312
f 318//312 319//313 293//287
f 319//313 320//339 294//288
f 294//288 320//339 321//314
f 295//315 321//314 322//316
f 322//316 323//343 297//290
f 297//290 323//343 324//317
f 324//317 325//345 299//293
f 299//293 325//345 326//318
f 300//319 326//318 327//320
f 327//320 328//321 302//296
f 328//321 329//322 303//297
f 329//322 330//323 304//298
f 330//323 331//324 305//299
f 331//324 332//351 306//325
f 306//325 332//351 333//326
f 333//326 334//327 308//302
f 334//327 335//328 309//303
f 335//328 336//329 310//304
f 336//329 337//330 311//306
f 337//330 338//357 312//331
f 313//307 339//358 340//332
f 314//308 340//332 341//333
f 315//309 341//333 342//334
f 316//335 342//334 343//336
f 317//311 343//336 344//337
f 344//337 345//364 319//313
f 319//313 345//364 346//338
f 320//339 346//338 347//340
f 321//314 347//340 348//341
f 322//316 348//341 349//342
f 349//342 350//368 324//317
f 324//317 350//368 351//344
f 325//345 351//344 352//346
f 326//318 352//346 353//347
f 327//320 353//347 354//348
f 354//348 355//373 329//322
f 329//322 355//373 356//349
f 356//349 357//350 331//324
f 357//350 358//376 332//351
f 332//351 358//376 359//352
f 333//326 359//352 360//353
f 334//327 360//353 361//354
f 335//328 361//354 362//355
f 362//355 363//382 337//330
f 337//330 363//382 364//356
f 339//358 365//384 366//359
f 340//332 366//359 367//360
f 341//333 367//360 368//361
f 368//361 369//362 343//336
f 369//362 370//390 344//337
f 344//337 370//390 371//363
f 345//364 371//363 372//365
f 346//338 372//365 373//366
f 373//366 374//394 348//341
f 348//341 374//394 375//367
f 375//367 376//397 350//368
f 350//368 376//397 377//369
f 351//344 377//369 378//370
f 378//370 379//400 353//347
f 353//347 379//400 380//371
f 354//348 380//371 381//372
f 355//373 381//372 382//374
f 356//349 382//374 383//375
f 383//375 384//405 358//376
f 358//376 384//405 385//377
f 359//352 385//377 386//378
f 360//353 386//378 387//379
f 361//354 387//379 388//380
f 362//355 388//380 389//381
f 363//382 389//381 390//383
f 365//384 391//412 392//385
f 366//359 392//385 393//386
f 367//360 393//386 394//387
f 368//361 394//387 395//388
f 369//362 395//388 396//389
f 396//389 397//391 371//363
f 397//391 398//392 372//365
f 398//392 399//393 373//366
f 399//393 400//395 374//394
f 400//395 401//423 375//367
f 375//367 401//423 402//396
f 376//397 402//396 403//398
f 403//398 404//399 378//370
f 404//399 405//401 379//400
f 405//401 406//429 380//371
f 380//371 406//429 407//402
f 407//402 408//403 382//374
f 408//403 409//404 383//375
f 409//404 410//406 384//405
f 410//406 411//407 385//377
f 411//407 412//408 386//378
f 412//408 413//436 387//379
f 387//379 413//436 414//409
f 388//380 414//409 415//410
f 389//381 415//410 416//411
f 391//412 417//440 418//413
f 392//385 418//413 419//414
f 393//386 419//414 420//415
f 394//387 420//415 421//416
f 395//388 421//416 422//417
f 396//389 422//417 423//418
f 397//391 423//418 424//419
f 398//392 424//419 425//420
f 399//393 425//420 426//421
f 400//395 426//421 427//422
f 401//423 427//422 428//424
f 402//396 428//424 429//425
f 403//398 429//425 430//426
f 404//399 430//426 431//427
f 405//401 431//427 432//428
f 406//429 432//428 433//430
f 407//402 433//430 434//431
f 408//403 434//431 435//432
f 435//432 436//433 410//406
f 436//433 437//434 411//407
f 437//434 438//435 412//408
f 438//435 439//437 413//436
f 439//437 440//438 414//409
f 440//438 441//439 415//410
f 441//439 442//462 416//411
f 417//440 443//463 444//441
f 418//413 444//441 445//442
f 419//414 445//442 446//443
f 420//415 446//443 447//444
f 421//416 447//444 448//445
f 422//417 448//445 449//446
f 423//418 449//446 450//447
f 424//419 450//447 451//448
f 425//420 451//448 452//449
f 426//421 452//449 453//450
f 427//422 453//450 454//451
f 454//451 455//476 429//425
f 429//425 455//476 456//452
f 430//426 456//452 457//453
f 431//427 457//453 458//454
f 458//454 459//480 433//430
f 433//430 459//480 460//455
f 434//431 460//455 461//456
f 435//432 461//456 462//457
f 462//457 463//485 437//434
f 437//434 463//485 464//458
f 438//435 464//458 465//459
f 465//459 466//460 440//438
f 466//460 467//461 441//439
f 467//461 468//490 442//462
f 443//463 469//491 470//464
f 444//441 470//464 471//465
f 445//442 471//465 472//466
f 446//443 472//466 473//467
f 447//444 473//467 474//468
f 448//445 474//468 475//469
f 449//446 475//469 476//470
f 450//447 476//470 477//471
f 451//448 477//471 478//472
f 452//449 478//472 479//473
f 453//450 479//473 480//474
f 454//451 480//474 481//475
f 455//476 481//475 482//477
f 482//477 483//478 457//453
f 483//478 484//479 458//454
f 484//479 485//481 459//480
f 485//481 486//508 460//455
f 460//455 486//508 487//482
f 461//456 487//482 488//483
f 462//457 488//483 489//484
f 463//485 489//484 490//486
f 464//458 490//486 491//487
f 491//487 492//488 466//460
f 492//488 493//489 467//461
f 493//489 494//515 468//490
f 469//491 495//516 496//492
f 470//464 496//492 497//493
f 471//465 497//493 498//494
f 472//466 498//494 499//495
f 473//467 499//495 500//496
f 474//468 500//496 501//497
f 475//469 501//497 502//498
f 476//470 502//498 503//499
f 477//471 503//499 504//500
f 478//472 504//500 505//501
f 479//473 505//501 506//502
f 480//474 506//502 507//503
f 481//475 507//503 508//504
f 508//504 509//530 483//478
f 483//478 509//530 510//505
f 484//479 510//505 511//506
f 485//481 511//506 512//507
f 486//508 512//507 513//509
f 513//509 514//510 488//483
f 514//510 515//511 489//484
f 515//511 516//538 490//486
f 490//486 516//538 517//512
f 517//512 518//541 492//488
f 492//488 518//541 519//513
f 493//489 519//513 520//514
f 495//516 521//544 522//517
f 496//492 522//517 523//518
f 497//493 523//518 524//519
f 498//494 524//519 525//520
f 499//495 525//520 526//521
f 500//496 526//521 527//522
f 501//497 527//522 528//523
f 502//498 528//523 529//524
f 503//499 529//524 530//525
f 504//500 530//525 531//526
f 505//501 531//526 532//527
f 506//502 532//527 533//528
f 533//528 534//529 508//504
f 534//529 535//531 509//530
f 535//531 536//532 510//505
f 536//532 537//533 511//506
f 537//533 538//534 512//507
f 538//534 539//535 513//509
f 539//535 540//536 514//510
f 540//536 541//537 515//511
f 541//537 542//565 516//538
f 516//538 542//565 543//539
f 517//512 543//539 544//540
f 518//541 544//540 545//542
f 519//513 545//542 546//543
f 521//544 547//570 548//545
f 522//517 548//545 549//546
f 523//518 549//546 550//547
f 524//519 550//547 551//548
f 525//520 551//548 552//549
f 526//521 552//549 553//550
f 527//522 553//550 554//551
f 528//523 554//551 555//552
f 529//524 555//552 556//553
f 530//525 556//553 557//554
f 531//526 557//554 558//555
f 532//527 558//555 559//556
f 559//556 560//557 534//529
f 560//557 561//558 535//531
f 561//558 562//559 536//532
f 562//559 563//560 537//533
f 563//560 564//561 538//534
f 564//561 565//587 539//535
f 539//535 565//587 566//562
f 540//536 566//562 567//563
f 541//537 567//563 568//564
f 542//565 568//564 569//566
f 543//539 569//566 570//567
f 544//540 570//567 571//568
f 545//542 571//568 572//569
f 547//570 573//594 574//571
f 548//545 574//571 575//572
f 549//546 575//572 576//573
f 550//547 576//573 577//574
f 551//548 577//574 578//575
f 552//549 578//575 579//576
f 553//550 579//576 580//577
f 554//551 580//577 581//578
f 555//552 581//578 582//579
f 556//553 582//579 583//580
f 557//554 583//580 584//581
f 558//555 584//581 585//582
f 559//556 585//582 586//583
f 586//583 587//584 561//558
f 587//584 588//585 562//559
f 588//585 589//610 563//560
f 563//560 589//610 590//586
f 590//586 591//588 565//587
f 591//588 592//614 566//562
f 566//562 592//614 593//589
f 567//563 593//589 594//590
f 594//590 595//618 569//566
f 569//566 595//618 596//591
f 570//567 596//591 597//592
f 571//568 597//592 598//593
f 573//594 599//622 600//595
f 574//571 600//595 601//596
f 575//572 601//596 602//597
f 576//573 602//597 603//598
f 577//574 603//598 604//599
f 578//575 604//599 605//600
f 579//576 605//600 606//601
f 580//577 606//601 607//602
f 581//578 607//602 608//603
f 582//579 608//603 609//604
f 583//580 609//604 610//605
f 584//581 610//605 611//606
f 585//582 611//606 612//607
f 612//607 613//608 587//584
f 613//608 614//636 588//585
f 588//585 614//636 615//609
f 589//610 615//609 616//611
f 590//586 616//611 617//612
f 591//588 617//612 618//613
f 592//614 618//613 619//615
f 593//589 619//615 620//616
f 594//590 620//616 621//617
f 621//617 622//643 596//591
f 596//591 622//643 623//619
f 597//592 623//619 624//620
f 625//621 626//647 600//595
f 600//595 626//647 627//623
f 601//596 627//623 628//624
f 602//597 628//624 629//625
f 603//598 629//625 630//626
f 604//599 630//626 631//627
f 605//600 631//627 632//628
f 606//601 632//628 633//629
f 607//602 633//629 634//630
f 608//603 634//630 635//631
f 609//604 635//631 636//632
f 610//605 636//632 637//633
f 637//633 638//634 612//607
f 638//634 639//635 613//608
f 639//635 640//659 614//636
f 614//636 640//659 641//637
f 615//609 641//637 642//638
f 616//611 642//638 643//639
f 617//612 643//639 644//640
f 644//640 645//664 619//615
f 619//615 645//664 646//641
f 620//616 646//641 647//642
f 647//642 648//644 622//643
f 648//644 649//645 623//619
f 649//645 650//669 624//620
f 625//621 651//3 652//646
f 652//646 653//671 627//623
f 627//623 653//671 654//648
f 628//624 654//648 655//649
f 629//625 655//649 656//650
f 630//626 656//650 657//651
f 631//627 657//651 658//652
f 632//628 658//652 659//653
f 633//629 659//653 660//654
f 634//630 660//654 661//655
f 635//631 661//655 662//656
f 662//656 663//657 637//633
f 663//657 664//672 638//634
f 638//634 664//672 665//658
f 665//658 666//673 640//659
f 640//659 666//673 667//660
f 641//637 667//660 668//661
f 642//638 668//661 669//662
f 643//639 669//662 670//663
f 670//663 671//674 645//664
f 645//664 671//674 672//665
f 646//641 672//665 673//666
f 673//666 674//667 648//644
f 674//667 675//668 649//645
f 675//668 676//3 650//669
s 0
f 1//670 2//670 678//670
f 2//670 3//670 679//670
f 3//670 4//670 680//670
f 4//670 5//670 681//670
f 5//670 6//670 682//670
f 6//670 7//670 683//670
f 7//670 8//670 684//670
f 8//670 9//670 685//670
f 9//670 10//670 686//670
f 10//670 11//670 687//670
f 11//670 12//670 688//670
f 12//670 13//670 689//670
f 13//670 14//670 690//670
f 14//670 15//670 691//670
f 15//670 16//670 692//670
f 16//670 17//670 693//670
f 17//670 18//670 694//670
f 18//670 19//670 695//670
f 19//670 20//670 696//670
f 20//670 21//670 697//670
f 21//670 22//670 698//670
f 22//670 23//670 699//670
f 23//670 24//670 700//670
f 24//670 25//670 701//670
f 25//670 26//670 702//670
f 26//670 52//670 703//670
f 52//670 78//670 704//670
f 78//670 104//670 705//670
f 104//670 130//670 706//670
f 130//670 156//670 707//670
f 156//670 182//670 708//670
f 182//670 208//670 709//670
f 208//670 234//670 710//670
f 234//670 260//670 711//670
f 260//670 286//670 712//670
f 286//670 312//670 713//670
f 312//670 338//670 714//670
f 338//670 364//670 715//670
f 364//670 390//670 716//670
f 390//670 416//670 717//670
f 416//670 442//670 718//670
f 442//670 468//670 719//670
f 468//670 494//670 720//670
f 494//670 520//670 721//670
f 520//670 546//670 722//670
f 546//670 572//670 723//670
f 572//670 598//670 724//670
f 598//670 624//670 725//670
f 624//670 650//670 726//670
f 650//670 676//670 727//670
f 676//670 675//670 728//670
f 675//670 674//670 729//670
f 674//670 673//670 730//670
f 673//670 672//670 731//670
f 672//670 671//670 732//670
f 671//670 670//670 733//670
f 670//670 669//670 734//670
f 669//670 668//670 735//670
f 668//670 667//670 736//670
f 667//670 666//670 737//670
f 666//670 665//670 738//670
f 665//670 664//670 739//670
f 664//670 663//670 740//670
f 663//670 662//670 741//670
f 662//670 661//670 742//670
f 661//670 660//670 743//670
f 660//670 659//670 744//670
f 659//670 658//670 745//670
f 658//670 657//670 746//670
f 657//670 656//670 747//670
f 656//670 655//670 748//670
f 655//670 654//670 749//670
f 654//670 653//670 750//670
f 653//670 652//670 751//670
f 652//670 651//670 752//670
f 651//670 625//670 753//670
f 625//670 599//670 754//670
f 599//670 573//670 755//670
f 573//670 547//670 756//670
f 547//670 521//670 757//670
f 521//670 495//670 758//670
f 495//670 469//670 759//670
f 469//670 443//670 760//670
f 443//670 417//670 761//670
f 417//670 391//670 762//670
f 391//670 365//670 763//670
f 365//670 339//670 764//670
f 339//670 313//670 765//670
f 313//670 287//670 766//670
f 287//670 261//670 767//670
f 261//670 235//670 768//670
f 235//670 209//670 769//670
f 209//670 183//670 770//670
f 183//670 157//670 771//670
f 157//670 131//670 772//670
f 131//670 105//670 773//670
f 105//670 79//670 774//670
f 79//670 53//670 775//670
f 53//670 27//670 776//670
f 27//670 1//670 677//670
