# Blender 5.2.0 LTS
# www.blender.org
o Sea_Foam
v 75.176025 0.000000 0.000000
v 66.537827 0.000000 -3.960055
v 46.718712 0.000000 -5.824143
v 40.458893 0.000000 -8.230630
v 36.689484 0.000000 -11.409384
v 23.411594 0.000000 -11.354020
v 11.225743 0.000000 -9.673800
v 3.796472 0.000000 -10.113885
v -3.939450 0.000000 -10.494781
v -12.156471 0.000000 -10.475856
v -28.164383 0.000000 -13.658999
v -53.139194 0.000000 -16.524775
v -63.247433 0.000000 -12.866546
v -49.247070 0.000000 -6.139338
v -36.531399 0.000000 -2.174197
v -36.008442 0.000000 -0.000000
v -34.363358 0.000000 2.045164
v -33.815689 0.000000 4.215600
v -39.893257 0.000000 8.115561
v -38.243866 0.000000 11.892752
v -25.675154 0.000000 12.451788
v -16.090034 0.000000 13.865609
v -7.100878 0.000000 18.916895
v 7.633448 0.000000 20.335674
v 16.738916 0.000000 14.424785
v 17.156633 0.000000 8.320525
v 19.427292 0.000000 6.041334
v 23.796053 0.000000 4.840876
v 32.939133 0.000000 4.106325
v 55.909840 0.000000 3.327521
v 0.000000 2.400000 0.000000
v 0.000000 -0.960000 0.000000
vn 0.9962 -0.0065 0.0869
vn 0.3704 -0.0228 -0.9286
vn 0.1130 -0.0690 -0.9912
vn 0.4178 -0.0328 -0.9080
vn 0.4832 -0.0213 -0.8752
vn -0.0230 -0.0623 -0.9978
vn -0.0985 -0.0863 -0.9914
vn 0.0550 -0.0677 -0.9962
vn 0.0174 -0.0661 -0.9977
vn 0.1604 -0.0876 -0.9832
vn 0.1226 -0.0675 -0.9902
vn -0.2553 -0.0212 -0.9666
vn -0.9951 -0.0076 -0.0984
vn -0.4192 -0.0450 0.9068
vn -0.3828 -0.0819 0.9202
vn -0.9194 -0.0191 0.3928
vn -0.8624 -0.0273 0.5055
vn -0.7209 -0.0550 -0.6909
vn -0.9863 -0.0139 -0.1645
vn -0.6850 -0.0158 0.7284
vn -0.0608 -0.0523 0.9968
vn -0.2532 -0.0462 0.9663
vn -0.3049 -0.0315 0.9519
vn 0.2560 -0.0278 0.9663
vn 0.8428 -0.0261 0.5376
vn 0.9130 -0.0499 0.4049
vn 0.3642 -0.0663 0.9289
vn 0.0974 -0.1005 0.9902
vn 0.0361 -0.1242 0.9916
vn 0.1600 -0.0552 0.9856
vn 0.0069 0.9991 -0.0421
vn 0.0028 -0.9998 -0.0174
vt 0.375880 0.000000
vt 0.332689 0.019800
vt 0.000000 0.000000
vt 0.233594 0.029121
vt 0.202294 0.041153
vt 0.183447 0.057047
vt 0.117058 0.056770
vt 0.056129 0.048369
vt 0.018982 0.050569
vt -0.019697 0.052474
vt -0.060782 0.052379
vt -0.140822 0.068295
vt -0.265696 0.082624
vt -0.316237 0.064333
vt -0.246235 0.030697
vt -0.182657 0.010871
vt -0.180042 0.000000
vt -0.171817 -0.010226
vt -0.169078 -0.021078
vt -0.199466 -0.040578
vt -0.191219 -0.059464
vt -0.128376 -0.062259
vt -0.080450 -0.069328
vt -0.035504 -0.094584
vt 0.038167 -0.101678
vt 0.083695 -0.072124
vt 0.085783 -0.041603
vt 0.097136 -0.030207
vt 0.118980 -0.024204
vt 0.164696 -0.020532
vt 0.279549 -0.016638
s 1
f 1/1/1 2/2/2 31/3/31
f 2/2/2 1/1/1 32/3/32
f 2/2/2 3/4/3 31/3/31
f 3/4/3 2/2/2 32/3/32
f 3/4/3 4/5/4 31/3/31
f 4/5/4 3/4/3 32/3/32
f 4/5/4 5/6/5 31/3/31
f 5/6/5 4/5/4 32/3/32
f 5/6/5 6/7/6 31/3/31
f 6/7/6 5/6/5 32/3/32
f 6/7/6 7/8/7 31/3/31
f 7/8/7 6/7/6 32/3/32
f 7/8/7 8/9/8 31/3/31
f 8/9/8 7/8/7 32/3/32
f 8/9/8 9/10/9 31/3/31
f 9/10/9 8/9/8 32/3/32
f 9/10/9 10/11/10 31/3/31
f 10/11/10 9/10/9 32/3/32
f 10/11/10 11/12/11 31/3/31
f 11/12/11 10/11/10 32/3/32
f 11/12/11 12/13/12 31/3/31
f 12/13/12 11/12/11 32/3/32
f 12/13/12 13/14/13 31/3/31
f 13/14/13 12/13/12 32/3/32
f 13/14/13 14/15/14 31/3/31
f 14/15/14 13/14/13 32/3/32
f 14/15/14 15/16/15 31/3/31
f 15/16/15 14/15/14 32/3/32
f 15/16/15 16/17/16 31/3/31
f 16/17/16 15/16/15 32/3/32
f 16/17/16 17/18/17 31/3/31
f 17/18/17 16/17/16 32/3/32
f 17/18/17 18/19/18 31/3/31
f 18/19/18 17/18/17 32/3/32
f 18/19/18 19/20/19 31/3/31
f 19/20/19 18/19/18 32/3/32
f 19/20/19 20/21/20 31/3/31
f 20/21/20 19/20/19 32/3/32
f 20/21/20 21/22/21 31/3/31
f 21/22/21 20/21/20 32/3/32
f 21/22/21 22/23/22 31/3/31
f 22/23/22 21/22/21 32/3/32
f 22/23/22 23/24/23 31/3/31
f 23/24/23 22/23/22 32/3/32
f 23/24/23 24/25/24 31/3/31
f 24/25/24 23/24/23 32/3/32
f 24/25/24 25/26/25 31/3/31
f 25/26/25 24/25/24 32/3/32
f 25/26/25 26/27/26 31/3/31
f 26/27/26 25/26/25 32/3/32
f 26/27/26 27/28/27 31/3/31
f 27/28/27 26/27/26 32/3/32
f 27/28/27 28/29/28 31/3/31
f 28/29/28 27/28/27 32/3/32
f 28/29/28 29/30/29 31/3/31
f 29/30/29 28/29/28 32/3/32
f 29/30/29 30/31/30 31/3/31
f 30/31/30 29/30/29 32/3/32
f 30/31/30 1/1/1 31/3/31
f 1/1/1 30/31/30 32/3/32
