# Blender 5.2.0 LTS
# www.blender.org
o Sea_Surf
v 0.253643 0.050000 0.946607
v 0.253643 -0.050000 0.946607
v 0.258819 0.050000 0.965926
v 0.258819 -0.050000 0.965926
v 0.327577 0.050000 0.863750
v 0.327577 -0.050000 0.863750
v 0.334669 0.050000 0.882450
v 0.334669 -0.050000 0.882450
v 0.401234 0.050000 0.803400
v 0.401234 -0.050000 0.803400
v 0.426018 0.050000 0.853025
v 0.426018 -0.050000 0.853025
v 0.469382 0.050000 0.742269
v 0.469382 -0.050000 0.742269
v 0.550406 0.050000 0.870397
v 0.550406 -0.050000 0.870397
v 0.531553 0.050000 0.678478
v 0.531553 -0.050000 0.678478
v 0.648988 0.050000 0.828372
v 0.648988 -0.050000 0.828372
v 0.587511 0.050000 0.611664
v 0.587511 -0.050000 0.611664
v 0.774779 0.050000 0.806631
v 0.774779 -0.050000 0.806631
v 0.637098 0.050000 0.541918
v 0.637098 -0.050000 0.541918
v 0.858649 0.050000 0.730370
v 0.858649 -0.050000 0.730370
v 0.680204 0.050000 0.469511
v 0.680204 -0.050000 0.469511
v 0.974323 0.050000 0.672527
v 0.974323 -0.050000 0.672527
v 0.716755 0.050000 0.394792
v 0.716755 -0.050000 0.394792
v 1.033339 0.050000 0.569167
v 1.033339 -0.050000 0.569167
v 0.746701 0.050000 0.318140
v 0.746701 -0.050000 0.318140
v 0.925406 0.050000 0.394279
v 0.925406 -0.050000 0.394279
v 0.770012 0.050000 0.239945
v 0.770012 -0.050000 0.239945
v 0.950202 0.050000 0.296095
v 0.950202 -0.050000 0.296095
v 0.786670 0.050000 0.160600
v 0.786670 -0.050000 0.160600
v 1.055188 0.050000 0.215418
v 1.055188 -0.050000 0.215418
v 0.796667 0.050000 0.080490
v 0.796667 -0.050000 0.080490
v 1.164997 0.050000 0.117704
v 1.164997 -0.050000 0.117704
v 0.800000 0.050000 0.000000
v 0.800000 -0.050000 0.000000
v 1.296835 0.050000 0.000000
v 1.296835 -0.050000 0.000000
v 0.796667 0.050000 -0.080490
v 0.796667 -0.050000 -0.080490
v 1.211770 0.050000 -0.122430
v 1.211770 -0.050000 -0.122430
v 0.786670 0.050000 -0.160600
v 0.786670 -0.050000 -0.160600
v 1.147375 0.050000 -0.234238
v 1.147375 -0.050000 -0.234238
v 0.770012 0.050000 -0.239945
v 0.770012 -0.050000 -0.239945
v 1.171279 0.050000 -0.364985
v 1.171279 -0.050000 -0.364985
v 0.746701 0.050000 -0.318140
v 0.746701 -0.050000 -0.318140
v 1.049701 0.050000 -0.447236
v 1.049701 -0.050000 -0.447236
v 0.716755 0.050000 -0.394792
v 0.716755 -0.050000 -0.394792
v 0.940057 0.050000 -0.517787
v 0.940057 -0.050000 -0.517787
v 0.680204 0.050000 -0.469511
v 0.680204 -0.050000 -0.469511
v 0.818733 0.050000 -0.565130
v 0.818733 -0.050000 -0.565130
v 0.637098 0.050000 -0.541918
v 0.637098 -0.050000 -0.541918
v 0.728360 0.050000 -0.619546
v 0.728360 -0.050000 -0.619546
v 0.587511 0.050000 -0.611664
v 0.587511 -0.050000 -0.611664
v 0.757180 0.050000 -0.788308
v 0.757180 -0.050000 -0.788308
v 0.531553 0.050000 -0.678478
v 0.531553 -0.050000 -0.678478
v 0.692735 0.050000 -0.884211
v 0.692735 -0.050000 -0.884211
v 0.469382 0.050000 -0.742269
v 0.469382 -0.050000 -0.742269
v 0.564206 0.050000 -0.892220
v 0.564206 -0.050000 -0.892220
v 0.401234 0.050000 -0.803400
v 0.401234 -0.050000 -0.803400
v 0.445558 0.050000 -0.892150
v 0.445558 -0.050000 -0.892150
v 0.327577 0.050000 -0.863750
v 0.327577 -0.050000 -0.863750
v 0.334669 0.050000 -0.882450
v 0.334669 -0.050000 -0.882450
v 0.253643 0.050000 -0.946607
v 0.253643 -0.050000 -0.946607
v 0.258819 0.050000 -0.965926
v 0.258819 -0.050000 -0.965926
vn -0.7678 0.6142 -0.1825
vn -0.7678 -0.6142 -0.1825
vn -0.1963 0.5531 0.8097
vn -0.1963 -0.5531 0.8097
vn -0.5009 0.6900 -0.5225
vn -0.5009 -0.6900 -0.5225
vn 0.3456 0.7700 0.5363
vn 0.3456 -0.7700 0.5363
vn -0.4570 0.7122 -0.5329
vn -0.4569 -0.7122 -0.5329
vn 0.0560 0.7610 0.6464
vn 0.0560 -0.7610 0.6464
vn -0.4842 0.7147 -0.5047
vn -0.4842 -0.7147 -0.5047
vn 0.0999 0.6515 0.7520
vn 0.0999 -0.6515 0.7520
vn -0.5182 0.7157 -0.4683
vn -0.5182 -0.7157 -0.4683
vn 0.1923 0.7341 0.6513
vn 0.1923 -0.7341 0.6513
vn -0.5524 0.7161 -0.4266
vn -0.5524 -0.7161 -0.4266
vn 0.3339 0.6492 0.6834
vn 0.3339 -0.6492 0.6834
vn -0.5846 0.7163 -0.3809
vn -0.5846 -0.7163 -0.3809
vn 0.3807 0.7392 0.5556
vn 0.3807 -0.7392 0.5556
vn -0.6136 0.7164 -0.3320
vn -0.6136 -0.7164 -0.3320
vn 0.5239 0.6473 0.5536
vn 0.5239 -0.6473 0.5536
vn -0.6387 0.7165 -0.2804
vn -0.6387 -0.7165 -0.2804
vn 0.7937 0.6082 -0.0135
vn 0.7936 -0.6082 -0.0135
vn -0.6597 0.7165 -0.2268
vn -0.6597 -0.7165 -0.2268
vn 0.5848 0.8061 -0.0900
vn 0.5848 -0.8061 -0.0900
vn -0.6762 0.7165 -0.1715
vn -0.6762 -0.7165 -0.1715
vn 0.5136 0.7889 0.3376
vn 0.5136 -0.7889 0.3376
vn -0.6880 0.7165 -0.1150
vn -0.6880 -0.7165 -0.1150
vn 0.4558 0.6991 0.5509
vn 0.4558 -0.6991 0.5509
vn -0.6952 0.7165 -0.0577
vn -0.6952 -0.7165 -0.0577
vn 0.4706 0.7069 0.5280
vn 0.4706 -0.7069 0.5280
vn -0.6976 0.7165 -0.0000
vn -0.6976 -0.7165 -0.0000
vn 0.8061 0.5840 0.0951
vn 0.8062 -0.5840 0.0951
vn -0.6952 0.7165 0.0577
vn -0.6952 -0.7165 0.0577
vn 0.5890 0.7168 -0.3733
vn 0.5890 -0.7168 -0.3733
vn -0.6880 0.7165 0.1150
vn -0.6880 -0.7165 0.1150
vn 0.5998 0.7934 -0.1035
vn 0.5998 -0.7934 -0.1035
vn -0.6762 0.7165 0.1715
vn -0.6762 -0.7165 0.1715
vn 0.7360 0.6023 -0.3091
vn 0.7360 -0.6023 -0.3091
vn -0.6597 0.7165 0.2268
vn -0.6597 -0.7165 0.2268
vn 0.3909 0.7045 -0.5923
vn 0.3909 -0.7045 -0.5923
vn -0.6387 0.7165 0.2804
vn -0.6387 -0.7165 0.2804
vn 0.3310 0.6853 -0.6486
vn 0.3310 -0.6853 -0.6486
vn -0.6136 0.7165 0.3320
vn -0.6136 -0.7165 0.3320
vn 0.3031 0.7267 -0.6165
vn 0.3031 -0.7267 -0.6165
vn -0.5846 0.7163 0.3809
vn -0.5846 -0.7163 0.3809
vn 0.4665 0.8583 -0.2139
vn 0.4665 -0.8583 -0.2139
vn -0.5524 0.7161 0.4266
vn -0.5524 -0.7161 0.4266
vn 0.7575 0.6323 -0.1625
vn 0.7575 -0.6323 -0.1625
vn -0.5182 0.7157 0.4683
vn -0.5182 -0.7157 0.4683
vn 0.3904 0.6197 -0.6808
vn 0.3904 -0.6197 -0.6808
vn -0.4842 0.7147 0.5047
vn -0.4842 -0.7147 0.5047
vn 0.0220 0.7001 -0.7137
vn 0.0220 -0.7001 -0.7137
vn -0.4570 0.7122 0.5329
vn -0.4570 -0.7122 0.5329
vn -0.0315 0.6975 -0.7159
vn -0.0315 -0.6975 -0.7159
vn -0.5009 0.6900 0.5225
vn -0.5009 -0.6900 0.5225
vn 0.2075 0.8219 -0.5304
vn 0.2076 -0.8219 -0.5304
vn -0.7678 0.6142 0.1825
vn -0.7678 -0.6142 0.1825
vn -0.1963 0.5531 -0.8097
vn -0.1963 -0.5531 -0.8096
vt 0.001268 -0.004733
vt 0.001673 -0.004412
vt 0.001638 -0.004319
vt -0.004830 -0.000250
vt -0.004412 0.000250
vt -0.004830 0.000250
vt -0.004319 -0.000250
vt -0.004733 0.000250
vt -0.004319 0.000250
vt 0.002130 -0.004265
vt 0.002006 -0.004017
vt 0.001673 -0.000250
vt 0.002130 0.000250
vt 0.001673 0.000250
vt 0.002006 -0.000250
vt 0.001638 0.000250
vt 0.002006 0.000250
vt 0.002347 -0.003711
vt 0.002130 -0.000250
vt 0.002752 0.000250
vt 0.002347 -0.000250
vt 0.002347 0.000250
vt 0.002752 -0.004352
vt 0.002658 -0.003392
vt 0.002752 -0.000250
vt 0.003245 0.000250
vt -0.003392 -0.000250
vt -0.003711 0.000250
vt -0.003392 0.000250
vt 0.003245 -0.004142
vt 0.002938 -0.003058
vt 0.003245 -0.000250
vt 0.003874 0.000250
vt -0.003058 -0.000250
vt -0.003058 0.000250
vt 0.004293 -0.003652
vt 0.003185 -0.002710
vt 0.003874 -0.000250
vt 0.004293 0.000250
vt -0.002710 -0.000250
vt -0.002710 0.000250
vt 0.003401 -0.002348
vt 0.004293 -0.000250
vt 0.004872 0.000250
vt -0.002348 -0.000250
vt -0.002348 0.000250
vt 0.005167 -0.002846
vt 0.003584 -0.001974
vt -0.003363 -0.000250
vt -0.002846 0.000250
vt -0.003363 0.000250
vt -0.001974 -0.000250
vt -0.001974 0.000250
vt 0.004627 -0.001971
vt 0.003734 -0.001591
vt -0.002846 -0.000250
vt -0.001971 0.000250
vt -0.001591 -0.000250
vt -0.001591 0.000250
vt 0.004751 -0.001480
vt 0.003850 -0.001200
vt -0.001971 -0.000250
vt -0.001480 0.000250
vt -0.001200 -0.000250
vt -0.001200 0.000250
vt 0.003933 -0.000803
vt 0.004751 -0.000250
vt 0.005276 0.000250
vt 0.004751 0.000250
vt -0.000803 -0.000250
vt -0.000803 0.000250
vt 0.005276 -0.001077
vt 0.003983 -0.000402
vt 0.005276 -0.000250
vt 0.005825 0.000250
vt -0.000402 -0.000250
vt -0.000402 0.000250
vt 0.005825 -0.000589
vt 0.004000 0.000000
vt 0.005825 -0.000250
vt 0.006484 0.000250
vt 0.000000 -0.000250
vt 0.000000 0.000250
vt 0.006059 0.000612
vt 0.003983 0.000402
vt 0.000612 0.000250
vt 0.000402 -0.000250
vt 0.000402 0.000250
vt 0.005737 0.001171
vt 0.003933 0.000803
vt 0.000612 -0.000250
vt 0.001171 0.000250
vt 0.000803 -0.000250
vt 0.000803 0.000250
vt 0.003850 0.001200
vt 0.001171 -0.000250
vt 0.001825 0.000250
vt 0.001200 -0.000250
vt 0.001200 0.000250
vt 0.005249 0.002236
vt 0.003734 0.001591
vt 0.005856 -0.000250
vt 0.005249 0.000250
vt 0.005856 0.000250
vt 0.001591 -0.000250
vt 0.001591 0.000250
vt 0.004700 0.002589
vt 0.003584 0.001974
vt 0.005249 -0.000250
vt 0.004700 0.000250
vt 0.001974 -0.000250
vt 0.001974 0.000250
vt 0.004094 0.002826
vt 0.003401 0.002348
vt 0.004700 -0.000250
vt 0.004094 0.000250
vt 0.002348 -0.000250
vt 0.002348 0.000250
vt 0.003642 0.003098
vt 0.003185 0.002710
vt 0.004094 -0.000250
vt 0.003642 0.000250
vt 0.002710 -0.000250
vt 0.002710 0.000250
vt 0.002938 0.003058
vt 0.003098 -0.000250
vt 0.003942 0.000250
vt 0.003098 0.000250
vt 0.003058 -0.000250
vt 0.003058 0.000250
vt 0.003786 0.003942
vt 0.002658 0.003392
vt 0.003942 -0.000250
vt 0.004421 0.000250
vt 0.003392 -0.000250
vt 0.003392 0.000250
vt 0.002821 0.004461
vt 0.002347 0.003711
vt 0.003464 -0.000250
vt 0.002821 0.000250
vt 0.003464 0.000250
vt 0.003711 -0.000250
vt 0.003711 0.000250
vt 0.002228 0.004461
vt 0.002006 0.004017
vt 0.002821 -0.000250
vt 0.002228 0.000250
vt 0.001673 0.004412
vt 0.001638 0.004319
vt 0.002228 -0.000250
vt 0.001638 -0.000250
vt 0.001268 0.004733
vt 0.004412 -0.000250
vt 0.004830 0.000250
vt 0.004412 0.000250
vt 0.004733 -0.000250
vt 0.004319 0.000250
vt 0.004733 0.000250
vt -0.004733 -0.000250
vt 0.001294 -0.004830
vt -0.004412 -0.000250
vt -0.003711 -0.000250
vt 0.003874 -0.004033
vt 0.004872 -0.003363
vt 0.004872 -0.000250
vt -0.001480 -0.000250
vt 0.006484 0.000000
vt 0.006484 -0.000250
vt 0.005856 0.001825
vt 0.001825 -0.000250
vt 0.003642 -0.000250
vt 0.003464 0.004421
vt 0.004421 -0.000250
vt 0.001294 0.004830
vt 0.004830 -0.000250
vt 0.004319 -0.000250
s 1
f 1/1/1 7/2/7 5/3/5
f 8/2/8 2/1/2 6/3/6
f 4/4/4 7/5/7 3/6/3
f 6/7/6 1/8/1 5/9/5
f 5/3/5 11/10/11 9/11/9
f 12/10/12 6/3/6 10/11/10
f 8/12/8 11/13/11 7/14/7
f 10/15/10 5/16/5 9/17/9
f 11/10/11 13/18/13 9/11/9
f 14/18/14 12/10/12 10/11/10
f 12/19/12 15/20/15 11/13/11
f 14/21/14 9/17/9 13/22/13
f 15/23/15 17/24/17 13/18/13
f 18/24/18 16/23/16 14/18/14
f 16/25/16 19/26/19 15/20/15
f 18/27/18 13/28/13 17/29/17
f 19/30/19 21/31/21 17/24/17
f 22/31/22 20/30/20 18/24/18
f 20/32/20 23/33/23 19/26/19
f 22/34/22 17/29/17 21/35/21
f 21/31/21 27/36/27 25/37/25
f 28/36/28 22/31/22 26/37/26
f 24/38/24 27/39/27 23/33/23
f 26/40/26 21/35/21 25/41/25
f 27/36/27 29/42/29 25/37/25
f 30/42/30 28/36/28 26/37/26
f 28/43/28 31/44/31 27/39/27
f 30/45/30 25/41/25 29/46/29
f 29/42/29 35/47/35 33/48/33
f 36/47/36 30/42/30 34/48/34
f 32/49/32 35/50/35 31/51/31
f 34/52/34 29/46/29 33/53/33
f 33/48/33 39/54/39 37/55/37
f 40/54/40 34/48/34 38/55/38
f 36/56/36 39/57/39 35/50/35
f 38/58/38 33/53/33 37/59/37
f 37/55/37 43/60/43 41/61/41
f 44/60/44 38/55/38 42/61/42
f 40/62/40 43/63/43 39/57/39
f 42/64/42 37/59/37 41/65/41
f 43/60/43 45/66/45 41/61/41
f 46/66/46 44/60/44 42/61/42
f 44/67/44 47/68/47 43/69/43
f 46/70/46 41/65/41 45/71/45
f 47/72/47 49/73/49 45/66/45
f 50/73/50 48/72/48 46/66/46
f 48/74/48 51/75/51 47/68/47
f 50/76/50 45/71/45 49/77/49
f 51/78/51 53/79/53 49/73/49
f 54/79/54 52/78/52 50/73/50
f 52/80/52 55/81/55 51/75/51
f 54/82/54 49/77/49 53/83/53
f 53/79/53 59/84/59 57/85/57
f 60/84/60 54/79/54 58/85/58
f 56/82/56 59/86/59 55/83/55
f 58/87/58 53/83/53 57/88/57
f 57/85/57 63/89/63 61/90/61
f 64/89/64 58/85/58 62/90/62
f 60/91/60 63/92/63 59/86/59
f 62/93/62 57/88/57 61/94/61
f 63/89/63 65/95/65 61/90/61
f 66/95/66 64/89/64 62/90/62
f 64/96/64 67/97/67 63/92/63
f 66/98/66 61/94/61 65/99/65
f 65/95/65 71/100/71 69/101/69
f 72/100/72 66/95/66 70/101/70
f 68/102/68 71/103/71 67/104/67
f 70/105/70 65/99/65 69/106/69
f 69/101/69 75/107/75 73/108/73
f 76/107/76 70/101/70 74/108/74
f 72/109/72 75/110/75 71/103/71
f 74/111/74 69/106/69 73/112/73
f 73/108/73 79/113/79 77/114/77
f 80/113/80 74/108/74 78/114/78
f 76/115/76 79/116/79 75/110/75
f 78/117/78 73/112/73 77/118/77
f 77/114/77 83/119/83 81/120/81
f 84/119/84 78/114/78 82/120/82
f 80/121/80 83/122/83 79/116/79
f 82/123/82 77/118/77 81/124/81
f 83/119/83 85/125/85 81/120/81
f 86/125/86 84/119/84 82/120/82
f 84/126/84 87/127/87 83/128/83
f 86/129/86 81/124/81 85/130/85
f 87/131/87 89/132/89 85/125/85
f 90/132/90 88/131/88 86/125/86
f 88/133/88 91/134/91 87/127/87
f 90/135/90 85/130/85 89/136/89
f 89/132/89 95/137/95 93/138/93
f 96/137/96 90/132/90 94/138/94
f 92/139/92 95/140/95 91/141/91
f 94/142/94 89/136/89 93/143/93
f 93/138/93 99/144/99 97/145/97
f 100/144/100 94/138/94 98/145/98
f 96/146/96 99/147/99 95/140/95
f 98/15/98 93/22/93 97/17/97
f 97/145/97 103/148/103 101/149/101
f 104/148/104 98/145/98 102/149/102
f 100/150/100 103/14/103 99/147/99
f 102/151/102 97/17/97 101/16/101
f 103/148/103 105/152/105 101/149/101
f 106/152/106 104/148/104 102/149/102
f 104/153/104 107/154/107 103/155/103
f 106/156/106 101/157/101 105/158/105
f 2/159/2 3/6/3 1/8/1
f 107/154/107 106/156/106 105/158/105
f 1/1/1 3/160/3 7/2/7
f 8/2/8 4/160/4 2/1/2
f 4/4/4 8/161/8 7/5/7
f 6/7/6 2/159/2 1/8/1
f 5/3/5 7/2/7 11/10/11
f 12/10/12 8/2/8 6/3/6
f 8/12/8 12/19/12 11/13/11
f 10/15/10 6/151/6 5/16/5
f 11/10/11 15/23/15 13/18/13
f 14/18/14 16/23/16 12/10/12
f 12/19/12 16/25/16 15/20/15
f 14/21/14 10/15/10 9/17/9
f 15/23/15 19/30/19 17/24/17
f 18/24/18 20/30/20 16/23/16
f 16/25/16 20/32/20 19/26/19
f 18/27/18 14/162/14 13/28/13
f 19/30/19 23/163/23 21/31/21
f 22/31/22 24/163/24 20/30/20
f 20/32/20 24/38/24 23/33/23
f 22/34/22 18/27/18 17/29/17
f 21/31/21 23/163/23 27/36/27
f 28/36/28 24/163/24 22/31/22
f 24/38/24 28/43/28 27/39/27
f 26/40/26 22/34/22 21/35/21
f 27/36/27 31/164/31 29/42/29
f 30/42/30 32/164/32 28/36/28
f 28/43/28 32/165/32 31/44/31
f 30/45/30 26/40/26 25/41/25
f 29/42/29 31/164/31 35/47/35
f 36/47/36 32/164/32 30/42/30
f 32/49/32 36/56/36 35/50/35
f 34/52/34 30/45/30 29/46/29
f 33/48/33 35/47/35 39/54/39
f 40/54/40 36/47/36 34/48/34
f 36/56/36 40/62/40 39/57/39
f 38/58/38 34/52/34 33/53/33
f 37/55/37 39/54/39 43/60/43
f 44/60/44 40/54/40 38/55/38
f 40/62/40 44/166/44 43/63/43
f 42/64/42 38/58/38 37/59/37
f 43/60/43 47/72/47 45/66/45
f 46/66/46 48/72/48 44/60/44
f 44/67/44 48/74/48 47/68/47
f 46/70/46 42/64/42 41/65/41
f 47/72/47 51/78/51 49/73/49
f 50/73/50 52/78/52 48/72/48
f 48/74/48 52/80/52 51/75/51
f 50/76/50 46/70/46 45/71/45
f 51/78/51 55/167/55 53/79/53
f 54/79/54 56/167/56 52/78/52
f 52/80/52 56/168/56 55/81/55
f 54/82/54 50/76/50 49/77/49
f 53/79/53 55/167/55 59/84/59
f 60/84/60 56/167/56 54/79/54
f 56/82/56 60/91/60 59/86/59
f 58/87/58 54/82/54 53/83/53
f 57/85/57 59/84/59 63/89/63
f 64/89/64 60/84/60 58/85/58
f 60/91/60 64/96/64 63/92/63
f 62/93/62 58/87/58 57/88/57
f 63/89/63 67/169/67 65/95/65
f 66/95/66 68/169/68 64/89/64
f 64/96/64 68/170/68 67/97/67
f 66/98/66 62/93/62 61/94/61
f 65/95/65 67/169/67 71/100/71
f 72/100/72 68/169/68 66/95/66
f 68/102/68 72/109/72 71/103/71
f 70/105/70 66/98/66 65/99/65
f 69/101/69 71/100/71 75/107/75
f 76/107/76 72/100/72 70/101/70
f 72/109/72 76/115/76 75/110/75
f 74/111/74 70/105/70 69/106/69
f 73/108/73 75/107/75 79/113/79
f 80/113/80 76/107/76 74/108/74
f 76/115/76 80/121/80 79/116/79
f 78/117/78 74/111/74 73/112/73
f 77/114/77 79/113/79 83/119/83
f 84/119/84 80/113/80 78/114/78
f 80/121/80 84/171/84 83/122/83
f 82/123/82 78/117/78 77/118/77
f 83/119/83 87/131/87 85/125/85
f 86/125/86 88/131/88 84/119/84
f 84/126/84 88/133/88 87/127/87
f 86/129/86 82/123/82 81/124/81
f 87/131/87 91/172/91 89/132/89
f 90/132/90 92/172/92 88/131/88
f 88/133/88 92/173/92 91/134/91
f 90/135/90 86/129/86 85/130/85
f 89/132/89 91/172/91 95/137/95
f 96/137/96 92/172/92 90/132/90
f 92/139/92 96/146/96 95/140/95
f 94/142/94 90/135/90 89/136/89
f 93/138/93 95/137/95 99/144/99
f 100/144/100 96/137/96 94/138/94
f 96/146/96 100/150/100 99/147/99
f 98/15/98 94/21/94 93/22/93
f 97/145/97 99/144/99 103/148/103
f 104/148/104 100/144/100 98/145/98
f 100/150/100 104/12/104 103/14/103
f 102/151/102 98/15/98 97/17/97
f 103/148/103 107/174/107 105/152/105
f 106/152/106 108/174/108 104/148/104
f 104/153/104 108/175/108 107/154/107
f 106/156/106 102/176/102 101/157/101
f 2/159/2 4/4/4 3/6/3
f 107/154/107 108/175/108 106/156/106
