# Blender 5.2.0 LTS
# www.blender.org
o Sea_Ring
v 0.805424 0.060000 0.000000
v 0.805424 -0.060000 0.000000
v 1.106251 0.060000 0.000000
v 1.106251 -0.060000 0.000000
v 0.763973 0.060000 -0.162387
v 0.763973 -0.060000 -0.162387
v 1.052449 0.060000 -0.223705
v 1.052449 -0.060000 -0.223705
v 0.664482 0.060000 -0.295846
v 0.664482 -0.060000 -0.295846
v 0.922476 0.060000 -0.410713
v 0.922476 -0.060000 -0.410713
v 0.607515 0.060000 -0.441385
v 0.607515 -0.060000 -0.441385
v 0.839090 0.060000 -0.609635
v 0.839090 -0.060000 -0.609635
v 0.507644 0.060000 -0.563795
v 0.507644 -0.060000 -0.563795
v 0.700829 0.060000 -0.778349
v 0.700829 -0.060000 -0.778349
v 0.354492 0.060000 -0.613998
v 0.354492 -0.060000 -0.613998
v 0.494240 0.060000 -0.856050
v 0.494240 -0.060000 -0.856050
v 0.213016 0.060000 -0.655594
v 0.213016 -0.060000 -0.655594
v 0.297493 0.060000 -0.915590
v 0.297493 -0.060000 -0.915590
v 0.069888 0.060000 -0.664937
v 0.069888 -0.060000 -0.664937
v 0.097647 0.060000 -0.929045
v 0.097647 -0.060000 -0.929045
v -0.064250 0.060000 -0.611295
v -0.064250 -0.060000 -0.611295
v -0.090741 0.060000 -0.863340
v -0.090741 -0.060000 -0.863340
v -0.201159 0.060000 -0.619105
v -0.201159 -0.060000 -0.619105
v -0.282429 0.060000 -0.869226
v -0.282429 -0.060000 -0.869226
v -0.387525 0.060000 -0.671213
v -0.387525 -0.060000 -0.671213
v -0.533791 0.060000 -0.924553
v -0.533791 -0.060000 -0.924553
v -0.552083 0.060000 -0.613150
v -0.552083 -0.060000 -0.613150
v -0.757472 0.060000 -0.841257
v -0.757472 -0.060000 -0.841257
v -0.648649 0.060000 -0.471271
v -0.648649 -0.060000 -0.471271
v -0.893565 0.060000 -0.649213
v -0.893565 -0.060000 -0.649213
v -0.713756 0.060000 -0.317785
v -0.713756 -0.060000 -0.317785
v -0.982831 0.060000 -0.437584
v -0.982831 -0.060000 -0.437584
v -0.699011 0.060000 -0.148579
v -0.699011 -0.060000 -0.148579
v -0.969647 0.060000 -0.206105
v -0.969647 -0.060000 -0.206105
v -0.634576 0.060000 -0.000000
v -0.634576 -0.060000 -0.000000
v -0.893749 0.060000 -0.000000
v -0.893749 -0.060000 -0.000000
v -0.644560 0.060000 0.137005
v -0.644560 -0.060000 0.137005
v -0.903846 0.060000 0.192118
v -0.903846 -0.060000 0.192118
v -0.651023 0.060000 0.289854
v -0.651023 -0.060000 0.289854
v -0.904615 0.060000 0.402761
v -0.904615 -0.060000 0.402761
v -0.557469 0.060000 0.405025
v -0.557469 -0.060000 0.405025
v -0.778944 0.060000 0.565936
v -0.778944 -0.060000 0.565936
v -0.455905 0.060000 0.506333
v -0.455905 -0.060000 0.506333
v -0.637433 0.060000 0.707941
v -0.637433 -0.060000 0.707941
v -0.365508 0.060000 0.633078
v -0.365508 -0.060000 0.633078
v -0.505760 0.060000 0.876001
v -0.505760 -0.060000 0.876001
v -0.231969 0.060000 0.713927
v -0.231969 -0.060000 0.713927
v -0.320541 0.060000 0.986523
v -0.320541 -0.060000 0.986523
v -0.080633 0.060000 0.767175
v -0.080633 -0.060000 0.767175
v -0.111410 0.060000 1.059999
v -0.111410 -0.060000 1.059999
v 0.086271 0.060000 0.820816
v 0.086271 -0.060000 0.820816
v 0.118316 0.060000 1.125704
v 0.118316 -0.060000 1.125704
v 0.243825 0.060000 0.750417
v 0.243825 -0.060000 0.750417
v 0.335605 0.060000 1.032887
v 0.335605 -0.060000 1.032887
v 0.332475 0.060000 0.575863
v 0.332475 -0.060000 0.575863
v 0.466209 0.060000 0.807498
v 0.466209 -0.060000 0.807498
v 0.411465 0.060000 0.456978
v 0.411465 -0.060000 0.456978
v 0.580790 0.060000 0.645032
v 0.580790 -0.060000 0.645032
v 0.516336 0.060000 0.375140
v 0.516336 -0.060000 0.375140
v 0.724469 0.060000 0.526357
v 0.724469 -0.060000 0.526357
v 0.601749 0.060000 0.267916
v 0.601749 -0.060000 0.267916
v 0.844260 0.060000 0.375889
v 0.844260 -0.060000 0.375889
v 0.709522 0.060000 0.150814
v 0.709522 -0.060000 0.150814
v 0.986648 0.060000 0.209719
v 0.986648 -0.060000 0.209719
vn -0.5815 0.8082 -0.0928
vn -0.5815 -0.8082 -0.0928
vn 0.7666 0.6328 0.1089
vn 0.7666 -0.6328 0.1089
vn -0.5933 0.7535 0.2832
vn -0.5933 -0.7535 0.2831
vn 0.6791 0.6678 -0.3047
vn 0.6791 -0.6678 -0.3047
vn -0.6424 0.6783 0.3567
vn -0.6424 -0.6783 0.3567
vn 0.5976 0.7315 -0.3282
vn 0.5976 -0.7315 -0.3282
vn -0.5772 0.7437 0.3372
vn -0.5772 -0.7437 0.3372
vn 0.6314 0.6760 -0.3799
vn 0.6314 -0.6760 -0.3799
vn -0.3569 0.7762 0.5198
vn -0.3569 -0.7762 0.5198
vn 0.4412 0.6531 -0.6154
vn 0.4412 -0.6531 -0.6154
vn -0.2088 0.7106 0.6719
vn -0.2088 -0.7106 0.6719
vn 0.2293 0.6998 -0.6766
vn 0.2293 -0.6998 -0.6766
vn -0.1189 0.7328 0.6700
vn -0.1189 -0.7328 0.6700
vn 0.1312 0.6825 -0.7190
vn 0.1312 -0.6825 -0.7190
vn 0.1020 0.7604 0.6414
vn 0.1019 -0.7604 0.6414
vn -0.0999 0.6647 -0.7404
vn -0.0999 -0.6647 -0.7404
vn 0.1208 0.6614 0.7403
vn 0.1208 -0.6614 0.7403
vn -0.1004 0.7505 -0.6532
vn -0.1004 -0.7505 -0.6532
vn -0.1197 0.6837 0.7199
vn -0.1197 -0.6837 0.7199
vn 0.0845 0.7286 -0.6797
vn 0.0845 -0.7286 -0.6797
vn 0.0208 0.7816 0.6235
vn 0.0208 -0.7816 0.6235
vn -0.0532 0.6487 -0.7592
vn -0.0532 -0.6487 -0.7592
vn 0.3784 0.7844 0.4914
vn 0.3784 -0.7844 0.4914
vn -0.4650 0.6464 -0.6049
vn -0.4650 -0.6464 -0.6049
vn 0.6001 0.7299 0.3274
vn 0.6001 -0.7299 0.3274
vn -0.6378 0.6835 -0.3550
vn -0.6378 -0.6835 -0.3550
vn 0.6352 0.7657 0.1006
vn 0.6352 -0.7657 0.1006
vn -0.7406 0.6596 -0.1280
vn -0.7406 -0.6596 -0.1280
vn 0.6466 0.7451 -0.1638
vn 0.6466 -0.7451 -0.1638
vn -0.7220 0.6754 0.1500
vn -0.7220 -0.6754 0.1500
vn 0.7431 0.6571 -0.1262
vn 0.7431 -0.6571 -0.1262
vn -0.6480 0.7553 0.0980
vn -0.6480 -0.7553 0.0980
vn 0.7025 0.7105 0.0404
vn 0.7025 -0.7105 0.0404
vn -0.7122 0.7016 -0.0200
vn -0.7122 -0.7016 -0.0200
vn 0.5743 0.7962 -0.1903
vn 0.5743 -0.7962 -0.1903
vn -0.7271 0.6409 0.2461
vn -0.7271 -0.6409 0.2461
vn 0.5158 0.7190 -0.4657
vn 0.5158 -0.7190 -0.4657
vn -0.5420 0.6931 0.4753
vn -0.5420 -0.6931 0.4753
vn 0.5530 0.6888 -0.4688
vn 0.5530 -0.6888 -0.4688
vn -0.5193 0.7207 0.4592
vn -0.5193 -0.7207 0.4592
vn 0.4455 0.7555 -0.4803
vn 0.4455 -0.7555 -0.4803
vn -0.4918 0.6681 0.5584
vn -0.4918 -0.6681 0.5583
vn 0.2915 0.7310 -0.6170
vn 0.2915 -0.7310 -0.6170
vn -0.3088 0.6853 0.6595
vn -0.3088 -0.6853 0.6595
vn 0.2246 0.7102 -0.6672
vn 0.2246 -0.7102 -0.6672
vn -0.2165 0.7005 0.6800
vn -0.2165 -0.7005 0.6800
vn -0.0330 0.7971 -0.6030
vn -0.0330 -0.7971 -0.6030
vn 0.0481 0.6390 0.7677
vn 0.0481 -0.6390 0.7677
vn -0.4222 0.7905 -0.4437
vn -0.4222 -0.7905 -0.4437
vn 0.5079 0.6425 0.5737
vn 0.5079 -0.6425 0.5737
vn -0.6217 0.6942 -0.3627
vn -0.6217 -0.6942 -0.3627
vn 0.5867 0.7173 0.3758
vn 0.5867 -0.7173 0.3758
vn -0.5427 0.6728 -0.5028
vn -0.5427 -0.6728 -0.5028
vn 0.4948 0.7382 0.4585
vn 0.4948 -0.7382 0.4585
vn -0.4774 0.7345 -0.4822
vn -0.4774 -0.7345 -0.4822
vn 0.5201 0.6845 0.5109
vn 0.5201 -0.6845 0.5109
vn -0.5430 0.6992 -0.4651
vn -0.5430 -0.6992 -0.4651
vn 0.5420 0.7112 0.4477
vn 0.5420 -0.7112 0.4477
vn -0.5440 0.7276 -0.4180
vn -0.5440 -0.7276 -0.4180
vn 0.5947 0.6863 0.4186
vn 0.5947 -0.6863 0.4186
vt 0.004027 0.000000
vt 0.005262 0.001119
vt 0.003820 0.000812
vt 0.000000 -0.000300
vt 0.001119 0.000300
vt 0.000000 0.000300
vt 0.000812 -0.000300
vt 0.000812 0.000300
vt 0.004612 0.002054
vt 0.003322 0.001479
vt 0.001119 -0.000300
vt 0.002054 0.000300
vt 0.001479 -0.000300
vt 0.001479 0.000300
vt 0.003038 0.002207
vt 0.002054 -0.000300
vt 0.003048 0.000300
vt 0.002207 -0.000300
vt 0.002207 0.000300
vt 0.004195 0.003048
vt 0.002538 0.002819
vt 0.003048 -0.000300
vt 0.003892 0.000300
vt 0.002819 -0.000300
vt 0.002819 0.000300
vt 0.002471 0.004280
vt 0.001772 0.003070
vt 0.003504 -0.000300
vt 0.002471 0.000300
vt 0.003504 0.000300
vt 0.001772 -0.000300
vt 0.002538 0.000300
vt 0.001772 0.000300
vt 0.001487 0.004578
vt 0.001065 0.003278
vt 0.002471 -0.000300
vt 0.001487 0.000300
vt 0.001065 -0.000300
vt 0.001065 0.000300
vt 0.000488 0.004645
vt 0.000349 0.003325
vt 0.001487 -0.000300
vt 0.000488 0.000300
vt 0.000349 -0.000300
vt 0.000349 0.000300
vt -0.000454 0.004317
vt -0.000321 0.003056
vt 0.000488 -0.000300
vt -0.000454 0.000300
vt -0.000321 -0.000300
vt -0.000321 0.000300
vt -0.001006 0.003096
vt -0.000454 -0.000300
vt -0.001412 0.000300
vt -0.001006 -0.000300
vt -0.001006 0.000300
vt -0.001412 0.004346
vt -0.001938 0.003356
vt -0.001412 -0.000300
vt -0.002669 0.000300
vt -0.001938 -0.000300
vt -0.001938 0.000300
vt -0.002669 0.004623
vt -0.002760 0.003066
vt -0.002669 -0.000300
vt -0.003787 0.000300
vt -0.002760 -0.000300
vt -0.002760 0.000300
vt -0.004468 0.003246
vt -0.003243 0.002356
vt 0.004206 -0.000300
vt 0.003246 0.000300
vt 0.004206 0.000300
vt 0.002356 -0.000300
vt 0.003066 0.000300
vt 0.002356 0.000300
vt -0.004914 0.002188
vt -0.003569 0.001589
vt 0.003246 -0.000300
vt 0.002188 0.000300
vt 0.001589 -0.000300
vt 0.001589 0.000300
vt -0.004848 0.001031
vt -0.003495 0.000743
vt 0.002188 -0.000300
vt 0.001031 0.000300
vt 0.000743 -0.000300
vt 0.000743 0.000300
vt -0.004469 0.000000
vt -0.003173 0.000000
vt 0.001031 -0.000300
vt 0.000000 0.000300
vt 0.000000 -0.000300
vt 0.000000 0.000300
vt -0.003223 -0.000685
vt 0.000000 -0.000300
vt -0.000961 0.000300
vt -0.000685 -0.000300
vt -0.000685 0.000300
vt -0.004519 -0.000961
vt -0.003255 -0.001449
vt -0.000961 -0.000300
vt -0.002014 0.000300
vt -0.001449 -0.000300
vt -0.001449 0.000300
vt -0.003895 -0.002830
vt -0.002787 -0.002025
vt -0.002014 -0.000300
vt -0.002830 0.000300
vt -0.002025 -0.000300
vt -0.002025 0.000300
vt -0.003187 -0.003540
vt -0.002280 -0.002532
vt -0.002830 -0.000300
vt -0.003540 0.000300
vt -0.002280 -0.000300
vt -0.002787 0.000300
vt -0.002280 0.000300
vt -0.001828 -0.003165
vt -0.003540 -0.000300
vt -0.004380 0.000300
vt -0.003165 -0.000300
vt -0.002532 0.000300
vt -0.003165 0.000300
vt -0.002529 -0.004380
vt -0.001160 -0.003570
vt -0.002529 -0.000300
vt -0.001603 0.000300
vt -0.002529 0.000300
vt -0.001160 -0.000300
vt -0.001828 0.000300
vt -0.001160 0.000300
vt -0.001603 -0.004933
vt -0.000403 -0.003836
vt -0.001603 -0.000300
vt -0.000557 0.000300
vt -0.000403 -0.000300
vt -0.000403 0.000300
vt -0.000557 -0.005300
vt 0.000431 -0.004104
vt -0.000557 -0.000300
vt 0.000592 0.000300
vt 0.000431 -0.000300
vt 0.000431 0.000300
vt 0.001678 -0.005164
vt 0.001219 -0.003752
vt 0.000592 -0.000300
vt 0.001678 0.000300
vt 0.001219 -0.000300
vt 0.001219 0.000300
vt 0.002331 -0.004037
vt 0.001662 -0.002879
vt -0.005164 -0.000300
vt -0.004037 0.000300
vt -0.005164 0.000300
vt -0.002879 -0.000300
vt -0.003752 0.000300
vt -0.002879 0.000300
vt 0.002904 -0.003225
vt 0.002057 -0.002285
vt -0.004037 -0.000300
vt -0.003225 0.000300
vt -0.002285 -0.000300
vt -0.002285 0.000300
vt 0.002582 -0.001876
vt 0.002904 -0.000300
vt 0.003622 0.000300
vt 0.002904 0.000300
vt 0.002582 -0.000300
vt 0.002057 0.000300
vt 0.002582 0.000300
vt 0.003622 -0.002632
vt 0.003009 -0.001340
vt -0.002632 -0.000300
vt -0.001879 0.000300
vt -0.002632 0.000300
vt -0.001340 -0.000300
vt -0.001876 0.000300
vt -0.001340 0.000300
vt 0.004221 -0.001879
vt 0.003548 -0.000754
vt -0.001879 -0.000300
vt -0.001049 0.000300
vt -0.000754 -0.000300
vt -0.000754 0.000300
vt 0.004933 -0.001049
vt -0.001049 -0.000300
vt 0.005531 0.000000
vt 0.003504 0.003892
vt 0.003892 -0.000300
vt 0.002538 -0.000300
vt -0.003787 0.004206
vt -0.003787 -0.000300
vt 0.003066 -0.000300
vt -0.004523 -0.002014
vt -0.002787 -0.000300
vt -0.004380 -0.000300
vt -0.002532 -0.000300
vt -0.001828 -0.000300
vt 0.000592 -0.005629
vt 0.001678 -0.000300
vt -0.003752 -0.000300
vt -0.003225 -0.000300
vt 0.003622 -0.000300
vt 0.002057 -0.000300
vt -0.001876 -0.000300
s 1
f 1/1/1 7/2/7 5/3/5
f 8/2/8 2/1/2 6/3/6
f 4/4/4 7/5/7 3/6/3
f 6/7/6 1/6/1 5/8/5
f 5/3/5 11/9/11 9/10/9
f 12/9/12 6/3/6 10/10/10
f 8/11/8 11/12/11 7/5/7
f 10/13/10 5/8/5 9/14/9
f 11/9/11 13/15/13 9/10/9
f 14/15/14 12/9/12 10/10/10
f 12/16/12 15/17/15 11/12/11
f 14/18/14 9/14/9 13/19/13
f 15/20/15 17/21/17 13/15/13
f 18/21/18 16/20/16 14/15/14
f 16/22/16 19/23/19 15/17/15
f 18/24/18 13/19/13 17/25/17
f 17/21/17 23/26/23 21/27/21
f 24/26/24 18/21/18 22/27/22
f 20/28/20 23/29/23 19/30/19
f 22/31/22 17/32/17 21/33/21
f 21/27/21 27/34/27 25/35/25
f 28/34/28 22/27/22 26/35/26
f 24/36/24 27/37/27 23/29/23
f 26/38/26 21/33/21 25/39/25
f 25/35/25 31/40/31 29/41/29
f 32/40/32 26/35/26 30/41/30
f 28/42/28 31/43/31 27/37/27
f 30/44/30 25/39/25 29/45/29
f 29/41/29 35/46/35 33/47/33
f 36/46/36 30/41/30 34/47/34
f 32/48/32 35/49/35 31/43/31
f 34/50/34 29/45/29 33/51/33
f 35/46/35 37/52/37 33/47/33
f 38/52/38 36/46/36 34/47/34
f 36/53/36 39/54/39 35/49/35
f 38/55/38 33/51/33 37/56/37
f 39/57/39 41/58/41 37/52/37
f 42/58/42 40/57/40 38/52/38
f 40/59/40 43/60/43 39/54/39
f 42/61/42 37/56/37 41/62/41
f 43/63/43 45/64/45 41/58/41
f 46/64/46 44/63/44 42/58/42
f 44/65/44 47/66/47 43/60/43
f 46/67/46 41/62/41 45/68/45
f 45/64/45 51/69/51 49/70/49
f 52/69/52 46/64/46 50/70/50
f 48/71/48 51/72/51 47/73/47
f 50/74/50 45/75/45 49/76/49
f 49/70/49 55/77/55 53/78/53
f 56/77/56 50/70/50 54/78/54
f 52/79/52 55/80/55 51/72/51
f 54/81/54 49/76/49 53/82/53
f 53/78/53 59/83/59 57/84/57
f 60/83/60 54/78/54 58/84/58
f 56/85/56 59/86/59 55/80/55
f 58/87/58 53/82/53 57/88/57
f 57/84/57 63/89/63 61/90/61
f 64/89/64 58/84/58 62/90/62
f 60/91/60 63/92/63 59/86/59
f 62/93/62 57/88/57 61/94/61
f 63/89/63 65/95/65 61/90/61
f 66/95/66 64/89/64 62/90/62
f 64/96/64 67/97/67 63/92/63
f 66/98/66 61/94/61 65/99/65
f 67/100/67 69/101/69 65/95/65
f 70/101/70 68/100/68 66/95/66
f 68/102/68 71/103/71 67/97/67
f 70/104/70 65/99/65 69/105/69
f 69/101/69 75/106/75 73/107/73
f 76/106/76 70/101/70 74/107/74
f 72/108/72 75/109/75 71/103/71
f 74/110/74 69/105/69 73/111/73
f 73/107/73 79/112/79 77/113/77
f 80/112/80 74/107/74 78/113/78
f 76/114/76 79/115/79 75/109/75
f 78/116/78 73/117/73 77/118/77
f 79/112/79 81/119/81 77/113/77
f 82/119/82 80/112/80 78/113/78
f 80/120/80 83/121/83 79/115/79
f 82/122/82 77/123/77 81/124/81
f 83/125/83 85/126/85 81/119/81
f 86/126/86 84/125/84 82/119/82
f 84/127/84 87/128/87 83/129/83
f 86/130/86 81/131/81 85/132/85
f 87/133/87 89/134/89 85/126/85
f 90/134/90 88/133/88 86/126/86
f 88/135/88 91/136/91 87/128/87
f 90/137/90 85/132/85 89/138/89
f 91/139/91 93/140/93 89/134/89
f 94/140/94 92/139/92 90/134/90
f 92/141/92 95/142/95 91/136/91
f 94/143/94 89/138/89 93/144/93
f 93/140/93 99/145/99 97/146/97
f 100/145/100 94/140/94 98/146/98
f 96/147/96 99/148/99 95/142/95
f 98/149/98 93/144/93 97/150/97
f 97/146/97 103/151/103 101/152/101
f 104/151/104 98/146/98 102/152/102
f 100/153/100 103/154/103 99/155/99
f 102/156/102 97/157/97 101/158/101
f 101/152/101 107/159/107 105/160/105
f 108/159/108 102/152/102 106/160/106
f 104/161/104 107/162/107 103/154/103
f 106/163/106 101/158/101 105/164/105
f 107/159/107 109/165/109 105/160/105
f 110/165/110 108/159/108 106/160/106
f 108/166/108 111/167/111 107/168/107
f 110/169/110 105/170/105 109/171/109
f 111/172/111 113/173/113 109/165/109
f 114/173/114 112/172/112 110/165/110
f 112/174/112 115/175/115 111/176/111
f 114/177/114 109/178/109 113/179/113
f 115/180/115 117/181/117 113/173/113
f 118/181/118 116/180/116 114/173/114
f 116/182/116 119/183/119 115/175/115
f 118/184/118 113/179/113 117/185/117
f 119/186/119 1/1/1 117/181/117
f 2/1/2 120/186/120 118/181/118
f 120/187/120 3/6/3 119/183/119
f 2/4/2 117/185/117 1/6/1
f 1/1/1 3/188/3 7/2/7
f 8/2/8 4/188/4 2/1/2
f 4/4/4 8/11/8 7/5/7
f 6/7/6 2/4/2 1/6/1
f 5/3/5 7/2/7 11/9/11
f 12/9/12 8/2/8 6/3/6
f 8/11/8 12/16/12 11/12/11
f 10/13/10 6/7/6 5/8/5
f 11/9/11 15/20/15 13/15/13
f 14/15/14 16/20/16 12/9/12
f 12/16/12 16/22/16 15/17/15
f 14/18/14 10/13/10 9/14/9
f 15/20/15 19/189/19 17/21/17
f 18/21/18 20/189/20 16/20/16
f 16/22/16 20/190/20 19/23/19
f 18/24/18 14/18/14 13/19/13
f 17/21/17 19/189/19 23/26/23
f 24/26/24 20/189/20 18/21/18
f 20/28/20 24/36/24 23/29/23
f 22/31/22 18/191/18 17/32/17
f 21/27/21 23/26/23 27/34/27
f 28/34/28 24/26/24 22/27/22
f 24/36/24 28/42/28 27/37/27
f 26/38/26 22/31/22 21/33/21
f 25/35/25 27/34/27 31/40/31
f 32/40/32 28/34/28 26/35/26
f 28/42/28 32/48/32 31/43/31
f 30/44/30 26/38/26 25/39/25
f 29/41/29 31/40/31 35/46/35
f 36/46/36 32/40/32 30/41/30
f 32/48/32 36/53/36 35/49/35
f 34/50/34 30/44/30 29/45/29
f 35/46/35 39/57/39 37/52/37
f 38/52/38 40/57/40 36/46/36
f 36/53/36 40/59/40 39/54/39
f 38/55/38 34/50/34 33/51/33
f 39/57/39 43/63/43 41/58/41
f 42/58/42 44/63/44 40/57/40
f 40/59/40 44/65/44 43/60/43
f 42/61/42 38/55/38 37/56/37
f 43/63/43 47/192/47 45/64/45
f 46/64/46 48/192/48 44/63/44
f 44/65/44 48/193/48 47/66/47
f 46/67/46 42/61/42 41/62/41
f 45/64/45 47/192/47 51/69/51
f 52/69/52 48/192/48 46/64/46
f 48/71/48 52/79/52 51/72/51
f 50/74/50 46/194/46 45/75/45
f 49/70/49 51/69/51 55/77/55
f 56/77/56 52/69/52 50/70/50
f 52/79/52 56/85/56 55/80/55
f 54/81/54 50/74/50 49/76/49
f 53/78/53 55/77/55 59/83/59
f 60/83/60 56/77/56 54/78/54
f 56/85/56 60/91/60 59/86/59
f 58/87/58 54/81/54 53/82/53
f 57/84/57 59/83/59 63/89/63
f 64/89/64 60/83/60 58/84/58
f 60/91/60 64/96/64 63/92/63
f 62/93/62 58/87/58 57/88/57
f 63/89/63 67/100/67 65/95/65
f 66/95/66 68/100/68 64/89/64
f 64/96/64 68/102/68 67/97/67
f 66/98/66 62/93/62 61/94/61
f 67/100/67 71/195/71 69/101/69
f 70/101/70 72/195/72 68/100/68
f 68/102/68 72/108/72 71/103/71
f 70/104/70 66/98/66 65/99/65
f 69/101/69 71/195/71 75/106/75
f 76/106/76 72/195/72 70/101/70
f 72/108/72 76/114/76 75/109/75
f 74/110/74 70/104/70 69/105/69
f 73/107/73 75/106/75 79/112/79
f 80/112/80 76/106/76 74/107/74
f 76/114/76 80/120/80 79/115/79
f 78/116/78 74/196/74 73/117/73
f 79/112/79 83/125/83 81/119/81
f 82/119/82 84/125/84 80/112/80
f 80/120/80 84/197/84 83/121/83
f 82/122/82 78/198/78 77/123/77
f 83/125/83 87/133/87 85/126/85
f 86/126/86 88/133/88 84/125/84
f 84/127/84 88/135/88 87/128/87
f 86/130/86 82/199/82 81/131/81
f 87/133/87 91/139/91 89/134/89
f 90/134/90 92/139/92 88/133/88
f 88/135/88 92/141/92 91/136/91
f 90/137/90 86/130/86 85/132/85
f 91/139/91 95/200/95 93/140/93
f 94/140/94 96/200/96 92/139/92
f 92/141/92 96/147/96 95/142/95
f 94/143/94 90/137/90 89/138/89
f 93/140/93 95/200/95 99/145/99
f 100/145/100 96/200/96 94/140/94
f 96/147/96 100/201/100 99/148/99
f 98/149/98 94/143/94 93/144/93
f 97/146/97 99/145/99 103/151/103
f 104/151/104 100/145/100 98/146/98
f 100/153/100 104/161/104 103/154/103
f 102/156/102 98/202/98 97/157/97
f 101/152/101 103/151/103 107/159/107
f 108/159/108 104/151/104 102/152/102
f 104/161/104 108/203/108 107/162/107
f 106/163/106 102/156/102 101/158/101
f 107/159/107 111/172/111 109/165/109
f 110/165/110 112/172/112 108/159/108
f 108/166/108 112/204/112 111/167/111
f 110/169/110 106/205/106 105/170/105
f 111/172/111 115/180/115 113/173/113
f 114/173/114 116/180/116 112/172/112
f 112/174/112 116/182/116 115/175/115
f 114/177/114 110/206/110 109/178/109
f 115/180/115 119/186/119 117/181/117
f 118/181/118 120/186/120 116/180/116
f 116/182/116 120/187/120 119/183/119
f 118/184/118 114/177/114 113/179/113
f 119/186/119 3/188/3 1/1/1
f 2/1/2 4/188/4 120/186/120
f 120/187/120 4/4/4 3/6/3
f 2/4/2 118/184/118 117/185/117
