# Blender 5.2.0 LTS
# www.blender.org
o Slime_Tile_Interior
v -1.600000 1.000000 1.600000
v -1.447619 1.000000 1.600000
v -1.295238 1.000000 1.600000
v -1.142857 1.000000 1.600000
v -0.990476 1.000000 1.600000
v -0.838095 1.000000 1.600000
v -0.685714 1.000000 1.600000
v -0.533333 1.000000 1.600000
v -0.380952 1.000000 1.600000
v -0.228571 1.000000 1.600000
v -0.076190 1.000000 1.600000
v 0.076190 1.000000 1.600000
v 0.228571 1.000000 1.600000
v 0.380952 1.000000 1.600000
v 0.533333 1.000000 1.600000
v 0.685714 1.000000 1.600000
v 0.838095 1.000000 1.600000
v 0.990476 1.000000 1.600000
v 1.142857 1.000000 1.600000
v 1.295238 1.000000 1.600000
v 1.447619 1.000000 1.600000
v 1.600000 1.000000 1.600000
v -1.600000 1.000000 1.447619
v -1.447619 1.017212 1.447619
v -1.295238 1.032736 1.447619
v -1.142857 1.045250 1.447619
v -0.990476 1.053828 1.447619
v -0.838095 1.057697 1.447619
v -0.685714 1.056402 1.447619
v -0.533333 1.049878 1.447619
v -0.380952 1.039201 1.447619
v -0.228571 1.025412 1.447619
v -0.076190 1.009267 1.447619
v 0.076190 0.991829 1.447619
v 0.228571 0.975242 1.447619
v 0.380952 0.961092 1.447619
v 0.533333 0.950608 1.447619
v 0.685714 0.944461 1.447619
v 0.838095 0.942984 1.447619
v 0.990476 0.946548 1.447619
v 1.142857 0.954978 1.447619
v 1.295238 0.967360 1.447619
v 1.447619 0.982774 1.447619
v 1.600000 1.000000 1.447619
v -1.600000 1.000000 1.295238
v -1.447619 1.032860 1.295238
v -1.295238 1.062445 1.295238
v -1.142857 1.086283 1.295238
v -0.990476 1.102499 1.295238
v -0.838095 1.109373 1.295238
v -0.685714 1.106220 1.295238
v -0.533333 1.093299 1.295238
v -0.380952 1.072970 1.295238
v -0.228571 1.047034 1.295238
v -0.076190 1.016579 1.295238
v 0.076190 0.983347 1.295238
v 0.228571 0.951846 1.295238
v 0.380952 0.925196 1.295238
v 0.533333 0.905704 1.295238
v 0.685714 0.894630 1.295238
v 0.838095 0.892407 1.295238
v 0.990476 0.899442 1.295238
v 1.142857 0.915289 1.295238
v 1.295238 0.938462 1.295238
v 1.447619 0.967453 1.295238
v 1.600000 1.000000 1.295238
v -1.600000 1.000000 1.142857
v -1.447619 1.045581 1.142857
v -1.295238 1.086576 1.142857
v -1.142857 1.119593 1.142857
v -0.990476 1.141940 1.142857
v -0.838095 1.150999 1.142857
v -0.685714 1.145994 1.142857
v -0.533333 1.127644 1.142857
v -0.380952 1.099573 1.142857
v -0.228571 1.064099 1.142857
v -0.076190 1.022313 1.142857
v 0.076190 0.976289 1.142857
v 0.228571 0.932718 1.142857
v 0.380952 0.896043 1.142857
v 0.533333 0.869453 1.142857
v 0.685714 0.854671 1.142857
v 0.838095 0.852093 1.142857
v 0.990476 0.862021 1.142857
v 1.142857 0.883740 1.142857
v 1.295238 0.915399 1.142857
v 1.447619 0.955170 1.142857
v 1.600000 1.000000 1.142857
v -1.600000 1.000000 0.990476
v -1.447619 1.054402 0.990476
v -1.295238 1.103395 0.990476
v -1.142857 1.142900 0.990476
v -0.990476 1.169511 0.990476
v -0.838095 1.179844 0.990476
v -0.685714 1.173198 0.990476
v -0.533333 1.150891 0.990476
v -0.380952 1.117436 0.990476
v -0.228571 1.075395 0.990476
v -0.076190 1.025858 0.990476
v 0.076190 0.971072 0.990476
v 0.228571 0.919059 0.990476
v 0.380952 0.875292 0.990476
v 0.533333 0.843726 0.990476
v 0.685714 0.826535 0.990476
v 0.838095 0.824012 0.990476
v 0.990476 0.836175 0.990476
v 1.142857 0.862019 0.990476
v 1.295238 0.899580 0.990476
v 1.447619 0.946787 0.990476
v 1.600000 1.000000 0.990476
v -1.600000 1.000000 0.838095
v -1.447619 1.058934 0.838095
v -1.295238 1.112393 0.838095
v -1.142857 1.155770 0.838095
v -0.990476 1.184571 0.838095
v -0.838095 1.194308 0.838095
v -0.685714 1.185009 0.838095
v -0.533333 1.159684 0.838095
v -0.380952 1.123402 0.838095
v -0.228571 1.078273 0.838095
v -0.076190 1.025272 0.838095
v 0.076190 0.966468 0.838095
v 0.228571 0.909935 0.838095
v 0.380952 0.862122 0.838095
v 0.533333 0.827937 0.838095
v 0.685714 0.810396 0.838095
v 0.838095 0.809442 0.838095
v 0.990476 0.823872 0.838095
v 1.142857 0.851982 0.838095
v 1.295238 0.892469 0.838095
v 1.447619 0.943180 0.838095
v 1.600000 1.000000 0.838095
v -1.600000 1.000000 0.685714
v -1.447619 1.058615 0.685714
v -1.295238 1.112351 0.685714
v -1.142857 1.156340 0.685714
v -0.990476 1.184989 0.685714
v -0.838095 1.192685 0.685714
v -0.685714 1.180508 0.685714
v -0.533333 1.153596 0.685714
v -0.380952 1.117329 0.685714
v -0.228571 1.072964 0.685714
v -0.076190 1.021189 0.685714
v 0.076190 0.963512 0.685714
v 0.228571 0.906974 0.685714
v 0.380952 0.858724 0.685714
v 0.533333 0.824559 0.685714
v 0.685714 0.808424 0.685714
v 0.838095 0.809796 0.685714
v 0.990476 0.825877 0.685714
v 1.142857 0.854157 0.685714
v 1.295238 0.894369 0.685714
v 1.447619 0.944435 0.685714
v 1.600000 1.000000 0.685714
v -1.600000 1.000000 0.533333
v -1.447619 1.053069 0.533333
v -1.295238 1.102214 0.533333
v -1.142857 1.142769 0.533333
v -0.990476 1.168741 0.533333
v -0.838095 1.173993 0.533333
v -0.685714 1.160295 0.533333
v -0.533333 1.134020 0.533333
v -0.380952 1.100765 0.533333
v -0.228571 1.061142 0.533333
v -0.076190 1.015313 0.533333
v 0.076190 0.963923 0.533333
v 0.228571 0.912431 0.533333
v 0.380952 0.868003 0.533333
v 0.533333 0.836739 0.533333
v 0.685714 0.822975 0.533333
v 0.838095 0.825879 0.533333
v 0.990476 0.841831 0.533333
v 1.142857 0.867976 0.533333
v 1.295238 0.904675 0.533333
v 1.447619 0.950073 0.533333
v 1.600000 1.000000 0.533333
v -1.600000 1.000000 0.380952
v -1.447619 1.042689 0.380952
v -1.295238 1.082513 0.380952
v -1.142857 1.115563 0.380952
v -0.990476 1.136582 0.380952
v -0.838095 1.139897 0.380952
v -0.685714 1.127176 0.380952
v -0.533333 1.104259 0.380952
v -0.380952 1.075578 0.380952
v -0.228571 1.041860 0.380952
v -0.076190 1.004140 0.380952
v 0.076190 0.963613 0.380952
v 0.228571 0.923690 0.380952
v 0.380952 0.889325 0.380952
v 0.533333 0.864865 0.380952
v 0.685714 0.853847 0.380952
v 0.838095 0.856346 0.380952
v 0.990476 0.869653 0.380952
v 1.142857 0.891515 0.380952
v 1.295238 0.922073 0.380952
v 1.447619 0.959448 0.380952
v 1.600000 1.000000 0.380952
v -1.600000 1.000000 0.228571
v -1.447619 1.028542 0.228571
v -1.295238 1.055388 0.228571
v -1.142857 1.077817 0.228571
v -0.990476 1.092062 0.228571
v -0.838095 1.093568 0.228571
v -0.685714 1.083476 0.228571
v -0.533333 1.066041 0.228571
v -0.380952 1.043193 0.228571
v -0.228571 1.016161 0.228571
v -0.076190 0.988097 0.228571
v 0.076190 0.962025 0.228571
v 0.228571 0.938955 0.228571
v 0.380952 0.919829 0.228571
v 0.533333 0.905553 0.228571
v 0.685714 0.898001 0.228571
v 0.838095 0.899070 0.228571
v 0.990476 0.907986 0.228571
v 1.142857 0.923703 0.228571
v 1.295238 0.945779 0.228571
v 1.447619 0.972163 0.228571
v 1.600000 1.000000 0.228571
v -1.600000 1.000000 0.076190
v -1.447619 1.011922 0.076190
v -1.295238 1.023484 0.076190
v -1.142857 1.033385 0.076190
v -0.990476 1.039505 0.076190
v -0.838095 1.038535 0.076190
v -0.685714 1.031224 0.076190
v -0.533333 1.020362 0.076190
v -0.380952 1.005544 0.076190
v -0.228571 0.988139 0.076190
v -0.076190 0.972715 0.076190
v 0.076190 0.963470 0.076190
v 0.228571 0.959172 0.076190
v 0.380952 0.956939 0.076190
v 0.533333 0.954353 0.076190
v 0.685714 0.951539 0.076190
v 0.838095 0.951735 0.076190
v 0.990476 0.955785 0.076190
v 1.142857 0.963779 0.076190
v 1.295238 0.975021 0.076190
v 1.447619 0.987684 0.076190
v 1.600000 1.000000 0.076190
v -1.600000 1.000000 -0.076190
v -1.447619 0.994267 -0.076190
v -1.295238 0.989634 -0.076190
v -1.142857 0.986285 -0.076190
v -0.990476 0.983555 -0.076190
v -0.838095 0.979220 -0.076190
v -0.685714 0.974066 -0.076190
v -0.533333 0.970135 -0.076190
v -0.380952 0.965991 -0.076190
v -0.228571 0.962375 -0.076190
v -0.076190 0.963162 -0.076190
v 0.076190 0.971646 -0.076190
v 0.228571 0.984847 -0.076190
v 0.380952 0.997883 -0.076190
v 0.533333 1.006607 -0.076190
v 0.685714 1.009922 -0.076190
v 0.838095 1.010833 -0.076190
v 0.990476 1.010538 -0.076190
v 1.142857 1.009707 -0.076190
v 1.295238 1.008197 -0.076190
v 1.447619 1.005098 -0.076190
v 1.600000 1.000000 -0.076190
v -1.600000 1.000000 -0.228571
v -1.447619 0.976823 -0.228571
v -1.295238 0.955785 -0.228571
v -1.142857 0.938747 -0.228571
v -0.990476 0.927397 -0.228571
v -0.838095 0.921563 -0.228571
v -0.685714 0.921185 -0.228571
v -0.533333 0.925765 -0.228571
v -0.380952 0.932360 -0.228571
v -0.228571 0.941807 -0.228571
v -0.076190 0.957773 -0.228571
v 0.076190 0.983140 -0.228571
v 0.228571 1.013090 -0.228571
v 0.380952 1.040734 -0.228571
v 0.533333 1.060233 -0.228571
v 0.685714 1.068940 -0.228571
v 0.838095 1.069516 -0.228571
v 0.990476 1.064159 -0.228571
v 1.142857 1.054465 -0.228571
v 1.295238 1.040598 -0.228571
v 1.447619 1.022164 -0.228571
v 1.600000 1.000000 -0.228571
v -1.600000 1.000000 -0.380952
v -1.447619 0.961424 -0.380952
v -1.295238 0.925732 -0.380952
v -1.142857 0.896352 -0.380952
v -0.990476 0.877431 -0.380952
v -0.838095 0.871058 -0.380952
v -0.685714 0.876099 -0.380952
v -0.533333 0.889099 -0.380952
v -0.380952 0.905505 -0.380952
v -0.228571 0.926447 -0.380952
v -0.076190 0.955549 -0.380952
v 0.076190 0.995518 -0.380952
v 0.228571 1.040015 -0.380952
v 0.380952 1.080349 -0.380952
v 0.533333 1.109139 -0.380952
v 0.685714 1.122226 -0.380952
v 0.838095 1.121964 -0.380952
v 0.990476 1.111712 -0.380952
v 1.142857 1.094022 -0.380952
v 1.295238 1.069211 -0.380952
v 1.447619 1.037224 -0.380952
v 1.600000 1.000000 -0.380952
v -1.600000 1.000000 -0.533333
v -1.447619 0.949779 -0.533333
v -1.295238 0.903122 -0.533333
v -1.142857 0.864581 -0.533333
v -0.990476 0.839830 -0.533333
v -0.838095 0.832416 -0.533333
v -0.685714 0.840825 -0.533333
v -0.533333 0.860140 -0.533333
v -0.380952 0.884893 -0.533333
v -0.228571 0.915859 -0.533333
v -0.076190 0.955914 -0.533333
v 0.076190 1.007005 -0.533333
v 0.228571 1.062104 -0.533333
v 0.380952 1.111564 -0.533333
v 0.533333 1.147127 -0.533333
v 0.685714 1.163723 -0.533333
v 0.838095 1.163251 -0.533333
v 0.990476 1.149470 -0.533333
v 1.142857 1.125425 -0.533333
v 1.295238 1.091731 -0.533333
v 1.447619 1.048945 -0.533333
v 1.600000 1.000000 -0.533333
v -1.600000 1.000000 -0.685714
v -1.447619 0.942830 -0.685714
v -1.295238 0.890249 -0.685714
v -1.142857 0.847098 -0.685714
v -0.990476 0.818735 -0.685714
v -0.838095 0.808894 -0.685714
v -0.685714 0.816908 -0.685714
v -0.533333 0.839035 -0.685714
v -0.380952 0.870678 -0.685714
v -0.228571 0.911085 -0.685714
v -0.076190 0.960489 -0.685714
v 0.076190 1.018312 -0.685714
v 0.228571 1.078038 -0.685714
v 0.380952 1.130960 -0.685714
v 0.533333 1.169527 -0.685714
v 0.685714 1.188665 -0.685714
v 0.838095 1.189051 -0.685714
v 0.990476 1.173771 -0.685714
v 1.142857 1.145703 -0.685714
v 1.295238 1.105995 -0.685714
v 1.447619 1.056176 -0.685714
v 1.600000 1.000000 -0.685714
v -1.600000 1.000000 -0.838095
v -1.447619 0.940908 -0.838095
v -1.295238 0.887562 -0.838095
v -1.142857 0.844319 -0.838095
v -0.990476 0.814900 -0.838095
v -0.838095 0.802527 -0.838095
v -0.685714 0.807909 -0.838095
v -0.533333 0.829781 -0.838095
v -0.380952 0.865886 -0.838095
v -0.228571 0.913571 -0.838095
v -0.076190 0.969261 -0.838095
v 0.076190 1.028738 -0.838095
v 0.228571 1.086761 -0.838095
v 0.380952 1.137231 -0.838095
v 0.533333 1.174768 -0.838095
v 0.685714 1.194878 -0.838095
v 0.838095 1.196344 -0.838095
v 0.990476 1.181235 -0.838095
v 1.142857 1.151967 -0.838095
v 1.295238 1.110137 -0.838095
v 1.447619 1.058085 -0.838095
v 1.600000 1.000000 -0.838095
v -1.600000 1.000000 -0.990476
v -1.447619 0.944465 -0.990476
v -1.295238 0.895044 -0.990476
v -1.142857 0.855371 -0.990476
v -0.990476 0.827669 -0.990476
v -0.838095 0.814492 -0.990476
v -0.685714 0.817451 -0.990476
v -0.533333 0.837139 -0.990476
v -0.380952 0.873171 -0.990476
v -0.228571 0.921835 -0.990476
v -0.076190 0.977232 -0.990476
v 0.076190 1.032962 -0.990476
v 0.228571 1.085027 -0.990476
v 0.380952 1.129637 -0.990476
v 0.533333 1.163381 -0.990476
v 0.685714 1.182534 -0.990476
v 0.838095 1.184660 -0.990476
v 0.990476 1.170979 -0.990476
v 1.142857 1.143401 -0.990476
v 1.295238 1.103693 -0.990476
v 1.447619 1.054521 -0.990476
v 1.600000 1.000000 -0.990476
v -1.600000 1.000000 -1.142857
v -1.447619 0.953311 -1.142857
v -1.295238 0.911865 -1.142857
v -1.142857 0.878657 -1.142857
v -0.990476 0.855335 -1.142857
v -0.838095 0.843930 -1.142857
v -0.685714 0.845987 -1.142857
v -0.533333 0.862369 -1.142857
v -0.380952 0.893090 -1.142857
v -0.228571 0.934781 -1.142857
v -0.076190 0.981981 -1.142857
v 0.076190 1.028823 -1.142857
v 0.228571 1.072101 -1.142857
v 0.380952 1.109035 -1.142857
v 0.533333 1.137110 -1.142857
v 0.685714 1.153336 -1.142857
v 0.838095 1.155388 -1.142857
v 0.990476 1.144061 -1.142857
v 1.142857 1.120845 -1.142857
v 1.295238 1.087322 -1.142857
v 1.447619 1.045870 -1.142857
v 1.600000 1.000000 -1.142857
v -1.600000 1.000000 -1.295238
v -1.447619 0.966491 -1.295238
v -1.295238 0.936510 -1.295238
v -1.142857 0.912373 -1.295238
v -0.990476 0.895521 -1.295238
v -0.838095 0.887340 -1.295238
v -0.685714 0.888930 -1.295238
v -0.533333 0.900881 -1.295238
v -0.380952 0.923188 -1.295238
v -0.228571 0.953395 -1.295238
v -0.076190 0.987512 -1.295238
v 0.076190 1.021238 -1.295238
v 0.228571 1.052178 -1.295238
v 0.380952 1.078505 -1.295238
v 0.533333 1.098597 -1.295238
v 0.685714 1.110381 -1.295238
v 0.838095 1.112035 -1.295238
v 0.990476 1.103990 -1.295238
v 1.142857 1.087255 -1.295238
v 1.295238 1.063105 -1.295238
v 1.447619 1.033192 -1.295238
v 1.600000 1.000000 -1.295238
v -1.600000 1.000000 -1.447619
v -1.447619 0.982555 -1.447619
v -1.295238 0.966767 -1.447619
v -1.142857 0.953972 -1.447619
v -0.990476 0.945107 -1.447619
v -0.838095 0.940841 -1.447619
v -0.685714 0.941750 -1.447619
v -0.533333 0.948141 -1.447619
v -0.380952 0.960024 -1.447619
v -0.228571 0.976064 -1.447619
v -0.076190 0.994079 -1.447619
v 0.076190 1.011715 -1.447619
v 0.228571 1.027682 -1.447619
v 0.380952 1.041194 -1.447619
v 0.533333 1.051572 -1.447619
v 0.685714 1.057788 -1.447619
v 0.838095 1.058753 -1.447619
v 0.990476 1.054603 -1.447619
v 1.142857 1.045826 -1.447619
v 1.295238 1.033185 -1.447619
v 1.447619 1.017485 -1.447619
v 1.600000 1.000000 -1.447619
v -1.600000 1.000000 -1.600000
v -1.447619 1.000000 -1.600000
v -1.295238 1.000000 -1.600000
v -1.142857 1.000000 -1.600000
v -0.990476 1.000000 -1.600000
v -0.838095 1.000000 -1.600000
v -0.685714 1.000000 -1.600000
v -0.533333 1.000000 -1.600000
v -0.380952 1.000000 -1.600000
v -0.228571 1.000000 -1.600000
v -0.076190 1.000000 -1.600000
v 0.076190 1.000000 -1.600000
v 0.228571 1.000000 -1.600000
v 0.380952 1.000000 -1.600000
v 0.533333 1.000000 -1.600000
v 0.685714 1.000000 -1.600000
v 0.838095 1.000000 -1.600000
v 0.990476 1.000000 -1.600000
v 1.142857 1.000000 -1.600000
v 1.295238 1.000000 -1.600000
v 1.447619 1.000000 -1.600000
v 1.600000 1.000000 -1.600000
v -1.600000 0.000000 1.600000
v -1.447619 0.000000 1.600000
v -1.295238 0.000000 1.600000
v -1.142857 0.000000 1.600000
v -0.990476 0.000000 1.600000
v -0.838095 0.000000 1.600000
v -0.685714 0.000000 1.600000
v -0.533333 0.000000 1.600000
v -0.380952 0.000000 1.600000
v -0.228571 0.000000 1.600000
v -0.076190 0.000000 1.600000
v 0.076190 0.000000 1.600000
v 0.228571 0.000000 1.600000
v 0.380952 0.000000 1.600000
v 0.533333 0.000000 1.600000
v 0.685714 0.000000 1.600000
v 0.838095 0.000000 1.600000
v 0.990476 0.000000 1.600000
v 1.142857 0.000000 1.600000
v 1.295238 0.000000 1.600000
v 1.447619 0.000000 1.600000
v 1.600000 0.000000 1.600000
v 1.600000 0.000000 1.447619
v 1.600000 0.000000 1.295238
v 1.600000 0.000000 1.142857
v 1.600000 0.000000 0.990476
v 1.600000 0.000000 0.838095
v 1.600000 0.000000 0.685714
v 1.600000 0.000000 0.533333
v 1.600000 0.000000 0.380952
v 1.600000 0.000000 0.228571
v 1.600000 0.000000 0.076190
v 1.600000 0.000000 -0.076190
v 1.600000 0.000000 -0.228571
v 1.600000 0.000000 -0.380952
v 1.600000 0.000000 -0.533333
v 1.600000 0.000000 -0.685714
v 1.600000 0.000000 -0.838095
v 1.600000 0.000000 -0.990476
v 1.600000 0.000000 -1.142857
v 1.600000 0.000000 -1.295238
v 1.600000 0.000000 -1.447619
v 1.600000 0.000000 -1.600000
v 1.447619 0.000000 -1.600000
v 1.295238 0.000000 -1.600000
v 1.142857 0.000000 -1.600000
v 0.990476 0.000000 -1.600000
v 0.838095 0.000000 -1.600000
v 0.685714 0.000000 -1.600000
v 0.533333 0.000000 -1.600000
v 0.380952 0.000000 -1.600000
v 0.228571 0.000000 -1.600000
v 0.076190 0.000000 -1.600000
v -0.076190 0.000000 -1.600000
v -0.228571 0.000000 -1.600000
v -0.380952 0.000000 -1.600000
v -0.533333 0.000000 -1.600000
v -0.685714 0.000000 -1.600000
v -0.838095 0.000000 -1.600000
v -0.990476 0.000000 -1.600000
v -1.142857 0.000000 -1.600000
v -1.295238 0.000000 -1.600000
v -1.447619 0.000000 -1.600000
v -1.600000 0.000000 -1.600000
v -1.600000 0.000000 -1.447619
v -1.600000 0.000000 -1.295238
v -1.600000 0.000000 -1.142857
v -1.600000 0.000000 -0.990476
v -1.600000 0.000000 -0.838095
v -1.600000 0.000000 -0.685714
v -1.600000 0.000000 -0.533333
v -1.600000 0.000000 -0.380952
v -1.600000 0.000000 -0.228571
v -1.600000 0.000000 -0.076190
v -1.600000 0.000000 0.076190
v -1.600000 0.000000 0.228571
v -1.600000 0.000000 0.380952
v -1.600000 0.000000 0.533333
v -1.600000 0.000000 0.685714
v -1.600000 0.000000 0.838095
v -1.600000 0.000000 0.990476
v -1.600000 0.000000 1.142857
v -1.600000 0.000000 1.295238
v -1.600000 0.000000 1.447619
v 0.000000 0.000000 0.000000
vn -0.0281 0.9960 0.0843
vn -0.0843 0.9960 0.0281
vn -0.0000 1.0000 -0.0000
vn -0.0248 0.9823 0.1856
vn -0.1064 0.9886 0.1066
vn -0.0194 0.9638 0.2658
vn -0.0913 0.9758 0.1986
vn -0.0129 0.9471 0.3207
vn -0.0689 0.9605 0.2695
vn -0.0038 0.9379 0.3468
vn -0.0418 0.9480 0.3155
vn 0.0282 0.9453 0.3250
vn -0.0088 0.9425 0.3341
vn 0.0097 0.9411 0.3379
vn 0.0566 0.9555 0.2896
vn 0.0163 0.9552 0.2954
vn 0.0793 0.9698 0.2308
vn 0.0217 0.9734 0.2279
vn 0.0972 0.9837 0.1514
vn 0.0261 0.9900 0.1386
vn 0.0962 0.9931 0.0672
vn 0.0286 0.9991 0.0322
vn 0.0961 0.9945 -0.0409
vn 0.0269 0.9907 -0.1337
vn -0.0000 0.9986 -0.0535
vn 0.0223 0.9740 -0.2256
vn 0.0999 0.9829 -0.1547
vn 0.0160 0.9560 -0.2929
vn 0.0801 0.9685 -0.2359
vn 0.0092 0.9426 -0.3337
vn 0.0545 0.9546 -0.2928
vn -0.0031 0.9392 -0.3433
vn 0.0263 0.9457 -0.3240
vn -0.0405 0.9499 -0.3100
vn -0.0085 0.9441 -0.3297
vn -0.0127 0.9477 -0.3188
vn -0.0678 0.9618 -0.2652
vn -0.0192 0.9641 -0.2647
vn -0.0903 0.9764 -0.1961
vn -0.0247 0.9824 -0.1852
vn -0.1059 0.9887 -0.1058
vn -0.0281 0.9960 -0.0843
vn -0.0843 0.9960 -0.0281
vn -0.1862 0.9822 0.0250
vn -0.1987 0.9757 0.0922
vn -0.1702 0.9704 0.1714
vn -0.1280 0.9639 0.2336
vn -0.0752 0.9587 0.2742
vn 0.0534 0.9590 0.2785
vn -0.0119 0.9572 0.2892
vn 0.1064 0.9638 0.2445
vn 0.1473 0.9702 0.1922
vn 0.1799 0.9758 0.1247
vn 0.1807 0.9827 0.0411
vn 0.2057 0.9772 -0.0518
vn 0.1853 0.9732 -0.1363
vn 0.1474 0.9675 -0.2056
vn 0.0983 0.9622 -0.2541
vn 0.0442 0.9591 -0.2797
vn -0.0742 0.9616 -0.2643
vn -0.0171 0.9590 -0.2829
vn -0.1247 0.9664 -0.2248
vn -0.1664 0.9720 -0.1658
vn -0.1960 0.9765 -0.0897
vn -0.1848 0.9825 -0.0245
vn -0.2675 0.9634 0.0197
vn -0.2704 0.9602 0.0702
vn -0.2328 0.9637 0.1306
vn -0.1759 0.9679 0.1793
vn -0.1017 0.9721 0.2115
vn 0.0762 0.9743 0.2118
vn -0.0126 0.9749 0.2224
vn 0.1479 0.9719 0.1834
vn 0.2010 0.9692 0.1423
vn 0.2431 0.9657 0.0915
vn 0.2585 0.9656 0.0285
vn 0.2792 0.9593 -0.0415
vn 0.2518 0.9621 -0.1050
vn 0.2004 0.9668 -0.1583
vn 0.1327 0.9715 -0.1962
vn 0.0571 0.9748 -0.2156
vn -0.1020 0.9743 -0.2008
vn -0.0253 0.9759 -0.2167
vn -0.1699 0.9708 -0.1695
vn -0.2254 0.9663 -0.1242
vn -0.2648 0.9619 -0.0674
vn -0.2637 0.9644 -0.0191
vn -0.3235 0.9461 0.0133
vn -0.3182 0.9470 0.0443
vn -0.2760 0.9576 0.0828
vn -0.2098 0.9709 0.1155
vn -0.1195 0.9834 0.1364
vn 0.0946 0.9877 0.1248
vn -0.0093 0.9903 0.1385
vn 0.1777 0.9786 0.1036
vn 0.2376 0.9683 0.0775
vn 0.2848 0.9574 0.0471
vn 0.3118 0.9501 0.0087
vn 0.3272 0.9443 -0.0339
vn 0.2968 0.9521 -0.0733
vn 0.2373 0.9654 -0.1082
vn 0.1563 0.9787 -0.1329
vn 0.0640 0.9877 -0.1428
vn -0.1225 0.9848 -0.1229
vn -0.0343 0.9899 -0.1375
vn -0.2012 0.9742 -0.1024
vn -0.2650 0.9614 -0.0743
vn -0.3096 0.9500 -0.0405
vn -0.3176 0.9482 -0.0126
vn -0.3539 0.9353 0.0062
vn -0.3428 0.9393 0.0166
vn -0.2993 0.9536 0.0310
vn -0.2283 0.9726 0.0441
vn -0.1233 0.9912 0.0481
vn 0.1125 0.9932 0.0283
vn -0.0014 0.9991 0.0419
vn 0.1965 0.9804 0.0124
vn 0.2555 0.9668 0.0019
vn 0.3033 0.9529 -0.0058
vn 0.3381 0.9410 -0.0157
vn 0.3498 0.9364 -0.0274
vn 0.3204 0.9464 -0.0406
vn 0.2571 0.9649 -0.0541
vn 0.1660 0.9842 -0.0620
vn 0.0584 0.9967 -0.0569
vn -0.1372 0.9899 -0.0365
vn -0.0439 0.9980 -0.0464
vn -0.2173 0.9757 -0.0271
vn -0.2838 0.9587 -0.0185
vn -0.3295 0.9441 -0.0095
vn -0.3425 0.9395 -0.0035
vn -0.3426 0.9392 -0.0213
vn -0.3512 0.9363 -0.0082
vn -0.3015 0.9528 -0.0342
vn -0.2288 0.9725 -0.0436
vn 0.0105 0.9977 -0.0668
vn -0.1155 0.9919 -0.0533
vn 0.1263 0.9888 -0.0799
vn 0.2015 0.9760 -0.0825
vn 0.2531 0.9647 -0.0734
vn 0.2975 0.9531 -0.0563
vn 0.3342 0.9419 -0.0345
vn 0.3429 0.9393 -0.0087
vn 0.3217 0.9468 0.0104
vn 0.2580 0.9659 0.0209
vn 0.1612 0.9864 0.0315
vn -0.0549 0.9972 0.0517
vn 0.0481 0.9980 0.0410
vn -0.1432 0.9880 0.0583
vn -0.2170 0.9748 0.0526
vn -0.2812 0.9588 0.0407
vn -0.3248 0.9455 0.0240
vn -0.3146 0.9478 -0.0526
vn -0.3138 0.9493 -0.0157
vn -0.2785 0.9556 -0.0960
vn -0.2096 0.9690 -0.1306
vn -0.1007 0.9828 -0.1548
vn 0.0239 0.9853 -0.1691
vn 0.1276 0.9770 -0.1708
vn 0.1889 0.9694 -0.1570
vn 0.2305 0.9641 -0.1319
vn 0.2685 0.9583 -0.0979
vn 0.3019 0.9518 -0.0549
vn 0.2957 0.9536 0.0564
vn 0.3035 0.9528 0.0008
vn 0.2369 0.9664 0.0994
vn 0.1444 0.9811 0.1291
vn 0.0383 0.9885 0.1460
vn -0.0607 0.9868 0.1504
vn -0.1348 0.9808 0.1410
vn -0.1996 0.9725 0.1197
vn -0.2576 0.9622 0.0887
vn -0.3345 0.9423 0.0084
vn -0.2962 0.9539 0.0490
vn -0.2584 0.9627 -0.0798
vn -0.2482 0.9684 -0.0221
vn -0.2288 0.9620 -0.1490
vn -0.1714 0.9637 -0.2045
vn -0.0796 0.9675 -0.2401
vn 0.0290 0.9673 -0.2521
vn 0.1132 0.9637 -0.2419
vn 0.1623 0.9630 -0.2153
vn 0.1973 0.9633 -0.1819
vn 0.2270 0.9636 -0.1412
vn 0.2486 0.9648 -0.0855
vn 0.2329 0.9686 0.0876
vn 0.2312 0.9729 -0.0042
vn 0.1867 0.9685 0.1648
vn 0.1154 0.9696 0.2156
vn 0.0290 0.9714 0.2358
vn -0.0513 0.9714 0.2317
vn -0.1120 0.9712 0.2105
vn -0.1667 0.9699 0.1772
vn -0.2152 0.9677 0.1310
vn -0.2976 0.9546 0.0143
vn -0.2457 0.9667 0.0716
vn -0.1770 0.9791 -0.1000
vn -0.1576 0.9871 -0.0268
vn -0.1573 0.9696 -0.1875
vn -0.1176 0.9594 -0.2564
vn -0.0527 0.9527 -0.2995
vn 0.0274 0.9498 -0.3118
vn 0.0881 0.9509 -0.2968
vn 0.1259 0.9564 -0.2636
vn 0.1565 0.9624 -0.2222
vn 0.1754 0.9696 -0.1709
vn 0.1755 0.9794 -0.0996
vn 0.1363 0.9840 0.1148
vn 0.1306 0.9914 0.0012
vn 0.1096 0.9710 0.2123
vn 0.0731 0.9582 0.2765
vn 0.0219 0.9533 0.3011
vn -0.0341 0.9547 0.2955
vn -0.0787 0.9597 0.2697
vn -0.1206 0.9661 0.2282
vn -0.1550 0.9734 0.1690
vn -0.2377 0.9711 0.0200
vn -0.1736 0.9805 0.0918
vn -0.0768 0.9908 -0.1111
vn -0.0491 0.9984 -0.0289
vn -0.0706 0.9754 -0.2087
vn -0.0535 0.9572 -0.2843
vn -0.0222 0.9439 -0.3294
vn 0.0282 0.9382 -0.3449
vn 0.0595 0.9407 -0.3340
vn 0.0812 0.9510 -0.2982
vn 0.1013 0.9642 -0.2450
vn 0.1046 0.9792 -0.1737
vn 0.0809 0.9934 -0.0807
vn 0.0225 0.9926 0.1197
vn 0.0299 0.9994 0.0170
vn 0.0169 0.9746 0.2233
vn 0.0173 0.9545 0.2978
vn 0.0065 0.9417 0.3363
vn -0.0173 0.9402 0.3401
vn -0.0402 0.9479 0.3159
vn -0.0625 0.9610 0.2693
vn -0.0777 0.9769 0.1992
vn -0.1550 0.9876 0.0250
vn -0.0811 0.9909 0.1073
vn 0.0337 0.9957 -0.0859
vn 0.0376 0.9993 -0.0000
vn 0.0260 0.9812 -0.1913
vn 0.0196 0.9608 -0.2765
vn 0.0192 0.9420 -0.3351
vn 0.0318 0.9341 -0.3556
vn 0.0233 0.9430 -0.3318
vn 0.0253 0.9596 -0.2804
vn 0.0254 0.9768 -0.2125
vn 0.0099 0.9921 -0.1250
vn -0.0159 0.9993 -0.0345
vn -0.0703 0.9954 0.0648
vn -0.0858 0.9813 0.1724
vn -0.0716 0.9624 0.2619
vn -0.0410 0.9450 0.3245
vn -0.0164 0.9343 0.3561
vn -0.0011 0.9352 0.3541
vn 0.0036 0.9466 0.3223
vn 0.0072 0.9638 0.2664
vn 0.0146 0.9825 0.1859
vn -0.0521 0.9982 0.0285
vn 0.0266 0.9961 0.0844
vn 0.1223 0.9921 -0.0283
vn 0.1420 0.9841 -0.1070
vn 0.1224 0.9715 -0.2029
vn 0.0923 0.9559 -0.2788
vn 0.0580 0.9444 -0.3237
vn 0.0190 0.9450 -0.3265
vn -0.0367 0.9661 -0.2555
vn -0.0197 0.9539 -0.2995
vn -0.0524 0.9797 -0.1936
vn -0.0827 0.9897 -0.1166
vn -0.1084 0.9938 -0.0236
vn -0.1763 0.9812 0.0787
vn -0.1829 0.9674 0.1753
vn -0.1494 0.9549 0.2568
vn -0.0906 0.9449 0.3145
vn -0.0322 0.9391 0.3420
vn 0.0493 0.9487 0.3123
vn 0.0191 0.9404 0.3394
vn 0.0762 0.9615 0.2641
vn 0.1046 0.9754 0.1942
vn 0.1311 0.9859 0.1043
vn 0.1164 0.9928 0.0278
vn 0.2216 0.9748 -0.0244
vn 0.2334 0.9683 -0.0886
vn 0.2048 0.9643 -0.1678
vn 0.1535 0.9605 -0.2321
vn 0.0837 0.9591 -0.2705
vn -0.0580 0.9656 -0.2534
vn 0.0023 0.9609 -0.2768
vn -0.0940 0.9733 -0.2094
vn -0.1205 0.9809 -0.1526
vn -0.1608 0.9834 -0.0844
vn -0.1991 0.9800 -0.0051
vn -0.2636 0.9615 0.0781
vn -0.2633 0.9522 0.1550
vn -0.2154 0.9512 0.2211
vn -0.1328 0.9538 0.2694
vn -0.0433 0.9552 0.2926
vn 0.0893 0.9596 0.2670
vn 0.0357 0.9562 0.2906
vn 0.1354 0.9652 0.2238
vn 0.1806 0.9700 0.1629
vn 0.2190 0.9718 0.0872
vn 0.2139 0.9766 0.0239
vn 0.2959 0.9551 -0.0178
vn 0.2992 0.9522 -0.0614
vn 0.2647 0.9576 -0.1142
vn 0.1993 0.9673 -0.1569
vn 0.1048 0.9771 -0.1852
vn -0.0884 0.9778 -0.1899
vn -0.0009 0.9803 -0.1975
vn -0.1417 0.9769 -0.1599
vn -0.1795 0.9775 -0.1109
vn -0.2257 0.9729 -0.0499
vn -0.2696 0.9629 0.0154
vn -0.3253 0.9428 0.0735
vn -0.3186 0.9401 0.1209
vn -0.2620 0.9516 0.1605
vn -0.1644 0.9676 0.1914
vn 0.0466 0.9760 0.2129
vn -0.0542 0.9761 0.2104
vn 0.1210 0.9729 0.1972
vn 0.1831 0.9692 0.1644
vn 0.2399 0.9636 0.1179
vn 0.2847 0.9566 0.0625
vn 0.2885 0.9573 0.0180
vn 0.3414 0.9399 -0.0103
vn 0.3356 0.9415 -0.0305
vn 0.2960 0.9538 -0.0517
vn 0.2244 0.9722 -0.0673
vn 0.1222 0.9891 -0.0816
vn -0.0976 0.9895 -0.1064
vn 0.0102 0.9952 -0.0972
vn -0.1740 0.9800 -0.0962
vn -0.2296 0.9714 -0.0605
vn -0.2752 0.9613 -0.0147
vn -0.3244 0.9453 0.0345
vn -0.3569 0.9316 0.0687
vn -0.3417 0.9364 0.0796
vn -0.2816 0.9558 0.0845
vn -0.1814 0.9792 0.0912
vn 0.0480 0.9932 0.1058
vn -0.0640 0.9929 0.1001
vn 0.1394 0.9849 0.1025
vn 0.2143 0.9730 0.0861
vn 0.2780 0.9587 0.0609
vn 0.3244 0.9454 0.0324
vn 0.3356 0.9419 0.0108
vn 0.3539 0.9353 0.0024
vn 0.3426 0.9394 0.0074
vn 0.2989 0.9541 0.0177
vn 0.2290 0.9731 0.0269
vn 0.1337 0.9907 0.0262
vn -0.0888 0.9960 0.0059
vn 0.0228 0.9996 0.0183
vn -0.1847 0.9828 -0.0041
vn -0.2611 0.9653 0.0044
vn -0.3117 0.9497 0.0318
vn -0.3516 0.9347 0.0528
vn -0.3579 0.9326 0.0463
vn -0.3283 0.9444 0.0196
vn -0.2746 0.9615 -0.0080
vn -0.1834 0.9828 -0.0197
vn -0.0698 0.9974 -0.0185
vn 0.1425 0.9897 -0.0103
vn 0.0445 0.9989 -0.0143
vn 0.2243 0.9745 -0.0077
vn 0.2907 0.9568 -0.0072
vn 0.3360 0.9418 -0.0056
vn 0.3485 0.9373 -0.0024
vn 0.3219 0.9459 0.0420
vn 0.3298 0.9440 0.0133
vn 0.2773 0.9576 0.0785
vn 0.2134 0.9708 0.1099
vn 0.1313 0.9828 0.1300
vn 0.0304 0.9907 0.1326
vn -0.0743 0.9898 0.1219
vn -0.1755 0.9787 0.1068
vn -0.2612 0.9610 0.0906
vn -0.3172 0.9457 0.0710
vn -0.3391 0.9398 0.0426
vn -0.3249 0.9457 -0.0044
vn -0.2476 0.9648 -0.0892
vn -0.2959 0.9538 -0.0519
vn -0.1699 0.9782 -0.1198
vn -0.0694 0.9886 -0.1334
vn 0.0391 0.9905 -0.1318
vn 0.1322 0.9839 -0.1201
vn 0.2122 0.9720 -0.1009
vn 0.2763 0.9582 -0.0744
vn 0.3186 0.9470 -0.0413
vn 0.2749 0.9588 0.0717
vn 0.2732 0.9617 0.0204
vn 0.2347 0.9630 0.1320
vn 0.1792 0.9671 0.1807
vn 0.1114 0.9703 0.2145
vn 0.0305 0.9728 0.2296
vn -0.0610 0.9725 0.2249
vn -0.1500 0.9680 0.2012
vn -0.2268 0.9609 0.1588
vn -0.2759 0.9558 0.1018
vn -0.2818 0.9591 0.0257
vn -0.2515 0.9621 -0.1054
vn -0.2739 0.9606 -0.0467
vn -0.2054 0.9652 -0.1621
vn -0.1416 0.9686 -0.2044
vn -0.0602 0.9720 -0.2273
vn 0.0314 0.9729 -0.2291
vn 0.1108 0.9710 -0.2119
vn 0.1797 0.9674 -0.1782
vn 0.2354 0.9632 -0.1297
vn 0.3244 0.9458 -0.0130
vn 0.2724 0.9597 -0.0697
vn 0.2022 0.9748 0.0946
vn 0.1895 0.9815 0.0257
vn 0.1723 0.9694 0.1746
vn 0.1305 0.9628 0.2368
vn 0.0807 0.9568 0.2793
vn 0.0228 0.9537 0.2997
vn -0.0453 0.9541 0.2962
vn -0.1100 0.9575 0.2667
vn -0.1669 0.9632 0.2106
vn -0.2038 0.9700 0.1325
vn -0.2056 0.9770 -0.0566
vn -0.1920 0.9806 0.0391
vn -0.1824 0.9729 -0.1423
vn -0.1479 0.9655 -0.2141
vn -0.1023 0.9584 -0.2666
vn -0.0450 0.9542 -0.2956
vn 0.0222 0.9540 -0.2990
vn 0.0800 0.9571 -0.2784
vn 0.1305 0.9630 -0.2357
vn 0.1721 0.9699 -0.1723
vn 0.2692 0.9629 -0.0196
vn 0.2006 0.9753 -0.0923
vn 0.1081 0.9882 0.1085
vn 0.0854 0.9959 0.0285
vn 0.0928 0.9750 0.2019
vn 0.0704 0.9593 0.2736
vn 0.0438 0.9460 0.3211
vn 0.0128 0.9392 0.3433
vn -0.0261 0.9405 0.3388
vn -0.0603 0.9503 0.3055
vn -0.0907 0.9662 0.2415
vn -0.1100 0.9825 0.1502
vn -0.1094 0.9916 -0.0692
vn -0.0872 0.9953 0.0411
vn -0.0963 0.9813 -0.1668
vn -0.0779 0.9660 -0.2467
vn -0.0547 0.9509 -0.3046
vn -0.0257 0.9412 -0.3370
vn 0.0123 0.9398 -0.3416
vn 0.0432 0.9466 -0.3196
vn 0.0699 0.9597 -0.2723
vn 0.0922 0.9753 -0.2006
vn 0.1881 0.9818 -0.0251
vn 0.1077 0.9883 -0.1077
vn 0.0285 0.9959 0.0854
vn 0.0252 0.9818 0.1883
vn 0.0198 0.9627 0.2700
vn 0.0133 0.9452 0.3262
vn 0.0049 0.9350 0.3547
vn -0.0095 0.9374 0.3481
vn -0.0181 0.9522 0.3048
vn -0.0253 0.9731 0.2291
vn -0.0293 0.9916 0.1262
vn -0.0289 0.9984 -0.0478
vn -0.0000 0.9992 0.0388
vn -0.0258 0.9878 -0.1533
vn -0.0212 0.9705 -0.2403
vn -0.0158 0.9521 -0.3054
vn -0.0092 0.9383 -0.3458
vn 0.0047 0.9358 -0.3526
vn 0.0132 0.9457 -0.3247
vn 0.0196 0.9629 -0.2690
vn 0.0251 0.9818 -0.1881
vn 0.0856 0.9959 -0.0286
vn 0.0286 0.9959 -0.0856
vn -0.0000 -0.0000 1.0000
vn 1.0000 -0.0000 -0.0000
vn -0.0000 -0.0000 -1.0000
vn -1.0000 -0.0000 -0.0000
vn -0.0000 -1.0000 -0.0000
vn 0.0334 0.9994 -0.0000
s 1
f 2//1 23//2 1//3
f 3//4 24//5 2//1
f 4//6 25//7 3//4
f 5//8 26//9 4//6
f 6//10 27//11 5//8
f 6//10 29//12 28//13
f 7//14 30//15 29//12
f 8//16 31//17 30//15
f 9//18 32//19 31//17
f 10//20 33//21 32//19
f 11//22 34//23 33//21
f 13//24 34//23 12//25
f 14//26 35//27 13//24
f 15//28 36//29 14//26
f 16//30 37//31 15//28
f 17//32 38//33 16//30
f 17//32 40//34 39//35
f 18//36 41//37 40//34
f 19//38 42//39 41//37
f 20//40 43//41 42//39
f 21//42 44//43 43//41
f 24//5 45//44 23//2
f 25//7 46//45 24//5
f 26//9 47//46 25//7
f 27//11 48//47 26//9
f 28//13 49//48 27//11
f 28//13 51//49 50//50
f 29//12 52//51 51//49
f 30//15 53//52 52//51
f 31//17 54//53 53//52
f 32//19 55//54 54//53
f 34//23 55//54 33//21
f 35//27 56//55 34//23
f 36//29 57//56 35//27
f 37//31 58//57 36//29
f 38//33 59//58 37//31
f 39//35 60//59 38//33
f 39//35 62//60 61//61
f 40//34 63//62 62//60
f 41//37 64//63 63//62
f 42//39 65//64 64//63
f 43//41 66//65 65//64
f 46//45 67//66 45//44
f 47//46 68//67 46//45
f 48//47 69//68 47//46
f 49//48 70//69 48//47
f 50//50 71//70 49//48
f 50//50 73//71 72//72
f 51//49 74//73 73//71
f 52//51 75//74 74//73
f 53//52 76//75 75//74
f 54//53 77//76 76//75
f 56//55 77//76 55//54
f 57//56 78//77 56//55
f 58//57 79//78 57//56
f 59//58 80//79 58//57
f 60//59 81//80 59//58
f 61//61 82//81 60//59
f 61//61 84//82 83//83
f 62//60 85//84 84//82
f 63//62 86//85 85//84
f 64//63 87//86 86//85
f 65//64 88//87 87//86
f 68//67 89//88 67//66
f 69//68 90//89 68//67
f 70//69 91//90 69//68
f 71//70 92//91 70//69
f 72//72 93//92 71//70
f 72//72 95//93 94//94
f 73//71 96//95 95//93
f 74//73 97//96 96//95
f 75//74 98//97 97//96
f 76//75 99//98 98//97
f 78//77 99//98 77//76
f 79//78 100//99 78//77
f 80//79 101//100 79//78
f 81//80 102//101 80//79
f 82//81 103//102 81//80
f 83//83 104//103 82//81
f 83//83 106//104 105//105
f 84//82 107//106 106//104
f 85//84 108//107 107//106
f 86//85 109//108 108//107
f 87//86 110//109 109//108
f 90//89 111//110 89//88
f 91//90 112//111 90//89
f 92//91 113//112 91//90
f 93//92 114//113 92//91
f 94//94 115//114 93//92
f 94//94 117//115 116//116
f 95//93 118//117 117//115
f 96//95 119//118 118//117
f 97//96 120//119 119//118
f 98//97 121//120 120//119
f 100//99 121//120 99//98
f 101//100 122//121 100//99
f 102//101 123//122 101//100
f 103//102 124//123 102//101
f 104//103 125//124 103//102
f 105//105 126//125 104//103
f 105//105 128//126 127//127
f 106//104 129//128 128//126
f 107//106 130//129 129//128
f 108//107 131//130 130//129
f 109//108 132//131 131//130
f 111//110 134//132 133//133
f 112//111 135//134 134//132
f 114//113 135//134 113//112
f 115//114 136//135 114//113
f 115//114 138//136 137//137
f 117//115 138//136 116//116
f 118//117 139//138 117//115
f 119//118 140//139 118//117
f 120//119 141//140 119//118
f 121//120 142//141 120//119
f 122//121 143//142 121//120
f 123//122 144//143 122//121
f 124//123 145//144 123//122
f 125//124 146//145 124//123
f 126//125 147//146 125//124
f 126//125 149//147 148//148
f 128//126 149//147 127//127
f 129//128 150//149 128//126
f 130//129 151//150 129//128
f 131//130 152//151 130//129
f 132//131 153//152 131//130
f 133//133 156//153 155//154
f 134//132 157//155 156//153
f 135//134 158//156 157//155
f 136//135 159//157 158//156
f 137//137 160//158 159//157
f 139//138 160//158 138//136
f 140//139 161//159 139//138
f 141//140 162//160 140//139
f 142//141 163//161 141//140
f 143//142 164//162 142//141
f 144//143 165//163 143//142
f 144//143 167//164 166//165
f 145//144 168//166 167//164
f 146//145 169//167 168//166
f 147//146 170//168 169//167
f 149//147 170//168 148//148
f 150//149 171//169 149//147
f 151//150 172//170 150//149
f 152//151 173//171 151//150
f 153//152 174//172 152//151
f 154//173 175//174 153//152
f 155//154 178//175 177//176
f 156//153 179//177 178//175
f 157//155 180//178 179//177
f 158//156 181//179 180//178
f 159//157 182//180 181//179
f 161//159 182//180 160//158
f 162//160 183//181 161//159
f 163//161 184//182 162//160
f 164//162 185//183 163//161
f 165//163 186//184 164//162
f 166//165 187//185 165//163
f 166//165 189//186 188//187
f 167//164 190//188 189//186
f 168//166 191//189 190//188
f 169//167 192//190 191//189
f 171//169 192//190 170//168
f 172//170 193//191 171//169
f 173//171 194//192 172//170
f 174//172 195//193 173//171
f 175//174 196//194 174//172
f 176//195 197//196 175//174
f 177//176 200//197 199//198
f 178//175 201//199 200//197
f 179//177 202//200 201//199
f 180//178 203//201 202//200
f 181//179 204//202 203//201
f 183//181 204//202 182//180
f 184//182 205//203 183//181
f 185//183 206//204 184//182
f 186//184 207//205 185//183
f 187//185 208//206 186//184
f 188//187 209//207 187//185
f 188//187 211//208 210//209
f 189//186 212//210 211//208
f 190//188 213//211 212//210
f 191//189 214//212 213//211
f 193//191 214//212 192//190
f 194//192 215//213 193//191
f 195//193 216//214 194//192
f 196//194 217//215 195//193
f 197//196 218//216 196//194
f 198//217 219//218 197//196
f 199//198 222//219 221//220
f 200//197 223//221 222//219
f 201//199 224//222 223//221
f 202//200 225//223 224//222
f 203//201 226//224 225//223
f 205//203 226//224 204//202
f 206//204 227//225 205//203
f 207//205 228//226 206//204
f 208//206 229//227 207//205
f 209//207 230//228 208//206
f 210//209 231//229 209//207
f 210//209 233//230 232//231
f 211//208 234//232 233//230
f 212//210 235//233 234//232
f 213//211 236//234 235//233
f 215//213 236//234 214//212
f 216//214 237//235 215//213
f 217//215 238//236 216//214
f 218//216 239//237 217//215
f 219//218 240//238 218//216
f 220//239 241//240 219//218
f 221//220 244//241 243//242
f 222//219 245//243 244//241
f 223//221 246//244 245//243
f 224//222 247//245 246//244
f 226//224 247//245 225//223
f 227//225 248//246 226//224
f 228//226 249//247 227//225
f 229//227 250//248 228//226
f 230//228 251//249 229//227
f 231//229 252//250 230//228
f 232//231 253//251 231//229
f 233//230 254//252 232//231
f 234//232 255//253 233//230
f 235//233 256//254 234//232
f 236//234 257//255 235//233
f 237//235 258//256 236//234
f 238//236 259//257 237//235
f 239//237 260//258 238//236
f 240//238 261//259 239//237
f 241//240 262//260 240//238
f 242//261 263//262 241//240
f 244//241 265//263 243//242
f 245//243 266//264 244//241
f 246//244 267//265 245//243
f 247//245 268//266 246//244
f 248//246 269//267 247//245
f 249//247 270//268 248//246
f 249//247 272//269 271//270
f 250//248 273//271 272//269
f 251//249 274//272 273//271
f 252//250 275//273 274//272
f 254//252 275//273 253//251
f 255//253 276//274 254//252
f 256//254 277//275 255//253
f 257//255 278//276 256//254
f 258//256 279//277 257//255
f 259//257 280//278 258//256
f 259//257 282//279 281//280
f 260//258 283//281 282//279
f 261//259 284//282 283//281
f 262//260 285//283 284//282
f 263//262 286//284 285//283
f 266//264 287//285 265//263
f 267//265 288//286 266//264
f 268//266 289//287 267//265
f 269//267 290//288 268//266
f 270//268 291//289 269//267
f 270//268 293//290 292//291
f 271//270 294//292 293//290
f 272//269 295//293 294//292
f 273//271 296//294 295//293
f 274//272 297//295 296//294
f 276//274 297//295 275//273
f 277//275 298//296 276//274
f 278//276 299//297 277//275
f 279//277 300//298 278//276
f 280//278 301//299 279//277
f 281//280 302//300 280//278
f 281//280 304//301 303//302
f 282//279 305//303 304//301
f 283//281 306//304 305//303
f 284//282 307//305 306//304
f 285//283 308//306 307//305
f 288//286 309//307 287//285
f 289//287 310//308 288//286
f 290//288 311//309 289//287
f 291//289 312//310 290//288
f 292//291 313//311 291//289
f 292//291 315//312 314//313
f 293//290 316//314 315//312
f 294//292 317//315 316//314
f 295//293 318//316 317//315
f 296//294 319//317 318//316
f 298//296 319//317 297//295
f 299//297 320//318 298//296
f 300//298 321//319 299//297
f 301//299 322//320 300//298
f 302//300 323//321 301//299
f 302//300 325//322 324//323
f 303//302 326//324 325//322
f 304//301 327//325 326//324
f 305//303 328//326 327//325
f 306//304 329//327 328//326
f 307//305 330//328 329//327
f 310//308 331//329 309//307
f 311//309 332//330 310//308
f 312//310 333//331 311//309
f 313//311 334//332 312//310
f 314//313 335//333 313//311
f 314//313 337//334 336//335
f 315//312 338//336 337//334
f 316//314 339//337 338//336
f 317//315 340//338 339//337
f 318//316 341//339 340//338
f 320//318 341//339 319//317
f 321//319 342//340 320//318
f 322//320 343//341 321//319
f 323//321 344//342 322//320
f 324//323 345//343 323//321
f 324//323 347//344 346//345
f 325//322 348//346 347//344
f 326//324 349//347 348//346
f 327//325 350//348 349//347
f 328//326 351//349 350//348
f 329//327 352//350 351//349
f 332//330 353//351 331//329
f 333//331 354//352 332//330
f 334//332 355//353 333//331
f 335//333 356//354 334//332
f 336//335 357//355 335//333
f 336//335 359//356 358//357
f 337//334 360//358 359//356
f 338//336 361//359 360//358
f 339//337 362//360 361//359
f 341//339 362//360 340//338
f 342//340 363//361 341//339
f 343//341 364//362 342//340
f 344//342 365//363 343//341
f 345//343 366//364 344//342
f 346//345 367//365 345//343
f 347//344 368//366 346//345
f 347//344 370//367 369//368
f 348//346 371//369 370//367
f 349//347 372//370 371//369
f 350//348 373//371 372//370
f 351//349 374//372 373//371
f 353//351 376//373 375//374
f 354//352 377//375 376//373
f 355//353 378//376 377//375
f 356//354 379//377 378//376
f 357//355 380//378 379//377
f 359//356 380//378 358//357
f 360//358 381//379 359//356
f 361//359 382//380 360//358
f 362//360 383//381 361//359
f 363//361 384//382 362//360
f 364//362 385//383 363//361
f 365//363 386//384 364//362
f 365//363 388//385 387//386
f 366//364 389//387 388//385
f 367//365 390//388 389//387
f 368//366 391//389 390//388
f 370//367 391//389 369//368
f 371//369 392//390 370//367
f 372//370 393//391 371//369
f 373//371 394//392 372//370
f 374//372 395//393 373//371
f 375//374 398//394 397//395
f 376//373 399//396 398//394
f 377//375 400//397 399//396
f 378//376 401//398 400//397
f 379//377 402//399 401//398
f 381//379 402//399 380//378
f 382//380 403//400 381//379
f 383//381 404//401 382//380
f 384//382 405//402 383//381
f 385//383 406//403 384//382
f 386//384 407//404 385//383
f 386//384 409//405 408//406
f 387//386 410//407 409//405
f 388//385 411//408 410//407
f 389//387 412//409 411//408
f 390//388 413//410 412//409
f 392//390 413//410 391//389
f 393//391 414//411 392//390
f 394//392 415//412 393//391
f 395//393 416//413 394//392
f 396//414 417//415 395//393
f 397//395 420//416 419//417
f 398//394 421//418 420//416
f 399//396 422//419 421//418
f 400//397 423//420 422//419
f 401//398 424//421 423//420
f 403//400 424//421 402//399
f 404//401 425//422 403//400
f 405//402 426//423 404//401
f 406//403 427//424 405//402
f 407//404 428//425 406//403
f 407//404 430//426 429//427
f 408//406 431//428 430//426
f 409//405 432//429 431//428
f 410//407 433//430 432//429
f 411//408 434//431 433//430
f 412//409 435//432 434//431
f 414//411 435//432 413//410
f 415//412 436//433 414//411
f 416//413 437//434 415//412
f 417//415 438//435 416//413
f 418//436 439//437 417//415
f 419//417 442//438 441//439
f 420//416 443//440 442//438
f 421//418 444//441 443//440
f 422//419 445//442 444//441
f 423//420 446//443 445//442
f 425//422 446//443 424//421
f 426//423 447//444 425//422
f 427//424 448//445 426//423
f 428//425 449//446 427//424
f 429//427 450//447 428//425
f 429//427 452//448 451//449
f 430//426 453//450 452//448
f 431//428 454//451 453//450
f 432//429 455//452 454//451
f 433//430 456//453 455//452
f 434//431 457//454 456//453
f 436//433 457//454 435//432
f 437//434 458//455 436//433
f 438//435 459//456 437//434
f 439//437 460//457 438//435
f 440//458 461//459 439//437
f 441//439 464//460 463//3
f 442//438 465//461 464//460
f 443//440 466//462 465//461
f 444//441 467//463 466//462
f 445//442 468//464 467//463
f 447//444 468//464 446//443
f 448//445 469//465 447//444
f 449//446 470//466 448//445
f 450//447 471//467 449//446
f 451//449 472//468 450//447
f 451//449 474//469 473//470
f 452//448 475//471 474//469
f 453//450 476//472 475//471
f 454//451 477//473 476//472
f 455//452 478//474 477//473
f 456//453 479//475 478//474
f 458//455 479//475 457//454
f 459//456 480//476 458//455
f 460//457 481//477 459//456
f 461//459 482//478 460//457
f 462//479 483//480 461//459
s 0
f 485//481 2//481 1//481
f 486//481 3//481 2//481
f 487//481 4//481 3//481
f 488//481 5//481 4//481
f 489//481 6//481 5//481
f 490//481 7//481 6//481
f 491//481 8//481 7//481
f 492//481 9//481 8//481
f 493//481 10//481 9//481
f 494//481 11//481 10//481
f 495//481 12//481 11//481
f 496//481 13//481 12//481
f 497//481 14//481 13//481
f 498//481 15//481 14//481
f 499//481 16//481 15//481
f 500//481 17//481 16//481
f 501//481 18//481 17//481
f 502//481 19//481 18//481
f 503//481 20//481 19//481
f 504//481 21//481 20//481
f 505//481 22//481 21//481
f 506//482 44//482 22//482
f 507//482 66//482 44//482
f 508//482 88//482 66//482
f 509//482 110//482 88//482
f 510//482 132//482 110//482
f 511//482 154//482 132//482
f 512//482 176//482 154//482
f 513//482 198//482 176//482
f 514//482 220//482 198//482
f 515//482 242//482 220//482
f 516//482 264//482 242//482
f 517//482 286//482 264//482
f 518//482 308//482 286//482
f 519//482 330//482 308//482
f 520//482 352//482 330//482
f 521//482 374//482 352//482
f 522//482 396//482 374//482
f 523//482 418//482 396//482
f 524//482 440//482 418//482
f 525//482 462//482 440//482
f 526//482 484//482 462//482
f 527//483 483//483 484//483
f 528//483 482//483 483//483
f 529//483 481//483 482//483
f 530//483 480//483 481//483
f 531//483 479//483 480//483
f 532//483 478//483 479//483
f 533//483 477//483 478//483
f 534//483 476//483 477//483
f 535//483 475//483 476//483
f 536//483 474//483 475//483
f 537//483 473//483 474//483
f 538//483 472//483 473//483
f 539//483 471//483 472//483
f 540//483 470//483 471//483
f 541//483 469//483 470//483
f 542//483 468//483 469//483
f 543//483 467//483 468//483
f 544//483 466//483 467//483
f 545//483 465//483 466//483
f 546//483 464//483 465//483
f 547//483 463//483 464//483
f 548//484 441//484 463//484
f 549//484 419//484 441//484
f 550//484 397//484 419//484
f 551//484 375//484 397//484
f 552//484 353//484 375//484
f 553//484 331//484 353//484
f 554//484 309//484 331//484
f 555//484 287//484 309//484
f 556//484 265//484 287//484
f 557//484 243//484 265//484
f 558//484 221//484 243//484
f 559//484 199//484 221//484
f 560//484 177//484 199//484
f 561//484 155//484 177//484
f 562//484 133//484 155//484
f 563//484 111//484 133//484
f 564//484 89//484 111//484
f 565//484 67//484 89//484
f 566//484 45//484 67//484
f 567//484 23//484 45//484
f 568//484 1//484 23//484
f 569//485 486//485 485//485
f 569//485 487//485 486//485
f 569//485 488//485 487//485
f 569//485 489//485 488//485
f 569//485 490//485 489//485
f 569//485 491//485 490//485
f 569//485 492//485 491//485
f 569//485 493//485 492//485
f 569//485 494//485 493//485
f 569//485 495//485 494//485
f 569//485 496//485 495//485
f 569//485 497//485 496//485
f 569//485 498//485 497//485
f 569//485 499//485 498//485
f 569//485 500//485 499//485
f 569//485 501//485 500//485
f 569//485 502//485 501//485
f 569//485 503//485 502//485
f 569//485 504//485 503//485
f 569//485 505//485 504//485
f 569//485 506//485 505//485
f 569//485 507//485 506//485
f 569//485 508//485 507//485
f 569//485 509//485 508//485
f 569//485 510//485 509//485
f 569//485 511//485 510//485
f 569//485 512//485 511//485
f 569//485 513//485 512//485
f 569//485 514//485 513//485
f 569//485 515//485 514//485
f 569//485 516//485 515//485
f 569//485 517//485 516//485
f 569//485 518//485 517//485
f 569//485 519//485 518//485
f 569//485 520//485 519//485
f 569//485 521//485 520//485
f 569//485 522//485 521//485
f 569//485 523//485 522//485
f 569//485 524//485 523//485
f 569//485 525//485 524//485
f 569//485 526//485 525//485
f 569//485 527//485 526//485
f 569//485 528//485 527//485
f 569//485 529//485 528//485
f 569//485 530//485 529//485
f 569//485 531//485 530//485
f 569//485 532//485 531//485
f 569//485 533//485 532//485
f 569//485 534//485 533//485
f 569//485 535//485 534//485
f 569//485 536//485 535//485
f 569//485 537//485 536//485
f 569//485 538//485 537//485
f 569//485 539//485 538//485
f 569//485 540//485 539//485
f 569//485 541//485 540//485
f 569//485 542//485 541//485
f 569//485 543//485 542//485
f 569//485 544//485 543//485
f 569//485 545//485 544//485
f 569//485 546//485 545//485
f 569//485 547//485 546//485
f 569//485 548//485 547//485
f 569//485 549//485 548//485
f 569//485 550//485 549//485
f 569//485 551//485 550//485
f 569//485 552//485 551//485
f 569//485 553//485 552//485
f 569//485 554//485 553//485
f 569//485 555//485 554//485
f 569//485 556//485 555//485
f 569//485 557//485 556//485
f 569//485 558//485 557//485
f 569//485 559//485 558//485
f 569//485 560//485 559//485
f 569//485 561//485 560//485
f 569//485 562//485 561//485
f 569//485 563//485 562//485
f 569//485 564//485 563//485
f 569//485 565//485 564//485
f 569//485 566//485 565//485
f 569//485 567//485 566//485
f 569//485 568//485 567//485
f 569//485 485//485 568//485
s 1
f 2//1 24//5 23//2
f 3//4 25//7 24//5
f 4//6 26//9 25//7
f 5//8 27//11 26//9
f 6//10 28//13 27//11
f 6//10 7//14 29//12
f 7//14 8//16 30//15
f 8//16 9//18 31//17
f 9//18 10//20 32//19
f 10//20 11//22 33//21
f 11//22 12//25 34//23
f 13//24 35//27 34//23
f 14//26 36//29 35//27
f 15//28 37//31 36//29
f 16//30 38//33 37//31
f 17//32 39//35 38//33
f 17//32 18//36 40//34
f 18//36 19//38 41//37
f 19//38 20//40 42//39
f 20//40 21//42 43//41
f 21//42 22//3 44//43
f 24//5 46//45 45//44
f 25//7 47//46 46//45
f 26//9 48//47 47//46
f 27//11 49//48 48//47
f 28//13 50//50 49//48
f 28//13 29//12 51//49
f 29//12 30//15 52//51
f 30//15 31//17 53//52
f 31//17 32//19 54//53
f 32//19 33//21 55//54
f 34//23 56//55 55//54
f 35//27 57//56 56//55
f 36//29 58//57 57//56
f 37//31 59//58 58//57
f 38//33 60//59 59//58
f 39//35 61//61 60//59
f 39//35 40//34 62//60
f 40//34 41//37 63//62
f 41//37 42//39 64//63
f 42//39 43//41 65//64
f 43//41 44//43 66//65
f 46//45 68//67 67//66
f 47//46 69//68 68//67
f 48//47 70//69 69//68
f 49//48 71//70 70//69
f 50//50 72//72 71//70
f 50//50 51//49 73//71
f 51//49 52//51 74//73
f 52//51 53//52 75//74
f 53//52 54//53 76//75
f 54//53 55//54 77//76
f 56//55 78//77 77//76
f 57//56 79//78 78//77
f 58//57 80//79 79//78
f 59//58 81//80 80//79
f 60//59 82//81 81//80
f 61//61 83//83 82//81
f 61//61 62//60 84//82
f 62//60 63//62 85//84
f 63//62 64//63 86//85
f 64//63 65//64 87//86
f 65//64 66//65 88//87
f 68//67 90//89 89//88
f 69//68 91//90 90//89
f 70//69 92//91 91//90
f 71//70 93//92 92//91
f 72//72 94//94 93//92
f 72//72 73//71 95//93
f 73//71 74//73 96//95
f 74//73 75//74 97//96
f 75//74 76//75 98//97
f 76//75 77//76 99//98
f 78//77 100//99 99//98
f 79//78 101//100 100//99
f 80//79 102//101 101//100
f 81//80 103//102 102//101
f 82//81 104//103 103//102
f 83//83 105//105 104//103
f 83//83 84//82 106//104
f 84//82 85//84 107//106
f 85//84 86//85 108//107
f 86//85 87//86 109//108
f 87//86 88//87 110//109
f 90//89 112//111 111//110
f 91//90 113//112 112//111
f 92//91 114//113 113//112
f 93//92 115//114 114//113
f 94//94 116//116 115//114
f 94//94 95//93 117//115
f 95//93 96//95 118//117
f 96//95 97//96 119//118
f 97//96 98//97 120//119
f 98//97 99//98 121//120
f 100//99 122//121 121//120
f 101//100 123//122 122//121
f 102//101 124//123 123//122
f 103//102 125//124 124//123
f 104//103 126//125 125//124
f 105//105 127//127 126//125
f 105//105 106//104 128//126
f 106//104 107//106 129//128
f 107//106 108//107 130//129
f 108//107 109//108 131//130
f 109//108 110//109 132//131
f 111//110 112//111 134//132
f 112//111 113//112 135//134
f 114//113 136//135 135//134
f 115//114 137//137 136//135
f 115//114 116//116 138//136
f 117//115 139//138 138//136
f 118//117 140//139 139//138
f 119//118 141//140 140//139
f 120//119 142//141 141//140
f 121//120 143//142 142//141
f 122//121 144//143 143//142
f 123//122 145//144 144//143
f 124//123 146//145 145//144
f 125//124 147//146 146//145
f 126//125 148//148 147//146
f 126//125 127//127 149//147
f 128//126 150//149 149//147
f 129//128 151//150 150//149
f 130//129 152//151 151//150
f 131//130 153//152 152//151
f 132//131 154//173 153//152
f 133//133 134//132 156//153
f 134//132 135//134 157//155
f 135//134 136//135 158//156
f 136//135 137//137 159//157
f 137//137 138//136 160//158
f 139//138 161//159 160//158
f 140//139 162//160 161//159
f 141//140 163//161 162//160
f 142//141 164//162 163//161
f 143//142 165//163 164//162
f 144//143 166//165 165//163
f 144//143 145//144 167//164
f 145//144 146//145 168//166
f 146//145 147//146 169//167
f 147//146 148//148 170//168
f 149//147 171//169 170//168
f 150//149 172//170 171//169
f 151//150 173//171 172//170
f 152//151 174//172 173//171
f 153//152 175//174 174//172
f 154//173 176//195 175//174
f 155//154 156//153 178//175
f 156//153 157//155 179//177
f 157//155 158//156 180//178
f 158//156 159//157 181//179
f 159//157 160//158 182//180
f 161//159 183//181 182//180
f 162//160 184//182 183//181
f 163//161 185//183 184//182
f 164//162 186//184 185//183
f 165//163 187//185 186//184
f 166//165 188//187 187//185
f 166//165 167//164 189//186
f 167//164 168//166 190//188
f 168//166 169//167 191//189
f 169//167 170//168 192//190
f 171//169 193//191 192//190
f 172//170 194//192 193//191
f 173//171 195//193 194//192
f 174//172 196//194 195//193
f 175//174 197//196 196//194
f 176//195 198//217 197//196
f 177//176 178//175 200//197
f 178//175 179//177 201//199
f 179//177 180//178 202//200
f 180//178 181//179 203//201
f 181//179 182//180 204//202
f 183//181 205//203 204//202
f 184//182 206//204 205//203
f 185//183 207//205 206//204
f 186//184 208//206 207//205
f 187//185 209//207 208//206
f 188//187 210//209 209//207
f 188//187 189//186 211//208
f 189//186 190//188 212//210
f 190//188 191//189 213//211
f 191//189 192//190 214//212
f 193//191 215//213 214//212
f 194//192 216//214 215//213
f 195//193 217//215 216//214
f 196//194 218//216 217//215
f 197//196 219//218 218//216
f 198//217 220//239 219//218
f 199//198 200//197 222//219
f 200//197 201//199 223//221
f 201//199 202//200 224//222
f 202//200 203//201 225//223
f 203//201 204//202 226//224
f 205//203 227//225 226//224
f 206//204 228//226 227//225
f 207//205 229//227 228//226
f 208//206 230//228 229//227
f 209//207 231//229 230//228
f 210//209 232//231 231//229
f 210//209 211//208 233//230
f 211//208 212//210 234//232
f 212//210 213//211 235//233
f 213//211 214//212 236//234
f 215//213 237//235 236//234
f 216//214 238//236 237//235
f 217//215 239//237 238//236
f 218//216 240//238 239//237
f 219//218 241//240 240//238
f 220//239 242//261 241//240
f 221//220 222//219 244//241
f 222//219 223//221 245//243
f 223//221 224//222 246//244
f 224//222 225//223 247//245
f 226//224 248//246 247//245
f 227//225 249//247 248//246
f 228//226 250//248 249//247
f 229//227 251//249 250//248
f 230//228 252//250 251//249
f 231//229 253//251 252//250
f 232//231 254//252 253//251
f 233//230 255//253 254//252
f 234//232 256//254 255//253
f 235//233 257//255 256//254
f 236//234 258//256 257//255
f 237//235 259//257 258//256
f 238//236 260//258 259//257
f 239//237 261//259 260//258
f 240//238 262//260 261//259
f 241//240 263//262 262//260
f 242//261 264//486 263//262
f 244//241 266//264 265//263
f 245//243 267//265 266//264
f 246//244 268//266 267//265
f 247//245 269//267 268//266
f 248//246 270//268 269//267
f 249//247 271//270 270//268
f 249//247 250//248 272//269
f 250//248 251//249 273//271
f 251//249 252//250 274//272
f 252//250 253//251 275//273
f 254//252 276//274 275//273
f 255//253 277//275 276//274
f 256//254 278//276 277//275
f 257//255 279//277 278//276
f 258//256 280//278 279//277
f 259//257 281//280 280//278
f 259//257 260//258 282//279
f 260//258 261//259 283//281
f 261//259 262//260 284//282
f 262//260 263//262 285//283
f 263//262 264//486 286//284
f 266//264 288//286 287//285
f 267//265 289//287 288//286
f 268//266 290//288 289//287
f 269//267 291//289 290//288
f 270//268 292//291 291//289
f 270//268 271//270 293//290
f 271//270 272//269 294//292
f 272//269 273//271 295//293
f 273//271 274//272 296//294
f 274//272 275//273 297//295
f 276//274 298//296 297//295
f 277//275 299//297 298//296
f 278//276 300//298 299//297
f 279//277 301//299 300//298
f 280//278 302//300 301//299
f 281//280 303//302 302//300
f 281//280 282//279 304//301
f 282//279 283//281 305//303
f 283//281 284//282 306//304
f 284//282 285//283 307//305
f 285//283 286//284 308//306
f 288//286 310//308 309//307
f 289//287 311//309 310//308
f 290//288 312//310 311//309
f 291//289 313//311 312//310
f 292//291 314//313 313//311
f 292//291 293//290 315//312
f 293//290 294//292 316//314
f 294//292 295//293 317//315
f 295//293 296//294 318//316
f 296//294 297//295 319//317
f 298//296 320//318 319//317
f 299//297 321//319 320//318
f 300//298 322//320 321//319
f 301//299 323//321 322//320
f 302//300 324//323 323//321
f 302//300 303//302 325//322
f 303//302 304//301 326//324
f 304//301 305//303 327//325
f 305//303 306//304 328//326
f 306//304 307//305 329//327
f 307//305 308//306 330//328
f 310//308 332//330 331//329
f 311//309 333//331 332//330
f 312//310 334//332 333//331
f 313//311 335//333 334//332
f 314//313 336//335 335//333
f 314//313 315//312 337//334
f 315//312 316//314 338//336
f 316//314 317//315 339//337
f 317//315 318//316 340//338
f 318//316 319//317 341//339
f 320//318 342//340 341//339
f 321//319 343//341 342//340
f 322//320 344//342 343//341
f 323//321 345//343 344//342
f 324//323 346//345 345//343
f 324//323 325//322 347//344
f 325//322 326//324 348//346
f 326//324 327//325 349//347
f 327//325 328//326 350//348
f 328//326 329//327 351//349
f 329//327 330//328 352//350
f 332//330 354//352 353//351
f 333//331 355//353 354//352
f 334//332 356//354 355//353
f 335//333 357//355 356//354
f 336//335 358//357 357//355
f 336//335 337//334 359//356
f 337//334 338//336 360//358
f 338//336 339//337 361//359
f 339//337 340//338 362//360
f 341//339 363//361 362//360
f 342//340 364//362 363//361
f 343//341 365//363 364//362
f 344//342 366//364 365//363
f 345//343 367//365 366//364
f 346//345 368//366 367//365
f 347//344 369//368 368//366
f 347//344 348//346 370//367
f 348//346 349//347 371//369
f 349//347 350//348 372//370
f 350//348 351//349 373//371
f 351//349 352//350 374//372
f 353//351 354//352 376//373
f 354//352 355//353 377//375
f 355//353 356//354 378//376
f 356//354 357//355 379//377
f 357//355 358//357 380//378
f 359//356 381//379 380//378
f 360//358 382//380 381//379
f 361//359 383//381 382//380
f 362//360 384//382 383//381
f 363//361 385//383 384//382
f 364//362 386//384 385//383
f 365//363 387//386 386//384
f 365//363 366//364 388//385
f 366//364 367//365 389//387
f 367//365 368//366 390//388
f 368//366 369//368 391//389
f 370//367 392//390 391//389
f 371//369 393//391 392//390
f 372//370 394//392 393//391
f 373//371 395//393 394//392
f 374//372 396//414 395//393
f 375//374 376//373 398//394
f 376//373 377//375 399//396
f 377//375 378//376 400//397
f 378//376 379//377 401//398
f 379//377 380//378 402//399
f 381//379 403//400 402//399
f 382//380 404//401 403//400
f 383//381 405//402 404//401
f 384//382 406//403 405//402
f 385//383 407//404 406//403
f 386//384 408//406 407//404
f 386//384 387//386 409//405
f 387//386 388//385 410//407
f 388//385 389//387 411//408
f 389//387 390//388 412//409
f 390//388 391//389 413//410
f 392//390 414//411 413//410
f 393//391 415//412 414//411
f 394//392 416//413 415//412
f 395//393 417//415 416//413
f 396//414 418//436 417//415
f 397//395 398//394 420//416
f 398//394 399//396 421//418
f 399//396 400//397 422//419
f 400//397 401//398 423//420
f 401//398 402//399 424//421
f 403//400 425//422 424//421
f 404//401 426//423 425//422
f 405//402 427//424 426//423
f 406//403 428//425 427//424
f 407//404 429//427 428//425
f 407//404 408//406 430//426
f 408//406 409//405 431//428
f 409//405 410//407 432//429
f 410//407 411//408 433//430
f 411//408 412//409 434//431
f 412//409 413//410 435//432
f 414//411 436//433 435//432
f 415//412 437//434 436//433
f 416//413 438//435 437//434
f 417//415 439//437 438//435
f 418//436 440//458 439//437
f 419//417 420//416 442//438
f 420//416 421//418 443//440
f 421//418 422//419 444//441
f 422//419 423//420 445//442
f 423//420 424//421 446//443
f 425//422 447//444 446//443
f 426//423 448//445 447//444
f 427//424 449//446 448//445
f 428//425 450//447 449//446
f 429//427 451//449 450//447
f 429//427 430//426 452//448
f 430//426 431//428 453//450
f 431//428 432//429 454//451
f 432//429 433//430 455//452
f 433//430 434//431 456//453
f 434//431 435//432 457//454
f 436//433 458//455 457//454
f 437//434 459//456 458//455
f 438//435 460//457 459//456
f 439//437 461//459 460//457
f 440//458 462//479 461//459
f 441//439 442//438 464//460
f 442//438 443//440 465//461
f 443//440 444//441 466//462
f 444//441 445//442 467//463
f 445//442 446//443 468//464
f 447//444 469//465 468//464
f 448//445 470//466 469//465
f 449//446 471//467 470//466
f 450//447 472//468 471//467
f 451//449 473//470 472//468
f 451//449 452//448 474//469
f 452//448 453//450 475//471
f 453//450 454//451 476//472
f 454//451 455//452 477//473
f 455//452 456//453 478//474
f 456//453 457//454 479//475
f 458//455 480//476 479//475
f 459//456 481//477 480//476
f 460//457 482//478 481//477
f 461//459 483//480 482//478
f 462//479 484//3 483//480
s 0
f 485//481 486//481 2//481
f 486//481 487//481 3//481
f 487//481 488//481 4//481
f 488//481 489//481 5//481
f 489//481 490//481 6//481
f 490//481 491//481 7//481
f 491//481 492//481 8//481
f 492//481 493//481 9//481
f 493//481 494//481 10//481
f 494//481 495//481 11//481
f 495//481 496//481 12//481
f 496//481 497//481 13//481
f 497//481 498//481 14//481
f 498//481 499//481 15//481
f 499//481 500//481 16//481
f 500//481 501//481 17//481
f 501//481 502//481 18//481
f 502//481 503//481 19//481
f 503//481 504//481 20//481
f 504//481 505//481 21//481
f 505//481 506//481 22//481
f 506//482 507//482 44//482
f 507//482 508//482 66//482
f 508//482 509//482 88//482
f 509//482 510//482 110//482
f 510//482 511//482 132//482
f 511//482 512//482 154//482
f 512//482 513//482 176//482
f 513//482 514//482 198//482
f 514//482 515//482 220//482
f 515//482 516//482 242//482
f 516//482 517//482 264//482
f 517//482 518//482 286//482
f 518//482 519//482 308//482
f 519//482 520//482 330//482
f 520//482 521//482 352//482
f 521//482 522//482 374//482
f 522//482 523//482 396//482
f 523//482 524//482 418//482
f 524//482 525//482 440//482
f 525//482 526//482 462//482
f 526//482 527//482 484//482
f 527//483 528//483 483//483
f 528//483 529//483 482//483
f 529//483 530//483 481//483
f 530//483 531//483 480//483
f 531//483 532//483 479//483
f 532//483 533//483 478//483
f 533//483 534//483 477//483
f 534//483 535//483 476//483
f 535//483 536//483 475//483
f 536//483 537//483 474//483
f 537//483 538//483 473//483
f 538//483 539//483 472//483
f 539//483 540//483 471//483
f 540//483 541//483 470//483
f 541//483 542//483 469//483
f 542//483 543//483 468//483
f 543//483 544//483 467//483
f 544//483 545//483 466//483
f 545//483 546//483 465//483
f 546//483 547//483 464//483
f 547//483 548//483 463//483
f 548//484 549//484 441//484
f 549//484 550//484 419//484
f 550//484 551//484 397//484
f 551//484 552//484 375//484
f 552//484 553//484 353//484
f 553//484 554//484 331//484
f 554//484 555//484 309//484
f 555//484 556//484 287//484
f 556//484 557//484 265//484
f 557//484 558//484 243//484
f 558//484 559//484 221//484
f 559//484 560//484 199//484
f 560//484 561//484 177//484
f 561//484 562//484 155//484
f 562//484 563//484 133//484
f 563//484 564//484 111//484
f 564//484 565//484 89//484
f 565//484 566//484 67//484
f 566//484 567//484 45//484
f 567//484 568//484 23//484
f 568//484 485//484 1//484
