# Blender 5.2.0 LTS
# www.blender.org
o Slime_Tile_Corner
v -1.600000 0.000000 1.600000
v -1.447619 0.000000 1.600000
v -1.295238 0.000000 1.600000
v -1.142857 0.000000 1.600000
v -0.990476 0.000000 1.600000
v -0.838095 0.000000 1.600000
v -0.685714 0.000000 1.600000
v -0.533333 0.000000 1.600000
v -0.380952 0.000000 1.600000
v -0.228571 0.000000 1.600000
v -0.076190 0.000000 1.600000
v 0.076190 0.000000 1.600000
v 0.228571 0.000000 1.600000
v 0.380952 0.000000 1.600000
v 0.533333 0.000000 1.600000
v 0.685714 0.000000 1.600000
v 0.838095 0.000000 1.600000
v 0.990476 0.000000 1.600000
v 1.142857 0.000000 1.600000
v 1.295238 0.000000 1.600000
v 1.447619 0.000000 1.600000
v 1.600000 0.000000 1.600000
v -1.600000 0.000000 1.447619
v -1.447619 0.816362 1.447619
v -1.295238 0.826315 1.447619
v -1.142857 0.834338 1.447619
v -0.990476 0.839838 1.447619
v -0.838095 0.842318 1.447619
v -0.685714 0.841488 1.447619
v -0.533333 0.837306 1.447619
v -0.380952 0.830460 1.447619
v -0.228571 0.821619 1.447619
v -0.076190 0.811268 1.447619
v 0.076190 0.800088 1.447619
v 0.228571 0.789454 1.447619
v 0.380952 0.780382 1.447619
v 0.533333 0.773660 1.447619
v 0.685714 0.769719 1.447619
v 0.838095 0.768772 1.447619
v 0.990476 0.771058 1.447619
v 1.142857 0.776462 1.447619
v 1.295238 0.784401 1.447619
v 1.447619 0.794283 1.447619
v 1.600000 0.805327 1.447619
v -1.600000 0.000000 1.295238
v -1.447619 0.826394 1.295238
v -1.295238 1.645317 1.295238
v -1.142857 1.669155 1.295238
v -0.990476 1.685371 1.295238
v -0.838095 1.692245 1.295238
v -0.685714 1.689092 1.295238
v -0.533333 1.676171 1.295238
v -0.380952 1.655841 1.295238
v -0.228571 1.629905 1.295238
v -0.076190 1.599451 1.295238
v 0.076190 1.566219 1.295238
v 0.228571 1.534718 1.295238
v 0.380952 1.508068 1.295238
v 0.533333 1.488576 1.295238
v 0.685714 1.477502 1.295238
v 0.838095 1.475279 1.295238
v 0.990476 1.482314 1.295238
v 1.142857 1.498161 1.295238
v 1.295238 1.521334 1.295238
v 1.447619 1.550325 1.295238
v 1.600000 1.582872 1.295238
v -1.600000 0.000000 1.142857
v -1.447619 0.834550 1.142857
v -1.295238 1.669448 1.142857
v -1.142857 1.711940 1.142857
v -0.990476 1.734287 1.142857
v -0.838095 1.743346 1.142857
v -0.685714 1.738341 1.142857
v -0.533333 1.719991 1.142857
v -0.380952 1.691920 1.142857
v -0.228571 1.656446 1.142857
v -0.076190 1.614660 1.142857
v 0.076190 1.568636 1.142857
v 0.228571 1.525065 1.142857
v 0.380952 1.488389 1.142857
v 0.533333 1.461800 1.142857
v 0.685714 1.447018 1.142857
v 0.838095 1.444440 1.142857
v 0.990476 1.454368 1.142857
v 1.142857 1.476087 1.142857
v 1.295238 1.507746 1.142857
v 1.447619 1.547517 1.142857
v 1.600000 1.592347 1.142857
v -1.600000 0.000000 0.990476
v -1.447619 0.840206 0.990476
v -1.295238 1.686267 0.990476
v -1.142857 1.735247 0.990476
v -0.990476 1.438311 0.990476
v -0.838095 1.448644 0.990476
v -0.685714 1.441999 0.990476
v -0.533333 1.419692 0.990476
v -0.380952 1.386237 0.990476
v -0.228571 1.344195 0.990476
v -0.076190 1.294658 0.990476
v 0.076190 1.239872 0.990476
v 0.228571 1.187859 0.990476
v 0.380952 1.144093 0.990476
v 0.533333 1.112527 0.990476
v 0.685714 1.095336 0.990476
v 0.838095 1.092812 0.990476
v 0.990476 1.104976 0.990476
v 1.142857 1.130820 0.990476
v 1.295238 1.168380 0.990476
v 1.447619 1.215587 0.990476
v 1.600000 1.268800 0.990476
v -1.600000 0.000000 0.838095
v -1.447619 0.843111 0.838095
v -1.295238 1.695265 0.838095
v -1.142857 1.748117 0.838095
v -0.990476 1.453371 0.838095
v -0.838095 1.248775 0.838095
v -0.685714 1.239476 0.838095
v -0.533333 1.214152 0.838095
v -0.380952 1.177870 0.838095
v -0.228571 1.132740 0.838095
v -0.076190 1.079740 0.838095
v 0.076190 1.020935 0.838095
v 0.228571 0.964402 0.838095
v 0.380952 0.916589 0.838095
v 0.533333 0.882404 0.838095
v 0.685714 0.864864 0.838095
v 0.838095 0.863909 0.838095
v 0.990476 0.878339 0.838095
v 1.142857 0.906449 0.838095
v 1.295238 0.946936 0.838095
v 1.447619 0.997647 0.838095
v 1.600000 1.054467 0.838095
v -1.600000 0.000000 0.685714
v -1.447619 0.842907 0.685714
v -1.295238 1.695223 0.685714
v -1.142857 1.748686 0.685714
v -0.990476 1.453789 0.685714
v -0.838095 1.247152 0.685714
v -0.685714 1.185436 0.685714
v -0.533333 1.158524 0.685714
v -0.380952 1.122258 0.685714
v -0.228571 1.077892 0.685714
v -0.076190 1.026117 0.685714
v 0.076190 0.968440 0.685714
v 0.228571 0.911902 0.685714
v 0.380952 0.863653 0.685714
v 0.533333 0.829487 0.685714
v 0.685714 0.813353 0.685714
v 0.838095 0.814725 0.685714
v 0.990476 0.830806 0.685714
v 1.142857 0.859085 0.685714
v 1.295238 0.899297 0.685714
v 1.447619 0.949364 0.685714
v 1.600000 1.004928 0.685714
v -1.600000 0.000000 0.533333
v -1.447619 0.839351 0.533333
v -1.295238 1.685086 0.533333
v -1.142857 1.735116 0.533333
v -0.990476 1.437542 0.533333
v -0.838095 1.228460 0.533333
v -0.685714 1.165223 0.533333
v -0.533333 1.134219 0.533333
v -0.380952 1.100965 0.533333
v -0.228571 1.061341 0.533333
v -0.076190 1.015512 0.533333
v 0.076190 0.964122 0.533333
v 0.228571 0.912631 0.533333
v 0.380952 0.868202 0.533333
v 0.533333 0.836938 0.533333
v 0.685714 0.823174 0.533333
v 0.838095 0.826078 0.533333
v 0.990476 0.842030 0.533333
v 1.142857 0.868175 0.533333
v 1.295238 0.904874 0.533333
v 1.447619 0.950272 0.533333
v 1.600000 1.000199 0.533333
v -1.600000 0.000000 0.380952
v -1.447619 0.832696 0.380952
v -1.295238 1.665385 0.380952
v -1.142857 1.707910 0.380952
v -0.990476 1.405383 0.380952
v -0.838095 1.194364 0.380952
v -0.685714 1.132105 0.380952
v -0.533333 1.104458 0.380952
v -0.380952 1.075582 0.380952
v -0.228571 1.041864 0.380952
v -0.076190 1.004143 0.380952
v 0.076190 0.963617 0.380952
v 0.228571 0.923694 0.380952
v 0.380952 0.889329 0.380952
v 0.533333 0.864869 0.380952
v 0.685714 0.853850 0.380952
v 0.838095 0.856349 0.380952
v 0.990476 0.869657 0.380952
v 1.142857 0.891518 0.380952
v 1.295238 0.922076 0.380952
v 1.447619 0.959452 0.380952
v 1.600000 1.000004 0.380952
v -1.600000 0.000000 0.228571
v -1.447619 0.823626 0.228571
v -1.295238 1.638260 0.228571
v -1.142857 1.670164 0.228571
v -0.990476 1.360862 0.228571
v -0.838095 1.148035 0.228571
v -0.685714 1.088404 0.228571
v -0.533333 1.066240 0.228571
v -0.380952 1.043196 0.228571
v -0.228571 1.016161 0.228571
v -0.076190 0.988097 0.228571
v 0.076190 0.962025 0.228571
v 0.228571 0.938955 0.228571
v 0.380952 0.919829 0.228571
v 0.533333 0.905553 0.228571
v 0.685714 0.898001 0.228571
v 0.838095 0.899070 0.228571
v 0.990476 0.907986 0.228571
v 1.142857 0.923703 0.228571
v 1.295238 0.945779 0.228571
v 1.447619 0.972163 0.228571
v 1.600000 1.000000 0.228571
v -1.600000 0.000000 0.076190
v -1.447619 0.812970 0.076190
v -1.295238 1.606356 0.076190
v -1.142857 1.625732 0.076190
v -0.990476 1.308306 0.076190
v -0.838095 1.093002 0.076190
v -0.685714 1.036153 0.076190
v -0.533333 1.020561 0.076190
v -0.380952 1.005547 0.076190
v -0.228571 0.988139 0.076190
v -0.076190 0.972715 0.076190
v 0.076190 0.963470 0.076190
v 0.228571 0.959172 0.076190
v 0.380952 0.956939 0.076190
v 0.533333 0.954353 0.076190
v 0.685714 0.951539 0.076190
v 0.838095 0.951735 0.076190
v 0.990476 0.955785 0.076190
v 1.142857 0.963779 0.076190
v 1.295238 0.975021 0.076190
v 1.447619 0.987684 0.076190
v 1.600000 1.000000 0.076190
v -1.600000 0.000000 -0.076190
v -1.447619 0.801651 -0.076190
v -1.295238 1.572506 -0.076190
v -1.142857 1.578632 -0.076190
v -0.990476 1.252356 -0.076190
v -0.838095 1.033687 -0.076190
v -0.685714 0.978994 -0.076190
v -0.533333 0.970334 -0.076190
v -0.380952 0.965995 -0.076190
v -0.228571 0.962375 -0.076190
v -0.076190 0.963162 -0.076190
v 0.076190 0.971646 -0.076190
v 0.228571 0.984847 -0.076190
v 0.380952 0.997883 -0.076190
v 0.533333 1.006607 -0.076190
v 0.685714 1.009922 -0.076190
v 0.838095 1.010833 -0.076190
v 0.990476 1.010538 -0.076190
v 1.142857 1.009707 -0.076190
v 1.295238 1.008197 -0.076190
v 1.447619 1.005098 -0.076190
v 1.600000 1.000000 -0.076190
v -1.600000 0.000000 -0.228571
v -1.447619 0.790468 -0.228571
v -1.295238 1.538657 -0.228571
v -1.142857 1.531094 -0.228571
v -0.990476 1.196198 -0.228571
v -0.838095 0.976030 -0.228571
v -0.685714 0.926113 -0.228571
v -0.533333 0.925964 -0.228571
v -0.380952 0.932363 -0.228571
v -0.228571 0.941807 -0.228571
v -0.076190 0.957773 -0.228571
v 0.076190 0.983140 -0.228571
v 0.228571 1.013090 -0.228571
v 0.380952 1.040734 -0.228571
v 0.533333 1.060233 -0.228571
v 0.685714 1.068940 -0.228571
v 0.838095 1.069516 -0.228571
v 0.990476 1.064159 -0.228571
v 1.142857 1.054465 -0.228571
v 1.295238 1.040598 -0.228571
v 1.447619 1.022164 -0.228571
v 1.600000 1.000000 -0.228571
v -1.600000 0.000000 -0.380952
v -1.447619 0.780595 -0.380952
v -1.295238 1.508604 -0.380952
v -1.142857 1.488699 -0.380952
v -0.990476 1.146232 -0.380952
v -0.838095 0.925525 -0.380952
v -0.685714 0.881027 -0.380952
v -0.533333 0.889298 -0.380952
v -0.380952 0.905508 -0.380952
v -0.228571 0.926447 -0.380952
v -0.076190 0.955549 -0.380952
v 0.076190 0.995518 -0.380952
v 0.228571 1.040015 -0.380952
v 0.380952 1.080349 -0.380952
v 0.533333 1.109139 -0.380952
v 0.685714 1.122226 -0.380952
v 0.838095 1.121964 -0.380952
v 0.990476 1.111712 -0.380952
v 1.142857 1.094022 -0.380952
v 1.295238 1.069211 -0.380952
v 1.447619 1.037224 -0.380952
v 1.600000 1.000000 -0.380952
v -1.600000 0.000000 -0.533333
v -1.447619 0.773129 -0.533333
v -1.295238 1.485994 -0.533333
v -1.142857 1.456928 -0.533333
v -0.990476 1.108630 -0.533333
v -0.838095 0.886883 -0.533333
v -0.685714 0.845753 -0.533333
v -0.533333 0.860339 -0.533333
v -0.380952 0.884896 -0.533333
v -0.228571 0.915859 -0.533333
v -0.076190 0.955914 -0.533333
v 0.076190 1.007005 -0.533333
v 0.228571 1.062104 -0.533333
v 0.380952 1.111564 -0.533333
v 0.533333 1.147127 -0.533333
v 0.685714 1.163723 -0.533333
v 0.838095 1.163251 -0.533333
v 0.990476 1.149470 -0.533333
v 1.142857 1.125425 -0.533333
v 1.295238 1.091731 -0.533333
v 1.447619 1.048945 -0.533333
v 1.600000 1.000000 -0.533333
v -1.600000 0.000000 -0.685714
v -1.447619 0.768674 -0.685714
v -1.295238 1.473121 -0.685714
v -1.142857 1.439445 -0.685714
v -0.990476 1.087536 -0.685714
v -0.838095 0.863361 -0.685714
v -0.685714 0.821836 -0.685714
v -0.533333 0.839234 -0.685714
v -0.380952 0.870682 -0.685714
v -0.228571 0.911085 -0.685714
v -0.076190 0.960489 -0.685714
v 0.076190 1.018312 -0.685714
v 0.228571 1.078038 -0.685714
v 0.380952 1.130960 -0.685714
v 0.533333 1.169527 -0.685714
v 0.685714 1.188665 -0.685714
v 0.838095 1.189051 -0.685714
v 0.990476 1.173771 -0.685714
v 1.142857 1.145703 -0.685714
v 1.295238 1.105995 -0.685714
v 1.447619 1.056176 -0.685714
v 1.600000 1.000000 -0.685714
v -1.600000 0.000000 -0.838095
v -1.447619 0.767441 -0.838095
v -1.295238 1.470434 -0.838095
v -1.142857 1.436666 -0.838095
v -0.990476 1.083700 -0.838095
v -0.838095 0.856994 -0.838095
v -0.685714 0.812837 -0.838095
v -0.533333 0.829980 -0.838095
v -0.380952 0.865889 -0.838095
v -0.228571 0.913571 -0.838095
v -0.076190 0.969261 -0.838095
v 0.076190 1.028738 -0.838095
v 0.228571 1.086761 -0.838095
v 0.380952 1.137231 -0.838095
v 0.533333 1.174768 -0.838095
v 0.685714 1.194878 -0.838095
v 0.838095 1.196344 -0.838095
v 0.990476 1.181235 -0.838095
v 1.142857 1.151967 -0.838095
v 1.295238 1.110137 -0.838095
v 1.447619 1.058085 -0.838095
v 1.600000 1.000000 -0.838095
v -1.600000 0.000000 -0.990476
v -1.447619 0.769722 -0.990476
v -1.295238 1.477916 -0.990476
v -1.142857 1.447718 -0.990476
v -0.990476 1.096469 -0.990476
v -0.838095 0.868959 -0.990476
v -0.685714 0.822379 -0.990476
v -0.533333 0.837338 -0.990476
v -0.380952 0.873174 -0.990476
v -0.228571 0.921835 -0.990476
v -0.076190 0.977232 -0.990476
v 0.076190 1.032962 -0.990476
v 0.228571 1.085027 -0.990476
v 0.380952 1.129637 -0.990476
v 0.533333 1.163381 -0.990476
v 0.685714 1.182534 -0.990476
v 0.838095 1.184660 -0.990476
v 0.990476 1.170979 -0.990476
v 1.142857 1.143401 -0.990476
v 1.295238 1.103693 -0.990476
v 1.447619 1.054521 -0.990476
v 1.600000 1.000000 -0.990476
v -1.600000 0.000000 -1.142857
v -1.447619 0.775393 -1.142857
v -1.295238 1.494737 -1.142857
v -1.142857 1.471004 -1.142857
v -0.990476 1.124135 -1.142857
v -0.838095 0.898397 -1.142857
v -0.685714 0.850915 -1.142857
v -0.533333 0.862568 -1.142857
v -0.380952 0.893093 -1.142857
v -0.228571 0.934781 -1.142857
v -0.076190 0.981981 -1.142857
v 0.076190 1.028823 -1.142857
v 0.228571 1.072101 -1.142857
v 0.380952 1.109035 -1.142857
v 0.533333 1.137110 -1.142857
v 0.685714 1.153336 -1.142857
v 0.838095 1.155388 -1.142857
v 0.990476 1.144061 -1.142857
v 1.142857 1.120845 -1.142857
v 1.295238 1.087322 -1.142857
v 1.447619 1.045870 -1.142857
v 1.600000 1.000000 -1.142857
v -1.600000 0.000000 -1.295238
v -1.447619 0.783844 -1.295238
v -1.295238 1.519382 -1.295238
v -1.142857 1.504720 -1.295238
v -0.990476 1.164321 -1.295238
v -0.838095 0.941807 -1.295238
v -0.685714 0.893858 -1.295238
v -0.533333 0.901080 -1.295238
v -0.380952 0.923192 -1.295238
v -0.228571 0.953395 -1.295238
v -0.076190 0.987512 -1.295238
v 0.076190 1.021238 -1.295238
v 0.228571 1.052178 -1.295238
v 0.380952 1.078505 -1.295238
v 0.533333 1.098597 -1.295238
v 0.685714 1.110381 -1.295238
v 0.838095 1.112035 -1.295238
v 0.990476 1.103990 -1.295238
v 1.142857 1.087255 -1.295238
v 1.295238 1.063105 -1.295238
v 1.447619 1.033192 -1.295238
v 1.600000 1.000000 -1.295238
v -1.600000 0.000000 -1.447619
v -1.447619 0.794142 -1.447619
v -1.295238 1.549639 -1.447619
v -1.142857 1.546319 -1.447619
v -0.990476 1.213908 -1.447619
v -0.838095 0.995308 -1.447619
v -0.685714 0.946678 -1.447619
v -0.533333 0.948340 -1.447619
v -0.380952 0.960027 -1.447619
v -0.228571 0.976064 -1.447619
v -0.076190 0.994079 -1.447619
v 0.076190 1.011715 -1.447619
v 0.228571 1.027682 -1.447619
v 0.380952 1.041194 -1.447619
v 0.533333 1.051572 -1.447619
v 0.685714 1.057788 -1.447619
v 0.838095 1.058753 -1.447619
v 0.990476 1.054603 -1.447619
v 1.142857 1.045826 -1.447619
v 1.295238 1.033185 -1.447619
v 1.447619 1.017485 -1.447619
v 1.600000 1.000000 -1.447619
v -1.600000 0.000000 -1.600000
v -1.447619 0.805327 -1.600000
v -1.295238 1.582872 -1.600000
v -1.142857 1.592347 -1.600000
v -0.990476 1.268800 -1.600000
v -0.838095 1.054467 -1.600000
v -0.685714 1.004928 -1.600000
v -0.533333 1.000199 -1.600000
v -0.380952 1.000004 -1.600000
v -0.228571 1.000000 -1.600000
v -0.076190 1.000000 -1.600000
v 0.076190 1.000000 -1.600000
v 0.228571 1.000000 -1.600000
v 0.380952 1.000000 -1.600000
v 0.533333 1.000000 -1.600000
v 0.685714 1.000000 -1.600000
v 0.838095 1.000000 -1.600000
v 0.990476 1.000000 -1.600000
v 1.142857 1.000000 -1.600000
v 1.295238 1.000000 -1.600000
v 1.447619 1.000000 -1.600000
v 1.600000 1.000000 -1.600000
v -1.600000 -0.247827 1.600000
v -1.447619 -0.331050 1.600000
v -1.295238 -0.481753 1.600000
v -1.142857 -0.679287 1.600000
v -0.990476 -0.893499 1.600000
v -0.838095 -1.090506 1.600000
v -0.685714 -1.244597 1.600000
v -0.533333 -1.349681 1.600000
v -0.380952 -1.421330 1.600000
v -0.228571 -1.485262 1.600000
v -0.076190 -1.557623 1.600000
v 0.076190 -1.629764 1.600000
v 0.228571 -1.668698 1.600000
v 0.380952 -1.634253 1.600000
v 0.533333 -1.502397 1.600000
v 0.685714 -1.280031 1.600000
v 0.838095 -1.002863 1.600000
v 0.990476 -0.719296 1.600000
v 1.142857 -0.471133 1.600000
v 1.295238 -0.281425 1.600000
v 1.447619 -0.153197 1.600000
v 1.600000 -0.075969 1.600000
v 1.600000 -0.034311 1.447619
v 1.600000 -0.014112 1.295238
v 1.600000 -0.005286 1.142857
v 1.600000 -0.001803 0.990476
v 1.600000 -0.000560 0.838095
v 1.600000 -0.000158 0.685714
v 1.600000 -0.000041 0.533333
v 1.600000 -0.000010 0.380952
v 1.600000 -0.000002 0.228571
v 1.600000 -0.000000 0.076190
v 1.600000 -0.000000 -0.076190
v 1.600000 -0.000000 -0.228571
v 1.600000 -0.000000 -0.380952
v 1.600000 -0.000000 -0.533333
v 1.600000 -0.000000 -0.685714
v 1.600000 -0.000000 -0.838095
v 1.600000 -0.000000 -0.990476
v 1.600000 -0.000000 -1.142857
v 1.600000 -0.000000 -1.295238
v 1.600000 -0.000000 -1.447619
v 1.600000 -0.000000 -1.600000
v 1.447619 -0.000000 -1.600000
v 1.295238 -0.000000 -1.600000
v 1.142857 -0.000000 -1.600000
v 0.990476 -0.000000 -1.600000
v 0.838095 -0.000000 -1.600000
v 0.685714 -0.000000 -1.600000
v 0.533333 -0.000000 -1.600000
v 0.380952 -0.000000 -1.600000
v 0.228571 -0.000000 -1.600000
v 0.076190 -0.000001 -1.600000
v -0.076190 -0.000004 -1.600000
v -0.228571 -0.000019 -1.600000
v -0.380952 -0.000076 -1.600000
v -0.533333 -0.000277 -1.600000
v -0.685714 -0.000919 -1.600000
v -0.838095 -0.002776 -1.600000
v -0.990476 -0.007636 -1.600000
v -1.142857 -0.019133 -1.600000
v -1.295238 -0.043659 -1.600000
v -1.447619 -0.090745 -1.600000
v -1.600000 -0.171858 -1.600000
v -1.600000 -0.296739 -1.447619
v -1.600000 -0.467641 -1.295238
v -1.600000 -0.674001 -1.142857
v -1.600000 -0.891696 -0.990476
v -1.600000 -1.089946 -0.838095
v -1.600000 -1.244439 -0.685714
v -1.600000 -1.349640 -0.533333
v -1.600000 -1.421320 -0.380952
v -1.600000 -1.485260 -0.228571
v -1.600000 -1.557624 -0.076190
v -1.600000 -1.629769 0.076190
v -1.600000 -1.668717 0.228571
v -1.600000 -1.634329 0.380952
v -1.600000 -1.502674 0.533333
v -1.600000 -1.280949 0.685714
v -1.600000 -1.005639 0.838095
v -1.600000 -0.726933 0.990476
v -1.600000 -0.490266 1.142857
v -1.600000 -0.325084 1.295238
v -1.600000 -0.243942 1.447619
v 0.000000 0.000000 0.000000
vn -0.3341 0.4176 0.8450
vn -0.8450 0.4176 0.3341
vn -0.0000 1.0000 -0.0000
vn -0.0007 0.1823 0.9832
vn -0.5494 0.6294 0.5495
vn -0.0005 0.1804 0.9836
vn -0.1839 0.3015 0.9356
vn -0.0004 0.1790 0.9838
vn -0.0084 0.1801 0.9836
vn -0.0001 0.1783 0.9840
vn -0.0049 0.1783 0.9840
vn 0.0032 0.1779 0.9840
vn -0.0010 0.1775 0.9841
vn 0.0003 0.1786 0.9839
vn 0.0068 0.1793 0.9838
vn 0.0005 0.1797 0.9837
vn 0.0097 0.1815 0.9833
vn 0.0006 0.1813 0.9834
vn 0.0121 0.1844 0.9828
vn 0.0007 0.1833 0.9830
vn 0.0138 0.1879 0.9821
vn 0.0008 0.1857 0.9826
vn 0.0142 0.1917 0.9814
vn 0.0008 0.1882 0.9821
vn 0.0130 0.1954 0.9806
vn 0.0007 0.1905 0.9817
vn 0.0105 0.1986 0.9800
vn 0.0005 0.1923 0.9813
vn 0.0071 0.2009 0.9796
vn 0.0003 0.1937 0.9811
vn 0.0031 0.2022 0.9793
vn 0.0001 0.1943 0.9809
vn -0.0008 0.2024 0.9793
vn -0.0002 0.1941 0.9810
vn -0.0000 0.1944 0.9809
vn -0.0004 0.1931 0.9812
vn -0.0051 0.2016 0.9794
vn -0.0006 0.1915 0.9815
vn -0.0089 0.1998 0.9798
vn -0.0007 0.1894 0.9819
vn -0.0118 0.1970 0.9803
vn -0.0016 0.1881 0.9821
vn -0.0137 0.1935 0.9810
vn -0.9832 0.1823 0.0007
vn -0.9355 0.3015 0.1842
vn -0.5768 0.5780 0.5773
vn -0.1071 0.6814 0.7241
vn -0.0560 0.6660 0.7439
vn 0.0401 0.6659 0.7450
vn -0.0084 0.6619 0.7495
vn 0.0807 0.6755 0.7329
vn 0.1135 0.6899 0.7150
vn 0.1416 0.7082 0.6917
vn 0.1646 0.7298 0.6635
vn 0.1585 0.7510 0.6410
vn 0.1588 0.7695 0.6185
vn 0.1308 0.7956 0.5915
vn 0.0894 0.8165 0.5704
vn 0.0400 0.8292 0.5575
vn -0.0158 0.8308 0.5563
vn -0.0679 0.8215 0.5662
vn -0.1118 0.8043 0.5837
vn -0.1445 0.7810 0.6076
vn -0.0156 0.1917 0.9813
vn -0.1531 0.7628 0.6283
vn -0.9836 0.1804 0.0005
vn -0.9836 0.1801 0.0085
vn -0.7236 0.6816 0.1091
vn -0.2029 0.9572 0.2062
vn 0.0749 0.9689 -0.2358
vn 0.0684 0.9251 -0.3736
vn -0.0122 0.9293 -0.3691
vn 0.1330 0.9117 -0.3888
vn 0.1785 0.8937 -0.4117
vn 0.2120 0.8727 -0.4399
vn 0.2343 0.8488 -0.4740
vn 0.2205 0.8231 -0.5234
vn 0.2026 0.7961 -0.5703
vn 0.1579 0.7829 -0.6018
vn 0.1031 0.7750 -0.6235
vn 0.0442 0.7722 -0.6338
vn -0.0789 0.7751 -0.6269
vn -0.0191 0.7723 -0.6349
vn -0.1331 0.7819 -0.6090
vn -0.1800 0.7925 -0.5827
vn -0.2069 0.8154 -0.5407
vn -0.1938 0.7797 0.5954
vn -0.9839 0.1790 0.0004
vn -0.9840 0.1782 0.0053
vn -0.7446 0.6646 0.0621
vn 0.2381 0.9693 -0.0607
vn 0.1141 0.6160 -0.7795
vn 0.4156 0.8149 -0.4039
vn 0.0500 0.5285 -0.8475
vn 0.0951 0.5219 -0.8477
vn 0.1267 0.5142 -0.8483
vn 0.1512 0.5057 -0.8493
vn 0.1694 0.4970 -0.8510
vn 0.1716 0.4899 -0.8547
vn 0.1528 0.4845 -0.8613
vn 0.1196 0.4807 -0.8687
vn 0.0772 0.4786 -0.8746
vn 0.0311 0.4783 -0.8776
vn -0.0607 0.4822 -0.8740
vn -0.0164 0.4801 -0.8771
vn -0.1012 0.4839 -0.8692
vn -0.1358 0.4867 -0.8629
vn -0.1618 0.4906 -0.8562
vn -0.1643 0.4799 -0.8618
vn -0.9840 0.1781 0.0002
vn -0.9842 0.1772 0.0018
vn -0.7536 0.6569 0.0228
vn 0.7858 0.6122 -0.0878
vn 0.3647 0.9303 0.0398
vn 0.4160 0.8210 -0.3911
vn 0.1349 0.8167 -0.5611
vn 0.1596 0.7878 -0.5949
vn 0.2069 0.7779 -0.5934
vn 0.2459 0.7689 -0.5902
vn 0.2770 0.7613 -0.5862
vn 0.2848 0.7599 -0.5843
vn 0.2599 0.7651 -0.5892
vn 0.2071 0.7748 -0.5973
vn 0.1325 0.7859 -0.6039
vn 0.0454 0.7962 -0.6033
vn -0.1104 0.7990 -0.5911
vn -0.0366 0.8013 -0.5971
vn -0.1764 0.7914 -0.5853
vn -0.2315 0.7815 -0.5794
vn -0.2697 0.7724 -0.5750
vn -0.2756 0.7462 -0.6060
vn -0.9842 0.1772 -0.0024
vn -0.9840 0.1782 -0.0002
vn -0.7542 0.6562 -0.0245
vn 0.8501 0.5258 -0.0272
vn 0.3628 0.9311 -0.0391
vn 0.5853 0.8053 -0.0945
vn 0.2676 0.9370 -0.2246
vn 0.2002 0.9490 -0.2437
vn 0.2470 0.9397 -0.2366
vn 0.2912 0.9314 -0.2183
vn 0.3283 0.9242 -0.1953
vn 0.3410 0.9240 -0.1731
vn 0.3135 0.9368 -0.1555
vn 0.2544 0.9563 -0.1440
vn 0.1588 0.9778 -0.1365
vn -0.0558 0.9911 -0.1208
vn 0.0475 0.9905 -0.1294
vn -0.1409 0.9835 -0.1138
vn -0.2148 0.9698 -0.1159
vn -0.2782 0.9524 -0.1244
vn -0.3166 0.9379 -0.1421
vn -0.3396 0.9260 -0.1649
vn -0.9839 0.1784 -0.0063
vn -0.9838 0.1792 -0.0004
vn -0.7450 0.6632 -0.0717
vn 0.3704 0.9213 -0.1186
vn 0.8502 0.5200 -0.0820
vn 0.6177 0.7748 -0.1347
vn 0.2854 0.9433 -0.1692
vn 0.2030 0.9641 -0.1713
vn 0.2302 0.9620 -0.1471
vn 0.2681 0.9567 -0.1132
vn 0.3016 0.9508 -0.0701
vn 0.3071 0.9516 -0.0107
vn 0.2371 0.9679 0.0838
vn 0.2921 0.9553 0.0449
vn 0.1446 0.9830 0.1133
vn 0.0383 0.9908 0.1301
vn -0.0608 0.9890 0.1346
vn -0.1351 0.9829 0.1253
vn -0.1998 0.9743 0.1041
vn -0.2579 0.9634 0.0733
vn -0.3059 0.9520 0.0074
vn -0.2922 0.9556 0.0379
vn -0.9835 0.1806 -0.0097
vn -0.9835 0.1809 -0.0006
vn -0.7275 0.6766 -0.1136
vn 0.3909 0.9019 -0.1837
vn 0.8491 0.5126 -0.1278
vn 0.6118 0.7651 -0.2007
vn 0.2733 0.9329 -0.2346
vn 0.1773 0.9604 -0.2150
vn 0.1978 0.9631 -0.1824
vn 0.2270 0.9635 -0.1418
vn 0.2486 0.9648 -0.0861
vn 0.2329 0.9686 0.0870
vn 0.2312 0.9729 -0.0048
vn 0.1867 0.9686 0.1642
vn 0.1154 0.9698 0.2150
vn 0.0290 0.9715 0.2352
vn -0.0513 0.9716 0.2311
vn -0.1120 0.9713 0.2099
vn -0.1667 0.9701 0.1766
vn -0.2152 0.9678 0.1304
vn -0.2457 0.9667 0.0710
vn -0.9829 0.1835 -0.0123
vn -0.9831 0.1829 -0.0007
vn -0.7031 0.6958 -0.1464
vn 0.4219 0.8780 -0.2262
vn 0.8484 0.5048 -0.1594
vn 0.6020 0.7585 -0.2495
vn 0.2475 0.9247 -0.2891
vn 0.1411 0.9544 -0.2631
vn 0.1571 0.9623 -0.2222
vn 0.1754 0.9695 -0.1709
vn 0.1755 0.9794 -0.0996
vn 0.1363 0.9840 0.1148
vn 0.1306 0.9914 0.0012
vn 0.1096 0.9710 0.2123
vn 0.0731 0.9582 0.2765
vn 0.0219 0.9533 0.3011
vn -0.0341 0.9547 0.2955
vn -0.0787 0.9597 0.2697
vn -0.1206 0.9661 0.2282
vn -0.1550 0.9734 0.1690
vn -0.2377 0.9711 0.0193
vn -0.1736 0.9805 0.0918
vn -0.9822 0.1871 -0.0140
vn -0.9827 0.1853 -0.0008
vn -0.6739 0.7195 -0.1677
vn 0.4604 0.8532 -0.2452
vn 0.8496 0.4972 -0.1760
vn 0.5933 0.7548 -0.2799
vn 0.2187 0.9195 -0.3267
vn 0.0964 0.9497 -0.2979
vn 0.1019 0.9641 -0.2450
vn 0.1046 0.9792 -0.1737
vn 0.0809 0.9934 -0.0807
vn 0.0225 0.9926 0.1197
vn 0.0299 0.9994 0.0170
vn 0.0169 0.9746 0.2233
vn 0.0173 0.9545 0.2978
vn 0.0065 0.9417 0.3363
vn -0.0173 0.9402 0.3401
vn -0.0402 0.9479 0.3159
vn -0.0625 0.9610 0.2693
vn -0.0777 0.9769 0.1992
vn -0.1550 0.9876 0.0250
vn -0.0811 0.9909 0.1073
vn -0.9815 0.1910 -0.0146
vn -0.9822 0.1879 -0.0008
vn -0.6493 0.7427 -0.1638
vn 0.5106 0.8277 -0.2330
vn 0.8530 0.4900 -0.1797
vn 0.5880 0.7560 -0.2877
vn 0.1895 0.9243 -0.3314
vn 0.0341 0.9574 -0.2866
vn 0.0260 0.9768 -0.2125
vn 0.0099 0.9921 -0.1250
vn -0.0159 0.9993 -0.0345
vn -0.0703 0.9954 0.0648
vn -0.0858 0.9813 0.1724
vn -0.0716 0.9624 0.2619
vn -0.0410 0.9450 0.3245
vn -0.0164 0.9343 0.3561
vn -0.0011 0.9352 0.3541
vn 0.0036 0.9466 0.3223
vn 0.0072 0.9638 0.2664
vn 0.0146 0.9825 0.1859
vn -0.0521 0.9982 0.0285
vn 0.0266 0.9961 0.0844
vn -0.9807 0.1950 -0.0139
vn -0.9817 0.1903 -0.0007
vn -0.6243 0.7618 -0.1731
vn 0.5627 0.7953 -0.2255
vn 0.8577 0.4858 -0.1685
vn 0.5814 0.7683 -0.2679
vn 0.1463 0.9448 -0.2933
vn -0.0518 0.9797 -0.1936
vn -0.0277 0.9681 -0.2491
vn -0.0827 0.9897 -0.1166
vn -0.1084 0.9938 -0.0236
vn -0.1763 0.9812 0.0787
vn -0.1829 0.9674 0.1753
vn -0.1494 0.9549 0.2568
vn -0.0906 0.9449 0.3145
vn -0.0322 0.9391 0.3420
vn 0.0493 0.9487 0.3123
vn 0.0191 0.9404 0.3394
vn 0.0762 0.9615 0.2641
vn 0.1046 0.9754 0.1942
vn 0.1311 0.9859 0.1043
vn 0.1164 0.9928 0.0278
vn -0.9800 0.1986 -0.0116
vn -0.9813 0.1924 -0.0006
vn -0.5927 0.7914 -0.1495
vn 0.6013 0.7778 -0.1830
vn 0.8634 0.4851 -0.1389
vn 0.5738 0.7876 -0.2244
vn -0.0784 0.9746 -0.2096
vn 0.1030 0.9627 -0.2502
vn -0.1198 0.9810 -0.1526
vn -0.1608 0.9834 -0.0844
vn -0.1991 0.9800 -0.0051
vn -0.2636 0.9615 0.0781
vn -0.2633 0.9522 0.1550
vn -0.2154 0.9512 0.2211
vn -0.1328 0.9538 0.2694
vn -0.0433 0.9552 0.2926
vn 0.0893 0.9596 0.2670
vn 0.0357 0.9562 0.2906
vn 0.1354 0.9652 0.2238
vn 0.1806 0.9700 0.1629
vn 0.2190 0.9718 0.0872
vn 0.2139 0.9766 0.0239
vn -0.9795 0.2013 -0.0080
vn -0.9810 0.1938 -0.0003
vn -0.5666 0.8173 -0.1049
vn 0.6293 0.7676 -0.1214
vn 0.8692 0.4855 -0.0936
vn 0.5704 0.8057 -0.1596
vn -0.1261 0.9790 -0.1602
vn 0.0803 0.9792 -0.1865
vn -0.1789 0.9776 -0.1109
vn -0.2257 0.9729 -0.0499
vn -0.2696 0.9629 0.0154
vn -0.3253 0.9428 0.0735
vn -0.3186 0.9401 0.1209
vn -0.2620 0.9516 0.1605
vn -0.1644 0.9676 0.1914
vn 0.0466 0.9760 0.2129
vn -0.0542 0.9761 0.2104
vn 0.1210 0.9729 0.1972
vn 0.1831 0.9692 0.1644
vn 0.2399 0.9636 0.1179
vn 0.2847 0.9566 0.0625
vn 0.2885 0.9573 0.0180
vn -0.9792 0.2027 -0.0037
vn -0.9809 0.1946 -0.0001
vn -0.5503 0.8336 -0.0474
vn 0.6422 0.7648 -0.0516
vn 0.8738 0.4847 -0.0404
vn 0.5744 0.8148 -0.0789
vn -0.1583 0.9827 -0.0964
vn 0.0776 0.9915 -0.1044
vn -0.2289 0.9716 -0.0605
vn -0.2752 0.9613 -0.0147
vn -0.3244 0.9453 0.0345
vn -0.3569 0.9316 0.0687
vn -0.3417 0.9364 0.0796
vn -0.2816 0.9558 0.0845
vn -0.1814 0.9792 0.0912
vn 0.0480 0.9932 0.1058
vn -0.0640 0.9929 0.1001
vn 0.1394 0.9849 0.1025
vn 0.2143 0.9730 0.0861
vn 0.2780 0.9587 0.0609
vn 0.3244 0.9454 0.0324
vn 0.3356 0.9419 0.0108
vn -0.9792 0.2031 0.0007
vn -0.9809 0.1948 -0.0000
vn -0.5491 0.8356 0.0169
vn 0.6430 0.7655 0.0209
vn 0.8760 0.4821 0.0131
vn 0.5833 0.8122 0.0105
vn -0.1690 0.9856 -0.0041
vn 0.0843 0.9964 0.0018
vn -0.2605 0.9655 0.0044
vn -0.3117 0.9497 0.0318
vn -0.3516 0.9347 0.0528
vn -0.3579 0.9326 0.0463
vn -0.3283 0.9444 0.0196
vn -0.2746 0.9615 -0.0080
vn -0.1834 0.9828 -0.0197
vn -0.0698 0.9974 -0.0185
vn 0.1425 0.9897 -0.0103
vn 0.0445 0.9989 -0.0143
vn 0.2243 0.9745 -0.0077
vn 0.2907 0.9568 -0.0072
vn 0.3360 0.9418 -0.0056
vn 0.3485 0.9373 -0.0024
vn -0.9809 0.1944 0.0002
vn -0.9793 0.2022 0.0053
vn 0.6335 0.7691 0.0845
vn -0.5608 0.8248 0.0726
vn 0.8746 0.4805 0.0642
vn 0.5881 0.8016 0.1076
vn 0.0941 0.9880 0.1221
vn -0.1598 0.9813 0.1070
vn -0.2606 0.9612 0.0906
vn -0.3172 0.9457 0.0710
vn -0.3391 0.9398 0.0426
vn -0.3249 0.9457 -0.0044
vn -0.2476 0.9648 -0.0892
vn -0.2959 0.9538 -0.0519
vn -0.1699 0.9782 -0.1198
vn -0.0694 0.9886 -0.1334
vn 0.0391 0.9905 -0.1318
vn 0.1322 0.9839 -0.1201
vn 0.2122 0.9720 -0.1009
vn 0.2763 0.9582 -0.0744
vn 0.3186 0.9470 -0.0413
vn -0.9811 0.1934 0.0004
vn -0.9797 0.2002 0.0094
vn 0.6139 0.7767 0.1411
vn -0.5799 0.8060 0.1191
vn 0.8696 0.4817 0.1079
vn 0.5853 0.7890 0.1867
vn 0.1060 0.9689 0.2235
vn -0.1345 0.9702 0.2016
vn -0.2261 0.9611 0.1588
vn -0.2759 0.9558 0.1018
vn -0.2818 0.9591 0.0257
vn -0.2515 0.9621 -0.1054
vn -0.2739 0.9606 -0.0467
vn -0.2054 0.9652 -0.1621
vn -0.1416 0.9686 -0.2044
vn -0.0602 0.9720 -0.2273
vn 0.0314 0.9729 -0.2291
vn 0.1108 0.9710 -0.2119
vn 0.1797 0.9674 -0.1782
vn 0.2354 0.9632 -0.1297
vn 0.3244 0.9458 -0.0130
vn 0.2724 0.9597 -0.0697
vn -0.9815 0.1917 0.0006
vn -0.9803 0.1973 0.0124
vn 0.5855 0.7884 0.1886
vn -0.6049 0.7816 0.1522
vn 0.8629 0.4847 0.1433
vn 0.5797 0.7772 0.2446
vn 0.1188 0.9486 0.2935
vn -0.0946 0.9590 0.2671
vn -0.1663 0.9633 0.2106
vn -0.2038 0.9700 0.1325
vn -0.2056 0.9770 -0.0566
vn -0.1920 0.9806 0.0391
vn -0.1824 0.9729 -0.1423
vn -0.1479 0.9655 -0.2141
vn -0.1023 0.9584 -0.2666
vn -0.0450 0.9542 -0.2956
vn 0.0222 0.9540 -0.2990
vn 0.0800 0.9571 -0.2784
vn 0.1305 0.9630 -0.2357
vn 0.1721 0.9699 -0.1723
vn 0.2692 0.9629 -0.0196
vn 0.2006 0.9753 -0.0923
vn -0.9819 0.1895 0.0008
vn -0.9810 0.1936 0.0141
vn 0.5415 0.8132 0.2134
vn -0.6265 0.7632 0.1580
vn 0.8558 0.4893 0.1680
vn 0.5748 0.7684 0.2814
vn 0.1399 0.9334 0.3304
vn -0.0498 0.9523 0.3010
vn -0.0900 0.9662 0.2415
vn -0.1100 0.9825 0.1502
vn -0.1094 0.9916 -0.0692
vn -0.0872 0.9953 0.0411
vn -0.0963 0.9813 -0.1668
vn -0.0779 0.9660 -0.2467
vn -0.0547 0.9509 -0.3046
vn -0.0257 0.9412 -0.3370
vn 0.0123 0.9398 -0.3416
vn 0.0432 0.9466 -0.3196
vn 0.0699 0.9597 -0.2723
vn 0.0922 0.9753 -0.2006
vn 0.1881 0.9818 -0.0251
vn 0.1077 0.9883 -0.1077
vn -0.9821 0.1881 0.0016
vn -0.9813 0.1917 0.0158
vn -0.5935 0.7799 0.1985
vn 0.8615 0.4789 0.1690
vn 0.4527 0.8536 0.2578
vn 0.6061 0.7425 0.2852
vn 0.1647 0.9208 0.3534
vn -0.0123 0.9493 0.3141
vn -0.0247 0.9731 0.2291
vn -0.0292 0.9916 0.1262
vn -0.0289 0.9984 -0.0478
vn -0.0000 0.9992 0.0388
vn -0.0258 0.9878 -0.1533
vn -0.0212 0.9705 -0.2403
vn -0.0158 0.9521 -0.3054
vn -0.0092 0.9383 -0.3458
vn 0.0047 0.9358 -0.3526
vn 0.0132 0.9457 -0.3247
vn 0.0196 0.9629 -0.2690
vn 0.0251 0.9818 -0.1881
vn 0.0856 0.9959 -0.0286
vn 0.0286 0.9959 -0.0856
vn -0.0000 -0.0000 1.0000
vn 1.0000 -0.0000 -0.0000
vn -0.0000 -0.0000 -1.0000
vn -1.0000 -0.0000 -0.0000
vn -0.4082 -0.7475 -0.5240
vn -0.5536 -0.5597 -0.6167
vn -0.6108 -0.4712 -0.6363
vn -0.6276 -0.4464 -0.6378
vn -0.6083 -0.4705 -0.6393
vn -0.5413 -0.5353 -0.6484
vn -0.4254 -0.6169 -0.6622
vn -0.3155 -0.6709 -0.6711
vn -0.2860 -0.6816 -0.6736
vn -0.3189 -0.6715 -0.6689
vn -0.3180 -0.6717 -0.6691
vn -0.1772 -0.6937 -0.6981
vn 0.1521 -0.6731 -0.7237
vn 0.4796 -0.5542 -0.6803
vn 0.6423 -0.4402 -0.6274
vn 0.6973 -0.3834 -0.6056
vn 0.7020 -0.3772 -0.6041
vn 0.6776 -0.4160 -0.6065
vn 0.6263 -0.5031 -0.5955
vn 0.5384 -0.6398 -0.5484
vn 0.4052 -0.7996 -0.4432
vn 0.2129 -0.9425 -0.2577
vn 0.0972 -0.9866 -0.1308
vn 0.0380 -0.9976 -0.0578
vn 0.0130 -0.9997 -0.0228
vn 0.0039 -1.0000 -0.0082
vn 0.0010 -1.0000 -0.0026
vn 0.0002 -1.0000 -0.0008
vn -0.0000 -1.0000 -0.0002
vn -0.0000 -1.0000 -0.0000
vn 0.0001 -1.0000 -0.0000
vn 0.0004 -1.0000 -0.0000
vn 0.0013 -1.0000 -0.0003
vn 0.0042 -1.0000 -0.0012
vn 0.0122 -0.9999 -0.0046
vn 0.0319 -0.9994 -0.0150
vn 0.0752 -0.9963 -0.0418
vn 0.1581 -0.9822 -0.1012
vn 0.2888 -0.9345 -0.2083
vn 0.4400 -0.8265 -0.3512
vn 0.5827 -0.6286 -0.5151
vn 0.6241 -0.5200 -0.5832
vn 0.6363 -0.4582 -0.6206
vn 0.6372 -0.4420 -0.6314
vn 0.6389 -0.4688 -0.6100
vn 0.6482 -0.5347 -0.5421
vn 0.6621 -0.6167 -0.4258
vn 0.6711 -0.6709 -0.3156
vn 0.6736 -0.6816 -0.2860
vn 0.6689 -0.6715 -0.3189
vn 0.6691 -0.6717 -0.3180
vn 0.6981 -0.6937 -0.1773
vn 0.7237 -0.6731 0.1519
vn 0.6805 -0.5545 0.4791
vn 0.6278 -0.4408 0.6415
vn 0.6064 -0.3851 0.6957
vn 0.6056 -0.3817 0.6982
vn 0.6083 -0.4297 0.6673
vn 0.5911 -0.5469 0.5929
vn 0.4885 -0.7702 0.4101
vn 0.1283 -0.9914 -0.0253
vn -0.2514 0.8546 -0.4543
vn 0.0334 0.9994 -0.0000
s 1
f 2//1 23//2 1//3
f 3//4 24//5 2//1
f 4//6 25//7 3//4
f 5//8 26//9 4//6
f 6//10 27//11 5//8
f 6//10 29//12 28//13
f 7//14 30//15 29//12
f 8//16 31//17 30//15
f 9//18 32//19 31//17
f 10//20 33//21 32//19
f 11//22 34//23 33//21
f 12//24 35//25 34//23
f 13//26 36//27 35//25
f 14//28 37//29 36//27
f 15//30 38//31 37//29
f 16//32 39//33 38//31
f 18//34 39//33 17//35
f 19//36 40//37 18//34
f 20//38 41//39 19//36
f 21//40 42//41 20//38
f 22//42 43//43 21//40
f 24//5 45//44 23//2
f 25//7 46//45 24//5
f 26//9 47//46 25//7
f 27//11 48//47 26//9
f 28//13 49//48 27//11
f 28//13 51//49 50//50
f 29//12 52//51 51//49
f 30//15 53//52 52//51
f 31//17 54//53 53//52
f 32//19 55//54 54//53
f 33//21 56//55 55//54
f 34//23 57//56 56//55
f 35//25 58//57 57//56
f 36//27 59//58 58//57
f 37//29 60//59 59//58
f 38//31 61//60 60//59
f 40//37 61//60 39//33
f 41//39 62//61 40//37
f 42//41 63//62 41//39
f 43//43 64//63 42//41
f 44//64 65//65 43//43
f 46//45 67//66 45//44
f 47//46 68//67 46//45
f 48//47 69//68 47//46
f 49//48 70//69 48//47
f 50//50 71//70 49//48
f 50//50 73//71 72//72
f 51//49 74//73 73//71
f 52//51 75//74 74//73
f 53//52 76//75 75//74
f 54//53 77//76 76//75
f 55//54 78//77 77//76
f 57//56 78//77 56//55
f 58//57 79//78 57//56
f 59//58 80//79 58//57
f 60//59 81//80 59//58
f 61//60 82//81 60//59
f 61//60 84//82 83//83
f 62//61 85//84 84//82
f 63//62 86//85 85//84
f 64//63 87//86 86//85
f 66//87 87//86 65//65
f 68//67 89//88 67//66
f 69//68 90//89 68//67
f 70//69 91//90 69//68
f 71//70 92//91 70//69
f 71//70 94//92 93//93
f 73//71 94//92 72//72
f 74//73 95//94 73//71
f 75//74 96//95 74//73
f 76//75 97//96 75//74
f 77//76 98//97 76//75
f 78//77 99//98 77//76
f 79//78 100//99 78//77
f 80//79 101//100 79//78
f 81//80 102//101 80//79
f 82//81 103//102 81//80
f 83//83 104//103 82//81
f 83//83 106//104 105//105
f 84//82 107//106 106//104
f 85//84 108//107 107//106
f 86//85 109//108 108//107
f 87//86 110//109 109//108
f 90//89 111//110 89//88
f 91//90 112//111 90//89
f 92//91 113//112 91//90
f 92//91 115//113 114//114
f 94//92 115//113 93//93
f 95//94 116//115 94//92
f 96//95 117//116 95//94
f 97//96 118//117 96//95
f 98//97 119//118 97//96
f 99//98 120//119 98//97
f 100//99 121//120 99//98
f 101//100 122//121 100//99
f 102//101 123//122 101//100
f 103//102 124//123 102//101
f 104//103 125//124 103//102
f 105//105 126//125 104//103
f 105//105 128//126 127//127
f 106//104 129//128 128//126
f 107//106 130//129 129//128
f 108//107 131//130 130//129
f 109//108 132//131 131//130
f 111//110 134//132 133//133
f 112//111 135//134 134//132
f 114//114 135//134 113//112
f 114//114 137//135 136//136
f 116//115 137//135 115//113
f 117//116 138//137 116//115
f 118//117 139//138 117//116
f 119//118 140//139 118//117
f 120//119 141//140 119//118
f 121//120 142//141 120//119
f 122//121 143//142 121//120
f 123//122 144//143 122//121
f 124//123 145//144 123//122
f 125//124 146//145 124//123
f 126//125 147//146 125//124
f 126//125 149//147 148//148
f 127//127 150//149 149//147
f 128//126 151//150 150//149
f 129//128 152//151 151//150
f 130//129 153//152 152//151
f 131//130 154//153 153//152
f 133//133 156//154 155//155
f 134//132 157//156 156//154
f 135//134 158//157 157//156
f 137//135 158//157 136//136
f 138//137 159//158 137//135
f 139//138 160//159 138//137
f 140//139 161//160 139//138
f 141//140 162//161 140//139
f 142//141 163//162 141//140
f 143//142 164//163 142//141
f 144//143 165//164 143//142
f 145//144 166//165 144//143
f 145//144 168//166 167//167
f 146//145 169//168 168//166
f 147//146 170//169 169//168
f 149//147 170//169 148//148
f 150//149 171//170 149//147
f 151//150 172//171 150//149
f 152//151 173//172 151//150
f 153//152 174//173 152//151
f 153//152 176//174 175//175
f 155//155 178//176 177//177
f 156//154 179//178 178//176
f 157//156 180//179 179//178
f 159//158 180//179 158//157
f 160//159 181//180 159//158
f 161//160 182//181 160//159
f 162//161 183//182 161//160
f 163//162 184//183 162//161
f 164//163 185//184 163//162
f 165//164 186//185 164//163
f 166//165 187//186 165//164
f 166//165 189//187 188//188
f 167//167 190//189 189//187
f 168//166 191//190 190//189
f 169//168 192//191 191//190
f 171//170 192//191 170//169
f 172//171 193//192 171//170
f 173//172 194//193 172//171
f 174//173 195//194 173//172
f 175//175 196//195 174//173
f 176//174 197//196 175//175
f 177//177 200//197 199//198
f 178//176 201//199 200//197
f 179//178 202//200 201//199
f 181//180 202//200 180//179
f 182//181 203//201 181//180
f 183//182 204//202 182//181
f 184//183 205//203 183//182
f 185//184 206//204 184//183
f 186//185 207//205 185//184
f 187//186 208//206 186//185
f 188//188 209//207 187//186
f 188//188 211//208 210//209
f 189//187 212//210 211//208
f 190//189 213//211 212//210
f 191//190 214//212 213//211
f 193//192 214//212 192//191
f 194//193 215//213 193//192
f 195//194 216//214 194//193
f 196//195 217//215 195//194
f 197//196 218//216 196//195
f 198//217 219//218 197//196
f 199//198 222//219 221//220
f 200//197 223//221 222//219
f 201//199 224//222 223//221
f 203//201 224//222 202//200
f 204//202 225//223 203//201
f 205//203 226//224 204//202
f 206//204 227//225 205//203
f 207//205 228//226 206//204
f 208//206 229//227 207//205
f 209//207 230//228 208//206
f 210//209 231//229 209//207
f 210//209 233//230 232//231
f 211//208 234//232 233//230
f 212//210 235//233 234//232
f 213//211 236//234 235//233
f 215//213 236//234 214//212
f 216//214 237//235 215//213
f 217//215 238//236 216//214
f 218//216 239//237 217//215
f 219//218 240//238 218//216
f 220//239 241//240 219//218
f 221//220 244//241 243//242
f 222//219 245//243 244//241
f 223//221 246//244 245//243
f 225//223 246//244 224//222
f 226//224 247//245 225//223
f 227//225 248//246 226//224
f 228//226 249//247 227//225
f 229//227 250//248 228//226
f 230//228 251//249 229//227
f 231//229 252//250 230//228
f 232//231 253//251 231//229
f 233//230 254//252 232//231
f 234//232 255//253 233//230
f 235//233 256//254 234//232
f 236//234 257//255 235//233
f 237//235 258//256 236//234
f 238//236 259//257 237//235
f 239//237 260//258 238//236
f 240//238 261//259 239//237
f 241//240 262//260 240//238
f 242//261 263//262 241//240
f 243//242 266//263 265//264
f 244//241 267//265 266//263
f 246//244 267//265 245//243
f 247//245 268//266 246//244
f 248//246 269//267 247//245
f 249//247 270//268 248//246
f 250//248 271//269 249//247
f 250//248 273//270 272//271
f 251//249 274//272 273//270
f 252//250 275//273 274//272
f 254//252 275//273 253//251
f 255//253 276//274 254//252
f 256//254 277//275 255//253
f 257//255 278//276 256//254
f 258//256 279//277 257//255
f 259//257 280//278 258//256
f 259//257 282//279 281//280
f 260//258 283//281 282//279
f 261//259 284//282 283//281
f 262//260 285//283 284//282
f 263//262 286//284 285//283
f 265//264 288//285 287//286
f 266//263 289//287 288//285
f 268//266 289//287 267//265
f 269//267 290//288 268//266
f 270//268 291//289 269//267
f 271//269 292//290 270//268
f 271//269 294//291 293//292
f 272//271 295//293 294//291
f 273//270 296//294 295//293
f 274//272 297//295 296//294
f 276//274 297//295 275//273
f 277//275 298//296 276//274
f 278//276 299//297 277//275
f 279//277 300//298 278//276
f 280//278 301//299 279//277
f 281//280 302//300 280//278
f 281//280 304//301 303//302
f 282//279 305//303 304//301
f 283//281 306//304 305//303
f 284//282 307//305 306//304
f 285//283 308//306 307//305
f 287//286 310//307 309//308
f 288//285 311//309 310//307
f 290//288 311//309 289//287
f 291//289 312//310 290//288
f 292//290 313//311 291//289
f 293//292 314//312 292//290
f 293//292 316//313 315//314
f 294//291 317//315 316//313
f 295//293 318//316 317//315
f 296//294 319//317 318//316
f 298//296 319//317 297//295
f 299//297 320//318 298//296
f 300//298 321//319 299//297
f 301//299 322//320 300//298
f 302//300 323//321 301//299
f 302//300 325//322 324//323
f 303//302 326//324 325//322
f 304//301 327//325 326//324
f 305//303 328//326 327//325
f 306//304 329//327 328//326
f 307//305 330//328 329//327
f 309//308 332//329 331//330
f 310//307 333//331 332//329
f 312//310 333//331 311//309
f 313//311 334//332 312//310
f 314//312 335//333 313//311
f 315//314 336//334 314//312
f 315//314 338//335 337//336
f 316//313 339//337 338//335
f 317//315 340//338 339//337
f 318//316 341//339 340//338
f 320//318 341//339 319//317
f 321//319 342//340 320//318
f 322//320 343//341 321//319
f 323//321 344//342 322//320
f 324//323 345//343 323//321
f 324//323 347//344 346//345
f 325//322 348//346 347//344
f 326//324 349//347 348//346
f 327//325 350//348 349//347
f 328//326 351//349 350//348
f 329//327 352//350 351//349
f 331//330 354//351 353//352
f 332//329 355//353 354//351
f 334//332 355//353 333//331
f 335//333 356//354 334//332
f 336//334 357//355 335//333
f 337//336 358//356 336//334
f 337//336 360//357 359//358
f 338//335 361//359 360//357
f 339//337 362//360 361//359
f 341//339 362//360 340//338
f 342//340 363//361 341//339
f 343//341 364//362 342//340
f 344//342 365//363 343//341
f 345//343 366//364 344//342
f 346//345 367//365 345//343
f 347//344 368//366 346//345
f 347//344 370//367 369//368
f 348//346 371//369 370//367
f 349//347 372//370 371//369
f 350//348 373//371 372//370
f 351//349 374//372 373//371
f 354//351 375//373 353//352
f 355//353 376//374 354//351
f 355//353 378//375 377//376
f 356//354 379//377 378//375
f 357//355 380//378 379//377
f 358//356 381//379 380//378
f 360//357 381//379 359//358
f 361//359 382//380 360//357
f 362//360 383//381 361//359
f 363//361 384//382 362//360
f 364//362 385//383 363//361
f 365//363 386//384 364//362
f 365//363 388//385 387//386
f 366//364 389//387 388//385
f 367//365 390//388 389//387
f 368//366 391//389 390//388
f 370//367 391//389 369//368
f 371//369 392//390 370//367
f 372//370 393//391 371//369
f 373//371 394//392 372//370
f 374//372 395//393 373//371
f 376//374 397//394 375//373
f 377//376 398//395 376//374
f 377//376 400//396 399//397
f 378//375 401//398 400//396
f 379//377 402//399 401//398
f 380//378 403//400 402//399
f 382//380 403//400 381//379
f 383//381 404//401 382//380
f 384//382 405//402 383//381
f 385//383 406//403 384//382
f 386//384 407//404 385//383
f 386//384 409//405 408//406
f 387//386 410//407 409//405
f 388//385 411//408 410//407
f 389//387 412//409 411//408
f 390//388 413//410 412//409
f 392//390 413//410 391//389
f 393//391 414//411 392//390
f 394//392 415//412 393//391
f 395//393 416//413 394//392
f 396//414 417//415 395//393
f 398//395 419//416 397//394
f 399//397 420//417 398//395
f 399//397 422//418 421//419
f 400//396 423//420 422//418
f 401//398 424//421 423//420
f 402//399 425//422 424//421
f 404//401 425//422 403//400
f 405//402 426//423 404//401
f 406//403 427//424 405//402
f 407//404 428//425 406//403
f 407//404 430//426 429//427
f 408//406 431//428 430//426
f 409//405 432//429 431//428
f 410//407 433//430 432//429
f 411//408 434//431 433//430
f 412//409 435//432 434//431
f 414//411 435//432 413//410
f 415//412 436//433 414//411
f 416//413 437//434 415//412
f 417//415 438//435 416//413
f 418//436 439//437 417//415
f 420//417 441//438 419//416
f 421//419 442//439 420//417
f 421//419 444//440 443//441
f 422//418 445//442 444//440
f 423//420 446//443 445//442
f 424//421 447//444 446//443
f 426//423 447//444 425//422
f 427//424 448//445 426//423
f 428//425 449//446 427//424
f 429//427 450//447 428//425
f 429//427 452//448 451//449
f 430//426 453//450 452//448
f 431//428 454//451 453//450
f 432//429 455//452 454//451
f 433//430 456//453 455//452
f 434//431 457//454 456//453
f 436//433 457//454 435//432
f 437//434 458//455 436//433
f 438//435 459//456 437//434
f 439//437 460//457 438//435
f 440//458 461//459 439//437
f 442//439 463//460 441//438
f 443//441 464//461 442//439
f 444//440 465//462 443//441
f 444//440 467//463 466//464
f 445//442 468//465 467//463
f 446//443 469//466 468//465
f 447//444 470//467 469//466
f 449//446 470//467 448//445
f 450//447 471//468 449//446
f 451//449 472//469 450//447
f 451//449 474//470 473//471
f 452//448 475//472 474//470
f 453//450 476//473 475//472
f 454//451 477//474 476//473
f 455//452 478//475 477//474
f 456//453 479//476 478//475
f 458//455 479//476 457//454
f 459//456 480//477 458//455
f 460//457 481//478 459//456
f 461//459 482//479 460//457
f 462//480 483//481 461//459
s 0
f 485//482 2//482 1//482
f 486//482 3//482 2//482
f 487//482 4//482 3//482
f 488//482 5//482 4//482
f 489//482 6//482 5//482
f 490//482 7//482 6//482
f 491//482 8//482 7//482
f 492//482 9//482 8//482
f 493//482 10//482 9//482
f 494//482 11//482 10//482
f 495//482 12//482 11//482
f 496//482 13//482 12//482
f 13//482 498//482 14//482
f 14//482 499//482 15//482
f 15//482 500//482 16//482
f 16//482 501//482 17//482
f 17//482 502//482 18//482
f 18//482 503//482 19//482
f 19//482 504//482 20//482
f 20//482 505//482 21//482
f 21//482 506//482 22//482
f 22//483 507//483 44//483
f 44//483 508//483 66//483
f 66//483 509//483 88//483
f 509//483 110//483 88//483
f 510//483 132//483 110//483
f 511//483 154//483 132//483
f 512//483 176//483 154//483
f 513//483 198//483 176//483
f 198//483 515//483 220//483
f 220//483 516//483 242//483
f 242//483 517//483 264//483
f 264//483 518//483 286//483
f 518//483 308//483 286//483
f 519//483 330//483 308//483
f 520//483 352//483 330//483
f 521//483 374//483 352//483
f 522//483 396//483 374//483
f 523//483 418//483 396//483
f 524//483 440//483 418//483
f 525//483 462//483 440//483
f 526//483 484//483 462//483
f 527//484 483//484 484//484
f 528//484 482//484 483//484
f 529//484 481//484 482//484
f 530//484 480//484 481//484
f 531//484 479//484 480//484
f 532//484 478//484 479//484
f 533//484 477//484 478//484
f 534//484 476//484 477//484
f 535//484 475//484 476//484
f 536//484 474//484 475//484
f 537//484 473//484 474//484
f 538//484 472//484 473//484
f 539//484 471//484 472//484
f 540//484 470//484 471//484
f 470//484 542//484 469//484
f 469//484 543//484 468//484
f 468//484 544//484 467//484
f 467//484 545//484 466//484
f 545//484 465//484 466//484
f 546//484 464//484 465//484
f 547//484 463//484 464//484
f 548//485 441//485 463//485
f 549//485 419//485 441//485
f 550//485 397//485 419//485
f 551//485 375//485 397//485
f 552//485 353//485 375//485
f 553//485 331//485 353//485
f 554//485 309//485 331//485
f 555//485 287//485 309//485
f 556//485 265//485 287//485
f 557//485 243//485 265//485
f 558//485 221//485 243//485
f 559//485 199//485 221//485
f 199//485 561//485 177//485
f 177//485 562//485 155//485
f 155//485 563//485 133//485
f 133//485 564//485 111//485
f 111//485 565//485 89//485
f 89//485 566//485 67//485
f 67//485 567//485 45//485
f 45//485 568//485 23//485
f 568//485 1//485 23//485
f 569//486 486//486 485//486
f 569//487 487//487 486//487
f 569//488 488//488 487//488
f 569//489 489//489 488//489
f 569//490 490//490 489//490
f 569//491 491//491 490//491
f 569//492 492//492 491//492
f 569//493 493//493 492//493
f 569//494 494//494 493//494
f 569//495 495//495 494//495
f 569//496 496//496 495//496
f 569//497 497//497 496//497
f 569//498 498//498 497//498
f 569//499 499//499 498//499
f 569//500 500//500 499//500
f 569//501 501//501 500//501
f 569//502 502//502 501//502
f 569//503 503//503 502//503
f 569//504 504//504 503//504
f 569//505 505//505 504//505
f 569//506 506//506 505//506
f 569//507 507//507 506//507
f 569//508 508//508 507//508
f 569//509 509//509 508//509
f 569//510 510//510 509//510
f 569//511 511//511 510//511
f 569//512 512//512 511//512
f 569//513 513//513 512//513
f 569//514 514//514 513//514
f 569//515 515//515 514//515
f 569//515 516//515 515//515
f 569//515 517//515 516//515
f 569//515 518//515 517//515
f 569//515 519//515 518//515
f 569//515 520//515 519//515
f 569//515 521//515 520//515
f 569//515 522//515 521//515
f 569//515 523//515 522//515
f 569//515 524//515 523//515
f 569//515 525//515 524//515
f 569//515 526//515 525//515
f 569//515 527//515 526//515
f 569//515 528//515 527//515
f 569//515 529//515 528//515
f 569//515 530//515 529//515
f 569//515 531//515 530//515
f 569//515 532//515 531//515
f 569//515 533//515 532//515
f 569//515 534//515 533//515
f 569//515 535//515 534//515
f 569//515 536//515 535//515
f 569//515 537//515 536//515
f 569//515 538//515 537//515
f 569//516 539//516 538//516
f 569//517 540//517 539//517
f 569//518 541//518 540//518
f 569//519 542//519 541//519
f 569//520 543//520 542//520
f 569//521 544//521 543//521
f 569//522 545//522 544//522
f 569//523 546//523 545//523
f 569//524 547//524 546//524
f 569//525 548//525 547//525
f 569//526 549//526 548//526
f 569//527 550//527 549//527
f 569//528 551//528 550//528
f 569//529 552//529 551//529
f 569//530 553//530 552//530
f 569//531 554//531 553//531
f 569//532 555//532 554//532
f 569//533 556//533 555//533
f 569//534 557//534 556//534
f 569//535 558//535 557//535
f 569//536 559//536 558//536
f 569//537 560//537 559//537
f 569//538 561//538 560//538
f 569//539 562//539 561//539
f 569//540 563//540 562//540
f 569//541 564//541 563//541
f 569//542 565//542 564//542
f 569//543 566//543 565//543
f 569//544 567//544 566//544
f 569//545 568//545 567//545
f 569//546 485//546 568//546
s 1
f 2//1 24//5 23//2
f 3//4 25//7 24//5
f 4//6 26//9 25//7
f 5//8 27//11 26//9
f 6//10 28//13 27//11
f 6//10 7//14 29//12
f 7//14 8//16 30//15
f 8//16 9//18 31//17
f 9//18 10//20 32//19
f 10//20 11//22 33//21
f 11//22 12//24 34//23
f 12//24 13//26 35//25
f 13//26 14//28 36//27
f 14//28 15//30 37//29
f 15//30 16//32 38//31
f 16//32 17//35 39//33
f 18//34 40//37 39//33
f 19//36 41//39 40//37
f 20//38 42//41 41//39
f 21//40 43//43 42//41
f 22//42 44//64 43//43
f 24//5 46//45 45//44
f 25//7 47//46 46//45
f 26//9 48//47 47//46
f 27//11 49//48 48//47
f 28//13 50//50 49//48
f 28//13 29//12 51//49
f 29//12 30//15 52//51
f 30//15 31//17 53//52
f 31//17 32//19 54//53
f 32//19 33//21 55//54
f 33//21 34//23 56//55
f 34//23 35//25 57//56
f 35//25 36//27 58//57
f 36//27 37//29 59//58
f 37//29 38//31 60//59
f 38//31 39//33 61//60
f 40//37 62//61 61//60
f 41//39 63//62 62//61
f 42//41 64//63 63//62
f 43//43 65//65 64//63
f 44//64 66//87 65//65
f 46//45 68//67 67//66
f 47//46 69//68 68//67
f 48//47 70//69 69//68
f 49//48 71//70 70//69
f 50//50 72//72 71//70
f 50//50 51//49 73//71
f 51//49 52//51 74//73
f 52//51 53//52 75//74
f 53//52 54//53 76//75
f 54//53 55//54 77//76
f 55//54 56//55 78//77
f 57//56 79//78 78//77
f 58//57 80//79 79//78
f 59//58 81//80 80//79
f 60//59 82//81 81//80
f 61//60 83//83 82//81
f 61//60 62//61 84//82
f 62//61 63//62 85//84
f 63//62 64//63 86//85
f 64//63 65//65 87//86
f 66//87 88//547 87//86
f 68//67 90//89 89//88
f 69//68 91//90 90//89
f 70//69 92//91 91//90
f 71//70 93//93 92//91
f 71//70 72//72 94//92
f 73//71 95//94 94//92
f 74//73 96//95 95//94
f 75//74 97//96 96//95
f 76//75 98//97 97//96
f 77//76 99//98 98//97
f 78//77 100//99 99//98
f 79//78 101//100 100//99
f 80//79 102//101 101//100
f 81//80 103//102 102//101
f 82//81 104//103 103//102
f 83//83 105//105 104//103
f 83//83 84//82 106//104
f 84//82 85//84 107//106
f 85//84 86//85 108//107
f 86//85 87//86 109//108
f 87//86 88//547 110//109
f 90//89 112//111 111//110
f 91//90 113//112 112//111
f 92//91 114//114 113//112
f 92//91 93//93 115//113
f 94//92 116//115 115//113
f 95//94 117//116 116//115
f 96//95 118//117 117//116
f 97//96 119//118 118//117
f 98//97 120//119 119//118
f 99//98 121//120 120//119
f 100//99 122//121 121//120
f 101//100 123//122 122//121
f 102//101 124//123 123//122
f 103//102 125//124 124//123
f 104//103 126//125 125//124
f 105//105 127//127 126//125
f 105//105 106//104 128//126
f 106//104 107//106 129//128
f 107//106 108//107 130//129
f 108//107 109//108 131//130
f 109//108 110//109 132//131
f 111//110 112//111 134//132
f 112//111 113//112 135//134
f 114//114 136//136 135//134
f 114//114 115//113 137//135
f 116//115 138//137 137//135
f 117//116 139//138 138//137
f 118//117 140//139 139//138
f 119//118 141//140 140//139
f 120//119 142//141 141//140
f 121//120 143//142 142//141
f 122//121 144//143 143//142
f 123//122 145//144 144//143
f 124//123 146//145 145//144
f 125//124 147//146 146//145
f 126//125 148//148 147//146
f 126//125 127//127 149//147
f 127//127 128//126 150//149
f 128//126 129//128 151//150
f 129//128 130//129 152//151
f 130//129 131//130 153//152
f 131//130 132//131 154//153
f 133//133 134//132 156//154
f 134//132 135//134 157//156
f 135//134 136//136 158//157
f 137//135 159//158 158//157
f 138//137 160//159 159//158
f 139//138 161//160 160//159
f 140//139 162//161 161//160
f 141//140 163//162 162//161
f 142//141 164//163 163//162
f 143//142 165//164 164//163
f 144//143 166//165 165//164
f 145//144 167//167 166//165
f 145//144 146//145 168//166
f 146//145 147//146 169//168
f 147//146 148//148 170//169
f 149//147 171//170 170//169
f 150//149 172//171 171//170
f 151//150 173//172 172//171
f 152//151 174//173 173//172
f 153//152 175//175 174//173
f 153//152 154//153 176//174
f 155//155 156//154 178//176
f 156//154 157//156 179//178
f 157//156 158//157 180//179
f 159//158 181//180 180//179
f 160//159 182//181 181//180
f 161//160 183//182 182//181
f 162//161 184//183 183//182
f 163//162 185//184 184//183
f 164//163 186//185 185//184
f 165//164 187//186 186//185
f 166//165 188//188 187//186
f 166//165 167//167 189//187
f 167//167 168//166 190//189
f 168//166 169//168 191//190
f 169//168 170//169 192//191
f 171//170 193//192 192//191
f 172//171 194//193 193//192
f 173//172 195//194 194//193
f 174//173 196//195 195//194
f 175//175 197//196 196//195
f 176//174 198//217 197//196
f 177//177 178//176 200//197
f 178//176 179//178 201//199
f 179//178 180//179 202//200
f 181//180 203//201 202//200
f 182//181 204//202 203//201
f 183//182 205//203 204//202
f 184//183 206//204 205//203
f 185//184 207//205 206//204
f 186//185 208//206 207//205
f 187//186 209//207 208//206
f 188//188 210//209 209//207
f 188//188 189//187 211//208
f 189//187 190//189 212//210
f 190//189 191//190 213//211
f 191//190 192//191 214//212
f 193//192 215//213 214//212
f 194//193 216//214 215//213
f 195//194 217//215 216//214
f 196//195 218//216 217//215
f 197//196 219//218 218//216
f 198//217 220//239 219//218
f 199//198 200//197 222//219
f 200//197 201//199 223//221
f 201//199 202//200 224//222
f 203//201 225//223 224//222
f 204//202 226//224 225//223
f 205//203 227//225 226//224
f 206//204 228//226 227//225
f 207//205 229//227 228//226
f 208//206 230//228 229//227
f 209//207 231//229 230//228
f 210//209 232//231 231//229
f 210//209 211//208 233//230
f 211//208 212//210 234//232
f 212//210 213//211 235//233
f 213//211 214//212 236//234
f 215//213 237//235 236//234
f 216//214 238//236 237//235
f 217//215 239//237 238//236
f 218//216 240//238 239//237
f 219//218 241//240 240//238
f 220//239 242//261 241//240
f 221//220 222//219 244//241
f 222//219 223//221 245//243
f 223//221 224//222 246//244
f 225//223 247//245 246//244
f 226//224 248//246 247//245
f 227//225 249//247 248//246
f 228//226 250//248 249//247
f 229//227 251//249 250//248
f 230//228 252//250 251//249
f 231//229 253//251 252//250
f 232//231 254//252 253//251
f 233//230 255//253 254//252
f 234//232 256//254 255//253
f 235//233 257//255 256//254
f 236//234 258//256 257//255
f 237//235 259//257 258//256
f 238//236 260//258 259//257
f 239//237 261//259 260//258
f 240//238 262//260 261//259
f 241//240 263//262 262//260
f 242//261 264//548 263//262
f 243//242 244//241 266//263
f 244//241 245//243 267//265
f 246//244 268//266 267//265
f 247//245 269//267 268//266
f 248//246 270//268 269//267
f 249//247 271//269 270//268
f 250//248 272//271 271//269
f 250//248 251//249 273//270
f 251//249 252//250 274//272
f 252//250 253//251 275//273
f 254//252 276//274 275//273
f 255//253 277//275 276//274
f 256//254 278//276 277//275
f 257//255 279//277 278//276
f 258//256 280//278 279//277
f 259//257 281//280 280//278
f 259//257 260//258 282//279
f 260//258 261//259 283//281
f 261//259 262//260 284//282
f 262//260 263//262 285//283
f 263//262 264//548 286//284
f 265//264 266//263 288//285
f 266//263 267//265 289//287
f 268//266 290//288 289//287
f 269//267 291//289 290//288
f 270//268 292//290 291//289
f 271//269 293//292 292//290
f 271//269 272//271 294//291
f 272//271 273//270 295//293
f 273//270 274//272 296//294
f 274//272 275//273 297//295
f 276//274 298//296 297//295
f 277//275 299//297 298//296
f 278//276 300//298 299//297
f 279//277 301//299 300//298
f 280//278 302//300 301//299
f 281//280 303//302 302//300
f 281//280 282//279 304//301
f 282//279 283//281 305//303
f 283//281 284//282 306//304
f 284//282 285//283 307//305
f 285//283 286//284 308//306
f 287//286 288//285 310//307
f 288//285 289//287 311//309
f 290//288 312//310 311//309
f 291//289 313//311 312//310
f 292//290 314//312 313//311
f 293//292 315//314 314//312
f 293//292 294//291 316//313
f 294//291 295//293 317//315
f 295//293 296//294 318//316
f 296//294 297//295 319//317
f 298//296 320//318 319//317
f 299//297 321//319 320//318
f 300//298 322//320 321//319
f 301//299 323//321 322//320
f 302//300 324//323 323//321
f 302//300 303//302 325//322
f 303//302 304//301 326//324
f 304//301 305//303 327//325
f 305//303 306//304 328//326
f 306//304 307//305 329//327
f 307//305 308//306 330//328
f 309//308 310//307 332//329
f 310//307 311//309 333//331
f 312//310 334//332 333//331
f 313//311 335//333 334//332
f 314//312 336//334 335//333
f 315//314 337//336 336//334
f 315//314 316//313 338//335
f 316//313 317//315 339//337
f 317//315 318//316 340//338
f 318//316 319//317 341//339
f 320//318 342//340 341//339
f 321//319 343//341 342//340
f 322//320 344//342 343//341
f 323//321 345//343 344//342
f 324//323 346//345 345//343
f 324//323 325//322 347//344
f 325//322 326//324 348//346
f 326//324 327//325 349//347
f 327//325 328//326 350//348
f 328//326 329//327 351//349
f 329//327 330//328 352//350
f 331//330 332//329 354//351
f 332//329 333//331 355//353
f 334//332 356//354 355//353
f 335//333 357//355 356//354
f 336//334 358//356 357//355
f 337//336 359//358 358//356
f 337//336 338//335 360//357
f 338//335 339//337 361//359
f 339//337 340//338 362//360
f 341//339 363//361 362//360
f 342//340 364//362 363//361
f 343//341 365//363 364//362
f 344//342 366//364 365//363
f 345//343 367//365 366//364
f 346//345 368//366 367//365
f 347//344 369//368 368//366
f 347//344 348//346 370//367
f 348//346 349//347 371//369
f 349//347 350//348 372//370
f 350//348 351//349 373//371
f 351//349 352//350 374//372
f 354//351 376//374 375//373
f 355//353 377//376 376//374
f 355//353 356//354 378//375
f 356//354 357//355 379//377
f 357//355 358//356 380//378
f 358//356 359//358 381//379
f 360//357 382//380 381//379
f 361//359 383//381 382//380
f 362//360 384//382 383//381
f 363//361 385//383 384//382
f 364//362 386//384 385//383
f 365//363 387//386 386//384
f 365//363 366//364 388//385
f 366//364 367//365 389//387
f 367//365 368//366 390//388
f 368//366 369//368 391//389
f 370//367 392//390 391//389
f 371//369 393//391 392//390
f 372//370 394//392 393//391
f 373//371 395//393 394//392
f 374//372 396//414 395//393
f 376//374 398//395 397//394
f 377//376 399//397 398//395
f 377//376 378//375 400//396
f 378//375 379//377 401//398
f 379//377 380//378 402//399
f 380//378 381//379 403//400
f 382//380 404//401 403//400
f 383//381 405//402 404//401
f 384//382 406//403 405//402
f 385//383 407//404 406//403
f 386//384 408//406 407//404
f 386//384 387//386 409//405
f 387//386 388//385 410//407
f 388//385 389//387 411//408
f 389//387 390//388 412//409
f 390//388 391//389 413//410
f 392//390 414//411 413//410
f 393//391 415//412 414//411
f 394//392 416//413 415//412
f 395//393 417//415 416//413
f 396//414 418//436 417//415
f 398//395 420//417 419//416
f 399//397 421//419 420//417
f 399//397 400//396 422//418
f 400//396 401//398 423//420
f 401//398 402//399 424//421
f 402//399 403//400 425//422
f 404//401 426//423 425//422
f 405//402 427//424 426//423
f 406//403 428//425 427//424
f 407//404 429//427 428//425
f 407//404 408//406 430//426
f 408//406 409//405 431//428
f 409//405 410//407 432//429
f 410//407 411//408 433//430
f 411//408 412//409 434//431
f 412//409 413//410 435//432
f 414//411 436//433 435//432
f 415//412 437//434 436//433
f 416//413 438//435 437//434
f 417//415 439//437 438//435
f 418//436 440//458 439//437
f 420//417 442//439 441//438
f 421//419 443//441 442//439
f 421//419 422//418 444//440
f 422//418 423//420 445//442
f 423//420 424//421 446//443
f 424//421 425//422 447//444
f 426//423 448//445 447//444
f 427//424 449//446 448//445
f 428//425 450//447 449//446
f 429//427 451//449 450//447
f 429//427 430//426 452//448
f 430//426 431//428 453//450
f 431//428 432//429 454//451
f 432//429 433//430 455//452
f 433//430 434//431 456//453
f 434//431 435//432 457//454
f 436//433 458//455 457//454
f 437//434 459//456 458//455
f 438//435 460//457 459//456
f 439//437 461//459 460//457
f 440//458 462//480 461//459
f 442//439 464//461 463//460
f 443//441 465//462 464//461
f 444//440 466//464 465//462
f 444//440 445//442 467//463
f 445//442 446//443 468//465
f 446//443 447//444 469//466
f 447//444 448//445 470//467
f 449//446 471//468 470//467
f 450//447 472//469 471//468
f 451//449 473//471 472//469
f 451//449 452//448 474//470
f 452//448 453//450 475//472
f 453//450 454//451 476//473
f 454//451 455//452 477//474
f 455//452 456//453 478//475
f 456//453 457//454 479//476
f 458//455 480//477 479//476
f 459//456 481//478 480//477
f 460//457 482//479 481//478
f 461//459 483//481 482//479
f 462//480 484//3 483//481
s 0
f 485//482 486//482 2//482
f 486//482 487//482 3//482
f 487//482 488//482 4//482
f 488//482 489//482 5//482
f 489//482 490//482 6//482
f 490//482 491//482 7//482
f 491//482 492//482 8//482
f 492//482 493//482 9//482
f 493//482 494//482 10//482
f 494//482 495//482 11//482
f 495//482 496//482 12//482
f 496//482 497//482 13//482
f 13//482 497//482 498//482
f 14//482 498//482 499//482
f 15//482 499//482 500//482
f 16//482 500//482 501//482
f 17//482 501//482 502//482
f 18//482 502//482 503//482
f 19//482 503//482 504//482
f 20//482 504//482 505//482
f 21//482 505//482 506//482
f 22//483 506//483 507//483
f 44//483 507//483 508//483
f 66//483 508//483 509//483
f 509//483 510//483 110//483
f 510//483 511//483 132//483
f 511//483 512//483 154//483
f 512//483 513//483 176//483
f 513//483 514//483 198//483
f 198//483 514//483 515//483
f 220//483 515//483 516//483
f 242//483 516//483 517//483
f 264//483 517//483 518//483
f 518//483 519//483 308//483
f 519//483 520//483 330//483
f 520//483 521//483 352//483
f 521//483 522//483 374//483
f 522//483 523//483 396//483
f 523//483 524//483 418//483
f 524//483 525//483 440//483
f 525//483 526//483 462//483
f 526//483 527//483 484//483
f 527//484 528//484 483//484
f 528//484 529//484 482//484
f 529//484 530//484 481//484
f 530//484 531//484 480//484
f 531//484 532//484 479//484
f 532//484 533//484 478//484
f 533//484 534//484 477//484
f 534//484 535//484 476//484
f 535//484 536//484 475//484
f 536//484 537//484 474//484
f 537//484 538//484 473//484
f 538//484 539//484 472//484
f 539//484 540//484 471//484
f 540//484 541//484 470//484
f 470//484 541//484 542//484
f 469//484 542//484 543//484
f 468//484 543//484 544//484
f 467//484 544//484 545//484
f 545//484 546//484 465//484
f 546//484 547//484 464//484
f 547//484 548//484 463//484
f 548//485 549//485 441//485
f 549//485 550//485 419//485
f 550//485 551//485 397//485
f 551//485 552//485 375//485
f 552//485 553//485 353//485
f 553//485 554//485 331//485
f 554//485 555//485 309//485
f 555//485 556//485 287//485
f 556//485 557//485 265//485
f 557//485 558//485 243//485
f 558//485 559//485 221//485
f 559//485 560//485 199//485
f 199//485 560//485 561//485
f 177//485 561//485 562//485
f 155//485 562//485 563//485
f 133//485 563//485 564//485
f 111//485 564//485 565//485
f 89//485 565//485 566//485
f 67//485 566//485 567//485
f 45//485 567//485 568//485
f 568//485 485//485 1//485
