# Blender 5.2.0 LTS
# www.blender.org
o Soap_Tile
v -1.600000 0.000000 1.600000
v -1.447619 0.000000 1.600000
v -1.295238 0.000000 1.600000
v -1.142857 0.000000 1.600000
v -0.990476 0.000000 1.600000
v -0.838095 0.000000 1.600000
v -0.685714 0.000000 1.600000
v -0.533333 0.000000 1.600000
v -0.380952 0.000000 1.600000
v -0.228571 0.000000 1.600000
v -0.076190 0.000000 1.600000
v 0.076190 0.000000 1.600000
v 0.228571 0.000000 1.600000
v 0.380952 0.000000 1.600000
v 0.533333 0.000000 1.600000
v 0.685714 0.000000 1.600000
v 0.838095 0.000000 1.600000
v 0.990476 0.000000 1.600000
v 1.142857 0.000000 1.600000
v 1.295238 0.000000 1.600000
v 1.447619 0.000000 1.600000
v 1.600000 0.000000 1.600000
v -1.600000 0.000000 1.447619
v -1.447619 0.095613 1.447619
v -1.295238 0.096921 1.447619
v -1.142857 0.098170 1.447619
v -0.990476 0.099332 1.447619
v -0.838095 0.100381 1.447619
v -0.685714 0.101293 1.447619
v -0.533333 0.102049 1.447619
v -0.380952 0.102631 1.447619
v -0.228571 0.103027 1.447619
v -0.076190 0.103227 1.447619
v 0.076190 0.103227 1.447619
v 0.228571 0.103027 1.447619
v 0.380952 0.102631 1.447619
v 0.533333 0.102049 1.447619
v 0.685714 0.101293 1.447619
v 0.838095 0.100381 1.447619
v 0.990476 0.099332 1.447619
v 1.142857 0.098170 1.447619
v 1.295238 0.096921 1.447619
v 1.447619 0.095613 1.447619
v 1.600000 0.000000 1.447619
v -1.600000 0.000000 1.295238
v -1.447619 0.096921 1.295238
v -1.295238 0.327144 1.295238
v -1.142857 0.335265 1.295238
v -0.990476 0.342820 1.295238
v -0.838095 0.349640 1.295238
v -0.685714 0.355574 1.295238
v -0.533333 0.360488 1.295238
v -0.380952 0.364273 1.295238
v -0.228571 0.366844 1.295238
v -0.076190 0.368144 1.295238
v 0.076190 0.368144 1.295238
v 0.228571 0.366844 1.295238
v 0.380952 0.364273 1.295238
v 0.533333 0.360488 1.295238
v 0.685714 0.355574 1.295238
v 0.838095 0.349640 1.295238
v 0.990476 0.342820 1.295238
v 1.142857 0.335265 1.295238
v 1.295238 0.327144 1.295238
v 1.447619 0.096921 1.295238
v 1.600000 0.000000 1.295238
v -1.600000 0.000000 1.142857
v -1.447619 0.098170 1.142857
v -1.295238 0.335265 1.142857
v -1.142857 0.611958 1.142857
v -0.990476 0.631558 1.142857
v -0.838095 0.649252 1.142857
v -0.685714 0.664646 1.142857
v -0.533333 0.677395 1.142857
v -0.380952 0.687215 1.142857
v -0.228571 0.693886 1.142857
v -0.076190 0.697259 1.142857
v 0.076190 0.697259 1.142857
v 0.228571 0.693886 1.142857
v 0.380952 0.687215 1.142857
v 0.533333 0.677395 1.142857
v 0.685714 0.664646 1.142857
v 0.838095 0.649252 1.142857
v 0.990476 0.631558 1.142857
v 1.142857 0.611958 1.142857
v 1.295238 0.335265 1.142857
v 1.447619 0.098170 1.142857
v 1.600000 0.000000 1.142857
v -1.600000 0.000000 0.990476
v -1.447619 0.099332 0.990476
v -1.295238 0.342820 0.990476
v -1.142857 0.631558 0.990476
v -0.990476 0.844908 0.990476
v -0.838095 0.874451 0.990476
v -0.685714 0.900153 0.990476
v -0.533333 0.921440 0.990476
v -0.380952 0.937835 0.990476
v -0.228571 0.948973 0.990476
v -0.076190 0.954605 0.990476
v 0.076190 0.954605 0.990476
v 0.228571 0.948973 0.990476
v 0.380952 0.937835 0.990476
v 0.533333 0.921440 0.990476
v 0.685714 0.900153 0.990476
v 0.838095 0.874451 0.990476
v 0.990476 0.844908 0.990476
v 1.142857 0.631558 0.990476
v 1.295238 0.342820 0.990476
v 1.447619 0.099332 0.990476
v 1.600000 0.000000 0.990476
v -1.600000 0.000000 0.838095
v -1.447619 0.100381 0.838095
v -1.295238 0.349640 0.838095
v -1.142857 0.649252 0.838095
v -0.990476 0.874451 0.838095
v -0.838095 0.932812 0.838095
v -0.685714 0.964619 0.838095
v -0.533333 0.990962 0.838095
v -0.380952 1.011251 0.838095
v -0.228571 1.025035 0.838095
v -0.076190 1.032005 0.838095
v 0.076190 1.032005 0.838095
v 0.228571 1.025035 0.838095
v 0.380952 1.011251 0.838095
v 0.533333 0.990962 0.838095
v 0.685714 0.964619 0.838095
v 0.838095 0.932812 0.838095
v 0.990476 0.874451 0.838095
v 1.142857 0.649252 0.838095
v 1.295238 0.349640 0.838095
v 1.447619 0.100381 0.838095
v 1.600000 0.000000 0.838095
v -1.600000 0.000000 0.685714
v -1.447619 0.101293 0.685714
v -1.295238 0.355574 0.685714
v -1.142857 0.664646 0.685714
v -0.990476 0.900153 0.685714
v -0.838095 0.964619 0.685714
v -0.685714 1.001180 0.685714
v -0.533333 1.031460 0.685714
v -0.380952 1.054782 0.685714
v -0.228571 1.070626 0.685714
v -0.076190 1.078637 0.685714
v 0.076190 1.078637 0.685714
v 0.228571 1.070626 0.685714
v 0.380952 1.054782 0.685714
v 0.533333 1.031460 0.685714
v 0.685714 1.001180 0.685714
v 0.838095 0.964619 0.685714
v 0.990476 0.900153 0.685714
v 1.142857 0.664646 0.685714
v 1.295238 0.355574 0.685714
v 1.447619 0.101293 0.685714
v 1.600000 0.000000 0.685714
v -1.600000 0.000000 0.533333
v -1.447619 0.102049 0.533333
v -1.295238 0.360488 0.533333
v -1.142857 0.677395 0.533333
v -0.990476 0.921440 0.533333
v -0.838095 0.990962 0.533333
v -0.685714 1.031460 0.533333
v -0.533333 1.065000 0.533333
v -0.380952 1.090834 0.533333
v -0.228571 1.108384 0.533333
v -0.076190 1.117258 0.533333
v 0.076190 1.117258 0.533333
v 0.228571 1.108384 0.533333
v 0.380952 1.090834 0.533333
v 0.533333 1.065000 0.533333
v 0.685714 1.031460 0.533333
v 0.838095 0.990962 0.533333
v 0.990476 0.921440 0.533333
v 1.142857 0.677395 0.533333
v 1.295238 0.360488 0.533333
v 1.447619 0.102049 0.533333
v 1.600000 0.000000 0.533333
v -1.600000 0.000000 0.380952
v -1.447619 0.102631 0.380952
v -1.295238 0.364273 0.380952
v -1.142857 0.687215 0.380952
v -0.990476 0.937835 0.380952
v -0.838095 1.011251 0.380952
v -0.685714 1.054782 0.380952
v -0.533333 1.090834 0.380952
v -0.380952 1.118602 0.380952
v -0.228571 1.137466 0.380952
v -0.076190 1.147005 0.380952
v 0.076190 1.147005 0.380952
v 0.228571 1.137466 0.380952
v 0.380952 1.118602 0.380952
v 0.533333 1.090834 0.380952
v 0.685714 1.054782 0.380952
v 0.838095 1.011251 0.380952
v 0.990476 0.937835 0.380952
v 1.142857 0.687215 0.380952
v 1.295238 0.364273 0.380952
v 1.447619 0.102631 0.380952
v 1.600000 0.000000 0.380952
v -1.600000 0.000000 0.228571
v -1.447619 0.103027 0.228571
v -1.295238 0.366844 0.228571
v -1.142857 0.693886 0.228571
v -0.990476 0.948973 0.228571
v -0.838095 1.025035 0.228571
v -0.685714 1.070626 0.228571
v -0.533333 1.108384 0.228571
v -0.380952 1.137466 0.228571
v -0.228571 1.157223 0.228571
v -0.076190 1.167213 0.228571
v 0.076190 1.167213 0.228571
v 0.228571 1.157223 0.228571
v 0.380952 1.137466 0.228571
v 0.533333 1.108384 0.228571
v 0.685714 1.070626 0.228571
v 0.838095 1.025035 0.228571
v 0.990476 0.948973 0.228571
v 1.142857 0.693886 0.228571
v 1.295238 0.366844 0.228571
v 1.447619 0.103027 0.228571
v 1.600000 0.000000 0.228571
v -1.600000 0.000000 0.076190
v -1.447619 0.103227 0.076190
v -1.295238 0.368144 0.076190
v -1.142857 0.697259 0.076190
v -0.990476 0.954605 0.076190
v -0.838095 1.032005 0.076190
v -0.685714 1.078637 0.076190
v -0.533333 1.117258 0.076190
v -0.380952 1.147005 0.076190
v -0.228571 1.167213 0.076190
v -0.076190 1.177431 0.076190
v 0.076190 1.177431 0.076190
v 0.228571 1.167213 0.076190
v 0.380952 1.147005 0.076190
v 0.533333 1.117258 0.076190
v 0.685714 1.078637 0.076190
v 0.838095 1.032005 0.076190
v 0.990476 0.954605 0.076190
v 1.142857 0.697259 0.076190
v 1.295238 0.368144 0.076190
v 1.447619 0.103227 0.076190
v 1.600000 0.000000 0.076190
v -1.600000 0.000000 -0.076190
v -1.447619 0.103227 -0.076190
v -1.295238 0.368144 -0.076190
v -1.142857 0.697259 -0.076190
v -0.990476 0.954605 -0.076190
v -0.838095 1.032005 -0.076190
v -0.685714 1.078637 -0.076190
v -0.533333 1.117258 -0.076190
v -0.380952 1.147005 -0.076190
v -0.228571 1.167213 -0.076190
v -0.076190 1.177431 -0.076190
v 0.076190 1.177431 -0.076190
v 0.228571 1.167213 -0.076190
v 0.380952 1.147005 -0.076190
v 0.533333 1.117258 -0.076190
v 0.685714 1.078637 -0.076190
v 0.838095 1.032005 -0.076190
v 0.990476 0.954605 -0.076190
v 1.142857 0.697259 -0.076190
v 1.295238 0.368144 -0.076190
v 1.447619 0.103227 -0.076190
v 1.600000 0.000000 -0.076190
v -1.600000 0.000000 -0.228571
v -1.447619 0.103027 -0.228571
v -1.295238 0.366844 -0.228571
v -1.142857 0.693886 -0.228571
v -0.990476 0.948973 -0.228571
v -0.838095 1.025035 -0.228571
v -0.685714 1.070626 -0.228571
v -0.533333 1.108384 -0.228571
v -0.380952 1.137466 -0.228571
v -0.228571 1.157223 -0.228571
v -0.076190 1.167213 -0.228571
v 0.076190 1.167213 -0.228571
v 0.228571 1.157223 -0.228571
v 0.380952 1.137466 -0.228571
v 0.533333 1.108384 -0.228571
v 0.685714 1.070626 -0.228571
v 0.838095 1.025035 -0.228571
v 0.990476 0.948973 -0.228571
v 1.142857 0.693886 -0.228571
v 1.295238 0.366844 -0.228571
v 1.447619 0.103027 -0.228571
v 1.600000 0.000000 -0.228571
v -1.600000 0.000000 -0.380952
v -1.447619 0.102631 -0.380952
v -1.295238 0.364273 -0.380952
v -1.142857 0.687215 -0.380952
v -0.990476 0.937835 -0.380952
v -0.838095 1.011251 -0.380952
v -0.685714 1.054782 -0.380952
v -0.533333 1.090834 -0.380952
v -0.380952 1.118602 -0.380952
v -0.228571 1.137466 -0.380952
v -0.076190 1.147005 -0.380952
v 0.076190 1.147005 -0.380952
v 0.228571 1.137466 -0.380952
v 0.380952 1.118602 -0.380952
v 0.533333 1.090834 -0.380952
v 0.685714 1.054782 -0.380952
v 0.838095 1.011251 -0.380952
v 0.990476 0.937835 -0.380952
v 1.142857 0.687215 -0.380952
v 1.295238 0.364273 -0.380952
v 1.447619 0.102631 -0.380952
v 1.600000 0.000000 -0.380952
v -1.600000 0.000000 -0.533333
v -1.447619 0.102049 -0.533333
v -1.295238 0.360488 -0.533333
v -1.142857 0.677395 -0.533333
v -0.990476 0.921440 -0.533333
v -0.838095 0.990962 -0.533333
v -0.685714 1.031460 -0.533333
v -0.533333 1.065000 -0.533333
v -0.380952 1.090834 -0.533333
v -0.228571 1.108384 -0.533333
v -0.076190 1.117258 -0.533333
v 0.076190 1.117258 -0.533333
v 0.228571 1.108384 -0.533333
v 0.380952 1.090834 -0.533333
v 0.533333 1.065000 -0.533333
v 0.685714 1.031460 -0.533333
v 0.838095 0.990962 -0.533333
v 0.990476 0.921440 -0.533333
v 1.142857 0.677395 -0.533333
v 1.295238 0.360488 -0.533333
v 1.447619 0.102049 -0.533333
v 1.600000 0.000000 -0.533333
v -1.600000 0.000000 -0.685714
v -1.447619 0.101293 -0.685714
v -1.295238 0.355574 -0.685714
v -1.142857 0.664646 -0.685714
v -0.990476 0.900153 -0.685714
v -0.838095 0.964619 -0.685714
v -0.685714 1.001180 -0.685714
v -0.533333 1.031460 -0.685714
v -0.380952 1.054782 -0.685714
v -0.228571 1.070626 -0.685714
v -0.076190 1.078637 -0.685714
v 0.076190 1.078637 -0.685714
v 0.228571 1.070626 -0.685714
v 0.380952 1.054782 -0.685714
v 0.533333 1.031460 -0.685714
v 0.685714 1.001180 -0.685714
v 0.838095 0.964619 -0.685714
v 0.990476 0.900153 -0.685714
v 1.142857 0.664646 -0.685714
v 1.295238 0.355574 -0.685714
v 1.447619 0.101293 -0.685714
v 1.600000 0.000000 -0.685714
v -1.600000 0.000000 -0.838095
v -1.447619 0.100381 -0.838095
v -1.295238 0.349640 -0.838095
v -1.142857 0.649252 -0.838095
v -0.990476 0.874451 -0.838095
v -0.838095 0.932812 -0.838095
v -0.685714 0.964619 -0.838095
v -0.533333 0.990962 -0.838095
v -0.380952 1.011251 -0.838095
v -0.228571 1.025035 -0.838095
v -0.076190 1.032005 -0.838095
v 0.076190 1.032005 -0.838095
v 0.228571 1.025035 -0.838095
v 0.380952 1.011251 -0.838095
v 0.533333 0.990962 -0.838095
v 0.685714 0.964619 -0.838095
v 0.838095 0.932812 -0.838095
v 0.990476 0.874451 -0.838095
v 1.142857 0.649252 -0.838095
v 1.295238 0.349640 -0.838095
v 1.447619 0.100381 -0.838095
v 1.600000 0.000000 -0.838095
v -1.600000 0.000000 -0.990476
v -1.447619 0.099332 -0.990476
v -1.295238 0.342820 -0.990476
v -1.142857 0.631558 -0.990476
v -0.990476 0.844908 -0.990476
v -0.838095 0.874451 -0.990476
v -0.685714 0.900153 -0.990476
v -0.533333 0.921440 -0.990476
v -0.380952 0.937835 -0.990476
v -0.228571 0.948973 -0.990476
v -0.076190 0.954605 -0.990476
v 0.076190 0.954605 -0.990476
v 0.228571 0.948973 -0.990476
v 0.380952 0.937835 -0.990476
v 0.533333 0.921440 -0.990476
v 0.685714 0.900153 -0.990476
v 0.838095 0.874451 -0.990476
v 0.990476 0.844908 -0.990476
v 1.142857 0.631558 -0.990476
v 1.295238 0.342820 -0.990476
v 1.447619 0.099332 -0.990476
v 1.600000 0.000000 -0.990476
v -1.600000 0.000000 -1.142857
v -1.447619 0.098170 -1.142857
v -1.295238 0.335265 -1.142857
v -1.142857 0.611958 -1.142857
v -0.990476 0.631558 -1.142857
v -0.838095 0.649252 -1.142857
v -0.685714 0.664646 -1.142857
v -0.533333 0.677395 -1.142857
v -0.380952 0.687215 -1.142857
v -0.228571 0.693886 -1.142857
v -0.076190 0.697259 -1.142857
v 0.076190 0.697259 -1.142857
v 0.228571 0.693886 -1.142857
v 0.380952 0.687215 -1.142857
v 0.533333 0.677395 -1.142857
v 0.685714 0.664646 -1.142857
v 0.838095 0.649252 -1.142857
v 0.990476 0.631558 -1.142857
v 1.142857 0.611958 -1.142857
v 1.295238 0.335265 -1.142857
v 1.447619 0.098170 -1.142857
v 1.600000 0.000000 -1.142857
v -1.600000 0.000000 -1.295238
v -1.447619 0.096921 -1.295238
v -1.295238 0.327144 -1.295238
v -1.142857 0.335265 -1.295238
v -0.990476 0.342820 -1.295238
v -0.838095 0.349640 -1.295238
v -0.685714 0.355574 -1.295238
v -0.533333 0.360488 -1.295238
v -0.380952 0.364273 -1.295238
v -0.228571 0.366844 -1.295238
v -0.076190 0.368144 -1.295238
v 0.076190 0.368144 -1.295238
v 0.228571 0.366844 -1.295238
v 0.380952 0.364273 -1.295238
v 0.533333 0.360488 -1.295238
v 0.685714 0.355574 -1.295238
v 0.838095 0.349640 -1.295238
v 0.990476 0.342820 -1.295238
v 1.142857 0.335265 -1.295238
v 1.295238 0.327144 -1.295238
v 1.447619 0.096921 -1.295238
v 1.600000 0.000000 -1.295238
v -1.600000 0.000000 -1.447619
v -1.447619 0.095613 -1.447619
v -1.295238 0.096921 -1.447619
v -1.142857 0.098170 -1.447619
v -0.990476 0.099332 -1.447619
v -0.838095 0.100381 -1.447619
v -0.685714 0.101293 -1.447619
v -0.533333 0.102049 -1.447619
v -0.380952 0.102631 -1.447619
v -0.228571 0.103027 -1.447619
v -0.076190 0.103227 -1.447619
v 0.076190 0.103227 -1.447619
v 0.228571 0.103027 -1.447619
v 0.380952 0.102631 -1.447619
v 0.533333 0.102049 -1.447619
v 0.685714 0.101293 -1.447619
v 0.838095 0.100381 -1.447619
v 0.990476 0.099332 -1.447619
v 1.142857 0.098170 -1.447619
v 1.295238 0.096921 -1.447619
v 1.447619 0.095613 -1.447619
v 1.600000 0.000000 -1.447619
v -1.600000 0.000000 -1.600000
v -1.447619 0.000000 -1.600000
v -1.295238 0.000000 -1.600000
v -1.142857 0.000000 -1.600000
v -0.990476 0.000000 -1.600000
v -0.838095 0.000000 -1.600000
v -0.685714 0.000000 -1.600000
v -0.533333 0.000000 -1.600000
v -0.380952 0.000000 -1.600000
v -0.228571 0.000000 -1.600000
v -0.076190 0.000000 -1.600000
v 0.076190 0.000000 -1.600000
v 0.228571 0.000000 -1.600000
v 0.380952 0.000000 -1.600000
v 0.533333 0.000000 -1.600000
v 0.685714 0.000000 -1.600000
v 0.838095 0.000000 -1.600000
v 0.990476 0.000000 -1.600000
v 1.142857 0.000000 -1.600000
v 1.295238 0.000000 -1.600000
v 1.447619 0.000000 -1.600000
v 1.600000 0.000000 -1.600000
v -1.600000 0.000000 1.600000
v -1.447619 0.000000 1.600000
v -1.295238 0.000000 1.600000
v -1.142857 0.000000 1.600000
v -0.990476 0.000000 1.600000
v -0.838095 0.000000 1.600000
v -0.685714 0.000000 1.600000
v -0.533333 0.000000 1.600000
v -0.380952 0.000000 1.600000
v -0.228571 0.000000 1.600000
v -0.076190 0.000000 1.600000
v 0.076190 0.000000 1.600000
v 0.228571 0.000000 1.600000
v 0.380952 0.000000 1.600000
v 0.533333 0.000000 1.600000
v 0.685714 0.000000 1.600000
v 0.838095 0.000000 1.600000
v 0.990476 0.000000 1.600000
v 1.142857 0.000000 1.600000
v 1.295238 0.000000 1.600000
v 1.447619 0.000000 1.600000
v 1.600000 0.000000 1.600000
v 1.600000 0.000000 1.447619
v 1.600000 0.000000 1.295238
v 1.600000 0.000000 1.142857
v 1.600000 0.000000 0.990476
v 1.600000 0.000000 0.838095
v 1.600000 0.000000 0.685714
v 1.600000 0.000000 0.533333
v 1.600000 0.000000 0.380952
v 1.600000 0.000000 0.228571
v 1.600000 0.000000 0.076190
v 1.600000 0.000000 -0.076190
v 1.600000 0.000000 -0.228571
v 1.600000 0.000000 -0.380952
v 1.600000 0.000000 -0.533333
v 1.600000 0.000000 -0.685714
v 1.600000 0.000000 -0.838095
v 1.600000 0.000000 -0.990476
v 1.600000 0.000000 -1.142857
v 1.600000 0.000000 -1.295238
v 1.600000 0.000000 -1.447619
v 1.600000 0.000000 -1.600000
v 1.447619 0.000000 -1.600000
v 1.295238 0.000000 -1.600000
v 1.142857 0.000000 -1.600000
v 0.990476 0.000000 -1.600000
v 0.838095 0.000000 -1.600000
v 0.685714 0.000000 -1.600000
v 0.533333 0.000000 -1.600000
v 0.380952 0.000000 -1.600000
v 0.228571 0.000000 -1.600000
v 0.076190 0.000000 -1.600000
v -0.076190 0.000000 -1.600000
v -0.228571 0.000000 -1.600000
v -0.380952 0.000000 -1.600000
v -0.533333 0.000000 -1.600000
v -0.685714 0.000000 -1.600000
v -0.838095 0.000000 -1.600000
v -0.990476 0.000000 -1.600000
v -1.142857 0.000000 -1.600000
v -1.295238 0.000000 -1.600000
v -1.447619 0.000000 -1.600000
v -1.600000 0.000000 -1.600000
v -1.600000 0.000000 -1.447619
v -1.600000 0.000000 -1.295238
v -1.600000 0.000000 -1.142857
v -1.600000 0.000000 -0.990476
v -1.600000 0.000000 -0.838095
v -1.600000 0.000000 -0.685714
v -1.600000 0.000000 -0.533333
v -1.600000 0.000000 -0.380952
v -1.600000 0.000000 -0.228571
v -1.600000 0.000000 -0.076190
v -1.600000 0.000000 0.076190
v -1.600000 0.000000 0.228571
v -1.600000 0.000000 0.380952
v -1.600000 0.000000 0.533333
v -1.600000 0.000000 0.685714
v -1.600000 0.000000 0.838095
v -1.600000 0.000000 0.990476
v -1.600000 0.000000 1.142857
v -1.600000 0.000000 1.295238
v -1.600000 0.000000 1.447619
v 0.000000 0.000000 0.000000
vn 0.4079 -0.9022 -0.1399
vn 0.1399 -0.9022 -0.4079
vn -0.0000 -1.0000 -0.0000
vn 0.2619 -0.9289 -0.2619
vn 0.0016 -0.8447 -0.5353
vn 0.1272 -0.7811 -0.6113
vn 0.0015 -0.8415 -0.5402
vn 0.0069 -0.7078 -0.7064
vn 0.0014 -0.8385 -0.5448
vn 0.0062 -0.7015 -0.7126
vn 0.0013 -0.8358 -0.5490
vn 0.0055 -0.6959 -0.7181
vn 0.0011 -0.8334 -0.5526
vn 0.0046 -0.6911 -0.7227
vn 0.0009 -0.8314 -0.5556
vn 0.0037 -0.6871 -0.7265
vn 0.0007 -0.8298 -0.5580
vn 0.0028 -0.6841 -0.7294
vn 0.0005 -0.8287 -0.5597
vn 0.0018 -0.6820 -0.7314
vn 0.0002 -0.8281 -0.5606
vn 0.0007 -0.6809 -0.7324
vn -0.0002 -0.8281 -0.5606
vn -0.0018 -0.6820 -0.7314
vn -0.0005 -0.8287 -0.5597
vn -0.0028 -0.6841 -0.7294
vn -0.0007 -0.8298 -0.5580
vn -0.0037 -0.6871 -0.7265
vn -0.0009 -0.8314 -0.5556
vn -0.0046 -0.6911 -0.7227
vn -0.0011 -0.8334 -0.5526
vn -0.0055 -0.6959 -0.7181
vn -0.0013 -0.8358 -0.5490
vn -0.0062 -0.7015 -0.7126
vn -0.0014 -0.8385 -0.5448
vn -0.0069 -0.7078 -0.7064
vn -0.0015 -0.8415 -0.5402
vn -0.1272 -0.7811 -0.6113
vn -0.0016 -0.8447 -0.5353
vn -0.2619 -0.9289 -0.2619
vn -0.1399 -0.9022 -0.4079
vn -0.4079 -0.9022 -0.1399
vn 0.5353 -0.8447 -0.0016
vn 0.6113 -0.7811 -0.1272
vn 0.4304 -0.7934 -0.4304
vn 0.1565 -0.5953 -0.7881
vn 0.0247 -0.5000 -0.8657
vn 0.0214 -0.4887 -0.8722
vn 0.0179 -0.4793 -0.8775
vn 0.0142 -0.4717 -0.8816
vn 0.0103 -0.4660 -0.8847
vn 0.0063 -0.4621 -0.8868
vn 0.0023 -0.4601 -0.8878
vn -0.0007 -0.6809 -0.7324
vn -0.0063 -0.4621 -0.8868
vn -0.0103 -0.4660 -0.8847
vn -0.0142 -0.4717 -0.8816
vn -0.0179 -0.4793 -0.8775
vn -0.0214 -0.4887 -0.8722
vn -0.0247 -0.5000 -0.8657
vn -0.1565 -0.5953 -0.7881
vn -0.4304 -0.7934 -0.4304
vn -0.6113 -0.7811 -0.1272
vn -0.5353 -0.8447 -0.0016
vn 0.5402 -0.8415 -0.0015
vn 0.7064 -0.7078 -0.0069
vn 0.7881 -0.5953 -0.1565
vn 0.4826 -0.7308 -0.4826
vn 0.1781 -0.5903 -0.7873
vn 0.0572 -0.5090 -0.8589
vn 0.0473 -0.4947 -0.8678
vn 0.0371 -0.4834 -0.8746
vn 0.0268 -0.4749 -0.8796
vn 0.0163 -0.4692 -0.8829
vn 0.0057 -0.4663 -0.8846
vn -0.0023 -0.4601 -0.8878
vn -0.0163 -0.4692 -0.8829
vn -0.0268 -0.4749 -0.8796
vn -0.0372 -0.4834 -0.8746
vn -0.0473 -0.4947 -0.8678
vn -0.0572 -0.5090 -0.8589
vn -0.1781 -0.5903 -0.7873
vn -0.4826 -0.7308 -0.4826
vn -0.7881 -0.5953 -0.1565
vn -0.7064 -0.7078 -0.0069
vn -0.5402 -0.8415 -0.0015
vn 0.5448 -0.8385 -0.0014
vn 0.7126 -0.7015 -0.0062
vn 0.8657 -0.5000 -0.0247
vn 0.7873 -0.5903 -0.1781
vn 0.4704 -0.7466 -0.4704
vn 0.1623 -0.7829 -0.6006
vn 0.1196 -0.7616 -0.6369
vn 0.0947 -0.7499 -0.6547
vn 0.0686 -0.7410 -0.6680
vn 0.0418 -0.7348 -0.6769
vn 0.0145 -0.7317 -0.6815
vn -0.0057 -0.4663 -0.8846
vn -0.0418 -0.7348 -0.6769
vn -0.0686 -0.7410 -0.6680
vn -0.0947 -0.7499 -0.6547
vn -0.1196 -0.7616 -0.6369
vn -0.1623 -0.7829 -0.6006
vn -0.4704 -0.7466 -0.4704
vn -0.7873 -0.5903 -0.1781
vn -0.8657 -0.5000 -0.0247
vn -0.7126 -0.7015 -0.0062
vn -0.5448 -0.8385 -0.0014
vn 0.5490 -0.8358 -0.0013
vn 0.7181 -0.6959 -0.0055
vn 0.8722 -0.4887 -0.0214
vn 0.8589 -0.5090 -0.0572
vn 0.6006 -0.7829 -0.1623
vn 0.2708 -0.9237 -0.2708
vn 0.1783 -0.9347 -0.3075
vn 0.1428 -0.9320 -0.3333
vn 0.1044 -0.9298 -0.3530
vn 0.0638 -0.9283 -0.3662
vn 0.0220 -0.9276 -0.3729
vn -0.0145 -0.7317 -0.6815
vn -0.0638 -0.9283 -0.3662
vn -0.1044 -0.9298 -0.3530
vn -0.1428 -0.9320 -0.3333
vn -0.1783 -0.9347 -0.3075
vn -0.2708 -0.9237 -0.2708
vn -0.6006 -0.7829 -0.1623
vn -0.8589 -0.5090 -0.0572
vn -0.8722 -0.4887 -0.0214
vn -0.7181 -0.6959 -0.0055
vn -0.5490 -0.8358 -0.0013
vn 0.5526 -0.8334 -0.0011
vn 0.7227 -0.6911 -0.0046
vn 0.8775 -0.4793 -0.0179
vn 0.8678 -0.4947 -0.0473
vn 0.6369 -0.7616 -0.1196
vn 0.3075 -0.9347 -0.1783
vn 0.2094 -0.9551 -0.2094
vn 0.1686 -0.9579 -0.2324
vn 0.1237 -0.9603 -0.2501
vn 0.0758 -0.9620 -0.2623
vn 0.0260 -0.9630 -0.2684
vn -0.0220 -0.9276 -0.3729
vn -0.0758 -0.9620 -0.2623
vn -0.1237 -0.9603 -0.2501
vn -0.1686 -0.9579 -0.2324
vn -0.2094 -0.9551 -0.2094
vn -0.3075 -0.9347 -0.1783
vn -0.6369 -0.7616 -0.1196
vn -0.8678 -0.4947 -0.0473
vn -0.8775 -0.4793 -0.0179
vn -0.7227 -0.6911 -0.0046
vn -0.5526 -0.8334 -0.0011
vn 0.5556 -0.8314 -0.0009
vn 0.7265 -0.6871 -0.0037
vn 0.8816 -0.4717 -0.0142
vn 0.8746 -0.4834 -0.0372
vn 0.6547 -0.7499 -0.0947
vn 0.3333 -0.9320 -0.1428
vn 0.2324 -0.9579 -0.1686
vn 0.1877 -0.9641 -0.1877
vn 0.1381 -0.9695 -0.2026
vn 0.0847 -0.9734 -0.2128
vn 0.0289 -0.9755 -0.2180
vn -0.0260 -0.9630 -0.2684
vn -0.0847 -0.9734 -0.2128
vn -0.1381 -0.9695 -0.2026
vn -0.1877 -0.9641 -0.1877
vn -0.2324 -0.9579 -0.1686
vn -0.3333 -0.9320 -0.1428
vn -0.6547 -0.7499 -0.0947
vn -0.8746 -0.4834 -0.0372
vn -0.8816 -0.4717 -0.0142
vn -0.7265 -0.6871 -0.0037
vn -0.5556 -0.8314 -0.0009
vn 0.5580 -0.8298 -0.0007
vn 0.7294 -0.6841 -0.0028
vn 0.8847 -0.4660 -0.0103
vn 0.8796 -0.4749 -0.0268
vn 0.6680 -0.7410 -0.0686
vn 0.3530 -0.9298 -0.1044
vn 0.2501 -0.9603 -0.1237
vn 0.2026 -0.9695 -0.1381
vn 0.1494 -0.9774 -0.1494
vn 0.0917 -0.9833 -0.1572
vn 0.0312 -0.9864 -0.1611
vn -0.0289 -0.9755 -0.2180
vn -0.0917 -0.9833 -0.1572
vn -0.1494 -0.9774 -0.1494
vn -0.2026 -0.9695 -0.1381
vn -0.2501 -0.9603 -0.1237
vn -0.3530 -0.9298 -0.1044
vn -0.6680 -0.7410 -0.0686
vn -0.8796 -0.4749 -0.0268
vn -0.8847 -0.4660 -0.0103
vn -0.7294 -0.6841 -0.0028
vn -0.5580 -0.8298 -0.0007
vn 0.5597 -0.8287 -0.0005
vn 0.7314 -0.6820 -0.0018
vn 0.8868 -0.4621 -0.0063
vn 0.8829 -0.4692 -0.0163
vn 0.6769 -0.7348 -0.0418
vn 0.3662 -0.9283 -0.0638
vn 0.2623 -0.9620 -0.0758
vn 0.2128 -0.9734 -0.0847
vn 0.1572 -0.9833 -0.0917
vn 0.0965 -0.9906 -0.0965
vn 0.0327 -0.9946 -0.0989
vn -0.0312 -0.9865 -0.1611
vn -0.0965 -0.9906 -0.0965
vn -0.1572 -0.9833 -0.0917
vn -0.2128 -0.9734 -0.0847
vn -0.2623 -0.9620 -0.0758
vn -0.3662 -0.9283 -0.0638
vn -0.6769 -0.7348 -0.0418
vn -0.8829 -0.4692 -0.0163
vn -0.8868 -0.4621 -0.0063
vn -0.7314 -0.6820 -0.0018
vn -0.5597 -0.8287 -0.0005
vn 0.5606 -0.8281 -0.0002
vn 0.7324 -0.6809 -0.0007
vn 0.8878 -0.4601 -0.0023
vn 0.8846 -0.4663 -0.0057
vn 0.6815 -0.7317 -0.0145
vn 0.3729 -0.9276 -0.0220
vn 0.2684 -0.9630 -0.0260
vn 0.2180 -0.9755 -0.0289
vn 0.1611 -0.9864 -0.0312
vn 0.0989 -0.9946 -0.0327
vn 0.0334 -0.9989 -0.0334
vn -0.0327 -0.9946 -0.0989
vn -0.0989 -0.9946 -0.0327
vn -0.1611 -0.9865 -0.0312
vn -0.2180 -0.9755 -0.0289
vn -0.2684 -0.9630 -0.0260
vn -0.3729 -0.9276 -0.0220
vn -0.6815 -0.7317 -0.0145
vn -0.8846 -0.4663 -0.0057
vn -0.8878 -0.4601 -0.0023
vn -0.7324 -0.6809 -0.0007
vn -0.5606 -0.8281 -0.0002
vn 0.5606 -0.8281 0.0002
vn 0.7324 -0.6809 0.0007
vn 0.8878 -0.4601 0.0023
vn 0.8846 -0.4663 0.0057
vn 0.6815 -0.7317 0.0145
vn 0.3729 -0.9276 0.0220
vn 0.2684 -0.9630 0.0260
vn 0.2180 -0.9755 0.0289
vn 0.1611 -0.9865 0.0312
vn 0.0989 -0.9946 0.0327
vn 0.0334 -0.9989 0.0334
vn -0.0334 -0.9989 -0.0334
vn -0.0334 -0.9989 0.0334
vn -0.0989 -0.9946 0.0327
vn -0.1611 -0.9864 0.0312
vn -0.2180 -0.9755 0.0289
vn -0.2684 -0.9630 0.0260
vn -0.3729 -0.9276 0.0220
vn -0.6815 -0.7317 0.0145
vn -0.8846 -0.4663 0.0057
vn -0.8878 -0.4601 0.0023
vn -0.7324 -0.6809 0.0007
vn 0.7314 -0.6820 0.0018
vn 0.8868 -0.4621 0.0063
vn 0.8829 -0.4692 0.0163
vn 0.6769 -0.7348 0.0418
vn 0.3662 -0.9283 0.0638
vn 0.2623 -0.9620 0.0758
vn 0.2128 -0.9734 0.0847
vn 0.1572 -0.9833 0.0917
vn 0.0965 -0.9906 0.0965
vn 0.0327 -0.9946 0.0989
vn -0.0327 -0.9946 0.0989
vn -0.0965 -0.9906 0.0965
vn -0.1572 -0.9833 0.0917
vn -0.2128 -0.9734 0.0847
vn -0.2623 -0.9620 0.0758
vn -0.3662 -0.9283 0.0638
vn -0.6769 -0.7348 0.0418
vn -0.8829 -0.4692 0.0163
vn -0.8868 -0.4621 0.0063
vn -0.7314 -0.6820 0.0018
vn -0.5606 -0.8281 0.0002
vn 0.5597 -0.8287 0.0005
vn 0.7294 -0.6841 0.0028
vn 0.8847 -0.4660 0.0103
vn 0.8796 -0.4749 0.0268
vn 0.6680 -0.7410 0.0686
vn 0.3530 -0.9298 0.1044
vn 0.2501 -0.9603 0.1237
vn 0.2026 -0.9695 0.1381
vn 0.1494 -0.9774 0.1494
vn 0.0917 -0.9833 0.1572
vn 0.0312 -0.9865 0.1611
vn -0.0312 -0.9864 0.1611
vn -0.0917 -0.9833 0.1572
vn -0.1494 -0.9774 0.1494
vn -0.2026 -0.9695 0.1381
vn -0.2501 -0.9603 0.1237
vn -0.3530 -0.9298 0.1044
vn -0.6680 -0.7410 0.0686
vn -0.8796 -0.4749 0.0268
vn -0.8847 -0.4660 0.0103
vn -0.7294 -0.6841 0.0028
vn -0.5597 -0.8287 0.0005
vn 0.5580 -0.8298 0.0007
vn 0.7265 -0.6871 0.0037
vn 0.8816 -0.4717 0.0142
vn 0.8746 -0.4834 0.0372
vn 0.6547 -0.7499 0.0947
vn 0.3333 -0.9320 0.1428
vn 0.2324 -0.9579 0.1686
vn 0.1877 -0.9641 0.1877
vn 0.1381 -0.9695 0.2026
vn 0.0847 -0.9734 0.2128
vn 0.0289 -0.9755 0.2180
vn -0.0289 -0.9755 0.2180
vn -0.0847 -0.9734 0.2128
vn -0.1381 -0.9695 0.2026
vn -0.1877 -0.9641 0.1877
vn -0.2324 -0.9579 0.1686
vn -0.3333 -0.9320 0.1428
vn -0.6547 -0.7499 0.0947
vn -0.8746 -0.4834 0.0372
vn -0.8816 -0.4717 0.0142
vn -0.7265 -0.6871 0.0037
vn -0.5580 -0.8298 0.0007
vn 0.5556 -0.8314 0.0009
vn 0.7227 -0.6911 0.0046
vn 0.8775 -0.4793 0.0179
vn 0.8678 -0.4947 0.0473
vn 0.6369 -0.7616 0.1196
vn 0.3075 -0.9347 0.1783
vn 0.2094 -0.9551 0.2094
vn 0.1686 -0.9579 0.2324
vn 0.1237 -0.9603 0.2501
vn 0.0758 -0.9620 0.2623
vn 0.0260 -0.9630 0.2684
vn -0.0260 -0.9630 0.2684
vn -0.0758 -0.9620 0.2623
vn -0.1237 -0.9603 0.2501
vn -0.1686 -0.9579 0.2324
vn -0.2094 -0.9551 0.2094
vn -0.3075 -0.9347 0.1783
vn -0.6369 -0.7616 0.1196
vn -0.8678 -0.4947 0.0473
vn -0.8775 -0.4793 0.0179
vn -0.7227 -0.6911 0.0046
vn -0.5556 -0.8314 0.0009
vn 0.5526 -0.8334 0.0011
vn 0.7181 -0.6959 0.0055
vn 0.8722 -0.4887 0.0214
vn 0.8589 -0.5090 0.0572
vn 0.6006 -0.7829 0.1623
vn 0.2708 -0.9237 0.2708
vn 0.1783 -0.9347 0.3075
vn 0.1428 -0.9320 0.3333
vn 0.1044 -0.9298 0.3530
vn 0.0638 -0.9283 0.3662
vn 0.0220 -0.9276 0.3729
vn -0.0220 -0.9276 0.3729
vn -0.0638 -0.9283 0.3662
vn -0.1044 -0.9298 0.3530
vn -0.1428 -0.9320 0.3333
vn -0.1783 -0.9347 0.3075
vn -0.2708 -0.9237 0.2708
vn -0.6006 -0.7829 0.1623
vn -0.8589 -0.5090 0.0572
vn -0.8722 -0.4887 0.0214
vn -0.7181 -0.6959 0.0055
vn -0.5526 -0.8334 0.0011
vn 0.5490 -0.8358 0.0013
vn 0.7126 -0.7015 0.0062
vn 0.8657 -0.5000 0.0247
vn 0.7873 -0.5903 0.1781
vn 0.4704 -0.7466 0.4704
vn 0.1623 -0.7829 0.6006
vn 0.1196 -0.7616 0.6369
vn 0.0947 -0.7499 0.6547
vn 0.0686 -0.7410 0.6680
vn 0.0418 -0.7348 0.6769
vn 0.0145 -0.7317 0.6815
vn -0.0145 -0.7317 0.6815
vn -0.0418 -0.7348 0.6769
vn -0.0686 -0.7410 0.6680
vn -0.0947 -0.7499 0.6547
vn -0.1196 -0.7616 0.6369
vn -0.1623 -0.7829 0.6006
vn -0.4704 -0.7466 0.4704
vn -0.7873 -0.5903 0.1781
vn -0.8657 -0.5000 0.0247
vn -0.7126 -0.7015 0.0062
vn -0.5490 -0.8358 0.0013
vn 0.5448 -0.8385 0.0014
vn 0.7064 -0.7078 0.0069
vn 0.7881 -0.5953 0.1565
vn 0.4826 -0.7308 0.4826
vn 0.1781 -0.5903 0.7873
vn 0.0572 -0.5090 0.8589
vn 0.0473 -0.4947 0.8678
vn 0.0371 -0.4834 0.8746
vn 0.0268 -0.4749 0.8796
vn 0.0163 -0.4692 0.8829
vn 0.0057 -0.4663 0.8846
vn -0.0057 -0.4663 0.8846
vn -0.0163 -0.4692 0.8829
vn -0.0268 -0.4749 0.8796
vn -0.0372 -0.4834 0.8746
vn -0.0473 -0.4947 0.8678
vn -0.0572 -0.5090 0.8589
vn -0.1781 -0.5903 0.7873
vn -0.4826 -0.7308 0.4826
vn -0.7881 -0.5953 0.1565
vn -0.7064 -0.7078 0.0069
vn -0.5448 -0.8385 0.0014
vn 0.5402 -0.8415 0.0015
vn 0.6113 -0.7811 0.1272
vn 0.4304 -0.7934 0.4304
vn 0.1565 -0.5953 0.7881
vn 0.0247 -0.5000 0.8657
vn 0.0214 -0.4887 0.8722
vn 0.0179 -0.4793 0.8775
vn 0.0142 -0.4717 0.8816
vn 0.0103 -0.4660 0.8847
vn 0.0063 -0.4621 0.8868
vn 0.0023 -0.4601 0.8878
vn -0.0023 -0.4601 0.8878
vn -0.0063 -0.4621 0.8868
vn -0.0103 -0.4660 0.8847
vn -0.0142 -0.4717 0.8816
vn -0.0179 -0.4793 0.8775
vn -0.0214 -0.4887 0.8722
vn -0.0247 -0.5000 0.8657
vn -0.1565 -0.5953 0.7881
vn -0.4304 -0.7934 0.4304
vn -0.6113 -0.7811 0.1272
vn -0.5402 -0.8415 0.0015
vn 0.5353 -0.8447 0.0016
vn 0.2619 -0.9289 0.2619
vn 0.1272 -0.7811 0.6113
vn 0.0069 -0.7078 0.7064
vn 0.0062 -0.7015 0.7126
vn 0.0055 -0.6959 0.7181
vn 0.0046 -0.6911 0.7227
vn 0.0037 -0.6871 0.7265
vn 0.0028 -0.6841 0.7294
vn 0.0018 -0.6820 0.7314
vn 0.0007 -0.6809 0.7324
vn -0.0007 -0.6809 0.7324
vn -0.0018 -0.6820 0.7314
vn -0.0028 -0.6841 0.7294
vn -0.0037 -0.6871 0.7265
vn -0.0046 -0.6911 0.7227
vn -0.0055 -0.6959 0.7181
vn -0.0062 -0.7015 0.7126
vn -0.0069 -0.7078 0.7064
vn -0.1272 -0.7811 0.6113
vn -0.2619 -0.9289 0.2619
vn -0.5353 -0.8447 0.0016
vn 0.4079 -0.9022 0.1399
vn 0.1399 -0.9022 0.4079
vn 0.0016 -0.8447 0.5353
vn 0.0015 -0.8415 0.5402
vn 0.0014 -0.8385 0.5448
vn 0.0013 -0.8358 0.5490
vn 0.0011 -0.8334 0.5526
vn 0.0009 -0.8314 0.5556
vn 0.0007 -0.8298 0.5580
vn 0.0005 -0.8287 0.5597
vn 0.0002 -0.8281 0.5606
vn -0.0002 -0.8281 0.5606
vn -0.0005 -0.8287 0.5597
vn -0.0007 -0.8298 0.5580
vn -0.0009 -0.8314 0.5556
vn -0.0011 -0.8334 0.5526
vn -0.0013 -0.8358 0.5490
vn -0.0014 -0.8385 0.5448
vn -0.0015 -0.8415 0.5402
vn -0.0016 -0.8447 0.5353
vn -0.1399 -0.9022 0.4079
vn -0.4079 -0.9022 0.1399
vn -0.0000 1.0000 -0.0000
s 1
f 23//1 2//2 1//3
f 24//4 3//5 2//2
f 25//6 4//7 3//5
f 26//8 5//9 4//7
f 27//10 6//11 5//9
f 28//12 7//13 6//11
f 29//14 8//15 7//13
f 30//16 9//17 8//15
f 31//18 10//19 9//17
f 32//20 11//21 10//19
f 33//22 12//23 11//21
f 12//23 35//24 13//25
f 13//25 36//26 14//27
f 14//27 37//28 15//29
f 15//29 38//30 16//31
f 16//31 39//32 17//33
f 17//33 40//34 18//35
f 18//35 41//36 19//37
f 19//37 42//38 20//39
f 20//39 43//40 21//41
f 21//41 44//42 22//3
f 45//43 24//4 23//1
f 46//44 25//6 24//4
f 47//45 26//8 25//6
f 48//46 27//10 26//8
f 49//47 28//12 27//10
f 50//48 29//14 28//12
f 51//49 30//16 29//14
f 52//50 31//18 30//16
f 53//51 32//20 31//18
f 54//52 33//22 32//20
f 55//53 34//54 33//22
f 34//54 57//55 35//24
f 35//24 58//56 36//26
f 36//26 59//57 37//28
f 37//28 60//58 38//30
f 38//30 61//59 39//32
f 39//32 62//60 40//34
f 40//34 63//61 41//36
f 41//36 64//62 42//38
f 42//38 65//63 43//40
f 43//40 66//64 44//42
f 67//65 46//44 45//43
f 68//66 47//45 46//44
f 69//67 48//46 47//45
f 70//68 49//47 48//46
f 71//69 50//48 49//47
f 72//70 51//49 50//48
f 73//71 52//50 51//49
f 74//72 53//51 52//50
f 75//73 54//52 53//51
f 76//74 55//53 54//52
f 77//75 56//76 55//53
f 56//76 79//77 57//55
f 57//55 80//78 58//56
f 58//56 81//79 59//57
f 59//57 82//80 60//58
f 60//58 83//81 61//59
f 61//59 84//82 62//60
f 62//60 85//83 63//61
f 63//61 86//84 64//62
f 64//62 87//85 65//63
f 65//63 88//86 66//64
f 89//87 68//66 67//65
f 90//88 69//67 68//66
f 91//89 70//68 69//67
f 92//90 71//69 70//68
f 93//91 72//70 71//69
f 94//92 73//71 72//70
f 95//93 74//72 73//71
f 96//94 75//73 74//72
f 97//95 76//74 75//73
f 98//96 77//75 76//74
f 99//97 78//98 77//75
f 78//98 101//99 79//77
f 79//77 102//100 80//78
f 80//78 103//101 81//79
f 81//79 104//102 82//80
f 82//80 105//103 83//81
f 83//81 106//104 84//82
f 84//82 107//105 85//83
f 85//83 108//106 86//84
f 86//84 109//107 87//85
f 87//85 110//108 88//86
f 111//109 90//88 89//87
f 112//110 91//89 90//88
f 113//111 92//90 91//89
f 114//112 93//91 92//90
f 115//113 94//92 93//91
f 116//114 95//93 94//92
f 117//115 96//94 95//93
f 118//116 97//95 96//94
f 119//117 98//96 97//95
f 120//118 99//97 98//96
f 121//119 100//120 99//97
f 100//120 123//121 101//99
f 101//99 124//122 102//100
f 102//100 125//123 103//101
f 103//101 126//124 104//102
f 104//102 127//125 105//103
f 105//103 128//126 106//104
f 106//104 129//127 107//105
f 107//105 130//128 108//106
f 108//106 131//129 109//107
f 109//107 132//130 110//108
f 133//131 112//110 111//109
f 134//132 113//111 112//110
f 135//133 114//112 113//111
f 136//134 115//113 114//112
f 137//135 116//114 115//113
f 138//136 117//115 116//114
f 139//137 118//116 117//115
f 140//138 119//117 118//116
f 141//139 120//118 119//117
f 142//140 121//119 120//118
f 143//141 122//142 121//119
f 122//142 145//143 123//121
f 123//121 146//144 124//122
f 124//122 147//145 125//123
f 125//123 148//146 126//124
f 126//124 149//147 127//125
f 127//125 150//148 128//126
f 128//126 151//149 129//127
f 129//127 152//150 130//128
f 130//128 153//151 131//129
f 131//129 154//152 132//130
f 155//153 134//132 133//131
f 156//154 135//133 134//132
f 157//155 136//134 135//133
f 158//156 137//135 136//134
f 159//157 138//136 137//135
f 160//158 139//137 138//136
f 161//159 140//138 139//137
f 162//160 141//139 140//138
f 163//161 142//140 141//139
f 164//162 143//141 142//140
f 165//163 144//164 143//141
f 144//164 167//165 145//143
f 145//143 168//166 146//144
f 146//144 169//167 147//145
f 147//145 170//168 148//146
f 148//146 171//169 149//147
f 149//147 172//170 150//148
f 150//148 173//171 151//149
f 151//149 174//172 152//150
f 152//150 175//173 153//151
f 153//151 176//174 154//152
f 177//175 156//154 155//153
f 178//176 157//155 156//154
f 179//177 158//156 157//155
f 180//178 159//157 158//156
f 181//179 160//158 159//157
f 182//180 161//159 160//158
f 183//181 162//160 161//159
f 184//182 163//161 162//160
f 185//183 164//162 163//161
f 186//184 165//163 164//162
f 187//185 166//186 165//163
f 166//186 189//187 167//165
f 167//165 190//188 168//166
f 168//166 191//189 169//167
f 169//167 192//190 170//168
f 170//168 193//191 171//169
f 171//169 194//192 172//170
f 172//170 195//193 173//171
f 173//171 196//194 174//172
f 174//172 197//195 175//173
f 175//173 198//196 176//174
f 199//197 178//176 177//175
f 200//198 179//177 178//176
f 201//199 180//178 179//177
f 202//200 181//179 180//178
f 203//201 182//180 181//179
f 204//202 183//181 182//180
f 205//203 184//182 183//181
f 206//204 185//183 184//182
f 207//205 186//184 185//183
f 208//206 187//185 186//184
f 209//207 188//208 187//185
f 188//208 211//209 189//187
f 189//187 212//210 190//188
f 190//188 213//211 191//189
f 191//189 214//212 192//190
f 192//190 215//213 193//191
f 193//191 216//214 194//192
f 194//192 217//215 195//193
f 195//193 218//216 196//194
f 196//194 219//217 197//195
f 197//195 220//218 198//196
f 221//219 200//198 199//197
f 222//220 201//199 200//198
f 223//221 202//200 201//199
f 224//222 203//201 202//200
f 225//223 204//202 203//201
f 226//224 205//203 204//202
f 227//225 206//204 205//203
f 228//226 207//205 206//204
f 229//227 208//206 207//205
f 230//228 209//207 208//206
f 231//229 210//230 209//207
f 210//230 233//231 211//209
f 211//209 234//232 212//210
f 212//210 235//233 213//211
f 213//211 236//234 214//212
f 214//212 237//235 215//213
f 215//213 238//236 216//214
f 216//214 239//237 217//215
f 217//215 240//238 218//216
f 218//216 241//239 219//217
f 219//217 242//240 220//218
f 243//241 222//220 221//219
f 244//242 223//221 222//220
f 245//243 224//222 223//221
f 246//244 225//223 224//222
f 247//245 226//224 225//223
f 248//246 227//225 226//224
f 249//247 228//226 227//225
f 250//248 229//227 228//226
f 251//249 230//228 229//227
f 252//250 231//229 230//228
f 253//251 232//252 231//229
f 254//253 233//231 232//252
f 255//254 234//232 233//231
f 256//255 235//233 234//232
f 257//256 236//234 235//233
f 258//257 237//235 236//234
f 259//258 238//236 237//235
f 260//259 239//237 238//236
f 261//260 240//238 239//237
f 262//261 241//239 240//238
f 263//262 242//240 241//239
f 243//241 266//263 244//242
f 244//242 267//264 245//243
f 245//243 268//265 246//244
f 246//244 269//266 247//245
f 247//245 270//267 248//246
f 248//246 271//268 249//247
f 249//247 272//269 250//248
f 250//248 273//270 251//249
f 251//249 274//271 252//250
f 252//250 275//272 253//251
f 275//272 254//253 253//251
f 276//273 255//254 254//253
f 277//274 256//255 255//254
f 278//275 257//256 256//255
f 279//276 258//257 257//256
f 280//277 259//258 258//257
f 281//278 260//259 259//258
f 282//279 261//260 260//259
f 283//280 262//261 261//260
f 284//281 263//262 262//261
f 285//282 264//283 263//262
f 265//284 288//285 266//263
f 266//263 289//286 267//264
f 267//264 290//287 268//265
f 268//265 291//288 269//266
f 269//266 292//289 270//267
f 270//267 293//290 271//268
f 271//268 294//291 272//269
f 272//269 295//292 273//270
f 273//270 296//293 274//271
f 274//271 297//294 275//272
f 297//294 276//273 275//272
f 298//295 277//274 276//273
f 299//296 278//275 277//274
f 300//297 279//276 278//275
f 301//298 280//277 279//276
f 302//299 281//278 280//277
f 303//300 282//279 281//278
f 304//301 283//280 282//279
f 305//302 284//281 283//280
f 306//303 285//282 284//281
f 307//304 286//305 285//282
f 287//306 310//307 288//285
f 288//285 311//308 289//286
f 289//286 312//309 290//287
f 290//287 313//310 291//288
f 291//288 314//311 292//289
f 292//289 315//312 293//290
f 293//290 316//313 294//291
f 294//291 317//314 295//292
f 295//292 318//315 296//293
f 296//293 319//316 297//294
f 319//316 298//295 297//294
f 320//317 299//296 298//295
f 321//318 300//297 299//296
f 322//319 301//298 300//297
f 323//320 302//299 301//298
f 324//321 303//300 302//299
f 325//322 304//301 303//300
f 326//323 305//302 304//301
f 327//324 306//303 305//302
f 328//325 307//304 306//303
f 329//326 308//327 307//304
f 309//328 332//329 310//307
f 310//307 333//330 311//308
f 311//308 334//331 312//309
f 312//309 335//332 313//310
f 313//310 336//333 314//311
f 314//311 337//334 315//312
f 315//312 338//335 316//313
f 316//313 339//336 317//314
f 317//314 340//337 318//315
f 318//315 341//338 319//316
f 341//338 320//317 319//316
f 342//339 321//318 320//317
f 343//340 322//319 321//318
f 344//341 323//320 322//319
f 345//342 324//321 323//320
f 346//343 325//322 324//321
f 347//344 326//323 325//322
f 348//345 327//324 326//323
f 349//346 328//325 327//324
f 350//347 329//326 328//325
f 351//348 330//349 329//326
f 331//350 354//351 332//329
f 332//329 355//352 333//330
f 333//330 356//353 334//331
f 334//331 357//354 335//332
f 335//332 358//355 336//333
f 336//333 359//356 337//334
f 337//334 360//357 338//335
f 338//335 361//358 339//336
f 339//336 362//359 340//337
f 340//337 363//360 341//338
f 363//360 342//339 341//338
f 364//361 343//340 342//339
f 365//362 344//341 343//340
f 366//363 345//342 344//341
f 367//364 346//343 345//342
f 368//365 347//344 346//343
f 369//366 348//345 347//344
f 370//367 349//346 348//345
f 371//368 350//347 349//346
f 372//369 351//348 350//347
f 373//370 352//371 351//348
f 353//372 376//373 354//351
f 354//351 377//374 355//352
f 355//352 378//375 356//353
f 356//353 379//376 357//354
f 357//354 380//377 358//355
f 358//355 381//378 359//356
f 359//356 382//379 360//357
f 360//357 383//380 361//358
f 361//358 384//381 362//359
f 362//359 385//382 363//360
f 385//382 364//361 363//360
f 386//383 365//362 364//361
f 387//384 366//363 365//362
f 388//385 367//364 366//363
f 389//386 368//365 367//364
f 390//387 369//366 368//365
f 391//388 370//367 369//366
f 392//389 371//368 370//367
f 393//390 372//369 371//368
f 394//391 373//370 372//369
f 395//392 374//393 373//370
f 375//394 398//395 376//373
f 376//373 399//396 377//374
f 377//374 400//397 378//375
f 378//375 401//398 379//376
f 379//376 402//399 380//377
f 380//377 403//400 381//378
f 381//378 404//401 382//379
f 382//379 405//402 383//380
f 383//380 406//403 384//381
f 384//381 407//404 385//382
f 407//404 386//383 385//382
f 408//405 387//384 386//383
f 409//406 388//385 387//384
f 410//407 389//386 388//385
f 411//408 390//387 389//386
f 412//409 391//388 390//387
f 413//410 392//389 391//388
f 414//411 393//390 392//389
f 415//412 394//391 393//390
f 416//413 395//392 394//391
f 417//414 396//415 395//392
f 397//416 420//417 398//395
f 398//395 421//418 399//396
f 399//396 422//419 400//397
f 400//397 423//420 401//398
f 401//398 424//421 402//399
f 402//399 425//422 403//400
f 403//400 426//423 404//401
f 404//401 427//424 405//402
f 405//402 428//425 406//403
f 406//403 429//426 407//404
f 429//426 408//405 407//404
f 430//427 409//406 408//405
f 431//428 410//407 409//406
f 432//429 411//408 410//407
f 433//430 412//409 411//408
f 434//431 413//410 412//409
f 435//432 414//411 413//410
f 436//433 415//412 414//411
f 437//434 416//413 415//412
f 438//435 417//414 416//413
f 439//436 418//437 417//414
f 419//438 442//439 420//417
f 420//417 443//440 421//418
f 421//418 444//441 422//419
f 422//419 445//442 423//420
f 423//420 446//443 424//421
f 424//421 447//444 425//422
f 425//422 448//445 426//423
f 426//423 449//446 427//424
f 427//424 450//447 428//425
f 428//425 451//448 429//426
f 451//448 430//427 429//426
f 452//449 431//428 430//427
f 453//450 432//429 431//428
f 454//451 433//430 432//429
f 455//452 434//431 433//430
f 456//453 435//432 434//431
f 457//454 436//433 435//432
f 458//455 437//434 436//433
f 459//456 438//435 437//434
f 460//457 439//436 438//435
f 461//458 440//459 439//436
f 441//460 464//461 442//439
f 442//439 465//462 443//440
f 443//440 466//463 444//441
f 444//441 467//464 445//442
f 445//442 468//465 446//443
f 446//443 469//466 447//444
f 447//444 470//467 448//445
f 448//445 471//468 449//446
f 449//446 472//469 450//447
f 450//447 473//470 451//448
f 473//470 452//449 451//448
f 474//471 453//450 452//449
f 475//472 454//451 453//450
f 476//473 455//452 454//451
f 477//474 456//453 455//452
f 478//475 457//454 456//453
f 479//476 458//455 457//454
f 480//477 459//456 458//455
f 481//478 460//457 459//456
f 482//479 461//458 460//457
f 483//480 462//481 461//458
s 0
f 1//482 486//482 485//482
f 2//482 487//482 486//482
f 3//482 488//482 487//482
f 4//482 489//482 488//482
f 5//482 490//482 489//482
f 6//482 491//482 490//482
f 7//482 492//482 491//482
f 8//482 493//482 492//482
f 9//482 494//482 493//482
f 10//482 495//482 494//482
f 11//482 496//482 495//482
f 12//482 497//482 496//482
f 13//482 498//482 497//482
f 14//482 499//482 498//482
f 15//482 500//482 499//482
f 16//482 501//482 500//482
f 17//482 502//482 501//482
f 18//482 503//482 502//482
f 19//482 504//482 503//482
f 20//482 505//482 504//482
f 21//482 506//482 505//482
f 22//482 507//482 506//482
f 44//482 508//482 507//482
f 66//482 509//482 508//482
f 88//482 510//482 509//482
f 110//482 511//482 510//482
f 132//482 512//482 511//482
f 154//482 513//482 512//482
f 176//482 514//482 513//482
f 198//482 515//482 514//482
f 220//482 516//482 515//482
f 242//482 517//482 516//482
f 264//482 518//482 517//482
f 286//482 519//482 518//482
f 308//482 520//482 519//482
f 330//482 521//482 520//482
f 352//482 522//482 521//482
f 374//482 523//482 522//482
f 396//482 524//482 523//482
f 418//482 525//482 524//482
f 440//482 526//482 525//482
f 462//482 527//482 526//482
f 484//482 528//482 527//482
f 483//482 529//482 528//482
f 482//482 530//482 529//482
f 481//482 531//482 530//482
f 480//482 532//482 531//482
f 479//482 533//482 532//482
f 478//482 534//482 533//482
f 477//482 535//482 534//482
f 476//482 536//482 535//482
f 475//482 537//482 536//482
f 474//482 538//482 537//482
f 473//482 539//482 538//482
f 472//482 540//482 539//482
f 471//482 541//482 540//482
f 470//482 542//482 541//482
f 469//482 543//482 542//482
f 468//482 544//482 543//482
f 467//482 545//482 544//482
f 466//482 546//482 545//482
f 465//482 547//482 546//482
f 464//482 548//482 547//482
f 463//482 549//482 548//482
f 441//482 550//482 549//482
f 419//482 551//482 550//482
f 397//482 552//482 551//482
f 375//482 553//482 552//482
f 353//482 554//482 553//482
f 331//482 555//482 554//482
f 309//482 556//482 555//482
f 287//482 557//482 556//482
f 265//482 558//482 557//482
f 243//482 559//482 558//482
f 221//482 560//482 559//482
f 199//482 561//482 560//482
f 177//482 562//482 561//482
f 155//482 563//482 562//482
f 133//482 564//482 563//482
f 111//482 565//482 564//482
f 89//482 566//482 565//482
f 67//482 567//482 566//482
f 45//482 568//482 567//482
f 23//482 485//482 568//482
f 569//482 485//482 486//482
f 569//482 486//482 487//482
f 569//482 487//482 488//482
f 569//482 488//482 489//482
f 569//482 489//482 490//482
f 569//482 490//482 491//482
f 569//482 491//482 492//482
f 569//482 492//482 493//482
f 569//482 493//482 494//482
f 569//482 494//482 495//482
f 569//482 495//482 496//482
f 569//482 496//482 497//482
f 569//482 497//482 498//482
f 569//482 498//482 499//482
f 569//482 499//482 500//482
f 569//482 500//482 501//482
f 569//482 501//482 502//482
f 569//482 502//482 503//482
f 569//482 503//482 504//482
f 569//482 504//482 505//482
f 569//482 505//482 506//482
f 569//482 506//482 507//482
f 569//482 507//482 508//482
f 569//482 508//482 509//482
f 569//482 509//482 510//482
f 569//482 510//482 511//482
f 569//482 511//482 512//482
f 569//482 512//482 513//482
f 569//482 513//482 514//482
f 569//482 514//482 515//482
f 569//482 515//482 516//482
f 569//482 516//482 517//482
f 569//482 517//482 518//482
f 569//482 518//482 519//482
f 569//482 519//482 520//482
f 569//482 520//482 521//482
f 569//482 521//482 522//482
f 569//482 522//482 523//482
f 569//482 523//482 524//482
f 569//482 524//482 525//482
f 569//482 525//482 526//482
f 569//482 526//482 527//482
f 569//482 527//482 528//482
f 569//482 528//482 529//482
f 569//482 529//482 530//482
f 569//482 530//482 531//482
f 569//482 531//482 532//482
f 569//482 532//482 533//482
f 569//482 533//482 534//482
f 569//482 534//482 535//482
f 569//482 535//482 536//482
f 569//482 536//482 537//482
f 569//482 537//482 538//482
f 569//482 538//482 539//482
f 569//482 539//482 540//482
f 569//482 540//482 541//482
f 569//482 541//482 542//482
f 569//482 542//482 543//482
f 569//482 543//482 544//482
f 569//482 544//482 545//482
f 569//482 545//482 546//482
f 569//482 546//482 547//482
f 569//482 547//482 548//482
f 569//482 548//482 549//482
f 569//482 549//482 550//482
f 569//482 550//482 551//482
f 569//482 551//482 552//482
f 569//482 552//482 553//482
f 569//482 553//482 554//482
f 569//482 554//482 555//482
f 569//482 555//482 556//482
f 569//482 556//482 557//482
f 569//482 557//482 558//482
f 569//482 558//482 559//482
f 569//482 559//482 560//482
f 569//482 560//482 561//482
f 569//482 561//482 562//482
f 569//482 562//482 563//482
f 569//482 563//482 564//482
f 569//482 564//482 565//482
f 569//482 565//482 566//482
f 569//482 566//482 567//482
f 569//482 567//482 568//482
f 569//482 568//482 485//482
s 1
f 23//1 24//4 2//2
f 24//4 25//6 3//5
f 25//6 26//8 4//7
f 26//8 27//10 5//9
f 27//10 28//12 6//11
f 28//12 29//14 7//13
f 29//14 30//16 8//15
f 30//16 31//18 9//17
f 31//18 32//20 10//19
f 32//20 33//22 11//21
f 33//22 34//54 12//23
f 12//23 34//54 35//24
f 13//25 35//24 36//26
f 14//27 36//26 37//28
f 15//29 37//28 38//30
f 16//31 38//30 39//32
f 17//33 39//32 40//34
f 18//35 40//34 41//36
f 19//37 41//36 42//38
f 20//39 42//38 43//40
f 21//41 43//40 44//42
f 45//43 46//44 24//4
f 46//44 47//45 25//6
f 47//45 48//46 26//8
f 48//46 49//47 27//10
f 49//47 50//48 28//12
f 50//48 51//49 29//14
f 51//49 52//50 30//16
f 52//50 53//51 31//18
f 53//51 54//52 32//20
f 54//52 55//53 33//22
f 55//53 56//76 34//54
f 34//54 56//76 57//55
f 35//24 57//55 58//56
f 36//26 58//56 59//57
f 37//28 59//57 60//58
f 38//30 60//58 61//59
f 39//32 61//59 62//60
f 40//34 62//60 63//61
f 41//36 63//61 64//62
f 42//38 64//62 65//63
f 43//40 65//63 66//64
f 67//65 68//66 46//44
f 68//66 69//67 47//45
f 69//67 70//68 48//46
f 70//68 71//69 49//47
f 71//69 72//70 50//48
f 72//70 73//71 51//49
f 73//71 74//72 52//50
f 74//72 75//73 53//51
f 75//73 76//74 54//52
f 76//74 77//75 55//53
f 77//75 78//98 56//76
f 56//76 78//98 79//77
f 57//55 79//77 80//78
f 58//56 80//78 81//79
f 59//57 81//79 82//80
f 60//58 82//80 83//81
f 61//59 83//81 84//82
f 62//60 84//82 85//83
f 63//61 85//83 86//84
f 64//62 86//84 87//85
f 65//63 87//85 88//86
f 89//87 90//88 68//66
f 90//88 91//89 69//67
f 91//89 92//90 70//68
f 92//90 93//91 71//69
f 93//91 94//92 72//70
f 94//92 95//93 73//71
f 95//93 96//94 74//72
f 96//94 97//95 75//73
f 97//95 98//96 76//74
f 98//96 99//97 77//75
f 99//97 100//120 78//98
f 78//98 100//120 101//99
f 79//77 101//99 102//100
f 80//78 102//100 103//101
f 81//79 103//101 104//102
f 82//80 104//102 105//103
f 83//81 105//103 106//104
f 84//82 106//104 107//105
f 85//83 107//105 108//106
f 86//84 108//106 109//107
f 87//85 109//107 110//108
f 111//109 112//110 90//88
f 112//110 113//111 91//89
f 113//111 114//112 92//90
f 114//112 115//113 93//91
f 115//113 116//114 94//92
f 116//114 117//115 95//93
f 117//115 118//116 96//94
f 118//116 119//117 97//95
f 119//117 120//118 98//96
f 120//118 121//119 99//97
f 121//119 122//142 100//120
f 100//120 122//142 123//121
f 101//99 123//121 124//122
f 102//100 124//122 125//123
f 103//101 125//123 126//124
f 104//102 126//124 127//125
f 105//103 127//125 128//126
f 106//104 128//126 129//127
f 107//105 129//127 130//128
f 108//106 130//128 131//129
f 109//107 131//129 132//130
f 133//131 134//132 112//110
f 134//132 135//133 113//111
f 135//133 136//134 114//112
f 136//134 137//135 115//113
f 137//135 138//136 116//114
f 138//136 139//137 117//115
f 139//137 140//138 118//116
f 140//138 141//139 119//117
f 141//139 142//140 120//118
f 142//140 143//141 121//119
f 143//141 144//164 122//142
f 122//142 144//164 145//143
f 123//121 145//143 146//144
f 124//122 146//144 147//145
f 125//123 147//145 148//146
f 126//124 148//146 149//147
f 127//125 149//147 150//148
f 128//126 150//148 151//149
f 129//127 151//149 152//150
f 130//128 152//150 153//151
f 131//129 153//151 154//152
f 155//153 156//154 134//132
f 156//154 157//155 135//133
f 157//155 158//156 136//134
f 158//156 159//157 137//135
f 159//157 160//158 138//136
f 160//158 161//159 139//137
f 161//159 162//160 140//138
f 162//160 163//161 141//139
f 163//161 164//162 142//140
f 164//162 165//163 143//141
f 165//163 166//186 144//164
f 144//164 166//186 167//165
f 145//143 167//165 168//166
f 146//144 168//166 169//167
f 147//145 169//167 170//168
f 148//146 170//168 171//169
f 149//147 171//169 172//170
f 150//148 172//170 173//171
f 151//149 173//171 174//172
f 152//150 174//172 175//173
f 153//151 175//173 176//174
f 177//175 178//176 156//154
f 178//176 179//177 157//155
f 179//177 180//178 158//156
f 180//178 181//179 159//157
f 181//179 182//180 160//158
f 182//180 183//181 161//159
f 183//181 184//182 162//160
f 184//182 185//183 163//161
f 185//183 186//184 164//162
f 186//184 187//185 165//163
f 187//185 188//208 166//186
f 166//186 188//208 189//187
f 167//165 189//187 190//188
f 168//166 190//188 191//189
f 169//167 191//189 192//190
f 170//168 192//190 193//191
f 171//169 193//191 194//192
f 172//170 194//192 195//193
f 173//171 195//193 196//194
f 174//172 196//194 197//195
f 175//173 197//195 198//196
f 199//197 200//198 178//176
f 200//198 201//199 179//177
f 201//199 202//200 180//178
f 202//200 203//201 181//179
f 203//201 204//202 182//180
f 204//202 205//203 183//181
f 205//203 206//204 184//182
f 206//204 207//205 185//183
f 207//205 208//206 186//184
f 208//206 209//207 187//185
f 209//207 210//230 188//208
f 188//208 210//230 211//209
f 189//187 211//209 212//210
f 190//188 212//210 213//211
f 191//189 213//211 214//212
f 192//190 214//212 215//213
f 193//191 215//213 216//214
f 194//192 216//214 217//215
f 195//193 217//215 218//216
f 196//194 218//216 219//217
f 197//195 219//217 220//218
f 221//219 222//220 200//198
f 222//220 223//221 201//199
f 223//221 224//222 202//200
f 224//222 225//223 203//201
f 225//223 226//224 204//202
f 226//224 227//225 205//203
f 227//225 228//226 206//204
f 228//226 229//227 207//205
f 229//227 230//228 208//206
f 230//228 231//229 209//207
f 231//229 232//252 210//230
f 210//230 232//252 233//231
f 211//209 233//231 234//232
f 212//210 234//232 235//233
f 213//211 235//233 236//234
f 214//212 236//234 237//235
f 215//213 237//235 238//236
f 216//214 238//236 239//237
f 217//215 239//237 240//238
f 218//216 240//238 241//239
f 219//217 241//239 242//240
f 243//241 244//242 222//220
f 244//242 245//243 223//221
f 245//243 246//244 224//222
f 246//244 247//245 225//223
f 247//245 248//246 226//224
f 248//246 249//247 227//225
f 249//247 250//248 228//226
f 250//248 251//249 229//227
f 251//249 252//250 230//228
f 252//250 253//251 231//229
f 253//251 254//253 232//252
f 254//253 255//254 233//231
f 255//254 256//255 234//232
f 256//255 257//256 235//233
f 257//256 258//257 236//234
f 258//257 259//258 237//235
f 259//258 260//259 238//236
f 260//259 261//260 239//237
f 261//260 262//261 240//238
f 262//261 263//262 241//239
f 263//262 264//283 242//240
f 243//241 265//284 266//263
f 244//242 266//263 267//264
f 245//243 267//264 268//265
f 246//244 268//265 269//266
f 247//245 269//266 270//267
f 248//246 270//267 271//268
f 249//247 271//268 272//269
f 250//248 272//269 273//270
f 251//249 273//270 274//271
f 252//250 274//271 275//272
f 275//272 276//273 254//253
f 276//273 277//274 255//254
f 277//274 278//275 256//255
f 278//275 279//276 257//256
f 279//276 280//277 258//257
f 280//277 281//278 259//258
f 281//278 282//279 260//259
f 282//279 283//280 261//260
f 283//280 284//281 262//261
f 284//281 285//282 263//262
f 285//282 286//305 264//283
f 265//284 287//306 288//285
f 266//263 288//285 289//286
f 267//264 289//286 290//287
f 268//265 290//287 291//288
f 269//266 291//288 292//289
f 270//267 292//289 293//290
f 271//268 293//290 294//291
f 272//269 294//291 295//292
f 273//270 295//292 296//293
f 274//271 296//293 297//294
f 297//294 298//295 276//273
f 298//295 299//296 277//274
f 299//296 300//297 278//275
f 300//297 301//298 279//276
f 301//298 302//299 280//277
f 302//299 303//300 281//278
f 303//300 304//301 282//279
f 304//301 305//302 283//280
f 305//302 306//303 284//281
f 306//303 307//304 285//282
f 307//304 308//327 286//305
f 287//306 309//328 310//307
f 288//285 310//307 311//308
f 289//286 311//308 312//309
f 290//287 312//309 313//310
f 291//288 313//310 314//311
f 292//289 314//311 315//312
f 293//290 315//312 316//313
f 294//291 316//313 317//314
f 295//292 317//314 318//315
f 296//293 318//315 319//316
f 319//316 320//317 298//295
f 320//317 321//318 299//296
f 321//318 322//319 300//297
f 322//319 323//320 301//298
f 323//320 324//321 302//299
f 324//321 325//322 303//300
f 325//322 326//323 304//301
f 326//323 327//324 305//302
f 327//324 328//325 306//303
f 328//325 329//326 307//304
f 329//326 330//349 308//327
f 309//328 331//350 332//329
f 310//307 332//329 333//330
f 311//308 333//330 334//331
f 312//309 334//331 335//332
f 313//310 335//332 336//333
f 314//311 336//333 337//334
f 315//312 337//334 338//335
f 316//313 338//335 339//336
f 317//314 339//336 340//337
f 318//315 340//337 341//338
f 341//338 342//339 320//317
f 342//339 343//340 321//318
f 343//340 344//341 322//319
f 344//341 345//342 323//320
f 345//342 346//343 324//321
f 346//343 347//344 325//322
f 347//344 348//345 326//323
f 348//345 349//346 327//324
f 349//346 350//347 328//325
f 350//347 351//348 329//326
f 351//348 352//371 330//349
f 331//350 353//372 354//351
f 332//329 354//351 355//352
f 333//330 355//352 356//353
f 334//331 356//353 357//354
f 335//332 357//354 358//355
f 336//333 358//355 359//356
f 337//334 359//356 360//357
f 338//335 360//357 361//358
f 339//336 361//358 362//359
f 340//337 362//359 363//360
f 363//360 364//361 342//339
f 364//361 365//362 343//340
f 365//362 366//363 344//341
f 366//363 367//364 345//342
f 367//364 368//365 346//343
f 368//365 369//366 347//344
f 369//366 370//367 348//345
f 370//367 371//368 349//346
f 371//368 372//369 350//347
f 372//369 373//370 351//348
f 373//370 374//393 352//371
f 353//372 375//394 376//373
f 354//351 376//373 377//374
f 355//352 377//374 378//375
f 356//353 378//375 379//376
f 357//354 379//376 380//377
f 358//355 380//377 381//378
f 359//356 381//378 382//379
f 360//357 382//379 383//380
f 361//358 383//380 384//381
f 362//359 384//381 385//382
f 385//382 386//383 364//361
f 386//383 387//384 365//362
f 387//384 388//385 366//363
f 388//385 389//386 367//364
f 389//386 390//387 368//365
f 390//387 391//388 369//366
f 391//388 392//389 370//367
f 392//389 393//390 371//368
f 393//390 394//391 372//369
f 394//391 395//392 373//370
f 395//392 396//415 374//393
f 375//394 397//416 398//395
f 376//373 398//395 399//396
f 377//374 399//396 400//397
f 378//375 400//397 401//398
f 379//376 401//398 402//399
f 380//377 402//399 403//400
f 381//378 403//400 404//401
f 382//379 404//401 405//402
f 383//380 405//402 406//403
f 384//381 406//403 407//404
f 407//404 408//405 386//383
f 408//405 409//406 387//384
f 409//406 410//407 388//385
f 410//407 411//408 389//386
f 411//408 412//409 390//387
f 412//409 413//410 391//388
f 413//410 414//411 392//389
f 414//411 415//412 393//390
f 415//412 416//413 394//391
f 416//413 417//414 395//392
f 417//414 418//437 396//415
f 397//416 419//438 420//417
f 398//395 420//417 421//418
f 399//396 421//418 422//419
f 400//397 422//419 423//420
f 401//398 423//420 424//421
f 402//399 424//421 425//422
f 403//400 425//422 426//423
f 404//401 426//423 427//424
f 405//402 427//424 428//425
f 406//403 428//425 429//426
f 429//426 430//427 408//405
f 430//427 431//428 409//406
f 431//428 432//429 410//407
f 432//429 433//430 411//408
f 433//430 434//431 412//409
f 434//431 435//432 413//410
f 435//432 436//433 414//411
f 436//433 437//434 415//412
f 437//434 438//435 416//413
f 438//435 439//436 417//414
f 439//436 440//459 418//437
f 419//438 441//460 442//439
f 420//417 442//439 443//440
f 421//418 443//440 444//441
f 422//419 444//441 445//442
f 423//420 445//442 446//443
f 424//421 446//443 447//444
f 425//422 447//444 448//445
f 426//423 448//445 449//446
f 427//424 449//446 450//447
f 428//425 450//447 451//448
f 451//448 452//449 430//427
f 452//449 453//450 431//428
f 453//450 454//451 432//429
f 454//451 455//452 433//430
f 455//452 456//453 434//431
f 456//453 457//454 435//432
f 457//454 458//455 436//433
f 458//455 459//456 437//434
f 459//456 460//457 438//435
f 460//457 461//458 439//436
f 461//458 462//481 440//459
f 441//460 463//3 464//461
f 442//439 464//461 465//462
f 443//440 465//462 466//463
f 444//441 466//463 467//464
f 445//442 467//464 468//465
f 446//443 468//465 469//466
f 447//444 469//466 470//467
f 448//445 470//467 471//468
f 449//446 471//468 472//469
f 450//447 472//469 473//470
f 473//470 474//471 452//449
f 474//471 475//472 453//450
f 475//472 476//473 454//451
f 476//473 477//474 455//452
f 477//474 478//475 456//453
f 478//475 479//476 457//454
f 479//476 480//477 458//455
f 480//477 481//478 459//456
f 481//478 482//479 460//457
f 482//479 483//480 461//458
f 483//480 484//3 462//481
s 0
f 1//482 2//482 486//482
f 2//482 3//482 487//482
f 3//482 4//482 488//482
f 4//482 5//482 489//482
f 5//482 6//482 490//482
f 6//482 7//482 491//482
f 7//482 8//482 492//482
f 8//482 9//482 493//482
f 9//482 10//482 494//482
f 10//482 11//482 495//482
f 11//482 12//482 496//482
f 12//482 13//482 497//482
f 13//482 14//482 498//482
f 14//482 15//482 499//482
f 15//482 16//482 500//482
f 16//482 17//482 501//482
f 17//482 18//482 502//482
f 18//482 19//482 503//482
f 19//482 20//482 504//482
f 20//482 21//482 505//482
f 21//482 22//482 506//482
f 22//482 44//482 507//482
f 44//482 66//482 508//482
f 66//482 88//482 509//482
f 88//482 110//482 510//482
f 110//482 132//482 511//482
f 132//482 154//482 512//482
f 154//482 176//482 513//482
f 176//482 198//482 514//482
f 198//482 220//482 515//482
f 220//482 242//482 516//482
f 242//482 264//482 517//482
f 264//482 286//482 518//482
f 286//482 308//482 519//482
f 308//482 330//482 520//482
f 330//482 352//482 521//482
f 352//482 374//482 522//482
f 374//482 396//482 523//482
f 396//482 418//482 524//482
f 418//482 440//482 525//482
f 440//482 462//482 526//482
f 462//482 484//482 527//482
f 484//482 483//482 528//482
f 483//482 482//482 529//482
f 482//482 481//482 530//482
f 481//482 480//482 531//482
f 480//482 479//482 532//482
f 479//482 478//482 533//482
f 478//482 477//482 534//482
f 477//482 476//482 535//482
f 476//482 475//482 536//482
f 475//482 474//482 537//482
f 474//482 473//482 538//482
f 473//482 472//482 539//482
f 472//482 471//482 540//482
f 471//482 470//482 541//482
f 470//482 469//482 542//482
f 469//482 468//482 543//482
f 468//482 467//482 544//482
f 467//482 466//482 545//482
f 466//482 465//482 546//482
f 465//482 464//482 547//482
f 464//482 463//482 548//482
f 463//482 441//482 549//482
f 441//482 419//482 550//482
f 419//482 397//482 551//482
f 397//482 375//482 552//482
f 375//482 353//482 553//482
f 353//482 331//482 554//482
f 331//482 309//482 555//482
f 309//482 287//482 556//482
f 287//482 265//482 557//482
f 265//482 243//482 558//482
f 243//482 221//482 559//482
f 221//482 199//482 560//482
f 199//482 177//482 561//482
f 177//482 155//482 562//482
f 155//482 133//482 563//482
f 133//482 111//482 564//482
f 111//482 89//482 565//482
f 89//482 67//482 566//482
f 67//482 45//482 567//482
f 45//482 23//482 568//482
f 23//482 1//482 485//482
